<?xml version="1.0" encoding="UTF-8" standalone="no"?>
<!DOCTYPE svg PUBLIC "-//W3C//DTD SVG 1.1//EN"
 "http://www.w3.org/Graphics/SVG/1.1/DTD/svg11.dtd">
<!-- Generated by graphviz version 2.43.0 (0)
 -->
<!-- Title: /home/runner/work/cbmc/cbmc/src/pointer&#45;analysis/add_failed_symbols.cpp Pages: 1 -->
<svg width="1004pt" height="709pt"
 viewBox="0.00 0.00 1004.00 709.00" xmlns="http://www.w3.org/2000/svg" xmlns:xlink="http://www.w3.org/1999/xlink">
<g id="graph0" class="graph" transform="scale(1 1) rotate(0) translate(4 705)">
<title>/home/runner/work/cbmc/cbmc/src/pointer&#45;analysis/add_failed_symbols.cpp</title>
<!-- Node1 -->
<g id="Node000001" class="node">
<title>Node1</title>
<g id="a_Node000001"><a xlink:title="Pointer Dereferencing.">
<polygon fill="#999999" stroke="#666666" points="691.5,-701 546.5,-701 546.5,-660 691.5,-660 691.5,-701"/>
<text text-anchor="start" x="554.5" y="-689" font-family="Helvetica,sans-Serif" font-size="10.00">/home/runner/work/cbmc</text>
<text text-anchor="start" x="554.5" y="-678" font-family="Helvetica,sans-Serif" font-size="10.00">/cbmc/src/pointer&#45;analysis</text>
<text text-anchor="middle" x="619" y="-667" font-family="Helvetica,sans-Serif" font-size="10.00">/add_failed_symbols.cpp</text>
</a>
</g>
</g>
<!-- Node2 -->
<g id="Node000002" class="node">
<title>Node2</title>
<g id="a_Node000002"><a xlink:href="add__failed__symbols_8h.html" target="_top" xlink:title="Pointer Dereferencing.">
<polygon fill="white" stroke="#666666" points="548.5,-624 425.5,-624 425.5,-605 548.5,-605 548.5,-624"/>
<text text-anchor="middle" x="487" y="-612" font-family="Helvetica,sans-Serif" font-size="10.00">add_failed_symbols.h</text>
</a>
</g>
</g>
<!-- Node1&#45;&gt;Node2 -->
<g id="edge1_Node000001_Node000002" class="edge">
<title>Node1&#45;&gt;Node2</title>
<g id="a_edge1_Node000001_Node000002"><a xlink:title=" ">
<path fill="none" stroke="#63b8ff" d="M578.68,-659.95C557.63,-649.75 532.46,-637.54 513.82,-628.5"/>
<polygon fill="#63b8ff" stroke="#63b8ff" points="515.25,-625.31 504.72,-624.09 512.19,-631.6 515.25,-625.31"/>
</a>
</g>
</g>
<!-- Node37 -->
<g id="Node000037" class="node">
<title>Node37</title>
<g id="a_Node000037"><a xlink:href="namespace_8h.html" target="_top" xlink:title=" ">
<polygon fill="white" stroke="#666666" points="251.5,-184 150.5,-184 150.5,-165 251.5,-165 251.5,-184"/>
<text text-anchor="middle" x="201" y="-172" font-family="Helvetica,sans-Serif" font-size="10.00">util/namespace.h</text>
</a>
</g>
</g>
<!-- Node1&#45;&gt;Node37 -->
<g id="edge31_Node000001_Node000037" class="edge">
<title>Node1&#45;&gt;Node37</title>
<g id="a_edge31_Node000001_Node000037"><a xlink:title=" ">
<path fill="none" stroke="#63b8ff" d="M546.44,-678.47C399.59,-674.4 81,-654.73 81,-560.5 81,-560.5 81,-560.5 81,-393.5 81,-308.31 152.2,-225.01 184.91,-191.24"/>
<polygon fill="#63b8ff" stroke="#63b8ff" points="187.43,-193.67 191.98,-184.1 182.46,-188.74 187.43,-193.67"/>
</a>
</g>
</g>
<!-- Node38 -->
<g id="Node000038" class="node">
<title>Node38</title>
<g id="a_Node000038"><a xlink:href="pointer__expr_8h.html" target="_top" xlink:title="API to expression classes for Pointers.">
<polygon fill="white" stroke="#666666" points="671.5,-624 566.5,-624 566.5,-605 671.5,-605 671.5,-624"/>
<text text-anchor="middle" x="619" y="-612" font-family="Helvetica,sans-Serif" font-size="10.00">util/pointer_expr.h</text>
</a>
</g>
</g>
<!-- Node1&#45;&gt;Node38 -->
<g id="edge34_Node000001_Node000038" class="edge">
<title>Node1&#45;&gt;Node38</title>
<g id="a_edge34_Node000001_Node000038"><a xlink:title=" ">
<path fill="none" stroke="#63b8ff" d="M619,-659.95C619,-651.85 619,-642.5 619,-634.47"/>
<polygon fill="#63b8ff" stroke="#63b8ff" points="622.5,-634.26 619,-624.26 615.5,-634.26 622.5,-634.26"/>
</a>
</g>
</g>
<!-- Node45 -->
<g id="Node000045" class="node">
<title>Node45</title>
<g id="a_Node000045"><a xlink:href="std__expr_8h.html" target="_top" xlink:title="API to expression classes.">
<polygon fill="white" stroke="#666666" points="717.5,-569 650.5,-569 650.5,-550 717.5,-550 717.5,-569"/>
<text text-anchor="middle" x="684" y="-557" font-family="Helvetica,sans-Serif" font-size="10.00">std_expr.h</text>
</a>
</g>
</g>
<!-- Node1&#45;&gt;Node45 -->
<g id="edge55_Node000001_Node000045" class="edge">
<title>Node1&#45;&gt;Node45</title>
<g id="a_edge55_Node000001_Node000045"><a xlink:title=" ">
<path fill="none" stroke="#63b8ff" d="M649.84,-659.94C661.77,-650.62 674.17,-638.35 681,-624 687.6,-610.12 687.91,-592.56 686.82,-579.42"/>
<polygon fill="#63b8ff" stroke="#63b8ff" points="690.26,-578.75 685.62,-569.22 683.31,-579.56 690.26,-578.75"/>
</a>
</g>
</g>
<!-- Node46 -->
<g id="Node000046" class="node">
<title>Node46</title>
<g id="a_Node000046"><a xlink:href="symbol_8h.html" target="_top" xlink:title="Symbol table entry.">
<polygon fill="white" stroke="#666666" points="406,-459 326,-459 326,-440 406,-440 406,-459"/>
<text text-anchor="middle" x="366" y="-447" font-family="Helvetica,sans-Serif" font-size="10.00">util/symbol.h</text>
</a>
</g>
</g>
<!-- Node1&#45;&gt;Node46 -->
<g id="edge56_Node000001_Node000046" class="edge">
<title>Node1&#45;&gt;Node46</title>
<g id="a_edge56_Node000001_Node000046"><a xlink:title=" ">
<path fill="none" stroke="#63b8ff" d="M546.42,-676.89C503.23,-671.57 450.34,-657.87 416,-624 373.09,-581.68 366.43,-505.06 365.78,-469.54"/>
<polygon fill="#63b8ff" stroke="#63b8ff" points="369.27,-469.16 365.74,-459.17 362.27,-469.19 369.27,-469.16"/>
</a>
</g>
</g>
<!-- Node47 -->
<g id="Node000047" class="node">
<title>Node47</title>
<g id="a_Node000047"><a xlink:href="symbol__table__base_8h.html" target="_top" xlink:title="Author: Diffblue Ltd.">
<polygon fill="white" stroke="#666666" points="962.5,-514 823.5,-514 823.5,-495 962.5,-495 962.5,-514"/>
<text text-anchor="middle" x="893" y="-502" font-family="Helvetica,sans-Serif" font-size="10.00">util/symbol_table_base.h</text>
</a>
</g>
</g>
<!-- Node1&#45;&gt;Node47 -->
<g id="edge60_Node000001_Node000047" class="edge">
<title>Node1&#45;&gt;Node47</title>
<g id="a_edge60_Node000001_Node000047"><a xlink:title=" ">
<path fill="none" stroke="#63b8ff" d="M649.9,-659.88C705.78,-624.39 822.34,-550.37 870.96,-519.5"/>
<polygon fill="#63b8ff" stroke="#63b8ff" points="872.91,-522.4 879.48,-514.09 869.16,-516.49 872.91,-522.4"/>
</a>
</g>
</g>
<!-- Node21 -->
<g id="Node000021" class="node">
<title>Node21</title>
<g id="a_Node000021"><a xlink:title=" ">
<polygon fill="#e0e0e0" stroke="#999999" points="996,-459 964,-459 964,-440 996,-440 996,-459"/>
<text text-anchor="middle" x="980" y="-447" font-family="Helvetica,sans-Serif" font-size="10.00">list</text>
</a>
</g>
</g>
<!-- Node1&#45;&gt;Node21 -->
<g id="edge65_Node000001_Node000021" class="edge">
<title>Node1&#45;&gt;Node21</title>
<g id="a_edge65_Node000001_Node000021"><a xlink:title=" ">
<path fill="none" stroke="#63b8ff" d="M691.75,-666.88C773.99,-648.5 905.11,-605.96 972,-514 981.29,-501.22 982.73,-483.05 982.17,-469.42"/>
<polygon fill="#63b8ff" stroke="#63b8ff" points="985.65,-468.94 981.36,-459.25 978.67,-469.5 985.65,-468.94"/>
</a>
</g>
</g>
<!-- Node3 -->
<g id="Node000003" class="node">
<title>Node3</title>
<g id="a_Node000003"><a xlink:href="expr_8h.html" target="_top" xlink:title=" ">
<polygon fill="white" stroke="#666666" points="614.5,-404 549.5,-404 549.5,-385 614.5,-385 614.5,-404"/>
<text text-anchor="middle" x="582" y="-392" font-family="Helvetica,sans-Serif" font-size="10.00">util/expr.h</text>
</a>
</g>
</g>
<!-- Node2&#45;&gt;Node3 -->
<g id="edge2_Node000002_Node000003" class="edge">
<title>Node2&#45;&gt;Node3</title>
<g id="a_edge2_Node000002_Node000003"><a xlink:title=" ">
<path fill="none" stroke="#63b8ff" d="M490.45,-604.83C498.28,-585.17 518.15,-535.79 536,-495 548.61,-466.2 564.1,-433.13 573.5,-413.3"/>
<polygon fill="#63b8ff" stroke="#63b8ff" points="576.68,-414.76 577.82,-404.23 570.36,-411.76 576.68,-414.76"/>
</a>
</g>
</g>
<!-- Node4 -->
<g id="Node000004" class="node">
<title>Node4</title>
<g id="a_Node000004"><a xlink:href="as__const_8h.html" target="_top" xlink:title=" ">
<polygon fill="white" stroke="#666666" points="118,-19 50,-19 50,0 118,0 118,-19"/>
<text text-anchor="middle" x="84" y="-7" font-family="Helvetica,sans-Serif" font-size="10.00">as_const.h</text>
</a>
</g>
</g>
<!-- Node3&#45;&gt;Node4 -->
<g id="edge3_Node000003_Node000004" class="edge">
<title>Node3&#45;&gt;Node4</title>
<g id="a_edge3_Node000003_Node000004"><a xlink:title=" ">
<path fill="none" stroke="#63b8ff" d="M549.46,-388.62C426.9,-369.36 0,-293.78 0,-175.5 0,-175.5 0,-175.5 0,-118.5 0,-88.33 5.81,-79.07 24,-55 33.34,-42.63 47.04,-32.11 58.99,-24.41"/>
<polygon fill="#63b8ff" stroke="#63b8ff" points="60.99,-27.29 67.69,-19.09 57.33,-21.32 60.99,-27.29"/>
</a>
</g>
</g>
<!-- Node5 -->
<g id="Node000005" class="node">
<title>Node5</title>
<g id="a_Node000005"><a xlink:href="type_8h.html" target="_top" xlink:title="Defines typet, type_with_subtypet and type_with_subtypest.">
<polygon fill="white" stroke="#666666" points="605.5,-349 558.5,-349 558.5,-330 605.5,-330 605.5,-349"/>
<text text-anchor="middle" x="582" y="-337" font-family="Helvetica,sans-Serif" font-size="10.00">type.h</text>
</a>
</g>
</g>
<!-- Node3&#45;&gt;Node5 -->
<g id="edge4_Node000003_Node000005" class="edge">
<title>Node3&#45;&gt;Node5</title>
<g id="a_edge4_Node000003_Node000005"><a xlink:title=" ">
<path fill="none" stroke="#63b8ff" d="M582,-384.75C582,-377.8 582,-367.85 582,-359.13"/>
<polygon fill="#63b8ff" stroke="#63b8ff" points="585.5,-359.09 582,-349.09 578.5,-359.09 585.5,-359.09"/>
</a>
</g>
</g>
<!-- Node33 -->
<g id="Node000033" class="node">
<title>Node33</title>
<g id="a_Node000033"><a xlink:href="validation__mode_8h.html" target="_top" xlink:title=" ">
<polygon fill="white" stroke="#666666" points="654.5,-239 547.5,-239 547.5,-220 654.5,-220 654.5,-239"/>
<text text-anchor="middle" x="601" y="-227" font-family="Helvetica,sans-Serif" font-size="10.00">validation_mode.h</text>
</a>
</g>
</g>
<!-- Node3&#45;&gt;Node33 -->
<g id="edge29_Node000003_Node000033" class="edge">
<title>Node3&#45;&gt;Node33</title>
<g id="a_edge29_Node000003_Node000033"><a xlink:title=" ">
<path fill="none" stroke="#63b8ff" d="M598.26,-384.85C623.91,-370.15 672.82,-337.61 692,-294 702.96,-269.08 674.08,-252.32 646.01,-242.31"/>
<polygon fill="#63b8ff" stroke="#63b8ff" points="646.78,-238.87 636.19,-239.04 644.57,-245.52 646.78,-238.87"/>
</a>
</g>
</g>
<!-- Node34 -->
<g id="Node000034" class="node">
<title>Node34</title>
<g id="a_Node000034"><a xlink:href="validate__types_8h.html" target="_top" xlink:title=" ">
<polygon fill="white" stroke="#666666" points="683,-294 585,-294 585,-275 683,-275 683,-294"/>
<text text-anchor="middle" x="634" y="-282" font-family="Helvetica,sans-Serif" font-size="10.00">validate_types.h</text>
</a>
</g>
</g>
<!-- Node3&#45;&gt;Node34 -->
<g id="edge28_Node000003_Node000034" class="edge">
<title>Node3&#45;&gt;Node34</title>
<g id="a_edge28_Node000003_Node000034"><a xlink:title=" ">
<path fill="none" stroke="#63b8ff" d="M589.81,-384.9C597.22,-376.35 608.19,-362.59 615,-349 622.18,-334.68 627.17,-317.15 630.23,-304.14"/>
<polygon fill="#63b8ff" stroke="#63b8ff" points="633.71,-304.59 632.42,-294.07 626.87,-303.09 633.71,-304.59"/>
</a>
</g>
</g>
<!-- Node35 -->
<g id="Node000035" class="node">
<title>Node35</title>
<g id="a_Node000035"><a xlink:href="validate__expressions_8h.html" target="_top" xlink:title=" ">
<polygon fill="white" stroke="#666666" points="540.5,-349 411.5,-349 411.5,-330 540.5,-330 540.5,-349"/>
<text text-anchor="middle" x="476" y="-337" font-family="Helvetica,sans-Serif" font-size="10.00">validate_expressions.h</text>
</a>
</g>
</g>
<!-- Node3&#45;&gt;Node35 -->
<g id="edge27_Node000003_Node000035" class="edge">
<title>Node3&#45;&gt;Node35</title>
<g id="a_edge27_Node000003_Node000035"><a xlink:title=" ">
<path fill="none" stroke="#63b8ff" d="M564.97,-384.98C548.07,-376.54 521.94,-363.47 502.36,-353.68"/>
<polygon fill="#63b8ff" stroke="#63b8ff" points="503.85,-350.51 493.34,-349.17 500.72,-356.77 503.85,-350.51"/>
</a>
</g>
</g>
<!-- Node36 -->
<g id="Node000036" class="node">
<title>Node36</title>
<g id="a_Node000036"><a xlink:title=" ">
<polygon fill="#e0e0e0" stroke="#999999" points="765.5,-349 700.5,-349 700.5,-330 765.5,-330 765.5,-349"/>
<text text-anchor="middle" x="733" y="-337" font-family="Helvetica,sans-Serif" font-size="10.00">functional</text>
</a>
</g>
</g>
<!-- Node3&#45;&gt;Node36 -->
<g id="edge30_Node000003_Node000036" class="edge">
<title>Node3&#45;&gt;Node36</title>
<g id="a_edge30_Node000003_Node000036"><a xlink:title=" ">
<path fill="none" stroke="#63b8ff" d="M606.26,-384.98C631.32,-376.19 670.63,-362.39 698.83,-352.49"/>
<polygon fill="#63b8ff" stroke="#63b8ff" points="700.02,-355.78 708.3,-349.17 697.7,-349.18 700.02,-355.78"/>
</a>
</g>
</g>
<!-- Node6 -->
<g id="Node000006" class="node">
<title>Node6</title>
<g id="a_Node000006"><a xlink:href="source__location_8h.html" target="_top" xlink:title=" ">
<polygon fill="white" stroke="#666666" points="495,-184 393,-184 393,-165 495,-165 495,-184"/>
<text text-anchor="middle" x="444" y="-172" font-family="Helvetica,sans-Serif" font-size="10.00">source_location.h</text>
</a>
</g>
</g>
<!-- Node5&#45;&gt;Node6 -->
<g id="edge5_Node000005_Node000006" class="edge">
<title>Node5&#45;&gt;Node6</title>
<g id="a_edge5_Node000005_Node000006"><a xlink:title=" ">
<path fill="none" stroke="#63b8ff" d="M574.58,-329.74C552.49,-303.65 486.9,-226.17 457.97,-192"/>
<polygon fill="#63b8ff" stroke="#63b8ff" points="460.59,-189.68 451.46,-184.31 455.25,-194.2 460.59,-189.68"/>
</a>
</g>
</g>
<!-- Node31 -->
<g id="Node000031" class="node">
<title>Node31</title>
<g id="a_Node000031"><a xlink:href="validate_8h.html" target="_top" xlink:title=" ">
<polygon fill="white" stroke="#666666" points="490.5,-294 425.5,-294 425.5,-275 490.5,-275 490.5,-294"/>
<text text-anchor="middle" x="458" y="-282" font-family="Helvetica,sans-Serif" font-size="10.00">validate.h</text>
</a>
</g>
</g>
<!-- Node5&#45;&gt;Node31 -->
<g id="edge18_Node000005_Node000031" class="edge">
<title>Node5&#45;&gt;Node31</title>
<g id="a_edge18_Node000005_Node000031"><a xlink:title=" ">
<path fill="none" stroke="#63b8ff" d="M562.08,-329.98C541.95,-321.38 510.62,-307.99 487.59,-298.15"/>
<polygon fill="#63b8ff" stroke="#63b8ff" points="488.86,-294.88 478.29,-294.17 486.1,-301.32 488.86,-294.88"/>
</a>
</g>
</g>
<!-- Node5&#45;&gt;Node33 -->
<g id="edge26_Node000005_Node000033" class="edge">
<title>Node5&#45;&gt;Node33</title>
<g id="a_edge26_Node000005_Node000033"><a xlink:title=" ">
<path fill="none" stroke="#63b8ff" d="M579.28,-329.72C575.86,-317.32 571.01,-294.07 576,-275 578.55,-265.26 583.75,-255.41 588.76,-247.46"/>
<polygon fill="#63b8ff" stroke="#63b8ff" points="591.69,-249.37 594.37,-239.12 585.89,-245.46 591.69,-249.37"/>
</a>
</g>
</g>
<!-- Node5&#45;&gt;Node34 -->
<g id="edge25_Node000005_Node000034" class="edge">
<title>Node5&#45;&gt;Node34</title>
<g id="a_edge25_Node000005_Node000034"><a xlink:title=" ">
<path fill="none" stroke="#63b8ff" d="M590.59,-329.75C598.16,-322.03 609.38,-310.6 618.51,-301.28"/>
<polygon fill="#63b8ff" stroke="#63b8ff" points="621.07,-303.68 625.57,-294.09 616.07,-298.78 621.07,-303.68"/>
</a>
</g>
</g>
<!-- Node7 -->
<g id="Node000007" class="node">
<title>Node7</title>
<g id="a_Node000007"><a xlink:href="deprecate_8h.html" target="_top" xlink:title=" ">
<polygon fill="white" stroke="#666666" points="467,-129 393,-129 393,-110 467,-110 467,-129"/>
<text text-anchor="middle" x="430" y="-117" font-family="Helvetica,sans-Serif" font-size="10.00">deprecate.h</text>
</a>
</g>
</g>
<!-- Node6&#45;&gt;Node7 -->
<g id="edge6_Node000006_Node000007" class="edge">
<title>Node6&#45;&gt;Node7</title>
<g id="a_edge6_Node000006_Node000007"><a xlink:title=" ">
<path fill="none" stroke="#63b8ff" d="M441.69,-164.75C439.83,-157.72 437.16,-147.62 434.85,-138.84"/>
<polygon fill="#63b8ff" stroke="#63b8ff" points="438.21,-137.86 432.27,-129.09 431.44,-139.65 438.21,-137.86"/>
</a>
</g>
</g>
<!-- Node8 -->
<g id="Node000008" class="node">
<title>Node8</title>
<g id="a_Node000008"><a xlink:href="irep_8h.html" target="_top" xlink:title=" ">
<polygon fill="white" stroke="#666666" points="223,-129 179,-129 179,-110 223,-110 223,-129"/>
<text text-anchor="middle" x="201" y="-117" font-family="Helvetica,sans-Serif" font-size="10.00">irep.h</text>
</a>
</g>
</g>
<!-- Node6&#45;&gt;Node8 -->
<g id="edge7_Node000006_Node000008" class="edge">
<title>Node6&#45;&gt;Node8</title>
<g id="a_edge7_Node000006_Node000008"><a xlink:title=" ">
<path fill="none" stroke="#63b8ff" d="M404.96,-164.98C357.26,-154.58 277.47,-137.18 233.15,-127.51"/>
<polygon fill="#63b8ff" stroke="#63b8ff" points="233.72,-124.06 223.21,-125.34 232.23,-130.89 233.72,-124.06"/>
</a>
</g>
</g>
<!-- Node9 -->
<g id="Node000009" class="node">
<title>Node9</title>
<g id="a_Node000009"><a xlink:title=" ">
<polygon fill="#e0e0e0" stroke="#999999" points="430,-19 386,-19 386,0 430,0 430,-19"/>
<text text-anchor="middle" x="408" y="-7" font-family="Helvetica,sans-Serif" font-size="10.00">string</text>
</a>
</g>
</g>
<!-- Node6&#45;&gt;Node9 -->
<g id="edge17_Node000006_Node000009" class="edge">
<title>Node6&#45;&gt;Node9</title>
<g id="a_edge17_Node000006_Node000009"><a xlink:title=" ">
<path fill="none" stroke="#63b8ff" d="M424.42,-164.98C410.33,-157.68 392.4,-145.68 384,-129 372.01,-105.18 400.27,-99.53 408,-74 412.4,-59.47 412.07,-42.21 410.82,-29.35"/>
<polygon fill="#63b8ff" stroke="#63b8ff" points="414.28,-28.86 409.58,-19.36 407.34,-29.72 414.28,-28.86"/>
</a>
</g>
</g>
<!-- Node30 -->
<g id="Node000030" class="node">
<title>Node30</title>
<g id="a_Node000030"><a xlink:title=" ">
<polygon fill="#e0e0e0" stroke="#999999" points="541,-129 485,-129 485,-110 541,-110 541,-129"/>
<text text-anchor="middle" x="513" y="-117" font-family="Helvetica,sans-Serif" font-size="10.00">optional</text>
</a>
</g>
</g>
<!-- Node6&#45;&gt;Node30 -->
<g id="edge16_Node000006_Node000030" class="edge">
<title>Node6&#45;&gt;Node30</title>
<g id="a_edge16_Node000006_Node000030"><a xlink:title=" ">
<path fill="none" stroke="#63b8ff" d="M455.09,-164.98C465.49,-157 481.26,-144.88 493.72,-135.31"/>
<polygon fill="#63b8ff" stroke="#63b8ff" points="495.91,-138.04 501.71,-129.17 491.65,-132.49 495.91,-138.04"/>
</a>
</g>
</g>
<!-- Node8&#45;&gt;Node9 -->
<g id="edge8_Node000008_Node000009" class="edge">
<title>Node8&#45;&gt;Node9</title>
<g id="a_edge8_Node000008_Node000009"><a xlink:title=" ">
<path fill="none" stroke="#63b8ff" d="M223.13,-113.27C272.56,-101.59 387.62,-74.36 388,-74 400.28,-62.57 405.07,-43.68 406.91,-29.47"/>
<polygon fill="#63b8ff" stroke="#63b8ff" points="410.41,-29.58 407.84,-19.3 403.44,-28.94 410.41,-29.58"/>
</a>
</g>
</g>
<!-- Node10 -->
<g id="Node000010" class="node">
<title>Node10</title>
<g id="a_Node000010"><a xlink:title=" ">
<polygon fill="#e0e0e0" stroke="#999999" points="379.5,-74 332.5,-74 332.5,-55 379.5,-55 379.5,-74"/>
<text text-anchor="middle" x="356" y="-62" font-family="Helvetica,sans-Serif" font-size="10.00">vector</text>
</a>
</g>
</g>
<!-- Node8&#45;&gt;Node10 -->
<g id="edge9_Node000008_Node000010" class="edge">
<title>Node8&#45;&gt;Node10</title>
<g id="a_edge9_Node000008_Node000010"><a xlink:title=" ">
<path fill="none" stroke="#63b8ff" d="M223.21,-110.91C249.23,-102.01 292.6,-87.18 322.67,-76.9"/>
<polygon fill="#63b8ff" stroke="#63b8ff" points="323.98,-80.15 332.31,-73.6 321.71,-73.52 323.98,-80.15"/>
</a>
</g>
</g>
<!-- Node11 -->
<g id="Node000011" class="node">
<title>Node11</title>
<g id="a_Node000011"><a xlink:href="src_2util_2invariant_8h.html" target="_top" xlink:title=" ">
<polygon fill="#fff0f0" stroke="red" points="543.5,-74 474.5,-74 474.5,-55 543.5,-55 543.5,-74"/>
<text text-anchor="middle" x="509" y="-62" font-family="Helvetica,sans-Serif" font-size="10.00">invariant.h</text>
</a>
</g>
</g>
<!-- Node8&#45;&gt;Node11 -->
<g id="edge10_Node000008_Node000011" class="edge">
<title>Node8&#45;&gt;Node11</title>
<g id="a_edge10_Node000008_Node000011"><a xlink:title=" ">
<path fill="none" stroke="#63b8ff" d="M223.03,-113.04C227.63,-111.97 232.47,-110.91 237,-110 316.57,-94.12 410.07,-79.75 464.13,-71.86"/>
<polygon fill="#63b8ff" stroke="#63b8ff" points="464.69,-75.32 474.08,-70.42 463.68,-68.39 464.69,-75.32"/>
</a>
</g>
</g>
<!-- Node15 -->
<g id="Node000015" class="node">
<title>Node15</title>
<g id="a_Node000015"><a xlink:href="irep__ids_8h.html" target="_top" xlink:title="util">
<polygon fill="#fff0f0" stroke="red" points="314,-74 250,-74 250,-55 314,-55 314,-74"/>
<text text-anchor="middle" x="282" y="-62" font-family="Helvetica,sans-Serif" font-size="10.00">irep_ids.h</text>
</a>
</g>
</g>
<!-- Node8&#45;&gt;Node15 -->
<g id="edge13_Node000008_Node000015" class="edge">
<title>Node8&#45;&gt;Node15</title>
<g id="a_edge13_Node000008_Node000015"><a xlink:title=" ">
<path fill="none" stroke="#63b8ff" d="M214.01,-109.98C226.46,-101.84 245.46,-89.41 260.21,-79.76"/>
<polygon fill="#63b8ff" stroke="#63b8ff" points="262.3,-82.57 268.75,-74.17 258.46,-76.72 262.3,-82.57"/>
</a>
</g>
</g>
<!-- Node26 -->
<g id="Node000026" class="node">
<title>Node26</title>
<g id="a_Node000026"><a xlink:href="forward__list__as__map_8h.html" target="_top" xlink:title=" ">
<polygon fill="#fff0f0" stroke="red" points="231.5,-74 104.5,-74 104.5,-55 231.5,-55 231.5,-74"/>
<text text-anchor="middle" x="168" y="-62" font-family="Helvetica,sans-Serif" font-size="10.00">forward_list_as_map.h</text>
</a>
</g>
</g>
<!-- Node8&#45;&gt;Node26 -->
<g id="edge14_Node000008_Node000026" class="edge">
<title>Node8&#45;&gt;Node26</title>
<g id="a_edge14_Node000008_Node000026"><a xlink:title=" ">
<path fill="none" stroke="#63b8ff" d="M195.55,-109.75C190.99,-102.42 184.33,-91.73 178.71,-82.7"/>
<polygon fill="#63b8ff" stroke="#63b8ff" points="181.6,-80.73 173.35,-74.09 175.66,-84.43 181.6,-80.73"/>
</a>
</g>
</g>
<!-- Node11&#45;&gt;Node9 -->
<g id="edge11_Node000011_Node000009" class="edge">
<title>Node11&#45;&gt;Node9</title>
<g id="a_edge11_Node000011_Node000009"><a xlink:title=" ">
<path fill="none" stroke="#63b8ff" d="M492.77,-54.98C476.82,-46.61 452.22,-33.7 433.62,-23.95"/>
<polygon fill="#63b8ff" stroke="#63b8ff" points="435,-20.72 424.52,-19.17 431.75,-26.92 435,-20.72"/>
</a>
</g>
</g>
<!-- Node14 -->
<g id="Node000014" class="node">
<title>Node14</title>
<g id="a_Node000014"><a xlink:title=" ">
<polygon fill="#e0e0e0" stroke="#999999" points="828.5,-19 759.5,-19 759.5,0 828.5,0 828.5,-19"/>
<text text-anchor="middle" x="794" y="-7" font-family="Helvetica,sans-Serif" font-size="10.00">type_traits</text>
</a>
</g>
</g>
<!-- Node11&#45;&gt;Node14 -->
<g id="edge12_Node000011_Node000014" class="edge">
<title>Node11&#45;&gt;Node14</title>
<g id="a_edge12_Node000011_Node000014"><a xlink:title=" ">
<path fill="none" stroke="#63b8ff" d="M543.66,-57.05C595.19,-47.47 692.04,-29.46 748.98,-18.87"/>
<polygon fill="#63b8ff" stroke="#63b8ff" points="749.94,-22.25 759.13,-16.98 748.66,-15.37 749.94,-22.25"/>
</a>
</g>
</g>
<!-- Node26&#45;&gt;Node4 -->
<g id="edge15_Node000026_Node000004" class="edge">
<title>Node26&#45;&gt;Node4</title>
<g id="a_edge15_Node000026_Node000004"><a xlink:title=" ">
<path fill="none" stroke="#63b8ff" d="M154.5,-54.98C141.6,-46.84 121.9,-34.41 106.6,-24.76"/>
<polygon fill="#63b8ff" stroke="#63b8ff" points="108.07,-21.55 97.74,-19.17 104.33,-27.47 108.07,-21.55"/>
</a>
</g>
</g>
<!-- Node31&#45;&gt;Node14 -->
<g id="edge19_Node000031_Node000014" class="edge">
<title>Node31&#45;&gt;Node14</title>
<g id="a_edge19_Node000031_Node000014"><a xlink:title=" ">
<path fill="none" stroke="#63b8ff" d="M468.8,-274.73C517.08,-235.49 713.52,-75.89 775.3,-25.69"/>
<polygon fill="#63b8ff" stroke="#63b8ff" points="777.85,-28.13 783.41,-19.11 773.44,-22.69 777.85,-28.13"/>
</a>
</g>
</g>
<!-- Node32 -->
<g id="Node000032" class="node">
<title>Node32</title>
<g id="a_Node000032"><a xlink:href="exception__utils_8h.html" target="_top" xlink:title=" ">
<polygon fill="white" stroke="#666666" points="415,-239 315,-239 315,-220 415,-220 415,-239"/>
<text text-anchor="middle" x="365" y="-227" font-family="Helvetica,sans-Serif" font-size="10.00">exception_utils.h</text>
</a>
</g>
</g>
<!-- Node31&#45;&gt;Node32 -->
<g id="edge20_Node000031_Node000032" class="edge">
<title>Node31&#45;&gt;Node32</title>
<g id="a_edge20_Node000031_Node000032"><a xlink:title=" ">
<path fill="none" stroke="#63b8ff" d="M443.06,-274.98C428.5,-266.69 406.13,-253.94 389.07,-244.22"/>
<polygon fill="#63b8ff" stroke="#63b8ff" points="390.64,-241.08 380.21,-239.17 387.17,-247.16 390.64,-241.08"/>
</a>
</g>
</g>
<!-- Node31&#45;&gt;Node33 -->
<g id="edge24_Node000031_Node000033" class="edge">
<title>Node31&#45;&gt;Node33</title>
<g id="a_edge24_Node000031_Node000033"><a xlink:title=" ">
<path fill="none" stroke="#63b8ff" d="M480.98,-274.98C504.5,-266.27 541.29,-252.63 567.94,-242.75"/>
<polygon fill="#63b8ff" stroke="#63b8ff" points="569.45,-245.93 577.61,-239.17 567.01,-239.36 569.45,-245.93"/>
</a>
</g>
</g>
<!-- Node32&#45;&gt;Node6 -->
<g id="edge23_Node000032_Node000006" class="edge">
<title>Node32&#45;&gt;Node6</title>
<g id="a_edge23_Node000032_Node000006"><a xlink:title=" ">
<path fill="none" stroke="#63b8ff" d="M377.69,-219.98C389.83,-211.84 408.36,-199.41 422.75,-189.76"/>
<polygon fill="#63b8ff" stroke="#63b8ff" points="424.72,-192.65 431.08,-184.17 420.82,-186.84 424.72,-192.65"/>
</a>
</g>
</g>
<!-- Node32&#45;&gt;Node9 -->
<g id="edge21_Node000032_Node000009" class="edge">
<title>Node32&#45;&gt;Node9</title>
<g id="a_edge21_Node000032_Node000009"><a xlink:title=" ">
<path fill="none" stroke="#63b8ff" d="M314.98,-224.03C257.31,-217.96 167.09,-205.33 141,-184 93.88,-145.47 55.1,-100.97 95,-55 131.1,-13.4 302.97,-9.68 375.54,-10.01"/>
<polygon fill="#63b8ff" stroke="#63b8ff" points="375.88,-13.51 385.9,-10.09 375.93,-6.51 375.88,-13.51"/>
</a>
</g>
</g>
<!-- Node32&#45;&gt;Node11 -->
<g id="edge22_Node000032_Node000011" class="edge">
<title>Node32&#45;&gt;Node11</title>
<g id="a_edge22_Node000032_Node000011"><a xlink:title=" ">
<path fill="none" stroke="#63b8ff" d="M363.67,-219.86C360.89,-198.52 356.82,-142.68 384,-110 403.73,-86.29 437.01,-75.21 464.28,-70.03"/>
<polygon fill="#63b8ff" stroke="#63b8ff" points="465.11,-73.44 474.39,-68.32 463.95,-66.54 465.11,-73.44"/>
</a>
</g>
</g>
<!-- Node37&#45;&gt;Node8 -->
<g id="edge33_Node000037_Node000008" class="edge">
<title>Node37&#45;&gt;Node8</title>
<g id="a_edge33_Node000037_Node000008"><a xlink:title=" ">
<path fill="none" stroke="#63b8ff" d="M201,-164.75C201,-157.8 201,-147.85 201,-139.13"/>
<polygon fill="#63b8ff" stroke="#63b8ff" points="204.5,-139.09 201,-129.09 197.5,-139.09 204.5,-139.09"/>
</a>
</g>
</g>
<!-- Node37&#45;&gt;Node11 -->
<g id="edge32_Node000037_Node000011" class="edge">
<title>Node37&#45;&gt;Node11</title>
<g id="a_edge32_Node000037_Node000011"><a xlink:title=" ">
<path fill="none" stroke="#63b8ff" d="M213.49,-164.78C233.57,-151.16 274.65,-124.85 313,-110 363.14,-90.58 423.93,-78.42 464.38,-71.81"/>
<polygon fill="#63b8ff" stroke="#63b8ff" points="465.14,-75.23 474.46,-70.21 464.04,-68.32 465.14,-75.23"/>
</a>
</g>
</g>
<!-- Node39 -->
<g id="Node000039" class="node">
<title>Node39</title>
<g id="a_Node000039"><a xlink:href="bitvector__types_8h.html" target="_top" xlink:title="Pre&#45;defined bitvector types.">
<polygon fill="white" stroke="#666666" points="632.5,-569 531.5,-569 531.5,-550 632.5,-550 632.5,-569"/>
<text text-anchor="middle" x="582" y="-557" font-family="Helvetica,sans-Serif" font-size="10.00">bitvector_types.h</text>
</a>
</g>
</g>
<!-- Node38&#45;&gt;Node39 -->
<g id="edge35_Node000038_Node000039" class="edge">
<title>Node38&#45;&gt;Node39</title>
<g id="a_edge35_Node000038_Node000039"><a xlink:title=" ">
<path fill="none" stroke="#63b8ff" d="M612.89,-604.75C607.72,-597.34 600.15,-586.5 593.81,-577.41"/>
<polygon fill="#63b8ff" stroke="#63b8ff" points="596.59,-575.29 588,-569.09 590.85,-579.29 596.59,-575.29"/>
</a>
</g>
</g>
<!-- Node38&#45;&gt;Node45 -->
<g id="edge51_Node000038_Node000045" class="edge">
<title>Node38&#45;&gt;Node45</title>
<g id="a_edge51_Node000038_Node000045"><a xlink:title=" ">
<path fill="none" stroke="#63b8ff" d="M629.44,-604.98C639.15,-597.07 653.82,-585.11 665.5,-575.58"/>
<polygon fill="#63b8ff" stroke="#63b8ff" points="667.83,-578.2 673.37,-569.17 663.4,-572.78 667.83,-578.2"/>
</a>
</g>
</g>
<!-- Node40 -->
<g id="Node000040" class="node">
<title>Node40</title>
<g id="a_Node000040"><a xlink:href="std__types_8h.html" target="_top" xlink:title="Pre&#45;defined types.">
<polygon fill="white" stroke="#666666" points="618.5,-514 545.5,-514 545.5,-495 618.5,-495 618.5,-514"/>
<text text-anchor="middle" x="582" y="-502" font-family="Helvetica,sans-Serif" font-size="10.00">std_types.h</text>
</a>
</g>
</g>
<!-- Node39&#45;&gt;Node40 -->
<g id="edge36_Node000039_Node000040" class="edge">
<title>Node39&#45;&gt;Node40</title>
<g id="a_edge36_Node000039_Node000040"><a xlink:title=" ">
<path fill="none" stroke="#63b8ff" d="M582,-549.75C582,-542.8 582,-532.85 582,-524.13"/>
<polygon fill="#63b8ff" stroke="#63b8ff" points="585.5,-524.09 582,-514.09 578.5,-524.09 585.5,-524.09"/>
</a>
</g>
</g>
<!-- Node40&#45;&gt;Node3 -->
<g id="edge37_Node000040_Node000003" class="edge">
<title>Node40&#45;&gt;Node3</title>
<g id="a_edge37_Node000040_Node000003"><a xlink:title=" ">
<path fill="none" stroke="#63b8ff" d="M582,-494.66C582,-477.17 582,-437.8 582,-414.27"/>
<polygon fill="#63b8ff" stroke="#63b8ff" points="585.5,-414.16 582,-404.16 578.5,-414.16 585.5,-414.16"/>
</a>
</g>
</g>
<!-- Node40&#45;&gt;Node11 -->
<g id="edge44_Node000040_Node000011" class="edge">
<title>Node40&#45;&gt;Node11</title>
<g id="a_edge44_Node000040_Node000011"><a xlink:title=" ">
<path fill="none" stroke="#63b8ff" d="M545.4,-501.33C481.49,-496.9 352.92,-484.97 317,-459 294.61,-442.81 294.64,-430.82 288,-404 255.41,-272.32 264.25,-194.96 370,-110 397.03,-88.28 434.89,-77.06 464.27,-71.33"/>
<polygon fill="#63b8ff" stroke="#63b8ff" points="465.06,-74.74 474.28,-69.52 463.82,-67.86 465.06,-74.74"/>
</a>
</g>
</g>
<!-- Node40&#45;&gt;Node31 -->
<g id="edge49_Node000040_Node000031" class="edge">
<title>Node40&#45;&gt;Node31</title>
<g id="a_edge49_Node000040_Node000031"><a xlink:title=" ">
<path fill="none" stroke="#63b8ff" d="M564,-494.86C525.55,-475.26 436.13,-423.28 402,-349 392.89,-329.17 413.18,-310.98 431.84,-299.2"/>
<polygon fill="#63b8ff" stroke="#63b8ff" points="433.63,-302.21 440.46,-294.1 430.07,-296.18 433.63,-302.21"/>
</a>
</g>
</g>
<!-- Node41 -->
<g id="Node000041" class="node">
<title>Node41</title>
<g id="a_Node000041"><a xlink:href="expr__cast_8h.html" target="_top" xlink:title="Templated functions to cast to specific exprt&#45;derived classes.">
<polygon fill="white" stroke="#666666" points="718.5,-459 645.5,-459 645.5,-440 718.5,-440 718.5,-459"/>
<text text-anchor="middle" x="682" y="-447" font-family="Helvetica,sans-Serif" font-size="10.00">expr_cast.h</text>
</a>
</g>
</g>
<!-- Node40&#45;&gt;Node41 -->
<g id="edge38_Node000040_Node000041" class="edge">
<title>Node40&#45;&gt;Node41</title>
<g id="a_edge38_Node000040_Node000041"><a xlink:title=" ">
<path fill="none" stroke="#63b8ff" d="M598.07,-494.98C613.86,-486.61 638.22,-473.7 656.63,-463.95"/>
<polygon fill="#63b8ff" stroke="#63b8ff" points="658.44,-466.95 665.64,-459.17 655.17,-460.76 658.44,-466.95"/>
</a>
</g>
</g>
<!-- Node43 -->
<g id="Node000043" class="node">
<title>Node43</title>
<g id="a_Node000043"><a xlink:href="mp__arith_8h.html" target="_top" xlink:title=" ">
<polygon fill="white" stroke="#666666" points="234.5,-459 165.5,-459 165.5,-440 234.5,-440 234.5,-459"/>
<text text-anchor="middle" x="200" y="-447" font-family="Helvetica,sans-Serif" font-size="10.00">mp_arith.h</text>
</a>
</g>
</g>
<!-- Node40&#45;&gt;Node43 -->
<g id="edge45_Node000040_Node000043" class="edge">
<title>Node40&#45;&gt;Node43</title>
<g id="a_edge45_Node000040_Node000043"><a xlink:title=" ">
<path fill="none" stroke="#63b8ff" d="M545.19,-498.71C484.62,-490.78 360.18,-474.28 255,-459 251.6,-458.51 248.08,-457.98 244.54,-457.45"/>
<polygon fill="#63b8ff" stroke="#63b8ff" points="245.02,-453.99 234.61,-455.95 243.97,-460.91 245.02,-453.99"/>
</a>
</g>
</g>
<!-- Node22 -->
<g id="Node000022" class="node">
<title>Node22</title>
<g id="a_Node000022"><a xlink:title=" ">
<polygon fill="#e0e0e0" stroke="#999999" points="829.5,-459 736.5,-459 736.5,-440 829.5,-440 829.5,-459"/>
<text text-anchor="middle" x="783" y="-447" font-family="Helvetica,sans-Serif" font-size="10.00">unordered_map</text>
</a>
</g>
</g>
<!-- Node40&#45;&gt;Node22 -->
<g id="edge50_Node000040_Node000022" class="edge">
<title>Node40&#45;&gt;Node22</title>
<g id="a_edge50_Node000040_Node000022"><a xlink:title=" ">
<path fill="none" stroke="#63b8ff" d="M614.29,-494.98C648.62,-485.93 703.06,-471.58 740.77,-461.64"/>
<polygon fill="#63b8ff" stroke="#63b8ff" points="741.68,-465.02 750.45,-459.08 739.89,-458.25 741.68,-465.02"/>
</a>
</g>
</g>
<!-- Node41&#45;&gt;Node3 -->
<g id="edge43_Node000041_Node000003" class="edge">
<title>Node41&#45;&gt;Node3</title>
<g id="a_edge43_Node000041_Node000003"><a xlink:title=" ">
<path fill="none" stroke="#63b8ff" d="M665.93,-439.98C650.14,-431.61 625.78,-418.7 607.37,-408.95"/>
<polygon fill="#63b8ff" stroke="#63b8ff" points="608.83,-405.76 598.36,-404.17 605.56,-411.95 608.83,-405.76"/>
</a>
</g>
</g>
<!-- Node41&#45;&gt;Node11 -->
<g id="edge42_Node000041_Node000011" class="edge">
<title>Node41&#45;&gt;Node11</title>
<g id="a_edge42_Node000041_Node000011"><a xlink:title=" ">
<path fill="none" stroke="#63b8ff" d="M689.4,-439.68C699.93,-427.25 719.96,-403.95 738,-385 753.82,-368.38 766.07,-370.14 775,-349 778.28,-341.22 778.14,-337.84 775,-330 726,-207.7 588.34,-113.52 532.74,-79.39"/>
<polygon fill="#63b8ff" stroke="#63b8ff" points="534.31,-76.25 523.94,-74.08 530.69,-82.24 534.31,-76.25"/>
</a>
</g>
</g>
<!-- Node41&#45;&gt;Node14 -->
<g id="edge40_Node000041_Node000014" class="edge">
<title>Node41&#45;&gt;Node14</title>
<g id="a_edge40_Node000041_Node000014"><a xlink:title=" ">
<path fill="none" stroke="#63b8ff" d="M718.78,-440.02C752.72,-431.5 799.79,-417.7 813,-404 833.44,-382.79 832,-369.96 832,-340.5 832,-340.5 832,-340.5 832,-118.5 832,-85.02 815.55,-48.84 804.3,-28.01"/>
<polygon fill="#63b8ff" stroke="#63b8ff" points="807.24,-26.1 799.28,-19.1 801.13,-29.53 807.24,-26.1"/>
</a>
</g>
</g>
<!-- Node41&#45;&gt;Node36 -->
<g id="edge41_Node000041_Node000036" class="edge">
<title>Node41&#45;&gt;Node36</title>
<g id="a_edge41_Node000041_Node000036"><a xlink:title=" ">
<path fill="none" stroke="#63b8ff" d="M684.34,-439.6C687.8,-427.06 694.86,-403.65 704,-385 708.66,-375.49 714.97,-365.56 720.52,-357.5"/>
<polygon fill="#63b8ff" stroke="#63b8ff" points="723.39,-359.5 726.32,-349.32 717.68,-355.45 723.39,-359.5"/>
</a>
</g>
</g>
<!-- Node42 -->
<g id="Node000042" class="node">
<title>Node42</title>
<g id="a_Node000042"><a xlink:title=" ">
<polygon fill="#e0e0e0" stroke="#999999" points="803.5,-404 746.5,-404 746.5,-385 803.5,-385 803.5,-404"/>
<text text-anchor="middle" x="775" y="-392" font-family="Helvetica,sans-Serif" font-size="10.00">typeinfo</text>
</a>
</g>
</g>
<!-- Node41&#45;&gt;Node42 -->
<g id="edge39_Node000041_Node000042" class="edge">
<title>Node41&#45;&gt;Node42</title>
<g id="a_edge39_Node000041_Node000042"><a xlink:title=" ">
<path fill="none" stroke="#63b8ff" d="M696.94,-439.98C711.5,-431.69 733.87,-418.94 750.93,-409.22"/>
<polygon fill="#63b8ff" stroke="#63b8ff" points="752.83,-412.16 759.79,-404.17 749.36,-406.08 752.83,-412.16"/>
</a>
</g>
</g>
<!-- Node43&#45;&gt;Node9 -->
<g id="edge47_Node000043_Node000009" class="edge">
<title>Node43&#45;&gt;Node9</title>
<g id="a_edge47_Node000043_Node000009"><a xlink:title=" ">
<path fill="none" stroke="#63b8ff" d="M184.57,-439.99C171.09,-431.99 151.6,-419.03 138,-404 78.28,-338.01 38,-319.5 38,-230.5 38,-230.5 38,-230.5 38,-118.5 38,-84.66 51.34,-72.99 80,-55 128.84,-24.34 302.69,-14.4 375.53,-11.54"/>
<polygon fill="#63b8ff" stroke="#63b8ff" points="376.06,-15.02 385.92,-11.15 375.79,-8.03 376.06,-15.02"/>
</a>
</g>
</g>
<!-- Node17 -->
<g id="Node000017" class="node">
<title>Node17</title>
<g id="a_Node000017"><a xlink:title=" ">
<polygon fill="#e0e0e0" stroke="#999999" points="345,-404 297,-404 297,-385 345,-385 345,-404"/>
<text text-anchor="middle" x="321" y="-392" font-family="Helvetica,sans-Serif" font-size="10.00">iosfwd</text>
</a>
</g>
</g>
<!-- Node43&#45;&gt;Node17 -->
<g id="edge46_Node000043_Node000017" class="edge">
<title>Node43&#45;&gt;Node17</title>
<g id="a_edge46_Node000043_Node000017"><a xlink:title=" ">
<path fill="none" stroke="#63b8ff" d="M219.44,-439.98C238.99,-431.42 269.38,-418.11 291.82,-408.28"/>
<polygon fill="#63b8ff" stroke="#63b8ff" points="293.45,-411.39 301.21,-404.17 290.64,-404.98 293.45,-411.39"/>
</a>
</g>
</g>
<!-- Node44 -->
<g id="Node000044" class="node">
<title>Node44</title>
<g id="a_Node000044"><a xlink:title=" ">
<polygon fill="#e0e0e0" stroke="#999999" points="241,-404 147,-404 147,-385 241,-385 241,-404"/>
<text text-anchor="middle" x="194" y="-392" font-family="Helvetica,sans-Serif" font-size="10.00">big&#45;int/bigint.hh</text>
</a>
</g>
</g>
<!-- Node43&#45;&gt;Node44 -->
<g id="edge48_Node000043_Node000044" class="edge">
<title>Node43&#45;&gt;Node44</title>
<g id="a_edge48_Node000043_Node000044"><a xlink:title=" ">
<path fill="none" stroke="#63b8ff" d="M199.01,-439.75C198.22,-432.8 197.1,-422.85 196.11,-414.13"/>
<polygon fill="#63b8ff" stroke="#63b8ff" points="199.58,-413.63 194.97,-404.09 192.62,-414.42 199.58,-413.63"/>
</a>
</g>
</g>
<!-- Node45&#45;&gt;Node11 -->
<g id="edge53_Node000045_Node000011" class="edge">
<title>Node45&#45;&gt;Node11</title>
<g id="a_edge53_Node000045_Node000011"><a xlink:title=" ">
<path fill="none" stroke="#63b8ff" d="M712.04,-549.89C748.87,-536.9 812.02,-508.39 839,-459 845.47,-447.16 842.92,-414.17 833,-385 781.96,-234.96 740.38,-194.01 606,-110 585.44,-97.14 560.54,-85.8 541.13,-77.79"/>
<polygon fill="#63b8ff" stroke="#63b8ff" points="542.38,-74.52 531.8,-74.02 539.76,-81.01 542.38,-74.52"/>
</a>
</g>
</g>
<!-- Node45&#45;&gt;Node40 -->
<g id="edge54_Node000045_Node000040" class="edge">
<title>Node45&#45;&gt;Node40</title>
<g id="a_edge54_Node000045_Node000040"><a xlink:title=" ">
<path fill="none" stroke="#63b8ff" d="M667.61,-549.98C651.43,-541.57 626.43,-528.59 607.62,-518.81"/>
<polygon fill="#63b8ff" stroke="#63b8ff" points="609.17,-515.68 598.69,-514.17 605.95,-521.89 609.17,-515.68"/>
</a>
</g>
</g>
<!-- Node45&#45;&gt;Node41 -->
<g id="edge52_Node000045_Node000041" class="edge">
<title>Node45&#45;&gt;Node41</title>
<g id="a_edge52_Node000045_Node000041"><a xlink:title=" ">
<path fill="none" stroke="#63b8ff" d="M683.84,-549.66C683.51,-532.17 682.78,-492.8 682.35,-469.27"/>
<polygon fill="#63b8ff" stroke="#63b8ff" points="685.84,-469.09 682.16,-459.16 678.85,-469.22 685.84,-469.09"/>
</a>
</g>
</g>
<!-- Node46&#45;&gt;Node3 -->
<g id="edge58_Node000046_Node000003" class="edge">
<title>Node46&#45;&gt;Node3</title>
<g id="a_edge58_Node000046_Node000003"><a xlink:title=" ">
<path fill="none" stroke="#63b8ff" d="M400.7,-439.98C438.41,-430.73 498.69,-415.94 539.28,-405.98"/>
<polygon fill="#63b8ff" stroke="#63b8ff" points="540.27,-409.34 549.15,-403.56 538.61,-402.54 540.27,-409.34"/>
</a>
</g>
</g>
<!-- Node46&#45;&gt;Node11 -->
<g id="edge59_Node000046_Node000011" class="edge">
<title>Node46&#45;&gt;Node11</title>
<g id="a_edge59_Node000046_Node000011"><a xlink:title=" ">
<path fill="none" stroke="#63b8ff" d="M367.89,-439.79C372.23,-420.08 383.52,-370.57 396,-330 403.65,-305.14 402.21,-297.06 416,-275 462.69,-200.32 519.94,-211.79 550,-129 556.55,-110.96 542.23,-92.8 528.75,-80.55"/>
<polygon fill="#63b8ff" stroke="#63b8ff" points="530.97,-77.84 521.07,-74.07 526.45,-83.19 530.97,-77.84"/>
</a>
</g>
</g>
<!-- Node46&#45;&gt;Node17 -->
<g id="edge57_Node000046_Node000017" class="edge">
<title>Node46&#45;&gt;Node17</title>
<g id="a_edge57_Node000046_Node000017"><a xlink:title=" ">
<path fill="none" stroke="#63b8ff" d="M358.57,-439.75C352.15,-432.18 342.69,-421.05 334.88,-411.84"/>
<polygon fill="#63b8ff" stroke="#63b8ff" points="337.43,-409.45 328.29,-404.09 332.1,-413.98 337.43,-409.45"/>
</a>
</g>
</g>
<!-- Node47&#45;&gt;Node22 -->
<g id="edge64_Node000047_Node000022" class="edge">
<title>Node47&#45;&gt;Node22</title>
<g id="a_edge64_Node000047_Node000022"><a xlink:title=" ">
<path fill="none" stroke="#63b8ff" d="M875.33,-494.98C857.71,-486.5 830.42,-473.35 810.07,-463.54"/>
<polygon fill="#63b8ff" stroke="#63b8ff" points="811.52,-460.36 800.99,-459.17 808.48,-466.66 811.52,-460.36"/>
</a>
</g>
</g>
<!-- Node47&#45;&gt;Node46 -->
<g id="edge61_Node000047_Node000046" class="edge">
<title>Node47&#45;&gt;Node46</title>
<g id="a_edge61_Node000047_Node000046"><a xlink:title=" ">
<path fill="none" stroke="#63b8ff" d="M823.29,-496.49C715.44,-485.64 510.71,-465.05 416.17,-455.55"/>
<polygon fill="#63b8ff" stroke="#63b8ff" points="416.31,-452.04 406.01,-454.52 415.61,-459.01 416.31,-452.04"/>
</a>
</g>
</g>
<!-- Node47&#45;&gt;Node21 -->
<g id="edge62_Node000047_Node000021" class="edge">
<title>Node47&#45;&gt;Node21</title>
<g id="a_edge62_Node000047_Node000021"><a xlink:title=" ">
<path fill="none" stroke="#63b8ff" d="M906.98,-494.98C920.47,-486.77 941.13,-474.18 957.04,-464.49"/>
<polygon fill="#63b8ff" stroke="#63b8ff" points="959.05,-467.36 965.77,-459.17 955.41,-461.38 959.05,-467.36"/>
</a>
</g>
</g>
<!-- Node48 -->
<g id="Node000048" class="node">
<title>Node48</title>
<g id="a_Node000048"><a xlink:title=" ">
<polygon fill="#e0e0e0" stroke="#999999" points="924,-459 886,-459 886,-440 924,-440 924,-459"/>
<text text-anchor="middle" x="905" y="-447" font-family="Helvetica,sans-Serif" font-size="10.00">map</text>
</a>
</g>
</g>
<!-- Node47&#45;&gt;Node48 -->
<g id="edge63_Node000047_Node000048" class="edge">
<title>Node47&#45;&gt;Node48</title>
<g id="a_edge63_Node000047_Node000048"><a xlink:title=" ">
<path fill="none" stroke="#63b8ff" d="M894.98,-494.75C896.57,-487.72 898.86,-477.62 900.85,-468.84"/>
<polygon fill="#63b8ff" stroke="#63b8ff" points="904.26,-469.62 903.06,-459.09 897.43,-468.07 904.26,-469.62"/>
</a>
</g>
</g>
</g>
</svg>
