<?xml version="1.0" encoding="UTF-8" standalone="no"?>
<!DOCTYPE svg PUBLIC "-//W3C//DTD SVG 1.1//EN"
 "http://www.w3.org/Graphics/SVG/1.1/DTD/svg11.dtd">
<!-- Generated by graphviz version 2.43.0 (0)
 -->
<!-- Title: /home/runner/work/cbmc/cbmc/src/ansi&#45;c/allocate_objects.h Pages: 1 -->
<svg width="1343pt" height="764pt"
 viewBox="0.00 0.00 1342.50 764.00" xmlns="http://www.w3.org/2000/svg" xmlns:xlink="http://www.w3.org/1999/xlink">
<g id="graph0" class="graph" transform="scale(1 1) rotate(0) translate(4 760)">
<title>/home/runner/work/cbmc/cbmc/src/ansi&#45;c/allocate_objects.h</title>
<!-- Node1 -->
<g id="Node000001" class="node">
<title>Node1</title>
<g id="a_Node000001"><a xlink:title=" ">
<polygon fill="#999999" stroke="#666666" points="1023,-756 885,-756 885,-715 1023,-715 1023,-756"/>
<text text-anchor="start" x="893" y="-744" font-family="Helvetica,sans-Serif" font-size="10.00">/home/runner/work/cbmc</text>
<text text-anchor="start" x="893" y="-733" font-family="Helvetica,sans-Serif" font-size="10.00">/cbmc/src/ansi&#45;c/allocate</text>
<text text-anchor="middle" x="954" y="-722" font-family="Helvetica,sans-Serif" font-size="10.00">_objects.h</text>
</a>
</g>
</g>
<!-- Node2 -->
<g id="Node000002" class="node">
<title>Node2</title>
<g id="a_Node000002"><a xlink:href="namespace_8h.html" target="_top" xlink:title=" ">
<polygon fill="white" stroke="#666666" points="1334.5,-349 1233.5,-349 1233.5,-330 1334.5,-330 1334.5,-349"/>
<text text-anchor="middle" x="1284" y="-337" font-family="Helvetica,sans-Serif" font-size="10.00">util/namespace.h</text>
</a>
</g>
</g>
<!-- Node1&#45;&gt;Node2 -->
<g id="edge1_Node000001_Node000002" class="edge">
<title>Node1&#45;&gt;Node2</title>
<g id="a_edge1_Node000001_Node000002"><a xlink:title=" ">
<path fill="none" stroke="#63b8ff" d="M1023.35,-722.19C1114.45,-704 1263,-666.52 1263,-615.5 1263,-615.5 1263,-615.5 1263,-448.5 1263,-416.46 1272.02,-380.03 1278.23,-358.73"/>
<polygon fill="#63b8ff" stroke="#63b8ff" points="1281.61,-359.65 1281.17,-349.07 1274.91,-357.62 1281.61,-359.65"/>
</a>
</g>
</g>
<!-- Node26 -->
<g id="Node000026" class="node">
<title>Node26</title>
<g id="a_Node000026"><a xlink:href="std__code_8h.html" target="_top" xlink:title=" ">
<polygon fill="white" stroke="#666666" points="762,-679 674,-679 674,-660 762,-660 762,-679"/>
<text text-anchor="middle" x="718" y="-667" font-family="Helvetica,sans-Serif" font-size="10.00">util/std_code.h</text>
</a>
</g>
</g>
<!-- Node1&#45;&gt;Node26 -->
<g id="edge34_Node000001_Node000026" class="edge">
<title>Node1&#45;&gt;Node26</title>
<g id="a_edge34_Node000001_Node000026"><a xlink:title=" ">
<path fill="none" stroke="#63b8ff" d="M884.79,-715.73C844.06,-704.69 793.92,-691.09 759.31,-681.7"/>
<polygon fill="#63b8ff" stroke="#63b8ff" points="760.11,-678.29 749.54,-679.05 758.28,-685.05 760.11,-678.29"/>
</a>
</g>
</g>
<!-- Node3 -->
<g id="Node000003" class="node">
<title>Node3</title>
<g id="a_Node000003"><a xlink:href="src_2util_2invariant_8h.html" target="_top" xlink:title=" ">
<polygon fill="white" stroke="#666666" points="1125.5,-129 1056.5,-129 1056.5,-110 1125.5,-110 1125.5,-129"/>
<text text-anchor="middle" x="1091" y="-117" font-family="Helvetica,sans-Serif" font-size="10.00">invariant.h</text>
</a>
</g>
</g>
<!-- Node2&#45;&gt;Node3 -->
<g id="edge2_Node000002_Node000003" class="edge">
<title>Node2&#45;&gt;Node3</title>
<g id="a_edge2_Node000002_Node000003"><a xlink:title=" ">
<path fill="none" stroke="#63b8ff" d="M1283.3,-329.91C1280.58,-302.02 1268.25,-213.09 1219,-165 1196.61,-143.14 1162.93,-131.98 1135.74,-126.31"/>
<polygon fill="#63b8ff" stroke="#63b8ff" points="1136.15,-122.82 1125.68,-124.39 1134.84,-129.7 1136.15,-122.82"/>
</a>
</g>
</g>
<!-- Node8 -->
<g id="Node000008" class="node">
<title>Node8</title>
<g id="a_Node000008"><a xlink:href="irep_8h.html" target="_top" xlink:title=" ">
<polygon fill="white" stroke="#666666" points="632,-294 588,-294 588,-275 632,-275 632,-294"/>
<text text-anchor="middle" x="610" y="-282" font-family="Helvetica,sans-Serif" font-size="10.00">irep.h</text>
</a>
</g>
</g>
<!-- Node2&#45;&gt;Node8 -->
<g id="edge7_Node000002_Node000008" class="edge">
<title>Node2&#45;&gt;Node8</title>
<g id="a_edge7_Node000002_Node000008"><a xlink:title=" ">
<path fill="none" stroke="#63b8ff" d="M1233.34,-334.52C1101.5,-324.15 750.43,-296.54 642.22,-288.03"/>
<polygon fill="#63b8ff" stroke="#63b8ff" points="642.47,-284.54 632.23,-287.25 641.93,-291.52 642.47,-284.54"/>
</a>
</g>
</g>
<!-- Node4 -->
<g id="Node000004" class="node">
<title>Node4</title>
<g id="a_Node000004"><a xlink:title=" ">
<polygon fill="#e0e0e0" stroke="#999999" points="1079.5,-74 1030.5,-74 1030.5,-55 1079.5,-55 1079.5,-74"/>
<text text-anchor="middle" x="1055" y="-62" font-family="Helvetica,sans-Serif" font-size="10.00">cstdlib</text>
</a>
</g>
</g>
<!-- Node3&#45;&gt;Node4 -->
<g id="edge3_Node000003_Node000004" class="edge">
<title>Node3&#45;&gt;Node4</title>
<g id="a_edge3_Node000003_Node000004"><a xlink:title=" ">
<path fill="none" stroke="#63b8ff" d="M1085.06,-109.75C1080.02,-102.34 1072.66,-91.5 1066.49,-82.41"/>
<polygon fill="#63b8ff" stroke="#63b8ff" points="1069.35,-80.39 1060.83,-74.09 1063.56,-84.33 1069.35,-80.39"/>
</a>
</g>
</g>
<!-- Node5 -->
<g id="Node000005" class="node">
<title>Node5</title>
<g id="a_Node000005"><a xlink:title=" ">
<polygon fill="#e0e0e0" stroke="#999999" points="1154,-74 1098,-74 1098,-55 1154,-55 1154,-74"/>
<text text-anchor="middle" x="1126" y="-62" font-family="Helvetica,sans-Serif" font-size="10.00">sstream</text>
</a>
</g>
</g>
<!-- Node3&#45;&gt;Node5 -->
<g id="edge4_Node000003_Node000005" class="edge">
<title>Node3&#45;&gt;Node5</title>
<g id="a_edge4_Node000003_Node000005"><a xlink:title=" ">
<path fill="none" stroke="#63b8ff" d="M1096.78,-109.75C1101.62,-102.42 1108.68,-91.73 1114.64,-82.7"/>
<polygon fill="#63b8ff" stroke="#63b8ff" points="1117.74,-84.36 1120.33,-74.09 1111.9,-80.5 1117.74,-84.36"/>
</a>
</g>
</g>
<!-- Node6 -->
<g id="Node000006" class="node">
<title>Node6</title>
<g id="a_Node000006"><a xlink:title=" ">
<polygon fill="#e0e0e0" stroke="#999999" points="398,-19 354,-19 354,0 398,0 398,-19"/>
<text text-anchor="middle" x="376" y="-7" font-family="Helvetica,sans-Serif" font-size="10.00">string</text>
</a>
</g>
</g>
<!-- Node3&#45;&gt;Node6 -->
<g id="edge5_Node000003_Node000006" class="edge">
<title>Node3&#45;&gt;Node6</title>
<g id="a_edge5_Node000003_Node000006"><a xlink:title=" ">
<path fill="none" stroke="#63b8ff" d="M1060.03,-109.96C1009.53,-96.35 906.12,-69.76 817,-55 665.36,-29.88 481.87,-16.87 408.56,-12.36"/>
<polygon fill="#63b8ff" stroke="#63b8ff" points="408.35,-8.84 398.16,-11.74 407.93,-15.83 408.35,-8.84"/>
</a>
</g>
</g>
<!-- Node7 -->
<g id="Node000007" class="node">
<title>Node7</title>
<g id="a_Node000007"><a xlink:title=" ">
<polygon fill="#e0e0e0" stroke="#999999" points="807.5,-74 738.5,-74 738.5,-55 807.5,-55 807.5,-74"/>
<text text-anchor="middle" x="773" y="-62" font-family="Helvetica,sans-Serif" font-size="10.00">type_traits</text>
</a>
</g>
</g>
<!-- Node3&#45;&gt;Node7 -->
<g id="edge6_Node000003_Node000007" class="edge">
<title>Node3&#45;&gt;Node7</title>
<g id="a_edge6_Node000003_Node000007"><a xlink:title=" ">
<path fill="none" stroke="#63b8ff" d="M1056.36,-112.73C998.42,-103.07 881.89,-83.65 817.79,-72.97"/>
<polygon fill="#63b8ff" stroke="#63b8ff" points="818.03,-69.46 807.59,-71.27 816.88,-76.36 818.03,-69.46"/>
</a>
</g>
</g>
<!-- Node8&#45;&gt;Node3 -->
<g id="edge10_Node000008_Node000003" class="edge">
<title>Node8&#45;&gt;Node3</title>
<g id="a_edge10_Node000008_Node000003"><a xlink:title=" ">
<path fill="none" stroke="#63b8ff" d="M632.07,-283.79C698.92,-283.62 902.63,-275.19 1034,-184 1052.37,-171.25 1068.89,-151.46 1079.36,-137.36"/>
<polygon fill="#63b8ff" stroke="#63b8ff" points="1082.34,-139.22 1085.32,-129.05 1076.65,-135.14 1082.34,-139.22"/>
</a>
</g>
</g>
<!-- Node8&#45;&gt;Node6 -->
<g id="edge8_Node000008_Node000006" class="edge">
<title>Node8&#45;&gt;Node6</title>
<g id="a_edge8_Node000008_Node000006"><a xlink:title=" ">
<path fill="none" stroke="#63b8ff" d="M588.77,-274.85C516.45,-244.9 282.14,-143.62 245,-74 223.37,-33.45 298.56,-18.47 343.94,-13.19"/>
<polygon fill="#63b8ff" stroke="#63b8ff" points="344.37,-16.66 353.94,-12.13 343.63,-9.7 344.37,-16.66"/>
</a>
</g>
</g>
<!-- Node9 -->
<g id="Node000009" class="node">
<title>Node9</title>
<g id="a_Node000009"><a xlink:title=" ">
<polygon fill="#e0e0e0" stroke="#999999" points="703.5,-74 656.5,-74 656.5,-55 703.5,-55 703.5,-74"/>
<text text-anchor="middle" x="680" y="-62" font-family="Helvetica,sans-Serif" font-size="10.00">vector</text>
</a>
</g>
</g>
<!-- Node8&#45;&gt;Node9 -->
<g id="edge9_Node000008_Node000009" class="edge">
<title>Node8&#45;&gt;Node9</title>
<g id="a_edge9_Node000008_Node000009"><a xlink:title=" ">
<path fill="none" stroke="#63b8ff" d="M598.27,-274.72C588.5,-266.64 575.21,-253.71 569,-239 556.2,-208.68 552.38,-194.97 566,-165 584.07,-125.25 626.73,-95.17 654.43,-78.96"/>
<polygon fill="#63b8ff" stroke="#63b8ff" points="656.22,-81.98 663.2,-74.01 652.77,-75.88 656.22,-81.98"/>
</a>
</g>
</g>
<!-- Node10 -->
<g id="Node000010" class="node">
<title>Node10</title>
<g id="a_Node000010"><a xlink:href="irep__ids_8h.html" target="_top" xlink:title="util">
<polygon fill="white" stroke="#666666" points="642,-239 578,-239 578,-220 642,-220 642,-239"/>
<text text-anchor="middle" x="610" y="-227" font-family="Helvetica,sans-Serif" font-size="10.00">irep_ids.h</text>
</a>
</g>
</g>
<!-- Node8&#45;&gt;Node10 -->
<g id="edge11_Node000008_Node000010" class="edge">
<title>Node8&#45;&gt;Node10</title>
<g id="a_edge11_Node000008_Node000010"><a xlink:title=" ">
<path fill="none" stroke="#63b8ff" d="M610,-274.75C610,-267.8 610,-257.85 610,-249.13"/>
<polygon fill="#63b8ff" stroke="#63b8ff" points="613.5,-249.09 610,-239.09 606.5,-249.09 613.5,-249.09"/>
</a>
</g>
</g>
<!-- Node21 -->
<g id="Node000021" class="node">
<title>Node21</title>
<g id="a_Node000021"><a xlink:href="forward__list__as__map_8h.html" target="_top" xlink:title=" ">
<polygon fill="white" stroke="#666666" points="884.5,-239 757.5,-239 757.5,-220 884.5,-220 884.5,-239"/>
<text text-anchor="middle" x="821" y="-227" font-family="Helvetica,sans-Serif" font-size="10.00">forward_list_as_map.h</text>
</a>
</g>
</g>
<!-- Node8&#45;&gt;Node21 -->
<g id="edge27_Node000008_Node000021" class="edge">
<title>Node8&#45;&gt;Node21</title>
<g id="a_edge27_Node000008_Node000021"><a xlink:title=" ">
<path fill="none" stroke="#63b8ff" d="M632.18,-277.93C666.44,-269.32 732.88,-252.63 777.1,-241.53"/>
<polygon fill="#63b8ff" stroke="#63b8ff" points="778.16,-244.87 787,-239.04 776.45,-238.08 778.16,-244.87"/>
</a>
</g>
</g>
<!-- Node11 -->
<g id="Node000011" class="node">
<title>Node11</title>
<g id="a_Node000011"><a xlink:href="dstring_8h.html" target="_top" xlink:title="Container for C&#45;Strings.">
<polygon fill="white" stroke="#666666" points="477.5,-184 418.5,-184 418.5,-165 477.5,-165 477.5,-184"/>
<text text-anchor="middle" x="448" y="-172" font-family="Helvetica,sans-Serif" font-size="10.00">dstring.h</text>
</a>
</g>
</g>
<!-- Node10&#45;&gt;Node11 -->
<g id="edge12_Node000010_Node000011" class="edge">
<title>Node10&#45;&gt;Node11</title>
<g id="a_edge12_Node000010_Node000011"><a xlink:title=" ">
<path fill="none" stroke="#63b8ff" d="M583.97,-219.98C556.89,-211.13 514.29,-197.19 483.99,-187.28"/>
<polygon fill="#63b8ff" stroke="#63b8ff" points="484.82,-183.87 474.23,-184.08 482.65,-190.52 484.82,-183.87"/>
</a>
</g>
</g>
<!-- Node20 -->
<g id="Node000020" class="node">
<title>Node20</title>
<g id="a_Node000020"><a xlink:title=" ">
<polygon fill="#e0e0e0" stroke="#999999" points="649,-184 575,-184 575,-165 649,-165 649,-184"/>
<text text-anchor="middle" x="612" y="-172" font-family="Helvetica,sans-Serif" font-size="10.00">irep_ids.def</text>
</a>
</g>
</g>
<!-- Node10&#45;&gt;Node20 -->
<g id="edge26_Node000010_Node000020" class="edge">
<title>Node10&#45;&gt;Node20</title>
<g id="a_edge26_Node000010_Node000020"><a xlink:title=" ">
<path fill="none" stroke="#63b8ff" d="M610.33,-219.75C610.59,-212.8 610.97,-202.85 611.3,-194.13"/>
<polygon fill="#63b8ff" stroke="#63b8ff" points="614.8,-194.21 611.68,-184.09 607.8,-193.95 614.8,-194.21"/>
</a>
</g>
</g>
<!-- Node11&#45;&gt;Node6 -->
<g id="edge14_Node000011_Node000006" class="edge">
<title>Node11&#45;&gt;Node6</title>
<g id="a_edge14_Node000011_Node000006"><a xlink:title=" ">
<path fill="none" stroke="#63b8ff" d="M428.84,-164.98C414.71,-157.61 396.39,-145.53 387,-129 369.21,-97.67 370.55,-54.04 373.22,-29.4"/>
<polygon fill="#63b8ff" stroke="#63b8ff" points="376.72,-29.61 374.51,-19.25 369.77,-28.73 376.72,-29.61"/>
</a>
</g>
</g>
<!-- Node12 -->
<g id="Node000012" class="node">
<title>Node12</title>
<g id="a_Node000012"><a xlink:title=" ">
<polygon fill="#e0e0e0" stroke="#999999" points="264,-129 216,-129 216,-110 264,-110 264,-129"/>
<text text-anchor="middle" x="240" y="-117" font-family="Helvetica,sans-Serif" font-size="10.00">iosfwd</text>
</a>
</g>
</g>
<!-- Node11&#45;&gt;Node12 -->
<g id="edge13_Node000011_Node000012" class="edge">
<title>Node11&#45;&gt;Node12</title>
<g id="a_edge13_Node000011_Node000012"><a xlink:title=" ">
<path fill="none" stroke="#63b8ff" d="M418.2,-165.91C380.07,-156.19 314.17,-139.4 274.08,-129.18"/>
<polygon fill="#63b8ff" stroke="#63b8ff" points="274.79,-125.75 264.24,-126.68 273.06,-132.54 274.79,-125.75"/>
</a>
</g>
</g>
<!-- Node13 -->
<g id="Node000013" class="node">
<title>Node13</title>
<g id="a_Node000013"><a xlink:href="magic_8h.html" target="_top" xlink:title="Magic numbers used throughout the codebase.">
<polygon fill="white" stroke="#666666" points="574,-129 518,-129 518,-110 574,-110 574,-129"/>
<text text-anchor="middle" x="546" y="-117" font-family="Helvetica,sans-Serif" font-size="10.00">magic.h</text>
</a>
</g>
</g>
<!-- Node11&#45;&gt;Node13 -->
<g id="edge15_Node000011_Node000013" class="edge">
<title>Node11&#45;&gt;Node13</title>
<g id="a_edge15_Node000011_Node000013"><a xlink:title=" ">
<path fill="none" stroke="#63b8ff" d="M463.75,-164.98C479.23,-156.61 503.09,-143.7 521.14,-133.95"/>
<polygon fill="#63b8ff" stroke="#63b8ff" points="522.84,-137.01 529.97,-129.17 519.51,-130.85 522.84,-137.01"/>
</a>
</g>
</g>
<!-- Node15 -->
<g id="Node000015" class="node">
<title>Node15</title>
<g id="a_Node000015"><a xlink:href="string__container_8h.html" target="_top" xlink:title="Container for C&#45;Strings.">
<polygon fill="white" stroke="#666666" points="500,-129 396,-129 396,-110 500,-110 500,-129"/>
<text text-anchor="middle" x="448" y="-117" font-family="Helvetica,sans-Serif" font-size="10.00">string_container.h</text>
</a>
</g>
</g>
<!-- Node11&#45;&gt;Node15 -->
<g id="edge17_Node000011_Node000015" class="edge">
<title>Node11&#45;&gt;Node15</title>
<g id="a_edge17_Node000011_Node000015"><a xlink:title=" ">
<path fill="none" stroke="#63b8ff" d="M448,-164.75C448,-157.8 448,-147.85 448,-139.13"/>
<polygon fill="#63b8ff" stroke="#63b8ff" points="451.5,-139.09 448,-129.09 444.5,-139.09 451.5,-139.09"/>
</a>
</g>
</g>
<!-- Node14 -->
<g id="Node000014" class="node">
<title>Node14</title>
<g id="a_Node000014"><a xlink:title=" ">
<polygon fill="#e0e0e0" stroke="#999999" points="616.5,-19 563.5,-19 563.5,0 616.5,0 616.5,-19"/>
<text text-anchor="middle" x="590" y="-7" font-family="Helvetica,sans-Serif" font-size="10.00">cstddef</text>
</a>
</g>
</g>
<!-- Node13&#45;&gt;Node14 -->
<g id="edge16_Node000013_Node000014" class="edge">
<title>Node13&#45;&gt;Node14</title>
<g id="a_edge16_Node000013_Node000014"><a xlink:title=" ">
<path fill="none" stroke="#63b8ff" d="M567.15,-109.93C581.83,-102.73 600.25,-90.88 609,-74 616.67,-59.2 609.57,-40.82 601.97,-27.65"/>
<polygon fill="#63b8ff" stroke="#63b8ff" points="604.86,-25.67 596.55,-19.1 598.95,-29.42 604.86,-25.67"/>
</a>
</g>
</g>
<!-- Node15&#45;&gt;Node9 -->
<g id="edge20_Node000015_Node000009" class="edge">
<title>Node15&#45;&gt;Node9</title>
<g id="a_edge20_Node000015_Node000009"><a xlink:title=" ">
<path fill="none" stroke="#63b8ff" d="M485.27,-109.98C529.77,-99.82 603.52,-82.97 646.35,-73.19"/>
<polygon fill="#63b8ff" stroke="#63b8ff" points="647.31,-76.56 656.28,-70.92 645.75,-69.73 647.31,-76.56"/>
</a>
</g>
</g>
<!-- Node16 -->
<g id="Node000016" class="node">
<title>Node16</title>
<g id="a_Node000016"><a xlink:title=" ">
<polygon fill="#e0e0e0" stroke="#999999" points="69,-74 37,-74 37,-55 69,-55 69,-74"/>
<text text-anchor="middle" x="53" y="-62" font-family="Helvetica,sans-Serif" font-size="10.00">list</text>
</a>
</g>
</g>
<!-- Node15&#45;&gt;Node16 -->
<g id="edge18_Node000015_Node000016" class="edge">
<title>Node15&#45;&gt;Node16</title>
<g id="a_edge18_Node000015_Node000016"><a xlink:title=" ">
<path fill="none" stroke="#63b8ff" d="M395.95,-111.52C310.6,-100.06 143.92,-77.7 79.39,-69.04"/>
<polygon fill="#63b8ff" stroke="#63b8ff" points="79.63,-65.54 69.26,-67.68 78.7,-72.48 79.63,-65.54"/>
</a>
</g>
</g>
<!-- Node17 -->
<g id="Node000017" class="node">
<title>Node17</title>
<g id="a_Node000017"><a xlink:title=" ">
<polygon fill="#e0e0e0" stroke="#999999" points="347.5,-74 254.5,-74 254.5,-55 347.5,-55 347.5,-74"/>
<text text-anchor="middle" x="301" y="-62" font-family="Helvetica,sans-Serif" font-size="10.00">unordered_map</text>
</a>
</g>
</g>
<!-- Node15&#45;&gt;Node17 -->
<g id="edge19_Node000015_Node000017" class="edge">
<title>Node15&#45;&gt;Node17</title>
<g id="a_edge19_Node000015_Node000017"><a xlink:title=" ">
<path fill="none" stroke="#63b8ff" d="M424.38,-109.98C400.1,-101.23 362.05,-87.51 334.63,-77.62"/>
<polygon fill="#63b8ff" stroke="#63b8ff" points="335.64,-74.27 325.05,-74.17 333.27,-80.85 335.64,-74.27"/>
</a>
</g>
</g>
<!-- Node18 -->
<g id="Node000018" class="node">
<title>Node18</title>
<g id="a_Node000018"><a xlink:href="memory__units_8h.html" target="_top" xlink:title=" ">
<polygon fill="white" stroke="#666666" points="600,-74 504,-74 504,-55 600,-55 600,-74"/>
<text text-anchor="middle" x="552" y="-62" font-family="Helvetica,sans-Serif" font-size="10.00">memory_units.h</text>
</a>
</g>
</g>
<!-- Node15&#45;&gt;Node18 -->
<g id="edge21_Node000015_Node000018" class="edge">
<title>Node15&#45;&gt;Node18</title>
<g id="a_edge21_Node000015_Node000018"><a xlink:title=" ">
<path fill="none" stroke="#63b8ff" d="M464.71,-109.98C481.21,-101.57 506.7,-88.59 525.88,-78.81"/>
<polygon fill="#63b8ff" stroke="#63b8ff" points="527.67,-81.83 534.99,-74.17 524.49,-75.59 527.67,-81.83"/>
</a>
</g>
</g>
<!-- Node19 -->
<g id="Node000019" class="node">
<title>Node19</title>
<g id="a_Node000019"><a xlink:href="string__hash_8h.html" target="_top" xlink:title="string hashing">
<polygon fill="white" stroke="#666666" points="486,-74 404,-74 404,-55 486,-55 486,-74"/>
<text text-anchor="middle" x="445" y="-62" font-family="Helvetica,sans-Serif" font-size="10.00">string_hash.h</text>
</a>
</g>
</g>
<!-- Node15&#45;&gt;Node19 -->
<g id="edge24_Node000015_Node000019" class="edge">
<title>Node15&#45;&gt;Node19</title>
<g id="a_edge24_Node000015_Node000019"><a xlink:title=" ">
<path fill="none" stroke="#63b8ff" d="M447.5,-109.75C447.11,-102.8 446.55,-92.85 446.05,-84.13"/>
<polygon fill="#63b8ff" stroke="#63b8ff" points="449.55,-83.88 445.49,-74.09 442.56,-84.27 449.55,-83.88"/>
</a>
</g>
</g>
<!-- Node18&#45;&gt;Node6 -->
<g id="edge23_Node000018_Node000006" class="edge">
<title>Node18&#45;&gt;Node6</title>
<g id="a_edge23_Node000018_Node000006"><a xlink:title=" ">
<path fill="none" stroke="#63b8ff" d="M523.72,-54.98C492.02,-45.44 440.74,-30 407.7,-20.05"/>
<polygon fill="#63b8ff" stroke="#63b8ff" points="408.66,-16.68 398.08,-17.15 406.64,-23.38 408.66,-16.68"/>
</a>
</g>
</g>
<!-- Node18&#45;&gt;Node14 -->
<g id="edge22_Node000018_Node000014" class="edge">
<title>Node18&#45;&gt;Node14</title>
<g id="a_edge22_Node000018_Node000014"><a xlink:title=" ">
<path fill="none" stroke="#63b8ff" d="M558.27,-54.75C563.59,-47.34 571.36,-36.5 577.88,-27.41"/>
<polygon fill="#63b8ff" stroke="#63b8ff" points="580.86,-29.26 583.84,-19.09 575.17,-25.18 580.86,-29.26"/>
</a>
</g>
</g>
<!-- Node19&#45;&gt;Node6 -->
<g id="edge25_Node000019_Node000006" class="edge">
<title>Node19&#45;&gt;Node6</title>
<g id="a_edge25_Node000019_Node000006"><a xlink:title=" ">
<path fill="none" stroke="#63b8ff" d="M433.91,-54.98C423.51,-47 407.74,-34.88 395.28,-25.31"/>
<polygon fill="#63b8ff" stroke="#63b8ff" points="397.35,-22.49 387.29,-19.17 393.09,-28.04 397.35,-22.49"/>
</a>
</g>
</g>
<!-- Node22 -->
<g id="Node000022" class="node">
<title>Node22</title>
<g id="a_Node000022"><a xlink:title=" ">
<polygon fill="#e0e0e0" stroke="#999999" points="1025,-184 961,-184 961,-165 1025,-165 1025,-184"/>
<text text-anchor="middle" x="993" y="-172" font-family="Helvetica,sans-Serif" font-size="10.00">algorithm</text>
</a>
</g>
</g>
<!-- Node21&#45;&gt;Node22 -->
<g id="edge28_Node000021_Node000022" class="edge">
<title>Node21&#45;&gt;Node22</title>
<g id="a_edge28_Node000021_Node000022"><a xlink:title=" ">
<path fill="none" stroke="#63b8ff" d="M848.63,-219.98C877.51,-211.09 923.01,-197.07 955.2,-187.15"/>
<polygon fill="#63b8ff" stroke="#63b8ff" points="956.62,-190.37 965.15,-184.08 954.56,-183.68 956.62,-190.37"/>
</a>
</g>
</g>
<!-- Node23 -->
<g id="Node000023" class="node">
<title>Node23</title>
<g id="a_Node000023"><a xlink:title=" ">
<polygon fill="#e0e0e0" stroke="#999999" points="943,-184 869,-184 869,-165 943,-165 943,-184"/>
<text text-anchor="middle" x="906" y="-172" font-family="Helvetica,sans-Serif" font-size="10.00">forward_list</text>
</a>
</g>
</g>
<!-- Node21&#45;&gt;Node23 -->
<g id="edge29_Node000021_Node000023" class="edge">
<title>Node21&#45;&gt;Node23</title>
<g id="a_edge29_Node000021_Node000023"><a xlink:title=" ">
<path fill="none" stroke="#63b8ff" d="M834.66,-219.98C847.84,-211.77 868.03,-199.18 883.57,-189.49"/>
<polygon fill="#63b8ff" stroke="#63b8ff" points="885.46,-192.43 892.09,-184.17 881.76,-186.49 885.46,-192.43"/>
</a>
</g>
</g>
<!-- Node24 -->
<g id="Node000024" class="node">
<title>Node24</title>
<g id="a_Node000024"><a xlink:href="as__const_8h.html" target="_top" xlink:title=" ">
<polygon fill="white" stroke="#666666" points="773,-184 705,-184 705,-165 773,-165 773,-184"/>
<text text-anchor="middle" x="739" y="-172" font-family="Helvetica,sans-Serif" font-size="10.00">as_const.h</text>
</a>
</g>
</g>
<!-- Node21&#45;&gt;Node24 -->
<g id="edge30_Node000021_Node000024" class="edge">
<title>Node21&#45;&gt;Node24</title>
<g id="a_edge30_Node000021_Node000024"><a xlink:title=" ">
<path fill="none" stroke="#63b8ff" d="M807.83,-219.98C795.23,-211.84 776,-199.41 761.06,-189.76"/>
<polygon fill="#63b8ff" stroke="#63b8ff" points="762.71,-186.66 752.41,-184.17 758.91,-192.54 762.71,-186.66"/>
</a>
</g>
</g>
<!-- Node25 -->
<g id="Node000025" class="node">
<title>Node25</title>
<g id="a_Node000025"><a xlink:href="narrow_8h.html" target="_top" xlink:title=" ">
<polygon fill="white" stroke="#666666" points="850.5,-184 791.5,-184 791.5,-165 850.5,-165 850.5,-184"/>
<text text-anchor="middle" x="821" y="-172" font-family="Helvetica,sans-Serif" font-size="10.00">narrow.h</text>
</a>
</g>
</g>
<!-- Node21&#45;&gt;Node25 -->
<g id="edge31_Node000021_Node000025" class="edge">
<title>Node21&#45;&gt;Node25</title>
<g id="a_edge31_Node000021_Node000025"><a xlink:title=" ">
<path fill="none" stroke="#63b8ff" d="M821,-219.75C821,-212.8 821,-202.85 821,-194.13"/>
<polygon fill="#63b8ff" stroke="#63b8ff" points="824.5,-194.09 821,-184.09 817.5,-194.09 824.5,-194.09"/>
</a>
</g>
</g>
<!-- Node25&#45;&gt;Node3 -->
<g id="edge33_Node000025_Node000003" class="edge">
<title>Node25&#45;&gt;Node3</title>
<g id="a_edge33_Node000025_Node000003"><a xlink:title=" ">
<path fill="none" stroke="#63b8ff" d="M850.79,-166.93C853.9,-166.27 857.01,-165.61 860,-165 924.53,-151.75 999.45,-137.53 1046.05,-128.83"/>
<polygon fill="#63b8ff" stroke="#63b8ff" points="1046.93,-132.22 1056.12,-126.95 1045.65,-125.34 1046.93,-132.22"/>
</a>
</g>
</g>
<!-- Node25&#45;&gt;Node7 -->
<g id="edge32_Node000025_Node000007" class="edge">
<title>Node25&#45;&gt;Node7</title>
<g id="a_edge32_Node000025_Node000007"><a xlink:title=" ">
<path fill="none" stroke="#63b8ff" d="M817.07,-164.66C809.19,-146.93 791.32,-106.73 780.92,-83.32"/>
<polygon fill="#63b8ff" stroke="#63b8ff" points="784.11,-81.87 776.85,-74.16 777.71,-84.72 784.11,-81.87"/>
</a>
</g>
</g>
<!-- Node26&#45;&gt;Node16 -->
<g id="edge35_Node000026_Node000016" class="edge">
<title>Node26&#45;&gt;Node16</title>
<g id="a_edge35_Node000026_Node000016"><a xlink:title=" ">
<path fill="none" stroke="#63b8ff" d="M673.9,-666.54C517.68,-659.04 0,-629 0,-560.5 0,-560.5 0,-560.5 0,-173.5 0,-144.04 5.62,-136.24 19,-110 24.13,-99.95 31.59,-89.87 38.22,-81.85"/>
<polygon fill="#63b8ff" stroke="#63b8ff" points="41.06,-83.91 44.94,-74.05 35.76,-79.35 41.06,-83.91"/>
</a>
</g>
</g>
<!-- Node27 -->
<g id="Node000027" class="node">
<title>Node27</title>
<g id="a_Node000027"><a xlink:href="std__code__base_8h.html" target="_top" xlink:title=" ">
<polygon fill="white" stroke="#666666" points="716,-624 618,-624 618,-605 716,-605 716,-624"/>
<text text-anchor="middle" x="667" y="-612" font-family="Helvetica,sans-Serif" font-size="10.00">std_code_base.h</text>
</a>
</g>
</g>
<!-- Node26&#45;&gt;Node27 -->
<g id="edge36_Node000026_Node000027" class="edge">
<title>Node26&#45;&gt;Node27</title>
<g id="a_edge36_Node000026_Node000027"><a xlink:title=" ">
<path fill="none" stroke="#63b8ff" d="M709.58,-659.75C702.23,-652.11 691.37,-640.82 682.46,-631.56"/>
<polygon fill="#63b8ff" stroke="#63b8ff" points="684.72,-628.87 675.26,-624.09 679.68,-633.72 684.72,-628.87"/>
</a>
</g>
</g>
<!-- Node44 -->
<g id="Node000044" class="node">
<title>Node44</title>
<g id="a_Node000044"><a xlink:href="std__expr_8h.html" target="_top" xlink:title="API to expression classes.">
<polygon fill="white" stroke="#666666" points="801.5,-624 734.5,-624 734.5,-605 801.5,-605 801.5,-624"/>
<text text-anchor="middle" x="768" y="-612" font-family="Helvetica,sans-Serif" font-size="10.00">std_expr.h</text>
</a>
</g>
</g>
<!-- Node26&#45;&gt;Node44 -->
<g id="edge69_Node000026_Node000044" class="edge">
<title>Node26&#45;&gt;Node44</title>
<g id="a_edge69_Node000026_Node000044"><a xlink:title=" ">
<path fill="none" stroke="#63b8ff" d="M726.26,-659.75C733.46,-652.11 744.11,-640.82 752.85,-631.56"/>
<polygon fill="#63b8ff" stroke="#63b8ff" points="755.58,-633.76 759.9,-624.09 750.49,-628.96 755.58,-633.76"/>
</a>
</g>
</g>
<!-- Node27&#45;&gt;Node3 -->
<g id="edge57_Node000027_Node000003" class="edge">
<title>Node27&#45;&gt;Node3</title>
<g id="a_edge57_Node000027_Node000003"><a xlink:title=" ">
<path fill="none" stroke="#63b8ff" d="M716.31,-605.44C842.45,-584.5 1167,-528.4 1167,-505.5 1167,-505.5 1167,-505.5 1167,-228.5 1167,-189.47 1133.39,-154.58 1110.87,-135.6"/>
<polygon fill="#63b8ff" stroke="#63b8ff" points="1112.85,-132.7 1102.88,-129.12 1108.44,-138.14 1112.85,-132.7"/>
</a>
</g>
</g>
<!-- Node28 -->
<g id="Node000028" class="node">
<title>Node28</title>
<g id="a_Node000028"><a xlink:href="expr__cast_8h.html" target="_top" xlink:title="Templated functions to cast to specific exprt&#45;derived classes.">
<polygon fill="white" stroke="#666666" points="803.5,-514 730.5,-514 730.5,-495 803.5,-495 803.5,-514"/>
<text text-anchor="middle" x="767" y="-502" font-family="Helvetica,sans-Serif" font-size="10.00">expr_cast.h</text>
</a>
</g>
</g>
<!-- Node27&#45;&gt;Node28 -->
<g id="edge37_Node000027_Node000028" class="edge">
<title>Node27&#45;&gt;Node28</title>
<g id="a_edge37_Node000027_Node000028"><a xlink:title=" ">
<path fill="none" stroke="#63b8ff" d="M675.66,-604.73C684.42,-595.82 698.28,-581.58 710,-569 724.74,-553.17 741.21,-534.74 752.64,-521.83"/>
<polygon fill="#63b8ff" stroke="#63b8ff" points="755.36,-524.03 759.36,-514.22 750.11,-519.4 755.36,-524.03"/>
</a>
</g>
</g>
<!-- Node36 -->
<g id="Node000036" class="node">
<title>Node36</title>
<g id="a_Node000036"><a xlink:href="validate_8h.html" target="_top" xlink:title=" ">
<polygon fill="#fff0f0" stroke="red" points="385.5,-349 320.5,-349 320.5,-330 385.5,-330 385.5,-349"/>
<text text-anchor="middle" x="353" y="-337" font-family="Helvetica,sans-Serif" font-size="10.00">validate.h</text>
</a>
</g>
</g>
<!-- Node27&#45;&gt;Node36 -->
<g id="edge68_Node000027_Node000036" class="edge">
<title>Node27&#45;&gt;Node36</title>
<g id="a_edge68_Node000027_Node000036"><a xlink:title=" ">
<path fill="none" stroke="#63b8ff" d="M652.67,-604.9C609.85,-578.73 480.55,-496.19 395,-404 381.98,-389.97 370.25,-371.49 362.51,-358.08"/>
<polygon fill="#63b8ff" stroke="#63b8ff" points="365.57,-356.37 357.63,-349.36 359.46,-359.79 365.57,-356.37"/>
</a>
</g>
</g>
<!-- Node41 -->
<g id="Node000041" class="node">
<title>Node41</title>
<g id="a_Node000041"><a xlink:href="std__types_8h.html" target="_top" xlink:title="Pre&#45;defined types.">
<polygon fill="white" stroke="#666666" points="701.5,-569 628.5,-569 628.5,-550 701.5,-550 701.5,-569"/>
<text text-anchor="middle" x="665" y="-557" font-family="Helvetica,sans-Serif" font-size="10.00">std_types.h</text>
</a>
</g>
</g>
<!-- Node27&#45;&gt;Node41 -->
<g id="edge58_Node000027_Node000041" class="edge">
<title>Node27&#45;&gt;Node41</title>
<g id="a_edge58_Node000027_Node000041"><a xlink:title=" ">
<path fill="none" stroke="#63b8ff" d="M666.67,-604.75C666.41,-597.8 666.03,-587.85 665.7,-579.13"/>
<polygon fill="#63b8ff" stroke="#63b8ff" points="669.2,-578.95 665.32,-569.09 662.2,-579.21 669.2,-578.95"/>
</a>
</g>
</g>
<!-- Node28&#45;&gt;Node3 -->
<g id="edge41_Node000028_Node000003" class="edge">
<title>Node28&#45;&gt;Node3</title>
<g id="a_edge41_Node000028_Node000003"><a xlink:title=" ">
<path fill="none" stroke="#63b8ff" d="M803.54,-499.19C888.27,-488.17 1091,-455.53 1091,-395.5 1091,-395.5 1091,-395.5 1091,-228.5 1091,-197.19 1091,-160.77 1091,-139.23"/>
<polygon fill="#63b8ff" stroke="#63b8ff" points="1094.5,-139.18 1091,-129.18 1087.5,-139.18 1094.5,-139.18"/>
</a>
</g>
</g>
<!-- Node28&#45;&gt;Node7 -->
<g id="edge39_Node000028_Node000007" class="edge">
<title>Node28&#45;&gt;Node7</title>
<g id="a_edge39_Node000028_Node000007"><a xlink:title=" ">
<path fill="none" stroke="#63b8ff" d="M773.32,-494.99C786.89,-475.69 816.73,-426.97 806,-385 778.91,-279.09 660.65,-268.45 696,-165 707.74,-130.64 736.71,-98.94 755.57,-80.94"/>
<polygon fill="#63b8ff" stroke="#63b8ff" points="758,-83.46 762.96,-74.1 753.25,-78.33 758,-83.46"/>
</a>
</g>
</g>
<!-- Node29 -->
<g id="Node000029" class="node">
<title>Node29</title>
<g id="a_Node000029"><a xlink:title=" ">
<polygon fill="#e0e0e0" stroke="#999999" points="910.5,-459 853.5,-459 853.5,-440 910.5,-440 910.5,-459"/>
<text text-anchor="middle" x="882" y="-447" font-family="Helvetica,sans-Serif" font-size="10.00">typeinfo</text>
</a>
</g>
</g>
<!-- Node28&#45;&gt;Node29 -->
<g id="edge38_Node000028_Node000029" class="edge">
<title>Node28&#45;&gt;Node29</title>
<g id="a_edge38_Node000028_Node000029"><a xlink:title=" ">
<path fill="none" stroke="#63b8ff" d="M785.48,-494.98C803.98,-486.46 832.68,-473.23 853.98,-463.41"/>
<polygon fill="#63b8ff" stroke="#63b8ff" points="855.57,-466.53 863.19,-459.17 852.64,-460.18 855.57,-466.53"/>
</a>
</g>
</g>
<!-- Node30 -->
<g id="Node000030" class="node">
<title>Node30</title>
<g id="a_Node000030"><a xlink:title=" ">
<polygon fill="#e0e0e0" stroke="#999999" points="796.5,-404 731.5,-404 731.5,-385 796.5,-385 796.5,-404"/>
<text text-anchor="middle" x="764" y="-392" font-family="Helvetica,sans-Serif" font-size="10.00">functional</text>
</a>
</g>
</g>
<!-- Node28&#45;&gt;Node30 -->
<g id="edge40_Node000028_Node000030" class="edge">
<title>Node28&#45;&gt;Node30</title>
<g id="a_edge40_Node000028_Node000030"><a xlink:title=" ">
<path fill="none" stroke="#63b8ff" d="M766.75,-494.66C766.27,-477.17 765.18,-437.8 764.52,-414.27"/>
<polygon fill="#63b8ff" stroke="#63b8ff" points="768.02,-414.06 764.24,-404.16 761.02,-414.25 768.02,-414.06"/>
</a>
</g>
</g>
<!-- Node31 -->
<g id="Node000031" class="node">
<title>Node31</title>
<g id="a_Node000031"><a xlink:href="expr_8h.html" target="_top" xlink:title=" ">
<polygon fill="white" stroke="#666666" points="688.5,-459 641.5,-459 641.5,-440 688.5,-440 688.5,-459"/>
<text text-anchor="middle" x="665" y="-447" font-family="Helvetica,sans-Serif" font-size="10.00">expr.h</text>
</a>
</g>
</g>
<!-- Node28&#45;&gt;Node31 -->
<g id="edge42_Node000028_Node000031" class="edge">
<title>Node28&#45;&gt;Node31</title>
<g id="a_edge42_Node000028_Node000031"><a xlink:title=" ">
<path fill="none" stroke="#63b8ff" d="M750.61,-494.98C734.43,-486.57 709.43,-473.59 690.62,-463.81"/>
<polygon fill="#63b8ff" stroke="#63b8ff" points="692.17,-460.68 681.69,-459.17 688.95,-466.89 692.17,-460.68"/>
</a>
</g>
</g>
<!-- Node31&#45;&gt;Node24 -->
<g id="edge43_Node000031_Node000024" class="edge">
<title>Node31&#45;&gt;Node24</title>
<g id="a_edge43_Node000031_Node000024"><a xlink:title=" ">
<path fill="none" stroke="#63b8ff" d="M669.36,-439.95C677.83,-423.02 696.57,-383.85 707,-349 723.43,-294.12 732.93,-226.82 736.86,-194.54"/>
<polygon fill="#63b8ff" stroke="#63b8ff" points="740.37,-194.66 738.06,-184.32 733.42,-193.85 740.37,-194.66"/>
</a>
</g>
</g>
<!-- Node31&#45;&gt;Node30 -->
<g id="edge56_Node000031_Node000030" class="edge">
<title>Node31&#45;&gt;Node30</title>
<g id="a_edge56_Node000031_Node000030"><a xlink:title=" ">
<path fill="none" stroke="#63b8ff" d="M680.91,-439.98C696.55,-431.61 720.66,-418.7 738.88,-408.95"/>
<polygon fill="#63b8ff" stroke="#63b8ff" points="740.64,-411.98 747.8,-404.17 737.34,-405.8 740.64,-411.98"/>
</a>
</g>
</g>
<!-- Node32 -->
<g id="Node000032" class="node">
<title>Node32</title>
<g id="a_Node000032"><a xlink:href="type_8h.html" target="_top" xlink:title="Defines typet, type_with_subtypet and type_with_subtypest.">
<polygon fill="white" stroke="#666666" points="636.5,-404 589.5,-404 589.5,-385 636.5,-385 636.5,-404"/>
<text text-anchor="middle" x="613" y="-392" font-family="Helvetica,sans-Serif" font-size="10.00">type.h</text>
</a>
</g>
</g>
<!-- Node31&#45;&gt;Node32 -->
<g id="edge44_Node000031_Node000032" class="edge">
<title>Node31&#45;&gt;Node32</title>
<g id="a_edge44_Node000031_Node000032"><a xlink:title=" ">
<path fill="none" stroke="#63b8ff" d="M656.41,-439.75C648.84,-432.03 637.62,-420.6 628.49,-411.28"/>
<polygon fill="#63b8ff" stroke="#63b8ff" points="630.93,-408.78 621.43,-404.09 625.93,-413.68 630.93,-408.78"/>
</a>
</g>
</g>
<!-- Node38 -->
<g id="Node000038" class="node">
<title>Node38</title>
<g id="a_Node000038"><a xlink:href="validation__mode_8h.html" target="_top" xlink:title=" ">
<polygon fill="white" stroke="#666666" points="488.5,-294 381.5,-294 381.5,-275 488.5,-275 488.5,-294"/>
<text text-anchor="middle" x="435" y="-282" font-family="Helvetica,sans-Serif" font-size="10.00">validation_mode.h</text>
</a>
</g>
</g>
<!-- Node31&#45;&gt;Node38 -->
<g id="edge55_Node000031_Node000038" class="edge">
<title>Node31&#45;&gt;Node38</title>
<g id="a_edge55_Node000031_Node000038"><a xlink:title=" ">
<path fill="none" stroke="#63b8ff" d="M641.11,-447.62C587.3,-445.08 459.26,-435.77 433,-404 409.6,-375.69 419.81,-329.25 428.13,-303.72"/>
<polygon fill="#63b8ff" stroke="#63b8ff" points="431.47,-304.77 431.48,-294.18 424.86,-302.45 431.47,-304.77"/>
</a>
</g>
</g>
<!-- Node39 -->
<g id="Node000039" class="node">
<title>Node39</title>
<g id="a_Node000039"><a xlink:href="validate__types_8h.html" target="_top" xlink:title=" ">
<polygon fill="white" stroke="#666666" points="698,-349 600,-349 600,-330 698,-330 698,-349"/>
<text text-anchor="middle" x="649" y="-337" font-family="Helvetica,sans-Serif" font-size="10.00">validate_types.h</text>
</a>
</g>
</g>
<!-- Node31&#45;&gt;Node39 -->
<g id="edge54_Node000031_Node000039" class="edge">
<title>Node31&#45;&gt;Node39</title>
<g id="a_edge54_Node000031_Node000039"><a xlink:title=" ">
<path fill="none" stroke="#63b8ff" d="M663.69,-439.66C661.1,-422.17 655.27,-382.8 651.78,-359.27"/>
<polygon fill="#63b8ff" stroke="#63b8ff" points="655.21,-358.54 650.28,-349.16 648.29,-359.56 655.21,-358.54"/>
</a>
</g>
</g>
<!-- Node40 -->
<g id="Node000040" class="node">
<title>Node40</title>
<g id="a_Node000040"><a xlink:href="validate__expressions_8h.html" target="_top" xlink:title=" ">
<polygon fill="white" stroke="#666666" points="571.5,-404 442.5,-404 442.5,-385 571.5,-385 571.5,-404"/>
<text text-anchor="middle" x="507" y="-392" font-family="Helvetica,sans-Serif" font-size="10.00">validate_expressions.h</text>
</a>
</g>
</g>
<!-- Node31&#45;&gt;Node40 -->
<g id="edge53_Node000031_Node000040" class="edge">
<title>Node31&#45;&gt;Node40</title>
<g id="a_edge53_Node000031_Node000040"><a xlink:title=" ">
<path fill="none" stroke="#63b8ff" d="M641.35,-440.57C615.05,-431.74 572.31,-417.41 542.11,-407.28"/>
<polygon fill="#63b8ff" stroke="#63b8ff" points="542.98,-403.88 532.39,-404.02 540.76,-410.51 542.98,-403.88"/>
</a>
</g>
</g>
<!-- Node33 -->
<g id="Node000033" class="node">
<title>Node33</title>
<g id="a_Node000033"><a xlink:href="source__location_8h.html" target="_top" xlink:title=" ">
<polygon fill="#fff0f0" stroke="red" points="582,-349 480,-349 480,-330 582,-330 582,-349"/>
<text text-anchor="middle" x="531" y="-337" font-family="Helvetica,sans-Serif" font-size="10.00">source_location.h</text>
</a>
</g>
</g>
<!-- Node32&#45;&gt;Node33 -->
<g id="edge45_Node000032_Node000033" class="edge">
<title>Node32&#45;&gt;Node33</title>
<g id="a_edge45_Node000032_Node000033"><a xlink:title=" ">
<path fill="none" stroke="#63b8ff" d="M599.83,-384.98C587.23,-376.84 568,-364.41 553.06,-354.76"/>
<polygon fill="#63b8ff" stroke="#63b8ff" points="554.71,-351.66 544.41,-349.17 550.91,-357.54 554.71,-351.66"/>
</a>
</g>
</g>
<!-- Node32&#45;&gt;Node36 -->
<g id="edge48_Node000032_Node000036" class="edge">
<title>Node32&#45;&gt;Node36</title>
<g id="a_edge48_Node000032_Node000036"><a xlink:title=" ">
<path fill="none" stroke="#63b8ff" d="M589.25,-387.2C586.14,-386.43 583,-385.68 580,-385 516.1,-370.52 441.44,-356.42 395.7,-348.1"/>
<polygon fill="#63b8ff" stroke="#63b8ff" points="396.29,-344.65 385.83,-346.31 395.05,-351.54 396.29,-344.65"/>
</a>
</g>
</g>
<!-- Node32&#45;&gt;Node38 -->
<g id="edge52_Node000032_Node000038" class="edge">
<title>Node32&#45;&gt;Node38</title>
<g id="a_edge52_Node000032_Node000038"><a xlink:title=" ">
<path fill="none" stroke="#63b8ff" d="M589.36,-387.11C551.45,-376.73 480.37,-356.57 471,-349 456.54,-337.33 446.84,-318.19 441.18,-303.98"/>
<polygon fill="#63b8ff" stroke="#63b8ff" points="444.35,-302.46 437.64,-294.27 437.78,-304.86 444.35,-302.46"/>
</a>
</g>
</g>
<!-- Node32&#45;&gt;Node39 -->
<g id="edge51_Node000032_Node000039" class="edge">
<title>Node32&#45;&gt;Node39</title>
<g id="a_edge51_Node000032_Node000039"><a xlink:title=" ">
<path fill="none" stroke="#63b8ff" d="M618.94,-384.75C623.98,-377.34 631.34,-366.5 637.51,-357.41"/>
<polygon fill="#63b8ff" stroke="#63b8ff" points="640.44,-359.33 643.17,-349.09 634.65,-355.39 640.44,-359.33"/>
</a>
</g>
</g>
<!-- Node33&#45;&gt;Node6 -->
<g id="edge47_Node000033_Node000006" class="edge">
<title>Node33&#45;&gt;Node6</title>
<g id="a_edge47_Node000033_Node000006"><a xlink:title=" ">
<path fill="none" stroke="#63b8ff" d="M528.2,-329.63C523.61,-316.28 513.29,-290.89 497,-275 393.69,-174.26 282.69,-251.85 207,-129 190.49,-102.2 228.61,-62.67 238,-55 268.61,-30.01 313.58,-18.93 343.78,-14.1"/>
<polygon fill="#63b8ff" stroke="#63b8ff" points="344.41,-17.55 353.8,-12.64 343.4,-10.62 344.41,-17.55"/>
</a>
</g>
</g>
<!-- Node33&#45;&gt;Node8 -->
<g id="edge46_Node000033_Node000008" class="edge">
<title>Node33&#45;&gt;Node8</title>
<g id="a_edge46_Node000033_Node000008"><a xlink:title=" ">
<path fill="none" stroke="#63b8ff" d="M543.69,-329.98C555.83,-321.84 574.36,-309.41 588.75,-299.76"/>
<polygon fill="#63b8ff" stroke="#63b8ff" points="590.72,-302.65 597.08,-294.17 586.82,-296.84 590.72,-302.65"/>
</a>
</g>
</g>
<!-- Node36&#45;&gt;Node7 -->
<g id="edge49_Node000036_Node000007" class="edge">
<title>Node36&#45;&gt;Node7</title>
<g id="a_edge49_Node000036_Node000007"><a xlink:title=" ">
<path fill="none" stroke="#63b8ff" d="M353.57,-329.76C354.85,-316.56 358.95,-291.38 372,-275 418.45,-216.71 596.87,-142.39 664,-110 689.06,-97.91 718.3,-86.09 740.18,-77.68"/>
<polygon fill="#63b8ff" stroke="#63b8ff" points="741.57,-80.89 749.67,-74.06 739.08,-74.35 741.57,-80.89"/>
</a>
</g>
</g>
<!-- Node36&#45;&gt;Node38 -->
<g id="edge50_Node000036_Node000038" class="edge">
<title>Node36&#45;&gt;Node38</title>
<g id="a_edge50_Node000036_Node000038"><a xlink:title=" ">
<path fill="none" stroke="#63b8ff" d="M366.17,-329.98C378.77,-321.84 398,-309.41 412.94,-299.76"/>
<polygon fill="#63b8ff" stroke="#63b8ff" points="415.09,-302.54 421.59,-294.17 411.29,-296.66 415.09,-302.54"/>
</a>
</g>
</g>
<!-- Node41&#45;&gt;Node3 -->
<g id="edge61_Node000041_Node000003" class="edge">
<title>Node41&#45;&gt;Node3</title>
<g id="a_edge61_Node000041_Node000003"><a xlink:title=" ">
<path fill="none" stroke="#63b8ff" d="M701.8,-557.78C811.54,-554.66 1129,-538.07 1129,-450.5 1129,-450.5 1129,-450.5 1129,-228.5 1129,-195.02 1112.55,-158.84 1101.3,-138.01"/>
<polygon fill="#63b8ff" stroke="#63b8ff" points="1104.24,-136.1 1096.28,-129.1 1098.13,-139.53 1104.24,-136.1"/>
</a>
</g>
</g>
<!-- Node41&#45;&gt;Node17 -->
<g id="edge67_Node000041_Node000017" class="edge">
<title>Node41&#45;&gt;Node17</title>
<g id="a_edge67_Node000041_Node000017"><a xlink:title=" ">
<path fill="none" stroke="#63b8ff" d="M628.21,-555.73C534.11,-547.62 292,-520.02 292,-450.5 292,-450.5 292,-450.5 292,-173.5 292,-142.08 295.83,-105.7 298.49,-84.2"/>
<polygon fill="#63b8ff" stroke="#63b8ff" points="301.98,-84.52 299.79,-74.16 295.04,-83.63 301.98,-84.52"/>
</a>
</g>
</g>
<!-- Node41&#45;&gt;Node28 -->
<g id="edge60_Node000041_Node000028" class="edge">
<title>Node41&#45;&gt;Node28</title>
<g id="a_edge60_Node000041_Node000028"><a xlink:title=" ">
<path fill="none" stroke="#63b8ff" d="M681.39,-549.98C697.57,-541.57 722.57,-528.59 741.38,-518.81"/>
<polygon fill="#63b8ff" stroke="#63b8ff" points="743.05,-521.89 750.31,-514.17 739.83,-515.68 743.05,-521.89"/>
</a>
</g>
</g>
<!-- Node41&#45;&gt;Node31 -->
<g id="edge59_Node000041_Node000031" class="edge">
<title>Node41&#45;&gt;Node31</title>
<g id="a_edge59_Node000041_Node000031"><a xlink:title=" ">
<path fill="none" stroke="#63b8ff" d="M665,-549.66C665,-532.17 665,-492.8 665,-469.27"/>
<polygon fill="#63b8ff" stroke="#63b8ff" points="668.5,-469.16 665,-459.16 661.5,-469.16 668.5,-469.16"/>
</a>
</g>
</g>
<!-- Node41&#45;&gt;Node36 -->
<g id="edge66_Node000041_Node000036" class="edge">
<title>Node41&#45;&gt;Node36</title>
<g id="a_edge66_Node000041_Node000036"><a xlink:title=" ">
<path fill="none" stroke="#63b8ff" d="M649.1,-549.92C609.01,-527.98 501.2,-467.1 420,-404 401.14,-389.34 381.52,-370.22 368.43,-356.81"/>
<polygon fill="#63b8ff" stroke="#63b8ff" points="370.64,-354.06 361.19,-349.29 365.6,-358.92 370.64,-354.06"/>
</a>
</g>
</g>
<!-- Node42 -->
<g id="Node000042" class="node">
<title>Node42</title>
<g id="a_Node000042"><a xlink:href="mp__arith_8h.html" target="_top" xlink:title=" ">
<polygon fill="white" stroke="#666666" points="223.5,-184 154.5,-184 154.5,-165 223.5,-165 223.5,-184"/>
<text text-anchor="middle" x="189" y="-172" font-family="Helvetica,sans-Serif" font-size="10.00">mp_arith.h</text>
</a>
</g>
</g>
<!-- Node41&#45;&gt;Node42 -->
<g id="edge62_Node000041_Node000042" class="edge">
<title>Node41&#45;&gt;Node42</title>
<g id="a_edge62_Node000041_Node000042"><a xlink:title=" ">
<path fill="none" stroke="#63b8ff" d="M628.44,-559C542.72,-559.44 332.01,-556.09 278,-514 254.2,-495.46 254,-480.67 254,-450.5 254,-450.5 254,-450.5 254,-283.5 254,-246.38 225.46,-211.03 206.2,-191.41"/>
<polygon fill="#63b8ff" stroke="#63b8ff" points="208.47,-188.72 198.87,-184.23 203.57,-193.73 208.47,-188.72"/>
</a>
</g>
</g>
<!-- Node42&#45;&gt;Node6 -->
<g id="edge64_Node000042_Node000006" class="edge">
<title>Node42&#45;&gt;Node6</title>
<g id="a_edge64_Node000042_Node000006"><a xlink:title=" ">
<path fill="none" stroke="#63b8ff" d="M184.11,-164.9C172.76,-143.64 147.5,-87.97 174,-55 194.9,-29 291.85,-17.3 343.46,-12.84"/>
<polygon fill="#63b8ff" stroke="#63b8ff" points="344.07,-16.3 353.75,-11.99 343.49,-9.32 344.07,-16.3"/>
</a>
</g>
</g>
<!-- Node42&#45;&gt;Node12 -->
<g id="edge63_Node000042_Node000012" class="edge">
<title>Node42&#45;&gt;Node12</title>
<g id="a_edge63_Node000042_Node000012"><a xlink:title=" ">
<path fill="none" stroke="#63b8ff" d="M197.42,-164.75C204.77,-157.11 215.63,-145.82 224.54,-136.56"/>
<polygon fill="#63b8ff" stroke="#63b8ff" points="227.32,-138.72 231.74,-129.09 222.28,-133.87 227.32,-138.72"/>
</a>
</g>
</g>
<!-- Node43 -->
<g id="Node000043" class="node">
<title>Node43</title>
<g id="a_Node000043"><a xlink:title=" ">
<polygon fill="#e0e0e0" stroke="#999999" points="122,-129 28,-129 28,-110 122,-110 122,-129"/>
<text text-anchor="middle" x="75" y="-117" font-family="Helvetica,sans-Serif" font-size="10.00">big&#45;int/bigint.hh</text>
</a>
</g>
</g>
<!-- Node42&#45;&gt;Node43 -->
<g id="edge65_Node000042_Node000043" class="edge">
<title>Node42&#45;&gt;Node43</title>
<g id="a_edge65_Node000042_Node000043"><a xlink:title=" ">
<path fill="none" stroke="#63b8ff" d="M170.68,-164.98C152.34,-156.46 123.89,-143.23 102.77,-133.41"/>
<polygon fill="#63b8ff" stroke="#63b8ff" points="104.19,-130.21 93.65,-129.17 101.24,-136.56 104.19,-130.21"/>
</a>
</g>
</g>
<!-- Node44&#45;&gt;Node3 -->
<g id="edge71_Node000044_Node000003" class="edge">
<title>Node44&#45;&gt;Node3</title>
<g id="a_edge71_Node000044_Node000003"><a xlink:title=" ">
<path fill="none" stroke="#63b8ff" d="M801.64,-611.88C894.78,-607.13 1151.2,-592.05 1181,-569 1204.86,-550.54 1205,-535.67 1205,-505.5 1205,-505.5 1205,-505.5 1205,-228.5 1205,-198.33 1201.27,-187.35 1181,-165 1167.57,-150.18 1148.09,-139.71 1130.69,-132.66"/>
<polygon fill="#63b8ff" stroke="#63b8ff" points="1131.88,-129.37 1121.29,-129.09 1129.4,-135.91 1131.88,-129.37"/>
</a>
</g>
</g>
<!-- Node44&#45;&gt;Node28 -->
<g id="edge70_Node000044_Node000028" class="edge">
<title>Node44&#45;&gt;Node28</title>
<g id="a_edge70_Node000044_Node000028"><a xlink:title=" ">
<path fill="none" stroke="#63b8ff" d="M767.92,-604.66C767.76,-587.17 767.39,-547.8 767.17,-524.27"/>
<polygon fill="#63b8ff" stroke="#63b8ff" points="770.67,-524.13 767.08,-514.16 763.67,-524.19 770.67,-524.13"/>
</a>
</g>
</g>
<!-- Node44&#45;&gt;Node41 -->
<g id="edge72_Node000044_Node000041" class="edge">
<title>Node44&#45;&gt;Node41</title>
<g id="a_edge72_Node000044_Node000041"><a xlink:title=" ">
<path fill="none" stroke="#63b8ff" d="M751.45,-604.98C735.11,-596.57 709.87,-583.59 690.87,-573.81"/>
<polygon fill="#63b8ff" stroke="#63b8ff" points="692.34,-570.63 681.85,-569.17 689.14,-576.86 692.34,-570.63"/>
</a>
</g>
</g>
</g>
</svg>
