<?xml version="1.0" encoding="UTF-8" standalone="no"?>
<!DOCTYPE svg PUBLIC "-//W3C//DTD SVG 1.1//EN"
 "http://www.w3.org/Graphics/SVG/1.1/DTD/svg11.dtd">
<!-- Generated by graphviz version 2.43.0 (0)
 -->
<!-- Title: /home/runner/work/cbmc/cbmc/src/ansi&#45;c/anonymous_member.cpp Pages: 1 -->
<svg width="873pt" height="654pt"
 viewBox="0.00 0.00 873.00 654.00" xmlns="http://www.w3.org/2000/svg" xmlns:xlink="http://www.w3.org/1999/xlink">
<g id="graph0" class="graph" transform="scale(1 1) rotate(0) translate(4 650)">
<title>/home/runner/work/cbmc/cbmc/src/ansi&#45;c/anonymous_member.cpp</title>
<!-- Node1 -->
<g id="Node000001" class="node">
<title>Node1</title>
<g id="a_Node000001"><a xlink:title="ANSI&#45;C Language Type Checking.">
<polygon fill="#999999" stroke="#666666" points="376.5,-646 221.5,-646 221.5,-605 376.5,-605 376.5,-646"/>
<text text-anchor="start" x="229.5" y="-634" font-family="Helvetica,sans-Serif" font-size="10.00">/home/runner/work/cbmc</text>
<text text-anchor="start" x="229.5" y="-623" font-family="Helvetica,sans-Serif" font-size="10.00">/cbmc/src/ansi&#45;c/anonymous</text>
<text text-anchor="middle" x="299" y="-612" font-family="Helvetica,sans-Serif" font-size="10.00">_member.cpp</text>
</a>
</g>
</g>
<!-- Node2 -->
<g id="Node000002" class="node">
<title>Node2</title>
<g id="a_Node000002"><a xlink:href="anonymous__member_8h.html" target="_top" xlink:title="C Language Type Checking.">
<polygon fill="white" stroke="#666666" points="363,-514 235,-514 235,-495 363,-495 363,-514"/>
<text text-anchor="middle" x="299" y="-502" font-family="Helvetica,sans-Serif" font-size="10.00">anonymous_member.h</text>
</a>
</g>
</g>
<!-- Node1&#45;&gt;Node2 -->
<g id="edge1_Node000001_Node000002" class="edge">
<title>Node1&#45;&gt;Node2</title>
<g id="a_edge1_Node000001_Node000002"><a xlink:title=" ">
<path fill="none" stroke="#63b8ff" d="M299,-604.85C299,-582.48 299,-546.19 299,-524.21"/>
<polygon fill="#63b8ff" stroke="#63b8ff" points="302.5,-524.18 299,-514.18 295.5,-524.18 302.5,-524.18"/>
</a>
</g>
</g>
<!-- Node37 -->
<g id="Node000037" class="node">
<title>Node37</title>
<g id="a_Node000037"><a xlink:href="namespace_8h.html" target="_top" xlink:title=" ">
<polygon fill="white" stroke="#666666" points="285.5,-184 184.5,-184 184.5,-165 285.5,-165 285.5,-184"/>
<text text-anchor="middle" x="235" y="-172" font-family="Helvetica,sans-Serif" font-size="10.00">util/namespace.h</text>
</a>
</g>
</g>
<!-- Node1&#45;&gt;Node37 -->
<g id="edge31_Node000001_Node000037" class="edge">
<title>Node1&#45;&gt;Node37</title>
<g id="a_edge31_Node000001_Node000037"><a xlink:title=" ">
<path fill="none" stroke="#63b8ff" d="M221.22,-609.48C132.63,-590.1 0,-553.13 0,-505.5 0,-505.5 0,-505.5 0,-283.5 0,-206.79 104.67,-184.37 174.3,-177.94"/>
<polygon fill="#63b8ff" stroke="#63b8ff" points="174.62,-181.42 184.3,-177.1 174.04,-174.45 174.62,-181.42"/>
</a>
</g>
</g>
<!-- Node38 -->
<g id="Node000038" class="node">
<title>Node38</title>
<g id="a_Node000038"><a xlink:href="std__expr_8h.html" target="_top" xlink:title="API to expression classes.">
<polygon fill="white" stroke="#666666" points="672,-569 586,-569 586,-550 672,-550 672,-569"/>
<text text-anchor="middle" x="629" y="-557" font-family="Helvetica,sans-Serif" font-size="10.00">util/std_expr.h</text>
</a>
</g>
</g>
<!-- Node1&#45;&gt;Node38 -->
<g id="edge34_Node000001_Node000038" class="edge">
<title>Node1&#45;&gt;Node38</title>
<g id="a_edge34_Node000001_Node000038"><a xlink:title=" ">
<path fill="none" stroke="#63b8ff" d="M376.79,-609.41C438.01,-597.54 521.71,-581.31 575.57,-570.86"/>
<polygon fill="#63b8ff" stroke="#63b8ff" points="576.45,-574.26 585.6,-568.92 575.12,-567.38 576.45,-574.26"/>
</a>
</g>
</g>
<!-- Node3 -->
<g id="Node000003" class="node">
<title>Node3</title>
<g id="a_Node000003"><a xlink:href="expr_8h.html" target="_top" xlink:title=" ">
<polygon fill="white" stroke="#666666" points="331.5,-404 266.5,-404 266.5,-385 331.5,-385 331.5,-404"/>
<text text-anchor="middle" x="299" y="-392" font-family="Helvetica,sans-Serif" font-size="10.00">util/expr.h</text>
</a>
</g>
</g>
<!-- Node2&#45;&gt;Node3 -->
<g id="edge2_Node000002_Node000003" class="edge">
<title>Node2&#45;&gt;Node3</title>
<g id="a_edge2_Node000002_Node000003"><a xlink:title=" ">
<path fill="none" stroke="#63b8ff" d="M299,-494.66C299,-477.17 299,-437.8 299,-414.27"/>
<polygon fill="#63b8ff" stroke="#63b8ff" points="302.5,-414.16 299,-404.16 295.5,-414.16 302.5,-414.16"/>
</a>
</g>
</g>
<!-- Node4 -->
<g id="Node000004" class="node">
<title>Node4</title>
<g id="a_Node000004"><a xlink:href="as__const_8h.html" target="_top" xlink:title=" ">
<polygon fill="white" stroke="#666666" points="118,-19 50,-19 50,0 118,0 118,-19"/>
<text text-anchor="middle" x="84" y="-7" font-family="Helvetica,sans-Serif" font-size="10.00">as_const.h</text>
</a>
</g>
</g>
<!-- Node3&#45;&gt;Node4 -->
<g id="edge3_Node000003_Node000004" class="edge">
<title>Node3&#45;&gt;Node4</title>
<g id="a_edge3_Node000003_Node000004"><a xlink:title=" ">
<path fill="none" stroke="#63b8ff" d="M266.47,-394.34C196.51,-394.27 38,-383.33 38,-285.5 38,-285.5 38,-285.5 38,-118.5 38,-84.04 58.07,-47.98 71.7,-27.47"/>
<polygon fill="#63b8ff" stroke="#63b8ff" points="74.6,-29.42 77.41,-19.2 68.85,-25.44 74.6,-29.42"/>
</a>
</g>
</g>
<!-- Node5 -->
<g id="Node000005" class="node">
<title>Node5</title>
<g id="a_Node000005"><a xlink:href="type_8h.html" target="_top" xlink:title="Defines typet, type_with_subtypet and type_with_subtypest.">
<polygon fill="white" stroke="#666666" points="224.5,-349 177.5,-349 177.5,-330 224.5,-330 224.5,-349"/>
<text text-anchor="middle" x="201" y="-337" font-family="Helvetica,sans-Serif" font-size="10.00">type.h</text>
</a>
</g>
</g>
<!-- Node3&#45;&gt;Node5 -->
<g id="edge4_Node000003_Node000005" class="edge">
<title>Node3&#45;&gt;Node5</title>
<g id="a_edge4_Node000003_Node000005"><a xlink:title=" ">
<path fill="none" stroke="#63b8ff" d="M283.25,-384.98C267.77,-376.61 243.91,-363.7 225.86,-353.95"/>
<polygon fill="#63b8ff" stroke="#63b8ff" points="227.49,-350.85 217.03,-349.17 224.16,-357.01 227.49,-350.85"/>
</a>
</g>
</g>
<!-- Node33 -->
<g id="Node000033" class="node">
<title>Node33</title>
<g id="a_Node000033"><a xlink:href="validation__mode_8h.html" target="_top" xlink:title=" ">
<polygon fill="white" stroke="#666666" points="363.5,-239 256.5,-239 256.5,-220 363.5,-220 363.5,-239"/>
<text text-anchor="middle" x="310" y="-227" font-family="Helvetica,sans-Serif" font-size="10.00">validation_mode.h</text>
</a>
</g>
</g>
<!-- Node3&#45;&gt;Node33 -->
<g id="edge29_Node000003_Node000033" class="edge">
<title>Node3&#45;&gt;Node33</title>
<g id="a_edge29_Node000003_Node000033"><a xlink:title=" ">
<path fill="none" stroke="#63b8ff" d="M299.59,-384.74C301.31,-359.31 306.32,-285.08 308.7,-249.69"/>
<polygon fill="#63b8ff" stroke="#63b8ff" points="312.22,-249.52 309.41,-239.31 305.24,-249.05 312.22,-249.52"/>
</a>
</g>
</g>
<!-- Node34 -->
<g id="Node000034" class="node">
<title>Node34</title>
<g id="a_Node000034"><a xlink:href="validate__types_8h.html" target="_top" xlink:title=" ">
<polygon fill="white" stroke="#666666" points="282,-294 184,-294 184,-275 282,-275 282,-294"/>
<text text-anchor="middle" x="233" y="-282" font-family="Helvetica,sans-Serif" font-size="10.00">validate_types.h</text>
</a>
</g>
</g>
<!-- Node3&#45;&gt;Node34 -->
<g id="edge28_Node000003_Node000034" class="edge">
<title>Node3&#45;&gt;Node34</title>
<g id="a_edge28_Node000003_Node000034"><a xlink:title=" ">
<path fill="none" stroke="#63b8ff" d="M293.6,-384.66C282.67,-366.77 257.75,-326 243.51,-302.69"/>
<polygon fill="#63b8ff" stroke="#63b8ff" points="246.49,-300.87 238.29,-294.16 240.52,-304.52 246.49,-300.87"/>
</a>
</g>
</g>
<!-- Node35 -->
<g id="Node000035" class="node">
<title>Node35</title>
<g id="a_Node000035"><a xlink:href="validate__expressions_8h.html" target="_top" xlink:title=" ">
<polygon fill="white" stroke="#666666" points="448.5,-349 319.5,-349 319.5,-330 448.5,-330 448.5,-349"/>
<text text-anchor="middle" x="384" y="-337" font-family="Helvetica,sans-Serif" font-size="10.00">validate_expressions.h</text>
</a>
</g>
</g>
<!-- Node3&#45;&gt;Node35 -->
<g id="edge27_Node000003_Node000035" class="edge">
<title>Node3&#45;&gt;Node35</title>
<g id="a_edge27_Node000003_Node000035"><a xlink:title=" ">
<path fill="none" stroke="#63b8ff" d="M312.66,-384.98C325.84,-376.77 346.03,-364.18 361.57,-354.49"/>
<polygon fill="#63b8ff" stroke="#63b8ff" points="363.46,-357.43 370.09,-349.17 359.76,-351.49 363.46,-357.43"/>
</a>
</g>
</g>
<!-- Node36 -->
<g id="Node000036" class="node">
<title>Node36</title>
<g id="a_Node000036"><a xlink:title=" ">
<polygon fill="#e0e0e0" stroke="#999999" points="570.5,-349 505.5,-349 505.5,-330 570.5,-330 570.5,-349"/>
<text text-anchor="middle" x="538" y="-337" font-family="Helvetica,sans-Serif" font-size="10.00">functional</text>
</a>
</g>
</g>
<!-- Node3&#45;&gt;Node36 -->
<g id="edge30_Node000003_Node000036" class="edge">
<title>Node3&#45;&gt;Node36</title>
<g id="a_edge30_Node000003_Node000036"><a xlink:title=" ">
<path fill="none" stroke="#63b8ff" d="M331.73,-386.24C374.25,-376.81 448.57,-360.33 495.43,-349.94"/>
<polygon fill="#63b8ff" stroke="#63b8ff" points="496.28,-353.34 505.28,-347.76 494.76,-346.5 496.28,-353.34"/>
</a>
</g>
</g>
<!-- Node6 -->
<g id="Node000006" class="node">
<title>Node6</title>
<g id="a_Node000006"><a xlink:href="source__location_8h.html" target="_top" xlink:title=" ">
<polygon fill="white" stroke="#666666" points="423,-184 321,-184 321,-165 423,-165 423,-184"/>
<text text-anchor="middle" x="372" y="-172" font-family="Helvetica,sans-Serif" font-size="10.00">source_location.h</text>
</a>
</g>
</g>
<!-- Node5&#45;&gt;Node6 -->
<g id="edge5_Node000005_Node000006" class="edge">
<title>Node5&#45;&gt;Node6</title>
<g id="a_edge5_Node000005_Node000006"><a xlink:title=" ">
<path fill="none" stroke="#63b8ff" d="M190.55,-329.89C177.09,-317.69 156.58,-294.67 167,-275 194.89,-222.34 260.93,-197.21 310.57,-185.43"/>
<polygon fill="#63b8ff" stroke="#63b8ff" points="311.59,-188.79 320.58,-183.18 310.05,-181.96 311.59,-188.79"/>
</a>
</g>
</g>
<!-- Node31 -->
<g id="Node000031" class="node">
<title>Node31</title>
<g id="a_Node000031"><a xlink:href="validate_8h.html" target="_top" xlink:title=" ">
<polygon fill="white" stroke="#666666" points="509.5,-294 444.5,-294 444.5,-275 509.5,-275 509.5,-294"/>
<text text-anchor="middle" x="477" y="-282" font-family="Helvetica,sans-Serif" font-size="10.00">validate.h</text>
</a>
</g>
</g>
<!-- Node5&#45;&gt;Node31 -->
<g id="edge18_Node000005_Node000031" class="edge">
<title>Node5&#45;&gt;Node31</title>
<g id="a_edge18_Node000005_Node000031"><a xlink:title=" ">
<path fill="none" stroke="#63b8ff" d="M224.53,-333.98C271.02,-325.05 375.21,-305.05 434.19,-293.72"/>
<polygon fill="#63b8ff" stroke="#63b8ff" points="435.14,-297.1 444.3,-291.78 433.82,-290.23 435.14,-297.1"/>
</a>
</g>
</g>
<!-- Node5&#45;&gt;Node33 -->
<g id="edge26_Node000005_Node000033" class="edge">
<title>Node5&#45;&gt;Node33</title>
<g id="a_edge26_Node000005_Node000033"><a xlink:title=" ">
<path fill="none" stroke="#63b8ff" d="M192.16,-329.63C180.39,-316.71 162.43,-292.37 175,-275 191.42,-252.3 219.81,-240.99 246.34,-235.42"/>
<polygon fill="#63b8ff" stroke="#63b8ff" points="247.19,-238.82 256.38,-233.55 245.91,-231.94 247.19,-238.82"/>
</a>
</g>
</g>
<!-- Node5&#45;&gt;Node34 -->
<g id="edge25_Node000005_Node000034" class="edge">
<title>Node5&#45;&gt;Node34</title>
<g id="a_edge25_Node000005_Node000034"><a xlink:title=" ">
<path fill="none" stroke="#63b8ff" d="M206.28,-329.75C210.71,-322.42 217.16,-311.73 222.62,-302.7"/>
<polygon fill="#63b8ff" stroke="#63b8ff" points="225.64,-304.46 227.81,-294.09 219.65,-300.84 225.64,-304.46"/>
</a>
</g>
</g>
<!-- Node7 -->
<g id="Node000007" class="node">
<title>Node7</title>
<g id="a_Node000007"><a xlink:href="deprecate_8h.html" target="_top" xlink:title=" ">
<polygon fill="white" stroke="#666666" points="425,-129 351,-129 351,-110 425,-110 425,-129"/>
<text text-anchor="middle" x="388" y="-117" font-family="Helvetica,sans-Serif" font-size="10.00">deprecate.h</text>
</a>
</g>
</g>
<!-- Node6&#45;&gt;Node7 -->
<g id="edge6_Node000006_Node000007" class="edge">
<title>Node6&#45;&gt;Node7</title>
<g id="a_edge6_Node000006_Node000007"><a xlink:title=" ">
<path fill="none" stroke="#63b8ff" d="M374.64,-164.75C376.76,-157.72 379.81,-147.62 382.46,-138.84"/>
<polygon fill="#63b8ff" stroke="#63b8ff" points="385.87,-139.67 385.41,-129.09 379.17,-137.65 385.87,-139.67"/>
</a>
</g>
</g>
<!-- Node8 -->
<g id="Node000008" class="node">
<title>Node8</title>
<g id="a_Node000008"><a xlink:href="irep_8h.html" target="_top" xlink:title=" ">
<polygon fill="white" stroke="#666666" points="257,-129 213,-129 213,-110 257,-110 257,-129"/>
<text text-anchor="middle" x="235" y="-117" font-family="Helvetica,sans-Serif" font-size="10.00">irep.h</text>
</a>
</g>
</g>
<!-- Node6&#45;&gt;Node8 -->
<g id="edge7_Node000006_Node000008" class="edge">
<title>Node6&#45;&gt;Node8</title>
<g id="a_edge7_Node000006_Node000008"><a xlink:title=" ">
<path fill="none" stroke="#63b8ff" d="M349.99,-164.98C327.55,-156.3 292.52,-142.75 267.01,-132.88"/>
<polygon fill="#63b8ff" stroke="#63b8ff" points="268,-129.51 257.41,-129.17 265.48,-136.04 268,-129.51"/>
</a>
</g>
</g>
<!-- Node9 -->
<g id="Node000009" class="node">
<title>Node9</title>
<g id="a_Node000009"><a xlink:title=" ">
<polygon fill="#e0e0e0" stroke="#999999" points="549,-19 505,-19 505,0 549,0 549,-19"/>
<text text-anchor="middle" x="527" y="-7" font-family="Helvetica,sans-Serif" font-size="10.00">string</text>
</a>
</g>
</g>
<!-- Node6&#45;&gt;Node9 -->
<g id="edge17_Node000006_Node000009" class="edge">
<title>Node6&#45;&gt;Node9</title>
<g id="a_edge17_Node000006_Node000009"><a xlink:title=" ">
<path fill="none" stroke="#63b8ff" d="M362.24,-164.6C349.72,-152.05 330.87,-128.63 342,-110 359.24,-81.15 447.54,-42.27 495.65,-22.75"/>
<polygon fill="#63b8ff" stroke="#63b8ff" points="497.01,-25.98 504.99,-19.01 494.4,-19.48 497.01,-25.98"/>
</a>
</g>
</g>
<!-- Node30 -->
<g id="Node000030" class="node">
<title>Node30</title>
<g id="a_Node000030"><a xlink:title=" ">
<polygon fill="#e0e0e0" stroke="#999999" points="499,-129 443,-129 443,-110 499,-110 499,-129"/>
<text text-anchor="middle" x="471" y="-117" font-family="Helvetica,sans-Serif" font-size="10.00">optional</text>
</a>
</g>
</g>
<!-- Node6&#45;&gt;Node30 -->
<g id="edge16_Node000006_Node000030" class="edge">
<title>Node6&#45;&gt;Node30</title>
<g id="a_edge16_Node000006_Node000030"><a xlink:title=" ">
<path fill="none" stroke="#63b8ff" d="M387.91,-164.98C403.55,-156.61 427.66,-143.7 445.88,-133.95"/>
<polygon fill="#63b8ff" stroke="#63b8ff" points="447.64,-136.98 454.8,-129.17 444.34,-130.8 447.64,-136.98"/>
</a>
</g>
</g>
<!-- Node8&#45;&gt;Node9 -->
<g id="edge8_Node000008_Node000009" class="edge">
<title>Node8&#45;&gt;Node9</title>
<g id="a_edge8_Node000008_Node000009"><a xlink:title=" ">
<path fill="none" stroke="#63b8ff" d="M257.17,-110.27C280.42,-101.57 317.96,-87.27 350,-74 369.3,-66.01 373.51,-62.52 393,-55 427.47,-41.69 467.81,-28.63 495.15,-20.13"/>
<polygon fill="#63b8ff" stroke="#63b8ff" points="496.43,-23.4 504.96,-17.11 494.37,-16.71 496.43,-23.4"/>
</a>
</g>
</g>
<!-- Node10 -->
<g id="Node000010" class="node">
<title>Node10</title>
<g id="a_Node000010"><a xlink:title=" ">
<polygon fill="#e0e0e0" stroke="#999999" points="258.5,-74 211.5,-74 211.5,-55 258.5,-55 258.5,-74"/>
<text text-anchor="middle" x="235" y="-62" font-family="Helvetica,sans-Serif" font-size="10.00">vector</text>
</a>
</g>
</g>
<!-- Node8&#45;&gt;Node10 -->
<g id="edge9_Node000008_Node000010" class="edge">
<title>Node8&#45;&gt;Node10</title>
<g id="a_edge9_Node000008_Node000010"><a xlink:title=" ">
<path fill="none" stroke="#63b8ff" d="M235,-109.75C235,-102.8 235,-92.85 235,-84.13"/>
<polygon fill="#63b8ff" stroke="#63b8ff" points="238.5,-84.09 235,-74.09 231.5,-84.09 238.5,-84.09"/>
</a>
</g>
</g>
<!-- Node11 -->
<g id="Node000011" class="node">
<title>Node11</title>
<g id="a_Node000011"><a xlink:href="src_2util_2invariant_8h.html" target="_top" xlink:title=" ">
<polygon fill="#fff0f0" stroke="red" points="706.5,-74 637.5,-74 637.5,-55 706.5,-55 706.5,-74"/>
<text text-anchor="middle" x="672" y="-62" font-family="Helvetica,sans-Serif" font-size="10.00">invariant.h</text>
</a>
</g>
</g>
<!-- Node8&#45;&gt;Node11 -->
<g id="edge10_Node000008_Node000011" class="edge">
<title>Node8&#45;&gt;Node11</title>
<g id="a_edge10_Node000008_Node000011"><a xlink:title=" ">
<path fill="none" stroke="#63b8ff" d="M257.38,-112.77C261.87,-111.75 266.57,-110.77 271,-110 399.28,-87.82 552.66,-74.39 627.08,-68.7"/>
<polygon fill="#63b8ff" stroke="#63b8ff" points="627.76,-72.15 637.47,-67.91 627.24,-65.17 627.76,-72.15"/>
</a>
</g>
</g>
<!-- Node15 -->
<g id="Node000015" class="node">
<title>Node15</title>
<g id="a_Node000015"><a xlink:href="irep__ids_8h.html" target="_top" xlink:title="util">
<polygon fill="#fff0f0" stroke="red" points="341,-74 277,-74 277,-55 341,-55 341,-74"/>
<text text-anchor="middle" x="309" y="-62" font-family="Helvetica,sans-Serif" font-size="10.00">irep_ids.h</text>
</a>
</g>
</g>
<!-- Node8&#45;&gt;Node15 -->
<g id="edge13_Node000008_Node000015" class="edge">
<title>Node8&#45;&gt;Node15</title>
<g id="a_edge13_Node000008_Node000015"><a xlink:title=" ">
<path fill="none" stroke="#63b8ff" d="M246.89,-109.98C258.15,-101.92 275.29,-89.65 288.71,-80.03"/>
<polygon fill="#63b8ff" stroke="#63b8ff" points="290.8,-82.84 296.89,-74.17 286.73,-77.15 290.8,-82.84"/>
</a>
</g>
</g>
<!-- Node26 -->
<g id="Node000026" class="node">
<title>Node26</title>
<g id="a_Node000026"><a xlink:href="forward__list__as__map_8h.html" target="_top" xlink:title=" ">
<polygon fill="#fff0f0" stroke="red" points="193.5,-74 66.5,-74 66.5,-55 193.5,-55 193.5,-74"/>
<text text-anchor="middle" x="130" y="-62" font-family="Helvetica,sans-Serif" font-size="10.00">forward_list_as_map.h</text>
</a>
</g>
</g>
<!-- Node8&#45;&gt;Node26 -->
<g id="edge14_Node000008_Node000026" class="edge">
<title>Node8&#45;&gt;Node26</title>
<g id="a_edge14_Node000008_Node000026"><a xlink:title=" ">
<path fill="none" stroke="#63b8ff" d="M218.13,-109.98C201.39,-101.54 175.5,-88.47 156.11,-78.68"/>
<polygon fill="#63b8ff" stroke="#63b8ff" points="157.68,-75.55 147.18,-74.17 154.53,-81.8 157.68,-75.55"/>
</a>
</g>
</g>
<!-- Node11&#45;&gt;Node9 -->
<g id="edge11_Node000011_Node000009" class="edge">
<title>Node11&#45;&gt;Node9</title>
<g id="a_edge11_Node000011_Node000009"><a xlink:title=" ">
<path fill="none" stroke="#63b8ff" d="M648.7,-54.98C624.32,-46.07 585.87,-32.02 558.73,-22.1"/>
<polygon fill="#63b8ff" stroke="#63b8ff" points="559.88,-18.79 549.29,-18.65 557.48,-25.37 559.88,-18.79"/>
</a>
</g>
</g>
<!-- Node14 -->
<g id="Node000014" class="node">
<title>Node14</title>
<g id="a_Node000014"><a xlink:title=" ">
<polygon fill="#e0e0e0" stroke="#999999" points="823.5,-19 754.5,-19 754.5,0 823.5,0 823.5,-19"/>
<text text-anchor="middle" x="789" y="-7" font-family="Helvetica,sans-Serif" font-size="10.00">type_traits</text>
</a>
</g>
</g>
<!-- Node11&#45;&gt;Node14 -->
<g id="edge12_Node000011_Node000014" class="edge">
<title>Node11&#45;&gt;Node14</title>
<g id="a_edge12_Node000011_Node000014"><a xlink:title=" ">
<path fill="none" stroke="#63b8ff" d="M690.8,-54.98C709.62,-46.46 738.82,-33.23 760.5,-23.41"/>
<polygon fill="#63b8ff" stroke="#63b8ff" points="762.2,-26.48 769.86,-19.17 759.31,-20.11 762.2,-26.48"/>
</a>
</g>
</g>
<!-- Node26&#45;&gt;Node4 -->
<g id="edge15_Node000026_Node000004" class="edge">
<title>Node26&#45;&gt;Node4</title>
<g id="a_edge15_Node000026_Node000004"><a xlink:title=" ">
<path fill="none" stroke="#63b8ff" d="M122.4,-54.75C115.84,-47.18 106.18,-36.05 98.19,-26.84"/>
<polygon fill="#63b8ff" stroke="#63b8ff" points="100.65,-24.35 91.45,-19.09 95.37,-28.94 100.65,-24.35"/>
</a>
</g>
</g>
<!-- Node31&#45;&gt;Node14 -->
<g id="edge19_Node000031_Node000014" class="edge">
<title>Node31&#45;&gt;Node14</title>
<g id="a_edge19_Node000031_Node000014"><a xlink:title=" ">
<path fill="none" stroke="#63b8ff" d="M495.9,-274.97C512.91,-266.88 538.2,-253.78 558,-239 649.81,-170.47 741.34,-66.86 775.25,-26.96"/>
<polygon fill="#63b8ff" stroke="#63b8ff" points="777.98,-29.15 781.76,-19.25 772.63,-24.63 777.98,-29.15"/>
</a>
</g>
</g>
<!-- Node32 -->
<g id="Node000032" class="node">
<title>Node32</title>
<g id="a_Node000032"><a xlink:href="exception__utils_8h.html" target="_top" xlink:title=" ">
<polygon fill="white" stroke="#666666" points="549,-239 449,-239 449,-220 549,-220 549,-239"/>
<text text-anchor="middle" x="499" y="-227" font-family="Helvetica,sans-Serif" font-size="10.00">exception_utils.h</text>
</a>
</g>
</g>
<!-- Node31&#45;&gt;Node32 -->
<g id="edge20_Node000031_Node000032" class="edge">
<title>Node31&#45;&gt;Node32</title>
<g id="a_edge20_Node000031_Node000032"><a xlink:title=" ">
<path fill="none" stroke="#63b8ff" d="M480.63,-274.75C483.58,-267.65 487.83,-257.4 491.51,-248.56"/>
<polygon fill="#63b8ff" stroke="#63b8ff" points="494.83,-249.67 495.43,-239.09 488.37,-246.98 494.83,-249.67"/>
</a>
</g>
</g>
<!-- Node31&#45;&gt;Node33 -->
<g id="edge24_Node000031_Node000033" class="edge">
<title>Node31&#45;&gt;Node33</title>
<g id="a_edge24_Node000031_Node000033"><a xlink:title=" ">
<path fill="none" stroke="#63b8ff" d="M450.17,-274.98C422.13,-266.09 377.95,-252.07 346.7,-242.15"/>
<polygon fill="#63b8ff" stroke="#63b8ff" points="347.63,-238.77 337.04,-239.08 345.51,-245.44 347.63,-238.77"/>
</a>
</g>
</g>
<!-- Node32&#45;&gt;Node6 -->
<g id="edge23_Node000032_Node000006" class="edge">
<title>Node32&#45;&gt;Node6</title>
<g id="a_edge23_Node000032_Node000006"><a xlink:title=" ">
<path fill="none" stroke="#63b8ff" d="M478.6,-219.98C457.98,-211.38 425.89,-197.99 402.31,-188.15"/>
<polygon fill="#63b8ff" stroke="#63b8ff" points="403.35,-184.79 392.78,-184.17 400.66,-191.25 403.35,-184.79"/>
</a>
</g>
</g>
<!-- Node32&#45;&gt;Node9 -->
<g id="edge21_Node000032_Node000009" class="edge">
<title>Node32&#45;&gt;Node9</title>
<g id="a_edge21_Node000032_Node000009"><a xlink:title=" ">
<path fill="none" stroke="#63b8ff" d="M500.1,-219.95C504.21,-187.95 518.76,-74.68 524.57,-29.4"/>
<polygon fill="#63b8ff" stroke="#63b8ff" points="528.08,-29.59 525.88,-19.22 521.13,-28.7 528.08,-29.59"/>
</a>
</g>
</g>
<!-- Node32&#45;&gt;Node11 -->
<g id="edge22_Node000032_Node000011" class="edge">
<title>Node32&#45;&gt;Node11</title>
<g id="a_edge22_Node000032_Node000011"><a xlink:title=" ">
<path fill="none" stroke="#63b8ff" d="M508.3,-219.74C536.11,-193.53 618.92,-115.51 654.94,-81.57"/>
<polygon fill="#63b8ff" stroke="#63b8ff" points="657.77,-83.71 662.65,-74.31 652.97,-78.62 657.77,-83.71"/>
</a>
</g>
</g>
<!-- Node37&#45;&gt;Node8 -->
<g id="edge33_Node000037_Node000008" class="edge">
<title>Node37&#45;&gt;Node8</title>
<g id="a_edge33_Node000037_Node000008"><a xlink:title=" ">
<path fill="none" stroke="#63b8ff" d="M235,-164.75C235,-157.8 235,-147.85 235,-139.13"/>
<polygon fill="#63b8ff" stroke="#63b8ff" points="238.5,-139.09 235,-129.09 231.5,-139.09 238.5,-139.09"/>
</a>
</g>
</g>
<!-- Node37&#45;&gt;Node11 -->
<g id="edge32_Node000037_Node000011" class="edge">
<title>Node37&#45;&gt;Node11</title>
<g id="a_edge32_Node000037_Node000011"><a xlink:title=" ">
<path fill="none" stroke="#63b8ff" d="M246.11,-164.81C264.76,-150.74 304.05,-123.2 342,-110 439.75,-75.99 562.18,-67.79 626.96,-65.93"/>
<polygon fill="#63b8ff" stroke="#63b8ff" points="627.32,-69.42 637.23,-65.67 627.14,-62.42 627.32,-69.42"/>
</a>
</g>
</g>
<!-- Node38&#45;&gt;Node11 -->
<g id="edge41_Node000038_Node000011" class="edge">
<title>Node38&#45;&gt;Node11</title>
<g id="a_edge41_Node000038_Node000011"><a xlink:title=" ">
<path fill="none" stroke="#63b8ff" d="M672.01,-557.51C740.08,-553.4 865,-534.42 865,-450.5 865,-450.5 865,-450.5 865,-393.5 865,-255.75 737,-124.83 689.48,-80.97"/>
<polygon fill="#63b8ff" stroke="#63b8ff" points="691.59,-78.16 681.84,-74.03 686.89,-83.34 691.59,-78.16"/>
</a>
</g>
</g>
<!-- Node39 -->
<g id="Node000039" class="node">
<title>Node39</title>
<g id="a_Node000039"><a xlink:href="expr__cast_8h.html" target="_top" xlink:title="Templated functions to cast to specific exprt&#45;derived classes.">
<polygon fill="white" stroke="#666666" points="763.5,-459 690.5,-459 690.5,-440 763.5,-440 763.5,-459"/>
<text text-anchor="middle" x="727" y="-447" font-family="Helvetica,sans-Serif" font-size="10.00">expr_cast.h</text>
</a>
</g>
</g>
<!-- Node38&#45;&gt;Node39 -->
<g id="edge35_Node000038_Node000039" class="edge">
<title>Node38&#45;&gt;Node39</title>
<g id="a_edge35_Node000038_Node000039"><a xlink:title=" ">
<path fill="none" stroke="#63b8ff" d="M637.02,-549.66C653.47,-531.54 691.24,-489.91 712.24,-466.77"/>
<polygon fill="#63b8ff" stroke="#63b8ff" points="715.02,-468.92 719.14,-459.16 709.83,-464.21 715.02,-468.92"/>
</a>
</g>
</g>
<!-- Node41 -->
<g id="Node000041" class="node">
<title>Node41</title>
<g id="a_Node000041"><a xlink:href="std__types_8h.html" target="_top" xlink:title="Pre&#45;defined types.">
<polygon fill="white" stroke="#666666" points="607.5,-514 534.5,-514 534.5,-495 607.5,-495 607.5,-514"/>
<text text-anchor="middle" x="571" y="-502" font-family="Helvetica,sans-Serif" font-size="10.00">std_types.h</text>
</a>
</g>
</g>
<!-- Node38&#45;&gt;Node41 -->
<g id="edge42_Node000038_Node000041" class="edge">
<title>Node38&#45;&gt;Node41</title>
<g id="a_edge42_Node000038_Node000041"><a xlink:title=" ">
<path fill="none" stroke="#63b8ff" d="M619.68,-549.98C611.19,-542.23 598.44,-530.58 588.12,-521.14"/>
<polygon fill="#63b8ff" stroke="#63b8ff" points="590.23,-518.33 580.49,-514.17 585.51,-523.5 590.23,-518.33"/>
</a>
</g>
</g>
<!-- Node39&#45;&gt;Node3 -->
<g id="edge40_Node000039_Node000003" class="edge">
<title>Node39&#45;&gt;Node3</title>
<g id="a_edge40_Node000039_Node000003"><a xlink:title=" ">
<path fill="none" stroke="#63b8ff" d="M690.14,-443.94C611.11,-434.15 425.75,-411.2 341.74,-400.79"/>
<polygon fill="#63b8ff" stroke="#63b8ff" points="342.12,-397.31 331.77,-399.56 341.26,-404.26 342.12,-397.31"/>
</a>
</g>
</g>
<!-- Node39&#45;&gt;Node11 -->
<g id="edge39_Node000039_Node000011" class="edge">
<title>Node39&#45;&gt;Node11</title>
<g id="a_edge39_Node000039_Node000011"><a xlink:title=" ">
<path fill="none" stroke="#63b8ff" d="M725.11,-439.87C721.29,-421.62 713,-377.75 713,-340.5 713,-340.5 713,-340.5 713,-173.5 713,-139.57 695.09,-103.31 682.94,-82.62"/>
<polygon fill="#63b8ff" stroke="#63b8ff" points="685.9,-80.75 677.7,-74.04 679.93,-84.4 685.9,-80.75"/>
</a>
</g>
</g>
<!-- Node39&#45;&gt;Node14 -->
<g id="edge37_Node000039_Node000014" class="edge">
<title>Node39&#45;&gt;Node14</title>
<g id="a_edge37_Node000039_Node000014"><a xlink:title=" ">
<path fill="none" stroke="#63b8ff" d="M753.51,-439.98C771.31,-432.98 793.98,-421.35 808,-404 826.51,-381.09 827,-369.96 827,-340.5 827,-340.5 827,-340.5 827,-118.5 827,-85.02 810.55,-48.84 799.3,-28.01"/>
<polygon fill="#63b8ff" stroke="#63b8ff" points="802.24,-26.1 794.28,-19.1 796.13,-29.53 802.24,-26.1"/>
</a>
</g>
</g>
<!-- Node39&#45;&gt;Node36 -->
<g id="edge38_Node000039_Node000036" class="edge">
<title>Node39&#45;&gt;Node36</title>
<g id="a_edge38_Node000039_Node000036"><a xlink:title=" ">
<path fill="none" stroke="#63b8ff" d="M712.59,-439.99C691.78,-427.71 652.07,-404.4 618,-385 599.59,-374.52 578.65,-362.88 562.82,-354.14"/>
<polygon fill="#63b8ff" stroke="#63b8ff" points="564.13,-350.87 553.69,-349.11 560.76,-357 564.13,-350.87"/>
</a>
</g>
</g>
<!-- Node40 -->
<g id="Node000040" class="node">
<title>Node40</title>
<g id="a_Node000040"><a xlink:title=" ">
<polygon fill="#e0e0e0" stroke="#999999" points="798.5,-404 741.5,-404 741.5,-385 798.5,-385 798.5,-404"/>
<text text-anchor="middle" x="770" y="-392" font-family="Helvetica,sans-Serif" font-size="10.00">typeinfo</text>
</a>
</g>
</g>
<!-- Node39&#45;&gt;Node40 -->
<g id="edge36_Node000039_Node000040" class="edge">
<title>Node39&#45;&gt;Node40</title>
<g id="a_edge36_Node000039_Node000040"><a xlink:title=" ">
<path fill="none" stroke="#63b8ff" d="M734.1,-439.75C740.17,-432.26 749.09,-421.28 756.51,-412.13"/>
<polygon fill="#63b8ff" stroke="#63b8ff" points="759.45,-414.06 763.03,-404.09 754.01,-409.65 759.45,-414.06"/>
</a>
</g>
</g>
<!-- Node41&#45;&gt;Node3 -->
<g id="edge43_Node000041_Node000003" class="edge">
<title>Node41&#45;&gt;Node3</title>
<g id="a_edge43_Node000041_Node000003"><a xlink:title=" ">
<path fill="none" stroke="#63b8ff" d="M534.43,-501.12C492.43,-497.14 422.44,-486.6 369,-459 346.33,-447.29 325.38,-426.38 312.42,-411.77"/>
<polygon fill="#63b8ff" stroke="#63b8ff" points="314.93,-409.31 305.76,-404.01 309.61,-413.87 314.93,-409.31"/>
</a>
</g>
</g>
<!-- Node41&#45;&gt;Node11 -->
<g id="edge45_Node000041_Node000011" class="edge">
<title>Node41&#45;&gt;Node11</title>
<g id="a_edge45_Node000041_Node000011"><a xlink:title=" ">
<path fill="none" stroke="#63b8ff" d="M581.74,-494.86C608.31,-472.44 675,-409.31 675,-340.5 675,-340.5 675,-340.5 675,-173.5 675,-142.18 673.72,-105.77 672.84,-84.23"/>
<polygon fill="#63b8ff" stroke="#63b8ff" points="676.33,-84.02 672.4,-74.18 669.34,-84.32 676.33,-84.02"/>
</a>
</g>
</g>
<!-- Node41&#45;&gt;Node31 -->
<g id="edge50_Node000041_Node000031" class="edge">
<title>Node41&#45;&gt;Node31</title>
<g id="a_edge50_Node000041_Node000031"><a xlink:title=" ">
<path fill="none" stroke="#63b8ff" d="M534.2,-503.32C498.89,-501.05 446.66,-491.84 417,-459 394.75,-434.37 391.73,-414.47 407,-385 419.76,-360.37 441.8,-371.53 458,-349 467.55,-335.72 472.36,-317.6 474.74,-304.12"/>
<polygon fill="#63b8ff" stroke="#63b8ff" points="478.22,-304.49 476.22,-294.09 471.29,-303.47 478.22,-304.49"/>
</a>
</g>
</g>
<!-- Node41&#45;&gt;Node39 -->
<g id="edge44_Node000041_Node000039" class="edge">
<title>Node41&#45;&gt;Node39</title>
<g id="a_edge44_Node000041_Node000039"><a xlink:title=" ">
<path fill="none" stroke="#63b8ff" d="M596.06,-494.98C622.03,-486.16 662.81,-472.31 691.96,-462.41"/>
<polygon fill="#63b8ff" stroke="#63b8ff" points="693.4,-465.61 701.74,-459.08 691.15,-458.99 693.4,-465.61"/>
</a>
</g>
</g>
<!-- Node42 -->
<g id="Node000042" class="node">
<title>Node42</title>
<g id="a_Node000042"><a xlink:href="mp__arith_8h.html" target="_top" xlink:title=" ">
<polygon fill="white" stroke="#666666" points="605.5,-459 536.5,-459 536.5,-440 605.5,-440 605.5,-459"/>
<text text-anchor="middle" x="571" y="-447" font-family="Helvetica,sans-Serif" font-size="10.00">mp_arith.h</text>
</a>
</g>
</g>
<!-- Node41&#45;&gt;Node42 -->
<g id="edge46_Node000041_Node000042" class="edge">
<title>Node41&#45;&gt;Node42</title>
<g id="a_edge46_Node000041_Node000042"><a xlink:title=" ">
<path fill="none" stroke="#63b8ff" d="M571,-494.75C571,-487.8 571,-477.85 571,-469.13"/>
<polygon fill="#63b8ff" stroke="#63b8ff" points="574.5,-469.09 571,-459.09 567.5,-469.09 574.5,-469.09"/>
</a>
</g>
</g>
<!-- Node22 -->
<g id="Node000022" class="node">
<title>Node22</title>
<g id="a_Node000022"><a xlink:title=" ">
<polygon fill="#e0e0e0" stroke="#999999" points="518.5,-459 425.5,-459 425.5,-440 518.5,-440 518.5,-459"/>
<text text-anchor="middle" x="472" y="-447" font-family="Helvetica,sans-Serif" font-size="10.00">unordered_map</text>
</a>
</g>
</g>
<!-- Node41&#45;&gt;Node22 -->
<g id="edge51_Node000041_Node000022" class="edge">
<title>Node41&#45;&gt;Node22</title>
<g id="a_edge51_Node000041_Node000022"><a xlink:title=" ">
<path fill="none" stroke="#63b8ff" d="M555.09,-494.98C539.45,-486.61 515.34,-473.7 497.12,-463.95"/>
<polygon fill="#63b8ff" stroke="#63b8ff" points="498.66,-460.8 488.2,-459.17 495.36,-466.98 498.66,-460.8"/>
</a>
</g>
</g>
<!-- Node42&#45;&gt;Node9 -->
<g id="edge48_Node000042_Node000009" class="edge">
<title>Node42&#45;&gt;Node9</title>
<g id="a_edge48_Node000042_Node000009"><a xlink:title=" ">
<path fill="none" stroke="#63b8ff" d="M536.21,-441.45C501.39,-433.6 451.4,-419.91 440,-404 435.08,-397.14 434.83,-391.67 440,-385 479.37,-334.23 540.63,-399.77 580,-349 657.38,-249.21 569.98,-82.15 537.88,-28.01"/>
<polygon fill="#63b8ff" stroke="#63b8ff" points="540.75,-26 532.58,-19.26 534.76,-29.62 540.75,-26"/>
</a>
</g>
</g>
<!-- Node17 -->
<g id="Node000017" class="node">
<title>Node17</title>
<g id="a_Node000017"><a xlink:title=" ">
<polygon fill="#e0e0e0" stroke="#999999" points="609,-404 561,-404 561,-385 609,-385 609,-404"/>
<text text-anchor="middle" x="585" y="-392" font-family="Helvetica,sans-Serif" font-size="10.00">iosfwd</text>
</a>
</g>
</g>
<!-- Node42&#45;&gt;Node17 -->
<g id="edge47_Node000042_Node000017" class="edge">
<title>Node42&#45;&gt;Node17</title>
<g id="a_edge47_Node000042_Node000017"><a xlink:title=" ">
<path fill="none" stroke="#63b8ff" d="M573.31,-439.75C575.17,-432.72 577.84,-422.62 580.15,-413.84"/>
<polygon fill="#63b8ff" stroke="#63b8ff" points="583.56,-414.65 582.73,-404.09 576.79,-412.86 583.56,-414.65"/>
</a>
</g>
</g>
<!-- Node43 -->
<g id="Node000043" class="node">
<title>Node43</title>
<g id="a_Node000043"><a xlink:title=" ">
<polygon fill="#e0e0e0" stroke="#999999" points="543,-404 449,-404 449,-385 543,-385 543,-404"/>
<text text-anchor="middle" x="496" y="-392" font-family="Helvetica,sans-Serif" font-size="10.00">big&#45;int/bigint.hh</text>
</a>
</g>
</g>
<!-- Node42&#45;&gt;Node43 -->
<g id="edge49_Node000042_Node000043" class="edge">
<title>Node42&#45;&gt;Node43</title>
<g id="a_edge49_Node000042_Node000043"><a xlink:title=" ">
<path fill="none" stroke="#63b8ff" d="M558.95,-439.98C547.54,-431.92 530.17,-419.65 516.57,-410.03"/>
<polygon fill="#63b8ff" stroke="#63b8ff" points="518.46,-407.08 508.27,-404.17 514.42,-412.8 518.46,-407.08"/>
</a>
</g>
</g>
</g>
</svg>
