<?xml version="1.0" encoding="UTF-8" standalone="no"?>
<!DOCTYPE svg PUBLIC "-//W3C//DTD SVG 1.1//EN"
 "http://www.w3.org/Graphics/SVG/1.1/DTD/svg11.dtd">
<!-- Generated by graphviz version 2.43.0 (0)
 -->
<!-- Title: /home/runner/work/cbmc/cbmc/src/ansi&#45;c/ansi_c_parser.cpp Pages: 1 -->
<svg width="1416pt" height="819pt"
 viewBox="0.00 0.00 1415.50 819.00" xmlns="http://www.w3.org/2000/svg" xmlns:xlink="http://www.w3.org/1999/xlink">
<g id="graph0" class="graph" transform="scale(1 1) rotate(0) translate(4 815)">
<title>/home/runner/work/cbmc/cbmc/src/ansi&#45;c/ansi_c_parser.cpp</title>
<!-- Node1 -->
<g id="Node000001" class="node">
<title>Node1</title>
<g id="a_Node000001"><a xlink:title=" ">
<polygon fill="#999999" stroke="#666666" points="1296,-811 1158,-811 1158,-770 1296,-770 1296,-811"/>
<text text-anchor="start" x="1166" y="-799" font-family="Helvetica,sans-Serif" font-size="10.00">/home/runner/work/cbmc</text>
<text text-anchor="start" x="1166" y="-788" font-family="Helvetica,sans-Serif" font-size="10.00">/cbmc/src/ansi&#45;c/ansi</text>
<text text-anchor="middle" x="1227" y="-777" font-family="Helvetica,sans-Serif" font-size="10.00">_c_parser.cpp</text>
</a>
</g>
</g>
<!-- Node2 -->
<g id="Node000002" class="node">
<title>Node2</title>
<g id="a_Node000002"><a xlink:href="ansi__c__parser_8h.html" target="_top" xlink:title=" ">
<polygon fill="white" stroke="#666666" points="1235,-734 1143,-734 1143,-715 1235,-715 1235,-734"/>
<text text-anchor="middle" x="1189" y="-722" font-family="Helvetica,sans-Serif" font-size="10.00">ansi_c_parser.h</text>
</a>
</g>
</g>
<!-- Node1&#45;&gt;Node2 -->
<g id="edge1_Node000001_Node000002" class="edge">
<title>Node1&#45;&gt;Node2</title>
<g id="a_edge1_Node000001_Node000002"><a xlink:title=" ">
<path fill="none" stroke="#63b8ff" d="M1215.39,-769.95C1210.31,-761.39 1204.39,-751.42 1199.45,-743.1"/>
<polygon fill="#63b8ff" stroke="#63b8ff" points="1202.32,-741.07 1194.2,-734.26 1196.3,-744.65 1202.32,-741.07"/>
</a>
</g>
</g>
<!-- Node54 -->
<g id="Node000054" class="node">
<title>Node54</title>
<g id="a_Node000054"><a xlink:href="c__storage__spec_8h.html" target="_top" xlink:title=" ">
<polygon fill="white" stroke="#666666" points="1407.5,-624 1306.5,-624 1306.5,-605 1407.5,-605 1407.5,-624"/>
<text text-anchor="middle" x="1357" y="-612" font-family="Helvetica,sans-Serif" font-size="10.00">c_storage_spec.h</text>
</a>
</g>
</g>
<!-- Node1&#45;&gt;Node54 -->
<g id="edge75_Node000001_Node000054" class="edge">
<title>Node1&#45;&gt;Node54</title>
<g id="a_edge75_Node000001_Node000054"><a xlink:title=" ">
<path fill="none" stroke="#63b8ff" d="M1241.66,-769.88C1267.4,-735.43 1320.26,-664.68 1344.43,-632.32"/>
<polygon fill="#63b8ff" stroke="#63b8ff" points="1347.26,-634.38 1350.44,-624.27 1341.66,-630.19 1347.26,-634.38"/>
</a>
</g>
</g>
<!-- Node3 -->
<g id="Node000003" class="node">
<title>Node3</title>
<g id="a_Node000003"><a xlink:title=" ">
<polygon fill="#e0e0e0" stroke="#999999" points="1184,-679 1146,-679 1146,-660 1184,-660 1184,-679"/>
<text text-anchor="middle" x="1165" y="-667" font-family="Helvetica,sans-Serif" font-size="10.00">map</text>
</a>
</g>
</g>
<!-- Node2&#45;&gt;Node3 -->
<g id="edge2_Node000002_Node000003" class="edge">
<title>Node2&#45;&gt;Node3</title>
<g id="a_edge2_Node000002_Node000003"><a xlink:title=" ">
<path fill="none" stroke="#63b8ff" d="M1185.04,-714.75C1181.79,-707.57 1177.08,-697.18 1173.05,-688.27"/>
<polygon fill="#63b8ff" stroke="#63b8ff" points="1176.2,-686.75 1168.89,-679.09 1169.83,-689.64 1176.2,-686.75"/>
</a>
</g>
</g>
<!-- Node4 -->
<g id="Node000004" class="node">
<title>Node4</title>
<g id="a_Node000004"><a xlink:href="parser_8h.html" target="_top" xlink:title="Parser utilities.">
<polygon fill="white" stroke="#666666" points="876,-459 802,-459 802,-440 876,-440 876,-459"/>
<text text-anchor="middle" x="839" y="-447" font-family="Helvetica,sans-Serif" font-size="10.00">util/parser.h</text>
</a>
</g>
</g>
<!-- Node2&#45;&gt;Node4 -->
<g id="edge3_Node000002_Node000004" class="edge">
<title>Node2&#45;&gt;Node4</title>
<g id="a_edge3_Node000002_Node000004"><a xlink:title=" ">
<path fill="none" stroke="#63b8ff" d="M1142.89,-715.86C1062.23,-701.19 904,-665.97 904,-615.5 904,-615.5 904,-615.5 904,-558.5 904,-521.38 875.46,-486.03 856.2,-466.41"/>
<polygon fill="#63b8ff" stroke="#63b8ff" points="858.47,-463.72 848.87,-459.23 853.57,-468.73 858.47,-463.72"/>
</a>
</g>
</g>
<!-- Node42 -->
<g id="Node000042" class="node">
<title>Node42</title>
<g id="a_Node000042"><a xlink:href="config_8h.html" target="_top" xlink:title=" ">
<polygon fill="white" stroke="#666666" points="1287,-514 1213,-514 1213,-495 1287,-495 1287,-514"/>
<text text-anchor="middle" x="1250" y="-502" font-family="Helvetica,sans-Serif" font-size="10.00">util/config.h</text>
</a>
</g>
</g>
<!-- Node2&#45;&gt;Node42 -->
<g id="edge43_Node000002_Node000042" class="edge">
<title>Node2&#45;&gt;Node42</title>
<g id="a_edge43_Node000002_Node000042"><a xlink:title=" ">
<path fill="none" stroke="#63b8ff" d="M1198.63,-715C1207.32,-706.73 1219.67,-693.34 1226,-679 1249.17,-626.49 1251.22,-557.1 1250.7,-524.26"/>
<polygon fill="#63b8ff" stroke="#63b8ff" points="1254.2,-524.16 1250.44,-514.26 1247.2,-524.34 1254.2,-524.16"/>
</a>
</g>
</g>
<!-- Node47 -->
<g id="Node000047" class="node">
<title>Node47</title>
<g id="a_Node000047"><a xlink:href="ansi__c__parse__tree_8h.html" target="_top" xlink:title=" ">
<polygon fill="white" stroke="#666666" points="1127.5,-679 1014.5,-679 1014.5,-660 1127.5,-660 1127.5,-679"/>
<text text-anchor="middle" x="1071" y="-667" font-family="Helvetica,sans-Serif" font-size="10.00">ansi_c_parse_tree.h</text>
</a>
</g>
</g>
<!-- Node2&#45;&gt;Node47 -->
<g id="edge54_Node000002_Node000047" class="edge">
<title>Node2&#45;&gt;Node47</title>
<g id="a_edge54_Node000002_Node000047"><a xlink:title=" ">
<path fill="none" stroke="#63b8ff" d="M1170.04,-714.98C1150.97,-706.42 1121.34,-693.11 1099.45,-683.28"/>
<polygon fill="#63b8ff" stroke="#63b8ff" points="1100.86,-680.07 1090.3,-679.17 1097.99,-686.46 1100.86,-680.07"/>
</a>
</g>
</g>
<!-- Node53 -->
<g id="Node000053" class="node">
<title>Node53</title>
<g id="a_Node000053"><a xlink:href="ansi__c__scope_8h.html" target="_top" xlink:title=" ">
<polygon fill="white" stroke="#666666" points="1146,-514 1056,-514 1056,-495 1146,-495 1146,-514"/>
<text text-anchor="middle" x="1101" y="-502" font-family="Helvetica,sans-Serif" font-size="10.00">ansi_c_scope.h</text>
</a>
</g>
</g>
<!-- Node2&#45;&gt;Node53 -->
<g id="edge72_Node000002_Node000053" class="edge">
<title>Node2&#45;&gt;Node53</title>
<g id="a_edge72_Node000002_Node000053"><a xlink:title=" ">
<path fill="none" stroke="#63b8ff" d="M1191.34,-714.69C1194.25,-702.25 1198.22,-678.96 1193,-660 1177.74,-604.56 1136.82,-548.92 1115.06,-522.07"/>
<polygon fill="#63b8ff" stroke="#63b8ff" points="1117.55,-519.58 1108.48,-514.11 1112.15,-524.04 1117.55,-519.58"/>
</a>
</g>
</g>
<!-- Node5 -->
<g id="Node000005" class="node">
<title>Node5</title>
<g id="a_Node000005"><a xlink:href="expr_8h.html" target="_top" xlink:title=" ">
<polygon fill="white" stroke="#666666" points="499.5,-404 452.5,-404 452.5,-385 499.5,-385 499.5,-404"/>
<text text-anchor="middle" x="476" y="-392" font-family="Helvetica,sans-Serif" font-size="10.00">expr.h</text>
</a>
</g>
</g>
<!-- Node4&#45;&gt;Node5 -->
<g id="edge4_Node000004_Node000005" class="edge">
<title>Node4&#45;&gt;Node5</title>
<g id="a_edge4_Node000004_Node000005"><a xlink:title=" ">
<path fill="none" stroke="#63b8ff" d="M801.86,-443.08C731.19,-432.76 578.36,-410.45 510.12,-400.48"/>
<polygon fill="#63b8ff" stroke="#63b8ff" points="510.32,-396.97 499.92,-398.99 509.31,-403.9 510.32,-396.97"/>
</a>
</g>
</g>
<!-- Node11 -->
<g id="Node000011" class="node">
<title>Node11</title>
<g id="a_Node000011"><a xlink:title=" ">
<polygon fill="#e0e0e0" stroke="#999999" points="904,-19 860,-19 860,0 904,0 904,-19"/>
<text text-anchor="middle" x="882" y="-7" font-family="Helvetica,sans-Serif" font-size="10.00">string</text>
</a>
</g>
</g>
<!-- Node4&#45;&gt;Node11 -->
<g id="edge41_Node000004_Node000011" class="edge">
<title>Node4&#45;&gt;Node11</title>
<g id="a_edge41_Node000004_Node000011"><a xlink:title=" ">
<path fill="none" stroke="#63b8ff" d="M801.83,-446.47C772.37,-442.67 732.96,-432.22 713,-404 708.12,-397.11 710.79,-393.15 713,-385 747.54,-257.73 818.46,-253.12 863,-129 875.15,-95.12 879.56,-53.01 881.14,-29.2"/>
<polygon fill="#63b8ff" stroke="#63b8ff" points="884.64,-29.28 881.7,-19.1 877.65,-28.89 884.64,-29.28"/>
</a>
</g>
</g>
<!-- Node12 -->
<g id="Node000012" class="node">
<title>Node12</title>
<g id="a_Node000012"><a xlink:title=" ">
<polygon fill="#e0e0e0" stroke="#999999" points="1033.5,-74 986.5,-74 986.5,-55 1033.5,-55 1033.5,-74"/>
<text text-anchor="middle" x="1010" y="-62" font-family="Helvetica,sans-Serif" font-size="10.00">vector</text>
</a>
</g>
</g>
<!-- Node4&#45;&gt;Node12 -->
<g id="edge42_Node000004_Node000012" class="edge">
<title>Node4&#45;&gt;Node12</title>
<g id="a_edge42_Node000004_Node000012"><a xlink:title=" ">
<path fill="none" stroke="#63b8ff" d="M840.82,-439.97C843.69,-427.49 849.86,-403.69 859,-385 872.05,-358.31 878,-352.84 897,-330 936.89,-282.04 996,-292.88 996,-230.5 996,-230.5 996,-230.5 996,-173.5 996,-141.93 1001.96,-105.59 1006.1,-84.14"/>
<polygon fill="#63b8ff" stroke="#63b8ff" points="1009.57,-84.62 1008.11,-74.13 1002.71,-83.24 1009.57,-84.62"/>
</a>
</g>
</g>
<!-- Node39 -->
<g id="Node000039" class="node">
<title>Node39</title>
<g id="a_Node000039"><a xlink:href="src_2util_2message_8h.html" target="_top" xlink:title=" ">
<polygon fill="white" stroke="#666666" points="792,-404 722,-404 722,-385 792,-385 792,-404"/>
<text text-anchor="middle" x="757" y="-392" font-family="Helvetica,sans-Serif" font-size="10.00">message.h</text>
</a>
</g>
</g>
<!-- Node4&#45;&gt;Node39 -->
<g id="edge31_Node000004_Node000039" class="edge">
<title>Node4&#45;&gt;Node39</title>
<g id="a_edge31_Node000004_Node000039"><a xlink:title=" ">
<path fill="none" stroke="#63b8ff" d="M825.83,-439.98C813.23,-431.84 794,-419.41 779.06,-409.76"/>
<polygon fill="#63b8ff" stroke="#63b8ff" points="780.71,-406.66 770.41,-404.17 776.91,-412.54 780.71,-406.66"/>
</a>
</g>
</g>
<!-- Node19 -->
<g id="Node000019" class="node">
<title>Node19</title>
<g id="a_Node000019"><a xlink:title=" ">
<polygon fill="#e0e0e0" stroke="#999999" points="954,-349 906,-349 906,-330 954,-330 954,-349"/>
<text text-anchor="middle" x="930" y="-337" font-family="Helvetica,sans-Serif" font-size="10.00">iosfwd</text>
</a>
</g>
</g>
<!-- Node4&#45;&gt;Node19 -->
<g id="edge39_Node000004_Node000019" class="edge">
<title>Node4&#45;&gt;Node19</title>
<g id="a_edge39_Node000004_Node000019"><a xlink:title=" ">
<path fill="none" stroke="#63b8ff" d="M843.09,-439.69C849.31,-426.84 862,-402.6 877,-385 886.5,-373.86 898.96,-363.24 909.42,-355.17"/>
<polygon fill="#63b8ff" stroke="#63b8ff" points="911.71,-357.83 917.62,-349.04 907.52,-352.22 911.71,-357.83"/>
</a>
</g>
</g>
<!-- Node40 -->
<g id="Node000040" class="node">
<title>Node40</title>
<g id="a_Node000040"><a xlink:title=" ">
<polygon fill="#e0e0e0" stroke="#999999" points="954,-404 886,-404 886,-385 954,-385 954,-404"/>
<text text-anchor="middle" x="920" y="-392" font-family="Helvetica,sans-Serif" font-size="10.00">filesystem</text>
</a>
</g>
</g>
<!-- Node4&#45;&gt;Node40 -->
<g id="edge38_Node000004_Node000040" class="edge">
<title>Node4&#45;&gt;Node40</title>
<g id="a_edge38_Node000004_Node000040"><a xlink:title=" ">
<path fill="none" stroke="#63b8ff" d="M852.01,-439.98C864.46,-431.84 883.46,-419.41 898.21,-409.76"/>
<polygon fill="#63b8ff" stroke="#63b8ff" points="900.3,-412.57 906.75,-404.17 896.46,-406.72 900.3,-412.57"/>
</a>
</g>
</g>
<!-- Node41 -->
<g id="Node000041" class="node">
<title>Node41</title>
<g id="a_Node000041"><a xlink:title=" ">
<polygon fill="#e0e0e0" stroke="#999999" points="1016,-404 972,-404 972,-385 1016,-385 1016,-404"/>
<text text-anchor="middle" x="994" y="-392" font-family="Helvetica,sans-Serif" font-size="10.00">limits</text>
</a>
</g>
</g>
<!-- Node4&#45;&gt;Node41 -->
<g id="edge40_Node000004_Node000041" class="edge">
<title>Node4&#45;&gt;Node41</title>
<g id="a_edge40_Node000004_Node000041"><a xlink:title=" ">
<path fill="none" stroke="#63b8ff" d="M863.9,-439.98C890.54,-430.88 932.88,-416.4 961.98,-406.45"/>
<polygon fill="#63b8ff" stroke="#63b8ff" points="963.34,-409.68 971.67,-403.13 961.08,-403.06 963.34,-409.68"/>
</a>
</g>
</g>
<!-- Node6 -->
<g id="Node000006" class="node">
<title>Node6</title>
<g id="a_Node000006"><a xlink:href="as__const_8h.html" target="_top" xlink:title=" ">
<polygon fill="white" stroke="#666666" points="434,-349 366,-349 366,-330 434,-330 434,-349"/>
<text text-anchor="middle" x="400" y="-337" font-family="Helvetica,sans-Serif" font-size="10.00">as_const.h</text>
</a>
</g>
</g>
<!-- Node5&#45;&gt;Node6 -->
<g id="edge5_Node000005_Node000006" class="edge">
<title>Node5&#45;&gt;Node6</title>
<g id="a_edge5_Node000005_Node000006"><a xlink:title=" ">
<path fill="none" stroke="#63b8ff" d="M463.79,-384.98C452.22,-376.92 434.62,-364.65 420.84,-355.03"/>
<polygon fill="#63b8ff" stroke="#63b8ff" points="422.64,-352.02 412.43,-349.17 418.63,-357.76 422.64,-352.02"/>
</a>
</g>
</g>
<!-- Node7 -->
<g id="Node000007" class="node">
<title>Node7</title>
<g id="a_Node000007"><a xlink:href="type_8h.html" target="_top" xlink:title="Defines typet, type_with_subtypet and type_with_subtypest.">
<polygon fill="white" stroke="#666666" points="499.5,-349 452.5,-349 452.5,-330 499.5,-330 499.5,-349"/>
<text text-anchor="middle" x="476" y="-337" font-family="Helvetica,sans-Serif" font-size="10.00">type.h</text>
</a>
</g>
</g>
<!-- Node5&#45;&gt;Node7 -->
<g id="edge6_Node000005_Node000007" class="edge">
<title>Node5&#45;&gt;Node7</title>
<g id="a_edge6_Node000005_Node000007"><a xlink:title=" ">
<path fill="none" stroke="#63b8ff" d="M476,-384.75C476,-377.8 476,-367.85 476,-359.13"/>
<polygon fill="#63b8ff" stroke="#63b8ff" points="479.5,-359.09 476,-349.09 472.5,-359.09 479.5,-359.09"/>
</a>
</g>
</g>
<!-- Node35 -->
<g id="Node000035" class="node">
<title>Node35</title>
<g id="a_Node000035"><a xlink:href="validation__mode_8h.html" target="_top" xlink:title=" ">
<polygon fill="white" stroke="#666666" points="419.5,-239 312.5,-239 312.5,-220 419.5,-220 419.5,-239"/>
<text text-anchor="middle" x="366" y="-227" font-family="Helvetica,sans-Serif" font-size="10.00">validation_mode.h</text>
</a>
</g>
</g>
<!-- Node5&#45;&gt;Node35 -->
<g id="edge29_Node000005_Node000035" class="edge">
<title>Node5&#45;&gt;Node35</title>
<g id="a_edge29_Node000005_Node000035"><a xlink:title=" ">
<path fill="none" stroke="#63b8ff" d="M492.55,-384.89C527.96,-365.36 605.26,-316.21 572,-275 554.33,-253.1 483.51,-241.45 429.79,-235.64"/>
<polygon fill="#63b8ff" stroke="#63b8ff" points="429.95,-232.14 419.64,-234.59 429.23,-239.1 429.95,-232.14"/>
</a>
</g>
</g>
<!-- Node36 -->
<g id="Node000036" class="node">
<title>Node36</title>
<g id="a_Node000036"><a xlink:href="validate__types_8h.html" target="_top" xlink:title=" ">
<polygon fill="white" stroke="#666666" points="563,-294 465,-294 465,-275 563,-275 563,-294"/>
<text text-anchor="middle" x="514" y="-282" font-family="Helvetica,sans-Serif" font-size="10.00">validate_types.h</text>
</a>
</g>
</g>
<!-- Node5&#45;&gt;Node36 -->
<g id="edge28_Node000005_Node000036" class="edge">
<title>Node5&#45;&gt;Node36</title>
<g id="a_edge28_Node000005_Node000036"><a xlink:title=" ">
<path fill="none" stroke="#63b8ff" d="M484.76,-384.87C492.63,-376.5 503.74,-363.05 509,-349 514.4,-334.58 515.4,-317.07 515.2,-304.09"/>
<polygon fill="#63b8ff" stroke="#63b8ff" points="518.69,-303.89 514.79,-294.04 511.7,-304.17 518.69,-303.89"/>
</a>
</g>
</g>
<!-- Node37 -->
<g id="Node000037" class="node">
<title>Node37</title>
<g id="a_Node000037"><a xlink:href="validate__expressions_8h.html" target="_top" xlink:title=" ">
<polygon fill="white" stroke="#666666" points="347.5,-349 218.5,-349 218.5,-330 347.5,-330 347.5,-349"/>
<text text-anchor="middle" x="283" y="-337" font-family="Helvetica,sans-Serif" font-size="10.00">validate_expressions.h</text>
</a>
</g>
</g>
<!-- Node5&#45;&gt;Node37 -->
<g id="edge27_Node000005_Node000037" class="edge">
<title>Node5&#45;&gt;Node37</title>
<g id="a_edge27_Node000005_Node000037"><a xlink:title=" ">
<path fill="none" stroke="#63b8ff" d="M452.33,-387C420.46,-378.25 363.23,-362.53 324.2,-351.82"/>
<polygon fill="#63b8ff" stroke="#63b8ff" points="324.78,-348.34 314.21,-349.07 322.93,-355.09 324.78,-348.34"/>
</a>
</g>
</g>
<!-- Node38 -->
<g id="Node000038" class="node">
<title>Node38</title>
<g id="a_Node000038"><a xlink:title=" ">
<polygon fill="#e0e0e0" stroke="#999999" points="659.5,-349 594.5,-349 594.5,-330 659.5,-330 659.5,-349"/>
<text text-anchor="middle" x="627" y="-337" font-family="Helvetica,sans-Serif" font-size="10.00">functional</text>
</a>
</g>
</g>
<!-- Node5&#45;&gt;Node38 -->
<g id="edge30_Node000005_Node000038" class="edge">
<title>Node5&#45;&gt;Node38</title>
<g id="a_edge30_Node000005_Node000038"><a xlink:title=" ">
<path fill="none" stroke="#63b8ff" d="M499.59,-385.22C524.67,-376.42 564.56,-362.42 593.02,-352.43"/>
<polygon fill="#63b8ff" stroke="#63b8ff" points="594.29,-355.69 602.57,-349.07 591.98,-349.08 594.29,-355.69"/>
</a>
</g>
</g>
<!-- Node8 -->
<g id="Node000008" class="node">
<title>Node8</title>
<g id="a_Node000008"><a xlink:href="source__location_8h.html" target="_top" xlink:title=" ">
<polygon fill="white" stroke="#666666" points="698,-184 596,-184 596,-165 698,-165 698,-184"/>
<text text-anchor="middle" x="647" y="-172" font-family="Helvetica,sans-Serif" font-size="10.00">source_location.h</text>
</a>
</g>
</g>
<!-- Node7&#45;&gt;Node8 -->
<g id="edge7_Node000007_Node000008" class="edge">
<title>Node7&#45;&gt;Node8</title>
<g id="a_edge7_Node000007_Node000008"><a xlink:title=" ">
<path fill="none" stroke="#63b8ff" d="M468.91,-329.74C459.48,-316.95 445.21,-292.79 456,-275 485.99,-225.56 549.45,-199.54 595,-186.69"/>
<polygon fill="#63b8ff" stroke="#63b8ff" points="595.97,-190.05 604.71,-184.07 594.15,-183.3 595.97,-190.05"/>
</a>
</g>
</g>
<!-- Node33 -->
<g id="Node000033" class="node">
<title>Node33</title>
<g id="a_Node000033"><a xlink:href="validate_8h.html" target="_top" xlink:title=" ">
<polygon fill="white" stroke="#666666" points="276.5,-294 211.5,-294 211.5,-275 276.5,-275 276.5,-294"/>
<text text-anchor="middle" x="244" y="-282" font-family="Helvetica,sans-Serif" font-size="10.00">validate.h</text>
</a>
</g>
</g>
<!-- Node7&#45;&gt;Node33 -->
<g id="edge18_Node000007_Node000033" class="edge">
<title>Node7&#45;&gt;Node33</title>
<g id="a_edge18_Node000007_Node000033"><a xlink:title=" ">
<path fill="none" stroke="#63b8ff" d="M452.23,-332.28C449.13,-331.5 445.99,-330.72 443,-330 389.33,-317.09 327.21,-303.4 286.85,-294.67"/>
<polygon fill="#63b8ff" stroke="#63b8ff" points="287.34,-291.19 276.82,-292.5 285.86,-298.03 287.34,-291.19"/>
</a>
</g>
</g>
<!-- Node7&#45;&gt;Node35 -->
<g id="edge26_Node000007_Node000035" class="edge">
<title>Node7&#45;&gt;Node35</title>
<g id="a_edge26_Node000007_Node000035"><a xlink:title=" ">
<path fill="none" stroke="#63b8ff" d="M464.64,-329.73C453.63,-321.06 436.64,-307.2 423,-294 407.28,-278.79 390.73,-260 379.54,-246.82"/>
<polygon fill="#63b8ff" stroke="#63b8ff" points="382.13,-244.47 373.02,-239.06 376.77,-248.97 382.13,-244.47"/>
</a>
</g>
</g>
<!-- Node7&#45;&gt;Node36 -->
<g id="edge25_Node000007_Node000036" class="edge">
<title>Node7&#45;&gt;Node36</title>
<g id="a_edge25_Node000007_Node000036"><a xlink:title=" ">
<path fill="none" stroke="#63b8ff" d="M482.27,-329.75C487.59,-322.34 495.36,-311.5 501.88,-302.41"/>
<polygon fill="#63b8ff" stroke="#63b8ff" points="504.86,-304.26 507.84,-294.09 499.17,-300.18 504.86,-304.26"/>
</a>
</g>
</g>
<!-- Node9 -->
<g id="Node000009" class="node">
<title>Node9</title>
<g id="a_Node000009"><a xlink:href="deprecate_8h.html" target="_top" xlink:title=" ">
<polygon fill="white" stroke="#666666" points="666,-129 592,-129 592,-110 666,-110 666,-129"/>
<text text-anchor="middle" x="629" y="-117" font-family="Helvetica,sans-Serif" font-size="10.00">deprecate.h</text>
</a>
</g>
</g>
<!-- Node8&#45;&gt;Node9 -->
<g id="edge8_Node000008_Node000009" class="edge">
<title>Node8&#45;&gt;Node9</title>
<g id="a_edge8_Node000008_Node000009"><a xlink:title=" ">
<path fill="none" stroke="#63b8ff" d="M644.03,-164.75C641.64,-157.72 638.21,-147.62 635.23,-138.84"/>
<polygon fill="#63b8ff" stroke="#63b8ff" points="638.45,-137.43 631.92,-129.09 631.82,-139.68 638.45,-137.43"/>
</a>
</g>
</g>
<!-- Node10 -->
<g id="Node000010" class="node">
<title>Node10</title>
<g id="a_Node000010"><a xlink:href="irep_8h.html" target="_top" xlink:title=" ">
<polygon fill="#fff0f0" stroke="red" points="1084,-129 1040,-129 1040,-110 1084,-110 1084,-129"/>
<text text-anchor="middle" x="1062" y="-117" font-family="Helvetica,sans-Serif" font-size="10.00">irep.h</text>
</a>
</g>
</g>
<!-- Node8&#45;&gt;Node10 -->
<g id="edge9_Node000008_Node000010" class="edge">
<title>Node8&#45;&gt;Node10</title>
<g id="a_edge9_Node000008_Node000010"><a xlink:title=" ">
<path fill="none" stroke="#63b8ff" d="M698.3,-166.95C784.94,-155.88 957.8,-133.81 1029.58,-124.64"/>
<polygon fill="#63b8ff" stroke="#63b8ff" points="1030.34,-128.07 1039.81,-123.33 1029.45,-121.13 1030.34,-128.07"/>
</a>
</g>
</g>
<!-- Node8&#45;&gt;Node11 -->
<g id="edge17_Node000008_Node000011" class="edge">
<title>Node8&#45;&gt;Node11</title>
<g id="a_edge17_Node000008_Node000011"><a xlink:title=" ">
<path fill="none" stroke="#63b8ff" d="M659.3,-164.97C697.37,-138.57 813.49,-58.02 861.2,-24.93"/>
<polygon fill="#63b8ff" stroke="#63b8ff" points="863.31,-27.72 869.53,-19.15 859.32,-21.97 863.31,-27.72"/>
</a>
</g>
</g>
<!-- Node32 -->
<g id="Node000032" class="node">
<title>Node32</title>
<g id="a_Node000032"><a xlink:title=" ">
<polygon fill="#e0e0e0" stroke="#999999" points="854,-129 798,-129 798,-110 854,-110 854,-129"/>
<text text-anchor="middle" x="826" y="-117" font-family="Helvetica,sans-Serif" font-size="10.00">optional</text>
</a>
</g>
</g>
<!-- Node8&#45;&gt;Node32 -->
<g id="edge16_Node000008_Node000032" class="edge">
<title>Node8&#45;&gt;Node32</title>
<g id="a_edge16_Node000008_Node000032"><a xlink:title=" ">
<path fill="none" stroke="#63b8ff" d="M675.76,-164.98C706.21,-155.97 754.42,-141.69 787.99,-131.75"/>
<polygon fill="#63b8ff" stroke="#63b8ff" points="789.31,-135.01 797.9,-128.82 787.32,-128.3 789.31,-135.01"/>
</a>
</g>
</g>
<!-- Node10&#45;&gt;Node11 -->
<g id="edge10_Node000010_Node000011" class="edge">
<title>Node10&#45;&gt;Node11</title>
<g id="a_edge10_Node000010_Node000011"><a xlink:title=" ">
<path fill="none" stroke="#63b8ff" d="M1061.93,-109.77C1061.33,-96.14 1058.13,-69.81 1043,-55 1008.39,-21.12 950.42,-12.5 914.29,-10.61"/>
<polygon fill="#63b8ff" stroke="#63b8ff" points="914.4,-7.11 904.28,-10.23 914.14,-14.11 914.4,-7.11"/>
</a>
</g>
</g>
<!-- Node10&#45;&gt;Node12 -->
<g id="edge11_Node000010_Node000012" class="edge">
<title>Node10&#45;&gt;Node12</title>
<g id="a_edge11_Node000010_Node000012"><a xlink:title=" ">
<path fill="none" stroke="#63b8ff" d="M1053.41,-109.75C1045.84,-102.03 1034.62,-90.6 1025.49,-81.28"/>
<polygon fill="#63b8ff" stroke="#63b8ff" points="1027.93,-78.78 1018.43,-74.09 1022.93,-83.68 1027.93,-78.78"/>
</a>
</g>
</g>
<!-- Node13 -->
<g id="Node000013" class="node">
<title>Node13</title>
<g id="a_Node000013"><a xlink:href="src_2util_2invariant_8h.html" target="_top" xlink:title=" ">
<polygon fill="#fff0f0" stroke="red" points="278.5,-74 209.5,-74 209.5,-55 278.5,-55 278.5,-74"/>
<text text-anchor="middle" x="244" y="-62" font-family="Helvetica,sans-Serif" font-size="10.00">invariant.h</text>
</a>
</g>
</g>
<!-- Node10&#45;&gt;Node13 -->
<g id="edge12_Node000010_Node000013" class="edge">
<title>Node10&#45;&gt;Node13</title>
<g id="a_edge12_Node000010_Node000013"><a xlink:title=" ">
<path fill="none" stroke="#63b8ff" d="M1039.7,-117.05C929.3,-109.9 440.58,-78.24 289,-68.42"/>
<polygon fill="#63b8ff" stroke="#63b8ff" points="288.88,-64.9 278.67,-67.75 288.43,-71.89 288.88,-64.9"/>
</a>
</g>
</g>
<!-- Node13&#45;&gt;Node11 -->
<g id="edge14_Node000013_Node000011" class="edge">
<title>Node13&#45;&gt;Node11</title>
<g id="a_edge14_Node000013_Node000011"><a xlink:title=" ">
<path fill="none" stroke="#63b8ff" d="M278.75,-60.61C390.87,-51.3 741.92,-22.14 850.01,-13.16"/>
<polygon fill="#63b8ff" stroke="#63b8ff" points="850.3,-16.65 859.98,-12.33 849.72,-9.67 850.3,-16.65"/>
</a>
</g>
</g>
<!-- Node15 -->
<g id="Node000015" class="node">
<title>Node15</title>
<g id="a_Node000015"><a xlink:title=" ">
<polygon fill="#e0e0e0" stroke="#999999" points="505,-19 449,-19 449,0 505,0 505,-19"/>
<text text-anchor="middle" x="477" y="-7" font-family="Helvetica,sans-Serif" font-size="10.00">sstream</text>
</a>
</g>
</g>
<!-- Node13&#45;&gt;Node15 -->
<g id="edge13_Node000013_Node000015" class="edge">
<title>Node13&#45;&gt;Node15</title>
<g id="a_edge13_Node000013_Node000015"><a xlink:title=" ">
<path fill="none" stroke="#63b8ff" d="M278.63,-55.62C321.56,-45.86 394.47,-29.27 438.93,-19.16"/>
<polygon fill="#63b8ff" stroke="#63b8ff" points="439.8,-22.55 448.78,-16.92 438.25,-15.73 439.8,-22.55"/>
</a>
</g>
</g>
<!-- Node16 -->
<g id="Node000016" class="node">
<title>Node16</title>
<g id="a_Node000016"><a xlink:title=" ">
<polygon fill="#e0e0e0" stroke="#999999" points="72.5,-19 3.5,-19 3.5,0 72.5,0 72.5,-19"/>
<text text-anchor="middle" x="38" y="-7" font-family="Helvetica,sans-Serif" font-size="10.00">type_traits</text>
</a>
</g>
</g>
<!-- Node13&#45;&gt;Node16 -->
<g id="edge15_Node000013_Node000016" class="edge">
<title>Node13&#45;&gt;Node16</title>
<g id="a_edge15_Node000013_Node000016"><a xlink:title=" ">
<path fill="none" stroke="#63b8ff" d="M210.9,-54.98C175.72,-45.93 119.93,-31.58 81.28,-21.64"/>
<polygon fill="#63b8ff" stroke="#63b8ff" points="81.91,-18.18 71.36,-19.08 80.17,-24.96 81.91,-18.18"/>
</a>
</g>
</g>
<!-- Node33&#45;&gt;Node16 -->
<g id="edge19_Node000033_Node000016" class="edge">
<title>Node33&#45;&gt;Node16</title>
<g id="a_edge19_Node000033_Node000016"><a xlink:title=" ">
<path fill="none" stroke="#63b8ff" d="M229.77,-274.83C217.06,-266.64 198.44,-253.48 185,-239 120.65,-169.66 66.91,-68.74 46.65,-28.26"/>
<polygon fill="#63b8ff" stroke="#63b8ff" points="49.7,-26.54 42.13,-19.13 43.43,-29.64 49.7,-26.54"/>
</a>
</g>
</g>
<!-- Node34 -->
<g id="Node000034" class="node">
<title>Node34</title>
<g id="a_Node000034"><a xlink:href="exception__utils_8h.html" target="_top" xlink:title=" ">
<polygon fill="white" stroke="#666666" points="294,-239 194,-239 194,-220 294,-220 294,-239"/>
<text text-anchor="middle" x="244" y="-227" font-family="Helvetica,sans-Serif" font-size="10.00">exception_utils.h</text>
</a>
</g>
</g>
<!-- Node33&#45;&gt;Node34 -->
<g id="edge20_Node000033_Node000034" class="edge">
<title>Node33&#45;&gt;Node34</title>
<g id="a_edge20_Node000033_Node000034"><a xlink:title=" ">
<path fill="none" stroke="#63b8ff" d="M244,-274.75C244,-267.8 244,-257.85 244,-249.13"/>
<polygon fill="#63b8ff" stroke="#63b8ff" points="247.5,-249.09 244,-239.09 240.5,-249.09 247.5,-249.09"/>
</a>
</g>
</g>
<!-- Node33&#45;&gt;Node35 -->
<g id="edge24_Node000033_Node000035" class="edge">
<title>Node33&#45;&gt;Node35</title>
<g id="a_edge24_Node000033_Node000035"><a xlink:title=" ">
<path fill="none" stroke="#63b8ff" d="M263.6,-274.98C283.32,-266.42 313.95,-253.11 336.58,-243.28"/>
<polygon fill="#63b8ff" stroke="#63b8ff" points="338.26,-246.37 346.04,-239.17 335.48,-239.94 338.26,-246.37"/>
</a>
</g>
</g>
<!-- Node34&#45;&gt;Node8 -->
<g id="edge23_Node000034_Node000008" class="edge">
<title>Node34&#45;&gt;Node8</title>
<g id="a_edge23_Node000034_Node000008"><a xlink:title=" ">
<path fill="none" stroke="#63b8ff" d="M294.08,-221.36C297.44,-220.9 300.77,-220.44 304,-220 402.48,-206.64 516.99,-191.95 585.64,-183.24"/>
<polygon fill="#63b8ff" stroke="#63b8ff" points="586.36,-186.68 595.84,-181.95 585.48,-179.73 586.36,-186.68"/>
</a>
</g>
</g>
<!-- Node34&#45;&gt;Node11 -->
<g id="edge21_Node000034_Node000011" class="edge">
<title>Node34&#45;&gt;Node11</title>
<g id="a_edge21_Node000034_Node000011"><a xlink:title=" ">
<path fill="none" stroke="#63b8ff" d="M268.21,-219.9C323.76,-200.19 464.69,-150.36 583,-110 680.04,-76.89 795.25,-38.93 850.02,-20.97"/>
<polygon fill="#63b8ff" stroke="#63b8ff" points="851.42,-24.19 859.83,-17.75 849.24,-17.54 851.42,-24.19"/>
</a>
</g>
</g>
<!-- Node34&#45;&gt;Node13 -->
<g id="edge22_Node000034_Node000013" class="edge">
<title>Node34&#45;&gt;Node13</title>
<g id="a_edge22_Node000034_Node000013"><a xlink:title=" ">
<path fill="none" stroke="#63b8ff" d="M244,-219.74C244,-194.31 244,-120.08 244,-84.69"/>
<polygon fill="#63b8ff" stroke="#63b8ff" points="247.5,-84.31 244,-74.31 240.5,-84.31 247.5,-84.31"/>
</a>
</g>
</g>
<!-- Node39&#45;&gt;Node8 -->
<g id="edge33_Node000039_Node000008" class="edge">
<title>Node39&#45;&gt;Node8</title>
<g id="a_edge33_Node000039_Node000008"><a xlink:title=" ">
<path fill="none" stroke="#63b8ff" d="M745.64,-384.7C735.61,-376.42 721.2,-363.2 712,-349 678.84,-297.8 659.14,-227.25 651.15,-194.11"/>
<polygon fill="#63b8ff" stroke="#63b8ff" points="654.49,-192.99 648.82,-184.04 647.67,-194.57 654.49,-192.99"/>
</a>
</g>
</g>
<!-- Node39&#45;&gt;Node11 -->
<g id="edge37_Node000039_Node000011" class="edge">
<title>Node39&#45;&gt;Node11</title>
<g id="a_edge37_Node000039_Node000011"><a xlink:title=" ">
<path fill="none" stroke="#63b8ff" d="M770.34,-384.9C809.27,-358.65 920,-275.21 920,-175.5 920,-175.5 920,-175.5 920,-118.5 920,-85.02 903.55,-48.84 892.3,-28.01"/>
<polygon fill="#63b8ff" stroke="#63b8ff" points="895.24,-26.1 887.28,-19.1 889.13,-29.53 895.24,-26.1"/>
</a>
</g>
</g>
<!-- Node39&#45;&gt;Node13 -->
<g id="edge32_Node000039_Node000013" class="edge">
<title>Node39&#45;&gt;Node13</title>
<g id="a_edge32_Node000039_Node000013"><a xlink:title=" ">
<path fill="none" stroke="#63b8ff" d="M752.69,-384.78C744.17,-366.73 726,-323.73 726,-285.5 726,-285.5 726,-285.5 726,-228.5 726,-171.16 723.17,-141.1 675,-110 612.05,-69.35 386.02,-65.02 288.88,-65.1"/>
<polygon fill="#63b8ff" stroke="#63b8ff" points="288.78,-61.6 278.79,-65.12 288.8,-68.6 288.78,-61.6"/>
</a>
</g>
</g>
<!-- Node39&#45;&gt;Node15 -->
<g id="edge36_Node000039_Node000015" class="edge">
<title>Node39&#45;&gt;Node15</title>
<g id="a_edge36_Node000039_Node000015"><a xlink:title=" ">
<path fill="none" stroke="#63b8ff" d="M758.52,-385C764.95,-346.01 785.81,-183.08 700,-110 644.37,-62.62 562.57,-33.94 515.05,-20.25"/>
<polygon fill="#63b8ff" stroke="#63b8ff" points="515.74,-16.81 505.17,-17.48 513.85,-23.55 515.74,-16.81"/>
</a>
</g>
</g>
<!-- Node39&#45;&gt;Node38 -->
<g id="edge34_Node000039_Node000038" class="edge">
<title>Node39&#45;&gt;Node38</title>
<g id="a_edge34_Node000039_Node000038"><a xlink:title=" ">
<path fill="none" stroke="#63b8ff" d="M736.11,-384.98C714.92,-376.34 681.87,-362.87 657.7,-353.02"/>
<polygon fill="#63b8ff" stroke="#63b8ff" points="658.85,-349.7 648.27,-349.17 656.21,-356.19 658.85,-349.7"/>
</a>
</g>
</g>
<!-- Node39&#45;&gt;Node19 -->
<g id="edge35_Node000039_Node000019" class="edge">
<title>Node39&#45;&gt;Node19</title>
<g id="a_edge35_Node000039_Node000019"><a xlink:title=" ">
<path fill="none" stroke="#63b8ff" d="M784.8,-384.98C815.05,-375.72 863.44,-360.89 895.95,-350.93"/>
<polygon fill="#63b8ff" stroke="#63b8ff" points="897.36,-354.16 905.9,-347.88 895.31,-347.47 897.36,-354.16"/>
</a>
</g>
</g>
<!-- Node42&#45;&gt;Node10 -->
<g id="edge51_Node000042_Node000010" class="edge">
<title>Node42&#45;&gt;Node10</title>
<g id="a_edge51_Node000042_Node000010"><a xlink:title=" ">
<path fill="none" stroke="#63b8ff" d="M1273.11,-494.91C1289.83,-487.63 1311.89,-475.71 1326,-459 1345.46,-435.95 1350,-425.67 1350,-395.5 1350,-395.5 1350,-395.5 1350,-228.5 1350,-174.42 1169.73,-138.31 1094.43,-125.59"/>
<polygon fill="#63b8ff" stroke="#63b8ff" points="1094.56,-122.06 1084.12,-123.88 1093.41,-128.97 1094.56,-122.06"/>
</a>
</g>
</g>
<!-- Node42&#45;&gt;Node32 -->
<g id="edge53_Node000042_Node000032" class="edge">
<title>Node42&#45;&gt;Node32</title>
<g id="a_edge53_Node000042_Node000032"><a xlink:title=" ">
<path fill="none" stroke="#63b8ff" d="M1262.49,-494.93C1272.87,-486.99 1286.88,-474.14 1293,-459 1305.33,-428.51 1311.08,-412.47 1293,-385 1202.82,-247.97 1091.51,-328.46 954,-239 907.68,-208.86 862.36,-161.48 840.14,-136.75"/>
<polygon fill="#63b8ff" stroke="#63b8ff" points="842.54,-134.17 833.29,-129.01 837.3,-138.82 842.54,-134.17"/>
</a>
</g>
</g>
<!-- Node43 -->
<g id="Node000043" class="node">
<title>Node43</title>
<g id="a_Node000043"><a xlink:href="ieee__float_8h.html" target="_top" xlink:title=" ">
<polygon fill="white" stroke="#666666" points="1284,-459 1210,-459 1210,-440 1284,-440 1284,-459"/>
<text text-anchor="middle" x="1247" y="-447" font-family="Helvetica,sans-Serif" font-size="10.00">ieee_float.h</text>
</a>
</g>
</g>
<!-- Node42&#45;&gt;Node43 -->
<g id="edge44_Node000042_Node000043" class="edge">
<title>Node42&#45;&gt;Node43</title>
<g id="a_edge44_Node000042_Node000043"><a xlink:title=" ">
<path fill="none" stroke="#63b8ff" d="M1249.5,-494.75C1249.11,-487.8 1248.55,-477.85 1248.05,-469.13"/>
<polygon fill="#63b8ff" stroke="#63b8ff" points="1251.55,-468.88 1247.49,-459.09 1244.56,-469.27 1251.55,-468.88"/>
</a>
</g>
</g>
<!-- Node23 -->
<g id="Node000023" class="node">
<title>Node23</title>
<g id="a_Node000023"><a xlink:title=" ">
<polygon fill="#e0e0e0" stroke="#999999" points="1192,-459 1160,-459 1160,-440 1192,-440 1192,-459"/>
<text text-anchor="middle" x="1176" y="-447" font-family="Helvetica,sans-Serif" font-size="10.00">list</text>
</a>
</g>
</g>
<!-- Node42&#45;&gt;Node23 -->
<g id="edge52_Node000042_Node000023" class="edge">
<title>Node42&#45;&gt;Node23</title>
<g id="a_edge52_Node000042_Node000023"><a xlink:title=" ">
<path fill="none" stroke="#63b8ff" d="M1238.11,-494.98C1226.85,-486.92 1209.71,-474.65 1196.29,-465.03"/>
<polygon fill="#63b8ff" stroke="#63b8ff" points="1198.27,-462.15 1188.11,-459.17 1194.2,-467.84 1198.27,-462.15"/>
</a>
</g>
</g>
<!-- Node43&#45;&gt;Node19 -->
<g id="edge45_Node000043_Node000019" class="edge">
<title>Node43&#45;&gt;Node19</title>
<g id="a_edge45_Node000043_Node000019"><a xlink:title=" ">
<path fill="none" stroke="#63b8ff" d="M1209.76,-440.44C1164.4,-430.44 1090.53,-413.56 1064,-404 1045.86,-397.46 1042.4,-393.31 1025,-385 1002.47,-374.24 976.82,-362.24 957.86,-353.41"/>
<polygon fill="#63b8ff" stroke="#63b8ff" points="959.15,-350.15 948.61,-349.11 956.2,-356.5 959.15,-350.15"/>
</a>
</g>
</g>
<!-- Node44 -->
<g id="Node000044" class="node">
<title>Node44</title>
<g id="a_Node000044"><a xlink:href="mp__arith_8h.html" target="_top" xlink:title=" ">
<polygon fill="white" stroke="#666666" points="1141.5,-404 1072.5,-404 1072.5,-385 1141.5,-385 1141.5,-404"/>
<text text-anchor="middle" x="1107" y="-392" font-family="Helvetica,sans-Serif" font-size="10.00">mp_arith.h</text>
</a>
</g>
</g>
<!-- Node43&#45;&gt;Node44 -->
<g id="edge46_Node000043_Node000044" class="edge">
<title>Node43&#45;&gt;Node44</title>
<g id="a_edge46_Node000043_Node000044"><a xlink:title=" ">
<path fill="none" stroke="#63b8ff" d="M1224.51,-439.98C1201.48,-431.27 1165.46,-417.63 1139.37,-407.75"/>
<polygon fill="#63b8ff" stroke="#63b8ff" points="1140.49,-404.44 1129.9,-404.17 1138.02,-410.98 1140.49,-404.44"/>
</a>
</g>
</g>
<!-- Node46 -->
<g id="Node000046" class="node">
<title>Node46</title>
<g id="a_Node000046"><a xlink:href="format__spec_8h.html" target="_top" xlink:title=" ">
<polygon fill="white" stroke="#666666" points="1284,-404 1198,-404 1198,-385 1284,-385 1284,-404"/>
<text text-anchor="middle" x="1241" y="-392" font-family="Helvetica,sans-Serif" font-size="10.00">format_spec.h</text>
</a>
</g>
</g>
<!-- Node43&#45;&gt;Node46 -->
<g id="edge50_Node000043_Node000046" class="edge">
<title>Node43&#45;&gt;Node46</title>
<g id="a_edge50_Node000043_Node000046"><a xlink:title=" ">
<path fill="none" stroke="#63b8ff" d="M1246.01,-439.75C1245.22,-432.8 1244.1,-422.85 1243.11,-414.13"/>
<polygon fill="#63b8ff" stroke="#63b8ff" points="1246.58,-413.63 1241.97,-404.09 1239.62,-414.42 1246.58,-413.63"/>
</a>
</g>
</g>
<!-- Node44&#45;&gt;Node11 -->
<g id="edge48_Node000044_Node000011" class="edge">
<title>Node44&#45;&gt;Node11</title>
<g id="a_edge48_Node000044_Node000011"><a xlink:title=" ">
<path fill="none" stroke="#63b8ff" d="M1103.85,-384.65C1098.98,-371.76 1088.74,-347.47 1075,-330 1032.8,-276.34 958,-298.76 958,-230.5 958,-230.5 958,-230.5 958,-118.5 958,-79.47 924.39,-44.58 901.87,-25.6"/>
<polygon fill="#63b8ff" stroke="#63b8ff" points="903.85,-22.7 893.88,-19.12 899.44,-28.14 903.85,-22.7"/>
</a>
</g>
</g>
<!-- Node44&#45;&gt;Node19 -->
<g id="edge47_Node000044_Node000019" class="edge">
<title>Node44&#45;&gt;Node19</title>
<g id="a_edge47_Node000044_Node000019"><a xlink:title=" ">
<path fill="none" stroke="#63b8ff" d="M1078.56,-384.98C1047.3,-375.62 997.11,-360.59 963.84,-350.63"/>
<polygon fill="#63b8ff" stroke="#63b8ff" points="964.69,-347.23 954.1,-347.72 962.68,-353.94 964.69,-347.23"/>
</a>
</g>
</g>
<!-- Node45 -->
<g id="Node000045" class="node">
<title>Node45</title>
<g id="a_Node000045"><a xlink:title=" ">
<polygon fill="#e0e0e0" stroke="#999999" points="1066,-349 972,-349 972,-330 1066,-330 1066,-349"/>
<text text-anchor="middle" x="1019" y="-337" font-family="Helvetica,sans-Serif" font-size="10.00">big&#45;int/bigint.hh</text>
</a>
</g>
</g>
<!-- Node44&#45;&gt;Node45 -->
<g id="edge49_Node000044_Node000045" class="edge">
<title>Node44&#45;&gt;Node45</title>
<g id="a_edge49_Node000044_Node000045"><a xlink:title=" ">
<path fill="none" stroke="#63b8ff" d="M1092.86,-384.98C1079.21,-376.77 1058.31,-364.18 1042.22,-354.49"/>
<polygon fill="#63b8ff" stroke="#63b8ff" points="1043.77,-351.33 1033.4,-349.17 1040.16,-357.33 1043.77,-351.33"/>
</a>
</g>
</g>
<!-- Node47&#45;&gt;Node23 -->
<g id="edge71_Node000047_Node000023" class="edge">
<title>Node47&#45;&gt;Node23</title>
<g id="a_edge71_Node000047_Node000023"><a xlink:title=" ">
<path fill="none" stroke="#63b8ff" d="M1076.5,-659.73C1090.84,-636.59 1130.01,-571.71 1155,-514 1161.35,-499.33 1166.95,-482.07 1170.76,-469.26"/>
<polygon fill="#63b8ff" stroke="#63b8ff" points="1174.22,-469.89 1173.63,-459.31 1167.49,-467.95 1174.22,-469.89"/>
</a>
</g>
</g>
<!-- Node48 -->
<g id="Node000048" class="node">
<title>Node48</title>
<g id="a_Node000048"><a xlink:href="ansi__c__declaration_8h.html" target="_top" xlink:title="ANSI&#45;CC Language Type Checking.">
<polygon fill="white" stroke="#666666" points="572,-624 456,-624 456,-605 572,-605 572,-624"/>
<text text-anchor="middle" x="514" y="-612" font-family="Helvetica,sans-Serif" font-size="10.00">ansi_c_declaration.h</text>
</a>
</g>
</g>
<!-- Node47&#45;&gt;Node48 -->
<g id="edge55_Node000047_Node000048" class="edge">
<title>Node47&#45;&gt;Node48</title>
<g id="a_edge55_Node000047_Node000048"><a xlink:title=" ">
<path fill="none" stroke="#63b8ff" d="M1014.27,-663.1C911.15,-653.29 693.41,-632.57 582.31,-622"/>
<polygon fill="#63b8ff" stroke="#63b8ff" points="582.52,-618.5 572.23,-621.04 581.85,-625.47 582.52,-618.5"/>
</a>
</g>
</g>
<!-- Node49 -->
<g id="Node000049" class="node">
<title>Node49</title>
<g id="a_Node000049"><a xlink:href="std__expr_8h.html" target="_top" xlink:title="API to expression classes.">
<polygon fill="white" stroke="#666666" points="219,-569 133,-569 133,-550 219,-550 219,-569"/>
<text text-anchor="middle" x="176" y="-557" font-family="Helvetica,sans-Serif" font-size="10.00">util/std_expr.h</text>
</a>
</g>
</g>
<!-- Node48&#45;&gt;Node49 -->
<g id="edge56_Node000048_Node000049" class="edge">
<title>Node48&#45;&gt;Node49</title>
<g id="a_edge56_Node000048_Node000049"><a xlink:title=" ">
<path fill="none" stroke="#63b8ff" d="M459.69,-604.98C396.32,-595.05 292.21,-578.72 229.28,-568.85"/>
<polygon fill="#63b8ff" stroke="#63b8ff" points="229.59,-565.36 219.17,-567.27 228.51,-572.28 229.59,-565.36"/>
</a>
</g>
</g>
<!-- Node49&#45;&gt;Node13 -->
<g id="edge63_Node000049_Node000013" class="edge">
<title>Node49&#45;&gt;Node13</title>
<g id="a_edge63_Node000049_Node000013"><a xlink:title=" ">
<path fill="none" stroke="#63b8ff" d="M164.06,-549.83C143.36,-534.15 100.95,-498.96 79,-459 40.85,-389.55 38,-364.73 38,-285.5 38,-285.5 38,-285.5 38,-228.5 38,-164.95 67.73,-148.87 118,-110 141.74,-91.65 173.65,-80.48 199.42,-73.92"/>
<polygon fill="#63b8ff" stroke="#63b8ff" points="200.41,-77.28 209.32,-71.55 198.78,-70.48 200.41,-77.28"/>
</a>
</g>
</g>
<!-- Node50 -->
<g id="Node000050" class="node">
<title>Node50</title>
<g id="a_Node000050"><a xlink:href="expr__cast_8h.html" target="_top" xlink:title="Templated functions to cast to specific exprt&#45;derived classes.">
<polygon fill="white" stroke="#666666" points="161.5,-459 88.5,-459 88.5,-440 161.5,-440 161.5,-459"/>
<text text-anchor="middle" x="125" y="-447" font-family="Helvetica,sans-Serif" font-size="10.00">expr_cast.h</text>
</a>
</g>
</g>
<!-- Node49&#45;&gt;Node50 -->
<g id="edge57_Node000049_Node000050" class="edge">
<title>Node49&#45;&gt;Node50</title>
<g id="a_edge57_Node000049_Node000050"><a xlink:title=" ">
<path fill="none" stroke="#63b8ff" d="M171.83,-549.66C163.45,-531.93 144.47,-491.73 133.41,-468.32"/>
<polygon fill="#63b8ff" stroke="#63b8ff" points="136.52,-466.71 129.09,-459.16 130.19,-469.7 136.52,-466.71"/>
</a>
</g>
</g>
<!-- Node52 -->
<g id="Node000052" class="node">
<title>Node52</title>
<g id="a_Node000052"><a xlink:href="std__types_8h.html" target="_top" xlink:title="Pre&#45;defined types.">
<polygon fill="white" stroke="#666666" points="264.5,-514 191.5,-514 191.5,-495 264.5,-495 264.5,-514"/>
<text text-anchor="middle" x="228" y="-502" font-family="Helvetica,sans-Serif" font-size="10.00">std_types.h</text>
</a>
</g>
</g>
<!-- Node49&#45;&gt;Node52 -->
<g id="edge64_Node000049_Node000052" class="edge">
<title>Node49&#45;&gt;Node52</title>
<g id="a_edge64_Node000049_Node000052"><a xlink:title=" ">
<path fill="none" stroke="#63b8ff" d="M184.59,-549.75C192.16,-542.03 203.38,-530.6 212.51,-521.28"/>
<polygon fill="#63b8ff" stroke="#63b8ff" points="215.07,-523.68 219.57,-514.09 210.07,-518.78 215.07,-523.68"/>
</a>
</g>
</g>
<!-- Node50&#45;&gt;Node5 -->
<g id="edge62_Node000050_Node000005" class="edge">
<title>Node50&#45;&gt;Node5</title>
<g id="a_edge62_Node000050_Node000005"><a xlink:title=" ">
<path fill="none" stroke="#63b8ff" d="M161.57,-442.98C229.9,-432.66 376.02,-410.6 442.2,-400.6"/>
<polygon fill="#63b8ff" stroke="#63b8ff" points="442.74,-404.06 452.11,-399.11 441.7,-397.14 442.74,-404.06"/>
</a>
</g>
</g>
<!-- Node50&#45;&gt;Node13 -->
<g id="edge61_Node000050_Node000013" class="edge">
<title>Node50&#45;&gt;Node13</title>
<g id="a_edge61_Node000050_Node000013"><a xlink:title=" ">
<path fill="none" stroke="#63b8ff" d="M117.98,-439.87C104.43,-422.3 76,-380.65 76,-340.5 76,-340.5 76,-340.5 76,-283.5 76,-201.61 81.69,-169.45 138,-110 154.35,-92.74 178.44,-81.9 199.52,-75.26"/>
<polygon fill="#63b8ff" stroke="#63b8ff" points="200.66,-78.57 209.27,-72.4 198.69,-71.85 200.66,-78.57"/>
</a>
</g>
</g>
<!-- Node50&#45;&gt;Node16 -->
<g id="edge59_Node000050_Node000016" class="edge">
<title>Node50&#45;&gt;Node16</title>
<g id="a_edge59_Node000050_Node000016"><a xlink:title=" ">
<path fill="none" stroke="#63b8ff" d="M111.15,-439.74C78.6,-417.97 0,-357.89 0,-285.5 0,-285.5 0,-285.5 0,-118.5 0,-85.02 16.45,-48.84 27.7,-28.01"/>
<polygon fill="#63b8ff" stroke="#63b8ff" points="30.87,-29.53 32.72,-19.1 24.76,-26.1 30.87,-29.53"/>
</a>
</g>
</g>
<!-- Node50&#45;&gt;Node38 -->
<g id="edge60_Node000050_Node000038" class="edge">
<title>Node50&#45;&gt;Node38</title>
<g id="a_edge60_Node000050_Node000038"><a xlink:title=" ">
<path fill="none" stroke="#63b8ff" d="M161.68,-448.79C231.13,-448.36 385.91,-442.69 509,-404 545.48,-392.54 583.75,-369.62 606.48,-354.68"/>
<polygon fill="#63b8ff" stroke="#63b8ff" points="608.59,-357.48 614.95,-349.01 604.69,-351.67 608.59,-357.48"/>
</a>
</g>
</g>
<!-- Node51 -->
<g id="Node000051" class="node">
<title>Node51</title>
<g id="a_Node000051"><a xlink:title=" ">
<polygon fill="#e0e0e0" stroke="#999999" points="161.5,-404 104.5,-404 104.5,-385 161.5,-385 161.5,-404"/>
<text text-anchor="middle" x="133" y="-392" font-family="Helvetica,sans-Serif" font-size="10.00">typeinfo</text>
</a>
</g>
</g>
<!-- Node50&#45;&gt;Node51 -->
<g id="edge58_Node000050_Node000051" class="edge">
<title>Node50&#45;&gt;Node51</title>
<g id="a_edge58_Node000050_Node000051"><a xlink:title=" ">
<path fill="none" stroke="#63b8ff" d="M126.32,-439.75C127.37,-432.8 128.87,-422.85 130.19,-414.13"/>
<polygon fill="#63b8ff" stroke="#63b8ff" points="133.67,-414.5 131.7,-404.09 126.75,-413.45 133.67,-414.5"/>
</a>
</g>
</g>
<!-- Node52&#45;&gt;Node5 -->
<g id="edge65_Node000052_Node000005" class="edge">
<title>Node52&#45;&gt;Node5</title>
<g id="a_edge65_Node000052_Node000005"><a xlink:title=" ">
<path fill="none" stroke="#63b8ff" d="M247.88,-494.84C291.52,-475.84 395.89,-430.39 446.91,-408.17"/>
<polygon fill="#63b8ff" stroke="#63b8ff" points="448.6,-411.25 456.37,-404.05 445.81,-404.83 448.6,-411.25"/>
</a>
</g>
</g>
<!-- Node52&#45;&gt;Node13 -->
<g id="edge67_Node000052_Node000013" class="edge">
<title>Node52&#45;&gt;Node13</title>
<g id="a_edge67_Node000052_Node000013"><a xlink:title=" ">
<path fill="none" stroke="#63b8ff" d="M222.53,-494.75C205.11,-465.98 152,-371.27 152,-285.5 152,-285.5 152,-285.5 152,-173.5 152,-131.45 192.91,-97.46 220.17,-79.48"/>
<polygon fill="#63b8ff" stroke="#63b8ff" points="222.23,-82.31 228.81,-74 218.49,-76.4 222.23,-82.31"/>
</a>
</g>
</g>
<!-- Node52&#45;&gt;Node33 -->
<g id="edge69_Node000052_Node000033" class="edge">
<title>Node52&#45;&gt;Node33</title>
<g id="a_edge69_Node000052_Node000033"><a xlink:title=" ">
<path fill="none" stroke="#63b8ff" d="M226.14,-494.81C219.73,-464.15 199.47,-361.12 210,-330 213.56,-319.47 220.72,-309.48 227.55,-301.63"/>
<polygon fill="#63b8ff" stroke="#63b8ff" points="230.13,-304.01 234.39,-294.31 225.01,-299.23 230.13,-304.01"/>
</a>
</g>
</g>
<!-- Node52&#45;&gt;Node44 -->
<g id="edge68_Node000052_Node000044" class="edge">
<title>Node52&#45;&gt;Node44</title>
<g id="a_edge68_Node000052_Node000044"><a xlink:title=" ">
<path fill="none" stroke="#63b8ff" d="M264.65,-503.71C364.82,-503.72 651.32,-499.86 885,-459 920.71,-452.76 1016.75,-423.65 1070.07,-407.09"/>
<polygon fill="#63b8ff" stroke="#63b8ff" points="1071.31,-410.37 1079.81,-404.06 1069.23,-403.69 1071.31,-410.37"/>
</a>
</g>
</g>
<!-- Node52&#45;&gt;Node50 -->
<g id="edge66_Node000052_Node000050" class="edge">
<title>Node52&#45;&gt;Node50</title>
<g id="a_edge66_Node000052_Node000050"><a xlink:title=" ">
<path fill="none" stroke="#63b8ff" d="M211.45,-494.98C195.11,-486.57 169.87,-473.59 150.87,-463.81"/>
<polygon fill="#63b8ff" stroke="#63b8ff" points="152.34,-460.63 141.85,-459.17 149.14,-466.86 152.34,-460.63"/>
</a>
</g>
</g>
<!-- Node24 -->
<g id="Node000024" class="node">
<title>Node24</title>
<g id="a_Node000024"><a xlink:title=" ">
<polygon fill="#e0e0e0" stroke="#999999" points="1069.5,-459 976.5,-459 976.5,-440 1069.5,-440 1069.5,-459"/>
<text text-anchor="middle" x="1023" y="-447" font-family="Helvetica,sans-Serif" font-size="10.00">unordered_map</text>
</a>
</g>
</g>
<!-- Node52&#45;&gt;Node24 -->
<g id="edge70_Node000052_Node000024" class="edge">
<title>Node52&#45;&gt;Node24</title>
<g id="a_edge70_Node000052_Node000024"><a xlink:title=" ">
<path fill="none" stroke="#63b8ff" d="M264.71,-501.87C370.65,-497.03 685.97,-481.66 947,-459 953.25,-458.46 959.78,-457.83 966.28,-457.16"/>
<polygon fill="#63b8ff" stroke="#63b8ff" points="966.84,-460.62 976.41,-456.08 966.1,-453.66 966.84,-460.62"/>
</a>
</g>
</g>
<!-- Node53&#45;&gt;Node10 -->
<g id="edge73_Node000053_Node000010" class="edge">
<title>Node53&#45;&gt;Node10</title>
<g id="a_edge73_Node000053_Node000010"><a xlink:title=" ">
<path fill="none" stroke="#63b8ff" d="M1107.62,-494.86C1124.89,-471.42 1170,-404.11 1170,-340.5 1170,-340.5 1170,-340.5 1170,-228.5 1170,-183.37 1122.26,-150.51 1090.26,-133.55"/>
<polygon fill="#63b8ff" stroke="#63b8ff" points="1091.81,-130.41 1081.31,-129 1088.64,-136.65 1091.81,-130.41"/>
</a>
</g>
</g>
<!-- Node53&#45;&gt;Node24 -->
<g id="edge74_Node000053_Node000024" class="edge">
<title>Node53&#45;&gt;Node24</title>
<g id="a_edge74_Node000053_Node000024"><a xlink:title=" ">
<path fill="none" stroke="#63b8ff" d="M1088.47,-494.98C1076.6,-486.92 1058.54,-474.65 1044.39,-465.03"/>
<polygon fill="#63b8ff" stroke="#63b8ff" points="1046,-461.9 1035.76,-459.17 1042.06,-467.69 1046,-461.9"/>
</a>
</g>
</g>
<!-- Node54&#45;&gt;Node10 -->
<g id="edge76_Node000054_Node000010" class="edge">
<title>Node54&#45;&gt;Node10</title>
<g id="a_edge76_Node000054_Node000010"><a xlink:title=" ">
<path fill="none" stroke="#63b8ff" d="M1361.31,-604.78C1369.83,-586.73 1388,-543.73 1388,-505.5 1388,-505.5 1388,-505.5 1388,-228.5 1388,-167.03 1176.47,-134.51 1094.2,-124.19"/>
<polygon fill="#63b8ff" stroke="#63b8ff" points="1094.5,-120.7 1084.15,-122.96 1093.65,-127.65 1094.5,-120.7"/>
</a>
</g>
</g>
</g>
</svg>
