<?xml version="1.0" encoding="UTF-8" standalone="no"?>
<!DOCTYPE svg PUBLIC "-//W3C//DTD SVG 1.1//EN"
 "http://www.w3.org/Graphics/SVG/1.1/DTD/svg11.dtd">
<!-- Generated by graphviz version 2.43.0 (0)
 -->
<!-- Title: /home/runner/work/cbmc/cbmc/src/ansi&#45;c/ansi_c_parser.h Pages: 1 -->
<svg width="1341pt" height="764pt"
 viewBox="0.00 0.00 1341.17 764.00" xmlns="http://www.w3.org/2000/svg" xmlns:xlink="http://www.w3.org/1999/xlink">
<g id="graph0" class="graph" transform="scale(1 1) rotate(0) translate(4 760)">
<title>/home/runner/work/cbmc/cbmc/src/ansi&#45;c/ansi_c_parser.h</title>
<!-- Node1 -->
<g id="Node000001" class="node">
<title>Node1</title>
<g id="a_Node000001"><a xlink:title=" ">
<polygon fill="#999999" stroke="#666666" points="608,-756 470,-756 470,-715 608,-715 608,-756"/>
<text text-anchor="start" x="478" y="-744" font-family="Helvetica,sans-Serif" font-size="10.00">/home/runner/work/cbmc</text>
<text text-anchor="start" x="478" y="-733" font-family="Helvetica,sans-Serif" font-size="10.00">/cbmc/src/ansi&#45;c/ansi</text>
<text text-anchor="middle" x="539" y="-722" font-family="Helvetica,sans-Serif" font-size="10.00">_c_parser.h</text>
</a>
</g>
</g>
<!-- Node2 -->
<g id="Node000002" class="node">
<title>Node2</title>
<g id="a_Node000002"><a xlink:title=" ">
<polygon fill="#e0e0e0" stroke="#999999" points="449,-679 411,-679 411,-660 449,-660 449,-679"/>
<text text-anchor="middle" x="430" y="-667" font-family="Helvetica,sans-Serif" font-size="10.00">map</text>
</a>
</g>
</g>
<!-- Node1&#45;&gt;Node2 -->
<g id="edge1_Node000001_Node000002" class="edge">
<title>Node1&#45;&gt;Node2</title>
<g id="a_edge1_Node000001_Node000002"><a xlink:title=" ">
<path fill="none" stroke="#63b8ff" d="M505.7,-714.95C488.8,-705.03 468.68,-693.21 453.43,-684.25"/>
<polygon fill="#63b8ff" stroke="#63b8ff" points="455.03,-681.14 444.63,-679.09 451.48,-687.17 455.03,-681.14"/>
</a>
</g>
</g>
<!-- Node3 -->
<g id="Node000003" class="node">
<title>Node3</title>
<g id="a_Node000003"><a xlink:href="parser_8h.html" target="_top" xlink:title="Parser utilities.">
<polygon fill="white" stroke="#666666" points="274,-459 200,-459 200,-440 274,-440 274,-459"/>
<text text-anchor="middle" x="237" y="-447" font-family="Helvetica,sans-Serif" font-size="10.00">util/parser.h</text>
</a>
</g>
</g>
<!-- Node1&#45;&gt;Node3 -->
<g id="edge2_Node000001_Node000003" class="edge">
<title>Node1&#45;&gt;Node3</title>
<g id="a_edge2_Node000001_Node000003"><a xlink:title=" ">
<path fill="none" stroke="#63b8ff" d="M521.07,-714.65C502.76,-692.26 477,-653.94 477,-615.5 477,-615.5 477,-615.5 477,-558.5 477,-474.95 354.54,-455.65 284.57,-451.45"/>
<polygon fill="#63b8ff" stroke="#63b8ff" points="284.4,-447.94 274.24,-450.91 284.04,-454.93 284.4,-447.94"/>
</a>
</g>
</g>
<!-- Node41 -->
<g id="Node000041" class="node">
<title>Node41</title>
<g id="a_Node000041"><a xlink:href="config_8h.html" target="_top" xlink:title=" ">
<polygon fill="white" stroke="#666666" points="579,-514 505,-514 505,-495 579,-495 579,-514"/>
<text text-anchor="middle" x="542" y="-502" font-family="Helvetica,sans-Serif" font-size="10.00">util/config.h</text>
</a>
</g>
</g>
<!-- Node1&#45;&gt;Node41 -->
<g id="edge45_Node000001_Node000041" class="edge">
<title>Node1&#45;&gt;Node41</title>
<g id="a_edge45_Node000001_Node000041"><a xlink:title=" ">
<path fill="none" stroke="#63b8ff" d="M539.26,-714.98C539.82,-671.58 541.19,-567.56 541.75,-524.58"/>
<polygon fill="#63b8ff" stroke="#63b8ff" points="545.25,-524.44 541.88,-514.39 538.25,-524.35 545.25,-524.44"/>
</a>
</g>
</g>
<!-- Node46 -->
<g id="Node000046" class="node">
<title>Node46</title>
<g id="a_Node000046"><a xlink:href="ansi__c__parse__tree_8h.html" target="_top" xlink:title=" ">
<polygon fill="white" stroke="#666666" points="718.5,-679 605.5,-679 605.5,-660 718.5,-660 718.5,-679"/>
<text text-anchor="middle" x="662" y="-667" font-family="Helvetica,sans-Serif" font-size="10.00">ansi_c_parse_tree.h</text>
</a>
</g>
</g>
<!-- Node1&#45;&gt;Node46 -->
<g id="edge56_Node000001_Node000046" class="edge">
<title>Node1&#45;&gt;Node46</title>
<g id="a_edge56_Node000001_Node000046"><a xlink:title=" ">
<path fill="none" stroke="#63b8ff" d="M576.57,-714.95C596.01,-704.84 619.21,-692.76 636.53,-683.75"/>
<polygon fill="#63b8ff" stroke="#63b8ff" points="638.23,-686.81 645.49,-679.09 635,-680.6 638.23,-686.81"/>
</a>
</g>
</g>
<!-- Node52 -->
<g id="Node000052" class="node">
<title>Node52</title>
<g id="a_Node000052"><a xlink:href="ansi__c__scope_8h.html" target="_top" xlink:title=" ">
<polygon fill="white" stroke="#666666" points="730,-514 640,-514 640,-495 730,-495 730,-514"/>
<text text-anchor="middle" x="685" y="-502" font-family="Helvetica,sans-Serif" font-size="10.00">ansi_c_scope.h</text>
</a>
</g>
</g>
<!-- Node1&#45;&gt;Node52 -->
<g id="edge74_Node000001_Node000052" class="edge">
<title>Node1&#45;&gt;Node52</title>
<g id="a_edge74_Node000001_Node000052"><a xlink:title=" ">
<path fill="none" stroke="#63b8ff" d="M551.45,-714.98C579.47,-671.02 647.13,-564.89 673.87,-522.96"/>
<polygon fill="#63b8ff" stroke="#63b8ff" points="676.91,-524.71 679.33,-514.39 671,-520.94 676.91,-524.71"/>
</a>
</g>
</g>
<!-- Node4 -->
<g id="Node000004" class="node">
<title>Node4</title>
<g id="a_Node000004"><a xlink:href="expr_8h.html" target="_top" xlink:title=" ">
<polygon fill="white" stroke="#666666" points="923.5,-404 876.5,-404 876.5,-385 923.5,-385 923.5,-404"/>
<text text-anchor="middle" x="900" y="-392" font-family="Helvetica,sans-Serif" font-size="10.00">expr.h</text>
</a>
</g>
</g>
<!-- Node3&#45;&gt;Node4 -->
<g id="edge3_Node000003_Node000004" class="edge">
<title>Node3&#45;&gt;Node4</title>
<g id="a_edge3_Node000003_Node000004"><a xlink:title=" ">
<path fill="none" stroke="#63b8ff" d="M274.07,-445.54C391.36,-436.16 753.33,-407.22 866.1,-398.21"/>
<polygon fill="#63b8ff" stroke="#63b8ff" points="866.53,-401.69 876.22,-397.4 865.97,-394.71 866.53,-401.69"/>
</a>
</g>
</g>
<!-- Node10 -->
<g id="Node000010" class="node">
<title>Node10</title>
<g id="a_Node000010"><a xlink:title=" ">
<polygon fill="#e0e0e0" stroke="#999999" points="543,-19 499,-19 499,0 543,0 543,-19"/>
<text text-anchor="middle" x="521" y="-7" font-family="Helvetica,sans-Serif" font-size="10.00">string</text>
</a>
</g>
</g>
<!-- Node3&#45;&gt;Node10 -->
<g id="edge43_Node000003_Node000010" class="edge">
<title>Node3&#45;&gt;Node10</title>
<g id="a_edge43_Node000003_Node000010"><a xlink:title=" ">
<path fill="none" stroke="#63b8ff" d="M199.97,-447.9C133.31,-444.66 0,-427.32 0,-340.5 0,-340.5 0,-340.5 0,-118.5 0,-68.33 375.19,-25.54 488.79,-13.73"/>
<polygon fill="#63b8ff" stroke="#63b8ff" points="489.36,-17.19 498.95,-12.68 488.64,-10.22 489.36,-17.19"/>
</a>
</g>
</g>
<!-- Node11 -->
<g id="Node000011" class="node">
<title>Node11</title>
<g id="a_Node000011"><a xlink:title=" ">
<polygon fill="#e0e0e0" stroke="#999999" points="480.5,-74 433.5,-74 433.5,-55 480.5,-55 480.5,-74"/>
<text text-anchor="middle" x="457" y="-62" font-family="Helvetica,sans-Serif" font-size="10.00">vector</text>
</a>
</g>
</g>
<!-- Node3&#45;&gt;Node11 -->
<g id="edge44_Node000003_Node000011" class="edge">
<title>Node3&#45;&gt;Node11</title>
<g id="a_edge44_Node000003_Node000011"><a xlink:title=" ">
<path fill="none" stroke="#63b8ff" d="M199.98,-446.61C151.6,-442.4 75.23,-428.82 95,-385 166.28,-227.01 358.58,-115.8 429.9,-78.87"/>
<polygon fill="#63b8ff" stroke="#63b8ff" points="431.82,-81.82 439.14,-74.16 428.64,-75.59 431.82,-81.82"/>
</a>
</g>
</g>
<!-- Node38 -->
<g id="Node000038" class="node">
<title>Node38</title>
<g id="a_Node000038"><a xlink:href="src_2util_2message_8h.html" target="_top" xlink:title=" ">
<polygon fill="white" stroke="#666666" points="398,-404 328,-404 328,-385 398,-385 398,-404"/>
<text text-anchor="middle" x="363" y="-392" font-family="Helvetica,sans-Serif" font-size="10.00">message.h</text>
</a>
</g>
</g>
<!-- Node3&#45;&gt;Node38 -->
<g id="edge33_Node000003_Node000038" class="edge">
<title>Node3&#45;&gt;Node38</title>
<g id="a_edge33_Node000003_Node000038"><a xlink:title=" ">
<path fill="none" stroke="#63b8ff" d="M257.24,-439.98C277.7,-431.38 309.53,-417.99 332.93,-408.15"/>
<polygon fill="#63b8ff" stroke="#63b8ff" points="334.53,-411.27 342.39,-404.17 331.81,-404.82 334.53,-411.27"/>
</a>
</g>
</g>
<!-- Node18 -->
<g id="Node000018" class="node">
<title>Node18</title>
<g id="a_Node000018"><a xlink:title=" ">
<polygon fill="#e0e0e0" stroke="#999999" points="286,-349 238,-349 238,-330 286,-330 286,-349"/>
<text text-anchor="middle" x="262" y="-337" font-family="Helvetica,sans-Serif" font-size="10.00">iosfwd</text>
</a>
</g>
</g>
<!-- Node3&#45;&gt;Node18 -->
<g id="edge41_Node000003_Node000018" class="edge">
<title>Node3&#45;&gt;Node18</title>
<g id="a_edge41_Node000003_Node000018"><a xlink:title=" ">
<path fill="none" stroke="#63b8ff" d="M239.05,-439.66C243.11,-422.09 252.29,-382.45 257.73,-358.95"/>
<polygon fill="#63b8ff" stroke="#63b8ff" points="261.15,-359.69 260,-349.16 254.33,-358.11 261.15,-359.69"/>
</a>
</g>
</g>
<!-- Node39 -->
<g id="Node000039" class="node">
<title>Node39</title>
<g id="a_Node000039"><a xlink:title=" ">
<polygon fill="#e0e0e0" stroke="#999999" points="172,-404 104,-404 104,-385 172,-385 172,-404"/>
<text text-anchor="middle" x="138" y="-392" font-family="Helvetica,sans-Serif" font-size="10.00">filesystem</text>
</a>
</g>
</g>
<!-- Node3&#45;&gt;Node39 -->
<g id="edge40_Node000003_Node000039" class="edge">
<title>Node3&#45;&gt;Node39</title>
<g id="a_edge40_Node000003_Node000039"><a xlink:title=" ">
<path fill="none" stroke="#63b8ff" d="M221.09,-439.98C205.45,-431.61 181.34,-418.7 163.12,-408.95"/>
<polygon fill="#63b8ff" stroke="#63b8ff" points="164.66,-405.8 154.2,-404.17 161.36,-411.98 164.66,-405.8"/>
</a>
</g>
</g>
<!-- Node40 -->
<g id="Node000040" class="node">
<title>Node40</title>
<g id="a_Node000040"><a xlink:title=" ">
<polygon fill="#e0e0e0" stroke="#999999" points="234,-404 190,-404 190,-385 234,-385 234,-404"/>
<text text-anchor="middle" x="212" y="-392" font-family="Helvetica,sans-Serif" font-size="10.00">limits</text>
</a>
</g>
</g>
<!-- Node3&#45;&gt;Node40 -->
<g id="edge42_Node000003_Node000040" class="edge">
<title>Node3&#45;&gt;Node40</title>
<g id="a_edge42_Node000003_Node000040"><a xlink:title=" ">
<path fill="none" stroke="#63b8ff" d="M232.87,-439.75C229.49,-432.57 224.58,-422.18 220.38,-413.27"/>
<polygon fill="#63b8ff" stroke="#63b8ff" points="223.48,-411.64 216.05,-404.09 217.15,-414.63 223.48,-411.64"/>
</a>
</g>
</g>
<!-- Node5 -->
<g id="Node000005" class="node">
<title>Node5</title>
<g id="a_Node000005"><a xlink:href="as__const_8h.html" target="_top" xlink:title=" ">
<polygon fill="white" stroke="#666666" points="950,-19 882,-19 882,0 950,0 950,-19"/>
<text text-anchor="middle" x="916" y="-7" font-family="Helvetica,sans-Serif" font-size="10.00">as_const.h</text>
</a>
</g>
</g>
<!-- Node4&#45;&gt;Node5 -->
<g id="edge4_Node000004_Node000005" class="edge">
<title>Node4&#45;&gt;Node5</title>
<g id="a_edge4_Node000004_Node000005"><a xlink:title=" ">
<path fill="none" stroke="#63b8ff" d="M923.55,-391.05C968.46,-385.89 1063.86,-372.39 1086,-349 1120.16,-312.91 1101.54,-288.49 1106,-239 1115.22,-136.72 995.24,-55.35 941.4,-24.21"/>
<polygon fill="#63b8ff" stroke="#63b8ff" points="942.88,-21.03 932.45,-19.15 939.43,-27.12 942.88,-21.03"/>
</a>
</g>
</g>
<!-- Node6 -->
<g id="Node000006" class="node">
<title>Node6</title>
<g id="a_Node000006"><a xlink:href="type_8h.html" target="_top" xlink:title="Defines typet, type_with_subtypet and type_with_subtypest.">
<polygon fill="white" stroke="#666666" points="929.5,-349 882.5,-349 882.5,-330 929.5,-330 929.5,-349"/>
<text text-anchor="middle" x="906" y="-337" font-family="Helvetica,sans-Serif" font-size="10.00">type.h</text>
</a>
</g>
</g>
<!-- Node4&#45;&gt;Node6 -->
<g id="edge5_Node000004_Node000006" class="edge">
<title>Node4&#45;&gt;Node6</title>
<g id="a_edge5_Node000004_Node000006"><a xlink:title=" ">
<path fill="none" stroke="#63b8ff" d="M900.99,-384.75C901.78,-377.8 902.9,-367.85 903.89,-359.13"/>
<polygon fill="#63b8ff" stroke="#63b8ff" points="907.38,-359.42 905.03,-349.09 900.42,-358.63 907.38,-359.42"/>
</a>
</g>
</g>
<!-- Node34 -->
<g id="Node000034" class="node">
<title>Node34</title>
<g id="a_Node000034"><a xlink:href="validation__mode_8h.html" target="_top" xlink:title=" ">
<polygon fill="white" stroke="#666666" points="958.5,-239 851.5,-239 851.5,-220 958.5,-220 958.5,-239"/>
<text text-anchor="middle" x="905" y="-227" font-family="Helvetica,sans-Serif" font-size="10.00">validation_mode.h</text>
</a>
</g>
</g>
<!-- Node4&#45;&gt;Node34 -->
<g id="edge31_Node000004_Node000034" class="edge">
<title>Node4&#45;&gt;Node34</title>
<g id="a_edge31_Node000004_Node000034"><a xlink:title=" ">
<path fill="none" stroke="#63b8ff" d="M876.33,-394.24C842.49,-393.86 781.17,-387.49 752,-349 732.13,-322.78 731.23,-301.29 751,-275 762.25,-260.04 804.18,-248.52 841.45,-240.95"/>
<polygon fill="#63b8ff" stroke="#63b8ff" points="842.16,-244.38 851.3,-239.02 840.81,-237.51 842.16,-244.38"/>
</a>
</g>
</g>
<!-- Node35 -->
<g id="Node000035" class="node">
<title>Node35</title>
<g id="a_Node000035"><a xlink:href="validate__types_8h.html" target="_top" xlink:title=" ">
<polygon fill="white" stroke="#666666" points="858,-294 760,-294 760,-275 858,-275 858,-294"/>
<text text-anchor="middle" x="809" y="-282" font-family="Helvetica,sans-Serif" font-size="10.00">validate_types.h</text>
</a>
</g>
</g>
<!-- Node4&#45;&gt;Node35 -->
<g id="edge30_Node000004_Node000035" class="edge">
<title>Node4&#45;&gt;Node35</title>
<g id="a_edge30_Node000004_Node000035"><a xlink:title=" ">
<path fill="none" stroke="#63b8ff" d="M892.55,-384.66C877.35,-366.61 842.52,-325.28 822.97,-302.08"/>
<polygon fill="#63b8ff" stroke="#63b8ff" points="825.42,-299.55 816.3,-294.16 820.06,-304.06 825.42,-299.55"/>
</a>
</g>
</g>
<!-- Node36 -->
<g id="Node000036" class="node">
<title>Node36</title>
<g id="a_Node000036"><a xlink:href="validate__expressions_8h.html" target="_top" xlink:title=" ">
<polygon fill="white" stroke="#666666" points="1076.5,-349 947.5,-349 947.5,-330 1076.5,-330 1076.5,-349"/>
<text text-anchor="middle" x="1012" y="-337" font-family="Helvetica,sans-Serif" font-size="10.00">validate_expressions.h</text>
</a>
</g>
</g>
<!-- Node4&#45;&gt;Node36 -->
<g id="edge29_Node000004_Node000036" class="edge">
<title>Node4&#45;&gt;Node36</title>
<g id="a_edge29_Node000004_Node000036"><a xlink:title=" ">
<path fill="none" stroke="#63b8ff" d="M917.99,-384.98C935.93,-376.5 963.72,-363.35 984.43,-353.54"/>
<polygon fill="#63b8ff" stroke="#63b8ff" points="986.14,-356.61 993.68,-349.17 983.14,-350.28 986.14,-356.61"/>
</a>
</g>
</g>
<!-- Node37 -->
<g id="Node000037" class="node">
<title>Node37</title>
<g id="a_Node000037"><a xlink:title=" ">
<polygon fill="#e0e0e0" stroke="#999999" points="825.5,-349 760.5,-349 760.5,-330 825.5,-330 825.5,-349"/>
<text text-anchor="middle" x="793" y="-337" font-family="Helvetica,sans-Serif" font-size="10.00">functional</text>
</a>
</g>
</g>
<!-- Node4&#45;&gt;Node37 -->
<g id="edge32_Node000004_Node000037" class="edge">
<title>Node4&#45;&gt;Node37</title>
<g id="a_edge32_Node000004_Node000037"><a xlink:title=" ">
<path fill="none" stroke="#63b8ff" d="M882.81,-384.98C865.75,-376.54 839.37,-363.47 819.6,-353.68"/>
<polygon fill="#63b8ff" stroke="#63b8ff" points="821.02,-350.47 810.5,-349.17 817.91,-356.75 821.02,-350.47"/>
</a>
</g>
</g>
<!-- Node7 -->
<g id="Node000007" class="node">
<title>Node7</title>
<g id="a_Node000007"><a xlink:href="source__location_8h.html" target="_top" xlink:title=" ">
<polygon fill="white" stroke="#666666" points="748,-184 646,-184 646,-165 748,-165 748,-184"/>
<text text-anchor="middle" x="697" y="-172" font-family="Helvetica,sans-Serif" font-size="10.00">source_location.h</text>
</a>
</g>
</g>
<!-- Node6&#45;&gt;Node7 -->
<g id="edge6_Node000006_Node000007" class="edge">
<title>Node6&#45;&gt;Node7</title>
<g id="a_edge6_Node000006_Node000007"><a xlink:title=" ">
<path fill="none" stroke="#63b8ff" d="M902.33,-329.78C896.44,-316.62 883.83,-291.47 867,-275 825.68,-234.55 764.77,-204.12 728.18,-188.13"/>
<polygon fill="#63b8ff" stroke="#63b8ff" points="729.11,-184.72 718.54,-184 726.36,-191.15 729.11,-184.72"/>
</a>
</g>
</g>
<!-- Node32 -->
<g id="Node000032" class="node">
<title>Node32</title>
<g id="a_Node000032"><a xlink:href="validate_8h.html" target="_top" xlink:title=" ">
<polygon fill="white" stroke="#666666" points="1059.5,-294 994.5,-294 994.5,-275 1059.5,-275 1059.5,-294"/>
<text text-anchor="middle" x="1027" y="-282" font-family="Helvetica,sans-Serif" font-size="10.00">validate.h</text>
</a>
</g>
</g>
<!-- Node6&#45;&gt;Node32 -->
<g id="edge20_Node000006_Node000032" class="edge">
<title>Node6&#45;&gt;Node32</title>
<g id="a_edge20_Node000006_Node000032"><a xlink:title=" ">
<path fill="none" stroke="#63b8ff" d="M925.44,-329.98C944.99,-321.42 975.38,-308.11 997.82,-298.28"/>
<polygon fill="#63b8ff" stroke="#63b8ff" points="999.45,-301.39 1007.21,-294.17 996.64,-294.98 999.45,-301.39"/>
</a>
</g>
</g>
<!-- Node6&#45;&gt;Node34 -->
<g id="edge28_Node000006_Node000034" class="edge">
<title>Node6&#45;&gt;Node34</title>
<g id="a_edge28_Node000006_Node000034"><a xlink:title=" ">
<path fill="none" stroke="#63b8ff" d="M905.92,-329.66C905.76,-312.17 905.39,-272.8 905.17,-249.27"/>
<polygon fill="#63b8ff" stroke="#63b8ff" points="908.67,-249.13 905.08,-239.16 901.67,-249.19 908.67,-249.13"/>
</a>
</g>
</g>
<!-- Node6&#45;&gt;Node35 -->
<g id="edge27_Node000006_Node000035" class="edge">
<title>Node6&#45;&gt;Node35</title>
<g id="a_edge27_Node000006_Node000035"><a xlink:title=" ">
<path fill="none" stroke="#63b8ff" d="M890.42,-329.98C875.23,-321.69 851.9,-308.94 834.1,-299.22"/>
<polygon fill="#63b8ff" stroke="#63b8ff" points="835.32,-295.89 824.87,-294.17 831.97,-302.04 835.32,-295.89"/>
</a>
</g>
</g>
<!-- Node8 -->
<g id="Node000008" class="node">
<title>Node8</title>
<g id="a_Node000008"><a xlink:href="deprecate_8h.html" target="_top" xlink:title=" ">
<polygon fill="white" stroke="#666666" points="743,-129 669,-129 669,-110 743,-110 743,-129"/>
<text text-anchor="middle" x="706" y="-117" font-family="Helvetica,sans-Serif" font-size="10.00">deprecate.h</text>
</a>
</g>
</g>
<!-- Node7&#45;&gt;Node8 -->
<g id="edge7_Node000007_Node000008" class="edge">
<title>Node7&#45;&gt;Node8</title>
<g id="a_edge7_Node000007_Node000008"><a xlink:title=" ">
<path fill="none" stroke="#63b8ff" d="M698.49,-164.75C699.67,-157.8 701.36,-147.85 702.84,-139.13"/>
<polygon fill="#63b8ff" stroke="#63b8ff" points="706.32,-139.53 704.54,-129.09 699.42,-138.36 706.32,-139.53"/>
</a>
</g>
</g>
<!-- Node9 -->
<g id="Node000009" class="node">
<title>Node9</title>
<g id="a_Node000009"><a xlink:href="irep_8h.html" target="_top" xlink:title=" ">
<polygon fill="white" stroke="#666666" points="607,-129 563,-129 563,-110 607,-110 607,-129"/>
<text text-anchor="middle" x="585" y="-117" font-family="Helvetica,sans-Serif" font-size="10.00">irep.h</text>
</a>
</g>
</g>
<!-- Node7&#45;&gt;Node9 -->
<g id="edge8_Node000007_Node000009" class="edge">
<title>Node7&#45;&gt;Node9</title>
<g id="a_edge8_Node000007_Node000009"><a xlink:title=" ">
<path fill="none" stroke="#63b8ff" d="M679.01,-164.98C661.07,-156.5 633.28,-143.35 612.57,-133.54"/>
<polygon fill="#63b8ff" stroke="#63b8ff" points="613.86,-130.28 603.32,-129.17 610.86,-136.61 613.86,-130.28"/>
</a>
</g>
</g>
<!-- Node7&#45;&gt;Node10 -->
<g id="edge19_Node000007_Node000010" class="edge">
<title>Node7&#45;&gt;Node10</title>
<g id="a_edge19_Node000007_Node000010"><a xlink:title=" ">
<path fill="none" stroke="#63b8ff" d="M688.73,-164.75C680.8,-156.09 668.75,-142.24 660,-129 639.61,-98.16 648.91,-80.36 622,-55 602.62,-36.74 574.51,-25.19 552.87,-18.44"/>
<polygon fill="#63b8ff" stroke="#63b8ff" points="553.71,-15.04 543.13,-15.6 551.74,-21.76 553.71,-15.04"/>
</a>
</g>
</g>
<!-- Node31 -->
<g id="Node000031" class="node">
<title>Node31</title>
<g id="a_Node000031"><a xlink:title=" ">
<polygon fill="#e0e0e0" stroke="#999999" points="326,-129 270,-129 270,-110 326,-110 326,-129"/>
<text text-anchor="middle" x="298" y="-117" font-family="Helvetica,sans-Serif" font-size="10.00">optional</text>
</a>
</g>
</g>
<!-- Node7&#45;&gt;Node31 -->
<g id="edge18_Node000007_Node000031" class="edge">
<title>Node7&#45;&gt;Node31</title>
<g id="a_edge18_Node000007_Node000031"><a xlink:title=" ">
<path fill="none" stroke="#63b8ff" d="M645.65,-166.68C564.41,-155.89 408.06,-135.12 336.03,-125.55"/>
<polygon fill="#63b8ff" stroke="#63b8ff" points="336.41,-122.07 326.04,-124.22 335.49,-129.01 336.41,-122.07"/>
</a>
</g>
</g>
<!-- Node9&#45;&gt;Node10 -->
<g id="edge9_Node000009_Node000010" class="edge">
<title>Node9&#45;&gt;Node10</title>
<g id="a_edge9_Node000009_Node000010"><a xlink:title=" ">
<path fill="none" stroke="#63b8ff" d="M573.41,-109.84C563.23,-101.66 548.71,-88.51 540,-74 531.67,-60.13 526.76,-42.33 524.02,-29.11"/>
<polygon fill="#63b8ff" stroke="#63b8ff" points="527.46,-28.47 522.21,-19.27 520.58,-29.74 527.46,-28.47"/>
</a>
</g>
</g>
<!-- Node9&#45;&gt;Node11 -->
<g id="edge10_Node000009_Node000011" class="edge">
<title>Node9&#45;&gt;Node11</title>
<g id="a_edge10_Node000009_Node000011"><a xlink:title=" ">
<path fill="none" stroke="#63b8ff" d="M564.43,-109.98C543.57,-101.34 511.03,-87.87 487.23,-78.02"/>
<polygon fill="#63b8ff" stroke="#63b8ff" points="488.52,-74.76 477.94,-74.17 485.84,-81.23 488.52,-74.76"/>
</a>
</g>
</g>
<!-- Node12 -->
<g id="Node000012" class="node">
<title>Node12</title>
<g id="a_Node000012"><a xlink:href="src_2util_2invariant_8h.html" target="_top" xlink:title=" ">
<polygon fill="#fff0f0" stroke="red" points="883.5,-74 814.5,-74 814.5,-55 883.5,-55 883.5,-74"/>
<text text-anchor="middle" x="849" y="-62" font-family="Helvetica,sans-Serif" font-size="10.00">invariant.h</text>
</a>
</g>
</g>
<!-- Node9&#45;&gt;Node12 -->
<g id="edge11_Node000009_Node000012" class="edge">
<title>Node9&#45;&gt;Node12</title>
<g id="a_edge11_Node000009_Node000012"><a xlink:title=" ">
<path fill="none" stroke="#63b8ff" d="M607.05,-114.07C650.31,-105.39 747.03,-85.97 804.22,-74.49"/>
<polygon fill="#63b8ff" stroke="#63b8ff" points="804.96,-77.91 814.07,-72.51 803.58,-71.05 804.96,-77.91"/>
</a>
</g>
</g>
<!-- Node16 -->
<g id="Node000016" class="node">
<title>Node16</title>
<g id="a_Node000016"><a xlink:href="irep__ids_8h.html" target="_top" xlink:title="util">
<polygon fill="#fff0f0" stroke="red" points="613,-74 549,-74 549,-55 613,-55 613,-74"/>
<text text-anchor="middle" x="581" y="-62" font-family="Helvetica,sans-Serif" font-size="10.00">irep_ids.h</text>
</a>
</g>
</g>
<!-- Node9&#45;&gt;Node16 -->
<g id="edge15_Node000009_Node000016" class="edge">
<title>Node9&#45;&gt;Node16</title>
<g id="a_edge15_Node000009_Node000016"><a xlink:title=" ">
<path fill="none" stroke="#63b8ff" d="M584.34,-109.75C583.82,-102.8 583.06,-92.85 582.41,-84.13"/>
<polygon fill="#63b8ff" stroke="#63b8ff" points="585.89,-83.8 581.65,-74.09 578.91,-84.32 585.89,-83.8"/>
</a>
</g>
</g>
<!-- Node27 -->
<g id="Node000027" class="node">
<title>Node27</title>
<g id="a_Node000027"><a xlink:href="forward__list__as__map_8h.html" target="_top" xlink:title=" ">
<polygon fill="#fff0f0" stroke="red" points="796.5,-74 669.5,-74 669.5,-55 796.5,-55 796.5,-74"/>
<text text-anchor="middle" x="733" y="-62" font-family="Helvetica,sans-Serif" font-size="10.00">forward_list_as_map.h</text>
</a>
</g>
</g>
<!-- Node9&#45;&gt;Node27 -->
<g id="edge16_Node000009_Node000027" class="edge">
<title>Node9&#45;&gt;Node27</title>
<g id="a_edge16_Node000009_Node000027"><a xlink:title=" ">
<path fill="none" stroke="#63b8ff" d="M607.16,-110.57C631.68,-101.78 671.48,-87.53 699.74,-77.41"/>
<polygon fill="#63b8ff" stroke="#63b8ff" points="700.98,-80.68 709.22,-74.02 698.62,-74.09 700.98,-80.68"/>
</a>
</g>
</g>
<!-- Node12&#45;&gt;Node10 -->
<g id="edge13_Node000012_Node000010" class="edge">
<title>Node12&#45;&gt;Node10</title>
<g id="a_edge13_Node000012_Node000010"><a xlink:title=" ">
<path fill="none" stroke="#63b8ff" d="M814.29,-56.51C811.49,-55.99 808.7,-55.48 806,-55 714.65,-38.85 606.28,-22.77 553.35,-15.12"/>
<polygon fill="#63b8ff" stroke="#63b8ff" points="553.62,-11.62 543.22,-13.66 552.62,-18.55 553.62,-11.62"/>
</a>
</g>
</g>
<!-- Node14 -->
<g id="Node000014" class="node">
<title>Node14</title>
<g id="a_Node000014"><a xlink:title=" ">
<polygon fill="#e0e0e0" stroke="#999999" points="376,-19 320,-19 320,0 376,0 376,-19"/>
<text text-anchor="middle" x="348" y="-7" font-family="Helvetica,sans-Serif" font-size="10.00">sstream</text>
</a>
</g>
</g>
<!-- Node12&#45;&gt;Node14 -->
<g id="edge12_Node000012_Node000014" class="edge">
<title>Node12&#45;&gt;Node14</title>
<g id="a_edge12_Node000012_Node000014"><a xlink:title=" ">
<path fill="none" stroke="#63b8ff" d="M814.32,-56.34C811.51,-55.85 808.71,-55.4 806,-55 651.44,-32.27 465.76,-18.3 386.7,-12.97"/>
<polygon fill="#63b8ff" stroke="#63b8ff" points="386.47,-9.45 376.26,-12.28 386.01,-16.43 386.47,-9.45"/>
</a>
</g>
</g>
<!-- Node15 -->
<g id="Node000015" class="node">
<title>Node15</title>
<g id="a_Node000015"><a xlink:title=" ">
<polygon fill="#e0e0e0" stroke="#999999" points="1215.5,-19 1146.5,-19 1146.5,0 1215.5,0 1215.5,-19"/>
<text text-anchor="middle" x="1181" y="-7" font-family="Helvetica,sans-Serif" font-size="10.00">type_traits</text>
</a>
</g>
</g>
<!-- Node12&#45;&gt;Node15 -->
<g id="edge14_Node000012_Node000015" class="edge">
<title>Node12&#45;&gt;Node15</title>
<g id="a_edge14_Node000012_Node000015"><a xlink:title=" ">
<path fill="none" stroke="#63b8ff" d="M883.59,-57.98C944.13,-48.31 1069.2,-28.35 1136.24,-17.64"/>
<polygon fill="#63b8ff" stroke="#63b8ff" points="1137.16,-21.04 1146.49,-16.01 1136.06,-14.13 1137.16,-21.04"/>
</a>
</g>
</g>
<!-- Node27&#45;&gt;Node5 -->
<g id="edge17_Node000027_Node000005" class="edge">
<title>Node27&#45;&gt;Node5</title>
<g id="a_edge17_Node000027_Node000005"><a xlink:title=" ">
<path fill="none" stroke="#63b8ff" d="M762.4,-54.98C793.39,-46.01 842.38,-31.82 876.67,-21.89"/>
<polygon fill="#63b8ff" stroke="#63b8ff" points="877.74,-25.23 886.37,-19.08 875.79,-18.5 877.74,-25.23"/>
</a>
</g>
</g>
<!-- Node32&#45;&gt;Node15 -->
<g id="edge21_Node000032_Node000015" class="edge">
<title>Node32&#45;&gt;Node15</title>
<g id="a_edge21_Node000032_Node000015"><a xlink:title=" ">
<path fill="none" stroke="#63b8ff" d="M1042.65,-274.91C1055.74,-267.04 1074.13,-254.31 1086,-239 1138.55,-171.19 1166.92,-70.13 1176.86,-28.96"/>
<polygon fill="#63b8ff" stroke="#63b8ff" points="1180.27,-29.75 1179.13,-19.22 1173.45,-28.16 1180.27,-29.75"/>
</a>
</g>
</g>
<!-- Node33 -->
<g id="Node000033" class="node">
<title>Node33</title>
<g id="a_Node000033"><a xlink:href="exception__utils_8h.html" target="_top" xlink:title=" ">
<polygon fill="white" stroke="#666666" points="1077,-239 977,-239 977,-220 1077,-220 1077,-239"/>
<text text-anchor="middle" x="1027" y="-227" font-family="Helvetica,sans-Serif" font-size="10.00">exception_utils.h</text>
</a>
</g>
</g>
<!-- Node32&#45;&gt;Node33 -->
<g id="edge22_Node000032_Node000033" class="edge">
<title>Node32&#45;&gt;Node33</title>
<g id="a_edge22_Node000032_Node000033"><a xlink:title=" ">
<path fill="none" stroke="#63b8ff" d="M1027,-274.75C1027,-267.8 1027,-257.85 1027,-249.13"/>
<polygon fill="#63b8ff" stroke="#63b8ff" points="1030.5,-249.09 1027,-239.09 1023.5,-249.09 1030.5,-249.09"/>
</a>
</g>
</g>
<!-- Node32&#45;&gt;Node34 -->
<g id="edge26_Node000032_Node000034" class="edge">
<title>Node32&#45;&gt;Node34</title>
<g id="a_edge26_Node000032_Node000034"><a xlink:title=" ">
<path fill="none" stroke="#63b8ff" d="M1007.4,-274.98C987.68,-266.42 957.05,-253.11 934.42,-243.28"/>
<polygon fill="#63b8ff" stroke="#63b8ff" points="935.52,-239.94 924.96,-239.17 932.74,-246.37 935.52,-239.94"/>
</a>
</g>
</g>
<!-- Node33&#45;&gt;Node7 -->
<g id="edge25_Node000033_Node000007" class="edge">
<title>Node33&#45;&gt;Node7</title>
<g id="a_edge25_Node000033_Node000007"><a xlink:title=" ">
<path fill="none" stroke="#63b8ff" d="M976.88,-220.45C918.3,-211.04 821.36,-195.47 758.33,-185.35"/>
<polygon fill="#63b8ff" stroke="#63b8ff" points="758.56,-181.84 748.14,-183.71 757.45,-188.75 758.56,-181.84"/>
</a>
</g>
</g>
<!-- Node33&#45;&gt;Node10 -->
<g id="edge23_Node000033_Node000010" class="edge">
<title>Node33&#45;&gt;Node10</title>
<g id="a_edge23_Node000033_Node000010"><a xlink:title=" ">
<path fill="none" stroke="#63b8ff" d="M1023.27,-219.68C1010.31,-190.31 964.17,-95.38 893,-55 835.26,-22.24 633.04,-13.43 553.49,-11.2"/>
<polygon fill="#63b8ff" stroke="#63b8ff" points="553.2,-7.7 543.11,-10.93 553.02,-14.69 553.2,-7.7"/>
</a>
</g>
</g>
<!-- Node33&#45;&gt;Node12 -->
<g id="edge24_Node000033_Node000012" class="edge">
<title>Node33&#45;&gt;Node12</title>
<g id="a_edge24_Node000033_Node000012"><a xlink:title=" ">
<path fill="none" stroke="#63b8ff" d="M1010.08,-219.86C994.88,-211.68 972.35,-198.53 955,-184 916.91,-152.09 879.98,-106.47 861.41,-82.19"/>
<polygon fill="#63b8ff" stroke="#63b8ff" points="864.05,-79.88 855.23,-74.01 858.46,-84.1 864.05,-79.88"/>
</a>
</g>
</g>
<!-- Node38&#45;&gt;Node7 -->
<g id="edge35_Node000038_Node000007" class="edge">
<title>Node38&#45;&gt;Node7</title>
<g id="a_edge35_Node000038_Node000007"><a xlink:title=" ">
<path fill="none" stroke="#63b8ff" d="M374.96,-384.91C392.25,-372.55 425.3,-349.12 454,-330 534.23,-276.54 631.48,-215.95 674.58,-189.31"/>
<polygon fill="#63b8ff" stroke="#63b8ff" points="676.49,-192.24 683.17,-184.01 672.82,-186.28 676.49,-192.24"/>
</a>
</g>
</g>
<!-- Node38&#45;&gt;Node10 -->
<g id="edge39_Node000038_Node000010" class="edge">
<title>Node38&#45;&gt;Node10</title>
<g id="a_edge39_Node000038_Node000010"><a xlink:title=" ">
<path fill="none" stroke="#63b8ff" d="M361.79,-384.84C359.33,-366.54 354,-322.57 354,-285.5 354,-285.5 354,-285.5 354,-118.5 354,-54.97 440.27,-26.97 488.8,-16.25"/>
<polygon fill="#63b8ff" stroke="#63b8ff" points="489.75,-19.63 498.82,-14.16 488.32,-12.77 489.75,-19.63"/>
</a>
</g>
</g>
<!-- Node38&#45;&gt;Node12 -->
<g id="edge34_Node000038_Node000012" class="edge">
<title>Node38&#45;&gt;Node12</title>
<g id="a_edge34_Node000038_Node000012"><a xlink:title=" ">
<path fill="none" stroke="#63b8ff" d="M381.31,-384.99C399.82,-376.29 429.15,-362.21 454,-349 468.94,-341.06 472.22,-338.25 487,-330 606.12,-263.52 659.07,-278.97 757,-184 784.31,-157.52 776.08,-139.58 800,-110 808.72,-99.22 820.1,-88.71 829.7,-80.62"/>
<polygon fill="#63b8ff" stroke="#63b8ff" points="832.05,-83.23 837.57,-74.18 827.61,-77.81 832.05,-83.23"/>
</a>
</g>
</g>
<!-- Node38&#45;&gt;Node14 -->
<g id="edge38_Node000038_Node000014" class="edge">
<title>Node38&#45;&gt;Node14</title>
<g id="a_edge38_Node000038_Node000014"><a xlink:title=" ">
<path fill="none" stroke="#63b8ff" d="M358.14,-384.73C340.43,-352.18 279.4,-234.7 261,-129 253.3,-84.76 297.28,-45.35 325.54,-25.03"/>
<polygon fill="#63b8ff" stroke="#63b8ff" points="327.85,-27.7 334.08,-19.13 323.87,-21.94 327.85,-27.7"/>
</a>
</g>
</g>
<!-- Node38&#45;&gt;Node37 -->
<g id="edge36_Node000038_Node000037" class="edge">
<title>Node38&#45;&gt;Node37</title>
<g id="a_edge36_Node000038_Node000037"><a xlink:title=" ">
<path fill="none" stroke="#63b8ff" d="M398.02,-386.49C401.05,-385.95 404.08,-385.45 407,-385 530.98,-365.91 678.51,-351.07 749.96,-344.38"/>
<polygon fill="#63b8ff" stroke="#63b8ff" points="750.72,-347.83 760.35,-343.42 750.07,-340.86 750.72,-347.83"/>
</a>
</g>
</g>
<!-- Node38&#45;&gt;Node18 -->
<g id="edge37_Node000038_Node000018" class="edge">
<title>Node38&#45;&gt;Node18</title>
<g id="a_edge37_Node000038_Node000018"><a xlink:title=" ">
<path fill="none" stroke="#63b8ff" d="M346.77,-384.98C330.82,-376.61 306.22,-363.7 287.62,-353.95"/>
<polygon fill="#63b8ff" stroke="#63b8ff" points="289,-350.72 278.52,-349.17 285.75,-356.92 289,-350.72"/>
</a>
</g>
</g>
<!-- Node41&#45;&gt;Node9 -->
<g id="edge53_Node000041_Node000009" class="edge">
<title>Node41&#45;&gt;Node9</title>
<g id="a_edge53_Node000041_Node000009"><a xlink:title=" ">
<path fill="none" stroke="#63b8ff" d="M549.06,-494.88C562.02,-478.44 589.17,-440.94 599,-404 624.82,-306.98 600.68,-184.83 589.74,-138.99"/>
<polygon fill="#63b8ff" stroke="#63b8ff" points="593.08,-137.92 587.28,-129.05 586.28,-139.59 593.08,-137.92"/>
</a>
</g>
</g>
<!-- Node41&#45;&gt;Node31 -->
<g id="edge55_Node000041_Node000031" class="edge">
<title>Node41&#45;&gt;Node31</title>
<g id="a_edge55_Node000041_Node000031"><a xlink:title=" ">
<path fill="none" stroke="#63b8ff" d="M504.94,-503.46C388.55,-502.34 38,-491.03 38,-395.5 38,-395.5 38,-395.5 38,-228.5 38,-133.7 187.25,-120.55 259.59,-119.75"/>
<polygon fill="#63b8ff" stroke="#63b8ff" points="259.69,-123.25 269.68,-119.71 259.67,-116.25 259.69,-123.25"/>
</a>
</g>
</g>
<!-- Node42 -->
<g id="Node000042" class="node">
<title>Node42</title>
<g id="a_Node000042"><a xlink:href="ieee__float_8h.html" target="_top" xlink:title=" ">
<polygon fill="white" stroke="#666666" points="518,-459 444,-459 444,-440 518,-440 518,-459"/>
<text text-anchor="middle" x="481" y="-447" font-family="Helvetica,sans-Serif" font-size="10.00">ieee_float.h</text>
</a>
</g>
</g>
<!-- Node41&#45;&gt;Node42 -->
<g id="edge46_Node000041_Node000042" class="edge">
<title>Node41&#45;&gt;Node42</title>
<g id="a_edge46_Node000041_Node000042"><a xlink:title=" ">
<path fill="none" stroke="#63b8ff" d="M532.2,-494.98C523.18,-487.15 509.59,-475.34 498.68,-465.86"/>
<polygon fill="#63b8ff" stroke="#63b8ff" points="500.82,-463.09 490.98,-459.17 496.23,-468.37 500.82,-463.09"/>
</a>
</g>
</g>
<!-- Node22 -->
<g id="Node000022" class="node">
<title>Node22</title>
<g id="a_Node000022"><a xlink:title=" ">
<polygon fill="#e0e0e0" stroke="#999999" points="628,-459 596,-459 596,-440 628,-440 628,-459"/>
<text text-anchor="middle" x="612" y="-447" font-family="Helvetica,sans-Serif" font-size="10.00">list</text>
</a>
</g>
</g>
<!-- Node41&#45;&gt;Node22 -->
<g id="edge54_Node000041_Node000022" class="edge">
<title>Node41&#45;&gt;Node22</title>
<g id="a_edge54_Node000041_Node000022"><a xlink:title=" ">
<path fill="none" stroke="#63b8ff" d="M553.25,-494.98C563.8,-487 579.8,-474.88 592.44,-465.31"/>
<polygon fill="#63b8ff" stroke="#63b8ff" points="594.69,-468 600.55,-459.17 590.46,-462.42 594.69,-468"/>
</a>
</g>
</g>
<!-- Node42&#45;&gt;Node18 -->
<g id="edge47_Node000042_Node000018" class="edge">
<title>Node42&#45;&gt;Node18</title>
<g id="a_edge47_Node000042_Node000018"><a xlink:title=" ">
<path fill="none" stroke="#63b8ff" d="M443.87,-444.39C409.39,-439.22 357.7,-427.93 319,-404 299.98,-392.24 283.57,-372.28 273.31,-357.87"/>
<polygon fill="#63b8ff" stroke="#63b8ff" points="276.02,-355.63 267.49,-349.34 270.24,-359.57 276.02,-355.63"/>
</a>
</g>
</g>
<!-- Node43 -->
<g id="Node000043" class="node">
<title>Node43</title>
<g id="a_Node000043"><a xlink:href="mp__arith_8h.html" target="_top" xlink:title=" ">
<polygon fill="white" stroke="#666666" points="589.5,-404 520.5,-404 520.5,-385 589.5,-385 589.5,-404"/>
<text text-anchor="middle" x="555" y="-392" font-family="Helvetica,sans-Serif" font-size="10.00">mp_arith.h</text>
</a>
</g>
</g>
<!-- Node42&#45;&gt;Node43 -->
<g id="edge48_Node000042_Node000043" class="edge">
<title>Node42&#45;&gt;Node43</title>
<g id="a_edge48_Node000042_Node000043"><a xlink:title=" ">
<path fill="none" stroke="#63b8ff" d="M492.89,-439.98C504.15,-431.92 521.29,-419.65 534.71,-410.03"/>
<polygon fill="#63b8ff" stroke="#63b8ff" points="536.8,-412.84 542.89,-404.17 532.73,-407.15 536.8,-412.84"/>
</a>
</g>
</g>
<!-- Node45 -->
<g id="Node000045" class="node">
<title>Node45</title>
<g id="a_Node000045"><a xlink:href="format__spec_8h.html" target="_top" xlink:title=" ">
<polygon fill="white" stroke="#666666" points="502,-404 416,-404 416,-385 502,-385 502,-404"/>
<text text-anchor="middle" x="459" y="-392" font-family="Helvetica,sans-Serif" font-size="10.00">format_spec.h</text>
</a>
</g>
</g>
<!-- Node42&#45;&gt;Node45 -->
<g id="edge52_Node000042_Node000045" class="edge">
<title>Node42&#45;&gt;Node45</title>
<g id="a_edge52_Node000042_Node000045"><a xlink:title=" ">
<path fill="none" stroke="#63b8ff" d="M477.37,-439.75C474.42,-432.65 470.17,-422.4 466.49,-413.56"/>
<polygon fill="#63b8ff" stroke="#63b8ff" points="469.63,-411.98 462.57,-404.09 463.17,-414.67 469.63,-411.98"/>
</a>
</g>
</g>
<!-- Node43&#45;&gt;Node10 -->
<g id="edge50_Node000043_Node000010" class="edge">
<title>Node43&#45;&gt;Node10</title>
<g id="a_edge50_Node000043_Node000010"><a xlink:title=" ">
<path fill="none" stroke="#63b8ff" d="M520.43,-386.75C472.58,-375.17 392,-346.6 392,-285.5 392,-285.5 392,-285.5 392,-118.5 392,-86.69 402.01,-76.98 425,-55 442.95,-37.84 468.71,-26.4 489.02,-19.42"/>
<polygon fill="#63b8ff" stroke="#63b8ff" points="490.36,-22.66 498.79,-16.25 488.2,-16.01 490.36,-22.66"/>
</a>
</g>
</g>
<!-- Node43&#45;&gt;Node18 -->
<g id="edge49_Node000043_Node000018" class="edge">
<title>Node43&#45;&gt;Node18</title>
<g id="a_edge49_Node000043_Node000018"><a xlink:title=" ">
<path fill="none" stroke="#63b8ff" d="M520.42,-386.77C517.24,-386.17 514.06,-385.57 511,-385 434.34,-370.75 344.22,-354.86 296.21,-346.46"/>
<polygon fill="#63b8ff" stroke="#63b8ff" points="296.51,-342.96 286.06,-344.68 295.31,-349.85 296.51,-342.96"/>
</a>
</g>
</g>
<!-- Node44 -->
<g id="Node000044" class="node">
<title>Node44</title>
<g id="a_Node000044"><a xlink:title=" ">
<polygon fill="#e0e0e0" stroke="#999999" points="590,-349 496,-349 496,-330 590,-330 590,-349"/>
<text text-anchor="middle" x="543" y="-337" font-family="Helvetica,sans-Serif" font-size="10.00">big&#45;int/bigint.hh</text>
</a>
</g>
</g>
<!-- Node43&#45;&gt;Node44 -->
<g id="edge51_Node000043_Node000044" class="edge">
<title>Node43&#45;&gt;Node44</title>
<g id="a_edge51_Node000043_Node000044"><a xlink:title=" ">
<path fill="none" stroke="#63b8ff" d="M553.02,-384.75C551.43,-377.72 549.14,-367.62 547.15,-358.84"/>
<polygon fill="#63b8ff" stroke="#63b8ff" points="550.57,-358.07 544.94,-349.09 543.74,-359.62 550.57,-358.07"/>
</a>
</g>
</g>
<!-- Node46&#45;&gt;Node22 -->
<g id="edge73_Node000046_Node000022" class="edge">
<title>Node46&#45;&gt;Node22</title>
<g id="a_edge73_Node000046_Node000022"><a xlink:title=" ">
<path fill="none" stroke="#63b8ff" d="M660.04,-659.95C652.68,-627.88 626.61,-514.2 616.27,-469.12"/>
<polygon fill="#63b8ff" stroke="#63b8ff" points="619.65,-468.19 614,-459.22 612.83,-469.75 619.65,-468.19"/>
</a>
</g>
</g>
<!-- Node47 -->
<g id="Node000047" class="node">
<title>Node47</title>
<g id="a_Node000047"><a xlink:href="ansi__c__declaration_8h.html" target="_top" xlink:title="ANSI&#45;CC Language Type Checking.">
<polygon fill="white" stroke="#666666" points="813,-624 697,-624 697,-605 813,-605 813,-624"/>
<text text-anchor="middle" x="755" y="-612" font-family="Helvetica,sans-Serif" font-size="10.00">ansi_c_declaration.h</text>
</a>
</g>
</g>
<!-- Node46&#45;&gt;Node47 -->
<g id="edge57_Node000046_Node000047" class="edge">
<title>Node46&#45;&gt;Node47</title>
<g id="a_edge57_Node000046_Node000047"><a xlink:title=" ">
<path fill="none" stroke="#63b8ff" d="M676.94,-659.98C691.5,-651.69 713.87,-638.94 730.93,-629.22"/>
<polygon fill="#63b8ff" stroke="#63b8ff" points="732.83,-632.16 739.79,-624.17 729.36,-626.08 732.83,-632.16"/>
</a>
</g>
</g>
<!-- Node48 -->
<g id="Node000048" class="node">
<title>Node48</title>
<g id="a_Node000048"><a xlink:href="std__expr_8h.html" target="_top" xlink:title="API to expression classes.">
<polygon fill="white" stroke="#666666" points="896,-569 810,-569 810,-550 896,-550 896,-569"/>
<text text-anchor="middle" x="853" y="-557" font-family="Helvetica,sans-Serif" font-size="10.00">util/std_expr.h</text>
</a>
</g>
</g>
<!-- Node47&#45;&gt;Node48 -->
<g id="edge58_Node000047_Node000048" class="edge">
<title>Node47&#45;&gt;Node48</title>
<g id="a_edge58_Node000047_Node000048"><a xlink:title=" ">
<path fill="none" stroke="#63b8ff" d="M770.75,-604.98C786.23,-596.61 810.09,-583.7 828.14,-573.95"/>
<polygon fill="#63b8ff" stroke="#63b8ff" points="829.84,-577.01 836.97,-569.17 826.51,-570.85 829.84,-577.01"/>
</a>
</g>
</g>
<!-- Node48&#45;&gt;Node12 -->
<g id="edge65_Node000048_Node000012" class="edge">
<title>Node48&#45;&gt;Node12</title>
<g id="a_edge65_Node000048_Node000012"><a xlink:title=" ">
<path fill="none" stroke="#63b8ff" d="M848.2,-549.87C837.33,-530.31 809.97,-481.12 787,-440 764.39,-399.53 747.71,-393.86 736,-349 727.69,-317.18 727.95,-306.89 736,-275 746.32,-234.11 812.01,-125.25 838.22,-82.8"/>
<polygon fill="#63b8ff" stroke="#63b8ff" points="841.29,-84.49 843.58,-74.15 835.34,-80.8 841.29,-84.49"/>
</a>
</g>
</g>
<!-- Node49 -->
<g id="Node000049" class="node">
<title>Node49</title>
<g id="a_Node000049"><a xlink:href="expr__cast_8h.html" target="_top" xlink:title="Templated functions to cast to specific exprt&#45;derived classes.">
<polygon fill="white" stroke="#666666" points="1244.5,-459 1171.5,-459 1171.5,-440 1244.5,-440 1244.5,-459"/>
<text text-anchor="middle" x="1208" y="-447" font-family="Helvetica,sans-Serif" font-size="10.00">expr_cast.h</text>
</a>
</g>
</g>
<!-- Node48&#45;&gt;Node49 -->
<g id="edge59_Node000048_Node000049" class="edge">
<title>Node48&#45;&gt;Node49</title>
<g id="a_edge59_Node000048_Node000049"><a xlink:title=" ">
<path fill="none" stroke="#63b8ff" d="M881.15,-549.94C944.46,-530.68 1098.09,-483.94 1169.87,-462.1"/>
<polygon fill="#63b8ff" stroke="#63b8ff" points="1171.3,-465.32 1179.84,-459.07 1169.26,-458.63 1171.3,-465.32"/>
</a>
</g>
</g>
<!-- Node51 -->
<g id="Node000051" class="node">
<title>Node51</title>
<g id="a_Node000051"><a xlink:href="std__types_8h.html" target="_top" xlink:title="Pre&#45;defined types.">
<polygon fill="white" stroke="#666666" points="936.5,-514 863.5,-514 863.5,-495 936.5,-495 936.5,-514"/>
<text text-anchor="middle" x="900" y="-502" font-family="Helvetica,sans-Serif" font-size="10.00">std_types.h</text>
</a>
</g>
</g>
<!-- Node48&#45;&gt;Node51 -->
<g id="edge66_Node000048_Node000051" class="edge">
<title>Node48&#45;&gt;Node51</title>
<g id="a_edge66_Node000048_Node000051"><a xlink:title=" ">
<path fill="none" stroke="#63b8ff" d="M860.76,-549.75C867.47,-542.18 877.34,-531.05 885.51,-521.84"/>
<polygon fill="#63b8ff" stroke="#63b8ff" points="888.37,-523.89 892.38,-514.09 883.13,-519.25 888.37,-523.89"/>
</a>
</g>
</g>
<!-- Node49&#45;&gt;Node4 -->
<g id="edge64_Node000049_Node000004" class="edge">
<title>Node49&#45;&gt;Node4</title>
<g id="a_edge64_Node000049_Node000004"><a xlink:title=" ">
<path fill="none" stroke="#63b8ff" d="M1171.46,-442.21C1111.3,-431.86 992.28,-411.38 933.9,-401.33"/>
<polygon fill="#63b8ff" stroke="#63b8ff" points="934.18,-397.83 923.73,-399.58 933,-404.73 934.18,-397.83"/>
</a>
</g>
</g>
<!-- Node49&#45;&gt;Node12 -->
<g id="edge63_Node000049_Node000012" class="edge">
<title>Node49&#45;&gt;Node12</title>
<g id="a_edge63_Node000049_Node000012"><a xlink:title=" ">
<path fill="none" stroke="#63b8ff" d="M1209.48,-439.85C1212.49,-421.57 1219,-377.63 1219,-340.5 1219,-340.5 1219,-340.5 1219,-283.5 1219,-194.5 1194.18,-157.64 1119,-110 1082.43,-86.83 961.09,-74.1 894.21,-68.68"/>
<polygon fill="#63b8ff" stroke="#63b8ff" points="894.21,-65.17 883.96,-67.88 893.66,-72.15 894.21,-65.17"/>
</a>
</g>
</g>
<!-- Node49&#45;&gt;Node15 -->
<g id="edge61_Node000049_Node000015" class="edge">
<title>Node49&#45;&gt;Node15</title>
<g id="a_edge61_Node000049_Node000015"><a xlink:title=" ">
<path fill="none" stroke="#63b8ff" d="M1244.59,-441.51C1267.5,-435.32 1295.99,-424.04 1314,-404 1333.69,-382.09 1333,-369.96 1333,-340.5 1333,-340.5 1333,-340.5 1333,-118.5 1333,-65.38 1270.55,-35.99 1225.71,-21.73"/>
<polygon fill="#63b8ff" stroke="#63b8ff" points="1226.46,-18.3 1215.87,-18.75 1224.43,-25 1226.46,-18.3"/>
</a>
</g>
</g>
<!-- Node49&#45;&gt;Node37 -->
<g id="edge62_Node000049_Node000037" class="edge">
<title>Node49&#45;&gt;Node37</title>
<g id="a_edge62_Node000049_Node000037"><a xlink:title=" ">
<path fill="none" stroke="#63b8ff" d="M1175.09,-439.94C1100.46,-420.51 918.45,-373.15 835.48,-351.55"/>
<polygon fill="#63b8ff" stroke="#63b8ff" points="836.19,-348.12 825.63,-348.99 834.42,-354.9 836.19,-348.12"/>
</a>
</g>
</g>
<!-- Node50 -->
<g id="Node000050" class="node">
<title>Node50</title>
<g id="a_Node000050"><a xlink:title=" ">
<polygon fill="#e0e0e0" stroke="#999999" points="1304.5,-404 1247.5,-404 1247.5,-385 1304.5,-385 1304.5,-404"/>
<text text-anchor="middle" x="1276" y="-392" font-family="Helvetica,sans-Serif" font-size="10.00">typeinfo</text>
</a>
</g>
</g>
<!-- Node49&#45;&gt;Node50 -->
<g id="edge60_Node000049_Node000050" class="edge">
<title>Node49&#45;&gt;Node50</title>
<g id="a_edge60_Node000049_Node000050"><a xlink:title=" ">
<path fill="none" stroke="#63b8ff" d="M1218.93,-439.98C1229.08,-432.07 1244.42,-420.11 1256.65,-410.58"/>
<polygon fill="#63b8ff" stroke="#63b8ff" points="1259.14,-413.08 1264.88,-404.17 1254.84,-407.56 1259.14,-413.08"/>
</a>
</g>
</g>
<!-- Node51&#45;&gt;Node4 -->
<g id="edge67_Node000051_Node000004" class="edge">
<title>Node51&#45;&gt;Node4</title>
<g id="a_edge67_Node000051_Node000004"><a xlink:title=" ">
<path fill="none" stroke="#63b8ff" d="M900,-494.66C900,-477.17 900,-437.8 900,-414.27"/>
<polygon fill="#63b8ff" stroke="#63b8ff" points="903.5,-414.16 900,-404.16 896.5,-414.16 903.5,-414.16"/>
</a>
</g>
</g>
<!-- Node51&#45;&gt;Node12 -->
<g id="edge69_Node000051_Node000012" class="edge">
<title>Node51&#45;&gt;Node12</title>
<g id="a_edge69_Node000051_Node000012"><a xlink:title=" ">
<path fill="none" stroke="#63b8ff" d="M928.61,-494.86C951.39,-487.28 983.55,-474.98 1009,-459 1069.75,-420.86 1112.44,-401.44 1106,-330 1101.54,-280.51 1113.5,-261.39 1086,-220 1036.2,-145.06 936.31,-98.26 883.52,-77.7"/>
<polygon fill="#63b8ff" stroke="#63b8ff" points="884.52,-74.33 873.93,-74.05 882.03,-80.87 884.52,-74.33"/>
</a>
</g>
</g>
<!-- Node51&#45;&gt;Node32 -->
<g id="edge71_Node000051_Node000032" class="edge">
<title>Node51&#45;&gt;Node32</title>
<g id="a_edge71_Node000051_Node000032"><a xlink:title=" ">
<path fill="none" stroke="#63b8ff" d="M918.88,-494.89C958.73,-475.52 1050.69,-424.24 1086,-349 1095.48,-328.8 1074.18,-310.69 1054.58,-299.04"/>
<polygon fill="#63b8ff" stroke="#63b8ff" points="1056.25,-295.96 1045.81,-294.15 1052.84,-302.07 1056.25,-295.96"/>
</a>
</g>
</g>
<!-- Node51&#45;&gt;Node43 -->
<g id="edge70_Node000051_Node000043" class="edge">
<title>Node51&#45;&gt;Node43</title>
<g id="a_edge70_Node000051_Node000043"><a xlink:title=" ">
<path fill="none" stroke="#63b8ff" d="M887.77,-494.86C867.7,-481.1 826.1,-454.3 787,-440 724.21,-417.03 647.3,-405.27 599.72,-399.75"/>
<polygon fill="#63b8ff" stroke="#63b8ff" points="600.06,-396.27 589.74,-398.64 599.29,-403.23 600.06,-396.27"/>
</a>
</g>
</g>
<!-- Node51&#45;&gt;Node49 -->
<g id="edge68_Node000051_Node000049" class="edge">
<title>Node51&#45;&gt;Node49</title>
<g id="a_edge68_Node000051_Node000049"><a xlink:title=" ">
<path fill="none" stroke="#63b8ff" d="M936.54,-497.21C992.43,-487.6 1099.12,-469.24 1160.79,-458.62"/>
<polygon fill="#63b8ff" stroke="#63b8ff" points="1161.77,-462.01 1171.03,-456.86 1160.58,-455.11 1161.77,-462.01"/>
</a>
</g>
</g>
<!-- Node23 -->
<g id="Node000023" class="node">
<title>Node23</title>
<g id="a_Node000023"><a xlink:title=" ">
<polygon fill="#e0e0e0" stroke="#999999" points="777.5,-459 684.5,-459 684.5,-440 777.5,-440 777.5,-459"/>
<text text-anchor="middle" x="731" y="-447" font-family="Helvetica,sans-Serif" font-size="10.00">unordered_map</text>
</a>
</g>
</g>
<!-- Node51&#45;&gt;Node23 -->
<g id="edge72_Node000051_Node000023" class="edge">
<title>Node51&#45;&gt;Node23</title>
<g id="a_edge72_Node000051_Node000023"><a xlink:title=" ">
<path fill="none" stroke="#63b8ff" d="M872.85,-494.98C844.47,-486.09 799.77,-472.07 768.14,-462.15"/>
<polygon fill="#63b8ff" stroke="#63b8ff" points="768.95,-458.73 758.37,-459.08 766.86,-465.41 768.95,-458.73"/>
</a>
</g>
</g>
<!-- Node52&#45;&gt;Node9 -->
<g id="edge75_Node000052_Node000009" class="edge">
<title>Node52&#45;&gt;Node9</title>
<g id="a_edge75_Node000052_Node000009"><a xlink:title=" ">
<path fill="none" stroke="#63b8ff" d="M680.97,-494.75C673,-476.64 656,-433.55 656,-395.5 656,-395.5 656,-395.5 656,-338.5 656,-260.64 614.55,-174.49 594.99,-138.17"/>
<polygon fill="#63b8ff" stroke="#63b8ff" points="597.99,-136.37 590.11,-129.3 591.86,-139.75 597.99,-136.37"/>
</a>
</g>
</g>
<!-- Node52&#45;&gt;Node23 -->
<g id="edge76_Node000052_Node000023" class="edge">
<title>Node52&#45;&gt;Node23</title>
<g id="a_edge76_Node000052_Node000023"><a xlink:title=" ">
<path fill="none" stroke="#63b8ff" d="M692.6,-494.75C699.16,-487.18 708.82,-476.05 716.81,-466.84"/>
<polygon fill="#63b8ff" stroke="#63b8ff" points="719.63,-468.94 723.55,-459.09 714.35,-464.35 719.63,-468.94"/>
</a>
</g>
</g>
</g>
</svg>
