<?xml version="1.0" encoding="UTF-8" standalone="no"?>
<!DOCTYPE svg PUBLIC "-//W3C//DTD SVG 1.1//EN"
 "http://www.w3.org/Graphics/SVG/1.1/DTD/svg11.dtd">
<!-- Generated by graphviz version 2.43.0 (0)
 -->
<!-- Title: /home/runner/work/cbmc/cbmc/src/util/array_name.cpp Pages: 1 -->
<svg width="1261pt" height="808pt"
 viewBox="0.00 0.00 1260.78 808.00" xmlns="http://www.w3.org/2000/svg" xmlns:xlink="http://www.w3.org/1999/xlink">
<g id="graph0" class="graph" transform="scale(1 1) rotate(0) translate(4 804)">
<title>/home/runner/work/cbmc/cbmc/src/util/array_name.cpp</title>
<!-- Node1 -->
<g id="Node000001" class="node">
<title>Node1</title>
<g id="a_Node000001"><a xlink:title="Misc Utilities.">
<polygon fill="#999999" stroke="#666666" points="395.78,-800 231.78,-800 231.78,-770 395.78,-770 395.78,-800"/>
<text text-anchor="start" x="239.78" y="-788" font-family="Helvetica,sans-Serif" font-size="10.00">/home/runner/work/cbmc</text>
<text text-anchor="middle" x="313.78" y="-777" font-family="Helvetica,sans-Serif" font-size="10.00">/cbmc/src/util/array_name.cpp</text>
</a>
</g>
</g>
<!-- Node2 -->
<g id="Node000002" class="node">
<title>Node2</title>
<g id="a_Node000002"><a xlink:href="array__name_8h.html" target="_top" xlink:title="Misc Utilities.">
<polygon fill="white" stroke="#666666" points="121.78,-679 37.78,-679 37.78,-660 121.78,-660 121.78,-679"/>
<text text-anchor="middle" x="79.78" y="-667" font-family="Helvetica,sans-Serif" font-size="10.00">array_name.h</text>
</a>
</g>
</g>
<!-- Node1&#45;&gt;Node2 -->
<g id="edge1_Node000001_Node000002" class="edge">
<title>Node1&#45;&gt;Node2</title>
<g id="a_edge1_Node000001_Node000002"><a xlink:title=" ">
<path fill="none" stroke="#63b8ff" d="M284.62,-769.85C238.85,-747.65 150.82,-704.95 106.56,-683.49"/>
<polygon fill="#63b8ff" stroke="#63b8ff" points="108.09,-680.34 97.56,-679.12 105.03,-686.64 108.09,-680.34"/>
</a>
</g>
</g>
<!-- Node4 -->
<g id="Node000004" class="node">
<title>Node4</title>
<g id="a_Node000004"><a xlink:href="expr_8h.html" target="_top" xlink:title=" ">
<polygon fill="white" stroke="#666666" points="542.28,-514 495.28,-514 495.28,-495 542.28,-495 542.28,-514"/>
<text text-anchor="middle" x="518.78" y="-502" font-family="Helvetica,sans-Serif" font-size="10.00">expr.h</text>
</a>
</g>
</g>
<!-- Node1&#45;&gt;Node4 -->
<g id="edge3_Node000001_Node000004" class="edge">
<title>Node1&#45;&gt;Node4</title>
<g id="a_edge3_Node000001_Node000004"><a xlink:title=" ">
<path fill="none" stroke="#63b8ff" d="M313.78,-769.67C313.78,-748.14 313.78,-706.17 313.78,-670.5 313.78,-670.5 313.78,-670.5 313.78,-613.5 313.78,-537 426.9,-514.56 485.08,-508.08"/>
<polygon fill="#63b8ff" stroke="#63b8ff" points="485.67,-511.53 495.27,-507.04 484.96,-504.57 485.67,-511.53"/>
</a>
</g>
</g>
<!-- Node37 -->
<g id="Node000037" class="node">
<title>Node37</title>
<g id="a_Node000037"><a xlink:href="namespace_8h.html" target="_top" xlink:title=" ">
<polygon fill="white" stroke="#666666" points="1252.78,-294 1170.78,-294 1170.78,-275 1252.78,-275 1252.78,-294"/>
<text text-anchor="middle" x="1211.78" y="-282" font-family="Helvetica,sans-Serif" font-size="10.00">namespace.h</text>
</a>
</g>
</g>
<!-- Node1&#45;&gt;Node37 -->
<g id="edge43_Node000001_Node000037" class="edge">
<title>Node1&#45;&gt;Node37</title>
<g id="a_edge43_Node000001_Node000037"><a xlink:title=" ">
<path fill="none" stroke="#63b8ff" d="M395.97,-781.97C614.92,-775.47 1195.78,-750.69 1195.78,-670.5 1195.78,-670.5 1195.78,-670.5 1195.78,-393.5 1195.78,-361.85 1202.59,-325.54 1207.32,-304.11"/>
<polygon fill="#63b8ff" stroke="#63b8ff" points="1210.79,-304.65 1209.62,-294.12 1203.97,-303.08 1210.79,-304.65"/>
</a>
</g>
</g>
<!-- Node38 -->
<g id="Node000038" class="node">
<title>Node38</title>
<g id="a_Node000038"><a xlink:href="ssa__expr_8h.html" target="_top" xlink:title=" ">
<polygon fill="white" stroke="#666666" points="519.78,-734 451.78,-734 451.78,-715 519.78,-715 519.78,-734"/>
<text text-anchor="middle" x="485.78" y="-722" font-family="Helvetica,sans-Serif" font-size="10.00">ssa_expr.h</text>
</a>
</g>
</g>
<!-- Node1&#45;&gt;Node38 -->
<g id="edge46_Node000001_Node000038" class="edge">
<title>Node1&#45;&gt;Node38</title>
<g id="a_edge46_Node000001_Node000038"><a xlink:title=" ">
<path fill="none" stroke="#63b8ff" d="M354.98,-769.99C384.28,-760.02 423.2,-746.78 450.95,-737.35"/>
<polygon fill="#63b8ff" stroke="#63b8ff" points="452.29,-740.59 460.63,-734.05 450.04,-733.96 452.29,-740.59"/>
</a>
</g>
</g>
<!-- Node45 -->
<g id="Node000045" class="node">
<title>Node45</title>
<g id="a_Node000045"><a xlink:href="symbol_8h.html" target="_top" xlink:title="Symbol table entry.">
<polygon fill="white" stroke="#666666" points="285.78,-569 223.78,-569 223.78,-550 285.78,-550 285.78,-569"/>
<text text-anchor="middle" x="254.78" y="-557" font-family="Helvetica,sans-Serif" font-size="10.00">symbol.h</text>
</a>
</g>
</g>
<!-- Node1&#45;&gt;Node45 -->
<g id="edge65_Node000001_Node000045" class="edge">
<title>Node1&#45;&gt;Node45</title>
<g id="a_edge65_Node000001_Node000045"><a xlink:title=" ">
<path fill="none" stroke="#63b8ff" d="M309.67,-769.58C306.84,-759.6 303.02,-746.01 299.78,-734 284.63,-677.81 267.6,-611.11 259.52,-579.26"/>
<polygon fill="#63b8ff" stroke="#63b8ff" points="262.82,-578.02 256.97,-569.18 256.03,-579.73 262.82,-578.02"/>
</a>
</g>
</g>
<!-- Node3 -->
<g id="Node000003" class="node">
<title>Node3</title>
<g id="a_Node000003"><a xlink:title=" ">
<polygon fill="#e0e0e0" stroke="#999999" points="314.78,-19 270.78,-19 270.78,0 314.78,0 314.78,-19"/>
<text text-anchor="middle" x="292.78" y="-7" font-family="Helvetica,sans-Serif" font-size="10.00">string</text>
</a>
</g>
</g>
<!-- Node2&#45;&gt;Node3 -->
<g id="edge2_Node000002_Node000003" class="edge">
<title>Node2&#45;&gt;Node3</title>
<g id="a_edge2_Node000002_Node000003"><a xlink:title=" ">
<path fill="none" stroke="#63b8ff" d="M67.44,-659.99C45.22,-643.55 0.78,-605.1 0.78,-560.5 0.78,-560.5 0.78,-560.5 0.78,-118.5 0.78,-89.04 -2.35,-74.44 19.78,-55 55.08,-23.99 195.92,-14.39 260.33,-11.58"/>
<polygon fill="#63b8ff" stroke="#63b8ff" points="260.86,-15.06 270.71,-11.16 260.58,-8.07 260.86,-15.06"/>
</a>
</g>
</g>
<!-- Node5 -->
<g id="Node000005" class="node">
<title>Node5</title>
<g id="a_Node000005"><a xlink:href="as__const_8h.html" target="_top" xlink:title=" ">
<polygon fill="white" stroke="#666666" points="748.78,-129 680.78,-129 680.78,-110 748.78,-110 748.78,-129"/>
<text text-anchor="middle" x="714.78" y="-117" font-family="Helvetica,sans-Serif" font-size="10.00">as_const.h</text>
</a>
</g>
</g>
<!-- Node4&#45;&gt;Node5 -->
<g id="edge4_Node000004_Node000005" class="edge">
<title>Node4&#45;&gt;Node5</title>
<g id="a_edge4_Node000004_Node000005"><a xlink:title=" ">
<path fill="none" stroke="#63b8ff" d="M542.42,-500.29C584.57,-494.12 670.29,-479.38 691.78,-459 713.26,-438.64 711.78,-425.09 711.78,-395.5 711.78,-395.5 711.78,-395.5 711.78,-228.5 711.78,-197.18 713.06,-160.77 713.95,-139.23"/>
<polygon fill="#63b8ff" stroke="#63b8ff" points="717.45,-139.32 714.38,-129.18 710.45,-139.02 717.45,-139.32"/>
</a>
</g>
</g>
<!-- Node6 -->
<g id="Node000006" class="node">
<title>Node6</title>
<g id="a_Node000006"><a xlink:href="type_8h.html" target="_top" xlink:title="Defines typet, type_with_subtypet and type_with_subtypest.">
<polygon fill="white" stroke="#666666" points="459.28,-459 412.28,-459 412.28,-440 459.28,-440 459.28,-459"/>
<text text-anchor="middle" x="435.78" y="-447" font-family="Helvetica,sans-Serif" font-size="10.00">type.h</text>
</a>
</g>
</g>
<!-- Node4&#45;&gt;Node6 -->
<g id="edge5_Node000004_Node000006" class="edge">
<title>Node4&#45;&gt;Node6</title>
<g id="a_edge5_Node000004_Node000006"><a xlink:title=" ">
<path fill="none" stroke="#63b8ff" d="M505.45,-494.98C492.7,-486.84 473.23,-474.41 458.11,-464.76"/>
<polygon fill="#63b8ff" stroke="#63b8ff" points="459.67,-461.6 449.36,-459.17 455.91,-467.5 459.67,-461.6"/>
</a>
</g>
</g>
<!-- Node33 -->
<g id="Node000033" class="node">
<title>Node33</title>
<g id="a_Node000033"><a xlink:href="validation__mode_8h.html" target="_top" xlink:title=" ">
<polygon fill="white" stroke="#666666" points="407.28,-349 300.28,-349 300.28,-330 407.28,-330 407.28,-349"/>
<text text-anchor="middle" x="353.78" y="-337" font-family="Helvetica,sans-Serif" font-size="10.00">validation_mode.h</text>
</a>
</g>
</g>
<!-- Node4&#45;&gt;Node33 -->
<g id="edge41_Node000004_Node000033" class="edge">
<title>Node4&#45;&gt;Node33</title>
<g id="a_edge41_Node000004_Node000033"><a xlink:title=" ">
<path fill="none" stroke="#63b8ff" d="M495.12,-499.8C469.52,-494.69 428.88,-483.2 402.78,-459 373.63,-431.97 361.31,-384.99 356.52,-359.04"/>
<polygon fill="#63b8ff" stroke="#63b8ff" points="359.95,-358.33 354.86,-349.04 353.04,-359.48 359.95,-358.33"/>
</a>
</g>
</g>
<!-- Node34 -->
<g id="Node000034" class="node">
<title>Node34</title>
<g id="a_Node000034"><a xlink:href="validate__types_8h.html" target="_top" xlink:title=" ">
<polygon fill="white" stroke="#666666" points="622.78,-404 524.78,-404 524.78,-385 622.78,-385 622.78,-404"/>
<text text-anchor="middle" x="573.78" y="-392" font-family="Helvetica,sans-Serif" font-size="10.00">validate_types.h</text>
</a>
</g>
</g>
<!-- Node4&#45;&gt;Node34 -->
<g id="edge40_Node000004_Node000034" class="edge">
<title>Node4&#45;&gt;Node34</title>
<g id="a_edge40_Node000004_Node000034"><a xlink:title=" ">
<path fill="none" stroke="#63b8ff" d="M521.81,-494.64C526.21,-482.14 534.93,-458.78 544.78,-440 549.76,-430.51 556.2,-420.46 561.74,-412.32"/>
<polygon fill="#63b8ff" stroke="#63b8ff" points="564.65,-414.27 567.5,-404.07 558.91,-410.27 564.65,-414.27"/>
</a>
</g>
</g>
<!-- Node35 -->
<g id="Node000035" class="node">
<title>Node35</title>
<g id="a_Node000035"><a xlink:href="validate__expressions_8h.html" target="_top" xlink:title=" ">
<polygon fill="white" stroke="#666666" points="683.28,-459 554.28,-459 554.28,-440 683.28,-440 683.28,-459"/>
<text text-anchor="middle" x="618.78" y="-447" font-family="Helvetica,sans-Serif" font-size="10.00">validate_expressions.h</text>
</a>
</g>
</g>
<!-- Node4&#45;&gt;Node35 -->
<g id="edge39_Node000004_Node000035" class="edge">
<title>Node4&#45;&gt;Node35</title>
<g id="a_edge39_Node000004_Node000035"><a xlink:title=" ">
<path fill="none" stroke="#63b8ff" d="M534.85,-494.98C550.65,-486.61 575,-473.7 593.41,-463.95"/>
<polygon fill="#63b8ff" stroke="#63b8ff" points="595.23,-466.95 602.42,-459.17 591.95,-460.76 595.23,-466.95"/>
</a>
</g>
</g>
<!-- Node36 -->
<g id="Node000036" class="node">
<title>Node36</title>
<g id="a_Node000036"><a xlink:title=" ">
<polygon fill="#e0e0e0" stroke="#999999" points="805.28,-459 740.28,-459 740.28,-440 805.28,-440 805.28,-459"/>
<text text-anchor="middle" x="772.78" y="-447" font-family="Helvetica,sans-Serif" font-size="10.00">functional</text>
</a>
</g>
</g>
<!-- Node4&#45;&gt;Node36 -->
<g id="edge42_Node000004_Node000036" class="edge">
<title>Node4&#45;&gt;Node36</title>
<g id="a_edge42_Node000004_Node000036"><a xlink:title=" ">
<path fill="none" stroke="#63b8ff" d="M542.68,-498.51C585.61,-489.56 676.3,-470.63 730.12,-459.4"/>
<polygon fill="#63b8ff" stroke="#63b8ff" points="730.97,-462.8 740.05,-457.33 729.54,-455.95 730.97,-462.8"/>
</a>
</g>
</g>
<!-- Node7 -->
<g id="Node000007" class="node">
<title>Node7</title>
<g id="a_Node000007"><a xlink:href="source__location_8h.html" target="_top" xlink:title=" ">
<polygon fill="white" stroke="#666666" points="574.78,-294 472.78,-294 472.78,-275 574.78,-275 574.78,-294"/>
<text text-anchor="middle" x="523.78" y="-282" font-family="Helvetica,sans-Serif" font-size="10.00">source_location.h</text>
</a>
</g>
</g>
<!-- Node6&#45;&gt;Node7 -->
<g id="edge6_Node000006_Node000007" class="edge">
<title>Node6&#45;&gt;Node7</title>
<g id="a_edge6_Node000006_Node000007"><a xlink:title=" ">
<path fill="none" stroke="#63b8ff" d="M445.87,-439.92C460.78,-427.36 489.75,-403.47 515.78,-385 540.22,-367.66 558.32,-375.24 572.78,-349 582.8,-330.83 564.55,-312.29 547.55,-299.98"/>
<polygon fill="#63b8ff" stroke="#63b8ff" points="549.17,-296.85 538.93,-294.14 545.24,-302.64 549.17,-296.85"/>
</a>
</g>
</g>
<!-- Node31 -->
<g id="Node000031" class="node">
<title>Node31</title>
<g id="a_Node000031"><a xlink:href="validate_8h.html" target="_top" xlink:title=" ">
<polygon fill="white" stroke="#666666" points="468.28,-404 403.28,-404 403.28,-385 468.28,-385 468.28,-404"/>
<text text-anchor="middle" x="435.78" y="-392" font-family="Helvetica,sans-Serif" font-size="10.00">validate.h</text>
</a>
</g>
</g>
<!-- Node6&#45;&gt;Node31 -->
<g id="edge30_Node000006_Node000031" class="edge">
<title>Node6&#45;&gt;Node31</title>
<g id="a_edge30_Node000006_Node000031"><a xlink:title=" ">
<path fill="none" stroke="#63b8ff" d="M435.78,-439.75C435.78,-432.8 435.78,-422.85 435.78,-414.13"/>
<polygon fill="#63b8ff" stroke="#63b8ff" points="439.28,-414.09 435.78,-404.09 432.28,-414.09 439.28,-414.09"/>
</a>
</g>
</g>
<!-- Node6&#45;&gt;Node33 -->
<g id="edge38_Node000006_Node000033" class="edge">
<title>Node6&#45;&gt;Node33</title>
<g id="a_edge38_Node000006_Node000033"><a xlink:title=" ">
<path fill="none" stroke="#63b8ff" d="M426.55,-439.76C417.65,-431.11 404.06,-417.27 393.78,-404 382.33,-389.23 371.16,-371.07 363.54,-357.97"/>
<polygon fill="#63b8ff" stroke="#63b8ff" points="366.46,-356.02 358.47,-349.07 360.38,-359.49 366.46,-356.02"/>
</a>
</g>
</g>
<!-- Node6&#45;&gt;Node34 -->
<g id="edge37_Node000006_Node000034" class="edge">
<title>Node6&#45;&gt;Node34</title>
<g id="a_edge37_Node000006_Node000034"><a xlink:title=" ">
<path fill="none" stroke="#63b8ff" d="M457.95,-439.98C480.55,-431.3 515.85,-417.75 541.54,-407.88"/>
<polygon fill="#63b8ff" stroke="#63b8ff" points="543.13,-411.02 551.21,-404.17 540.62,-404.49 543.13,-411.02"/>
</a>
</g>
</g>
<!-- Node7&#45;&gt;Node3 -->
<g id="edge29_Node000007_Node000003" class="edge">
<title>Node7&#45;&gt;Node3</title>
<g id="a_edge29_Node000007_Node000003"><a xlink:title=" ">
<path fill="none" stroke="#63b8ff" d="M472.52,-281.48C404.46,-275.73 292.78,-254.3 292.78,-175.5 292.78,-175.5 292.78,-175.5 292.78,-118.5 292.78,-87.19 292.78,-50.77 292.78,-29.23"/>
<polygon fill="#63b8ff" stroke="#63b8ff" points="296.28,-29.18 292.78,-19.18 289.28,-29.18 296.28,-29.18"/>
</a>
</g>
</g>
<!-- Node8 -->
<g id="Node000008" class="node">
<title>Node8</title>
<g id="a_Node000008"><a xlink:href="deprecate_8h.html" target="_top" xlink:title=" ">
<polygon fill="white" stroke="#666666" points="595.78,-239 521.78,-239 521.78,-220 595.78,-220 595.78,-239"/>
<text text-anchor="middle" x="558.78" y="-227" font-family="Helvetica,sans-Serif" font-size="10.00">deprecate.h</text>
</a>
</g>
</g>
<!-- Node7&#45;&gt;Node8 -->
<g id="edge7_Node000007_Node000008" class="edge">
<title>Node7&#45;&gt;Node8</title>
<g id="a_edge7_Node000007_Node000008"><a xlink:title=" ">
<path fill="none" stroke="#63b8ff" d="M529.56,-274.75C534.4,-267.42 541.46,-256.73 547.43,-247.7"/>
<polygon fill="#63b8ff" stroke="#63b8ff" points="550.52,-249.36 553.11,-239.09 544.68,-245.5 550.52,-249.36"/>
</a>
</g>
</g>
<!-- Node9 -->
<g id="Node000009" class="node">
<title>Node9</title>
<g id="a_Node000009"><a xlink:href="irep_8h.html" target="_top" xlink:title=" ">
<polygon fill="white" stroke="#666666" points="825.78,-239 781.78,-239 781.78,-220 825.78,-220 825.78,-239"/>
<text text-anchor="middle" x="803.78" y="-227" font-family="Helvetica,sans-Serif" font-size="10.00">irep.h</text>
</a>
</g>
</g>
<!-- Node7&#45;&gt;Node9 -->
<g id="edge8_Node000007_Node000009" class="edge">
<title>Node7&#45;&gt;Node9</title>
<g id="a_edge8_Node000007_Node000009"><a xlink:title=" ">
<path fill="none" stroke="#63b8ff" d="M568.77,-274.98C625.49,-264.25 721.6,-246.06 771.52,-236.61"/>
<polygon fill="#63b8ff" stroke="#63b8ff" points="772.27,-240.03 781.44,-234.73 770.97,-233.15 772.27,-240.03"/>
</a>
</g>
</g>
<!-- Node30 -->
<g id="Node000030" class="node">
<title>Node30</title>
<g id="a_Node000030"><a xlink:title=" ">
<polygon fill="#e0e0e0" stroke="#999999" points="503.78,-239 447.78,-239 447.78,-220 503.78,-220 503.78,-239"/>
<text text-anchor="middle" x="475.78" y="-227" font-family="Helvetica,sans-Serif" font-size="10.00">optional</text>
</a>
</g>
</g>
<!-- Node7&#45;&gt;Node30 -->
<g id="edge28_Node000007_Node000030" class="edge">
<title>Node7&#45;&gt;Node30</title>
<g id="a_edge28_Node000007_Node000030"><a xlink:title=" ">
<path fill="none" stroke="#63b8ff" d="M515.86,-274.75C508.94,-267.11 498.72,-255.82 490.33,-246.56"/>
<polygon fill="#63b8ff" stroke="#63b8ff" points="492.87,-244.15 483.56,-239.09 487.68,-248.85 492.87,-244.15"/>
</a>
</g>
</g>
<!-- Node9&#45;&gt;Node3 -->
<g id="edge9_Node000009_Node000003" class="edge">
<title>Node9&#45;&gt;Node3</title>
<g id="a_edge9_Node000009_Node000003"><a xlink:title=" ">
<path fill="none" stroke="#63b8ff" d="M789.63,-219.94C749.54,-195.77 635.58,-127.65 595.78,-110 500.25,-67.62 380.87,-33.64 324.75,-18.72"/>
<polygon fill="#63b8ff" stroke="#63b8ff" points="325.59,-15.32 315.02,-16.15 323.8,-22.09 325.59,-15.32"/>
</a>
</g>
</g>
<!-- Node10 -->
<g id="Node000010" class="node">
<title>Node10</title>
<g id="a_Node000010"><a xlink:title=" ">
<polygon fill="#e0e0e0" stroke="#999999" points="932.28,-184 885.28,-184 885.28,-165 932.28,-165 932.28,-184"/>
<text text-anchor="middle" x="908.78" y="-172" font-family="Helvetica,sans-Serif" font-size="10.00">vector</text>
</a>
</g>
</g>
<!-- Node9&#45;&gt;Node10 -->
<g id="edge10_Node000009_Node000010" class="edge">
<title>Node9&#45;&gt;Node10</title>
<g id="a_edge10_Node000009_Node000010"><a xlink:title=" ">
<path fill="none" stroke="#63b8ff" d="M820.65,-219.98C837.39,-211.54 863.28,-198.47 882.68,-188.68"/>
<polygon fill="#63b8ff" stroke="#63b8ff" points="884.26,-191.8 891.61,-184.17 881.1,-185.55 884.26,-191.8"/>
</a>
</g>
</g>
<!-- Node11 -->
<g id="Node000011" class="node">
<title>Node11</title>
<g id="a_Node000011"><a xlink:href="src_2util_2invariant_8h.html" target="_top" xlink:title=" ">
<polygon fill="white" stroke="#666666" points="882.28,-74 813.28,-74 813.28,-55 882.28,-55 882.28,-74"/>
<text text-anchor="middle" x="847.78" y="-62" font-family="Helvetica,sans-Serif" font-size="10.00">invariant.h</text>
</a>
</g>
</g>
<!-- Node9&#45;&gt;Node11 -->
<g id="edge11_Node000009_Node000011" class="edge">
<title>Node9&#45;&gt;Node11</title>
<g id="a_edge11_Node000009_Node000011"><a xlink:title=" ">
<path fill="none" stroke="#63b8ff" d="M825.8,-226.36C871.62,-220.52 975.74,-199.67 1009.78,-129 1032.8,-81.22 948.05,-69.11 892.52,-66.22"/>
<polygon fill="#63b8ff" stroke="#63b8ff" points="892.67,-62.72 882.53,-65.78 892.36,-69.71 892.67,-62.72"/>
</a>
</g>
</g>
<!-- Node15 -->
<g id="Node000015" class="node">
<title>Node15</title>
<g id="a_Node000015"><a xlink:href="irep__ids_8h.html" target="_top" xlink:title="util">
<polygon fill="white" stroke="#666666" points="581.78,-184 517.78,-184 517.78,-165 581.78,-165 581.78,-184"/>
<text text-anchor="middle" x="549.78" y="-172" font-family="Helvetica,sans-Serif" font-size="10.00">irep_ids.h</text>
</a>
</g>
</g>
<!-- Node9&#45;&gt;Node15 -->
<g id="edge16_Node000009_Node000015" class="edge">
<title>Node9&#45;&gt;Node15</title>
<g id="a_edge16_Node000009_Node000015"><a xlink:title=" ">
<path fill="none" stroke="#63b8ff" d="M781.69,-223.89C739.39,-215.06 646.36,-195.65 591.86,-184.28"/>
<polygon fill="#63b8ff" stroke="#63b8ff" points="592.33,-180.8 581.82,-182.19 590.9,-187.65 592.33,-180.8"/>
</a>
</g>
</g>
<!-- Node26 -->
<g id="Node000026" class="node">
<title>Node26</title>
<g id="a_Node000026"><a xlink:href="forward__list__as__map_8h.html" target="_top" xlink:title=" ">
<polygon fill="white" stroke="#666666" points="867.28,-184 740.28,-184 740.28,-165 867.28,-165 867.28,-184"/>
<text text-anchor="middle" x="803.78" y="-172" font-family="Helvetica,sans-Serif" font-size="10.00">forward_list_as_map.h</text>
</a>
</g>
</g>
<!-- Node9&#45;&gt;Node26 -->
<g id="edge21_Node000009_Node000026" class="edge">
<title>Node9&#45;&gt;Node26</title>
<g id="a_edge21_Node000009_Node000026"><a xlink:title=" ">
<path fill="none" stroke="#63b8ff" d="M803.78,-219.75C803.78,-212.8 803.78,-202.85 803.78,-194.13"/>
<polygon fill="#63b8ff" stroke="#63b8ff" points="807.28,-194.09 803.78,-184.09 800.28,-194.09 807.28,-194.09"/>
</a>
</g>
</g>
<!-- Node11&#45;&gt;Node3 -->
<g id="edge14_Node000011_Node000003" class="edge">
<title>Node11&#45;&gt;Node3</title>
<g id="a_edge14_Node000011_Node000003"><a xlink:title=" ">
<path fill="none" stroke="#63b8ff" d="M813.07,-60.18C712.54,-50.58 422.19,-22.86 324.95,-13.57"/>
<polygon fill="#63b8ff" stroke="#63b8ff" points="325.14,-10.07 314.85,-12.61 324.47,-17.04 325.14,-10.07"/>
</a>
</g>
</g>
<!-- Node12 -->
<g id="Node000012" class="node">
<title>Node12</title>
<g id="a_Node000012"><a xlink:title=" ">
<polygon fill="#e0e0e0" stroke="#999999" points="836.28,-19 787.28,-19 787.28,0 836.28,0 836.28,-19"/>
<text text-anchor="middle" x="811.78" y="-7" font-family="Helvetica,sans-Serif" font-size="10.00">cstdlib</text>
</a>
</g>
</g>
<!-- Node11&#45;&gt;Node12 -->
<g id="edge12_Node000011_Node000012" class="edge">
<title>Node11&#45;&gt;Node12</title>
<g id="a_edge12_Node000011_Node000012"><a xlink:title=" ">
<path fill="none" stroke="#63b8ff" d="M841.84,-54.75C836.81,-47.34 829.45,-36.5 823.27,-27.41"/>
<polygon fill="#63b8ff" stroke="#63b8ff" points="826.13,-25.39 817.62,-19.09 820.34,-29.33 826.13,-25.39"/>
</a>
</g>
</g>
<!-- Node13 -->
<g id="Node000013" class="node">
<title>Node13</title>
<g id="a_Node000013"><a xlink:title=" ">
<polygon fill="#e0e0e0" stroke="#999999" points="910.78,-19 854.78,-19 854.78,0 910.78,0 910.78,-19"/>
<text text-anchor="middle" x="882.78" y="-7" font-family="Helvetica,sans-Serif" font-size="10.00">sstream</text>
</a>
</g>
</g>
<!-- Node11&#45;&gt;Node13 -->
<g id="edge13_Node000011_Node000013" class="edge">
<title>Node11&#45;&gt;Node13</title>
<g id="a_edge13_Node000011_Node000013"><a xlink:title=" ">
<path fill="none" stroke="#63b8ff" d="M853.56,-54.75C858.4,-47.42 865.46,-36.73 871.43,-27.7"/>
<polygon fill="#63b8ff" stroke="#63b8ff" points="874.52,-29.36 877.11,-19.09 868.68,-25.5 874.52,-29.36"/>
</a>
</g>
</g>
<!-- Node14 -->
<g id="Node000014" class="node">
<title>Node14</title>
<g id="a_Node000014"><a xlink:title=" ">
<polygon fill="#e0e0e0" stroke="#999999" points="625.28,-19 556.28,-19 556.28,0 625.28,0 625.28,-19"/>
<text text-anchor="middle" x="590.78" y="-7" font-family="Helvetica,sans-Serif" font-size="10.00">type_traits</text>
</a>
</g>
</g>
<!-- Node11&#45;&gt;Node14 -->
<g id="edge15_Node000011_Node000014" class="edge">
<title>Node11&#45;&gt;Node14</title>
<g id="a_edge15_Node000011_Node000014"><a xlink:title=" ">
<path fill="none" stroke="#63b8ff" d="M813.12,-56.35C767.11,-46.86 685.79,-30.09 635.28,-19.68"/>
<polygon fill="#63b8ff" stroke="#63b8ff" points="635.8,-16.21 625.3,-17.62 634.39,-23.07 635.8,-16.21"/>
</a>
</g>
</g>
<!-- Node16 -->
<g id="Node000016" class="node">
<title>Node16</title>
<g id="a_Node000016"><a xlink:href="dstring_8h.html" target="_top" xlink:title="Container for C&#45;Strings.">
<polygon fill="#fff0f0" stroke="red" points="380.28,-129 321.28,-129 321.28,-110 380.28,-110 380.28,-129"/>
<text text-anchor="middle" x="350.78" y="-117" font-family="Helvetica,sans-Serif" font-size="10.00">dstring.h</text>
</a>
</g>
</g>
<!-- Node15&#45;&gt;Node16 -->
<g id="edge17_Node000015_Node000016" class="edge">
<title>Node15&#45;&gt;Node16</title>
<g id="a_edge17_Node000015_Node000016"><a xlink:title=" ">
<path fill="none" stroke="#63b8ff" d="M517.81,-164.98C483.16,-155.76 427.83,-141.02 390.44,-131.06"/>
<polygon fill="#63b8ff" stroke="#63b8ff" points="390.97,-127.58 380.4,-128.39 389.16,-134.34 390.97,-127.58"/>
</a>
</g>
</g>
<!-- Node25 -->
<g id="Node000025" class="node">
<title>Node25</title>
<g id="a_Node000025"><a xlink:title=" ">
<polygon fill="#e0e0e0" stroke="#999999" points="586.78,-129 512.78,-129 512.78,-110 586.78,-110 586.78,-129"/>
<text text-anchor="middle" x="549.78" y="-117" font-family="Helvetica,sans-Serif" font-size="10.00">irep_ids.def</text>
</a>
</g>
</g>
<!-- Node15&#45;&gt;Node25 -->
<g id="edge20_Node000015_Node000025" class="edge">
<title>Node15&#45;&gt;Node25</title>
<g id="a_edge20_Node000015_Node000025"><a xlink:title=" ">
<path fill="none" stroke="#63b8ff" d="M549.78,-164.75C549.78,-157.8 549.78,-147.85 549.78,-139.13"/>
<polygon fill="#63b8ff" stroke="#63b8ff" points="553.28,-139.09 549.78,-129.09 546.28,-139.09 553.28,-139.09"/>
</a>
</g>
</g>
<!-- Node16&#45;&gt;Node3 -->
<g id="edge19_Node000016_Node000003" class="edge">
<title>Node16&#45;&gt;Node3</title>
<g id="a_edge19_Node000016_Node000003"><a xlink:title=" ">
<path fill="none" stroke="#63b8ff" d="M346.04,-109.66C336.47,-91.85 314.73,-51.37 302.18,-28.01"/>
<polygon fill="#63b8ff" stroke="#63b8ff" points="305.25,-26.31 297.43,-19.16 299.08,-29.62 305.25,-26.31"/>
</a>
</g>
</g>
<!-- Node17 -->
<g id="Node000017" class="node">
<title>Node17</title>
<g id="a_Node000017"><a xlink:title=" ">
<polygon fill="#e0e0e0" stroke="#999999" points="226.78,-74 178.78,-74 178.78,-55 226.78,-55 226.78,-74"/>
<text text-anchor="middle" x="202.78" y="-62" font-family="Helvetica,sans-Serif" font-size="10.00">iosfwd</text>
</a>
</g>
</g>
<!-- Node16&#45;&gt;Node17 -->
<g id="edge18_Node000016_Node000017" class="edge">
<title>Node16&#45;&gt;Node17</title>
<g id="a_edge18_Node000016_Node000017"><a xlink:title=" ">
<path fill="none" stroke="#63b8ff" d="M327,-109.98C302.55,-101.23 264.25,-87.51 236.64,-77.62"/>
<polygon fill="#63b8ff" stroke="#63b8ff" points="237.59,-74.25 226.99,-74.17 235.23,-80.84 237.59,-74.25"/>
</a>
</g>
</g>
<!-- Node26&#45;&gt;Node5 -->
<g id="edge24_Node000026_Node000005" class="edge">
<title>Node26&#45;&gt;Node5</title>
<g id="a_edge24_Node000026_Node000005"><a xlink:title=" ">
<path fill="none" stroke="#63b8ff" d="M789.48,-164.98C775.68,-156.77 754.54,-144.18 738.27,-134.49"/>
<polygon fill="#63b8ff" stroke="#63b8ff" points="739.73,-131.28 729.34,-129.17 736.14,-137.29 739.73,-131.28"/>
</a>
</g>
</g>
<!-- Node27 -->
<g id="Node000027" class="node">
<title>Node27</title>
<g id="a_Node000027"><a xlink:title=" ">
<polygon fill="#e0e0e0" stroke="#999999" points="1000.78,-129 936.78,-129 936.78,-110 1000.78,-110 1000.78,-129"/>
<text text-anchor="middle" x="968.78" y="-117" font-family="Helvetica,sans-Serif" font-size="10.00">algorithm</text>
</a>
</g>
</g>
<!-- Node26&#45;&gt;Node27 -->
<g id="edge22_Node000026_Node000027" class="edge">
<title>Node26&#45;&gt;Node27</title>
<g id="a_edge22_Node000026_Node000027"><a xlink:title=" ">
<path fill="none" stroke="#63b8ff" d="M830.29,-164.98C857.99,-156.09 901.64,-142.07 932.52,-132.15"/>
<polygon fill="#63b8ff" stroke="#63b8ff" points="933.61,-135.47 942.06,-129.08 931.47,-128.81 933.61,-135.47"/>
</a>
</g>
</g>
<!-- Node28 -->
<g id="Node000028" class="node">
<title>Node28</title>
<g id="a_Node000028"><a xlink:title=" ">
<polygon fill="#e0e0e0" stroke="#999999" points="918.78,-129 844.78,-129 844.78,-110 918.78,-110 918.78,-129"/>
<text text-anchor="middle" x="881.78" y="-117" font-family="Helvetica,sans-Serif" font-size="10.00">forward_list</text>
</a>
</g>
</g>
<!-- Node26&#45;&gt;Node28 -->
<g id="edge23_Node000026_Node000028" class="edge">
<title>Node26&#45;&gt;Node28</title>
<g id="a_edge23_Node000026_Node000028"><a xlink:title=" ">
<path fill="none" stroke="#63b8ff" d="M816.31,-164.98C828.18,-156.92 846.25,-144.65 860.4,-135.03"/>
<polygon fill="#63b8ff" stroke="#63b8ff" points="862.72,-137.69 869.02,-129.17 858.78,-131.9 862.72,-137.69"/>
</a>
</g>
</g>
<!-- Node29 -->
<g id="Node000029" class="node">
<title>Node29</title>
<g id="a_Node000029"><a xlink:href="narrow_8h.html" target="_top" xlink:title=" ">
<polygon fill="white" stroke="#666666" points="826.28,-129 767.28,-129 767.28,-110 826.28,-110 826.28,-129"/>
<text text-anchor="middle" x="796.78" y="-117" font-family="Helvetica,sans-Serif" font-size="10.00">narrow.h</text>
</a>
</g>
</g>
<!-- Node26&#45;&gt;Node29 -->
<g id="edge25_Node000026_Node000029" class="edge">
<title>Node26&#45;&gt;Node29</title>
<g id="a_edge25_Node000026_Node000029"><a xlink:title=" ">
<path fill="none" stroke="#63b8ff" d="M802.63,-164.75C801.71,-157.8 800.39,-147.85 799.24,-139.13"/>
<polygon fill="#63b8ff" stroke="#63b8ff" points="802.7,-138.54 797.92,-129.09 795.76,-139.46 802.7,-138.54"/>
</a>
</g>
</g>
<!-- Node29&#45;&gt;Node11 -->
<g id="edge27_Node000029_Node000011" class="edge">
<title>Node29&#45;&gt;Node11</title>
<g id="a_edge27_Node000029_Node000011"><a xlink:title=" ">
<path fill="none" stroke="#63b8ff" d="M805.2,-109.75C812.56,-102.11 823.41,-90.82 832.33,-81.56"/>
<polygon fill="#63b8ff" stroke="#63b8ff" points="835.11,-83.72 839.52,-74.09 830.06,-78.87 835.11,-83.72"/>
</a>
</g>
</g>
<!-- Node29&#45;&gt;Node14 -->
<g id="edge26_Node000029_Node000014" class="edge">
<title>Node29&#45;&gt;Node14</title>
<g id="a_edge26_Node000029_Node000014"><a xlink:title=" ">
<path fill="none" stroke="#63b8ff" d="M780.27,-109.84C744.32,-91 658.77,-46.14 616.01,-23.73"/>
<polygon fill="#63b8ff" stroke="#63b8ff" points="617.57,-20.59 607.09,-19.05 614.32,-26.79 617.57,-20.59"/>
</a>
</g>
</g>
<!-- Node31&#45;&gt;Node14 -->
<g id="edge31_Node000031_Node000014" class="edge">
<title>Node31&#45;&gt;Node14</title>
<g id="a_edge31_Node000031_Node000014"><a xlink:title=" ">
<path fill="none" stroke="#63b8ff" d="M434.33,-384.79C426.61,-337.18 392.16,-108.65 432.78,-55 446.49,-36.9 504.36,-24.09 546.1,-17"/>
<polygon fill="#63b8ff" stroke="#63b8ff" points="546.76,-20.44 556.06,-15.36 545.62,-13.53 546.76,-20.44"/>
</a>
</g>
</g>
<!-- Node32 -->
<g id="Node000032" class="node">
<title>Node32</title>
<g id="a_Node000032"><a xlink:href="exception__utils_8h.html" target="_top" xlink:title=" ">
<polygon fill="white" stroke="#666666" points="563.78,-349 463.78,-349 463.78,-330 563.78,-330 563.78,-349"/>
<text text-anchor="middle" x="513.78" y="-337" font-family="Helvetica,sans-Serif" font-size="10.00">exception_utils.h</text>
</a>
</g>
</g>
<!-- Node31&#45;&gt;Node32 -->
<g id="edge32_Node000031_Node000032" class="edge">
<title>Node31&#45;&gt;Node32</title>
<g id="a_edge32_Node000031_Node000032"><a xlink:title=" ">
<path fill="none" stroke="#63b8ff" d="M448.31,-384.98C460.18,-376.92 478.25,-364.65 492.4,-355.03"/>
<polygon fill="#63b8ff" stroke="#63b8ff" points="494.72,-357.69 501.02,-349.17 490.78,-351.9 494.72,-357.69"/>
</a>
</g>
</g>
<!-- Node31&#45;&gt;Node33 -->
<g id="edge36_Node000031_Node000033" class="edge">
<title>Node31&#45;&gt;Node33</title>
<g id="a_edge36_Node000031_Node000033"><a xlink:title=" ">
<path fill="none" stroke="#63b8ff" d="M422.61,-384.98C410.01,-376.84 390.78,-364.41 375.84,-354.76"/>
<polygon fill="#63b8ff" stroke="#63b8ff" points="377.5,-351.66 367.2,-349.17 373.7,-357.54 377.5,-351.66"/>
</a>
</g>
</g>
<!-- Node32&#45;&gt;Node3 -->
<g id="edge33_Node000032_Node000003" class="edge">
<title>Node32&#45;&gt;Node3</title>
<g id="a_edge33_Node000032_Node000003"><a xlink:title=" ">
<path fill="none" stroke="#63b8ff" d="M471.3,-329.96C397.83,-313.95 254.78,-276.84 254.78,-230.5 254.78,-230.5 254.78,-230.5 254.78,-118.5 254.78,-85.02 271.23,-48.84 282.49,-28.01"/>
<polygon fill="#63b8ff" stroke="#63b8ff" points="285.65,-29.53 287.5,-19.1 279.55,-26.1 285.65,-29.53"/>
</a>
</g>
</g>
<!-- Node32&#45;&gt;Node7 -->
<g id="edge35_Node000032_Node000007" class="edge">
<title>Node32&#45;&gt;Node7</title>
<g id="a_edge35_Node000032_Node000007"><a xlink:title=" ">
<path fill="none" stroke="#63b8ff" d="M515.43,-329.75C516.74,-322.8 518.62,-312.85 520.27,-304.13"/>
<polygon fill="#63b8ff" stroke="#63b8ff" points="523.75,-304.56 522.16,-294.09 516.87,-303.27 523.75,-304.56"/>
</a>
</g>
</g>
<!-- Node32&#45;&gt;Node11 -->
<g id="edge34_Node000032_Node000011" class="edge">
<title>Node32&#45;&gt;Node11</title>
<g id="a_edge34_Node000032_Node000011"><a xlink:title=" ">
<path fill="none" stroke="#63b8ff" d="M533.1,-329.94C548.46,-322.33 569.64,-309.95 583.78,-294 643.92,-226.17 601.65,-167.43 671.78,-110 708.89,-79.61 764.08,-69.63 802.74,-66.53"/>
<polygon fill="#63b8ff" stroke="#63b8ff" points="803.43,-69.99 813.18,-65.82 802.96,-63 803.43,-69.99"/>
</a>
</g>
</g>
<!-- Node37&#45;&gt;Node9 -->
<g id="edge45_Node000037_Node000009" class="edge">
<title>Node37&#45;&gt;Node9</title>
<g id="a_edge45_Node000037_Node000009"><a xlink:title=" ">
<path fill="none" stroke="#63b8ff" d="M1170.42,-278.13C1088.93,-267.54 909.21,-244.19 835.88,-234.67"/>
<polygon fill="#63b8ff" stroke="#63b8ff" points="836.23,-231.19 825.86,-233.37 835.33,-238.13 836.23,-231.19"/>
</a>
</g>
</g>
<!-- Node37&#45;&gt;Node11 -->
<g id="edge44_Node000037_Node000011" class="edge">
<title>Node37&#45;&gt;Node11</title>
<g id="a_edge44_Node000037_Node000011"><a xlink:title=" ">
<path fill="none" stroke="#63b8ff" d="M1211.99,-274.96C1212.17,-246.45 1208.59,-153.94 1156.78,-110 1117.8,-76.94 968.5,-68.44 892.62,-66.25"/>
<polygon fill="#63b8ff" stroke="#63b8ff" points="892.51,-62.75 882.42,-65.99 892.33,-69.75 892.51,-62.75"/>
</a>
</g>
</g>
<!-- Node39 -->
<g id="Node000039" class="node">
<title>Node39</title>
<g id="a_Node000039"><a xlink:href="std__expr_8h.html" target="_top" xlink:title="API to expression classes.">
<polygon fill="white" stroke="#666666" points="582.28,-679 515.28,-679 515.28,-660 582.28,-660 582.28,-679"/>
<text text-anchor="middle" x="548.78" y="-667" font-family="Helvetica,sans-Serif" font-size="10.00">std_expr.h</text>
</a>
</g>
</g>
<!-- Node38&#45;&gt;Node39 -->
<g id="edge47_Node000038_Node000039" class="edge">
<title>Node38&#45;&gt;Node39</title>
<g id="a_edge47_Node000038_Node000039"><a xlink:title=" ">
<path fill="none" stroke="#63b8ff" d="M495.9,-714.98C505.22,-707.15 519.25,-695.34 530.52,-685.86"/>
<polygon fill="#63b8ff" stroke="#63b8ff" points="533.08,-688.29 538.48,-679.17 528.57,-682.93 533.08,-688.29"/>
</a>
</g>
</g>
<!-- Node39&#45;&gt;Node11 -->
<g id="edge54_Node000039_Node000011" class="edge">
<title>Node39&#45;&gt;Node11</title>
<g id="a_edge54_Node000039_Node000011"><a xlink:title=" ">
<path fill="none" stroke="#63b8ff" d="M582.42,-665.98C708.08,-656.13 1142.78,-617.89 1142.78,-560.5 1142.78,-560.5 1142.78,-560.5 1142.78,-173.5 1142.78,-138.12 1124.93,-128.52 1094.78,-110 1061.62,-89.63 954.44,-76.02 892.71,-69.65"/>
<polygon fill="#63b8ff" stroke="#63b8ff" points="892.77,-66.14 882.47,-68.62 892.07,-73.11 892.77,-66.14"/>
</a>
</g>
</g>
<!-- Node40 -->
<g id="Node000040" class="node">
<title>Node40</title>
<g id="a_Node000040"><a xlink:href="expr__cast_8h.html" target="_top" xlink:title="Templated functions to cast to specific exprt&#45;derived classes.">
<polygon fill="white" stroke="#666666" points="618.28,-569 545.28,-569 545.28,-550 618.28,-550 618.28,-569"/>
<text text-anchor="middle" x="581.78" y="-557" font-family="Helvetica,sans-Serif" font-size="10.00">expr_cast.h</text>
</a>
</g>
</g>
<!-- Node39&#45;&gt;Node40 -->
<g id="edge48_Node000039_Node000040" class="edge">
<title>Node39&#45;&gt;Node40</title>
<g id="a_edge48_Node000039_Node000040"><a xlink:title=" ">
<path fill="none" stroke="#63b8ff" d="M551.48,-659.66C556.85,-642.09 568.97,-602.45 576.14,-578.95"/>
<polygon fill="#63b8ff" stroke="#63b8ff" points="579.56,-579.74 579.14,-569.16 572.87,-577.7 579.56,-579.74"/>
</a>
</g>
</g>
<!-- Node42 -->
<g id="Node000042" class="node">
<title>Node42</title>
<g id="a_Node000042"><a xlink:href="std__types_8h.html" target="_top" xlink:title="Pre&#45;defined types.">
<polygon fill="white" stroke="#666666" points="553.28,-624 480.28,-624 480.28,-605 553.28,-605 553.28,-624"/>
<text text-anchor="middle" x="516.78" y="-612" font-family="Helvetica,sans-Serif" font-size="10.00">std_types.h</text>
</a>
</g>
</g>
<!-- Node39&#45;&gt;Node42 -->
<g id="edge55_Node000039_Node000042" class="edge">
<title>Node39&#45;&gt;Node42</title>
<g id="a_edge55_Node000039_Node000042"><a xlink:title=" ">
<path fill="none" stroke="#63b8ff" d="M543.5,-659.75C539.07,-652.42 532.62,-641.73 527.16,-632.7"/>
<polygon fill="#63b8ff" stroke="#63b8ff" points="530.13,-630.84 521.97,-624.09 524.14,-634.46 530.13,-630.84"/>
</a>
</g>
</g>
<!-- Node40&#45;&gt;Node4 -->
<g id="edge53_Node000040_Node000004" class="edge">
<title>Node40&#45;&gt;Node4</title>
<g id="a_edge53_Node000040_Node000004"><a xlink:title=" ">
<path fill="none" stroke="#63b8ff" d="M571.66,-549.98C562.35,-542.15 548.31,-530.34 537.04,-520.86"/>
<polygon fill="#63b8ff" stroke="#63b8ff" points="538.99,-517.93 529.09,-514.17 534.49,-523.29 538.99,-517.93"/>
</a>
</g>
</g>
<!-- Node40&#45;&gt;Node11 -->
<g id="edge52_Node000040_Node000011" class="edge">
<title>Node40&#45;&gt;Node11</title>
<g id="a_edge52_Node000040_Node000011"><a xlink:title=" ">
<path fill="none" stroke="#63b8ff" d="M618.63,-558.15C731.82,-556.1 1066.78,-542.26 1066.78,-450.5 1066.78,-450.5 1066.78,-450.5 1066.78,-173.5 1066.78,-96.6 956.82,-74.45 892.73,-68.08"/>
<polygon fill="#63b8ff" stroke="#63b8ff" points="892.76,-64.57 882.48,-67.15 892.13,-71.54 892.76,-64.57"/>
</a>
</g>
</g>
<!-- Node40&#45;&gt;Node14 -->
<g id="edge50_Node000040_Node000014" class="edge">
<title>Node40&#45;&gt;Node14</title>
<g id="a_edge50_Node000040_Node000014"><a xlink:title=" ">
<path fill="none" stroke="#63b8ff" d="M547.71,-549.98C461.22,-526.39 243.32,-453.69 290.78,-330 347.32,-182.66 509.16,-64.35 568.57,-24.74"/>
<polygon fill="#63b8ff" stroke="#63b8ff" points="570.76,-27.49 577.19,-19.07 566.91,-21.64 570.76,-27.49"/>
</a>
</g>
</g>
<!-- Node40&#45;&gt;Node36 -->
<g id="edge51_Node000040_Node000036" class="edge">
<title>Node40&#45;&gt;Node36</title>
<g id="a_edge51_Node000040_Node000036"><a xlink:title=" ">
<path fill="none" stroke="#63b8ff" d="M581.83,-549.74C582.39,-536.07 585.53,-509.69 600.78,-495 610.19,-485.94 682.5,-469.37 730.32,-459.21"/>
<polygon fill="#63b8ff" stroke="#63b8ff" points="731.06,-462.63 740.12,-457.15 729.62,-455.78 731.06,-462.63"/>
</a>
</g>
</g>
<!-- Node41 -->
<g id="Node000041" class="node">
<title>Node41</title>
<g id="a_Node000041"><a xlink:title=" ">
<polygon fill="#e0e0e0" stroke="#999999" points="667.28,-514 610.28,-514 610.28,-495 667.28,-495 667.28,-514"/>
<text text-anchor="middle" x="638.78" y="-502" font-family="Helvetica,sans-Serif" font-size="10.00">typeinfo</text>
</a>
</g>
</g>
<!-- Node40&#45;&gt;Node41 -->
<g id="edge49_Node000040_Node000041" class="edge">
<title>Node40&#45;&gt;Node41</title>
<g id="a_edge49_Node000040_Node000041"><a xlink:title=" ">
<path fill="none" stroke="#63b8ff" d="M590.94,-549.98C599.28,-542.23 611.82,-530.58 621.96,-521.14"/>
<polygon fill="#63b8ff" stroke="#63b8ff" points="624.52,-523.54 629.46,-514.17 619.75,-518.42 624.52,-523.54"/>
</a>
</g>
</g>
<!-- Node42&#45;&gt;Node4 -->
<g id="edge56_Node000042_Node000004" class="edge">
<title>Node42&#45;&gt;Node4</title>
<g id="a_edge56_Node000042_Node000004"><a xlink:title=" ">
<path fill="none" stroke="#63b8ff" d="M516.95,-604.66C517.27,-587.17 518,-547.8 518.44,-524.27"/>
<polygon fill="#63b8ff" stroke="#63b8ff" points="521.94,-524.22 518.62,-514.16 514.94,-524.09 521.94,-524.22"/>
</a>
</g>
</g>
<!-- Node42&#45;&gt;Node11 -->
<g id="edge58_Node000042_Node000011" class="edge">
<title>Node42&#45;&gt;Node11</title>
<g id="a_edge58_Node000042_Node000011"><a xlink:title=" ">
<path fill="none" stroke="#63b8ff" d="M553.56,-610.66C682.29,-600.26 1104.78,-561.81 1104.78,-505.5 1104.78,-505.5 1104.78,-505.5 1104.78,-173.5 1104.78,-82.63 966.53,-66.96 892.82,-65.06"/>
<polygon fill="#63b8ff" stroke="#63b8ff" points="892.5,-61.55 882.44,-64.87 892.38,-68.55 892.5,-61.55"/>
</a>
</g>
</g>
<!-- Node42&#45;&gt;Node31 -->
<g id="edge63_Node000042_Node000031" class="edge">
<title>Node42&#45;&gt;Node31</title>
<g id="a_edge63_Node000042_Node000031"><a xlink:title=" ">
<path fill="none" stroke="#63b8ff" d="M480.02,-612.13C449.24,-608.8 407.05,-598.68 385.78,-569 370.44,-547.59 336.88,-597.77 402.78,-440 407.03,-429.83 414.08,-419.85 420.58,-411.93"/>
<polygon fill="#63b8ff" stroke="#63b8ff" points="423.35,-414.08 427.26,-404.23 418.06,-409.49 423.35,-414.08"/>
</a>
</g>
</g>
<!-- Node42&#45;&gt;Node40 -->
<g id="edge57_Node000042_Node000040" class="edge">
<title>Node42&#45;&gt;Node40</title>
<g id="a_edge57_Node000042_Node000040"><a xlink:title=" ">
<path fill="none" stroke="#63b8ff" d="M527.23,-604.98C536.93,-597.07 551.6,-585.11 563.28,-575.58"/>
<polygon fill="#63b8ff" stroke="#63b8ff" points="565.61,-578.2 571.15,-569.17 561.19,-572.78 565.61,-578.2"/>
</a>
</g>
</g>
<!-- Node43 -->
<g id="Node000043" class="node">
<title>Node43</title>
<g id="a_Node000043"><a xlink:href="mp__arith_8h.html" target="_top" xlink:title=" ">
<polygon fill="white" stroke="#666666" points="186.28,-129 117.28,-129 117.28,-110 186.28,-110 186.28,-129"/>
<text text-anchor="middle" x="151.78" y="-117" font-family="Helvetica,sans-Serif" font-size="10.00">mp_arith.h</text>
</a>
</g>
</g>
<!-- Node42&#45;&gt;Node43 -->
<g id="edge59_Node000042_Node000043" class="edge">
<title>Node42&#45;&gt;Node43</title>
<g id="a_edge59_Node000042_Node000043"><a xlink:title=" ">
<path fill="none" stroke="#63b8ff" d="M480.05,-611.47C409.76,-607.04 259.27,-594.77 214.78,-569 183.7,-550.99 164.78,-541.42 164.78,-505.5 164.78,-505.5 164.78,-505.5 164.78,-228.5 164.78,-196.96 159.25,-160.62 155.4,-139.15"/>
<polygon fill="#63b8ff" stroke="#63b8ff" points="158.81,-138.33 153.54,-129.14 151.93,-139.61 158.81,-138.33"/>
</a>
</g>
</g>
<!-- Node22 -->
<g id="Node000022" class="node">
<title>Node22</title>
<g id="a_Node000022"><a xlink:title=" ">
<polygon fill="#e0e0e0" stroke="#999999" points="488.28,-569 395.28,-569 395.28,-550 488.28,-550 488.28,-569"/>
<text text-anchor="middle" x="441.78" y="-557" font-family="Helvetica,sans-Serif" font-size="10.00">unordered_map</text>
</a>
</g>
</g>
<!-- Node42&#45;&gt;Node22 -->
<g id="edge64_Node000042_Node000022" class="edge">
<title>Node42&#45;&gt;Node22</title>
<g id="a_edge64_Node000042_Node000022"><a xlink:title=" ">
<path fill="none" stroke="#63b8ff" d="M504.73,-604.98C493.32,-596.92 475.95,-584.65 462.35,-575.03"/>
<polygon fill="#63b8ff" stroke="#63b8ff" points="464.24,-572.08 454.05,-569.17 460.2,-577.8 464.24,-572.08"/>
</a>
</g>
</g>
<!-- Node43&#45;&gt;Node3 -->
<g id="edge61_Node000043_Node000003" class="edge">
<title>Node43&#45;&gt;Node3</title>
<g id="a_edge61_Node000043_Node000003"><a xlink:title=" ">
<path fill="none" stroke="#63b8ff" d="M151.84,-109.92C152.4,-96.48 155.41,-70.43 169.78,-55 193.39,-29.66 232.53,-18.72 260.31,-14.01"/>
<polygon fill="#63b8ff" stroke="#63b8ff" points="260.98,-17.45 270.34,-12.5 259.93,-10.53 260.98,-17.45"/>
</a>
</g>
</g>
<!-- Node43&#45;&gt;Node17 -->
<g id="edge60_Node000043_Node000017" class="edge">
<title>Node43&#45;&gt;Node17</title>
<g id="a_edge60_Node000043_Node000017"><a xlink:title=" ">
<path fill="none" stroke="#63b8ff" d="M160.2,-109.75C167.56,-102.11 178.41,-90.82 187.33,-81.56"/>
<polygon fill="#63b8ff" stroke="#63b8ff" points="190.11,-83.72 194.52,-74.09 185.06,-78.87 190.11,-83.72"/>
</a>
</g>
</g>
<!-- Node44 -->
<g id="Node000044" class="node">
<title>Node44</title>
<g id="a_Node000044"><a xlink:title=" ">
<polygon fill="#e0e0e0" stroke="#999999" points="122.78,-74 28.78,-74 28.78,-55 122.78,-55 122.78,-74"/>
<text text-anchor="middle" x="75.78" y="-62" font-family="Helvetica,sans-Serif" font-size="10.00">big&#45;int/bigint.hh</text>
</a>
</g>
</g>
<!-- Node43&#45;&gt;Node44 -->
<g id="edge62_Node000043_Node000044" class="edge">
<title>Node43&#45;&gt;Node44</title>
<g id="a_edge62_Node000043_Node000044"><a xlink:title=" ">
<path fill="none" stroke="#63b8ff" d="M139.57,-109.98C128.01,-101.92 110.41,-89.65 96.62,-80.03"/>
<polygon fill="#63b8ff" stroke="#63b8ff" points="98.42,-77.02 88.22,-74.17 94.42,-82.76 98.42,-77.02"/>
</a>
</g>
</g>
<!-- Node45&#45;&gt;Node4 -->
<g id="edge67_Node000045_Node000004" class="edge">
<title>Node45&#45;&gt;Node4</title>
<g id="a_edge67_Node000045_Node000004"><a xlink:title=" ">
<path fill="none" stroke="#63b8ff" d="M285.84,-552.26C335.83,-542.23 433.72,-522.58 485.24,-512.23"/>
<polygon fill="#63b8ff" stroke="#63b8ff" points="486.08,-515.63 495.2,-510.23 484.71,-508.77 486.08,-515.63"/>
</a>
</g>
</g>
<!-- Node45&#45;&gt;Node11 -->
<g id="edge68_Node000045_Node000011" class="edge">
<title>Node45&#45;&gt;Node11</title>
<g id="a_edge68_Node000045_Node000011"><a xlink:title=" ">
<path fill="none" stroke="#63b8ff" d="M275.84,-549.89C355.16,-517.47 631.45,-404.5 631.78,-404 646.34,-382.31 714.18,-353.33 604.78,-220 575.88,-184.77 536.41,-220.24 508.78,-184 488.8,-157.78 482.02,-134.76 503.78,-110 523.26,-87.84 714.54,-73.53 803.15,-68.04"/>
<polygon fill="#63b8ff" stroke="#63b8ff" points="803.4,-71.53 813.17,-67.43 802.98,-64.54 803.4,-71.53"/>
</a>
</g>
</g>
<!-- Node45&#45;&gt;Node17 -->
<g id="edge66_Node000045_Node000017" class="edge">
<title>Node45&#45;&gt;Node17</title>
<g id="a_edge66_Node000045_Node000017"><a xlink:title=" ">
<path fill="none" stroke="#63b8ff" d="M249.36,-549.92C238.64,-532.12 215.78,-489.57 215.78,-450.5 215.78,-450.5 215.78,-450.5 215.78,-173.5 215.78,-141.96 210.25,-105.62 206.4,-84.15"/>
<polygon fill="#63b8ff" stroke="#63b8ff" points="209.81,-83.33 204.54,-74.14 202.93,-84.61 209.81,-83.33"/>
</a>
</g>
</g>
</g>
</svg>
