<?xml version="1.0" encoding="UTF-8" standalone="no"?>
<!DOCTYPE svg PUBLIC "-//W3C//DTD SVG 1.1//EN"
 "http://www.w3.org/Graphics/SVG/1.1/DTD/svg11.dtd">
<!-- Generated by graphviz version 2.43.0 (0)
 -->
<!-- Title: /home/runner/work/cbmc/cbmc/src/solvers/flattening/boolbv_width.cpp Pages: 1 -->
<svg width="1238pt" height="874pt"
 viewBox="0.00 0.00 1238.00 874.00" xmlns="http://www.w3.org/2000/svg" xmlns:xlink="http://www.w3.org/1999/xlink">
<g id="graph0" class="graph" transform="scale(1 1) rotate(0) translate(4 870)">
<title>/home/runner/work/cbmc/cbmc/src/solvers/flattening/boolbv_width.cpp</title>
<!-- Node1 -->
<g id="Node000001" class="node">
<title>Node1</title>
<g id="a_Node000001"><a xlink:title=" ">
<polygon fill="#999999" stroke="#666666" points="960.5,-866 809.5,-866 809.5,-825 960.5,-825 960.5,-866"/>
<text text-anchor="start" x="817.5" y="-854" font-family="Helvetica,sans-Serif" font-size="10.00">/home/runner/work/cbmc</text>
<text text-anchor="start" x="817.5" y="-843" font-family="Helvetica,sans-Serif" font-size="10.00">/cbmc/src/solvers/flattening</text>
<text text-anchor="middle" x="885" y="-832" font-family="Helvetica,sans-Serif" font-size="10.00">/boolbv_width.cpp</text>
</a>
</g>
</g>
<!-- Node2 -->
<g id="Node000002" class="node">
<title>Node2</title>
<g id="a_Node000002"><a xlink:href="boolbv__width_8h.html" target="_top" xlink:title=" ">
<polygon fill="white" stroke="#666666" points="248.5,-624 157.5,-624 157.5,-605 248.5,-605 248.5,-624"/>
<text text-anchor="middle" x="203" y="-612" font-family="Helvetica,sans-Serif" font-size="10.00">boolbv_width.h</text>
</a>
</g>
</g>
<!-- Node1&#45;&gt;Node2 -->
<g id="edge1_Node000001_Node000002" class="edge">
<title>Node1&#45;&gt;Node2</title>
<g id="a_edge1_Node000001_Node000002"><a xlink:title=" ">
<path fill="none" stroke="#63b8ff" d="M809.25,-833.39C753.66,-824.22 676.71,-809.39 611,-789 461.67,-742.65 292.44,-660.62 228.91,-628.71"/>
<polygon fill="#63b8ff" stroke="#63b8ff" points="230.14,-625.41 219.64,-624.03 226.99,-631.66 230.14,-625.41"/>
</a>
</g>
</g>
<!-- Node9 -->
<g id="Node000009" class="node">
<title>Node9</title>
<g id="a_Node000009"><a xlink:href="src_2util_2invariant_8h.html" target="_top" xlink:title=" ">
<polygon fill="white" stroke="#666666" points="992.5,-74 923.5,-74 923.5,-55 992.5,-55 992.5,-74"/>
<text text-anchor="middle" x="958" y="-62" font-family="Helvetica,sans-Serif" font-size="10.00">invariant.h</text>
</a>
</g>
</g>
<!-- Node1&#45;&gt;Node9 -->
<g id="edge71_Node000001_Node000009" class="edge">
<title>Node1&#45;&gt;Node9</title>
<g id="a_edge71_Node000001_Node000009"><a xlink:title=" ">
<path fill="none" stroke="#63b8ff" d="M960.71,-833.93C1062.27,-817.59 1230,-782.05 1230,-725.5 1230,-725.5 1230,-725.5 1230,-173.5 1230,-125.18 1079.84,-89.04 1002.66,-73.66"/>
<polygon fill="#63b8ff" stroke="#63b8ff" points="1003.21,-70.2 992.73,-71.71 1001.87,-77.07 1003.21,-70.2"/>
</a>
</g>
</g>
<!-- Node25 -->
<g id="Node000025" class="node">
<title>Node25</title>
<g id="a_Node000025"><a xlink:title=" ">
<polygon fill="#e0e0e0" stroke="#999999" points="816,-129 752,-129 752,-110 816,-110 816,-129"/>
<text text-anchor="middle" x="784" y="-117" font-family="Helvetica,sans-Serif" font-size="10.00">algorithm</text>
</a>
</g>
</g>
<!-- Node1&#45;&gt;Node25 -->
<g id="edge36_Node000001_Node000025" class="edge">
<title>Node1&#45;&gt;Node25</title>
<g id="a_edge36_Node000001_Node000025"><a xlink:title=" ">
<path fill="none" stroke="#63b8ff" d="M960.51,-828.58C1013.16,-812.54 1074,-781.82 1074,-725.5 1074,-725.5 1074,-725.5 1074,-393.5 1074,-253.54 892.7,-164.24 816.8,-132.98"/>
<polygon fill="#63b8ff" stroke="#63b8ff" points="817.82,-129.62 807.24,-129.12 815.21,-136.11 817.82,-129.62"/>
</a>
</g>
</g>
<!-- Node34 -->
<g id="Node000034" class="node">
<title>Node34</title>
<g id="a_Node000034"><a xlink:href="arith__tools_8h.html" target="_top" xlink:title=" ">
<polygon fill="white" stroke="#666666" points="933,-734 837,-734 837,-715 933,-715 933,-734"/>
<text text-anchor="middle" x="885" y="-722" font-family="Helvetica,sans-Serif" font-size="10.00">util/arith_tools.h</text>
</a>
</g>
</g>
<!-- Node1&#45;&gt;Node34 -->
<g id="edge37_Node000001_Node000034" class="edge">
<title>Node1&#45;&gt;Node34</title>
<g id="a_edge37_Node000001_Node000034"><a xlink:title=" ">
<path fill="none" stroke="#63b8ff" d="M885,-824.85C885,-802.48 885,-766.19 885,-744.21"/>
<polygon fill="#63b8ff" stroke="#63b8ff" points="888.5,-744.18 885,-734.18 881.5,-744.18 888.5,-744.18"/>
</a>
</g>
</g>
<!-- Node43 -->
<g id="Node000043" class="node">
<title>Node43</title>
<g id="a_Node000043"><a xlink:href="std__types_8h.html" target="_top" xlink:title="Pre&#45;defined types.">
<polygon fill="white" stroke="#666666" points="705.5,-624 632.5,-624 632.5,-605 705.5,-605 705.5,-624"/>
<text text-anchor="middle" x="669" y="-612" font-family="Helvetica,sans-Serif" font-size="10.00">std_types.h</text>
</a>
</g>
</g>
<!-- Node1&#45;&gt;Node43 -->
<g id="edge75_Node000001_Node000043" class="edge">
<title>Node1&#45;&gt;Node43</title>
<g id="a_edge75_Node000001_Node000043"><a xlink:title=" ">
<path fill="none" stroke="#63b8ff" d="M867.92,-824.96C837.91,-790.82 773.42,-718.37 716,-660 706.35,-650.19 695.17,-639.58 686.14,-631.18"/>
<polygon fill="#63b8ff" stroke="#63b8ff" points="688.27,-628.38 678.55,-624.17 683.53,-633.53 688.27,-628.38"/>
</a>
</g>
</g>
<!-- Node45 -->
<g id="Node000045" class="node">
<title>Node45</title>
<g id="a_Node000045"><a xlink:href="c__types_8h.html" target="_top" xlink:title=" ">
<polygon fill="white" stroke="#666666" points="702,-789 620,-789 620,-770 702,-770 702,-789"/>
<text text-anchor="middle" x="661" y="-777" font-family="Helvetica,sans-Serif" font-size="10.00">util/c_types.h</text>
</a>
</g>
</g>
<!-- Node1&#45;&gt;Node45 -->
<g id="edge65_Node000001_Node000045" class="edge">
<title>Node1&#45;&gt;Node45</title>
<g id="a_edge65_Node000001_Node000045"><a xlink:title=" ">
<path fill="none" stroke="#63b8ff" d="M816.58,-824.95C778.61,-814.1 732.74,-801 700.67,-791.84"/>
<polygon fill="#63b8ff" stroke="#63b8ff" points="701.35,-788.39 690.78,-789.01 699.43,-795.12 701.35,-788.39"/>
</a>
</g>
</g>
<!-- Node48 -->
<g id="Node000048" class="node">
<title>Node48</title>
<g id="a_Node000048"><a xlink:href="namespace_8h.html" target="_top" xlink:title=" ">
<polygon fill="white" stroke="#666666" points="1201.5,-294 1100.5,-294 1100.5,-275 1201.5,-275 1201.5,-294"/>
<text text-anchor="middle" x="1151" y="-282" font-family="Helvetica,sans-Serif" font-size="10.00">util/namespace.h</text>
</a>
</g>
</g>
<!-- Node1&#45;&gt;Node48 -->
<g id="edge72_Node000001_Node000048" class="edge">
<title>Node1&#45;&gt;Node48</title>
<g id="a_edge72_Node000001_Node000048"><a xlink:title=" ">
<path fill="none" stroke="#63b8ff" d="M960.79,-839.29C1033.39,-829.7 1132,-802.49 1132,-725.5 1132,-725.5 1132,-725.5 1132,-393.5 1132,-361.56 1140.16,-325.1 1145.78,-303.77"/>
<polygon fill="#63b8ff" stroke="#63b8ff" points="1149.17,-304.66 1148.44,-294.09 1142.42,-302.81 1149.17,-304.66"/>
</a>
</g>
</g>
<!-- Node3 -->
<g id="Node000003" class="node">
<title>Node3</title>
<g id="a_Node000003"><a xlink:href="type_8h.html" target="_top" xlink:title="Defines typet, type_with_subtypet and type_with_subtypest.">
<polygon fill="white" stroke="#666666" points="279,-459 213,-459 213,-440 279,-440 279,-459"/>
<text text-anchor="middle" x="246" y="-447" font-family="Helvetica,sans-Serif" font-size="10.00">util/type.h</text>
</a>
</g>
</g>
<!-- Node2&#45;&gt;Node3 -->
<g id="edge2_Node000002_Node000003" class="edge">
<title>Node2&#45;&gt;Node3</title>
<g id="a_edge2_Node000002_Node000003"><a xlink:title=" ">
<path fill="none" stroke="#63b8ff" d="M205.31,-604.74C212.05,-579.2 231.77,-504.43 241.06,-469.23"/>
<polygon fill="#63b8ff" stroke="#63b8ff" points="244.51,-469.87 243.68,-459.31 237.74,-468.08 244.51,-469.87"/>
</a>
</g>
</g>
<!-- Node4 -->
<g id="Node000004" class="node">
<title>Node4</title>
<g id="a_Node000004"><a xlink:href="source__location_8h.html" target="_top" xlink:title=" ">
<polygon fill="white" stroke="#666666" points="245,-294 143,-294 143,-275 245,-275 245,-294"/>
<text text-anchor="middle" x="194" y="-282" font-family="Helvetica,sans-Serif" font-size="10.00">source_location.h</text>
</a>
</g>
</g>
<!-- Node3&#45;&gt;Node4 -->
<g id="edge3_Node000003_Node000004" class="edge">
<title>Node3&#45;&gt;Node4</title>
<g id="a_edge3_Node000003_Node000004"><a xlink:title=" ">
<path fill="none" stroke="#63b8ff" d="M234.1,-439.73C224.16,-431.67 210.59,-418.74 204,-404 189.37,-371.28 189.99,-328.45 191.9,-304.26"/>
<polygon fill="#63b8ff" stroke="#63b8ff" points="195.41,-304.3 192.88,-294.01 188.44,-303.63 195.41,-304.3"/>
</a>
</g>
</g>
<!-- Node30 -->
<g id="Node000030" class="node">
<title>Node30</title>
<g id="a_Node000030"><a xlink:href="validate_8h.html" target="_top" xlink:title=" ">
<polygon fill="white" stroke="#666666" points="278.5,-404 213.5,-404 213.5,-385 278.5,-385 278.5,-404"/>
<text text-anchor="middle" x="246" y="-392" font-family="Helvetica,sans-Serif" font-size="10.00">validate.h</text>
</a>
</g>
</g>
<!-- Node3&#45;&gt;Node30 -->
<g id="edge27_Node000003_Node000030" class="edge">
<title>Node3&#45;&gt;Node30</title>
<g id="a_edge27_Node000003_Node000030"><a xlink:title=" ">
<path fill="none" stroke="#63b8ff" d="M246,-439.75C246,-432.8 246,-422.85 246,-414.13"/>
<polygon fill="#63b8ff" stroke="#63b8ff" points="249.5,-414.09 246,-404.09 242.5,-414.09 249.5,-414.09"/>
</a>
</g>
</g>
<!-- Node32 -->
<g id="Node000032" class="node">
<title>Node32</title>
<g id="a_Node000032"><a xlink:href="validation__mode_8h.html" target="_top" xlink:title=" ">
<polygon fill="white" stroke="#666666" points="438.5,-349 331.5,-349 331.5,-330 438.5,-330 438.5,-349"/>
<text text-anchor="middle" x="385" y="-337" font-family="Helvetica,sans-Serif" font-size="10.00">validation_mode.h</text>
</a>
</g>
</g>
<!-- Node3&#45;&gt;Node32 -->
<g id="edge35_Node000003_Node000032" class="edge">
<title>Node3&#45;&gt;Node32</title>
<g id="a_edge35_Node000003_Node000032"><a xlink:title=" ">
<path fill="none" stroke="#63b8ff" d="M256.55,-439.99C271.79,-427.73 300.9,-404.42 326,-385 338.94,-374.99 353.62,-363.91 365.11,-355.31"/>
<polygon fill="#63b8ff" stroke="#63b8ff" points="367.26,-358.07 373.18,-349.28 363.08,-352.46 367.26,-358.07"/>
</a>
</g>
</g>
<!-- Node33 -->
<g id="Node000033" class="node">
<title>Node33</title>
<g id="a_Node000033"><a xlink:href="validate__types_8h.html" target="_top" xlink:title=" ">
<polygon fill="white" stroke="#666666" points="433,-404 335,-404 335,-385 433,-385 433,-404"/>
<text text-anchor="middle" x="384" y="-392" font-family="Helvetica,sans-Serif" font-size="10.00">validate_types.h</text>
</a>
</g>
</g>
<!-- Node3&#45;&gt;Node33 -->
<g id="edge34_Node000003_Node000033" class="edge">
<title>Node3&#45;&gt;Node33</title>
<g id="a_edge34_Node000003_Node000033"><a xlink:title=" ">
<path fill="none" stroke="#63b8ff" d="M268.17,-439.98C290.77,-431.3 326.06,-417.75 351.75,-407.88"/>
<polygon fill="#63b8ff" stroke="#63b8ff" points="353.34,-411.02 361.42,-404.17 350.83,-404.49 353.34,-411.02"/>
</a>
</g>
</g>
<!-- Node5 -->
<g id="Node000005" class="node">
<title>Node5</title>
<g id="a_Node000005"><a xlink:href="deprecate_8h.html" target="_top" xlink:title=" ">
<polygon fill="white" stroke="#666666" points="140,-239 66,-239 66,-220 140,-220 140,-239"/>
<text text-anchor="middle" x="103" y="-227" font-family="Helvetica,sans-Serif" font-size="10.00">deprecate.h</text>
</a>
</g>
</g>
<!-- Node4&#45;&gt;Node5 -->
<g id="edge4_Node000004_Node000005" class="edge">
<title>Node4&#45;&gt;Node5</title>
<g id="a_edge4_Node000004_Node000005"><a xlink:title=" ">
<path fill="none" stroke="#63b8ff" d="M179.38,-274.98C165.14,-266.69 143.25,-253.94 126.55,-244.22"/>
<polygon fill="#63b8ff" stroke="#63b8ff" points="128.29,-241.18 117.89,-239.17 124.77,-247.23 128.29,-241.18"/>
</a>
</g>
</g>
<!-- Node6 -->
<g id="Node000006" class="node">
<title>Node6</title>
<g id="a_Node000006"><a xlink:href="irep_8h.html" target="_top" xlink:title=" ">
<polygon fill="white" stroke="#666666" points="605,-239 561,-239 561,-220 605,-220 605,-239"/>
<text text-anchor="middle" x="583" y="-227" font-family="Helvetica,sans-Serif" font-size="10.00">irep.h</text>
</a>
</g>
</g>
<!-- Node4&#45;&gt;Node6 -->
<g id="edge5_Node000004_Node000006" class="edge">
<title>Node4&#45;&gt;Node6</title>
<g id="a_edge5_Node000004_Node000006"><a xlink:title=" ">
<path fill="none" stroke="#63b8ff" d="M245.25,-276.52C326.72,-265.42 483.42,-244.07 550.85,-234.88"/>
<polygon fill="#63b8ff" stroke="#63b8ff" points="551.45,-238.33 560.88,-233.51 550.5,-231.4 551.45,-238.33"/>
</a>
</g>
</g>
<!-- Node7 -->
<g id="Node000007" class="node">
<title>Node7</title>
<g id="a_Node000007"><a xlink:title=" ">
<polygon fill="#e0e0e0" stroke="#999999" points="367,-19 323,-19 323,0 367,0 367,-19"/>
<text text-anchor="middle" x="345" y="-7" font-family="Helvetica,sans-Serif" font-size="10.00">string</text>
</a>
</g>
</g>
<!-- Node4&#45;&gt;Node7 -->
<g id="edge26_Node000004_Node000007" class="edge">
<title>Node4&#45;&gt;Node7</title>
<g id="a_edge26_Node000004_Node000007"><a xlink:title=" ">
<path fill="none" stroke="#63b8ff" d="M201.94,-274.75C209.03,-266.3 218.9,-252.79 223,-239 230.22,-214.71 212.97,-208.85 208,-184 196.76,-127.78 174.3,-101.38 208,-55 231.77,-22.28 280.18,-13.14 312.61,-10.85"/>
<polygon fill="#63b8ff" stroke="#63b8ff" points="313.14,-14.33 322.94,-10.31 312.77,-7.34 313.14,-14.33"/>
</a>
</g>
</g>
<!-- Node29 -->
<g id="Node000029" class="node">
<title>Node29</title>
<g id="a_Node000029"><a xlink:title=" ">
<polygon fill="#e0e0e0" stroke="#999999" points="214,-239 158,-239 158,-220 214,-220 214,-239"/>
<text text-anchor="middle" x="186" y="-227" font-family="Helvetica,sans-Serif" font-size="10.00">optional</text>
</a>
</g>
</g>
<!-- Node4&#45;&gt;Node29 -->
<g id="edge25_Node000004_Node000029" class="edge">
<title>Node4&#45;&gt;Node29</title>
<g id="a_edge25_Node000004_Node000029"><a xlink:title=" ">
<path fill="none" stroke="#63b8ff" d="M192.68,-274.75C191.63,-267.8 190.13,-257.85 188.81,-249.13"/>
<polygon fill="#63b8ff" stroke="#63b8ff" points="192.25,-248.45 187.3,-239.09 185.33,-249.5 192.25,-248.45"/>
</a>
</g>
</g>
<!-- Node6&#45;&gt;Node7 -->
<g id="edge6_Node000006_Node000007" class="edge">
<title>Node6&#45;&gt;Node7</title>
<g id="a_edge6_Node000006_Node000007"><a xlink:title=" ">
<path fill="none" stroke="#63b8ff" d="M560.83,-228.83C505.93,-228.23 364.7,-217.83 317,-129 299.24,-95.93 319.58,-51.74 333.72,-27.75"/>
<polygon fill="#63b8ff" stroke="#63b8ff" points="336.8,-29.42 339.09,-19.07 330.85,-25.73 336.8,-29.42"/>
</a>
</g>
</g>
<!-- Node8 -->
<g id="Node000008" class="node">
<title>Node8</title>
<g id="a_Node000008"><a xlink:title=" ">
<polygon fill="#e0e0e0" stroke="#999999" points="606.5,-184 559.5,-184 559.5,-165 606.5,-165 606.5,-184"/>
<text text-anchor="middle" x="583" y="-172" font-family="Helvetica,sans-Serif" font-size="10.00">vector</text>
</a>
</g>
</g>
<!-- Node6&#45;&gt;Node8 -->
<g id="edge7_Node000006_Node000008" class="edge">
<title>Node6&#45;&gt;Node8</title>
<g id="a_edge7_Node000006_Node000008"><a xlink:title=" ">
<path fill="none" stroke="#63b8ff" d="M583,-219.75C583,-212.8 583,-202.85 583,-194.13"/>
<polygon fill="#63b8ff" stroke="#63b8ff" points="586.5,-194.09 583,-184.09 579.5,-194.09 586.5,-194.09"/>
</a>
</g>
</g>
<!-- Node6&#45;&gt;Node9 -->
<g id="edge8_Node000006_Node000009" class="edge">
<title>Node6&#45;&gt;Node9</title>
<g id="a_edge8_Node000006_Node000009"><a xlink:title=" ">
<path fill="none" stroke="#63b8ff" d="M605.18,-225.08C639.37,-219.33 706.58,-206.13 760,-184 829.31,-155.28 903.17,-105.17 937.83,-80.33"/>
<polygon fill="#63b8ff" stroke="#63b8ff" points="940.1,-83.01 946.16,-74.31 936,-77.33 940.1,-83.01"/>
</a>
</g>
</g>
<!-- Node13 -->
<g id="Node000013" class="node">
<title>Node13</title>
<g id="a_Node000013"><a xlink:href="irep__ids_8h.html" target="_top" xlink:title="util">
<polygon fill="white" stroke="#666666" points="473,-184 409,-184 409,-165 473,-165 473,-184"/>
<text text-anchor="middle" x="441" y="-172" font-family="Helvetica,sans-Serif" font-size="10.00">irep_ids.h</text>
</a>
</g>
</g>
<!-- Node6&#45;&gt;Node13 -->
<g id="edge13_Node000006_Node000013" class="edge">
<title>Node6&#45;&gt;Node13</title>
<g id="a_edge13_Node000006_Node000013"><a xlink:title=" ">
<path fill="none" stroke="#63b8ff" d="M560.81,-220.22C537.43,-211.49 500.37,-197.66 473.65,-187.69"/>
<polygon fill="#63b8ff" stroke="#63b8ff" points="474.57,-184.29 463.97,-184.07 472.12,-190.85 474.57,-184.29"/>
</a>
</g>
</g>
<!-- Node24 -->
<g id="Node000024" class="node">
<title>Node24</title>
<g id="a_Node000024"><a xlink:href="forward__list__as__map_8h.html" target="_top" xlink:title=" ">
<polygon fill="white" stroke="#666666" points="751.5,-184 624.5,-184 624.5,-165 751.5,-165 751.5,-184"/>
<text text-anchor="middle" x="688" y="-172" font-family="Helvetica,sans-Serif" font-size="10.00">forward_list_as_map.h</text>
</a>
</g>
</g>
<!-- Node6&#45;&gt;Node24 -->
<g id="edge18_Node000006_Node000024" class="edge">
<title>Node6&#45;&gt;Node24</title>
<g id="a_edge18_Node000006_Node000024"><a xlink:title=" ">
<path fill="none" stroke="#63b8ff" d="M599.87,-219.98C616.61,-211.54 642.5,-198.47 661.89,-188.68"/>
<polygon fill="#63b8ff" stroke="#63b8ff" points="663.47,-191.8 670.82,-184.17 660.32,-185.55 663.47,-191.8"/>
</a>
</g>
</g>
<!-- Node9&#45;&gt;Node7 -->
<g id="edge11_Node000009_Node000007" class="edge">
<title>Node9&#45;&gt;Node7</title>
<g id="a_edge11_Node000009_Node000007"><a xlink:title=" ">
<path fill="none" stroke="#63b8ff" d="M923.29,-60.5C814.69,-51.11 482.42,-22.38 377.26,-13.29"/>
<polygon fill="#63b8ff" stroke="#63b8ff" points="377.52,-9.8 367.25,-12.42 376.91,-16.77 377.52,-9.8"/>
</a>
</g>
</g>
<!-- Node10 -->
<g id="Node000010" class="node">
<title>Node10</title>
<g id="a_Node000010"><a xlink:title=" ">
<polygon fill="#e0e0e0" stroke="#999999" points="946.5,-19 897.5,-19 897.5,0 946.5,0 946.5,-19"/>
<text text-anchor="middle" x="922" y="-7" font-family="Helvetica,sans-Serif" font-size="10.00">cstdlib</text>
</a>
</g>
</g>
<!-- Node9&#45;&gt;Node10 -->
<g id="edge9_Node000009_Node000010" class="edge">
<title>Node9&#45;&gt;Node10</title>
<g id="a_edge9_Node000009_Node000010"><a xlink:title=" ">
<path fill="none" stroke="#63b8ff" d="M952.06,-54.75C947.02,-47.34 939.66,-36.5 933.49,-27.41"/>
<polygon fill="#63b8ff" stroke="#63b8ff" points="936.35,-25.39 927.83,-19.09 930.56,-29.33 936.35,-25.39"/>
</a>
</g>
</g>
<!-- Node11 -->
<g id="Node000011" class="node">
<title>Node11</title>
<g id="a_Node000011"><a xlink:title=" ">
<polygon fill="#e0e0e0" stroke="#999999" points="1021,-19 965,-19 965,0 1021,0 1021,-19"/>
<text text-anchor="middle" x="993" y="-7" font-family="Helvetica,sans-Serif" font-size="10.00">sstream</text>
</a>
</g>
</g>
<!-- Node9&#45;&gt;Node11 -->
<g id="edge10_Node000009_Node000011" class="edge">
<title>Node9&#45;&gt;Node11</title>
<g id="a_edge10_Node000009_Node000011"><a xlink:title=" ">
<path fill="none" stroke="#63b8ff" d="M963.78,-54.75C968.62,-47.42 975.68,-36.73 981.64,-27.7"/>
<polygon fill="#63b8ff" stroke="#63b8ff" points="984.74,-29.36 987.33,-19.09 978.9,-25.5 984.74,-29.36"/>
</a>
</g>
</g>
<!-- Node12 -->
<g id="Node000012" class="node">
<title>Node12</title>
<g id="a_Node000012"><a xlink:title=" ">
<polygon fill="#e0e0e0" stroke="#999999" points="181.5,-19 112.5,-19 112.5,0 181.5,0 181.5,-19"/>
<text text-anchor="middle" x="147" y="-7" font-family="Helvetica,sans-Serif" font-size="10.00">type_traits</text>
</a>
</g>
</g>
<!-- Node9&#45;&gt;Node12 -->
<g id="edge12_Node000009_Node000012" class="edge">
<title>Node9&#45;&gt;Node12</title>
<g id="a_edge12_Node000009_Node000012"><a xlink:title=" ">
<path fill="none" stroke="#63b8ff" d="M923.41,-61.24C793.93,-52.78 337.8,-22.97 192.1,-13.45"/>
<polygon fill="#63b8ff" stroke="#63b8ff" points="191.96,-9.93 181.75,-12.77 191.51,-16.92 191.96,-9.93"/>
</a>
</g>
</g>
<!-- Node14 -->
<g id="Node000014" class="node">
<title>Node14</title>
<g id="a_Node000014"><a xlink:href="dstring_8h.html" target="_top" xlink:title="Container for C&#45;Strings.">
<polygon fill="#fff0f0" stroke="red" points="385.5,-129 326.5,-129 326.5,-110 385.5,-110 385.5,-129"/>
<text text-anchor="middle" x="356" y="-117" font-family="Helvetica,sans-Serif" font-size="10.00">dstring.h</text>
</a>
</g>
</g>
<!-- Node13&#45;&gt;Node14 -->
<g id="edge14_Node000013_Node000014" class="edge">
<title>Node13&#45;&gt;Node14</title>
<g id="a_edge14_Node000013_Node000014"><a xlink:title=" ">
<path fill="none" stroke="#63b8ff" d="M427.34,-164.98C414.16,-156.77 393.97,-144.18 378.43,-134.49"/>
<polygon fill="#63b8ff" stroke="#63b8ff" points="380.24,-131.49 369.91,-129.17 376.54,-137.43 380.24,-131.49"/>
</a>
</g>
</g>
<!-- Node23 -->
<g id="Node000023" class="node">
<title>Node23</title>
<g id="a_Node000023"><a xlink:title=" ">
<polygon fill="#e0e0e0" stroke="#999999" points="478,-129 404,-129 404,-110 478,-110 478,-129"/>
<text text-anchor="middle" x="441" y="-117" font-family="Helvetica,sans-Serif" font-size="10.00">irep_ids.def</text>
</a>
</g>
</g>
<!-- Node13&#45;&gt;Node23 -->
<g id="edge17_Node000013_Node000023" class="edge">
<title>Node13&#45;&gt;Node23</title>
<g id="a_edge17_Node000013_Node000023"><a xlink:title=" ">
<path fill="none" stroke="#63b8ff" d="M441,-164.75C441,-157.8 441,-147.85 441,-139.13"/>
<polygon fill="#63b8ff" stroke="#63b8ff" points="444.5,-139.09 441,-129.09 437.5,-139.09 444.5,-139.09"/>
</a>
</g>
</g>
<!-- Node14&#45;&gt;Node7 -->
<g id="edge16_Node000014_Node000007" class="edge">
<title>Node14&#45;&gt;Node7</title>
<g id="a_edge16_Node000014_Node000007"><a xlink:title=" ">
<path fill="none" stroke="#63b8ff" d="M355.1,-109.66C353.32,-92.17 349.31,-52.8 346.91,-29.27"/>
<polygon fill="#63b8ff" stroke="#63b8ff" points="350.38,-28.75 345.88,-19.16 343.41,-29.46 350.38,-28.75"/>
</a>
</g>
</g>
<!-- Node15 -->
<g id="Node000015" class="node">
<title>Node15</title>
<g id="a_Node000015"><a xlink:title=" ">
<polygon fill="#e0e0e0" stroke="#999999" points="298,-74 250,-74 250,-55 298,-55 298,-74"/>
<text text-anchor="middle" x="274" y="-62" font-family="Helvetica,sans-Serif" font-size="10.00">iosfwd</text>
</a>
</g>
</g>
<!-- Node14&#45;&gt;Node15 -->
<g id="edge15_Node000014_Node000015" class="edge">
<title>Node14&#45;&gt;Node15</title>
<g id="a_edge15_Node000014_Node000015"><a xlink:title=" ">
<path fill="none" stroke="#63b8ff" d="M342.83,-109.98C330.23,-101.84 311,-89.41 296.06,-79.76"/>
<polygon fill="#63b8ff" stroke="#63b8ff" points="297.71,-76.66 287.41,-74.17 293.91,-82.54 297.71,-76.66"/>
</a>
</g>
</g>
<!-- Node24&#45;&gt;Node25 -->
<g id="edge19_Node000024_Node000025" class="edge">
<title>Node24&#45;&gt;Node25</title>
<g id="a_edge19_Node000024_Node000025"><a xlink:title=" ">
<path fill="none" stroke="#63b8ff" d="M703.42,-164.98C718.45,-156.69 741.54,-143.94 759.16,-134.22"/>
<polygon fill="#63b8ff" stroke="#63b8ff" points="761.23,-137.07 768.3,-129.17 757.85,-130.94 761.23,-137.07"/>
</a>
</g>
</g>
<!-- Node26 -->
<g id="Node000026" class="node">
<title>Node26</title>
<g id="a_Node000026"><a xlink:title=" ">
<polygon fill="#e0e0e0" stroke="#999999" points="734,-129 660,-129 660,-110 734,-110 734,-129"/>
<text text-anchor="middle" x="697" y="-117" font-family="Helvetica,sans-Serif" font-size="10.00">forward_list</text>
</a>
</g>
</g>
<!-- Node24&#45;&gt;Node26 -->
<g id="edge20_Node000024_Node000026" class="edge">
<title>Node24&#45;&gt;Node26</title>
<g id="a_edge20_Node000024_Node000026"><a xlink:title=" ">
<path fill="none" stroke="#63b8ff" d="M689.49,-164.75C690.67,-157.8 692.36,-147.85 693.84,-139.13"/>
<polygon fill="#63b8ff" stroke="#63b8ff" points="697.32,-139.53 695.54,-129.09 690.42,-138.36 697.32,-139.53"/>
</a>
</g>
</g>
<!-- Node27 -->
<g id="Node000027" class="node">
<title>Node27</title>
<g id="a_Node000027"><a xlink:href="as__const_8h.html" target="_top" xlink:title=" ">
<polygon fill="white" stroke="#666666" points="564,-129 496,-129 496,-110 564,-110 564,-129"/>
<text text-anchor="middle" x="530" y="-117" font-family="Helvetica,sans-Serif" font-size="10.00">as_const.h</text>
</a>
</g>
</g>
<!-- Node24&#45;&gt;Node27 -->
<g id="edge21_Node000024_Node000027" class="edge">
<title>Node24&#45;&gt;Node27</title>
<g id="a_edge21_Node000024_Node000027"><a xlink:title=" ">
<path fill="none" stroke="#63b8ff" d="M662.61,-164.98C636.2,-156.13 594.65,-142.19 565.11,-132.28"/>
<polygon fill="#63b8ff" stroke="#63b8ff" points="566.18,-128.94 555.58,-129.08 563.95,-135.58 566.18,-128.94"/>
</a>
</g>
</g>
<!-- Node28 -->
<g id="Node000028" class="node">
<title>Node28</title>
<g id="a_Node000028"><a xlink:href="narrow_8h.html" target="_top" xlink:title=" ">
<polygon fill="white" stroke="#666666" points="641.5,-129 582.5,-129 582.5,-110 641.5,-110 641.5,-129"/>
<text text-anchor="middle" x="612" y="-117" font-family="Helvetica,sans-Serif" font-size="10.00">narrow.h</text>
</a>
</g>
</g>
<!-- Node24&#45;&gt;Node28 -->
<g id="edge22_Node000024_Node000028" class="edge">
<title>Node24&#45;&gt;Node28</title>
<g id="a_edge22_Node000024_Node000028"><a xlink:title=" ">
<path fill="none" stroke="#63b8ff" d="M675.79,-164.98C664.22,-156.92 646.62,-144.65 632.84,-135.03"/>
<polygon fill="#63b8ff" stroke="#63b8ff" points="634.64,-132.02 624.43,-129.17 630.63,-137.76 634.64,-132.02"/>
</a>
</g>
</g>
<!-- Node28&#45;&gt;Node9 -->
<g id="edge24_Node000028_Node000009" class="edge">
<title>Node28&#45;&gt;Node9</title>
<g id="a_edge24_Node000028_Node000009"><a xlink:title=" ">
<path fill="none" stroke="#63b8ff" d="M641.77,-111.79C644.88,-111.15 648,-110.54 651,-110 743.73,-93.2 853.14,-78.57 913.09,-71"/>
<polygon fill="#63b8ff" stroke="#63b8ff" points="913.85,-74.43 923.34,-69.71 912.98,-67.49 913.85,-74.43"/>
</a>
</g>
</g>
<!-- Node28&#45;&gt;Node12 -->
<g id="edge23_Node000028_Node000012" class="edge">
<title>Node28&#45;&gt;Node12</title>
<g id="a_edge23_Node000028_Node000012"><a xlink:title=" ">
<path fill="none" stroke="#63b8ff" d="M582.2,-111.58C502.72,-93.12 285.29,-42.62 191.28,-20.78"/>
<polygon fill="#63b8ff" stroke="#63b8ff" points="192.04,-17.37 181.51,-18.51 190.46,-24.19 192.04,-17.37"/>
</a>
</g>
</g>
<!-- Node30&#45;&gt;Node12 -->
<g id="edge28_Node000030_Node000012" class="edge">
<title>Node30&#45;&gt;Node12</title>
<g id="a_edge28_Node000030_Node000012"><a xlink:title=" ">
<path fill="none" stroke="#63b8ff" d="M213.04,-391.23C154.39,-385.2 38,-363.42 38,-285.5 38,-285.5 38,-285.5 38,-118.5 38,-73.28 85.92,-40.55 118.22,-23.62"/>
<polygon fill="#63b8ff" stroke="#63b8ff" points="119.9,-26.69 127.26,-19.07 116.75,-20.44 119.9,-26.69"/>
</a>
</g>
</g>
<!-- Node31 -->
<g id="Node000031" class="node">
<title>Node31</title>
<g id="a_Node000031"><a xlink:href="exception__utils_8h.html" target="_top" xlink:title=" ">
<polygon fill="white" stroke="#666666" points="313,-349 213,-349 213,-330 313,-330 313,-349"/>
<text text-anchor="middle" x="263" y="-337" font-family="Helvetica,sans-Serif" font-size="10.00">exception_utils.h</text>
</a>
</g>
</g>
<!-- Node30&#45;&gt;Node31 -->
<g id="edge29_Node000030_Node000031" class="edge">
<title>Node30&#45;&gt;Node31</title>
<g id="a_edge29_Node000030_Node000031"><a xlink:title=" ">
<path fill="none" stroke="#63b8ff" d="M248.81,-384.75C251.06,-377.72 254.3,-367.62 257.12,-358.84"/>
<polygon fill="#63b8ff" stroke="#63b8ff" points="260.52,-359.68 260.25,-349.09 253.86,-357.54 260.52,-359.68"/>
</a>
</g>
</g>
<!-- Node30&#45;&gt;Node32 -->
<g id="edge33_Node000030_Node000032" class="edge">
<title>Node30&#45;&gt;Node32</title>
<g id="a_edge33_Node000030_Node000032"><a xlink:title=" ">
<path fill="none" stroke="#63b8ff" d="M268.33,-384.98C291.2,-376.27 326.96,-362.63 352.86,-352.75"/>
<polygon fill="#63b8ff" stroke="#63b8ff" points="354.16,-356 362.26,-349.17 351.67,-349.46 354.16,-356"/>
</a>
</g>
</g>
<!-- Node31&#45;&gt;Node4 -->
<g id="edge32_Node000031_Node000004" class="edge">
<title>Node31&#45;&gt;Node4</title>
<g id="a_edge32_Node000031_Node000004"><a xlink:title=" ">
<path fill="none" stroke="#63b8ff" d="M251.91,-329.98C241.51,-322 225.74,-309.88 213.28,-300.31"/>
<polygon fill="#63b8ff" stroke="#63b8ff" points="215.35,-297.49 205.29,-294.17 211.09,-303.04 215.35,-297.49"/>
</a>
</g>
</g>
<!-- Node31&#45;&gt;Node7 -->
<g id="edge30_Node000031_Node000007" class="edge">
<title>Node31&#45;&gt;Node7</title>
<g id="a_edge30_Node000031_Node000007"><a xlink:title=" ">
<path fill="none" stroke="#63b8ff" d="M261.85,-329.81C258.77,-306.33 250.33,-239.69 246,-184 242.21,-135.21 242.11,-122.93 241,-74 240.81,-65.56 236.35,-62.05 241,-55 256.8,-31.05 288.45,-19.94 312.71,-14.82"/>
<polygon fill="#63b8ff" stroke="#63b8ff" points="313.39,-18.25 322.58,-12.97 312.11,-11.37 313.39,-18.25"/>
</a>
</g>
</g>
<!-- Node31&#45;&gt;Node9 -->
<g id="edge31_Node000031_Node000009" class="edge">
<title>Node31&#45;&gt;Node9</title>
<g id="a_edge31_Node000031_Node000009"><a xlink:title=" ">
<path fill="none" stroke="#63b8ff" d="M304.15,-329.99C394.99,-310.46 618.64,-258.34 795,-184 841.74,-164.3 854.5,-159.54 895,-129 913.69,-114.91 932.21,-95.4 944.28,-81.74"/>
<polygon fill="#63b8ff" stroke="#63b8ff" points="947.01,-83.93 950.91,-74.08 941.72,-79.35 947.01,-83.93"/>
</a>
</g>
</g>
<!-- Node34&#45;&gt;Node9 -->
<g id="edge38_Node000034_Node000009" class="edge">
<title>Node34&#45;&gt;Node9</title>
<g id="a_edge38_Node000034_Node000009"><a xlink:title=" ">
<path fill="none" stroke="#63b8ff" d="M920.4,-714.96C965.03,-701.83 1036,-672.06 1036,-615.5 1036,-615.5 1036,-615.5 1036,-393.5 1036,-319.31 1072,-304.69 1072,-230.5 1072,-230.5 1072,-230.5 1072,-173.5 1072,-127.47 1022.42,-95.18 988.65,-78.53"/>
<polygon fill="#63b8ff" stroke="#63b8ff" points="989.71,-75.16 979.18,-74.05 986.72,-81.49 989.71,-75.16"/>
</a>
</g>
</g>
<!-- Node35 -->
<g id="Node000035" class="node">
<title>Node35</title>
<g id="a_Node000035"><a xlink:href="mp__arith_8h.html" target="_top" xlink:title=" ">
<polygon fill="white" stroke="#666666" points="882.5,-569 813.5,-569 813.5,-550 882.5,-550 882.5,-569"/>
<text text-anchor="middle" x="848" y="-557" font-family="Helvetica,sans-Serif" font-size="10.00">mp_arith.h</text>
</a>
</g>
</g>
<!-- Node34&#45;&gt;Node35 -->
<g id="edge39_Node000034_Node000035" class="edge">
<title>Node34&#45;&gt;Node35</title>
<g id="a_edge39_Node000034_Node000035"><a xlink:title=" ">
<path fill="none" stroke="#63b8ff" d="M883.01,-714.74C877.21,-689.2 860.24,-614.43 852.25,-579.23"/>
<polygon fill="#63b8ff" stroke="#63b8ff" points="855.63,-578.28 850,-569.31 848.8,-579.83 855.63,-578.28"/>
</a>
</g>
</g>
<!-- Node37 -->
<g id="Node000037" class="node">
<title>Node37</title>
<g id="a_Node000037"><a xlink:href="std__expr_8h.html" target="_top" xlink:title="API to expression classes.">
<polygon fill="white" stroke="#666666" points="831.5,-679 764.5,-679 764.5,-660 831.5,-660 831.5,-679"/>
<text text-anchor="middle" x="798" y="-667" font-family="Helvetica,sans-Serif" font-size="10.00">std_expr.h</text>
</a>
</g>
</g>
<!-- Node34&#45;&gt;Node37 -->
<g id="edge43_Node000034_Node000037" class="edge">
<title>Node34&#45;&gt;Node37</title>
<g id="a_edge43_Node000034_Node000037"><a xlink:title=" ">
<path fill="none" stroke="#63b8ff" d="M871.02,-714.98C857.53,-706.77 836.87,-694.18 820.96,-684.49"/>
<polygon fill="#63b8ff" stroke="#63b8ff" points="822.59,-681.38 812.23,-679.17 818.95,-687.36 822.59,-681.38"/>
</a>
</g>
</g>
<!-- Node44 -->
<g id="Node000044" class="node">
<title>Node44</title>
<g id="a_Node000044"><a xlink:title=" ">
<polygon fill="#e0e0e0" stroke="#999999" points="932,-679 888,-679 888,-660 932,-660 932,-679"/>
<text text-anchor="middle" x="910" y="-667" font-family="Helvetica,sans-Serif" font-size="10.00">limits</text>
</a>
</g>
</g>
<!-- Node34&#45;&gt;Node44 -->
<g id="edge64_Node000034_Node000044" class="edge">
<title>Node34&#45;&gt;Node44</title>
<g id="a_edge64_Node000034_Node000044"><a xlink:title=" ">
<path fill="none" stroke="#63b8ff" d="M889.13,-714.75C892.51,-707.57 897.42,-697.18 901.62,-688.27"/>
<polygon fill="#63b8ff" stroke="#63b8ff" points="904.85,-689.63 905.95,-679.09 898.52,-686.64 904.85,-689.63"/>
</a>
</g>
</g>
<!-- Node35&#45;&gt;Node7 -->
<g id="edge41_Node000035_Node000007" class="edge">
<title>Node35&#45;&gt;Node7</title>
<g id="a_edge41_Node000035_Node000007"><a xlink:title=" ">
<path fill="none" stroke="#63b8ff" d="M850.95,-549.77C867.28,-499.68 941.73,-246.13 825,-110 766.26,-41.5 475.5,-18.21 377.39,-12.23"/>
<polygon fill="#63b8ff" stroke="#63b8ff" points="377.38,-8.73 367.19,-11.63 376.97,-15.72 377.38,-8.73"/>
</a>
</g>
</g>
<!-- Node35&#45;&gt;Node15 -->
<g id="edge40_Node000035_Node000015" class="edge">
<title>Node35&#45;&gt;Node15</title>
<g id="a_edge40_Node000035_Node000015"><a xlink:title=" ">
<path fill="none" stroke="#63b8ff" d="M835.24,-549.89C765.47,-502.72 430.17,-274.3 344,-184 314.7,-153.29 292.36,-108.15 281.43,-83.39"/>
<polygon fill="#63b8ff" stroke="#63b8ff" points="284.61,-81.93 277.45,-74.12 278.18,-84.69 284.61,-81.93"/>
</a>
</g>
</g>
<!-- Node36 -->
<g id="Node000036" class="node">
<title>Node36</title>
<g id="a_Node000036"><a xlink:title=" ">
<polygon fill="#e0e0e0" stroke="#999999" points="970,-514 876,-514 876,-495 970,-495 970,-514"/>
<text text-anchor="middle" x="923" y="-502" font-family="Helvetica,sans-Serif" font-size="10.00">big&#45;int/bigint.hh</text>
</a>
</g>
</g>
<!-- Node35&#45;&gt;Node36 -->
<g id="edge42_Node000035_Node000036" class="edge">
<title>Node35&#45;&gt;Node36</title>
<g id="a_edge42_Node000035_Node000036"><a xlink:title=" ">
<path fill="none" stroke="#63b8ff" d="M860.05,-549.98C871.46,-541.92 888.83,-529.65 902.43,-520.03"/>
<polygon fill="#63b8ff" stroke="#63b8ff" points="904.58,-522.8 910.73,-514.17 900.54,-517.08 904.58,-522.8"/>
</a>
</g>
</g>
<!-- Node37&#45;&gt;Node9 -->
<g id="edge56_Node000037_Node000009" class="edge">
<title>Node37&#45;&gt;Node9</title>
<g id="a_edge56_Node000037_Node000009"><a xlink:title=" ">
<path fill="none" stroke="#63b8ff" d="M831.93,-665.51C888.99,-658.41 998,-635.08 998,-560.5 998,-560.5 998,-560.5 998,-393.5 998,-267.42 1026.97,-229.91 988,-110 984.74,-99.96 978.48,-90.08 972.52,-82.2"/>
<polygon fill="#63b8ff" stroke="#63b8ff" points="975.1,-79.82 966.1,-74.24 969.66,-84.22 975.1,-79.82"/>
</a>
</g>
</g>
<!-- Node38 -->
<g id="Node000038" class="node">
<title>Node38</title>
<g id="a_Node000038"><a xlink:href="expr__cast_8h.html" target="_top" xlink:title="Templated functions to cast to specific exprt&#45;derived classes.">
<polygon fill="white" stroke="#666666" points="705.5,-569 632.5,-569 632.5,-550 705.5,-550 705.5,-569"/>
<text text-anchor="middle" x="669" y="-557" font-family="Helvetica,sans-Serif" font-size="10.00">expr_cast.h</text>
</a>
</g>
</g>
<!-- Node37&#45;&gt;Node38 -->
<g id="edge44_Node000037_Node000038" class="edge">
<title>Node37&#45;&gt;Node38</title>
<g id="a_edge44_Node000037_Node000038"><a xlink:title=" ">
<path fill="none" stroke="#63b8ff" d="M787.44,-659.66C765.51,-641.3 714.76,-598.81 687.35,-575.87"/>
<polygon fill="#63b8ff" stroke="#63b8ff" points="689.26,-572.89 679.34,-569.16 684.76,-578.26 689.26,-572.89"/>
</a>
</g>
</g>
<!-- Node37&#45;&gt;Node43 -->
<g id="edge57_Node000037_Node000043" class="edge">
<title>Node37&#45;&gt;Node43</title>
<g id="a_edge57_Node000037_Node000043"><a xlink:title=" ">
<path fill="none" stroke="#63b8ff" d="M777.27,-659.98C756.24,-651.34 723.45,-637.87 699.46,-628.02"/>
<polygon fill="#63b8ff" stroke="#63b8ff" points="700.68,-624.73 690.1,-624.17 698.02,-631.21 700.68,-624.73"/>
</a>
</g>
</g>
<!-- Node38&#45;&gt;Node9 -->
<g id="edge48_Node000038_Node000009" class="edge">
<title>Node38&#45;&gt;Node9</title>
<g id="a_edge48_Node000038_Node000009"><a xlink:title=" ">
<path fill="none" stroke="#63b8ff" d="M677.45,-549.93C723.53,-502.95 943.49,-275.42 972,-184 981.79,-152.6 976.99,-142.51 972,-110 970.65,-101.19 967.87,-91.74 965.15,-83.82"/>
<polygon fill="#63b8ff" stroke="#63b8ff" points="968.34,-82.35 961.6,-74.18 961.77,-84.77 968.34,-82.35"/>
</a>
</g>
</g>
<!-- Node38&#45;&gt;Node12 -->
<g id="edge46_Node000038_Node000012" class="edge">
<title>Node38&#45;&gt;Node12</title>
<g id="a_edge46_Node000038_Node000012"><a xlink:title=" ">
<path fill="none" stroke="#63b8ff" d="M632.37,-550.72C590.64,-541.86 520.4,-526.92 460,-514 236.77,-466.26 0,-513.78 0,-285.5 0,-285.5 0,-285.5 0,-118.5 0,-66.64 60.14,-36.94 103.49,-22.27"/>
<polygon fill="#63b8ff" stroke="#63b8ff" points="104.83,-25.51 113.28,-19.11 102.68,-18.85 104.83,-25.51"/>
</a>
</g>
</g>
<!-- Node39 -->
<g id="Node000039" class="node">
<title>Node39</title>
<g id="a_Node000039"><a xlink:title=" ">
<polygon fill="#e0e0e0" stroke="#999999" points="697.5,-514 640.5,-514 640.5,-495 697.5,-495 697.5,-514"/>
<text text-anchor="middle" x="669" y="-502" font-family="Helvetica,sans-Serif" font-size="10.00">typeinfo</text>
</a>
</g>
</g>
<!-- Node38&#45;&gt;Node39 -->
<g id="edge45_Node000038_Node000039" class="edge">
<title>Node38&#45;&gt;Node39</title>
<g id="a_edge45_Node000038_Node000039"><a xlink:title=" ">
<path fill="none" stroke="#63b8ff" d="M669,-549.75C669,-542.8 669,-532.85 669,-524.13"/>
<polygon fill="#63b8ff" stroke="#63b8ff" points="672.5,-524.09 669,-514.09 665.5,-524.09 672.5,-524.09"/>
</a>
</g>
</g>
<!-- Node40 -->
<g id="Node000040" class="node">
<title>Node40</title>
<g id="a_Node000040"><a xlink:title=" ">
<polygon fill="#e0e0e0" stroke="#999999" points="629.5,-459 564.5,-459 564.5,-440 629.5,-440 629.5,-459"/>
<text text-anchor="middle" x="597" y="-447" font-family="Helvetica,sans-Serif" font-size="10.00">functional</text>
</a>
</g>
</g>
<!-- Node38&#45;&gt;Node40 -->
<g id="edge47_Node000038_Node000040" class="edge">
<title>Node38&#45;&gt;Node40</title>
<g id="a_edge47_Node000038_Node000040"><a xlink:title=" ">
<path fill="none" stroke="#63b8ff" d="M660.54,-549.76C652.41,-541.1 640.05,-527.26 631,-514 620.98,-499.33 611.62,-481.39 605.26,-468.33"/>
<polygon fill="#63b8ff" stroke="#63b8ff" points="608.31,-466.58 600.85,-459.05 601.98,-469.59 608.31,-466.58"/>
</a>
</g>
</g>
<!-- Node41 -->
<g id="Node000041" class="node">
<title>Node41</title>
<g id="a_Node000041"><a xlink:href="expr_8h.html" target="_top" xlink:title=" ">
<polygon fill="white" stroke="#666666" points="516.5,-514 469.5,-514 469.5,-495 516.5,-495 516.5,-514"/>
<text text-anchor="middle" x="493" y="-502" font-family="Helvetica,sans-Serif" font-size="10.00">expr.h</text>
</a>
</g>
</g>
<!-- Node38&#45;&gt;Node41 -->
<g id="edge49_Node000038_Node000041" class="edge">
<title>Node38&#45;&gt;Node41</title>
<g id="a_edge49_Node000038_Node000041"><a xlink:title=" ">
<path fill="none" stroke="#63b8ff" d="M640.72,-549.98C609.55,-540.6 559.44,-525.51 526.37,-515.55"/>
<polygon fill="#63b8ff" stroke="#63b8ff" points="527.28,-512.17 516.69,-512.63 525.26,-518.87 527.28,-512.17"/>
</a>
</g>
</g>
<!-- Node41&#45;&gt;Node3 -->
<g id="edge51_Node000041_Node000003" class="edge">
<title>Node41&#45;&gt;Node3</title>
<g id="a_edge51_Node000041_Node000003"><a xlink:title=" ">
<path fill="none" stroke="#63b8ff" d="M469.32,-498.42C427.89,-489.53 341.69,-471.03 289.34,-459.8"/>
<polygon fill="#63b8ff" stroke="#63b8ff" points="289.85,-456.33 279.34,-457.65 288.38,-463.17 289.85,-456.33"/>
</a>
</g>
</g>
<!-- Node41&#45;&gt;Node27 -->
<g id="edge50_Node000041_Node000027" class="edge">
<title>Node41&#45;&gt;Node27</title>
<g id="a_edge50_Node000041_Node000027"><a xlink:title=" ">
<path fill="none" stroke="#63b8ff" d="M498.28,-494.9C508.73,-477.07 531,-434.46 531,-395.5 531,-395.5 531,-395.5 531,-228.5 531,-197.19 530.57,-160.77 530.28,-139.23"/>
<polygon fill="#63b8ff" stroke="#63b8ff" points="533.78,-139.13 530.13,-129.18 526.78,-139.23 533.78,-139.13"/>
</a>
</g>
</g>
<!-- Node41&#45;&gt;Node32 -->
<g id="edge54_Node000041_Node000032" class="edge">
<title>Node41&#45;&gt;Node32</title>
<g id="a_edge54_Node000041_Node000032"><a xlink:title=" ">
<path fill="none" stroke="#63b8ff" d="M491.16,-494.8C486.35,-473.78 471.66,-419.46 442,-385 432.05,-373.44 418.7,-362.82 407.43,-354.87"/>
<polygon fill="#63b8ff" stroke="#63b8ff" points="409.17,-351.82 398.93,-349.08 405.23,-357.6 409.17,-351.82"/>
</a>
</g>
</g>
<!-- Node41&#45;&gt;Node33 -->
<g id="edge53_Node000041_Node000033" class="edge">
<title>Node41&#45;&gt;Node33</title>
<g id="a_edge53_Node000041_Node000033"><a xlink:title=" ">
<path fill="none" stroke="#63b8ff" d="M469.22,-500.7C427.39,-495.24 343.41,-481.66 326,-459 311.99,-440.77 335.82,-421.49 357.04,-409.03"/>
<polygon fill="#63b8ff" stroke="#63b8ff" points="358.82,-412.04 365.86,-404.12 355.42,-405.93 358.82,-412.04"/>
</a>
</g>
</g>
<!-- Node41&#45;&gt;Node40 -->
<g id="edge55_Node000041_Node000040" class="edge">
<title>Node41&#45;&gt;Node40</title>
<g id="a_edge55_Node000041_Node000040"><a xlink:title=" ">
<path fill="none" stroke="#63b8ff" d="M509.71,-494.98C526.21,-486.57 551.7,-473.59 570.88,-463.81"/>
<polygon fill="#63b8ff" stroke="#63b8ff" points="572.67,-466.83 579.99,-459.17 569.49,-460.59 572.67,-466.83"/>
</a>
</g>
</g>
<!-- Node42 -->
<g id="Node000042" class="node">
<title>Node42</title>
<g id="a_Node000042"><a xlink:href="validate__expressions_8h.html" target="_top" xlink:title=" ">
<polygon fill="white" stroke="#666666" points="464.5,-459 335.5,-459 335.5,-440 464.5,-440 464.5,-459"/>
<text text-anchor="middle" x="400" y="-447" font-family="Helvetica,sans-Serif" font-size="10.00">validate_expressions.h</text>
</a>
</g>
</g>
<!-- Node41&#45;&gt;Node42 -->
<g id="edge52_Node000041_Node000042" class="edge">
<title>Node41&#45;&gt;Node42</title>
<g id="a_edge52_Node000041_Node000042"><a xlink:title=" ">
<path fill="none" stroke="#63b8ff" d="M478.06,-494.98C463.5,-486.69 441.13,-473.94 424.07,-464.22"/>
<polygon fill="#63b8ff" stroke="#63b8ff" points="425.64,-461.08 415.21,-459.17 422.17,-467.16 425.64,-461.08"/>
</a>
</g>
</g>
<!-- Node43&#45;&gt;Node9 -->
<g id="edge60_Node000043_Node000009" class="edge">
<title>Node43&#45;&gt;Node9</title>
<g id="a_edge60_Node000043_Node000009"><a xlink:title=" ">
<path fill="none" stroke="#63b8ff" d="M680.54,-604.81C690.69,-596.61 705.18,-583.44 714,-569 729.42,-543.74 734,-535.09 734,-505.5 734,-505.5 734,-505.5 734,-448.5 734,-283.97 838.03,-271.08 921,-129 930.13,-113.37 940.5,-95.57 947.93,-82.8"/>
<polygon fill="#63b8ff" stroke="#63b8ff" points="950.97,-84.53 952.98,-74.13 944.92,-81.01 950.97,-84.53"/>
</a>
</g>
</g>
<!-- Node43&#45;&gt;Node30 -->
<g id="edge62_Node000043_Node000030" class="edge">
<title>Node43&#45;&gt;Node30</title>
<g id="a_edge62_Node000043_Node000030"><a xlink:title=" ">
<path fill="none" stroke="#63b8ff" d="M632.49,-607.11C531.85,-588.67 254.56,-531.99 204,-459 192.59,-442.53 209.42,-423.3 225.04,-410.36"/>
<polygon fill="#63b8ff" stroke="#63b8ff" points="227.2,-413.11 232.95,-404.21 222.91,-407.58 227.2,-413.11"/>
</a>
</g>
</g>
<!-- Node43&#45;&gt;Node35 -->
<g id="edge61_Node000043_Node000035" class="edge">
<title>Node43&#45;&gt;Node35</title>
<g id="a_edge61_Node000043_Node000035"><a xlink:title=" ">
<path fill="none" stroke="#63b8ff" d="M697.76,-604.98C727.94,-596.05 775.57,-581.94 809.1,-572.02"/>
<polygon fill="#63b8ff" stroke="#63b8ff" points="810.42,-575.28 819.02,-569.08 808.43,-568.57 810.42,-575.28"/>
</a>
</g>
</g>
<!-- Node43&#45;&gt;Node38 -->
<g id="edge59_Node000043_Node000038" class="edge">
<title>Node43&#45;&gt;Node38</title>
<g id="a_edge59_Node000043_Node000038"><a xlink:title=" ">
<path fill="none" stroke="#63b8ff" d="M669,-604.75C669,-597.8 669,-587.85 669,-579.13"/>
<polygon fill="#63b8ff" stroke="#63b8ff" points="672.5,-579.09 669,-569.09 665.5,-579.09 672.5,-579.09"/>
</a>
</g>
</g>
<!-- Node43&#45;&gt;Node41 -->
<g id="edge58_Node000043_Node000041" class="edge">
<title>Node43&#45;&gt;Node41</title>
<g id="a_edge58_Node000043_Node000041"><a xlink:title=" ">
<path fill="none" stroke="#63b8ff" d="M632.28,-612.79C596.88,-610.13 544.08,-600.62 512,-569 500.1,-557.27 495.59,-538.42 493.91,-524.3"/>
<polygon fill="#63b8ff" stroke="#63b8ff" points="497.39,-523.9 493.08,-514.22 490.41,-524.47 497.39,-523.9"/>
</a>
</g>
</g>
<!-- Node20 -->
<g id="Node000020" class="node">
<title>Node20</title>
<g id="a_Node000020"><a xlink:title=" ">
<polygon fill="#e0e0e0" stroke="#999999" points="614.5,-569 521.5,-569 521.5,-550 614.5,-550 614.5,-569"/>
<text text-anchor="middle" x="568" y="-557" font-family="Helvetica,sans-Serif" font-size="10.00">unordered_map</text>
</a>
</g>
</g>
<!-- Node43&#45;&gt;Node20 -->
<g id="edge63_Node000043_Node000020" class="edge">
<title>Node43&#45;&gt;Node20</title>
<g id="a_edge63_Node000043_Node000020"><a xlink:title=" ">
<path fill="none" stroke="#63b8ff" d="M652.77,-604.98C636.82,-596.61 612.22,-583.7 593.62,-573.95"/>
<polygon fill="#63b8ff" stroke="#63b8ff" points="595,-570.72 584.52,-569.17 591.75,-576.92 595,-570.72"/>
</a>
</g>
</g>
<!-- Node45&#45;&gt;Node5 -->
<g id="edge66_Node000045_Node000005" class="edge">
<title>Node45&#45;&gt;Node5</title>
<g id="a_edge66_Node000045_Node000005"><a xlink:title=" ">
<path fill="none" stroke="#63b8ff" d="M619.96,-772.65C492.03,-754.14 109,-696.53 109,-670.5 109,-670.5 109,-670.5 109,-338.5 109,-307.14 106.45,-270.74 104.67,-249.22"/>
<polygon fill="#63b8ff" stroke="#63b8ff" points="108.15,-248.83 103.81,-239.17 101.18,-249.43 108.15,-248.83"/>
</a>
</g>
</g>
<!-- Node46 -->
<g id="Node000046" class="node">
<title>Node46</title>
<g id="a_Node000046"><a xlink:href="pointer__expr_8h.html" target="_top" xlink:title="API to expression classes for Pointers.">
<polygon fill="white" stroke="#666666" points="704,-734 618,-734 618,-715 704,-715 704,-734"/>
<text text-anchor="middle" x="661" y="-722" font-family="Helvetica,sans-Serif" font-size="10.00">pointer_expr.h</text>
</a>
</g>
</g>
<!-- Node45&#45;&gt;Node46 -->
<g id="edge67_Node000045_Node000046" class="edge">
<title>Node45&#45;&gt;Node46</title>
<g id="a_edge67_Node000045_Node000046"><a xlink:title=" ">
<path fill="none" stroke="#63b8ff" d="M661,-769.75C661,-762.8 661,-752.85 661,-744.13"/>
<polygon fill="#63b8ff" stroke="#63b8ff" points="664.5,-744.09 661,-734.09 657.5,-744.09 664.5,-744.09"/>
</a>
</g>
</g>
<!-- Node46&#45;&gt;Node37 -->
<g id="edge70_Node000046_Node000037" class="edge">
<title>Node46&#45;&gt;Node37</title>
<g id="a_edge70_Node000046_Node000037"><a xlink:title=" ">
<path fill="none" stroke="#63b8ff" d="M683.01,-714.98C705.45,-706.3 740.48,-692.75 765.99,-682.88"/>
<polygon fill="#63b8ff" stroke="#63b8ff" points="767.52,-686.04 775.59,-679.17 765,-679.51 767.52,-686.04"/>
</a>
</g>
</g>
<!-- Node47 -->
<g id="Node000047" class="node">
<title>Node47</title>
<g id="a_Node000047"><a xlink:href="bitvector__types_8h.html" target="_top" xlink:title="Pre&#45;defined bitvector types.">
<polygon fill="white" stroke="#666666" points="707.5,-679 606.5,-679 606.5,-660 707.5,-660 707.5,-679"/>
<text text-anchor="middle" x="657" y="-667" font-family="Helvetica,sans-Serif" font-size="10.00">bitvector_types.h</text>
</a>
</g>
</g>
<!-- Node46&#45;&gt;Node47 -->
<g id="edge68_Node000046_Node000047" class="edge">
<title>Node46&#45;&gt;Node47</title>
<g id="a_edge68_Node000046_Node000047"><a xlink:title=" ">
<path fill="none" stroke="#63b8ff" d="M660.34,-714.75C659.82,-707.8 659.06,-697.85 658.41,-689.13"/>
<polygon fill="#63b8ff" stroke="#63b8ff" points="661.89,-688.8 657.65,-679.09 654.91,-689.32 661.89,-688.8"/>
</a>
</g>
</g>
<!-- Node47&#45;&gt;Node43 -->
<g id="edge69_Node000047_Node000043" class="edge">
<title>Node47&#45;&gt;Node43</title>
<g id="a_edge69_Node000047_Node000043"><a xlink:title=" ">
<path fill="none" stroke="#63b8ff" d="M658.98,-659.75C660.57,-652.72 662.86,-642.62 664.85,-633.84"/>
<polygon fill="#63b8ff" stroke="#63b8ff" points="668.26,-634.62 667.06,-624.09 661.43,-633.07 668.26,-634.62"/>
</a>
</g>
</g>
<!-- Node48&#45;&gt;Node6 -->
<g id="edge74_Node000048_Node000006" class="edge">
<title>Node48&#45;&gt;Node6</title>
<g id="a_edge74_Node000048_Node000006"><a xlink:title=" ">
<path fill="none" stroke="#63b8ff" d="M1100.34,-278.77C985.8,-268.09 709.52,-242.31 615.19,-233.5"/>
<polygon fill="#63b8ff" stroke="#63b8ff" points="615.4,-230.01 605.12,-232.56 614.75,-236.98 615.4,-230.01"/>
</a>
</g>
</g>
<!-- Node48&#45;&gt;Node9 -->
<g id="edge73_Node000048_Node000009" class="edge">
<title>Node48&#45;&gt;Node9</title>
<g id="a_edge73_Node000048_Node000009"><a xlink:title=" ">
<path fill="none" stroke="#63b8ff" d="M1150.3,-274.91C1147.58,-247.02 1135.25,-158.09 1086,-110 1063.61,-88.14 1029.93,-76.98 1002.74,-71.31"/>
<polygon fill="#63b8ff" stroke="#63b8ff" points="1003.15,-67.82 992.68,-69.39 1001.84,-74.7 1003.15,-67.82"/>
</a>
</g>
</g>
</g>
</svg>
