<?xml version="1.0" encoding="UTF-8" standalone="no"?>
<!DOCTYPE svg PUBLIC "-//W3C//DTD SVG 1.1//EN"
 "http://www.w3.org/Graphics/SVG/1.1/DTD/svg11.dtd">
<!-- Generated by graphviz version 2.43.0 (0)
 -->
<!-- Title: /home/runner/work/cbmc/cbmc/src/solvers/flattening/c_bit_field_replacement_type.cpp Pages: 1 -->
<svg width="1258pt" height="885pt"
 viewBox="0.00 0.00 1258.00 885.00" xmlns="http://www.w3.org/2000/svg" xmlns:xlink="http://www.w3.org/1999/xlink">
<g id="graph0" class="graph" transform="scale(1 1) rotate(0) translate(4 881)">
<title>/home/runner/work/cbmc/cbmc/src/solvers/flattening/c_bit_field_replacement_type.cpp</title>
<!-- Node1 -->
<g id="Node000001" class="node">
<title>Node1</title>
<g id="a_Node000001"><a xlink:title=" ">
<polygon fill="#999999" stroke="#666666" points="409.5,-877 226.5,-877 226.5,-836 409.5,-836 409.5,-877"/>
<text text-anchor="start" x="234.5" y="-865" font-family="Helvetica,sans-Serif" font-size="10.00">/home/runner/work/cbmc</text>
<text text-anchor="start" x="234.5" y="-854" font-family="Helvetica,sans-Serif" font-size="10.00">/cbmc/src/solvers/flattening</text>
<text text-anchor="middle" x="318" y="-843" font-family="Helvetica,sans-Serif" font-size="10.00">/c_bit_field_replacement_type.cpp</text>
</a>
</g>
</g>
<!-- Node2 -->
<g id="Node000002" class="node">
<title>Node2</title>
<g id="a_Node000002"><a xlink:href="c__bit__field__replacement__type_8h.html" target="_top" xlink:title=" ">
<polygon fill="white" stroke="#666666" points="1122.5,-745 989.5,-745 989.5,-715 1122.5,-715 1122.5,-745"/>
<text text-anchor="start" x="997.5" y="-733" font-family="Helvetica,sans-Serif" font-size="10.00">c_bit_field_replacement</text>
<text text-anchor="middle" x="1056" y="-722" font-family="Helvetica,sans-Serif" font-size="10.00">_type.h</text>
</a>
</g>
</g>
<!-- Node1&#45;&gt;Node2 -->
<g id="edge1_Node000001_Node000002" class="edge">
<title>Node1&#45;&gt;Node2</title>
<g id="a_edge1_Node000001_Node000002"><a xlink:title=" ">
<path fill="none" stroke="#63b8ff" d="M409.8,-843.34C487.09,-832.81 600.47,-816.69 699,-800 796.04,-783.56 907.3,-761.55 979.47,-746.86"/>
<polygon fill="#63b8ff" stroke="#63b8ff" points="980.29,-750.26 989.38,-744.83 978.89,-743.4 980.29,-750.26"/>
</a>
</g>
</g>
<!-- Node9 -->
<g id="Node000009" class="node">
<title>Node9</title>
<g id="a_Node000009"><a xlink:href="src_2util_2invariant_8h.html" target="_top" xlink:title=" ">
<polygon fill="white" stroke="#666666" points="287.5,-74 218.5,-74 218.5,-55 287.5,-55 287.5,-74"/>
<text text-anchor="middle" x="253" y="-62" font-family="Helvetica,sans-Serif" font-size="10.00">invariant.h</text>
</a>
</g>
</g>
<!-- Node1&#45;&gt;Node9 -->
<g id="edge65_Node000001_Node000009" class="edge">
<title>Node1&#45;&gt;Node9</title>
<g id="a_edge65_Node000001_Node000009"><a xlink:title=" ">
<path fill="none" stroke="#63b8ff" d="M226.2,-852.03C172.26,-846.32 104.74,-832.52 53,-800 20.26,-779.42 0,-769.67 0,-731 0,-731 0,-731 0,-173.5 0,-84.05 135.41,-67.68 208.11,-65.33"/>
<polygon fill="#63b8ff" stroke="#63b8ff" points="208.44,-68.83 218.35,-65.08 208.27,-61.83 208.44,-68.83"/>
</a>
</g>
</g>
<!-- Node34 -->
<g id="Node000034" class="node">
<title>Node34</title>
<g id="a_Node000034"><a xlink:href="c__types_8h.html" target="_top" xlink:title=" ">
<polygon fill="white" stroke="#666666" points="690,-800 608,-800 608,-781 690,-781 690,-800"/>
<text text-anchor="middle" x="649" y="-788" font-family="Helvetica,sans-Serif" font-size="10.00">util/c_types.h</text>
</a>
</g>
</g>
<!-- Node1&#45;&gt;Node34 -->
<g id="edge36_Node000001_Node000034" class="edge">
<title>Node1&#45;&gt;Node34</title>
<g id="a_edge36_Node000001_Node000034"><a xlink:title=" ">
<path fill="none" stroke="#63b8ff" d="M409.76,-837.76C470.44,-826.03 547.74,-811.08 597.79,-801.4"/>
<polygon fill="#63b8ff" stroke="#63b8ff" points="598.58,-804.81 607.73,-799.48 597.25,-797.94 598.58,-804.81"/>
</a>
</g>
</g>
<!-- Node46 -->
<g id="Node000046" class="node">
<title>Node46</title>
<g id="a_Node000046"><a xlink:href="namespace_8h.html" target="_top" xlink:title=" ">
<polygon fill="white" stroke="#666666" points="167.5,-294 66.5,-294 66.5,-275 167.5,-275 167.5,-294"/>
<text text-anchor="middle" x="117" y="-282" font-family="Helvetica,sans-Serif" font-size="10.00">util/namespace.h</text>
</a>
</g>
</g>
<!-- Node1&#45;&gt;Node46 -->
<g id="edge66_Node000001_Node000046" class="edge">
<title>Node1&#45;&gt;Node46</title>
<g id="a_edge66_Node000001_Node000046"><a xlink:title=" ">
<path fill="none" stroke="#63b8ff" d="M226.32,-851.69C144.66,-842.78 38,-815.06 38,-731 38,-731 38,-731 38,-393.5 38,-353.78 73.25,-318.93 96.66,-300.17"/>
<polygon fill="#63b8ff" stroke="#63b8ff" points="98.87,-302.89 104.66,-294.01 94.6,-297.34 98.87,-302.89"/>
</a>
</g>
</g>
<!-- Node3 -->
<g id="Node000003" class="node">
<title>Node3</title>
<g id="a_Node000003"><a xlink:href="type_8h.html" target="_top" xlink:title="Defines typet, type_with_subtypet and type_with_subtypest.">
<polygon fill="white" stroke="#666666" points="980,-459 914,-459 914,-440 980,-440 980,-459"/>
<text text-anchor="middle" x="947" y="-447" font-family="Helvetica,sans-Serif" font-size="10.00">util/type.h</text>
</a>
</g>
</g>
<!-- Node2&#45;&gt;Node3 -->
<g id="edge2_Node000002_Node000003" class="edge">
<title>Node2&#45;&gt;Node3</title>
<g id="a_edge2_Node000002_Node000003"><a xlink:title=" ">
<path fill="none" stroke="#63b8ff" d="M1050.44,-714.81C1032.26,-668.34 974.51,-520.8 954.17,-468.83"/>
<polygon fill="#63b8ff" stroke="#63b8ff" points="957.33,-467.3 950.43,-459.26 950.81,-469.85 957.33,-467.3"/>
</a>
</g>
</g>
<!-- Node4 -->
<g id="Node000004" class="node">
<title>Node4</title>
<g id="a_Node000004"><a xlink:href="source__location_8h.html" target="_top" xlink:title=" ">
<polygon fill="white" stroke="#666666" points="1010,-294 908,-294 908,-275 1010,-275 1010,-294"/>
<text text-anchor="middle" x="959" y="-282" font-family="Helvetica,sans-Serif" font-size="10.00">source_location.h</text>
</a>
</g>
</g>
<!-- Node3&#45;&gt;Node4 -->
<g id="edge3_Node000003_Node000004" class="edge">
<title>Node3&#45;&gt;Node4</title>
<g id="a_edge3_Node000003_Node000004"><a xlink:title=" ">
<path fill="none" stroke="#63b8ff" d="M968.15,-439.93C982.83,-432.73 1001.25,-420.88 1010,-404 1025.13,-374.8 1023.61,-359.94 1010,-330 1004.38,-317.63 993.43,-307.36 983.11,-299.81"/>
<polygon fill="#63b8ff" stroke="#63b8ff" points="984.97,-296.84 974.73,-294.12 981.04,-302.63 984.97,-296.84"/>
</a>
</g>
</g>
<!-- Node30 -->
<g id="Node000030" class="node">
<title>Node30</title>
<g id="a_Node000030"><a xlink:href="validate_8h.html" target="_top" xlink:title=" ">
<polygon fill="white" stroke="#666666" points="1000.5,-404 935.5,-404 935.5,-385 1000.5,-385 1000.5,-404"/>
<text text-anchor="middle" x="968" y="-392" font-family="Helvetica,sans-Serif" font-size="10.00">validate.h</text>
</a>
</g>
</g>
<!-- Node3&#45;&gt;Node30 -->
<g id="edge27_Node000003_Node000030" class="edge">
<title>Node3&#45;&gt;Node30</title>
<g id="a_edge27_Node000003_Node000030"><a xlink:title=" ">
<path fill="none" stroke="#63b8ff" d="M950.47,-439.75C953.28,-432.65 957.34,-422.4 960.85,-413.56"/>
<polygon fill="#63b8ff" stroke="#63b8ff" points="964.17,-414.68 964.6,-404.09 957.66,-412.1 964.17,-414.68"/>
</a>
</g>
</g>
<!-- Node32 -->
<g id="Node000032" class="node">
<title>Node32</title>
<g id="a_Node000032"><a xlink:href="validation__mode_8h.html" target="_top" xlink:title=" ">
<polygon fill="white" stroke="#666666" points="825.5,-349 718.5,-349 718.5,-330 825.5,-330 825.5,-349"/>
<text text-anchor="middle" x="772" y="-337" font-family="Helvetica,sans-Serif" font-size="10.00">validation_mode.h</text>
</a>
</g>
</g>
<!-- Node3&#45;&gt;Node32 -->
<g id="edge35_Node000003_Node000032" class="edge">
<title>Node3&#45;&gt;Node32</title>
<g id="a_edge35_Node000003_Node000032"><a xlink:title=" ">
<path fill="none" stroke="#63b8ff" d="M941.07,-439.94C931.38,-426.52 910.94,-400.5 888,-385 866.05,-370.17 838.46,-359.32 815.69,-352.06"/>
<polygon fill="#63b8ff" stroke="#63b8ff" points="816.53,-348.65 805.94,-349.06 814.47,-355.34 816.53,-348.65"/>
</a>
</g>
</g>
<!-- Node33 -->
<g id="Node000033" class="node">
<title>Node33</title>
<g id="a_Node000033"><a xlink:href="validate__types_8h.html" target="_top" xlink:title=" ">
<polygon fill="white" stroke="#666666" points="879,-404 781,-404 781,-385 879,-385 879,-404"/>
<text text-anchor="middle" x="830" y="-392" font-family="Helvetica,sans-Serif" font-size="10.00">validate_types.h</text>
</a>
</g>
</g>
<!-- Node3&#45;&gt;Node33 -->
<g id="edge34_Node000003_Node000033" class="edge">
<title>Node3&#45;&gt;Node33</title>
<g id="a_edge34_Node000003_Node000033"><a xlink:title=" ">
<path fill="none" stroke="#63b8ff" d="M928.2,-439.98C909.38,-431.46 880.18,-418.23 858.5,-408.41"/>
<polygon fill="#63b8ff" stroke="#63b8ff" points="859.69,-405.11 849.14,-404.17 856.8,-411.48 859.69,-405.11"/>
</a>
</g>
</g>
<!-- Node5 -->
<g id="Node000005" class="node">
<title>Node5</title>
<g id="a_Node000005"><a xlink:href="deprecate_8h.html" target="_top" xlink:title=" ">
<polygon fill="white" stroke="#666666" points="1068,-239 994,-239 994,-220 1068,-220 1068,-239"/>
<text text-anchor="middle" x="1031" y="-227" font-family="Helvetica,sans-Serif" font-size="10.00">deprecate.h</text>
</a>
</g>
</g>
<!-- Node4&#45;&gt;Node5 -->
<g id="edge4_Node000004_Node000005" class="edge">
<title>Node4&#45;&gt;Node5</title>
<g id="a_edge4_Node000004_Node000005"><a xlink:title=" ">
<path fill="none" stroke="#63b8ff" d="M970.57,-274.98C981.42,-267 997.88,-254.88 1010.88,-245.31"/>
<polygon fill="#63b8ff" stroke="#63b8ff" points="1013.24,-247.92 1019.22,-239.17 1009.09,-242.28 1013.24,-247.92"/>
</a>
</g>
</g>
<!-- Node6 -->
<g id="Node000006" class="node">
<title>Node6</title>
<g id="a_Node000006"><a xlink:href="irep_8h.html" target="_top" xlink:title=" ">
<polygon fill="white" stroke="#666666" points="570,-239 526,-239 526,-220 570,-220 570,-239"/>
<text text-anchor="middle" x="548" y="-227" font-family="Helvetica,sans-Serif" font-size="10.00">irep.h</text>
</a>
</g>
</g>
<!-- Node4&#45;&gt;Node6 -->
<g id="edge5_Node000004_Node000006" class="edge">
<title>Node4&#45;&gt;Node6</title>
<g id="a_edge5_Node000004_Node000006"><a xlink:title=" ">
<path fill="none" stroke="#63b8ff" d="M907.78,-276.89C822.02,-265.84 651.78,-243.88 580.54,-234.7"/>
<polygon fill="#63b8ff" stroke="#63b8ff" points="580.74,-231.19 570.37,-233.39 579.84,-238.14 580.74,-231.19"/>
</a>
</g>
</g>
<!-- Node7 -->
<g id="Node000007" class="node">
<title>Node7</title>
<g id="a_Node000007"><a xlink:title=" ">
<polygon fill="#e0e0e0" stroke="#999999" points="973,-19 929,-19 929,0 973,0 973,-19"/>
<text text-anchor="middle" x="951" y="-7" font-family="Helvetica,sans-Serif" font-size="10.00">string</text>
</a>
</g>
</g>
<!-- Node4&#45;&gt;Node7 -->
<g id="edge26_Node000004_Node000007" class="edge">
<title>Node4&#45;&gt;Node7</title>
<g id="a_edge26_Node000004_Node000007"><a xlink:title=" ">
<path fill="none" stroke="#63b8ff" d="M958.74,-274.73C957.62,-236.38 953.13,-83.03 951.55,-29.25"/>
<polygon fill="#63b8ff" stroke="#63b8ff" points="955.04,-29 951.25,-19.11 948.05,-29.2 955.04,-29"/>
</a>
</g>
</g>
<!-- Node29 -->
<g id="Node000029" class="node">
<title>Node29</title>
<g id="a_Node000029"><a xlink:title=" ">
<polygon fill="#e0e0e0" stroke="#999999" points="938,-239 882,-239 882,-220 938,-220 938,-239"/>
<text text-anchor="middle" x="910" y="-227" font-family="Helvetica,sans-Serif" font-size="10.00">optional</text>
</a>
</g>
</g>
<!-- Node4&#45;&gt;Node29 -->
<g id="edge25_Node000004_Node000029" class="edge">
<title>Node4&#45;&gt;Node29</title>
<g id="a_edge25_Node000004_Node000029"><a xlink:title=" ">
<path fill="none" stroke="#63b8ff" d="M950.91,-274.75C943.84,-267.11 933.41,-255.82 924.85,-246.56"/>
<polygon fill="#63b8ff" stroke="#63b8ff" points="927.3,-244.06 917.94,-239.09 922.16,-248.81 927.3,-244.06"/>
</a>
</g>
</g>
<!-- Node6&#45;&gt;Node7 -->
<g id="edge6_Node000006_Node000007" class="edge">
<title>Node6&#45;&gt;Node7</title>
<g id="a_edge6_Node000006_Node000007"><a xlink:title=" ">
<path fill="none" stroke="#63b8ff" d="M555.01,-219.93C562.02,-211.18 572.87,-197.07 581,-184 600.52,-152.6 590.58,-133.64 619,-110 709.09,-35.07 854.23,-16.56 918.54,-11.99"/>
<polygon fill="#63b8ff" stroke="#63b8ff" points="919.1,-15.47 928.86,-11.33 918.66,-8.48 919.1,-15.47"/>
</a>
</g>
</g>
<!-- Node8 -->
<g id="Node000008" class="node">
<title>Node8</title>
<g id="a_Node000008"><a xlink:title=" ">
<polygon fill="#e0e0e0" stroke="#999999" points="571.5,-184 524.5,-184 524.5,-165 571.5,-165 571.5,-184"/>
<text text-anchor="middle" x="548" y="-172" font-family="Helvetica,sans-Serif" font-size="10.00">vector</text>
</a>
</g>
</g>
<!-- Node6&#45;&gt;Node8 -->
<g id="edge7_Node000006_Node000008" class="edge">
<title>Node6&#45;&gt;Node8</title>
<g id="a_edge7_Node000006_Node000008"><a xlink:title=" ">
<path fill="none" stroke="#63b8ff" d="M548,-219.75C548,-212.8 548,-202.85 548,-194.13"/>
<polygon fill="#63b8ff" stroke="#63b8ff" points="551.5,-194.09 548,-184.09 544.5,-194.09 551.5,-194.09"/>
</a>
</g>
</g>
<!-- Node6&#45;&gt;Node9 -->
<g id="edge8_Node000006_Node000009" class="edge">
<title>Node6&#45;&gt;Node9</title>
<g id="a_edge8_Node000006_Node000009"><a xlink:title=" ">
<path fill="none" stroke="#63b8ff" d="M525.9,-226.76C490.95,-223.2 421.68,-212.81 371,-184 324.72,-157.69 284.19,-108.27 264.93,-82.35"/>
<polygon fill="#63b8ff" stroke="#63b8ff" points="267.74,-80.26 259.02,-74.23 262.08,-84.38 267.74,-80.26"/>
</a>
</g>
</g>
<!-- Node13 -->
<g id="Node000013" class="node">
<title>Node13</title>
<g id="a_Node000013"><a xlink:href="irep__ids_8h.html" target="_top" xlink:title="util">
<polygon fill="white" stroke="#666666" points="783,-184 719,-184 719,-165 783,-165 783,-184"/>
<text text-anchor="middle" x="751" y="-172" font-family="Helvetica,sans-Serif" font-size="10.00">irep_ids.h</text>
</a>
</g>
</g>
<!-- Node6&#45;&gt;Node13 -->
<g id="edge13_Node000006_Node000013" class="edge">
<title>Node6&#45;&gt;Node13</title>
<g id="a_edge13_Node000006_Node000013"><a xlink:title=" ">
<path fill="none" stroke="#63b8ff" d="M570.11,-222.73C603.41,-214.03 667.01,-197.43 709.22,-186.41"/>
<polygon fill="#63b8ff" stroke="#63b8ff" points="710.14,-189.78 718.93,-183.87 708.37,-183.01 710.14,-189.78"/>
</a>
</g>
</g>
<!-- Node24 -->
<g id="Node000024" class="node">
<title>Node24</title>
<g id="a_Node000024"><a xlink:href="forward__list__as__map_8h.html" target="_top" xlink:title=" ">
<polygon fill="white" stroke="#666666" points="506.5,-184 379.5,-184 379.5,-165 506.5,-165 506.5,-184"/>
<text text-anchor="middle" x="443" y="-172" font-family="Helvetica,sans-Serif" font-size="10.00">forward_list_as_map.h</text>
</a>
</g>
</g>
<!-- Node6&#45;&gt;Node24 -->
<g id="edge18_Node000006_Node000024" class="edge">
<title>Node6&#45;&gt;Node24</title>
<g id="a_edge18_Node000006_Node000024"><a xlink:title=" ">
<path fill="none" stroke="#63b8ff" d="M531.13,-219.98C514.39,-211.54 488.5,-198.47 469.11,-188.68"/>
<polygon fill="#63b8ff" stroke="#63b8ff" points="470.68,-185.55 460.18,-184.17 467.53,-191.8 470.68,-185.55"/>
</a>
</g>
</g>
<!-- Node9&#45;&gt;Node7 -->
<g id="edge11_Node000009_Node000007" class="edge">
<title>Node9&#45;&gt;Node7</title>
<g id="a_edge11_Node000009_Node000007"><a xlink:title=" ">
<path fill="none" stroke="#63b8ff" d="M287.61,-60.87C407.39,-51.78 803.2,-21.72 918.95,-12.93"/>
<polygon fill="#63b8ff" stroke="#63b8ff" points="919.24,-16.42 928.95,-12.17 918.71,-9.44 919.24,-16.42"/>
</a>
</g>
</g>
<!-- Node10 -->
<g id="Node000010" class="node">
<title>Node10</title>
<g id="a_Node000010"><a xlink:title=" ">
<polygon fill="#e0e0e0" stroke="#999999" points="242.5,-19 193.5,-19 193.5,0 242.5,0 242.5,-19"/>
<text text-anchor="middle" x="218" y="-7" font-family="Helvetica,sans-Serif" font-size="10.00">cstdlib</text>
</a>
</g>
</g>
<!-- Node9&#45;&gt;Node10 -->
<g id="edge9_Node000009_Node000010" class="edge">
<title>Node9&#45;&gt;Node10</title>
<g id="a_edge9_Node000009_Node000010"><a xlink:title=" ">
<path fill="none" stroke="#63b8ff" d="M247.22,-54.75C242.38,-47.42 235.32,-36.73 229.36,-27.7"/>
<polygon fill="#63b8ff" stroke="#63b8ff" points="232.1,-25.5 223.67,-19.09 226.26,-29.36 232.1,-25.5"/>
</a>
</g>
</g>
<!-- Node11 -->
<g id="Node000011" class="node">
<title>Node11</title>
<g id="a_Node000011"><a xlink:title=" ">
<polygon fill="#e0e0e0" stroke="#999999" points="317,-19 261,-19 261,0 317,0 317,-19"/>
<text text-anchor="middle" x="289" y="-7" font-family="Helvetica,sans-Serif" font-size="10.00">sstream</text>
</a>
</g>
</g>
<!-- Node9&#45;&gt;Node11 -->
<g id="edge10_Node000009_Node000011" class="edge">
<title>Node9&#45;&gt;Node11</title>
<g id="a_edge10_Node000009_Node000011"><a xlink:title=" ">
<path fill="none" stroke="#63b8ff" d="M258.94,-54.75C263.98,-47.34 271.34,-36.5 277.51,-27.41"/>
<polygon fill="#63b8ff" stroke="#63b8ff" points="280.44,-29.33 283.17,-19.09 274.65,-25.39 280.44,-29.33"/>
</a>
</g>
</g>
<!-- Node12 -->
<g id="Node000012" class="node">
<title>Node12</title>
<g id="a_Node000012"><a xlink:title=" ">
<polygon fill="#e0e0e0" stroke="#999999" points="772.5,-19 703.5,-19 703.5,0 772.5,0 772.5,-19"/>
<text text-anchor="middle" x="738" y="-7" font-family="Helvetica,sans-Serif" font-size="10.00">type_traits</text>
</a>
</g>
</g>
<!-- Node9&#45;&gt;Node12 -->
<g id="edge12_Node000009_Node000012" class="edge">
<title>Node9&#45;&gt;Node12</title>
<g id="a_edge12_Node000009_Node000012"><a xlink:title=" ">
<path fill="none" stroke="#63b8ff" d="M287.88,-59.69C374.13,-50.26 597.37,-25.87 693.21,-15.39"/>
<polygon fill="#63b8ff" stroke="#63b8ff" points="693.88,-18.84 703.44,-14.28 693.11,-11.88 693.88,-18.84"/>
</a>
</g>
</g>
<!-- Node14 -->
<g id="Node000014" class="node">
<title>Node14</title>
<g id="a_Node000014"><a xlink:href="dstring_8h.html" target="_top" xlink:title="Container for C&#45;Strings.">
<polygon fill="#fff0f0" stroke="red" points="941.5,-129 882.5,-129 882.5,-110 941.5,-110 941.5,-129"/>
<text text-anchor="middle" x="912" y="-117" font-family="Helvetica,sans-Serif" font-size="10.00">dstring.h</text>
</a>
</g>
</g>
<!-- Node13&#45;&gt;Node14 -->
<g id="edge14_Node000013_Node000014" class="edge">
<title>Node13&#45;&gt;Node14</title>
<g id="a_edge14_Node000013_Node000014"><a xlink:title=" ">
<path fill="none" stroke="#63b8ff" d="M776.87,-164.98C803.78,-156.13 846.12,-142.19 876.23,-132.28"/>
<polygon fill="#63b8ff" stroke="#63b8ff" points="877.53,-135.53 885.93,-129.08 875.34,-128.88 877.53,-135.53"/>
</a>
</g>
</g>
<!-- Node23 -->
<g id="Node000023" class="node">
<title>Node23</title>
<g id="a_Node000023"><a xlink:title=" ">
<polygon fill="#e0e0e0" stroke="#999999" points="788,-129 714,-129 714,-110 788,-110 788,-129"/>
<text text-anchor="middle" x="751" y="-117" font-family="Helvetica,sans-Serif" font-size="10.00">irep_ids.def</text>
</a>
</g>
</g>
<!-- Node13&#45;&gt;Node23 -->
<g id="edge17_Node000013_Node000023" class="edge">
<title>Node13&#45;&gt;Node23</title>
<g id="a_edge17_Node000013_Node000023"><a xlink:title=" ">
<path fill="none" stroke="#63b8ff" d="M751,-164.75C751,-157.8 751,-147.85 751,-139.13"/>
<polygon fill="#63b8ff" stroke="#63b8ff" points="754.5,-139.09 751,-129.09 747.5,-139.09 754.5,-139.09"/>
</a>
</g>
</g>
<!-- Node14&#45;&gt;Node7 -->
<g id="edge16_Node000014_Node000007" class="edge">
<title>Node14&#45;&gt;Node7</title>
<g id="a_edge16_Node000014_Node000007"><a xlink:title=" ">
<path fill="none" stroke="#63b8ff" d="M915.19,-109.66C921.57,-92.01 935.98,-52.09 944.45,-28.64"/>
<polygon fill="#63b8ff" stroke="#63b8ff" points="947.77,-29.75 947.87,-19.16 941.18,-27.38 947.77,-29.75"/>
</a>
</g>
</g>
<!-- Node15 -->
<g id="Node000015" class="node">
<title>Node15</title>
<g id="a_Node000015"><a xlink:title=" ">
<polygon fill="#e0e0e0" stroke="#999999" points="1057,-74 1009,-74 1009,-55 1057,-55 1057,-74"/>
<text text-anchor="middle" x="1033" y="-62" font-family="Helvetica,sans-Serif" font-size="10.00">iosfwd</text>
</a>
</g>
</g>
<!-- Node14&#45;&gt;Node15 -->
<g id="edge15_Node000014_Node000015" class="edge">
<title>Node14&#45;&gt;Node15</title>
<g id="a_edge15_Node000014_Node000015"><a xlink:title=" ">
<path fill="none" stroke="#63b8ff" d="M931.44,-109.98C950.99,-101.42 981.38,-88.11 1003.82,-78.28"/>
<polygon fill="#63b8ff" stroke="#63b8ff" points="1005.45,-81.39 1013.21,-74.17 1002.64,-74.98 1005.45,-81.39"/>
</a>
</g>
</g>
<!-- Node25 -->
<g id="Node000025" class="node">
<title>Node25</title>
<g id="a_Node000025"><a xlink:title=" ">
<polygon fill="#e0e0e0" stroke="#999999" points="402,-129 338,-129 338,-110 402,-110 402,-129"/>
<text text-anchor="middle" x="370" y="-117" font-family="Helvetica,sans-Serif" font-size="10.00">algorithm</text>
</a>
</g>
</g>
<!-- Node24&#45;&gt;Node25 -->
<g id="edge19_Node000024_Node000025" class="edge">
<title>Node24&#45;&gt;Node25</title>
<g id="a_edge19_Node000024_Node000025"><a xlink:title=" ">
<path fill="none" stroke="#63b8ff" d="M431.27,-164.98C420.27,-157 403.58,-144.88 390.4,-135.31"/>
<polygon fill="#63b8ff" stroke="#63b8ff" points="392.09,-132.21 381.94,-129.17 387.98,-137.88 392.09,-132.21"/>
</a>
</g>
</g>
<!-- Node26 -->
<g id="Node000026" class="node">
<title>Node26</title>
<g id="a_Node000026"><a xlink:title=" ">
<polygon fill="#e0e0e0" stroke="#999999" points="494,-129 420,-129 420,-110 494,-110 494,-129"/>
<text text-anchor="middle" x="457" y="-117" font-family="Helvetica,sans-Serif" font-size="10.00">forward_list</text>
</a>
</g>
</g>
<!-- Node24&#45;&gt;Node26 -->
<g id="edge20_Node000024_Node000026" class="edge">
<title>Node24&#45;&gt;Node26</title>
<g id="a_edge20_Node000024_Node000026"><a xlink:title=" ">
<path fill="none" stroke="#63b8ff" d="M445.31,-164.75C447.17,-157.72 449.84,-147.62 452.15,-138.84"/>
<polygon fill="#63b8ff" stroke="#63b8ff" points="455.56,-139.65 454.73,-129.09 448.79,-137.86 455.56,-139.65"/>
</a>
</g>
</g>
<!-- Node27 -->
<g id="Node000027" class="node">
<title>Node27</title>
<g id="a_Node000027"><a xlink:href="as__const_8h.html" target="_top" xlink:title=" ">
<polygon fill="white" stroke="#666666" points="696,-129 628,-129 628,-110 696,-110 696,-129"/>
<text text-anchor="middle" x="662" y="-117" font-family="Helvetica,sans-Serif" font-size="10.00">as_const.h</text>
</a>
</g>
</g>
<!-- Node24&#45;&gt;Node27 -->
<g id="edge21_Node000024_Node000027" class="edge">
<title>Node24&#45;&gt;Node27</title>
<g id="a_edge21_Node000024_Node000027"><a xlink:title=" ">
<path fill="none" stroke="#63b8ff" d="M478.19,-164.98C516.28,-155.77 577.08,-141.05 618.23,-131.09"/>
<polygon fill="#63b8ff" stroke="#63b8ff" points="619.09,-134.49 627.98,-128.73 617.44,-127.68 619.09,-134.49"/>
</a>
</g>
</g>
<!-- Node28 -->
<g id="Node000028" class="node">
<title>Node28</title>
<g id="a_Node000028"><a xlink:href="narrow_8h.html" target="_top" xlink:title=" ">
<polygon fill="white" stroke="#666666" points="571.5,-129 512.5,-129 512.5,-110 571.5,-110 571.5,-129"/>
<text text-anchor="middle" x="542" y="-117" font-family="Helvetica,sans-Serif" font-size="10.00">narrow.h</text>
</a>
</g>
</g>
<!-- Node24&#45;&gt;Node28 -->
<g id="edge22_Node000024_Node000028" class="edge">
<title>Node24&#45;&gt;Node28</title>
<g id="a_edge22_Node000024_Node000028"><a xlink:title=" ">
<path fill="none" stroke="#63b8ff" d="M458.91,-164.98C474.55,-156.61 498.66,-143.7 516.88,-133.95"/>
<polygon fill="#63b8ff" stroke="#63b8ff" points="518.64,-136.98 525.8,-129.17 515.34,-130.8 518.64,-136.98"/>
</a>
</g>
</g>
<!-- Node28&#45;&gt;Node9 -->
<g id="edge24_Node000028_Node000009" class="edge">
<title>Node28&#45;&gt;Node9</title>
<g id="a_edge24_Node000028_Node000009"><a xlink:title=" ">
<path fill="none" stroke="#63b8ff" d="M512.21,-111.88C509.11,-111.23 505.99,-110.59 503,-110 431.39,-95.83 347.82,-81.37 297.72,-72.93"/>
<polygon fill="#63b8ff" stroke="#63b8ff" points="298.3,-69.48 287.86,-71.27 297.14,-76.38 298.3,-69.48"/>
</a>
</g>
</g>
<!-- Node28&#45;&gt;Node12 -->
<g id="edge23_Node000028_Node000012" class="edge">
<title>Node28&#45;&gt;Node12</title>
<g id="a_edge23_Node000028_Node000012"><a xlink:title=" ">
<path fill="none" stroke="#63b8ff" d="M557.71,-109.84C591.77,-91.08 672.63,-46.52 713.48,-24.01"/>
<polygon fill="#63b8ff" stroke="#63b8ff" points="715.42,-26.94 722.49,-19.05 712.04,-20.81 715.42,-26.94"/>
</a>
</g>
</g>
<!-- Node30&#45;&gt;Node12 -->
<g id="edge28_Node000030_Node000012" class="edge">
<title>Node30&#45;&gt;Node12</title>
<g id="a_edge28_Node000030_Node000012"><a xlink:title=" ">
<path fill="none" stroke="#63b8ff" d="M946.82,-384.95C913.86,-370.06 854,-336.07 854,-285.5 854,-285.5 854,-285.5 854,-118.5 854,-88.33 850.36,-77.26 830,-55 816.36,-40.09 796.64,-29.63 778.96,-22.63"/>
<polygon fill="#63b8ff" stroke="#63b8ff" points="779.99,-19.28 769.4,-19.08 777.56,-25.84 779.99,-19.28"/>
</a>
</g>
</g>
<!-- Node31 -->
<g id="Node000031" class="node">
<title>Node31</title>
<g id="a_Node000031"><a xlink:href="exception__utils_8h.html" target="_top" xlink:title=" ">
<polygon fill="white" stroke="#666666" points="1001,-349 901,-349 901,-330 1001,-330 1001,-349"/>
<text text-anchor="middle" x="951" y="-337" font-family="Helvetica,sans-Serif" font-size="10.00">exception_utils.h</text>
</a>
</g>
</g>
<!-- Node30&#45;&gt;Node31 -->
<g id="edge29_Node000030_Node000031" class="edge">
<title>Node30&#45;&gt;Node31</title>
<g id="a_edge29_Node000030_Node000031"><a xlink:title=" ">
<path fill="none" stroke="#63b8ff" d="M965.19,-384.75C962.94,-377.72 959.7,-367.62 956.88,-358.84"/>
<polygon fill="#63b8ff" stroke="#63b8ff" points="960.14,-357.54 953.75,-349.09 953.48,-359.68 960.14,-357.54"/>
</a>
</g>
</g>
<!-- Node30&#45;&gt;Node32 -->
<g id="edge33_Node000030_Node000032" class="edge">
<title>Node30&#45;&gt;Node32</title>
<g id="a_edge33_Node000030_Node000032"><a xlink:title=" ">
<path fill="none" stroke="#63b8ff" d="M936.51,-384.98C903.18,-375.97 850.4,-361.7 813.65,-351.76"/>
<polygon fill="#63b8ff" stroke="#63b8ff" points="814.3,-348.31 803.74,-349.08 812.48,-355.07 814.3,-348.31"/>
</a>
</g>
</g>
<!-- Node31&#45;&gt;Node4 -->
<g id="edge32_Node000031_Node000004" class="edge">
<title>Node31&#45;&gt;Node4</title>
<g id="a_edge32_Node000031_Node000004"><a xlink:title=" ">
<path fill="none" stroke="#63b8ff" d="M952.32,-329.75C953.37,-322.8 954.87,-312.85 956.19,-304.13"/>
<polygon fill="#63b8ff" stroke="#63b8ff" points="959.67,-304.5 957.7,-294.09 952.75,-303.45 959.67,-304.5"/>
</a>
</g>
</g>
<!-- Node31&#45;&gt;Node7 -->
<g id="edge30_Node000031_Node000007" class="edge">
<title>Node31&#45;&gt;Node7</title>
<g id="a_edge30_Node000031_Node000007"><a xlink:title=" ">
<path fill="none" stroke="#63b8ff" d="M965.85,-329.85C979.99,-321.36 1001.63,-307.74 1019,-294 1046.86,-271.96 1062.97,-271.64 1077,-239 1080.33,-231.24 1077.28,-228.44 1077,-220 1074.55,-146.54 1109.54,-114.21 1066,-55 1046.85,-28.96 1010.3,-18.16 983.52,-13.68"/>
<polygon fill="#63b8ff" stroke="#63b8ff" points="983.84,-10.19 973.44,-12.21 982.83,-17.11 983.84,-10.19"/>
</a>
</g>
</g>
<!-- Node31&#45;&gt;Node9 -->
<g id="edge31_Node000031_Node000009" class="edge">
<title>Node31&#45;&gt;Node9</title>
<g id="a_edge31_Node000031_Node000009"><a xlink:title=" ">
<path fill="none" stroke="#63b8ff" d="M900.8,-333.16C743.71,-316.13 272,-262.34 272,-230.5 272,-230.5 272,-230.5 272,-173.5 272,-141.56 263.84,-105.1 258.22,-83.77"/>
<polygon fill="#63b8ff" stroke="#63b8ff" points="261.58,-82.81 255.56,-74.09 254.83,-84.66 261.58,-82.81"/>
</a>
</g>
</g>
<!-- Node34&#45;&gt;Node5 -->
<g id="edge37_Node000034_Node000005" class="edge">
<title>Node34&#45;&gt;Node5</title>
<g id="a_edge37_Node000034_Node000005"><a xlink:title=" ">
<path fill="none" stroke="#63b8ff" d="M671.93,-780.93C764.39,-745.64 1105,-608.67 1105,-505.5 1105,-505.5 1105,-505.5 1105,-338.5 1105,-299.8 1072.27,-264.81 1050.35,-245.71"/>
<polygon fill="#63b8ff" stroke="#63b8ff" points="1052.48,-242.93 1042.56,-239.19 1047.98,-248.3 1052.48,-242.93"/>
</a>
</g>
</g>
<!-- Node35 -->
<g id="Node000035" class="node">
<title>Node35</title>
<g id="a_Node000035"><a xlink:href="pointer__expr_8h.html" target="_top" xlink:title="API to expression classes for Pointers.">
<polygon fill="white" stroke="#666666" points="692,-739.5 606,-739.5 606,-720.5 692,-720.5 692,-739.5"/>
<text text-anchor="middle" x="649" y="-727.5" font-family="Helvetica,sans-Serif" font-size="10.00">pointer_expr.h</text>
</a>
</g>
</g>
<!-- Node34&#45;&gt;Node35 -->
<g id="edge38_Node000034_Node000035" class="edge">
<title>Node34&#45;&gt;Node35</title>
<g id="a_edge38_Node000034_Node000035"><a xlink:title=" ">
<path fill="none" stroke="#63b8ff" d="M649,-780.87C649,-772.75 649,-760.31 649,-749.89"/>
<polygon fill="#63b8ff" stroke="#63b8ff" points="652.5,-749.67 649,-739.67 645.5,-749.67 652.5,-749.67"/>
</a>
</g>
</g>
<!-- Node36 -->
<g id="Node000036" class="node">
<title>Node36</title>
<g id="a_Node000036"><a xlink:href="bitvector__types_8h.html" target="_top" xlink:title="Pre&#45;defined bitvector types.">
<polygon fill="white" stroke="#666666" points="750.5,-679 649.5,-679 649.5,-660 750.5,-660 750.5,-679"/>
<text text-anchor="middle" x="700" y="-667" font-family="Helvetica,sans-Serif" font-size="10.00">bitvector_types.h</text>
</a>
</g>
</g>
<!-- Node35&#45;&gt;Node36 -->
<g id="edge39_Node000035_Node000036" class="edge">
<title>Node35&#45;&gt;Node36</title>
<g id="a_edge39_Node000035_Node000036"><a xlink:title=" ">
<path fill="none" stroke="#63b8ff" d="M656.53,-720.37C664.21,-711.55 676.32,-697.66 685.81,-686.77"/>
<polygon fill="#63b8ff" stroke="#63b8ff" points="688.51,-689.01 692.44,-679.17 683.23,-684.41 688.51,-689.01"/>
</a>
</g>
</g>
<!-- Node45 -->
<g id="Node000045" class="node">
<title>Node45</title>
<g id="a_Node000045"><a xlink:href="std__expr_8h.html" target="_top" xlink:title="API to expression classes.">
<polygon fill="white" stroke="#666666" points="631.5,-679 564.5,-679 564.5,-660 631.5,-660 631.5,-679"/>
<text text-anchor="middle" x="598" y="-667" font-family="Helvetica,sans-Serif" font-size="10.00">std_expr.h</text>
</a>
</g>
</g>
<!-- Node35&#45;&gt;Node45 -->
<g id="edge61_Node000035_Node000045" class="edge">
<title>Node35&#45;&gt;Node45</title>
<g id="a_edge61_Node000035_Node000045"><a xlink:title=" ">
<path fill="none" stroke="#63b8ff" d="M641.47,-720.37C633.79,-711.55 621.68,-697.66 612.19,-686.77"/>
<polygon fill="#63b8ff" stroke="#63b8ff" points="614.77,-684.41 605.56,-679.17 609.49,-689.01 614.77,-684.41"/>
</a>
</g>
</g>
<!-- Node37 -->
<g id="Node000037" class="node">
<title>Node37</title>
<g id="a_Node000037"><a xlink:href="std__types_8h.html" target="_top" xlink:title="Pre&#45;defined types.">
<polygon fill="white" stroke="#666666" points="736.5,-624 663.5,-624 663.5,-605 736.5,-605 736.5,-624"/>
<text text-anchor="middle" x="700" y="-612" font-family="Helvetica,sans-Serif" font-size="10.00">std_types.h</text>
</a>
</g>
</g>
<!-- Node36&#45;&gt;Node37 -->
<g id="edge40_Node000036_Node000037" class="edge">
<title>Node36&#45;&gt;Node37</title>
<g id="a_edge40_Node000036_Node000037"><a xlink:title=" ">
<path fill="none" stroke="#63b8ff" d="M700,-659.75C700,-652.8 700,-642.85 700,-634.13"/>
<polygon fill="#63b8ff" stroke="#63b8ff" points="703.5,-634.09 700,-624.09 696.5,-634.09 703.5,-634.09"/>
</a>
</g>
</g>
<!-- Node37&#45;&gt;Node9 -->
<g id="edge54_Node000037_Node000009" class="edge">
<title>Node37&#45;&gt;Node9</title>
<g id="a_edge54_Node000037_Node000009"><a xlink:title=" ">
<path fill="none" stroke="#63b8ff" d="M663.43,-612.83C553.58,-609.83 234,-593.53 234,-505.5 234,-505.5 234,-505.5 234,-173.5 234,-141.56 242.16,-105.1 247.78,-83.77"/>
<polygon fill="#63b8ff" stroke="#63b8ff" points="251.17,-84.66 250.44,-74.09 244.42,-82.81 251.17,-84.66"/>
</a>
</g>
</g>
<!-- Node37&#45;&gt;Node30 -->
<g id="edge59_Node000037_Node000030" class="edge">
<title>Node37&#45;&gt;Node30</title>
<g id="a_edge59_Node000037_Node000030"><a xlink:title=" ">
<path fill="none" stroke="#63b8ff" d="M722.56,-604.95C785.15,-580.7 958.44,-510 989,-459 997.73,-444.43 989.63,-425.79 981.08,-412.47"/>
<polygon fill="#63b8ff" stroke="#63b8ff" points="983.9,-410.4 975.29,-404.23 978.17,-414.42 983.9,-410.4"/>
</a>
</g>
</g>
<!-- Node38 -->
<g id="Node000038" class="node">
<title>Node38</title>
<g id="a_Node000038"><a xlink:href="expr_8h.html" target="_top" xlink:title=" ">
<polygon fill="white" stroke="#666666" points="723.5,-514 676.5,-514 676.5,-495 723.5,-495 723.5,-514"/>
<text text-anchor="middle" x="700" y="-502" font-family="Helvetica,sans-Serif" font-size="10.00">expr.h</text>
</a>
</g>
</g>
<!-- Node37&#45;&gt;Node38 -->
<g id="edge41_Node000037_Node000038" class="edge">
<title>Node37&#45;&gt;Node38</title>
<g id="a_edge41_Node000037_Node000038"><a xlink:title=" ">
<path fill="none" stroke="#63b8ff" d="M700,-604.66C700,-587.17 700,-547.8 700,-524.27"/>
<polygon fill="#63b8ff" stroke="#63b8ff" points="703.5,-524.16 700,-514.16 696.5,-524.16 703.5,-524.16"/>
</a>
</g>
</g>
<!-- Node41 -->
<g id="Node000041" class="node">
<title>Node41</title>
<g id="a_Node000041"><a xlink:href="expr__cast_8h.html" target="_top" xlink:title="Templated functions to cast to specific exprt&#45;derived classes.">
<polygon fill="white" stroke="#666666" points="634.5,-569 561.5,-569 561.5,-550 634.5,-550 634.5,-569"/>
<text text-anchor="middle" x="598" y="-557" font-family="Helvetica,sans-Serif" font-size="10.00">expr_cast.h</text>
</a>
</g>
</g>
<!-- Node37&#45;&gt;Node41 -->
<g id="edge48_Node000037_Node000041" class="edge">
<title>Node37&#45;&gt;Node41</title>
<g id="a_edge48_Node000037_Node000041"><a xlink:title=" ">
<path fill="none" stroke="#63b8ff" d="M683.61,-604.98C667.43,-596.57 642.43,-583.59 623.62,-573.81"/>
<polygon fill="#63b8ff" stroke="#63b8ff" points="625.17,-570.68 614.69,-569.17 621.95,-576.89 625.17,-570.68"/>
</a>
</g>
</g>
<!-- Node43 -->
<g id="Node000043" class="node">
<title>Node43</title>
<g id="a_Node000043"><a xlink:href="mp__arith_8h.html" target="_top" xlink:title=" ">
<polygon fill="white" stroke="#666666" points="1187.5,-129 1118.5,-129 1118.5,-110 1187.5,-110 1187.5,-129"/>
<text text-anchor="middle" x="1153" y="-117" font-family="Helvetica,sans-Serif" font-size="10.00">mp_arith.h</text>
</a>
</g>
</g>
<!-- Node37&#45;&gt;Node43 -->
<g id="edge55_Node000037_Node000043" class="edge">
<title>Node37&#45;&gt;Node43</title>
<g id="a_edge55_Node000037_Node000043"><a xlink:title=" ">
<path fill="none" stroke="#63b8ff" d="M736.83,-613.09C791.83,-611.29 897.74,-603.21 980,-569 1024.2,-550.62 1067,-553.37 1067,-505.5 1067,-505.5 1067,-505.5 1067,-448.5 1067,-368.57 1143,-365.43 1143,-285.5 1143,-285.5 1143,-285.5 1143,-228.5 1143,-197.06 1147.25,-160.68 1150.21,-139.19"/>
<polygon fill="#63b8ff" stroke="#63b8ff" points="1153.7,-139.55 1151.65,-129.15 1146.77,-138.56 1153.7,-139.55"/>
</a>
</g>
</g>
<!-- Node20 -->
<g id="Node000020" class="node">
<title>Node20</title>
<g id="a_Node000020"><a xlink:title=" ">
<polygon fill="#e0e0e0" stroke="#999999" points="970.5,-569 877.5,-569 877.5,-550 970.5,-550 970.5,-569"/>
<text text-anchor="middle" x="924" y="-557" font-family="Helvetica,sans-Serif" font-size="10.00">unordered_map</text>
</a>
</g>
</g>
<!-- Node37&#45;&gt;Node20 -->
<g id="edge60_Node000037_Node000020" class="edge">
<title>Node37&#45;&gt;Node20</title>
<g id="a_edge60_Node000037_Node000020"><a xlink:title=" ">
<path fill="none" stroke="#63b8ff" d="M735.99,-604.98C774.49,-595.87 835.69,-581.4 877.74,-571.45"/>
<polygon fill="#63b8ff" stroke="#63b8ff" points="878.8,-574.79 887.73,-569.08 877.19,-567.98 878.8,-574.79"/>
</a>
</g>
</g>
<!-- Node38&#45;&gt;Node3 -->
<g id="edge43_Node000038_Node000003" class="edge">
<title>Node38&#45;&gt;Node3</title>
<g id="a_edge43_Node000038_Node000003"><a xlink:title=" ">
<path fill="none" stroke="#63b8ff" d="M723.68,-498.42C765.11,-489.53 851.31,-471.03 903.66,-459.8"/>
<polygon fill="#63b8ff" stroke="#63b8ff" points="904.62,-463.17 913.66,-457.65 903.15,-456.33 904.62,-463.17"/>
</a>
</g>
</g>
<!-- Node38&#45;&gt;Node27 -->
<g id="edge42_Node000038_Node000027" class="edge">
<title>Node38&#45;&gt;Node27</title>
<g id="a_edge42_Node000038_Node000027"><a xlink:title=" ">
<path fill="none" stroke="#63b8ff" d="M694.72,-494.9C684.27,-477.07 662,-434.46 662,-395.5 662,-395.5 662,-395.5 662,-228.5 662,-197.19 662,-160.77 662,-139.23"/>
<polygon fill="#63b8ff" stroke="#63b8ff" points="665.5,-139.18 662,-129.18 658.5,-139.18 665.5,-139.18"/>
</a>
</g>
</g>
<!-- Node38&#45;&gt;Node32 -->
<g id="edge46_Node000038_Node000032" class="edge">
<title>Node38&#45;&gt;Node32</title>
<g id="a_edge46_Node000038_Node000032"><a xlink:title=" ">
<path fill="none" stroke="#63b8ff" d="M723.78,-500.7C765.61,-495.24 849.59,-481.66 867,-459 872.15,-452.3 871.8,-446.95 867,-440 841.35,-402.84 797.65,-441.16 772,-404 763,-390.97 764.1,-372.58 766.8,-358.94"/>
<polygon fill="#63b8ff" stroke="#63b8ff" points="770.2,-359.75 769.14,-349.21 763.4,-358.11 770.2,-359.75"/>
</a>
</g>
</g>
<!-- Node38&#45;&gt;Node33 -->
<g id="edge45_Node000038_Node000033" class="edge">
<title>Node38&#45;&gt;Node33</title>
<g id="a_edge45_Node000038_Node000033"><a xlink:title=" ">
<path fill="none" stroke="#63b8ff" d="M700.43,-494.96C701.55,-481.59 705.57,-455.62 720,-440 734.72,-424.07 755.93,-413.72 775.81,-407.05"/>
<polygon fill="#63b8ff" stroke="#63b8ff" points="776.91,-410.37 785.43,-404.06 774.84,-403.68 776.91,-410.37"/>
</a>
</g>
</g>
<!-- Node39 -->
<g id="Node000039" class="node">
<title>Node39</title>
<g id="a_Node000039"><a xlink:href="validate__expressions_8h.html" target="_top" xlink:title=" ">
<polygon fill="white" stroke="#666666" points="857.5,-459 728.5,-459 728.5,-440 857.5,-440 857.5,-459"/>
<text text-anchor="middle" x="793" y="-447" font-family="Helvetica,sans-Serif" font-size="10.00">validate_expressions.h</text>
</a>
</g>
</g>
<!-- Node38&#45;&gt;Node39 -->
<g id="edge44_Node000038_Node000039" class="edge">
<title>Node38&#45;&gt;Node39</title>
<g id="a_edge44_Node000038_Node000039"><a xlink:title=" ">
<path fill="none" stroke="#63b8ff" d="M714.94,-494.98C729.5,-486.69 751.87,-473.94 768.93,-464.22"/>
<polygon fill="#63b8ff" stroke="#63b8ff" points="770.83,-467.16 777.79,-459.17 767.36,-461.08 770.83,-467.16"/>
</a>
</g>
</g>
<!-- Node40 -->
<g id="Node000040" class="node">
<title>Node40</title>
<g id="a_Node000040"><a xlink:title=" ">
<polygon fill="#e0e0e0" stroke="#999999" points="633.5,-459 568.5,-459 568.5,-440 633.5,-440 633.5,-459"/>
<text text-anchor="middle" x="601" y="-447" font-family="Helvetica,sans-Serif" font-size="10.00">functional</text>
</a>
</g>
</g>
<!-- Node38&#45;&gt;Node40 -->
<g id="edge47_Node000038_Node000040" class="edge">
<title>Node38&#45;&gt;Node40</title>
<g id="a_edge47_Node000038_Node000040"><a xlink:title=" ">
<path fill="none" stroke="#63b8ff" d="M684.09,-494.98C668.45,-486.61 644.34,-473.7 626.12,-463.95"/>
<polygon fill="#63b8ff" stroke="#63b8ff" points="627.66,-460.8 617.2,-459.17 624.36,-466.98 627.66,-460.8"/>
</a>
</g>
</g>
<!-- Node41&#45;&gt;Node9 -->
<g id="edge52_Node000041_Node000009" class="edge">
<title>Node41&#45;&gt;Node9</title>
<g id="a_edge52_Node000041_Node000009"><a xlink:title=" ">
<path fill="none" stroke="#63b8ff" d="M561.26,-551.89C462.02,-531.7 196,-461.19 196,-285.5 196,-285.5 196,-285.5 196,-173.5 196,-137.51 221.06,-101.76 237.95,-81.76"/>
<polygon fill="#63b8ff" stroke="#63b8ff" points="240.62,-84.02 244.59,-74.2 235.36,-79.4 240.62,-84.02"/>
</a>
</g>
</g>
<!-- Node41&#45;&gt;Node12 -->
<g id="edge50_Node000041_Node000012" class="edge">
<title>Node41&#45;&gt;Node12</title>
<g id="a_edge50_Node000041_Node000012"><a xlink:title=" ">
<path fill="none" stroke="#63b8ff" d="M591.29,-549.82C576.94,-530.17 545.7,-480.77 560,-440 610.83,-295.11 727.35,-323.28 792,-184 805.88,-154.1 805.72,-141.79 797,-110 788.2,-77.9 766.06,-45.65 751.55,-26.91"/>
<polygon fill="#63b8ff" stroke="#63b8ff" points="754.27,-24.72 745.31,-19.07 748.8,-29.08 754.27,-24.72"/>
</a>
</g>
</g>
<!-- Node41&#45;&gt;Node38 -->
<g id="edge53_Node000041_Node000038" class="edge">
<title>Node41&#45;&gt;Node38</title>
<g id="a_edge53_Node000041_Node000038"><a xlink:title=" ">
<path fill="none" stroke="#63b8ff" d="M614.39,-549.98C630.57,-541.57 655.57,-528.59 674.38,-518.81"/>
<polygon fill="#63b8ff" stroke="#63b8ff" points="676.05,-521.89 683.31,-514.17 672.83,-515.68 676.05,-521.89"/>
</a>
</g>
</g>
<!-- Node41&#45;&gt;Node40 -->
<g id="edge51_Node000041_Node000040" class="edge">
<title>Node41&#45;&gt;Node40</title>
<g id="a_edge51_Node000041_Node000040"><a xlink:title=" ">
<path fill="none" stroke="#63b8ff" d="M598.25,-549.66C598.73,-532.17 599.82,-492.8 600.48,-469.27"/>
<polygon fill="#63b8ff" stroke="#63b8ff" points="603.98,-469.25 600.76,-459.16 596.98,-469.06 603.98,-469.25"/>
</a>
</g>
</g>
<!-- Node42 -->
<g id="Node000042" class="node">
<title>Node42</title>
<g id="a_Node000042"><a xlink:title=" ">
<polygon fill="#e0e0e0" stroke="#999999" points="511.5,-514 454.5,-514 454.5,-495 511.5,-495 511.5,-514"/>
<text text-anchor="middle" x="483" y="-502" font-family="Helvetica,sans-Serif" font-size="10.00">typeinfo</text>
</a>
</g>
</g>
<!-- Node41&#45;&gt;Node42 -->
<g id="edge49_Node000041_Node000042" class="edge">
<title>Node41&#45;&gt;Node42</title>
<g id="a_edge49_Node000041_Node000042"><a xlink:title=" ">
<path fill="none" stroke="#63b8ff" d="M579.52,-549.98C561.02,-541.46 532.32,-528.23 511.02,-518.41"/>
<polygon fill="#63b8ff" stroke="#63b8ff" points="512.36,-515.18 501.81,-514.17 509.43,-521.53 512.36,-515.18"/>
</a>
</g>
</g>
<!-- Node43&#45;&gt;Node7 -->
<g id="edge57_Node000043_Node000007" class="edge">
<title>Node43&#45;&gt;Node7</title>
<g id="a_edge57_Node000043_Node000007"><a xlink:title=" ">
<path fill="none" stroke="#63b8ff" d="M1148.58,-109.68C1141.22,-95.92 1125.17,-69.43 1104,-55 1067.08,-29.83 1015.84,-18.71 983.05,-13.93"/>
<polygon fill="#63b8ff" stroke="#63b8ff" points="983.47,-10.45 973.09,-12.59 982.54,-17.39 983.47,-10.45"/>
</a>
</g>
</g>
<!-- Node43&#45;&gt;Node15 -->
<g id="edge56_Node000043_Node000015" class="edge">
<title>Node43&#45;&gt;Node15</title>
<g id="a_edge56_Node000043_Node000015"><a xlink:title=" ">
<path fill="none" stroke="#63b8ff" d="M1133.72,-109.98C1114.33,-101.42 1084.19,-88.11 1061.93,-78.28"/>
<polygon fill="#63b8ff" stroke="#63b8ff" points="1063.19,-75.01 1052.63,-74.17 1060.36,-81.41 1063.19,-75.01"/>
</a>
</g>
</g>
<!-- Node44 -->
<g id="Node000044" class="node">
<title>Node44</title>
<g id="a_Node000044"><a xlink:title=" ">
<polygon fill="#e0e0e0" stroke="#999999" points="1250,-74 1156,-74 1156,-55 1250,-55 1250,-74"/>
<text text-anchor="middle" x="1203" y="-62" font-family="Helvetica,sans-Serif" font-size="10.00">big&#45;int/bigint.hh</text>
</a>
</g>
</g>
<!-- Node43&#45;&gt;Node44 -->
<g id="edge58_Node000043_Node000044" class="edge">
<title>Node43&#45;&gt;Node44</title>
<g id="a_edge58_Node000043_Node000044"><a xlink:title=" ">
<path fill="none" stroke="#63b8ff" d="M1161.26,-109.75C1168.46,-102.11 1179.11,-90.82 1187.85,-81.56"/>
<polygon fill="#63b8ff" stroke="#63b8ff" points="1190.58,-83.76 1194.9,-74.09 1185.49,-78.96 1190.58,-83.76"/>
</a>
</g>
</g>
<!-- Node45&#45;&gt;Node9 -->
<g id="edge63_Node000045_Node000009" class="edge">
<title>Node45&#45;&gt;Node9</title>
<g id="a_edge63_Node000045_Node000009"><a xlink:title=" ">
<path fill="none" stroke="#63b8ff" d="M564.15,-668.73C448.48,-668.64 76,-660.56 76,-560.5 76,-560.5 76,-560.5 76,-393.5 76,-319.11 38,-304.89 38,-230.5 38,-230.5 38,-230.5 38,-173.5 38,-97.92 145.39,-75.23 208.38,-68.42"/>
<polygon fill="#63b8ff" stroke="#63b8ff" points="208.85,-71.89 218.46,-67.42 208.16,-64.92 208.85,-71.89"/>
</a>
</g>
</g>
<!-- Node45&#45;&gt;Node37 -->
<g id="edge64_Node000045_Node000037" class="edge">
<title>Node45&#45;&gt;Node37</title>
<g id="a_edge64_Node000045_Node000037"><a xlink:title=" ">
<path fill="none" stroke="#63b8ff" d="M614.39,-659.98C630.57,-651.57 655.57,-638.59 674.38,-628.81"/>
<polygon fill="#63b8ff" stroke="#63b8ff" points="676.05,-631.89 683.31,-624.17 672.83,-625.68 676.05,-631.89"/>
</a>
</g>
</g>
<!-- Node45&#45;&gt;Node41 -->
<g id="edge62_Node000045_Node000041" class="edge">
<title>Node45&#45;&gt;Node41</title>
<g id="a_edge62_Node000045_Node000041"><a xlink:title=" ">
<path fill="none" stroke="#63b8ff" d="M598,-659.66C598,-642.17 598,-602.8 598,-579.27"/>
<polygon fill="#63b8ff" stroke="#63b8ff" points="601.5,-579.16 598,-569.16 594.5,-579.16 601.5,-579.16"/>
</a>
</g>
</g>
<!-- Node46&#45;&gt;Node6 -->
<g id="edge68_Node000046_Node000006" class="edge">
<title>Node46&#45;&gt;Node6</title>
<g id="a_edge68_Node000046_Node000006"><a xlink:title=" ">
<path fill="none" stroke="#63b8ff" d="M167.71,-277.26C257.21,-266.26 440.78,-243.68 515.39,-234.51"/>
<polygon fill="#63b8ff" stroke="#63b8ff" points="516.09,-237.95 525.58,-233.26 515.23,-231 516.09,-237.95"/>
</a>
</g>
</g>
<!-- Node46&#45;&gt;Node9 -->
<g id="edge67_Node000046_Node000009" class="edge">
<title>Node46&#45;&gt;Node9</title>
<g id="a_edge67_Node000046_Node000009"><a xlink:title=" ">
<path fill="none" stroke="#63b8ff" d="M118.22,-274.95C122.45,-247.94 138.67,-163.07 182,-110 192.84,-96.72 208.74,-86.24 222.75,-78.8"/>
<polygon fill="#63b8ff" stroke="#63b8ff" points="224.68,-81.74 232.05,-74.13 221.55,-75.48 224.68,-81.74"/>
</a>
</g>
</g>
</g>
</svg>
