<?xml version="1.0" encoding="UTF-8" standalone="no"?>
<!DOCTYPE svg PUBLIC "-//W3C//DTD SVG 1.1//EN"
 "http://www.w3.org/Graphics/SVG/1.1/DTD/svg11.dtd">
<!-- Generated by graphviz version 2.43.0 (0)
 -->
<!-- Title: /home/runner/work/cbmc/cbmc/src/ansi&#45;c/c_expr.cpp Pages: 1 -->
<svg width="984pt" height="533pt"
 viewBox="0.00 0.00 983.65 533.00" xmlns="http://www.w3.org/2000/svg" xmlns:xlink="http://www.w3.org/1999/xlink">
<g id="graph0" class="graph" transform="scale(1 1) rotate(0) translate(4 529)">
<title>/home/runner/work/cbmc/cbmc/src/ansi&#45;c/c_expr.cpp</title>
<!-- Node1 -->
<g id="Node000001" class="node">
<title>Node1</title>
<g id="a_Node000001"><a xlink:title=" ">
<polygon fill="#999999" stroke="#666666" points="836.65,-525 686.65,-525 686.65,-495 836.65,-495 836.65,-525"/>
<text text-anchor="start" x="694.65" y="-513" font-family="Helvetica,sans-Serif" font-size="10.00">/home/runner/work/cbmc</text>
<text text-anchor="middle" x="761.65" y="-502" font-family="Helvetica,sans-Serif" font-size="10.00">/cbmc/src/ansi&#45;c/c_expr.cpp</text>
</a>
</g>
</g>
<!-- Node2 -->
<g id="Node000002" class="node">
<title>Node2</title>
<g id="a_Node000002"><a xlink:href="c__expr_8h.html" target="_top" xlink:title="API to expression classes that are internal to the C frontend.">
<polygon fill="white" stroke="#666666" points="573.15,-459 516.15,-459 516.15,-440 573.15,-440 573.15,-459"/>
<text text-anchor="middle" x="544.65" y="-447" font-family="Helvetica,sans-Serif" font-size="10.00">c_expr.h</text>
</a>
</g>
</g>
<!-- Node1&#45;&gt;Node2 -->
<g id="edge1_Node000001_Node000002" class="edge">
<title>Node1&#45;&gt;Node2</title>
<g id="a_edge1_Node000001_Node000002"><a xlink:title=" ">
<path fill="none" stroke="#63b8ff" d="M709.67,-494.99C670.76,-484.5 618.38,-470.38 583.17,-460.88"/>
<polygon fill="#63b8ff" stroke="#63b8ff" points="583.83,-457.44 573.27,-458.22 582.01,-464.2 583.83,-457.44"/>
</a>
</g>
</g>
<!-- Node46 -->
<g id="Node000046" class="node">
<title>Node46</title>
<g id="a_Node000046"><a xlink:href="arith__tools_8h.html" target="_top" xlink:title=" ">
<polygon fill="white" stroke="#666666" points="809.65,-404 713.65,-404 713.65,-385 809.65,-385 809.65,-404"/>
<text text-anchor="middle" x="761.65" y="-392" font-family="Helvetica,sans-Serif" font-size="10.00">util/arith_tools.h</text>
</a>
</g>
</g>
<!-- Node1&#45;&gt;Node46 -->
<g id="edge45_Node000001_Node000046" class="edge">
<title>Node1&#45;&gt;Node46</title>
<g id="a_edge45_Node000001_Node000046"><a xlink:title=" ">
<path fill="none" stroke="#63b8ff" d="M761.65,-494.63C761.65,-474.21 761.65,-436.81 761.65,-414.24"/>
<polygon fill="#63b8ff" stroke="#63b8ff" points="765.15,-414.23 761.65,-404.23 758.15,-414.23 765.15,-414.23"/>
</a>
</g>
</g>
<!-- Node48 -->
<g id="Node000048" class="node">
<title>Node48</title>
<g id="a_Node000048"><a xlink:href="c__types_8h.html" target="_top" xlink:title=" ">
<polygon fill="white" stroke="#666666" points="699.65,-459 617.65,-459 617.65,-440 699.65,-440 699.65,-459"/>
<text text-anchor="middle" x="658.65" y="-447" font-family="Helvetica,sans-Serif" font-size="10.00">util/c_types.h</text>
</a>
</g>
</g>
<!-- Node1&#45;&gt;Node48 -->
<g id="edge50_Node000001_Node000048" class="edge">
<title>Node1&#45;&gt;Node48</title>
<g id="a_edge50_Node000001_Node000048"><a xlink:title=" ">
<path fill="none" stroke="#63b8ff" d="M736.98,-494.99C720.56,-485.66 699.1,-473.47 682.79,-464.21"/>
<polygon fill="#63b8ff" stroke="#63b8ff" points="684.28,-461.03 673.86,-459.14 680.83,-467.12 684.28,-461.03"/>
</a>
</g>
</g>
<!-- Node51 -->
<g id="Node000051" class="node">
<title>Node51</title>
<g id="a_Node000051"><a xlink:href="namespace_8h.html" target="_top" xlink:title=" ">
<polygon fill="white" stroke="#666666" points="891.15,-294 790.15,-294 790.15,-275 891.15,-275 891.15,-294"/>
<text text-anchor="middle" x="840.65" y="-282" font-family="Helvetica,sans-Serif" font-size="10.00">util/namespace.h</text>
</a>
</g>
</g>
<!-- Node1&#45;&gt;Node51 -->
<g id="edge56_Node000001_Node000051" class="edge">
<title>Node1&#45;&gt;Node51</title>
<g id="a_edge56_Node000001_Node000051"><a xlink:title=" ">
<path fill="none" stroke="#63b8ff" d="M771.3,-494.73C784.09,-475.14 806.46,-438.41 818.65,-404 830.72,-369.93 836.52,-327.89 839.01,-304.14"/>
<polygon fill="#63b8ff" stroke="#63b8ff" points="842.51,-304.36 839.98,-294.07 835.54,-303.69 842.51,-304.36"/>
</a>
</g>
</g>
<!-- Node52 -->
<g id="Node000052" class="node">
<title>Node52</title>
<g id="a_Node000052"><a xlink:href="simplify__expr_8h.html" target="_top" xlink:title=" ">
<polygon fill="white" stroke="#666666" points="975.65,-459 865.65,-459 865.65,-440 975.65,-440 975.65,-459"/>
<text text-anchor="middle" x="920.65" y="-447" font-family="Helvetica,sans-Serif" font-size="10.00">util/simplify_expr.h</text>
</a>
</g>
</g>
<!-- Node1&#45;&gt;Node52 -->
<g id="edge61_Node000001_Node000052" class="edge">
<title>Node1&#45;&gt;Node52</title>
<g id="a_edge61_Node000001_Node000052"><a xlink:title=" ">
<path fill="none" stroke="#63b8ff" d="M799.73,-494.99C826.5,-485.14 861.95,-472.1 887.54,-462.68"/>
<polygon fill="#63b8ff" stroke="#63b8ff" points="888.99,-465.88 897.17,-459.14 886.57,-459.31 888.99,-465.88"/>
</a>
</g>
</g>
<!-- Node3 -->
<g id="Node000003" class="node">
<title>Node3</title>
<g id="a_Node000003"><a xlink:href="byte__operators_8h.html" target="_top" xlink:title="Expression classes for byte&#45;level operators.">
<polygon fill="white" stroke="#666666" points="603.65,-404 485.65,-404 485.65,-385 603.65,-385 603.65,-404"/>
<text text-anchor="middle" x="544.65" y="-392" font-family="Helvetica,sans-Serif" font-size="10.00">util/byte_operators.h</text>
</a>
</g>
</g>
<!-- Node2&#45;&gt;Node3 -->
<g id="edge2_Node000002_Node000003" class="edge">
<title>Node2&#45;&gt;Node3</title>
<g id="a_edge2_Node000002_Node000003"><a xlink:title=" ">
<path fill="none" stroke="#63b8ff" d="M544.65,-439.75C544.65,-432.8 544.65,-422.85 544.65,-414.13"/>
<polygon fill="#63b8ff" stroke="#63b8ff" points="548.15,-414.09 544.65,-404.09 541.15,-414.09 548.15,-414.09"/>
</a>
</g>
</g>
<!-- Node44 -->
<g id="Node000044" class="node">
<title>Node44</title>
<g id="a_Node000044"><a xlink:href="std__code_8h.html" target="_top" xlink:title=" ">
<polygon fill="white" stroke="#666666" points="363.65,-404 275.65,-404 275.65,-385 363.65,-385 363.65,-404"/>
<text text-anchor="middle" x="319.65" y="-392" font-family="Helvetica,sans-Serif" font-size="10.00">util/std_code.h</text>
</a>
</g>
</g>
<!-- Node2&#45;&gt;Node44 -->
<g id="edge37_Node000002_Node000044" class="edge">
<title>Node2&#45;&gt;Node44</title>
<g id="a_edge37_Node000002_Node000044"><a xlink:title=" ">
<path fill="none" stroke="#63b8ff" d="M515.69,-441.68C477.74,-432.74 410.71,-416.95 365.74,-406.36"/>
<polygon fill="#63b8ff" stroke="#63b8ff" points="366.47,-402.93 355.93,-404.05 364.86,-409.75 366.47,-402.93"/>
</a>
</g>
</g>
<!-- Node4 -->
<g id="Node000004" class="node">
<title>Node4</title>
<g id="a_Node000004"><a xlink:href="src_2util_2invariant_8h.html" target="_top" xlink:title=" ">
<polygon fill="white" stroke="#666666" points="626.15,-184 557.15,-184 557.15,-165 626.15,-165 626.15,-184"/>
<text text-anchor="middle" x="591.65" y="-172" font-family="Helvetica,sans-Serif" font-size="10.00">invariant.h</text>
</a>
</g>
</g>
<!-- Node3&#45;&gt;Node4 -->
<g id="edge3_Node000003_Node000004" class="edge">
<title>Node3&#45;&gt;Node4</title>
<g id="a_edge3_Node000003_Node000004"><a xlink:title=" ">
<path fill="none" stroke="#63b8ff" d="M550.59,-384.72C556.17,-376.03 564.29,-362.17 568.65,-349 586.59,-294.79 590.58,-226.68 591.44,-194.28"/>
<polygon fill="#63b8ff" stroke="#63b8ff" points="594.94,-194.12 591.63,-184.06 587.94,-193.99 594.94,-194.12"/>
</a>
</g>
</g>
<!-- Node9 -->
<g id="Node000009" class="node">
<title>Node9</title>
<g id="a_Node000009"><a xlink:href="std__expr_8h.html" target="_top" xlink:title="API to expression classes.">
<polygon fill="white" stroke="#666666" points="560.15,-349 493.15,-349 493.15,-330 560.15,-330 560.15,-349"/>
<text text-anchor="middle" x="526.65" y="-337" font-family="Helvetica,sans-Serif" font-size="10.00">std_expr.h</text>
</a>
</g>
</g>
<!-- Node3&#45;&gt;Node9 -->
<g id="edge8_Node000003_Node000009" class="edge">
<title>Node3&#45;&gt;Node9</title>
<g id="a_edge8_Node000003_Node000009"><a xlink:title=" ">
<path fill="none" stroke="#63b8ff" d="M541.68,-384.75C539.29,-377.72 535.86,-367.62 532.88,-358.84"/>
<polygon fill="#63b8ff" stroke="#63b8ff" points="536.1,-357.43 529.57,-349.09 529.47,-359.68 536.1,-357.43"/>
</a>
</g>
</g>
<!-- Node5 -->
<g id="Node000005" class="node">
<title>Node5</title>
<g id="a_Node000005"><a xlink:title=" ">
<polygon fill="#e0e0e0" stroke="#999999" points="687.15,-129 638.15,-129 638.15,-110 687.15,-110 687.15,-129"/>
<text text-anchor="middle" x="662.65" y="-117" font-family="Helvetica,sans-Serif" font-size="10.00">cstdlib</text>
</a>
</g>
</g>
<!-- Node4&#45;&gt;Node5 -->
<g id="edge4_Node000004_Node000005" class="edge">
<title>Node4&#45;&gt;Node5</title>
<g id="a_edge4_Node000004_Node000005"><a xlink:title=" ">
<path fill="none" stroke="#63b8ff" d="M603.06,-164.98C613.76,-157 629.99,-144.88 642.81,-135.31"/>
<polygon fill="#63b8ff" stroke="#63b8ff" points="645.11,-137.96 651.03,-129.17 640.93,-132.35 645.11,-137.96"/>
</a>
</g>
</g>
<!-- Node6 -->
<g id="Node000006" class="node">
<title>Node6</title>
<g id="a_Node000006"><a xlink:title=" ">
<polygon fill="#e0e0e0" stroke="#999999" points="619.65,-129 563.65,-129 563.65,-110 619.65,-110 619.65,-129"/>
<text text-anchor="middle" x="591.65" y="-117" font-family="Helvetica,sans-Serif" font-size="10.00">sstream</text>
</a>
</g>
</g>
<!-- Node4&#45;&gt;Node6 -->
<g id="edge5_Node000004_Node000006" class="edge">
<title>Node4&#45;&gt;Node6</title>
<g id="a_edge5_Node000004_Node000006"><a xlink:title=" ">
<path fill="none" stroke="#63b8ff" d="M591.65,-164.75C591.65,-157.8 591.65,-147.85 591.65,-139.13"/>
<polygon fill="#63b8ff" stroke="#63b8ff" points="595.15,-139.09 591.65,-129.09 588.15,-139.09 595.15,-139.09"/>
</a>
</g>
</g>
<!-- Node7 -->
<g id="Node000007" class="node">
<title>Node7</title>
<g id="a_Node000007"><a xlink:title=" ">
<polygon fill="#e0e0e0" stroke="#999999" points="854.65,-129 810.65,-129 810.65,-110 854.65,-110 854.65,-129"/>
<text text-anchor="middle" x="832.65" y="-117" font-family="Helvetica,sans-Serif" font-size="10.00">string</text>
</a>
</g>
</g>
<!-- Node4&#45;&gt;Node7 -->
<g id="edge6_Node000004_Node000007" class="edge">
<title>Node4&#45;&gt;Node7</title>
<g id="a_edge6_Node000004_Node000007"><a xlink:title=" ">
<path fill="none" stroke="#63b8ff" d="M626.18,-165.91C672.79,-155.66 755.2,-137.53 800.53,-127.56"/>
<polygon fill="#63b8ff" stroke="#63b8ff" points="801.4,-130.96 810.42,-125.39 799.9,-124.12 801.4,-130.96"/>
</a>
</g>
</g>
<!-- Node8 -->
<g id="Node000008" class="node">
<title>Node8</title>
<g id="a_Node000008"><a xlink:title=" ">
<polygon fill="#e0e0e0" stroke="#999999" points="245.15,-19 176.15,-19 176.15,0 245.15,0 245.15,-19"/>
<text text-anchor="middle" x="210.65" y="-7" font-family="Helvetica,sans-Serif" font-size="10.00">type_traits</text>
</a>
</g>
</g>
<!-- Node4&#45;&gt;Node8 -->
<g id="edge7_Node000004_Node000008" class="edge">
<title>Node4&#45;&gt;Node8</title>
<g id="a_edge7_Node000004_Node000008"><a xlink:title=" ">
<path fill="none" stroke="#63b8ff" d="M577.07,-164.84C555.09,-151.98 511.96,-127.46 473.65,-110 394.11,-73.74 297.17,-39.53 246.08,-22.23"/>
<polygon fill="#63b8ff" stroke="#63b8ff" points="247.09,-18.88 236.5,-19.01 244.86,-25.52 247.09,-18.88"/>
</a>
</g>
</g>
<!-- Node9&#45;&gt;Node4 -->
<g id="edge26_Node000009_Node000004" class="edge">
<title>Node9&#45;&gt;Node4</title>
<g id="a_edge26_Node000009_Node000004"><a xlink:title=" ">
<path fill="none" stroke="#63b8ff" d="M530.14,-329.74C540.37,-304.09 570.4,-228.78 584.36,-193.78"/>
<polygon fill="#63b8ff" stroke="#63b8ff" points="587.68,-194.89 588.14,-184.31 581.18,-192.3 587.68,-194.89"/>
</a>
</g>
</g>
<!-- Node10 -->
<g id="Node000010" class="node">
<title>Node10</title>
<g id="a_Node000010"><a xlink:href="expr__cast_8h.html" target="_top" xlink:title="Templated functions to cast to specific exprt&#45;derived classes.">
<polygon fill="white" stroke="#666666" points="293.15,-239 220.15,-239 220.15,-220 293.15,-220 293.15,-239"/>
<text text-anchor="middle" x="256.65" y="-227" font-family="Helvetica,sans-Serif" font-size="10.00">expr_cast.h</text>
</a>
</g>
</g>
<!-- Node9&#45;&gt;Node10 -->
<g id="edge9_Node000009_Node000010" class="edge">
<title>Node9&#45;&gt;Node10</title>
<g id="a_edge9_Node000009_Node000010"><a xlink:title=" ">
<path fill="none" stroke="#63b8ff" d="M493.12,-330.34C462.71,-322.5 416.93,-309.56 378.65,-294 342.91,-279.48 303.69,-258 279.62,-244.12"/>
<polygon fill="#63b8ff" stroke="#63b8ff" points="281.28,-241.04 270.88,-239.03 277.76,-247.09 281.28,-241.04"/>
</a>
</g>
</g>
<!-- Node41 -->
<g id="Node000041" class="node">
<title>Node41</title>
<g id="a_Node000041"><a xlink:href="std__types_8h.html" target="_top" xlink:title="Pre&#45;defined types.">
<polygon fill="white" stroke="#666666" points="461.15,-294 388.15,-294 388.15,-275 461.15,-275 461.15,-294"/>
<text text-anchor="middle" x="424.65" y="-282" font-family="Helvetica,sans-Serif" font-size="10.00">std_types.h</text>
</a>
</g>
</g>
<!-- Node9&#45;&gt;Node41 -->
<g id="edge27_Node000009_Node000041" class="edge">
<title>Node9&#45;&gt;Node41</title>
<g id="a_edge27_Node000009_Node000041"><a xlink:title=" ">
<path fill="none" stroke="#63b8ff" d="M510.26,-329.98C494.07,-321.57 469.08,-308.59 450.27,-298.81"/>
<polygon fill="#63b8ff" stroke="#63b8ff" points="451.82,-295.68 441.34,-294.17 448.6,-301.89 451.82,-295.68"/>
</a>
</g>
</g>
<!-- Node10&#45;&gt;Node4 -->
<g id="edge13_Node000010_Node000004" class="edge">
<title>Node10&#45;&gt;Node4</title>
<g id="a_edge13_Node000010_Node000004"><a xlink:title=" ">
<path fill="none" stroke="#63b8ff" d="M293.46,-222.68C355.33,-212.89 479.96,-193.17 546.83,-182.59"/>
<polygon fill="#63b8ff" stroke="#63b8ff" points="547.72,-185.99 557.05,-180.97 546.62,-179.08 547.72,-185.99"/>
</a>
</g>
</g>
<!-- Node10&#45;&gt;Node8 -->
<g id="edge11_Node000010_Node000008" class="edge">
<title>Node10&#45;&gt;Node8</title>
<g id="a_edge11_Node000010_Node000008"><a xlink:title=" ">
<path fill="none" stroke="#63b8ff" d="M220.02,-225.62C165.1,-219.09 63.19,-197.83 19.65,-129 -19,-67.91 98.29,-33.18 166.08,-18.65"/>
<polygon fill="#63b8ff" stroke="#63b8ff" points="167.02,-22.03 176.1,-16.57 165.6,-15.18 167.02,-22.03"/>
</a>
</g>
</g>
<!-- Node11 -->
<g id="Node000011" class="node">
<title>Node11</title>
<g id="a_Node000011"><a xlink:title=" ">
<polygon fill="#e0e0e0" stroke="#999999" points="239.15,-184 182.15,-184 182.15,-165 239.15,-165 239.15,-184"/>
<text text-anchor="middle" x="210.65" y="-172" font-family="Helvetica,sans-Serif" font-size="10.00">typeinfo</text>
</a>
</g>
</g>
<!-- Node10&#45;&gt;Node11 -->
<g id="edge10_Node000010_Node000011" class="edge">
<title>Node10&#45;&gt;Node11</title>
<g id="a_edge10_Node000010_Node000011"><a xlink:title=" ">
<path fill="none" stroke="#63b8ff" d="M249.05,-219.75C242.49,-212.18 232.83,-201.05 224.83,-191.84"/>
<polygon fill="#63b8ff" stroke="#63b8ff" points="227.3,-189.35 218.1,-184.09 222.02,-193.94 227.3,-189.35"/>
</a>
</g>
</g>
<!-- Node12 -->
<g id="Node000012" class="node">
<title>Node12</title>
<g id="a_Node000012"><a xlink:title=" ">
<polygon fill="#e0e0e0" stroke="#999999" points="94.15,-129 29.15,-129 29.15,-110 94.15,-110 94.15,-129"/>
<text text-anchor="middle" x="61.65" y="-117" font-family="Helvetica,sans-Serif" font-size="10.00">functional</text>
</a>
</g>
</g>
<!-- Node10&#45;&gt;Node12 -->
<g id="edge12_Node000010_Node000012" class="edge">
<title>Node10&#45;&gt;Node12</title>
<g id="a_edge12_Node000010_Node000012"><a xlink:title=" ">
<path fill="none" stroke="#63b8ff" d="M240.15,-219.96C223.15,-211.11 195.92,-196.82 172.65,-184 142.19,-167.23 107.45,-147.21 85.07,-134.19"/>
<polygon fill="#63b8ff" stroke="#63b8ff" points="86.69,-131.08 76.29,-129.08 83.17,-137.13 86.69,-131.08"/>
</a>
</g>
</g>
<!-- Node13 -->
<g id="Node000013" class="node">
<title>Node13</title>
<g id="a_Node000013"><a xlink:href="expr_8h.html" target="_top" xlink:title=" ">
<polygon fill="white" stroke="#666666" points="304.15,-184 257.15,-184 257.15,-165 304.15,-165 304.15,-184"/>
<text text-anchor="middle" x="280.65" y="-172" font-family="Helvetica,sans-Serif" font-size="10.00">expr.h</text>
</a>
</g>
</g>
<!-- Node10&#45;&gt;Node13 -->
<g id="edge14_Node000010_Node000013" class="edge">
<title>Node10&#45;&gt;Node13</title>
<g id="a_edge14_Node000010_Node000013"><a xlink:title=" ">
<path fill="none" stroke="#63b8ff" d="M260.61,-219.75C263.86,-212.57 268.57,-202.18 272.6,-193.27"/>
<polygon fill="#63b8ff" stroke="#63b8ff" points="275.82,-194.64 276.76,-184.09 269.45,-191.75 275.82,-194.64"/>
</a>
</g>
</g>
<!-- Node13&#45;&gt;Node12 -->
<g id="edge25_Node000013_Node000012" class="edge">
<title>Node13&#45;&gt;Node12</title>
<g id="a_edge25_Node000013_Node000012"><a xlink:title=" ">
<path fill="none" stroke="#63b8ff" d="M256.87,-167.32C253.77,-166.53 250.63,-165.74 247.65,-165 198.61,-152.82 142.14,-139.39 104.41,-130.51"/>
<polygon fill="#63b8ff" stroke="#63b8ff" points="104.82,-127.01 94.28,-128.13 103.22,-133.82 104.82,-127.01"/>
</a>
</g>
</g>
<!-- Node14 -->
<g id="Node000014" class="node">
<title>Node14</title>
<g id="a_Node000014"><a xlink:href="as__const_8h.html" target="_top" xlink:title=" ">
<polygon fill="white" stroke="#666666" points="431.65,-129 363.65,-129 363.65,-110 431.65,-110 431.65,-129"/>
<text text-anchor="middle" x="397.65" y="-117" font-family="Helvetica,sans-Serif" font-size="10.00">as_const.h</text>
</a>
</g>
</g>
<!-- Node13&#45;&gt;Node14 -->
<g id="edge15_Node000013_Node000014" class="edge">
<title>Node13&#45;&gt;Node14</title>
<g id="a_edge15_Node000013_Node000014"><a xlink:title=" ">
<path fill="none" stroke="#63b8ff" d="M299.45,-164.98C318.27,-156.46 347.47,-143.23 369.15,-133.41"/>
<polygon fill="#63b8ff" stroke="#63b8ff" points="370.84,-136.48 378.51,-129.17 367.96,-130.11 370.84,-136.48"/>
</a>
</g>
</g>
<!-- Node15 -->
<g id="Node000015" class="node">
<title>Node15</title>
<g id="a_Node000015"><a xlink:href="type_8h.html" target="_top" xlink:title="Defines typet, type_with_subtypet and type_with_subtypest.">
<polygon fill="#fff0f0" stroke="red" points="198.15,-129 151.15,-129 151.15,-110 198.15,-110 198.15,-129"/>
<text text-anchor="middle" x="174.65" y="-117" font-family="Helvetica,sans-Serif" font-size="10.00">type.h</text>
</a>
</g>
</g>
<!-- Node13&#45;&gt;Node15 -->
<g id="edge16_Node000013_Node000015" class="edge">
<title>Node13&#45;&gt;Node15</title>
<g id="a_edge16_Node000013_Node000015"><a xlink:title=" ">
<path fill="none" stroke="#63b8ff" d="M263.62,-164.98C246.72,-156.54 220.58,-143.47 201.01,-133.68"/>
<polygon fill="#63b8ff" stroke="#63b8ff" points="202.5,-130.51 191.99,-129.17 199.37,-136.77 202.5,-130.51"/>
</a>
</g>
</g>
<!-- Node38 -->
<g id="Node000038" class="node">
<title>Node38</title>
<g id="a_Node000038"><a xlink:href="validation__mode_8h.html" target="_top" xlink:title=" ">
<polygon fill="white" stroke="#666666" points="370.15,-19 263.15,-19 263.15,0 370.15,0 370.15,-19"/>
<text text-anchor="middle" x="316.65" y="-7" font-family="Helvetica,sans-Serif" font-size="10.00">validation_mode.h</text>
</a>
</g>
</g>
<!-- Node13&#45;&gt;Node38 -->
<g id="edge24_Node000013_Node000038" class="edge">
<title>Node13&#45;&gt;Node38</title>
<g id="a_edge24_Node000013_Node000038"><a xlink:title=" ">
<path fill="none" stroke="#63b8ff" d="M304.4,-170.41C344.81,-164.61 424.16,-150.69 440.65,-129 473.78,-85.39 395.31,-43.28 348.49,-23.02"/>
<polygon fill="#63b8ff" stroke="#63b8ff" points="349.6,-19.69 339.03,-19.04 346.88,-26.15 349.6,-19.69"/>
</a>
</g>
</g>
<!-- Node39 -->
<g id="Node000039" class="node">
<title>Node39</title>
<g id="a_Node000039"><a xlink:href="validate__types_8h.html" target="_top" xlink:title=" ">
<polygon fill="white" stroke="#666666" points="171.65,-74 73.65,-74 73.65,-55 171.65,-55 171.65,-74"/>
<text text-anchor="middle" x="122.65" y="-62" font-family="Helvetica,sans-Serif" font-size="10.00">validate_types.h</text>
</a>
</g>
</g>
<!-- Node13&#45;&gt;Node39 -->
<g id="edge23_Node000013_Node000039" class="edge">
<title>Node13&#45;&gt;Node39</title>
<g id="a_edge23_Node000013_Node000039"><a xlink:title=" ">
<path fill="none" stroke="#63b8ff" d="M257.01,-167.22C219.54,-157.09 149.9,-137.41 141.65,-129 129.95,-117.07 125.41,-98.25 123.67,-84.19"/>
<polygon fill="#63b8ff" stroke="#63b8ff" points="127.15,-83.81 122.79,-74.16 120.18,-84.42 127.15,-83.81"/>
</a>
</g>
</g>
<!-- Node40 -->
<g id="Node000040" class="node">
<title>Node40</title>
<g id="a_Node000040"><a xlink:href="validate__expressions_8h.html" target="_top" xlink:title=" ">
<polygon fill="white" stroke="#666666" points="345.15,-129 216.15,-129 216.15,-110 345.15,-110 345.15,-129"/>
<text text-anchor="middle" x="280.65" y="-117" font-family="Helvetica,sans-Serif" font-size="10.00">validate_expressions.h</text>
</a>
</g>
</g>
<!-- Node13&#45;&gt;Node40 -->
<g id="edge22_Node000013_Node000040" class="edge">
<title>Node13&#45;&gt;Node40</title>
<g id="a_edge22_Node000013_Node000040"><a xlink:title=" ">
<path fill="none" stroke="#63b8ff" d="M280.65,-164.75C280.65,-157.8 280.65,-147.85 280.65,-139.13"/>
<polygon fill="#63b8ff" stroke="#63b8ff" points="284.15,-139.09 280.65,-129.09 277.15,-139.09 284.15,-139.09"/>
</a>
</g>
</g>
<!-- Node36 -->
<g id="Node000036" class="node">
<title>Node36</title>
<g id="a_Node000036"><a xlink:href="validate_8h.html" target="_top" xlink:title=" ">
<polygon fill="#fff0f0" stroke="red" points="255.15,-74 190.15,-74 190.15,-55 255.15,-55 255.15,-74"/>
<text text-anchor="middle" x="222.65" y="-62" font-family="Helvetica,sans-Serif" font-size="10.00">validate.h</text>
</a>
</g>
</g>
<!-- Node15&#45;&gt;Node36 -->
<g id="edge17_Node000015_Node000036" class="edge">
<title>Node15&#45;&gt;Node36</title>
<g id="a_edge17_Node000015_Node000036"><a xlink:title=" ">
<path fill="none" stroke="#63b8ff" d="M182.58,-109.75C189.5,-102.11 199.71,-90.82 208.1,-81.56"/>
<polygon fill="#63b8ff" stroke="#63b8ff" points="210.75,-83.85 214.87,-74.09 205.56,-79.15 210.75,-83.85"/>
</a>
</g>
</g>
<!-- Node15&#45;&gt;Node38 -->
<g id="edge21_Node000015_Node000038" class="edge">
<title>Node15&#45;&gt;Node38</title>
<g id="a_edge21_Node000015_Node000038"><a xlink:title=" ">
<path fill="none" stroke="#63b8ff" d="M198.1,-109.89C216.99,-102.26 243.6,-89.87 263.65,-74 280.3,-60.82 295.4,-41.68 305.18,-27.86"/>
<polygon fill="#63b8ff" stroke="#63b8ff" points="308.3,-29.51 311.06,-19.28 302.52,-25.56 308.3,-29.51"/>
</a>
</g>
</g>
<!-- Node15&#45;&gt;Node39 -->
<g id="edge20_Node000015_Node000039" class="edge">
<title>Node15&#45;&gt;Node39</title>
<g id="a_edge20_Node000015_Node000039"><a xlink:title=" ">
<path fill="none" stroke="#63b8ff" d="M166.06,-109.75C158.49,-102.03 147.27,-90.6 138.13,-81.28"/>
<polygon fill="#63b8ff" stroke="#63b8ff" points="140.58,-78.78 131.08,-74.09 135.58,-83.68 140.58,-78.78"/>
</a>
</g>
</g>
<!-- Node36&#45;&gt;Node8 -->
<g id="edge18_Node000036_Node000008" class="edge">
<title>Node36&#45;&gt;Node8</title>
<g id="a_edge18_Node000036_Node000008"><a xlink:title=" ">
<path fill="none" stroke="#63b8ff" d="M220.67,-54.75C219.08,-47.72 216.79,-37.62 214.8,-28.84"/>
<polygon fill="#63b8ff" stroke="#63b8ff" points="218.22,-28.07 212.59,-19.09 211.39,-29.62 218.22,-28.07"/>
</a>
</g>
</g>
<!-- Node36&#45;&gt;Node38 -->
<g id="edge19_Node000036_Node000038" class="edge">
<title>Node36&#45;&gt;Node38</title>
<g id="a_edge19_Node000036_Node000038"><a xlink:title=" ">
<path fill="none" stroke="#63b8ff" d="M237.75,-54.98C252.46,-46.69 275.07,-33.94 292.32,-24.22"/>
<polygon fill="#63b8ff" stroke="#63b8ff" points="294.28,-27.13 301.27,-19.17 290.84,-21.03 294.28,-27.13"/>
</a>
</g>
</g>
<!-- Node41&#45;&gt;Node4 -->
<g id="edge30_Node000041_Node000004" class="edge">
<title>Node41&#45;&gt;Node4</title>
<g id="a_edge30_Node000041_Node000004"><a xlink:title=" ">
<path fill="none" stroke="#63b8ff" d="M426.44,-274.77C429.68,-261.14 437.81,-234.82 454.65,-220 480.34,-197.39 517.72,-186.23 546.95,-180.75"/>
<polygon fill="#63b8ff" stroke="#63b8ff" points="547.65,-184.18 556.91,-179.04 546.46,-177.28 547.65,-184.18"/>
</a>
</g>
</g>
<!-- Node41&#45;&gt;Node10 -->
<g id="edge29_Node000041_Node000010" class="edge">
<title>Node41&#45;&gt;Node10</title>
<g id="a_edge29_Node000041_Node000010"><a xlink:title=" ">
<path fill="none" stroke="#63b8ff" d="M397.66,-274.98C369.45,-266.09 325.01,-252.07 293.57,-242.15"/>
<polygon fill="#63b8ff" stroke="#63b8ff" points="294.44,-238.75 283.85,-239.08 292.34,-245.43 294.44,-238.75"/>
</a>
</g>
</g>
<!-- Node41&#45;&gt;Node13 -->
<g id="edge28_Node000041_Node000013" class="edge">
<title>Node41&#45;&gt;Node13</title>
<g id="a_edge28_Node000041_Node000013"><a xlink:title=" ">
<path fill="none" stroke="#63b8ff" d="M412.86,-274.66C388.17,-256.14 330.75,-213.08 300.35,-190.28"/>
<polygon fill="#63b8ff" stroke="#63b8ff" points="302.29,-187.36 292.19,-184.16 298.09,-192.96 302.29,-187.36"/>
</a>
</g>
</g>
<!-- Node41&#45;&gt;Node36 -->
<g id="edge35_Node000041_Node000036" class="edge">
<title>Node41&#45;&gt;Node36</title>
<g id="a_edge35_Node000041_Node000036"><a xlink:title=" ">
<path fill="none" stroke="#63b8ff" d="M426.13,-274.94C431.79,-241.76 451.17,-122.89 440.65,-110 418.97,-83.45 322.6,-72.33 265.5,-68"/>
<polygon fill="#63b8ff" stroke="#63b8ff" points="265.55,-64.49 255.32,-67.27 265.05,-71.48 265.55,-64.49"/>
</a>
</g>
</g>
<!-- Node42 -->
<g id="Node000042" class="node">
<title>Node42</title>
<g id="a_Node000042"><a xlink:href="mp__arith_8h.html" target="_top" xlink:title=" ">
<polygon fill="white" stroke="#666666" points="799.15,-239 730.15,-239 730.15,-220 799.15,-220 799.15,-239"/>
<text text-anchor="middle" x="764.65" y="-227" font-family="Helvetica,sans-Serif" font-size="10.00">mp_arith.h</text>
</a>
</g>
</g>
<!-- Node41&#45;&gt;Node42 -->
<g id="edge31_Node000041_Node000042" class="edge">
<title>Node41&#45;&gt;Node42</title>
<g id="a_edge31_Node000041_Node000042"><a xlink:title=" ">
<path fill="none" stroke="#63b8ff" d="M461.36,-277.78C524.24,-267.98 652.32,-248.01 720.17,-237.43"/>
<polygon fill="#63b8ff" stroke="#63b8ff" points="720.79,-240.88 730.13,-235.88 719.71,-233.96 720.79,-240.88"/>
</a>
</g>
</g>
<!-- Node27 -->
<g id="Node000027" class="node">
<title>Node27</title>
<g id="a_Node000027"><a xlink:title=" ">
<polygon fill="#e0e0e0" stroke="#999999" points="557.15,-239 464.15,-239 464.15,-220 557.15,-220 557.15,-239"/>
<text text-anchor="middle" x="510.65" y="-227" font-family="Helvetica,sans-Serif" font-size="10.00">unordered_map</text>
</a>
</g>
</g>
<!-- Node41&#45;&gt;Node27 -->
<g id="edge36_Node000041_Node000027" class="edge">
<title>Node41&#45;&gt;Node27</title>
<g id="a_edge36_Node000041_Node000027"><a xlink:title=" ">
<path fill="none" stroke="#63b8ff" d="M438.47,-274.98C451.8,-266.77 472.23,-254.18 487.95,-244.49"/>
<polygon fill="#63b8ff" stroke="#63b8ff" points="489.9,-247.4 496.58,-239.17 486.23,-241.44 489.9,-247.4"/>
</a>
</g>
</g>
<!-- Node42&#45;&gt;Node7 -->
<g id="edge33_Node000042_Node000007" class="edge">
<title>Node42&#45;&gt;Node7</title>
<g id="a_edge33_Node000042_Node000007"><a xlink:title=" ">
<path fill="none" stroke="#63b8ff" d="M777.73,-219.75C788.81,-211.7 804.34,-198.78 813.65,-184 822.27,-170.31 827.16,-152.5 829.81,-139.22"/>
<polygon fill="#63b8ff" stroke="#63b8ff" points="833.26,-139.79 831.54,-129.33 826.37,-138.58 833.26,-139.79"/>
</a>
</g>
</g>
<!-- Node22 -->
<g id="Node000022" class="node">
<title>Node22</title>
<g id="a_Node000022"><a xlink:title=" ">
<polygon fill="#e0e0e0" stroke="#999999" points="692.65,-184 644.65,-184 644.65,-165 692.65,-165 692.65,-184"/>
<text text-anchor="middle" x="668.65" y="-172" font-family="Helvetica,sans-Serif" font-size="10.00">iosfwd</text>
</a>
</g>
</g>
<!-- Node42&#45;&gt;Node22 -->
<g id="edge32_Node000042_Node000022" class="edge">
<title>Node42&#45;&gt;Node22</title>
<g id="a_edge32_Node000042_Node000022"><a xlink:title=" ">
<path fill="none" stroke="#63b8ff" d="M749.22,-219.98C734.2,-211.69 711.11,-198.94 693.49,-189.22"/>
<polygon fill="#63b8ff" stroke="#63b8ff" points="694.8,-185.94 684.35,-184.17 691.42,-192.07 694.8,-185.94"/>
</a>
</g>
</g>
<!-- Node43 -->
<g id="Node000043" class="node">
<title>Node43</title>
<g id="a_Node000043"><a xlink:title=" ">
<polygon fill="#e0e0e0" stroke="#999999" points="804.65,-184 710.65,-184 710.65,-165 804.65,-165 804.65,-184"/>
<text text-anchor="middle" x="757.65" y="-172" font-family="Helvetica,sans-Serif" font-size="10.00">big&#45;int/bigint.hh</text>
</a>
</g>
</g>
<!-- Node42&#45;&gt;Node43 -->
<g id="edge34_Node000042_Node000043" class="edge">
<title>Node42&#45;&gt;Node43</title>
<g id="a_edge34_Node000042_Node000043"><a xlink:title=" ">
<path fill="none" stroke="#63b8ff" d="M763.49,-219.75C762.58,-212.8 761.26,-202.85 760.11,-194.13"/>
<polygon fill="#63b8ff" stroke="#63b8ff" points="763.56,-193.54 758.78,-184.09 756.62,-194.46 763.56,-193.54"/>
</a>
</g>
</g>
<!-- Node44&#45;&gt;Node9 -->
<g id="edge44_Node000044_Node000009" class="edge">
<title>Node44&#45;&gt;Node9</title>
<g id="a_edge44_Node000044_Node000009"><a xlink:title=" ">
<path fill="none" stroke="#63b8ff" d="M352.91,-384.98C388.26,-375.93 444.32,-361.58 483.16,-351.64"/>
<polygon fill="#63b8ff" stroke="#63b8ff" points="484.31,-354.95 493.13,-349.08 482.57,-348.17 484.31,-354.95"/>
</a>
</g>
</g>
<!-- Node26 -->
<g id="Node000026" class="node">
<title>Node26</title>
<g id="a_Node000026"><a xlink:title=" ">
<polygon fill="#e0e0e0" stroke="#999999" points="355.65,-349 323.65,-349 323.65,-330 355.65,-330 355.65,-349"/>
<text text-anchor="middle" x="339.65" y="-337" font-family="Helvetica,sans-Serif" font-size="10.00">list</text>
</a>
</g>
</g>
<!-- Node44&#45;&gt;Node26 -->
<g id="edge38_Node000044_Node000026" class="edge">
<title>Node44&#45;&gt;Node26</title>
<g id="a_edge38_Node000044_Node000026"><a xlink:title=" ">
<path fill="none" stroke="#63b8ff" d="M322.95,-384.75C325.63,-377.65 329.5,-367.4 332.84,-358.56"/>
<polygon fill="#63b8ff" stroke="#63b8ff" points="336.15,-359.68 336.41,-349.09 329.6,-357.21 336.15,-359.68"/>
</a>
</g>
</g>
<!-- Node45 -->
<g id="Node000045" class="node">
<title>Node45</title>
<g id="a_Node000045"><a xlink:href="std__code__base_8h.html" target="_top" xlink:title=" ">
<polygon fill="white" stroke="#666666" points="305.65,-349 207.65,-349 207.65,-330 305.65,-330 305.65,-349"/>
<text text-anchor="middle" x="256.65" y="-337" font-family="Helvetica,sans-Serif" font-size="10.00">std_code_base.h</text>
</a>
</g>
</g>
<!-- Node44&#45;&gt;Node45 -->
<g id="edge39_Node000044_Node000045" class="edge">
<title>Node44&#45;&gt;Node45</title>
<g id="a_edge39_Node000044_Node000045"><a xlink:title=" ">
<path fill="none" stroke="#63b8ff" d="M309.53,-384.98C300.21,-377.15 286.18,-365.34 274.91,-355.86"/>
<polygon fill="#63b8ff" stroke="#63b8ff" points="276.86,-352.93 266.96,-349.17 272.35,-358.29 276.86,-352.93"/>
</a>
</g>
</g>
<!-- Node45&#45;&gt;Node4 -->
<g id="edge41_Node000045_Node000004" class="edge">
<title>Node45&#45;&gt;Node4</title>
<g id="a_edge41_Node000045_Node000004"><a xlink:title=" ">
<path fill="none" stroke="#63b8ff" d="M267.33,-329.76C294.17,-308.2 367.3,-251.88 436.65,-220 472.34,-203.59 515.47,-191.8 547.17,-184.5"/>
<polygon fill="#63b8ff" stroke="#63b8ff" points="548.04,-187.89 557.03,-182.28 546.51,-181.06 548.04,-187.89"/>
</a>
</g>
</g>
<!-- Node45&#45;&gt;Node10 -->
<g id="edge40_Node000045_Node000010" class="edge">
<title>Node45&#45;&gt;Node10</title>
<g id="a_edge40_Node000045_Node000010"><a xlink:title=" ">
<path fill="none" stroke="#63b8ff" d="M256.65,-329.66C256.65,-312.17 256.65,-272.8 256.65,-249.27"/>
<polygon fill="#63b8ff" stroke="#63b8ff" points="260.15,-249.16 256.65,-239.16 253.15,-249.16 260.15,-249.16"/>
</a>
</g>
</g>
<!-- Node45&#45;&gt;Node36 -->
<g id="edge43_Node000045_Node000036" class="edge">
<title>Node45&#45;&gt;Node36</title>
<g id="a_edge43_Node000045_Node000036"><a xlink:title=" ">
<path fill="none" stroke="#63b8ff" d="M207.59,-338.75C133.26,-336.26 0.65,-319.38 0.65,-230.5 0.65,-230.5 0.65,-230.5 0.65,-173.5 0.65,-144.04 -1.95,-130.04 19.65,-110 22.61,-107.25 120.94,-86.54 179.64,-74.36"/>
<polygon fill="#63b8ff" stroke="#63b8ff" points="180.67,-77.72 189.75,-72.27 179.25,-70.87 180.67,-77.72"/>
</a>
</g>
</g>
<!-- Node45&#45;&gt;Node41 -->
<g id="edge42_Node000045_Node000041" class="edge">
<title>Node45&#45;&gt;Node41</title>
<g id="a_edge42_Node000045_Node000041"><a xlink:title=" ">
<path fill="none" stroke="#63b8ff" d="M283.64,-329.98C311.85,-321.09 356.29,-307.07 387.73,-297.15"/>
<polygon fill="#63b8ff" stroke="#63b8ff" points="388.96,-300.43 397.45,-294.08 386.86,-293.75 388.96,-300.43"/>
</a>
</g>
</g>
<!-- Node46&#45;&gt;Node4 -->
<g id="edge46_Node000046_Node000004" class="edge">
<title>Node46&#45;&gt;Node4</title>
<g id="a_edge46_Node000046_Node000004"><a xlink:title=" ">
<path fill="none" stroke="#63b8ff" d="M754.98,-384.95C729.6,-352.4 638.68,-235.81 604.64,-192.16"/>
<polygon fill="#63b8ff" stroke="#63b8ff" points="607.36,-189.96 598.45,-184.22 601.84,-194.26 607.36,-189.96"/>
</a>
</g>
</g>
<!-- Node46&#45;&gt;Node9 -->
<g id="edge48_Node000046_Node000009" class="edge">
<title>Node46&#45;&gt;Node9</title>
<g id="a_edge48_Node000046_Node000009"><a xlink:title=" ">
<path fill="none" stroke="#63b8ff" d="M723.89,-384.98C682,-375.54 614.52,-360.32 570.37,-350.36"/>
<polygon fill="#63b8ff" stroke="#63b8ff" points="571.02,-346.92 560.5,-348.13 569.48,-353.75 571.02,-346.92"/>
</a>
</g>
</g>
<!-- Node46&#45;&gt;Node42 -->
<g id="edge47_Node000046_Node000042" class="edge">
<title>Node46&#45;&gt;Node42</title>
<g id="a_edge47_Node000046_Node000042"><a xlink:title=" ">
<path fill="none" stroke="#63b8ff" d="M761.81,-384.74C762.28,-359.31 763.64,-285.08 764.3,-249.69"/>
<polygon fill="#63b8ff" stroke="#63b8ff" points="767.8,-249.37 764.49,-239.31 760.8,-249.24 767.8,-249.37"/>
</a>
</g>
</g>
<!-- Node47 -->
<g id="Node000047" class="node">
<title>Node47</title>
<g id="a_Node000047"><a xlink:title=" ">
<polygon fill="#e0e0e0" stroke="#999999" points="695.65,-349 651.65,-349 651.65,-330 695.65,-330 695.65,-349"/>
<text text-anchor="middle" x="673.65" y="-337" font-family="Helvetica,sans-Serif" font-size="10.00">limits</text>
</a>
</g>
</g>
<!-- Node46&#45;&gt;Node47 -->
<g id="edge49_Node000046_Node000047" class="edge">
<title>Node46&#45;&gt;Node47</title>
<g id="a_edge49_Node000046_Node000047"><a xlink:title=" ">
<path fill="none" stroke="#63b8ff" d="M747.51,-384.98C733.86,-376.77 712.96,-364.18 696.87,-354.49"/>
<polygon fill="#63b8ff" stroke="#63b8ff" points="698.42,-351.33 688.04,-349.17 694.81,-357.33 698.42,-351.33"/>
</a>
</g>
</g>
<!-- Node17 -->
<g id="Node000017" class="node">
<title>Node17</title>
<g id="a_Node000017"><a xlink:href="deprecate_8h.html" target="_top" xlink:title=" ">
<polygon fill="white" stroke="#666666" points="695.65,-404 621.65,-404 621.65,-385 695.65,-385 695.65,-404"/>
<text text-anchor="middle" x="658.65" y="-392" font-family="Helvetica,sans-Serif" font-size="10.00">deprecate.h</text>
</a>
</g>
</g>
<!-- Node48&#45;&gt;Node17 -->
<g id="edge51_Node000048_Node000017" class="edge">
<title>Node48&#45;&gt;Node17</title>
<g id="a_edge51_Node000048_Node000017"><a xlink:title=" ">
<path fill="none" stroke="#63b8ff" d="M658.65,-439.75C658.65,-432.8 658.65,-422.85 658.65,-414.13"/>
<polygon fill="#63b8ff" stroke="#63b8ff" points="662.15,-414.09 658.65,-404.09 655.15,-414.09 662.15,-414.09"/>
</a>
</g>
</g>
<!-- Node49 -->
<g id="Node000049" class="node">
<title>Node49</title>
<g id="a_Node000049"><a xlink:href="pointer__expr_8h.html" target="_top" xlink:title="API to expression classes for Pointers.">
<polygon fill="white" stroke="#666666" points="467.65,-404 381.65,-404 381.65,-385 467.65,-385 467.65,-404"/>
<text text-anchor="middle" x="424.65" y="-392" font-family="Helvetica,sans-Serif" font-size="10.00">pointer_expr.h</text>
</a>
</g>
</g>
<!-- Node48&#45;&gt;Node49 -->
<g id="edge52_Node000048_Node000049" class="edge">
<title>Node48&#45;&gt;Node49</title>
<g id="a_edge52_Node000048_Node000049"><a xlink:title=" ">
<path fill="none" stroke="#63b8ff" d="M621.05,-439.98C580.66,-430.84 516.36,-416.27 472.42,-406.32"/>
<polygon fill="#63b8ff" stroke="#63b8ff" points="473.07,-402.88 462.54,-404.08 471.52,-409.7 473.07,-402.88"/>
</a>
</g>
</g>
<!-- Node49&#45;&gt;Node9 -->
<g id="edge55_Node000049_Node000009" class="edge">
<title>Node49&#45;&gt;Node9</title>
<g id="a_edge55_Node000049_Node000009"><a xlink:title=" ">
<path fill="none" stroke="#63b8ff" d="M441.04,-384.98C457.22,-376.57 482.22,-363.59 501.03,-353.81"/>
<polygon fill="#63b8ff" stroke="#63b8ff" points="502.7,-356.89 509.96,-349.17 499.48,-350.68 502.7,-356.89"/>
</a>
</g>
</g>
<!-- Node50 -->
<g id="Node000050" class="node">
<title>Node50</title>
<g id="a_Node000050"><a xlink:href="bitvector__types_8h.html" target="_top" xlink:title="Pre&#45;defined bitvector types.">
<polygon fill="white" stroke="#666666" points="475.15,-349 374.15,-349 374.15,-330 475.15,-330 475.15,-349"/>
<text text-anchor="middle" x="424.65" y="-337" font-family="Helvetica,sans-Serif" font-size="10.00">bitvector_types.h</text>
</a>
</g>
</g>
<!-- Node49&#45;&gt;Node50 -->
<g id="edge53_Node000049_Node000050" class="edge">
<title>Node49&#45;&gt;Node50</title>
<g id="a_edge53_Node000049_Node000050"><a xlink:title=" ">
<path fill="none" stroke="#63b8ff" d="M424.65,-384.75C424.65,-377.8 424.65,-367.85 424.65,-359.13"/>
<polygon fill="#63b8ff" stroke="#63b8ff" points="428.15,-359.09 424.65,-349.09 421.15,-359.09 428.15,-359.09"/>
</a>
</g>
</g>
<!-- Node50&#45;&gt;Node41 -->
<g id="edge54_Node000050_Node000041" class="edge">
<title>Node50&#45;&gt;Node41</title>
<g id="a_edge54_Node000050_Node000041"><a xlink:title=" ">
<path fill="none" stroke="#63b8ff" d="M424.65,-329.75C424.65,-322.8 424.65,-312.85 424.65,-304.13"/>
<polygon fill="#63b8ff" stroke="#63b8ff" points="428.15,-304.09 424.65,-294.09 421.15,-304.09 428.15,-304.09"/>
</a>
</g>
</g>
<!-- Node51&#45;&gt;Node4 -->
<g id="edge57_Node000051_Node000004" class="edge">
<title>Node51&#45;&gt;Node4</title>
<g id="a_edge57_Node000051_Node000004"><a xlink:title=" ">
<path fill="none" stroke="#63b8ff" d="M815.07,-274.87C790.57,-266.4 752.69,-252.79 720.65,-239 683.85,-223.17 642.49,-202.23 616.75,-188.81"/>
<polygon fill="#63b8ff" stroke="#63b8ff" points="618.17,-185.6 607.69,-184.06 614.92,-191.8 618.17,-185.6"/>
</a>
</g>
</g>
<!-- Node18 -->
<g id="Node000018" class="node">
<title>Node18</title>
<g id="a_Node000018"><a xlink:href="irep_8h.html" target="_top" xlink:title=" ">
<polygon fill="#fff0f0" stroke="red" points="862.65,-239 818.65,-239 818.65,-220 862.65,-220 862.65,-239"/>
<text text-anchor="middle" x="840.65" y="-227" font-family="Helvetica,sans-Serif" font-size="10.00">irep.h</text>
</a>
</g>
</g>
<!-- Node51&#45;&gt;Node18 -->
<g id="edge58_Node000051_Node000018" class="edge">
<title>Node51&#45;&gt;Node18</title>
<g id="a_edge58_Node000051_Node000018"><a xlink:title=" ">
<path fill="none" stroke="#63b8ff" d="M840.65,-274.75C840.65,-267.8 840.65,-257.85 840.65,-249.13"/>
<polygon fill="#63b8ff" stroke="#63b8ff" points="844.15,-249.09 840.65,-239.09 837.15,-249.09 844.15,-249.09"/>
</a>
</g>
</g>
<!-- Node18&#45;&gt;Node4 -->
<g id="edge60_Node000018_Node000004" class="edge">
<title>Node18&#45;&gt;Node4</title>
<g id="a_edge60_Node000018_Node000004"><a xlink:title=" ">
<path fill="none" stroke="#63b8ff" d="M818.32,-222.59C814.76,-221.69 811.11,-220.8 807.65,-220 775.67,-212.59 689.64,-195.15 636.31,-184.43"/>
<polygon fill="#63b8ff" stroke="#63b8ff" points="636.92,-180.98 626.42,-182.45 635.54,-187.85 636.92,-180.98"/>
</a>
</g>
</g>
<!-- Node18&#45;&gt;Node7 -->
<g id="edge59_Node000018_Node000007" class="edge">
<title>Node18&#45;&gt;Node7</title>
<g id="a_edge59_Node000018_Node000007"><a xlink:title=" ">
<path fill="none" stroke="#63b8ff" d="M842.81,-219.83C845.57,-207.57 849.64,-184.48 846.65,-165 845.3,-156.19 842.52,-146.74 839.8,-138.82"/>
<polygon fill="#63b8ff" stroke="#63b8ff" points="842.99,-137.35 836.25,-129.18 836.42,-139.77 842.99,-137.35"/>
</a>
</g>
</g>
</g>
</svg>
