<?xml version="1.0" encoding="UTF-8" standalone="no"?>
<!DOCTYPE svg PUBLIC "-//W3C//DTD SVG 1.1//EN"
 "http://www.w3.org/Graphics/SVG/1.1/DTD/svg11.dtd">
<!-- Generated by graphviz version 2.43.0 (0)
 -->
<!-- Title: /home/runner/work/cbmc/cbmc/src/ansi&#45;c/c_nondet_symbol_factory.h Pages: 1 -->
<svg width="1387pt" height="544pt"
 viewBox="0.00 0.00 1387.00 544.00" xmlns="http://www.w3.org/2000/svg" xmlns:xlink="http://www.w3.org/1999/xlink">
<g id="graph0" class="graph" transform="scale(1 1) rotate(0) translate(4 540)">
<title>/home/runner/work/cbmc/cbmc/src/ansi&#45;c/c_nondet_symbol_factory.h</title>
<!-- Node1 -->
<g id="Node000001" class="node">
<title>Node1</title>
<g id="a_Node000001"><a xlink:title="C Nondet Symbol Factory.">
<polygon fill="#999999" stroke="#666666" points="882.5,-536 739.5,-536 739.5,-495 882.5,-495 882.5,-536"/>
<text text-anchor="start" x="747.5" y="-524" font-family="Helvetica,sans-Serif" font-size="10.00">/home/runner/work/cbmc</text>
<text text-anchor="start" x="747.5" y="-513" font-family="Helvetica,sans-Serif" font-size="10.00">/cbmc/src/ansi&#45;c/c_nondet</text>
<text text-anchor="middle" x="811" y="-502" font-family="Helvetica,sans-Serif" font-size="10.00">_symbol_factory.h</text>
</a>
</g>
</g>
<!-- Node2 -->
<g id="Node000002" class="node">
<title>Node2</title>
<g id="a_Node000002"><a xlink:href="allocate__objects_8h.html" target="_top" xlink:title=" ">
<polygon fill="white" stroke="#666666" points="820.5,-459 715.5,-459 715.5,-440 820.5,-440 820.5,-459"/>
<text text-anchor="middle" x="768" y="-447" font-family="Helvetica,sans-Serif" font-size="10.00">allocate_objects.h</text>
</a>
</g>
</g>
<!-- Node1&#45;&gt;Node2 -->
<g id="edge1_Node000001_Node000002" class="edge">
<title>Node1&#45;&gt;Node2</title>
<g id="a_edge1_Node000001_Node000002"><a xlink:title=" ">
<path fill="none" stroke="#63b8ff" d="M797.86,-494.95C792.05,-486.3 785.27,-476.2 779.64,-467.82"/>
<polygon fill="#63b8ff" stroke="#63b8ff" points="782.37,-465.61 773.89,-459.26 776.56,-469.51 782.37,-465.61"/>
</a>
</g>
</g>
<!-- Node46 -->
<g id="Node000046" class="node">
<title>Node46</title>
<g id="a_Node000046"><a xlink:title=" ">
<polygon fill="#e0e0e0" stroke="#999999" points="871,-459 839,-459 839,-440 871,-440 871,-459"/>
<text text-anchor="middle" x="855" y="-447" font-family="Helvetica,sans-Serif" font-size="10.00">set</text>
</a>
</g>
</g>
<!-- Node1&#45;&gt;Node46 -->
<g id="edge65_Node000001_Node000046" class="edge">
<title>Node1&#45;&gt;Node46</title>
<g id="a_edge65_Node000001_Node000046"><a xlink:title=" ">
<path fill="none" stroke="#63b8ff" d="M824.44,-494.95C830.45,-486.2 837.48,-475.99 843.27,-467.56"/>
<polygon fill="#63b8ff" stroke="#63b8ff" points="846.2,-469.48 848.98,-459.26 840.43,-465.52 846.2,-469.48"/>
</a>
</g>
</g>
<!-- Node3 -->
<g id="Node000003" class="node">
<title>Node3</title>
<g id="a_Node000003"><a xlink:href="namespace_8h.html" target="_top" xlink:title=" ">
<polygon fill="white" stroke="#666666" points="762.5,-404 661.5,-404 661.5,-385 762.5,-385 762.5,-404"/>
<text text-anchor="middle" x="712" y="-392" font-family="Helvetica,sans-Serif" font-size="10.00">util/namespace.h</text>
</a>
</g>
</g>
<!-- Node2&#45;&gt;Node3 -->
<g id="edge2_Node000002_Node000003" class="edge">
<title>Node2&#45;&gt;Node3</title>
<g id="a_edge2_Node000002_Node000003"><a xlink:title=" ">
<path fill="none" stroke="#63b8ff" d="M759,-439.98C750.81,-432.23 738.49,-420.58 728.53,-411.14"/>
<polygon fill="#63b8ff" stroke="#63b8ff" points="730.83,-408.5 721.16,-404.17 726.02,-413.59 730.83,-408.5"/>
</a>
</g>
</g>
<!-- Node27 -->
<g id="Node000027" class="node">
<title>Node27</title>
<g id="a_Node000027"><a xlink:href="std__code_8h.html" target="_top" xlink:title=" ">
<polygon fill="white" stroke="#666666" points="869,-404 781,-404 781,-385 869,-385 869,-404"/>
<text text-anchor="middle" x="825" y="-392" font-family="Helvetica,sans-Serif" font-size="10.00">util/std_code.h</text>
</a>
</g>
</g>
<!-- Node2&#45;&gt;Node27 -->
<g id="edge29_Node000002_Node000027" class="edge">
<title>Node2&#45;&gt;Node27</title>
<g id="a_edge29_Node000002_Node000027"><a xlink:title=" ">
<path fill="none" stroke="#63b8ff" d="M777.16,-439.98C785.5,-432.23 798.03,-420.58 808.18,-411.14"/>
<polygon fill="#63b8ff" stroke="#63b8ff" points="810.74,-413.54 815.68,-404.17 805.97,-408.42 810.74,-413.54"/>
</a>
</g>
</g>
<!-- Node4 -->
<g id="Node000004" class="node">
<title>Node4</title>
<g id="a_Node000004"><a xlink:href="src_2util_2invariant_8h.html" target="_top" xlink:title=" ">
<polygon fill="white" stroke="#666666" points="772.5,-184 703.5,-184 703.5,-165 772.5,-165 772.5,-184"/>
<text text-anchor="middle" x="738" y="-172" font-family="Helvetica,sans-Serif" font-size="10.00">invariant.h</text>
</a>
</g>
</g>
<!-- Node3&#45;&gt;Node4 -->
<g id="edge3_Node000003_Node000004" class="edge">
<title>Node3&#45;&gt;Node4</title>
<g id="a_edge3_Node000003_Node000004"><a xlink:title=" ">
<path fill="none" stroke="#63b8ff" d="M713.02,-384.95C716.84,-352.95 730.35,-239.68 735.75,-194.4"/>
<polygon fill="#63b8ff" stroke="#63b8ff" points="739.25,-194.57 736.96,-184.22 732.3,-193.74 739.25,-194.57"/>
</a>
</g>
</g>
<!-- Node9 -->
<g id="Node000009" class="node">
<title>Node9</title>
<g id="a_Node000009"><a xlink:href="irep_8h.html" target="_top" xlink:title=" ">
<polygon fill="white" stroke="#666666" points="402,-349 358,-349 358,-330 402,-330 402,-349"/>
<text text-anchor="middle" x="380" y="-337" font-family="Helvetica,sans-Serif" font-size="10.00">irep.h</text>
</a>
</g>
</g>
<!-- Node3&#45;&gt;Node9 -->
<g id="edge8_Node000003_Node000009" class="edge">
<title>Node3&#45;&gt;Node9</title>
<g id="a_edge8_Node000003_Node000009"><a xlink:title=" ">
<path fill="none" stroke="#63b8ff" d="M661.21,-385.39C591.96,-374.34 469.91,-354.85 412.09,-345.62"/>
<polygon fill="#63b8ff" stroke="#63b8ff" points="412.5,-342.14 402.07,-344.02 411.4,-349.06 412.5,-342.14"/>
</a>
</g>
</g>
<!-- Node5 -->
<g id="Node000005" class="node">
<title>Node5</title>
<g id="a_Node000005"><a xlink:title=" ">
<polygon fill="#e0e0e0" stroke="#999999" points="739.5,-129 690.5,-129 690.5,-110 739.5,-110 739.5,-129"/>
<text text-anchor="middle" x="715" y="-117" font-family="Helvetica,sans-Serif" font-size="10.00">cstdlib</text>
</a>
</g>
</g>
<!-- Node4&#45;&gt;Node5 -->
<g id="edge4_Node000004_Node000005" class="edge">
<title>Node4&#45;&gt;Node5</title>
<g id="a_edge4_Node000004_Node000005"><a xlink:title=" ">
<path fill="none" stroke="#63b8ff" d="M734.2,-164.75C731.09,-157.57 726.58,-147.18 722.71,-138.27"/>
<polygon fill="#63b8ff" stroke="#63b8ff" points="725.92,-136.87 718.73,-129.09 719.5,-139.66 725.92,-136.87"/>
</a>
</g>
</g>
<!-- Node6 -->
<g id="Node000006" class="node">
<title>Node6</title>
<g id="a_Node000006"><a xlink:title=" ">
<polygon fill="#e0e0e0" stroke="#999999" points="900,-129 844,-129 844,-110 900,-110 900,-129"/>
<text text-anchor="middle" x="872" y="-117" font-family="Helvetica,sans-Serif" font-size="10.00">sstream</text>
</a>
</g>
</g>
<!-- Node4&#45;&gt;Node6 -->
<g id="edge5_Node000004_Node000006" class="edge">
<title>Node4&#45;&gt;Node6</title>
<g id="a_edge5_Node000004_Node000006"><a xlink:title=" ">
<path fill="none" stroke="#63b8ff" d="M759.53,-164.98C781.47,-156.3 815.74,-142.75 840.69,-132.88"/>
<polygon fill="#63b8ff" stroke="#63b8ff" points="842.07,-136.1 850.08,-129.17 839.49,-129.59 842.07,-136.1"/>
</a>
</g>
</g>
<!-- Node7 -->
<g id="Node000007" class="node">
<title>Node7</title>
<g id="a_Node000007"><a xlink:title=" ">
<polygon fill="#e0e0e0" stroke="#999999" points="480,-129 436,-129 436,-110 480,-110 480,-129"/>
<text text-anchor="middle" x="458" y="-117" font-family="Helvetica,sans-Serif" font-size="10.00">string</text>
</a>
</g>
</g>
<!-- Node4&#45;&gt;Node7 -->
<g id="edge6_Node000004_Node000007" class="edge">
<title>Node4&#45;&gt;Node7</title>
<g id="a_edge6_Node000004_Node000007"><a xlink:title=" ">
<path fill="none" stroke="#63b8ff" d="M703.39,-166.95C648.65,-156.59 542.92,-136.57 489.92,-126.54"/>
<polygon fill="#63b8ff" stroke="#63b8ff" points="490.53,-123.09 480.05,-124.67 489.23,-129.97 490.53,-123.09"/>
</a>
</g>
</g>
<!-- Node8 -->
<g id="Node000008" class="node">
<title>Node8</title>
<g id="a_Node000008"><a xlink:title=" ">
<polygon fill="#e0e0e0" stroke="#999999" points="829.5,-19 760.5,-19 760.5,0 829.5,0 829.5,-19"/>
<text text-anchor="middle" x="795" y="-7" font-family="Helvetica,sans-Serif" font-size="10.00">type_traits</text>
</a>
</g>
</g>
<!-- Node4&#45;&gt;Node8 -->
<g id="edge7_Node000004_Node000008" class="edge">
<title>Node4&#45;&gt;Node8</title>
<g id="a_edge7_Node000004_Node000008"><a xlink:title=" ">
<path fill="none" stroke="#63b8ff" d="M720.21,-164.97C699.81,-153.89 670.46,-133.2 681,-110 699.07,-70.25 741.73,-40.17 769.43,-23.96"/>
<polygon fill="#63b8ff" stroke="#63b8ff" points="771.22,-26.98 778.2,-19.01 767.77,-20.88 771.22,-26.98"/>
</a>
</g>
</g>
<!-- Node9&#45;&gt;Node4 -->
<g id="edge11_Node000009_Node000004" class="edge">
<title>Node9&#45;&gt;Node4</title>
<g id="a_edge11_Node000009_Node000004"><a xlink:title=" ">
<path fill="none" stroke="#63b8ff" d="M402,-335.14C453.98,-326.4 587.01,-299.32 680,-239 698.91,-226.74 715.68,-206.86 726.27,-192.61"/>
<polygon fill="#63b8ff" stroke="#63b8ff" points="729.31,-194.36 732.29,-184.2 723.62,-190.29 729.31,-194.36"/>
</a>
</g>
</g>
<!-- Node9&#45;&gt;Node7 -->
<g id="edge9_Node000009_Node000007" class="edge">
<title>Node9&#45;&gt;Node7</title>
<g id="a_edge9_Node000009_Node000007"><a xlink:title=" ">
<path fill="none" stroke="#63b8ff" d="M357.81,-337.67C280.09,-333.92 28.48,-314.41 96,-220 115.65,-192.52 340.96,-144.28 425.88,-126.94"/>
<polygon fill="#63b8ff" stroke="#63b8ff" points="426.64,-130.35 435.75,-124.93 425.25,-123.49 426.64,-130.35"/>
</a>
</g>
</g>
<!-- Node10 -->
<g id="Node000010" class="node">
<title>Node10</title>
<g id="a_Node000010"><a xlink:title=" ">
<polygon fill="#e0e0e0" stroke="#999999" points="127.5,-129 80.5,-129 80.5,-110 127.5,-110 127.5,-129"/>
<text text-anchor="middle" x="104" y="-117" font-family="Helvetica,sans-Serif" font-size="10.00">vector</text>
</a>
</g>
</g>
<!-- Node9&#45;&gt;Node10 -->
<g id="edge10_Node000009_Node000010" class="edge">
<title>Node9&#45;&gt;Node10</title>
<g id="a_edge10_Node000009_Node000010"><a xlink:title=" ">
<path fill="none" stroke="#63b8ff" d="M357.97,-338.06C297.52,-336.41 130.92,-328.74 91,-294 46.36,-255.15 34.9,-219.49 58,-165 62.98,-153.25 72.75,-143.09 82.01,-135.45"/>
<polygon fill="#63b8ff" stroke="#63b8ff" points="84.4,-138.03 90.22,-129.18 80.15,-132.47 84.4,-138.03"/>
</a>
</g>
</g>
<!-- Node11 -->
<g id="Node000011" class="node">
<title>Node11</title>
<g id="a_Node000011"><a xlink:href="irep__ids_8h.html" target="_top" xlink:title="util">
<polygon fill="white" stroke="#666666" points="355,-294 291,-294 291,-275 355,-275 355,-294"/>
<text text-anchor="middle" x="323" y="-282" font-family="Helvetica,sans-Serif" font-size="10.00">irep_ids.h</text>
</a>
</g>
</g>
<!-- Node9&#45;&gt;Node11 -->
<g id="edge12_Node000009_Node000011" class="edge">
<title>Node9&#45;&gt;Node11</title>
<g id="a_edge12_Node000009_Node000011"><a xlink:title=" ">
<path fill="none" stroke="#63b8ff" d="M370.84,-329.98C362.5,-322.23 349.97,-310.58 339.82,-301.14"/>
<polygon fill="#63b8ff" stroke="#63b8ff" points="342.03,-298.42 332.32,-294.17 337.26,-303.54 342.03,-298.42"/>
</a>
</g>
</g>
<!-- Node22 -->
<g id="Node000022" class="node">
<title>Node22</title>
<g id="a_Node000022"><a xlink:href="forward__list__as__map_8h.html" target="_top" xlink:title=" ">
<polygon fill="white" stroke="#666666" points="500.5,-294 373.5,-294 373.5,-275 500.5,-275 500.5,-294"/>
<text text-anchor="middle" x="437" y="-282" font-family="Helvetica,sans-Serif" font-size="10.00">forward_list_as_map.h</text>
</a>
</g>
</g>
<!-- Node9&#45;&gt;Node22 -->
<g id="edge22_Node000009_Node000022" class="edge">
<title>Node9&#45;&gt;Node22</title>
<g id="a_edge22_Node000009_Node000022"><a xlink:title=" ">
<path fill="none" stroke="#63b8ff" d="M389.16,-329.98C397.5,-322.23 410.03,-310.58 420.18,-301.14"/>
<polygon fill="#63b8ff" stroke="#63b8ff" points="422.74,-303.54 427.68,-294.17 417.97,-298.42 422.74,-303.54"/>
</a>
</g>
</g>
<!-- Node12 -->
<g id="Node000012" class="node">
<title>Node12</title>
<g id="a_Node000012"><a xlink:href="dstring_8h.html" target="_top" xlink:title="Container for C&#45;Strings.">
<polygon fill="white" stroke="#666666" points="468.5,-239 409.5,-239 409.5,-220 468.5,-220 468.5,-239"/>
<text text-anchor="middle" x="439" y="-227" font-family="Helvetica,sans-Serif" font-size="10.00">dstring.h</text>
</a>
</g>
</g>
<!-- Node11&#45;&gt;Node12 -->
<g id="edge13_Node000011_Node000012" class="edge">
<title>Node11&#45;&gt;Node12</title>
<g id="a_edge13_Node000011_Node000012"><a xlink:title=" ">
<path fill="none" stroke="#63b8ff" d="M341.64,-274.98C360.3,-266.46 389.25,-253.23 410.74,-243.41"/>
<polygon fill="#63b8ff" stroke="#63b8ff" points="412.38,-246.51 420.02,-239.17 409.47,-240.14 412.38,-246.51"/>
</a>
</g>
</g>
<!-- Node21 -->
<g id="Node000021" class="node">
<title>Node21</title>
<g id="a_Node000021"><a xlink:title=" ">
<polygon fill="#e0e0e0" stroke="#999999" points="179,-239 105,-239 105,-220 179,-220 179,-239"/>
<text text-anchor="middle" x="142" y="-227" font-family="Helvetica,sans-Serif" font-size="10.00">irep_ids.def</text>
</a>
</g>
</g>
<!-- Node11&#45;&gt;Node21 -->
<g id="edge21_Node000011_Node000021" class="edge">
<title>Node11&#45;&gt;Node21</title>
<g id="a_edge21_Node000011_Node000021"><a xlink:title=" ">
<path fill="none" stroke="#63b8ff" d="M293.92,-274.98C263.4,-266.05 215.24,-251.94 181.34,-242.02"/>
<polygon fill="#63b8ff" stroke="#63b8ff" points="181.89,-238.53 171.31,-239.08 179.92,-245.25 181.89,-238.53"/>
</a>
</g>
</g>
<!-- Node12&#45;&gt;Node7 -->
<g id="edge15_Node000012_Node000007" class="edge">
<title>Node12&#45;&gt;Node7</title>
<g id="a_edge15_Node000012_Node000007"><a xlink:title=" ">
<path fill="none" stroke="#63b8ff" d="M415.64,-219.85C390.02,-208.94 354.34,-188.73 369,-165 381.43,-144.89 406.01,-133.56 426.2,-127.37"/>
<polygon fill="#63b8ff" stroke="#63b8ff" points="427.27,-130.71 435.97,-124.66 425.4,-123.96 427.27,-130.71"/>
</a>
</g>
</g>
<!-- Node13 -->
<g id="Node000013" class="node">
<title>Node13</title>
<g id="a_Node000013"><a xlink:title=" ">
<polygon fill="#e0e0e0" stroke="#999999" points="426,-184 378,-184 378,-165 426,-165 426,-184"/>
<text text-anchor="middle" x="402" y="-172" font-family="Helvetica,sans-Serif" font-size="10.00">iosfwd</text>
</a>
</g>
</g>
<!-- Node12&#45;&gt;Node13 -->
<g id="edge14_Node000012_Node000013" class="edge">
<title>Node12&#45;&gt;Node13</title>
<g id="a_edge14_Node000012_Node000013"><a xlink:title=" ">
<path fill="none" stroke="#63b8ff" d="M432.89,-219.75C427.72,-212.34 420.15,-201.5 413.81,-192.41"/>
<polygon fill="#63b8ff" stroke="#63b8ff" points="416.59,-190.29 408,-184.09 410.85,-194.29 416.59,-190.29"/>
</a>
</g>
</g>
<!-- Node14 -->
<g id="Node000014" class="node">
<title>Node14</title>
<g id="a_Node000014"><a xlink:href="magic_8h.html" target="_top" xlink:title="Magic numbers used throughout the codebase.">
<polygon fill="#fff0f0" stroke="red" points="322,-184 266,-184 266,-165 322,-165 322,-184"/>
<text text-anchor="middle" x="294" y="-172" font-family="Helvetica,sans-Serif" font-size="10.00">magic.h</text>
</a>
</g>
</g>
<!-- Node12&#45;&gt;Node14 -->
<g id="edge16_Node000012_Node000014" class="edge">
<title>Node12&#45;&gt;Node14</title>
<g id="a_edge16_Node000012_Node000014"><a xlink:title=" ">
<path fill="none" stroke="#63b8ff" d="M415.7,-219.98C391.75,-211.23 354.22,-197.51 327.17,-187.62"/>
<polygon fill="#63b8ff" stroke="#63b8ff" points="328.31,-184.32 317.72,-184.17 325.91,-190.89 328.31,-184.32"/>
</a>
</g>
</g>
<!-- Node16 -->
<g id="Node000016" class="node">
<title>Node16</title>
<g id="a_Node000016"><a xlink:href="string__container_8h.html" target="_top" xlink:title="Container for C&#45;Strings.">
<polygon fill="#fff0f0" stroke="red" points="171,-184 67,-184 67,-165 171,-165 171,-184"/>
<text text-anchor="middle" x="119" y="-172" font-family="Helvetica,sans-Serif" font-size="10.00">string_container.h</text>
</a>
</g>
</g>
<!-- Node12&#45;&gt;Node16 -->
<g id="edge17_Node000012_Node000016" class="edge">
<title>Node12&#45;&gt;Node16</title>
<g id="a_edge17_Node000012_Node000016"><a xlink:title=" ">
<path fill="none" stroke="#63b8ff" d="M409.47,-223.61C357.67,-215.03 249.4,-197.1 180.67,-185.71"/>
<polygon fill="#63b8ff" stroke="#63b8ff" points="180.85,-182.2 170.41,-184.02 179.71,-189.1 180.85,-182.2"/>
</a>
</g>
</g>
<!-- Node16&#45;&gt;Node10 -->
<g id="edge20_Node000016_Node000010" class="edge">
<title>Node16&#45;&gt;Node10</title>
<g id="a_edge20_Node000016_Node000010"><a xlink:title=" ">
<path fill="none" stroke="#63b8ff" d="M116.52,-164.75C114.54,-157.72 111.68,-147.62 109.19,-138.84"/>
<polygon fill="#63b8ff" stroke="#63b8ff" points="112.52,-137.76 106.43,-129.09 105.79,-139.66 112.52,-137.76"/>
</a>
</g>
</g>
<!-- Node17 -->
<g id="Node000017" class="node">
<title>Node17</title>
<g id="a_Node000017"><a xlink:title=" ">
<polygon fill="#e0e0e0" stroke="#999999" points="32,-129 0,-129 0,-110 32,-110 32,-129"/>
<text text-anchor="middle" x="16" y="-117" font-family="Helvetica,sans-Serif" font-size="10.00">list</text>
</a>
</g>
</g>
<!-- Node16&#45;&gt;Node17 -->
<g id="edge18_Node000016_Node000017" class="edge">
<title>Node16&#45;&gt;Node17</title>
<g id="a_edge18_Node000016_Node000017"><a xlink:title=" ">
<path fill="none" stroke="#63b8ff" d="M102.45,-164.98C85.91,-156.47 60.26,-143.28 41.19,-133.46"/>
<polygon fill="#63b8ff" stroke="#63b8ff" points="42.66,-130.28 32.17,-128.82 39.46,-136.51 42.66,-130.28"/>
</a>
</g>
</g>
<!-- Node18 -->
<g id="Node000018" class="node">
<title>Node18</title>
<g id="a_Node000018"><a xlink:title=" ">
<polygon fill="#e0e0e0" stroke="#999999" points="269.5,-129 176.5,-129 176.5,-110 269.5,-110 269.5,-129"/>
<text text-anchor="middle" x="223" y="-117" font-family="Helvetica,sans-Serif" font-size="10.00">unordered_map</text>
</a>
</g>
</g>
<!-- Node16&#45;&gt;Node18 -->
<g id="edge19_Node000016_Node000018" class="edge">
<title>Node16&#45;&gt;Node18</title>
<g id="a_edge19_Node000016_Node000018"><a xlink:title=" ">
<path fill="none" stroke="#63b8ff" d="M135.71,-164.98C152.21,-156.57 177.7,-143.59 196.88,-133.81"/>
<polygon fill="#63b8ff" stroke="#63b8ff" points="198.67,-136.83 205.99,-129.17 195.49,-130.59 198.67,-136.83"/>
</a>
</g>
</g>
<!-- Node23 -->
<g id="Node000023" class="node">
<title>Node23</title>
<g id="a_Node000023"><a xlink:title=" ">
<polygon fill="#e0e0e0" stroke="#999999" points="353,-239 289,-239 289,-220 353,-220 353,-239"/>
<text text-anchor="middle" x="321" y="-227" font-family="Helvetica,sans-Serif" font-size="10.00">algorithm</text>
</a>
</g>
</g>
<!-- Node22&#45;&gt;Node23 -->
<g id="edge23_Node000022_Node000023" class="edge">
<title>Node22&#45;&gt;Node23</title>
<g id="a_edge23_Node000022_Node000023"><a xlink:title=" ">
<path fill="none" stroke="#63b8ff" d="M418.36,-274.98C399.7,-266.46 370.75,-253.23 349.26,-243.41"/>
<polygon fill="#63b8ff" stroke="#63b8ff" points="350.53,-240.14 339.98,-239.17 347.62,-246.51 350.53,-240.14"/>
</a>
</g>
</g>
<!-- Node24 -->
<g id="Node000024" class="node">
<title>Node24</title>
<g id="a_Node000024"><a xlink:title=" ">
<polygon fill="#e0e0e0" stroke="#999999" points="271,-239 197,-239 197,-220 271,-220 271,-239"/>
<text text-anchor="middle" x="234" y="-227" font-family="Helvetica,sans-Serif" font-size="10.00">forward_list</text>
</a>
</g>
</g>
<!-- Node22&#45;&gt;Node24 -->
<g id="edge24_Node000022_Node000024" class="edge">
<title>Node22&#45;&gt;Node24</title>
<g id="a_edge24_Node000022_Node000024"><a xlink:title=" ">
<path fill="none" stroke="#63b8ff" d="M404.38,-274.98C369.71,-265.93 314.74,-251.58 276.65,-241.64"/>
<polygon fill="#63b8ff" stroke="#63b8ff" points="277.43,-238.22 266.87,-239.08 275.66,-244.99 277.43,-238.22"/>
</a>
</g>
</g>
<!-- Node25 -->
<g id="Node000025" class="node">
<title>Node25</title>
<g id="a_Node000025"><a xlink:href="as__const_8h.html" target="_top" xlink:title=" ">
<polygon fill="white" stroke="#666666" points="826,-129 758,-129 758,-110 826,-110 826,-129"/>
<text text-anchor="middle" x="792" y="-117" font-family="Helvetica,sans-Serif" font-size="10.00">as_const.h</text>
</a>
</g>
</g>
<!-- Node22&#45;&gt;Node25 -->
<g id="edge25_Node000022_Node000025" class="edge">
<title>Node22&#45;&gt;Node25</title>
<g id="a_edge25_Node000022_Node000025"><a xlink:title=" ">
<path fill="none" stroke="#63b8ff" d="M466.08,-274.96C492.2,-266.9 531.36,-253.86 564,-239 624.51,-211.45 634.78,-195.22 694,-165 716.64,-153.45 742.89,-141.61 762.52,-133.05"/>
<polygon fill="#63b8ff" stroke="#63b8ff" points="764.06,-136.19 771.85,-129.01 761.28,-129.77 764.06,-136.19"/>
</a>
</g>
</g>
<!-- Node26 -->
<g id="Node000026" class="node">
<title>Node26</title>
<g id="a_Node000026"><a xlink:href="narrow_8h.html" target="_top" xlink:title=" ">
<polygon fill="white" stroke="#666666" points="671.5,-239 612.5,-239 612.5,-220 671.5,-220 671.5,-239"/>
<text text-anchor="middle" x="642" y="-227" font-family="Helvetica,sans-Serif" font-size="10.00">narrow.h</text>
</a>
</g>
</g>
<!-- Node22&#45;&gt;Node26 -->
<g id="edge26_Node000022_Node000026" class="edge">
<title>Node22&#45;&gt;Node26</title>
<g id="a_edge26_Node000022_Node000026"><a xlink:title=" ">
<path fill="none" stroke="#63b8ff" d="M469.94,-274.98C506.09,-265.64 564.11,-250.64 602.64,-240.68"/>
<polygon fill="#63b8ff" stroke="#63b8ff" points="603.67,-244.03 612.47,-238.13 601.91,-237.25 603.67,-244.03"/>
</a>
</g>
</g>
<!-- Node26&#45;&gt;Node4 -->
<g id="edge28_Node000026_Node000004" class="edge">
<title>Node26&#45;&gt;Node4</title>
<g id="a_edge28_Node000026_Node000004"><a xlink:title=" ">
<path fill="none" stroke="#63b8ff" d="M657.42,-219.98C672.45,-211.69 695.54,-198.94 713.16,-189.22"/>
<polygon fill="#63b8ff" stroke="#63b8ff" points="715.23,-192.07 722.3,-184.17 711.85,-185.94 715.23,-192.07"/>
</a>
</g>
</g>
<!-- Node26&#45;&gt;Node8 -->
<g id="edge27_Node000026_Node000008" class="edge">
<title>Node26&#45;&gt;Node8</title>
<g id="a_edge27_Node000026_Node000008"><a xlink:title=" ">
<path fill="none" stroke="#63b8ff" d="M642.4,-219.9C644.17,-191.99 653.53,-102.99 702,-55 716.81,-40.34 737.39,-29.81 755.42,-22.68"/>
<polygon fill="#63b8ff" stroke="#63b8ff" points="756.98,-25.84 765.13,-19.07 754.53,-19.28 756.98,-25.84"/>
</a>
</g>
</g>
<!-- Node27&#45;&gt;Node17 -->
<g id="edge30_Node000027_Node000017" class="edge">
<title>Node27&#45;&gt;Node17</title>
<g id="a_edge30_Node000027_Node000017"><a xlink:title=" ">
<path fill="none" stroke="#63b8ff" d="M780.83,-386.29C777.51,-385.82 774.2,-385.39 771,-385 685.36,-374.62 1,-371.77 1,-285.5 1,-285.5 1,-285.5 1,-228.5 1,-196.89 7.38,-160.56 11.82,-139.13"/>
<polygon fill="#63b8ff" stroke="#63b8ff" points="15.29,-139.64 13.98,-129.12 8.45,-138.16 15.29,-139.64"/>
</a>
</g>
</g>
<!-- Node28 -->
<g id="Node000028" class="node">
<title>Node28</title>
<g id="a_Node000028"><a xlink:href="std__code__base_8h.html" target="_top" xlink:title=" ">
<polygon fill="white" stroke="#666666" points="975,-349 877,-349 877,-330 975,-330 975,-349"/>
<text text-anchor="middle" x="926" y="-337" font-family="Helvetica,sans-Serif" font-size="10.00">std_code_base.h</text>
</a>
</g>
</g>
<!-- Node27&#45;&gt;Node28 -->
<g id="edge31_Node000027_Node000028" class="edge">
<title>Node27&#45;&gt;Node28</title>
<g id="a_edge31_Node000027_Node000028"><a xlink:title=" ">
<path fill="none" stroke="#63b8ff" d="M841.23,-384.98C857.18,-376.61 881.78,-363.7 900.38,-353.95"/>
<polygon fill="#63b8ff" stroke="#63b8ff" points="902.25,-356.92 909.48,-349.17 899,-350.72 902.25,-356.92"/>
</a>
</g>
</g>
<!-- Node45 -->
<g id="Node000045" class="node">
<title>Node45</title>
<g id="a_Node000045"><a xlink:href="std__expr_8h.html" target="_top" xlink:title="API to expression classes.">
<polygon fill="white" stroke="#666666" points="858.5,-349 791.5,-349 791.5,-330 858.5,-330 858.5,-349"/>
<text text-anchor="middle" x="825" y="-337" font-family="Helvetica,sans-Serif" font-size="10.00">std_expr.h</text>
</a>
</g>
</g>
<!-- Node27&#45;&gt;Node45 -->
<g id="edge61_Node000027_Node000045" class="edge">
<title>Node27&#45;&gt;Node45</title>
<g id="a_edge61_Node000027_Node000045"><a xlink:title=" ">
<path fill="none" stroke="#63b8ff" d="M825,-384.75C825,-377.8 825,-367.85 825,-359.13"/>
<polygon fill="#63b8ff" stroke="#63b8ff" points="828.5,-359.09 825,-349.09 821.5,-359.09 828.5,-359.09"/>
</a>
</g>
</g>
<!-- Node28&#45;&gt;Node4 -->
<g id="edge49_Node000028_Node000004" class="edge">
<title>Node28&#45;&gt;Node4</title>
<g id="a_edge49_Node000028_Node000004"><a xlink:title=" ">
<path fill="none" stroke="#63b8ff" d="M899.47,-329.96C879.64,-322.65 852.68,-310.65 833,-294 802.31,-268.03 806.6,-250.99 781,-220 772.81,-210.08 762.87,-199.71 754.62,-191.47"/>
<polygon fill="#63b8ff" stroke="#63b8ff" points="756.92,-188.82 747.33,-184.32 752.01,-193.82 756.92,-188.82"/>
</a>
</g>
</g>
<!-- Node29 -->
<g id="Node000029" class="node">
<title>Node29</title>
<g id="a_Node000029"><a xlink:href="expr__cast_8h.html" target="_top" xlink:title="Templated functions to cast to specific exprt&#45;derived classes.">
<polygon fill="white" stroke="#666666" points="1005.5,-239 932.5,-239 932.5,-220 1005.5,-220 1005.5,-239"/>
<text text-anchor="middle" x="969" y="-227" font-family="Helvetica,sans-Serif" font-size="10.00">expr_cast.h</text>
</a>
</g>
</g>
<!-- Node28&#45;&gt;Node29 -->
<g id="edge32_Node000028_Node000029" class="edge">
<title>Node28&#45;&gt;Node29</title>
<g id="a_edge32_Node000028_Node000029"><a xlink:title=" ">
<path fill="none" stroke="#63b8ff" d="M934.2,-329.7C941.63,-321.22 952.25,-307.69 958,-294 964.03,-279.64 966.75,-262.12 967.99,-249.12"/>
<polygon fill="#63b8ff" stroke="#63b8ff" points="971.48,-249.29 968.73,-239.06 964.5,-248.77 971.48,-249.29"/>
</a>
</g>
</g>
<!-- Node37 -->
<g id="Node000037" class="node">
<title>Node37</title>
<g id="a_Node000037"><a xlink:href="validate_8h.html" target="_top" xlink:title=" ">
<polygon fill="#fff0f0" stroke="red" points="1213.5,-74 1148.5,-74 1148.5,-55 1213.5,-55 1213.5,-74"/>
<text text-anchor="middle" x="1181" y="-62" font-family="Helvetica,sans-Serif" font-size="10.00">validate.h</text>
</a>
</g>
</g>
<!-- Node28&#45;&gt;Node37 -->
<g id="edge60_Node000028_Node000037" class="edge">
<title>Node28&#45;&gt;Node37</title>
<g id="a_edge60_Node000028_Node000037"><a xlink:title=" ">
<path fill="none" stroke="#63b8ff" d="M975.3,-331.7C1062.54,-318.27 1235,-284.84 1235,-230.5 1235,-230.5 1235,-230.5 1235,-173.5 1235,-143.91 1228.63,-136.26 1215,-110 1209.8,-99.99 1202.33,-89.91 1195.72,-81.88"/>
<polygon fill="#63b8ff" stroke="#63b8ff" points="1198.19,-79.39 1189.02,-74.08 1192.88,-83.95 1198.19,-79.39"/>
</a>
</g>
</g>
<!-- Node42 -->
<g id="Node000042" class="node">
<title>Node42</title>
<g id="a_Node000042"><a xlink:href="std__types_8h.html" target="_top" xlink:title="Pre&#45;defined types.">
<polygon fill="white" stroke="#666666" points="915.5,-294 842.5,-294 842.5,-275 915.5,-275 915.5,-294"/>
<text text-anchor="middle" x="879" y="-282" font-family="Helvetica,sans-Serif" font-size="10.00">std_types.h</text>
</a>
</g>
</g>
<!-- Node28&#45;&gt;Node42 -->
<g id="edge50_Node000028_Node000042" class="edge">
<title>Node28&#45;&gt;Node42</title>
<g id="a_edge50_Node000028_Node000042"><a xlink:title=" ">
<path fill="none" stroke="#63b8ff" d="M918.24,-329.75C911.53,-322.18 901.66,-311.05 893.49,-301.84"/>
<polygon fill="#63b8ff" stroke="#63b8ff" points="895.87,-299.25 886.62,-294.09 890.63,-303.89 895.87,-299.25"/>
</a>
</g>
</g>
<!-- Node29&#45;&gt;Node4 -->
<g id="edge36_Node000029_Node000004" class="edge">
<title>Node29&#45;&gt;Node4</title>
<g id="a_edge36_Node000029_Node000004"><a xlink:title=" ">
<path fill="none" stroke="#63b8ff" d="M932.4,-220.1C891.68,-210.76 825.9,-195.67 782.31,-185.67"/>
<polygon fill="#63b8ff" stroke="#63b8ff" points="783.07,-182.25 772.54,-183.43 781.51,-189.07 783.07,-182.25"/>
</a>
</g>
</g>
<!-- Node29&#45;&gt;Node8 -->
<g id="edge34_Node000029_Node000008" class="edge">
<title>Node29&#45;&gt;Node8</title>
<g id="a_edge34_Node000029_Node000008"><a xlink:title=" ">
<path fill="none" stroke="#63b8ff" d="M964.62,-219.63C951.44,-192.92 912.75,-114.82 909,-110 881.71,-74.91 840.69,-42.73 816.01,-24.95"/>
<polygon fill="#63b8ff" stroke="#63b8ff" points="817.9,-22 807.72,-19.07 813.85,-27.71 817.9,-22"/>
</a>
</g>
</g>
<!-- Node30 -->
<g id="Node000030" class="node">
<title>Node30</title>
<g id="a_Node000030"><a xlink:title=" ">
<polygon fill="#e0e0e0" stroke="#999999" points="1013.5,-184 956.5,-184 956.5,-165 1013.5,-165 1013.5,-184"/>
<text text-anchor="middle" x="985" y="-172" font-family="Helvetica,sans-Serif" font-size="10.00">typeinfo</text>
</a>
</g>
</g>
<!-- Node29&#45;&gt;Node30 -->
<g id="edge33_Node000029_Node000030" class="edge">
<title>Node29&#45;&gt;Node30</title>
<g id="a_edge33_Node000029_Node000030"><a xlink:title=" ">
<path fill="none" stroke="#63b8ff" d="M971.64,-219.75C973.76,-212.72 976.81,-202.62 979.46,-193.84"/>
<polygon fill="#63b8ff" stroke="#63b8ff" points="982.87,-194.67 982.41,-184.09 976.17,-192.65 982.87,-194.67"/>
</a>
</g>
</g>
<!-- Node31 -->
<g id="Node000031" class="node">
<title>Node31</title>
<g id="a_Node000031"><a xlink:title=" ">
<polygon fill="#e0e0e0" stroke="#999999" points="1059.5,-129 994.5,-129 994.5,-110 1059.5,-110 1059.5,-129"/>
<text text-anchor="middle" x="1027" y="-117" font-family="Helvetica,sans-Serif" font-size="10.00">functional</text>
</a>
</g>
</g>
<!-- Node29&#45;&gt;Node31 -->
<g id="edge35_Node000029_Node000031" class="edge">
<title>Node29&#45;&gt;Node31</title>
<g id="a_edge35_Node000029_Node000031"><a xlink:title=" ">
<path fill="none" stroke="#63b8ff" d="M984.99,-219.86C997.42,-212.21 1013.86,-199.81 1022,-184 1029.05,-170.31 1029.91,-152.73 1029.23,-139.54"/>
<polygon fill="#63b8ff" stroke="#63b8ff" points="1032.69,-138.95 1028.35,-129.29 1025.72,-139.55 1032.69,-138.95"/>
</a>
</g>
</g>
<!-- Node32 -->
<g id="Node000032" class="node">
<title>Node32</title>
<g id="a_Node000032"><a xlink:href="expr_8h.html" target="_top" xlink:title=" ">
<polygon fill="white" stroke="#666666" points="1141.5,-184 1094.5,-184 1094.5,-165 1141.5,-165 1141.5,-184"/>
<text text-anchor="middle" x="1118" y="-172" font-family="Helvetica,sans-Serif" font-size="10.00">expr.h</text>
</a>
</g>
</g>
<!-- Node29&#45;&gt;Node32 -->
<g id="edge37_Node000029_Node000032" class="edge">
<title>Node29&#45;&gt;Node32</title>
<g id="a_edge37_Node000029_Node000032"><a xlink:title=" ">
<path fill="none" stroke="#63b8ff" d="M992.94,-219.98C1017.7,-211.18 1056.58,-197.35 1084.41,-187.45"/>
<polygon fill="#63b8ff" stroke="#63b8ff" points="1085.87,-190.64 1094.12,-183.99 1083.53,-184.05 1085.87,-190.64"/>
</a>
</g>
</g>
<!-- Node32&#45;&gt;Node25 -->
<g id="edge38_Node000032_Node000025" class="edge">
<title>Node32&#45;&gt;Node25</title>
<g id="a_edge38_Node000032_Node000025"><a xlink:title=" ">
<path fill="none" stroke="#63b8ff" d="M1094.47,-170.12C1047.45,-163.29 938.32,-147.11 836.4,-129.19"/>
<polygon fill="#63b8ff" stroke="#63b8ff" points="836.7,-125.69 826.24,-127.39 835.48,-132.58 836.7,-125.69"/>
</a>
</g>
</g>
<!-- Node32&#45;&gt;Node31 -->
<g id="edge48_Node000032_Node000031" class="edge">
<title>Node32&#45;&gt;Node31</title>
<g id="a_edge48_Node000032_Node000031"><a xlink:title=" ">
<path fill="none" stroke="#63b8ff" d="M1103.38,-164.98C1089.14,-156.69 1067.25,-143.94 1050.55,-134.22"/>
<polygon fill="#63b8ff" stroke="#63b8ff" points="1052.29,-131.18 1041.89,-129.17 1048.77,-137.23 1052.29,-131.18"/>
</a>
</g>
</g>
<!-- Node33 -->
<g id="Node000033" class="node">
<title>Node33</title>
<g id="a_Node000033"><a xlink:href="type_8h.html" target="_top" xlink:title="Defines typet, type_with_subtypet and type_with_subtypest.">
<polygon fill="#fff0f0" stroke="red" points="1310.5,-129 1263.5,-129 1263.5,-110 1310.5,-110 1310.5,-129"/>
<text text-anchor="middle" x="1287" y="-117" font-family="Helvetica,sans-Serif" font-size="10.00">type.h</text>
</a>
</g>
</g>
<!-- Node32&#45;&gt;Node33 -->
<g id="edge39_Node000032_Node000033" class="edge">
<title>Node32&#45;&gt;Node33</title>
<g id="a_edge39_Node000032_Node000033"><a xlink:title=" ">
<path fill="none" stroke="#63b8ff" d="M1141.86,-166.02C1171.04,-156.86 1220.64,-141.31 1253.61,-130.97"/>
<polygon fill="#63b8ff" stroke="#63b8ff" points="1254.77,-134.28 1263.27,-127.94 1252.68,-127.6 1254.77,-134.28"/>
</a>
</g>
</g>
<!-- Node39 -->
<g id="Node000039" class="node">
<title>Node39</title>
<g id="a_Node000039"><a xlink:href="validation__mode_8h.html" target="_top" xlink:title=" ">
<polygon fill="white" stroke="#666666" points="1295.5,-19 1188.5,-19 1188.5,0 1295.5,0 1295.5,-19"/>
<text text-anchor="middle" x="1242" y="-7" font-family="Helvetica,sans-Serif" font-size="10.00">validation_mode.h</text>
</a>
</g>
</g>
<!-- Node32&#45;&gt;Node39 -->
<g id="edge47_Node000032_Node000039" class="edge">
<title>Node32&#45;&gt;Node39</title>
<g id="a_edge47_Node000032_Node000039"><a xlink:title=" ">
<path fill="none" stroke="#63b8ff" d="M1141.8,-174.1C1184.39,-174.06 1274.99,-168.86 1337,-129 1362.43,-112.66 1367.65,-102.74 1377,-74 1388.36,-39.07 1345.71,-23.35 1305.4,-16.28"/>
<polygon fill="#63b8ff" stroke="#63b8ff" points="1305.94,-12.82 1295.51,-14.7 1304.83,-19.74 1305.94,-12.82"/>
</a>
</g>
</g>
<!-- Node40 -->
<g id="Node000040" class="node">
<title>Node40</title>
<g id="a_Node000040"><a xlink:href="validate__types_8h.html" target="_top" xlink:title=" ">
<polygon fill="white" stroke="#666666" points="1368,-74 1270,-74 1270,-55 1368,-55 1368,-74"/>
<text text-anchor="middle" x="1319" y="-62" font-family="Helvetica,sans-Serif" font-size="10.00">validate_types.h</text>
</a>
</g>
</g>
<!-- Node32&#45;&gt;Node40 -->
<g id="edge46_Node000032_Node000040" class="edge">
<title>Node32&#45;&gt;Node40</title>
<g id="a_edge46_Node000032_Node000040"><a xlink:title=" ">
<path fill="none" stroke="#63b8ff" d="M1141.6,-171.87C1189.81,-168.01 1296.96,-156.45 1319,-129 1328.91,-116.65 1327.7,-98.18 1324.73,-84.33"/>
<polygon fill="#63b8ff" stroke="#63b8ff" points="1328.06,-83.22 1322.15,-74.43 1321.28,-84.99 1328.06,-83.22"/>
</a>
</g>
</g>
<!-- Node41 -->
<g id="Node000041" class="node">
<title>Node41</title>
<g id="a_Node000041"><a xlink:href="validate__expressions_8h.html" target="_top" xlink:title=" ">
<polygon fill="white" stroke="#666666" points="1206.5,-129 1077.5,-129 1077.5,-110 1206.5,-110 1206.5,-129"/>
<text text-anchor="middle" x="1142" y="-117" font-family="Helvetica,sans-Serif" font-size="10.00">validate_expressions.h</text>
</a>
</g>
</g>
<!-- Node32&#45;&gt;Node41 -->
<g id="edge45_Node000032_Node000041" class="edge">
<title>Node32&#45;&gt;Node41</title>
<g id="a_edge45_Node000032_Node000041"><a xlink:title=" ">
<path fill="none" stroke="#63b8ff" d="M1121.96,-164.75C1125.21,-157.57 1129.92,-147.18 1133.95,-138.27"/>
<polygon fill="#63b8ff" stroke="#63b8ff" points="1137.17,-139.64 1138.11,-129.09 1130.8,-136.75 1137.17,-139.64"/>
</a>
</g>
</g>
<!-- Node33&#45;&gt;Node37 -->
<g id="edge40_Node000033_Node000037" class="edge">
<title>Node33&#45;&gt;Node37</title>
<g id="a_edge40_Node000033_Node000037"><a xlink:title=" ">
<path fill="none" stroke="#63b8ff" d="M1269.97,-109.98C1253.07,-101.54 1226.94,-88.47 1207.36,-78.68"/>
<polygon fill="#63b8ff" stroke="#63b8ff" points="1208.85,-75.51 1198.34,-74.17 1205.72,-81.77 1208.85,-75.51"/>
</a>
</g>
</g>
<!-- Node33&#45;&gt;Node39 -->
<g id="edge44_Node000033_Node000039" class="edge">
<title>Node33&#45;&gt;Node39</title>
<g id="a_edge44_Node000033_Node000039"><a xlink:title=" ">
<path fill="none" stroke="#63b8ff" d="M1281.18,-109.96C1275.43,-101.23 1266.7,-87.13 1261,-74 1254.69,-59.47 1249.67,-42.2 1246.38,-29.34"/>
<polygon fill="#63b8ff" stroke="#63b8ff" points="1249.71,-28.25 1243.94,-19.36 1242.91,-29.91 1249.71,-28.25"/>
</a>
</g>
</g>
<!-- Node33&#45;&gt;Node40 -->
<g id="edge43_Node000033_Node000040" class="edge">
<title>Node33&#45;&gt;Node40</title>
<g id="a_edge43_Node000033_Node000040"><a xlink:title=" ">
<path fill="none" stroke="#63b8ff" d="M1292.28,-109.75C1296.71,-102.42 1303.16,-91.73 1308.62,-82.7"/>
<polygon fill="#63b8ff" stroke="#63b8ff" points="1311.64,-84.46 1313.81,-74.09 1305.65,-80.84 1311.64,-84.46"/>
</a>
</g>
</g>
<!-- Node37&#45;&gt;Node8 -->
<g id="edge41_Node000037_Node000008" class="edge">
<title>Node37&#45;&gt;Node8</title>
<g id="a_edge41_Node000037_Node000008"><a xlink:title=" ">
<path fill="none" stroke="#63b8ff" d="M1148.42,-59.03C1079.37,-49.55 918.18,-27.41 839.62,-16.63"/>
<polygon fill="#63b8ff" stroke="#63b8ff" points="839.94,-13.14 829.56,-15.25 838.99,-20.07 839.94,-13.14"/>
</a>
</g>
</g>
<!-- Node37&#45;&gt;Node39 -->
<g id="edge42_Node000037_Node000039" class="edge">
<title>Node37&#45;&gt;Node39</title>
<g id="a_edge42_Node000037_Node000039"><a xlink:title=" ">
<path fill="none" stroke="#63b8ff" d="M1190.8,-54.98C1199.82,-47.15 1213.41,-35.34 1224.32,-25.86"/>
<polygon fill="#63b8ff" stroke="#63b8ff" points="1226.77,-28.37 1232.02,-19.17 1222.18,-23.09 1226.77,-28.37"/>
</a>
</g>
</g>
<!-- Node42&#45;&gt;Node4 -->
<g id="edge53_Node000042_Node000004" class="edge">
<title>Node42&#45;&gt;Node4</title>
<g id="a_edge53_Node000042_Node000004"><a xlink:title=" ">
<path fill="none" stroke="#63b8ff" d="M873.71,-274.69C865.38,-261.41 848.06,-236.11 828,-220 811.14,-206.46 789.5,-195.6 771.65,-187.99"/>
<polygon fill="#63b8ff" stroke="#63b8ff" points="772.77,-184.67 762.19,-184.11 770.11,-191.14 772.77,-184.67"/>
</a>
</g>
</g>
<!-- Node42&#45;&gt;Node18 -->
<g id="edge59_Node000042_Node000018" class="edge">
<title>Node42&#45;&gt;Node18</title>
<g id="a_edge59_Node000042_Node000018"><a xlink:title=" ">
<path fill="none" stroke="#63b8ff" d="M842.21,-281.84C745,-277.18 483.12,-262.73 400,-239 381.84,-233.82 379.41,-227.3 362,-220 316.5,-200.93 294.58,-215.96 257,-184 243.03,-172.12 233.91,-153.02 228.67,-138.86"/>
<polygon fill="#63b8ff" stroke="#63b8ff" points="231.92,-137.55 225.4,-129.21 225.29,-139.8 231.92,-137.55"/>
</a>
</g>
</g>
<!-- Node42&#45;&gt;Node29 -->
<g id="edge52_Node000042_Node000029" class="edge">
<title>Node42&#45;&gt;Node29</title>
<g id="a_edge52_Node000042_Node000029"><a xlink:title=" ">
<path fill="none" stroke="#63b8ff" d="M893.46,-274.98C907.42,-266.77 928.79,-254.18 945.25,-244.49"/>
<polygon fill="#63b8ff" stroke="#63b8ff" points="947.44,-247.26 954.28,-239.17 943.88,-241.23 947.44,-247.26"/>
</a>
</g>
</g>
<!-- Node42&#45;&gt;Node32 -->
<g id="edge51_Node000042_Node000032" class="edge">
<title>Node42&#45;&gt;Node32</title>
<g id="a_edge51_Node000042_Node000032"><a xlink:title=" ">
<path fill="none" stroke="#63b8ff" d="M911.99,-274.92C939.83,-267.15 980.4,-254.54 1014,-239 1044.47,-224.9 1077.13,-203.88 1097.55,-189.94"/>
<polygon fill="#63b8ff" stroke="#63b8ff" points="1099.79,-192.65 1106.02,-184.08 1095.81,-186.89 1099.79,-192.65"/>
</a>
</g>
</g>
<!-- Node42&#45;&gt;Node37 -->
<g id="edge58_Node000042_Node000037" class="edge">
<title>Node42&#45;&gt;Node37</title>
<g id="a_edge58_Node000042_Node000037"><a xlink:title=" ">
<path fill="none" stroke="#63b8ff" d="M881.45,-274.85C890.1,-246 922.14,-152.52 985,-110 1031.1,-78.82 1095.83,-69.22 1138.08,-66.41"/>
<polygon fill="#63b8ff" stroke="#63b8ff" points="1138.53,-69.89 1148.32,-65.83 1138.14,-62.9 1138.53,-69.89"/>
</a>
</g>
</g>
<!-- Node43 -->
<g id="Node000043" class="node">
<title>Node43</title>
<g id="a_Node000043"><a xlink:href="mp__arith_8h.html" target="_top" xlink:title=" ">
<polygon fill="white" stroke="#666666" points="555.5,-239 486.5,-239 486.5,-220 555.5,-220 555.5,-239"/>
<text text-anchor="middle" x="521" y="-227" font-family="Helvetica,sans-Serif" font-size="10.00">mp_arith.h</text>
</a>
</g>
</g>
<!-- Node42&#45;&gt;Node43 -->
<g id="edge54_Node000042_Node000043" class="edge">
<title>Node42&#45;&gt;Node43</title>
<g id="a_edge54_Node000042_Node000043"><a xlink:title=" ">
<path fill="none" stroke="#63b8ff" d="M842.37,-278.08C776.3,-268.3 637.39,-247.73 565.79,-237.13"/>
<polygon fill="#63b8ff" stroke="#63b8ff" points="566.13,-233.64 555.73,-235.64 565.11,-240.57 566.13,-233.64"/>
</a>
</g>
</g>
<!-- Node43&#45;&gt;Node7 -->
<g id="edge56_Node000043_Node000007" class="edge">
<title>Node43&#45;&gt;Node7</title>
<g id="a_edge56_Node000043_Node000007"><a xlink:title=" ">
<path fill="none" stroke="#63b8ff" d="M529.49,-219.86C540.84,-207.22 558.27,-183.24 547,-165 534.57,-144.89 509.99,-133.56 489.8,-127.37"/>
<polygon fill="#63b8ff" stroke="#63b8ff" points="490.6,-123.96 480.03,-124.66 488.73,-130.71 490.6,-123.96"/>
</a>
</g>
</g>
<!-- Node43&#45;&gt;Node13 -->
<g id="edge55_Node000043_Node000013" class="edge">
<title>Node43&#45;&gt;Node13</title>
<g id="a_edge55_Node000043_Node000013"><a xlink:title=" ">
<path fill="none" stroke="#63b8ff" d="M501.88,-219.98C482.65,-211.42 452.77,-198.11 430.69,-188.28"/>
<polygon fill="#63b8ff" stroke="#63b8ff" points="432.03,-185.04 421.47,-184.17 429.18,-191.44 432.03,-185.04"/>
</a>
</g>
</g>
<!-- Node44 -->
<g id="Node000044" class="node">
<title>Node44</title>
<g id="a_Node000044"><a xlink:title=" ">
<polygon fill="#e0e0e0" stroke="#999999" points="538,-184 444,-184 444,-165 538,-165 538,-184"/>
<text text-anchor="middle" x="491" y="-172" font-family="Helvetica,sans-Serif" font-size="10.00">big&#45;int/bigint.hh</text>
</a>
</g>
</g>
<!-- Node43&#45;&gt;Node44 -->
<g id="edge57_Node000043_Node000044" class="edge">
<title>Node43&#45;&gt;Node44</title>
<g id="a_edge57_Node000043_Node000044"><a xlink:title=" ">
<path fill="none" stroke="#63b8ff" d="M516.05,-219.75C511.94,-212.49 505.97,-201.95 500.9,-192.98"/>
<polygon fill="#63b8ff" stroke="#63b8ff" points="503.83,-191.07 495.86,-184.09 497.74,-194.52 503.83,-191.07"/>
</a>
</g>
</g>
<!-- Node45&#45;&gt;Node4 -->
<g id="edge63_Node000045_Node000004" class="edge">
<title>Node45&#45;&gt;Node4</title>
<g id="a_edge63_Node000045_Node000004"><a xlink:title=" ">
<path fill="none" stroke="#63b8ff" d="M819.94,-329.68C814.84,-320.73 806.76,-306.46 800,-294 780.72,-258.44 758.96,-216.4 747.04,-193.17"/>
<polygon fill="#63b8ff" stroke="#63b8ff" points="750.1,-191.47 742.42,-184.17 743.87,-194.67 750.1,-191.47"/>
</a>
</g>
</g>
<!-- Node45&#45;&gt;Node29 -->
<g id="edge62_Node000045_Node000029" class="edge">
<title>Node45&#45;&gt;Node29</title>
<g id="a_edge62_Node000045_Node000029"><a xlink:title=" ">
<path fill="none" stroke="#63b8ff" d="M854.12,-330C875.13,-322.83 903.33,-311 924,-294 939.28,-281.43 951.81,-262.46 959.73,-248.53"/>
<polygon fill="#63b8ff" stroke="#63b8ff" points="962.97,-249.89 964.65,-239.43 956.81,-246.56 962.97,-249.89"/>
</a>
</g>
</g>
<!-- Node45&#45;&gt;Node42 -->
<g id="edge64_Node000045_Node000042" class="edge">
<title>Node45&#45;&gt;Node42</title>
<g id="a_edge64_Node000045_Node000042"><a xlink:title=" ">
<path fill="none" stroke="#63b8ff" d="M833.92,-329.75C841.78,-322.03 853.43,-310.6 862.92,-301.28"/>
<polygon fill="#63b8ff" stroke="#63b8ff" points="865.56,-303.59 870.25,-294.09 860.66,-298.6 865.56,-303.59"/>
</a>
</g>
</g>
</g>
</svg>
