<?xml version="1.0" encoding="UTF-8" standalone="no"?>
<!DOCTYPE svg PUBLIC "-//W3C//DTD SVG 1.1//EN"
 "http://www.w3.org/Graphics/SVG/1.1/DTD/svg11.dtd">
<!-- Generated by graphviz version 2.43.0 (0)
 -->
<!-- Title: parsert Pages: 1 -->
<svg width="2166pt" height="446pt"
 viewBox="0.00 0.00 2166.00 445.79" xmlns="http://www.w3.org/2000/svg" xmlns:xlink="http://www.w3.org/1999/xlink">
<g id="graph0" class="graph" transform="scale(1 1) rotate(0) translate(4 441.79)">
<title>parsert</title>
<!-- Node1 -->
<g id="Node000001" class="node">
<title>Node1</title>
<g id="a_Node000001"><a xlink:title=" ">
<polygon fill="#999999" stroke="#666666" points="2158,-173.29 2107,-173.29 2107,-154.29 2158,-154.29 2158,-173.29"/>
<text text-anchor="middle" x="2132.5" y="-161.29" font-family="Helvetica,sans-Serif" font-size="10.00">parsert</text>
</a>
</g>
</g>
<!-- Node2 -->
<g id="Node000002" class="node">
<title>Node2</title>
<g id="a_Node000002"><a xlink:title=" ">
<polygon fill="white" stroke="#666666" points="1477,-390.29 1402,-390.29 1402,-371.29 1477,-371.29 1477,-390.29"/>
<text text-anchor="middle" x="1439.5" y="-378.29" font-family="Helvetica,sans-Serif" font-size="10.00">std::istream</text>
</a>
</g>
</g>
<!-- Node2&#45;&gt;Node1 -->
<g id="edge1_Node000001_Node000002" class="edge">
<title>Node2&#45;&gt;Node1</title>
<g id="a_edge1_Node000001_Node000002"><a xlink:title=" ">
<path fill="none" stroke="#9a32cd" stroke-dasharray="5,2" d="M1487.17,-380.11C1531.22,-379.53 1599.09,-378.79 1658,-378.79 1658,-378.79 1658,-378.79 1994.5,-378.79 2093.42,-378.79 2124.04,-214.91 2130.22,-173.3"/>
<polygon fill="#9a32cd" stroke="#9a32cd" points="1487.01,-376.61 1477.06,-380.25 1487.1,-383.61 1487.01,-376.61"/>
</a>
</g>
<text text-anchor="middle" x="1778.5" y="-381.79" font-family="Helvetica,sans-Serif" font-size="10.00" fill="grey"> in</text>
</g>
<!-- Node3 -->
<g id="Node000003" class="node">
<title>Node3</title>
<g id="a_Node000003"><a xlink:title=" ">
<polygon fill="white" stroke="#666666" points="1200.5,-400.79 1094.5,-400.79 1094.5,-370.79 1200.5,-370.79 1200.5,-400.79"/>
<text text-anchor="start" x="1102.5" y="-388.79" font-family="Helvetica,sans-Serif" font-size="10.00">std::basic_istream</text>
<text text-anchor="middle" x="1147.5" y="-377.79" font-family="Helvetica,sans-Serif" font-size="10.00">&lt; Char &gt;</text>
</a>
</g>
</g>
<!-- Node3&#45;&gt;Node2 -->
<g id="edge2_Node000002_Node000003" class="edge">
<title>Node3&#45;&gt;Node2</title>
<g id="a_edge2_Node000002_Node000003"><a xlink:title=" ">
<path fill="none" stroke="#63b8ff" d="M1210.86,-384.71C1269.06,-383.71 1353.91,-382.25 1401.89,-381.42"/>
<polygon fill="#63b8ff" stroke="#63b8ff" points="1210.62,-381.22 1200.68,-384.89 1210.74,-388.22 1210.62,-381.22"/>
</a>
</g>
</g>
<!-- Node4 -->
<g id="Node000004" class="node">
<title>Node4</title>
<g id="a_Node000004"><a xlink:title=" ">
<polygon fill="white" stroke="#666666" points="898,-365.29 770,-365.29 770,-346.29 898,-346.29 898,-365.29"/>
<text text-anchor="middle" x="834" y="-353.29" font-family="Helvetica,sans-Serif" font-size="10.00">std::basic_ios&lt; Char &gt;</text>
</a>
</g>
</g>
<!-- Node4&#45;&gt;Node3 -->
<g id="edge3_Node000003_Node000004" class="edge">
<title>Node4&#45;&gt;Node3</title>
<g id="a_edge3_Node000003_Node000004"><a xlink:title=" ">
<path fill="none" stroke="#63b8ff" d="M908.1,-362.83C965.29,-368.34 1043.41,-375.86 1094.4,-380.77"/>
<polygon fill="#63b8ff" stroke="#63b8ff" points="908.33,-359.33 898.04,-361.86 907.66,-366.3 908.33,-359.33"/>
</a>
</g>
</g>
<!-- Node27 -->
<g id="Node000027" class="node">
<title>Node27</title>
<g id="a_Node000027"><a xlink:title=" ">
<polygon fill="white" stroke="#666666" points="1202,-352.79 1093,-352.79 1093,-322.79 1202,-322.79 1202,-352.79"/>
<text text-anchor="start" x="1101" y="-340.79" font-family="Helvetica,sans-Serif" font-size="10.00">std::basic_ostream</text>
<text text-anchor="middle" x="1147.5" y="-329.79" font-family="Helvetica,sans-Serif" font-size="10.00">&lt; Char &gt;</text>
</a>
</g>
</g>
<!-- Node4&#45;&gt;Node27 -->
<g id="edge29_Node000027_Node000004" class="edge">
<title>Node4&#45;&gt;Node27</title>
<g id="a_edge29_Node000027_Node000004"><a xlink:title=" ">
<path fill="none" stroke="#63b8ff" d="M908.36,-351.55C964.97,-348.28 1041.97,-343.83 1092.9,-340.89"/>
<polygon fill="#63b8ff" stroke="#63b8ff" points="907.82,-348.08 898.04,-352.15 908.22,-355.06 907.82,-348.08"/>
</a>
</g>
</g>
<!-- Node5 -->
<g id="Node000005" class="node">
<title>Node5</title>
<g id="a_Node000005"><a xlink:title=" ">
<polygon fill="white" stroke="#666666" points="584,-365.29 504,-365.29 504,-346.29 584,-346.29 584,-365.29"/>
<text text-anchor="middle" x="544" y="-353.29" font-family="Helvetica,sans-Serif" font-size="10.00">std::ios_base</text>
</a>
</g>
</g>
<!-- Node5&#45;&gt;Node4 -->
<g id="edge4_Node000004_Node000005" class="edge">
<title>Node5&#45;&gt;Node4</title>
<g id="a_edge4_Node000004_Node000005"><a xlink:title=" ">
<path fill="none" stroke="#63b8ff" d="M594.39,-355.79C642.9,-355.79 717.12,-355.79 769.89,-355.79"/>
<polygon fill="#63b8ff" stroke="#63b8ff" points="594.14,-352.29 584.14,-355.79 594.14,-359.29 594.14,-352.29"/>
</a>
</g>
</g>
<!-- Node6 -->
<g id="Node000006" class="node">
<title>Node6</title>
<g id="a_Node000006"><a xlink:title=" ">
<polygon fill="white" stroke="#666666" points="2026,-429.29 1961,-429.29 1961,-410.29 2026,-410.29 2026,-429.29"/>
<text text-anchor="middle" x="1993.5" y="-417.29" font-family="Helvetica,sans-Serif" font-size="10.00">std::string</text>
</a>
</g>
</g>
<!-- Node6&#45;&gt;Node1 -->
<g id="edge5_Node000001_Node000006" class="edge">
<title>Node6&#45;&gt;Node1</title>
<g id="a_edge5_Node000001_Node000006"><a xlink:title=" ">
<path fill="none" stroke="#9a32cd" stroke-dasharray="5,2" d="M2036.22,-417.57C2054.88,-414.4 2075.63,-407.49 2089,-392.79 2119.13,-359.66 2128.94,-212.42 2131.03,-173.34"/>
<polygon fill="#9a32cd" stroke="#9a32cd" points="2035.55,-414.13 2026.13,-418.97 2036.51,-421.06 2035.55,-414.13"/>
</a>
</g>
<text text-anchor="middle" x="2066.5" y="-428.79" font-family="Helvetica,sans-Serif" font-size="10.00" fill="grey"> last_line</text>
<text text-anchor="middle" x="2066.5" y="-417.79" font-family="Helvetica,sans-Serif" font-size="10.00" fill="grey">this_line</text>
</g>
<!-- Node7 -->
<g id="Node000007" class="node">
<title>Node7</title>
<g id="a_Node000007"><a xlink:title=" ">
<polygon fill="white" stroke="#666666" points="1830.5,-437.79 1726.5,-437.79 1726.5,-407.79 1830.5,-407.79 1830.5,-437.79"/>
<text text-anchor="start" x="1734.5" y="-425.79" font-family="Helvetica,sans-Serif" font-size="10.00">std::basic_string&lt;</text>
<text text-anchor="middle" x="1778.5" y="-414.79" font-family="Helvetica,sans-Serif" font-size="10.00"> Char &gt;</text>
</a>
</g>
</g>
<!-- Node7&#45;&gt;Node6 -->
<g id="edge6_Node000006_Node000007" class="edge">
<title>Node7&#45;&gt;Node6</title>
<g id="a_edge6_Node000006_Node000007"><a xlink:title=" ">
<path fill="none" stroke="#63b8ff" d="M1840.76,-421.93C1879.95,-421.37 1929.17,-420.68 1960.73,-420.24"/>
<polygon fill="#63b8ff" stroke="#63b8ff" points="1840.47,-418.43 1830.52,-422.07 1840.57,-425.43 1840.47,-418.43"/>
</a>
</g>
</g>
<!-- Node8 -->
<g id="Node000008" class="node">
<title>Node8</title>
<g id="a_Node000008"><a xlink:title=" ">
<polygon fill="white" stroke="#666666" points="1836.5,-32.29 1720.5,-32.29 1720.5,-13.29 1836.5,-13.29 1836.5,-32.29"/>
<text text-anchor="middle" x="1778.5" y="-20.29" font-family="Helvetica,sans-Serif" font-size="10.00">std::vector&lt; exprt &gt;</text>
</a>
</g>
</g>
<!-- Node8&#45;&gt;Node1 -->
<g id="edge7_Node000001_Node000008" class="edge">
<title>Node8&#45;&gt;Node1</title>
<g id="a_edge7_Node000001_Node000008"><a xlink:title=" ">
<path fill="none" stroke="#9a32cd" stroke-dasharray="5,2" d="M1827.3,-11.27C1894.04,1.75 2015.23,13.87 2089,-47.79 2122.24,-75.57 2129.49,-131.73 2131.06,-154.19"/>
<polygon fill="#9a32cd" stroke="#9a32cd" points="1826.56,-7.85 1817.46,-13.28 1827.96,-14.71 1826.56,-7.85"/>
</a>
</g>
<text text-anchor="middle" x="1993.5" y="-16.79" font-family="Helvetica,sans-Serif" font-size="10.00" fill="grey"> stack</text>
</g>
<!-- Node9 -->
<g id="Node000009" class="node">
<title>Node9</title>
<g id="a_Node000009"><a xlink:href="classexprt.html" target="_top" xlink:title="Base class for all expressions.">
<polygon fill="white" stroke="#666666" points="1569,-50.29 1527,-50.29 1527,-31.29 1569,-31.29 1569,-50.29"/>
<text text-anchor="middle" x="1548" y="-38.29" font-family="Helvetica,sans-Serif" font-size="10.00">exprt</text>
</a>
</g>
</g>
<!-- Node9&#45;&gt;Node8 -->
<g id="edge8_Node000008_Node000009" class="edge">
<title>Node9&#45;&gt;Node8</title>
<g id="a_edge8_Node000008_Node000009"><a xlink:title=" ">
<path fill="none" stroke="#9a32cd" stroke-dasharray="5,2" d="M1579.58,-38.38C1615.43,-35.56 1675.61,-30.82 1720.22,-27.3"/>
<polygon fill="#9a32cd" stroke="#9a32cd" points="1578.97,-34.92 1569.28,-39.19 1579.52,-41.9 1578.97,-34.92"/>
</a>
</g>
<text text-anchor="middle" x="1659" y="-38.79" font-family="Helvetica,sans-Serif" font-size="10.00" fill="grey"> elements</text>
</g>
<!-- Node10 -->
<g id="Node000010" class="node">
<title>Node10</title>
<g id="a_Node000010"><a xlink:href="classirept.html" target="_top" xlink:title="There are a large number of kinds of tree structured or tree&#45;like data in CPROVER.">
<polygon fill="white" stroke="#666666" points="1335,-87.29 1296,-87.29 1296,-68.29 1335,-68.29 1335,-87.29"/>
<text text-anchor="middle" x="1315.5" y="-75.29" font-family="Helvetica,sans-Serif" font-size="10.00">irept</text>
</a>
</g>
</g>
<!-- Node10&#45;&gt;Node9 -->
<g id="edge9_Node000009_Node000010" class="edge">
<title>Node10&#45;&gt;Node9</title>
<g id="a_edge9_Node000009_Node000010"><a xlink:title=" ">
<path fill="none" stroke="#63b8ff" d="M1345.28,-73.17C1392.67,-65.56 1485.93,-50.59 1526.89,-44.02"/>
<polygon fill="#63b8ff" stroke="#63b8ff" points="1344.68,-69.72 1335.36,-74.76 1345.79,-76.63 1344.68,-69.72"/>
</a>
</g>
</g>
<!-- Node28 -->
<g id="Node000028" class="node">
<title>Node28</title>
<g id="a_Node000028"><a xlink:href="classsource__locationt.html" target="_top" xlink:title=" ">
<polygon fill="white" stroke="#666666" points="1596.5,-87.29 1499.5,-87.29 1499.5,-68.29 1596.5,-68.29 1596.5,-87.29"/>
<text text-anchor="middle" x="1548" y="-75.29" font-family="Helvetica,sans-Serif" font-size="10.00">source_locationt</text>
</a>
</g>
</g>
<!-- Node10&#45;&gt;Node28 -->
<g id="edge32_Node000028_Node000010" class="edge">
<title>Node10&#45;&gt;Node28</title>
<g id="a_edge32_Node000028_Node000010"><a xlink:title=" ">
<path fill="none" stroke="#63b8ff" d="M1345.4,-77.79C1383.99,-77.79 1452.87,-77.79 1499.24,-77.79"/>
<polygon fill="#63b8ff" stroke="#63b8ff" points="1345.36,-74.29 1335.36,-77.79 1345.36,-81.29 1345.36,-74.29"/>
</a>
</g>
</g>
<!-- Node11 -->
<g id="Node000011" class="node">
<title>Node11</title>
<g id="a_Node000011"><a xlink:href="classsharing__treet.html" target="_top" xlink:title=" ">
<polygon fill="white" stroke="#666666" points="1210,-98.29 1085,-98.29 1085,-57.29 1210,-57.29 1210,-98.29"/>
<text text-anchor="start" x="1093" y="-86.29" font-family="Helvetica,sans-Serif" font-size="10.00">sharing_treet&lt; irept,</text>
<text text-anchor="start" x="1093" y="-75.29" font-family="Helvetica,sans-Serif" font-size="10.00"> forward_list_as_mapt</text>
<text text-anchor="middle" x="1147.5" y="-64.29" font-family="Helvetica,sans-Serif" font-size="10.00">&lt; irep_idt, irept &gt; &gt;</text>
</a>
</g>
</g>
<!-- Node11&#45;&gt;Node10 -->
<g id="edge10_Node000010_Node000011" class="edge">
<title>Node11&#45;&gt;Node10</title>
<g id="a_edge10_Node000010_Node000011"><a xlink:title=" ">
<path fill="none" stroke="#63b8ff" d="M1220.42,-77.79C1248.11,-77.79 1277.48,-77.79 1295.9,-77.79"/>
<polygon fill="#63b8ff" stroke="#63b8ff" points="1220.31,-74.29 1210.31,-77.79 1220.31,-81.29 1220.31,-74.29"/>
</a>
</g>
</g>
<!-- Node12 -->
<g id="Node000012" class="node">
<title>Node12</title>
<g id="a_Node000012"><a xlink:href="classtree__nodet.html" target="_top" xlink:title="A node with data in a tree, it contains:">
<polygon fill="white" stroke="#666666" points="623,-110.79 465,-110.79 465,-80.79 623,-80.79 623,-110.79"/>
<text text-anchor="start" x="473" y="-98.79" font-family="Helvetica,sans-Serif" font-size="10.00">tree_nodet&lt; treet,</text>
<text text-anchor="middle" x="544" y="-87.79" font-family="Helvetica,sans-Serif" font-size="10.00"> named_subtreest, sharing &gt;</text>
</a>
</g>
</g>
<!-- Node12&#45;&gt;Node11 -->
<g id="edge11_Node000011_Node000012" class="edge">
<title>Node12&#45;&gt;Node11</title>
<g id="a_edge11_Node000011_Node000012"><a xlink:title=" ">
<path fill="none" stroke="#9a32cd" stroke-dasharray="5,2" d="M633.33,-91.85C673.76,-90.13 722.3,-88.2 766,-86.79 878.44,-83.17 1009.61,-80.38 1084.87,-78.92"/>
<polygon fill="#9a32cd" stroke="#9a32cd" points="633.07,-88.35 623.23,-92.28 633.37,-95.35 633.07,-88.35"/>
</a>
</g>
<text text-anchor="middle" x="834" y="-100.79" font-family="Helvetica,sans-Serif" font-size="10.00" fill="grey"> data</text>
<text text-anchor="middle" x="834" y="-89.79" font-family="Helvetica,sans-Serif" font-size="10.00" fill="grey">empty_d</text>
</g>
<!-- Node18 -->
<g id="Node000018" class="node">
<title>Node18</title>
<g id="a_Node000018"><a xlink:href="classsharing__treet.html" target="_top" xlink:title="Base class for tree&#45;like data structures with sharing.">
<polygon fill="white" stroke="#666666" points="902,-147.79 766,-147.79 766,-117.79 902,-117.79 902,-147.79"/>
<text text-anchor="start" x="774" y="-135.79" font-family="Helvetica,sans-Serif" font-size="10.00">sharing_treet&lt; derivedt,</text>
<text text-anchor="middle" x="834" y="-124.79" font-family="Helvetica,sans-Serif" font-size="10.00"> named_subtreest &gt;</text>
</a>
</g>
</g>
<!-- Node12&#45;&gt;Node18 -->
<g id="edge17_Node000018_Node000012" class="edge">
<title>Node12&#45;&gt;Node18</title>
<g id="a_edge17_Node000018_Node000012"><a xlink:title=" ">
<path fill="none" stroke="#9a32cd" stroke-dasharray="5,2" d="M633.42,-107.15C676.1,-112.63 726.48,-119.1 765.94,-124.17"/>
<polygon fill="#9a32cd" stroke="#9a32cd" points="633.68,-103.65 623.32,-105.85 632.79,-110.6 633.68,-103.65"/>
</a>
</g>
<text text-anchor="middle" x="694.5" y="-136.79" font-family="Helvetica,sans-Serif" font-size="10.00" fill="grey"> data</text>
<text text-anchor="middle" x="694.5" y="-125.79" font-family="Helvetica,sans-Serif" font-size="10.00" fill="grey">empty_d</text>
</g>
<!-- Node13 -->
<g id="Node000013" class="node">
<title>Node13</title>
<g id="a_Node000013"><a xlink:href="structref__count__ift.html" target="_top" xlink:title="Used in tree_nodet for activating or not reference counting.">
<polygon fill="white" stroke="#666666" points="348.5,-68.29 209.5,-68.29 209.5,-49.29 348.5,-49.29 348.5,-68.29"/>
<text text-anchor="middle" x="279" y="-56.29" font-family="Helvetica,sans-Serif" font-size="10.00">ref_count_ift&lt; enabled &gt;</text>
</a>
</g>
</g>
<!-- Node13&#45;&gt;Node12 -->
<g id="edge12_Node000012_Node000013" class="edge">
<title>Node13&#45;&gt;Node12</title>
<g id="a_edge12_Node000012_Node000013"><a xlink:title=" ">
<path fill="none" stroke="#63b8ff" d="M357.99,-69.76C391.7,-74.5 431.06,-80.04 464.78,-84.79"/>
<polygon fill="#63b8ff" stroke="#63b8ff" points="358.12,-66.24 347.73,-68.32 357.14,-73.18 358.12,-66.24"/>
</a>
</g>
</g>
<!-- Node14 -->
<g id="Node000014" class="node">
<title>Node14</title>
<g id="a_Node000014"><a xlink:href="classdstringt.html" target="_top" xlink:title="dstringt has one field, an unsigned integer no which is an index into a static table of strings.">
<polygon fill="white" stroke="#666666" points="306,-142.29 252,-142.29 252,-123.29 306,-123.29 306,-142.29"/>
<text text-anchor="middle" x="279" y="-130.29" font-family="Helvetica,sans-Serif" font-size="10.00">dstringt</text>
</a>
</g>
</g>
<!-- Node14&#45;&gt;Node12 -->
<g id="edge13_Node000012_Node000014" class="edge">
<title>Node14&#45;&gt;Node12</title>
<g id="a_edge13_Node000012_Node000014"><a xlink:title=" ">
<path fill="none" stroke="#9a32cd" stroke-dasharray="5,2" d="M316.39,-128.25C350.24,-123.97 402.08,-117.26 447,-110.79 452.84,-109.95 458.88,-109.06 464.96,-108.14"/>
<polygon fill="#9a32cd" stroke="#9a32cd" points="315.54,-124.83 306.06,-129.55 316.42,-131.77 315.54,-124.83"/>
</a>
</g>
<text text-anchor="middle" x="407" y="-124.79" font-family="Helvetica,sans-Serif" font-size="10.00" fill="grey"> data</text>
</g>
<!-- Node15 -->
<g id="Node000015" class="node">
<title>Node15</title>
<g id="a_Node000015"><a xlink:title=" ">
<polygon fill="white" stroke="#666666" points="336,-105.29 222,-105.29 222,-86.29 336,-86.29 336,-105.29"/>
<text text-anchor="middle" x="279" y="-93.29" font-family="Helvetica,sans-Serif" font-size="10.00">std::vector&lt; treet &gt;</text>
</a>
</g>
</g>
<!-- Node15&#45;&gt;Node12 -->
<g id="edge14_Node000012_Node000015" class="edge">
<title>Node15&#45;&gt;Node12</title>
<g id="a_edge14_Node000012_Node000015"><a xlink:title=" ">
<path fill="none" stroke="#9a32cd" stroke-dasharray="5,2" d="M346.46,-95.79C382.38,-95.79 426.94,-95.79 464.54,-95.79"/>
<polygon fill="#9a32cd" stroke="#9a32cd" points="346.1,-92.29 336.1,-95.79 346.1,-99.29 346.1,-92.29"/>
</a>
</g>
<text text-anchor="middle" x="407" y="-98.79" font-family="Helvetica,sans-Serif" font-size="10.00" fill="grey"> sub</text>
</g>
<!-- Node16 -->
<g id="Node000016" class="node">
<title>Node16</title>
<g id="a_Node000016"><a xlink:title=" ">
<polygon fill="#fff0f0" stroke="red" points="97,-105.29 0,-105.29 0,-86.29 97,-86.29 97,-105.29"/>
<text text-anchor="middle" x="48.5" y="-93.29" font-family="Helvetica,sans-Serif" font-size="10.00">std::vector&lt; T &gt;</text>
</a>
</g>
</g>
<!-- Node16&#45;&gt;Node8 -->
<g id="edge18_Node000008_Node000016" class="edge">
<title>Node16&#45;&gt;Node8</title>
<g id="a_edge18_Node000008_Node000016"><a xlink:title=" ">
<path fill="none" stroke="orange" stroke-dasharray="5,2" d="M71.14,-80.34C110.37,-53.9 196.72,-2.79 278,-2.79 278,-2.79 278,-2.79 1549,-2.79 1607.54,-2.79 1674.19,-9.38 1720.34,-15"/>
<polygon fill="orange" stroke="orange" points="68.9,-77.64 62.64,-86.19 72.86,-83.4 68.9,-77.64"/>
</a>
</g>
<text text-anchor="middle" x="993.5" y="-5.79" font-family="Helvetica,sans-Serif" font-size="10.00" fill="grey"> &lt; exprt &gt;</text>
</g>
<!-- Node16&#45;&gt;Node15 -->
<g id="edge15_Node000015_Node000016" class="edge">
<title>Node16&#45;&gt;Node15</title>
<g id="a_edge15_Node000015_Node000016"><a xlink:title=" ">
<path fill="none" stroke="orange" stroke-dasharray="5,2" d="M107.24,-95.79C142.41,-95.79 187.12,-95.79 221.98,-95.79"/>
<polygon fill="orange" stroke="orange" points="107.12,-92.29 97.12,-95.79 107.12,-99.29 107.12,-92.29"/>
</a>
</g>
<text text-anchor="middle" x="153" y="-98.79" font-family="Helvetica,sans-Serif" font-size="10.00" fill="grey"> &lt; treet &gt;</text>
</g>
<!-- Node23 -->
<g id="Node000023" class="node">
<title>Node23</title>
<g id="a_Node000023"><a xlink:title=" ">
<polygon fill="white" stroke="#666666" points="349,-250.29 209,-250.29 209,-231.29 349,-231.29 349,-250.29"/>
<text text-anchor="middle" x="279" y="-238.29" font-family="Helvetica,sans-Serif" font-size="10.00">std::vector&lt; std::size_t &gt;</text>
</a>
</g>
</g>
<!-- Node16&#45;&gt;Node23 -->
<g id="edge24_Node000023_Node000016" class="edge">
<title>Node16&#45;&gt;Node23</title>
<g id="a_edge24_Node000023_Node000016"><a xlink:title=" ">
<path fill="none" stroke="orange" stroke-dasharray="5,2" d="M73.09,-110.76C120.05,-140.56 224.08,-206.57 262.95,-231.24"/>
<polygon fill="orange" stroke="orange" points="74.81,-107.71 64.49,-105.3 71.06,-113.62 74.81,-107.71"/>
</a>
</g>
<text text-anchor="middle" x="153" y="-188.79" font-family="Helvetica,sans-Serif" font-size="10.00" fill="grey"> &lt; std::size_t &gt;</text>
</g>
<!-- Node18&#45;&gt;Node11 -->
<g id="edge16_Node000011_Node000018" class="edge">
<title>Node18&#45;&gt;Node11</title>
<g id="a_edge16_Node000011_Node000018"><a xlink:title=" ">
<path fill="none" stroke="orange" stroke-dasharray="5,2" d="M912.29,-119.14C965.58,-109.73 1035.45,-97.4 1084.96,-88.65"/>
<polygon fill="orange" stroke="orange" points="911.45,-115.74 902.21,-120.92 912.66,-122.63 911.45,-115.74"/>
</a>
</g>
<text text-anchor="start" x="920" y="-130.79" font-family="Helvetica,sans-Serif" font-size="10.00" fill="grey"> &lt; irept, forward_list</text>
<text text-anchor="middle" x="993.5" y="-119.79" font-family="Helvetica,sans-Serif" font-size="10.00" fill="grey">_as_mapt&lt; irep_idt, irept &gt; &gt;</text>
</g>
<!-- Node19 -->
<g id="Node000019" class="node">
<title>Node19</title>
<g id="a_Node000019"><a xlink:href="classmessaget.html" target="_top" xlink:title="Class that provides messages with a built&#45;in verbosity &#39;level&#39;.">
<polygon fill="white" stroke="#666666" points="2026,-173.29 1961,-173.29 1961,-154.29 2026,-154.29 2026,-173.29"/>
<text text-anchor="middle" x="1993.5" y="-161.29" font-family="Helvetica,sans-Serif" font-size="10.00">messaget</text>
</a>
</g>
</g>
<!-- Node19&#45;&gt;Node1 -->
<g id="edge19_Node000001_Node000019" class="edge">
<title>Node19&#45;&gt;Node1</title>
<g id="a_edge19_Node000001_Node000019"><a xlink:title=" ">
<path fill="none" stroke="#9a32cd" stroke-dasharray="5,2" d="M2036.46,-163.79C2059.46,-163.79 2087.18,-163.79 2106.73,-163.79"/>
<polygon fill="#9a32cd" stroke="#9a32cd" points="2036.27,-160.29 2026.27,-163.79 2036.27,-167.29 2036.27,-160.29"/>
</a>
</g>
<text text-anchor="middle" x="2066.5" y="-166.79" font-family="Helvetica,sans-Serif" font-size="10.00" fill="grey"> log</text>
</g>
<!-- Node24 -->
<g id="Node000024" class="node">
<title>Node24</title>
<g id="a_Node000024"><a xlink:href="classmessaget_1_1mstreamt.html" target="_top" xlink:title=" ">
<polygon fill="white" stroke="#666666" points="1838,-128.29 1719,-128.29 1719,-109.29 1838,-109.29 1838,-128.29"/>
<text text-anchor="middle" x="1778.5" y="-116.29" font-family="Helvetica,sans-Serif" font-size="10.00">messaget::mstreamt</text>
</a>
</g>
</g>
<!-- Node19&#45;&gt;Node24 -->
<g id="edge30_Node000024_Node000019" class="edge">
<title>Node19&#45;&gt;Node24</title>
<g id="a_edge30_Node000024_Node000019"><a xlink:title=" ">
<path fill="none" stroke="#9a32cd" stroke-dasharray="5,2" d="M1979.57,-145.98C1970.65,-135.3 1957.76,-122.68 1943,-116.79 1905.03,-101.64 1858.05,-104.16 1824.2,-109.27"/>
<polygon fill="#9a32cd" stroke="#9a32cd" points="1976.9,-148.26 1985.83,-153.97 1982.41,-143.94 1976.9,-148.26"/>
</a>
</g>
<text text-anchor="middle" x="1900.5" y="-119.79" font-family="Helvetica,sans-Serif" font-size="10.00" fill="grey"> message</text>
</g>
<!-- Node20 -->
<g id="Node000020" class="node">
<title>Node20</title>
<g id="a_Node000020"><a xlink:href="classmessaget_1_1eomt.html" target="_top" xlink:title=" ">
<polygon fill="white" stroke="#666666" points="1826.5,-342.29 1730.5,-342.29 1730.5,-323.29 1826.5,-323.29 1826.5,-342.29"/>
<text text-anchor="middle" x="1778.5" y="-330.29" font-family="Helvetica,sans-Serif" font-size="10.00">messaget::eomt</text>
</a>
</g>
</g>
<!-- Node20&#45;&gt;Node19 -->
<g id="edge20_Node000019_Node000020" class="edge">
<title>Node20&#45;&gt;Node19</title>
<g id="a_edge20_Node000019_Node000020"><a xlink:title=" ">
<path fill="none" stroke="#9a32cd" stroke-dasharray="5,2" d="M1837,-339.24C1871.37,-339.94 1913.87,-334.82 1943,-310.79 1986.2,-275.14 1991.88,-200.38 1992.49,-173.59"/>
<polygon fill="#9a32cd" stroke="#9a32cd" points="1836.75,-335.73 1826.62,-338.86 1836.49,-342.73 1836.75,-335.73"/>
</a>
</g>
<text text-anchor="middle" x="1900.5" y="-340.79" font-family="Helvetica,sans-Serif" font-size="10.00" fill="grey"> eom</text>
</g>
<!-- Node21 -->
<g id="Node000021" class="node">
<title>Node21</title>
<g id="a_Node000021"><a xlink:href="classmessaget_1_1commandt.html" target="_top" xlink:title=" ">
<polygon fill="white" stroke="#666666" points="1840,-173.29 1717,-173.29 1717,-154.29 1840,-154.29 1840,-173.29"/>
<text text-anchor="middle" x="1778.5" y="-161.29" font-family="Helvetica,sans-Serif" font-size="10.00">messaget::commandt</text>
</a>
</g>
</g>
<!-- Node21&#45;&gt;Node19 -->
<g id="edge21_Node000019_Node000021" class="edge">
<title>Node21&#45;&gt;Node19</title>
<g id="a_edge21_Node000019_Node000021"><a xlink:title=" ">
<path fill="none" stroke="#9a32cd" stroke-dasharray="5,2" d="M1850.61,-163.79C1888,-163.79 1931.96,-163.79 1960.93,-163.79"/>
<polygon fill="#9a32cd" stroke="#9a32cd" points="1850.25,-160.29 1840.25,-163.79 1850.25,-167.29 1850.25,-160.29"/>
</a>
</g>
<text text-anchor="middle" x="1900.5" y="-276.79" font-family="Helvetica,sans-Serif" font-size="10.00" fill="grey"> blue</text>
<text text-anchor="middle" x="1900.5" y="-265.79" font-family="Helvetica,sans-Serif" font-size="10.00" fill="grey">bold</text>
<text text-anchor="middle" x="1900.5" y="-254.79" font-family="Helvetica,sans-Serif" font-size="10.00" fill="grey">bright_blue</text>
<text text-anchor="middle" x="1900.5" y="-243.79" font-family="Helvetica,sans-Serif" font-size="10.00" fill="grey">bright_cyan</text>
<text text-anchor="middle" x="1900.5" y="-232.79" font-family="Helvetica,sans-Serif" font-size="10.00" fill="grey">bright_green</text>
<text text-anchor="middle" x="1900.5" y="-221.79" font-family="Helvetica,sans-Serif" font-size="10.00" fill="grey">bright_magenta</text>
<text text-anchor="middle" x="1900.5" y="-210.79" font-family="Helvetica,sans-Serif" font-size="10.00" fill="grey">bright_red</text>
<text text-anchor="middle" x="1900.5" y="-199.79" font-family="Helvetica,sans-Serif" font-size="10.00" fill="grey">bright_yellow</text>
<text text-anchor="middle" x="1900.5" y="-188.79" font-family="Helvetica,sans-Serif" font-size="10.00" fill="grey">cyan</text>
<text text-anchor="middle" x="1900.5" y="-177.79" font-family="Helvetica,sans-Serif" font-size="10.00" fill="grey">faint</text>
<text text-anchor="middle" x="1900.5" y="-166.79" font-family="Helvetica,sans-Serif" font-size="10.00" fill="grey">...</text>
</g>
<!-- Node22 -->
<g id="Node000022" class="node">
<title>Node22</title>
<g id="a_Node000022"><a xlink:href="classmessage__handlert.html" target="_top" xlink:title=" ">
<polygon fill="white" stroke="#666666" points="748,-268.29 641,-268.29 641,-249.29 748,-249.29 748,-268.29"/>
<text text-anchor="middle" x="694.5" y="-256.29" font-family="Helvetica,sans-Serif" font-size="10.00">message_handlert</text>
</a>
</g>
</g>
<!-- Node22&#45;&gt;Node19 -->
<g id="edge22_Node000019_Node000022" class="edge">
<title>Node22&#45;&gt;Node19</title>
<g id="a_edge22_Node000019_Node000022"><a xlink:title=" ">
<path fill="none" stroke="#9a32cd" stroke-dasharray="5,2" d="M753.89,-270.09C813.6,-280.64 909.15,-294.79 992.5,-294.79 992.5,-294.79 992.5,-294.79 1660,-294.79 1722.92,-294.79 1891.38,-321.76 1943,-285.79 1981.26,-259.13 1989.98,-197.49 1991.94,-173.55"/>
<polygon fill="#9a32cd" stroke="#9a32cd" points="754.36,-266.62 743.9,-268.29 753.12,-273.51 754.36,-266.62"/>
</a>
</g>
<text text-anchor="middle" x="1315.5" y="-297.79" font-family="Helvetica,sans-Serif" font-size="10.00" fill="grey"> message_handler</text>
</g>
<!-- Node23&#45;&gt;Node22 -->
<g id="edge23_Node000022_Node000023" class="edge">
<title>Node23&#45;&gt;Node22</title>
<g id="a_edge23_Node000022_Node000023"><a xlink:title=" ">
<path fill="none" stroke="#9a32cd" stroke-dasharray="5,2" d="M359.33,-244.24C442.14,-247.85 569.64,-253.4 640.82,-256.5"/>
<polygon fill="#9a32cd" stroke="#9a32cd" points="359.35,-240.74 349.21,-243.8 359.05,-247.73 359.35,-240.74"/>
</a>
</g>
<text text-anchor="middle" x="407" y="-251.79" font-family="Helvetica,sans-Serif" font-size="10.00" fill="grey"> message_count</text>
</g>
<!-- Node24&#45;&gt;Node19 -->
<g id="edge25_Node000019_Node000024" class="edge">
<title>Node24&#45;&gt;Node19</title>
<g id="a_edge25_Node000019_Node000024"><a xlink:title=" ">
<path fill="none" stroke="#9a32cd" stroke-dasharray="5,2" d="M1848.25,-129.63C1877.61,-134.72 1912.14,-141.31 1943,-148.79 1949.55,-150.38 1956.5,-152.32 1963.07,-154.28"/>
<polygon fill="#9a32cd" stroke="#9a32cd" points="1848.55,-126.13 1838.1,-127.89 1847.37,-133.03 1848.55,-126.13"/>
</a>
</g>
<text text-anchor="middle" x="1900.5" y="-151.79" font-family="Helvetica,sans-Serif" font-size="10.00" fill="grey"> mstream</text>
</g>
<!-- Node25 -->
<g id="Node000025" class="node">
<title>Node25</title>
<g id="a_Node000025"><a xlink:title=" ">
<polygon fill="white" stroke="#666666" points="1601,-344.29 1495,-344.29 1495,-325.29 1601,-325.29 1601,-344.29"/>
<text text-anchor="middle" x="1548" y="-332.29" font-family="Helvetica,sans-Serif" font-size="10.00">std::ostringstream</text>
</a>
</g>
</g>
<!-- Node25&#45;&gt;Node24 -->
<g id="edge26_Node000024_Node000025" class="edge">
<title>Node25&#45;&gt;Node24</title>
<g id="a_edge26_Node000024_Node000025"><a xlink:title=" ">
<path fill="none" stroke="#63b8ff" d="M1561.02,-316.44C1586.04,-279.47 1647.25,-195.25 1717,-144.79 1726.35,-138.02 1737.75,-132.55 1748.11,-128.4"/>
<polygon fill="#63b8ff" stroke="#63b8ff" points="1557.84,-314.9 1555.2,-325.16 1563.66,-318.79 1557.84,-314.9"/>
</a>
</g>
</g>
<!-- Node26 -->
<g id="Node000026" class="node">
<title>Node26</title>
<g id="a_Node000026"><a xlink:title=" ">
<polygon fill="white" stroke="#666666" points="1384,-353.79 1247,-353.79 1247,-323.79 1384,-323.79 1384,-353.79"/>
<text text-anchor="start" x="1255" y="-341.79" font-family="Helvetica,sans-Serif" font-size="10.00">std::basic_ostringstream</text>
<text text-anchor="middle" x="1315.5" y="-330.79" font-family="Helvetica,sans-Serif" font-size="10.00">&lt; Char &gt;</text>
</a>
</g>
</g>
<!-- Node26&#45;&gt;Node25 -->
<g id="edge27_Node000025_Node000026" class="edge">
<title>Node26&#45;&gt;Node25</title>
<g id="a_edge27_Node000025_Node000026"><a xlink:title=" ">
<path fill="none" stroke="#63b8ff" d="M1394.22,-337.44C1427.33,-336.87 1465.1,-336.21 1494.79,-335.69"/>
<polygon fill="#63b8ff" stroke="#63b8ff" points="1394.04,-333.94 1384.1,-337.62 1394.16,-340.94 1394.04,-333.94"/>
</a>
</g>
</g>
<!-- Node27&#45;&gt;Node26 -->
<g id="edge28_Node000026_Node000027" class="edge">
<title>Node27&#45;&gt;Node26</title>
<g id="a_edge28_Node000026_Node000027"><a xlink:title=" ">
<path fill="none" stroke="#63b8ff" d="M1212.57,-338.17C1223.83,-338.24 1235.57,-338.31 1246.92,-338.38"/>
<polygon fill="#63b8ff" stroke="#63b8ff" points="1212.42,-334.67 1202.4,-338.11 1212.37,-341.67 1212.42,-334.67"/>
</a>
</g>
</g>
<!-- Node28&#45;&gt;Node1 -->
<g id="edge33_Node000001_Node000028" class="edge">
<title>Node28&#45;&gt;Node1</title>
<g id="a_edge33_Node000001_Node000028"><a xlink:title=" ">
<path fill="none" stroke="#9a32cd" stroke-dasharray="5,2" d="M1606.63,-73.71C1684.02,-69.58 1825.39,-66.8 1943,-90.79 2008.16,-104.08 2080.14,-137.69 2113.14,-154.26"/>
<polygon fill="#9a32cd" stroke="#9a32cd" points="1606.39,-70.21 1596.6,-74.27 1606.78,-77.2 1606.39,-70.21"/>
</a>
</g>
<text text-anchor="middle" x="1900.5" y="-93.79" font-family="Helvetica,sans-Serif" font-size="10.00" fill="grey"> _source_location</text>
</g>
<!-- Node28&#45;&gt;Node24 -->
<g id="edge31_Node000024_Node000028" class="edge">
<title>Node28&#45;&gt;Node24</title>
<g id="a_edge31_Node000024_Node000028"><a xlink:title=" ">
<path fill="none" stroke="#9a32cd" stroke-dasharray="5,2" d="M1606.54,-88.11C1642.71,-94.6 1689.04,-102.92 1724.35,-109.25"/>
<polygon fill="#9a32cd" stroke="#9a32cd" points="1607.08,-84.66 1596.62,-86.33 1605.85,-91.55 1607.08,-84.66"/>
</a>
</g>
<text text-anchor="middle" x="1659" y="-107.79" font-family="Helvetica,sans-Serif" font-size="10.00" fill="grey"> source_location</text>
</g>
</g>
</svg>
