<?xml version="1.0" encoding="UTF-8" standalone="no"?>
<!DOCTYPE svg PUBLIC "-//W3C//DTD SVG 1.1//EN"
 "http://www.w3.org/Graphics/SVG/1.1/DTD/svg11.dtd">
<!-- Generated by graphviz version 2.43.0 (0)
 -->
<!-- Title: floatbv_round_to_integral_exprt Pages: 1 -->
<svg width="226pt" height="428pt"
 viewBox="0.00 0.00 225.50 428.00" xmlns="http://www.w3.org/2000/svg" xmlns:xlink="http://www.w3.org/1999/xlink">
<g id="graph0" class="graph" transform="scale(1 1) rotate(0) translate(4 424)">
<title>floatbv_round_to_integral_exprt</title>
<!-- Node1 -->
<g id="Node000001" class="node">
<title>Node1</title>
<g id="a_Node000001"><a xlink:title="Round a floating&#45;point number to an integral value considering the given rounding mode.">
<polygon fill="#999999" stroke="#666666" points="141,-30 0,-30 0,0 141,0 141,-30"/>
<text text-anchor="start" x="8" y="-18" font-family="Helvetica,sans-Serif" font-size="10.00">floatbv_round_to_integral</text>
<text text-anchor="middle" x="70.5" y="-7" font-family="Helvetica,sans-Serif" font-size="10.00">_exprt</text>
</a>
</g>
</g>
<!-- Node2 -->
<g id="Node000002" class="node">
<title>Node2</title>
<g id="a_Node000002"><a xlink:href="classbinary__exprt.html" target="_top" xlink:title="A base class for binary expressions.">
<polygon fill="white" stroke="#666666" points="109.5,-86 31.5,-86 31.5,-67 109.5,-67 109.5,-86"/>
<text text-anchor="middle" x="70.5" y="-74" font-family="Helvetica,sans-Serif" font-size="10.00">binary_exprt</text>
</a>
</g>
</g>
<!-- Node2&#45;&gt;Node1 -->
<g id="edge1_Node000001_Node000002" class="edge">
<title>Node2&#45;&gt;Node1</title>
<g id="a_edge1_Node000001_Node000002"><a xlink:title=" ">
<path fill="none" stroke="#63b8ff" d="M70.5,-56.73C70.5,-48.09 70.5,-38 70.5,-30.02"/>
<polygon fill="#63b8ff" stroke="#63b8ff" points="67,-56.98 70.5,-66.98 74,-56.98 67,-56.98"/>
</a>
</g>
</g>
<!-- Node3 -->
<g id="Node000003" class="node">
<title>Node3</title>
<g id="a_Node000003"><a xlink:href="classexpr__protectedt.html" target="_top" xlink:title="Base class for all expressions.">
<polygon fill="white" stroke="#666666" points="117.5,-142 23.5,-142 23.5,-123 117.5,-123 117.5,-142"/>
<text text-anchor="middle" x="70.5" y="-130" font-family="Helvetica,sans-Serif" font-size="10.00">expr_protectedt</text>
</a>
</g>
</g>
<!-- Node3&#45;&gt;Node2 -->
<g id="edge2_Node000002_Node000003" class="edge">
<title>Node3&#45;&gt;Node2</title>
<g id="a_edge2_Node000002_Node000003"><a xlink:title=" ">
<path fill="none" stroke="#63b8ff" d="M70.5,-112.3C70.5,-103.41 70.5,-93.28 70.5,-86.25"/>
<polygon fill="#63b8ff" stroke="#63b8ff" points="67,-112.58 70.5,-122.58 74,-112.58 67,-112.58"/>
</a>
</g>
</g>
<!-- Node4 -->
<g id="Node000004" class="node">
<title>Node4</title>
<g id="a_Node000004"><a xlink:href="classexprt.html" target="_top" xlink:title="Base class for all expressions.">
<polygon fill="white" stroke="#666666" points="91.5,-198 49.5,-198 49.5,-179 91.5,-179 91.5,-198"/>
<text text-anchor="middle" x="70.5" y="-186" font-family="Helvetica,sans-Serif" font-size="10.00">exprt</text>
</a>
</g>
</g>
<!-- Node4&#45;&gt;Node3 -->
<g id="edge3_Node000003_Node000004" class="edge">
<title>Node4&#45;&gt;Node3</title>
<g id="a_edge3_Node000003_Node000004"><a xlink:title=" ">
<path fill="none" stroke="#63b8ff" d="M70.5,-168.3C70.5,-159.41 70.5,-149.28 70.5,-142.25"/>
<polygon fill="#63b8ff" stroke="#63b8ff" points="67,-168.58 70.5,-178.58 74,-168.58 67,-168.58"/>
</a>
</g>
</g>
<!-- Node5 -->
<g id="Node000005" class="node">
<title>Node5</title>
<g id="a_Node000005"><a xlink:href="classirept.html" target="_top" xlink:title="There are a large number of kinds of tree structured or tree&#45;like data in CPROVER.">
<polygon fill="white" stroke="#666666" points="90,-254 51,-254 51,-235 90,-235 90,-254"/>
<text text-anchor="middle" x="70.5" y="-242" font-family="Helvetica,sans-Serif" font-size="10.00">irept</text>
</a>
</g>
</g>
<!-- Node5&#45;&gt;Node4 -->
<g id="edge4_Node000004_Node000005" class="edge">
<title>Node5&#45;&gt;Node4</title>
<g id="a_edge4_Node000004_Node000005"><a xlink:title=" ">
<path fill="none" stroke="#63b8ff" d="M70.5,-224.3C70.5,-215.41 70.5,-205.28 70.5,-198.25"/>
<polygon fill="#63b8ff" stroke="#63b8ff" points="67,-224.58 70.5,-234.58 74,-224.58 67,-224.58"/>
</a>
</g>
</g>
<!-- Node6 -->
<g id="Node000006" class="node">
<title>Node6</title>
<g id="a_Node000006"><a xlink:href="classsharing__treet.html" target="_top" xlink:title=" ">
<polygon fill="white" stroke="#666666" points="133,-332 8,-332 8,-291 133,-291 133,-332"/>
<text text-anchor="start" x="16" y="-320" font-family="Helvetica,sans-Serif" font-size="10.00">sharing_treet&lt; irept,</text>
<text text-anchor="start" x="16" y="-309" font-family="Helvetica,sans-Serif" font-size="10.00"> forward_list_as_mapt</text>
<text text-anchor="middle" x="70.5" y="-298" font-family="Helvetica,sans-Serif" font-size="10.00">&lt; irep_idt, irept &gt; &gt;</text>
</a>
</g>
</g>
<!-- Node6&#45;&gt;Node5 -->
<g id="edge5_Node000005_Node000006" class="edge">
<title>Node6&#45;&gt;Node5</title>
<g id="a_edge5_Node000005_Node000006"><a xlink:title=" ">
<path fill="none" stroke="#63b8ff" d="M70.5,-280.76C70.5,-271.06 70.5,-261.02 70.5,-254.15"/>
<polygon fill="#63b8ff" stroke="#63b8ff" points="67,-281 70.5,-291 74,-281 67,-281"/>
</a>
</g>
</g>
<!-- Node7 -->
<g id="Node000007" class="node">
<title>Node7</title>
<g id="a_Node000007"><a xlink:href="classsharing__treet.html" target="_top" xlink:title="Base class for tree&#45;like data structures with sharing.">
<polygon fill="white" stroke="#666666" points="138.5,-420 2.5,-420 2.5,-390 138.5,-390 138.5,-420"/>
<text text-anchor="start" x="10.5" y="-408" font-family="Helvetica,sans-Serif" font-size="10.00">sharing_treet&lt; derivedt,</text>
<text text-anchor="middle" x="70.5" y="-397" font-family="Helvetica,sans-Serif" font-size="10.00"> named_subtreest &gt;</text>
</a>
</g>
</g>
<!-- Node7&#45;&gt;Node6 -->
<g id="edge6_Node000006_Node000007" class="edge">
<title>Node7&#45;&gt;Node6</title>
<g id="a_edge6_Node000006_Node000007"><a xlink:title=" ">
<path fill="none" stroke="orange" stroke-dasharray="5,2" d="M70.5,-379.69C70.5,-364.82 70.5,-346.05 70.5,-332.13"/>
<polygon fill="orange" stroke="orange" points="67,-379.7 70.5,-389.7 74,-379.7 67,-379.7"/>
</a>
</g>
<text text-anchor="start" x="70.5" y="-364" font-family="Helvetica,sans-Serif" font-size="10.00" fill="grey"> &lt; irept, forward_list</text>
<text text-anchor="middle" x="144" y="-353" font-family="Helvetica,sans-Serif" font-size="10.00" fill="grey">_as_mapt&lt; irep_idt, irept &gt; &gt;</text>
</g>
</g>
</svg>
