<?xml version="1.0" encoding="UTF-8" standalone="no"?>
<!DOCTYPE svg PUBLIC "-//W3C//DTD SVG 1.1//EN"
 "http://www.w3.org/Graphics/SVG/1.1/DTD/svg11.dtd">
<!-- Generated by graphviz version 2.43.0 (0)
 -->
<!-- Title: /home/runner/work/cbmc/cbmc/src/goto&#45;programs/class_identifier.cpp Pages: 1 -->
<svg width="702pt" height="544pt"
 viewBox="0.00 0.00 702.00 544.00" xmlns="http://www.w3.org/2000/svg" xmlns:xlink="http://www.w3.org/1999/xlink">
<g id="graph0" class="graph" transform="scale(1 1) rotate(0) translate(4 540)">
<title>/home/runner/work/cbmc/cbmc/src/goto&#45;programs/class_identifier.cpp</title>
<!-- Node1 -->
<g id="Node000001" class="node">
<title>Node1</title>
<g id="a_Node000001"><a xlink:title="Extract class identifier.">
<polygon fill="#999999" stroke="#666666" points="528.5,-536 390.5,-536 390.5,-495 528.5,-495 528.5,-536"/>
<text text-anchor="start" x="398.5" y="-524" font-family="Helvetica,sans-Serif" font-size="10.00">/home/runner/work/cbmc</text>
<text text-anchor="start" x="398.5" y="-513" font-family="Helvetica,sans-Serif" font-size="10.00">/cbmc/src/goto&#45;programs</text>
<text text-anchor="middle" x="459.5" y="-502" font-family="Helvetica,sans-Serif" font-size="10.00">/class_identifier.cpp</text>
</a>
</g>
</g>
<!-- Node2 -->
<g id="Node000002" class="node">
<title>Node2</title>
<g id="a_Node000002"><a xlink:href="class__identifier_8h.html" target="_top" xlink:title="Extract class identifier.">
<polygon fill="white" stroke="#666666" points="331.5,-459 233.5,-459 233.5,-440 331.5,-440 331.5,-459"/>
<text text-anchor="middle" x="282.5" y="-447" font-family="Helvetica,sans-Serif" font-size="10.00">class_identifier.h</text>
</a>
</g>
</g>
<!-- Node1&#45;&gt;Node2 -->
<g id="edge1_Node000001_Node000002" class="edge">
<title>Node1&#45;&gt;Node2</title>
<g id="a_edge1_Node000001_Node000002"><a xlink:title=" ">
<path fill="none" stroke="#63b8ff" d="M405.43,-494.95C376.17,-484.37 340.97,-471.64 315.74,-462.52"/>
<polygon fill="#63b8ff" stroke="#63b8ff" points="316.86,-459.2 306.26,-459.09 314.48,-465.78 316.86,-459.2"/>
</a>
</g>
</g>
<!-- Node3 -->
<g id="Node000003" class="node">
<title>Node3</title>
<g id="a_Node000003"><a xlink:href="c__types_8h.html" target="_top" xlink:title=" ">
<polygon fill="white" stroke="#666666" points="431.5,-459 349.5,-459 349.5,-440 431.5,-440 431.5,-459"/>
<text text-anchor="middle" x="390.5" y="-447" font-family="Helvetica,sans-Serif" font-size="10.00">util/c_types.h</text>
</a>
</g>
</g>
<!-- Node1&#45;&gt;Node3 -->
<g id="edge2_Node000001_Node000003" class="edge">
<title>Node1&#45;&gt;Node3</title>
<g id="a_edge2_Node000001_Node000003"><a xlink:title=" ">
<path fill="none" stroke="#63b8ff" d="M438.42,-494.95C428.49,-485.74 416.8,-474.9 407.45,-466.23"/>
<polygon fill="#63b8ff" stroke="#63b8ff" points="409.66,-463.49 399.94,-459.26 404.9,-468.63 409.66,-463.49"/>
</a>
</g>
</g>
<!-- Node5 -->
<g id="Node000005" class="node">
<title>Node5</title>
<g id="a_Node000005"><a xlink:href="pointer__expr_8h.html" target="_top" xlink:title="API to expression classes for Pointers.">
<polygon fill="white" stroke="#666666" points="469.5,-404 383.5,-404 383.5,-385 469.5,-385 469.5,-404"/>
<text text-anchor="middle" x="426.5" y="-392" font-family="Helvetica,sans-Serif" font-size="10.00">pointer_expr.h</text>
</a>
</g>
</g>
<!-- Node1&#45;&gt;Node5 -->
<g id="edge43_Node000001_Node000005" class="edge">
<title>Node1&#45;&gt;Node5</title>
<g id="a_edge43_Node000001_Node000005"><a xlink:title=" ">
<path fill="none" stroke="#63b8ff" d="M454.79,-494.81C451.12,-479.75 445.76,-458.49 440.5,-440 438.06,-431.43 435.13,-422.01 432.59,-414.05"/>
<polygon fill="#63b8ff" stroke="#63b8ff" points="435.85,-412.76 429.43,-404.32 429.19,-414.91 435.85,-412.76"/>
</a>
</g>
</g>
<!-- Node45 -->
<g id="Node000045" class="node">
<title>Node45</title>
<g id="a_Node000045"><a xlink:href="std__expr_8h.html" target="_top" xlink:title="API to expression classes.">
<polygon fill="white" stroke="#666666" points="496,-349 429,-349 429,-330 496,-330 496,-349"/>
<text text-anchor="middle" x="462.5" y="-337" font-family="Helvetica,sans-Serif" font-size="10.00">std_expr.h</text>
</a>
</g>
</g>
<!-- Node1&#45;&gt;Node45 -->
<g id="edge44_Node000001_Node000045" class="edge">
<title>Node1&#45;&gt;Node45</title>
<g id="a_edge44_Node000001_Node000045"><a xlink:title=" ">
<path fill="none" stroke="#63b8ff" d="M466.33,-494.7C474.2,-469.25 485.25,-423.73 478.5,-385 476.93,-376 473.7,-366.42 470.56,-358.46"/>
<polygon fill="#63b8ff" stroke="#63b8ff" points="473.73,-356.97 466.61,-349.12 467.28,-359.69 473.73,-356.97"/>
</a>
</g>
</g>
<!-- Node46 -->
<g id="Node000046" class="node">
<title>Node46</title>
<g id="a_Node000046"><a xlink:href="namespace_8h.html" target="_top" xlink:title=" ">
<polygon fill="white" stroke="#666666" points="694,-294 593,-294 593,-275 694,-275 694,-294"/>
<text text-anchor="middle" x="643.5" y="-282" font-family="Helvetica,sans-Serif" font-size="10.00">util/namespace.h</text>
</a>
</g>
</g>
<!-- Node1&#45;&gt;Node46 -->
<g id="edge38_Node000001_Node000046" class="edge">
<title>Node1&#45;&gt;Node46</title>
<g id="a_edge38_Node000001_Node000046"><a xlink:title=" ">
<path fill="none" stroke="#63b8ff" d="M475.19,-494.98C510.65,-450.84 596.5,-344 629.89,-302.44"/>
<polygon fill="#63b8ff" stroke="#63b8ff" points="632.82,-304.38 636.35,-294.39 627.36,-300 632.82,-304.38"/>
</a>
</g>
</g>
<!-- Node4 -->
<g id="Node000004" class="node">
<title>Node4</title>
<g id="a_Node000004"><a xlink:href="deprecate_8h.html" target="_top" xlink:title=" ">
<polygon fill="white" stroke="#666666" points="365.5,-404 291.5,-404 291.5,-385 365.5,-385 365.5,-404"/>
<text text-anchor="middle" x="328.5" y="-392" font-family="Helvetica,sans-Serif" font-size="10.00">deprecate.h</text>
</a>
</g>
</g>
<!-- Node3&#45;&gt;Node4 -->
<g id="edge3_Node000003_Node000004" class="edge">
<title>Node3&#45;&gt;Node4</title>
<g id="a_edge3_Node000003_Node000004"><a xlink:title=" ">
<path fill="none" stroke="#63b8ff" d="M380.54,-439.98C371.37,-432.15 357.56,-420.34 346.47,-410.86"/>
<polygon fill="#63b8ff" stroke="#63b8ff" points="348.52,-408.01 338.64,-404.17 343.97,-413.33 348.52,-408.01"/>
</a>
</g>
</g>
<!-- Node3&#45;&gt;Node5 -->
<g id="edge4_Node000003_Node000005" class="edge">
<title>Node3&#45;&gt;Node5</title>
<g id="a_edge4_Node000003_Node000005"><a xlink:title=" ">
<path fill="none" stroke="#63b8ff" d="M396.44,-439.75C401.48,-432.34 408.84,-421.5 415.01,-412.41"/>
<polygon fill="#63b8ff" stroke="#63b8ff" points="417.94,-414.33 420.67,-404.09 412.15,-410.39 417.94,-414.33"/>
</a>
</g>
</g>
<!-- Node6 -->
<g id="Node000006" class="node">
<title>Node6</title>
<g id="a_Node000006"><a xlink:href="bitvector__types_8h.html" target="_top" xlink:title="Pre&#45;defined bitvector types.">
<polygon fill="white" stroke="#666666" points="411,-349 310,-349 310,-330 411,-330 411,-349"/>
<text text-anchor="middle" x="360.5" y="-337" font-family="Helvetica,sans-Serif" font-size="10.00">bitvector_types.h</text>
</a>
</g>
</g>
<!-- Node5&#45;&gt;Node6 -->
<g id="edge5_Node000005_Node000006" class="edge">
<title>Node5&#45;&gt;Node6</title>
<g id="a_edge5_Node000005_Node000006"><a xlink:title=" ">
<path fill="none" stroke="#63b8ff" d="M415.9,-384.98C406.04,-377.07 391.15,-365.11 379.28,-355.58"/>
<polygon fill="#63b8ff" stroke="#63b8ff" points="381.29,-352.7 371.3,-349.17 376.9,-358.16 381.29,-352.7"/>
</a>
</g>
</g>
<!-- Node5&#45;&gt;Node45 -->
<g id="edge34_Node000005_Node000045" class="edge">
<title>Node5&#45;&gt;Node45</title>
<g id="a_edge34_Node000005_Node000045"><a xlink:title=" ">
<path fill="none" stroke="#63b8ff" d="M432.44,-384.75C437.48,-377.34 444.84,-366.5 451.01,-357.41"/>
<polygon fill="#63b8ff" stroke="#63b8ff" points="453.94,-359.33 456.67,-349.09 448.15,-355.39 453.94,-359.33"/>
</a>
</g>
</g>
<!-- Node7 -->
<g id="Node000007" class="node">
<title>Node7</title>
<g id="a_Node000007"><a xlink:href="std__types_8h.html" target="_top" xlink:title="Pre&#45;defined types.">
<polygon fill="white" stroke="#666666" points="397,-294 324,-294 324,-275 397,-275 397,-294"/>
<text text-anchor="middle" x="360.5" y="-282" font-family="Helvetica,sans-Serif" font-size="10.00">std_types.h</text>
</a>
</g>
</g>
<!-- Node6&#45;&gt;Node7 -->
<g id="edge6_Node000006_Node000007" class="edge">
<title>Node6&#45;&gt;Node7</title>
<g id="a_edge6_Node000006_Node000007"><a xlink:title=" ">
<path fill="none" stroke="#63b8ff" d="M360.5,-329.75C360.5,-322.8 360.5,-312.85 360.5,-304.13"/>
<polygon fill="#63b8ff" stroke="#63b8ff" points="364,-304.09 360.5,-294.09 357,-304.09 364,-304.09"/>
</a>
</g>
</g>
<!-- Node8 -->
<g id="Node000008" class="node">
<title>Node8</title>
<g id="a_Node000008"><a xlink:href="expr_8h.html" target="_top" xlink:title=" ">
<polygon fill="white" stroke="#666666" points="310,-184 263,-184 263,-165 310,-165 310,-184"/>
<text text-anchor="middle" x="286.5" y="-172" font-family="Helvetica,sans-Serif" font-size="10.00">expr.h</text>
</a>
</g>
</g>
<!-- Node7&#45;&gt;Node8 -->
<g id="edge7_Node000007_Node000008" class="edge">
<title>Node7&#45;&gt;Node8</title>
<g id="a_edge7_Node000007_Node000008"><a xlink:title=" ">
<path fill="none" stroke="#63b8ff" d="M344.96,-274.9C332.28,-267.11 314.83,-254.5 304.5,-239 295.56,-225.59 291.01,-207.75 288.73,-194.4"/>
<polygon fill="#63b8ff" stroke="#63b8ff" points="292.18,-193.83 287.29,-184.43 285.25,-194.83 292.18,-193.83"/>
</a>
</g>
</g>
<!-- Node35 -->
<g id="Node000035" class="node">
<title>Node35</title>
<g id="a_Node000035"><a xlink:href="validate_8h.html" target="_top" xlink:title=" ">
<polygon fill="#fff0f0" stroke="red" points="86,-74 21,-74 21,-55 86,-55 86,-74"/>
<text text-anchor="middle" x="53.5" y="-62" font-family="Helvetica,sans-Serif" font-size="10.00">validate.h</text>
</a>
</g>
</g>
<!-- Node7&#45;&gt;Node35 -->
<g id="edge32_Node000007_Node000035" class="edge">
<title>Node7&#45;&gt;Node35</title>
<g id="a_edge32_Node000007_Node000035"><a xlink:title=" ">
<path fill="none" stroke="#63b8ff" d="M323.9,-277.46C286.36,-270.6 226.64,-257.87 177.5,-239 129.42,-220.54 116.81,-214.76 75.5,-184 47.77,-163.36 33.73,-160.94 20.5,-129 13.64,-112.43 25.01,-94.35 36.23,-81.74"/>
<polygon fill="#63b8ff" stroke="#63b8ff" points="38.97,-83.94 43.39,-74.31 33.93,-79.08 38.97,-83.94"/>
</a>
</g>
</g>
<!-- Node41 -->
<g id="Node000041" class="node">
<title>Node41</title>
<g id="a_Node000041"><a xlink:href="expr__cast_8h.html" target="_top" xlink:title="Templated functions to cast to specific exprt&#45;derived classes.">
<polygon fill="white" stroke="#666666" points="498,-239 425,-239 425,-220 498,-220 498,-239"/>
<text text-anchor="middle" x="461.5" y="-227" font-family="Helvetica,sans-Serif" font-size="10.00">expr_cast.h</text>
</a>
</g>
</g>
<!-- Node7&#45;&gt;Node41 -->
<g id="edge19_Node000007_Node000041" class="edge">
<title>Node7&#45;&gt;Node41</title>
<g id="a_edge19_Node000007_Node000041"><a xlink:title=" ">
<path fill="none" stroke="#63b8ff" d="M376.73,-274.98C392.68,-266.61 417.28,-253.7 435.88,-243.95"/>
<polygon fill="#63b8ff" stroke="#63b8ff" points="437.75,-246.92 444.98,-239.17 434.5,-240.72 437.75,-246.92"/>
</a>
</g>
</g>
<!-- Node15 -->
<g id="Node000015" class="node">
<title>Node15</title>
<g id="a_Node000015"><a xlink:href="src_2util_2invariant_8h.html" target="_top" xlink:title=" ">
<polygon fill="#fff0f0" stroke="red" points="634,-184 565,-184 565,-165 634,-165 634,-184"/>
<text text-anchor="middle" x="599.5" y="-172" font-family="Helvetica,sans-Serif" font-size="10.00">invariant.h</text>
</a>
</g>
</g>
<!-- Node7&#45;&gt;Node15 -->
<g id="edge27_Node000007_Node000015" class="edge">
<title>Node7&#45;&gt;Node15</title>
<g id="a_edge27_Node000007_Node000015"><a xlink:title=" ">
<path fill="none" stroke="#63b8ff" d="M397.04,-275.63C427.29,-268.36 470.9,-256.08 506.5,-239 534.37,-225.62 563.29,-204.55 581.33,-190.38"/>
<polygon fill="#63b8ff" stroke="#63b8ff" points="583.63,-193.02 589.26,-184.05 579.27,-187.55 583.63,-193.02"/>
</a>
</g>
</g>
<!-- Node43 -->
<g id="Node000043" class="node">
<title>Node43</title>
<g id="a_Node000043"><a xlink:href="mp__arith_8h.html" target="_top" xlink:title=" ">
<polygon fill="white" stroke="#666666" points="256,-239 187,-239 187,-220 256,-220 256,-239"/>
<text text-anchor="middle" x="221.5" y="-227" font-family="Helvetica,sans-Serif" font-size="10.00">mp_arith.h</text>
</a>
</g>
</g>
<!-- Node7&#45;&gt;Node43 -->
<g id="edge28_Node000007_Node000043" class="edge">
<title>Node7&#45;&gt;Node43</title>
<g id="a_edge28_Node000007_Node000043"><a xlink:title=" ">
<path fill="none" stroke="#63b8ff" d="M338.17,-274.98C315.3,-266.27 279.54,-252.63 253.64,-242.75"/>
<polygon fill="#63b8ff" stroke="#63b8ff" points="254.83,-239.46 244.24,-239.17 252.34,-246 254.83,-239.46"/>
</a>
</g>
</g>
<!-- Node26 -->
<g id="Node000026" class="node">
<title>Node26</title>
<g id="a_Node000026"><a xlink:title=" ">
<polygon fill="#e0e0e0" stroke="#999999" points="407,-239 314,-239 314,-220 407,-220 407,-239"/>
<text text-anchor="middle" x="360.5" y="-227" font-family="Helvetica,sans-Serif" font-size="10.00">unordered_map</text>
</a>
</g>
</g>
<!-- Node7&#45;&gt;Node26 -->
<g id="edge33_Node000007_Node000026" class="edge">
<title>Node7&#45;&gt;Node26</title>
<g id="a_edge33_Node000007_Node000026"><a xlink:title=" ">
<path fill="none" stroke="#63b8ff" d="M360.5,-274.75C360.5,-267.8 360.5,-257.85 360.5,-249.13"/>
<polygon fill="#63b8ff" stroke="#63b8ff" points="364,-249.09 360.5,-239.09 357,-249.09 364,-249.09"/>
</a>
</g>
</g>
<!-- Node9 -->
<g id="Node000009" class="node">
<title>Node9</title>
<g id="a_Node000009"><a xlink:href="as__const_8h.html" target="_top" xlink:title=" ">
<polygon fill="white" stroke="#666666" points="349.5,-129 281.5,-129 281.5,-110 349.5,-110 349.5,-129"/>
<text text-anchor="middle" x="315.5" y="-117" font-family="Helvetica,sans-Serif" font-size="10.00">as_const.h</text>
</a>
</g>
</g>
<!-- Node8&#45;&gt;Node9 -->
<g id="edge8_Node000008_Node000009" class="edge">
<title>Node8&#45;&gt;Node9</title>
<g id="a_edge8_Node000008_Node000009"><a xlink:title=" ">
<path fill="none" stroke="#63b8ff" d="M291.29,-164.75C295.26,-157.49 301.03,-146.95 305.93,-137.98"/>
<polygon fill="#63b8ff" stroke="#63b8ff" points="309.07,-139.54 310.8,-129.09 302.93,-136.18 309.07,-139.54"/>
</a>
</g>
</g>
<!-- Node10 -->
<g id="Node000010" class="node">
<title>Node10</title>
<g id="a_Node000010"><a xlink:href="type_8h.html" target="_top" xlink:title="Defines typet, type_with_subtypet and type_with_subtypest.">
<polygon fill="#fff0f0" stroke="red" points="77,-129 30,-129 30,-110 77,-110 77,-129"/>
<text text-anchor="middle" x="53.5" y="-117" font-family="Helvetica,sans-Serif" font-size="10.00">type.h</text>
</a>
</g>
</g>
<!-- Node8&#45;&gt;Node10 -->
<g id="edge9_Node000008_Node000010" class="edge">
<title>Node8&#45;&gt;Node10</title>
<g id="a_edge9_Node000008_Node000010"><a xlink:title=" ">
<path fill="none" stroke="#63b8ff" d="M262.73,-167.28C259.63,-166.49 256.49,-165.72 253.5,-165 181.78,-147.8 163.49,-145.05 91.5,-129 90.06,-128.68 88.58,-128.35 87.09,-128.02"/>
<polygon fill="#63b8ff" stroke="#63b8ff" points="87.74,-124.57 77.22,-125.81 86.21,-131.41 87.74,-124.57"/>
</a>
</g>
</g>
<!-- Node37 -->
<g id="Node000037" class="node">
<title>Node37</title>
<g id="a_Node000037"><a xlink:href="validation__mode_8h.html" target="_top" xlink:title=" ">
<polygon fill="white" stroke="#666666" points="107,-19 0,-19 0,0 107,0 107,-19"/>
<text text-anchor="middle" x="53.5" y="-7" font-family="Helvetica,sans-Serif" font-size="10.00">validation_mode.h</text>
</a>
</g>
</g>
<!-- Node8&#45;&gt;Node37 -->
<g id="edge17_Node000008_Node000037" class="edge">
<title>Node8&#45;&gt;Node37</title>
<g id="a_edge17_Node000008_Node000037"><a xlink:title=" ">
<path fill="none" stroke="#63b8ff" d="M262.77,-167.09C259.66,-166.34 256.51,-165.62 253.5,-165 202.18,-154.45 57.71,-165.88 20.5,-129 -3.03,-105.68 -0.74,-85.79 11.5,-55 16.02,-43.63 24.97,-33.48 33.46,-25.76"/>
<polygon fill="#63b8ff" stroke="#63b8ff" points="35.91,-28.27 41.29,-19.14 31.39,-22.92 35.91,-28.27"/>
</a>
</g>
</g>
<!-- Node38 -->
<g id="Node000038" class="node">
<title>Node38</title>
<g id="a_Node000038"><a xlink:href="validate__types_8h.html" target="_top" xlink:title=" ">
<polygon fill="white" stroke="#666666" points="240.5,-74 142.5,-74 142.5,-55 240.5,-55 240.5,-74"/>
<text text-anchor="middle" x="191.5" y="-62" font-family="Helvetica,sans-Serif" font-size="10.00">validate_types.h</text>
</a>
</g>
</g>
<!-- Node8&#45;&gt;Node38 -->
<g id="edge16_Node000008_Node000038" class="edge">
<title>Node8&#45;&gt;Node38</title>
<g id="a_edge16_Node000008_Node000038"><a xlink:title=" ">
<path fill="none" stroke="#63b8ff" d="M262.97,-167.43C218.57,-155.92 126.64,-131.81 124.5,-129 109.58,-109.42 136.68,-90.48 160.76,-78.45"/>
<polygon fill="#63b8ff" stroke="#63b8ff" points="162.53,-81.48 170.08,-74.05 159.54,-75.16 162.53,-81.48"/>
</a>
</g>
</g>
<!-- Node39 -->
<g id="Node000039" class="node">
<title>Node39</title>
<g id="a_Node000039"><a xlink:href="validate__expressions_8h.html" target="_top" xlink:title=" ">
<polygon fill="white" stroke="#666666" points="263,-129 134,-129 134,-110 263,-110 263,-129"/>
<text text-anchor="middle" x="198.5" y="-117" font-family="Helvetica,sans-Serif" font-size="10.00">validate_expressions.h</text>
</a>
</g>
</g>
<!-- Node8&#45;&gt;Node39 -->
<g id="edge15_Node000008_Node000039" class="edge">
<title>Node8&#45;&gt;Node39</title>
<g id="a_edge15_Node000008_Node000039"><a xlink:title=" ">
<path fill="none" stroke="#63b8ff" d="M272.36,-164.98C258.71,-156.77 237.81,-144.18 221.72,-134.49"/>
<polygon fill="#63b8ff" stroke="#63b8ff" points="223.27,-131.33 212.9,-129.17 219.66,-137.33 223.27,-131.33"/>
</a>
</g>
</g>
<!-- Node40 -->
<g id="Node000040" class="node">
<title>Node40</title>
<g id="a_Node000040"><a xlink:title=" ">
<polygon fill="#e0e0e0" stroke="#999999" points="433,-129 368,-129 368,-110 433,-110 433,-129"/>
<text text-anchor="middle" x="400.5" y="-117" font-family="Helvetica,sans-Serif" font-size="10.00">functional</text>
</a>
</g>
</g>
<!-- Node8&#45;&gt;Node40 -->
<g id="edge18_Node000008_Node000040" class="edge">
<title>Node8&#45;&gt;Node40</title>
<g id="a_edge18_Node000008_Node000040"><a xlink:title=" ">
<path fill="none" stroke="#63b8ff" d="M304.82,-164.98C323.16,-156.46 351.61,-143.23 372.73,-133.41"/>
<polygon fill="#63b8ff" stroke="#63b8ff" points="374.26,-136.56 381.85,-129.17 371.31,-130.21 374.26,-136.56"/>
</a>
</g>
</g>
<!-- Node10&#45;&gt;Node35 -->
<g id="edge10_Node000010_Node000035" class="edge">
<title>Node10&#45;&gt;Node35</title>
<g id="a_edge10_Node000010_Node000035"><a xlink:title=" ">
<path fill="none" stroke="#63b8ff" d="M53.5,-109.75C53.5,-102.8 53.5,-92.85 53.5,-84.13"/>
<polygon fill="#63b8ff" stroke="#63b8ff" points="57,-84.09 53.5,-74.09 50,-84.09 57,-84.09"/>
</a>
</g>
</g>
<!-- Node10&#45;&gt;Node37 -->
<g id="edge14_Node000010_Node000037" class="edge">
<title>Node10&#45;&gt;Node37</title>
<g id="a_edge14_Node000010_Node000037"><a xlink:title=" ">
<path fill="none" stroke="#63b8ff" d="M65.72,-109.88C80.63,-98.21 102.85,-76.39 94.5,-55 90.1,-43.73 81.36,-33.59 73.07,-25.85"/>
<polygon fill="#63b8ff" stroke="#63b8ff" points="75.27,-23.12 65.43,-19.2 70.68,-28.4 75.27,-23.12"/>
</a>
</g>
</g>
<!-- Node10&#45;&gt;Node38 -->
<g id="edge13_Node000010_Node000038" class="edge">
<title>Node10&#45;&gt;Node38</title>
<g id="a_edge13_Node000010_Node000038"><a xlink:title=" ">
<path fill="none" stroke="#63b8ff" d="M75.67,-109.98C98.27,-101.3 133.56,-87.75 159.25,-77.88"/>
<polygon fill="#63b8ff" stroke="#63b8ff" points="160.84,-81.02 168.92,-74.17 158.33,-74.49 160.84,-81.02"/>
</a>
</g>
</g>
<!-- Node18 -->
<g id="Node000018" class="node">
<title>Node18</title>
<g id="a_Node000018"><a xlink:title=" ">
<polygon fill="#e0e0e0" stroke="#999999" points="496,-19 427,-19 427,0 496,0 496,-19"/>
<text text-anchor="middle" x="461.5" y="-7" font-family="Helvetica,sans-Serif" font-size="10.00">type_traits</text>
</a>
</g>
</g>
<!-- Node35&#45;&gt;Node18 -->
<g id="edge11_Node000035_Node000018" class="edge">
<title>Node35&#45;&gt;Node18</title>
<g id="a_edge11_Node000035_Node000018"><a xlink:title=" ">
<path fill="none" stroke="#63b8ff" d="M86.2,-59.25C158.92,-49.81 334.12,-27.05 416.83,-16.3"/>
<polygon fill="#63b8ff" stroke="#63b8ff" points="417.46,-19.75 426.92,-14.99 416.55,-12.81 417.46,-19.75"/>
</a>
</g>
</g>
<!-- Node35&#45;&gt;Node37 -->
<g id="edge12_Node000035_Node000037" class="edge">
<title>Node35&#45;&gt;Node37</title>
<g id="a_edge12_Node000035_Node000037"><a xlink:title=" ">
<path fill="none" stroke="#63b8ff" d="M53.5,-54.75C53.5,-47.8 53.5,-37.85 53.5,-29.13"/>
<polygon fill="#63b8ff" stroke="#63b8ff" points="57,-29.09 53.5,-19.09 50,-29.09 57,-29.09"/>
</a>
</g>
</g>
<!-- Node41&#45;&gt;Node8 -->
<g id="edge26_Node000041_Node000008" class="edge">
<title>Node41&#45;&gt;Node8</title>
<g id="a_edge26_Node000041_Node000008"><a xlink:title=" ">
<path fill="none" stroke="#63b8ff" d="M433.38,-219.98C402.39,-210.6 352.57,-195.51 319.68,-185.55"/>
<polygon fill="#63b8ff" stroke="#63b8ff" points="320.64,-182.18 310.06,-182.63 318.61,-188.88 320.64,-182.18"/>
</a>
</g>
</g>
<!-- Node41&#45;&gt;Node18 -->
<g id="edge21_Node000041_Node000018" class="edge">
<title>Node41&#45;&gt;Node18</title>
<g id="a_edge21_Node000041_Node000018"><a xlink:title=" ">
<path fill="none" stroke="#63b8ff" d="M461.5,-219.95C461.5,-187.95 461.5,-74.68 461.5,-29.4"/>
<polygon fill="#63b8ff" stroke="#63b8ff" points="465,-29.22 461.5,-19.22 458,-29.22 465,-29.22"/>
</a>
</g>
</g>
<!-- Node41&#45;&gt;Node40 -->
<g id="edge22_Node000041_Node000040" class="edge">
<title>Node41&#45;&gt;Node40</title>
<g id="a_edge22_Node000041_Node000040"><a xlink:title=" ">
<path fill="none" stroke="#63b8ff" d="M456.51,-219.66C446.45,-201.85 423.58,-161.37 410.39,-138.01"/>
<polygon fill="#63b8ff" stroke="#63b8ff" points="413.36,-136.14 405.39,-129.16 407.26,-139.59 413.36,-136.14"/>
</a>
</g>
</g>
<!-- Node42 -->
<g id="Node000042" class="node">
<title>Node42</title>
<g id="a_Node000042"><a xlink:title=" ">
<polygon fill="#e0e0e0" stroke="#999999" points="547,-184 490,-184 490,-165 547,-165 547,-184"/>
<text text-anchor="middle" x="518.5" y="-172" font-family="Helvetica,sans-Serif" font-size="10.00">typeinfo</text>
</a>
</g>
</g>
<!-- Node41&#45;&gt;Node42 -->
<g id="edge20_Node000041_Node000042" class="edge">
<title>Node41&#45;&gt;Node42</title>
<g id="a_edge20_Node000041_Node000042"><a xlink:title=" ">
<path fill="none" stroke="#63b8ff" d="M470.66,-219.98C479,-212.23 491.53,-200.58 501.68,-191.14"/>
<polygon fill="#63b8ff" stroke="#63b8ff" points="504.24,-193.54 509.18,-184.17 499.47,-188.42 504.24,-193.54"/>
</a>
</g>
</g>
<!-- Node41&#45;&gt;Node15 -->
<g id="edge23_Node000041_Node000015" class="edge">
<title>Node41&#45;&gt;Node15</title>
<g id="a_edge23_Node000041_Node000015"><a xlink:title=" ">
<path fill="none" stroke="#63b8ff" d="M483.67,-219.98C506.27,-211.3 541.56,-197.75 567.25,-187.88"/>
<polygon fill="#63b8ff" stroke="#63b8ff" points="568.84,-191.02 576.92,-184.17 566.33,-184.49 568.84,-191.02"/>
</a>
</g>
</g>
<!-- Node15&#45;&gt;Node18 -->
<g id="edge25_Node000015_Node000018" class="edge">
<title>Node15&#45;&gt;Node18</title>
<g id="a_edge25_Node000015_Node000018"><a xlink:title=" ">
<path fill="none" stroke="#63b8ff" d="M598.48,-164.61C596.66,-151.66 591.9,-127.3 580.5,-110 555.72,-72.38 512.51,-41.44 485.54,-24.51"/>
<polygon fill="#63b8ff" stroke="#63b8ff" points="487.09,-21.36 476.74,-19.12 483.44,-27.33 487.09,-21.36"/>
</a>
</g>
</g>
<!-- Node13 -->
<g id="Node000013" class="node">
<title>Node13</title>
<g id="a_Node000013"><a xlink:title=" ">
<polygon fill="#e0e0e0" stroke="#999999" points="571.5,-129 527.5,-129 527.5,-110 571.5,-110 571.5,-129"/>
<text text-anchor="middle" x="549.5" y="-117" font-family="Helvetica,sans-Serif" font-size="10.00">string</text>
</a>
</g>
</g>
<!-- Node15&#45;&gt;Node13 -->
<g id="edge24_Node000015_Node000013" class="edge">
<title>Node15&#45;&gt;Node13</title>
<g id="a_edge24_Node000015_Node000013"><a xlink:title=" ">
<path fill="none" stroke="#63b8ff" d="M591.24,-164.75C584.04,-157.11 573.39,-145.82 564.65,-136.56"/>
<polygon fill="#63b8ff" stroke="#63b8ff" points="567.01,-133.96 557.6,-129.09 561.92,-138.76 567.01,-133.96"/>
</a>
</g>
</g>
<!-- Node43&#45;&gt;Node13 -->
<g id="edge30_Node000043_Node000013" class="edge">
<title>Node43&#45;&gt;Node13</title>
<g id="a_edge30_Node000043_Node000013"><a xlink:title=" ">
<path fill="none" stroke="#63b8ff" d="M247.51,-219.94C307.06,-200.33 453.1,-152.24 517.78,-130.94"/>
<polygon fill="#63b8ff" stroke="#63b8ff" points="519.03,-134.22 527.44,-127.76 516.85,-127.57 519.03,-134.22"/>
</a>
</g>
</g>
<!-- Node21 -->
<g id="Node000021" class="node">
<title>Node21</title>
<g id="a_Node000021"><a xlink:title=" ">
<polygon fill="#e0e0e0" stroke="#999999" points="244.5,-184 196.5,-184 196.5,-165 244.5,-165 244.5,-184"/>
<text text-anchor="middle" x="220.5" y="-172" font-family="Helvetica,sans-Serif" font-size="10.00">iosfwd</text>
</a>
</g>
</g>
<!-- Node43&#45;&gt;Node21 -->
<g id="edge29_Node000043_Node000021" class="edge">
<title>Node43&#45;&gt;Node21</title>
<g id="a_edge29_Node000043_Node000021"><a xlink:title=" ">
<path fill="none" stroke="#63b8ff" d="M221.33,-219.75C221.2,-212.8 221.02,-202.85 220.85,-194.13"/>
<polygon fill="#63b8ff" stroke="#63b8ff" points="224.35,-194.02 220.66,-184.09 217.35,-194.15 224.35,-194.02"/>
</a>
</g>
</g>
<!-- Node44 -->
<g id="Node000044" class="node">
<title>Node44</title>
<g id="a_Node000044"><a xlink:title=" ">
<polygon fill="#e0e0e0" stroke="#999999" points="178.5,-184 84.5,-184 84.5,-165 178.5,-165 178.5,-184"/>
<text text-anchor="middle" x="131.5" y="-172" font-family="Helvetica,sans-Serif" font-size="10.00">big&#45;int/bigint.hh</text>
</a>
</g>
</g>
<!-- Node43&#45;&gt;Node44 -->
<g id="edge31_Node000043_Node000044" class="edge">
<title>Node43&#45;&gt;Node44</title>
<g id="a_edge31_Node000043_Node000044"><a xlink:title=" ">
<path fill="none" stroke="#63b8ff" d="M207.04,-219.98C193.08,-211.77 171.71,-199.18 155.25,-189.49"/>
<polygon fill="#63b8ff" stroke="#63b8ff" points="156.62,-186.23 146.22,-184.17 153.06,-192.26 156.62,-186.23"/>
</a>
</g>
</g>
<!-- Node45&#45;&gt;Node7 -->
<g id="edge37_Node000045_Node000007" class="edge">
<title>Node45&#45;&gt;Node7</title>
<g id="a_edge37_Node000045_Node000007"><a xlink:title=" ">
<path fill="none" stroke="#63b8ff" d="M446.11,-329.98C429.93,-321.57 404.93,-308.59 386.12,-298.81"/>
<polygon fill="#63b8ff" stroke="#63b8ff" points="387.67,-295.68 377.19,-294.17 384.45,-301.89 387.67,-295.68"/>
</a>
</g>
</g>
<!-- Node45&#45;&gt;Node41 -->
<g id="edge35_Node000045_Node000041" class="edge">
<title>Node45&#45;&gt;Node41</title>
<g id="a_edge35_Node000045_Node000041"><a xlink:title=" ">
<path fill="none" stroke="#63b8ff" d="M462.42,-329.66C462.26,-312.17 461.89,-272.8 461.67,-249.27"/>
<polygon fill="#63b8ff" stroke="#63b8ff" points="465.17,-249.13 461.58,-239.16 458.17,-249.19 465.17,-249.13"/>
</a>
</g>
</g>
<!-- Node45&#45;&gt;Node15 -->
<g id="edge36_Node000045_Node000015" class="edge">
<title>Node45&#45;&gt;Node15</title>
<g id="a_edge36_Node000045_Node000015"><a xlink:title=" ">
<path fill="none" stroke="#63b8ff" d="M469.87,-329.74C491.79,-303.65 556.91,-226.17 585.63,-192"/>
<polygon fill="#63b8ff" stroke="#63b8ff" points="588.34,-194.21 592.1,-184.31 582.98,-189.71 588.34,-194.21"/>
</a>
</g>
</g>
<!-- Node46&#45;&gt;Node15 -->
<g id="edge39_Node000046_Node000015" class="edge">
<title>Node46&#45;&gt;Node15</title>
<g id="a_edge39_Node000046_Node000015"><a xlink:title=" ">
<path fill="none" stroke="#63b8ff" d="M638.78,-274.79C634.09,-265.92 626.82,-251.72 621.5,-239 615.3,-224.18 609.41,-206.94 605.28,-194.16"/>
<polygon fill="#63b8ff" stroke="#63b8ff" points="608.5,-192.74 602.15,-184.26 601.83,-194.85 608.5,-192.74"/>
</a>
</g>
</g>
<!-- Node12 -->
<g id="Node000012" class="node">
<title>Node12</title>
<g id="a_Node000012"><a xlink:href="irep_8h.html" target="_top" xlink:title=" ">
<polygon fill="#fff0f0" stroke="red" points="674.5,-239 630.5,-239 630.5,-220 674.5,-220 674.5,-239"/>
<text text-anchor="middle" x="652.5" y="-227" font-family="Helvetica,sans-Serif" font-size="10.00">irep.h</text>
</a>
</g>
</g>
<!-- Node46&#45;&gt;Node12 -->
<g id="edge40_Node000046_Node000012" class="edge">
<title>Node46&#45;&gt;Node12</title>
<g id="a_edge40_Node000046_Node000012"><a xlink:title=" ">
<path fill="none" stroke="#63b8ff" d="M644.99,-274.75C646.17,-267.8 647.86,-257.85 649.34,-249.13"/>
<polygon fill="#63b8ff" stroke="#63b8ff" points="652.82,-249.53 651.04,-239.09 645.92,-248.36 652.82,-249.53"/>
</a>
</g>
</g>
<!-- Node12&#45;&gt;Node15 -->
<g id="edge42_Node000012_Node000015" class="edge">
<title>Node12&#45;&gt;Node15</title>
<g id="a_edge42_Node000012_Node000015"><a xlink:title=" ">
<path fill="none" stroke="#63b8ff" d="M643.75,-219.75C636.03,-212.03 624.6,-200.6 615.28,-191.28"/>
<polygon fill="#63b8ff" stroke="#63b8ff" points="617.64,-188.69 608.09,-184.09 612.69,-193.64 617.64,-188.69"/>
</a>
</g>
</g>
<!-- Node12&#45;&gt;Node13 -->
<g id="edge41_Node000012_Node000013" class="edge">
<title>Node12&#45;&gt;Node13</title>
<g id="a_edge41_Node000012_Node000013"><a xlink:title=" ">
<path fill="none" stroke="#63b8ff" d="M653.69,-219.74C655,-206.53 655.52,-181.32 643.5,-165 628.69,-144.88 602.43,-133.51 581.42,-127.31"/>
<polygon fill="#63b8ff" stroke="#63b8ff" points="582.17,-123.89 571.61,-124.67 580.35,-130.65 582.17,-123.89"/>
</a>
</g>
</g>
</g>
</svg>
