<?xml version="1.0" encoding="UTF-8" standalone="no"?>
<!DOCTYPE svg PUBLIC "-//W3C//DTD SVG 1.1//EN"
 "http://www.w3.org/Graphics/SVG/1.1/DTD/svg11.dtd">
<!-- Generated by graphviz version 2.43.0 (0)
 -->
<!-- Title: /home/runner/work/cbmc/cbmc/src/goto&#45;instrument/accelerate/cone_of_influence.cpp Pages: 1 -->
<svg width="1387pt" height="500pt"
 viewBox="0.00 0.00 1386.97 500.00" xmlns="http://www.w3.org/2000/svg" xmlns:xlink="http://www.w3.org/1999/xlink">
<g id="graph0" class="graph" transform="scale(1 1) rotate(0) translate(4 496)">
<title>/home/runner/work/cbmc/cbmc/src/goto&#45;instrument/accelerate/cone_of_influence.cpp</title>
<!-- Node1 -->
<g id="Node000001" class="node">
<title>Node1</title>
<g id="a_Node000001"><a xlink:title="Loop Acceleration.">
<polygon fill="#999999" stroke="#666666" points="1281.5,-492 1099.5,-492 1099.5,-451 1281.5,-451 1281.5,-492"/>
<text text-anchor="start" x="1107.5" y="-480" font-family="Helvetica,sans-Serif" font-size="10.00">/home/runner/work/cbmc</text>
<text text-anchor="start" x="1107.5" y="-469" font-family="Helvetica,sans-Serif" font-size="10.00">/cbmc/src/goto&#45;instrument</text>
<text text-anchor="middle" x="1190.5" y="-458" font-family="Helvetica,sans-Serif" font-size="10.00">/accelerate/cone_of_influence.cpp</text>
</a>
</g>
</g>
<!-- Node2 -->
<g id="Node000002" class="node">
<title>Node2</title>
<g id="a_Node000002"><a xlink:href="cone__of__influence_8h.html" target="_top" xlink:title="Loop Acceleration.">
<polygon fill="white" stroke="#666666" points="1247,-415 1134,-415 1134,-396 1247,-396 1247,-415"/>
<text text-anchor="middle" x="1190.5" y="-403" font-family="Helvetica,sans-Serif" font-size="10.00">cone_of_influence.h</text>
</a>
</g>
</g>
<!-- Node1&#45;&gt;Node2 -->
<g id="edge1_Node000001_Node000002" class="edge">
<title>Node1&#45;&gt;Node2</title>
<g id="a_edge1_Node000001_Node000002"><a xlink:title=" ">
<path fill="none" stroke="#63b8ff" d="M1190.5,-450.95C1190.5,-442.85 1190.5,-433.5 1190.5,-425.47"/>
<polygon fill="#63b8ff" stroke="#63b8ff" points="1194,-425.26 1190.5,-415.26 1187,-425.26 1194,-425.26"/>
</a>
</g>
</g>
<!-- Node3 -->
<g id="Node000003" class="node">
<title>Node3</title>
<g id="a_Node000003"><a xlink:href="namespace_8h.html" target="_top" xlink:title=" ">
<polygon fill="white" stroke="#666666" points="465,-294 364,-294 364,-275 465,-275 465,-294"/>
<text text-anchor="middle" x="414.5" y="-282" font-family="Helvetica,sans-Serif" font-size="10.00">util/namespace.h</text>
</a>
</g>
</g>
<!-- Node2&#45;&gt;Node3 -->
<g id="edge2_Node000002_Node000003" class="edge">
<title>Node2&#45;&gt;Node3</title>
<g id="a_edge2_Node000002_Node000003"><a xlink:title=" ">
<path fill="none" stroke="#63b8ff" d="M1135,-395.99C993.91,-374.35 622.29,-317.36 475.45,-294.85"/>
<polygon fill="#63b8ff" stroke="#63b8ff" points="475.69,-291.34 465.27,-293.29 474.62,-298.26 475.69,-291.34"/>
</a>
</g>
</g>
<!-- Node27 -->
<g id="Node000027" class="node">
<title>Node27</title>
<g id="a_Node000027"><a xlink:href="goto__program_8h.html" target="_top" xlink:title="Concrete Goto Program.">
<polygon fill="white" stroke="#666666" points="1247,-360 1134,-360 1134,-330 1247,-330 1247,-360"/>
<text text-anchor="start" x="1142" y="-348" font-family="Helvetica,sans-Serif" font-size="10.00">goto&#45;programs/goto</text>
<text text-anchor="middle" x="1190.5" y="-337" font-family="Helvetica,sans-Serif" font-size="10.00">_program.h</text>
</a>
</g>
</g>
<!-- Node2&#45;&gt;Node27 -->
<g id="edge29_Node000002_Node000027" class="edge">
<title>Node2&#45;&gt;Node27</title>
<g id="a_edge29_Node000002_Node000027"><a xlink:title=" ">
<path fill="none" stroke="#63b8ff" d="M1190.5,-395.87C1190.5,-389.11 1190.5,-379.35 1190.5,-370.26"/>
<polygon fill="#63b8ff" stroke="#63b8ff" points="1194,-370.11 1190.5,-360.11 1187,-370.11 1194,-370.11"/>
</a>
</g>
</g>
<!-- Node49 -->
<g id="Node000049" class="node">
<title>Node49</title>
<g id="a_Node000049"><a xlink:title=" ">
<polygon fill="#e0e0e0" stroke="#999999" points="1351.5,-354.5 1265.5,-354.5 1265.5,-335.5 1351.5,-335.5 1351.5,-354.5"/>
<text text-anchor="middle" x="1308.5" y="-342.5" font-family="Helvetica,sans-Serif" font-size="10.00">unordered_set</text>
</a>
</g>
</g>
<!-- Node2&#45;&gt;Node49 -->
<g id="edge67_Node000002_Node000049" class="edge">
<title>Node2&#45;&gt;Node49</title>
<g id="a_edge67_Node000002_Node000049"><a xlink:title=" ">
<path fill="none" stroke="#63b8ff" d="M1207.66,-395.99C1227.23,-386.29 1259.47,-370.31 1282.22,-359.03"/>
<polygon fill="#63b8ff" stroke="#63b8ff" points="1283.92,-362.09 1291.32,-354.52 1280.81,-355.82 1283.92,-362.09"/>
</a>
</g>
</g>
<!-- Node4 -->
<g id="Node000004" class="node">
<title>Node4</title>
<g id="a_Node000004"><a xlink:href="src_2util_2invariant_8h.html" target="_top" xlink:title=" ">
<polygon fill="white" stroke="#666666" points="451,-74 382,-74 382,-55 451,-55 451,-74"/>
<text text-anchor="middle" x="416.5" y="-62" font-family="Helvetica,sans-Serif" font-size="10.00">invariant.h</text>
</a>
</g>
</g>
<!-- Node3&#45;&gt;Node4 -->
<g id="edge3_Node000003_Node000004" class="edge">
<title>Node3&#45;&gt;Node4</title>
<g id="a_edge3_Node000003_Node000004"><a xlink:title=" ">
<path fill="none" stroke="#63b8ff" d="M414.58,-274.95C414.87,-242.95 415.91,-129.68 416.33,-84.4"/>
<polygon fill="#63b8ff" stroke="#63b8ff" points="419.83,-84.26 416.42,-74.22 412.83,-84.19 419.83,-84.26"/>
</a>
</g>
</g>
<!-- Node9 -->
<g id="Node000009" class="node">
<title>Node9</title>
<g id="a_Node000009"><a xlink:href="irep_8h.html" target="_top" xlink:title=" ">
<polygon fill="white" stroke="#666666" points="840.5,-239 796.5,-239 796.5,-220 840.5,-220 840.5,-239"/>
<text text-anchor="middle" x="818.5" y="-227" font-family="Helvetica,sans-Serif" font-size="10.00">irep.h</text>
</a>
</g>
</g>
<!-- Node3&#45;&gt;Node9 -->
<g id="edge8_Node000003_Node000009" class="edge">
<title>Node3&#45;&gt;Node9</title>
<g id="a_edge8_Node000003_Node000009"><a xlink:title=" ">
<path fill="none" stroke="#63b8ff" d="M465.26,-276.84C549.52,-265.79 715.93,-243.96 786.09,-234.75"/>
<polygon fill="#63b8ff" stroke="#63b8ff" points="786.65,-238.21 796.11,-233.44 785.74,-231.27 786.65,-238.21"/>
</a>
</g>
</g>
<!-- Node5 -->
<g id="Node000005" class="node">
<title>Node5</title>
<g id="a_Node000005"><a xlink:title=" ">
<polygon fill="#e0e0e0" stroke="#999999" points="513,-19 464,-19 464,0 513,0 513,-19"/>
<text text-anchor="middle" x="488.5" y="-7" font-family="Helvetica,sans-Serif" font-size="10.00">cstdlib</text>
</a>
</g>
</g>
<!-- Node4&#45;&gt;Node5 -->
<g id="edge4_Node000004_Node000005" class="edge">
<title>Node4&#45;&gt;Node5</title>
<g id="a_edge4_Node000004_Node000005"><a xlink:title=" ">
<path fill="none" stroke="#63b8ff" d="M428.07,-54.98C438.92,-47 455.38,-34.88 468.38,-25.31"/>
<polygon fill="#63b8ff" stroke="#63b8ff" points="470.74,-27.92 476.72,-19.17 466.59,-22.28 470.74,-27.92"/>
</a>
</g>
</g>
<!-- Node6 -->
<g id="Node000006" class="node">
<title>Node6</title>
<g id="a_Node000006"><a xlink:title=" ">
<polygon fill="#e0e0e0" stroke="#999999" points="445.5,-19 389.5,-19 389.5,0 445.5,0 445.5,-19"/>
<text text-anchor="middle" x="417.5" y="-7" font-family="Helvetica,sans-Serif" font-size="10.00">sstream</text>
</a>
</g>
</g>
<!-- Node4&#45;&gt;Node6 -->
<g id="edge5_Node000004_Node000006" class="edge">
<title>Node4&#45;&gt;Node6</title>
<g id="a_edge5_Node000004_Node000006"><a xlink:title=" ">
<path fill="none" stroke="#63b8ff" d="M416.67,-54.75C416.8,-47.8 416.98,-37.85 417.15,-29.13"/>
<polygon fill="#63b8ff" stroke="#63b8ff" points="420.65,-29.15 417.34,-19.09 413.65,-29.02 420.65,-29.15"/>
</a>
</g>
</g>
<!-- Node7 -->
<g id="Node000007" class="node">
<title>Node7</title>
<g id="a_Node000007"><a xlink:title=" ">
<polygon fill="#e0e0e0" stroke="#999999" points="1155.5,-19 1111.5,-19 1111.5,0 1155.5,0 1155.5,-19"/>
<text text-anchor="middle" x="1133.5" y="-7" font-family="Helvetica,sans-Serif" font-size="10.00">string</text>
</a>
</g>
</g>
<!-- Node4&#45;&gt;Node7 -->
<g id="edge6_Node000004_Node000007" class="edge">
<title>Node4&#45;&gt;Node7</title>
<g id="a_edge6_Node000004_Node000007"><a xlink:title=" ">
<path fill="none" stroke="#63b8ff" d="M451.08,-60.94C573.15,-51.92 982.86,-21.64 1101.22,-12.89"/>
<polygon fill="#63b8ff" stroke="#63b8ff" points="1101.73,-16.36 1111.44,-12.13 1101.21,-9.38 1101.73,-16.36"/>
</a>
</g>
</g>
<!-- Node8 -->
<g id="Node000008" class="node">
<title>Node8</title>
<g id="a_Node000008"><a xlink:title=" ">
<polygon fill="#e0e0e0" stroke="#999999" points="166,-19 97,-19 97,0 166,0 166,-19"/>
<text text-anchor="middle" x="131.5" y="-7" font-family="Helvetica,sans-Serif" font-size="10.00">type_traits</text>
</a>
</g>
</g>
<!-- Node4&#45;&gt;Node8 -->
<g id="edge7_Node000004_Node000008" class="edge">
<title>Node4&#45;&gt;Node8</title>
<g id="a_edge7_Node000004_Node000008"><a xlink:title=" ">
<path fill="none" stroke="#63b8ff" d="M381.84,-57.05C330.31,-47.47 233.46,-29.46 176.52,-18.87"/>
<polygon fill="#63b8ff" stroke="#63b8ff" points="176.84,-15.37 166.37,-16.98 175.56,-22.25 176.84,-15.37"/>
</a>
</g>
</g>
<!-- Node9&#45;&gt;Node4 -->
<g id="edge11_Node000009_Node000004" class="edge">
<title>Node9&#45;&gt;Node4</title>
<g id="a_edge11_Node000009_Node000004"><a xlink:title=" ">
<path fill="none" stroke="#63b8ff" d="M796.29,-226.94C754.98,-223.42 664.1,-212.81 593.5,-184 552.18,-167.14 546.59,-153.8 509.5,-129 484.64,-112.38 456.28,-92.95 437.49,-80"/>
<polygon fill="#63b8ff" stroke="#63b8ff" points="439.3,-77 429.08,-74.21 435.33,-82.76 439.3,-77"/>
</a>
</g>
</g>
<!-- Node9&#45;&gt;Node7 -->
<g id="edge9_Node000009_Node000007" class="edge">
<title>Node9&#45;&gt;Node7</title>
<g id="a_edge9_Node000009_Node000007"><a xlink:title=" ">
<path fill="none" stroke="#63b8ff" d="M840.69,-225.13C906.75,-214.56 1099.63,-179.76 1132.5,-129 1152.19,-98.6 1145.27,-53.98 1139.03,-29.06"/>
<polygon fill="#63b8ff" stroke="#63b8ff" points="1142.33,-27.85 1136.31,-19.13 1135.58,-29.7 1142.33,-27.85"/>
</a>
</g>
</g>
<!-- Node10 -->
<g id="Node000010" class="node">
<title>Node10</title>
<g id="a_Node000010"><a xlink:title=" ">
<polygon fill="#e0e0e0" stroke="#999999" points="840,-19 793,-19 793,0 840,0 840,-19"/>
<text text-anchor="middle" x="816.5" y="-7" font-family="Helvetica,sans-Serif" font-size="10.00">vector</text>
</a>
</g>
</g>
<!-- Node9&#45;&gt;Node10 -->
<g id="edge10_Node000009_Node000010" class="edge">
<title>Node9&#45;&gt;Node10</title>
<g id="a_edge10_Node000009_Node000010"><a xlink:title=" ">
<path fill="none" stroke="#63b8ff" d="M817.02,-219.73C812.28,-191.46 797.64,-102.94 795.5,-74 794.88,-65.58 793.65,-63.24 795.5,-55 797.58,-45.74 801.8,-36.14 805.93,-28.23"/>
<polygon fill="#63b8ff" stroke="#63b8ff" points="809.1,-29.72 810.92,-19.28 802.99,-26.31 809.1,-29.72"/>
</a>
</g>
</g>
<!-- Node11 -->
<g id="Node000011" class="node">
<title>Node11</title>
<g id="a_Node000011"><a xlink:href="irep__ids_8h.html" target="_top" xlink:title="util">
<polygon fill="white" stroke="#666666" points="1003.5,-184 939.5,-184 939.5,-165 1003.5,-165 1003.5,-184"/>
<text text-anchor="middle" x="971.5" y="-172" font-family="Helvetica,sans-Serif" font-size="10.00">irep_ids.h</text>
</a>
</g>
</g>
<!-- Node9&#45;&gt;Node11 -->
<g id="edge12_Node000009_Node000011" class="edge">
<title>Node9&#45;&gt;Node11</title>
<g id="a_edge12_Node000009_Node000011"><a xlink:title=" ">
<path fill="none" stroke="#63b8ff" d="M840.75,-220.79C866.14,-212 907.96,-197.51 937.46,-187.29"/>
<polygon fill="#63b8ff" stroke="#63b8ff" points="938.64,-190.59 946.95,-184.01 936.35,-183.97 938.64,-190.59"/>
</a>
</g>
</g>
<!-- Node22 -->
<g id="Node000022" class="node">
<title>Node22</title>
<g id="a_Node000022"><a xlink:href="forward__list__as__map_8h.html" target="_top" xlink:title=" ">
<polygon fill="white" stroke="#666666" points="730,-184 603,-184 603,-165 730,-165 730,-184"/>
<text text-anchor="middle" x="666.5" y="-172" font-family="Helvetica,sans-Serif" font-size="10.00">forward_list_as_map.h</text>
</a>
</g>
</g>
<!-- Node9&#45;&gt;Node22 -->
<g id="edge22_Node000009_Node000022" class="edge">
<title>Node9&#45;&gt;Node22</title>
<g id="a_edge22_Node000009_Node000022"><a xlink:title=" ">
<path fill="none" stroke="#63b8ff" d="M796.4,-220.79C771.28,-212.04 729.99,-197.64 700.7,-187.43"/>
<polygon fill="#63b8ff" stroke="#63b8ff" points="701.49,-183.99 690.89,-184.01 699.18,-190.6 701.49,-183.99"/>
</a>
</g>
</g>
<!-- Node12 -->
<g id="Node000012" class="node">
<title>Node12</title>
<g id="a_Node000012"><a xlink:href="dstring_8h.html" target="_top" xlink:title="Container for C&#45;Strings.">
<polygon fill="white" stroke="#666666" points="1124,-129 1065,-129 1065,-110 1124,-110 1124,-129"/>
<text text-anchor="middle" x="1094.5" y="-117" font-family="Helvetica,sans-Serif" font-size="10.00">dstring.h</text>
</a>
</g>
</g>
<!-- Node11&#45;&gt;Node12 -->
<g id="edge13_Node000011_Node000012" class="edge">
<title>Node11&#45;&gt;Node12</title>
<g id="a_edge13_Node000011_Node000012"><a xlink:title=" ">
<path fill="none" stroke="#63b8ff" d="M991.26,-164.98C1011.23,-156.38 1042.3,-142.99 1065.15,-133.15"/>
<polygon fill="#63b8ff" stroke="#63b8ff" points="1066.58,-136.34 1074.38,-129.17 1063.81,-129.91 1066.58,-136.34"/>
</a>
</g>
</g>
<!-- Node21 -->
<g id="Node000021" class="node">
<title>Node21</title>
<g id="a_Node000021"><a xlink:title=" ">
<polygon fill="#e0e0e0" stroke="#999999" points="1008.5,-129 934.5,-129 934.5,-110 1008.5,-110 1008.5,-129"/>
<text text-anchor="middle" x="971.5" y="-117" font-family="Helvetica,sans-Serif" font-size="10.00">irep_ids.def</text>
</a>
</g>
</g>
<!-- Node11&#45;&gt;Node21 -->
<g id="edge21_Node000011_Node000021" class="edge">
<title>Node11&#45;&gt;Node21</title>
<g id="a_edge21_Node000011_Node000021"><a xlink:title=" ">
<path fill="none" stroke="#63b8ff" d="M971.5,-164.75C971.5,-157.8 971.5,-147.85 971.5,-139.13"/>
<polygon fill="#63b8ff" stroke="#63b8ff" points="975,-139.09 971.5,-129.09 968,-139.09 975,-139.09"/>
</a>
</g>
</g>
<!-- Node12&#45;&gt;Node7 -->
<g id="edge15_Node000012_Node000007" class="edge">
<title>Node12&#45;&gt;Node7</title>
<g id="a_edge15_Node000012_Node000007"><a xlink:title=" ">
<path fill="none" stroke="#63b8ff" d="M1097.69,-109.66C1104.07,-92.01 1118.48,-52.09 1126.95,-28.64"/>
<polygon fill="#63b8ff" stroke="#63b8ff" points="1130.27,-29.75 1130.37,-19.16 1123.68,-27.38 1130.27,-29.75"/>
</a>
</g>
</g>
<!-- Node13 -->
<g id="Node000013" class="node">
<title>Node13</title>
<g id="a_Node000013"><a xlink:title=" ">
<polygon fill="#e0e0e0" stroke="#999999" points="1012.5,-74 964.5,-74 964.5,-55 1012.5,-55 1012.5,-74"/>
<text text-anchor="middle" x="988.5" y="-62" font-family="Helvetica,sans-Serif" font-size="10.00">iosfwd</text>
</a>
</g>
</g>
<!-- Node12&#45;&gt;Node13 -->
<g id="edge14_Node000012_Node000013" class="edge">
<title>Node12&#45;&gt;Node13</title>
<g id="a_edge14_Node000012_Node000013"><a xlink:title=" ">
<path fill="none" stroke="#63b8ff" d="M1077.47,-109.98C1060.57,-101.54 1034.44,-88.47 1014.86,-78.68"/>
<polygon fill="#63b8ff" stroke="#63b8ff" points="1016.35,-75.51 1005.84,-74.17 1013.22,-81.77 1016.35,-75.51"/>
</a>
</g>
</g>
<!-- Node14 -->
<g id="Node000014" class="node">
<title>Node14</title>
<g id="a_Node000014"><a xlink:href="magic_8h.html" target="_top" xlink:title="Magic numbers used throughout the codebase.">
<polygon fill="#fff0f0" stroke="red" points="1086.5,-74 1030.5,-74 1030.5,-55 1086.5,-55 1086.5,-74"/>
<text text-anchor="middle" x="1058.5" y="-62" font-family="Helvetica,sans-Serif" font-size="10.00">magic.h</text>
</a>
</g>
</g>
<!-- Node12&#45;&gt;Node14 -->
<g id="edge16_Node000012_Node000014" class="edge">
<title>Node12&#45;&gt;Node14</title>
<g id="a_edge16_Node000012_Node000014"><a xlink:title=" ">
<path fill="none" stroke="#63b8ff" d="M1088.56,-109.75C1083.52,-102.34 1076.16,-91.5 1069.99,-82.41"/>
<polygon fill="#63b8ff" stroke="#63b8ff" points="1072.85,-80.39 1064.33,-74.09 1067.06,-84.33 1072.85,-80.39"/>
</a>
</g>
</g>
<!-- Node16 -->
<g id="Node000016" class="node">
<title>Node16</title>
<g id="a_Node000016"><a xlink:href="string__container_8h.html" target="_top" xlink:title="Container for C&#45;Strings.">
<polygon fill="#fff0f0" stroke="red" points="908.5,-74 804.5,-74 804.5,-55 908.5,-55 908.5,-74"/>
<text text-anchor="middle" x="856.5" y="-62" font-family="Helvetica,sans-Serif" font-size="10.00">string_container.h</text>
</a>
</g>
</g>
<!-- Node12&#45;&gt;Node16 -->
<g id="edge17_Node000012_Node000016" class="edge">
<title>Node12&#45;&gt;Node16</title>
<g id="a_edge17_Node000012_Node000016"><a xlink:title=" ">
<path fill="none" stroke="#63b8ff" d="M1064.84,-111.89C1024.7,-102.96 952.62,-86.9 904.66,-76.22"/>
<polygon fill="#63b8ff" stroke="#63b8ff" points="905.34,-72.79 894.81,-74.03 903.81,-79.62 905.34,-72.79"/>
</a>
</g>
</g>
<!-- Node16&#45;&gt;Node10 -->
<g id="edge20_Node000016_Node000010" class="edge">
<title>Node16&#45;&gt;Node10</title>
<g id="a_edge20_Node000016_Node000010"><a xlink:title=" ">
<path fill="none" stroke="#63b8ff" d="M849.89,-54.75C844.24,-47.26 835.96,-36.28 829.05,-27.13"/>
<polygon fill="#63b8ff" stroke="#63b8ff" points="831.8,-24.96 822.98,-19.09 826.21,-29.18 831.8,-24.96"/>
</a>
</g>
</g>
<!-- Node17 -->
<g id="Node000017" class="node">
<title>Node17</title>
<g id="a_Node000017"><a xlink:title=" ">
<polygon fill="#e0e0e0" stroke="#999999" points="1309.5,-19 1277.5,-19 1277.5,0 1309.5,0 1309.5,-19"/>
<text text-anchor="middle" x="1293.5" y="-7" font-family="Helvetica,sans-Serif" font-size="10.00">list</text>
</a>
</g>
</g>
<!-- Node16&#45;&gt;Node17 -->
<g id="edge18_Node000016_Node000017" class="edge">
<title>Node16&#45;&gt;Node17</title>
<g id="a_edge18_Node000016_Node000017"><a xlink:title=" ">
<path fill="none" stroke="#63b8ff" d="M908.78,-57.16C1002.54,-45.79 1196.09,-22.31 1266.85,-13.73"/>
<polygon fill="#63b8ff" stroke="#63b8ff" points="1267.61,-17.17 1277.12,-12.49 1266.77,-10.22 1267.61,-17.17"/>
</a>
</g>
</g>
<!-- Node18 -->
<g id="Node000018" class="node">
<title>Node18</title>
<g id="a_Node000018"><a xlink:title=" ">
<polygon fill="#e0e0e0" stroke="#999999" points="371,-19 278,-19 278,0 371,0 371,-19"/>
<text text-anchor="middle" x="324.5" y="-7" font-family="Helvetica,sans-Serif" font-size="10.00">unordered_map</text>
</a>
</g>
</g>
<!-- Node16&#45;&gt;Node18 -->
<g id="edge19_Node000016_Node000018" class="edge">
<title>Node16&#45;&gt;Node18</title>
<g id="a_edge19_Node000016_Node000018"><a xlink:title=" ">
<path fill="none" stroke="#63b8ff" d="M804.27,-59.6C718.35,-52.98 541.59,-38.44 381.27,-19.02"/>
<polygon fill="#63b8ff" stroke="#63b8ff" points="381.57,-15.53 371.22,-17.8 380.73,-22.48 381.57,-15.53"/>
</a>
</g>
</g>
<!-- Node23 -->
<g id="Node000023" class="node">
<title>Node23</title>
<g id="a_Node000023"><a xlink:title=" ">
<polygon fill="#e0e0e0" stroke="#999999" points="698.5,-129 634.5,-129 634.5,-110 698.5,-110 698.5,-129"/>
<text text-anchor="middle" x="666.5" y="-117" font-family="Helvetica,sans-Serif" font-size="10.00">algorithm</text>
</a>
</g>
</g>
<!-- Node22&#45;&gt;Node23 -->
<g id="edge23_Node000022_Node000023" class="edge">
<title>Node22&#45;&gt;Node23</title>
<g id="a_edge23_Node000022_Node000023"><a xlink:title=" ">
<path fill="none" stroke="#63b8ff" d="M666.5,-164.75C666.5,-157.8 666.5,-147.85 666.5,-139.13"/>
<polygon fill="#63b8ff" stroke="#63b8ff" points="670,-139.09 666.5,-129.09 663,-139.09 670,-139.09"/>
</a>
</g>
</g>
<!-- Node24 -->
<g id="Node000024" class="node">
<title>Node24</title>
<g id="a_Node000024"><a xlink:title=" ">
<polygon fill="#e0e0e0" stroke="#999999" points="790.5,-129 716.5,-129 716.5,-110 790.5,-110 790.5,-129"/>
<text text-anchor="middle" x="753.5" y="-117" font-family="Helvetica,sans-Serif" font-size="10.00">forward_list</text>
</a>
</g>
</g>
<!-- Node22&#45;&gt;Node24 -->
<g id="edge24_Node000022_Node000024" class="edge">
<title>Node22&#45;&gt;Node24</title>
<g id="a_edge24_Node000022_Node000024"><a xlink:title=" ">
<path fill="none" stroke="#63b8ff" d="M680.48,-164.98C693.97,-156.77 714.63,-144.18 730.54,-134.49"/>
<polygon fill="#63b8ff" stroke="#63b8ff" points="732.55,-137.36 739.27,-129.17 728.91,-131.38 732.55,-137.36"/>
</a>
</g>
</g>
<!-- Node25 -->
<g id="Node000025" class="node">
<title>Node25</title>
<g id="a_Node000025"><a xlink:href="as__const_8h.html" target="_top" xlink:title=" ">
<polygon fill="white" stroke="#666666" points="259.5,-19 191.5,-19 191.5,0 259.5,0 259.5,-19"/>
<text text-anchor="middle" x="225.5" y="-7" font-family="Helvetica,sans-Serif" font-size="10.00">as_const.h</text>
</a>
</g>
</g>
<!-- Node22&#45;&gt;Node25 -->
<g id="edge25_Node000022_Node000025" class="edge">
<title>Node22&#45;&gt;Node25</title>
<g id="a_edge25_Node000022_Node000025"><a xlink:title=" ">
<path fill="none" stroke="#63b8ff" d="M656.51,-164.78C641.71,-152.06 612.88,-127.97 586.5,-110 546.17,-82.54 537.46,-71.38 491.5,-55 399.89,-22.34 369.23,-35.82 269.61,-19.1"/>
<polygon fill="#63b8ff" stroke="#63b8ff" points="270.2,-15.65 259.75,-17.38 269,-22.54 270.2,-15.65"/>
</a>
</g>
</g>
<!-- Node26 -->
<g id="Node000026" class="node">
<title>Node26</title>
<g id="a_Node000026"><a xlink:href="narrow_8h.html" target="_top" xlink:title=" ">
<polygon fill="white" stroke="#666666" points="578,-129 519,-129 519,-110 578,-110 578,-129"/>
<text text-anchor="middle" x="548.5" y="-117" font-family="Helvetica,sans-Serif" font-size="10.00">narrow.h</text>
</a>
</g>
</g>
<!-- Node22&#45;&gt;Node26 -->
<g id="edge26_Node000022_Node000026" class="edge">
<title>Node22&#45;&gt;Node26</title>
<g id="a_edge26_Node000022_Node000026"><a xlink:title=" ">
<path fill="none" stroke="#63b8ff" d="M647.54,-164.98C628.47,-156.42 598.84,-143.11 576.95,-133.28"/>
<polygon fill="#63b8ff" stroke="#63b8ff" points="578.36,-130.07 567.8,-129.17 575.49,-136.46 578.36,-130.07"/>
</a>
</g>
</g>
<!-- Node26&#45;&gt;Node4 -->
<g id="edge28_Node000026_Node000004" class="edge">
<title>Node26&#45;&gt;Node4</title>
<g id="a_edge28_Node000026_Node000004"><a xlink:title=" ">
<path fill="none" stroke="#63b8ff" d="M527.29,-109.98C505.77,-101.34 472.22,-87.87 447.67,-78.02"/>
<polygon fill="#63b8ff" stroke="#63b8ff" points="448.68,-74.65 438.09,-74.17 446.07,-81.14 448.68,-74.65"/>
</a>
</g>
</g>
<!-- Node26&#45;&gt;Node8 -->
<g id="edge27_Node000026_Node000008" class="edge">
<title>Node26&#45;&gt;Node8</title>
<g id="a_edge27_Node000026_Node000008"><a xlink:title=" ">
<path fill="none" stroke="#63b8ff" d="M539.55,-109.75C524.45,-95.58 492.36,-67.91 459.5,-55 343.96,-9.59 305.3,-37.21 182.5,-19 180.42,-18.69 178.29,-18.37 176.14,-18.04"/>
<polygon fill="#63b8ff" stroke="#63b8ff" points="176.47,-14.54 166.04,-16.43 175.37,-21.46 176.47,-14.54"/>
</a>
</g>
</g>
<!-- Node27&#45;&gt;Node4 -->
<g id="edge30_Node000027_Node000004" class="edge">
<title>Node27&#45;&gt;Node4</title>
<g id="a_edge30_Node000027_Node000004"><a xlink:title=" ">
<path fill="none" stroke="#63b8ff" d="M1133.65,-337.06C1019.41,-321.56 755.71,-277.85 554.5,-184 501.53,-159.29 453.02,-108.37 430.21,-82.06"/>
<polygon fill="#63b8ff" stroke="#63b8ff" points="432.63,-79.5 423.49,-74.15 427.3,-84.03 432.63,-79.5"/>
</a>
</g>
</g>
<!-- Node27&#45;&gt;Node7 -->
<g id="edge66_Node000027_Node000007" class="edge">
<title>Node27&#45;&gt;Node7</title>
<g id="a_edge66_Node000027_Node000007"><a xlink:title=" ">
<path fill="none" stroke="#63b8ff" d="M1198.56,-329.82C1209.71,-308.82 1228.5,-267.9 1228.5,-230.5 1228.5,-230.5 1228.5,-230.5 1228.5,-118.5 1228.5,-75.91 1186.34,-42.14 1158.19,-24.33"/>
<polygon fill="#63b8ff" stroke="#63b8ff" points="1159.98,-21.32 1149.62,-19.12 1156.34,-27.31 1159.98,-21.32"/>
</a>
</g>
</g>
<!-- Node27&#45;&gt;Node13 -->
<g id="edge62_Node000027_Node000013" class="edge">
<title>Node27&#45;&gt;Node13</title>
<g id="a_edge62_Node000027_Node000013"><a xlink:title=" ">
<path fill="none" stroke="#63b8ff" d="M1186.23,-329.96C1181.74,-315.8 1174.13,-293.47 1165.5,-275 1153.52,-249.38 1150.4,-242.68 1133.5,-220 1092.49,-164.96 1034.24,-108.08 1005.66,-81.28"/>
<polygon fill="#63b8ff" stroke="#63b8ff" points="1007.81,-78.5 998.11,-74.25 1003.04,-83.63 1007.81,-78.5"/>
</a>
</g>
</g>
<!-- Node27&#45;&gt;Node17 -->
<g id="edge64_Node000027_Node000017" class="edge">
<title>Node27&#45;&gt;Node17</title>
<g id="a_edge64_Node000027_Node000017"><a xlink:title=" ">
<path fill="none" stroke="#63b8ff" d="M1247.44,-330.01C1293.23,-318.3 1351.27,-302.21 1359.5,-294 1380.36,-273.2 1378.5,-259.96 1378.5,-230.5 1378.5,-230.5 1378.5,-230.5 1378.5,-118.5 1378.5,-77.73 1340.64,-43.28 1315.45,-24.86"/>
<polygon fill="#63b8ff" stroke="#63b8ff" points="1317.35,-21.92 1307.16,-19.04 1313.33,-27.65 1317.35,-21.92"/>
</a>
</g>
</g>
<!-- Node28 -->
<g id="Node000028" class="node">
<title>Node28</title>
<g id="a_Node000028"><a xlink:href="source__location_8h.html" target="_top" xlink:title=" ">
<polygon fill="white" stroke="#666666" points="1157,-294 1036,-294 1036,-275 1157,-275 1157,-294"/>
<text text-anchor="middle" x="1096.5" y="-282" font-family="Helvetica,sans-Serif" font-size="10.00">util/source_location.h</text>
</a>
</g>
</g>
<!-- Node27&#45;&gt;Node28 -->
<g id="edge31_Node000027_Node000028" class="edge">
<title>Node27&#45;&gt;Node28</title>
<g id="a_edge31_Node000027_Node000028"><a xlink:title=" ">
<path fill="none" stroke="#63b8ff" d="M1167.75,-329.84C1152.9,-320.6 1133.6,-308.59 1118.84,-299.4"/>
<polygon fill="#63b8ff" stroke="#63b8ff" points="1120.65,-296.41 1110.31,-294.09 1116.95,-302.35 1120.65,-296.41"/>
</a>
</g>
</g>
<!-- Node31 -->
<g id="Node000031" class="node">
<title>Node31</title>
<g id="a_Node000031"><a xlink:href="goto__instruction__code_8h.html" target="_top" xlink:title=" ">
<polygon fill="white" stroke="#666666" points="346,-294 213,-294 213,-275 346,-275 346,-294"/>
<text text-anchor="middle" x="279.5" y="-282" font-family="Helvetica,sans-Serif" font-size="10.00">goto_instruction_code.h</text>
</a>
</g>
</g>
<!-- Node27&#45;&gt;Node31 -->
<g id="edge36_Node000027_Node000031" class="edge">
<title>Node27&#45;&gt;Node31</title>
<g id="a_edge36_Node000027_Node000031"><a xlink:title=" ">
<path fill="none" stroke="#63b8ff" d="M1133.66,-341.64C999.97,-335.88 654.98,-319.68 356.3,-294.11"/>
<polygon fill="#63b8ff" stroke="#63b8ff" points="356.4,-290.61 346.14,-293.24 355.8,-297.58 356.4,-290.61"/>
</a>
</g>
</g>
<!-- Node47 -->
<g id="Node000047" class="node">
<title>Node47</title>
<g id="a_Node000047"><a xlink:title=" ">
<polygon fill="#e0e0e0" stroke="#999999" points="1300.5,-294 1256.5,-294 1256.5,-275 1300.5,-275 1300.5,-294"/>
<text text-anchor="middle" x="1278.5" y="-282" font-family="Helvetica,sans-Serif" font-size="10.00">limits</text>
</a>
</g>
</g>
<!-- Node27&#45;&gt;Node47 -->
<g id="edge63_Node000027_Node000047" class="edge">
<title>Node27&#45;&gt;Node47</title>
<g id="a_edge63_Node000027_Node000047"><a xlink:title=" ">
<path fill="none" stroke="#63b8ff" d="M1211.8,-329.84C1225.57,-320.68 1243.43,-308.82 1257.2,-299.66"/>
<polygon fill="#63b8ff" stroke="#63b8ff" points="1259.18,-302.55 1265.57,-294.09 1255.31,-296.72 1259.18,-302.55"/>
</a>
</g>
</g>
<!-- Node48 -->
<g id="Node000048" class="node">
<title>Node48</title>
<g id="a_Node000048"><a xlink:title=" ">
<polygon fill="#e0e0e0" stroke="#999999" points="1350.5,-294 1318.5,-294 1318.5,-275 1350.5,-275 1350.5,-294"/>
<text text-anchor="middle" x="1334.5" y="-282" font-family="Helvetica,sans-Serif" font-size="10.00">set</text>
</a>
</g>
</g>
<!-- Node27&#45;&gt;Node48 -->
<g id="edge65_Node000027_Node000048" class="edge">
<title>Node27&#45;&gt;Node48</title>
<g id="a_edge65_Node000027_Node000048"><a xlink:title=" ">
<path fill="none" stroke="#63b8ff" d="M1224.99,-329.99C1250.79,-319.51 1285.51,-305.4 1308.88,-295.91"/>
<polygon fill="#63b8ff" stroke="#63b8ff" points="1310.5,-299.03 1318.45,-292.02 1307.86,-292.54 1310.5,-299.03"/>
</a>
</g>
</g>
<!-- Node28&#45;&gt;Node7 -->
<g id="edge35_Node000028_Node000007" class="edge">
<title>Node28&#45;&gt;Node7</title>
<g id="a_edge35_Node000028_Node000007"><a xlink:title=" ">
<path fill="none" stroke="#63b8ff" d="M1106.05,-274.96C1114.68,-266.67 1127,-253.26 1133.5,-239 1164.31,-171.46 1154.14,-148.04 1159.5,-74 1160.11,-65.58 1161.71,-63.15 1159.5,-55 1156.84,-45.19 1151.43,-35.33 1146.22,-27.39"/>
<polygon fill="#63b8ff" stroke="#63b8ff" points="1149,-25.25 1140.39,-19.07 1143.27,-29.27 1149,-25.25"/>
</a>
</g>
</g>
<!-- Node28&#45;&gt;Node9 -->
<g id="edge33_Node000028_Node000009" class="edge">
<title>Node28&#45;&gt;Node9</title>
<g id="a_edge33_Node000028_Node000009"><a xlink:title=" ">
<path fill="none" stroke="#63b8ff" d="M1051.83,-274.98C995.52,-264.25 900.09,-246.06 850.53,-236.61"/>
<polygon fill="#63b8ff" stroke="#63b8ff" points="851.16,-233.16 840.68,-234.73 849.85,-240.04 851.16,-233.16"/>
</a>
</g>
</g>
<!-- Node29 -->
<g id="Node000029" class="node">
<title>Node29</title>
<g id="a_Node000029"><a xlink:href="deprecate_8h.html" target="_top" xlink:title=" ">
<polygon fill="white" stroke="#666666" points="1050.5,-239 976.5,-239 976.5,-220 1050.5,-220 1050.5,-239"/>
<text text-anchor="middle" x="1013.5" y="-227" font-family="Helvetica,sans-Serif" font-size="10.00">deprecate.h</text>
</a>
</g>
</g>
<!-- Node28&#45;&gt;Node29 -->
<g id="edge32_Node000028_Node000029" class="edge">
<title>Node28&#45;&gt;Node29</title>
<g id="a_edge32_Node000028_Node000029"><a xlink:title=" ">
<path fill="none" stroke="#63b8ff" d="M1083.16,-274.98C1070.41,-266.84 1050.95,-254.41 1035.83,-244.76"/>
<polygon fill="#63b8ff" stroke="#63b8ff" points="1037.39,-241.6 1027.08,-239.17 1033.62,-247.5 1037.39,-241.6"/>
</a>
</g>
</g>
<!-- Node30 -->
<g id="Node000030" class="node">
<title>Node30</title>
<g id="a_Node000030"><a xlink:title=" ">
<polygon fill="#e0e0e0" stroke="#999999" points="1124.5,-239 1068.5,-239 1068.5,-220 1124.5,-220 1124.5,-239"/>
<text text-anchor="middle" x="1096.5" y="-227" font-family="Helvetica,sans-Serif" font-size="10.00">optional</text>
</a>
</g>
</g>
<!-- Node28&#45;&gt;Node30 -->
<g id="edge34_Node000028_Node000030" class="edge">
<title>Node28&#45;&gt;Node30</title>
<g id="a_edge34_Node000028_Node000030"><a xlink:title=" ">
<path fill="none" stroke="#63b8ff" d="M1096.5,-274.75C1096.5,-267.8 1096.5,-257.85 1096.5,-249.13"/>
<polygon fill="#63b8ff" stroke="#63b8ff" points="1100,-249.09 1096.5,-239.09 1093,-249.09 1100,-249.09"/>
</a>
</g>
</g>
<!-- Node32 -->
<g id="Node000032" class="node">
<title>Node32</title>
<g id="a_Node000032"><a xlink:href="std__code__base_8h.html" target="_top" xlink:title=" ">
<polygon fill="white" stroke="#666666" points="218.5,-239 102.5,-239 102.5,-220 218.5,-220 218.5,-239"/>
<text text-anchor="middle" x="160.5" y="-227" font-family="Helvetica,sans-Serif" font-size="10.00">util/std_code_base.h</text>
</a>
</g>
</g>
<!-- Node31&#45;&gt;Node32 -->
<g id="edge37_Node000031_Node000032" class="edge">
<title>Node31&#45;&gt;Node32</title>
<g id="a_edge37_Node000031_Node000032"><a xlink:title=" ">
<path fill="none" stroke="#63b8ff" d="M260.38,-274.98C241.15,-266.42 211.27,-253.11 189.19,-243.28"/>
<polygon fill="#63b8ff" stroke="#63b8ff" points="190.53,-240.04 179.97,-239.17 187.68,-246.44 190.53,-240.04"/>
</a>
</g>
</g>
<!-- Node46 -->
<g id="Node000046" class="node">
<title>Node46</title>
<g id="a_Node000046"><a xlink:href="std__expr_8h.html" target="_top" xlink:title="API to expression classes.">
<polygon fill="white" stroke="#666666" points="322.5,-239 236.5,-239 236.5,-220 322.5,-220 322.5,-239"/>
<text text-anchor="middle" x="279.5" y="-227" font-family="Helvetica,sans-Serif" font-size="10.00">util/std_expr.h</text>
</a>
</g>
</g>
<!-- Node31&#45;&gt;Node46 -->
<g id="edge58_Node000031_Node000046" class="edge">
<title>Node31&#45;&gt;Node46</title>
<g id="a_edge58_Node000031_Node000046"><a xlink:title=" ">
<path fill="none" stroke="#63b8ff" d="M279.5,-274.75C279.5,-267.8 279.5,-257.85 279.5,-249.13"/>
<polygon fill="#63b8ff" stroke="#63b8ff" points="283,-249.09 279.5,-239.09 276,-249.09 283,-249.09"/>
</a>
</g>
</g>
<!-- Node32&#45;&gt;Node4 -->
<g id="edge46_Node000032_Node000004" class="edge">
<title>Node32&#45;&gt;Node4</title>
<g id="a_edge46_Node000032_Node000004"><a xlink:title=" ">
<path fill="none" stroke="#63b8ff" d="M211.97,-219.94C241.56,-213.36 278.48,-202.22 307.5,-184 350.73,-156.87 387.74,-108.16 405.41,-82.46"/>
<polygon fill="#63b8ff" stroke="#63b8ff" points="408.35,-84.36 411.02,-74.11 402.54,-80.45 408.35,-84.36"/>
</a>
</g>
</g>
<!-- Node33 -->
<g id="Node000033" class="node">
<title>Node33</title>
<g id="a_Node000033"><a xlink:href="expr__cast_8h.html" target="_top" xlink:title="Templated functions to cast to specific exprt&#45;derived classes.">
<polygon fill="white" stroke="#666666" points="196,-129 123,-129 123,-110 196,-110 196,-129"/>
<text text-anchor="middle" x="159.5" y="-117" font-family="Helvetica,sans-Serif" font-size="10.00">expr_cast.h</text>
</a>
</g>
</g>
<!-- Node32&#45;&gt;Node33 -->
<g id="edge38_Node000032_Node000033" class="edge">
<title>Node32&#45;&gt;Node33</title>
<g id="a_edge38_Node000032_Node000033"><a xlink:title=" ">
<path fill="none" stroke="#63b8ff" d="M160.42,-219.66C160.26,-202.17 159.89,-162.8 159.67,-139.27"/>
<polygon fill="#63b8ff" stroke="#63b8ff" points="163.17,-139.13 159.58,-129.16 156.17,-139.19 163.17,-139.13"/>
</a>
</g>
</g>
<!-- Node43 -->
<g id="Node000043" class="node">
<title>Node43</title>
<g id="a_Node000043"><a xlink:href="std__types_8h.html" target="_top" xlink:title="Pre&#45;defined types.">
<polygon fill="white" stroke="#666666" points="299,-184 226,-184 226,-165 299,-165 299,-184"/>
<text text-anchor="middle" x="262.5" y="-172" font-family="Helvetica,sans-Serif" font-size="10.00">std_types.h</text>
</a>
</g>
</g>
<!-- Node32&#45;&gt;Node43 -->
<g id="edge47_Node000032_Node000043" class="edge">
<title>Node32&#45;&gt;Node43</title>
<g id="a_edge47_Node000032_Node000043"><a xlink:title=" ">
<path fill="none" stroke="#63b8ff" d="M176.89,-219.98C193.07,-211.57 218.07,-198.59 236.88,-188.81"/>
<polygon fill="#63b8ff" stroke="#63b8ff" points="238.55,-191.89 245.81,-184.17 235.33,-185.68 238.55,-191.89"/>
</a>
</g>
</g>
<!-- Node38 -->
<g id="Node000038" class="node">
<title>Node38</title>
<g id="a_Node000038"><a xlink:href="validate_8h.html" target="_top" xlink:title=" ">
<polygon fill="#fff0f0" stroke="red" points="105,-129 40,-129 40,-110 105,-110 105,-129"/>
<text text-anchor="middle" x="72.5" y="-117" font-family="Helvetica,sans-Serif" font-size="10.00">validate.h</text>
</a>
</g>
</g>
<!-- Node32&#45;&gt;Node38 -->
<g id="edge57_Node000032_Node000038" class="edge">
<title>Node32&#45;&gt;Node38</title>
<g id="a_edge57_Node000032_Node000038"><a xlink:title=" ">
<path fill="none" stroke="#63b8ff" d="M153.3,-219.66C138.59,-201.61 104.91,-160.28 86.01,-137.08"/>
<polygon fill="#63b8ff" stroke="#63b8ff" points="88.59,-134.7 79.55,-129.16 83.16,-139.12 88.59,-134.7"/>
</a>
</g>
</g>
<!-- Node33&#45;&gt;Node4 -->
<g id="edge42_Node000033_Node000004" class="edge">
<title>Node33&#45;&gt;Node4</title>
<g id="a_edge42_Node000033_Node000004"><a xlink:title=" ">
<path fill="none" stroke="#63b8ff" d="M196.05,-110.96C242.33,-101.42 322.04,-84.98 371.87,-74.7"/>
<polygon fill="#63b8ff" stroke="#63b8ff" points="372.64,-78.12 381.72,-72.67 371.22,-71.26 372.64,-78.12"/>
</a>
</g>
</g>
<!-- Node33&#45;&gt;Node8 -->
<g id="edge40_Node000033_Node000008" class="edge">
<title>Node33&#45;&gt;Node8</title>
<g id="a_edge40_Node000033_Node000008"><a xlink:title=" ">
<path fill="none" stroke="#63b8ff" d="M148.51,-109.99C139.05,-101.9 126.07,-88.81 120.5,-74 115.02,-59.44 118.74,-41.96 123.28,-29.03"/>
<polygon fill="#63b8ff" stroke="#63b8ff" points="126.67,-29.99 127.11,-19.4 120.16,-27.4 126.67,-29.99"/>
</a>
</g>
</g>
<!-- Node34 -->
<g id="Node000034" class="node">
<title>Node34</title>
<g id="a_Node000034"><a xlink:title=" ">
<polygon fill="#e0e0e0" stroke="#999999" points="187,-74 130,-74 130,-55 187,-55 187,-74"/>
<text text-anchor="middle" x="158.5" y="-62" font-family="Helvetica,sans-Serif" font-size="10.00">typeinfo</text>
</a>
</g>
</g>
<!-- Node33&#45;&gt;Node34 -->
<g id="edge39_Node000033_Node000034" class="edge">
<title>Node33&#45;&gt;Node34</title>
<g id="a_edge39_Node000033_Node000034"><a xlink:title=" ">
<path fill="none" stroke="#63b8ff" d="M159.33,-109.75C159.2,-102.8 159.02,-92.85 158.85,-84.13"/>
<polygon fill="#63b8ff" stroke="#63b8ff" points="162.35,-84.02 158.66,-74.09 155.35,-84.15 162.35,-84.02"/>
</a>
</g>
</g>
<!-- Node35 -->
<g id="Node000035" class="node">
<title>Node35</title>
<g id="a_Node000035"><a xlink:title=" ">
<polygon fill="#e0e0e0" stroke="#999999" points="65,-19 0,-19 0,0 65,0 65,-19"/>
<text text-anchor="middle" x="32.5" y="-7" font-family="Helvetica,sans-Serif" font-size="10.00">functional</text>
</a>
</g>
</g>
<!-- Node33&#45;&gt;Node35 -->
<g id="edge41_Node000033_Node000035" class="edge">
<title>Node33&#45;&gt;Node35</title>
<g id="a_edge41_Node000033_Node000035"><a xlink:title=" ">
<path fill="none" stroke="#63b8ff" d="M149.11,-109.66C127.51,-91.3 77.55,-48.81 50.57,-25.87"/>
<polygon fill="#63b8ff" stroke="#63b8ff" points="52.57,-22.97 42.68,-19.16 48.03,-28.3 52.57,-22.97"/>
</a>
</g>
</g>
<!-- Node36 -->
<g id="Node000036" class="node">
<title>Node36</title>
<g id="a_Node000036"><a xlink:href="expr_8h.html" target="_top" xlink:title=" ">
<polygon fill="#fff0f0" stroke="red" points="252,-74 205,-74 205,-55 252,-55 252,-74"/>
<text text-anchor="middle" x="228.5" y="-62" font-family="Helvetica,sans-Serif" font-size="10.00">expr.h</text>
</a>
</g>
</g>
<!-- Node33&#45;&gt;Node36 -->
<g id="edge43_Node000033_Node000036" class="edge">
<title>Node33&#45;&gt;Node36</title>
<g id="a_edge43_Node000033_Node000036"><a xlink:title=" ">
<path fill="none" stroke="#63b8ff" d="M170.59,-109.98C180.99,-102 196.76,-89.88 209.22,-80.31"/>
<polygon fill="#63b8ff" stroke="#63b8ff" points="211.41,-83.04 217.21,-74.17 207.15,-77.49 211.41,-83.04"/>
</a>
</g>
</g>
<!-- Node36&#45;&gt;Node25 -->
<g id="edge44_Node000036_Node000025" class="edge">
<title>Node36&#45;&gt;Node25</title>
<g id="a_edge44_Node000036_Node000025"><a xlink:title=" ">
<path fill="none" stroke="#63b8ff" d="M228,-54.75C227.61,-47.8 227.05,-37.85 226.55,-29.13"/>
<polygon fill="#63b8ff" stroke="#63b8ff" points="230.05,-28.88 225.99,-19.09 223.06,-29.27 230.05,-28.88"/>
</a>
</g>
</g>
<!-- Node36&#45;&gt;Node35 -->
<g id="edge45_Node000036_Node000035" class="edge">
<title>Node36&#45;&gt;Node35</title>
<g id="a_edge45_Node000036_Node000035"><a xlink:title=" ">
<path fill="none" stroke="#63b8ff" d="M204.86,-57.11C172.38,-48.33 113.48,-32.4 73.68,-21.63"/>
<polygon fill="#63b8ff" stroke="#63b8ff" points="74.56,-18.25 64,-19.02 72.74,-25.01 74.56,-18.25"/>
</a>
</g>
</g>
<!-- Node43&#45;&gt;Node4 -->
<g id="edge50_Node000043_Node000004" class="edge">
<title>Node43&#45;&gt;Node4</title>
<g id="a_edge50_Node000043_Node000004"><a xlink:title=" ">
<path fill="none" stroke="#63b8ff" d="M269.34,-164.76C280.01,-151.57 301.74,-126.38 324.5,-110 342.81,-96.82 365.63,-85.75 383.96,-77.96"/>
<polygon fill="#63b8ff" stroke="#63b8ff" points="385.45,-81.13 393.35,-74.07 382.77,-74.66 385.45,-81.13"/>
</a>
</g>
</g>
<!-- Node43&#45;&gt;Node18 -->
<g id="edge56_Node000043_Node000018" class="edge">
<title>Node43&#45;&gt;Node18</title>
<g id="a_edge56_Node000043_Node000018"><a xlink:title=" ">
<path fill="none" stroke="#63b8ff" d="M265.83,-164.74C275.59,-139.09 304.23,-63.78 317.55,-28.78"/>
<polygon fill="#63b8ff" stroke="#63b8ff" points="320.87,-29.9 321.15,-19.31 314.32,-27.41 320.87,-29.9"/>
</a>
</g>
</g>
<!-- Node43&#45;&gt;Node33 -->
<g id="edge49_Node000043_Node000033" class="edge">
<title>Node43&#45;&gt;Node33</title>
<g id="a_edge49_Node000043_Node000033"><a xlink:title=" ">
<path fill="none" stroke="#63b8ff" d="M245.95,-164.98C229.61,-156.57 204.37,-143.59 185.37,-133.81"/>
<polygon fill="#63b8ff" stroke="#63b8ff" points="186.84,-130.63 176.35,-129.17 183.64,-136.86 186.84,-130.63"/>
</a>
</g>
</g>
<!-- Node43&#45;&gt;Node36 -->
<g id="edge48_Node000043_Node000036" class="edge">
<title>Node43&#45;&gt;Node36</title>
<g id="a_edge48_Node000043_Node000036"><a xlink:title=" ">
<path fill="none" stroke="#63b8ff" d="M259.72,-164.66C254.19,-147.09 241.71,-107.45 234.31,-83.95"/>
<polygon fill="#63b8ff" stroke="#63b8ff" points="237.57,-82.65 231.23,-74.16 230.89,-84.75 237.57,-82.65"/>
</a>
</g>
</g>
<!-- Node44 -->
<g id="Node000044" class="node">
<title>Node44</title>
<g id="a_Node000044"><a xlink:href="mp__arith_8h.html" target="_top" xlink:title=" ">
<polygon fill="#fff0f0" stroke="red" points="916,-129 847,-129 847,-110 916,-110 916,-129"/>
<text text-anchor="middle" x="881.5" y="-117" font-family="Helvetica,sans-Serif" font-size="10.00">mp_arith.h</text>
</a>
</g>
</g>
<!-- Node43&#45;&gt;Node44 -->
<g id="edge51_Node000043_Node000044" class="edge">
<title>Node43&#45;&gt;Node44</title>
<g id="a_edge51_Node000043_Node000044"><a xlink:title=" ">
<path fill="none" stroke="#63b8ff" d="M299.31,-170.71C386.33,-164.07 611.58,-146.52 799.5,-129 811.51,-127.88 824.51,-126.58 836.53,-125.33"/>
<polygon fill="#63b8ff" stroke="#63b8ff" points="837.22,-128.78 846.8,-124.26 836.49,-121.82 837.22,-128.78"/>
</a>
</g>
</g>
<!-- Node43&#45;&gt;Node38 -->
<g id="edge54_Node000043_Node000038" class="edge">
<title>Node43&#45;&gt;Node38</title>
<g id="a_edge54_Node000043_Node000038"><a xlink:title=" ">
<path fill="none" stroke="#63b8ff" d="M231.97,-164.98C199.8,-156.01 148.94,-141.82 113.33,-131.89"/>
<polygon fill="#63b8ff" stroke="#63b8ff" points="113.84,-128.4 103.27,-129.08 111.96,-135.14 113.84,-128.4"/>
</a>
</g>
</g>
<!-- Node44&#45;&gt;Node7 -->
<g id="edge53_Node000044_Node000007" class="edge">
<title>Node44&#45;&gt;Node7</title>
<g id="a_edge53_Node000044_Node000007"><a xlink:title=" ">
<path fill="none" stroke="#63b8ff" d="M889.2,-109.65C901.71,-95.85 927.83,-69.3 955.5,-55 1002.76,-30.57 1064.12,-19.08 1101.06,-14.04"/>
<polygon fill="#63b8ff" stroke="#63b8ff" points="1101.78,-17.47 1111.25,-12.73 1100.89,-10.53 1101.78,-17.47"/>
</a>
</g>
</g>
<!-- Node44&#45;&gt;Node13 -->
<g id="edge52_Node000044_Node000013" class="edge">
<title>Node44&#45;&gt;Node13</title>
<g id="a_edge52_Node000044_Node000013"><a xlink:title=" ">
<path fill="none" stroke="#63b8ff" d="M898.69,-109.98C915.75,-101.54 942.13,-88.47 961.9,-78.68"/>
<polygon fill="#63b8ff" stroke="#63b8ff" points="963.59,-81.75 971,-74.17 960.48,-75.47 963.59,-81.75"/>
</a>
</g>
</g>
<!-- Node38&#45;&gt;Node8 -->
<g id="edge55_Node000038_Node000008" class="edge">
<title>Node38&#45;&gt;Node8</title>
<g id="a_edge55_Node000038_Node000008"><a xlink:title=" ">
<path fill="none" stroke="#63b8ff" d="M77.33,-109.66C87.06,-91.85 109.18,-51.37 121.94,-28.01"/>
<polygon fill="#63b8ff" stroke="#63b8ff" points="125.05,-29.61 126.77,-19.16 118.9,-26.26 125.05,-29.61"/>
</a>
</g>
</g>
<!-- Node46&#45;&gt;Node4 -->
<g id="edge60_Node000046_Node000004" class="edge">
<title>Node46&#45;&gt;Node4</title>
<g id="a_edge60_Node000046_Node000004"><a xlink:title=" ">
<path fill="none" stroke="#63b8ff" d="M299.44,-219.93C315.34,-212.32 337.38,-199.93 352.5,-184 380.96,-154.01 400.64,-108.91 410.09,-83.88"/>
<polygon fill="#63b8ff" stroke="#63b8ff" points="413.48,-84.8 413.61,-74.21 406.9,-82.41 413.48,-84.8"/>
</a>
</g>
</g>
<!-- Node46&#45;&gt;Node33 -->
<g id="edge59_Node000046_Node000033" class="edge">
<title>Node46&#45;&gt;Node33</title>
<g id="a_edge59_Node000046_Node000033"><a xlink:title=" ">
<path fill="none" stroke="#63b8ff" d="M265.57,-219.95C252.34,-211.55 232.21,-197.98 216.5,-184 200.16,-169.46 183.71,-150.57 172.71,-137.18"/>
<polygon fill="#63b8ff" stroke="#63b8ff" points="175.33,-134.86 166.32,-129.28 169.88,-139.26 175.33,-134.86"/>
</a>
</g>
</g>
<!-- Node46&#45;&gt;Node43 -->
<g id="edge61_Node000046_Node000043" class="edge">
<title>Node46&#45;&gt;Node43</title>
<g id="a_edge61_Node000046_Node000043"><a xlink:title=" ">
<path fill="none" stroke="#63b8ff" d="M276.69,-219.75C274.44,-212.72 271.2,-202.62 268.38,-193.84"/>
<polygon fill="#63b8ff" stroke="#63b8ff" points="271.64,-192.54 265.25,-184.09 264.98,-194.68 271.64,-192.54"/>
</a>
</g>
</g>
</g>
</svg>
