<?xml version="1.0" encoding="UTF-8" standalone="no"?>
<!DOCTYPE svg PUBLIC "-//W3C//DTD SVG 1.1//EN"
 "http://www.w3.org/Graphics/SVG/1.1/DTD/svg11.dtd">
<!-- Generated by graphviz version 2.43.0 (0)
 -->
<!-- Title: /home/runner/work/cbmc/cbmc/src/goto&#45;instrument/cover_instrument_other.cpp Pages: 1 -->
<svg width="1366pt" height="500pt"
 viewBox="0.00 0.00 1365.50 500.00" xmlns="http://www.w3.org/2000/svg" xmlns:xlink="http://www.w3.org/1999/xlink">
<g id="graph0" class="graph" transform="scale(1 1) rotate(0) translate(4 496)">
<title>/home/runner/work/cbmc/cbmc/src/goto&#45;instrument/cover_instrument_other.cpp</title>
<!-- Node1 -->
<g id="Node000001" class="node">
<title>Node1</title>
<g id="a_Node000001"><a xlink:title="Further coverage instrumentations.">
<polygon fill="#999999" stroke="#666666" points="921.5,-492 766.5,-492 766.5,-451 921.5,-451 921.5,-492"/>
<text text-anchor="start" x="774.5" y="-480" font-family="Helvetica,sans-Serif" font-size="10.00">/home/runner/work/cbmc</text>
<text text-anchor="start" x="774.5" y="-469" font-family="Helvetica,sans-Serif" font-size="10.00">/cbmc/src/goto&#45;instrument</text>
<text text-anchor="middle" x="844" y="-458" font-family="Helvetica,sans-Serif" font-size="10.00">/cover_instrument_other.cpp</text>
</a>
</g>
</g>
<!-- Node2 -->
<g id="Node000002" class="node">
<title>Node2</title>
<g id="a_Node000002"><a xlink:href="cover__instrument_8h.html" target="_top" xlink:title="Coverage Instrumentation.">
<polygon fill="white" stroke="#666666" points="857.5,-415 746.5,-415 746.5,-396 857.5,-396 857.5,-415"/>
<text text-anchor="middle" x="802" y="-403" font-family="Helvetica,sans-Serif" font-size="10.00">cover_instrument.h</text>
</a>
</g>
</g>
<!-- Node1&#45;&gt;Node2 -->
<g id="edge1_Node000001_Node000002" class="edge">
<title>Node1&#45;&gt;Node2</title>
<g id="a_edge1_Node000001_Node000002"><a xlink:title=" ">
<path fill="none" stroke="#63b8ff" d="M831.17,-450.95C825.49,-442.3 818.87,-432.2 813.37,-423.82"/>
<polygon fill="#63b8ff" stroke="#63b8ff" points="816.16,-421.7 807.75,-415.26 810.31,-425.54 816.16,-421.7"/>
</a>
</g>
</g>
<!-- Node23 -->
<g id="Node000023" class="node">
<title>Node23</title>
<g id="a_Node000023"><a xlink:title=" ">
<polygon fill="#e0e0e0" stroke="#999999" points="955,-129 891,-129 891,-110 955,-110 955,-129"/>
<text text-anchor="middle" x="923" y="-117" font-family="Helvetica,sans-Serif" font-size="10.00">algorithm</text>
</a>
</g>
</g>
<!-- Node1&#45;&gt;Node23 -->
<g id="edge71_Node000001_Node000023" class="edge">
<title>Node1&#45;&gt;Node23</title>
<g id="a_edge71_Node000001_Node000023"><a xlink:title=" ">
<path fill="none" stroke="#63b8ff" d="M874.58,-450.91C904.3,-429.2 945,-391.23 945,-346 945,-346 945,-346 945,-228.5 945,-196.4 935.55,-159.99 929.04,-138.71"/>
<polygon fill="#63b8ff" stroke="#63b8ff" points="932.34,-137.53 925.97,-129.06 925.67,-139.65 932.34,-137.53"/>
</a>
</g>
</g>
<!-- Node50 -->
<g id="Node000050" class="node">
<title>Node50</title>
<g id="a_Node000050"><a xlink:href="cprover__prefix_8h.html" target="_top" xlink:title=" ">
<polygon fill="white" stroke="#666666" points="1087,-415 973,-415 973,-396 1087,-396 1087,-415"/>
<text text-anchor="middle" x="1030" y="-403" font-family="Helvetica,sans-Serif" font-size="10.00">util/cprover_prefix.h</text>
</a>
</g>
</g>
<!-- Node1&#45;&gt;Node50 -->
<g id="edge68_Node000001_Node000050" class="edge">
<title>Node1&#45;&gt;Node50</title>
<g id="a_edge68_Node000001_Node000050"><a xlink:title=" ">
<path fill="none" stroke="#63b8ff" d="M900.82,-450.95C931.7,-440.32 968.89,-427.53 995.42,-418.4"/>
<polygon fill="#63b8ff" stroke="#63b8ff" points="996.71,-421.66 1005.03,-415.09 994.44,-415.04 996.71,-421.66"/>
</a>
</g>
</g>
<!-- Node51 -->
<g id="Node000051" class="node">
<title>Node51</title>
<g id="a_Node000051"><a xlink:href="language__util_8h.html" target="_top" xlink:title=" ">
<polygon fill="white" stroke="#666666" points="586.5,-354.5 455.5,-354.5 455.5,-335.5 586.5,-335.5 586.5,-354.5"/>
<text text-anchor="middle" x="521" y="-342.5" font-family="Helvetica,sans-Serif" font-size="10.00">langapi/language_util.h</text>
</a>
</g>
</g>
<!-- Node1&#45;&gt;Node51 -->
<g id="edge69_Node000001_Node000051" class="edge">
<title>Node1&#45;&gt;Node51</title>
<g id="a_edge69_Node000001_Node000051"><a xlink:title=" ">
<path fill="none" stroke="#63b8ff" d="M793.18,-450.91C725.8,-424.94 608.91,-379.89 552.82,-358.27"/>
<polygon fill="#63b8ff" stroke="#63b8ff" points="553.99,-354.97 543.4,-354.63 551.47,-361.5 553.99,-354.97"/>
</a>
</g>
</g>
<!-- Node3 -->
<g id="Node000003" class="node">
<title>Node3</title>
<g id="a_Node000003"><a xlink:href="namespace_8h.html" target="_top" xlink:title=" ">
<polygon fill="white" stroke="#666666" points="916.5,-294 815.5,-294 815.5,-275 916.5,-275 916.5,-294"/>
<text text-anchor="middle" x="866" y="-282" font-family="Helvetica,sans-Serif" font-size="10.00">util/namespace.h</text>
</a>
</g>
</g>
<!-- Node2&#45;&gt;Node3 -->
<g id="edge2_Node000002_Node000003" class="edge">
<title>Node2&#45;&gt;Node3</title>
<g id="a_edge2_Node000002_Node000003"><a xlink:title=" ">
<path fill="none" stroke="#63b8ff" d="M806.6,-395.94C816.98,-376.65 842.37,-329.44 856.36,-303.43"/>
<polygon fill="#63b8ff" stroke="#63b8ff" points="859.61,-304.77 861.27,-294.3 853.45,-301.45 859.61,-304.77"/>
</a>
</g>
</g>
<!-- Node27 -->
<g id="Node000027" class="node">
<title>Node27</title>
<g id="a_Node000027"><a xlink:href="goto__program_8h.html" target="_top" xlink:title="Concrete Goto Program.">
<polygon fill="white" stroke="#666666" points="797.5,-360 684.5,-360 684.5,-330 797.5,-330 797.5,-360"/>
<text text-anchor="start" x="692.5" y="-348" font-family="Helvetica,sans-Serif" font-size="10.00">goto&#45;programs/goto</text>
<text text-anchor="middle" x="741" y="-337" font-family="Helvetica,sans-Serif" font-size="10.00">_program.h</text>
</a>
</g>
</g>
<!-- Node2&#45;&gt;Node27 -->
<g id="edge29_Node000002_Node000027" class="edge">
<title>Node2&#45;&gt;Node27</title>
<g id="a_edge29_Node000002_Node000027"><a xlink:title=" ">
<path fill="none" stroke="#63b8ff" d="M793,-395.87C785.11,-388.3 773.3,-376.98 762.94,-367.04"/>
<polygon fill="#63b8ff" stroke="#63b8ff" points="765.36,-364.51 755.72,-360.11 760.51,-369.56 765.36,-364.51"/>
</a>
</g>
</g>
<!-- Node49 -->
<g id="Node000049" class="node">
<title>Node49</title>
<g id="a_Node000049"><a xlink:title=" ">
<polygon fill="#e0e0e0" stroke="#999999" points="666,-354.5 608,-354.5 608,-335.5 666,-335.5 666,-354.5"/>
<text text-anchor="middle" x="637" y="-342.5" font-family="Helvetica,sans-Serif" font-size="10.00">memory</text>
</a>
</g>
</g>
<!-- Node2&#45;&gt;Node49 -->
<g id="edge67_Node000002_Node000049" class="edge">
<title>Node2&#45;&gt;Node49</title>
<g id="a_edge67_Node000002_Node000049"><a xlink:title=" ">
<path fill="none" stroke="#63b8ff" d="M777.14,-395.92C751.5,-387.04 710.4,-372.72 675,-360 673.36,-359.41 671.69,-358.81 669.99,-358.19"/>
<polygon fill="#63b8ff" stroke="#63b8ff" points="670.88,-354.79 660.29,-354.65 668.48,-361.37 670.88,-354.79"/>
</a>
</g>
</g>
<!-- Node4 -->
<g id="Node000004" class="node">
<title>Node4</title>
<g id="a_Node000004"><a xlink:href="src_2util_2invariant_8h.html" target="_top" xlink:title=" ">
<polygon fill="white" stroke="#666666" points="1067.5,-74 998.5,-74 998.5,-55 1067.5,-55 1067.5,-74"/>
<text text-anchor="middle" x="1033" y="-62" font-family="Helvetica,sans-Serif" font-size="10.00">invariant.h</text>
</a>
</g>
</g>
<!-- Node3&#45;&gt;Node4 -->
<g id="edge3_Node000003_Node000004" class="edge">
<title>Node3&#45;&gt;Node4</title>
<g id="a_edge3_Node000003_Node000004"><a xlink:title=" ">
<path fill="none" stroke="#63b8ff" d="M883.67,-274.79C911.84,-260.02 966.82,-227.36 997,-184 1018.53,-153.07 1027.45,-108.96 1030.94,-84.2"/>
<polygon fill="#63b8ff" stroke="#63b8ff" points="1034.44,-84.39 1032.22,-74.03 1027.5,-83.51 1034.44,-84.39"/>
</a>
</g>
</g>
<!-- Node9 -->
<g id="Node000009" class="node">
<title>Node9</title>
<g id="a_Node000009"><a xlink:href="irep_8h.html" target="_top" xlink:title=" ">
<polygon fill="white" stroke="#666666" points="526,-239 482,-239 482,-220 526,-220 526,-239"/>
<text text-anchor="middle" x="504" y="-227" font-family="Helvetica,sans-Serif" font-size="10.00">irep.h</text>
</a>
</g>
</g>
<!-- Node3&#45;&gt;Node9 -->
<g id="edge8_Node000003_Node000009" class="edge">
<title>Node3&#45;&gt;Node9</title>
<g id="a_edge8_Node000003_Node000009"><a xlink:title=" ">
<path fill="none" stroke="#63b8ff" d="M815.28,-276.07C739.68,-265.01 599.57,-244.49 536.39,-235.24"/>
<polygon fill="#63b8ff" stroke="#63b8ff" points="536.63,-231.74 526.22,-233.75 535.61,-238.67 536.63,-231.74"/>
</a>
</g>
</g>
<!-- Node5 -->
<g id="Node000005" class="node">
<title>Node5</title>
<g id="a_Node000005"><a xlink:title=" ">
<polygon fill="#e0e0e0" stroke="#999999" points="1068.5,-19 1019.5,-19 1019.5,0 1068.5,0 1068.5,-19"/>
<text text-anchor="middle" x="1044" y="-7" font-family="Helvetica,sans-Serif" font-size="10.00">cstdlib</text>
</a>
</g>
</g>
<!-- Node4&#45;&gt;Node5 -->
<g id="edge4_Node000004_Node000005" class="edge">
<title>Node4&#45;&gt;Node5</title>
<g id="a_edge4_Node000004_Node000005"><a xlink:title=" ">
<path fill="none" stroke="#63b8ff" d="M1034.82,-54.75C1036.26,-47.8 1038.32,-37.85 1040.13,-29.13"/>
<polygon fill="#63b8ff" stroke="#63b8ff" points="1043.61,-29.59 1042.22,-19.09 1036.76,-28.17 1043.61,-29.59"/>
</a>
</g>
</g>
<!-- Node6 -->
<g id="Node000006" class="node">
<title>Node6</title>
<g id="a_Node000006"><a xlink:title=" ">
<polygon fill="#e0e0e0" stroke="#999999" points="1001,-19 945,-19 945,0 1001,0 1001,-19"/>
<text text-anchor="middle" x="973" y="-7" font-family="Helvetica,sans-Serif" font-size="10.00">sstream</text>
</a>
</g>
</g>
<!-- Node4&#45;&gt;Node6 -->
<g id="edge5_Node000004_Node000006" class="edge">
<title>Node4&#45;&gt;Node6</title>
<g id="a_edge5_Node000004_Node000006"><a xlink:title=" ">
<path fill="none" stroke="#63b8ff" d="M1023.36,-54.98C1014.49,-47.15 1001.13,-35.34 990.39,-25.86"/>
<polygon fill="#63b8ff" stroke="#63b8ff" points="992.63,-23.17 982.82,-19.17 987.99,-28.41 992.63,-23.17"/>
</a>
</g>
</g>
<!-- Node7 -->
<g id="Node000007" class="node">
<title>Node7</title>
<g id="a_Node000007"><a xlink:title=" ">
<polygon fill="#e0e0e0" stroke="#999999" points="494,-19 450,-19 450,0 494,0 494,-19"/>
<text text-anchor="middle" x="472" y="-7" font-family="Helvetica,sans-Serif" font-size="10.00">string</text>
</a>
</g>
</g>
<!-- Node4&#45;&gt;Node7 -->
<g id="edge6_Node000004_Node000007" class="edge">
<title>Node4&#45;&gt;Node7</title>
<g id="a_edge6_Node000004_Node000007"><a xlink:title=" ">
<path fill="none" stroke="#63b8ff" d="M998.33,-60.22C897.02,-50.65 602.42,-22.82 504.25,-13.55"/>
<polygon fill="#63b8ff" stroke="#63b8ff" points="504.35,-10.04 494.06,-12.58 503.69,-17.01 504.35,-10.04"/>
</a>
</g>
</g>
<!-- Node8 -->
<g id="Node000008" class="node">
<title>Node8</title>
<g id="a_Node000008"><a xlink:title=" ">
<polygon fill="#e0e0e0" stroke="#999999" points="1192.5,-19 1123.5,-19 1123.5,0 1192.5,0 1192.5,-19"/>
<text text-anchor="middle" x="1158" y="-7" font-family="Helvetica,sans-Serif" font-size="10.00">type_traits</text>
</a>
</g>
</g>
<!-- Node4&#45;&gt;Node8 -->
<g id="edge7_Node000004_Node000008" class="edge">
<title>Node4&#45;&gt;Node8</title>
<g id="a_edge7_Node000004_Node000008"><a xlink:title=" ">
<path fill="none" stroke="#63b8ff" d="M1053.08,-54.98C1073.37,-46.38 1104.96,-32.99 1128.17,-23.15"/>
<polygon fill="#63b8ff" stroke="#63b8ff" points="1129.71,-26.3 1137.55,-19.17 1126.98,-19.85 1129.71,-26.3"/>
</a>
</g>
</g>
<!-- Node9&#45;&gt;Node4 -->
<g id="edge11_Node000009_Node000004" class="edge">
<title>Node9&#45;&gt;Node4</title>
<g id="a_edge11_Node000009_Node000004"><a xlink:title=" ">
<path fill="none" stroke="#63b8ff" d="M522.19,-219.94C568.33,-198.53 694.07,-142.09 804,-110 866.89,-91.64 941.74,-78.71 988.32,-71.69"/>
<polygon fill="#63b8ff" stroke="#63b8ff" points="989.01,-75.12 998.39,-70.19 987.98,-68.2 989.01,-75.12"/>
</a>
</g>
</g>
<!-- Node9&#45;&gt;Node7 -->
<g id="edge9_Node000009_Node000007" class="edge">
<title>Node9&#45;&gt;Node7</title>
<g id="a_edge9_Node000009_Node000007"><a xlink:title=" ">
<path fill="none" stroke="#63b8ff" d="M502.75,-219.95C498.05,-187.95 481.42,-74.68 474.77,-29.4"/>
<polygon fill="#63b8ff" stroke="#63b8ff" points="478.2,-28.61 473.28,-19.22 471.27,-29.63 478.2,-28.61"/>
</a>
</g>
</g>
<!-- Node10 -->
<g id="Node000010" class="node">
<title>Node10</title>
<g id="a_Node000010"><a xlink:title=" ">
<polygon fill="#e0e0e0" stroke="#999999" points="110.5,-19 63.5,-19 63.5,0 110.5,0 110.5,-19"/>
<text text-anchor="middle" x="87" y="-7" font-family="Helvetica,sans-Serif" font-size="10.00">vector</text>
</a>
</g>
</g>
<!-- Node9&#45;&gt;Node10 -->
<g id="edge10_Node000009_Node000010" class="edge">
<title>Node9&#45;&gt;Node10</title>
<g id="a_edge10_Node000009_Node000010"><a xlink:title=" ">
<path fill="none" stroke="#63b8ff" d="M481.96,-224.96C445.41,-218.76 370.21,-204.61 309,-184 196.65,-146.18 130.26,-173.62 66,-74 56.8,-59.73 64.96,-41.04 73.66,-27.64"/>
<polygon fill="#63b8ff" stroke="#63b8ff" points="76.62,-29.5 79.55,-19.32 70.91,-25.46 76.62,-29.5"/>
</a>
</g>
</g>
<!-- Node11 -->
<g id="Node000011" class="node">
<title>Node11</title>
<g id="a_Node000011"><a xlink:href="irep__ids_8h.html" target="_top" xlink:title="util">
<polygon fill="white" stroke="#666666" points="382,-184 318,-184 318,-165 382,-165 382,-184"/>
<text text-anchor="middle" x="350" y="-172" font-family="Helvetica,sans-Serif" font-size="10.00">irep_ids.h</text>
</a>
</g>
</g>
<!-- Node9&#45;&gt;Node11 -->
<g id="edge12_Node000009_Node000011" class="edge">
<title>Node9&#45;&gt;Node11</title>
<g id="a_edge12_Node000009_Node000011"><a xlink:title=" ">
<path fill="none" stroke="#63b8ff" d="M481.94,-220.91C456.46,-212.14 414.23,-197.6 384.42,-187.35"/>
<polygon fill="#63b8ff" stroke="#63b8ff" points="385.42,-183.99 374.83,-184.05 383.15,-190.61 385.42,-183.99"/>
</a>
</g>
</g>
<!-- Node22 -->
<g id="Node000022" class="node">
<title>Node22</title>
<g id="a_Node000022"><a xlink:href="forward__list__as__map_8h.html" target="_top" xlink:title=" ">
<polygon fill="white" stroke="#666666" points="902.5,-184 775.5,-184 775.5,-165 902.5,-165 902.5,-184"/>
<text text-anchor="middle" x="839" y="-172" font-family="Helvetica,sans-Serif" font-size="10.00">forward_list_as_map.h</text>
</a>
</g>
</g>
<!-- Node9&#45;&gt;Node22 -->
<g id="edge22_Node000009_Node000022" class="edge">
<title>Node9&#45;&gt;Node22</title>
<g id="a_edge22_Node000009_Node000022"><a xlink:title=" ">
<path fill="none" stroke="#63b8ff" d="M526.24,-224.98C576.24,-217.07 699.08,-197.64 775.08,-185.61"/>
<polygon fill="#63b8ff" stroke="#63b8ff" points="775.69,-189.06 785.02,-184.04 774.6,-182.15 775.69,-189.06"/>
</a>
</g>
</g>
<!-- Node12 -->
<g id="Node000012" class="node">
<title>Node12</title>
<g id="a_Node000012"><a xlink:href="dstring_8h.html" target="_top" xlink:title="Container for C&#45;Strings.">
<polygon fill="white" stroke="#666666" points="294.5,-129 235.5,-129 235.5,-110 294.5,-110 294.5,-129"/>
<text text-anchor="middle" x="265" y="-117" font-family="Helvetica,sans-Serif" font-size="10.00">dstring.h</text>
</a>
</g>
</g>
<!-- Node11&#45;&gt;Node12 -->
<g id="edge13_Node000011_Node000012" class="edge">
<title>Node11&#45;&gt;Node12</title>
<g id="a_edge13_Node000011_Node000012"><a xlink:title=" ">
<path fill="none" stroke="#63b8ff" d="M336.34,-164.98C323.16,-156.77 302.97,-144.18 287.43,-134.49"/>
<polygon fill="#63b8ff" stroke="#63b8ff" points="289.24,-131.49 278.91,-129.17 285.54,-137.43 289.24,-131.49"/>
</a>
</g>
</g>
<!-- Node21 -->
<g id="Node000021" class="node">
<title>Node21</title>
<g id="a_Node000021"><a xlink:title=" ">
<polygon fill="#e0e0e0" stroke="#999999" points="387,-129 313,-129 313,-110 387,-110 387,-129"/>
<text text-anchor="middle" x="350" y="-117" font-family="Helvetica,sans-Serif" font-size="10.00">irep_ids.def</text>
</a>
</g>
</g>
<!-- Node11&#45;&gt;Node21 -->
<g id="edge21_Node000011_Node000021" class="edge">
<title>Node11&#45;&gt;Node21</title>
<g id="a_edge21_Node000011_Node000021"><a xlink:title=" ">
<path fill="none" stroke="#63b8ff" d="M350,-164.75C350,-157.8 350,-147.85 350,-139.13"/>
<polygon fill="#63b8ff" stroke="#63b8ff" points="353.5,-139.09 350,-129.09 346.5,-139.09 353.5,-139.09"/>
</a>
</g>
</g>
<!-- Node12&#45;&gt;Node7 -->
<g id="edge15_Node000012_Node000007" class="edge">
<title>Node12&#45;&gt;Node7</title>
<g id="a_edge15_Node000012_Node000007"><a xlink:title=" ">
<path fill="none" stroke="#63b8ff" d="M281.59,-109.84C317.71,-91 403.68,-46.14 446.65,-23.73"/>
<polygon fill="#63b8ff" stroke="#63b8ff" points="448.37,-26.78 455.62,-19.05 445.13,-20.57 448.37,-26.78"/>
</a>
</g>
</g>
<!-- Node13 -->
<g id="Node000013" class="node">
<title>Node13</title>
<g id="a_Node000013"><a xlink:title=" ">
<polygon fill="#e0e0e0" stroke="#999999" points="567,-74 519,-74 519,-55 567,-55 567,-74"/>
<text text-anchor="middle" x="543" y="-62" font-family="Helvetica,sans-Serif" font-size="10.00">iosfwd</text>
</a>
</g>
</g>
<!-- Node12&#45;&gt;Node13 -->
<g id="edge14_Node000012_Node000013" class="edge">
<title>Node12&#45;&gt;Node13</title>
<g id="a_edge14_Node000012_Node000013"><a xlink:title=" ">
<path fill="none" stroke="#63b8ff" d="M294.79,-111.91C297.9,-111.25 301.01,-110.6 304,-110 376.73,-95.31 462.28,-79.81 508.75,-71.54"/>
<polygon fill="#63b8ff" stroke="#63b8ff" points="509.63,-74.94 518.87,-69.74 508.41,-68.04 509.63,-74.94"/>
</a>
</g>
</g>
<!-- Node14 -->
<g id="Node000014" class="node">
<title>Node14</title>
<g id="a_Node000014"><a xlink:href="magic_8h.html" target="_top" xlink:title="Magic numbers used throughout the codebase.">
<polygon fill="#fff0f0" stroke="red" points="293,-74 237,-74 237,-55 293,-55 293,-74"/>
<text text-anchor="middle" x="265" y="-62" font-family="Helvetica,sans-Serif" font-size="10.00">magic.h</text>
</a>
</g>
</g>
<!-- Node12&#45;&gt;Node14 -->
<g id="edge16_Node000012_Node000014" class="edge">
<title>Node12&#45;&gt;Node14</title>
<g id="a_edge16_Node000012_Node000014"><a xlink:title=" ">
<path fill="none" stroke="#63b8ff" d="M265,-109.75C265,-102.8 265,-92.85 265,-84.13"/>
<polygon fill="#63b8ff" stroke="#63b8ff" points="268.5,-84.09 265,-74.09 261.5,-84.09 268.5,-84.09"/>
</a>
</g>
</g>
<!-- Node16 -->
<g id="Node000016" class="node">
<title>Node16</title>
<g id="a_Node000016"><a xlink:href="string__container_8h.html" target="_top" xlink:title="Container for C&#45;Strings.">
<polygon fill="#fff0f0" stroke="red" points="179,-74 75,-74 75,-55 179,-55 179,-74"/>
<text text-anchor="middle" x="127" y="-62" font-family="Helvetica,sans-Serif" font-size="10.00">string_container.h</text>
</a>
</g>
</g>
<!-- Node12&#45;&gt;Node16 -->
<g id="edge17_Node000012_Node000016" class="edge">
<title>Node12&#45;&gt;Node16</title>
<g id="a_edge17_Node000012_Node000016"><a xlink:title=" ">
<path fill="none" stroke="#63b8ff" d="M242.83,-109.98C220.23,-101.3 184.94,-87.75 159.25,-77.88"/>
<polygon fill="#63b8ff" stroke="#63b8ff" points="160.17,-74.49 149.58,-74.17 157.66,-81.02 160.17,-74.49"/>
</a>
</g>
</g>
<!-- Node16&#45;&gt;Node10 -->
<g id="edge20_Node000016_Node000010" class="edge">
<title>Node16&#45;&gt;Node10</title>
<g id="a_edge20_Node000016_Node000010"><a xlink:title=" ">
<path fill="none" stroke="#63b8ff" d="M120.39,-54.75C114.74,-47.26 106.46,-36.28 99.55,-27.13"/>
<polygon fill="#63b8ff" stroke="#63b8ff" points="102.3,-24.96 93.48,-19.09 96.71,-29.18 102.3,-24.96"/>
</a>
</g>
</g>
<!-- Node17 -->
<g id="Node000017" class="node">
<title>Node17</title>
<g id="a_Node000017"><a xlink:title=" ">
<polygon fill="#e0e0e0" stroke="#999999" points="32,-19 0,-19 0,0 32,0 32,-19"/>
<text text-anchor="middle" x="16" y="-7" font-family="Helvetica,sans-Serif" font-size="10.00">list</text>
</a>
</g>
</g>
<!-- Node16&#45;&gt;Node17 -->
<g id="edge18_Node000016_Node000017" class="edge">
<title>Node16&#45;&gt;Node17</title>
<g id="a_edge18_Node000016_Node000017"><a xlink:title=" ">
<path fill="none" stroke="#63b8ff" d="M109.17,-54.98C90.86,-46.24 62.21,-32.56 41.51,-22.68"/>
<polygon fill="#63b8ff" stroke="#63b8ff" points="42.88,-19.45 32.34,-18.3 39.86,-25.77 42.88,-19.45"/>
</a>
</g>
</g>
<!-- Node18 -->
<g id="Node000018" class="node">
<title>Node18</title>
<g id="a_Node000018"><a xlink:title=" ">
<polygon fill="#e0e0e0" stroke="#999999" points="227.5,-19 134.5,-19 134.5,0 227.5,0 227.5,-19"/>
<text text-anchor="middle" x="181" y="-7" font-family="Helvetica,sans-Serif" font-size="10.00">unordered_map</text>
</a>
</g>
</g>
<!-- Node16&#45;&gt;Node18 -->
<g id="edge19_Node000016_Node000018" class="edge">
<title>Node16&#45;&gt;Node18</title>
<g id="a_edge19_Node000016_Node000018"><a xlink:title=" ">
<path fill="none" stroke="#63b8ff" d="M135.92,-54.75C143.78,-47.03 155.43,-35.6 164.92,-26.28"/>
<polygon fill="#63b8ff" stroke="#63b8ff" points="167.56,-28.59 172.25,-19.09 162.66,-23.6 167.56,-28.59"/>
</a>
</g>
</g>
<!-- Node22&#45;&gt;Node23 -->
<g id="edge23_Node000022_Node000023" class="edge">
<title>Node22&#45;&gt;Node23</title>
<g id="a_edge23_Node000022_Node000023"><a xlink:title=" ">
<path fill="none" stroke="#63b8ff" d="M852.5,-164.98C865.4,-156.84 885.1,-144.41 900.4,-134.76"/>
<polygon fill="#63b8ff" stroke="#63b8ff" points="902.67,-137.47 909.26,-129.17 898.93,-131.55 902.67,-137.47"/>
</a>
</g>
</g>
<!-- Node24 -->
<g id="Node000024" class="node">
<title>Node24</title>
<g id="a_Node000024"><a xlink:title=" ">
<polygon fill="#e0e0e0" stroke="#999999" points="631,-129 557,-129 557,-110 631,-110 631,-129"/>
<text text-anchor="middle" x="594" y="-117" font-family="Helvetica,sans-Serif" font-size="10.00">forward_list</text>
</a>
</g>
</g>
<!-- Node22&#45;&gt;Node24 -->
<g id="edge24_Node000022_Node000024" class="edge">
<title>Node22&#45;&gt;Node24</title>
<g id="a_edge24_Node000022_Node000024"><a xlink:title=" ">
<path fill="none" stroke="#63b8ff" d="M799.64,-164.98C756.5,-155.65 687.33,-140.69 641.29,-130.73"/>
<polygon fill="#63b8ff" stroke="#63b8ff" points="641.77,-127.25 631.26,-128.56 640.29,-134.1 641.77,-127.25"/>
</a>
</g>
</g>
<!-- Node25 -->
<g id="Node000025" class="node">
<title>Node25</title>
<g id="a_Node000025"><a xlink:href="as__const_8h.html" target="_top" xlink:title=" ">
<polygon fill="white" stroke="#666666" points="885,-19 817,-19 817,0 885,0 885,-19"/>
<text text-anchor="middle" x="851" y="-7" font-family="Helvetica,sans-Serif" font-size="10.00">as_const.h</text>
</a>
</g>
</g>
<!-- Node22&#45;&gt;Node25 -->
<g id="edge25_Node000022_Node000025" class="edge">
<title>Node22&#45;&gt;Node25</title>
<g id="a_edge25_Node000022_Node000025"><a xlink:title=" ">
<path fill="none" stroke="#63b8ff" d="M829.12,-164.75C820.61,-156.5 808.95,-143.3 804,-129 801.24,-121.02 802.15,-118.24 804,-110 810.9,-79.22 828.45,-46.76 840.04,-27.58"/>
<polygon fill="#63b8ff" stroke="#63b8ff" points="843.02,-29.42 845.33,-19.08 837.08,-25.72 843.02,-29.42"/>
</a>
</g>
</g>
<!-- Node26 -->
<g id="Node000026" class="node">
<title>Node26</title>
<g id="a_Node000026"><a xlink:href="narrow_8h.html" target="_top" xlink:title=" ">
<polygon fill="white" stroke="#666666" points="872.5,-129 813.5,-129 813.5,-110 872.5,-110 872.5,-129"/>
<text text-anchor="middle" x="843" y="-117" font-family="Helvetica,sans-Serif" font-size="10.00">narrow.h</text>
</a>
</g>
</g>
<!-- Node22&#45;&gt;Node26 -->
<g id="edge26_Node000022_Node000026" class="edge">
<title>Node22&#45;&gt;Node26</title>
<g id="a_edge26_Node000022_Node000026"><a xlink:title=" ">
<path fill="none" stroke="#63b8ff" d="M839.66,-164.75C840.18,-157.8 840.94,-147.85 841.59,-139.13"/>
<polygon fill="#63b8ff" stroke="#63b8ff" points="845.09,-139.32 842.35,-129.09 838.11,-138.8 845.09,-139.32"/>
</a>
</g>
</g>
<!-- Node26&#45;&gt;Node4 -->
<g id="edge28_Node000026_Node000004" class="edge">
<title>Node26&#45;&gt;Node4</title>
<g id="a_edge28_Node000026_Node000004"><a xlink:title=" ">
<path fill="none" stroke="#63b8ff" d="M872.69,-110.22C904.93,-101.22 956.64,-86.8 992.57,-76.78"/>
<polygon fill="#63b8ff" stroke="#63b8ff" points="993.57,-80.13 1002.26,-74.07 991.69,-73.39 993.57,-80.13"/>
</a>
</g>
</g>
<!-- Node26&#45;&gt;Node8 -->
<g id="edge27_Node000026_Node000008" class="edge">
<title>Node26&#45;&gt;Node8</title>
<g id="a_edge27_Node000026_Node000008"><a xlink:title=" ">
<path fill="none" stroke="#63b8ff" d="M860.76,-109.8C888.06,-96.67 942.19,-71.56 990,-55 1031.08,-40.77 1079.14,-28.46 1113.31,-20.42"/>
<polygon fill="#63b8ff" stroke="#63b8ff" points="1114.5,-23.74 1123.44,-18.06 1112.91,-16.92 1114.5,-23.74"/>
</a>
</g>
</g>
<!-- Node27&#45;&gt;Node4 -->
<g id="edge30_Node000027_Node000004" class="edge">
<title>Node27&#45;&gt;Node4</title>
<g id="a_edge30_Node000027_Node000004"><a xlink:title=" ">
<path fill="none" stroke="#63b8ff" d="M753.55,-329.86C766.36,-315.63 787,-293.23 806,-275 850.56,-232.25 865.5,-225.75 911,-184 950.12,-148.11 994.47,-104.18 1017.4,-81.21"/>
<polygon fill="#63b8ff" stroke="#63b8ff" points="1020,-83.56 1024.58,-74 1015.04,-78.62 1020,-83.56"/>
</a>
</g>
</g>
<!-- Node27&#45;&gt;Node7 -->
<g id="edge66_Node000027_Node000007" class="edge">
<title>Node27&#45;&gt;Node7</title>
<g id="a_edge66_Node000027_Node000007"><a xlink:title=" ">
<path fill="none" stroke="#63b8ff" d="M684.18,-331.59C681.08,-331.02 678.01,-330.49 675,-330 534.6,-307.22 491.3,-340.85 357,-294 313.45,-278.81 291.36,-279.34 269,-239 232.86,-173.8 319.85,-245.21 391,-184 416.16,-162.35 451.35,-68.91 465.62,-28.85"/>
<polygon fill="#63b8ff" stroke="#63b8ff" points="468.97,-29.87 468.99,-19.27 462.37,-27.54 468.97,-29.87"/>
</a>
</g>
</g>
<!-- Node27&#45;&gt;Node13 -->
<g id="edge62_Node000027_Node000013" class="edge">
<title>Node27&#45;&gt;Node13</title>
<g id="a_edge62_Node000027_Node000013"><a xlink:title=" ">
<path fill="none" stroke="#63b8ff" d="M708.77,-329.82C691.5,-321.16 670.63,-308.89 655,-294 591.71,-233.72 576.07,-211.77 548,-129 543.11,-114.58 542.03,-97.31 542.08,-84.42"/>
<polygon fill="#63b8ff" stroke="#63b8ff" points="545.58,-84.49 542.35,-74.4 538.59,-84.3 545.58,-84.49"/>
</a>
</g>
</g>
<!-- Node27&#45;&gt;Node17 -->
<g id="edge64_Node000027_Node000017" class="edge">
<title>Node27&#45;&gt;Node17</title>
<g id="a_edge64_Node000027_Node000017"><a xlink:title=" ">
<path fill="none" stroke="#63b8ff" d="M684.19,-331.52C681.09,-330.97 678.01,-330.46 675,-330 527.09,-307.29 9,-380.14 9,-230.5 9,-230.5 9,-230.5 9,-118.5 9,-87.12 11.98,-50.73 14.05,-29.21"/>
<polygon fill="#63b8ff" stroke="#63b8ff" points="17.54,-29.47 15.06,-19.17 10.58,-28.77 17.54,-29.47"/>
</a>
</g>
</g>
<!-- Node28 -->
<g id="Node000028" class="node">
<title>Node28</title>
<g id="a_Node000028"><a xlink:href="source__location_8h.html" target="_top" xlink:title=" ">
<polygon fill="white" stroke="#666666" points="487.5,-294 366.5,-294 366.5,-275 487.5,-275 487.5,-294"/>
<text text-anchor="middle" x="427" y="-282" font-family="Helvetica,sans-Serif" font-size="10.00">util/source_location.h</text>
</a>
</g>
</g>
<!-- Node27&#45;&gt;Node28 -->
<g id="edge31_Node000027_Node000028" class="edge">
<title>Node27&#45;&gt;Node28</title>
<g id="a_edge31_Node000027_Node000028"><a xlink:title=" ">
<path fill="none" stroke="#63b8ff" d="M684.5,-331.89C681.29,-331.24 678.1,-330.61 675,-330 611.14,-317.5 537.76,-304.5 487.49,-295.81"/>
<polygon fill="#63b8ff" stroke="#63b8ff" points="487.88,-292.32 477.44,-294.07 486.69,-299.22 487.88,-292.32"/>
</a>
</g>
</g>
<!-- Node31 -->
<g id="Node000031" class="node">
<title>Node31</title>
<g id="a_Node000031"><a xlink:href="goto__instruction__code_8h.html" target="_top" xlink:title=" ">
<polygon fill="white" stroke="#666666" points="1182.5,-294 1049.5,-294 1049.5,-275 1182.5,-275 1182.5,-294"/>
<text text-anchor="middle" x="1116" y="-282" font-family="Helvetica,sans-Serif" font-size="10.00">goto_instruction_code.h</text>
</a>
</g>
</g>
<!-- Node27&#45;&gt;Node31 -->
<g id="edge36_Node000027_Node000031" class="edge">
<title>Node27&#45;&gt;Node31</title>
<g id="a_edge36_Node000027_Node000031"><a xlink:title=" ">
<path fill="none" stroke="#63b8ff" d="M797.55,-335.18C865.61,-324.56 979.65,-306.77 1051.2,-295.61"/>
<polygon fill="#63b8ff" stroke="#63b8ff" points="1052.09,-299.01 1061.43,-294.01 1051.01,-292.1 1052.09,-299.01"/>
</a>
</g>
</g>
<!-- Node47 -->
<g id="Node000047" class="node">
<title>Node47</title>
<g id="a_Node000047"><a xlink:title=" ">
<polygon fill="#e0e0e0" stroke="#999999" points="708,-294 664,-294 664,-275 708,-275 708,-294"/>
<text text-anchor="middle" x="686" y="-282" font-family="Helvetica,sans-Serif" font-size="10.00">limits</text>
</a>
</g>
</g>
<!-- Node27&#45;&gt;Node47 -->
<g id="edge63_Node000027_Node000047" class="edge">
<title>Node27&#45;&gt;Node47</title>
<g id="a_edge63_Node000027_Node000047"><a xlink:title=" ">
<path fill="none" stroke="#63b8ff" d="M727.69,-329.84C719.7,-321.35 709.52,-310.52 701.22,-301.69"/>
<polygon fill="#63b8ff" stroke="#63b8ff" points="703.64,-299.15 694.24,-294.27 698.54,-303.95 703.64,-299.15"/>
</a>
</g>
</g>
<!-- Node48 -->
<g id="Node000048" class="node">
<title>Node48</title>
<g id="a_Node000048"><a xlink:title=" ">
<polygon fill="#e0e0e0" stroke="#999999" points="758,-294 726,-294 726,-275 758,-275 758,-294"/>
<text text-anchor="middle" x="742" y="-282" font-family="Helvetica,sans-Serif" font-size="10.00">set</text>
</a>
</g>
</g>
<!-- Node27&#45;&gt;Node48 -->
<g id="edge65_Node000027_Node000048" class="edge">
<title>Node27&#45;&gt;Node48</title>
<g id="a_edge65_Node000027_Node000048"><a xlink:title=" ">
<path fill="none" stroke="#63b8ff" d="M741.24,-329.84C741.37,-322.21 741.53,-312.7 741.68,-304.45"/>
<polygon fill="#63b8ff" stroke="#63b8ff" points="745.18,-304.32 741.85,-294.27 738.18,-304.2 745.18,-304.32"/>
</a>
</g>
</g>
<!-- Node28&#45;&gt;Node7 -->
<g id="edge35_Node000028_Node000007" class="edge">
<title>Node28&#45;&gt;Node7</title>
<g id="a_edge35_Node000028_Node000007"><a xlink:title=" ">
<path fill="none" stroke="#63b8ff" d="M428.58,-274.98C430.22,-266.03 432.86,-251.53 435,-239 448.3,-161.12 462.99,-68.1 469.1,-29.12"/>
<polygon fill="#63b8ff" stroke="#63b8ff" points="472.56,-29.65 470.64,-19.23 465.64,-28.57 472.56,-29.65"/>
</a>
</g>
</g>
<!-- Node28&#45;&gt;Node9 -->
<g id="edge33_Node000028_Node000009" class="edge">
<title>Node28&#45;&gt;Node9</title>
<g id="a_edge33_Node000028_Node000009"><a xlink:title=" ">
<path fill="none" stroke="#63b8ff" d="M439.37,-274.98C451.09,-266.92 468.92,-254.65 482.89,-245.03"/>
<polygon fill="#63b8ff" stroke="#63b8ff" points="485.15,-247.72 491.4,-239.17 481.18,-241.96 485.15,-247.72"/>
</a>
</g>
</g>
<!-- Node29 -->
<g id="Node000029" class="node">
<title>Node29</title>
<g id="a_Node000029"><a xlink:href="deprecate_8h.html" target="_top" xlink:title=" ">
<polygon fill="white" stroke="#666666" points="426,-239 352,-239 352,-220 426,-220 426,-239"/>
<text text-anchor="middle" x="389" y="-227" font-family="Helvetica,sans-Serif" font-size="10.00">deprecate.h</text>
</a>
</g>
</g>
<!-- Node28&#45;&gt;Node29 -->
<g id="edge32_Node000028_Node000029" class="edge">
<title>Node28&#45;&gt;Node29</title>
<g id="a_edge32_Node000028_Node000029"><a xlink:title=" ">
<path fill="none" stroke="#63b8ff" d="M420.73,-274.75C415.41,-267.34 407.64,-256.5 401.12,-247.41"/>
<polygon fill="#63b8ff" stroke="#63b8ff" points="403.83,-245.18 395.16,-239.09 398.14,-249.26 403.83,-245.18"/>
</a>
</g>
</g>
<!-- Node30 -->
<g id="Node000030" class="node">
<title>Node30</title>
<g id="a_Node000030"><a xlink:title=" ">
<polygon fill="#e0e0e0" stroke="#999999" points="334,-239 278,-239 278,-220 334,-220 334,-239"/>
<text text-anchor="middle" x="306" y="-227" font-family="Helvetica,sans-Serif" font-size="10.00">optional</text>
</a>
</g>
</g>
<!-- Node28&#45;&gt;Node30 -->
<g id="edge34_Node000028_Node000030" class="edge">
<title>Node28&#45;&gt;Node30</title>
<g id="a_edge34_Node000028_Node000030"><a xlink:title=" ">
<path fill="none" stroke="#63b8ff" d="M407.56,-274.98C388.01,-266.42 357.62,-253.11 335.18,-243.28"/>
<polygon fill="#63b8ff" stroke="#63b8ff" points="336.36,-239.98 325.79,-239.17 333.55,-246.39 336.36,-239.98"/>
</a>
</g>
</g>
<!-- Node32 -->
<g id="Node000032" class="node">
<title>Node32</title>
<g id="a_Node000032"><a xlink:href="std__code__base_8h.html" target="_top" xlink:title=" ">
<polygon fill="white" stroke="#666666" points="1293,-239 1177,-239 1177,-220 1293,-220 1293,-239"/>
<text text-anchor="middle" x="1235" y="-227" font-family="Helvetica,sans-Serif" font-size="10.00">util/std_code_base.h</text>
</a>
</g>
</g>
<!-- Node31&#45;&gt;Node32 -->
<g id="edge37_Node000031_Node000032" class="edge">
<title>Node31&#45;&gt;Node32</title>
<g id="a_edge37_Node000031_Node000032"><a xlink:title=" ">
<path fill="none" stroke="#63b8ff" d="M1135.12,-274.98C1154.35,-266.42 1184.23,-253.11 1206.31,-243.28"/>
<polygon fill="#63b8ff" stroke="#63b8ff" points="1207.82,-246.44 1215.53,-239.17 1204.97,-240.04 1207.82,-246.44"/>
</a>
</g>
</g>
<!-- Node46 -->
<g id="Node000046" class="node">
<title>Node46</title>
<g id="a_Node000046"><a xlink:href="std__expr_8h.html" target="_top" xlink:title="API to expression classes.">
<polygon fill="white" stroke="#666666" points="1159,-239 1073,-239 1073,-220 1159,-220 1159,-239"/>
<text text-anchor="middle" x="1116" y="-227" font-family="Helvetica,sans-Serif" font-size="10.00">util/std_expr.h</text>
</a>
</g>
</g>
<!-- Node31&#45;&gt;Node46 -->
<g id="edge58_Node000031_Node000046" class="edge">
<title>Node31&#45;&gt;Node46</title>
<g id="a_edge58_Node000031_Node000046"><a xlink:title=" ">
<path fill="none" stroke="#63b8ff" d="M1116,-274.75C1116,-267.8 1116,-257.85 1116,-249.13"/>
<polygon fill="#63b8ff" stroke="#63b8ff" points="1119.5,-249.09 1116,-239.09 1112.5,-249.09 1119.5,-249.09"/>
</a>
</g>
</g>
<!-- Node32&#45;&gt;Node4 -->
<g id="edge46_Node000032_Node000004" class="edge">
<title>Node32&#45;&gt;Node4</title>
<g id="a_edge46_Node000032_Node000004"><a xlink:title=" ">
<path fill="none" stroke="#63b8ff" d="M1226.95,-219.88C1215.02,-207.27 1191.7,-183.31 1170,-165 1131.25,-132.3 1082.52,-98.49 1054.85,-79.91"/>
<polygon fill="#63b8ff" stroke="#63b8ff" points="1056.58,-76.86 1046.32,-74.22 1052.69,-82.68 1056.58,-76.86"/>
</a>
</g>
</g>
<!-- Node33 -->
<g id="Node000033" class="node">
<title>Node33</title>
<g id="a_Node000033"><a xlink:href="expr__cast_8h.html" target="_top" xlink:title="Templated functions to cast to specific exprt&#45;derived classes.">
<polygon fill="white" stroke="#666666" points="1274.5,-129 1201.5,-129 1201.5,-110 1274.5,-110 1274.5,-129"/>
<text text-anchor="middle" x="1238" y="-117" font-family="Helvetica,sans-Serif" font-size="10.00">expr_cast.h</text>
</a>
</g>
</g>
<!-- Node32&#45;&gt;Node33 -->
<g id="edge38_Node000032_Node000033" class="edge">
<title>Node32&#45;&gt;Node33</title>
<g id="a_edge38_Node000032_Node000033"><a xlink:title=" ">
<path fill="none" stroke="#63b8ff" d="M1236.55,-219.67C1238.03,-210.72 1240.16,-196.44 1241,-184 1242.01,-168.99 1241.09,-151.97 1240.02,-139.33"/>
<polygon fill="#63b8ff" stroke="#63b8ff" points="1243.48,-138.75 1239.03,-129.13 1236.51,-139.42 1243.48,-138.75"/>
</a>
</g>
</g>
<!-- Node43 -->
<g id="Node000043" class="node">
<title>Node43</title>
<g id="a_Node000043"><a xlink:href="std__types_8h.html" target="_top" xlink:title="Pre&#45;defined types.">
<polygon fill="white" stroke="#666666" points="1160.5,-184 1087.5,-184 1087.5,-165 1160.5,-165 1160.5,-184"/>
<text text-anchor="middle" x="1124" y="-172" font-family="Helvetica,sans-Serif" font-size="10.00">std_types.h</text>
</a>
</g>
</g>
<!-- Node32&#45;&gt;Node43 -->
<g id="edge47_Node000032_Node000043" class="edge">
<title>Node32&#45;&gt;Node43</title>
<g id="a_edge47_Node000032_Node000043"><a xlink:title=" ">
<path fill="none" stroke="#63b8ff" d="M1217.17,-219.98C1199.39,-211.5 1171.85,-198.35 1151.32,-188.54"/>
<polygon fill="#63b8ff" stroke="#63b8ff" points="1152.69,-185.32 1142.16,-184.17 1149.67,-191.64 1152.69,-185.32"/>
</a>
</g>
</g>
<!-- Node38 -->
<g id="Node000038" class="node">
<title>Node38</title>
<g id="a_Node000038"><a xlink:href="validate_8h.html" target="_top" xlink:title=" ">
<polygon fill="#fff0f0" stroke="red" points="1357.5,-129 1292.5,-129 1292.5,-110 1357.5,-110 1357.5,-129"/>
<text text-anchor="middle" x="1325" y="-117" font-family="Helvetica,sans-Serif" font-size="10.00">validate.h</text>
</a>
</g>
</g>
<!-- Node32&#45;&gt;Node38 -->
<g id="edge57_Node000032_Node000038" class="edge">
<title>Node32&#45;&gt;Node38</title>
<g id="a_edge57_Node000032_Node000038"><a xlink:title=" ">
<path fill="none" stroke="#63b8ff" d="M1242.37,-219.66C1257.4,-201.61 1291.85,-160.28 1311.19,-137.08"/>
<polygon fill="#63b8ff" stroke="#63b8ff" points="1314.07,-139.08 1317.78,-129.16 1308.69,-134.6 1314.07,-139.08"/>
</a>
</g>
</g>
<!-- Node33&#45;&gt;Node4 -->
<g id="edge42_Node000033_Node000004" class="edge">
<title>Node33&#45;&gt;Node4</title>
<g id="a_edge42_Node000033_Node000004"><a xlink:title=" ">
<path fill="none" stroke="#63b8ff" d="M1205.06,-109.98C1170.05,-100.93 1114.53,-86.58 1076.07,-76.64"/>
<polygon fill="#63b8ff" stroke="#63b8ff" points="1076.75,-73.2 1066.19,-74.08 1075,-79.97 1076.75,-73.2"/>
</a>
</g>
</g>
<!-- Node33&#45;&gt;Node8 -->
<g id="edge40_Node000033_Node000008" class="edge">
<title>Node33&#45;&gt;Node8</title>
<g id="a_edge40_Node000033_Node000008"><a xlink:title=" ">
<path fill="none" stroke="#63b8ff" d="M1227.5,-109.69C1217.79,-101.21 1203.34,-87.67 1193,-74 1182.22,-59.74 1172.63,-41.76 1166.22,-28.57"/>
<polygon fill="#63b8ff" stroke="#63b8ff" points="1169.23,-26.75 1161.81,-19.19 1162.9,-29.73 1169.23,-26.75"/>
</a>
</g>
</g>
<!-- Node34 -->
<g id="Node000034" class="node">
<title>Node34</title>
<g id="a_Node000034"><a xlink:title=" ">
<polygon fill="#e0e0e0" stroke="#999999" points="1258.5,-74 1201.5,-74 1201.5,-55 1258.5,-55 1258.5,-74"/>
<text text-anchor="middle" x="1230" y="-62" font-family="Helvetica,sans-Serif" font-size="10.00">typeinfo</text>
</a>
</g>
</g>
<!-- Node33&#45;&gt;Node34 -->
<g id="edge39_Node000033_Node000034" class="edge">
<title>Node33&#45;&gt;Node34</title>
<g id="a_edge39_Node000033_Node000034"><a xlink:title=" ">
<path fill="none" stroke="#63b8ff" d="M1236.68,-109.75C1235.63,-102.8 1234.13,-92.85 1232.81,-84.13"/>
<polygon fill="#63b8ff" stroke="#63b8ff" points="1236.25,-83.45 1231.3,-74.09 1229.33,-84.5 1236.25,-83.45"/>
</a>
</g>
</g>
<!-- Node35 -->
<g id="Node000035" class="node">
<title>Node35</title>
<g id="a_Node000035"><a xlink:title=" ">
<polygon fill="#e0e0e0" stroke="#999999" points="1308.5,-19 1243.5,-19 1243.5,0 1308.5,0 1308.5,-19"/>
<text text-anchor="middle" x="1276" y="-7" font-family="Helvetica,sans-Serif" font-size="10.00">functional</text>
</a>
</g>
</g>
<!-- Node33&#45;&gt;Node35 -->
<g id="edge41_Node000033_Node000035" class="edge">
<title>Node33&#45;&gt;Node35</title>
<g id="a_edge41_Node000033_Node000035"><a xlink:title=" ">
<path fill="none" stroke="#63b8ff" d="M1245.55,-109.99C1252.61,-101.5 1262.82,-87.78 1268,-74 1273.44,-59.52 1275.33,-42.01 1275.92,-29.05"/>
<polygon fill="#63b8ff" stroke="#63b8ff" points="1279.42,-29.1 1276.16,-19.02 1272.42,-28.93 1279.42,-29.1"/>
</a>
</g>
</g>
<!-- Node36 -->
<g id="Node000036" class="node">
<title>Node36</title>
<g id="a_Node000036"><a xlink:href="expr_8h.html" target="_top" xlink:title=" ">
<polygon fill="#fff0f0" stroke="red" points="1144.5,-74 1097.5,-74 1097.5,-55 1144.5,-55 1144.5,-74"/>
<text text-anchor="middle" x="1121" y="-62" font-family="Helvetica,sans-Serif" font-size="10.00">expr.h</text>
</a>
</g>
</g>
<!-- Node33&#45;&gt;Node36 -->
<g id="edge43_Node000033_Node000036" class="edge">
<title>Node33&#45;&gt;Node36</title>
<g id="a_edge43_Node000033_Node000036"><a xlink:title=" ">
<path fill="none" stroke="#63b8ff" d="M1219.2,-109.98C1200.38,-101.46 1171.18,-88.23 1149.5,-78.41"/>
<polygon fill="#63b8ff" stroke="#63b8ff" points="1150.69,-75.11 1140.14,-74.17 1147.8,-81.48 1150.69,-75.11"/>
</a>
</g>
</g>
<!-- Node36&#45;&gt;Node25 -->
<g id="edge44_Node000036_Node000025" class="edge">
<title>Node36&#45;&gt;Node25</title>
<g id="a_edge44_Node000036_Node000025"><a xlink:title=" ">
<path fill="none" stroke="#63b8ff" d="M1097.04,-58.8C1051.75,-49.91 952.96,-30.51 895.28,-19.19"/>
<polygon fill="#63b8ff" stroke="#63b8ff" points="895.85,-15.74 885.36,-17.24 894.5,-22.61 895.85,-15.74"/>
</a>
</g>
</g>
<!-- Node36&#45;&gt;Node35 -->
<g id="edge45_Node000036_Node000035" class="edge">
<title>Node36&#45;&gt;Node35</title>
<g id="a_edge45_Node000036_Node000035"><a xlink:title=" ">
<path fill="none" stroke="#63b8ff" d="M1144.54,-55.45C1170.33,-46.63 1211.96,-32.4 1241.45,-22.31"/>
<polygon fill="#63b8ff" stroke="#63b8ff" points="1242.62,-25.61 1250.95,-19.07 1240.36,-18.99 1242.62,-25.61"/>
</a>
</g>
</g>
<!-- Node43&#45;&gt;Node4 -->
<g id="edge50_Node000043_Node000004" class="edge">
<title>Node43&#45;&gt;Node4</title>
<g id="a_edge50_Node000043_Node000004"><a xlink:title=" ">
<path fill="none" stroke="#63b8ff" d="M1117.22,-164.75C1107.59,-152.39 1089.3,-129.18 1073,-110 1064.93,-100.5 1055.63,-90.13 1048.04,-81.79"/>
<polygon fill="#63b8ff" stroke="#63b8ff" points="1050.45,-79.25 1041.12,-74.24 1045.29,-83.97 1050.45,-79.25"/>
</a>
</g>
</g>
<!-- Node43&#45;&gt;Node18 -->
<g id="edge56_Node000043_Node000018" class="edge">
<title>Node43&#45;&gt;Node18</title>
<g id="a_edge56_Node000043_Node000018"><a xlink:title=" ">
<path fill="none" stroke="#63b8ff" d="M1087.24,-171.95C919.55,-164.84 234.86,-135.44 226,-129 209.36,-116.9 193.01,-59.23 185.41,-29.03"/>
<polygon fill="#63b8ff" stroke="#63b8ff" points="188.81,-28.17 183.03,-19.29 182.01,-29.83 188.81,-28.17"/>
</a>
</g>
</g>
<!-- Node43&#45;&gt;Node33 -->
<g id="edge49_Node000043_Node000033" class="edge">
<title>Node43&#45;&gt;Node33</title>
<g id="a_edge49_Node000043_Node000033"><a xlink:title=" ">
<path fill="none" stroke="#63b8ff" d="M1142.32,-164.98C1160.66,-156.46 1189.11,-143.23 1210.23,-133.41"/>
<polygon fill="#63b8ff" stroke="#63b8ff" points="1211.76,-136.56 1219.35,-129.17 1208.81,-130.21 1211.76,-136.56"/>
</a>
</g>
</g>
<!-- Node43&#45;&gt;Node36 -->
<g id="edge48_Node000043_Node000036" class="edge">
<title>Node43&#45;&gt;Node36</title>
<g id="a_edge48_Node000043_Node000036"><a xlink:title=" ">
<path fill="none" stroke="#63b8ff" d="M1123.75,-164.66C1123.27,-147.17 1122.18,-107.8 1121.52,-84.27"/>
<polygon fill="#63b8ff" stroke="#63b8ff" points="1125.02,-84.06 1121.24,-74.16 1118.02,-84.25 1125.02,-84.06"/>
</a>
</g>
</g>
<!-- Node44 -->
<g id="Node000044" class="node">
<title>Node44</title>
<g id="a_Node000044"><a xlink:href="mp__arith_8h.html" target="_top" xlink:title=" ">
<polygon fill="#fff0f0" stroke="red" points="718.5,-129 649.5,-129 649.5,-110 718.5,-110 718.5,-129"/>
<text text-anchor="middle" x="684" y="-117" font-family="Helvetica,sans-Serif" font-size="10.00">mp_arith.h</text>
</a>
</g>
</g>
<!-- Node43&#45;&gt;Node44 -->
<g id="edge51_Node000043_Node000044" class="edge">
<title>Node43&#45;&gt;Node44</title>
<g id="a_edge51_Node000043_Node000044"><a xlink:title=" ">
<path fill="none" stroke="#63b8ff" d="M1087.24,-169.07C1006.86,-159.39 815.69,-136.36 728.6,-125.87"/>
<polygon fill="#63b8ff" stroke="#63b8ff" points="728.86,-122.38 718.51,-124.66 728.02,-129.33 728.86,-122.38"/>
</a>
</g>
</g>
<!-- Node43&#45;&gt;Node38 -->
<g id="edge54_Node000043_Node000038" class="edge">
<title>Node43&#45;&gt;Node38</title>
<g id="a_edge54_Node000043_Node000038"><a xlink:title=" ">
<path fill="none" stroke="#63b8ff" d="M1156.29,-164.98C1190.62,-155.93 1245.06,-141.58 1282.77,-131.64"/>
<polygon fill="#63b8ff" stroke="#63b8ff" points="1283.68,-135.02 1292.45,-129.08 1281.89,-128.25 1283.68,-135.02"/>
</a>
</g>
</g>
<!-- Node44&#45;&gt;Node7 -->
<g id="edge53_Node000044_Node000007" class="edge">
<title>Node44&#45;&gt;Node7</title>
<g id="a_edge53_Node000044_Node000007"><a xlink:title=" ">
<path fill="none" stroke="#63b8ff" d="M670.67,-109.91C650.58,-97.15 611.14,-72.76 576,-55 552.24,-42.99 524.49,-31.23 503.63,-22.81"/>
<polygon fill="#63b8ff" stroke="#63b8ff" points="504.87,-19.54 494.28,-19.08 502.27,-26.04 504.87,-19.54"/>
</a>
</g>
</g>
<!-- Node44&#45;&gt;Node13 -->
<g id="edge52_Node000044_Node000013" class="edge">
<title>Node44&#45;&gt;Node13</title>
<g id="a_edge52_Node000044_Node000013"><a xlink:title=" ">
<path fill="none" stroke="#63b8ff" d="M661.35,-109.98C638.15,-101.27 601.88,-87.63 575.6,-77.75"/>
<polygon fill="#63b8ff" stroke="#63b8ff" points="576.66,-74.41 566.07,-74.17 574.2,-80.97 576.66,-74.41"/>
</a>
</g>
</g>
<!-- Node38&#45;&gt;Node8 -->
<g id="edge55_Node000038_Node000008" class="edge">
<title>Node38&#45;&gt;Node8</title>
<g id="a_edge55_Node000038_Node000008"><a xlink:title=" ">
<path fill="none" stroke="#63b8ff" d="M1319.3,-109.97C1310,-96.61 1290.31,-70.66 1268,-55 1247.23,-40.43 1220.99,-29.58 1199.35,-22.24"/>
<polygon fill="#63b8ff" stroke="#63b8ff" points="1200.36,-18.89 1189.77,-19.12 1198.19,-25.55 1200.36,-18.89"/>
</a>
</g>
</g>
<!-- Node46&#45;&gt;Node4 -->
<g id="edge60_Node000046_Node000004" class="edge">
<title>Node46&#45;&gt;Node4</title>
<g id="a_edge60_Node000046_Node000004"><a xlink:title=" ">
<path fill="none" stroke="#63b8ff" d="M1107.42,-219.94C1099.26,-211.43 1087.05,-197.68 1079,-184 1059.58,-151 1045.35,-108.29 1038.2,-84.2"/>
<polygon fill="#63b8ff" stroke="#63b8ff" points="1041.47,-82.91 1035.34,-74.27 1034.74,-84.84 1041.47,-82.91"/>
</a>
</g>
</g>
<!-- Node46&#45;&gt;Node33 -->
<g id="edge59_Node000046_Node000033" class="edge">
<title>Node46&#45;&gt;Node33</title>
<g id="a_edge59_Node000046_Node000033"><a xlink:title=" ">
<path fill="none" stroke="#63b8ff" d="M1126.92,-219.83C1137.95,-211 1155.39,-196.82 1170,-184 1187.9,-168.3 1207.73,-149.62 1221.33,-136.61"/>
<polygon fill="#63b8ff" stroke="#63b8ff" points="1224.14,-138.76 1228.93,-129.31 1219.29,-133.72 1224.14,-138.76"/>
</a>
</g>
</g>
<!-- Node46&#45;&gt;Node43 -->
<g id="edge61_Node000046_Node000043" class="edge">
<title>Node46&#45;&gt;Node43</title>
<g id="a_edge61_Node000046_Node000043"><a xlink:title=" ">
<path fill="none" stroke="#63b8ff" d="M1117.32,-219.75C1118.37,-212.8 1119.87,-202.85 1121.19,-194.13"/>
<polygon fill="#63b8ff" stroke="#63b8ff" points="1124.67,-194.5 1122.7,-184.09 1117.75,-193.45 1124.67,-194.5"/>
</a>
</g>
</g>
<!-- Node51&#45;&gt;Node9 -->
<g id="edge70_Node000051_Node000009" class="edge">
<title>Node51&#45;&gt;Node9</title>
<g id="a_edge70_Node000051_Node000009"><a xlink:title=" ">
<path fill="none" stroke="#63b8ff" d="M519.72,-335.47C516.99,-317.23 510.53,-274.07 506.79,-249.14"/>
<polygon fill="#63b8ff" stroke="#63b8ff" points="510.24,-248.5 505.29,-239.13 503.31,-249.54 510.24,-248.5"/>
</a>
</g>
</g>
</g>
</svg>
