<?xml version="1.0" encoding="UTF-8" standalone="no"?>
<!DOCTYPE svg PUBLIC "-//W3C//DTD SVG 1.1//EN"
 "http://www.w3.org/Graphics/SVG/1.1/DTD/svg11.dtd">
<!-- Generated by graphviz version 2.43.0 (0)
 -->
<!-- Title: /home/runner/work/cbmc/cbmc/src/goto&#45;instrument/cover.h Pages: 1 -->
<svg width="1053pt" height="830pt"
 viewBox="0.00 0.00 1053.02 830.00" xmlns="http://www.w3.org/2000/svg" xmlns:xlink="http://www.w3.org/1999/xlink">
<g id="graph0" class="graph" transform="scale(1 1) rotate(0) translate(4 826)">
<title>/home/runner/work/cbmc/cbmc/src/goto&#45;instrument/cover.h</title>
<!-- Node1 -->
<g id="Node000001" class="node">
<title>Node1</title>
<g id="a_Node000001"><a xlink:title="Coverage Instrumentation.">
<polygon fill="#999999" stroke="#666666" points="776.5,-822 631.5,-822 631.5,-781 776.5,-781 776.5,-822"/>
<text text-anchor="start" x="639.5" y="-810" font-family="Helvetica,sans-Serif" font-size="10.00">/home/runner/work/cbmc</text>
<text text-anchor="start" x="639.5" y="-799" font-family="Helvetica,sans-Serif" font-size="10.00">/cbmc/src/goto&#45;instrument</text>
<text text-anchor="middle" x="704" y="-788" font-family="Helvetica,sans-Serif" font-size="10.00">/cover.h</text>
</a>
</g>
</g>
<!-- Node2 -->
<g id="Node000002" class="node">
<title>Node2</title>
<g id="a_Node000002"><a xlink:href="cover__filter_8h.html" target="_top" xlink:title="Filters for the Coverage Instrumentation.">
<polygon fill="white" stroke="#666666" points="702,-745 622,-745 622,-726 702,-726 702,-745"/>
<text text-anchor="middle" x="662" y="-733" font-family="Helvetica,sans-Serif" font-size="10.00">cover_filter.h</text>
</a>
</g>
</g>
<!-- Node1&#45;&gt;Node2 -->
<g id="edge1_Node000001_Node000002" class="edge">
<title>Node1&#45;&gt;Node2</title>
<g id="a_edge1_Node000001_Node000002"><a xlink:title=" ">
<path fill="none" stroke="#63b8ff" d="M691.17,-780.95C685.49,-772.3 678.87,-762.2 673.37,-753.82"/>
<polygon fill="#63b8ff" stroke="#63b8ff" points="676.16,-751.7 667.75,-745.26 670.31,-755.54 676.16,-751.7"/>
</a>
</g>
</g>
<!-- Node54 -->
<g id="Node000054" class="node">
<title>Node54</title>
<g id="a_Node000054"><a xlink:href="cover__instrument_8h.html" target="_top" xlink:title="Coverage Instrumentation.">
<polygon fill="white" stroke="#666666" points="968.5,-624 857.5,-624 857.5,-605 968.5,-605 968.5,-624"/>
<text text-anchor="middle" x="913" y="-612" font-family="Helvetica,sans-Serif" font-size="10.00">cover_instrument.h</text>
</a>
</g>
</g>
<!-- Node1&#45;&gt;Node54 -->
<g id="edge59_Node000001_Node000054" class="edge">
<title>Node1&#45;&gt;Node54</title>
<g id="a_edge59_Node000001_Node000054"><a xlink:title=" ">
<path fill="none" stroke="#63b8ff" d="M726.37,-780.7C768.27,-743.61 857.76,-664.39 895.57,-630.93"/>
<polygon fill="#63b8ff" stroke="#63b8ff" points="898.05,-633.41 903.22,-624.16 893.41,-628.17 898.05,-633.41"/>
</a>
</g>
</g>
<!-- Node3 -->
<g id="Node000003" class="node">
<title>Node3</title>
<g id="a_Node000003"><a xlink:title=" ">
<polygon fill="#e0e0e0" stroke="#999999" points="635,-684.5 591,-684.5 591,-665.5 635,-665.5 635,-684.5"/>
<text text-anchor="middle" x="613" y="-672.5" font-family="Helvetica,sans-Serif" font-size="10.00">regex</text>
</a>
</g>
</g>
<!-- Node2&#45;&gt;Node3 -->
<g id="edge2_Node000002_Node000003" class="edge">
<title>Node2&#45;&gt;Node3</title>
<g id="a_edge2_Node000002_Node000003"><a xlink:title=" ">
<path fill="none" stroke="#63b8ff" d="M654.77,-725.87C647.46,-717.14 635.98,-703.43 626.9,-692.59"/>
<polygon fill="#63b8ff" stroke="#63b8ff" points="629.36,-690.09 620.26,-684.67 624,-694.58 629.36,-690.09"/>
</a>
</g>
</g>
<!-- Node4 -->
<g id="Node000004" class="node">
<title>Node4</title>
<g id="a_Node000004"><a xlink:title=" ">
<polygon fill="#e0e0e0" stroke="#999999" points="671,-569 613,-569 613,-550 671,-550 671,-569"/>
<text text-anchor="middle" x="642" y="-557" font-family="Helvetica,sans-Serif" font-size="10.00">memory</text>
</a>
</g>
</g>
<!-- Node2&#45;&gt;Node4 -->
<g id="edge3_Node000002_Node000004" class="edge">
<title>Node2&#45;&gt;Node4</title>
<g id="a_edge3_Node000002_Node000004"><a xlink:title=" ">
<path fill="none" stroke="#63b8ff" d="M638.49,-725.95C621.07,-718.63 597.72,-706.63 582,-690 559.61,-666.31 557.3,-655.77 550,-624 548.11,-615.77 545.51,-612.15 550,-605 561.69,-586.35 583.65,-575.33 603.19,-568.92"/>
<polygon fill="#63b8ff" stroke="#63b8ff" points="604.23,-572.26 612.82,-566.05 602.24,-565.55 604.23,-572.26"/>
</a>
</g>
</g>
<!-- Node5 -->
<g id="Node000005" class="node">
<title>Node5</title>
<g id="a_Node000005"><a xlink:href="goto__functions_8h.html" target="_top" xlink:title="Goto Programs with Functions.">
<polygon fill="white" stroke="#666666" points="766.5,-690 653.5,-690 653.5,-660 766.5,-660 766.5,-690"/>
<text text-anchor="start" x="661.5" y="-678" font-family="Helvetica,sans-Serif" font-size="10.00">goto&#45;programs/goto</text>
<text text-anchor="middle" x="710" y="-667" font-family="Helvetica,sans-Serif" font-size="10.00">_functions.h</text>
</a>
</g>
</g>
<!-- Node2&#45;&gt;Node5 -->
<g id="edge4_Node000002_Node000005" class="edge">
<title>Node2&#45;&gt;Node5</title>
<g id="a_edge4_Node000002_Node000005"><a xlink:title=" ">
<path fill="none" stroke="#63b8ff" d="M669.08,-725.87C675.11,-718.52 684.04,-707.63 692.02,-697.91"/>
<polygon fill="#63b8ff" stroke="#63b8ff" points="694.78,-700.07 698.42,-690.11 689.37,-695.63 694.78,-700.07"/>
</a>
</g>
</g>
<!-- Node6 -->
<g id="Node000006" class="node">
<title>Node6</title>
<g id="a_Node000006"><a xlink:href="goto__function_8h.html" target="_top" xlink:title="Goto Function.">
<polygon fill="white" stroke="#666666" points="839,-624 747,-624 747,-605 839,-605 839,-624"/>
<text text-anchor="middle" x="793" y="-612" font-family="Helvetica,sans-Serif" font-size="10.00">goto_function.h</text>
</a>
</g>
</g>
<!-- Node5&#45;&gt;Node6 -->
<g id="edge5_Node000005_Node000006" class="edge">
<title>Node5&#45;&gt;Node6</title>
<g id="a_edge5_Node000005_Node000006"><a xlink:title=" ">
<path fill="none" stroke="#63b8ff" d="M730.09,-659.84C742.88,-650.83 759.4,-639.18 772.3,-630.09"/>
<polygon fill="#63b8ff" stroke="#63b8ff" points="774.41,-632.89 780.56,-624.27 770.37,-627.17 774.41,-632.89"/>
</a>
</g>
</g>
<!-- Node52 -->
<g id="Node000052" class="node">
<title>Node52</title>
<g id="a_Node000052"><a xlink:href="cprover__prefix_8h.html" target="_top" xlink:title=" ">
<polygon fill="white" stroke="#666666" points="673,-624 559,-624 559,-605 673,-605 673,-624"/>
<text text-anchor="middle" x="616" y="-612" font-family="Helvetica,sans-Serif" font-size="10.00">util/cprover_prefix.h</text>
</a>
</g>
</g>
<!-- Node5&#45;&gt;Node52 -->
<g id="edge57_Node000005_Node000052" class="edge">
<title>Node5&#45;&gt;Node52</title>
<g id="a_edge57_Node000005_Node000052"><a xlink:title=" ">
<path fill="none" stroke="#63b8ff" d="M687.25,-659.84C672.4,-650.6 653.1,-638.59 638.34,-629.4"/>
<polygon fill="#63b8ff" stroke="#63b8ff" points="640.15,-626.41 629.81,-624.09 636.45,-632.35 640.15,-626.41"/>
</a>
</g>
</g>
<!-- Node53 -->
<g id="Node000053" class="node">
<title>Node53</title>
<g id="a_Node000053"><a xlink:title=" ">
<polygon fill="#e0e0e0" stroke="#999999" points="729,-624 691,-624 691,-605 729,-605 729,-624"/>
<text text-anchor="middle" x="710" y="-612" font-family="Helvetica,sans-Serif" font-size="10.00">map</text>
</a>
</g>
</g>
<!-- Node5&#45;&gt;Node53 -->
<g id="edge58_Node000005_Node000053" class="edge">
<title>Node5&#45;&gt;Node53</title>
<g id="a_edge58_Node000005_Node000053"><a xlink:title=" ">
<path fill="none" stroke="#63b8ff" d="M710,-659.84C710,-652.21 710,-642.7 710,-634.45"/>
<polygon fill="#63b8ff" stroke="#63b8ff" points="713.5,-634.27 710,-624.27 706.5,-634.27 713.5,-634.27"/>
</a>
</g>
</g>
<!-- Node7 -->
<g id="Node000007" class="node">
<title>Node7</title>
<g id="a_Node000007"><a xlink:href="std__types_8h.html" target="_top" xlink:title="Pre&#45;defined types.">
<polygon fill="white" stroke="#666666" points="434,-404 342,-404 342,-385 434,-385 434,-404"/>
<text text-anchor="middle" x="388" y="-392" font-family="Helvetica,sans-Serif" font-size="10.00">util/std_types.h</text>
</a>
</g>
</g>
<!-- Node6&#45;&gt;Node7 -->
<g id="edge6_Node000006_Node000007" class="edge">
<title>Node6&#45;&gt;Node7</title>
<g id="a_edge6_Node000006_Node000007"><a xlink:title=" ">
<path fill="none" stroke="#63b8ff" d="M746.83,-605.12C663.99,-589.3 494.59,-553.08 450,-514 422.2,-489.63 429.22,-472.72 412,-440 407.29,-431.05 401.96,-421.15 397.52,-412.96"/>
<polygon fill="#63b8ff" stroke="#63b8ff" points="400.5,-411.12 392.65,-404 394.35,-414.46 400.5,-411.12"/>
</a>
</g>
</g>
<!-- Node46 -->
<g id="Node000046" class="node">
<title>Node46</title>
<g id="a_Node000046"><a xlink:href="goto__program_8h.html" target="_top" xlink:title="Concrete Goto Program.">
<polygon fill="white" stroke="#666666" points="894,-569 800,-569 800,-550 894,-550 894,-569"/>
<text text-anchor="middle" x="847" y="-557" font-family="Helvetica,sans-Serif" font-size="10.00">goto_program.h</text>
</a>
</g>
</g>
<!-- Node6&#45;&gt;Node46 -->
<g id="edge39_Node000006_Node000046" class="edge">
<title>Node6&#45;&gt;Node46</title>
<g id="a_edge39_Node000006_Node000046"><a xlink:title=" ">
<path fill="none" stroke="#63b8ff" d="M801.92,-604.75C809.78,-597.03 821.43,-585.6 830.92,-576.28"/>
<polygon fill="#63b8ff" stroke="#63b8ff" points="833.56,-578.59 838.25,-569.09 828.66,-573.6 833.56,-578.59"/>
</a>
</g>
</g>
<!-- Node8 -->
<g id="Node000008" class="node">
<title>Node8</title>
<g id="a_Node000008"><a xlink:href="expr_8h.html" target="_top" xlink:title=" ">
<polygon fill="white" stroke="#666666" points="349.5,-294 302.5,-294 302.5,-275 349.5,-275 349.5,-294"/>
<text text-anchor="middle" x="326" y="-282" font-family="Helvetica,sans-Serif" font-size="10.00">expr.h</text>
</a>
</g>
</g>
<!-- Node7&#45;&gt;Node8 -->
<g id="edge7_Node000007_Node000008" class="edge">
<title>Node7&#45;&gt;Node8</title>
<g id="a_edge7_Node000007_Node000008"><a xlink:title=" ">
<path fill="none" stroke="#63b8ff" d="M386.54,-384.78C384.14,-372.05 378.53,-347.94 368,-330 361.64,-319.17 352.2,-308.85 343.88,-300.88"/>
<polygon fill="#63b8ff" stroke="#63b8ff" points="346.12,-298.19 336.38,-294.02 341.39,-303.36 346.12,-298.19"/>
</a>
</g>
</g>
<!-- Node16 -->
<g id="Node000016" class="node">
<title>Node16</title>
<g id="a_Node000016"><a xlink:href="src_2util_2invariant_8h.html" target="_top" xlink:title=" ">
<polygon fill="#fff0f0" stroke="red" points="722.5,-74 653.5,-74 653.5,-55 722.5,-55 722.5,-74"/>
<text text-anchor="middle" x="688" y="-62" font-family="Helvetica,sans-Serif" font-size="10.00">invariant.h</text>
</a>
</g>
</g>
<!-- Node7&#45;&gt;Node16 -->
<g id="edge32_Node000007_Node000016" class="edge">
<title>Node7&#45;&gt;Node16</title>
<g id="a_edge32_Node000007_Node000016"><a xlink:title=" ">
<path fill="none" stroke="#63b8ff" d="M393.08,-384.85C406.03,-363.47 442.32,-307.53 486,-275 518.9,-250.49 541.05,-267.04 571,-239 617.87,-195.13 596.39,-160.53 636,-110 644.82,-98.75 656.83,-88.24 667.09,-80.27"/>
<polygon fill="#63b8ff" stroke="#63b8ff" points="669.28,-83 675.19,-74.21 665.09,-77.4 669.28,-83"/>
</a>
</g>
</g>
<!-- Node36 -->
<g id="Node000036" class="node">
<title>Node36</title>
<g id="a_Node000036"><a xlink:href="validate_8h.html" target="_top" xlink:title=" ">
<polygon fill="#fff0f0" stroke="red" points="146.5,-184 81.5,-184 81.5,-165 146.5,-165 146.5,-184"/>
<text text-anchor="middle" x="114" y="-172" font-family="Helvetica,sans-Serif" font-size="10.00">validate.h</text>
</a>
</g>
</g>
<!-- Node7&#45;&gt;Node36 -->
<g id="edge37_Node000007_Node000036" class="edge">
<title>Node7&#45;&gt;Node36</title>
<g id="a_edge37_Node000007_Node000036"><a xlink:title=" ">
<path fill="none" stroke="#63b8ff" d="M350.17,-384.93C323.05,-377.79 286.28,-366.02 257,-349 193.31,-311.98 172.63,-301.1 133,-239 124.3,-225.36 119.42,-207.54 116.8,-194.26"/>
<polygon fill="#63b8ff" stroke="#63b8ff" points="120.24,-193.61 115.08,-184.35 113.34,-194.8 120.24,-193.61"/>
</a>
</g>
</g>
<!-- Node42 -->
<g id="Node000042" class="node">
<title>Node42</title>
<g id="a_Node000042"><a xlink:href="expr__cast_8h.html" target="_top" xlink:title="Templated functions to cast to specific exprt&#45;derived classes.">
<polygon fill="white" stroke="#666666" points="172.5,-349 99.5,-349 99.5,-330 172.5,-330 172.5,-349"/>
<text text-anchor="middle" x="136" y="-337" font-family="Helvetica,sans-Serif" font-size="10.00">expr_cast.h</text>
</a>
</g>
</g>
<!-- Node7&#45;&gt;Node42 -->
<g id="edge26_Node000007_Node000042" class="edge">
<title>Node7&#45;&gt;Node42</title>
<g id="a_edge26_Node000007_Node000042"><a xlink:title=" ">
<path fill="none" stroke="#63b8ff" d="M347.51,-384.98C302.53,-375.53 230.03,-360.28 182.69,-350.32"/>
<polygon fill="#63b8ff" stroke="#63b8ff" points="183.21,-346.85 172.7,-348.22 181.77,-353.7 183.21,-346.85"/>
</a>
</g>
</g>
<!-- Node44 -->
<g id="Node000044" class="node">
<title>Node44</title>
<g id="a_Node000044"><a xlink:href="mp__arith_8h.html" target="_top" xlink:title=" ">
<polygon fill="white" stroke="#666666" points="634.5,-349 565.5,-349 565.5,-330 634.5,-330 634.5,-349"/>
<text text-anchor="middle" x="600" y="-337" font-family="Helvetica,sans-Serif" font-size="10.00">mp_arith.h</text>
</a>
</g>
</g>
<!-- Node7&#45;&gt;Node44 -->
<g id="edge33_Node000007_Node000044" class="edge">
<title>Node7&#45;&gt;Node44</title>
<g id="a_edge33_Node000007_Node000044"><a xlink:title=" ">
<path fill="none" stroke="#63b8ff" d="M422.06,-384.98C458.42,-375.89 516.17,-361.46 555.97,-351.51"/>
<polygon fill="#63b8ff" stroke="#63b8ff" points="556.82,-354.9 565.67,-349.08 555.12,-348.11 556.82,-354.9"/>
</a>
</g>
</g>
<!-- Node27 -->
<g id="Node000027" class="node">
<title>Node27</title>
<g id="a_Node000027"><a xlink:title=" ">
<polygon fill="#e0e0e0" stroke="#999999" points="359.5,-349 266.5,-349 266.5,-330 359.5,-330 359.5,-349"/>
<text text-anchor="middle" x="313" y="-337" font-family="Helvetica,sans-Serif" font-size="10.00">unordered_map</text>
</a>
</g>
</g>
<!-- Node7&#45;&gt;Node27 -->
<g id="edge38_Node000007_Node000027" class="edge">
<title>Node7&#45;&gt;Node27</title>
<g id="a_edge38_Node000007_Node000027"><a xlink:title=" ">
<path fill="none" stroke="#63b8ff" d="M375.95,-384.98C364.54,-376.92 347.17,-364.65 333.57,-355.03"/>
<polygon fill="#63b8ff" stroke="#63b8ff" points="335.46,-352.08 325.27,-349.17 331.42,-357.8 335.46,-352.08"/>
</a>
</g>
</g>
<!-- Node9 -->
<g id="Node000009" class="node">
<title>Node9</title>
<g id="a_Node000009"><a xlink:href="as__const_8h.html" target="_top" xlink:title=" ">
<polygon fill="white" stroke="#666666" points="398,-239 330,-239 330,-220 398,-220 398,-239"/>
<text text-anchor="middle" x="364" y="-227" font-family="Helvetica,sans-Serif" font-size="10.00">as_const.h</text>
</a>
</g>
</g>
<!-- Node8&#45;&gt;Node9 -->
<g id="edge8_Node000008_Node000009" class="edge">
<title>Node8&#45;&gt;Node9</title>
<g id="a_edge8_Node000008_Node000009"><a xlink:title=" ">
<path fill="none" stroke="#63b8ff" d="M332.27,-274.75C337.59,-267.34 345.36,-256.5 351.88,-247.41"/>
<polygon fill="#63b8ff" stroke="#63b8ff" points="354.86,-249.26 357.84,-239.09 349.17,-245.18 354.86,-249.26"/>
</a>
</g>
</g>
<!-- Node10 -->
<g id="Node000010" class="node">
<title>Node10</title>
<g id="a_Node000010"><a xlink:href="type_8h.html" target="_top" xlink:title="Defines typet, type_with_subtypet and type_with_subtypest.">
<polygon fill="white" stroke="#666666" points="311.5,-239 264.5,-239 264.5,-220 311.5,-220 311.5,-239"/>
<text text-anchor="middle" x="288" y="-227" font-family="Helvetica,sans-Serif" font-size="10.00">type.h</text>
</a>
</g>
</g>
<!-- Node8&#45;&gt;Node10 -->
<g id="edge9_Node000008_Node000010" class="edge">
<title>Node8&#45;&gt;Node10</title>
<g id="a_edge9_Node000008_Node000010"><a xlink:title=" ">
<path fill="none" stroke="#63b8ff" d="M319.73,-274.75C314.41,-267.34 306.64,-256.5 300.12,-247.41"/>
<polygon fill="#63b8ff" stroke="#63b8ff" points="302.83,-245.18 294.16,-239.09 297.14,-249.26 302.83,-245.18"/>
</a>
</g>
</g>
<!-- Node38 -->
<g id="Node000038" class="node">
<title>Node38</title>
<g id="a_Node000038"><a xlink:href="validation__mode_8h.html" target="_top" xlink:title=" ">
<polygon fill="white" stroke="#666666" points="289.5,-129 182.5,-129 182.5,-110 289.5,-110 289.5,-129"/>
<text text-anchor="middle" x="236" y="-117" font-family="Helvetica,sans-Serif" font-size="10.00">validation_mode.h</text>
</a>
</g>
</g>
<!-- Node8&#45;&gt;Node38 -->
<g id="edge24_Node000008_Node000038" class="edge">
<title>Node8&#45;&gt;Node38</title>
<g id="a_edge24_Node000008_Node000038"><a xlink:title=" ">
<path fill="none" stroke="#63b8ff" d="M302.75,-274.98C286.71,-267.86 266.33,-256.1 255,-239 234.84,-208.56 233.38,-164.26 234.46,-139.35"/>
<polygon fill="#63b8ff" stroke="#63b8ff" points="237.97,-139.3 235.1,-129.1 230.98,-138.86 237.97,-139.3"/>
</a>
</g>
</g>
<!-- Node39 -->
<g id="Node000039" class="node">
<title>Node39</title>
<g id="a_Node000039"><a xlink:href="validate__types_8h.html" target="_top" xlink:title=" ">
<polygon fill="white" stroke="#666666" points="496,-184 398,-184 398,-165 496,-165 496,-184"/>
<text text-anchor="middle" x="447" y="-172" font-family="Helvetica,sans-Serif" font-size="10.00">validate_types.h</text>
</a>
</g>
</g>
<!-- Node8&#45;&gt;Node39 -->
<g id="edge23_Node000008_Node000039" class="edge">
<title>Node8&#45;&gt;Node39</title>
<g id="a_edge23_Node000008_Node000039"><a xlink:title=" ">
<path fill="none" stroke="#63b8ff" d="M349.88,-282.53C403,-279.83 528.29,-270.21 554,-239 574.36,-214.28 535.25,-196.9 498.73,-186.64"/>
<polygon fill="#63b8ff" stroke="#63b8ff" points="499.61,-183.25 489.04,-184.06 497.81,-190.02 499.61,-183.25"/>
</a>
</g>
</g>
<!-- Node40 -->
<g id="Node000040" class="node">
<title>Node40</title>
<g id="a_Node000040"><a xlink:href="validate__expressions_8h.html" target="_top" xlink:title=" ">
<polygon fill="white" stroke="#666666" points="545.5,-239 416.5,-239 416.5,-220 545.5,-220 545.5,-239"/>
<text text-anchor="middle" x="481" y="-227" font-family="Helvetica,sans-Serif" font-size="10.00">validate_expressions.h</text>
</a>
</g>
</g>
<!-- Node8&#45;&gt;Node40 -->
<g id="edge22_Node000008_Node000040" class="edge">
<title>Node8&#45;&gt;Node40</title>
<g id="a_edge22_Node000008_Node000040"><a xlink:title=" ">
<path fill="none" stroke="#63b8ff" d="M349.54,-275.45C375.33,-266.63 416.96,-252.4 446.45,-242.31"/>
<polygon fill="#63b8ff" stroke="#63b8ff" points="447.62,-245.61 455.95,-239.07 445.36,-238.99 447.62,-245.61"/>
</a>
</g>
</g>
<!-- Node41 -->
<g id="Node000041" class="node">
<title>Node41</title>
<g id="a_Node000041"><a xlink:title=" ">
<polygon fill="#e0e0e0" stroke="#999999" points="207.5,-239 142.5,-239 142.5,-220 207.5,-220 207.5,-239"/>
<text text-anchor="middle" x="175" y="-227" font-family="Helvetica,sans-Serif" font-size="10.00">functional</text>
</a>
</g>
</g>
<!-- Node8&#45;&gt;Node41 -->
<g id="edge25_Node000008_Node000041" class="edge">
<title>Node8&#45;&gt;Node41</title>
<g id="a_edge25_Node000008_Node000041"><a xlink:title=" ">
<path fill="none" stroke="#63b8ff" d="M302.41,-275.22C277.33,-266.42 237.44,-252.42 208.98,-242.43"/>
<polygon fill="#63b8ff" stroke="#63b8ff" points="210.02,-239.08 199.43,-239.07 207.71,-245.69 210.02,-239.08"/>
</a>
</g>
</g>
<!-- Node11 -->
<g id="Node000011" class="node">
<title>Node11</title>
<g id="a_Node000011"><a xlink:href="source__location_8h.html" target="_top" xlink:title=" ">
<polygon fill="#fff0f0" stroke="red" points="1014,-184 912,-184 912,-165 1014,-165 1014,-184"/>
<text text-anchor="middle" x="963" y="-172" font-family="Helvetica,sans-Serif" font-size="10.00">source_location.h</text>
</a>
</g>
</g>
<!-- Node10&#45;&gt;Node11 -->
<g id="edge10_Node000010_Node000011" class="edge">
<title>Node10&#45;&gt;Node11</title>
<g id="a_edge10_Node000010_Node000011"><a xlink:title=" ">
<path fill="none" stroke="#63b8ff" d="M311.68,-221.83C314.8,-221.12 317.96,-220.48 321,-220 573.29,-180.06 642.82,-209.11 901.7,-183.93"/>
<polygon fill="#63b8ff" stroke="#63b8ff" points="902.17,-187.4 911.78,-182.93 901.48,-180.43 902.17,-187.4"/>
</a>
</g>
</g>
<!-- Node10&#45;&gt;Node36 -->
<g id="edge17_Node000010_Node000036" class="edge">
<title>Node10&#45;&gt;Node36</title>
<g id="a_edge17_Node000010_Node000036"><a xlink:title=" ">
<path fill="none" stroke="#63b8ff" d="M264.17,-221.24C235.2,-212.42 185.95,-197.42 151.79,-187.01"/>
<polygon fill="#63b8ff" stroke="#63b8ff" points="152.73,-183.64 142.14,-184.07 150.69,-190.33 152.73,-183.64"/>
</a>
</g>
</g>
<!-- Node10&#45;&gt;Node38 -->
<g id="edge21_Node000010_Node000038" class="edge">
<title>Node10&#45;&gt;Node38</title>
<g id="a_edge21_Node000010_Node000038"><a xlink:title=" ">
<path fill="none" stroke="#63b8ff" d="M283.74,-219.66C275.21,-201.93 255.85,-161.73 244.58,-138.32"/>
<polygon fill="#63b8ff" stroke="#63b8ff" points="247.66,-136.65 240.17,-129.16 241.35,-139.69 247.66,-136.65"/>
</a>
</g>
</g>
<!-- Node10&#45;&gt;Node39 -->
<g id="edge20_Node000010_Node000039" class="edge">
<title>Node10&#45;&gt;Node39</title>
<g id="a_edge20_Node000010_Node000039"><a xlink:title=" ">
<path fill="none" stroke="#63b8ff" d="M311.8,-220.57C338.27,-211.74 381.28,-197.41 411.67,-187.28"/>
<polygon fill="#63b8ff" stroke="#63b8ff" points="413.07,-190.5 421.45,-184.02 410.86,-183.86 413.07,-190.5"/>
</a>
</g>
</g>
<!-- Node13 -->
<g id="Node000013" class="node">
<title>Node13</title>
<g id="a_Node000013"><a xlink:href="irep_8h.html" target="_top" xlink:title=" ">
<polygon fill="#fff0f0" stroke="red" points="874,-129 830,-129 830,-110 874,-110 874,-129"/>
<text text-anchor="middle" x="852" y="-117" font-family="Helvetica,sans-Serif" font-size="10.00">irep.h</text>
</a>
</g>
</g>
<!-- Node11&#45;&gt;Node13 -->
<g id="edge11_Node000011_Node000013" class="edge">
<title>Node11&#45;&gt;Node13</title>
<g id="a_edge11_Node000011_Node000013"><a xlink:title=" ">
<path fill="none" stroke="#63b8ff" d="M945.17,-164.98C927.39,-156.5 899.85,-143.35 879.32,-133.54"/>
<polygon fill="#63b8ff" stroke="#63b8ff" points="880.69,-130.32 870.16,-129.17 877.67,-136.64 880.69,-130.32"/>
</a>
</g>
</g>
<!-- Node14 -->
<g id="Node000014" class="node">
<title>Node14</title>
<g id="a_Node000014"><a xlink:title=" ">
<polygon fill="#e0e0e0" stroke="#999999" points="874,-19 830,-19 830,0 874,0 874,-19"/>
<text text-anchor="middle" x="852" y="-7" font-family="Helvetica,sans-Serif" font-size="10.00">string</text>
</a>
</g>
</g>
<!-- Node11&#45;&gt;Node14 -->
<g id="edge16_Node000011_Node000014" class="edge">
<title>Node11&#45;&gt;Node14</title>
<g id="a_edge16_Node000011_Node000014"><a xlink:title=" ">
<path fill="none" stroke="#63b8ff" d="M957.03,-164.74C939.42,-138.87 887.4,-62.48 863.84,-27.88"/>
<polygon fill="#63b8ff" stroke="#63b8ff" points="866.52,-25.6 858,-19.31 860.73,-29.54 866.52,-25.6"/>
</a>
</g>
</g>
<!-- Node13&#45;&gt;Node14 -->
<g id="edge12_Node000013_Node000014" class="edge">
<title>Node13&#45;&gt;Node14</title>
<g id="a_edge12_Node000013_Node000014"><a xlink:title=" ">
<path fill="none" stroke="#63b8ff" d="M852,-109.66C852,-92.17 852,-52.8 852,-29.27"/>
<polygon fill="#63b8ff" stroke="#63b8ff" points="855.5,-29.16 852,-19.16 848.5,-29.16 855.5,-29.16"/>
</a>
</g>
</g>
<!-- Node13&#45;&gt;Node16 -->
<g id="edge13_Node000013_Node000016" class="edge">
<title>Node13&#45;&gt;Node16</title>
<g id="a_edge13_Node000013_Node000016"><a xlink:title=" ">
<path fill="none" stroke="#63b8ff" d="M829.88,-111.35C802.7,-102.57 756.23,-87.55 723.91,-77.1"/>
<polygon fill="#63b8ff" stroke="#63b8ff" points="724.96,-73.77 714.37,-74.02 722.81,-80.43 724.96,-73.77"/>
</a>
</g>
</g>
<!-- Node16&#45;&gt;Node14 -->
<g id="edge14_Node000016_Node000014" class="edge">
<title>Node16&#45;&gt;Node14</title>
<g id="a_edge14_Node000016_Node000014"><a xlink:title=" ">
<path fill="none" stroke="#63b8ff" d="M714.35,-54.98C743.15,-45.68 789.28,-30.77 820.1,-20.81"/>
<polygon fill="#63b8ff" stroke="#63b8ff" points="821.48,-24.04 829.92,-17.63 819.33,-17.38 821.48,-24.04"/>
</a>
</g>
</g>
<!-- Node19 -->
<g id="Node000019" class="node">
<title>Node19</title>
<g id="a_Node000019"><a xlink:title=" ">
<polygon fill="#e0e0e0" stroke="#999999" points="72.5,-19 3.5,-19 3.5,0 72.5,0 72.5,-19"/>
<text text-anchor="middle" x="38" y="-7" font-family="Helvetica,sans-Serif" font-size="10.00">type_traits</text>
</a>
</g>
</g>
<!-- Node16&#45;&gt;Node19 -->
<g id="edge15_Node000016_Node000019" class="edge">
<title>Node16&#45;&gt;Node19</title>
<g id="a_edge15_Node000016_Node000019"><a xlink:title=" ">
<path fill="none" stroke="#63b8ff" d="M653.05,-60.65C543.26,-51.7 205.29,-24.14 82.87,-14.16"/>
<polygon fill="#63b8ff" stroke="#63b8ff" points="82.98,-10.66 72.72,-13.33 82.41,-17.63 82.98,-10.66"/>
</a>
</g>
</g>
<!-- Node36&#45;&gt;Node19 -->
<g id="edge18_Node000036_Node000019" class="edge">
<title>Node36&#45;&gt;Node19</title>
<g id="a_edge18_Node000036_Node000019"><a xlink:title=" ">
<path fill="none" stroke="#63b8ff" d="M109.91,-164.74C97.95,-139.09 62.84,-63.78 46.52,-28.78"/>
<polygon fill="#63b8ff" stroke="#63b8ff" points="49.5,-26.89 42.11,-19.31 43.16,-29.85 49.5,-26.89"/>
</a>
</g>
</g>
<!-- Node36&#45;&gt;Node38 -->
<g id="edge19_Node000036_Node000038" class="edge">
<title>Node36&#45;&gt;Node38</title>
<g id="a_edge19_Node000036_Node000038"><a xlink:title=" ">
<path fill="none" stroke="#63b8ff" d="M133.6,-164.98C153.32,-156.42 183.95,-143.11 206.58,-133.28"/>
<polygon fill="#63b8ff" stroke="#63b8ff" points="208.26,-136.37 216.04,-129.17 205.48,-129.94 208.26,-136.37"/>
</a>
</g>
</g>
<!-- Node42&#45;&gt;Node8 -->
<g id="edge31_Node000042_Node000008" class="edge">
<title>Node42&#45;&gt;Node8</title>
<g id="a_edge31_Node000042_Node000008"><a xlink:title=" ">
<path fill="none" stroke="#63b8ff" d="M166.53,-329.98C200.99,-320.37 256.9,-304.78 292.53,-294.84"/>
<polygon fill="#63b8ff" stroke="#63b8ff" points="293.76,-298.13 302.45,-292.07 291.88,-291.38 293.76,-298.13"/>
</a>
</g>
</g>
<!-- Node42&#45;&gt;Node16 -->
<g id="edge30_Node000042_Node000016" class="edge">
<title>Node42&#45;&gt;Node16</title>
<g id="a_edge30_Node000042_Node000016"><a xlink:title=" ">
<path fill="none" stroke="#63b8ff" d="M112.22,-329.92C96.57,-322.89 77.33,-311.25 68,-294 53.84,-267.82 -4.37,-288.39 72,-165 98.9,-121.54 124.06,-124.73 173,-110 260.43,-83.68 534.22,-71.09 642.9,-67.03"/>
<polygon fill="#63b8ff" stroke="#63b8ff" points="643.33,-70.51 653.19,-66.65 643.07,-63.52 643.33,-70.51"/>
</a>
</g>
</g>
<!-- Node42&#45;&gt;Node19 -->
<g id="edge28_Node000042_Node000019" class="edge">
<title>Node42&#45;&gt;Node19</title>
<g id="a_edge28_Node000042_Node000019"><a xlink:title=" ">
<path fill="none" stroke="#63b8ff" d="M107.16,-329.95C67.24,-316.12 0,-284.77 0,-230.5 0,-230.5 0,-230.5 0,-118.5 0,-85.02 16.45,-48.84 27.7,-28.01"/>
<polygon fill="#63b8ff" stroke="#63b8ff" points="30.87,-29.53 32.72,-19.1 24.76,-26.1 30.87,-29.53"/>
</a>
</g>
</g>
<!-- Node42&#45;&gt;Node41 -->
<g id="edge29_Node000042_Node000041" class="edge">
<title>Node42&#45;&gt;Node41</title>
<g id="a_edge29_Node000042_Node000041"><a xlink:title=" ">
<path fill="none" stroke="#63b8ff" d="M139.19,-329.66C145.57,-312.01 159.98,-272.09 168.45,-248.64"/>
<polygon fill="#63b8ff" stroke="#63b8ff" points="171.77,-249.75 171.87,-239.16 165.18,-247.38 171.77,-249.75"/>
</a>
</g>
</g>
<!-- Node43 -->
<g id="Node000043" class="node">
<title>Node43</title>
<g id="a_Node000043"><a xlink:title=" ">
<polygon fill="#e0e0e0" stroke="#999999" points="134.5,-294 77.5,-294 77.5,-275 134.5,-275 134.5,-294"/>
<text text-anchor="middle" x="106" y="-282" font-family="Helvetica,sans-Serif" font-size="10.00">typeinfo</text>
</a>
</g>
</g>
<!-- Node42&#45;&gt;Node43 -->
<g id="edge27_Node000042_Node000043" class="edge">
<title>Node42&#45;&gt;Node43</title>
<g id="a_edge27_Node000042_Node000043"><a xlink:title=" ">
<path fill="none" stroke="#63b8ff" d="M131.05,-329.75C126.94,-322.49 120.97,-311.95 115.9,-302.98"/>
<polygon fill="#63b8ff" stroke="#63b8ff" points="118.83,-301.07 110.86,-294.09 112.74,-304.52 118.83,-301.07"/>
</a>
</g>
</g>
<!-- Node44&#45;&gt;Node14 -->
<g id="edge35_Node000044_Node000014" class="edge">
<title>Node44&#45;&gt;Node14</title>
<g id="a_edge35_Node000044_Node000014"><a xlink:title=" ">
<path fill="none" stroke="#63b8ff" d="M606.74,-329.73C640.76,-285.44 793.8,-86.26 839.24,-27.11"/>
<polygon fill="#63b8ff" stroke="#63b8ff" points="842.04,-29.21 845.36,-19.15 836.49,-24.95 842.04,-29.21"/>
</a>
</g>
</g>
<!-- Node22 -->
<g id="Node000022" class="node">
<title>Node22</title>
<g id="a_Node000022"><a xlink:title=" ">
<polygon fill="#e0e0e0" stroke="#999999" points="764,-294 716,-294 716,-275 764,-275 764,-294"/>
<text text-anchor="middle" x="740" y="-282" font-family="Helvetica,sans-Serif" font-size="10.00">iosfwd</text>
</a>
</g>
</g>
<!-- Node44&#45;&gt;Node22 -->
<g id="edge34_Node000044_Node000022" class="edge">
<title>Node44&#45;&gt;Node22</title>
<g id="a_edge34_Node000044_Node000022"><a xlink:title=" ">
<path fill="none" stroke="#63b8ff" d="M622.49,-329.98C645.52,-321.27 681.54,-307.63 707.63,-297.75"/>
<polygon fill="#63b8ff" stroke="#63b8ff" points="708.98,-300.98 717.1,-294.17 706.51,-294.44 708.98,-300.98"/>
</a>
</g>
</g>
<!-- Node45 -->
<g id="Node000045" class="node">
<title>Node45</title>
<g id="a_Node000045"><a xlink:title=" ">
<polygon fill="#e0e0e0" stroke="#999999" points="622,-294 528,-294 528,-275 622,-275 622,-294"/>
<text text-anchor="middle" x="575" y="-282" font-family="Helvetica,sans-Serif" font-size="10.00">big&#45;int/bigint.hh</text>
</a>
</g>
</g>
<!-- Node44&#45;&gt;Node45 -->
<g id="edge36_Node000044_Node000045" class="edge">
<title>Node44&#45;&gt;Node45</title>
<g id="a_edge36_Node000044_Node000045"><a xlink:title=" ">
<path fill="none" stroke="#63b8ff" d="M595.87,-329.75C592.49,-322.57 587.58,-312.18 583.38,-303.27"/>
<polygon fill="#63b8ff" stroke="#63b8ff" points="586.48,-301.64 579.05,-294.09 580.15,-304.63 586.48,-301.64"/>
</a>
</g>
</g>
<!-- Node46&#45;&gt;Node11 -->
<g id="edge41_Node000046_Node000011" class="edge">
<title>Node46&#45;&gt;Node11</title>
<g id="a_edge41_Node000046_Node000011"><a xlink:title=" ">
<path fill="none" stroke="#63b8ff" d="M886.83,-549.99C908.28,-543.5 933.63,-532.41 950,-514 969.58,-491.99 969,-479.96 969,-450.5 969,-450.5 969,-450.5 969,-283.5 969,-252.14 966.45,-215.74 964.67,-194.22"/>
<polygon fill="#63b8ff" stroke="#63b8ff" points="968.15,-193.83 963.81,-184.17 961.18,-194.43 968.15,-193.83"/>
</a>
</g>
</g>
<!-- Node46&#45;&gt;Node14 -->
<g id="edge56_Node000046_Node000014" class="edge">
<title>Node46&#45;&gt;Node14</title>
<g id="a_edge56_Node000046_Node000014"><a xlink:title=" ">
<path fill="none" stroke="#63b8ff" d="M894.02,-551.95C919.87,-546.06 950.71,-534.94 971,-514 1045.29,-437.34 1045,-392.25 1045,-285.5 1045,-285.5 1045,-285.5 1045,-118.5 1045,-45.64 938.95,-21.45 884.07,-13.81"/>
<polygon fill="#63b8ff" stroke="#63b8ff" points="884.5,-10.34 874.14,-12.54 883.61,-17.28 884.5,-10.34"/>
</a>
</g>
</g>
<!-- Node46&#45;&gt;Node16 -->
<g id="edge40_Node000046_Node000016" class="edge">
<title>Node46&#45;&gt;Node16</title>
<g id="a_edge40_Node000046_Node000016"><a xlink:title=" ">
<path fill="none" stroke="#63b8ff" d="M828.31,-549.9C814.57,-542.48 796.81,-530.38 788,-514 737.57,-420.27 796.65,-378.77 773,-275 756.09,-200.81 716.05,-118.84 697.6,-83.42"/>
<polygon fill="#63b8ff" stroke="#63b8ff" points="700.58,-81.56 692.82,-74.35 694.39,-84.82 700.58,-81.56"/>
</a>
</g>
</g>
<!-- Node46&#45;&gt;Node22 -->
<g id="edge52_Node000046_Node000022" class="edge">
<title>Node46&#45;&gt;Node22</title>
<g id="a_edge52_Node000046_Node000022"><a xlink:title=" ">
<path fill="none" stroke="#63b8ff" d="M815.6,-549.92C795.87,-543.08 771.17,-531.67 755,-514 734.64,-491.74 731,-480.67 731,-450.5 731,-450.5 731,-450.5 731,-393.5 731,-362.08 734.83,-325.7 737.49,-304.2"/>
<polygon fill="#63b8ff" stroke="#63b8ff" points="740.98,-304.52 738.79,-294.16 734.04,-303.63 740.98,-304.52"/>
</a>
</g>
</g>
<!-- Node47 -->
<g id="Node000047" class="node">
<title>Node47</title>
<g id="a_Node000047"><a xlink:href="goto__instruction__code_8h.html" target="_top" xlink:title=" ">
<polygon fill="white" stroke="#666666" points="592.5,-514 459.5,-514 459.5,-495 592.5,-495 592.5,-514"/>
<text text-anchor="middle" x="526" y="-502" font-family="Helvetica,sans-Serif" font-size="10.00">goto_instruction_code.h</text>
</a>
</g>
</g>
<!-- Node46&#45;&gt;Node47 -->
<g id="edge42_Node000046_Node000047" class="edge">
<title>Node46&#45;&gt;Node47</title>
<g id="a_edge42_Node000046_Node000047"><a xlink:title=" ">
<path fill="none" stroke="#63b8ff" d="M799.98,-550.74C743.81,-541.46 649.68,-525.92 587.71,-515.69"/>
<polygon fill="#63b8ff" stroke="#63b8ff" points="588.11,-512.21 577.67,-514.03 586.96,-519.11 588.11,-512.21"/>
</a>
</g>
</g>
<!-- Node50 -->
<g id="Node000050" class="node">
<title>Node50</title>
<g id="a_Node000050"><a xlink:title=" ">
<polygon fill="#e0e0e0" stroke="#999999" points="841,-514 797,-514 797,-495 841,-495 841,-514"/>
<text text-anchor="middle" x="819" y="-502" font-family="Helvetica,sans-Serif" font-size="10.00">limits</text>
</a>
</g>
</g>
<!-- Node46&#45;&gt;Node50 -->
<g id="edge53_Node000046_Node000050" class="edge">
<title>Node46&#45;&gt;Node50</title>
<g id="a_edge53_Node000046_Node000050"><a xlink:title=" ">
<path fill="none" stroke="#63b8ff" d="M842.38,-549.75C838.54,-542.49 832.98,-531.95 828.24,-522.98"/>
<polygon fill="#63b8ff" stroke="#63b8ff" points="831.3,-521.3 823.54,-514.09 825.11,-524.57 831.3,-521.3"/>
</a>
</g>
</g>
<!-- Node26 -->
<g id="Node000026" class="node">
<title>Node26</title>
<g id="a_Node000026"><a xlink:title=" ">
<polygon fill="#e0e0e0" stroke="#999999" points="891,-514 859,-514 859,-495 891,-495 891,-514"/>
<text text-anchor="middle" x="875" y="-502" font-family="Helvetica,sans-Serif" font-size="10.00">list</text>
</a>
</g>
</g>
<!-- Node46&#45;&gt;Node26 -->
<g id="edge54_Node000046_Node000026" class="edge">
<title>Node46&#45;&gt;Node26</title>
<g id="a_edge54_Node000046_Node000026"><a xlink:title=" ">
<path fill="none" stroke="#63b8ff" d="M851.62,-549.75C855.46,-542.49 861.02,-531.95 865.76,-522.98"/>
<polygon fill="#63b8ff" stroke="#63b8ff" points="868.89,-524.57 870.46,-514.09 862.7,-521.3 868.89,-524.57"/>
</a>
</g>
</g>
<!-- Node51 -->
<g id="Node000051" class="node">
<title>Node51</title>
<g id="a_Node000051"><a xlink:title=" ">
<polygon fill="#e0e0e0" stroke="#999999" points="941,-514 909,-514 909,-495 941,-495 941,-514"/>
<text text-anchor="middle" x="925" y="-502" font-family="Helvetica,sans-Serif" font-size="10.00">set</text>
</a>
</g>
</g>
<!-- Node46&#45;&gt;Node51 -->
<g id="edge55_Node000046_Node000051" class="edge">
<title>Node46&#45;&gt;Node51</title>
<g id="a_edge55_Node000046_Node000051"><a xlink:title=" ">
<path fill="none" stroke="#63b8ff" d="M859.53,-549.98C871.4,-541.92 889.46,-529.65 903.61,-520.03"/>
<polygon fill="#63b8ff" stroke="#63b8ff" points="905.94,-522.69 912.24,-514.17 902,-516.9 905.94,-522.69"/>
</a>
</g>
</g>
<!-- Node48 -->
<g id="Node000048" class="node">
<title>Node48</title>
<g id="a_Node000048"><a xlink:href="std__code__base_8h.html" target="_top" xlink:title=" ">
<polygon fill="white" stroke="#666666" points="403,-459 287,-459 287,-440 403,-440 403,-459"/>
<text text-anchor="middle" x="345" y="-447" font-family="Helvetica,sans-Serif" font-size="10.00">util/std_code_base.h</text>
</a>
</g>
</g>
<!-- Node47&#45;&gt;Node48 -->
<g id="edge43_Node000047_Node000048" class="edge">
<title>Node47&#45;&gt;Node48</title>
<g id="a_edge43_Node000047_Node000048"><a xlink:title=" ">
<path fill="none" stroke="#63b8ff" d="M496.92,-494.98C466.4,-486.05 418.24,-471.94 384.34,-462.02"/>
<polygon fill="#63b8ff" stroke="#63b8ff" points="384.89,-458.53 374.31,-459.08 382.92,-465.25 384.89,-458.53"/>
</a>
</g>
</g>
<!-- Node49 -->
<g id="Node000049" class="node">
<title>Node49</title>
<g id="a_Node000049"><a xlink:href="std__expr_8h.html" target="_top" xlink:title="API to expression classes.">
<polygon fill="white" stroke="#666666" points="557,-459 471,-459 471,-440 557,-440 557,-459"/>
<text text-anchor="middle" x="514" y="-447" font-family="Helvetica,sans-Serif" font-size="10.00">util/std_expr.h</text>
</a>
</g>
</g>
<!-- Node47&#45;&gt;Node49 -->
<g id="edge48_Node000047_Node000049" class="edge">
<title>Node47&#45;&gt;Node49</title>
<g id="a_edge48_Node000047_Node000049"><a xlink:title=" ">
<path fill="none" stroke="#63b8ff" d="M524.02,-494.75C522.43,-487.72 520.14,-477.62 518.15,-468.84"/>
<polygon fill="#63b8ff" stroke="#63b8ff" points="521.57,-468.07 515.94,-459.09 514.74,-469.62 521.57,-468.07"/>
</a>
</g>
</g>
<!-- Node48&#45;&gt;Node7 -->
<g id="edge46_Node000048_Node000007" class="edge">
<title>Node48&#45;&gt;Node7</title>
<g id="a_edge46_Node000048_Node000007"><a xlink:title=" ">
<path fill="none" stroke="#63b8ff" d="M352.1,-439.75C358.17,-432.26 367.09,-421.28 374.51,-412.13"/>
<polygon fill="#63b8ff" stroke="#63b8ff" points="377.45,-414.06 381.03,-404.09 372.01,-409.65 377.45,-414.06"/>
</a>
</g>
</g>
<!-- Node48&#45;&gt;Node16 -->
<g id="edge45_Node000048_Node000016" class="edge">
<title>Node48&#45;&gt;Node16</title>
<g id="a_edge45_Node000048_Node000016"><a xlink:title=" ">
<path fill="none" stroke="#63b8ff" d="M375.6,-439.99C396.45,-432.99 423.69,-421.37 443,-404 492.48,-359.51 469.99,-320.01 519,-275 546.23,-249.99 567.22,-264.5 594,-239 641.69,-193.6 670.75,-118.57 682.28,-84"/>
<polygon fill="#63b8ff" stroke="#63b8ff" points="685.67,-84.87 685.41,-74.28 679.01,-82.73 685.67,-84.87"/>
</a>
</g>
</g>
<!-- Node48&#45;&gt;Node36 -->
<g id="edge47_Node000048_Node000036" class="edge">
<title>Node48&#45;&gt;Node36</title>
<g id="a_edge47_Node000048_Node000036"><a xlink:title=" ">
<path fill="none" stroke="#63b8ff" d="M287.7,-439.96C230.56,-428.61 143.77,-403.26 90,-349 65.85,-324.63 60.63,-308.51 68,-275 74.72,-244.45 91.77,-212.12 103.12,-192.88"/>
<polygon fill="#63b8ff" stroke="#63b8ff" points="106.25,-194.46 108.45,-184.09 100.27,-190.83 106.25,-194.46"/>
</a>
</g>
</g>
<!-- Node48&#45;&gt;Node42 -->
<g id="edge44_Node000048_Node000042" class="edge">
<title>Node48&#45;&gt;Node42</title>
<g id="a_edge44_Node000048_Node000042"><a xlink:title=" ">
<path fill="none" stroke="#63b8ff" d="M328.25,-439.84C291.78,-421 204.98,-376.14 161.6,-353.73"/>
<polygon fill="#63b8ff" stroke="#63b8ff" points="163.03,-350.53 152.54,-349.05 159.82,-356.75 163.03,-350.53"/>
</a>
</g>
</g>
<!-- Node49&#45;&gt;Node7 -->
<g id="edge51_Node000049_Node000007" class="edge">
<title>Node49&#45;&gt;Node7</title>
<g id="a_edge51_Node000049_Node000007"><a xlink:title=" ">
<path fill="none" stroke="#63b8ff" d="M493.76,-439.98C473.3,-431.38 441.47,-417.99 418.07,-408.15"/>
<polygon fill="#63b8ff" stroke="#63b8ff" points="419.19,-404.82 408.61,-404.17 416.47,-411.27 419.19,-404.82"/>
</a>
</g>
</g>
<!-- Node49&#45;&gt;Node16 -->
<g id="edge50_Node000049_Node000016" class="edge">
<title>Node49&#45;&gt;Node16</title>
<g id="a_edge50_Node000049_Node000016"><a xlink:title=" ">
<path fill="none" stroke="#63b8ff" d="M557.01,-441.2C608.54,-429.71 688,-402.01 688,-340.5 688,-340.5 688,-340.5 688,-173.5 688,-142.19 688,-105.77 688,-84.23"/>
<polygon fill="#63b8ff" stroke="#63b8ff" points="691.5,-84.18 688,-74.18 684.5,-84.18 691.5,-84.18"/>
</a>
</g>
</g>
<!-- Node49&#45;&gt;Node42 -->
<g id="edge49_Node000049_Node000042" class="edge">
<title>Node49&#45;&gt;Node42</title>
<g id="a_edge49_Node000049_Node000042"><a xlink:title=" ">
<path fill="none" stroke="#63b8ff" d="M476.01,-439.98C439.24,-431.55 382.03,-417.91 333,-404 275.44,-387.67 209.42,-365.72 170.29,-352.37"/>
<polygon fill="#63b8ff" stroke="#63b8ff" points="171.3,-349.01 160.71,-349.09 169.03,-355.64 171.3,-349.01"/>
</a>
</g>
</g>
<!-- Node54&#45;&gt;Node4 -->
<g id="edge64_Node000054_Node000004" class="edge">
<title>Node54&#45;&gt;Node4</title>
<g id="a_edge64_Node000054_Node000004"><a xlink:title=" ">
<path fill="none" stroke="#63b8ff" d="M869.46,-604.98C817.5,-594.82 731.37,-577.98 681.34,-568.19"/>
<polygon fill="#63b8ff" stroke="#63b8ff" points="681.72,-564.7 671.24,-566.22 680.38,-571.57 681.72,-564.7"/>
</a>
</g>
</g>
<!-- Node54&#45;&gt;Node46 -->
<g id="edge63_Node000054_Node000046" class="edge">
<title>Node54&#45;&gt;Node46</title>
<g id="a_edge63_Node000054_Node000046"><a xlink:title=" ">
<path fill="none" stroke="#63b8ff" d="M902.4,-604.98C892.54,-597.07 877.65,-585.11 865.78,-575.58"/>
<polygon fill="#63b8ff" stroke="#63b8ff" points="867.79,-572.7 857.8,-569.17 863.4,-578.16 867.79,-572.7"/>
</a>
</g>
</g>
<!-- Node55 -->
<g id="Node000055" class="node">
<title>Node55</title>
<g id="a_Node000055"><a xlink:href="namespace_8h.html" target="_top" xlink:title=" ">
<polygon fill="white" stroke="#666666" points="893.5,-184 792.5,-184 792.5,-165 893.5,-165 893.5,-184"/>
<text text-anchor="middle" x="843" y="-172" font-family="Helvetica,sans-Serif" font-size="10.00">util/namespace.h</text>
</a>
</g>
</g>
<!-- Node54&#45;&gt;Node55 -->
<g id="edge60_Node000054_Node000055" class="edge">
<title>Node54&#45;&gt;Node55</title>
<g id="a_edge60_Node000054_Node000055"><a xlink:title=" ">
<path fill="none" stroke="#63b8ff" d="M940.35,-604.92C979.01,-590.89 1045,-559.09 1045,-505.5 1045,-505.5 1045,-505.5 1045,-448.5 1045,-328.36 917.02,-226.51 864.8,-189.95"/>
<polygon fill="#63b8ff" stroke="#63b8ff" points="866.48,-186.86 856.25,-184.08 862.51,-192.63 866.48,-186.86"/>
</a>
</g>
</g>
<!-- Node55&#45;&gt;Node13 -->
<g id="edge62_Node000055_Node000013" class="edge">
<title>Node55&#45;&gt;Node13</title>
<g id="a_edge62_Node000055_Node000013"><a xlink:title=" ">
<path fill="none" stroke="#63b8ff" d="M844.49,-164.75C845.67,-157.8 847.36,-147.85 848.84,-139.13"/>
<polygon fill="#63b8ff" stroke="#63b8ff" points="852.32,-139.53 850.54,-129.09 845.42,-138.36 852.32,-139.53"/>
</a>
</g>
</g>
<!-- Node55&#45;&gt;Node16 -->
<g id="edge61_Node000055_Node000016" class="edge">
<title>Node55&#45;&gt;Node16</title>
<g id="a_edge61_Node000055_Node000016"><a xlink:title=" ">
<path fill="none" stroke="#63b8ff" d="M830.58,-164.84C804.05,-146.36 741.62,-102.86 708.88,-80.05"/>
<polygon fill="#63b8ff" stroke="#63b8ff" points="710.69,-77.04 700.48,-74.2 706.69,-82.79 710.69,-77.04"/>
</a>
</g>
</g>
</g>
</svg>
