<?xml version="1.0" encoding="UTF-8" standalone="no"?>
<!DOCTYPE svg PUBLIC "-//W3C//DTD SVG 1.1//EN"
 "http://www.w3.org/Graphics/SVG/1.1/DTD/svg11.dtd">
<!-- Generated by graphviz version 2.43.0 (0)
 -->
<!-- Title: /home/runner/work/cbmc/cbmc/src/goto&#45;instrument/cover_instrument_decision.cpp Pages: 1 -->
<svg width="1246pt" height="500pt"
 viewBox="0.00 0.00 1245.50 500.00" xmlns="http://www.w3.org/2000/svg" xmlns:xlink="http://www.w3.org/1999/xlink">
<g id="graph0" class="graph" transform="scale(1 1) rotate(0) translate(4 496)">
<title>/home/runner/work/cbmc/cbmc/src/goto&#45;instrument/cover_instrument_decision.cpp</title>
<!-- Node1 -->
<g id="Node000001" class="node">
<title>Node1</title>
<g id="a_Node000001"><a xlink:title="Coverage Instrumentation for Decisions.">
<polygon fill="#999999" stroke="#666666" points="536.5,-492 365.5,-492 365.5,-451 536.5,-451 536.5,-492"/>
<text text-anchor="start" x="373.5" y="-480" font-family="Helvetica,sans-Serif" font-size="10.00">/home/runner/work/cbmc</text>
<text text-anchor="start" x="373.5" y="-469" font-family="Helvetica,sans-Serif" font-size="10.00">/cbmc/src/goto&#45;instrument</text>
<text text-anchor="middle" x="451" y="-458" font-family="Helvetica,sans-Serif" font-size="10.00">/cover_instrument_decision.cpp</text>
</a>
</g>
</g>
<!-- Node2 -->
<g id="Node000002" class="node">
<title>Node2</title>
<g id="a_Node000002"><a xlink:href="cover__instrument_8h.html" target="_top" xlink:title="Coverage Instrumentation.">
<polygon fill="white" stroke="#666666" points="506.5,-415 395.5,-415 395.5,-396 506.5,-396 506.5,-415"/>
<text text-anchor="middle" x="451" y="-403" font-family="Helvetica,sans-Serif" font-size="10.00">cover_instrument.h</text>
</a>
</g>
</g>
<!-- Node1&#45;&gt;Node2 -->
<g id="edge1_Node000001_Node000002" class="edge">
<title>Node1&#45;&gt;Node2</title>
<g id="a_edge1_Node000001_Node000002"><a xlink:title=" ">
<path fill="none" stroke="#63b8ff" d="M451,-450.95C451,-442.85 451,-433.5 451,-425.47"/>
<polygon fill="#63b8ff" stroke="#63b8ff" points="454.5,-425.26 451,-415.26 447.5,-425.26 454.5,-425.26"/>
</a>
</g>
</g>
<!-- Node50 -->
<g id="Node000050" class="node">
<title>Node50</title>
<g id="a_Node000050"><a xlink:href="language__util_8h.html" target="_top" xlink:title=" ">
<polygon fill="white" stroke="#666666" points="217.5,-354.5 86.5,-354.5 86.5,-335.5 217.5,-335.5 217.5,-354.5"/>
<text text-anchor="middle" x="152" y="-342.5" font-family="Helvetica,sans-Serif" font-size="10.00">langapi/language_util.h</text>
</a>
</g>
</g>
<!-- Node1&#45;&gt;Node50 -->
<g id="edge68_Node000001_Node000050" class="edge">
<title>Node1&#45;&gt;Node50</title>
<g id="a_edge68_Node000001_Node000050"><a xlink:title=" ">
<path fill="none" stroke="#63b8ff" d="M403.95,-450.91C341.84,-425.05 234.28,-380.26 182.11,-358.54"/>
<polygon fill="#63b8ff" stroke="#63b8ff" points="183.31,-355.25 172.74,-354.63 180.62,-361.71 183.31,-355.25"/>
</a>
</g>
</g>
<!-- Node51 -->
<g id="Node000051" class="node">
<title>Node51</title>
<g id="a_Node000051"><a xlink:href="cover__util_8h.html" target="_top" xlink:title="Coverage Instrumentation Utilities.">
<polygon fill="white" stroke="#666666" points="649,-415 575,-415 575,-396 649,-396 649,-415"/>
<text text-anchor="middle" x="612" y="-403" font-family="Helvetica,sans-Serif" font-size="10.00">cover_util.h</text>
</a>
</g>
</g>
<!-- Node1&#45;&gt;Node51 -->
<g id="edge70_Node000001_Node000051" class="edge">
<title>Node1&#45;&gt;Node51</title>
<g id="a_edge70_Node000001_Node000051"><a xlink:title=" ">
<path fill="none" stroke="#63b8ff" d="M500.18,-450.95C526.44,-440.51 557.97,-427.98 580.84,-418.88"/>
<polygon fill="#63b8ff" stroke="#63b8ff" points="582.39,-422.04 590.39,-415.09 579.8,-415.53 582.39,-422.04"/>
</a>
</g>
</g>
<!-- Node3 -->
<g id="Node000003" class="node">
<title>Node3</title>
<g id="a_Node000003"><a xlink:href="namespace_8h.html" target="_top" xlink:title=" ">
<polygon fill="white" stroke="#666666" points="402.5,-294 301.5,-294 301.5,-275 402.5,-275 402.5,-294"/>
<text text-anchor="middle" x="352" y="-282" font-family="Helvetica,sans-Serif" font-size="10.00">util/namespace.h</text>
</a>
</g>
</g>
<!-- Node2&#45;&gt;Node3 -->
<g id="edge2_Node000002_Node000003" class="edge">
<title>Node2&#45;&gt;Node3</title>
<g id="a_edge2_Node000002_Node000003"><a xlink:title=" ">
<path fill="none" stroke="#63b8ff" d="M450.93,-395.73C450.38,-380.74 447.32,-349.88 432,-330 420.92,-315.61 403.78,-305.2 388.21,-298.09"/>
<polygon fill="#63b8ff" stroke="#63b8ff" points="389.36,-294.77 378.79,-294.07 386.62,-301.21 389.36,-294.77"/>
</a>
</g>
</g>
<!-- Node27 -->
<g id="Node000027" class="node">
<title>Node27</title>
<g id="a_Node000027"><a xlink:href="goto__program_8h.html" target="_top" xlink:title="Concrete Goto Program.">
<polygon fill="white" stroke="#666666" points="693.5,-360 580.5,-360 580.5,-330 693.5,-330 693.5,-360"/>
<text text-anchor="start" x="588.5" y="-348" font-family="Helvetica,sans-Serif" font-size="10.00">goto&#45;programs/goto</text>
<text text-anchor="middle" x="637" y="-337" font-family="Helvetica,sans-Serif" font-size="10.00">_program.h</text>
</a>
</g>
</g>
<!-- Node2&#45;&gt;Node27 -->
<g id="edge29_Node000002_Node000027" class="edge">
<title>Node2&#45;&gt;Node27</title>
<g id="a_edge29_Node000002_Node000027"><a xlink:title=" ">
<path fill="none" stroke="#63b8ff" d="M478.05,-395.99C505.28,-387.43 548.07,-373.97 582.39,-363.18"/>
<polygon fill="#63b8ff" stroke="#63b8ff" points="583.79,-366.4 592.28,-360.06 581.69,-359.73 583.79,-366.4"/>
</a>
</g>
</g>
<!-- Node49 -->
<g id="Node000049" class="node">
<title>Node49</title>
<g id="a_Node000049"><a xlink:title=" ">
<polygon fill="#e0e0e0" stroke="#999999" points="423,-354.5 365,-354.5 365,-335.5 423,-335.5 423,-354.5"/>
<text text-anchor="middle" x="394" y="-342.5" font-family="Helvetica,sans-Serif" font-size="10.00">memory</text>
</a>
</g>
</g>
<!-- Node2&#45;&gt;Node49 -->
<g id="edge67_Node000002_Node000049" class="edge">
<title>Node2&#45;&gt;Node49</title>
<g id="a_edge67_Node000002_Node000049"><a xlink:title=" ">
<path fill="none" stroke="#63b8ff" d="M442.59,-395.87C433.92,-386.97 420.2,-372.89 409.54,-361.95"/>
<polygon fill="#63b8ff" stroke="#63b8ff" points="411.93,-359.39 402.45,-354.67 406.92,-364.27 411.93,-359.39"/>
</a>
</g>
</g>
<!-- Node4 -->
<g id="Node000004" class="node">
<title>Node4</title>
<g id="a_Node000004"><a xlink:href="src_2util_2invariant_8h.html" target="_top" xlink:title=" ">
<polygon fill="white" stroke="#666666" points="933.5,-74 864.5,-74 864.5,-55 933.5,-55 933.5,-74"/>
<text text-anchor="middle" x="899" y="-62" font-family="Helvetica,sans-Serif" font-size="10.00">invariant.h</text>
</a>
</g>
</g>
<!-- Node3&#45;&gt;Node4 -->
<g id="edge3_Node000003_Node000004" class="edge">
<title>Node3&#45;&gt;Node4</title>
<g id="a_edge3_Node000003_Node000004"><a xlink:title=" ">
<path fill="none" stroke="#63b8ff" d="M372.88,-274.93C405.26,-261.85 469.74,-236.69 526,-220 664.07,-179.04 715.69,-206.62 837,-129 856.78,-116.35 874.98,-96.26 886.47,-82.07"/>
<polygon fill="#63b8ff" stroke="#63b8ff" points="889.29,-84.14 892.71,-74.12 883.78,-79.82 889.29,-84.14"/>
</a>
</g>
</g>
<!-- Node9 -->
<g id="Node000009" class="node">
<title>Node9</title>
<g id="a_Node000009"><a xlink:href="irep_8h.html" target="_top" xlink:title=" ">
<polygon fill="white" stroke="#666666" points="326,-239 282,-239 282,-220 326,-220 326,-239"/>
<text text-anchor="middle" x="304" y="-227" font-family="Helvetica,sans-Serif" font-size="10.00">irep.h</text>
</a>
</g>
</g>
<!-- Node3&#45;&gt;Node9 -->
<g id="edge8_Node000003_Node000009" class="edge">
<title>Node3&#45;&gt;Node9</title>
<g id="a_edge8_Node000003_Node000009"><a xlink:title=" ">
<path fill="none" stroke="#63b8ff" d="M344.07,-274.75C337.15,-267.11 326.93,-255.82 318.55,-246.56"/>
<polygon fill="#63b8ff" stroke="#63b8ff" points="321.09,-244.15 311.78,-239.09 315.9,-248.85 321.09,-244.15"/>
</a>
</g>
</g>
<!-- Node5 -->
<g id="Node000005" class="node">
<title>Node5</title>
<g id="a_Node000005"><a xlink:title=" ">
<polygon fill="#e0e0e0" stroke="#999999" points="922.5,-19 873.5,-19 873.5,0 922.5,0 922.5,-19"/>
<text text-anchor="middle" x="898" y="-7" font-family="Helvetica,sans-Serif" font-size="10.00">cstdlib</text>
</a>
</g>
</g>
<!-- Node4&#45;&gt;Node5 -->
<g id="edge4_Node000004_Node000005" class="edge">
<title>Node4&#45;&gt;Node5</title>
<g id="a_edge4_Node000004_Node000005"><a xlink:title=" ">
<path fill="none" stroke="#63b8ff" d="M898.83,-54.75C898.7,-47.8 898.52,-37.85 898.35,-29.13"/>
<polygon fill="#63b8ff" stroke="#63b8ff" points="901.85,-29.02 898.16,-19.09 894.85,-29.15 901.85,-29.02"/>
</a>
</g>
</g>
<!-- Node6 -->
<g id="Node000006" class="node">
<title>Node6</title>
<g id="a_Node000006"><a xlink:title=" ">
<polygon fill="#e0e0e0" stroke="#999999" points="855,-19 799,-19 799,0 855,0 855,-19"/>
<text text-anchor="middle" x="827" y="-7" font-family="Helvetica,sans-Serif" font-size="10.00">sstream</text>
</a>
</g>
</g>
<!-- Node4&#45;&gt;Node6 -->
<g id="edge5_Node000004_Node000006" class="edge">
<title>Node4&#45;&gt;Node6</title>
<g id="a_edge5_Node000004_Node000006"><a xlink:title=" ">
<path fill="none" stroke="#63b8ff" d="M887.43,-54.98C876.58,-47 860.12,-34.88 847.12,-25.31"/>
<polygon fill="#63b8ff" stroke="#63b8ff" points="848.91,-22.28 838.78,-19.17 844.76,-27.92 848.91,-22.28"/>
</a>
</g>
</g>
<!-- Node7 -->
<g id="Node000007" class="node">
<title>Node7</title>
<g id="a_Node000007"><a xlink:title=" ">
<polygon fill="#e0e0e0" stroke="#999999" points="510,-19 466,-19 466,0 510,0 510,-19"/>
<text text-anchor="middle" x="488" y="-7" font-family="Helvetica,sans-Serif" font-size="10.00">string</text>
</a>
</g>
</g>
<!-- Node4&#45;&gt;Node7 -->
<g id="edge6_Node000004_Node000007" class="edge">
<title>Node4&#45;&gt;Node7</title>
<g id="a_edge6_Node000004_Node000007"><a xlink:title=" ">
<path fill="none" stroke="#63b8ff" d="M864.31,-59.03C785.94,-48.92 596.14,-24.44 520.19,-14.65"/>
<polygon fill="#63b8ff" stroke="#63b8ff" points="520.62,-11.18 510.26,-13.37 519.73,-18.12 520.62,-11.18"/>
</a>
</g>
</g>
<!-- Node8 -->
<g id="Node000008" class="node">
<title>Node8</title>
<g id="a_Node000008"><a xlink:title=" ">
<polygon fill="#e0e0e0" stroke="#999999" points="1096.5,-19 1027.5,-19 1027.5,0 1096.5,0 1096.5,-19"/>
<text text-anchor="middle" x="1062" y="-7" font-family="Helvetica,sans-Serif" font-size="10.00">type_traits</text>
</a>
</g>
</g>
<!-- Node4&#45;&gt;Node8 -->
<g id="edge7_Node000004_Node000008" class="edge">
<title>Node4&#45;&gt;Node8</title>
<g id="a_edge7_Node000004_Node000008"><a xlink:title=" ">
<path fill="none" stroke="#63b8ff" d="M925.19,-54.98C952.44,-46.13 995.3,-32.19 1025.78,-22.28"/>
<polygon fill="#63b8ff" stroke="#63b8ff" points="1027.18,-25.5 1035.61,-19.08 1025.01,-18.85 1027.18,-25.5"/>
</a>
</g>
</g>
<!-- Node9&#45;&gt;Node4 -->
<g id="edge11_Node000009_Node000004" class="edge">
<title>Node9&#45;&gt;Node4</title>
<g id="a_edge11_Node000009_Node000004"><a xlink:title=" ">
<path fill="none" stroke="#63b8ff" d="M326.2,-227.27C398.22,-222.63 630.89,-202.5 806,-129 834.66,-116.97 863.59,-95.39 881.4,-80.76"/>
<polygon fill="#63b8ff" stroke="#63b8ff" points="883.8,-83.32 889.2,-74.21 879.29,-77.96 883.8,-83.32"/>
</a>
</g>
</g>
<!-- Node9&#45;&gt;Node7 -->
<g id="edge9_Node000009_Node000007" class="edge">
<title>Node9&#45;&gt;Node7</title>
<g id="a_edge9_Node000009_Node000007"><a xlink:title=" ">
<path fill="none" stroke="#63b8ff" d="M297.73,-219.72C283.77,-198.99 253.1,-146.04 276,-110 315.91,-47.18 407.15,-23.32 455.9,-14.83"/>
<polygon fill="#63b8ff" stroke="#63b8ff" points="456.6,-18.26 465.91,-13.2 455.48,-11.35 456.6,-18.26"/>
</a>
</g>
</g>
<!-- Node10 -->
<g id="Node000010" class="node">
<title>Node10</title>
<g id="a_Node000010"><a xlink:title=" ">
<polygon fill="#e0e0e0" stroke="#999999" points="126.5,-19 79.5,-19 79.5,0 126.5,0 126.5,-19"/>
<text text-anchor="middle" x="103" y="-7" font-family="Helvetica,sans-Serif" font-size="10.00">vector</text>
</a>
</g>
</g>
<!-- Node9&#45;&gt;Node10 -->
<g id="edge10_Node000009_Node000010" class="edge">
<title>Node9&#45;&gt;Node10</title>
<g id="a_edge10_Node000009_Node000010"><a xlink:title=" ">
<path fill="none" stroke="#63b8ff" d="M281.82,-226.86C233.16,-221.93 117.46,-202.64 68,-129 49.46,-101.4 44.02,-85.61 57,-55 61.98,-43.25 71.75,-33.09 81.01,-25.45"/>
<polygon fill="#63b8ff" stroke="#63b8ff" points="83.4,-28.03 89.22,-19.18 79.15,-22.47 83.4,-28.03"/>
</a>
</g>
</g>
<!-- Node11 -->
<g id="Node000011" class="node">
<title>Node11</title>
<g id="a_Node000011"><a xlink:href="irep__ids_8h.html" target="_top" xlink:title="util">
<polygon fill="white" stroke="#666666" points="224,-184 160,-184 160,-165 224,-165 224,-184"/>
<text text-anchor="middle" x="192" y="-172" font-family="Helvetica,sans-Serif" font-size="10.00">irep_ids.h</text>
</a>
</g>
</g>
<!-- Node9&#45;&gt;Node11 -->
<g id="edge12_Node000009_Node000011" class="edge">
<title>Node9&#45;&gt;Node11</title>
<g id="a_edge12_Node000009_Node000011"><a xlink:title=" ">
<path fill="none" stroke="#63b8ff" d="M286.01,-219.98C268.07,-211.5 240.28,-198.35 219.57,-188.54"/>
<polygon fill="#63b8ff" stroke="#63b8ff" points="220.86,-185.28 210.32,-184.17 217.86,-191.61 220.86,-185.28"/>
</a>
</g>
</g>
<!-- Node22 -->
<g id="Node000022" class="node">
<title>Node22</title>
<g id="a_Node000022"><a xlink:href="forward__list__as__map_8h.html" target="_top" xlink:title=" ">
<polygon fill="white" stroke="#666666" points="440.5,-184 313.5,-184 313.5,-165 440.5,-165 440.5,-184"/>
<text text-anchor="middle" x="377" y="-172" font-family="Helvetica,sans-Serif" font-size="10.00">forward_list_as_map.h</text>
</a>
</g>
</g>
<!-- Node9&#45;&gt;Node22 -->
<g id="edge22_Node000009_Node000022" class="edge">
<title>Node9&#45;&gt;Node22</title>
<g id="a_edge22_Node000009_Node000022"><a xlink:title=" ">
<path fill="none" stroke="#63b8ff" d="M315.73,-219.98C326.73,-212 343.42,-199.88 356.6,-190.31"/>
<polygon fill="#63b8ff" stroke="#63b8ff" points="359.02,-192.88 365.06,-184.17 354.91,-187.21 359.02,-192.88"/>
</a>
</g>
</g>
<!-- Node12 -->
<g id="Node000012" class="node">
<title>Node12</title>
<g id="a_Node000012"><a xlink:href="dstring_8h.html" target="_top" xlink:title="Container for C&#45;Strings.">
<polygon fill="white" stroke="#666666" points="136.5,-129 77.5,-129 77.5,-110 136.5,-110 136.5,-129"/>
<text text-anchor="middle" x="107" y="-117" font-family="Helvetica,sans-Serif" font-size="10.00">dstring.h</text>
</a>
</g>
</g>
<!-- Node11&#45;&gt;Node12 -->
<g id="edge13_Node000011_Node000012" class="edge">
<title>Node11&#45;&gt;Node12</title>
<g id="a_edge13_Node000011_Node000012"><a xlink:title=" ">
<path fill="none" stroke="#63b8ff" d="M178.34,-164.98C165.16,-156.77 144.97,-144.18 129.43,-134.49"/>
<polygon fill="#63b8ff" stroke="#63b8ff" points="131.24,-131.49 120.91,-129.17 127.54,-137.43 131.24,-131.49"/>
</a>
</g>
</g>
<!-- Node21 -->
<g id="Node000021" class="node">
<title>Node21</title>
<g id="a_Node000021"><a xlink:title=" ">
<polygon fill="#e0e0e0" stroke="#999999" points="229,-129 155,-129 155,-110 229,-110 229,-129"/>
<text text-anchor="middle" x="192" y="-117" font-family="Helvetica,sans-Serif" font-size="10.00">irep_ids.def</text>
</a>
</g>
</g>
<!-- Node11&#45;&gt;Node21 -->
<g id="edge21_Node000011_Node000021" class="edge">
<title>Node11&#45;&gt;Node21</title>
<g id="a_edge21_Node000011_Node000021"><a xlink:title=" ">
<path fill="none" stroke="#63b8ff" d="M192,-164.75C192,-157.8 192,-147.85 192,-139.13"/>
<polygon fill="#63b8ff" stroke="#63b8ff" points="195.5,-139.09 192,-129.09 188.5,-139.09 195.5,-139.09"/>
</a>
</g>
</g>
<!-- Node12&#45;&gt;Node7 -->
<g id="edge15_Node000012_Node000007" class="edge">
<title>Node12&#45;&gt;Node7</title>
<g id="a_edge15_Node000012_Node000007"><a xlink:title=" ">
<path fill="none" stroke="#63b8ff" d="M136.71,-110.58C166.46,-102.38 213.38,-88.73 253,-74 272.58,-66.72 276.18,-61.61 296,-55 350.89,-36.69 417.04,-23.16 455.62,-16.07"/>
<polygon fill="#63b8ff" stroke="#63b8ff" points="456.52,-19.47 465.74,-14.25 455.28,-12.58 456.52,-19.47"/>
</a>
</g>
</g>
<!-- Node13 -->
<g id="Node000013" class="node">
<title>Node13</title>
<g id="a_Node000013"><a xlink:title=" ">
<polygon fill="#e0e0e0" stroke="#999999" points="583,-74 535,-74 535,-55 583,-55 583,-74"/>
<text text-anchor="middle" x="559" y="-62" font-family="Helvetica,sans-Serif" font-size="10.00">iosfwd</text>
</a>
</g>
</g>
<!-- Node12&#45;&gt;Node13 -->
<g id="edge14_Node000012_Node000013" class="edge">
<title>Node12&#45;&gt;Node13</title>
<g id="a_edge14_Node000012_Node000013"><a xlink:title=" ">
<path fill="none" stroke="#63b8ff" d="M136.75,-111.67C139.86,-111.06 142.99,-110.49 146,-110 285.48,-87.35 453.39,-73.3 524.5,-67.96"/>
<polygon fill="#63b8ff" stroke="#63b8ff" points="524.96,-71.44 534.67,-67.2 524.44,-64.45 524.96,-71.44"/>
</a>
</g>
</g>
<!-- Node14 -->
<g id="Node000014" class="node">
<title>Node14</title>
<g id="a_Node000014"><a xlink:href="magic_8h.html" target="_top" xlink:title="Magic numbers used throughout the codebase.">
<polygon fill="#fff0f0" stroke="red" points="244,-74 188,-74 188,-55 244,-55 244,-74"/>
<text text-anchor="middle" x="216" y="-62" font-family="Helvetica,sans-Serif" font-size="10.00">magic.h</text>
</a>
</g>
</g>
<!-- Node12&#45;&gt;Node14 -->
<g id="edge16_Node000012_Node000014" class="edge">
<title>Node12&#45;&gt;Node14</title>
<g id="a_edge16_Node000012_Node000014"><a xlink:title=" ">
<path fill="none" stroke="#63b8ff" d="M124.51,-109.98C141.97,-101.5 169.01,-88.35 189.17,-78.54"/>
<polygon fill="#63b8ff" stroke="#63b8ff" points="190.71,-81.69 198.17,-74.17 187.64,-75.4 190.71,-81.69"/>
</a>
</g>
</g>
<!-- Node16 -->
<g id="Node000016" class="node">
<title>Node16</title>
<g id="a_Node000016"><a xlink:href="string__container_8h.html" target="_top" xlink:title="Container for C&#45;Strings.">
<polygon fill="#fff0f0" stroke="red" points="170,-74 66,-74 66,-55 170,-55 170,-74"/>
<text text-anchor="middle" x="118" y="-62" font-family="Helvetica,sans-Serif" font-size="10.00">string_container.h</text>
</a>
</g>
</g>
<!-- Node12&#45;&gt;Node16 -->
<g id="edge17_Node000012_Node000016" class="edge">
<title>Node12&#45;&gt;Node16</title>
<g id="a_edge17_Node000012_Node000016"><a xlink:title=" ">
<path fill="none" stroke="#63b8ff" d="M108.82,-109.75C110.26,-102.8 112.32,-92.85 114.13,-84.13"/>
<polygon fill="#63b8ff" stroke="#63b8ff" points="117.61,-84.59 116.22,-74.09 110.76,-83.17 117.61,-84.59"/>
</a>
</g>
</g>
<!-- Node16&#45;&gt;Node10 -->
<g id="edge20_Node000016_Node000010" class="edge">
<title>Node16&#45;&gt;Node10</title>
<g id="a_edge20_Node000016_Node000010"><a xlink:title=" ">
<path fill="none" stroke="#63b8ff" d="M115.52,-54.75C113.54,-47.72 110.68,-37.62 108.19,-28.84"/>
<polygon fill="#63b8ff" stroke="#63b8ff" points="111.52,-27.76 105.43,-19.09 104.79,-29.66 111.52,-27.76"/>
</a>
</g>
</g>
<!-- Node17 -->
<g id="Node000017" class="node">
<title>Node17</title>
<g id="a_Node000017"><a xlink:title=" ">
<polygon fill="#e0e0e0" stroke="#999999" points="46,-19 14,-19 14,0 46,0 46,-19"/>
<text text-anchor="middle" x="30" y="-7" font-family="Helvetica,sans-Serif" font-size="10.00">list</text>
</a>
</g>
</g>
<!-- Node16&#45;&gt;Node17 -->
<g id="edge18_Node000016_Node000017" class="edge">
<title>Node16&#45;&gt;Node17</title>
<g id="a_edge18_Node000016_Node000017"><a xlink:title=" ">
<path fill="none" stroke="#63b8ff" d="M103.86,-54.98C90.21,-46.77 69.31,-34.18 53.22,-24.49"/>
<polygon fill="#63b8ff" stroke="#63b8ff" points="54.77,-21.33 44.4,-19.17 51.16,-27.33 54.77,-21.33"/>
</a>
</g>
</g>
<!-- Node18 -->
<g id="Node000018" class="node">
<title>Node18</title>
<g id="a_Node000018"><a xlink:title=" ">
<polygon fill="#e0e0e0" stroke="#999999" points="338.5,-19 245.5,-19 245.5,0 338.5,0 338.5,-19"/>
<text text-anchor="middle" x="292" y="-7" font-family="Helvetica,sans-Serif" font-size="10.00">unordered_map</text>
</a>
</g>
</g>
<!-- Node16&#45;&gt;Node18 -->
<g id="edge19_Node000016_Node000018" class="edge">
<title>Node16&#45;&gt;Node18</title>
<g id="a_edge19_Node000016_Node000018"><a xlink:title=" ">
<path fill="none" stroke="#63b8ff" d="M145.96,-54.98C175.3,-46.05 221.6,-31.94 254.19,-22.02"/>
<polygon fill="#63b8ff" stroke="#63b8ff" points="255.28,-25.34 263.82,-19.08 253.24,-18.65 255.28,-25.34"/>
</a>
</g>
</g>
<!-- Node23 -->
<g id="Node000023" class="node">
<title>Node23</title>
<g id="a_Node000023"><a xlink:title=" ">
<polygon fill="#e0e0e0" stroke="#999999" points="349,-129 285,-129 285,-110 349,-110 349,-129"/>
<text text-anchor="middle" x="317" y="-117" font-family="Helvetica,sans-Serif" font-size="10.00">algorithm</text>
</a>
</g>
</g>
<!-- Node22&#45;&gt;Node23 -->
<g id="edge23_Node000022_Node000023" class="edge">
<title>Node22&#45;&gt;Node23</title>
<g id="a_edge23_Node000022_Node000023"><a xlink:title=" ">
<path fill="none" stroke="#63b8ff" d="M367.36,-164.98C358.49,-157.15 345.13,-145.34 334.39,-135.86"/>
<polygon fill="#63b8ff" stroke="#63b8ff" points="336.63,-133.17 326.82,-129.17 331.99,-138.41 336.63,-133.17"/>
</a>
</g>
</g>
<!-- Node24 -->
<g id="Node000024" class="node">
<title>Node24</title>
<g id="a_Node000024"><a xlink:title=" ">
<polygon fill="#e0e0e0" stroke="#999999" points="441,-129 367,-129 367,-110 441,-110 441,-129"/>
<text text-anchor="middle" x="404" y="-117" font-family="Helvetica,sans-Serif" font-size="10.00">forward_list</text>
</a>
</g>
</g>
<!-- Node22&#45;&gt;Node24 -->
<g id="edge24_Node000022_Node000024" class="edge">
<title>Node22&#45;&gt;Node24</title>
<g id="a_edge24_Node000022_Node000024"><a xlink:title=" ">
<path fill="none" stroke="#63b8ff" d="M381.46,-164.75C385.12,-157.57 390.41,-147.18 394.95,-138.27"/>
<polygon fill="#63b8ff" stroke="#63b8ff" points="398.2,-139.59 399.62,-129.09 391.97,-136.41 398.2,-139.59"/>
</a>
</g>
</g>
<!-- Node25 -->
<g id="Node000025" class="node">
<title>Node25</title>
<g id="a_Node000025"><a xlink:href="as__const_8h.html" target="_top" xlink:title=" ">
<polygon fill="white" stroke="#666666" points="1009,-19 941,-19 941,0 1009,0 1009,-19"/>
<text text-anchor="middle" x="975" y="-7" font-family="Helvetica,sans-Serif" font-size="10.00">as_const.h</text>
</a>
</g>
</g>
<!-- Node22&#45;&gt;Node25 -->
<g id="edge25_Node000022_Node000025" class="edge">
<title>Node22&#45;&gt;Node25</title>
<g id="a_edge25_Node000022_Node000025"><a xlink:title=" ">
<path fill="none" stroke="#63b8ff" d="M440.55,-167.85C496.95,-161.75 581.16,-149.96 652,-129 730.24,-105.85 743.28,-82.77 820,-55 856.82,-41.67 899.67,-29.63 930.98,-21.44"/>
<polygon fill="#63b8ff" stroke="#63b8ff" points="931.91,-24.81 940.71,-18.92 930.15,-18.04 931.91,-24.81"/>
</a>
</g>
</g>
<!-- Node26 -->
<g id="Node000026" class="node">
<title>Node26</title>
<g id="a_Node000026"><a xlink:href="narrow_8h.html" target="_top" xlink:title=" ">
<polygon fill="white" stroke="#666666" points="796.5,-129 737.5,-129 737.5,-110 796.5,-110 796.5,-129"/>
<text text-anchor="middle" x="767" y="-117" font-family="Helvetica,sans-Serif" font-size="10.00">narrow.h</text>
</a>
</g>
</g>
<!-- Node22&#45;&gt;Node26 -->
<g id="edge26_Node000022_Node000026" class="edge">
<title>Node22&#45;&gt;Node26</title>
<g id="a_edge26_Node000022_Node000026"><a xlink:title=" ">
<path fill="none" stroke="#63b8ff" d="M439.66,-164.98C520.6,-153.99 659.13,-135.16 727.06,-125.93"/>
<polygon fill="#63b8ff" stroke="#63b8ff" points="727.9,-129.35 737.34,-124.53 726.96,-122.41 727.9,-129.35"/>
</a>
</g>
</g>
<!-- Node26&#45;&gt;Node4 -->
<g id="edge28_Node000026_Node000004" class="edge">
<title>Node26&#45;&gt;Node4</title>
<g id="a_edge28_Node000026_Node000004"><a xlink:title=" ">
<path fill="none" stroke="#63b8ff" d="M788.21,-109.98C809.73,-101.34 843.28,-87.87 867.83,-78.02"/>
<polygon fill="#63b8ff" stroke="#63b8ff" points="869.43,-81.14 877.41,-74.17 866.82,-74.65 869.43,-81.14"/>
</a>
</g>
</g>
<!-- Node26&#45;&gt;Node8 -->
<g id="edge27_Node000026_Node000008" class="edge">
<title>Node26&#45;&gt;Node8</title>
<g id="a_edge27_Node000026_Node000008"><a xlink:title=" ">
<path fill="none" stroke="#63b8ff" d="M776.58,-109.61C792.05,-95.75 824.06,-69.12 856,-55 870.61,-48.54 961.15,-30.19 1017.22,-19.17"/>
<polygon fill="#63b8ff" stroke="#63b8ff" points="1018.13,-22.56 1027.27,-17.2 1016.78,-15.69 1018.13,-22.56"/>
</a>
</g>
</g>
<!-- Node27&#45;&gt;Node4 -->
<g id="edge30_Node000027_Node000004" class="edge">
<title>Node27&#45;&gt;Node4</title>
<g id="a_edge30_Node000027_Node000004"><a xlink:title=" ">
<path fill="none" stroke="#63b8ff" d="M693.63,-343.64C771.21,-339.82 901,-320.05 901,-230.5 901,-230.5 901,-230.5 901,-173.5 901,-142.18 900.15,-105.77 899.56,-84.23"/>
<polygon fill="#63b8ff" stroke="#63b8ff" points="903.05,-84.07 899.27,-74.18 896.06,-84.27 903.05,-84.07"/>
</a>
</g>
</g>
<!-- Node27&#45;&gt;Node7 -->
<g id="edge66_Node000027_Node000007" class="edge">
<title>Node27&#45;&gt;Node7</title>
<g id="a_edge66_Node000027_Node000007"><a xlink:title=" ">
<path fill="none" stroke="#63b8ff" d="M580.33,-339.43C549.52,-333.75 513.77,-321.25 494,-294 434.31,-211.76 466.98,-77.82 481.87,-29.03"/>
<polygon fill="#63b8ff" stroke="#63b8ff" points="485.29,-29.83 484.98,-19.24 478.62,-27.71 485.29,-29.83"/>
</a>
</g>
</g>
<!-- Node27&#45;&gt;Node13 -->
<g id="edge62_Node000027_Node000013" class="edge">
<title>Node27&#45;&gt;Node13</title>
<g id="a_edge62_Node000027_Node000013"><a xlink:title=" ">
<path fill="none" stroke="#63b8ff" d="M651.58,-330C673.91,-306.77 712.01,-258.96 692,-220 660.27,-158.23 599.6,-189.2 565,-129 557.32,-115.63 556.22,-98.03 556.81,-84.74"/>
<polygon fill="#63b8ff" stroke="#63b8ff" points="560.33,-84.65 557.65,-74.4 553.35,-84.08 560.33,-84.65"/>
</a>
</g>
</g>
<!-- Node27&#45;&gt;Node17 -->
<g id="edge64_Node000027_Node000017" class="edge">
<title>Node27&#45;&gt;Node17</title>
<g id="a_edge64_Node000027_Node000017"><a xlink:title=" ">
<path fill="none" stroke="#63b8ff" d="M580.47,-339.86C424.57,-327.7 0,-289.19 0,-230.5 0,-230.5 0,-230.5 0,-118.5 0,-85.87 12.87,-49.65 21.75,-28.55"/>
<polygon fill="#63b8ff" stroke="#63b8ff" points="25.02,-29.8 25.83,-19.23 18.61,-26.99 25.02,-29.8"/>
</a>
</g>
</g>
<!-- Node28 -->
<g id="Node000028" class="node">
<title>Node28</title>
<g id="a_Node000028"><a xlink:href="source__location_8h.html" target="_top" xlink:title=" ">
<polygon fill="white" stroke="#666666" points="623.5,-294 502.5,-294 502.5,-275 623.5,-275 623.5,-294"/>
<text text-anchor="middle" x="563" y="-282" font-family="Helvetica,sans-Serif" font-size="10.00">util/source_location.h</text>
</a>
</g>
</g>
<!-- Node27&#45;&gt;Node28 -->
<g id="edge31_Node000027_Node000028" class="edge">
<title>Node27&#45;&gt;Node28</title>
<g id="a_edge31_Node000027_Node000028"><a xlink:title=" ">
<path fill="none" stroke="#63b8ff" d="M619.09,-329.84C607.91,-321 593.52,-309.63 582.12,-300.62"/>
<polygon fill="#63b8ff" stroke="#63b8ff" points="584.1,-297.72 574.09,-294.27 579.76,-303.21 584.1,-297.72"/>
</a>
</g>
</g>
<!-- Node31 -->
<g id="Node000031" class="node">
<title>Node31</title>
<g id="a_Node000031"><a xlink:href="goto__instruction__code_8h.html" target="_top" xlink:title=" ">
<polygon fill="white" stroke="#666666" points="1066.5,-294 933.5,-294 933.5,-275 1066.5,-275 1066.5,-294"/>
<text text-anchor="middle" x="1000" y="-282" font-family="Helvetica,sans-Serif" font-size="10.00">goto_instruction_code.h</text>
</a>
</g>
</g>
<!-- Node27&#45;&gt;Node31 -->
<g id="edge36_Node000027_Node000031" class="edge">
<title>Node27&#45;&gt;Node31</title>
<g id="a_edge36_Node000027_Node000031"><a xlink:title=" ">
<path fill="none" stroke="#63b8ff" d="M693.72,-334.86C759.72,-324.22 868.4,-306.71 936.98,-295.66"/>
<polygon fill="#63b8ff" stroke="#63b8ff" points="937.9,-299.05 947.22,-294.01 936.79,-292.14 937.9,-299.05"/>
</a>
</g>
</g>
<!-- Node47 -->
<g id="Node000047" class="node">
<title>Node47</title>
<g id="a_Node000047"><a xlink:title=" ">
<polygon fill="#e0e0e0" stroke="#999999" points="783,-294 739,-294 739,-275 783,-275 783,-294"/>
<text text-anchor="middle" x="761" y="-282" font-family="Helvetica,sans-Serif" font-size="10.00">limits</text>
</a>
</g>
</g>
<!-- Node27&#45;&gt;Node47 -->
<g id="edge63_Node000027_Node000047" class="edge">
<title>Node27&#45;&gt;Node47</title>
<g id="a_edge63_Node000027_Node000047"><a xlink:title=" ">
<path fill="none" stroke="#63b8ff" d="M666.7,-329.99C687.02,-320.4 713.76,-307.79 733.58,-298.44"/>
<polygon fill="#63b8ff" stroke="#63b8ff" points="735.14,-301.57 742.69,-294.14 732.15,-295.24 735.14,-301.57"/>
</a>
</g>
</g>
<!-- Node48 -->
<g id="Node000048" class="node">
<title>Node48</title>
<g id="a_Node000048"><a xlink:title=" ">
<polygon fill="#e0e0e0" stroke="#999999" points="833,-294 801,-294 801,-275 833,-275 833,-294"/>
<text text-anchor="middle" x="817" y="-282" font-family="Helvetica,sans-Serif" font-size="10.00">set</text>
</a>
</g>
</g>
<!-- Node27&#45;&gt;Node48 -->
<g id="edge65_Node000027_Node000048" class="edge">
<title>Node27&#45;&gt;Node48</title>
<g id="a_edge65_Node000027_Node000048"><a xlink:title=" ">
<path fill="none" stroke="#63b8ff" d="M681.16,-329.96C710.02,-320.74 748.77,-308.26 791.19,-294.23"/>
<polygon fill="#63b8ff" stroke="#63b8ff" points="792.48,-297.49 800.87,-291.02 790.28,-290.85 792.48,-297.49"/>
</a>
</g>
</g>
<!-- Node28&#45;&gt;Node7 -->
<g id="edge35_Node000028_Node000007" class="edge">
<title>Node28&#45;&gt;Node7</title>
<g id="a_edge35_Node000028_Node000007"><a xlink:title=" ">
<path fill="none" stroke="#63b8ff" d="M553.86,-274.76C545.53,-266.32 533.41,-252.81 526,-239 512.08,-213.04 507,-204.96 507,-175.5 507,-175.5 507,-175.5 507,-118.5 507,-86.56 498.84,-50.1 493.22,-28.77"/>
<polygon fill="#63b8ff" stroke="#63b8ff" points="496.58,-27.81 490.56,-19.09 489.83,-29.66 496.58,-27.81"/>
</a>
</g>
</g>
<!-- Node28&#45;&gt;Node9 -->
<g id="edge33_Node000028_Node000009" class="edge">
<title>Node28&#45;&gt;Node9</title>
<g id="a_edge33_Node000028_Node000009"><a xlink:title=" ">
<path fill="none" stroke="#63b8ff" d="M521.39,-274.98C469.81,-264.43 383,-246.67 336.21,-237.09"/>
<polygon fill="#63b8ff" stroke="#63b8ff" points="336.81,-233.64 326.31,-235.07 335.41,-240.5 336.81,-233.64"/>
</a>
</g>
</g>
<!-- Node29 -->
<g id="Node000029" class="node">
<title>Node29</title>
<g id="a_Node000029"><a xlink:href="deprecate_8h.html" target="_top" xlink:title=" ">
<polygon fill="white" stroke="#666666" points="683,-239 609,-239 609,-220 683,-220 683,-239"/>
<text text-anchor="middle" x="646" y="-227" font-family="Helvetica,sans-Serif" font-size="10.00">deprecate.h</text>
</a>
</g>
</g>
<!-- Node28&#45;&gt;Node29 -->
<g id="edge32_Node000028_Node000029" class="edge">
<title>Node28&#45;&gt;Node29</title>
<g id="a_edge32_Node000028_Node000029"><a xlink:title=" ">
<path fill="none" stroke="#63b8ff" d="M576.34,-274.98C589.09,-266.84 608.55,-254.41 623.67,-244.76"/>
<polygon fill="#63b8ff" stroke="#63b8ff" points="625.88,-247.5 632.42,-239.17 622.11,-241.6 625.88,-247.5"/>
</a>
</g>
</g>
<!-- Node30 -->
<g id="Node000030" class="node">
<title>Node30</title>
<g id="a_Node000030"><a xlink:title=" ">
<polygon fill="#e0e0e0" stroke="#999999" points="591,-239 535,-239 535,-220 591,-220 591,-239"/>
<text text-anchor="middle" x="563" y="-227" font-family="Helvetica,sans-Serif" font-size="10.00">optional</text>
</a>
</g>
</g>
<!-- Node28&#45;&gt;Node30 -->
<g id="edge34_Node000028_Node000030" class="edge">
<title>Node28&#45;&gt;Node30</title>
<g id="a_edge34_Node000028_Node000030"><a xlink:title=" ">
<path fill="none" stroke="#63b8ff" d="M563,-274.75C563,-267.8 563,-257.85 563,-249.13"/>
<polygon fill="#63b8ff" stroke="#63b8ff" points="566.5,-249.09 563,-239.09 559.5,-249.09 566.5,-249.09"/>
</a>
</g>
</g>
<!-- Node32 -->
<g id="Node000032" class="node">
<title>Node32</title>
<g id="a_Node000032"><a xlink:href="std__code__base_8h.html" target="_top" xlink:title=" ">
<polygon fill="white" stroke="#666666" points="1177,-239 1061,-239 1061,-220 1177,-220 1177,-239"/>
<text text-anchor="middle" x="1119" y="-227" font-family="Helvetica,sans-Serif" font-size="10.00">util/std_code_base.h</text>
</a>
</g>
</g>
<!-- Node31&#45;&gt;Node32 -->
<g id="edge37_Node000031_Node000032" class="edge">
<title>Node31&#45;&gt;Node32</title>
<g id="a_edge37_Node000031_Node000032"><a xlink:title=" ">
<path fill="none" stroke="#63b8ff" d="M1019.12,-274.98C1038.35,-266.42 1068.23,-253.11 1090.31,-243.28"/>
<polygon fill="#63b8ff" stroke="#63b8ff" points="1091.82,-246.44 1099.53,-239.17 1088.97,-240.04 1091.82,-246.44"/>
</a>
</g>
</g>
<!-- Node46 -->
<g id="Node000046" class="node">
<title>Node46</title>
<g id="a_Node000046"><a xlink:href="std__expr_8h.html" target="_top" xlink:title="API to expression classes.">
<polygon fill="white" stroke="#666666" points="1043,-239 957,-239 957,-220 1043,-220 1043,-239"/>
<text text-anchor="middle" x="1000" y="-227" font-family="Helvetica,sans-Serif" font-size="10.00">util/std_expr.h</text>
</a>
</g>
</g>
<!-- Node31&#45;&gt;Node46 -->
<g id="edge58_Node000031_Node000046" class="edge">
<title>Node31&#45;&gt;Node46</title>
<g id="a_edge58_Node000031_Node000046"><a xlink:title=" ">
<path fill="none" stroke="#63b8ff" d="M1000,-274.75C1000,-267.8 1000,-257.85 1000,-249.13"/>
<polygon fill="#63b8ff" stroke="#63b8ff" points="1003.5,-249.09 1000,-239.09 996.5,-249.09 1003.5,-249.09"/>
</a>
</g>
</g>
<!-- Node32&#45;&gt;Node4 -->
<g id="edge46_Node000032_Node000004" class="edge">
<title>Node32&#45;&gt;Node4</title>
<g id="a_edge46_Node000032_Node000004"><a xlink:title=" ">
<path fill="none" stroke="#63b8ff" d="M1110.35,-219.96C1097.55,-207.45 1072.63,-183.62 1050,-165 1018.08,-138.74 1009.55,-132.7 975,-110 958.17,-98.95 938.55,-87.49 923.46,-78.97"/>
<polygon fill="#63b8ff" stroke="#63b8ff" points="925.15,-75.91 914.71,-74.08 921.73,-82.01 925.15,-75.91"/>
</a>
</g>
</g>
<!-- Node33 -->
<g id="Node000033" class="node">
<title>Node33</title>
<g id="a_Node000033"><a xlink:href="expr__cast_8h.html" target="_top" xlink:title="Templated functions to cast to specific exprt&#45;derived classes.">
<polygon fill="white" stroke="#666666" points="1154.5,-129 1081.5,-129 1081.5,-110 1154.5,-110 1154.5,-129"/>
<text text-anchor="middle" x="1118" y="-117" font-family="Helvetica,sans-Serif" font-size="10.00">expr_cast.h</text>
</a>
</g>
</g>
<!-- Node32&#45;&gt;Node33 -->
<g id="edge38_Node000032_Node000033" class="edge">
<title>Node32&#45;&gt;Node33</title>
<g id="a_edge38_Node000032_Node000033"><a xlink:title=" ">
<path fill="none" stroke="#63b8ff" d="M1119.63,-219.87C1120.44,-207.66 1121.66,-184.62 1121,-165 1120.71,-156.48 1120.12,-147.06 1119.53,-139.08"/>
<polygon fill="#63b8ff" stroke="#63b8ff" points="1123.02,-138.72 1118.75,-129.02 1116.04,-139.26 1123.02,-138.72"/>
</a>
</g>
</g>
<!-- Node43 -->
<g id="Node000043" class="node">
<title>Node43</title>
<g id="a_Node000043"><a xlink:href="std__types_8h.html" target="_top" xlink:title="Pre&#45;defined types.">
<polygon fill="white" stroke="#666666" points="1040.5,-184 967.5,-184 967.5,-165 1040.5,-165 1040.5,-184"/>
<text text-anchor="middle" x="1004" y="-172" font-family="Helvetica,sans-Serif" font-size="10.00">std_types.h</text>
</a>
</g>
</g>
<!-- Node32&#45;&gt;Node43 -->
<g id="edge47_Node000032_Node000043" class="edge">
<title>Node32&#45;&gt;Node43</title>
<g id="a_edge47_Node000032_Node000043"><a xlink:title=" ">
<path fill="none" stroke="#63b8ff" d="M1100.52,-219.98C1082.02,-211.46 1053.32,-198.23 1032.02,-188.41"/>
<polygon fill="#63b8ff" stroke="#63b8ff" points="1033.36,-185.18 1022.81,-184.17 1030.43,-191.53 1033.36,-185.18"/>
</a>
</g>
</g>
<!-- Node38 -->
<g id="Node000038" class="node">
<title>Node38</title>
<g id="a_Node000038"><a xlink:href="validate_8h.html" target="_top" xlink:title=" ">
<polygon fill="#fff0f0" stroke="red" points="1237.5,-129 1172.5,-129 1172.5,-110 1237.5,-110 1237.5,-129"/>
<text text-anchor="middle" x="1205" y="-117" font-family="Helvetica,sans-Serif" font-size="10.00">validate.h</text>
</a>
</g>
</g>
<!-- Node32&#45;&gt;Node38 -->
<g id="edge57_Node000032_Node000038" class="edge">
<title>Node32&#45;&gt;Node38</title>
<g id="a_edge57_Node000032_Node000038"><a xlink:title=" ">
<path fill="none" stroke="#63b8ff" d="M1126.04,-219.66C1140.41,-201.61 1173.33,-160.28 1191.8,-137.08"/>
<polygon fill="#63b8ff" stroke="#63b8ff" points="1194.61,-139.16 1198.11,-129.16 1189.14,-134.8 1194.61,-139.16"/>
</a>
</g>
</g>
<!-- Node33&#45;&gt;Node4 -->
<g id="edge42_Node000033_Node000004" class="edge">
<title>Node33&#45;&gt;Node4</title>
<g id="a_edge42_Node000033_Node000004"><a xlink:title=" ">
<path fill="none" stroke="#63b8ff" d="M1082.81,-109.98C1044.95,-100.82 984.63,-86.22 943.5,-76.27"/>
<polygon fill="#63b8ff" stroke="#63b8ff" points="944.28,-72.86 933.74,-73.91 942.63,-79.66 944.28,-72.86"/>
</a>
</g>
</g>
<!-- Node33&#45;&gt;Node8 -->
<g id="edge40_Node000033_Node000008" class="edge">
<title>Node33&#45;&gt;Node8</title>
<g id="a_edge40_Node000033_Node000008"><a xlink:title=" ">
<path fill="none" stroke="#63b8ff" d="M1108.86,-109.76C1100.53,-101.32 1088.41,-87.81 1081,-74 1073.43,-59.88 1068.47,-42.34 1065.53,-29.27"/>
<polygon fill="#63b8ff" stroke="#63b8ff" points="1068.89,-28.23 1063.44,-19.14 1062.03,-29.64 1068.89,-28.23"/>
</a>
</g>
</g>
<!-- Node34 -->
<g id="Node000034" class="node">
<title>Node34</title>
<g id="a_Node000034"><a xlink:title=" ">
<polygon fill="#e0e0e0" stroke="#999999" points="1146.5,-74 1089.5,-74 1089.5,-55 1146.5,-55 1146.5,-74"/>
<text text-anchor="middle" x="1118" y="-62" font-family="Helvetica,sans-Serif" font-size="10.00">typeinfo</text>
</a>
</g>
</g>
<!-- Node33&#45;&gt;Node34 -->
<g id="edge39_Node000033_Node000034" class="edge">
<title>Node33&#45;&gt;Node34</title>
<g id="a_edge39_Node000033_Node000034"><a xlink:title=" ">
<path fill="none" stroke="#63b8ff" d="M1118,-109.75C1118,-102.8 1118,-92.85 1118,-84.13"/>
<polygon fill="#63b8ff" stroke="#63b8ff" points="1121.5,-84.09 1118,-74.09 1114.5,-84.09 1121.5,-84.09"/>
</a>
</g>
</g>
<!-- Node35 -->
<g id="Node000035" class="node">
<title>Node35</title>
<g id="a_Node000035"><a xlink:title=" ">
<polygon fill="#e0e0e0" stroke="#999999" points="1193.5,-19 1128.5,-19 1128.5,0 1193.5,0 1193.5,-19"/>
<text text-anchor="middle" x="1161" y="-7" font-family="Helvetica,sans-Serif" font-size="10.00">functional</text>
</a>
</g>
</g>
<!-- Node33&#45;&gt;Node35 -->
<g id="edge41_Node000033_Node000035" class="edge">
<title>Node33&#45;&gt;Node35</title>
<g id="a_edge41_Node000033_Node000035"><a xlink:title=" ">
<path fill="none" stroke="#63b8ff" d="M1128.44,-109.82C1137.48,-101.62 1150.01,-88.45 1156,-74 1161.89,-59.78 1162.85,-42.24 1162.51,-29.21"/>
<polygon fill="#63b8ff" stroke="#63b8ff" points="1165.99,-28.9 1161.95,-19.1 1159,-29.28 1165.99,-28.9"/>
</a>
</g>
</g>
<!-- Node36 -->
<g id="Node000036" class="node">
<title>Node36</title>
<g id="a_Node000036"><a xlink:href="expr_8h.html" target="_top" xlink:title=" ">
<polygon fill="#fff0f0" stroke="red" points="1032.5,-74 985.5,-74 985.5,-55 1032.5,-55 1032.5,-74"/>
<text text-anchor="middle" x="1009" y="-62" font-family="Helvetica,sans-Serif" font-size="10.00">expr.h</text>
</a>
</g>
</g>
<!-- Node33&#45;&gt;Node36 -->
<g id="edge43_Node000033_Node000036" class="edge">
<title>Node33&#45;&gt;Node36</title>
<g id="a_edge43_Node000033_Node000036"><a xlink:title=" ">
<path fill="none" stroke="#63b8ff" d="M1100.49,-109.98C1083.03,-101.5 1055.99,-88.35 1035.83,-78.54"/>
<polygon fill="#63b8ff" stroke="#63b8ff" points="1037.36,-75.4 1026.83,-74.17 1034.29,-81.69 1037.36,-75.4"/>
</a>
</g>
</g>
<!-- Node36&#45;&gt;Node25 -->
<g id="edge44_Node000036_Node000025" class="edge">
<title>Node36&#45;&gt;Node25</title>
<g id="a_edge44_Node000036_Node000025"><a xlink:title=" ">
<path fill="none" stroke="#63b8ff" d="M1003.39,-54.75C998.68,-47.42 991.83,-36.73 986.03,-27.7"/>
<polygon fill="#63b8ff" stroke="#63b8ff" points="988.86,-25.62 980.51,-19.09 982.96,-29.4 988.86,-25.62"/>
</a>
</g>
</g>
<!-- Node36&#45;&gt;Node35 -->
<g id="edge45_Node000036_Node000035" class="edge">
<title>Node36&#45;&gt;Node35</title>
<g id="a_edge45_Node000036_Node000035"><a xlink:title=" ">
<path fill="none" stroke="#63b8ff" d="M1032.75,-55.22C1058,-46.42 1098.15,-32.42 1126.8,-22.43"/>
<polygon fill="#63b8ff" stroke="#63b8ff" points="1128.12,-25.67 1136.41,-19.07 1125.81,-19.06 1128.12,-25.67"/>
</a>
</g>
</g>
<!-- Node43&#45;&gt;Node4 -->
<g id="edge50_Node000043_Node000004" class="edge">
<title>Node43&#45;&gt;Node4</title>
<g id="a_edge50_Node000043_Node000004"><a xlink:title=" ">
<path fill="none" stroke="#63b8ff" d="M997.91,-164.82C988.83,-152.15 970.88,-128.11 953,-110 942.46,-99.33 929.53,-88.6 918.97,-80.36"/>
<polygon fill="#63b8ff" stroke="#63b8ff" points="920.82,-77.37 910.75,-74.07 916.56,-82.92 920.82,-77.37"/>
</a>
</g>
</g>
<!-- Node43&#45;&gt;Node18 -->
<g id="edge56_Node000043_Node000018" class="edge">
<title>Node43&#45;&gt;Node18</title>
<g id="a_edge56_Node000043_Node000018"><a xlink:title=" ">
<path fill="none" stroke="#63b8ff" d="M967.47,-171.47C913.89,-167.64 811.42,-157.03 729,-129 663.48,-106.72 657.66,-76.85 592,-55 510.18,-27.77 410.26,-17.17 348.89,-13.06"/>
<polygon fill="#63b8ff" stroke="#63b8ff" points="348.84,-9.55 338.64,-12.41 348.4,-16.54 348.84,-9.55"/>
</a>
</g>
</g>
<!-- Node43&#45;&gt;Node33 -->
<g id="edge49_Node000043_Node000033" class="edge">
<title>Node43&#45;&gt;Node33</title>
<g id="a_edge49_Node000043_Node000033"><a xlink:title=" ">
<path fill="none" stroke="#63b8ff" d="M1022.32,-164.98C1040.66,-156.46 1069.11,-143.23 1090.23,-133.41"/>
<polygon fill="#63b8ff" stroke="#63b8ff" points="1091.76,-136.56 1099.35,-129.17 1088.81,-130.21 1091.76,-136.56"/>
</a>
</g>
</g>
<!-- Node43&#45;&gt;Node36 -->
<g id="edge48_Node000043_Node000036" class="edge">
<title>Node43&#45;&gt;Node36</title>
<g id="a_edge48_Node000043_Node000036"><a xlink:title=" ">
<path fill="none" stroke="#63b8ff" d="M1004.41,-164.66C1005.22,-147.17 1007.04,-107.8 1008.13,-84.27"/>
<polygon fill="#63b8ff" stroke="#63b8ff" points="1011.63,-84.31 1008.6,-74.16 1004.64,-83.99 1011.63,-84.31"/>
</a>
</g>
</g>
<!-- Node44 -->
<g id="Node000044" class="node">
<title>Node44</title>
<g id="a_Node000044"><a xlink:href="mp__arith_8h.html" target="_top" xlink:title=" ">
<polygon fill="#fff0f0" stroke="red" points="642.5,-129 573.5,-129 573.5,-110 642.5,-110 642.5,-129"/>
<text text-anchor="middle" x="608" y="-117" font-family="Helvetica,sans-Serif" font-size="10.00">mp_arith.h</text>
</a>
</g>
</g>
<!-- Node43&#45;&gt;Node44 -->
<g id="edge51_Node000043_Node000044" class="edge">
<title>Node43&#45;&gt;Node44</title>
<g id="a_edge51_Node000043_Node000044"><a xlink:title=" ">
<path fill="none" stroke="#63b8ff" d="M967.46,-168.61C894.71,-158.87 731.99,-137.09 652.89,-126.51"/>
<polygon fill="#63b8ff" stroke="#63b8ff" points="653.13,-123.01 642.75,-125.15 652.2,-129.95 653.13,-123.01"/>
</a>
</g>
</g>
<!-- Node43&#45;&gt;Node38 -->
<g id="edge54_Node000043_Node000038" class="edge">
<title>Node43&#45;&gt;Node38</title>
<g id="a_edge54_Node000043_Node000038"><a xlink:title=" ">
<path fill="none" stroke="#63b8ff" d="M1036.29,-164.98C1070.62,-155.93 1125.06,-141.58 1162.77,-131.64"/>
<polygon fill="#63b8ff" stroke="#63b8ff" points="1163.68,-135.02 1172.45,-129.08 1161.89,-128.25 1163.68,-135.02"/>
</a>
</g>
</g>
<!-- Node44&#45;&gt;Node7 -->
<g id="edge53_Node000044_Node000007" class="edge">
<title>Node44&#45;&gt;Node7</title>
<g id="a_edge53_Node000044_Node000007"><a xlink:title=" ">
<path fill="none" stroke="#63b8ff" d="M608.13,-109.59C607.85,-96.19 605.43,-70.74 592,-55 573.67,-33.53 543.14,-22.14 519.89,-16.28"/>
<polygon fill="#63b8ff" stroke="#63b8ff" points="520.64,-12.86 510.11,-14.03 519.06,-19.68 520.64,-12.86"/>
</a>
</g>
</g>
<!-- Node44&#45;&gt;Node13 -->
<g id="edge52_Node000044_Node000013" class="edge">
<title>Node44&#45;&gt;Node13</title>
<g id="a_edge52_Node000044_Node000013"><a xlink:title=" ">
<path fill="none" stroke="#63b8ff" d="M599.91,-109.75C592.84,-102.11 582.41,-90.82 573.85,-81.56"/>
<polygon fill="#63b8ff" stroke="#63b8ff" points="576.3,-79.06 566.94,-74.09 571.16,-83.81 576.3,-79.06"/>
</a>
</g>
</g>
<!-- Node38&#45;&gt;Node8 -->
<g id="edge55_Node000038_Node000008" class="edge">
<title>Node38&#45;&gt;Node8</title>
<g id="a_edge55_Node000038_Node000008"><a xlink:title=" ">
<path fill="none" stroke="#63b8ff" d="M1200.03,-109.63C1192.18,-96.28 1175.74,-70.89 1156,-55 1138.63,-41.02 1116.15,-30.17 1097.53,-22.69"/>
<polygon fill="#63b8ff" stroke="#63b8ff" points="1098.78,-19.42 1088.19,-19.08 1096.26,-25.95 1098.78,-19.42"/>
</a>
</g>
</g>
<!-- Node46&#45;&gt;Node4 -->
<g id="edge60_Node000046_Node000004" class="edge">
<title>Node46&#45;&gt;Node4</title>
<g id="a_edge60_Node000046_Node000004"><a xlink:title=" ">
<path fill="none" stroke="#63b8ff" d="M990.73,-219.92C981.86,-211.39 968.46,-197.64 959,-184 935.98,-150.83 916.38,-107.6 906.29,-83.59"/>
<polygon fill="#63b8ff" stroke="#63b8ff" points="909.51,-82.2 902.46,-74.29 903.03,-84.86 909.51,-82.2"/>
</a>
</g>
</g>
<!-- Node46&#45;&gt;Node33 -->
<g id="edge59_Node000046_Node000033" class="edge">
<title>Node46&#45;&gt;Node33</title>
<g id="a_edge59_Node000046_Node000033"><a xlink:title=" ">
<path fill="none" stroke="#63b8ff" d="M1010.02,-219.7C1020.16,-210.78 1036.26,-196.53 1050,-184 1067.6,-167.96 1087.47,-149.34 1101.17,-136.43"/>
<polygon fill="#63b8ff" stroke="#63b8ff" points="1103.96,-138.61 1108.83,-129.2 1099.15,-133.52 1103.96,-138.61"/>
</a>
</g>
</g>
<!-- Node46&#45;&gt;Node43 -->
<g id="edge61_Node000046_Node000043" class="edge">
<title>Node46&#45;&gt;Node43</title>
<g id="a_edge61_Node000046_Node000043"><a xlink:title=" ">
<path fill="none" stroke="#63b8ff" d="M1000.66,-219.75C1001.18,-212.8 1001.94,-202.85 1002.59,-194.13"/>
<polygon fill="#63b8ff" stroke="#63b8ff" points="1006.09,-194.32 1003.35,-184.09 999.11,-193.8 1006.09,-194.32"/>
</a>
</g>
</g>
<!-- Node50&#45;&gt;Node9 -->
<g id="edge69_Node000050_Node000009" class="edge">
<title>Node50&#45;&gt;Node9</title>
<g id="a_edge69_Node000050_Node000009"><a xlink:title=" ">
<path fill="none" stroke="#63b8ff" d="M163.42,-335.47C189.17,-316.24 251.99,-269.33 284.22,-245.27"/>
<polygon fill="#63b8ff" stroke="#63b8ff" points="286.52,-247.92 292.44,-239.13 282.34,-242.31 286.52,-247.92"/>
</a>
</g>
</g>
<!-- Node51&#45;&gt;Node27 -->
<g id="edge71_Node000051_Node000027" class="edge">
<title>Node51&#45;&gt;Node27</title>
<g id="a_edge71_Node000051_Node000027"><a xlink:title=" ">
<path fill="none" stroke="#63b8ff" d="M615.69,-395.87C618.67,-388.89 623.02,-378.71 627.01,-369.38"/>
<polygon fill="#63b8ff" stroke="#63b8ff" points="630.26,-370.69 630.97,-360.11 623.82,-367.93 630.26,-370.69"/>
</a>
</g>
</g>
</g>
</svg>
