<?xml version="1.0" encoding="UTF-8" standalone="no"?>
<!DOCTYPE svg PUBLIC "-//W3C//DTD SVG 1.1//EN"
 "http://www.w3.org/Graphics/SVG/1.1/DTD/svg11.dtd">
<!-- Generated by graphviz version 2.43.0 (0)
 -->
<!-- Title: /home/runner/work/cbmc/cbmc/src/goto&#45;instrument/cover_instrument_assume.cpp Pages: 1 -->
<svg width="1350pt" height="500pt"
 viewBox="0.00 0.00 1349.50 500.00" xmlns="http://www.w3.org/2000/svg" xmlns:xlink="http://www.w3.org/1999/xlink">
<g id="graph0" class="graph" transform="scale(1 1) rotate(0) translate(4 496)">
<title>/home/runner/work/cbmc/cbmc/src/goto&#45;instrument/cover_instrument_assume.cpp</title>
<!-- Node1 -->
<g id="Node000001" class="node">
<title>Node1</title>
<g id="a_Node000001"><a xlink:title="Author: Diffblue Ltd.">
<polygon fill="#999999" stroke="#666666" points="990,-492 821,-492 821,-451 990,-451 990,-492"/>
<text text-anchor="start" x="829" y="-480" font-family="Helvetica,sans-Serif" font-size="10.00">/home/runner/work/cbmc</text>
<text text-anchor="start" x="829" y="-469" font-family="Helvetica,sans-Serif" font-size="10.00">/cbmc/src/goto&#45;instrument</text>
<text text-anchor="middle" x="905.5" y="-458" font-family="Helvetica,sans-Serif" font-size="10.00">/cover_instrument_assume.cpp</text>
</a>
</g>
</g>
<!-- Node2 -->
<g id="Node000002" class="node">
<title>Node2</title>
<g id="a_Node000002"><a xlink:href="cover__instrument_8h.html" target="_top" xlink:title="Coverage Instrumentation.">
<polygon fill="white" stroke="#666666" points="919,-415 808,-415 808,-396 919,-396 919,-415"/>
<text text-anchor="middle" x="863.5" y="-403" font-family="Helvetica,sans-Serif" font-size="10.00">cover_instrument.h</text>
</a>
</g>
</g>
<!-- Node1&#45;&gt;Node2 -->
<g id="edge1_Node000001_Node000002" class="edge">
<title>Node1&#45;&gt;Node2</title>
<g id="a_edge1_Node000001_Node000002"><a xlink:title=" ">
<path fill="none" stroke="#63b8ff" d="M892.67,-450.95C886.99,-442.3 880.37,-432.2 874.87,-423.82"/>
<polygon fill="#63b8ff" stroke="#63b8ff" points="877.66,-421.7 869.25,-415.26 871.81,-425.54 877.66,-421.7"/>
</a>
</g>
</g>
<!-- Node27 -->
<g id="Node000027" class="node">
<title>Node27</title>
<g id="a_Node000027"><a xlink:href="goto__program_8h.html" target="_top" xlink:title="Concrete Goto Program.">
<polygon fill="white" stroke="#666666" points="1019,-360 906,-360 906,-330 1019,-330 1019,-360"/>
<text text-anchor="start" x="914" y="-348" font-family="Helvetica,sans-Serif" font-size="10.00">goto&#45;programs/goto</text>
<text text-anchor="middle" x="962.5" y="-337" font-family="Helvetica,sans-Serif" font-size="10.00">_program.h</text>
</a>
</g>
</g>
<!-- Node1&#45;&gt;Node27 -->
<g id="edge70_Node000001_Node000027" class="edge">
<title>Node1&#45;&gt;Node27</title>
<g id="a_edge70_Node000001_Node000027"><a xlink:title=" ">
<path fill="none" stroke="#63b8ff" d="M914.53,-450.77C924.64,-428.69 941.01,-392.95 951.76,-369.46"/>
<polygon fill="#63b8ff" stroke="#63b8ff" points="955.01,-370.76 955.99,-360.21 948.65,-367.85 955.01,-370.76"/>
</a>
</g>
</g>
<!-- Node46 -->
<g id="Node000046" class="node">
<title>Node46</title>
<g id="a_Node000046"><a xlink:href="std__expr_8h.html" target="_top" xlink:title="API to expression classes.">
<polygon fill="white" stroke="#666666" points="257.5,-239 171.5,-239 171.5,-220 257.5,-220 257.5,-239"/>
<text text-anchor="middle" x="214.5" y="-227" font-family="Helvetica,sans-Serif" font-size="10.00">util/std_expr.h</text>
</a>
</g>
</g>
<!-- Node1&#45;&gt;Node46 -->
<g id="edge71_Node000001_Node000046" class="edge">
<title>Node1&#45;&gt;Node46</title>
<g id="a_edge71_Node000001_Node000046"><a xlink:title=" ">
<path fill="none" stroke="#63b8ff" d="M820.99,-467.74C687.08,-459.31 423.67,-425.81 251.5,-294 236.65,-282.63 226.67,-263.45 220.86,-249.14"/>
<polygon fill="#63b8ff" stroke="#63b8ff" points="223.98,-247.51 217.21,-239.36 217.42,-249.95 223.98,-247.51"/>
</a>
</g>
</g>
<!-- Node50 -->
<g id="Node000050" class="node">
<title>Node50</title>
<g id="a_Node000050"><a xlink:href="expr2c_8h.html" target="_top" xlink:title=" ">
<polygon fill="white" stroke="#666666" points="1228,-415 1137,-415 1137,-396 1228,-396 1228,-415"/>
<text text-anchor="middle" x="1182.5" y="-403" font-family="Helvetica,sans-Serif" font-size="10.00">ansi&#45;c/expr2c.h</text>
</a>
</g>
</g>
<!-- Node1&#45;&gt;Node50 -->
<g id="edge68_Node000001_Node000050" class="edge">
<title>Node1&#45;&gt;Node50</title>
<g id="a_edge68_Node000001_Node000050"><a xlink:title=" ">
<path fill="none" stroke="#63b8ff" d="M990.11,-450.95C1037.97,-439.89 1096.01,-426.48 1135.74,-417.3"/>
<polygon fill="#63b8ff" stroke="#63b8ff" points="1136.72,-420.67 1145.68,-415.01 1135.15,-413.85 1136.72,-420.67"/>
</a>
</g>
</g>
<!-- Node3 -->
<g id="Node000003" class="node">
<title>Node3</title>
<g id="a_Node000003"><a xlink:href="namespace_8h.html" target="_top" xlink:title=" ">
<polygon fill="white" stroke="#666666" points="513,-294 412,-294 412,-275 513,-275 513,-294"/>
<text text-anchor="middle" x="462.5" y="-282" font-family="Helvetica,sans-Serif" font-size="10.00">util/namespace.h</text>
</a>
</g>
</g>
<!-- Node2&#45;&gt;Node3 -->
<g id="edge2_Node000002_Node000003" class="edge">
<title>Node2&#45;&gt;Node3</title>
<g id="a_edge2_Node000002_Node000003"><a xlink:title=" ">
<path fill="none" stroke="#63b8ff" d="M834.66,-395.94C763.79,-374.91 581.09,-320.69 501.04,-296.94"/>
<polygon fill="#63b8ff" stroke="#63b8ff" points="501.93,-293.55 491.35,-294.06 499.94,-300.26 501.93,-293.55"/>
</a>
</g>
</g>
<!-- Node2&#45;&gt;Node27 -->
<g id="edge29_Node000002_Node000027" class="edge">
<title>Node2&#45;&gt;Node27</title>
<g id="a_edge29_Node000002_Node000027"><a xlink:title=" ">
<path fill="none" stroke="#63b8ff" d="M878.11,-395.87C891.67,-387.86 912.33,-375.65 929.81,-365.31"/>
<polygon fill="#63b8ff" stroke="#63b8ff" points="931.79,-368.22 938.61,-360.11 928.22,-362.19 931.79,-368.22"/>
</a>
</g>
</g>
<!-- Node49 -->
<g id="Node000049" class="node">
<title>Node49</title>
<g id="a_Node000049"><a xlink:title=" ">
<polygon fill="#e0e0e0" stroke="#999999" points="887.5,-354.5 829.5,-354.5 829.5,-335.5 887.5,-335.5 887.5,-354.5"/>
<text text-anchor="middle" x="858.5" y="-342.5" font-family="Helvetica,sans-Serif" font-size="10.00">memory</text>
</a>
</g>
</g>
<!-- Node2&#45;&gt;Node49 -->
<g id="edge67_Node000002_Node000049" class="edge">
<title>Node2&#45;&gt;Node49</title>
<g id="a_edge67_Node000002_Node000049"><a xlink:title=" ">
<path fill="none" stroke="#63b8ff" d="M862.76,-395.87C862.07,-387.75 861,-375.31 860.11,-364.89"/>
<polygon fill="#63b8ff" stroke="#63b8ff" points="863.58,-364.33 859.24,-354.67 856.61,-364.93 863.58,-364.33"/>
</a>
</g>
</g>
<!-- Node4 -->
<g id="Node000004" class="node">
<title>Node4</title>
<g id="a_Node000004"><a xlink:href="src_2util_2invariant_8h.html" target="_top" xlink:title=" ">
<polygon fill="white" stroke="#666666" points="483,-74 414,-74 414,-55 483,-55 483,-74"/>
<text text-anchor="middle" x="448.5" y="-62" font-family="Helvetica,sans-Serif" font-size="10.00">invariant.h</text>
</a>
</g>
</g>
<!-- Node3&#45;&gt;Node4 -->
<g id="edge3_Node000003_Node000004" class="edge">
<title>Node3&#45;&gt;Node4</title>
<g id="a_edge3_Node000003_Node000004"><a xlink:title=" ">
<path fill="none" stroke="#63b8ff" d="M461.95,-274.95C459.9,-242.95 452.62,-129.68 449.71,-84.4"/>
<polygon fill="#63b8ff" stroke="#63b8ff" points="453.19,-83.98 449.06,-74.22 446.21,-84.43 453.19,-83.98"/>
</a>
</g>
</g>
<!-- Node9 -->
<g id="Node000009" class="node">
<title>Node9</title>
<g id="a_Node000009"><a xlink:href="irep_8h.html" target="_top" xlink:title=" ">
<polygon fill="white" stroke="#666666" points="882.5,-239 838.5,-239 838.5,-220 882.5,-220 882.5,-239"/>
<text text-anchor="middle" x="860.5" y="-227" font-family="Helvetica,sans-Serif" font-size="10.00">irep.h</text>
</a>
</g>
</g>
<!-- Node3&#45;&gt;Node9 -->
<g id="edge8_Node000003_Node000009" class="edge">
<title>Node3&#45;&gt;Node9</title>
<g id="a_edge8_Node000003_Node000009"><a xlink:title=" ">
<path fill="none" stroke="#63b8ff" d="M513.23,-276.28C516.37,-275.84 519.48,-275.41 522.5,-275 634.8,-259.65 768.23,-242.37 828.33,-234.63"/>
<polygon fill="#63b8ff" stroke="#63b8ff" points="828.87,-238.09 838.34,-233.34 827.98,-231.14 828.87,-238.09"/>
</a>
</g>
</g>
<!-- Node5 -->
<g id="Node000005" class="node">
<title>Node5</title>
<g id="a_Node000005"><a xlink:title=" ">
<polygon fill="#e0e0e0" stroke="#999999" points="540,-19 491,-19 491,0 540,0 540,-19"/>
<text text-anchor="middle" x="515.5" y="-7" font-family="Helvetica,sans-Serif" font-size="10.00">cstdlib</text>
</a>
</g>
</g>
<!-- Node4&#45;&gt;Node5 -->
<g id="edge4_Node000004_Node000005" class="edge">
<title>Node4&#45;&gt;Node5</title>
<g id="a_edge4_Node000004_Node000005"><a xlink:title=" ">
<path fill="none" stroke="#63b8ff" d="M459.26,-54.98C469.27,-47.07 484.39,-35.11 496.43,-25.58"/>
<polygon fill="#63b8ff" stroke="#63b8ff" points="498.87,-28.12 504.54,-19.17 494.53,-22.63 498.87,-28.12"/>
</a>
</g>
</g>
<!-- Node6 -->
<g id="Node000006" class="node">
<title>Node6</title>
<g id="a_Node000006"><a xlink:title=" ">
<polygon fill="#e0e0e0" stroke="#999999" points="472.5,-19 416.5,-19 416.5,0 472.5,0 472.5,-19"/>
<text text-anchor="middle" x="444.5" y="-7" font-family="Helvetica,sans-Serif" font-size="10.00">sstream</text>
</a>
</g>
</g>
<!-- Node4&#45;&gt;Node6 -->
<g id="edge5_Node000004_Node000006" class="edge">
<title>Node4&#45;&gt;Node6</title>
<g id="a_edge5_Node000004_Node000006"><a xlink:title=" ">
<path fill="none" stroke="#63b8ff" d="M447.84,-54.75C447.32,-47.8 446.56,-37.85 445.91,-29.13"/>
<polygon fill="#63b8ff" stroke="#63b8ff" points="449.39,-28.8 445.15,-19.09 442.41,-29.32 449.39,-28.8"/>
</a>
</g>
</g>
<!-- Node7 -->
<g id="Node000007" class="node">
<title>Node7</title>
<g id="a_Node000007"><a xlink:title=" ">
<polygon fill="#e0e0e0" stroke="#999999" points="1174.5,-19 1130.5,-19 1130.5,0 1174.5,0 1174.5,-19"/>
<text text-anchor="middle" x="1152.5" y="-7" font-family="Helvetica,sans-Serif" font-size="10.00">string</text>
</a>
</g>
</g>
<!-- Node4&#45;&gt;Node7 -->
<g id="edge6_Node000004_Node000007" class="edge">
<title>Node4&#45;&gt;Node7</title>
<g id="a_edge6_Node000004_Node000007"><a xlink:title=" ">
<path fill="none" stroke="#63b8ff" d="M483.41,-60.87C604.21,-51.78 1003.43,-21.72 1120.17,-12.93"/>
<polygon fill="#63b8ff" stroke="#63b8ff" points="1120.55,-16.42 1130.26,-12.17 1120.03,-9.43 1120.55,-16.42"/>
</a>
</g>
</g>
<!-- Node8 -->
<g id="Node000008" class="node">
<title>Node8</title>
<g id="a_Node000008"><a xlink:title=" ">
<polygon fill="#e0e0e0" stroke="#999999" points="265,-19 196,-19 196,0 265,0 265,-19"/>
<text text-anchor="middle" x="230.5" y="-7" font-family="Helvetica,sans-Serif" font-size="10.00">type_traits</text>
</a>
</g>
</g>
<!-- Node4&#45;&gt;Node8 -->
<g id="edge7_Node000004_Node000008" class="edge">
<title>Node4&#45;&gt;Node8</title>
<g id="a_edge7_Node000004_Node000008"><a xlink:title=" ">
<path fill="none" stroke="#63b8ff" d="M413.96,-55.1C376.36,-45.96 316.12,-31.31 275,-21.32"/>
<polygon fill="#63b8ff" stroke="#63b8ff" points="275.79,-17.91 265.24,-18.95 274.13,-24.71 275.79,-17.91"/>
</a>
</g>
</g>
<!-- Node9&#45;&gt;Node4 -->
<g id="edge11_Node000009_Node000004" class="edge">
<title>Node9&#45;&gt;Node4</title>
<g id="a_edge11_Node000009_Node000004"><a xlink:title=" ">
<path fill="none" stroke="#63b8ff" d="M856.17,-219.78C844.45,-197.22 809.75,-136.86 761.5,-110 716.39,-84.88 568.51,-72.65 493.3,-67.93"/>
<polygon fill="#63b8ff" stroke="#63b8ff" points="493.38,-64.43 483.19,-67.31 492.95,-71.41 493.38,-64.43"/>
</a>
</g>
</g>
<!-- Node9&#45;&gt;Node7 -->
<g id="edge9_Node000009_Node000007" class="edge">
<title>Node9&#45;&gt;Node7</title>
<g id="a_edge9_Node000009_Node000007"><a xlink:title=" ">
<path fill="none" stroke="#63b8ff" d="M882.55,-221.5C905.98,-213.69 943.81,-200.04 974.5,-184 1050.66,-144.21 1083.53,-143.9 1133.5,-74 1143.02,-60.69 1147.82,-42.58 1150.22,-29.1"/>
<polygon fill="#63b8ff" stroke="#63b8ff" points="1153.7,-29.49 1151.71,-19.08 1146.77,-28.45 1153.7,-29.49"/>
</a>
</g>
</g>
<!-- Node10 -->
<g id="Node000010" class="node">
<title>Node10</title>
<g id="a_Node000010"><a xlink:title=" ">
<polygon fill="#e0e0e0" stroke="#999999" points="1274,-19 1227,-19 1227,0 1274,0 1274,-19"/>
<text text-anchor="middle" x="1250.5" y="-7" font-family="Helvetica,sans-Serif" font-size="10.00">vector</text>
</a>
</g>
</g>
<!-- Node9&#45;&gt;Node10 -->
<g id="edge10_Node000009_Node000010" class="edge">
<title>Node9&#45;&gt;Node10</title>
<g id="a_edge10_Node000009_Node000010"><a xlink:title=" ">
<path fill="none" stroke="#63b8ff" d="M882.62,-222.43C917.77,-212.68 984.73,-193.64 1007.5,-184 1053.85,-164.37 1064.9,-157.33 1106.5,-129 1155.28,-95.78 1207.6,-49.79 1233.69,-26.06"/>
<polygon fill="#63b8ff" stroke="#63b8ff" points="1236.19,-28.52 1241.2,-19.18 1231.46,-23.35 1236.19,-28.52"/>
</a>
</g>
</g>
<!-- Node11 -->
<g id="Node000011" class="node">
<title>Node11</title>
<g id="a_Node000011"><a xlink:href="irep__ids_8h.html" target="_top" xlink:title="util">
<polygon fill="white" stroke="#666666" points="965.5,-184 901.5,-184 901.5,-165 965.5,-165 965.5,-184"/>
<text text-anchor="middle" x="933.5" y="-172" font-family="Helvetica,sans-Serif" font-size="10.00">irep_ids.h</text>
</a>
</g>
</g>
<!-- Node9&#45;&gt;Node11 -->
<g id="edge12_Node000009_Node000011" class="edge">
<title>Node9&#45;&gt;Node11</title>
<g id="a_edge12_Node000009_Node000011"><a xlink:title=" ">
<path fill="none" stroke="#63b8ff" d="M872.23,-219.98C883.23,-212 899.92,-199.88 913.1,-190.31"/>
<polygon fill="#63b8ff" stroke="#63b8ff" points="915.52,-192.88 921.56,-184.17 911.41,-187.21 915.52,-192.88"/>
</a>
</g>
</g>
<!-- Node22 -->
<g id="Node000022" class="node">
<title>Node22</title>
<g id="a_Node000022"><a xlink:href="forward__list__as__map_8h.html" target="_top" xlink:title=" ">
<polygon fill="white" stroke="#666666" points="697,-184 570,-184 570,-165 697,-165 697,-184"/>
<text text-anchor="middle" x="633.5" y="-172" font-family="Helvetica,sans-Serif" font-size="10.00">forward_list_as_map.h</text>
</a>
</g>
</g>
<!-- Node9&#45;&gt;Node22 -->
<g id="edge22_Node000009_Node000022" class="edge">
<title>Node9&#45;&gt;Node22</title>
<g id="a_edge22_Node000009_Node000022"><a xlink:title=" ">
<path fill="none" stroke="#63b8ff" d="M838.32,-223.32C801.87,-214.81 728.52,-197.69 680.22,-186.41"/>
<polygon fill="#63b8ff" stroke="#63b8ff" points="680.85,-182.96 670.31,-184.1 679.25,-189.78 680.85,-182.96"/>
</a>
</g>
</g>
<!-- Node12 -->
<g id="Node000012" class="node">
<title>Node12</title>
<g id="a_Node000012"><a xlink:href="dstring_8h.html" target="_top" xlink:title="Container for C&#45;Strings.">
<polygon fill="white" stroke="#666666" points="1048,-129 989,-129 989,-110 1048,-110 1048,-129"/>
<text text-anchor="middle" x="1018.5" y="-117" font-family="Helvetica,sans-Serif" font-size="10.00">dstring.h</text>
</a>
</g>
</g>
<!-- Node11&#45;&gt;Node12 -->
<g id="edge13_Node000011_Node000012" class="edge">
<title>Node11&#45;&gt;Node12</title>
<g id="a_edge13_Node000011_Node000012"><a xlink:title=" ">
<path fill="none" stroke="#63b8ff" d="M947.16,-164.98C960.34,-156.77 980.53,-144.18 996.07,-134.49"/>
<polygon fill="#63b8ff" stroke="#63b8ff" points="997.96,-137.43 1004.59,-129.17 994.26,-131.49 997.96,-137.43"/>
</a>
</g>
</g>
<!-- Node21 -->
<g id="Node000021" class="node">
<title>Node21</title>
<g id="a_Node000021"><a xlink:title=" ">
<polygon fill="#e0e0e0" stroke="#999999" points="970.5,-129 896.5,-129 896.5,-110 970.5,-110 970.5,-129"/>
<text text-anchor="middle" x="933.5" y="-117" font-family="Helvetica,sans-Serif" font-size="10.00">irep_ids.def</text>
</a>
</g>
</g>
<!-- Node11&#45;&gt;Node21 -->
<g id="edge21_Node000011_Node000021" class="edge">
<title>Node11&#45;&gt;Node21</title>
<g id="a_edge21_Node000011_Node000021"><a xlink:title=" ">
<path fill="none" stroke="#63b8ff" d="M933.5,-164.75C933.5,-157.8 933.5,-147.85 933.5,-139.13"/>
<polygon fill="#63b8ff" stroke="#63b8ff" points="937,-139.09 933.5,-129.09 930,-139.09 937,-139.09"/>
</a>
</g>
</g>
<!-- Node12&#45;&gt;Node7 -->
<g id="edge15_Node000012_Node000007" class="edge">
<title>Node12&#45;&gt;Node7</title>
<g id="a_edge15_Node000012_Node000007"><a xlink:title=" ">
<path fill="none" stroke="#63b8ff" d="M988.88,-111.53C948.03,-101.62 878.63,-83.61 871.5,-74 866.47,-67.22 866.02,-61.42 871.5,-55 903.17,-17.92 1053.13,-11.57 1120.08,-10.6"/>
<polygon fill="#63b8ff" stroke="#63b8ff" points="1120.13,-14.1 1130.09,-10.49 1120.05,-7.1 1120.13,-14.1"/>
</a>
</g>
</g>
<!-- Node13 -->
<g id="Node000013" class="node">
<title>Node13</title>
<g id="a_Node000013"><a xlink:title=" ">
<polygon fill="#e0e0e0" stroke="#999999" points="928.5,-74 880.5,-74 880.5,-55 928.5,-55 928.5,-74"/>
<text text-anchor="middle" x="904.5" y="-62" font-family="Helvetica,sans-Serif" font-size="10.00">iosfwd</text>
</a>
</g>
</g>
<!-- Node12&#45;&gt;Node13 -->
<g id="edge14_Node000012_Node000013" class="edge">
<title>Node12&#45;&gt;Node13</title>
<g id="a_edge14_Node000012_Node000013"><a xlink:title=" ">
<path fill="none" stroke="#63b8ff" d="M1000.18,-109.98C981.84,-101.46 953.39,-88.23 932.27,-78.41"/>
<polygon fill="#63b8ff" stroke="#63b8ff" points="933.69,-75.21 923.15,-74.17 930.74,-81.56 933.69,-75.21"/>
</a>
</g>
</g>
<!-- Node14 -->
<g id="Node000014" class="node">
<title>Node14</title>
<g id="a_Node000014"><a xlink:href="magic_8h.html" target="_top" xlink:title="Magic numbers used throughout the codebase.">
<polygon fill="#fff0f0" stroke="red" points="1002.5,-74 946.5,-74 946.5,-55 1002.5,-55 1002.5,-74"/>
<text text-anchor="middle" x="974.5" y="-62" font-family="Helvetica,sans-Serif" font-size="10.00">magic.h</text>
</a>
</g>
</g>
<!-- Node12&#45;&gt;Node14 -->
<g id="edge16_Node000012_Node000014" class="edge">
<title>Node12&#45;&gt;Node14</title>
<g id="a_edge16_Node000012_Node000014"><a xlink:title=" ">
<path fill="none" stroke="#63b8ff" d="M1011.23,-109.75C1004.96,-102.18 995.71,-91.05 988.07,-81.84"/>
<polygon fill="#63b8ff" stroke="#63b8ff" points="990.71,-79.55 981.63,-74.09 985.33,-84.02 990.71,-79.55"/>
</a>
</g>
</g>
<!-- Node16 -->
<g id="Node000016" class="node">
<title>Node16</title>
<g id="a_Node000016"><a xlink:href="string__container_8h.html" target="_top" xlink:title="Container for C&#45;Strings.">
<polygon fill="#fff0f0" stroke="red" points="1124.5,-74 1020.5,-74 1020.5,-55 1124.5,-55 1124.5,-74"/>
<text text-anchor="middle" x="1072.5" y="-62" font-family="Helvetica,sans-Serif" font-size="10.00">string_container.h</text>
</a>
</g>
</g>
<!-- Node12&#45;&gt;Node16 -->
<g id="edge17_Node000012_Node000016" class="edge">
<title>Node12&#45;&gt;Node16</title>
<g id="a_edge17_Node000012_Node000016"><a xlink:title=" ">
<path fill="none" stroke="#63b8ff" d="M1027.42,-109.75C1035.28,-102.03 1046.93,-90.6 1056.42,-81.28"/>
<polygon fill="#63b8ff" stroke="#63b8ff" points="1059.06,-83.59 1063.75,-74.09 1054.16,-78.6 1059.06,-83.59"/>
</a>
</g>
</g>
<!-- Node16&#45;&gt;Node10 -->
<g id="edge20_Node000016_Node000010" class="edge">
<title>Node16&#45;&gt;Node10</title>
<g id="a_edge20_Node000016_Node000010"><a xlink:title=" ">
<path fill="none" stroke="#63b8ff" d="M1101.1,-54.98C1132.72,-45.57 1183.59,-30.42 1217.03,-20.46"/>
<polygon fill="#63b8ff" stroke="#63b8ff" points="1218.23,-23.76 1226.81,-17.55 1216.23,-17.05 1218.23,-23.76"/>
</a>
</g>
</g>
<!-- Node17 -->
<g id="Node000017" class="node">
<title>Node17</title>
<g id="a_Node000017"><a xlink:title=" ">
<polygon fill="#e0e0e0" stroke="#999999" points="1341.5,-19 1309.5,-19 1309.5,0 1341.5,0 1341.5,-19"/>
<text text-anchor="middle" x="1325.5" y="-7" font-family="Helvetica,sans-Serif" font-size="10.00">list</text>
</a>
</g>
</g>
<!-- Node16&#45;&gt;Node17 -->
<g id="edge18_Node000016_Node000017" class="edge">
<title>Node16&#45;&gt;Node17</title>
<g id="a_edge18_Node000016_Node000017"><a xlink:title=" ">
<path fill="none" stroke="#63b8ff" d="M1113.15,-54.98C1165.54,-44.01 1255.13,-25.24 1299.3,-15.99"/>
<polygon fill="#63b8ff" stroke="#63b8ff" points="1300.19,-19.38 1309.26,-13.9 1298.75,-12.53 1300.19,-19.38"/>
</a>
</g>
</g>
<!-- Node18 -->
<g id="Node000018" class="node">
<title>Node18</title>
<g id="a_Node000018"><a xlink:title=" ">
<polygon fill="#e0e0e0" stroke="#999999" points="391,-19 298,-19 298,0 391,0 391,-19"/>
<text text-anchor="middle" x="344.5" y="-7" font-family="Helvetica,sans-Serif" font-size="10.00">unordered_map</text>
</a>
</g>
</g>
<!-- Node16&#45;&gt;Node18 -->
<g id="edge19_Node000016_Node000018" class="edge">
<title>Node16&#45;&gt;Node18</title>
<g id="a_edge19_Node000016_Node000018"><a xlink:title=" ">
<path fill="none" stroke="#63b8ff" d="M1020.29,-55.95C1017.32,-55.61 1014.37,-55.29 1011.5,-55 743.9,-28.42 675.16,-45 407.5,-19 405.44,-18.8 403.34,-18.58 401.23,-18.35"/>
<polygon fill="#63b8ff" stroke="#63b8ff" points="401.58,-14.87 391.24,-17.2 400.78,-21.83 401.58,-14.87"/>
</a>
</g>
</g>
<!-- Node23 -->
<g id="Node000023" class="node">
<title>Node23</title>
<g id="a_Node000023"><a xlink:title=" ">
<polygon fill="#e0e0e0" stroke="#999999" points="752.5,-129 688.5,-129 688.5,-110 752.5,-110 752.5,-129"/>
<text text-anchor="middle" x="720.5" y="-117" font-family="Helvetica,sans-Serif" font-size="10.00">algorithm</text>
</a>
</g>
</g>
<!-- Node22&#45;&gt;Node23 -->
<g id="edge23_Node000022_Node000023" class="edge">
<title>Node22&#45;&gt;Node23</title>
<g id="a_edge23_Node000022_Node000023"><a xlink:title=" ">
<path fill="none" stroke="#63b8ff" d="M647.48,-164.98C660.97,-156.77 681.63,-144.18 697.54,-134.49"/>
<polygon fill="#63b8ff" stroke="#63b8ff" points="699.55,-137.36 706.27,-129.17 695.91,-131.38 699.55,-137.36"/>
</a>
</g>
</g>
<!-- Node24 -->
<g id="Node000024" class="node">
<title>Node24</title>
<g id="a_Node000024"><a xlink:title=" ">
<polygon fill="#e0e0e0" stroke="#999999" points="670.5,-129 596.5,-129 596.5,-110 670.5,-110 670.5,-129"/>
<text text-anchor="middle" x="633.5" y="-117" font-family="Helvetica,sans-Serif" font-size="10.00">forward_list</text>
</a>
</g>
</g>
<!-- Node22&#45;&gt;Node24 -->
<g id="edge24_Node000022_Node000024" class="edge">
<title>Node22&#45;&gt;Node24</title>
<g id="a_edge24_Node000022_Node000024"><a xlink:title=" ">
<path fill="none" stroke="#63b8ff" d="M633.5,-164.75C633.5,-157.8 633.5,-147.85 633.5,-139.13"/>
<polygon fill="#63b8ff" stroke="#63b8ff" points="637,-139.09 633.5,-129.09 630,-139.09 637,-139.09"/>
</a>
</g>
</g>
<!-- Node25 -->
<g id="Node000025" class="node">
<title>Node25</title>
<g id="a_Node000025"><a xlink:href="as__const_8h.html" target="_top" xlink:title=" ">
<polygon fill="white" stroke="#666666" points="172.5,-19 104.5,-19 104.5,0 172.5,0 172.5,-19"/>
<text text-anchor="middle" x="138.5" y="-7" font-family="Helvetica,sans-Serif" font-size="10.00">as_const.h</text>
</a>
</g>
</g>
<!-- Node22&#45;&gt;Node25 -->
<g id="edge25_Node000022_Node000025" class="edge">
<title>Node22&#45;&gt;Node25</title>
<g id="a_edge25_Node000022_Node000025"><a xlink:title=" ">
<path fill="none" stroke="#63b8ff" d="M607.58,-164.97C525.15,-137.82 268.86,-53.43 174.15,-22.24"/>
<polygon fill="#63b8ff" stroke="#63b8ff" points="175.05,-18.85 164.46,-19.05 172.86,-25.5 175.05,-18.85"/>
</a>
</g>
</g>
<!-- Node26 -->
<g id="Node000026" class="node">
<title>Node26</title>
<g id="a_Node000026"><a xlink:href="narrow_8h.html" target="_top" xlink:title=" ">
<polygon fill="white" stroke="#666666" points="578,-129 519,-129 519,-110 578,-110 578,-129"/>
<text text-anchor="middle" x="548.5" y="-117" font-family="Helvetica,sans-Serif" font-size="10.00">narrow.h</text>
</a>
</g>
</g>
<!-- Node22&#45;&gt;Node26 -->
<g id="edge26_Node000022_Node000026" class="edge">
<title>Node22&#45;&gt;Node26</title>
<g id="a_edge26_Node000022_Node000026"><a xlink:title=" ">
<path fill="none" stroke="#63b8ff" d="M619.84,-164.98C606.66,-156.77 586.47,-144.18 570.93,-134.49"/>
<polygon fill="#63b8ff" stroke="#63b8ff" points="572.74,-131.49 562.41,-129.17 569.04,-137.43 572.74,-131.49"/>
</a>
</g>
</g>
<!-- Node26&#45;&gt;Node4 -->
<g id="edge28_Node000026_Node000004" class="edge">
<title>Node26&#45;&gt;Node4</title>
<g id="a_edge28_Node000026_Node000004"><a xlink:title=" ">
<path fill="none" stroke="#63b8ff" d="M532.43,-109.98C516.64,-101.61 492.28,-88.7 473.87,-78.95"/>
<polygon fill="#63b8ff" stroke="#63b8ff" points="475.33,-75.76 464.86,-74.17 472.06,-81.95 475.33,-75.76"/>
</a>
</g>
</g>
<!-- Node26&#45;&gt;Node8 -->
<g id="edge27_Node000026_Node000008" class="edge">
<title>Node26&#45;&gt;Node8</title>
<g id="a_edge27_Node000026_Node000008"><a xlink:title=" ">
<path fill="none" stroke="#63b8ff" d="M543.46,-109.84C534.78,-95.8 515.63,-68.31 491.5,-55 482.1,-49.82 347.43,-28.5 275.33,-17.36"/>
<polygon fill="#63b8ff" stroke="#63b8ff" points="275.58,-13.86 265.17,-15.79 274.52,-20.77 275.58,-13.86"/>
</a>
</g>
</g>
<!-- Node27&#45;&gt;Node4 -->
<g id="edge30_Node000027_Node000004" class="edge">
<title>Node27&#45;&gt;Node4</title>
<g id="a_edge30_Node000027_Node000004"><a xlink:title=" ">
<path fill="none" stroke="#63b8ff" d="M906.15,-329.96C824.82,-307.91 672.07,-259.71 560.5,-184 517.94,-155.12 479.38,-107.55 460.58,-82.36"/>
<polygon fill="#63b8ff" stroke="#63b8ff" points="463.31,-80.16 454.57,-74.17 457.66,-84.3 463.31,-80.16"/>
</a>
</g>
</g>
<!-- Node27&#45;&gt;Node7 -->
<g id="edge66_Node000027_Node000007" class="edge">
<title>Node27&#45;&gt;Node7</title>
<g id="a_edge66_Node000027_Node000007"><a xlink:title=" ">
<path fill="none" stroke="#63b8ff" d="M1019.24,-343.81C1097.36,-340.22 1228.5,-320.75 1228.5,-230.5 1228.5,-230.5 1228.5,-230.5 1228.5,-118.5 1228.5,-79.47 1194.89,-44.58 1172.37,-25.6"/>
<polygon fill="#63b8ff" stroke="#63b8ff" points="1174.35,-22.7 1164.38,-19.12 1169.94,-28.14 1174.35,-22.7"/>
</a>
</g>
</g>
<!-- Node27&#45;&gt;Node13 -->
<g id="edge62_Node000027_Node000013" class="edge">
<title>Node27&#45;&gt;Node13</title>
<g id="a_edge62_Node000027_Node000013"><a xlink:title=" ">
<path fill="none" stroke="#63b8ff" d="M993.05,-329.94C1026.82,-312.04 1076.5,-277.7 1076.5,-230.5 1076.5,-230.5 1076.5,-230.5 1076.5,-173.5 1076.5,-143.91 1077.63,-130.71 1056.5,-110 1052.18,-105.77 982.04,-86.34 938.56,-74.6"/>
<polygon fill="#63b8ff" stroke="#63b8ff" points="939.24,-71.16 928.67,-71.94 937.42,-77.92 939.24,-71.16"/>
</a>
</g>
</g>
<!-- Node27&#45;&gt;Node17 -->
<g id="edge64_Node000027_Node000017" class="edge">
<title>Node27&#45;&gt;Node17</title>
<g id="a_edge64_Node000027_Node000017"><a xlink:title=" ">
<path fill="none" stroke="#63b8ff" d="M1019.27,-339.59C1086.33,-333.28 1192.55,-319.54 1222.5,-294 1305.3,-223.38 1321.55,-80.6 1324.73,-29.35"/>
<polygon fill="#63b8ff" stroke="#63b8ff" points="1328.23,-29.28 1325.26,-19.11 1321.24,-28.92 1328.23,-29.28"/>
</a>
</g>
</g>
<!-- Node28 -->
<g id="Node000028" class="node">
<title>Node28</title>
<g id="a_Node000028"><a xlink:href="source__location_8h.html" target="_top" xlink:title=" ">
<polygon fill="white" stroke="#666666" points="1023,-294 902,-294 902,-275 1023,-275 1023,-294"/>
<text text-anchor="middle" x="962.5" y="-282" font-family="Helvetica,sans-Serif" font-size="10.00">util/source_location.h</text>
</a>
</g>
</g>
<!-- Node27&#45;&gt;Node28 -->
<g id="edge31_Node000027_Node000028" class="edge">
<title>Node27&#45;&gt;Node28</title>
<g id="a_edge31_Node000027_Node000028"><a xlink:title=" ">
<path fill="none" stroke="#63b8ff" d="M962.5,-329.84C962.5,-322.21 962.5,-312.7 962.5,-304.45"/>
<polygon fill="#63b8ff" stroke="#63b8ff" points="966,-304.27 962.5,-294.27 959,-304.27 966,-304.27"/>
</a>
</g>
</g>
<!-- Node31 -->
<g id="Node000031" class="node">
<title>Node31</title>
<g id="a_Node000031"><a xlink:href="goto__instruction__code_8h.html" target="_top" xlink:title=" ">
<polygon fill="white" stroke="#666666" points="394,-294 261,-294 261,-275 394,-275 394,-294"/>
<text text-anchor="middle" x="327.5" y="-282" font-family="Helvetica,sans-Serif" font-size="10.00">goto_instruction_code.h</text>
</a>
</g>
</g>
<!-- Node27&#45;&gt;Node31 -->
<g id="edge36_Node000027_Node000031" class="edge">
<title>Node27&#45;&gt;Node31</title>
<g id="a_edge36_Node000027_Node000031"><a xlink:title=" ">
<path fill="none" stroke="#63b8ff" d="M905.71,-331.44C902.6,-330.91 899.52,-330.43 896.5,-330 681.84,-299.56 623.45,-313.95 404.36,-294.13"/>
<polygon fill="#63b8ff" stroke="#63b8ff" points="404.42,-290.62 394.14,-293.19 403.78,-297.59 404.42,-290.62"/>
</a>
</g>
</g>
<!-- Node47 -->
<g id="Node000047" class="node">
<title>Node47</title>
<g id="a_Node000047"><a xlink:title=" ">
<polygon fill="#e0e0e0" stroke="#999999" points="1148.5,-294 1104.5,-294 1104.5,-275 1148.5,-275 1148.5,-294"/>
<text text-anchor="middle" x="1126.5" y="-282" font-family="Helvetica,sans-Serif" font-size="10.00">limits</text>
</a>
</g>
</g>
<!-- Node27&#45;&gt;Node47 -->
<g id="edge63_Node000027_Node000047" class="edge">
<title>Node27&#45;&gt;Node47</title>
<g id="a_edge63_Node000027_Node000047"><a xlink:title=" ">
<path fill="none" stroke="#63b8ff" d="M1001.78,-329.99C1030.18,-319.86 1068.07,-306.34 1094.6,-296.88"/>
<polygon fill="#63b8ff" stroke="#63b8ff" points="1095.93,-300.12 1104.18,-293.46 1093.58,-293.53 1095.93,-300.12"/>
</a>
</g>
</g>
<!-- Node48 -->
<g id="Node000048" class="node">
<title>Node48</title>
<g id="a_Node000048"><a xlink:title=" ">
<polygon fill="#e0e0e0" stroke="#999999" points="563.5,-294 531.5,-294 531.5,-275 563.5,-275 563.5,-294"/>
<text text-anchor="middle" x="547.5" y="-282" font-family="Helvetica,sans-Serif" font-size="10.00">set</text>
</a>
</g>
</g>
<!-- Node27&#45;&gt;Node48 -->
<g id="edge65_Node000027_Node000048" class="edge">
<title>Node27&#45;&gt;Node48</title>
<g id="a_edge65_Node000027_Node000048"><a xlink:title=" ">
<path fill="none" stroke="#63b8ff" d="M905.68,-331.58C902.58,-331.02 899.51,-330.49 896.5,-330 755.66,-307.17 717.49,-321.54 577.5,-294 576.22,-293.75 574.91,-293.47 573.59,-293.17"/>
<polygon fill="#63b8ff" stroke="#63b8ff" points="574.13,-289.69 563.57,-290.58 572.38,-296.47 574.13,-289.69"/>
</a>
</g>
</g>
<!-- Node28&#45;&gt;Node7 -->
<g id="edge35_Node000028_Node000007" class="edge">
<title>Node28&#45;&gt;Node7</title>
<g id="a_edge35_Node000028_Node000007"><a xlink:title=" ">
<path fill="none" stroke="#63b8ff" d="M1023,-280.27C1090.55,-273.02 1190.5,-249.74 1190.5,-175.5 1190.5,-175.5 1190.5,-175.5 1190.5,-118.5 1190.5,-85.02 1174.05,-48.84 1162.8,-28.01"/>
<polygon fill="#63b8ff" stroke="#63b8ff" points="1165.74,-26.1 1157.78,-19.1 1159.63,-29.53 1165.74,-26.1"/>
</a>
</g>
</g>
<!-- Node28&#45;&gt;Node9 -->
<g id="edge33_Node000028_Node000009" class="edge">
<title>Node28&#45;&gt;Node9</title>
<g id="a_edge33_Node000028_Node000009"><a xlink:title=" ">
<path fill="none" stroke="#63b8ff" d="M946.11,-274.98C929.93,-266.57 904.93,-253.59 886.12,-243.81"/>
<polygon fill="#63b8ff" stroke="#63b8ff" points="887.67,-240.68 877.19,-239.17 884.45,-246.89 887.67,-240.68"/>
</a>
</g>
</g>
<!-- Node29 -->
<g id="Node000029" class="node">
<title>Node29</title>
<g id="a_Node000029"><a xlink:href="deprecate_8h.html" target="_top" xlink:title=" ">
<polygon fill="white" stroke="#666666" points="974.5,-239 900.5,-239 900.5,-220 974.5,-220 974.5,-239"/>
<text text-anchor="middle" x="937.5" y="-227" font-family="Helvetica,sans-Serif" font-size="10.00">deprecate.h</text>
</a>
</g>
</g>
<!-- Node28&#45;&gt;Node29 -->
<g id="edge32_Node000028_Node000029" class="edge">
<title>Node28&#45;&gt;Node29</title>
<g id="a_edge32_Node000028_Node000029"><a xlink:title=" ">
<path fill="none" stroke="#63b8ff" d="M958.37,-274.75C954.99,-267.57 950.08,-257.18 945.88,-248.27"/>
<polygon fill="#63b8ff" stroke="#63b8ff" points="948.98,-246.64 941.55,-239.09 942.65,-249.63 948.98,-246.64"/>
</a>
</g>
</g>
<!-- Node30 -->
<g id="Node000030" class="node">
<title>Node30</title>
<g id="a_Node000030"><a xlink:title=" ">
<polygon fill="#e0e0e0" stroke="#999999" points="1048.5,-239 992.5,-239 992.5,-220 1048.5,-220 1048.5,-239"/>
<text text-anchor="middle" x="1020.5" y="-227" font-family="Helvetica,sans-Serif" font-size="10.00">optional</text>
</a>
</g>
</g>
<!-- Node28&#45;&gt;Node30 -->
<g id="edge34_Node000028_Node000030" class="edge">
<title>Node28&#45;&gt;Node30</title>
<g id="a_edge34_Node000028_Node000030"><a xlink:title=" ">
<path fill="none" stroke="#63b8ff" d="M971.82,-274.98C980.31,-267.23 993.06,-255.58 1003.38,-246.14"/>
<polygon fill="#63b8ff" stroke="#63b8ff" points="1005.99,-248.5 1011.01,-239.17 1001.27,-243.33 1005.99,-248.5"/>
</a>
</g>
</g>
<!-- Node32 -->
<g id="Node000032" class="node">
<title>Node32</title>
<g id="a_Node000032"><a xlink:href="std__code__base_8h.html" target="_top" xlink:title=" ">
<polygon fill="white" stroke="#666666" points="391.5,-239 275.5,-239 275.5,-220 391.5,-220 391.5,-239"/>
<text text-anchor="middle" x="333.5" y="-227" font-family="Helvetica,sans-Serif" font-size="10.00">util/std_code_base.h</text>
</a>
</g>
</g>
<!-- Node31&#45;&gt;Node32 -->
<g id="edge37_Node000031_Node000032" class="edge">
<title>Node31&#45;&gt;Node32</title>
<g id="a_edge37_Node000031_Node000032"><a xlink:title=" ">
<path fill="none" stroke="#63b8ff" d="M328.49,-274.75C329.28,-267.8 330.4,-257.85 331.39,-249.13"/>
<polygon fill="#63b8ff" stroke="#63b8ff" points="334.88,-249.42 332.53,-239.09 327.92,-248.63 334.88,-249.42"/>
</a>
</g>
</g>
<!-- Node31&#45;&gt;Node46 -->
<g id="edge58_Node000031_Node000046" class="edge">
<title>Node31&#45;&gt;Node46</title>
<g id="a_edge58_Node000031_Node000046"><a xlink:title=" ">
<path fill="none" stroke="#63b8ff" d="M309.34,-274.98C291.25,-266.5 263.22,-253.35 242.31,-243.54"/>
<polygon fill="#63b8ff" stroke="#63b8ff" points="243.53,-240.25 232.99,-239.17 240.55,-246.59 243.53,-240.25"/>
</a>
</g>
</g>
<!-- Node32&#45;&gt;Node4 -->
<g id="edge46_Node000032_Node000004" class="edge">
<title>Node32&#45;&gt;Node4</title>
<g id="a_edge46_Node000032_Node000004"><a xlink:title=" ">
<path fill="none" stroke="#63b8ff" d="M339.68,-219.74C357.93,-193.87 411.83,-117.48 436.24,-82.88"/>
<polygon fill="#63b8ff" stroke="#63b8ff" points="439.38,-84.5 442.29,-74.31 433.66,-80.46 439.38,-84.5"/>
</a>
</g>
</g>
<!-- Node33 -->
<g id="Node000033" class="node">
<title>Node33</title>
<g id="a_Node000033"><a xlink:href="expr__cast_8h.html" target="_top" xlink:title="Templated functions to cast to specific exprt&#45;derived classes.">
<polygon fill="white" stroke="#666666" points="112,-129 39,-129 39,-110 112,-110 112,-129"/>
<text text-anchor="middle" x="75.5" y="-117" font-family="Helvetica,sans-Serif" font-size="10.00">expr_cast.h</text>
</a>
</g>
</g>
<!-- Node32&#45;&gt;Node33 -->
<g id="edge38_Node000032_Node000033" class="edge">
<title>Node32&#45;&gt;Node33</title>
<g id="a_edge38_Node000032_Node000033"><a xlink:title=" ">
<path fill="none" stroke="#63b8ff" d="M292.62,-219.99C260.74,-212.59 215.76,-200.46 178.5,-184 147.84,-170.45 115.39,-149.12 95.28,-134.98"/>
<polygon fill="#63b8ff" stroke="#63b8ff" points="97.14,-132 86.97,-129.04 93.07,-137.7 97.14,-132"/>
</a>
</g>
</g>
<!-- Node43 -->
<g id="Node000043" class="node">
<title>Node43</title>
<g id="a_Node000043"><a xlink:href="std__types_8h.html" target="_top" xlink:title="Pre&#45;defined types.">
<polygon fill="white" stroke="#666666" points="261,-184 188,-184 188,-165 261,-165 261,-184"/>
<text text-anchor="middle" x="224.5" y="-172" font-family="Helvetica,sans-Serif" font-size="10.00">std_types.h</text>
</a>
</g>
</g>
<!-- Node32&#45;&gt;Node43 -->
<g id="edge47_Node000032_Node000043" class="edge">
<title>Node32&#45;&gt;Node43</title>
<g id="a_edge47_Node000032_Node000043"><a xlink:title=" ">
<path fill="none" stroke="#63b8ff" d="M315.99,-219.98C298.53,-211.5 271.49,-198.35 251.33,-188.54"/>
<polygon fill="#63b8ff" stroke="#63b8ff" points="252.86,-185.4 242.33,-184.17 249.79,-191.69 252.86,-185.4"/>
</a>
</g>
</g>
<!-- Node38 -->
<g id="Node000038" class="node">
<title>Node38</title>
<g id="a_Node000038"><a xlink:href="validate_8h.html" target="_top" xlink:title=" ">
<polygon fill="#fff0f0" stroke="red" points="234,-129 169,-129 169,-110 234,-110 234,-129"/>
<text text-anchor="middle" x="201.5" y="-117" font-family="Helvetica,sans-Serif" font-size="10.00">validate.h</text>
</a>
</g>
</g>
<!-- Node32&#45;&gt;Node38 -->
<g id="edge57_Node000032_Node000038" class="edge">
<title>Node32&#45;&gt;Node38</title>
<g id="a_edge57_Node000032_Node000038"><a xlink:title=" ">
<path fill="none" stroke="#63b8ff" d="M325.72,-219.72C314.14,-206.92 291.4,-182.73 269.5,-165 255.51,-153.68 238.58,-142.59 225.11,-134.31"/>
<polygon fill="#63b8ff" stroke="#63b8ff" points="226.79,-131.24 216.42,-129.07 223.17,-137.23 226.79,-131.24"/>
</a>
</g>
</g>
<!-- Node33&#45;&gt;Node4 -->
<g id="edge42_Node000033_Node000004" class="edge">
<title>Node33&#45;&gt;Node4</title>
<g id="a_edge42_Node000033_Node000004"><a xlink:title=" ">
<path fill="none" stroke="#63b8ff" d="M112.29,-113.27C181.18,-103.48 329.43,-82.42 403.89,-71.84"/>
<polygon fill="#63b8ff" stroke="#63b8ff" points="404.48,-75.29 413.89,-70.42 403.5,-68.36 404.48,-75.29"/>
</a>
</g>
</g>
<!-- Node33&#45;&gt;Node8 -->
<g id="edge40_Node000033_Node000008" class="edge">
<title>Node33&#45;&gt;Node8</title>
<g id="a_edge40_Node000033_Node000008"><a xlink:title=" ">
<path fill="none" stroke="#63b8ff" d="M99.59,-109.91C119.4,-102.21 147.66,-89.71 169.5,-74 188.2,-60.54 206.03,-40.92 217.52,-27.06"/>
<polygon fill="#63b8ff" stroke="#63b8ff" points="220.25,-29.25 223.82,-19.28 214.81,-24.85 220.25,-29.25"/>
</a>
</g>
</g>
<!-- Node34 -->
<g id="Node000034" class="node">
<title>Node34</title>
<g id="a_Node000034"><a xlink:title=" ">
<polygon fill="#e0e0e0" stroke="#999999" points="96,-74 39,-74 39,-55 96,-55 96,-74"/>
<text text-anchor="middle" x="67.5" y="-62" font-family="Helvetica,sans-Serif" font-size="10.00">typeinfo</text>
</a>
</g>
</g>
<!-- Node33&#45;&gt;Node34 -->
<g id="edge39_Node000033_Node000034" class="edge">
<title>Node33&#45;&gt;Node34</title>
<g id="a_edge39_Node000033_Node000034"><a xlink:title=" ">
<path fill="none" stroke="#63b8ff" d="M74.18,-109.75C73.13,-102.8 71.63,-92.85 70.31,-84.13"/>
<polygon fill="#63b8ff" stroke="#63b8ff" points="73.75,-83.45 68.8,-74.09 66.83,-84.5 73.75,-83.45"/>
</a>
</g>
</g>
<!-- Node35 -->
<g id="Node000035" class="node">
<title>Node35</title>
<g id="a_Node000035"><a xlink:title=" ">
<polygon fill="#e0e0e0" stroke="#999999" points="65,-19 0,-19 0,0 65,0 65,-19"/>
<text text-anchor="middle" x="32.5" y="-7" font-family="Helvetica,sans-Serif" font-size="10.00">functional</text>
</a>
</g>
</g>
<!-- Node33&#45;&gt;Node35 -->
<g id="edge41_Node000033_Node000035" class="edge">
<title>Node33&#45;&gt;Node35</title>
<g id="a_edge41_Node000033_Node000035"><a xlink:title=" ">
<path fill="none" stroke="#63b8ff" d="M61.72,-109.82C50.68,-101.99 36.01,-89.35 29.5,-74 23.5,-59.85 24.92,-42.31 27.45,-29.26"/>
<polygon fill="#63b8ff" stroke="#63b8ff" points="30.95,-29.66 29.81,-19.13 24.13,-28.07 30.95,-29.66"/>
</a>
</g>
</g>
<!-- Node36 -->
<g id="Node000036" class="node">
<title>Node36</title>
<g id="a_Node000036"><a xlink:href="expr_8h.html" target="_top" xlink:title=" ">
<polygon fill="#fff0f0" stroke="red" points="161,-74 114,-74 114,-55 161,-55 161,-74"/>
<text text-anchor="middle" x="137.5" y="-62" font-family="Helvetica,sans-Serif" font-size="10.00">expr.h</text>
</a>
</g>
</g>
<!-- Node33&#45;&gt;Node36 -->
<g id="edge43_Node000033_Node000036" class="edge">
<title>Node33&#45;&gt;Node36</title>
<g id="a_edge43_Node000033_Node000036"><a xlink:title=" ">
<path fill="none" stroke="#63b8ff" d="M85.46,-109.98C94.63,-102.15 108.44,-90.34 119.53,-80.86"/>
<polygon fill="#63b8ff" stroke="#63b8ff" points="122.03,-83.33 127.36,-74.17 117.48,-78.01 122.03,-83.33"/>
</a>
</g>
</g>
<!-- Node36&#45;&gt;Node25 -->
<g id="edge44_Node000036_Node000025" class="edge">
<title>Node36&#45;&gt;Node25</title>
<g id="a_edge44_Node000036_Node000025"><a xlink:title=" ">
<path fill="none" stroke="#63b8ff" d="M137.67,-54.75C137.8,-47.8 137.98,-37.85 138.15,-29.13"/>
<polygon fill="#63b8ff" stroke="#63b8ff" points="141.65,-29.15 138.34,-19.09 134.65,-29.02 141.65,-29.15"/>
</a>
</g>
</g>
<!-- Node36&#45;&gt;Node35 -->
<g id="edge45_Node000036_Node000035" class="edge">
<title>Node36&#45;&gt;Node35</title>
<g id="a_edge45_Node000036_Node000035"><a xlink:title=" ">
<path fill="none" stroke="#63b8ff" d="M120.63,-54.98C103.89,-46.54 78,-33.47 58.61,-23.68"/>
<polygon fill="#63b8ff" stroke="#63b8ff" points="60.18,-20.55 49.68,-19.17 57.03,-26.8 60.18,-20.55"/>
</a>
</g>
</g>
<!-- Node43&#45;&gt;Node4 -->
<g id="edge50_Node000043_Node000004" class="edge">
<title>Node43&#45;&gt;Node4</title>
<g id="a_edge50_Node000043_Node000004"><a xlink:title=" ">
<path fill="none" stroke="#63b8ff" d="M236.01,-164.99C254.12,-151.88 290.7,-126.54 324.5,-110 351.85,-96.61 384.3,-85.11 409.14,-77.16"/>
<polygon fill="#63b8ff" stroke="#63b8ff" points="410.45,-80.41 418.94,-74.08 408.35,-73.74 410.45,-80.41"/>
</a>
</g>
</g>
<!-- Node43&#45;&gt;Node18 -->
<g id="edge56_Node000043_Node000018" class="edge">
<title>Node43&#45;&gt;Node18</title>
<g id="a_edge56_Node000043_Node000018"><a xlink:title=" ">
<path fill="none" stroke="#63b8ff" d="M230.95,-164.74C250.08,-138.76 306.71,-61.83 332.03,-27.44"/>
<polygon fill="#63b8ff" stroke="#63b8ff" points="334.91,-29.44 338.02,-19.31 329.27,-25.28 334.91,-29.44"/>
</a>
</g>
</g>
<!-- Node43&#45;&gt;Node33 -->
<g id="edge49_Node000043_Node000033" class="edge">
<title>Node43&#45;&gt;Node33</title>
<g id="a_edge49_Node000043_Node000033"><a xlink:title=" ">
<path fill="none" stroke="#63b8ff" d="M200.56,-164.98C175.94,-156.23 137.38,-142.51 109.58,-132.62"/>
<polygon fill="#63b8ff" stroke="#63b8ff" points="110.47,-129.22 99.88,-129.17 108.12,-135.82 110.47,-129.22"/>
</a>
</g>
</g>
<!-- Node43&#45;&gt;Node36 -->
<g id="edge48_Node000043_Node000036" class="edge">
<title>Node43&#45;&gt;Node36</title>
<g id="a_edge48_Node000043_Node000036"><a xlink:title=" ">
<path fill="none" stroke="#63b8ff" d="M205.82,-164.86C191.32,-157.28 171.7,-144.98 159.5,-129 149.43,-115.81 143.76,-97.69 140.71,-84.17"/>
<polygon fill="#63b8ff" stroke="#63b8ff" points="144.1,-83.25 138.72,-74.12 137.23,-84.61 144.1,-83.25"/>
</a>
</g>
</g>
<!-- Node44 -->
<g id="Node000044" class="node">
<title>Node44</title>
<g id="a_Node000044"><a xlink:href="mp__arith_8h.html" target="_top" xlink:title=" ">
<polygon fill="#fff0f0" stroke="red" points="878,-129 809,-129 809,-110 878,-110 878,-129"/>
<text text-anchor="middle" x="843.5" y="-117" font-family="Helvetica,sans-Serif" font-size="10.00">mp_arith.h</text>
</a>
</g>
</g>
<!-- Node43&#45;&gt;Node44 -->
<g id="edge51_Node000043_Node000044" class="edge">
<title>Node43&#45;&gt;Node44</title>
<g id="a_edge51_Node000043_Node000044"><a xlink:title=" ">
<path fill="none" stroke="#63b8ff" d="M261.31,-170.71C348.33,-164.07 573.58,-146.52 761.5,-129 773.51,-127.88 786.51,-126.58 798.53,-125.33"/>
<polygon fill="#63b8ff" stroke="#63b8ff" points="799.22,-128.78 808.8,-124.26 798.49,-121.82 799.22,-128.78"/>
</a>
</g>
</g>
<!-- Node43&#45;&gt;Node38 -->
<g id="edge54_Node000043_Node000038" class="edge">
<title>Node43&#45;&gt;Node38</title>
<g id="a_edge54_Node000043_Node000038"><a xlink:title=" ">
<path fill="none" stroke="#63b8ff" d="M220.7,-164.75C217.59,-157.57 213.08,-147.18 209.21,-138.27"/>
<polygon fill="#63b8ff" stroke="#63b8ff" points="212.42,-136.87 205.23,-129.09 206,-139.66 212.42,-136.87"/>
</a>
</g>
</g>
<!-- Node44&#45;&gt;Node7 -->
<g id="edge53_Node000044_Node000007" class="edge">
<title>Node44&#45;&gt;Node7</title>
<g id="a_edge53_Node000044_Node000007"><a xlink:title=" ">
<path fill="none" stroke="#63b8ff" d="M843.65,-109.98C844.4,-96.15 848.01,-68.95 864.5,-55 902.55,-22.8 1052.63,-13.81 1119.75,-11.37"/>
<polygon fill="#63b8ff" stroke="#63b8ff" points="1120.28,-14.85 1130.16,-11.02 1120.05,-7.86 1120.28,-14.85"/>
</a>
</g>
</g>
<!-- Node44&#45;&gt;Node13 -->
<g id="edge52_Node000044_Node000013" class="edge">
<title>Node44&#45;&gt;Node13</title>
<g id="a_edge52_Node000044_Node000013"><a xlink:title=" ">
<path fill="none" stroke="#63b8ff" d="M853.3,-109.98C862.32,-102.15 875.91,-90.34 886.82,-80.86"/>
<polygon fill="#63b8ff" stroke="#63b8ff" points="889.27,-83.37 894.52,-74.17 884.68,-78.09 889.27,-83.37"/>
</a>
</g>
</g>
<!-- Node38&#45;&gt;Node8 -->
<g id="edge55_Node000038_Node000008" class="edge">
<title>Node38&#45;&gt;Node8</title>
<g id="a_edge55_Node000038_Node000008"><a xlink:title=" ">
<path fill="none" stroke="#63b8ff" d="M203.87,-109.66C208.59,-92.09 219.24,-52.45 225.54,-28.95"/>
<polygon fill="#63b8ff" stroke="#63b8ff" points="228.96,-29.72 228.18,-19.16 222.2,-27.91 228.96,-29.72"/>
</a>
</g>
</g>
<!-- Node46&#45;&gt;Node4 -->
<g id="edge60_Node000046_Node000004" class="edge">
<title>Node46&#45;&gt;Node4</title>
<g id="a_edge60_Node000046_Node000004"><a xlink:title=" ">
<path fill="none" stroke="#63b8ff" d="M226.75,-219.97C264.65,-193.57 380.28,-113.02 427.79,-79.93"/>
<polygon fill="#63b8ff" stroke="#63b8ff" points="429.88,-82.73 436.09,-74.15 425.88,-76.99 429.88,-82.73"/>
</a>
</g>
</g>
<!-- Node46&#45;&gt;Node33 -->
<g id="edge59_Node000046_Node000033" class="edge">
<title>Node46&#45;&gt;Node33</title>
<g id="a_edge59_Node000046_Node000033"><a xlink:title=" ">
<path fill="none" stroke="#63b8ff" d="M193.83,-219.92C176.25,-212.06 150.85,-199.33 131.5,-184 114.3,-170.37 98.12,-151.04 87.61,-137.3"/>
<polygon fill="#63b8ff" stroke="#63b8ff" points="90.35,-135.12 81.58,-129.19 84.74,-139.3 90.35,-135.12"/>
</a>
</g>
</g>
<!-- Node46&#45;&gt;Node43 -->
<g id="edge61_Node000046_Node000043" class="edge">
<title>Node46&#45;&gt;Node43</title>
<g id="a_edge61_Node000046_Node000043"><a xlink:title=" ">
<path fill="none" stroke="#63b8ff" d="M216.15,-219.75C217.46,-212.8 219.34,-202.85 220.98,-194.13"/>
<polygon fill="#63b8ff" stroke="#63b8ff" points="224.46,-194.56 222.88,-184.09 217.59,-193.27 224.46,-194.56"/>
</a>
</g>
</g>
<!-- Node50&#45;&gt;Node7 -->
<g id="edge69_Node000050_Node000007" class="edge">
<title>Node50&#45;&gt;Node7</title>
<g id="a_edge69_Node000050_Node000007"><a xlink:title=" ">
<path fill="none" stroke="#63b8ff" d="M1185.65,-395.92C1192.47,-377.36 1209.03,-332.08 1222.5,-294 1231.12,-269.62 1236.99,-264.47 1241.5,-239 1243.77,-226.21 1242.95,-112.56 1242.5,-110 1237.99,-84.38 1238.79,-75.28 1222.5,-55 1211.8,-41.68 1195.99,-31.15 1182.1,-23.68"/>
<polygon fill="#63b8ff" stroke="#63b8ff" points="1183.38,-20.41 1172.87,-19.01 1180.21,-26.65 1183.38,-20.41"/>
</a>
</g>
</g>
</g>
</svg>
