<?xml version="1.0" encoding="UTF-8" standalone="no"?>
<!DOCTYPE svg PUBLIC "-//W3C//DTD SVG 1.1//EN"
 "http://www.w3.org/Graphics/SVG/1.1/DTD/svg11.dtd">
<!-- Generated by graphviz version 2.43.0 (0)
 -->
<!-- Title: /home/runner/work/cbmc/cbmc/src/cpp/cpp_exception_id.cpp Pages: 1 -->
<svg width="1548pt" height="544pt"
 viewBox="0.00 0.00 1547.50 544.00" xmlns="http://www.w3.org/2000/svg" xmlns:xlink="http://www.w3.org/1999/xlink">
<g id="graph0" class="graph" transform="scale(1 1) rotate(0) translate(4 540)">
<title>/home/runner/work/cbmc/cbmc/src/cpp/cpp_exception_id.cpp</title>
<!-- Node1 -->
<g id="Node000001" class="node">
<title>Node1</title>
<g id="a_Node000001"><a xlink:title="C++ Language Type Checking.">
<polygon fill="#999999" stroke="#666666" points="1026.5,-536 869.5,-536 869.5,-495 1026.5,-495 1026.5,-536"/>
<text text-anchor="start" x="877.5" y="-524" font-family="Helvetica,sans-Serif" font-size="10.00">/home/runner/work/cbmc</text>
<text text-anchor="start" x="877.5" y="-513" font-family="Helvetica,sans-Serif" font-size="10.00">/cbmc/src/cpp/cpp_exception</text>
<text text-anchor="middle" x="948" y="-502" font-family="Helvetica,sans-Serif" font-size="10.00">_id.cpp</text>
</a>
</g>
</g>
<!-- Node2 -->
<g id="Node000002" class="node">
<title>Node2</title>
<g id="a_Node000002"><a xlink:href="cpp__exception__id_8h.html" target="_top" xlink:title="C++ Language Type Checking.">
<polygon fill="white" stroke="#666666" points="762,-459 652,-459 652,-440 762,-440 762,-459"/>
<text text-anchor="middle" x="707" y="-447" font-family="Helvetica,sans-Serif" font-size="10.00">cpp_exception_id.h</text>
</a>
</g>
</g>
<!-- Node1&#45;&gt;Node2 -->
<g id="edge1_Node000001_Node000002" class="edge">
<title>Node1&#45;&gt;Node2</title>
<g id="a_edge1_Node000001_Node000002"><a xlink:title=" ">
<path fill="none" stroke="#63b8ff" d="M874.38,-494.95C833.18,-484.01 783.32,-470.77 748.79,-461.6"/>
<polygon fill="#63b8ff" stroke="#63b8ff" points="749.6,-458.19 739.04,-459.01 747.8,-464.96 749.6,-458.19"/>
</a>
</g>
</g>
<!-- Node6 -->
<g id="Node000006" class="node">
<title>Node6</title>
<g id="a_Node000006"><a xlink:href="src_2util_2invariant_8h.html" target="_top" xlink:title=" ">
<polygon fill="white" stroke="#666666" points="944.5,-184 875.5,-184 875.5,-165 944.5,-165 944.5,-184"/>
<text text-anchor="middle" x="910" y="-172" font-family="Helvetica,sans-Serif" font-size="10.00">invariant.h</text>
</a>
</g>
</g>
<!-- Node1&#45;&gt;Node6 -->
<g id="edge67_Node000001_Node000006" class="edge">
<title>Node1&#45;&gt;Node6</title>
<g id="a_edge67_Node000001_Node000006"><a xlink:title=" ">
<path fill="none" stroke="#63b8ff" d="M948,-494.71C948,-471.09 948,-430.41 948,-395.5 948,-395.5 948,-395.5 948,-283.5 948,-250.02 931.55,-213.84 920.3,-193.01"/>
<polygon fill="#63b8ff" stroke="#63b8ff" points="923.24,-191.1 915.28,-184.1 917.13,-194.53 923.24,-191.1"/>
</a>
</g>
</g>
<!-- Node26 -->
<g id="Node000026" class="node">
<title>Node26</title>
<g id="a_Node000026"><a xlink:href="c__types_8h.html" target="_top" xlink:title=" ">
<polygon fill="white" stroke="#666666" points="1058,-459 976,-459 976,-440 1058,-440 1058,-459"/>
<text text-anchor="middle" x="1017" y="-447" font-family="Helvetica,sans-Serif" font-size="10.00">util/c_types.h</text>
</a>
</g>
</g>
<!-- Node1&#45;&gt;Node26 -->
<g id="edge33_Node000001_Node000026" class="edge">
<title>Node1&#45;&gt;Node26</title>
<g id="a_edge33_Node000001_Node000026"><a xlink:title=" ">
<path fill="none" stroke="#63b8ff" d="M969.08,-494.95C979.01,-485.74 990.7,-474.9 1000.05,-466.23"/>
<polygon fill="#63b8ff" stroke="#63b8ff" points="1002.6,-468.63 1007.56,-459.26 997.84,-463.49 1002.6,-468.63"/>
</a>
</g>
</g>
<!-- Node30 -->
<g id="Node000030" class="node">
<title>Node30</title>
<g id="a_Node000030"><a xlink:href="std__types_8h.html" target="_top" xlink:title="Pre&#45;defined types.">
<polygon fill="white" stroke="#666666" points="1107.5,-294 1034.5,-294 1034.5,-275 1107.5,-275 1107.5,-294"/>
<text text-anchor="middle" x="1071" y="-282" font-family="Helvetica,sans-Serif" font-size="10.00">std_types.h</text>
</a>
</g>
</g>
<!-- Node1&#45;&gt;Node30 -->
<g id="edge71_Node000001_Node000030" class="edge">
<title>Node1&#45;&gt;Node30</title>
<g id="a_edge71_Node000001_Node000030"><a xlink:title=" ">
<path fill="none" stroke="#63b8ff" d="M1026.44,-494.97C1074.24,-478.79 1132.08,-450.68 1164,-404 1182.67,-376.69 1190.07,-357.71 1172,-330 1159.81,-311.31 1137.81,-300.42 1117.45,-294.09"/>
<polygon fill="#63b8ff" stroke="#63b8ff" points="1118.21,-290.67 1107.64,-291.34 1116.32,-297.41 1118.21,-290.67"/>
</a>
</g>
</g>
<!-- Node46 -->
<g id="Node000046" class="node">
<title>Node46</title>
<g id="a_Node000046"><a xlink:href="namespace_8h.html" target="_top" xlink:title=" ">
<polygon fill="white" stroke="#666666" points="919.5,-459 818.5,-459 818.5,-440 919.5,-440 919.5,-459"/>
<text text-anchor="middle" x="869" y="-447" font-family="Helvetica,sans-Serif" font-size="10.00">util/namespace.h</text>
</a>
</g>
</g>
<!-- Node1&#45;&gt;Node46 -->
<g id="edge68_Node000001_Node000046" class="edge">
<title>Node1&#45;&gt;Node46</title>
<g id="a_edge68_Node000001_Node000046"><a xlink:title=" ">
<path fill="none" stroke="#63b8ff" d="M923.87,-494.95C912.27,-485.55 898.57,-474.46 887.77,-465.7"/>
<polygon fill="#63b8ff" stroke="#63b8ff" points="889.79,-462.84 879.81,-459.26 885.38,-468.27 889.79,-462.84"/>
</a>
</g>
</g>
<!-- Node3 -->
<g id="Node000003" class="node">
<title>Node3</title>
<g id="a_Node000003"><a xlink:href="irep_8h.html" target="_top" xlink:title=" ">
<polygon fill="white" stroke="#666666" points="651.5,-404 588.5,-404 588.5,-385 651.5,-385 651.5,-404"/>
<text text-anchor="middle" x="620" y="-392" font-family="Helvetica,sans-Serif" font-size="10.00">util/irep.h</text>
</a>
</g>
</g>
<!-- Node2&#45;&gt;Node3 -->
<g id="edge2_Node000002_Node000003" class="edge">
<title>Node2&#45;&gt;Node3</title>
<g id="a_edge2_Node000002_Node000003"><a xlink:title=" ">
<path fill="none" stroke="#63b8ff" d="M693.02,-439.98C679.53,-431.77 658.87,-419.18 642.96,-409.49"/>
<polygon fill="#63b8ff" stroke="#63b8ff" points="644.59,-406.38 634.23,-404.17 640.95,-412.36 644.59,-406.38"/>
</a>
</g>
</g>
<!-- Node4 -->
<g id="Node000004" class="node">
<title>Node4</title>
<g id="a_Node000004"><a xlink:title=" ">
<polygon fill="#e0e0e0" stroke="#999999" points="422,-129 378,-129 378,-110 422,-110 422,-129"/>
<text text-anchor="middle" x="400" y="-117" font-family="Helvetica,sans-Serif" font-size="10.00">string</text>
</a>
</g>
</g>
<!-- Node3&#45;&gt;Node4 -->
<g id="edge3_Node000003_Node000004" class="edge">
<title>Node3&#45;&gt;Node4</title>
<g id="a_edge3_Node000003_Node000004"><a xlink:title=" ">
<path fill="none" stroke="#63b8ff" d="M588.15,-390.83C531.47,-384.16 419,-361.36 419,-285.5 419,-285.5 419,-285.5 419,-228.5 419,-196.56 410.84,-160.1 405.22,-138.77"/>
<polygon fill="#63b8ff" stroke="#63b8ff" points="408.58,-137.81 402.56,-129.09 401.83,-139.66 408.58,-137.81"/>
</a>
</g>
</g>
<!-- Node5 -->
<g id="Node000005" class="node">
<title>Node5</title>
<g id="a_Node000005"><a xlink:title=" ">
<polygon fill="#e0e0e0" stroke="#999999" points="88.5,-184 41.5,-184 41.5,-165 88.5,-165 88.5,-184"/>
<text text-anchor="middle" x="65" y="-172" font-family="Helvetica,sans-Serif" font-size="10.00">vector</text>
</a>
</g>
</g>
<!-- Node3&#45;&gt;Node5 -->
<g id="edge4_Node000003_Node000005" class="edge">
<title>Node3&#45;&gt;Node5</title>
<g id="a_edge4_Node000003_Node000005"><a xlink:title=" ">
<path fill="none" stroke="#63b8ff" d="M588.37,-393.43C531.4,-392.33 408.6,-385.49 313,-349 214.87,-311.55 118.79,-226.81 81.38,-191.46"/>
<polygon fill="#63b8ff" stroke="#63b8ff" points="83.57,-188.71 73.92,-184.33 78.73,-193.77 83.57,-188.71"/>
</a>
</g>
</g>
<!-- Node3&#45;&gt;Node6 -->
<g id="edge5_Node000003_Node000006" class="edge">
<title>Node3&#45;&gt;Node6</title>
<g id="a_edge5_Node000003_Node000006"><a xlink:title=" ">
<path fill="none" stroke="#63b8ff" d="M635.66,-384.98C674.6,-363.4 778.07,-303.72 853,-239 869.55,-224.7 885.97,-205.77 896.91,-192.31"/>
<polygon fill="#63b8ff" stroke="#63b8ff" points="899.75,-194.36 903.25,-184.36 894.28,-190 899.75,-194.36"/>
</a>
</g>
</g>
<!-- Node10 -->
<g id="Node000010" class="node">
<title>Node10</title>
<g id="a_Node000010"><a xlink:href="irep__ids_8h.html" target="_top" xlink:title="util">
<polygon fill="white" stroke="#666666" points="386,-349 322,-349 322,-330 386,-330 386,-349"/>
<text text-anchor="middle" x="354" y="-337" font-family="Helvetica,sans-Serif" font-size="10.00">irep_ids.h</text>
</a>
</g>
</g>
<!-- Node3&#45;&gt;Node10 -->
<g id="edge10_Node000003_Node000010" class="edge">
<title>Node3&#45;&gt;Node10</title>
<g id="a_edge10_Node000003_Node000010"><a xlink:title=" ">
<path fill="none" stroke="#63b8ff" d="M588.44,-387.21C540.61,-377.68 449.67,-359.56 396.2,-348.91"/>
<polygon fill="#63b8ff" stroke="#63b8ff" points="396.84,-345.47 386.35,-346.95 395.47,-352.33 396.84,-345.47"/>
</a>
</g>
</g>
<!-- Node21 -->
<g id="Node000021" class="node">
<title>Node21</title>
<g id="a_Node000021"><a xlink:href="forward__list__as__map_8h.html" target="_top" xlink:title=" ">
<polygon fill="white" stroke="#666666" points="683.5,-294 556.5,-294 556.5,-275 683.5,-275 683.5,-294"/>
<text text-anchor="middle" x="620" y="-282" font-family="Helvetica,sans-Serif" font-size="10.00">forward_list_as_map.h</text>
</a>
</g>
</g>
<!-- Node3&#45;&gt;Node21 -->
<g id="edge26_Node000003_Node000021" class="edge">
<title>Node3&#45;&gt;Node21</title>
<g id="a_edge26_Node000003_Node000021"><a xlink:title=" ">
<path fill="none" stroke="#63b8ff" d="M620,-384.66C620,-367.17 620,-327.8 620,-304.27"/>
<polygon fill="#63b8ff" stroke="#63b8ff" points="623.5,-304.16 620,-294.16 616.5,-304.16 623.5,-304.16"/>
</a>
</g>
</g>
<!-- Node6&#45;&gt;Node4 -->
<g id="edge8_Node000006_Node000004" class="edge">
<title>Node6&#45;&gt;Node4</title>
<g id="a_edge8_Node000006_Node000004"><a xlink:title=" ">
<path fill="none" stroke="#63b8ff" d="M875.35,-169.9C781.43,-160.14 522.98,-133.28 432.11,-123.84"/>
<polygon fill="#63b8ff" stroke="#63b8ff" points="432.43,-120.35 422.13,-122.8 431.71,-127.31 432.43,-120.35"/>
</a>
</g>
</g>
<!-- Node7 -->
<g id="Node000007" class="node">
<title>Node7</title>
<g id="a_Node000007"><a xlink:title=" ">
<polygon fill="#e0e0e0" stroke="#999999" points="1004.5,-129 955.5,-129 955.5,-110 1004.5,-110 1004.5,-129"/>
<text text-anchor="middle" x="980" y="-117" font-family="Helvetica,sans-Serif" font-size="10.00">cstdlib</text>
</a>
</g>
</g>
<!-- Node6&#45;&gt;Node7 -->
<g id="edge6_Node000006_Node000007" class="edge">
<title>Node6&#45;&gt;Node7</title>
<g id="a_edge6_Node000006_Node000007"><a xlink:title=" ">
<path fill="none" stroke="#63b8ff" d="M921.25,-164.98C931.8,-157 947.8,-144.88 960.44,-135.31"/>
<polygon fill="#63b8ff" stroke="#63b8ff" points="962.69,-138 968.55,-129.17 958.46,-132.42 962.69,-138"/>
</a>
</g>
</g>
<!-- Node8 -->
<g id="Node000008" class="node">
<title>Node8</title>
<g id="a_Node000008"><a xlink:title=" ">
<polygon fill="#e0e0e0" stroke="#999999" points="937,-129 881,-129 881,-110 937,-110 937,-129"/>
<text text-anchor="middle" x="909" y="-117" font-family="Helvetica,sans-Serif" font-size="10.00">sstream</text>
</a>
</g>
</g>
<!-- Node6&#45;&gt;Node8 -->
<g id="edge7_Node000006_Node000008" class="edge">
<title>Node6&#45;&gt;Node8</title>
<g id="a_edge7_Node000006_Node000008"><a xlink:title=" ">
<path fill="none" stroke="#63b8ff" d="M909.83,-164.75C909.7,-157.8 909.52,-147.85 909.35,-139.13"/>
<polygon fill="#63b8ff" stroke="#63b8ff" points="912.85,-139.02 909.16,-129.09 905.85,-139.15 912.85,-139.02"/>
</a>
</g>
</g>
<!-- Node9 -->
<g id="Node000009" class="node">
<title>Node9</title>
<g id="a_Node000009"><a xlink:title=" ">
<polygon fill="#e0e0e0" stroke="#999999" points="977.5,-19 908.5,-19 908.5,0 977.5,0 977.5,-19"/>
<text text-anchor="middle" x="943" y="-7" font-family="Helvetica,sans-Serif" font-size="10.00">type_traits</text>
</a>
</g>
</g>
<!-- Node6&#45;&gt;Node9 -->
<g id="edge9_Node000006_Node000009" class="edge">
<title>Node6&#45;&gt;Node9</title>
<g id="a_edge9_Node000006_Node000009"><a xlink:title=" ">
<path fill="none" stroke="#63b8ff" d="M899.29,-164.93C890.07,-156.8 877.41,-143.68 872,-129 869.08,-121.08 869.42,-118.04 872,-110 882.72,-76.52 909.29,-44.71 926.71,-26.43"/>
<polygon fill="#63b8ff" stroke="#63b8ff" points="929.48,-28.61 933.98,-19.02 924.48,-23.71 929.48,-28.61"/>
</a>
</g>
</g>
<!-- Node11 -->
<g id="Node000011" class="node">
<title>Node11</title>
<g id="a_Node000011"><a xlink:href="dstring_8h.html" target="_top" xlink:title="Container for C&#45;Strings.">
<polygon fill="white" stroke="#666666" points="298.5,-294 239.5,-294 239.5,-275 298.5,-275 298.5,-294"/>
<text text-anchor="middle" x="269" y="-282" font-family="Helvetica,sans-Serif" font-size="10.00">dstring.h</text>
</a>
</g>
</g>
<!-- Node10&#45;&gt;Node11 -->
<g id="edge11_Node000010_Node000011" class="edge">
<title>Node10&#45;&gt;Node11</title>
<g id="a_edge11_Node000010_Node000011"><a xlink:title=" ">
<path fill="none" stroke="#63b8ff" d="M340.34,-329.98C327.16,-321.77 306.97,-309.18 291.43,-299.49"/>
<polygon fill="#63b8ff" stroke="#63b8ff" points="293.24,-296.49 282.91,-294.17 289.54,-302.43 293.24,-296.49"/>
</a>
</g>
</g>
<!-- Node20 -->
<g id="Node000020" class="node">
<title>Node20</title>
<g id="a_Node000020"><a xlink:title=" ">
<polygon fill="#e0e0e0" stroke="#999999" points="391,-294 317,-294 317,-275 391,-275 391,-294"/>
<text text-anchor="middle" x="354" y="-282" font-family="Helvetica,sans-Serif" font-size="10.00">irep_ids.def</text>
</a>
</g>
</g>
<!-- Node10&#45;&gt;Node20 -->
<g id="edge25_Node000010_Node000020" class="edge">
<title>Node10&#45;&gt;Node20</title>
<g id="a_edge25_Node000010_Node000020"><a xlink:title=" ">
<path fill="none" stroke="#63b8ff" d="M354,-329.75C354,-322.8 354,-312.85 354,-304.13"/>
<polygon fill="#63b8ff" stroke="#63b8ff" points="357.5,-304.09 354,-294.09 350.5,-304.09 357.5,-304.09"/>
</a>
</g>
</g>
<!-- Node11&#45;&gt;Node4 -->
<g id="edge13_Node000011_Node000004" class="edge">
<title>Node11&#45;&gt;Node4</title>
<g id="a_edge13_Node000011_Node000004"><a xlink:title=" ">
<path fill="none" stroke="#63b8ff" d="M278.41,-274.75C296.03,-258.1 334.69,-220.27 362,-184 373.09,-169.28 383.68,-151.12 390.85,-138"/>
<polygon fill="#63b8ff" stroke="#63b8ff" points="393.99,-139.55 395.62,-129.08 387.82,-136.25 393.99,-139.55"/>
</a>
</g>
</g>
<!-- Node12 -->
<g id="Node000012" class="node">
<title>Node12</title>
<g id="a_Node000012"><a xlink:title=" ">
<polygon fill="#e0e0e0" stroke="#999999" points="645,-184 597,-184 597,-165 645,-165 645,-184"/>
<text text-anchor="middle" x="621" y="-172" font-family="Helvetica,sans-Serif" font-size="10.00">iosfwd</text>
</a>
</g>
</g>
<!-- Node11&#45;&gt;Node12 -->
<g id="edge12_Node000011_Node000012" class="edge">
<title>Node11&#45;&gt;Node12</title>
<g id="a_edge12_Node000011_Node000012"><a xlink:title=" ">
<path fill="none" stroke="#63b8ff" d="M289.28,-274.97C320.72,-261.95 383.34,-236.85 438,-220 489.05,-204.27 549.47,-190.49 586.51,-182.58"/>
<polygon fill="#63b8ff" stroke="#63b8ff" points="587.71,-185.91 596.77,-180.42 586.26,-179.06 587.71,-185.91"/>
</a>
</g>
</g>
<!-- Node13 -->
<g id="Node000013" class="node">
<title>Node13</title>
<g id="a_Node000013"><a xlink:href="magic_8h.html" target="_top" xlink:title="Magic numbers used throughout the codebase.">
<polygon fill="white" stroke="#666666" points="56,-239 0,-239 0,-220 56,-220 56,-239"/>
<text text-anchor="middle" x="28" y="-227" font-family="Helvetica,sans-Serif" font-size="10.00">magic.h</text>
</a>
</g>
</g>
<!-- Node11&#45;&gt;Node13 -->
<g id="edge14_Node000011_Node000013" class="edge">
<title>Node11&#45;&gt;Node13</title>
<g id="a_edge14_Node000011_Node000013"><a xlink:title=" ">
<path fill="none" stroke="#63b8ff" d="M239.45,-277C195.89,-267.42 114.42,-249.5 66.32,-238.93"/>
<polygon fill="#63b8ff" stroke="#63b8ff" points="66.81,-235.45 56.3,-236.72 65.31,-242.29 66.81,-235.45"/>
</a>
</g>
</g>
<!-- Node15 -->
<g id="Node000015" class="node">
<title>Node15</title>
<g id="a_Node000015"><a xlink:href="string__container_8h.html" target="_top" xlink:title="Container for C&#45;Strings.">
<polygon fill="white" stroke="#666666" points="301,-239 197,-239 197,-220 301,-220 301,-239"/>
<text text-anchor="middle" x="249" y="-227" font-family="Helvetica,sans-Serif" font-size="10.00">string_container.h</text>
</a>
</g>
</g>
<!-- Node11&#45;&gt;Node15 -->
<g id="edge16_Node000011_Node000015" class="edge">
<title>Node11&#45;&gt;Node15</title>
<g id="a_edge16_Node000011_Node000015"><a xlink:title=" ">
<path fill="none" stroke="#63b8ff" d="M265.7,-274.75C263.02,-267.65 259.15,-257.4 255.81,-248.56"/>
<polygon fill="#63b8ff" stroke="#63b8ff" points="259.05,-247.21 252.24,-239.09 252.5,-249.68 259.05,-247.21"/>
</a>
</g>
</g>
<!-- Node14 -->
<g id="Node000014" class="node">
<title>Node14</title>
<g id="a_Node000014"><a xlink:title=" ">
<polygon fill="#e0e0e0" stroke="#999999" points="135.5,-129 82.5,-129 82.5,-110 135.5,-110 135.5,-129"/>
<text text-anchor="middle" x="109" y="-117" font-family="Helvetica,sans-Serif" font-size="10.00">cstddef</text>
</a>
</g>
</g>
<!-- Node13&#45;&gt;Node14 -->
<g id="edge15_Node000013_Node000014" class="edge">
<title>Node13&#45;&gt;Node14</title>
<g id="a_edge15_Node000013_Node000014"><a xlink:title=" ">
<path fill="none" stroke="#63b8ff" d="M26.15,-219.93C23.86,-206.97 21.41,-182.09 32,-165 41.3,-150 57.64,-139.53 72.88,-132.52"/>
<polygon fill="#63b8ff" stroke="#63b8ff" points="74.31,-135.72 82.16,-128.6 71.58,-129.27 74.31,-135.72"/>
</a>
</g>
</g>
<!-- Node15&#45;&gt;Node5 -->
<g id="edge19_Node000015_Node000005" class="edge">
<title>Node15&#45;&gt;Node5</title>
<g id="a_edge19_Node000015_Node000005"><a xlink:title=" ">
<path fill="none" stroke="#63b8ff" d="M219.44,-219.98C186.34,-210.45 132.82,-195.03 98.28,-185.09"/>
<polygon fill="#63b8ff" stroke="#63b8ff" points="99.22,-181.71 88.64,-182.31 97.28,-188.44 99.22,-181.71"/>
</a>
</g>
</g>
<!-- Node16 -->
<g id="Node000016" class="node">
<title>Node16</title>
<g id="a_Node000016"><a xlink:title=" ">
<polygon fill="#e0e0e0" stroke="#999999" points="139,-184 107,-184 107,-165 139,-165 139,-184"/>
<text text-anchor="middle" x="123" y="-172" font-family="Helvetica,sans-Serif" font-size="10.00">list</text>
</a>
</g>
</g>
<!-- Node15&#45;&gt;Node16 -->
<g id="edge17_Node000015_Node000016" class="edge">
<title>Node15&#45;&gt;Node16</title>
<g id="a_edge17_Node000015_Node000016"><a xlink:title=" ">
<path fill="none" stroke="#63b8ff" d="M228.76,-219.98C206.96,-210.82 172.25,-196.22 148.58,-186.26"/>
<polygon fill="#63b8ff" stroke="#63b8ff" points="149.76,-182.96 139.19,-182.31 147.05,-189.41 149.76,-182.96"/>
</a>
</g>
</g>
<!-- Node17 -->
<g id="Node000017" class="node">
<title>Node17</title>
<g id="a_Node000017"><a xlink:title=" ">
<polygon fill="#e0e0e0" stroke="#999999" points="540.5,-184 447.5,-184 447.5,-165 540.5,-165 540.5,-184"/>
<text text-anchor="middle" x="494" y="-172" font-family="Helvetica,sans-Serif" font-size="10.00">unordered_map</text>
</a>
</g>
</g>
<!-- Node15&#45;&gt;Node17 -->
<g id="edge18_Node000015_Node000017" class="edge">
<title>Node15&#45;&gt;Node17</title>
<g id="a_edge18_Node000015_Node000017"><a xlink:title=" ">
<path fill="none" stroke="#63b8ff" d="M288.36,-219.98C330.74,-210.82 398.26,-196.21 444.28,-186.26"/>
<polygon fill="#63b8ff" stroke="#63b8ff" points="445.29,-189.62 454.33,-184.08 443.81,-182.78 445.29,-189.62"/>
</a>
</g>
</g>
<!-- Node18 -->
<g id="Node000018" class="node">
<title>Node18</title>
<g id="a_Node000018"><a xlink:href="memory__units_8h.html" target="_top" xlink:title=" ">
<polygon fill="white" stroke="#666666" points="253,-184 157,-184 157,-165 253,-165 253,-184"/>
<text text-anchor="middle" x="205" y="-172" font-family="Helvetica,sans-Serif" font-size="10.00">memory_units.h</text>
</a>
</g>
</g>
<!-- Node15&#45;&gt;Node18 -->
<g id="edge20_Node000015_Node000018" class="edge">
<title>Node15&#45;&gt;Node18</title>
<g id="a_edge20_Node000015_Node000018"><a xlink:title=" ">
<path fill="none" stroke="#63b8ff" d="M241.73,-219.75C235.46,-212.18 226.21,-201.05 218.57,-191.84"/>
<polygon fill="#63b8ff" stroke="#63b8ff" points="221.21,-189.55 212.13,-184.09 215.83,-194.02 221.21,-189.55"/>
</a>
</g>
</g>
<!-- Node19 -->
<g id="Node000019" class="node">
<title>Node19</title>
<g id="a_Node000019"><a xlink:href="string__hash_8h.html" target="_top" xlink:title="string hashing">
<polygon fill="white" stroke="#666666" points="353,-184 271,-184 271,-165 353,-165 353,-184"/>
<text text-anchor="middle" x="312" y="-172" font-family="Helvetica,sans-Serif" font-size="10.00">string_hash.h</text>
</a>
</g>
</g>
<!-- Node15&#45;&gt;Node19 -->
<g id="edge23_Node000015_Node000019" class="edge">
<title>Node15&#45;&gt;Node19</title>
<g id="a_edge23_Node000015_Node000019"><a xlink:title=" ">
<path fill="none" stroke="#63b8ff" d="M259.12,-219.98C268.44,-212.15 282.47,-200.34 293.74,-190.86"/>
<polygon fill="#63b8ff" stroke="#63b8ff" points="296.29,-193.29 301.69,-184.17 291.79,-187.93 296.29,-193.29"/>
</a>
</g>
</g>
<!-- Node18&#45;&gt;Node4 -->
<g id="edge22_Node000018_Node000004" class="edge">
<title>Node18&#45;&gt;Node4</title>
<g id="a_edge22_Node000018_Node000004"><a xlink:title=" ">
<path fill="none" stroke="#63b8ff" d="M236.33,-164.98C272.39,-155.18 331.31,-139.17 367.75,-129.26"/>
<polygon fill="#63b8ff" stroke="#63b8ff" points="369.11,-132.52 377.84,-126.52 367.28,-125.77 369.11,-132.52"/>
</a>
</g>
</g>
<!-- Node18&#45;&gt;Node14 -->
<g id="edge21_Node000018_Node000014" class="edge">
<title>Node18&#45;&gt;Node14</title>
<g id="a_edge21_Node000018_Node000014"><a xlink:title=" ">
<path fill="none" stroke="#63b8ff" d="M189.58,-164.98C174.55,-156.69 151.46,-143.94 133.84,-134.22"/>
<polygon fill="#63b8ff" stroke="#63b8ff" points="135.15,-130.94 124.7,-129.17 131.77,-137.07 135.15,-130.94"/>
</a>
</g>
</g>
<!-- Node19&#45;&gt;Node4 -->
<g id="edge24_Node000019_Node000004" class="edge">
<title>Node19&#45;&gt;Node4</title>
<g id="a_edge24_Node000019_Node000004"><a xlink:title=" ">
<path fill="none" stroke="#63b8ff" d="M326.14,-164.98C339.79,-156.77 360.69,-144.18 376.78,-134.49"/>
<polygon fill="#63b8ff" stroke="#63b8ff" points="378.84,-137.33 385.6,-129.17 375.23,-131.33 378.84,-137.33"/>
</a>
</g>
</g>
<!-- Node22 -->
<g id="Node000022" class="node">
<title>Node22</title>
<g id="a_Node000022"><a xlink:title=" ">
<polygon fill="#e0e0e0" stroke="#999999" points="603,-239 539,-239 539,-220 603,-220 603,-239"/>
<text text-anchor="middle" x="571" y="-227" font-family="Helvetica,sans-Serif" font-size="10.00">algorithm</text>
</a>
</g>
</g>
<!-- Node21&#45;&gt;Node22 -->
<g id="edge27_Node000021_Node000022" class="edge">
<title>Node21&#45;&gt;Node22</title>
<g id="a_edge27_Node000021_Node000022"><a xlink:title=" ">
<path fill="none" stroke="#63b8ff" d="M611.91,-274.75C604.84,-267.11 594.41,-255.82 585.85,-246.56"/>
<polygon fill="#63b8ff" stroke="#63b8ff" points="588.3,-244.06 578.94,-239.09 583.16,-248.81 588.3,-244.06"/>
</a>
</g>
</g>
<!-- Node23 -->
<g id="Node000023" class="node">
<title>Node23</title>
<g id="a_Node000023"><a xlink:title=" ">
<polygon fill="#e0e0e0" stroke="#999999" points="521,-239 447,-239 447,-220 521,-220 521,-239"/>
<text text-anchor="middle" x="484" y="-227" font-family="Helvetica,sans-Serif" font-size="10.00">forward_list</text>
</a>
</g>
</g>
<!-- Node21&#45;&gt;Node23 -->
<g id="edge28_Node000021_Node000023" class="edge">
<title>Node21&#45;&gt;Node23</title>
<g id="a_edge28_Node000021_Node000023"><a xlink:title=" ">
<path fill="none" stroke="#63b8ff" d="M598.15,-274.98C575.88,-266.3 541.1,-252.75 515.78,-242.88"/>
<polygon fill="#63b8ff" stroke="#63b8ff" points="516.84,-239.54 506.25,-239.17 514.29,-246.06 516.84,-239.54"/>
</a>
</g>
</g>
<!-- Node24 -->
<g id="Node000024" class="node">
<title>Node24</title>
<g id="a_Node000024"><a xlink:href="as__const_8h.html" target="_top" xlink:title=" ">
<polygon fill="white" stroke="#666666" points="1167,-129 1099,-129 1099,-110 1167,-110 1167,-129"/>
<text text-anchor="middle" x="1133" y="-117" font-family="Helvetica,sans-Serif" font-size="10.00">as_const.h</text>
</a>
</g>
</g>
<!-- Node21&#45;&gt;Node24 -->
<g id="edge29_Node000021_Node000024" class="edge">
<title>Node21&#45;&gt;Node24</title>
<g id="a_edge29_Node000021_Node000024"><a xlink:title=" ">
<path fill="none" stroke="#63b8ff" d="M620.15,-274.99C620.1,-262.52 618.98,-238.74 612,-220 602.69,-195.01 569.92,-184.61 588,-165 592.24,-160.4 959.11,-133.2 1088.47,-123.74"/>
<polygon fill="#63b8ff" stroke="#63b8ff" points="1089.08,-127.2 1098.8,-122.98 1088.57,-120.22 1089.08,-127.2"/>
</a>
</g>
</g>
<!-- Node25 -->
<g id="Node000025" class="node">
<title>Node25</title>
<g id="a_Node000025"><a xlink:href="narrow_8h.html" target="_top" xlink:title=" ">
<polygon fill="white" stroke="#666666" points="843.5,-239 784.5,-239 784.5,-220 843.5,-220 843.5,-239"/>
<text text-anchor="middle" x="814" y="-227" font-family="Helvetica,sans-Serif" font-size="10.00">narrow.h</text>
</a>
</g>
</g>
<!-- Node21&#45;&gt;Node25 -->
<g id="edge30_Node000021_Node000025" class="edge">
<title>Node21&#45;&gt;Node25</title>
<g id="a_edge30_Node000021_Node000025"><a xlink:title=" ">
<path fill="none" stroke="#63b8ff" d="M651.17,-274.98C684.75,-265.81 738.26,-251.19 774.7,-241.24"/>
<polygon fill="#63b8ff" stroke="#63b8ff" points="775.77,-244.57 784.5,-238.56 773.93,-237.82 775.77,-244.57"/>
</a>
</g>
</g>
<!-- Node25&#45;&gt;Node6 -->
<g id="edge32_Node000025_Node000006" class="edge">
<title>Node25&#45;&gt;Node6</title>
<g id="a_edge32_Node000025_Node000006"><a xlink:title=" ">
<path fill="none" stroke="#63b8ff" d="M829.42,-219.98C844.45,-211.69 867.54,-198.94 885.16,-189.22"/>
<polygon fill="#63b8ff" stroke="#63b8ff" points="887.23,-192.07 894.3,-184.17 883.85,-185.94 887.23,-192.07"/>
</a>
</g>
</g>
<!-- Node25&#45;&gt;Node9 -->
<g id="edge31_Node000025_Node000009" class="edge">
<title>Node25&#45;&gt;Node9</title>
<g id="a_edge31_Node000025_Node000009"><a xlink:title=" ">
<path fill="none" stroke="#63b8ff" d="M815.86,-219.74C821.91,-192.83 843.11,-109.83 885,-55 894.18,-42.98 907.38,-32.51 918.87,-24.75"/>
<polygon fill="#63b8ff" stroke="#63b8ff" points="921.09,-27.49 927.6,-19.13 917.3,-21.6 921.09,-27.49"/>
</a>
</g>
</g>
<!-- Node27 -->
<g id="Node000027" class="node">
<title>Node27</title>
<g id="a_Node000027"><a xlink:href="deprecate_8h.html" target="_top" xlink:title=" ">
<polygon fill="white" stroke="#666666" points="1051,-404 977,-404 977,-385 1051,-385 1051,-404"/>
<text text-anchor="middle" x="1014" y="-392" font-family="Helvetica,sans-Serif" font-size="10.00">deprecate.h</text>
</a>
</g>
</g>
<!-- Node26&#45;&gt;Node27 -->
<g id="edge34_Node000026_Node000027" class="edge">
<title>Node26&#45;&gt;Node27</title>
<g id="a_edge34_Node000026_Node000027"><a xlink:title=" ">
<path fill="none" stroke="#63b8ff" d="M1016.5,-439.75C1016.11,-432.8 1015.55,-422.85 1015.05,-414.13"/>
<polygon fill="#63b8ff" stroke="#63b8ff" points="1018.55,-413.88 1014.49,-404.09 1011.56,-414.27 1018.55,-413.88"/>
</a>
</g>
</g>
<!-- Node28 -->
<g id="Node000028" class="node">
<title>Node28</title>
<g id="a_Node000028"><a xlink:href="pointer__expr_8h.html" target="_top" xlink:title="API to expression classes for Pointers.">
<polygon fill="white" stroke="#666666" points="1155,-404 1069,-404 1069,-385 1155,-385 1155,-404"/>
<text text-anchor="middle" x="1112" y="-392" font-family="Helvetica,sans-Serif" font-size="10.00">pointer_expr.h</text>
</a>
</g>
</g>
<!-- Node26&#45;&gt;Node28 -->
<g id="edge35_Node000026_Node000028" class="edge">
<title>Node26&#45;&gt;Node28</title>
<g id="a_edge35_Node000026_Node000028"><a xlink:title=" ">
<path fill="none" stroke="#63b8ff" d="M1032.26,-439.98C1047.13,-431.69 1069.98,-418.94 1087.42,-409.22"/>
<polygon fill="#63b8ff" stroke="#63b8ff" points="1089.43,-412.1 1096.46,-404.17 1086.02,-405.99 1089.43,-412.1"/>
</a>
</g>
</g>
<!-- Node29 -->
<g id="Node000029" class="node">
<title>Node29</title>
<g id="a_Node000029"><a xlink:href="bitvector__types_8h.html" target="_top" xlink:title="Pre&#45;defined bitvector types.">
<polygon fill="white" stroke="#666666" points="1162.5,-349 1061.5,-349 1061.5,-330 1162.5,-330 1162.5,-349"/>
<text text-anchor="middle" x="1112" y="-337" font-family="Helvetica,sans-Serif" font-size="10.00">bitvector_types.h</text>
</a>
</g>
</g>
<!-- Node28&#45;&gt;Node29 -->
<g id="edge36_Node000028_Node000029" class="edge">
<title>Node28&#45;&gt;Node29</title>
<g id="a_edge36_Node000028_Node000029"><a xlink:title=" ">
<path fill="none" stroke="#63b8ff" d="M1112,-384.75C1112,-377.8 1112,-367.85 1112,-359.13"/>
<polygon fill="#63b8ff" stroke="#63b8ff" points="1115.5,-359.09 1112,-349.09 1108.5,-359.09 1115.5,-359.09"/>
</a>
</g>
</g>
<!-- Node45 -->
<g id="Node000045" class="node">
<title>Node45</title>
<g id="a_Node000045"><a xlink:href="std__expr_8h.html" target="_top" xlink:title="API to expression classes.">
<polygon fill="white" stroke="#666666" points="1043.5,-349 976.5,-349 976.5,-330 1043.5,-330 1043.5,-349"/>
<text text-anchor="middle" x="1010" y="-337" font-family="Helvetica,sans-Serif" font-size="10.00">std_expr.h</text>
</a>
</g>
</g>
<!-- Node28&#45;&gt;Node45 -->
<g id="edge63_Node000028_Node000045" class="edge">
<title>Node28&#45;&gt;Node45</title>
<g id="a_edge63_Node000028_Node000045"><a xlink:title=" ">
<path fill="none" stroke="#63b8ff" d="M1095.61,-384.98C1079.43,-376.57 1054.43,-363.59 1035.62,-353.81"/>
<polygon fill="#63b8ff" stroke="#63b8ff" points="1037.17,-350.68 1026.69,-349.17 1033.95,-356.89 1037.17,-350.68"/>
</a>
</g>
</g>
<!-- Node29&#45;&gt;Node30 -->
<g id="edge37_Node000029_Node000030" class="edge">
<title>Node29&#45;&gt;Node30</title>
<g id="a_edge37_Node000029_Node000030"><a xlink:title=" ">
<path fill="none" stroke="#63b8ff" d="M1105.23,-329.75C1099.44,-322.26 1090.94,-311.28 1083.86,-302.13"/>
<polygon fill="#63b8ff" stroke="#63b8ff" points="1086.53,-299.86 1077.64,-294.09 1080.99,-304.14 1086.53,-299.86"/>
</a>
</g>
</g>
<!-- Node30&#45;&gt;Node6 -->
<g id="edge56_Node000030_Node000006" class="edge">
<title>Node30&#45;&gt;Node6</title>
<g id="a_edge56_Node000030_Node000006"><a xlink:title=" ">
<path fill="none" stroke="#63b8ff" d="M1063.18,-274.83C1051.04,-261.73 1026.5,-236.66 1002,-220 983.1,-207.14 959.92,-195.96 941.55,-188.02"/>
<polygon fill="#63b8ff" stroke="#63b8ff" points="942.75,-184.72 932.17,-184.06 940.03,-191.17 942.75,-184.72"/>
</a>
</g>
</g>
<!-- Node30&#45;&gt;Node17 -->
<g id="edge62_Node000030_Node000017" class="edge">
<title>Node30&#45;&gt;Node17</title>
<g id="a_edge62_Node000030_Node000017"><a xlink:title=" ">
<path fill="none" stroke="#63b8ff" d="M1034.43,-281.7C965.81,-277.77 813.38,-266.51 688,-239 629.06,-226.07 562.69,-202.24 524.86,-187.74"/>
<polygon fill="#63b8ff" stroke="#63b8ff" points="526.02,-184.43 515.43,-184.09 523.49,-190.96 526.02,-184.43"/>
</a>
</g>
</g>
<!-- Node31 -->
<g id="Node000031" class="node">
<title>Node31</title>
<g id="a_Node000031"><a xlink:href="expr_8h.html" target="_top" xlink:title=" ">
<polygon fill="white" stroke="#666666" points="1232.5,-184 1185.5,-184 1185.5,-165 1232.5,-165 1232.5,-184"/>
<text text-anchor="middle" x="1209" y="-172" font-family="Helvetica,sans-Serif" font-size="10.00">expr.h</text>
</a>
</g>
</g>
<!-- Node30&#45;&gt;Node31 -->
<g id="edge38_Node000030_Node000031" class="edge">
<title>Node30&#45;&gt;Node31</title>
<g id="a_edge38_Node000030_Node000031"><a xlink:title=" ">
<path fill="none" stroke="#63b8ff" d="M1077.39,-274.88C1087.36,-261.84 1107.69,-236.86 1129,-220 1144.69,-207.59 1164.29,-196.63 1180.17,-188.69"/>
<polygon fill="#63b8ff" stroke="#63b8ff" points="1182.04,-191.67 1189.5,-184.15 1178.98,-185.37 1182.04,-191.67"/>
</a>
</g>
</g>
<!-- Node35 -->
<g id="Node000035" class="node">
<title>Node35</title>
<g id="a_Node000035"><a xlink:href="validate_8h.html" target="_top" xlink:title=" ">
<polygon fill="#fff0f0" stroke="red" points="1153.5,-74 1088.5,-74 1088.5,-55 1153.5,-55 1153.5,-74"/>
<text text-anchor="middle" x="1121" y="-62" font-family="Helvetica,sans-Serif" font-size="10.00">validate.h</text>
</a>
</g>
</g>
<!-- Node30&#45;&gt;Node35 -->
<g id="edge61_Node000030_Node000035" class="edge">
<title>Node30&#45;&gt;Node35</title>
<g id="a_edge61_Node000030_Node000035"><a xlink:title=" ">
<path fill="none" stroke="#63b8ff" d="M1070.47,-274.85C1069.2,-248.91 1067.55,-169.87 1090,-110 1093.75,-100.01 1100.25,-90.14 1106.34,-82.25"/>
<polygon fill="#63b8ff" stroke="#63b8ff" points="1109.24,-84.23 1112.87,-74.27 1103.82,-79.79 1109.24,-84.23"/>
</a>
</g>
</g>
<!-- Node41 -->
<g id="Node000041" class="node">
<title>Node41</title>
<g id="a_Node000041"><a xlink:href="expr__cast_8h.html" target="_top" xlink:title="Templated functions to cast to specific exprt&#45;derived classes.">
<polygon fill="white" stroke="#666666" points="1210.5,-239 1137.5,-239 1137.5,-220 1210.5,-220 1210.5,-239"/>
<text text-anchor="middle" x="1174" y="-227" font-family="Helvetica,sans-Serif" font-size="10.00">expr_cast.h</text>
</a>
</g>
</g>
<!-- Node30&#45;&gt;Node41 -->
<g id="edge50_Node000030_Node000041" class="edge">
<title>Node30&#45;&gt;Node41</title>
<g id="a_edge50_Node000030_Node000041"><a xlink:title=" ">
<path fill="none" stroke="#63b8ff" d="M1087.55,-274.98C1103.89,-266.57 1129.13,-253.59 1148.13,-243.81"/>
<polygon fill="#63b8ff" stroke="#63b8ff" points="1149.86,-246.86 1157.15,-239.17 1146.66,-240.63 1149.86,-246.86"/>
</a>
</g>
</g>
<!-- Node43 -->
<g id="Node000043" class="node">
<title>Node43</title>
<g id="a_Node000043"><a xlink:href="mp__arith_8h.html" target="_top" xlink:title=" ">
<polygon fill="white" stroke="#666666" points="766.5,-239 697.5,-239 697.5,-220 766.5,-220 766.5,-239"/>
<text text-anchor="middle" x="732" y="-227" font-family="Helvetica,sans-Serif" font-size="10.00">mp_arith.h</text>
</a>
</g>
</g>
<!-- Node30&#45;&gt;Node43 -->
<g id="edge57_Node000030_Node000043" class="edge">
<title>Node30&#45;&gt;Node43</title>
<g id="a_edge57_Node000030_Node000043"><a xlink:title=" ">
<path fill="none" stroke="#63b8ff" d="M1034.46,-278.56C980.34,-271.12 875.44,-256.24 776.84,-239.26"/>
<polygon fill="#63b8ff" stroke="#63b8ff" points="777.16,-235.76 766.71,-237.5 775.96,-242.66 777.16,-235.76"/>
</a>
</g>
</g>
<!-- Node31&#45;&gt;Node24 -->
<g id="edge39_Node000031_Node000024" class="edge">
<title>Node31&#45;&gt;Node24</title>
<g id="a_edge39_Node000031_Node000024"><a xlink:title=" ">
<path fill="none" stroke="#63b8ff" d="M1196.79,-164.98C1185.22,-156.92 1167.62,-144.65 1153.84,-135.03"/>
<polygon fill="#63b8ff" stroke="#63b8ff" points="1155.64,-132.02 1145.43,-129.17 1151.63,-137.76 1155.64,-132.02"/>
</a>
</g>
</g>
<!-- Node32 -->
<g id="Node000032" class="node">
<title>Node32</title>
<g id="a_Node000032"><a xlink:href="type_8h.html" target="_top" xlink:title="Defines typet, type_with_subtypet and type_with_subtypest.">
<polygon fill="#fff0f0" stroke="red" points="1232.5,-129 1185.5,-129 1185.5,-110 1232.5,-110 1232.5,-129"/>
<text text-anchor="middle" x="1209" y="-117" font-family="Helvetica,sans-Serif" font-size="10.00">type.h</text>
</a>
</g>
</g>
<!-- Node31&#45;&gt;Node32 -->
<g id="edge40_Node000031_Node000032" class="edge">
<title>Node31&#45;&gt;Node32</title>
<g id="a_edge40_Node000031_Node000032"><a xlink:title=" ">
<path fill="none" stroke="#63b8ff" d="M1209,-164.75C1209,-157.8 1209,-147.85 1209,-139.13"/>
<polygon fill="#63b8ff" stroke="#63b8ff" points="1212.5,-139.09 1209,-129.09 1205.5,-139.09 1212.5,-139.09"/>
</a>
</g>
</g>
<!-- Node37 -->
<g id="Node000037" class="node">
<title>Node37</title>
<g id="a_Node000037"><a xlink:href="validation__mode_8h.html" target="_top" xlink:title=" ">
<polygon fill="white" stroke="#666666" points="1262.5,-19 1155.5,-19 1155.5,0 1262.5,0 1262.5,-19"/>
<text text-anchor="middle" x="1209" y="-7" font-family="Helvetica,sans-Serif" font-size="10.00">validation_mode.h</text>
</a>
</g>
</g>
<!-- Node31&#45;&gt;Node37 -->
<g id="edge48_Node000031_Node000037" class="edge">
<title>Node31&#45;&gt;Node37</title>
<g id="a_edge48_Node000031_Node000037"><a xlink:title=" ">
<path fill="none" stroke="#63b8ff" d="M1232.77,-167.27C1235.87,-166.49 1239.01,-165.72 1242,-165 1314.16,-147.74 1358.54,-186.84 1405,-129 1420.29,-109.97 1404.73,-72.18 1386,-55 1355.58,-27.1 1310.3,-16.07 1273.15,-11.97"/>
<polygon fill="#63b8ff" stroke="#63b8ff" points="1273.19,-8.46 1262.9,-10.99 1272.52,-15.43 1273.19,-8.46"/>
</a>
</g>
</g>
<!-- Node38 -->
<g id="Node000038" class="node">
<title>Node38</title>
<g id="a_Node000038"><a xlink:href="validate__types_8h.html" target="_top" xlink:title=" ">
<polygon fill="white" stroke="#666666" points="1377,-74 1279,-74 1279,-55 1377,-55 1377,-74"/>
<text text-anchor="middle" x="1328" y="-62" font-family="Helvetica,sans-Serif" font-size="10.00">validate_types.h</text>
</a>
</g>
</g>
<!-- Node31&#45;&gt;Node38 -->
<g id="edge47_Node000031_Node000038" class="edge">
<title>Node31&#45;&gt;Node38</title>
<g id="a_edge47_Node000031_Node000038"><a xlink:title=" ">
<path fill="none" stroke="#63b8ff" d="M1232.78,-167.34C1235.88,-166.55 1239.02,-165.75 1242,-165 1307.24,-148.61 1347.48,-181.92 1389,-129 1403.6,-110.4 1378.28,-91.09 1355.96,-78.72"/>
<polygon fill="#63b8ff" stroke="#63b8ff" points="1357.49,-75.58 1347.01,-74.03 1354.24,-81.77 1357.49,-75.58"/>
</a>
</g>
</g>
<!-- Node39 -->
<g id="Node000039" class="node">
<title>Node39</title>
<g id="a_Node000039"><a xlink:href="validate__expressions_8h.html" target="_top" xlink:title=" ">
<polygon fill="white" stroke="#666666" points="1379.5,-129 1250.5,-129 1250.5,-110 1379.5,-110 1379.5,-129"/>
<text text-anchor="middle" x="1315" y="-117" font-family="Helvetica,sans-Serif" font-size="10.00">validate_expressions.h</text>
</a>
</g>
</g>
<!-- Node31&#45;&gt;Node39 -->
<g id="edge46_Node000031_Node000039" class="edge">
<title>Node31&#45;&gt;Node39</title>
<g id="a_edge46_Node000031_Node000039"><a xlink:title=" ">
<path fill="none" stroke="#63b8ff" d="M1226.03,-164.98C1242.93,-156.54 1269.06,-143.47 1288.64,-133.68"/>
<polygon fill="#63b8ff" stroke="#63b8ff" points="1290.28,-136.77 1297.66,-129.17 1287.15,-130.51 1290.28,-136.77"/>
</a>
</g>
</g>
<!-- Node40 -->
<g id="Node000040" class="node">
<title>Node40</title>
<g id="a_Node000040"><a xlink:title=" ">
<polygon fill="#e0e0e0" stroke="#999999" points="1539.5,-129 1474.5,-129 1474.5,-110 1539.5,-110 1539.5,-129"/>
<text text-anchor="middle" x="1507" y="-117" font-family="Helvetica,sans-Serif" font-size="10.00">functional</text>
</a>
</g>
</g>
<!-- Node31&#45;&gt;Node40 -->
<g id="edge49_Node000031_Node000040" class="edge">
<title>Node31&#45;&gt;Node40</title>
<g id="a_edge49_Node000031_Node000040"><a xlink:title=" ">
<path fill="none" stroke="#63b8ff" d="M1232.73,-167.12C1235.84,-166.36 1238.99,-165.63 1242,-165 1338.09,-144.73 1363.24,-145.74 1460,-129 1461.46,-128.75 1462.94,-128.49 1464.43,-128.23"/>
<polygon fill="#63b8ff" stroke="#63b8ff" points="1465.16,-131.65 1474.4,-126.46 1463.94,-124.76 1465.16,-131.65"/>
</a>
</g>
</g>
<!-- Node32&#45;&gt;Node35 -->
<g id="edge41_Node000032_Node000035" class="edge">
<title>Node32&#45;&gt;Node35</title>
<g id="a_edge41_Node000032_Node000035"><a xlink:title=" ">
<path fill="none" stroke="#63b8ff" d="M1194.86,-109.98C1181.21,-101.77 1160.31,-89.18 1144.22,-79.49"/>
<polygon fill="#63b8ff" stroke="#63b8ff" points="1145.77,-76.33 1135.4,-74.17 1142.16,-82.33 1145.77,-76.33"/>
</a>
</g>
</g>
<!-- Node32&#45;&gt;Node37 -->
<g id="edge45_Node000032_Node000037" class="edge">
<title>Node32&#45;&gt;Node37</title>
<g id="a_edge45_Node000032_Node000037"><a xlink:title=" ">
<path fill="none" stroke="#63b8ff" d="M1209,-109.66C1209,-92.17 1209,-52.8 1209,-29.27"/>
<polygon fill="#63b8ff" stroke="#63b8ff" points="1212.5,-29.16 1209,-19.16 1205.5,-29.16 1212.5,-29.16"/>
</a>
</g>
</g>
<!-- Node32&#45;&gt;Node38 -->
<g id="edge44_Node000032_Node000038" class="edge">
<title>Node32&#45;&gt;Node38</title>
<g id="a_edge44_Node000032_Node000038"><a xlink:title=" ">
<path fill="none" stroke="#63b8ff" d="M1228.12,-109.98C1247.35,-101.42 1277.23,-88.11 1299.31,-78.28"/>
<polygon fill="#63b8ff" stroke="#63b8ff" points="1300.82,-81.44 1308.53,-74.17 1297.97,-75.04 1300.82,-81.44"/>
</a>
</g>
</g>
<!-- Node35&#45;&gt;Node9 -->
<g id="edge42_Node000035_Node000009" class="edge">
<title>Node35&#45;&gt;Node9</title>
<g id="a_edge42_Node000035_Node000009"><a xlink:title=" ">
<path fill="none" stroke="#63b8ff" d="M1092.4,-54.98C1062.39,-46.05 1015.02,-31.94 981.68,-22.02"/>
<polygon fill="#63b8ff" stroke="#63b8ff" points="982.41,-18.58 971.82,-19.08 980.41,-25.29 982.41,-18.58"/>
</a>
</g>
</g>
<!-- Node35&#45;&gt;Node37 -->
<g id="edge43_Node000035_Node000037" class="edge">
<title>Node35&#45;&gt;Node37</title>
<g id="a_edge43_Node000035_Node000037"><a xlink:title=" ">
<path fill="none" stroke="#63b8ff" d="M1135.14,-54.98C1148.79,-46.77 1169.69,-34.18 1185.78,-24.49"/>
<polygon fill="#63b8ff" stroke="#63b8ff" points="1187.84,-27.33 1194.6,-19.17 1184.23,-21.33 1187.84,-27.33"/>
</a>
</g>
</g>
<!-- Node41&#45;&gt;Node6 -->
<g id="edge54_Node000041_Node000006" class="edge">
<title>Node41&#45;&gt;Node6</title>
<g id="a_edge54_Node000041_Node000006"><a xlink:title=" ">
<path fill="none" stroke="#63b8ff" d="M1137.29,-221.13C1089.48,-211.53 1005.94,-194.76 954.55,-184.44"/>
<polygon fill="#63b8ff" stroke="#63b8ff" points="955.21,-181.01 944.72,-182.47 953.83,-187.87 955.21,-181.01"/>
</a>
</g>
</g>
<!-- Node41&#45;&gt;Node9 -->
<g id="edge52_Node000041_Node000009" class="edge">
<title>Node41&#45;&gt;Node9</title>
<g id="a_edge52_Node000041_Node000009"><a xlink:title=" ">
<path fill="none" stroke="#63b8ff" d="M1164.94,-219.95C1130.24,-187.2 1005.35,-69.34 959.79,-26.34"/>
<polygon fill="#63b8ff" stroke="#63b8ff" points="961.92,-23.54 952.24,-19.22 957.11,-28.63 961.92,-23.54"/>
</a>
</g>
</g>
<!-- Node41&#45;&gt;Node31 -->
<g id="edge55_Node000041_Node000031" class="edge">
<title>Node41&#45;&gt;Node31</title>
<g id="a_edge55_Node000041_Node000031"><a xlink:title=" ">
<path fill="none" stroke="#63b8ff" d="M1179.78,-219.75C1184.62,-212.42 1191.68,-201.73 1197.64,-192.7"/>
<polygon fill="#63b8ff" stroke="#63b8ff" points="1200.74,-194.36 1203.33,-184.09 1194.9,-190.5 1200.74,-194.36"/>
</a>
</g>
</g>
<!-- Node41&#45;&gt;Node40 -->
<g id="edge53_Node000041_Node000040" class="edge">
<title>Node41&#45;&gt;Node40</title>
<g id="a_edge53_Node000041_Node000040"><a xlink:title=" ">
<path fill="none" stroke="#63b8ff" d="M1202,-219.97C1230.87,-211.14 1277.16,-196.85 1317,-184 1371.39,-166.45 1434.23,-145.27 1472.27,-132.35"/>
<polygon fill="#63b8ff" stroke="#63b8ff" points="1473.51,-135.62 1481.85,-129.09 1471.26,-129 1473.51,-135.62"/>
</a>
</g>
</g>
<!-- Node42 -->
<g id="Node000042" class="node">
<title>Node42</title>
<g id="a_Node000042"><a xlink:title=" ">
<polygon fill="#e0e0e0" stroke="#999999" points="1307.5,-184 1250.5,-184 1250.5,-165 1307.5,-165 1307.5,-184"/>
<text text-anchor="middle" x="1279" y="-172" font-family="Helvetica,sans-Serif" font-size="10.00">typeinfo</text>
</a>
</g>
</g>
<!-- Node41&#45;&gt;Node42 -->
<g id="edge51_Node000041_Node000042" class="edge">
<title>Node41&#45;&gt;Node42</title>
<g id="a_edge51_Node000041_Node000042"><a xlink:title=" ">
<path fill="none" stroke="#63b8ff" d="M1190.87,-219.98C1207.61,-211.54 1233.5,-198.47 1252.89,-188.68"/>
<polygon fill="#63b8ff" stroke="#63b8ff" points="1254.47,-191.8 1261.82,-184.17 1251.32,-185.55 1254.47,-191.8"/>
</a>
</g>
</g>
<!-- Node43&#45;&gt;Node4 -->
<g id="edge59_Node000043_Node000004" class="edge">
<title>Node43&#45;&gt;Node4</title>
<g id="a_edge59_Node000043_Node000004"><a xlink:title=" ">
<path fill="none" stroke="#63b8ff" d="M724.32,-219.88C711.33,-205.9 683.54,-178.49 654,-165 579.64,-131.04 482.13,-122.89 432.33,-121"/>
<polygon fill="#63b8ff" stroke="#63b8ff" points="432.27,-117.5 422.16,-120.68 432.05,-124.5 432.27,-117.5"/>
</a>
</g>
</g>
<!-- Node43&#45;&gt;Node12 -->
<g id="edge58_Node000043_Node000012" class="edge">
<title>Node43&#45;&gt;Node12</title>
<g id="a_edge58_Node000043_Node000012"><a xlink:title=" ">
<path fill="none" stroke="#63b8ff" d="M714.17,-219.98C696.39,-211.5 668.85,-198.35 648.32,-188.54"/>
<polygon fill="#63b8ff" stroke="#63b8ff" points="649.69,-185.32 639.16,-184.17 646.67,-191.64 649.69,-185.32"/>
</a>
</g>
</g>
<!-- Node44 -->
<g id="Node000044" class="node">
<title>Node44</title>
<g id="a_Node000044"><a xlink:title=" ">
<polygon fill="#e0e0e0" stroke="#999999" points="795,-184 701,-184 701,-165 795,-165 795,-184"/>
<text text-anchor="middle" x="748" y="-172" font-family="Helvetica,sans-Serif" font-size="10.00">big&#45;int/bigint.hh</text>
</a>
</g>
</g>
<!-- Node43&#45;&gt;Node44 -->
<g id="edge60_Node000043_Node000044" class="edge">
<title>Node43&#45;&gt;Node44</title>
<g id="a_edge60_Node000043_Node000044"><a xlink:title=" ">
<path fill="none" stroke="#63b8ff" d="M734.64,-219.75C736.76,-212.72 739.81,-202.62 742.46,-193.84"/>
<polygon fill="#63b8ff" stroke="#63b8ff" points="745.87,-194.67 745.41,-184.09 739.17,-192.65 745.87,-194.67"/>
</a>
</g>
</g>
<!-- Node45&#45;&gt;Node6 -->
<g id="edge65_Node000045_Node000006" class="edge">
<title>Node45&#45;&gt;Node6</title>
<g id="a_edge65_Node000045_Node000006"><a xlink:title=" ">
<path fill="none" stroke="#63b8ff" d="M1007.99,-329.76C1002.94,-309.13 988.19,-256.39 962,-220 953.76,-208.55 941.97,-198.15 931.71,-190.28"/>
<polygon fill="#63b8ff" stroke="#63b8ff" points="933.68,-187.39 923.55,-184.31 929.55,-193.04 933.68,-187.39"/>
</a>
</g>
</g>
<!-- Node45&#45;&gt;Node30 -->
<g id="edge66_Node000045_Node000030" class="edge">
<title>Node45&#45;&gt;Node30</title>
<g id="a_edge66_Node000045_Node000030"><a xlink:title=" ">
<path fill="none" stroke="#63b8ff" d="M1019.8,-329.98C1028.82,-322.15 1042.41,-310.34 1053.32,-300.86"/>
<polygon fill="#63b8ff" stroke="#63b8ff" points="1055.77,-303.37 1061.02,-294.17 1051.18,-298.09 1055.77,-303.37"/>
</a>
</g>
</g>
<!-- Node45&#45;&gt;Node41 -->
<g id="edge64_Node000045_Node000041" class="edge">
<title>Node45&#45;&gt;Node41</title>
<g id="a_edge64_Node000045_Node000041"><a xlink:title=" ">
<path fill="none" stroke="#63b8ff" d="M1040.42,-329.87C1062.89,-322.57 1093.53,-310.64 1117,-294 1135.24,-281.07 1151.79,-261.31 1162.3,-247.27"/>
<polygon fill="#63b8ff" stroke="#63b8ff" points="1165.25,-249.15 1168.29,-239 1159.59,-245.05 1165.25,-249.15"/>
</a>
</g>
</g>
<!-- Node46&#45;&gt;Node3 -->
<g id="edge70_Node000046_Node000003" class="edge">
<title>Node46&#45;&gt;Node3</title>
<g id="a_edge70_Node000046_Node000003"><a xlink:title=" ">
<path fill="none" stroke="#63b8ff" d="M828.99,-439.98C783.11,-430.22 708.24,-414.28 661.67,-404.37"/>
<polygon fill="#63b8ff" stroke="#63b8ff" points="662.12,-400.89 651.61,-402.23 660.67,-407.73 662.12,-400.89"/>
</a>
</g>
</g>
<!-- Node46&#45;&gt;Node6 -->
<g id="edge69_Node000046_Node000006" class="edge">
<title>Node46&#45;&gt;Node6</title>
<g id="a_edge69_Node000046_Node000006"><a xlink:title=" ">
<path fill="none" stroke="#63b8ff" d="M874.7,-439.96C885.97,-422.23 910,-379.81 910,-340.5 910,-340.5 910,-340.5 910,-283.5 910,-252.19 910,-215.77 910,-194.23"/>
<polygon fill="#63b8ff" stroke="#63b8ff" points="913.5,-194.18 910,-184.18 906.5,-194.18 913.5,-194.18"/>
</a>
</g>
</g>
</g>
</svg>
