<?xml version="1.0" encoding="UTF-8" standalone="no"?>
<!DOCTYPE svg PUBLIC "-//W3C//DTD SVG 1.1//EN"
 "http://www.w3.org/Graphics/SVG/1.1/DTD/svg11.dtd">
<!-- Generated by graphviz version 2.43.0 (0)
 -->
<!-- Title: /home/runner/work/cbmc/cbmc/jbmc/src/java_bytecode/create_array_with_type_intrinsic.cpp Pages: 1 -->
<svg width="1269pt" height="720pt"
 viewBox="0.00 0.00 1268.50 720.00" xmlns="http://www.w3.org/2000/svg" xmlns:xlink="http://www.w3.org/1999/xlink">
<g id="graph0" class="graph" transform="scale(1 1) rotate(0) translate(4 716)">
<title>/home/runner/work/cbmc/cbmc/jbmc/src/java_bytecode/create_array_with_type_intrinsic.cpp</title>
<!-- Node1 -->
<g id="Node000001" class="node">
<title>Node1</title>
<g id="a_Node000001"><a xlink:title="Implementation of CProver.createArrayWithType intrinsic.">
<polygon fill="#999999" stroke="#666666" points="651,-712 452,-712 452,-671 651,-671 651,-712"/>
<text text-anchor="start" x="460" y="-700" font-family="Helvetica,sans-Serif" font-size="10.00">/home/runner/work/cbmc</text>
<text text-anchor="start" x="460" y="-689" font-family="Helvetica,sans-Serif" font-size="10.00">/cbmc/jbmc/src/java_bytecode</text>
<text text-anchor="middle" x="551.5" y="-678" font-family="Helvetica,sans-Serif" font-size="10.00">/create_array_with_type_intrinsic.cpp</text>
</a>
</g>
</g>
<!-- Node2 -->
<g id="Node000002" class="node">
<title>Node2</title>
<g id="a_Node000002"><a xlink:href="create__array__with__type__intrinsic_8h.html" target="_top" xlink:title="Implementation of CProver.createArrayWithType intrinsic.">
<polygon fill="white" stroke="#666666" points="428,-635 297,-635 297,-605 428,-605 428,-635"/>
<text text-anchor="start" x="305" y="-623" font-family="Helvetica,sans-Serif" font-size="10.00">create_array_with_type</text>
<text text-anchor="middle" x="362.5" y="-612" font-family="Helvetica,sans-Serif" font-size="10.00">_intrinsic.h</text>
</a>
</g>
</g>
<!-- Node1&#45;&gt;Node2 -->
<g id="edge1_Node000001_Node000002" class="edge">
<title>Node1&#45;&gt;Node2</title>
<g id="a_edge1_Node000001_Node000002"><a xlink:title=" ">
<path fill="none" stroke="#63b8ff" d="M498.35,-670.96C470.64,-660.76 437.01,-648.4 410.15,-638.52"/>
<polygon fill="#63b8ff" stroke="#63b8ff" points="411.18,-635.17 400.58,-635 408.76,-641.74 411.18,-635.17"/>
</a>
</g>
</g>
<!-- Node43 -->
<g id="Node000043" class="node">
<title>Node43</title>
<g id="a_Node000043"><a xlink:href="java__types_8h.html" target="_top" xlink:title=" ">
<polygon fill="white" stroke="#666666" points="221.5,-635 109.5,-635 109.5,-605 221.5,-605 221.5,-635"/>
<text text-anchor="start" x="117.5" y="-623" font-family="Helvetica,sans-Serif" font-size="10.00">java_bytecode/java</text>
<text text-anchor="middle" x="165.5" y="-612" font-family="Helvetica,sans-Serif" font-size="10.00">_types.h</text>
</a>
</g>
</g>
<!-- Node1&#45;&gt;Node43 -->
<g id="edge42_Node000001_Node000043" class="edge">
<title>Node1&#45;&gt;Node43</title>
<g id="a_edge42_Node000001_Node000043"><a xlink:title=" ">
<path fill="none" stroke="#63b8ff" d="M451.84,-672.56C382.69,-660.11 292.47,-643.86 231.95,-632.96"/>
<polygon fill="#63b8ff" stroke="#63b8ff" points="232.21,-629.46 221.75,-631.13 230.97,-636.34 232.21,-629.46"/>
</a>
</g>
</g>
<!-- Node46 -->
<g id="Node000046" class="node">
<title>Node46</title>
<g id="a_Node000046"><a xlink:href="pointer__expr_8h.html" target="_top" xlink:title="API to expression classes for Pointers.">
<polygon fill="white" stroke="#666666" points="447.5,-514 361.5,-514 361.5,-495 447.5,-495 447.5,-514"/>
<text text-anchor="middle" x="404.5" y="-502" font-family="Helvetica,sans-Serif" font-size="10.00">pointer_expr.h</text>
</a>
</g>
</g>
<!-- Node1&#45;&gt;Node46 -->
<g id="edge65_Node000001_Node000046" class="edge">
<title>Node1&#45;&gt;Node46</title>
<g id="a_edge65_Node000001_Node000046"><a xlink:title=" ">
<path fill="none" stroke="#63b8ff" d="M535.77,-670.7C506.67,-634.08 444.93,-556.38 417.78,-522.22"/>
<polygon fill="#63b8ff" stroke="#63b8ff" points="420.34,-519.81 411.38,-514.16 414.86,-524.17 420.34,-519.81"/>
</a>
</g>
</g>
<!-- Node49 -->
<g id="Node000049" class="node">
<title>Node49</title>
<g id="a_Node000049"><a xlink:href="fresh__symbol_8h.html" target="_top" xlink:title="Fresh auxiliary symbol creation.">
<polygon fill="white" stroke="#666666" points="1260.5,-184 1150.5,-184 1150.5,-165 1260.5,-165 1260.5,-184"/>
<text text-anchor="middle" x="1205.5" y="-172" font-family="Helvetica,sans-Serif" font-size="10.00">util/fresh_symbol.h</text>
</a>
</g>
</g>
<!-- Node1&#45;&gt;Node49 -->
<g id="edge59_Node000001_Node000049" class="edge">
<title>Node1&#45;&gt;Node49</title>
<g id="a_edge59_Node000001_Node000049"><a xlink:title=" ">
<path fill="none" stroke="#63b8ff" d="M651.18,-691.05C834.26,-689.35 1205.5,-672.14 1205.5,-560.5 1205.5,-560.5 1205.5,-560.5 1205.5,-283.5 1205.5,-252.19 1205.5,-215.77 1205.5,-194.23"/>
<polygon fill="#63b8ff" stroke="#63b8ff" points="1209,-194.18 1205.5,-184.18 1202,-194.18 1209,-194.18"/>
</a>
</g>
</g>
<!-- Node50 -->
<g id="Node000050" class="node">
<title>Node50</title>
<g id="a_Node000050"><a xlink:href="namespace_8h.html" target="_top" xlink:title=" ">
<polygon fill="white" stroke="#666666" points="1094,-184 993,-184 993,-165 1094,-165 1094,-184"/>
<text text-anchor="middle" x="1043.5" y="-172" font-family="Helvetica,sans-Serif" font-size="10.00">util/namespace.h</text>
</a>
</g>
</g>
<!-- Node1&#45;&gt;Node50 -->
<g id="edge62_Node000001_Node000050" class="edge">
<title>Node1&#45;&gt;Node50</title>
<g id="a_edge62_Node000001_Node000050"><a xlink:title=" ">
<path fill="none" stroke="#63b8ff" d="M651.16,-689.79C825.5,-685.82 1167.5,-664.74 1167.5,-560.5 1167.5,-560.5 1167.5,-560.5 1167.5,-393.5 1167.5,-307.64 1093.93,-224.71 1060.12,-191.13"/>
<polygon fill="#63b8ff" stroke="#63b8ff" points="1062.43,-188.49 1052.82,-184.04 1057.55,-193.51 1062.43,-188.49"/>
</a>
</g>
</g>
<!-- Node51 -->
<g id="Node000051" class="node">
<title>Node51</title>
<g id="a_Node000051"><a xlink:href="std__code_8h.html" target="_top" xlink:title=" ">
<polygon fill="white" stroke="#666666" points="593.5,-514 505.5,-514 505.5,-495 593.5,-495 593.5,-514"/>
<text text-anchor="middle" x="549.5" y="-502" font-family="Helvetica,sans-Serif" font-size="10.00">util/std_code.h</text>
</a>
</g>
</g>
<!-- Node1&#45;&gt;Node51 -->
<g id="edge66_Node000001_Node000051" class="edge">
<title>Node1&#45;&gt;Node51</title>
<g id="a_edge66_Node000001_Node000051"><a xlink:title=" ">
<path fill="none" stroke="#63b8ff" d="M551.29,-670.7C550.9,-634.86 550.09,-559.67 549.7,-524.46"/>
<polygon fill="#63b8ff" stroke="#63b8ff" points="553.2,-524.12 549.59,-514.16 546.2,-524.2 553.2,-524.12"/>
</a>
</g>
</g>
<!-- Node52 -->
<g id="Node000052" class="node">
<title>Node52</title>
<g id="a_Node000052"><a xlink:href="symbol__table__base_8h.html" target="_top" xlink:title="Author: Diffblue Ltd.">
<polygon fill="white" stroke="#666666" points="1056,-404 917,-404 917,-385 1056,-385 1056,-404"/>
<text text-anchor="middle" x="986.5" y="-392" font-family="Helvetica,sans-Serif" font-size="10.00">util/symbol_table_base.h</text>
</a>
</g>
</g>
<!-- Node1&#45;&gt;Node52 -->
<g id="edge70_Node000001_Node000052" class="edge">
<title>Node1&#45;&gt;Node52</title>
<g id="a_edge70_Node000001_Node000052"><a xlink:title=" ">
<path fill="none" stroke="#63b8ff" d="M651.16,-679.33C722.32,-665.16 805.5,-633.07 805.5,-560.5 805.5,-560.5 805.5,-560.5 805.5,-503.5 805.5,-447.12 871.06,-419.49 923.27,-406.42"/>
<polygon fill="#63b8ff" stroke="#63b8ff" points="924.25,-409.78 933.17,-404.07 922.64,-402.97 924.25,-409.78"/>
</a>
</g>
</g>
<!-- Node3 -->
<g id="Node000003" class="node">
<title>Node3</title>
<g id="a_Node000003"><a xlink:href="std__code__base_8h.html" target="_top" xlink:title=" ">
<polygon fill="white" stroke="#666666" points="335.5,-459 219.5,-459 219.5,-440 335.5,-440 335.5,-459"/>
<text text-anchor="middle" x="277.5" y="-447" font-family="Helvetica,sans-Serif" font-size="10.00">util/std_code_base.h</text>
</a>
</g>
</g>
<!-- Node2&#45;&gt;Node3 -->
<g id="edge2_Node000002_Node000003" class="edge">
<title>Node2&#45;&gt;Node3</title>
<g id="a_edge2_Node000002_Node000003"><a xlink:title=" ">
<path fill="none" stroke="#63b8ff" d="M296.66,-610.65C271.01,-603.82 244.08,-591.44 228.5,-569 205.56,-535.96 239.42,-490.52 261.32,-466.65"/>
<polygon fill="#63b8ff" stroke="#63b8ff" points="264.09,-468.82 268.46,-459.16 259.02,-463.99 264.09,-468.82"/>
</a>
</g>
</g>
<!-- Node4 -->
<g id="Node000004" class="node">
<title>Node4</title>
<g id="a_Node000004"><a xlink:href="expr__cast_8h.html" target="_top" xlink:title="Templated functions to cast to specific exprt&#45;derived classes.">
<polygon fill="white" stroke="#666666" points="402,-349 329,-349 329,-330 402,-330 402,-349"/>
<text text-anchor="middle" x="365.5" y="-337" font-family="Helvetica,sans-Serif" font-size="10.00">expr_cast.h</text>
</a>
</g>
</g>
<!-- Node3&#45;&gt;Node4 -->
<g id="edge3_Node000003_Node000004" class="edge">
<title>Node3&#45;&gt;Node4</title>
<g id="a_edge3_Node000003_Node000004"><a xlink:title=" ">
<path fill="none" stroke="#63b8ff" d="M284.7,-439.66C299.41,-421.61 333.09,-380.28 351.99,-357.08"/>
<polygon fill="#63b8ff" stroke="#63b8ff" points="354.84,-359.12 358.45,-349.16 349.41,-354.7 354.84,-359.12"/>
</a>
</g>
</g>
<!-- Node8 -->
<g id="Node000008" class="node">
<title>Node8</title>
<g id="a_Node000008"><a xlink:href="src_2util_2invariant_8h.html" target="_top" xlink:title=" ">
<polygon fill="white" stroke="#666666" points="687,-74 618,-74 618,-55 687,-55 687,-74"/>
<text text-anchor="middle" x="652.5" y="-62" font-family="Helvetica,sans-Serif" font-size="10.00">invariant.h</text>
</a>
</g>
</g>
<!-- Node3&#45;&gt;Node8 -->
<g id="edge30_Node000003_Node000008" class="edge">
<title>Node3&#45;&gt;Node8</title>
<g id="a_edge30_Node000003_Node000008"><a xlink:title=" ">
<path fill="none" stroke="#63b8ff" d="M219.38,-441.9C160.33,-431.58 77.5,-405.51 77.5,-340.5 77.5,-340.5 77.5,-340.5 77.5,-228.5 77.5,-118.4 472.65,-78.83 607.8,-68.51"/>
<polygon fill="#63b8ff" stroke="#63b8ff" points="608.11,-72 617.83,-67.76 607.59,-65.02 608.11,-72"/>
</a>
</g>
</g>
<!-- Node35 -->
<g id="Node000035" class="node">
<title>Node35</title>
<g id="a_Node000035"><a xlink:href="validate_8h.html" target="_top" xlink:title=" ">
<polygon fill="#fff0f0" stroke="red" points="239,-184 174,-184 174,-165 239,-165 239,-184"/>
<text text-anchor="middle" x="206.5" y="-172" font-family="Helvetica,sans-Serif" font-size="10.00">validate.h</text>
</a>
</g>
</g>
<!-- Node3&#45;&gt;Node35 -->
<g id="edge41_Node000003_Node000035" class="edge">
<title>Node3&#45;&gt;Node35</title>
<g id="a_edge41_Node000003_Node000035"><a xlink:title=" ">
<path fill="none" stroke="#63b8ff" d="M274.22,-439.87C263.61,-411.55 229.92,-318.71 213.5,-239 210.45,-224.2 208.66,-207.16 207.66,-194.46"/>
<polygon fill="#63b8ff" stroke="#63b8ff" points="211.13,-193.94 206.94,-184.21 204.15,-194.43 211.13,-193.94"/>
</a>
</g>
</g>
<!-- Node40 -->
<g id="Node000040" class="node">
<title>Node40</title>
<g id="a_Node000040"><a xlink:href="std__types_8h.html" target="_top" xlink:title="Pre&#45;defined types.">
<polygon fill="white" stroke="#666666" points="527,-404 454,-404 454,-385 527,-385 527,-404"/>
<text text-anchor="middle" x="490.5" y="-392" font-family="Helvetica,sans-Serif" font-size="10.00">std_types.h</text>
</a>
</g>
</g>
<!-- Node3&#45;&gt;Node40 -->
<g id="edge31_Node000003_Node000040" class="edge">
<title>Node3&#45;&gt;Node40</title>
<g id="a_edge31_Node000003_Node000040"><a xlink:title=" ">
<path fill="none" stroke="#63b8ff" d="M311.72,-439.98C348.26,-430.89 406.28,-416.46 446.26,-406.51"/>
<polygon fill="#63b8ff" stroke="#63b8ff" points="447.15,-409.89 456.01,-404.08 445.46,-403.1 447.15,-409.89"/>
</a>
</g>
</g>
<!-- Node5 -->
<g id="Node000005" class="node">
<title>Node5</title>
<g id="a_Node000005"><a xlink:title=" ">
<polygon fill="#e0e0e0" stroke="#999999" points="315,-294 258,-294 258,-275 315,-275 315,-294"/>
<text text-anchor="middle" x="286.5" y="-282" font-family="Helvetica,sans-Serif" font-size="10.00">typeinfo</text>
</a>
</g>
</g>
<!-- Node4&#45;&gt;Node5 -->
<g id="edge4_Node000004_Node000005" class="edge">
<title>Node4&#45;&gt;Node5</title>
<g id="a_edge4_Node000004_Node000005"><a xlink:title=" ">
<path fill="none" stroke="#63b8ff" d="M352.81,-329.98C340.67,-321.84 322.14,-309.41 307.75,-299.76"/>
<polygon fill="#63b8ff" stroke="#63b8ff" points="309.68,-296.84 299.42,-294.17 305.78,-302.65 309.68,-296.84"/>
</a>
</g>
</g>
<!-- Node6 -->
<g id="Node000006" class="node">
<title>Node6</title>
<g id="a_Node000006"><a xlink:title=" ">
<polygon fill="#e0e0e0" stroke="#999999" points="141,-19 72,-19 72,0 141,0 141,-19"/>
<text text-anchor="middle" x="106.5" y="-7" font-family="Helvetica,sans-Serif" font-size="10.00">type_traits</text>
</a>
</g>
</g>
<!-- Node4&#45;&gt;Node6 -->
<g id="edge5_Node000004_Node000006" class="edge">
<title>Node4&#45;&gt;Node6</title>
<g id="a_edge5_Node000004_Node000006"><a xlink:title=" ">
<path fill="none" stroke="#63b8ff" d="M328.98,-330.03C304.76,-323.14 273.21,-311.64 249.5,-294 157.39,-225.48 120.51,-80.83 109.96,-29.26"/>
<polygon fill="#63b8ff" stroke="#63b8ff" points="113.35,-28.37 108,-19.23 106.48,-29.71 113.35,-28.37"/>
</a>
</g>
</g>
<!-- Node7 -->
<g id="Node000007" class="node">
<title>Node7</title>
<g id="a_Node000007"><a xlink:title=" ">
<polygon fill="#e0e0e0" stroke="#999999" points="361,-239 296,-239 296,-220 361,-220 361,-239"/>
<text text-anchor="middle" x="328.5" y="-227" font-family="Helvetica,sans-Serif" font-size="10.00">functional</text>
</a>
</g>
</g>
<!-- Node4&#45;&gt;Node7 -->
<g id="edge6_Node000004_Node000007" class="edge">
<title>Node4&#45;&gt;Node7</title>
<g id="a_edge6_Node000004_Node000007"><a xlink:title=" ">
<path fill="none" stroke="#63b8ff" d="M365.62,-330C365.54,-317.54 364.39,-293.78 357.5,-275 353.86,-265.06 347.65,-255.09 341.91,-247.11"/>
<polygon fill="#63b8ff" stroke="#63b8ff" points="344.63,-244.9 335.79,-239.06 339.05,-249.14 344.63,-244.9"/>
</a>
</g>
</g>
<!-- Node4&#45;&gt;Node8 -->
<g id="edge7_Node000004_Node000008" class="edge">
<title>Node4&#45;&gt;Node8</title>
<g id="a_edge7_Node000004_Node000008"><a xlink:title=" ">
<path fill="none" stroke="#63b8ff" d="M360.76,-329.87C353.66,-317.24 339.47,-293.27 324.5,-275 309.96,-257.25 296.43,-260.14 287.5,-239 284.22,-231.22 284.01,-227.69 287.5,-220 342.57,-98.82 522.8,-72.56 607.62,-66.96"/>
<polygon fill="#63b8ff" stroke="#63b8ff" points="607.94,-70.45 617.72,-66.36 607.53,-63.46 607.94,-70.45"/>
</a>
</g>
</g>
<!-- Node12 -->
<g id="Node000012" class="node">
<title>Node12</title>
<g id="a_Node000012"><a xlink:href="expr_8h.html" target="_top" xlink:title=" ">
<polygon fill="white" stroke="#666666" points="514,-294 467,-294 467,-275 514,-275 514,-294"/>
<text text-anchor="middle" x="490.5" y="-282" font-family="Helvetica,sans-Serif" font-size="10.00">expr.h</text>
</a>
</g>
</g>
<!-- Node4&#45;&gt;Node12 -->
<g id="edge12_Node000004_Node000012" class="edge">
<title>Node4&#45;&gt;Node12</title>
<g id="a_edge12_Node000004_Node000012"><a xlink:title=" ">
<path fill="none" stroke="#63b8ff" d="M385.58,-329.98C405.87,-321.38 437.46,-307.99 460.67,-298.15"/>
<polygon fill="#63b8ff" stroke="#63b8ff" points="462.21,-301.3 470.05,-294.17 459.48,-294.85 462.21,-301.3"/>
</a>
</g>
</g>
<!-- Node8&#45;&gt;Node6 -->
<g id="edge11_Node000008_Node000006" class="edge">
<title>Node8&#45;&gt;Node6</title>
<g id="a_edge11_Node000008_Node000006"><a xlink:title=" ">
<path fill="none" stroke="#63b8ff" d="M617.93,-60.14C522.88,-50.92 257.59,-25.17 151.34,-14.85"/>
<polygon fill="#63b8ff" stroke="#63b8ff" points="151.56,-11.36 141.27,-13.88 150.88,-18.32 151.56,-11.36"/>
</a>
</g>
</g>
<!-- Node9 -->
<g id="Node000009" class="node">
<title>Node9</title>
<g id="a_Node000009"><a xlink:title=" ">
<polygon fill="#e0e0e0" stroke="#999999" points="713,-19 664,-19 664,0 713,0 713,-19"/>
<text text-anchor="middle" x="688.5" y="-7" font-family="Helvetica,sans-Serif" font-size="10.00">cstdlib</text>
</a>
</g>
</g>
<!-- Node8&#45;&gt;Node9 -->
<g id="edge8_Node000008_Node000009" class="edge">
<title>Node8&#45;&gt;Node9</title>
<g id="a_edge8_Node000008_Node000009"><a xlink:title=" ">
<path fill="none" stroke="#63b8ff" d="M658.44,-54.75C663.48,-47.34 670.84,-36.5 677.01,-27.41"/>
<polygon fill="#63b8ff" stroke="#63b8ff" points="679.94,-29.33 682.67,-19.09 674.15,-25.39 679.94,-29.33"/>
</a>
</g>
</g>
<!-- Node10 -->
<g id="Node000010" class="node">
<title>Node10</title>
<g id="a_Node000010"><a xlink:title=" ">
<polygon fill="#e0e0e0" stroke="#999999" points="645.5,-19 589.5,-19 589.5,0 645.5,0 645.5,-19"/>
<text text-anchor="middle" x="617.5" y="-7" font-family="Helvetica,sans-Serif" font-size="10.00">sstream</text>
</a>
</g>
</g>
<!-- Node8&#45;&gt;Node10 -->
<g id="edge9_Node000008_Node000010" class="edge">
<title>Node8&#45;&gt;Node10</title>
<g id="a_edge9_Node000008_Node000010"><a xlink:title=" ">
<path fill="none" stroke="#63b8ff" d="M646.72,-54.75C641.88,-47.42 634.82,-36.73 628.86,-27.7"/>
<polygon fill="#63b8ff" stroke="#63b8ff" points="631.6,-25.5 623.17,-19.09 625.76,-29.36 631.6,-25.5"/>
</a>
</g>
</g>
<!-- Node11 -->
<g id="Node000011" class="node">
<title>Node11</title>
<g id="a_Node000011"><a xlink:title=" ">
<polygon fill="#e0e0e0" stroke="#999999" points="1088.5,-19 1044.5,-19 1044.5,0 1088.5,0 1088.5,-19"/>
<text text-anchor="middle" x="1066.5" y="-7" font-family="Helvetica,sans-Serif" font-size="10.00">string</text>
</a>
</g>
</g>
<!-- Node8&#45;&gt;Node11 -->
<g id="edge10_Node000008_Node000011" class="edge">
<title>Node8&#45;&gt;Node11</title>
<g id="a_edge10_Node000008_Node000011"><a xlink:title=" ">
<path fill="none" stroke="#63b8ff" d="M687.09,-59.07C765.78,-49 957.34,-24.47 1034,-14.66"/>
<polygon fill="#63b8ff" stroke="#63b8ff" points="1034.56,-18.12 1044.03,-13.38 1033.67,-11.17 1034.56,-18.12"/>
</a>
</g>
</g>
<!-- Node12&#45;&gt;Node7 -->
<g id="edge29_Node000012_Node000007" class="edge">
<title>Node12&#45;&gt;Node7</title>
<g id="a_edge29_Node000012_Node000007"><a xlink:title=" ">
<path fill="none" stroke="#63b8ff" d="M466.94,-275.79C439.94,-266.96 395.39,-252.38 364.14,-242.16"/>
<polygon fill="#63b8ff" stroke="#63b8ff" points="365.09,-238.79 354.5,-239.01 362.92,-245.44 365.09,-238.79"/>
</a>
</g>
</g>
<!-- Node13 -->
<g id="Node000013" class="node">
<title>Node13</title>
<g id="a_Node000013"><a xlink:href="as__const_8h.html" target="_top" xlink:title=" ">
<polygon fill="white" stroke="#666666" points="447.5,-239 379.5,-239 379.5,-220 447.5,-220 447.5,-239"/>
<text text-anchor="middle" x="413.5" y="-227" font-family="Helvetica,sans-Serif" font-size="10.00">as_const.h</text>
</a>
</g>
</g>
<!-- Node12&#45;&gt;Node13 -->
<g id="edge13_Node000012_Node000013" class="edge">
<title>Node12&#45;&gt;Node13</title>
<g id="a_edge13_Node000012_Node000013"><a xlink:title=" ">
<path fill="none" stroke="#63b8ff" d="M478.13,-274.98C466.41,-266.92 448.58,-254.65 434.61,-245.03"/>
<polygon fill="#63b8ff" stroke="#63b8ff" points="436.32,-241.96 426.1,-239.17 432.35,-247.72 436.32,-241.96"/>
</a>
</g>
</g>
<!-- Node14 -->
<g id="Node000014" class="node">
<title>Node14</title>
<g id="a_Node000014"><a xlink:href="type_8h.html" target="_top" xlink:title="Defines typet, type_with_subtypet and type_with_subtypest.">
<polygon fill="white" stroke="#666666" points="551,-239 504,-239 504,-220 551,-220 551,-239"/>
<text text-anchor="middle" x="527.5" y="-227" font-family="Helvetica,sans-Serif" font-size="10.00">type.h</text>
</a>
</g>
</g>
<!-- Node12&#45;&gt;Node14 -->
<g id="edge14_Node000012_Node000014" class="edge">
<title>Node12&#45;&gt;Node14</title>
<g id="a_edge14_Node000012_Node000014"><a xlink:title=" ">
<path fill="none" stroke="#63b8ff" d="M496.61,-274.75C501.78,-267.34 509.35,-256.5 515.69,-247.41"/>
<polygon fill="#63b8ff" stroke="#63b8ff" points="518.65,-249.29 521.5,-239.09 512.91,-245.29 518.65,-249.29"/>
</a>
</g>
</g>
<!-- Node37 -->
<g id="Node000037" class="node">
<title>Node37</title>
<g id="a_Node000037"><a xlink:href="validation__mode_8h.html" target="_top" xlink:title=" ">
<polygon fill="white" stroke="#666666" points="529,-129 422,-129 422,-110 529,-110 529,-129"/>
<text text-anchor="middle" x="475.5" y="-117" font-family="Helvetica,sans-Serif" font-size="10.00">validation_mode.h</text>
</a>
</g>
</g>
<!-- Node12&#45;&gt;Node37 -->
<g id="edge28_Node000012_Node000037" class="edge">
<title>Node12&#45;&gt;Node37</title>
<g id="a_edge28_Node000012_Node000037"><a xlink:title=" ">
<path fill="none" stroke="#63b8ff" d="M489.69,-274.74C487.35,-249.31 480.52,-175.08 477.27,-139.69"/>
<polygon fill="#63b8ff" stroke="#63b8ff" points="480.71,-138.94 476.31,-129.31 473.74,-139.59 480.71,-138.94"/>
</a>
</g>
</g>
<!-- Node38 -->
<g id="Node000038" class="node">
<title>Node38</title>
<g id="a_Node000038"><a xlink:href="validate__types_8h.html" target="_top" xlink:title=" ">
<polygon fill="white" stroke="#666666" points="689.5,-184 591.5,-184 591.5,-165 689.5,-165 689.5,-184"/>
<text text-anchor="middle" x="640.5" y="-172" font-family="Helvetica,sans-Serif" font-size="10.00">validate_types.h</text>
</a>
</g>
</g>
<!-- Node12&#45;&gt;Node38 -->
<g id="edge27_Node000012_Node000038" class="edge">
<title>Node12&#45;&gt;Node38</title>
<g id="a_edge27_Node000012_Node000038"><a xlink:title=" ">
<path fill="none" stroke="#63b8ff" d="M514,-282.3C565.01,-279.15 683.25,-268.73 707.5,-239 723.22,-219.73 695.26,-200.49 670.81,-188.32"/>
<polygon fill="#63b8ff" stroke="#63b8ff" points="672.24,-185.13 661.7,-184.02 669.25,-191.46 672.24,-185.13"/>
</a>
</g>
</g>
<!-- Node39 -->
<g id="Node000039" class="node">
<title>Node39</title>
<g id="a_Node000039"><a xlink:href="validate__expressions_8h.html" target="_top" xlink:title=" ">
<polygon fill="white" stroke="#666666" points="698,-239 569,-239 569,-220 698,-220 698,-239"/>
<text text-anchor="middle" x="633.5" y="-227" font-family="Helvetica,sans-Serif" font-size="10.00">validate_expressions.h</text>
</a>
</g>
</g>
<!-- Node12&#45;&gt;Node39 -->
<g id="edge26_Node000012_Node000039" class="edge">
<title>Node12&#45;&gt;Node39</title>
<g id="a_edge26_Node000012_Node000039"><a xlink:title=" ">
<path fill="none" stroke="#63b8ff" d="M513.48,-274.98C537,-266.27 573.79,-252.63 600.44,-242.75"/>
<polygon fill="#63b8ff" stroke="#63b8ff" points="601.95,-245.93 610.11,-239.17 599.51,-239.36 601.95,-245.93"/>
</a>
</g>
</g>
<!-- Node15 -->
<g id="Node000015" class="node">
<title>Node15</title>
<g id="a_Node000015"><a xlink:href="source__location_8h.html" target="_top" xlink:title=" ">
<polygon fill="#fff0f0" stroke="red" points="912.5,-184 810.5,-184 810.5,-165 912.5,-165 912.5,-184"/>
<text text-anchor="middle" x="861.5" y="-172" font-family="Helvetica,sans-Serif" font-size="10.00">source_location.h</text>
</a>
</g>
</g>
<!-- Node14&#45;&gt;Node15 -->
<g id="edge15_Node000014_Node000015" class="edge">
<title>Node14&#45;&gt;Node15</title>
<g id="a_edge15_Node000014_Node000015"><a xlink:title=" ">
<path fill="none" stroke="#63b8ff" d="M551.22,-222.07C554.33,-221.32 557.48,-220.61 560.5,-220 642.85,-203.35 739.06,-190.22 800.12,-182.65"/>
<polygon fill="#63b8ff" stroke="#63b8ff" points="800.86,-186.09 810.35,-181.39 800,-179.14 800.86,-186.09"/>
</a>
</g>
</g>
<!-- Node14&#45;&gt;Node35 -->
<g id="edge21_Node000014_Node000035" class="edge">
<title>Node14&#45;&gt;Node35</title>
<g id="a_edge21_Node000014_Node000035"><a xlink:title=" ">
<path fill="none" stroke="#63b8ff" d="M503.9,-224.6C450.19,-215.73 318.19,-193.94 249.54,-182.61"/>
<polygon fill="#63b8ff" stroke="#63b8ff" points="249.93,-179.12 239.49,-180.95 248.79,-186.03 249.93,-179.12"/>
</a>
</g>
</g>
<!-- Node14&#45;&gt;Node37 -->
<g id="edge25_Node000014_Node000037" class="edge">
<title>Node14&#45;&gt;Node37</title>
<g id="a_edge25_Node000014_Node000037"><a xlink:title=" ">
<path fill="none" stroke="#63b8ff" d="M523.24,-219.66C514.71,-201.93 495.35,-161.73 484.08,-138.32"/>
<polygon fill="#63b8ff" stroke="#63b8ff" points="487.16,-136.65 479.67,-129.16 480.85,-139.69 487.16,-136.65"/>
</a>
</g>
</g>
<!-- Node14&#45;&gt;Node38 -->
<g id="edge24_Node000014_Node000038" class="edge">
<title>Node14&#45;&gt;Node38</title>
<g id="a_edge24_Node000014_Node000038"><a xlink:title=" ">
<path fill="none" stroke="#63b8ff" d="M545.66,-219.98C563.75,-211.5 591.78,-198.35 612.69,-188.54"/>
<polygon fill="#63b8ff" stroke="#63b8ff" points="614.45,-191.59 622.01,-184.17 611.47,-185.25 614.45,-191.59"/>
</a>
</g>
</g>
<!-- Node15&#45;&gt;Node11 -->
<g id="edge20_Node000015_Node000011" class="edge">
<title>Node15&#45;&gt;Node11</title>
<g id="a_edge20_Node000015_Node000011"><a xlink:title=" ">
<path fill="none" stroke="#63b8ff" d="M872.23,-164.97C905.22,-138.74 1005.43,-59.06 1047.54,-25.58"/>
<polygon fill="#63b8ff" stroke="#63b8ff" points="1049.73,-28.31 1055.38,-19.34 1045.37,-22.83 1049.73,-28.31"/>
</a>
</g>
</g>
<!-- Node16 -->
<g id="Node000016" class="node">
<title>Node16</title>
<g id="a_Node000016"><a xlink:href="deprecate_8h.html" target="_top" xlink:title=" ">
<polygon fill="white" stroke="#666666" points="754.5,-129 680.5,-129 680.5,-110 754.5,-110 754.5,-129"/>
<text text-anchor="middle" x="717.5" y="-117" font-family="Helvetica,sans-Serif" font-size="10.00">deprecate.h</text>
</a>
</g>
</g>
<!-- Node15&#45;&gt;Node16 -->
<g id="edge16_Node000015_Node000016" class="edge">
<title>Node15&#45;&gt;Node16</title>
<g id="a_edge16_Node000015_Node000016"><a xlink:title=" ">
<path fill="none" stroke="#63b8ff" d="M838.36,-164.98C814.68,-156.27 777.63,-142.63 750.79,-132.75"/>
<polygon fill="#63b8ff" stroke="#63b8ff" points="751.65,-129.34 741.06,-129.17 749.23,-135.91 751.65,-129.34"/>
</a>
</g>
</g>
<!-- Node17 -->
<g id="Node000017" class="node">
<title>Node17</title>
<g id="a_Node000017"><a xlink:href="irep_8h.html" target="_top" xlink:title=" ">
<polygon fill="#fff0f0" stroke="red" points="1088.5,-129 1044.5,-129 1044.5,-110 1088.5,-110 1088.5,-129"/>
<text text-anchor="middle" x="1066.5" y="-117" font-family="Helvetica,sans-Serif" font-size="10.00">irep.h</text>
</a>
</g>
</g>
<!-- Node15&#45;&gt;Node17 -->
<g id="edge17_Node000015_Node000017" class="edge">
<title>Node15&#45;&gt;Node17</title>
<g id="a_edge17_Node000015_Node000017"><a xlink:title=" ">
<path fill="none" stroke="#63b8ff" d="M894.44,-164.98C932.92,-155.03 996.18,-138.68 1034.33,-128.82"/>
<polygon fill="#63b8ff" stroke="#63b8ff" points="1035.58,-132.11 1044.38,-126.22 1033.83,-125.33 1035.58,-132.11"/>
</a>
</g>
</g>
<!-- Node17&#45;&gt;Node8 -->
<g id="edge19_Node000017_Node000008" class="edge">
<title>Node17&#45;&gt;Node8</title>
<g id="a_edge19_Node000017_Node000008"><a xlink:title=" ">
<path fill="none" stroke="#63b8ff" d="M1044.24,-115.65C978.65,-107.25 785.2,-82.49 697.11,-71.21"/>
<polygon fill="#63b8ff" stroke="#63b8ff" points="697.52,-67.73 687.15,-69.94 696.63,-74.68 697.52,-67.73"/>
</a>
</g>
</g>
<!-- Node17&#45;&gt;Node11 -->
<g id="edge18_Node000017_Node000011" class="edge">
<title>Node17&#45;&gt;Node11</title>
<g id="a_edge18_Node000017_Node000011"><a xlink:title=" ">
<path fill="none" stroke="#63b8ff" d="M1066.5,-109.66C1066.5,-92.17 1066.5,-52.8 1066.5,-29.27"/>
<polygon fill="#63b8ff" stroke="#63b8ff" points="1070,-29.16 1066.5,-19.16 1063,-29.16 1070,-29.16"/>
</a>
</g>
</g>
<!-- Node35&#45;&gt;Node6 -->
<g id="edge22_Node000035_Node000006" class="edge">
<title>Node35&#45;&gt;Node6</title>
<g id="a_edge22_Node000035_Node000006"><a xlink:title=" ">
<path fill="none" stroke="#63b8ff" d="M201.12,-164.74C185.25,-138.87 138.39,-62.48 117.16,-27.88"/>
<polygon fill="#63b8ff" stroke="#63b8ff" points="120.12,-26 111.9,-19.31 114.15,-29.66 120.12,-26"/>
</a>
</g>
</g>
<!-- Node35&#45;&gt;Node37 -->
<g id="edge23_Node000035_Node000037" class="edge">
<title>Node35&#45;&gt;Node37</title>
<g id="a_edge23_Node000035_Node000037"><a xlink:title=" ">
<path fill="none" stroke="#63b8ff" d="M239.22,-167.05C284.69,-158.09 367.55,-141.77 422.07,-131.03"/>
<polygon fill="#63b8ff" stroke="#63b8ff" points="422.77,-134.46 431.9,-129.09 421.41,-127.59 422.77,-134.46"/>
</a>
</g>
</g>
<!-- Node40&#45;&gt;Node4 -->
<g id="edge33_Node000040_Node000004" class="edge">
<title>Node40&#45;&gt;Node4</title>
<g id="a_edge33_Node000040_Node000004"><a xlink:title=" ">
<path fill="none" stroke="#63b8ff" d="M470.42,-384.98C450.13,-376.38 418.54,-362.99 395.33,-353.15"/>
<polygon fill="#63b8ff" stroke="#63b8ff" points="396.52,-349.85 385.95,-349.17 393.79,-356.3 396.52,-349.85"/>
</a>
</g>
</g>
<!-- Node40&#45;&gt;Node8 -->
<g id="edge34_Node000040_Node000008" class="edge">
<title>Node40&#45;&gt;Node8</title>
<g id="a_edge34_Node000040_Node000008"><a xlink:title=" ">
<path fill="none" stroke="#63b8ff" d="M518.24,-384.89C569.83,-367.2 679.31,-321.32 723.5,-239 727.49,-231.56 725.29,-228.25 723.5,-220 717.82,-193.76 712.19,-188.1 698.5,-165 688.3,-147.8 680.51,-146.86 671.5,-129 664.29,-114.7 659.3,-97.17 656.25,-84.16"/>
<polygon fill="#63b8ff" stroke="#63b8ff" points="659.6,-83.11 654.06,-74.08 652.76,-84.59 659.6,-83.11"/>
</a>
</g>
</g>
<!-- Node40&#45;&gt;Node12 -->
<g id="edge32_Node000040_Node000012" class="edge">
<title>Node40&#45;&gt;Node12</title>
<g id="a_edge32_Node000040_Node000012"><a xlink:title=" ">
<path fill="none" stroke="#63b8ff" d="M490.5,-384.66C490.5,-367.17 490.5,-327.8 490.5,-304.27"/>
<polygon fill="#63b8ff" stroke="#63b8ff" points="494,-304.16 490.5,-294.16 487,-304.16 494,-304.16"/>
</a>
</g>
</g>
<!-- Node40&#45;&gt;Node35 -->
<g id="edge39_Node000040_Node000035" class="edge">
<title>Node40&#45;&gt;Node35</title>
<g id="a_edge39_Node000040_Node000035"><a xlink:title=" ">
<path fill="none" stroke="#63b8ff" d="M453.9,-390.05C399.37,-382.78 298.03,-360.57 249.5,-294 226.81,-262.87 214.99,-218.52 209.82,-193.85"/>
<polygon fill="#63b8ff" stroke="#63b8ff" points="213.25,-193.16 207.9,-184.02 206.38,-194.5 213.25,-193.16"/>
</a>
</g>
</g>
<!-- Node41 -->
<g id="Node000041" class="node">
<title>Node41</title>
<g id="a_Node000041"><a xlink:href="mp__arith_8h.html" target="_top" xlink:title=" ">
<polygon fill="white" stroke="#666666" points="922,-349 853,-349 853,-330 922,-330 922,-349"/>
<text text-anchor="middle" x="887.5" y="-337" font-family="Helvetica,sans-Serif" font-size="10.00">mp_arith.h</text>
</a>
</g>
</g>
<!-- Node40&#45;&gt;Node41 -->
<g id="edge35_Node000040_Node000041" class="edge">
<title>Node40&#45;&gt;Node41</title>
<g id="a_edge35_Node000040_Node000041"><a xlink:title=" ">
<path fill="none" stroke="#63b8ff" d="M527.2,-389.67C589.72,-382.98 721.08,-368.17 842.72,-349.02"/>
<polygon fill="#63b8ff" stroke="#63b8ff" points="843.62,-352.42 852.95,-347.4 842.53,-345.51 843.62,-352.42"/>
</a>
</g>
</g>
<!-- Node26 -->
<g id="Node000026" class="node">
<title>Node26</title>
<g id="a_Node000026"><a xlink:title=" ">
<polygon fill="#e0e0e0" stroke="#999999" points="1033,-349 940,-349 940,-330 1033,-330 1033,-349"/>
<text text-anchor="middle" x="986.5" y="-337" font-family="Helvetica,sans-Serif" font-size="10.00">unordered_map</text>
</a>
</g>
</g>
<!-- Node40&#45;&gt;Node26 -->
<g id="edge40_Node000040_Node000026" class="edge">
<title>Node40&#45;&gt;Node26</title>
<g id="a_edge40_Node000040_Node000026"><a xlink:title=" ">
<path fill="none" stroke="#63b8ff" d="M527.16,-390.46C601.24,-384.17 774.24,-368.78 929.52,-349.2"/>
<polygon fill="#63b8ff" stroke="#63b8ff" points="930.24,-352.63 939.72,-347.9 929.35,-345.69 930.24,-352.63"/>
</a>
</g>
</g>
<!-- Node41&#45;&gt;Node11 -->
<g id="edge37_Node000041_Node000011" class="edge">
<title>Node41&#45;&gt;Node11</title>
<g id="a_edge37_Node000041_Node000011"><a xlink:title=" ">
<path fill="none" stroke="#63b8ff" d="M922.35,-331.31C964.3,-322.29 1031.93,-306.5 1054.5,-294 1090.67,-273.97 1122.5,-271.85 1122.5,-230.5 1122.5,-230.5 1122.5,-230.5 1122.5,-118.5 1122.5,-82.65 1097.88,-46.86 1081.29,-26.81"/>
<polygon fill="#63b8ff" stroke="#63b8ff" points="1083.94,-24.52 1074.76,-19.23 1078.63,-29.09 1083.94,-24.52"/>
</a>
</g>
</g>
<!-- Node21 -->
<g id="Node000021" class="node">
<title>Node21</title>
<g id="a_Node000021"><a xlink:title=" ">
<polygon fill="#e0e0e0" stroke="#999999" points="933.5,-294 885.5,-294 885.5,-275 933.5,-275 933.5,-294"/>
<text text-anchor="middle" x="909.5" y="-282" font-family="Helvetica,sans-Serif" font-size="10.00">iosfwd</text>
</a>
</g>
</g>
<!-- Node41&#45;&gt;Node21 -->
<g id="edge36_Node000041_Node000021" class="edge">
<title>Node41&#45;&gt;Node21</title>
<g id="a_edge36_Node000041_Node000021"><a xlink:title=" ">
<path fill="none" stroke="#63b8ff" d="M891.13,-329.75C894.08,-322.65 898.33,-312.4 902.01,-303.56"/>
<polygon fill="#63b8ff" stroke="#63b8ff" points="905.33,-304.67 905.93,-294.09 898.87,-301.98 905.33,-304.67"/>
</a>
</g>
</g>
<!-- Node42 -->
<g id="Node000042" class="node">
<title>Node42</title>
<g id="a_Node000042"><a xlink:title=" ">
<polygon fill="#e0e0e0" stroke="#999999" points="1045.5,-294 951.5,-294 951.5,-275 1045.5,-275 1045.5,-294"/>
<text text-anchor="middle" x="998.5" y="-282" font-family="Helvetica,sans-Serif" font-size="10.00">big&#45;int/bigint.hh</text>
</a>
</g>
</g>
<!-- Node41&#45;&gt;Node42 -->
<g id="edge38_Node000041_Node000042" class="edge">
<title>Node41&#45;&gt;Node42</title>
<g id="a_edge38_Node000041_Node000042"><a xlink:title=" ">
<path fill="none" stroke="#63b8ff" d="M905.33,-329.98C923.11,-321.5 950.65,-308.35 971.18,-298.54"/>
<polygon fill="#63b8ff" stroke="#63b8ff" points="972.83,-301.64 980.34,-294.17 969.81,-295.32 972.83,-301.64"/>
</a>
</g>
</g>
<!-- Node43&#45;&gt;Node8 -->
<g id="edge43_Node000043_Node000008" class="edge">
<title>Node43&#45;&gt;Node8</title>
<g id="a_edge43_Node000043_Node000008"><a xlink:title=" ">
<path fill="none" stroke="#63b8ff" d="M114.07,-605C94.28,-597.28 72.97,-585.76 58.5,-569 39.25,-546.7 39.5,-534.96 39.5,-505.5 39.5,-505.5 39.5,-505.5 39.5,-228.5 39.5,-132.72 127.13,-135.33 219.5,-110 357.42,-72.17 528.07,-65.95 607.67,-65.28"/>
<polygon fill="#63b8ff" stroke="#63b8ff" points="607.85,-68.78 617.83,-65.22 607.81,-61.78 607.85,-68.78"/>
</a>
</g>
</g>
<!-- Node31 -->
<g id="Node000031" class="node">
<title>Node31</title>
<g id="a_Node000031"><a xlink:title=" ">
<polygon fill="#e0e0e0" stroke="#999999" points="131.5,-569 67.5,-569 67.5,-550 131.5,-550 131.5,-569"/>
<text text-anchor="middle" x="99.5" y="-557" font-family="Helvetica,sans-Serif" font-size="10.00">algorithm</text>
</a>
</g>
</g>
<!-- Node43&#45;&gt;Node31 -->
<g id="edge44_Node000043_Node000031" class="edge">
<title>Node43&#45;&gt;Node31</title>
<g id="a_edge44_Node000043_Node000031"><a xlink:title=" ">
<path fill="none" stroke="#63b8ff" d="M149.52,-604.84C139.75,-596.17 127.23,-585.08 117.16,-576.15"/>
<polygon fill="#63b8ff" stroke="#63b8ff" points="119.19,-573.28 109.39,-569.27 114.55,-578.52 119.19,-573.28"/>
</a>
</g>
</g>
<!-- Node44 -->
<g id="Node000044" class="node">
<title>Node44</title>
<g id="a_Node000044"><a xlink:title=" ">
<polygon fill="#e0e0e0" stroke="#999999" points="181.5,-569 149.5,-569 149.5,-550 181.5,-550 181.5,-569"/>
<text text-anchor="middle" x="165.5" y="-557" font-family="Helvetica,sans-Serif" font-size="10.00">set</text>
</a>
</g>
</g>
<!-- Node43&#45;&gt;Node44 -->
<g id="edge45_Node000043_Node000044" class="edge">
<title>Node43&#45;&gt;Node44</title>
<g id="a_edge45_Node000043_Node000044"><a xlink:title=" ">
<path fill="none" stroke="#63b8ff" d="M165.5,-604.84C165.5,-597.21 165.5,-587.7 165.5,-579.45"/>
<polygon fill="#63b8ff" stroke="#63b8ff" points="169,-579.27 165.5,-569.27 162,-579.27 169,-579.27"/>
</a>
</g>
</g>
<!-- Node45 -->
<g id="Node000045" class="node">
<title>Node45</title>
<g id="a_Node000045"><a xlink:href="c__types_8h.html" target="_top" xlink:title=" ">
<polygon fill="white" stroke="#666666" points="319.5,-569 237.5,-569 237.5,-550 319.5,-550 319.5,-569"/>
<text text-anchor="middle" x="278.5" y="-557" font-family="Helvetica,sans-Serif" font-size="10.00">util/c_types.h</text>
</a>
</g>
</g>
<!-- Node43&#45;&gt;Node45 -->
<g id="edge46_Node000043_Node000045" class="edge">
<title>Node43&#45;&gt;Node45</title>
<g id="a_edge46_Node000043_Node000045"><a xlink:title=" ">
<path fill="none" stroke="#63b8ff" d="M192.57,-604.99C210.75,-595.58 234.57,-583.24 252.52,-573.95"/>
<polygon fill="#63b8ff" stroke="#63b8ff" points="254.54,-576.84 261.81,-569.14 251.32,-570.63 254.54,-576.84"/>
</a>
</g>
</g>
<!-- Node48 -->
<g id="Node000048" class="node">
<title>Node48</title>
<g id="a_Node000048"><a xlink:href="std__expr_8h.html" target="_top" xlink:title="API to expression classes.">
<polygon fill="white" stroke="#666666" points="540,-459 473,-459 473,-440 540,-440 540,-459"/>
<text text-anchor="middle" x="506.5" y="-447" font-family="Helvetica,sans-Serif" font-size="10.00">std_expr.h</text>
</a>
</g>
</g>
<!-- Node43&#45;&gt;Node48 -->
<g id="edge58_Node000043_Node000048" class="edge">
<title>Node43&#45;&gt;Node48</title>
<g id="a_edge58_Node000043_Node000048"><a xlink:title=" ">
<path fill="none" stroke="#63b8ff" d="M221.61,-609.38C284.12,-596.41 385.68,-568.38 456.5,-514 473.14,-501.22 487.4,-481.71 496.38,-467.69"/>
<polygon fill="#63b8ff" stroke="#63b8ff" points="499.46,-469.36 501.72,-459.01 493.5,-465.7 499.46,-469.36"/>
</a>
</g>
</g>
<!-- Node33 -->
<g id="Node000033" class="node">
<title>Node33</title>
<g id="a_Node000033"><a xlink:href="narrow_8h.html" target="_top" xlink:title=" ">
<polygon fill="white" stroke="#666666" points="59,-129 0,-129 0,-110 59,-110 59,-129"/>
<text text-anchor="middle" x="29.5" y="-117" font-family="Helvetica,sans-Serif" font-size="10.00">narrow.h</text>
</a>
</g>
</g>
<!-- Node43&#45;&gt;Node33 -->
<g id="edge55_Node000043_Node000033" class="edge">
<title>Node43&#45;&gt;Node33</title>
<g id="a_edge55_Node000043_Node000033"><a xlink:title=" ">
<path fill="none" stroke="#63b8ff" d="M109.4,-610.46C81.09,-603.55 48.06,-591.15 25.5,-569 3.97,-547.86 1.5,-535.67 1.5,-505.5 1.5,-505.5 1.5,-505.5 1.5,-228.5 1.5,-196.02 13.51,-159.76 21.8,-138.6"/>
<polygon fill="#63b8ff" stroke="#63b8ff" points="25.07,-139.84 25.61,-129.26 18.59,-137.2 25.07,-139.84"/>
</a>
</g>
</g>
<!-- Node45&#45;&gt;Node16 -->
<g id="edge47_Node000045_Node000016" class="edge">
<title>Node45&#45;&gt;Node16</title>
<g id="a_edge47_Node000045_Node000016"><a xlink:title=" ">
<path fill="none" stroke="#63b8ff" d="M269.84,-549.84C247.83,-526.86 191.5,-461.58 191.5,-395.5 191.5,-395.5 191.5,-395.5 191.5,-283.5 191.5,-183.79 540.75,-138.35 670.08,-124.94"/>
<polygon fill="#63b8ff" stroke="#63b8ff" points="670.5,-128.41 680.09,-123.92 669.79,-121.45 670.5,-128.41"/>
</a>
</g>
</g>
<!-- Node45&#45;&gt;Node46 -->
<g id="edge48_Node000045_Node000046" class="edge">
<title>Node45&#45;&gt;Node46</title>
<g id="a_edge48_Node000045_Node000046"><a xlink:title=" ">
<path fill="none" stroke="#63b8ff" d="M298.74,-549.98C319.2,-541.38 351.03,-527.99 374.43,-518.15"/>
<polygon fill="#63b8ff" stroke="#63b8ff" points="376.03,-521.27 383.89,-514.17 373.31,-514.82 376.03,-521.27"/>
</a>
</g>
</g>
<!-- Node47 -->
<g id="Node000047" class="node">
<title>Node47</title>
<g id="a_Node000047"><a xlink:href="bitvector__types_8h.html" target="_top" xlink:title="Pre&#45;defined bitvector types.">
<polygon fill="white" stroke="#666666" points="455,-459 354,-459 354,-440 455,-440 455,-459"/>
<text text-anchor="middle" x="404.5" y="-447" font-family="Helvetica,sans-Serif" font-size="10.00">bitvector_types.h</text>
</a>
</g>
</g>
<!-- Node46&#45;&gt;Node47 -->
<g id="edge49_Node000046_Node000047" class="edge">
<title>Node46&#45;&gt;Node47</title>
<g id="a_edge49_Node000046_Node000047"><a xlink:title=" ">
<path fill="none" stroke="#63b8ff" d="M404.5,-494.75C404.5,-487.8 404.5,-477.85 404.5,-469.13"/>
<polygon fill="#63b8ff" stroke="#63b8ff" points="408,-469.09 404.5,-459.09 401,-469.09 408,-469.09"/>
</a>
</g>
</g>
<!-- Node46&#45;&gt;Node48 -->
<g id="edge51_Node000046_Node000048" class="edge">
<title>Node46&#45;&gt;Node48</title>
<g id="a_edge51_Node000046_Node000048"><a xlink:title=" ">
<path fill="none" stroke="#63b8ff" d="M420.89,-494.98C437.07,-486.57 462.07,-473.59 480.88,-463.81"/>
<polygon fill="#63b8ff" stroke="#63b8ff" points="482.55,-466.89 489.81,-459.17 479.33,-460.68 482.55,-466.89"/>
</a>
</g>
</g>
<!-- Node47&#45;&gt;Node40 -->
<g id="edge50_Node000047_Node000040" class="edge">
<title>Node47&#45;&gt;Node40</title>
<g id="a_edge50_Node000047_Node000040"><a xlink:title=" ">
<path fill="none" stroke="#63b8ff" d="M418.32,-439.98C431.65,-431.77 452.08,-419.18 467.81,-409.49"/>
<polygon fill="#63b8ff" stroke="#63b8ff" points="469.75,-412.4 476.43,-404.17 466.08,-406.44 469.75,-412.4"/>
</a>
</g>
</g>
<!-- Node48&#45;&gt;Node4 -->
<g id="edge52_Node000048_Node000004" class="edge">
<title>Node48&#45;&gt;Node4</title>
<g id="a_edge52_Node000048_Node000004"><a xlink:title=" ">
<path fill="none" stroke="#63b8ff" d="M494.24,-439.78C481.85,-430.91 462.19,-416.7 445.5,-404 424.19,-387.78 400.18,-368.6 384.07,-355.59"/>
<polygon fill="#63b8ff" stroke="#63b8ff" points="385.98,-352.63 376,-349.06 381.57,-358.07 385.98,-352.63"/>
</a>
</g>
</g>
<!-- Node48&#45;&gt;Node8 -->
<g id="edge53_Node000048_Node000008" class="edge">
<title>Node48&#45;&gt;Node8</title>
<g id="a_edge53_Node000048_Node000008"><a xlink:title=" ">
<path fill="none" stroke="#63b8ff" d="M523.59,-439.95C569.4,-415.91 694.49,-342.65 738.5,-239 761.32,-185.24 796.22,-158.37 763.5,-110 748.69,-88.11 721.16,-76.98 697.22,-71.33"/>
<polygon fill="#63b8ff" stroke="#63b8ff" points="697.73,-67.86 687.23,-69.23 696.29,-74.71 697.73,-67.86"/>
</a>
</g>
</g>
<!-- Node48&#45;&gt;Node40 -->
<g id="edge54_Node000048_Node000040" class="edge">
<title>Node48&#45;&gt;Node40</title>
<g id="a_edge54_Node000048_Node000040"><a xlink:title=" ">
<path fill="none" stroke="#63b8ff" d="M503.86,-439.75C501.74,-432.72 498.69,-422.62 496.04,-413.84"/>
<polygon fill="#63b8ff" stroke="#63b8ff" points="499.33,-412.65 493.09,-404.09 492.63,-414.67 499.33,-412.65"/>
</a>
</g>
</g>
<!-- Node33&#45;&gt;Node6 -->
<g id="edge56_Node000033_Node000006" class="edge">
<title>Node33&#45;&gt;Node6</title>
<g id="a_edge56_Node000033_Node000006"><a xlink:title=" ">
<path fill="none" stroke="#63b8ff" d="M35.39,-109.81C43.75,-97.52 59.59,-74.4 73.5,-55 80.09,-45.82 87.58,-35.69 93.76,-27.42"/>
<polygon fill="#63b8ff" stroke="#63b8ff" points="96.64,-29.4 99.84,-19.3 91.04,-25.2 96.64,-29.4"/>
</a>
</g>
</g>
<!-- Node33&#45;&gt;Node8 -->
<g id="edge57_Node000033_Node000008" class="edge">
<title>Node33&#45;&gt;Node8</title>
<g id="a_edge57_Node000033_Node000008"><a xlink:title=" ">
<path fill="none" stroke="#63b8ff" d="M59.13,-115.98C159.58,-107.43 487.61,-79.53 607.82,-69.3"/>
<polygon fill="#63b8ff" stroke="#63b8ff" points="608.13,-72.79 617.8,-68.45 607.53,-65.81 608.13,-72.79"/>
</a>
</g>
</g>
<!-- Node49&#45;&gt;Node11 -->
<g id="edge60_Node000049_Node000011" class="edge">
<title>Node49&#45;&gt;Node11</title>
<g id="a_edge60_Node000049_Node000011"><a xlink:title=" ">
<path fill="none" stroke="#63b8ff" d="M1202.16,-164.84C1193.76,-143.94 1170,-89.83 1136.5,-55 1124.33,-42.35 1107.89,-31.66 1093.99,-23.93"/>
<polygon fill="#63b8ff" stroke="#63b8ff" points="1095.33,-20.68 1084.86,-19.06 1092.04,-26.86 1095.33,-20.68"/>
</a>
</g>
</g>
<!-- Node49&#45;&gt;Node17 -->
<g id="edge61_Node000049_Node000017" class="edge">
<title>Node49&#45;&gt;Node17</title>
<g id="a_edge61_Node000049_Node000017"><a xlink:title=" ">
<path fill="none" stroke="#63b8ff" d="M1183.17,-164.98C1160.17,-156.21 1124.12,-142.47 1098.18,-132.58"/>
<polygon fill="#63b8ff" stroke="#63b8ff" points="1099.37,-129.29 1088.78,-128.99 1096.87,-135.83 1099.37,-129.29"/>
</a>
</g>
</g>
<!-- Node50&#45;&gt;Node8 -->
<g id="edge63_Node000050_Node000008" class="edge">
<title>Node50&#45;&gt;Node8</title>
<g id="a_edge63_Node000050_Node000008"><a xlink:title=" ">
<path fill="none" stroke="#63b8ff" d="M1034.52,-164.81C1019.39,-150.74 987.25,-123.19 954.5,-110 868.25,-75.25 758.36,-67.23 697.75,-65.62"/>
<polygon fill="#63b8ff" stroke="#63b8ff" points="697.46,-62.12 687.38,-65.4 697.3,-69.11 697.46,-62.12"/>
</a>
</g>
</g>
<!-- Node50&#45;&gt;Node17 -->
<g id="edge64_Node000050_Node000017" class="edge">
<title>Node50&#45;&gt;Node17</title>
<g id="a_edge64_Node000050_Node000017"><a xlink:title=" ">
<path fill="none" stroke="#63b8ff" d="M1047.3,-164.75C1050.41,-157.57 1054.92,-147.18 1058.79,-138.27"/>
<polygon fill="#63b8ff" stroke="#63b8ff" points="1062,-139.66 1062.77,-129.09 1055.58,-136.87 1062,-139.66"/>
</a>
</g>
</g>
<!-- Node51&#45;&gt;Node3 -->
<g id="edge68_Node000051_Node000003" class="edge">
<title>Node51&#45;&gt;Node3</title>
<g id="a_edge68_Node000051_Node000003"><a xlink:title=" ">
<path fill="none" stroke="#63b8ff" d="M505.8,-494.98C458.35,-485.74 382.53,-470.97 331.42,-461.01"/>
<polygon fill="#63b8ff" stroke="#63b8ff" points="332.03,-457.56 321.54,-459.08 330.69,-464.43 332.03,-457.56"/>
</a>
</g>
</g>
<!-- Node51&#45;&gt;Node48 -->
<g id="edge69_Node000051_Node000048" class="edge">
<title>Node51&#45;&gt;Node48</title>
<g id="a_edge69_Node000051_Node000048"><a xlink:title=" ">
<path fill="none" stroke="#63b8ff" d="M542.4,-494.75C536.33,-487.26 527.41,-476.28 519.99,-467.13"/>
<polygon fill="#63b8ff" stroke="#63b8ff" points="522.49,-464.65 513.47,-459.09 517.05,-469.06 522.49,-464.65"/>
</a>
</g>
</g>
<!-- Node25 -->
<g id="Node000025" class="node">
<title>Node25</title>
<g id="a_Node000025"><a xlink:title=" ">
<polygon fill="#e0e0e0" stroke="#999999" points="1139.5,-349 1107.5,-349 1107.5,-330 1139.5,-330 1139.5,-349"/>
<text text-anchor="middle" x="1123.5" y="-337" font-family="Helvetica,sans-Serif" font-size="10.00">list</text>
</a>
</g>
</g>
<!-- Node51&#45;&gt;Node25 -->
<g id="edge67_Node000051_Node000025" class="edge">
<title>Node51&#45;&gt;Node25</title>
<g id="a_edge67_Node000051_Node000025"><a xlink:title=" ">
<path fill="none" stroke="#63b8ff" d="M593.75,-504.08C687.1,-503.43 908.49,-491.94 1065.5,-404 1085.38,-392.87 1102.16,-372.45 1112.48,-357.77"/>
<polygon fill="#63b8ff" stroke="#63b8ff" points="1115.63,-359.36 1118.3,-349.1 1109.82,-355.46 1115.63,-359.36"/>
</a>
</g>
</g>
<!-- Node52&#45;&gt;Node26 -->
<g id="edge77_Node000052_Node000026" class="edge">
<title>Node52&#45;&gt;Node26</title>
<g id="a_edge77_Node000052_Node000026"><a xlink:title=" ">
<path fill="none" stroke="#63b8ff" d="M986.5,-384.75C986.5,-377.8 986.5,-367.85 986.5,-359.13"/>
<polygon fill="#63b8ff" stroke="#63b8ff" points="990,-359.09 986.5,-349.09 983,-359.09 990,-359.09"/>
</a>
</g>
</g>
<!-- Node52&#45;&gt;Node25 -->
<g id="edge75_Node000052_Node000025" class="edge">
<title>Node52&#45;&gt;Node25</title>
<g id="a_edge75_Node000052_Node000025"><a xlink:title=" ">
<path fill="none" stroke="#63b8ff" d="M1008.51,-384.98C1032.82,-375.58 1071.91,-360.46 1097.65,-350.5"/>
<polygon fill="#63b8ff" stroke="#63b8ff" points="1099.07,-353.7 1107.13,-346.83 1096.54,-347.18 1099.07,-353.7"/>
</a>
</g>
</g>
<!-- Node53 -->
<g id="Node000053" class="node">
<title>Node53</title>
<g id="a_Node000053"><a xlink:href="symbol_8h.html" target="_top" xlink:title="Symbol table entry.">
<polygon fill="white" stroke="#666666" points="834.5,-349 772.5,-349 772.5,-330 834.5,-330 834.5,-349"/>
<text text-anchor="middle" x="803.5" y="-337" font-family="Helvetica,sans-Serif" font-size="10.00">symbol.h</text>
</a>
</g>
</g>
<!-- Node52&#45;&gt;Node53 -->
<g id="edge71_Node000052_Node000053" class="edge">
<title>Node52&#45;&gt;Node53</title>
<g id="a_edge71_Node000052_Node000053"><a xlink:title=" ">
<path fill="none" stroke="#63b8ff" d="M957.1,-384.98C926.11,-376.01 877.12,-361.82 842.83,-351.89"/>
<polygon fill="#63b8ff" stroke="#63b8ff" points="843.71,-348.5 833.13,-349.08 841.76,-355.23 843.71,-348.5"/>
</a>
</g>
</g>
<!-- Node54 -->
<g id="Node000054" class="node">
<title>Node54</title>
<g id="a_Node000054"><a xlink:title=" ">
<polygon fill="#e0e0e0" stroke="#999999" points="1089.5,-349 1051.5,-349 1051.5,-330 1089.5,-330 1089.5,-349"/>
<text text-anchor="middle" x="1070.5" y="-337" font-family="Helvetica,sans-Serif" font-size="10.00">map</text>
</a>
</g>
</g>
<!-- Node52&#45;&gt;Node54 -->
<g id="edge76_Node000052_Node000054" class="edge">
<title>Node52&#45;&gt;Node54</title>
<g id="a_edge76_Node000052_Node000054"><a xlink:title=" ">
<path fill="none" stroke="#63b8ff" d="M1000,-384.98C1012.9,-376.84 1032.6,-364.41 1047.9,-354.76"/>
<polygon fill="#63b8ff" stroke="#63b8ff" points="1050.17,-357.47 1056.76,-349.17 1046.43,-351.55 1050.17,-357.47"/>
</a>
</g>
</g>
<!-- Node53&#45;&gt;Node8 -->
<g id="edge74_Node000053_Node000008" class="edge">
<title>Node53&#45;&gt;Node8</title>
<g id="a_edge74_Node000053_Node000008"><a xlink:title=" ">
<path fill="none" stroke="#63b8ff" d="M812.39,-329.95C843.3,-299.75 943.1,-198.1 921.5,-165 872.65,-90.14 760.05,-71.34 697.12,-66.79"/>
<polygon fill="#63b8ff" stroke="#63b8ff" points="697.29,-63.3 687.09,-66.16 696.84,-70.28 697.29,-63.3"/>
</a>
</g>
</g>
<!-- Node53&#45;&gt;Node12 -->
<g id="edge73_Node000053_Node000012" class="edge">
<title>Node53&#45;&gt;Node12</title>
<g id="a_edge73_Node000053_Node000012"><a xlink:title=" ">
<path fill="none" stroke="#63b8ff" d="M772.34,-333.22C713.14,-323.2 584.89,-301.48 523.95,-291.16"/>
<polygon fill="#63b8ff" stroke="#63b8ff" points="524.52,-287.71 514.08,-289.49 523.35,-294.61 524.52,-287.71"/>
</a>
</g>
</g>
<!-- Node53&#45;&gt;Node21 -->
<g id="edge72_Node000053_Node000021" class="edge">
<title>Node53&#45;&gt;Node21</title>
<g id="a_edge72_Node000053_Node000021"><a xlink:title=" ">
<path fill="none" stroke="#63b8ff" d="M820.53,-329.98C837.43,-321.54 863.56,-308.47 883.14,-298.68"/>
<polygon fill="#63b8ff" stroke="#63b8ff" points="884.78,-301.77 892.16,-294.17 881.65,-295.51 884.78,-301.77"/>
</a>
</g>
</g>
</g>
</svg>
