<?xml version="1.0" encoding="UTF-8" standalone="no"?>
<!DOCTYPE svg PUBLIC "-//W3C//DTD SVG 1.1//EN"
 "http://www.w3.org/Graphics/SVG/1.1/DTD/svg11.dtd">
<!-- Generated by graphviz version 2.43.0 (0)
 -->
<!-- Title: /home/runner/work/cbmc/cbmc/src/goto&#45;instrument/contracts/dynamic&#45;frames/dfcc_loop_nesting_graph.h Pages: 1 -->
<svg width="1462pt" height="522pt"
 viewBox="0.00 0.00 1461.89 522.00" xmlns="http://www.w3.org/2000/svg" xmlns:xlink="http://www.w3.org/1999/xlink">
<g id="graph0" class="graph" transform="scale(1 1) rotate(0) translate(4 518)">
<title>/home/runner/work/cbmc/cbmc/src/goto&#45;instrument/contracts/dynamic&#45;frames/dfcc_loop_nesting_graph.h</title>
<!-- Node1 -->
<g id="Node000001" class="node">
<title>Node1</title>
<g id="a_Node000001"><a xlink:title="Builds a graph describing how loops are nested in a GOTO program.">
<polygon fill="#999999" stroke="#666666" points="431.39,-514 282.39,-514 282.39,-462 431.39,-462 431.39,-514"/>
<text text-anchor="start" x="290.39" y="-502" font-family="Helvetica,sans-Serif" font-size="10.00">/home/runner/work/cbmc</text>
<text text-anchor="start" x="290.39" y="-491" font-family="Helvetica,sans-Serif" font-size="10.00">/cbmc/src/goto&#45;instrument</text>
<text text-anchor="start" x="290.39" y="-480" font-family="Helvetica,sans-Serif" font-size="10.00">/contracts/dynamic&#45;frames</text>
<text text-anchor="middle" x="356.89" y="-469" font-family="Helvetica,sans-Serif" font-size="10.00">/dfcc_loop_nesting_graph.h</text>
</a>
</g>
</g>
<!-- Node2 -->
<g id="Node000002" class="node">
<title>Node2</title>
<g id="a_Node000002"><a xlink:href="graph_8h.html" target="_top" xlink:title="A Template Class for Graphs.">
<polygon fill="white" stroke="#666666" points="273.89,-184 201.89,-184 201.89,-165 273.89,-165 273.89,-184"/>
<text text-anchor="middle" x="237.89" y="-172" font-family="Helvetica,sans-Serif" font-size="10.00">util/graph.h</text>
</a>
</g>
</g>
<!-- Node1&#45;&gt;Node2 -->
<g id="edge1_Node000001_Node000002" class="edge">
<title>Node1&#45;&gt;Node2</title>
<g id="a_edge1_Node000001_Node000002"><a xlink:title=" ">
<path fill="none" stroke="#63b8ff" d="M341.12,-461.67C326.79,-436.21 307.89,-395.35 307.89,-357 307.89,-357 307.89,-357 307.89,-289 307.89,-248.97 275.96,-211.24 255.23,-190.96"/>
<polygon fill="#63b8ff" stroke="#63b8ff" points="257.6,-188.38 247.92,-184.07 252.8,-193.48 257.6,-188.38"/>
</a>
</g>
</g>
<!-- Node16 -->
<g id="Node000016" class="node">
<title>Node16</title>
<g id="a_Node000016"><a xlink:href="loop__analysis_8h.html" target="_top" xlink:title="Data structure representing a loop in a GOTO program and an interface shared by all analyses that fin...">
<polygon fill="white" stroke="#666666" points="586.39,-426 447.39,-426 447.39,-407 586.39,-407 586.39,-426"/>
<text text-anchor="middle" x="516.89" y="-414" font-family="Helvetica,sans-Serif" font-size="10.00">analyses/loop_analysis.h</text>
</a>
</g>
</g>
<!-- Node1&#45;&gt;Node16 -->
<g id="edge16_Node000001_Node000016" class="edge">
<title>Node1&#45;&gt;Node16</title>
<g id="a_edge16_Node000001_Node000016"><a xlink:title=" ">
<path fill="none" stroke="#63b8ff" d="M414.65,-461.91C439.42,-451.15 467.28,-439.05 487.66,-430.2"/>
<polygon fill="#63b8ff" stroke="#63b8ff" points="489.23,-433.33 497.01,-426.14 486.44,-426.91 489.23,-433.33"/>
</a>
</g>
</g>
<!-- Node3 -->
<g id="Node000003" class="node">
<title>Node3</title>
<g id="a_Node000003"><a xlink:title=" ">
<polygon fill="#e0e0e0" stroke="#999999" points="829.89,-129 765.89,-129 765.89,-110 829.89,-110 829.89,-129"/>
<text text-anchor="middle" x="797.89" y="-117" font-family="Helvetica,sans-Serif" font-size="10.00">algorithm</text>
</a>
</g>
</g>
<!-- Node2&#45;&gt;Node3 -->
<g id="edge2_Node000002_Node000003" class="edge">
<title>Node2&#45;&gt;Node3</title>
<g id="a_edge2_Node000002_Node000003"><a xlink:title=" ">
<path fill="none" stroke="#63b8ff" d="M273.9,-170.43C388.82,-160.62 740.02,-130.61 751.89,-129 753.16,-128.83 754.44,-128.65 755.74,-128.45"/>
<polygon fill="#63b8ff" stroke="#63b8ff" points="756.46,-131.88 765.78,-126.84 755.35,-124.97 756.46,-131.88"/>
</a>
</g>
</g>
<!-- Node4 -->
<g id="Node000004" class="node">
<title>Node4</title>
<g id="a_Node000004"><a xlink:title=" ">
<polygon fill="#e0e0e0" stroke="#999999" points="300.39,-19 235.39,-19 235.39,0 300.39,0 300.39,-19"/>
<text text-anchor="middle" x="267.89" y="-7" font-family="Helvetica,sans-Serif" font-size="10.00">functional</text>
</a>
</g>
</g>
<!-- Node2&#45;&gt;Node4 -->
<g id="edge3_Node000002_Node000004" class="edge">
<title>Node2&#45;&gt;Node4</title>
<g id="a_edge3_Node000002_Node000004"><a xlink:title=" ">
<path fill="none" stroke="#63b8ff" d="M201.43,-172.04C142.04,-168.8 28.54,-158.78 3.89,-129 -1.5,-122.49 -0.9,-116.96 3.89,-110 53.91,-37.35 164.19,-17.67 225.2,-12.39"/>
<polygon fill="#63b8ff" stroke="#63b8ff" points="225.58,-15.88 235.28,-11.61 225.04,-8.9 225.58,-15.88"/>
</a>
</g>
</g>
<!-- Node5 -->
<g id="Node000005" class="node">
<title>Node5</title>
<g id="a_Node000005"><a xlink:title=" ">
<polygon fill="#e0e0e0" stroke="#999999" points="522.89,-74 474.89,-74 474.89,-55 522.89,-55 522.89,-74"/>
<text text-anchor="middle" x="498.89" y="-62" font-family="Helvetica,sans-Serif" font-size="10.00">iosfwd</text>
</a>
</g>
</g>
<!-- Node2&#45;&gt;Node5 -->
<g id="edge4_Node000002_Node000005" class="edge">
<title>Node2&#45;&gt;Node5</title>
<g id="a_edge4_Node000002_Node000005"><a xlink:title=" ">
<path fill="none" stroke="#63b8ff" d="M237.81,-164.61C238.21,-150.76 241.13,-124.13 256.89,-110 287.04,-82.96 405.29,-71.56 464.59,-67.47"/>
<polygon fill="#63b8ff" stroke="#63b8ff" points="464.86,-70.96 474.6,-66.81 464.4,-63.98 464.86,-70.96"/>
</a>
</g>
</g>
<!-- Node6 -->
<g id="Node000006" class="node">
<title>Node6</title>
<g id="a_Node000006"><a xlink:title=" ">
<polygon fill="#e0e0e0" stroke="#999999" points="221.89,-74 189.89,-74 189.89,-55 221.89,-55 221.89,-74"/>
<text text-anchor="middle" x="205.89" y="-62" font-family="Helvetica,sans-Serif" font-size="10.00">list</text>
</a>
</g>
</g>
<!-- Node2&#45;&gt;Node6 -->
<g id="edge5_Node000002_Node000006" class="edge">
<title>Node2&#45;&gt;Node6</title>
<g id="a_edge5_Node000002_Node000006"><a xlink:title=" ">
<path fill="none" stroke="#63b8ff" d="M201.45,-171.62C144.61,-167.84 38.94,-157.12 15.89,-129 -28.92,-74.31 117.25,-66.44 179.35,-65.51"/>
<polygon fill="#63b8ff" stroke="#63b8ff" points="179.6,-69.01 189.56,-65.41 179.53,-62.01 179.6,-69.01"/>
</a>
</g>
</g>
<!-- Node7 -->
<g id="Node000007" class="node">
<title>Node7</title>
<g id="a_Node000007"><a xlink:title=" ">
<polygon fill="#e0e0e0" stroke="#999999" points="303.89,-129 265.89,-129 265.89,-110 303.89,-110 303.89,-129"/>
<text text-anchor="middle" x="284.89" y="-117" font-family="Helvetica,sans-Serif" font-size="10.00">map</text>
</a>
</g>
</g>
<!-- Node2&#45;&gt;Node7 -->
<g id="edge6_Node000002_Node000007" class="edge">
<title>Node2&#45;&gt;Node7</title>
<g id="a_edge6_Node000002_Node000007"><a xlink:title=" ">
<path fill="none" stroke="#63b8ff" d="M245.65,-164.75C252.36,-157.18 262.23,-146.05 270.4,-136.84"/>
<polygon fill="#63b8ff" stroke="#63b8ff" points="273.26,-138.89 277.27,-129.09 268.02,-134.25 273.26,-138.89"/>
</a>
</g>
</g>
<!-- Node8 -->
<g id="Node000008" class="node">
<title>Node8</title>
<g id="a_Node000008"><a xlink:title=" ">
<polygon fill="#e0e0e0" stroke="#999999" points="72.39,-129 25.39,-129 25.39,-110 72.39,-110 72.39,-129"/>
<text text-anchor="middle" x="48.89" y="-117" font-family="Helvetica,sans-Serif" font-size="10.00">queue</text>
</a>
</g>
</g>
<!-- Node2&#45;&gt;Node8 -->
<g id="edge7_Node000002_Node000008" class="edge">
<title>Node2&#45;&gt;Node8</title>
<g id="a_edge7_Node000002_Node000008"><a xlink:title=" ">
<path fill="none" stroke="#63b8ff" d="M207.52,-164.98C173.33,-155.4 117.94,-139.86 82.48,-129.92"/>
<polygon fill="#63b8ff" stroke="#63b8ff" points="83.17,-126.48 72.6,-127.15 81.28,-133.22 83.17,-126.48"/>
</a>
</g>
</g>
<!-- Node9 -->
<g id="Node000009" class="node">
<title>Node9</title>
<g id="a_Node000009"><a xlink:title=" ">
<polygon fill="#e0e0e0" stroke="#999999" points="852.89,-19 796.89,-19 796.89,0 852.89,0 852.89,-19"/>
<text text-anchor="middle" x="824.89" y="-7" font-family="Helvetica,sans-Serif" font-size="10.00">sstream</text>
</a>
</g>
</g>
<!-- Node2&#45;&gt;Node9 -->
<g id="edge8_Node000002_Node000009" class="edge">
<title>Node2&#45;&gt;Node9</title>
<g id="a_edge8_Node000002_Node000009"><a xlink:title=" ">
<path fill="none" stroke="#63b8ff" d="M227.5,-164.71C203.61,-143.52 149.2,-88.82 180.89,-55 222.99,-10.07 672.51,-23.86 733.89,-19 751.15,-17.63 770.22,-15.89 786.43,-14.33"/>
<polygon fill="#63b8ff" stroke="#63b8ff" points="787.01,-17.79 796.62,-13.35 786.33,-10.83 787.01,-17.79"/>
</a>
</g>
</g>
<!-- Node10 -->
<g id="Node000010" class="node">
<title>Node10</title>
<g id="a_Node000010"><a xlink:title=" ">
<polygon fill="#e0e0e0" stroke="#999999" points="133.39,-129 90.39,-129 90.39,-110 133.39,-110 133.39,-129"/>
<text text-anchor="middle" x="111.89" y="-117" font-family="Helvetica,sans-Serif" font-size="10.00">stack</text>
</a>
</g>
</g>
<!-- Node2&#45;&gt;Node10 -->
<g id="edge9_Node000002_Node000010" class="edge">
<title>Node2&#45;&gt;Node10</title>
<g id="a_edge9_Node000002_Node000010"><a xlink:title=" ">
<path fill="none" stroke="#63b8ff" d="M217.65,-164.98C197.19,-156.38 165.36,-142.99 141.96,-133.15"/>
<polygon fill="#63b8ff" stroke="#63b8ff" points="143.08,-129.82 132.5,-129.17 140.36,-136.27 143.08,-129.82"/>
</a>
</g>
</g>
<!-- Node11 -->
<g id="Node000011" class="node">
<title>Node11</title>
<g id="a_Node000011"><a xlink:title=" ">
<polygon fill="#e0e0e0" stroke="#999999" points="369.39,-129 322.39,-129 322.39,-110 369.39,-110 369.39,-129"/>
<text text-anchor="middle" x="345.89" y="-117" font-family="Helvetica,sans-Serif" font-size="10.00">vector</text>
</a>
</g>
</g>
<!-- Node2&#45;&gt;Node11 -->
<g id="edge10_Node000002_Node000011" class="edge">
<title>Node2&#45;&gt;Node11</title>
<g id="a_edge10_Node000002_Node000011"><a xlink:title=" ">
<path fill="none" stroke="#63b8ff" d="M255.24,-164.98C272.46,-156.54 299.09,-143.47 319.04,-133.68"/>
<polygon fill="#63b8ff" stroke="#63b8ff" points="320.79,-136.72 328.22,-129.17 317.7,-130.43 320.79,-136.72"/>
</a>
</g>
</g>
<!-- Node12 -->
<g id="Node000012" class="node">
<title>Node12</title>
<g id="a_Node000012"><a xlink:href="src_2util_2invariant_8h.html" target="_top" xlink:title=" ">
<polygon fill="white" stroke="#666666" points="957.39,-74 888.39,-74 888.39,-55 957.39,-55 957.39,-74"/>
<text text-anchor="middle" x="922.89" y="-62" font-family="Helvetica,sans-Serif" font-size="10.00">invariant.h</text>
</a>
</g>
</g>
<!-- Node2&#45;&gt;Node12 -->
<g id="edge11_Node000002_Node000012" class="edge">
<title>Node2&#45;&gt;Node12</title>
<g id="a_edge11_Node000002_Node000012"><a xlink:title=" ">
<path fill="none" stroke="#63b8ff" d="M273.91,-170.35C383.83,-160.7 708.18,-132.06 718.89,-129 737.05,-123.82 739.24,-116.7 756.89,-110 796.96,-94.79 844.32,-82.64 878.18,-74.9"/>
<polygon fill="#63b8ff" stroke="#63b8ff" points="879.24,-78.25 888.23,-72.64 877.71,-71.42 879.24,-78.25"/>
</a>
</g>
</g>
<!-- Node12&#45;&gt;Node9 -->
<g id="edge13_Node000012_Node000009" class="edge">
<title>Node12&#45;&gt;Node9</title>
<g id="a_edge13_Node000012_Node000009"><a xlink:title=" ">
<path fill="none" stroke="#63b8ff" d="M907.14,-54.98C891.66,-46.61 867.8,-33.7 849.75,-23.95"/>
<polygon fill="#63b8ff" stroke="#63b8ff" points="851.38,-20.85 840.92,-19.17 848.05,-27.01 851.38,-20.85"/>
</a>
</g>
</g>
<!-- Node13 -->
<g id="Node000013" class="node">
<title>Node13</title>
<g id="a_Node000013"><a xlink:title=" ">
<polygon fill="#e0e0e0" stroke="#999999" points="947.39,-19 898.39,-19 898.39,0 947.39,0 947.39,-19"/>
<text text-anchor="middle" x="922.89" y="-7" font-family="Helvetica,sans-Serif" font-size="10.00">cstdlib</text>
</a>
</g>
</g>
<!-- Node12&#45;&gt;Node13 -->
<g id="edge12_Node000012_Node000013" class="edge">
<title>Node12&#45;&gt;Node13</title>
<g id="a_edge12_Node000012_Node000013"><a xlink:title=" ">
<path fill="none" stroke="#63b8ff" d="M922.89,-54.75C922.89,-47.8 922.89,-37.85 922.89,-29.13"/>
<polygon fill="#63b8ff" stroke="#63b8ff" points="926.39,-29.09 922.89,-19.09 919.39,-29.09 926.39,-29.09"/>
</a>
</g>
</g>
<!-- Node14 -->
<g id="Node000014" class="node">
<title>Node14</title>
<g id="a_Node000014"><a xlink:title=" ">
<polygon fill="#e0e0e0" stroke="#999999" points="1124.89,-19 1080.89,-19 1080.89,0 1124.89,0 1124.89,-19"/>
<text text-anchor="middle" x="1102.89" y="-7" font-family="Helvetica,sans-Serif" font-size="10.00">string</text>
</a>
</g>
</g>
<!-- Node12&#45;&gt;Node14 -->
<g id="edge14_Node000012_Node000014" class="edge">
<title>Node12&#45;&gt;Node14</title>
<g id="a_edge14_Node000012_Node000014"><a xlink:title=" ">
<path fill="none" stroke="#63b8ff" d="M951.81,-54.98C984.41,-45.39 1037.26,-29.82 1071.03,-19.88"/>
<polygon fill="#63b8ff" stroke="#63b8ff" points="1072.24,-23.17 1080.85,-16.99 1070.27,-16.46 1072.24,-23.17"/>
</a>
</g>
</g>
<!-- Node15 -->
<g id="Node000015" class="node">
<title>Node15</title>
<g id="a_Node000015"><a xlink:title=" ">
<polygon fill="#e0e0e0" stroke="#999999" points="1039.39,-19 970.39,-19 970.39,0 1039.39,0 1039.39,-19"/>
<text text-anchor="middle" x="1004.89" y="-7" font-family="Helvetica,sans-Serif" font-size="10.00">type_traits</text>
</a>
</g>
</g>
<!-- Node12&#45;&gt;Node15 -->
<g id="edge15_Node000012_Node000015" class="edge">
<title>Node12&#45;&gt;Node15</title>
<g id="a_edge15_Node000012_Node000015"><a xlink:title=" ">
<path fill="none" stroke="#63b8ff" d="M936.06,-54.98C948.66,-46.84 967.89,-34.41 982.83,-24.76"/>
<polygon fill="#63b8ff" stroke="#63b8ff" points="984.98,-27.54 991.48,-19.17 981.18,-21.66 984.98,-27.54"/>
</a>
</g>
</g>
<!-- Node17 -->
<g id="Node000017" class="node">
<title>Node17</title>
<g id="a_Node000017"><a xlink:href="goto__model_8h.html" target="_top" xlink:title="Symbol Table + CFG.">
<polygon fill="white" stroke="#666666" points="786.39,-371 673.39,-371 673.39,-341 786.39,-341 786.39,-371"/>
<text text-anchor="start" x="681.39" y="-359" font-family="Helvetica,sans-Serif" font-size="10.00">goto&#45;programs/goto</text>
<text text-anchor="middle" x="729.89" y="-348" font-family="Helvetica,sans-Serif" font-size="10.00">_model.h</text>
</a>
</g>
</g>
<!-- Node16&#45;&gt;Node17 -->
<g id="edge17_Node000016_Node000017" class="edge">
<title>Node16&#45;&gt;Node17</title>
<g id="a_edge17_Node000016_Node000017"><a xlink:title=" ">
<path fill="none" stroke="#63b8ff" d="M547.86,-406.99C579.45,-398.32 629.31,-384.62 668.86,-373.76"/>
<polygon fill="#63b8ff" stroke="#63b8ff" points="669.97,-377.09 678.68,-371.06 668.11,-370.34 669.97,-377.09"/>
</a>
</g>
</g>
<!-- Node18 -->
<g id="Node000018" class="node">
<title>Node18</title>
<g id="a_Node000018"><a xlink:href="journalling__symbol__table_8h.html" target="_top" xlink:title="Author: Diffblue Ltd.">
<polygon fill="white" stroke="#666666" points="701.89,-305 573.89,-305 573.89,-275 701.89,-275 701.89,-305"/>
<text text-anchor="start" x="581.89" y="-293" font-family="Helvetica,sans-Serif" font-size="10.00">util/journalling_symbol</text>
<text text-anchor="middle" x="637.89" y="-282" font-family="Helvetica,sans-Serif" font-size="10.00">_table.h</text>
</a>
</g>
</g>
<!-- Node17&#45;&gt;Node18 -->
<g id="edge18_Node000017_Node000018" class="edge">
<title>Node17&#45;&gt;Node18</title>
<g id="a_edge18_Node000017_Node000018"><a xlink:title=" ">
<path fill="none" stroke="#63b8ff" d="M709.47,-340.8C696.85,-332.01 680.45,-320.61 666.54,-310.93"/>
<polygon fill="#63b8ff" stroke="#63b8ff" points="668.46,-308 658.25,-305.16 664.46,-313.75 668.46,-308"/>
</a>
</g>
</g>
<!-- Node47 -->
<g id="Node000047" class="node">
<title>Node47</title>
<g id="a_Node000047"><a xlink:href="namespace_8h.html" target="_top" xlink:title=" ">
<polygon fill="white" stroke="#666666" points="1061.39,-299.5 960.39,-299.5 960.39,-280.5 1061.39,-280.5 1061.39,-299.5"/>
<text text-anchor="middle" x="1010.89" y="-287.5" font-family="Helvetica,sans-Serif" font-size="10.00">util/namespace.h</text>
</a>
</g>
</g>
<!-- Node17&#45;&gt;Node47 -->
<g id="edge48_Node000017_Node000047" class="edge">
<title>Node17&#45;&gt;Node47</title>
<g id="a_edge48_Node000017_Node000047"><a xlink:title=" ">
<path fill="none" stroke="#63b8ff" d="M786.42,-342.13C838.34,-330.3 914.42,-312.97 963.3,-301.84"/>
<polygon fill="#63b8ff" stroke="#63b8ff" points="964.33,-305.19 973.3,-299.56 962.78,-298.37 964.33,-305.19"/>
</a>
</g>
</g>
<!-- Node48 -->
<g id="Node000048" class="node">
<title>Node48</title>
<g id="a_Node000048"><a xlink:href="symbol__table_8h.html" target="_top" xlink:title="Author: Diffblue Ltd.">
<polygon fill="white" stroke="#666666" points="551.89,-299.5 441.89,-299.5 441.89,-280.5 551.89,-280.5 551.89,-299.5"/>
<text text-anchor="middle" x="496.89" y="-287.5" font-family="Helvetica,sans-Serif" font-size="10.00">util/symbol_table.h</text>
</a>
</g>
</g>
<!-- Node17&#45;&gt;Node48 -->
<g id="edge51_Node000017_Node000048" class="edge">
<title>Node17&#45;&gt;Node48</title>
<g id="a_edge51_Node000017_Node000048"><a xlink:title=" ">
<path fill="none" stroke="#63b8ff" d="M678.76,-340.95C636.36,-329.31 576.9,-312.98 537.66,-302.2"/>
<polygon fill="#63b8ff" stroke="#63b8ff" points="538.47,-298.79 527.9,-299.52 536.61,-305.54 538.47,-298.79"/>
</a>
</g>
</g>
<!-- Node49 -->
<g id="Node000049" class="node">
<title>Node49</title>
<g id="a_Node000049"><a xlink:href="abstract__goto__model_8h.html" target="_top" xlink:title="Abstract interface to eager or lazy GOTO models.">
<polygon fill="white" stroke="#666666" points="885.89,-299.5 757.89,-299.5 757.89,-280.5 885.89,-280.5 885.89,-299.5"/>
<text text-anchor="middle" x="821.89" y="-287.5" font-family="Helvetica,sans-Serif" font-size="10.00">abstract_goto_model.h</text>
</a>
</g>
</g>
<!-- Node17&#45;&gt;Node49 -->
<g id="edge53_Node000017_Node000049" class="edge">
<title>Node17&#45;&gt;Node49</title>
<g id="a_edge53_Node000017_Node000049"><a xlink:title=" ">
<path fill="none" stroke="#63b8ff" d="M750.31,-340.8C765.44,-330.27 785.99,-315.97 801.19,-305.4"/>
<polygon fill="#63b8ff" stroke="#63b8ff" points="803.23,-308.24 809.44,-299.66 799.24,-302.5 803.23,-308.24"/>
</a>
</g>
</g>
<!-- Node50 -->
<g id="Node000050" class="node">
<title>Node50</title>
<g id="a_Node000050"><a xlink:href="goto__functions_8h.html" target="_top" xlink:title="Goto Programs with Functions.">
<polygon fill="white" stroke="#666666" points="778.89,-239 680.89,-239 680.89,-220 778.89,-220 778.89,-239"/>
<text text-anchor="middle" x="729.89" y="-227" font-family="Helvetica,sans-Serif" font-size="10.00">goto_functions.h</text>
</a>
</g>
</g>
<!-- Node17&#45;&gt;Node50 -->
<g id="edge69_Node000017_Node000050" class="edge">
<title>Node17&#45;&gt;Node50</title>
<g id="a_edge69_Node000017_Node000050"><a xlink:title=" ">
<path fill="none" stroke="#63b8ff" d="M729.89,-340.72C729.89,-318.12 729.89,-274.12 729.89,-249.09"/>
<polygon fill="#63b8ff" stroke="#63b8ff" points="733.39,-249.07 729.89,-239.07 726.39,-249.07 733.39,-249.07"/>
</a>
</g>
</g>
<!-- Node64 -->
<g id="Node000064" class="node">
<title>Node64</title>
<g id="a_Node000064"><a xlink:href="validate__goto__model_8h.html" target="_top" xlink:title=" ">
<polygon fill="white" stroke="#666666" points="1453.89,-239 1325.89,-239 1325.89,-220 1453.89,-220 1453.89,-239"/>
<text text-anchor="middle" x="1389.89" y="-227" font-family="Helvetica,sans-Serif" font-size="10.00">validate_goto_model.h</text>
</a>
</g>
</g>
<!-- Node17&#45;&gt;Node64 -->
<g id="edge70_Node000017_Node000064" class="edge">
<title>Node17&#45;&gt;Node64</title>
<g id="a_edge70_Node000017_Node000064"><a xlink:title=" ">
<path fill="none" stroke="#63b8ff" d="M786.55,-348.17C854.41,-339.65 971.39,-323.88 1070.89,-305 1170.72,-286.06 1286.58,-257.27 1347.47,-241.6"/>
<polygon fill="#63b8ff" stroke="#63b8ff" points="1348.67,-244.91 1357.48,-239.02 1346.92,-238.13 1348.67,-244.91"/>
</a>
</g>
</g>
<!-- Node19 -->
<g id="Node000019" class="node">
<title>Node19</title>
<g id="a_Node000019"><a xlink:href="irep_8h.html" target="_top" xlink:title=" ">
<polygon fill="white" stroke="#666666" points="1032.89,-239 988.89,-239 988.89,-220 1032.89,-220 1032.89,-239"/>
<text text-anchor="middle" x="1010.89" y="-227" font-family="Helvetica,sans-Serif" font-size="10.00">irep.h</text>
</a>
</g>
</g>
<!-- Node18&#45;&gt;Node19 -->
<g id="edge19_Node000018_Node000019" class="edge">
<title>Node18&#45;&gt;Node19</title>
<g id="a_edge19_Node000018_Node000019"><a xlink:title=" ">
<path fill="none" stroke="#63b8ff" d="M702.01,-278.94C782.38,-266.34 917.03,-245.22 978.51,-235.58"/>
<polygon fill="#63b8ff" stroke="#63b8ff" points="979.42,-238.98 988.76,-233.97 978.34,-232.06 979.42,-238.98"/>
</a>
</g>
</g>
<!-- Node33 -->
<g id="Node000033" class="node">
<title>Node33</title>
<g id="a_Node000033"><a xlink:href="symbol__table__base_8h.html" target="_top" xlink:title="Author: Diffblue Ltd.">
<polygon fill="white" stroke="#666666" points="466.89,-184 346.89,-184 346.89,-165 466.89,-165 466.89,-184"/>
<text text-anchor="middle" x="406.89" y="-172" font-family="Helvetica,sans-Serif" font-size="10.00">symbol_table_base.h</text>
</a>
</g>
</g>
<!-- Node18&#45;&gt;Node33 -->
<g id="edge35_Node000018_Node000033" class="edge">
<title>Node18&#45;&gt;Node33</title>
<g id="a_edge35_Node000018_Node000033"><a xlink:title=" ">
<path fill="none" stroke="#63b8ff" d="M639.7,-274.78C640.83,-259.19 639.96,-234.47 625.89,-220 615.34,-209.15 536.35,-195 476.23,-185.6"/>
<polygon fill="#63b8ff" stroke="#63b8ff" points="476.42,-182.09 466,-184.02 475.35,-189.01 476.42,-182.09"/>
</a>
</g>
</g>
<!-- Node45 -->
<g id="Node000045" class="node">
<title>Node45</title>
<g id="a_Node000045"><a xlink:title=" ">
<polygon fill="#e0e0e0" stroke="#999999" points="553.89,-239 467.89,-239 467.89,-220 553.89,-220 553.89,-239"/>
<text text-anchor="middle" x="510.89" y="-227" font-family="Helvetica,sans-Serif" font-size="10.00">unordered_set</text>
</a>
</g>
</g>
<!-- Node18&#45;&gt;Node45 -->
<g id="edge46_Node000018_Node000045" class="edge">
<title>Node18&#45;&gt;Node45</title>
<g id="a_edge46_Node000018_Node000045"><a xlink:title=" ">
<path fill="none" stroke="#63b8ff" d="M607.47,-274.99C586.66,-265.4 559.27,-252.79 538.98,-243.44"/>
<polygon fill="#63b8ff" stroke="#63b8ff" points="540.19,-240.14 529.64,-239.14 537.26,-246.5 540.19,-240.14"/>
</a>
</g>
</g>
<!-- Node46 -->
<g id="Node000046" class="node">
<title>Node46</title>
<g id="a_Node000046"><a xlink:title=" ">
<polygon fill="#e0e0e0" stroke="#999999" points="617.39,-239 572.39,-239 572.39,-220 617.39,-220 617.39,-239"/>
<text text-anchor="middle" x="594.89" y="-227" font-family="Helvetica,sans-Serif" font-size="10.00">utility</text>
</a>
</g>
</g>
<!-- Node18&#45;&gt;Node46 -->
<g id="edge47_Node000018_Node000046" class="edge">
<title>Node18&#45;&gt;Node46</title>
<g id="a_edge47_Node000018_Node000046"><a xlink:title=" ">
<path fill="none" stroke="#63b8ff" d="M627.48,-274.84C621.43,-266.61 613.77,-256.18 607.39,-247.51"/>
<polygon fill="#63b8ff" stroke="#63b8ff" points="610.08,-245.25 601.33,-239.27 604.44,-249.4 610.08,-245.25"/>
</a>
</g>
</g>
<!-- Node19&#45;&gt;Node11 -->
<g id="edge21_Node000019_Node000011" class="edge">
<title>Node19&#45;&gt;Node11</title>
<g id="a_edge21_Node000019_Node000011"><a xlink:title=" ">
<path fill="none" stroke="#63b8ff" d="M988.62,-227.68C935.1,-225.25 795.39,-216.07 683.89,-184 664.2,-178.34 661.58,-170.67 641.89,-165 531.62,-133.24 496.57,-150.73 379.66,-128.9"/>
<polygon fill="#63b8ff" stroke="#63b8ff" points="380.09,-125.41 369.61,-126.96 378.77,-132.29 380.09,-125.41"/>
</a>
</g>
</g>
<!-- Node19&#45;&gt;Node12 -->
<g id="edge22_Node000019_Node000012" class="edge">
<title>Node19&#45;&gt;Node12</title>
<g id="a_edge22_Node000019_Node000012"><a xlink:title=" ">
<path fill="none" stroke="#63b8ff" d="M1018.11,-219.96C1034.65,-199.29 1072.01,-145.7 1046.89,-110 1029.01,-84.59 995.2,-73.62 967.4,-68.92"/>
<polygon fill="#63b8ff" stroke="#63b8ff" points="967.87,-65.45 957.46,-67.45 966.85,-72.37 967.87,-65.45"/>
</a>
</g>
</g>
<!-- Node19&#45;&gt;Node14 -->
<g id="edge20_Node000019_Node000014" class="edge">
<title>Node19&#45;&gt;Node14</title>
<g id="a_edge20_Node000019_Node000014"><a xlink:title=" ">
<path fill="none" stroke="#63b8ff" d="M1032.9,-227.88C1084.07,-225.05 1210.09,-209.83 1254.89,-129 1285.6,-73.6 1187.78,-35.34 1134.72,-19.16"/>
<polygon fill="#63b8ff" stroke="#63b8ff" points="1135.65,-15.78 1125.07,-16.31 1133.67,-22.5 1135.65,-15.78"/>
</a>
</g>
</g>
<!-- Node20 -->
<g id="Node000020" class="node">
<title>Node20</title>
<g id="a_Node000020"><a xlink:href="irep__ids_8h.html" target="_top" xlink:title="util">
<polygon fill="white" stroke="#666666" points="1157.89,-184 1093.89,-184 1093.89,-165 1157.89,-165 1157.89,-184"/>
<text text-anchor="middle" x="1125.89" y="-172" font-family="Helvetica,sans-Serif" font-size="10.00">irep_ids.h</text>
</a>
</g>
</g>
<!-- Node19&#45;&gt;Node20 -->
<g id="edge23_Node000019_Node000020" class="edge">
<title>Node19&#45;&gt;Node20</title>
<g id="a_edge23_Node000019_Node000020"><a xlink:title=" ">
<path fill="none" stroke="#63b8ff" d="M1029.37,-219.98C1047.87,-211.46 1076.57,-198.23 1097.87,-188.41"/>
<polygon fill="#63b8ff" stroke="#63b8ff" points="1099.46,-191.53 1107.08,-184.17 1096.53,-185.18 1099.46,-191.53"/>
</a>
</g>
</g>
<!-- Node29 -->
<g id="Node000029" class="node">
<title>Node29</title>
<g id="a_Node000029"><a xlink:href="forward__list__as__map_8h.html" target="_top" xlink:title=" ">
<polygon fill="white" stroke="#666666" points="986.39,-184 859.39,-184 859.39,-165 986.39,-165 986.39,-184"/>
<text text-anchor="middle" x="922.89" y="-172" font-family="Helvetica,sans-Serif" font-size="10.00">forward_list_as_map.h</text>
</a>
</g>
</g>
<!-- Node19&#45;&gt;Node29 -->
<g id="edge28_Node000019_Node000029" class="edge">
<title>Node19&#45;&gt;Node29</title>
<g id="a_edge28_Node000019_Node000029"><a xlink:title=" ">
<path fill="none" stroke="#63b8ff" d="M996.75,-219.98C983.1,-211.77 962.2,-199.18 946.11,-189.49"/>
<polygon fill="#63b8ff" stroke="#63b8ff" points="947.66,-186.33 937.29,-184.17 944.05,-192.33 947.66,-186.33"/>
</a>
</g>
</g>
<!-- Node21 -->
<g id="Node000021" class="node">
<title>Node21</title>
<g id="a_Node000021"><a xlink:href="dstring_8h.html" target="_top" xlink:title="Container for C&#45;Strings.">
<polygon fill="#fff0f0" stroke="red" points="1153.39,-129 1094.39,-129 1094.39,-110 1153.39,-110 1153.39,-129"/>
<text text-anchor="middle" x="1123.89" y="-117" font-family="Helvetica,sans-Serif" font-size="10.00">dstring.h</text>
</a>
</g>
</g>
<!-- Node20&#45;&gt;Node21 -->
<g id="edge24_Node000020_Node000021" class="edge">
<title>Node20&#45;&gt;Node21</title>
<g id="a_edge24_Node000020_Node000021"><a xlink:title=" ">
<path fill="none" stroke="#63b8ff" d="M1125.56,-164.75C1125.3,-157.8 1124.92,-147.85 1124.59,-139.13"/>
<polygon fill="#63b8ff" stroke="#63b8ff" points="1128.09,-138.95 1124.21,-129.09 1121.09,-139.21 1128.09,-138.95"/>
</a>
</g>
</g>
<!-- Node28 -->
<g id="Node000028" class="node">
<title>Node28</title>
<g id="a_Node000028"><a xlink:title=" ">
<polygon fill="#e0e0e0" stroke="#999999" points="1245.89,-129 1171.89,-129 1171.89,-110 1245.89,-110 1245.89,-129"/>
<text text-anchor="middle" x="1208.89" y="-117" font-family="Helvetica,sans-Serif" font-size="10.00">irep_ids.def</text>
</a>
</g>
</g>
<!-- Node20&#45;&gt;Node28 -->
<g id="edge27_Node000020_Node000028" class="edge">
<title>Node20&#45;&gt;Node28</title>
<g id="a_edge27_Node000020_Node000028"><a xlink:title=" ">
<path fill="none" stroke="#63b8ff" d="M1139.22,-164.98C1151.98,-156.84 1171.44,-144.41 1186.56,-134.76"/>
<polygon fill="#63b8ff" stroke="#63b8ff" points="1188.77,-137.5 1195.31,-129.17 1185,-131.6 1188.77,-137.5"/>
</a>
</g>
</g>
<!-- Node21&#45;&gt;Node5 -->
<g id="edge25_Node000021_Node000005" class="edge">
<title>Node21&#45;&gt;Node5</title>
<g id="a_edge25_Node000021_Node000005"><a xlink:title=" ">
<path fill="none" stroke="#63b8ff" d="M1094.3,-114.96C1079.99,-113.32 1062.56,-111.42 1046.89,-110 823.24,-89.68 765.53,-103.35 542.89,-74 539.65,-73.57 536.29,-73.06 532.93,-72.49"/>
<polygon fill="#63b8ff" stroke="#63b8ff" points="533.48,-69.03 523.01,-70.7 532.23,-75.92 533.48,-69.03"/>
</a>
</g>
</g>
<!-- Node21&#45;&gt;Node14 -->
<g id="edge26_Node000021_Node000014" class="edge">
<title>Node21&#45;&gt;Node14</title>
<g id="a_edge26_Node000021_Node000014"><a xlink:title=" ">
<path fill="none" stroke="#63b8ff" d="M1122.17,-109.66C1118.77,-92.17 1111.12,-52.8 1106.54,-29.27"/>
<polygon fill="#63b8ff" stroke="#63b8ff" points="1109.92,-28.31 1104.57,-19.16 1103.05,-29.64 1109.92,-28.31"/>
</a>
</g>
</g>
<!-- Node29&#45;&gt;Node3 -->
<g id="edge29_Node000029_Node000003" class="edge">
<title>Node29&#45;&gt;Node3</title>
<g id="a_edge29_Node000029_Node000003"><a xlink:title=" ">
<path fill="none" stroke="#63b8ff" d="M902.81,-164.98C882.52,-156.38 850.93,-142.99 827.72,-133.15"/>
<polygon fill="#63b8ff" stroke="#63b8ff" points="828.91,-129.85 818.34,-129.17 826.18,-136.3 828.91,-129.85"/>
</a>
</g>
</g>
<!-- Node30 -->
<g id="Node000030" class="node">
<title>Node30</title>
<g id="a_Node000030"><a xlink:title=" ">
<polygon fill="#e0e0e0" stroke="#999999" points="959.89,-129 885.89,-129 885.89,-110 959.89,-110 959.89,-129"/>
<text text-anchor="middle" x="922.89" y="-117" font-family="Helvetica,sans-Serif" font-size="10.00">forward_list</text>
</a>
</g>
</g>
<!-- Node29&#45;&gt;Node30 -->
<g id="edge30_Node000029_Node000030" class="edge">
<title>Node29&#45;&gt;Node30</title>
<g id="a_edge30_Node000029_Node000030"><a xlink:title=" ">
<path fill="none" stroke="#63b8ff" d="M922.89,-164.75C922.89,-157.8 922.89,-147.85 922.89,-139.13"/>
<polygon fill="#63b8ff" stroke="#63b8ff" points="926.39,-139.09 922.89,-129.09 919.39,-139.09 926.39,-139.09"/>
</a>
</g>
</g>
<!-- Node31 -->
<g id="Node000031" class="node">
<title>Node31</title>
<g id="a_Node000031"><a xlink:href="as__const_8h.html" target="_top" xlink:title=" ">
<polygon fill="white" stroke="#666666" points="724.89,-19 656.89,-19 656.89,0 724.89,0 724.89,-19"/>
<text text-anchor="middle" x="690.89" y="-7" font-family="Helvetica,sans-Serif" font-size="10.00">as_const.h</text>
</a>
</g>
</g>
<!-- Node29&#45;&gt;Node31 -->
<g id="edge31_Node000029_Node000031" class="edge">
<title>Node29&#45;&gt;Node31</title>
<g id="a_edge31_Node000029_Node000031"><a xlink:title=" ">
<path fill="none" stroke="#63b8ff" d="M911.89,-164.88C895.98,-152.48 865.53,-129 838.89,-110 794.77,-78.53 741.78,-43.57 712.69,-24.61"/>
<polygon fill="#63b8ff" stroke="#63b8ff" points="714.41,-21.56 704.12,-19.04 710.6,-27.43 714.41,-21.56"/>
</a>
</g>
</g>
<!-- Node32 -->
<g id="Node000032" class="node">
<title>Node32</title>
<g id="a_Node000032"><a xlink:href="narrow_8h.html" target="_top" xlink:title=" ">
<polygon fill="white" stroke="#666666" points="1037.39,-129 978.39,-129 978.39,-110 1037.39,-110 1037.39,-129"/>
<text text-anchor="middle" x="1007.89" y="-117" font-family="Helvetica,sans-Serif" font-size="10.00">narrow.h</text>
</a>
</g>
</g>
<!-- Node29&#45;&gt;Node32 -->
<g id="edge32_Node000029_Node000032" class="edge">
<title>Node29&#45;&gt;Node32</title>
<g id="a_edge32_Node000029_Node000032"><a xlink:title=" ">
<path fill="none" stroke="#63b8ff" d="M936.55,-164.98C949.73,-156.77 969.92,-144.18 985.46,-134.49"/>
<polygon fill="#63b8ff" stroke="#63b8ff" points="987.35,-137.43 993.98,-129.17 983.65,-131.49 987.35,-137.43"/>
</a>
</g>
</g>
<!-- Node32&#45;&gt;Node12 -->
<g id="edge34_Node000032_Node000012" class="edge">
<title>Node32&#45;&gt;Node12</title>
<g id="a_edge34_Node000032_Node000012"><a xlink:title=" ">
<path fill="none" stroke="#63b8ff" d="M994.23,-109.98C981.05,-101.77 960.86,-89.18 945.32,-79.49"/>
<polygon fill="#63b8ff" stroke="#63b8ff" points="947.13,-76.49 936.79,-74.17 943.43,-82.43 947.13,-76.49"/>
</a>
</g>
</g>
<!-- Node32&#45;&gt;Node15 -->
<g id="edge33_Node000032_Node000015" class="edge">
<title>Node32&#45;&gt;Node15</title>
<g id="a_edge33_Node000032_Node000015"><a xlink:title=" ">
<path fill="none" stroke="#63b8ff" d="M1007.64,-109.66C1007.16,-92.17 1006.06,-52.8 1005.41,-29.27"/>
<polygon fill="#63b8ff" stroke="#63b8ff" points="1008.91,-29.06 1005.13,-19.16 1001.91,-29.25 1008.91,-29.06"/>
</a>
</g>
</g>
<!-- Node33&#45;&gt;Node6 -->
<g id="edge43_Node000033_Node000006" class="edge">
<title>Node33&#45;&gt;Node6</title>
<g id="a_edge43_Node000033_Node000006"><a xlink:title=" ">
<path fill="none" stroke="#63b8ff" d="M349.6,-164.95C320.05,-158.53 284.52,-147.55 256.89,-129 239.34,-117.22 224.89,-97.54 215.91,-83.21"/>
<polygon fill="#63b8ff" stroke="#63b8ff" points="218.73,-81.09 210.6,-74.3 212.72,-84.68 218.73,-81.09"/>
</a>
</g>
</g>
<!-- Node33&#45;&gt;Node7 -->
<g id="edge44_Node000033_Node000007" class="edge">
<title>Node33&#45;&gt;Node7</title>
<g id="a_edge44_Node000033_Node000007"><a xlink:title=" ">
<path fill="none" stroke="#63b8ff" d="M387.29,-164.98C367.34,-156.32 336.21,-142.79 313.5,-132.93"/>
<polygon fill="#63b8ff" stroke="#63b8ff" points="314.61,-129.59 304.04,-128.82 311.82,-136.01 314.61,-129.59"/>
</a>
</g>
</g>
<!-- Node34 -->
<g id="Node000034" class="node">
<title>Node34</title>
<g id="a_Node000034"><a xlink:href="symbol_8h.html" target="_top" xlink:title="Symbol table entry.">
<polygon fill="white" stroke="#666666" points="561.89,-129 499.89,-129 499.89,-110 561.89,-110 561.89,-129"/>
<text text-anchor="middle" x="530.89" y="-117" font-family="Helvetica,sans-Serif" font-size="10.00">symbol.h</text>
</a>
</g>
</g>
<!-- Node33&#45;&gt;Node34 -->
<g id="edge36_Node000033_Node000034" class="edge">
<title>Node33&#45;&gt;Node34</title>
<g id="a_edge36_Node000033_Node000034"><a xlink:title=" ">
<path fill="none" stroke="#63b8ff" d="M426.81,-164.98C446.94,-156.38 478.27,-142.99 501.3,-133.15"/>
<polygon fill="#63b8ff" stroke="#63b8ff" points="502.78,-136.32 510.6,-129.17 500.03,-129.88 502.78,-136.32"/>
</a>
</g>
</g>
<!-- Node25 -->
<g id="Node000025" class="node">
<title>Node25</title>
<g id="a_Node000025"><a xlink:title=" ">
<polygon fill="#e0e0e0" stroke="#999999" points="710.39,-74 617.39,-74 617.39,-55 710.39,-55 710.39,-74"/>
<text text-anchor="middle" x="663.89" y="-62" font-family="Helvetica,sans-Serif" font-size="10.00">unordered_map</text>
</a>
</g>
</g>
<!-- Node33&#45;&gt;Node25 -->
<g id="edge45_Node000033_Node000025" class="edge">
<title>Node33&#45;&gt;Node25</title>
<g id="a_edge45_Node000033_Node000025"><a xlink:title=" ">
<path fill="none" stroke="#63b8ff" d="M454.65,-164.95C488.18,-157.9 533.52,-146.23 570.89,-129 598.96,-116.06 627.84,-94.88 645.81,-80.57"/>
<polygon fill="#63b8ff" stroke="#63b8ff" points="648.15,-83.19 653.71,-74.17 643.74,-77.75 648.15,-83.19"/>
</a>
</g>
</g>
<!-- Node34&#45;&gt;Node5 -->
<g id="edge37_Node000034_Node000005" class="edge">
<title>Node34&#45;&gt;Node5</title>
<g id="a_edge37_Node000034_Node000005"><a xlink:title=" ">
<path fill="none" stroke="#63b8ff" d="M525.61,-109.75C521.18,-102.42 514.73,-91.73 509.27,-82.7"/>
<polygon fill="#63b8ff" stroke="#63b8ff" points="512.24,-80.84 504.08,-74.09 506.25,-84.46 512.24,-80.84"/>
</a>
</g>
</g>
<!-- Node34&#45;&gt;Node12 -->
<g id="edge42_Node000034_Node000012" class="edge">
<title>Node34&#45;&gt;Node12</title>
<g id="a_edge42_Node000034_Node000012"><a xlink:title=" ">
<path fill="none" stroke="#63b8ff" d="M561.98,-114.3C631.04,-104.96 797.46,-82.46 877.89,-71.58"/>
<polygon fill="#63b8ff" stroke="#63b8ff" points="878.74,-75 888.18,-70.19 877.8,-68.06 878.74,-75"/>
</a>
</g>
</g>
<!-- Node35 -->
<g id="Node000035" class="node">
<title>Node35</title>
<g id="a_Node000035"><a xlink:href="expr_8h.html" target="_top" xlink:title=" ">
<polygon fill="#fff0f0" stroke="red" points="599.39,-74 552.39,-74 552.39,-55 599.39,-55 599.39,-74"/>
<text text-anchor="middle" x="575.89" y="-62" font-family="Helvetica,sans-Serif" font-size="10.00">expr.h</text>
</a>
</g>
</g>
<!-- Node34&#45;&gt;Node35 -->
<g id="edge38_Node000034_Node000035" class="edge">
<title>Node34&#45;&gt;Node35</title>
<g id="a_edge38_Node000034_Node000035"><a xlink:title=" ">
<path fill="none" stroke="#63b8ff" d="M538.32,-109.75C544.74,-102.18 554.2,-91.05 562.01,-81.84"/>
<polygon fill="#63b8ff" stroke="#63b8ff" points="564.79,-83.98 568.6,-74.09 559.46,-79.45 564.79,-83.98"/>
</a>
</g>
</g>
<!-- Node35&#45;&gt;Node4 -->
<g id="edge41_Node000035_Node000004" class="edge">
<title>Node35&#45;&gt;Node4</title>
<g id="a_edge41_Node000035_Node000004"><a xlink:title=" ">
<path fill="none" stroke="#63b8ff" d="M552.16,-58.81C545.6,-57.54 538.47,-56.19 531.89,-55 453.85,-40.89 362.56,-25.82 310.35,-17.34"/>
<polygon fill="#63b8ff" stroke="#63b8ff" points="310.88,-13.88 300.45,-15.73 309.76,-20.79 310.88,-13.88"/>
</a>
</g>
</g>
<!-- Node35&#45;&gt;Node31 -->
<g id="edge39_Node000035_Node000031" class="edge">
<title>Node35&#45;&gt;Node31</title>
<g id="a_edge39_Node000035_Node000031"><a xlink:title=" ">
<path fill="none" stroke="#63b8ff" d="M594.37,-54.98C612.87,-46.46 641.57,-33.23 662.87,-23.41"/>
<polygon fill="#63b8ff" stroke="#63b8ff" points="664.46,-26.53 672.08,-19.17 661.53,-20.18 664.46,-26.53"/>
</a>
</g>
</g>
<!-- Node42 -->
<g id="Node000042" class="node">
<title>Node42</title>
<g id="a_Node000042"><a xlink:href="validation__mode_8h.html" target="_top" xlink:title=" ">
<polygon fill="white" stroke="#666666" points="1341.39,-19 1234.39,-19 1234.39,0 1341.39,0 1341.39,-19"/>
<text text-anchor="middle" x="1287.89" y="-7" font-family="Helvetica,sans-Serif" font-size="10.00">validation_mode.h</text>
</a>
</g>
</g>
<!-- Node35&#45;&gt;Node42 -->
<g id="edge40_Node000035_Node000042" class="edge">
<title>Node35&#45;&gt;Node42</title>
<g id="a_edge40_Node000035_Node000042"><a xlink:title=" ">
<path fill="none" stroke="#63b8ff" d="M599.54,-56.67C602.34,-56.02 605.17,-55.45 607.89,-55 637.97,-50.07 1060.36,-24.24 1223.88,-14.35"/>
<polygon fill="#63b8ff" stroke="#63b8ff" points="1224.5,-17.82 1234.27,-13.72 1224.08,-10.83 1224.5,-17.82"/>
</a>
</g>
</g>
<!-- Node47&#45;&gt;Node12 -->
<g id="edge49_Node000047_Node000012" class="edge">
<title>Node47&#45;&gt;Node12</title>
<g id="a_edge49_Node000047_Node000012"><a xlink:title=" ">
<path fill="none" stroke="#63b8ff" d="M1043.63,-280.42C1125.22,-257.56 1326.07,-191.35 1254.89,-110 1218.11,-67.97 1049.62,-63.96 967.77,-64.58"/>
<polygon fill="#63b8ff" stroke="#63b8ff" points="967.49,-61.08 957.52,-64.68 967.56,-68.08 967.49,-61.08"/>
</a>
</g>
</g>
<!-- Node47&#45;&gt;Node19 -->
<g id="edge50_Node000047_Node000019" class="edge">
<title>Node47&#45;&gt;Node19</title>
<g id="a_edge50_Node000047_Node000019"><a xlink:title=" ">
<path fill="none" stroke="#63b8ff" d="M1010.89,-280.37C1010.89,-272.25 1010.89,-259.81 1010.89,-249.39"/>
<polygon fill="#63b8ff" stroke="#63b8ff" points="1014.39,-249.17 1010.89,-239.17 1007.39,-249.17 1014.39,-249.17"/>
</a>
</g>
</g>
<!-- Node48&#45;&gt;Node33 -->
<g id="edge52_Node000048_Node000033" class="edge">
<title>Node48&#45;&gt;Node33</title>
<g id="a_edge52_Node000048_Node000033"><a xlink:title=" ">
<path fill="none" stroke="#63b8ff" d="M490.12,-280.47C475.27,-261.74 439.58,-216.72 420.1,-192.16"/>
<polygon fill="#63b8ff" stroke="#63b8ff" points="422.69,-189.79 413.73,-184.13 417.2,-194.14 422.69,-189.79"/>
</a>
</g>
</g>
<!-- Node49&#45;&gt;Node50 -->
<g id="edge54_Node000049_Node000050" class="edge">
<title>Node49&#45;&gt;Node50</title>
<g id="a_edge54_Node000049_Node000050"><a xlink:title=" ">
<path fill="none" stroke="#63b8ff" d="M808.31,-280.37C793.5,-270.95 769.56,-255.73 752.03,-244.58"/>
<polygon fill="#63b8ff" stroke="#63b8ff" points="753.84,-241.58 743.52,-239.17 750.08,-247.49 753.84,-241.58"/>
</a>
</g>
</g>
<!-- Node49&#45;&gt;Node64 -->
<g id="edge67_Node000049_Node000064" class="edge">
<title>Node49&#45;&gt;Node64</title>
<g id="a_edge67_Node000049_Node000064"><a xlink:title=" ">
<path fill="none" stroke="#63b8ff" d="M886.02,-282.02C907.01,-279.75 930.44,-277.24 951.89,-275 1079.67,-261.63 1228.49,-246.63 1315.62,-237.91"/>
<polygon fill="#63b8ff" stroke="#63b8ff" points="1316.08,-241.38 1325.68,-236.9 1315.38,-234.41 1316.08,-241.38"/>
</a>
</g>
</g>
<!-- Node50&#45;&gt;Node7 -->
<g id="edge66_Node000050_Node000007" class="edge">
<title>Node50&#45;&gt;Node7</title>
<g id="a_edge66_Node000050_Node000007"><a xlink:title=" ">
<path fill="none" stroke="#63b8ff" d="M714.93,-219.85C687.46,-204.11 629.78,-171.79 607.89,-165 484.81,-126.84 444.11,-154.84 313.99,-128.85"/>
<polygon fill="#63b8ff" stroke="#63b8ff" points="314.56,-125.39 304.06,-126.8 313.14,-132.25 314.56,-125.39"/>
</a>
</g>
</g>
<!-- Node51 -->
<g id="Node000051" class="node">
<title>Node51</title>
<g id="a_Node000051"><a xlink:href="goto__function_8h.html" target="_top" xlink:title="Goto Function.">
<polygon fill="white" stroke="#666666" points="784.89,-184 692.89,-184 692.89,-165 784.89,-165 784.89,-184"/>
<text text-anchor="middle" x="738.89" y="-172" font-family="Helvetica,sans-Serif" font-size="10.00">goto_function.h</text>
</a>
</g>
</g>
<!-- Node50&#45;&gt;Node51 -->
<g id="edge55_Node000050_Node000051" class="edge">
<title>Node50&#45;&gt;Node51</title>
<g id="a_edge55_Node000050_Node000051"><a xlink:title=" ">
<path fill="none" stroke="#63b8ff" d="M731.38,-219.75C732.56,-212.8 734.25,-202.85 735.73,-194.13"/>
<polygon fill="#63b8ff" stroke="#63b8ff" points="739.21,-194.53 737.43,-184.09 732.31,-193.36 739.21,-194.53"/>
</a>
</g>
</g>
<!-- Node63 -->
<g id="Node000063" class="node">
<title>Node63</title>
<g id="a_Node000063"><a xlink:href="cprover__prefix_8h.html" target="_top" xlink:title=" ">
<polygon fill="white" stroke="#666666" points="598.89,-184 484.89,-184 484.89,-165 598.89,-165 598.89,-184"/>
<text text-anchor="middle" x="541.89" y="-172" font-family="Helvetica,sans-Serif" font-size="10.00">util/cprover_prefix.h</text>
</a>
</g>
</g>
<!-- Node50&#45;&gt;Node63 -->
<g id="edge65_Node000050_Node000063" class="edge">
<title>Node50&#45;&gt;Node63</title>
<g id="a_edge65_Node000050_Node000063"><a xlink:title=" ">
<path fill="none" stroke="#63b8ff" d="M699.68,-219.98C667.85,-211.01 617.53,-196.82 582.29,-186.89"/>
<polygon fill="#63b8ff" stroke="#63b8ff" points="582.91,-183.43 572.33,-184.08 581.01,-190.16 582.91,-183.43"/>
</a>
</g>
</g>
<!-- Node52 -->
<g id="Node000052" class="node">
<title>Node52</title>
<g id="a_Node000052"><a xlink:href="std__types_8h.html" target="_top" xlink:title="Pre&#45;defined types.">
<polygon fill="#fff0f0" stroke="red" points="709.89,-129 617.89,-129 617.89,-110 709.89,-110 709.89,-129"/>
<text text-anchor="middle" x="663.89" y="-117" font-family="Helvetica,sans-Serif" font-size="10.00">util/std_types.h</text>
</a>
</g>
</g>
<!-- Node51&#45;&gt;Node52 -->
<g id="edge56_Node000051_Node000052" class="edge">
<title>Node51&#45;&gt;Node52</title>
<g id="a_edge56_Node000051_Node000052"><a xlink:title=" ">
<path fill="none" stroke="#63b8ff" d="M726.84,-164.98C715.43,-156.92 698.06,-144.65 684.45,-135.03"/>
<polygon fill="#63b8ff" stroke="#63b8ff" points="686.35,-132.08 676.16,-129.17 682.31,-137.8 686.35,-132.08"/>
</a>
</g>
</g>
<!-- Node57 -->
<g id="Node000057" class="node">
<title>Node57</title>
<g id="a_Node000057"><a xlink:href="goto__program_8h.html" target="_top" xlink:title="Concrete Goto Program.">
<polygon fill="#fff0f0" stroke="red" points="481.89,-129 387.89,-129 387.89,-110 481.89,-110 481.89,-129"/>
<text text-anchor="middle" x="434.89" y="-117" font-family="Helvetica,sans-Serif" font-size="10.00">goto_program.h</text>
</a>
</g>
</g>
<!-- Node51&#45;&gt;Node57 -->
<g id="edge60_Node000051_Node000057" class="edge">
<title>Node51&#45;&gt;Node57</title>
<g id="a_edge60_Node000051_Node000057"><a xlink:title=" ">
<path fill="none" stroke="#63b8ff" d="M692.72,-165.45C638.97,-156.08 550.18,-140.6 492.11,-130.48"/>
<polygon fill="#63b8ff" stroke="#63b8ff" points="492.45,-126.98 482,-128.71 491.25,-133.88 492.45,-126.98"/>
</a>
</g>
</g>
<!-- Node52&#45;&gt;Node12 -->
<g id="edge58_Node000052_Node000012" class="edge">
<title>Node52&#45;&gt;Node12</title>
<g id="a_edge58_Node000052_Node000012"><a xlink:title=" ">
<path fill="none" stroke="#63b8ff" d="M705.5,-109.98C752.76,-100.31 829.59,-84.59 878.12,-74.66"/>
<polygon fill="#63b8ff" stroke="#63b8ff" points="878.93,-78.07 888.02,-72.63 877.52,-71.21 878.93,-78.07"/>
</a>
</g>
</g>
<!-- Node52&#45;&gt;Node35 -->
<g id="edge57_Node000052_Node000035" class="edge">
<title>Node52&#45;&gt;Node35</title>
<g id="a_edge57_Node000052_Node000035"><a xlink:title=" ">
<path fill="none" stroke="#63b8ff" d="M649.75,-109.98C636.1,-101.77 615.2,-89.18 599.11,-79.49"/>
<polygon fill="#63b8ff" stroke="#63b8ff" points="600.66,-76.33 590.29,-74.17 597.05,-82.33 600.66,-76.33"/>
</a>
</g>
</g>
<!-- Node52&#45;&gt;Node25 -->
<g id="edge59_Node000052_Node000025" class="edge">
<title>Node52&#45;&gt;Node25</title>
<g id="a_edge59_Node000052_Node000025"><a xlink:title=" ">
<path fill="none" stroke="#63b8ff" d="M663.89,-109.75C663.89,-102.8 663.89,-92.85 663.89,-84.13"/>
<polygon fill="#63b8ff" stroke="#63b8ff" points="667.39,-84.09 663.89,-74.09 660.39,-84.09 667.39,-84.09"/>
</a>
</g>
</g>
<!-- Node57&#45;&gt;Node5 -->
<g id="edge62_Node000057_Node000005" class="edge">
<title>Node57&#45;&gt;Node5</title>
<g id="a_edge62_Node000057_Node000005"><a xlink:title=" ">
<path fill="none" stroke="#63b8ff" d="M445.17,-109.98C454.73,-102.07 469.17,-90.11 480.67,-80.58"/>
<polygon fill="#63b8ff" stroke="#63b8ff" points="482.95,-83.24 488.42,-74.17 478.49,-77.85 482.95,-83.24"/>
</a>
</g>
</g>
<!-- Node57&#45;&gt;Node6 -->
<g id="edge63_Node000057_Node000006" class="edge">
<title>Node57&#45;&gt;Node6</title>
<g id="a_edge63_Node000057_Node000006"><a xlink:title=" ">
<path fill="none" stroke="#63b8ff" d="M398.1,-109.98C351.56,-99.21 272.59,-80.94 231.87,-71.51"/>
<polygon fill="#63b8ff" stroke="#63b8ff" points="232.46,-68.06 221.93,-69.21 230.88,-74.88 232.46,-68.06"/>
</a>
</g>
</g>
<!-- Node57&#45;&gt;Node12 -->
<g id="edge61_Node000057_Node000012" class="edge">
<title>Node57&#45;&gt;Node12</title>
<g id="a_edge61_Node000057_Node000012"><a xlink:title=" ">
<path fill="none" stroke="#63b8ff" d="M481.92,-111.19C484.95,-110.77 487.96,-110.37 490.89,-110 632.08,-92.02 799.95,-76.36 878.37,-69.38"/>
<polygon fill="#63b8ff" stroke="#63b8ff" points="878.73,-72.86 888.39,-68.49 878.12,-65.88 878.73,-72.86"/>
</a>
</g>
</g>
<!-- Node57&#45;&gt;Node14 -->
<g id="edge64_Node000057_Node000014" class="edge">
<title>Node57&#45;&gt;Node14</title>
<g id="a_edge64_Node000057_Node000014"><a xlink:title=" ">
<path fill="none" stroke="#63b8ff" d="M436.32,-109.7C439.15,-95.46 446.92,-67.68 465.89,-55 519.85,-18.94 984.37,-26.05 1048.89,-19 1055.99,-18.22 1063.58,-17.17 1070.76,-16.07"/>
<polygon fill="#63b8ff" stroke="#63b8ff" points="1071.56,-19.48 1080.88,-14.45 1070.46,-12.57 1071.56,-19.48"/>
</a>
</g>
</g>
<!-- Node64&#45;&gt;Node42 -->
<g id="edge68_Node000064_Node000042" class="edge">
<title>Node64&#45;&gt;Node42</title>
<g id="a_edge68_Node000064_Node000042"><a xlink:title=" ">
<path fill="none" stroke="#63b8ff" d="M1385.89,-219.95C1370.82,-187.74 1317.24,-73.23 1296.33,-28.55"/>
<polygon fill="#63b8ff" stroke="#63b8ff" points="1299.38,-26.8 1291.97,-19.22 1293.04,-29.76 1299.38,-26.8"/>
</a>
</g>
</g>
</g>
</svg>
