<?xml version="1.0" encoding="UTF-8" standalone="no"?>
<!DOCTYPE svg PUBLIC "-//W3C//DTD SVG 1.1//EN"
 "http://www.w3.org/Graphics/SVG/1.1/DTD/svg11.dtd">
<!-- Generated by graphviz version 2.43.0 (0)
 -->
<!-- Title: /home/runner/work/cbmc/cbmc/src/goto&#45;instrument/contracts/dynamic&#45;frames/dfcc_utils.h Pages: 1 -->
<svg width="1302pt" height="775pt"
 viewBox="0.00 0.00 1302.00 775.00" xmlns="http://www.w3.org/2000/svg" xmlns:xlink="http://www.w3.org/1999/xlink">
<g id="graph0" class="graph" transform="scale(1 1) rotate(0) translate(4 771)">
<title>/home/runner/work/cbmc/cbmc/src/goto&#45;instrument/contracts/dynamic&#45;frames/dfcc_utils.h</title>
<!-- Node1 -->
<g id="Node000001" class="node">
<title>Node1</title>
<g id="a_Node000001"><a xlink:title="Dynamic frame condition checking utility functions.">
<polygon fill="#999999" stroke="#666666" points="804,-767 656,-767 656,-715 804,-715 804,-767"/>
<text text-anchor="start" x="664" y="-755" font-family="Helvetica,sans-Serif" font-size="10.00">/home/runner/work/cbmc</text>
<text text-anchor="start" x="664" y="-744" font-family="Helvetica,sans-Serif" font-size="10.00">/cbmc/src/goto&#45;instrument</text>
<text text-anchor="start" x="664" y="-733" font-family="Helvetica,sans-Serif" font-size="10.00">/contracts/dynamic&#45;frames</text>
<text text-anchor="middle" x="730" y="-722" font-family="Helvetica,sans-Serif" font-size="10.00">/dfcc_utils.h</text>
</a>
</g>
</g>
<!-- Node2 -->
<g id="Node000002" class="node">
<title>Node2</title>
<g id="a_Node000002"><a xlink:href="src_2util_2message_8h.html" target="_top" xlink:title=" ">
<polygon fill="white" stroke="#666666" points="1008.5,-349 919.5,-349 919.5,-330 1008.5,-330 1008.5,-349"/>
<text text-anchor="middle" x="964" y="-337" font-family="Helvetica,sans-Serif" font-size="10.00">util/message.h</text>
</a>
</g>
</g>
<!-- Node1&#45;&gt;Node2 -->
<g id="edge1_Node000001_Node000002" class="edge">
<title>Node1&#45;&gt;Node2</title>
<g id="a_edge1_Node000001_Node000002"><a xlink:title=" ">
<path fill="none" stroke="#63b8ff" d="M744.82,-714.71C788.59,-639.98 916.58,-421.46 953.76,-357.98"/>
<polygon fill="#63b8ff" stroke="#63b8ff" points="956.89,-359.57 958.92,-349.17 950.85,-356.03 956.89,-359.57"/>
</a>
</g>
</g>
<!-- Node30 -->
<g id="Node000030" class="node">
<title>Node30</title>
<g id="a_Node000030"><a xlink:href="namespace_8h.html" target="_top" xlink:title=" ">
<polygon fill="white" stroke="#666666" points="572.5,-294 471.5,-294 471.5,-275 572.5,-275 572.5,-294"/>
<text text-anchor="middle" x="522" y="-282" font-family="Helvetica,sans-Serif" font-size="10.00">util/namespace.h</text>
</a>
</g>
</g>
<!-- Node1&#45;&gt;Node30 -->
<g id="edge35_Node000001_Node000030" class="edge">
<title>Node1&#45;&gt;Node30</title>
<g id="a_edge35_Node000001_Node000030"><a xlink:title=" ">
<path fill="none" stroke="#63b8ff" d="M655.75,-725.57C564.04,-705.57 420,-666.1 420,-615.5 420,-615.5 420,-615.5 420,-503.5 420,-421.45 480.01,-337.01 507.97,-302.12"/>
<polygon fill="#63b8ff" stroke="#63b8ff" points="510.71,-304.31 514.33,-294.35 505.29,-299.87 510.71,-304.31"/>
</a>
</g>
</g>
<!-- Node31 -->
<g id="Node000031" class="node">
<title>Node31</title>
<g id="a_Node000031"><a xlink:href="std__expr_8h.html" target="_top" xlink:title="API to expression classes.">
<polygon fill="white" stroke="#666666" points="391,-679 305,-679 305,-660 391,-660 391,-679"/>
<text text-anchor="middle" x="348" y="-667" font-family="Helvetica,sans-Serif" font-size="10.00">util/std_expr.h</text>
</a>
</g>
</g>
<!-- Node1&#45;&gt;Node31 -->
<g id="edge38_Node000001_Node000031" class="edge">
<title>Node1&#45;&gt;Node31</title>
<g id="a_edge38_Node000001_Node000031"><a xlink:title=" ">
<path fill="none" stroke="#63b8ff" d="M655.89,-726.52C581.13,-712.92 467.55,-692.25 401.26,-680.19"/>
<polygon fill="#63b8ff" stroke="#63b8ff" points="401.5,-676.68 391.04,-678.33 400.25,-683.56 401.5,-676.68"/>
</a>
</g>
</g>
<!-- Node44 -->
<g id="Node000044" class="node">
<title>Node44</title>
<g id="a_Node000044"><a xlink:title=" ">
<polygon fill="#e0e0e0" stroke="#999999" points="1137,-679 1105,-679 1105,-660 1137,-660 1137,-679"/>
<text text-anchor="middle" x="1121" y="-667" font-family="Helvetica,sans-Serif" font-size="10.00">set</text>
</a>
</g>
</g>
<!-- Node1&#45;&gt;Node44 -->
<g id="edge72_Node000001_Node000044" class="edge">
<title>Node1&#45;&gt;Node44</title>
<g id="a_edge72_Node000001_Node000044"><a xlink:title=" ">
<path fill="none" stroke="#63b8ff" d="M804.09,-729.89C877.39,-719.32 992.57,-701.19 1091,-679 1092.28,-678.71 1093.58,-678.4 1094.89,-678.08"/>
<polygon fill="#63b8ff" stroke="#63b8ff" points="1096.13,-681.37 1104.89,-675.41 1094.33,-674.61 1096.13,-681.37"/>
</a>
</g>
</g>
<!-- Node3 -->
<g id="Node000003" class="node">
<title>Node3</title>
<g id="a_Node000003"><a xlink:href="src_2util_2invariant_8h.html" target="_top" xlink:title=" ">
<polygon fill="white" stroke="#666666" points="562.5,-74 493.5,-74 493.5,-55 562.5,-55 562.5,-74"/>
<text text-anchor="middle" x="528" y="-62" font-family="Helvetica,sans-Serif" font-size="10.00">invariant.h</text>
</a>
</g>
</g>
<!-- Node2&#45;&gt;Node3 -->
<g id="edge2_Node000002_Node000003" class="edge">
<title>Node2&#45;&gt;Node3</title>
<g id="a_edge2_Node000002_Node000003"><a xlink:title=" ">
<path fill="none" stroke="#63b8ff" d="M919.26,-332.49C841.15,-321.87 687.21,-300.32 677,-294 658.98,-282.85 601.49,-175 559,-110 553.01,-100.84 546.07,-90.82 540.27,-82.61"/>
<polygon fill="#63b8ff" stroke="#63b8ff" points="542.98,-80.38 534.33,-74.26 537.28,-84.44 542.98,-80.38"/>
</a>
</g>
</g>
<!-- Node5 -->
<g id="Node000005" class="node">
<title>Node5</title>
<g id="a_Node000005"><a xlink:title=" ">
<polygon fill="#e0e0e0" stroke="#999999" points="655,-19 599,-19 599,0 655,0 655,-19"/>
<text text-anchor="middle" x="627" y="-7" font-family="Helvetica,sans-Serif" font-size="10.00">sstream</text>
</a>
</g>
</g>
<!-- Node2&#45;&gt;Node5 -->
<g id="edge33_Node000002_Node000005" class="edge">
<title>Node2&#45;&gt;Node5</title>
<g id="a_edge33_Node000002_Node000005"><a xlink:title=" ">
<path fill="none" stroke="#63b8ff" d="M960.02,-329.93C944.01,-296.38 880.76,-172.66 791,-110 746.04,-78.61 717.63,-105.86 673,-74 656.44,-62.18 643.53,-42.51 635.66,-28.19"/>
<polygon fill="#63b8ff" stroke="#63b8ff" points="638.75,-26.55 631.03,-19.29 632.54,-29.78 638.75,-26.55"/>
</a>
</g>
</g>
<!-- Node6 -->
<g id="Node000006" class="node">
<title>Node6</title>
<g id="a_Node000006"><a xlink:title=" ">
<polygon fill="#e0e0e0" stroke="#999999" points="986,-19 942,-19 942,0 986,0 986,-19"/>
<text text-anchor="middle" x="964" y="-7" font-family="Helvetica,sans-Serif" font-size="10.00">string</text>
</a>
</g>
</g>
<!-- Node2&#45;&gt;Node6 -->
<g id="edge34_Node000002_Node000006" class="edge">
<title>Node2&#45;&gt;Node6</title>
<g id="a_edge34_Node000002_Node000006"><a xlink:title=" ">
<path fill="none" stroke="#63b8ff" d="M1008.67,-331.52C1090.46,-317.47 1256,-282.59 1256,-230.5 1256,-230.5 1256,-230.5 1256,-118.5 1256,-84.91 1242.98,-73.59 1215,-55 1179.61,-31.48 1056.06,-18.21 996.54,-13.04"/>
<polygon fill="#63b8ff" stroke="#63b8ff" points="996.47,-9.52 986.21,-12.17 995.88,-16.5 996.47,-9.52"/>
</a>
</g>
</g>
<!-- Node8 -->
<g id="Node000008" class="node">
<title>Node8</title>
<g id="a_Node000008"><a xlink:href="source__location_8h.html" target="_top" xlink:title=" ">
<polygon fill="white" stroke="#666666" points="788,-294 686,-294 686,-275 788,-275 788,-294"/>
<text text-anchor="middle" x="737" y="-282" font-family="Helvetica,sans-Serif" font-size="10.00">source_location.h</text>
</a>
</g>
</g>
<!-- Node2&#45;&gt;Node8 -->
<g id="edge7_Node000002_Node000008" class="edge">
<title>Node2&#45;&gt;Node8</title>
<g id="a_edge7_Node000002_Node000008"><a xlink:title=" ">
<path fill="none" stroke="#63b8ff" d="M927.53,-329.98C888.43,-320.86 826.23,-306.33 783.61,-296.38"/>
<polygon fill="#63b8ff" stroke="#63b8ff" points="784.29,-292.95 773.76,-294.08 782.7,-299.76 784.29,-292.95"/>
</a>
</g>
</g>
<!-- Node14 -->
<g id="Node000014" class="node">
<title>Node14</title>
<g id="a_Node000014"><a xlink:title=" ">
<polygon fill="#e0e0e0" stroke="#999999" points="1078,-74 1030,-74 1030,-55 1078,-55 1078,-74"/>
<text text-anchor="middle" x="1054" y="-62" font-family="Helvetica,sans-Serif" font-size="10.00">iosfwd</text>
</a>
</g>
</g>
<!-- Node2&#45;&gt;Node14 -->
<g id="edge32_Node000002_Node000014" class="edge">
<title>Node2&#45;&gt;Node14</title>
<g id="a_edge32_Node000002_Node000014"><a xlink:title=" ">
<path fill="none" stroke="#63b8ff" d="M977.34,-329.88C1000.8,-313.56 1047,-275.67 1047,-230.5 1047,-230.5 1047,-230.5 1047,-173.5 1047,-142.12 1049.98,-105.73 1052.05,-84.21"/>
<polygon fill="#63b8ff" stroke="#63b8ff" points="1055.54,-84.47 1053.06,-74.17 1048.58,-83.77 1055.54,-84.47"/>
</a>
</g>
</g>
<!-- Node29 -->
<g id="Node000029" class="node">
<title>Node29</title>
<g id="a_Node000029"><a xlink:title=" ">
<polygon fill="#e0e0e0" stroke="#999999" points="376.5,-294 311.5,-294 311.5,-275 376.5,-275 376.5,-294"/>
<text text-anchor="middle" x="344" y="-282" font-family="Helvetica,sans-Serif" font-size="10.00">functional</text>
</a>
</g>
</g>
<!-- Node2&#45;&gt;Node29 -->
<g id="edge31_Node000002_Node000029" class="edge">
<title>Node2&#45;&gt;Node29</title>
<g id="a_edge31_Node000002_Node000029"><a xlink:title=" ">
<path fill="none" stroke="#63b8ff" d="M919.41,-332.64C911.61,-331.7 903.57,-330.78 896,-330 797.21,-319.85 498.39,-297.1 386.72,-288.7"/>
<polygon fill="#63b8ff" stroke="#63b8ff" points="386.74,-285.19 376.51,-287.93 386.22,-292.17 386.74,-285.19"/>
</a>
</g>
</g>
<!-- Node4 -->
<g id="Node000004" class="node">
<title>Node4</title>
<g id="a_Node000004"><a xlink:title=" ">
<polygon fill="#e0e0e0" stroke="#999999" points="552.5,-19 503.5,-19 503.5,0 552.5,0 552.5,-19"/>
<text text-anchor="middle" x="528" y="-7" font-family="Helvetica,sans-Serif" font-size="10.00">cstdlib</text>
</a>
</g>
</g>
<!-- Node3&#45;&gt;Node4 -->
<g id="edge3_Node000003_Node000004" class="edge">
<title>Node3&#45;&gt;Node4</title>
<g id="a_edge3_Node000003_Node000004"><a xlink:title=" ">
<path fill="none" stroke="#63b8ff" d="M528,-54.75C528,-47.8 528,-37.85 528,-29.13"/>
<polygon fill="#63b8ff" stroke="#63b8ff" points="531.5,-29.09 528,-19.09 524.5,-29.09 531.5,-29.09"/>
</a>
</g>
</g>
<!-- Node3&#45;&gt;Node5 -->
<g id="edge4_Node000003_Node000005" class="edge">
<title>Node3&#45;&gt;Node5</title>
<g id="a_edge4_Node000003_Node000005"><a xlink:title=" ">
<path fill="none" stroke="#63b8ff" d="M543.91,-54.98C559.55,-46.61 583.66,-33.7 601.88,-23.95"/>
<polygon fill="#63b8ff" stroke="#63b8ff" points="603.64,-26.98 610.8,-19.17 600.34,-20.8 603.64,-26.98"/>
</a>
</g>
</g>
<!-- Node3&#45;&gt;Node6 -->
<g id="edge5_Node000003_Node000006" class="edge">
<title>Node3&#45;&gt;Node6</title>
<g id="a_edge5_Node000003_Node000006"><a xlink:title=" ">
<path fill="none" stroke="#63b8ff" d="M562.58,-59.3C644.98,-49.28 852.01,-24.11 931.88,-14.4"/>
<polygon fill="#63b8ff" stroke="#63b8ff" points="932.34,-17.87 941.84,-13.19 931.49,-10.93 932.34,-17.87"/>
</a>
</g>
</g>
<!-- Node7 -->
<g id="Node000007" class="node">
<title>Node7</title>
<g id="a_Node000007"><a xlink:title=" ">
<polygon fill="#e0e0e0" stroke="#999999" points="101.5,-19 32.5,-19 32.5,0 101.5,0 101.5,-19"/>
<text text-anchor="middle" x="67" y="-7" font-family="Helvetica,sans-Serif" font-size="10.00">type_traits</text>
</a>
</g>
</g>
<!-- Node3&#45;&gt;Node7 -->
<g id="edge6_Node000003_Node000007" class="edge">
<title>Node3&#45;&gt;Node7</title>
<g id="a_edge6_Node000003_Node000007"><a xlink:title=" ">
<path fill="none" stroke="#63b8ff" d="M493.35,-59.52C410.99,-50.05 203.54,-26.2 111.81,-15.65"/>
<polygon fill="#63b8ff" stroke="#63b8ff" points="112.07,-12.16 101.74,-14.49 111.27,-19.11 112.07,-12.16"/>
</a>
</g>
</g>
<!-- Node8&#45;&gt;Node6 -->
<g id="edge30_Node000008_Node000006" class="edge">
<title>Node8&#45;&gt;Node6</title>
<g id="a_edge30_Node000008_Node000006"><a xlink:title=" ">
<path fill="none" stroke="#63b8ff" d="M787.84,-274.96C813.53,-268.56 843.86,-257.58 866,-239 932.77,-182.95 955.18,-73.13 961.67,-29.26"/>
<polygon fill="#63b8ff" stroke="#63b8ff" points="965.16,-29.54 963.05,-19.16 958.23,-28.6 965.16,-29.54"/>
</a>
</g>
</g>
<!-- Node9 -->
<g id="Node000009" class="node">
<title>Node9</title>
<g id="a_Node000009"><a xlink:href="deprecate_8h.html" target="_top" xlink:title=" ">
<polygon fill="white" stroke="#666666" points="857,-239 783,-239 783,-220 857,-220 857,-239"/>
<text text-anchor="middle" x="820" y="-227" font-family="Helvetica,sans-Serif" font-size="10.00">deprecate.h</text>
</a>
</g>
</g>
<!-- Node8&#45;&gt;Node9 -->
<g id="edge8_Node000008_Node000009" class="edge">
<title>Node8&#45;&gt;Node9</title>
<g id="a_edge8_Node000008_Node000009"><a xlink:title=" ">
<path fill="none" stroke="#63b8ff" d="M750.34,-274.98C763.09,-266.84 782.55,-254.41 797.67,-244.76"/>
<polygon fill="#63b8ff" stroke="#63b8ff" points="799.88,-247.5 806.42,-239.17 796.11,-241.6 799.88,-247.5"/>
</a>
</g>
</g>
<!-- Node10 -->
<g id="Node000010" class="node">
<title>Node10</title>
<g id="a_Node000010"><a xlink:href="irep_8h.html" target="_top" xlink:title=" ">
<polygon fill="white" stroke="#666666" points="691,-239 647,-239 647,-220 691,-220 691,-239"/>
<text text-anchor="middle" x="669" y="-227" font-family="Helvetica,sans-Serif" font-size="10.00">irep.h</text>
</a>
</g>
</g>
<!-- Node8&#45;&gt;Node10 -->
<g id="edge9_Node000008_Node000010" class="edge">
<title>Node8&#45;&gt;Node10</title>
<g id="a_edge9_Node000008_Node000010"><a xlink:title=" ">
<path fill="none" stroke="#63b8ff" d="M726.07,-274.98C715.92,-267.07 700.58,-255.11 688.35,-245.58"/>
<polygon fill="#63b8ff" stroke="#63b8ff" points="690.16,-242.56 680.12,-239.17 685.86,-248.08 690.16,-242.56"/>
</a>
</g>
</g>
<!-- Node28 -->
<g id="Node000028" class="node">
<title>Node28</title>
<g id="a_Node000028"><a xlink:title=" ">
<polygon fill="#e0e0e0" stroke="#999999" points="765,-239 709,-239 709,-220 765,-220 765,-239"/>
<text text-anchor="middle" x="737" y="-227" font-family="Helvetica,sans-Serif" font-size="10.00">optional</text>
</a>
</g>
</g>
<!-- Node8&#45;&gt;Node28 -->
<g id="edge29_Node000008_Node000028" class="edge">
<title>Node8&#45;&gt;Node28</title>
<g id="a_edge29_Node000008_Node000028"><a xlink:title=" ">
<path fill="none" stroke="#63b8ff" d="M737,-274.75C737,-267.8 737,-257.85 737,-249.13"/>
<polygon fill="#63b8ff" stroke="#63b8ff" points="740.5,-249.09 737,-239.09 733.5,-249.09 740.5,-249.09"/>
</a>
</g>
</g>
<!-- Node10&#45;&gt;Node3 -->
<g id="edge12_Node000010_Node000003" class="edge">
<title>Node10&#45;&gt;Node3</title>
<g id="a_edge12_Node000010_Node000003"><a xlink:title=" ">
<path fill="none" stroke="#63b8ff" d="M667.43,-219.92C663.16,-198.72 649.44,-143.15 618,-110 604.03,-95.28 584.15,-84.74 566.63,-77.63"/>
<polygon fill="#63b8ff" stroke="#63b8ff" points="567.78,-74.32 557.19,-74.02 565.28,-80.86 567.78,-74.32"/>
</a>
</g>
</g>
<!-- Node10&#45;&gt;Node6 -->
<g id="edge10_Node000010_Node000006" class="edge">
<title>Node10&#45;&gt;Node6</title>
<g id="a_edge10_Node000010_Node000006"><a xlink:title=" ">
<path fill="none" stroke="#63b8ff" d="M691.2,-221.56C743.89,-204.73 874.51,-160.79 907,-129 922.19,-114.14 945.42,-58.24 956.98,-28.84"/>
<polygon fill="#63b8ff" stroke="#63b8ff" points="960.31,-29.92 960.67,-19.33 953.78,-27.38 960.31,-29.92"/>
</a>
</g>
</g>
<!-- Node11 -->
<g id="Node000011" class="node">
<title>Node11</title>
<g id="a_Node000011"><a xlink:title=" ">
<polygon fill="#e0e0e0" stroke="#999999" points="808.5,-19 761.5,-19 761.5,0 808.5,0 808.5,-19"/>
<text text-anchor="middle" x="785" y="-7" font-family="Helvetica,sans-Serif" font-size="10.00">vector</text>
</a>
</g>
</g>
<!-- Node10&#45;&gt;Node11 -->
<g id="edge11_Node000010_Node000011" class="edge">
<title>Node10&#45;&gt;Node11</title>
<g id="a_edge11_Node000010_Node000011"><a xlink:title=" ">
<path fill="none" stroke="#63b8ff" d="M668.65,-219.98C667.38,-186.96 663.54,-68.6 673,-55 690.62,-29.68 725.09,-18.76 751.16,-14.06"/>
<polygon fill="#63b8ff" stroke="#63b8ff" points="751.71,-17.52 761.04,-12.5 750.61,-10.6 751.71,-17.52"/>
</a>
</g>
</g>
<!-- Node12 -->
<g id="Node000012" class="node">
<title>Node12</title>
<g id="a_Node000012"><a xlink:href="irep__ids_8h.html" target="_top" xlink:title="util">
<polygon fill="white" stroke="#666666" points="777,-184 713,-184 713,-165 777,-165 777,-184"/>
<text text-anchor="middle" x="745" y="-172" font-family="Helvetica,sans-Serif" font-size="10.00">irep_ids.h</text>
</a>
</g>
</g>
<!-- Node10&#45;&gt;Node12 -->
<g id="edge13_Node000010_Node000012" class="edge">
<title>Node10&#45;&gt;Node12</title>
<g id="a_edge13_Node000010_Node000012"><a xlink:title=" ">
<path fill="none" stroke="#63b8ff" d="M681.21,-219.98C692.78,-211.92 710.38,-199.65 724.16,-190.03"/>
<polygon fill="#63b8ff" stroke="#63b8ff" points="726.37,-192.76 732.57,-184.17 722.36,-187.02 726.37,-192.76"/>
</a>
</g>
</g>
<!-- Node23 -->
<g id="Node000023" class="node">
<title>Node23</title>
<g id="a_Node000023"><a xlink:href="forward__list__as__map_8h.html" target="_top" xlink:title=" ">
<polygon fill="white" stroke="#666666" points="414.5,-184 287.5,-184 287.5,-165 414.5,-165 414.5,-184"/>
<text text-anchor="middle" x="351" y="-172" font-family="Helvetica,sans-Serif" font-size="10.00">forward_list_as_map.h</text>
</a>
</g>
</g>
<!-- Node10&#45;&gt;Node23 -->
<g id="edge22_Node000010_Node000023" class="edge">
<title>Node10&#45;&gt;Node23</title>
<g id="a_edge22_Node000010_Node000023"><a xlink:title=" ">
<path fill="none" stroke="#63b8ff" d="M646.89,-224.82C598.96,-216.83 484.05,-197.68 412.36,-185.73"/>
<polygon fill="#63b8ff" stroke="#63b8ff" points="412.55,-182.21 402.11,-184.02 411.4,-189.11 412.55,-182.21"/>
</a>
</g>
</g>
<!-- Node13 -->
<g id="Node000013" class="node">
<title>Node13</title>
<g id="a_Node000013"><a xlink:href="dstring_8h.html" target="_top" xlink:title="Container for C&#45;Strings.">
<polygon fill="white" stroke="#666666" points="897.5,-129 838.5,-129 838.5,-110 897.5,-110 897.5,-129"/>
<text text-anchor="middle" x="868" y="-117" font-family="Helvetica,sans-Serif" font-size="10.00">dstring.h</text>
</a>
</g>
</g>
<!-- Node12&#45;&gt;Node13 -->
<g id="edge14_Node000012_Node000013" class="edge">
<title>Node12&#45;&gt;Node13</title>
<g id="a_edge14_Node000012_Node000013"><a xlink:title=" ">
<path fill="none" stroke="#63b8ff" d="M764.76,-164.98C784.73,-156.38 815.8,-142.99 838.65,-133.15"/>
<polygon fill="#63b8ff" stroke="#63b8ff" points="840.08,-136.34 847.88,-129.17 837.31,-129.91 840.08,-136.34"/>
</a>
</g>
</g>
<!-- Node22 -->
<g id="Node000022" class="node">
<title>Node22</title>
<g id="a_Node000022"><a xlink:title=" ">
<polygon fill="#e0e0e0" stroke="#999999" points="782,-129 708,-129 708,-110 782,-110 782,-129"/>
<text text-anchor="middle" x="745" y="-117" font-family="Helvetica,sans-Serif" font-size="10.00">irep_ids.def</text>
</a>
</g>
</g>
<!-- Node12&#45;&gt;Node22 -->
<g id="edge21_Node000012_Node000022" class="edge">
<title>Node12&#45;&gt;Node22</title>
<g id="a_edge21_Node000012_Node000022"><a xlink:title=" ">
<path fill="none" stroke="#63b8ff" d="M745,-164.75C745,-157.8 745,-147.85 745,-139.13"/>
<polygon fill="#63b8ff" stroke="#63b8ff" points="748.5,-139.09 745,-129.09 741.5,-139.09 748.5,-139.09"/>
</a>
</g>
</g>
<!-- Node13&#45;&gt;Node6 -->
<g id="edge16_Node000013_Node000006" class="edge">
<title>Node13&#45;&gt;Node6</title>
<g id="a_edge16_Node000013_Node000006"><a xlink:title=" ">
<path fill="none" stroke="#63b8ff" d="M839.49,-109.95C808.59,-99.21 766.06,-79.23 785,-55 802.89,-32.12 885.28,-19.32 931.79,-13.81"/>
<polygon fill="#63b8ff" stroke="#63b8ff" points="932.42,-17.26 941.96,-12.65 931.63,-10.3 932.42,-17.26"/>
</a>
</g>
</g>
<!-- Node13&#45;&gt;Node14 -->
<g id="edge15_Node000013_Node000014" class="edge">
<title>Node13&#45;&gt;Node14</title>
<g id="a_edge15_Node000013_Node000014"><a xlink:title=" ">
<path fill="none" stroke="#63b8ff" d="M897.88,-109.98C931.25,-100.48 985.14,-85.12 1020.07,-75.17"/>
<polygon fill="#63b8ff" stroke="#63b8ff" points="1021.16,-78.5 1029.82,-72.39 1019.24,-71.76 1021.16,-78.5"/>
</a>
</g>
</g>
<!-- Node15 -->
<g id="Node000015" class="node">
<title>Node15</title>
<g id="a_Node000015"><a xlink:href="magic_8h.html" target="_top" xlink:title="Magic numbers used throughout the codebase.">
<polygon fill="#fff0f0" stroke="red" points="738,-74 682,-74 682,-55 738,-55 738,-74"/>
<text text-anchor="middle" x="710" y="-62" font-family="Helvetica,sans-Serif" font-size="10.00">magic.h</text>
</a>
</g>
</g>
<!-- Node13&#45;&gt;Node15 -->
<g id="edge17_Node000013_Node000015" class="edge">
<title>Node13&#45;&gt;Node15</title>
<g id="a_edge17_Node000013_Node000015"><a xlink:title=" ">
<path fill="none" stroke="#63b8ff" d="M842.61,-109.98C816.2,-101.13 774.65,-87.19 745.11,-77.28"/>
<polygon fill="#63b8ff" stroke="#63b8ff" points="746.18,-73.94 735.58,-74.08 743.95,-80.58 746.18,-73.94"/>
</a>
</g>
</g>
<!-- Node17 -->
<g id="Node000017" class="node">
<title>Node17</title>
<g id="a_Node000017"><a xlink:href="string__container_8h.html" target="_top" xlink:title="Container for C&#45;Strings.">
<polygon fill="#fff0f0" stroke="red" points="898,-74 794,-74 794,-55 898,-55 898,-74"/>
<text text-anchor="middle" x="846" y="-62" font-family="Helvetica,sans-Serif" font-size="10.00">string_container.h</text>
</a>
</g>
</g>
<!-- Node13&#45;&gt;Node17 -->
<g id="edge18_Node000013_Node000017" class="edge">
<title>Node13&#45;&gt;Node17</title>
<g id="a_edge18_Node000013_Node000017"><a xlink:title=" ">
<path fill="none" stroke="#63b8ff" d="M864.37,-109.75C861.42,-102.65 857.17,-92.4 853.49,-83.56"/>
<polygon fill="#63b8ff" stroke="#63b8ff" points="856.63,-81.98 849.57,-74.09 850.17,-84.67 856.63,-81.98"/>
</a>
</g>
</g>
<!-- Node17&#45;&gt;Node11 -->
<g id="edge20_Node000017_Node000011" class="edge">
<title>Node17&#45;&gt;Node11</title>
<g id="a_edge20_Node000017_Node000011"><a xlink:title=" ">
<path fill="none" stroke="#63b8ff" d="M836.2,-54.98C827.18,-47.15 813.59,-35.34 802.68,-25.86"/>
<polygon fill="#63b8ff" stroke="#63b8ff" points="804.82,-23.09 794.98,-19.17 800.23,-28.37 804.82,-23.09"/>
</a>
</g>
</g>
<!-- Node19 -->
<g id="Node000019" class="node">
<title>Node19</title>
<g id="a_Node000019"><a xlink:title=" ">
<polygon fill="#e0e0e0" stroke="#999999" points="1218.5,-19 1125.5,-19 1125.5,0 1218.5,0 1218.5,-19"/>
<text text-anchor="middle" x="1172" y="-7" font-family="Helvetica,sans-Serif" font-size="10.00">unordered_map</text>
</a>
</g>
</g>
<!-- Node17&#45;&gt;Node19 -->
<g id="edge19_Node000017_Node000019" class="edge">
<title>Node17&#45;&gt;Node19</title>
<g id="a_edge19_Node000017_Node000019"><a xlink:title=" ">
<path fill="none" stroke="#63b8ff" d="M898.02,-55.04C957.45,-45.38 1054.36,-29.63 1115.57,-19.67"/>
<polygon fill="#63b8ff" stroke="#63b8ff" points="1116.14,-23.13 1125.45,-18.07 1115.02,-16.22 1116.14,-23.13"/>
</a>
</g>
</g>
<!-- Node24 -->
<g id="Node000024" class="node">
<title>Node24</title>
<g id="a_Node000024"><a xlink:title=" ">
<polygon fill="#e0e0e0" stroke="#999999" points="414,-129 350,-129 350,-110 414,-110 414,-129"/>
<text text-anchor="middle" x="382" y="-117" font-family="Helvetica,sans-Serif" font-size="10.00">algorithm</text>
</a>
</g>
</g>
<!-- Node23&#45;&gt;Node24 -->
<g id="edge23_Node000023_Node000024" class="edge">
<title>Node23&#45;&gt;Node24</title>
<g id="a_edge23_Node000023_Node000024"><a xlink:title=" ">
<path fill="none" stroke="#63b8ff" d="M356.12,-164.75C360.36,-157.49 366.53,-146.95 371.78,-137.98"/>
<polygon fill="#63b8ff" stroke="#63b8ff" points="374.95,-139.49 376.98,-129.09 368.91,-135.95 374.95,-139.49"/>
</a>
</g>
</g>
<!-- Node25 -->
<g id="Node000025" class="node">
<title>Node25</title>
<g id="a_Node000025"><a xlink:title=" ">
<polygon fill="#e0e0e0" stroke="#999999" points="332,-129 258,-129 258,-110 332,-110 332,-129"/>
<text text-anchor="middle" x="295" y="-117" font-family="Helvetica,sans-Serif" font-size="10.00">forward_list</text>
</a>
</g>
</g>
<!-- Node23&#45;&gt;Node25 -->
<g id="edge24_Node000023_Node000025" class="edge">
<title>Node23&#45;&gt;Node25</title>
<g id="a_edge24_Node000023_Node000025"><a xlink:title=" ">
<path fill="none" stroke="#63b8ff" d="M342,-164.98C333.81,-157.23 321.49,-145.58 311.53,-136.14"/>
<polygon fill="#63b8ff" stroke="#63b8ff" points="313.83,-133.5 304.16,-129.17 309.02,-138.59 313.83,-133.5"/>
</a>
</g>
</g>
<!-- Node26 -->
<g id="Node000026" class="node">
<title>Node26</title>
<g id="a_Node000026"><a xlink:href="as__const_8h.html" target="_top" xlink:title=" ">
<polygon fill="white" stroke="#666666" points="500,-129 432,-129 432,-110 500,-110 500,-129"/>
<text text-anchor="middle" x="466" y="-117" font-family="Helvetica,sans-Serif" font-size="10.00">as_const.h</text>
</a>
</g>
</g>
<!-- Node23&#45;&gt;Node26 -->
<g id="edge25_Node000023_Node000026" class="edge">
<title>Node23&#45;&gt;Node26</title>
<g id="a_edge25_Node000023_Node000026"><a xlink:title=" ">
<path fill="none" stroke="#63b8ff" d="M369.48,-164.98C387.98,-156.46 416.68,-143.23 437.98,-133.41"/>
<polygon fill="#63b8ff" stroke="#63b8ff" points="439.57,-136.53 447.19,-129.17 436.64,-130.18 439.57,-136.53"/>
</a>
</g>
</g>
<!-- Node27 -->
<g id="Node000027" class="node">
<title>Node27</title>
<g id="a_Node000027"><a xlink:href="narrow_8h.html" target="_top" xlink:title=" ">
<polygon fill="white" stroke="#666666" points="125.5,-129 66.5,-129 66.5,-110 125.5,-110 125.5,-129"/>
<text text-anchor="middle" x="96" y="-117" font-family="Helvetica,sans-Serif" font-size="10.00">narrow.h</text>
</a>
</g>
</g>
<!-- Node23&#45;&gt;Node27 -->
<g id="edge26_Node000023_Node000027" class="edge">
<title>Node23&#45;&gt;Node27</title>
<g id="a_edge26_Node000023_Node000027"><a xlink:title=" ">
<path fill="none" stroke="#63b8ff" d="M310.03,-164.98C262.02,-155.01 183.03,-138.59 135.62,-128.73"/>
<polygon fill="#63b8ff" stroke="#63b8ff" points="136.22,-125.28 125.72,-126.68 134.79,-132.14 136.22,-125.28"/>
</a>
</g>
</g>
<!-- Node27&#45;&gt;Node3 -->
<g id="edge28_Node000027_Node000003" class="edge">
<title>Node27&#45;&gt;Node3</title>
<g id="a_edge28_Node000027_Node000003"><a xlink:title=" ">
<path fill="none" stroke="#63b8ff" d="M125.77,-112.43C130.52,-111.55 135.39,-110.71 140,-110 263.76,-90.98 410.87,-76.24 483.24,-69.51"/>
<polygon fill="#63b8ff" stroke="#63b8ff" points="483.73,-72.98 493.36,-68.57 483.08,-66.01 483.73,-72.98"/>
</a>
</g>
</g>
<!-- Node27&#45;&gt;Node7 -->
<g id="edge27_Node000027_Node000007" class="edge">
<title>Node27&#45;&gt;Node7</title>
<g id="a_edge27_Node000027_Node000007"><a xlink:title=" ">
<path fill="none" stroke="#63b8ff" d="M93.63,-109.66C88.91,-92.09 78.26,-52.45 71.96,-28.95"/>
<polygon fill="#63b8ff" stroke="#63b8ff" points="75.3,-27.91 69.32,-19.16 68.54,-29.72 75.3,-27.91"/>
</a>
</g>
</g>
<!-- Node30&#45;&gt;Node3 -->
<g id="edge36_Node000030_Node000003" class="edge">
<title>Node30&#45;&gt;Node3</title>
<g id="a_edge36_Node000030_Node000003"><a xlink:title=" ">
<path fill="none" stroke="#63b8ff" d="M480.16,-274.96C386.86,-254.14 175.56,-196.09 249,-110 278.58,-75.32 412.27,-67.54 483.31,-65.88"/>
<polygon fill="#63b8ff" stroke="#63b8ff" points="483.39,-69.38 493.31,-65.68 483.24,-62.38 483.39,-69.38"/>
</a>
</g>
</g>
<!-- Node30&#45;&gt;Node10 -->
<g id="edge37_Node000030_Node000010" class="edge">
<title>Node30&#45;&gt;Node10</title>
<g id="a_edge37_Node000030_Node000010"><a xlink:title=" ">
<path fill="none" stroke="#63b8ff" d="M545.62,-274.98C570.48,-266.02 609.77,-251.86 637.31,-241.92"/>
<polygon fill="#63b8ff" stroke="#63b8ff" points="638.66,-245.16 646.88,-238.47 636.29,-238.57 638.66,-245.16"/>
</a>
</g>
</g>
<!-- Node31&#45;&gt;Node3 -->
<g id="edge61_Node000031_Node000003" class="edge">
<title>Node31&#45;&gt;Node3</title>
<g id="a_edge61_Node000031_Node000003"><a xlink:title=" ">
<path fill="none" stroke="#63b8ff" d="M304.91,-667.19C237.81,-662.6 116,-642.91 116,-560.5 116,-560.5 116,-560.5 116,-228.5 116,-162.63 148.23,-143.4 205,-110 251.19,-82.83 405.75,-71.51 483.1,-67.45"/>
<polygon fill="#63b8ff" stroke="#63b8ff" points="483.68,-70.93 493.49,-66.93 483.32,-63.94 483.68,-70.93"/>
</a>
</g>
</g>
<!-- Node32 -->
<g id="Node000032" class="node">
<title>Node32</title>
<g id="a_Node000032"><a xlink:href="expr__cast_8h.html" target="_top" xlink:title="Templated functions to cast to specific exprt&#45;derived classes.">
<polygon fill="white" stroke="#666666" points="380.5,-569 307.5,-569 307.5,-550 380.5,-550 380.5,-569"/>
<text text-anchor="middle" x="344" y="-557" font-family="Helvetica,sans-Serif" font-size="10.00">expr_cast.h</text>
</a>
</g>
</g>
<!-- Node31&#45;&gt;Node32 -->
<g id="edge39_Node000031_Node000032" class="edge">
<title>Node31&#45;&gt;Node32</title>
<g id="a_edge39_Node000031_Node000032"><a xlink:title=" ">
<path fill="none" stroke="#63b8ff" d="M347.67,-659.66C347.02,-642.17 345.57,-602.8 344.7,-579.27"/>
<polygon fill="#63b8ff" stroke="#63b8ff" points="348.19,-579.02 344.32,-569.16 341.19,-579.28 348.19,-579.02"/>
</a>
</g>
</g>
<!-- Node41 -->
<g id="Node000041" class="node">
<title>Node41</title>
<g id="a_Node000041"><a xlink:href="std__types_8h.html" target="_top" xlink:title="Pre&#45;defined types.">
<polygon fill="white" stroke="#666666" points="532.5,-624 459.5,-624 459.5,-605 532.5,-605 532.5,-624"/>
<text text-anchor="middle" x="496" y="-612" font-family="Helvetica,sans-Serif" font-size="10.00">std_types.h</text>
</a>
</g>
</g>
<!-- Node31&#45;&gt;Node41 -->
<g id="edge62_Node000031_Node000041" class="edge">
<title>Node31&#45;&gt;Node41</title>
<g id="a_edge62_Node000031_Node000041"><a xlink:title=" ">
<path fill="none" stroke="#63b8ff" d="M371.78,-659.98C396.23,-651.23 434.53,-637.51 462.15,-627.62"/>
<polygon fill="#63b8ff" stroke="#63b8ff" points="463.55,-630.84 471.79,-624.17 461.19,-624.25 463.55,-630.84"/>
</a>
</g>
</g>
<!-- Node32&#45;&gt;Node3 -->
<g id="edge43_Node000032_Node000003" class="edge">
<title>Node32&#45;&gt;Node3</title>
<g id="a_edge43_Node000032_Node000003"><a xlink:title=" ">
<path fill="none" stroke="#63b8ff" d="M307.24,-555.38C277.43,-550.93 236.32,-540.15 211,-514 190.51,-492.84 192,-479.96 192,-450.5 192,-450.5 192,-450.5 192,-173.5 192,-139.66 205.48,-128.21 234,-110 274.48,-84.15 411.47,-72.37 483.26,-67.86"/>
<polygon fill="#63b8ff" stroke="#63b8ff" points="483.6,-71.35 493.36,-67.25 483.17,-64.36 483.6,-71.35"/>
</a>
</g>
</g>
<!-- Node32&#45;&gt;Node7 -->
<g id="edge41_Node000032_Node000007" class="edge">
<title>Node32&#45;&gt;Node7</title>
<g id="a_edge41_Node000032_Node000007"><a xlink:title=" ">
<path fill="none" stroke="#63b8ff" d="M307.19,-554.85C218.44,-545.02 0,-514.35 0,-450.5 0,-450.5 0,-450.5 0,-118.5 0,-80.91 29.68,-45.51 49.53,-26.04"/>
<polygon fill="#63b8ff" stroke="#63b8ff" points="51.95,-28.57 56.82,-19.17 47.15,-23.48 51.95,-28.57"/>
</a>
</g>
</g>
<!-- Node32&#45;&gt;Node29 -->
<g id="edge42_Node000032_Node000029" class="edge">
<title>Node32&#45;&gt;Node29</title>
<g id="a_edge42_Node000032_Node000029"><a xlink:title=" ">
<path fill="none" stroke="#63b8ff" d="M344,-549.82C344,-531.48 344,-487.44 344,-450.5 344,-450.5 344,-450.5 344,-393.5 344,-362.19 344,-325.77 344,-304.23"/>
<polygon fill="#63b8ff" stroke="#63b8ff" points="347.5,-304.18 344,-294.18 340.5,-304.18 347.5,-304.18"/>
</a>
</g>
</g>
<!-- Node33 -->
<g id="Node000033" class="node">
<title>Node33</title>
<g id="a_Node000033"><a xlink:title=" ">
<polygon fill="#e0e0e0" stroke="#999999" points="277.5,-514 220.5,-514 220.5,-495 277.5,-495 277.5,-514"/>
<text text-anchor="middle" x="249" y="-502" font-family="Helvetica,sans-Serif" font-size="10.00">typeinfo</text>
</a>
</g>
</g>
<!-- Node32&#45;&gt;Node33 -->
<g id="edge40_Node000032_Node000033" class="edge">
<title>Node32&#45;&gt;Node33</title>
<g id="a_edge40_Node000032_Node000033"><a xlink:title=" ">
<path fill="none" stroke="#63b8ff" d="M328.74,-549.98C313.87,-541.69 291.02,-528.94 273.58,-519.22"/>
<polygon fill="#63b8ff" stroke="#63b8ff" points="274.98,-515.99 264.54,-514.17 271.57,-522.1 274.98,-515.99"/>
</a>
</g>
</g>
<!-- Node34 -->
<g id="Node000034" class="node">
<title>Node34</title>
<g id="a_Node000034"><a xlink:href="expr_8h.html" target="_top" xlink:title=" ">
<polygon fill="white" stroke="#666666" points="519.5,-514 472.5,-514 472.5,-495 519.5,-495 519.5,-514"/>
<text text-anchor="middle" x="496" y="-502" font-family="Helvetica,sans-Serif" font-size="10.00">expr.h</text>
</a>
</g>
</g>
<!-- Node32&#45;&gt;Node34 -->
<g id="edge44_Node000032_Node000034" class="edge">
<title>Node32&#45;&gt;Node34</title>
<g id="a_edge44_Node000032_Node000034"><a xlink:title=" ">
<path fill="none" stroke="#63b8ff" d="M368.42,-549.98C393.94,-541.09 434.16,-527.06 462.61,-517.14"/>
<polygon fill="#63b8ff" stroke="#63b8ff" points="463.85,-520.42 472.14,-513.82 461.55,-513.81 463.85,-520.42"/>
</a>
</g>
</g>
<!-- Node34&#45;&gt;Node26 -->
<g id="edge45_Node000034_Node000026" class="edge">
<title>Node34&#45;&gt;Node26</title>
<g id="a_edge45_Node000034_Node000026"><a xlink:title=" ">
<path fill="none" stroke="#63b8ff" d="M491.11,-494.99C477.99,-471.32 443,-402.39 443,-340.5 443,-340.5 443,-340.5 443,-228.5 443,-196.34 452.88,-159.95 459.69,-138.69"/>
<polygon fill="#63b8ff" stroke="#63b8ff" points="463.06,-139.64 462.9,-129.05 456.42,-137.43 463.06,-139.64"/>
</a>
</g>
</g>
<!-- Node34&#45;&gt;Node29 -->
<g id="edge60_Node000034_Node000029" class="edge">
<title>Node34&#45;&gt;Node29</title>
<g id="a_edge60_Node000034_Node000029"><a xlink:title=" ">
<path fill="none" stroke="#63b8ff" d="M483.82,-494.96C472.56,-486.67 455.84,-473.26 444,-459 401.52,-407.83 366.69,-336.25 351.79,-303.34"/>
<polygon fill="#63b8ff" stroke="#63b8ff" points="354.94,-301.8 347.67,-294.09 348.54,-304.65 354.94,-301.8"/>
</a>
</g>
</g>
<!-- Node35 -->
<g id="Node000035" class="node">
<title>Node35</title>
<g id="a_Node000035"><a xlink:href="type_8h.html" target="_top" xlink:title="Defines typet, type_with_subtypet and type_with_subtypest.">
<polygon fill="white" stroke="#666666" points="718.5,-459 671.5,-459 671.5,-440 718.5,-440 718.5,-459"/>
<text text-anchor="middle" x="695" y="-447" font-family="Helvetica,sans-Serif" font-size="10.00">type.h</text>
</a>
</g>
</g>
<!-- Node34&#45;&gt;Node35 -->
<g id="edge46_Node000034_Node000035" class="edge">
<title>Node34&#45;&gt;Node35</title>
<g id="a_edge46_Node000034_Node000035"><a xlink:title=" ">
<path fill="none" stroke="#63b8ff" d="M519.61,-497.21C554.84,-487.83 621.33,-470.12 661.55,-459.41"/>
<polygon fill="#63b8ff" stroke="#63b8ff" points="662.66,-462.74 671.42,-456.78 660.86,-455.97 662.66,-462.74"/>
</a>
</g>
</g>
<!-- Node38 -->
<g id="Node000038" class="node">
<title>Node38</title>
<g id="a_Node000038"><a xlink:href="validation__mode_8h.html" target="_top" xlink:title=" ">
<polygon fill="white" stroke="#666666" points="886.5,-349 779.5,-349 779.5,-330 886.5,-330 886.5,-349"/>
<text text-anchor="middle" x="833" y="-337" font-family="Helvetica,sans-Serif" font-size="10.00">validation_mode.h</text>
</a>
</g>
</g>
<!-- Node34&#45;&gt;Node38 -->
<g id="edge59_Node000034_Node000038" class="edge">
<title>Node34&#45;&gt;Node38</title>
<g id="a_edge59_Node000034_Node000038"><a xlink:title=" ">
<path fill="none" stroke="#63b8ff" d="M519.72,-503.77C563.66,-503.26 659.5,-497.43 728,-459 771.79,-434.43 806.55,-384.59 822.87,-358.05"/>
<polygon fill="#63b8ff" stroke="#63b8ff" points="826.08,-359.51 828.2,-349.13 820.07,-355.92 826.08,-359.51"/>
</a>
</g>
</g>
<!-- Node39 -->
<g id="Node000039" class="node">
<title>Node39</title>
<g id="a_Node000039"><a xlink:href="validate__types_8h.html" target="_top" xlink:title=" ">
<polygon fill="white" stroke="#666666" points="607,-404 509,-404 509,-385 607,-385 607,-404"/>
<text text-anchor="middle" x="558" y="-392" font-family="Helvetica,sans-Serif" font-size="10.00">validate_types.h</text>
</a>
</g>
</g>
<!-- Node34&#45;&gt;Node39 -->
<g id="edge58_Node000034_Node000039" class="edge">
<title>Node34&#45;&gt;Node39</title>
<g id="a_edge58_Node000034_Node000039"><a xlink:title=" ">
<path fill="none" stroke="#63b8ff" d="M497.46,-494.78C499.86,-482.05 505.47,-457.94 516,-440 522.36,-429.17 531.8,-418.85 540.12,-410.88"/>
<polygon fill="#63b8ff" stroke="#63b8ff" points="542.61,-413.36 547.62,-404.02 537.88,-408.19 542.61,-413.36"/>
</a>
</g>
</g>
<!-- Node40 -->
<g id="Node000040" class="node">
<title>Node40</title>
<g id="a_Node000040"><a xlink:href="validate__expressions_8h.html" target="_top" xlink:title=" ">
<polygon fill="white" stroke="#666666" points="653.5,-459 524.5,-459 524.5,-440 653.5,-440 653.5,-459"/>
<text text-anchor="middle" x="589" y="-447" font-family="Helvetica,sans-Serif" font-size="10.00">validate_expressions.h</text>
</a>
</g>
</g>
<!-- Node34&#45;&gt;Node40 -->
<g id="edge57_Node000034_Node000040" class="edge">
<title>Node34&#45;&gt;Node40</title>
<g id="a_edge57_Node000034_Node000040"><a xlink:title=" ">
<path fill="none" stroke="#63b8ff" d="M510.94,-494.98C525.5,-486.69 547.87,-473.94 564.93,-464.22"/>
<polygon fill="#63b8ff" stroke="#63b8ff" points="566.83,-467.16 573.79,-459.17 563.36,-461.08 566.83,-467.16"/>
</a>
</g>
</g>
<!-- Node35&#45;&gt;Node8 -->
<g id="edge47_Node000035_Node000008" class="edge">
<title>Node35&#45;&gt;Node8</title>
<g id="a_edge47_Node000035_Node000008"><a xlink:title=" ">
<path fill="none" stroke="#63b8ff" d="M687.01,-439.96C669.12,-419.74 629.11,-367.82 652,-330 661.14,-314.89 677.29,-304.67 693.07,-297.87"/>
<polygon fill="#63b8ff" stroke="#63b8ff" points="694.74,-300.97 702.78,-294.07 692.19,-294.46 694.74,-300.97"/>
</a>
</g>
</g>
<!-- Node36 -->
<g id="Node000036" class="node">
<title>Node36</title>
<g id="a_Node000036"><a xlink:href="validate_8h.html" target="_top" xlink:title=" ">
<polygon fill="white" stroke="#666666" points="743.5,-404 678.5,-404 678.5,-385 743.5,-385 743.5,-404"/>
<text text-anchor="middle" x="711" y="-392" font-family="Helvetica,sans-Serif" font-size="10.00">validate.h</text>
</a>
</g>
</g>
<!-- Node35&#45;&gt;Node36 -->
<g id="edge48_Node000035_Node000036" class="edge">
<title>Node35&#45;&gt;Node36</title>
<g id="a_edge48_Node000035_Node000036"><a xlink:title=" ">
<path fill="none" stroke="#63b8ff" d="M697.64,-439.75C699.76,-432.72 702.81,-422.62 705.46,-413.84"/>
<polygon fill="#63b8ff" stroke="#63b8ff" points="708.87,-414.67 708.41,-404.09 702.17,-412.65 708.87,-414.67"/>
</a>
</g>
</g>
<!-- Node35&#45;&gt;Node38 -->
<g id="edge56_Node000035_Node000038" class="edge">
<title>Node35&#45;&gt;Node38</title>
<g id="a_edge56_Node000035_Node000038"><a xlink:title=" ">
<path fill="none" stroke="#63b8ff" d="M706.6,-439.69C718.34,-430.75 736.99,-416.49 753,-404 774,-387.62 797.89,-368.6 814.06,-355.68"/>
<polygon fill="#63b8ff" stroke="#63b8ff" points="816.55,-358.16 822.18,-349.18 812.18,-352.7 816.55,-358.16"/>
</a>
</g>
</g>
<!-- Node35&#45;&gt;Node39 -->
<g id="edge55_Node000035_Node000039" class="edge">
<title>Node35&#45;&gt;Node39</title>
<g id="a_edge55_Node000035_Node000039"><a xlink:title=" ">
<path fill="none" stroke="#63b8ff" d="M672.99,-439.98C650.55,-431.3 615.52,-417.75 590.01,-407.88"/>
<polygon fill="#63b8ff" stroke="#63b8ff" points="591,-404.51 580.41,-404.17 588.48,-411.04 591,-404.51"/>
</a>
</g>
</g>
<!-- Node36&#45;&gt;Node7 -->
<g id="edge49_Node000036_Node000007" class="edge">
<title>Node36&#45;&gt;Node7</title>
<g id="a_edge49_Node000036_Node000007"><a xlink:title=" ">
<path fill="none" stroke="#63b8ff" d="M687.7,-384.93C573.32,-342.75 75.93,-158.05 57,-129 36.98,-98.27 49.56,-53.14 59.13,-28.38"/>
<polygon fill="#63b8ff" stroke="#63b8ff" points="62.38,-29.7 62.95,-19.12 55.9,-27.03 62.38,-29.7"/>
</a>
</g>
</g>
<!-- Node37 -->
<g id="Node000037" class="node">
<title>Node37</title>
<g id="a_Node000037"><a xlink:href="exception__utils_8h.html" target="_top" xlink:title=" ">
<polygon fill="white" stroke="#666666" points="761,-349 661,-349 661,-330 761,-330 761,-349"/>
<text text-anchor="middle" x="711" y="-337" font-family="Helvetica,sans-Serif" font-size="10.00">exception_utils.h</text>
</a>
</g>
</g>
<!-- Node36&#45;&gt;Node37 -->
<g id="edge50_Node000036_Node000037" class="edge">
<title>Node36&#45;&gt;Node37</title>
<g id="a_edge50_Node000036_Node000037"><a xlink:title=" ">
<path fill="none" stroke="#63b8ff" d="M711,-384.75C711,-377.8 711,-367.85 711,-359.13"/>
<polygon fill="#63b8ff" stroke="#63b8ff" points="714.5,-359.09 711,-349.09 707.5,-359.09 714.5,-359.09"/>
</a>
</g>
</g>
<!-- Node36&#45;&gt;Node38 -->
<g id="edge54_Node000036_Node000038" class="edge">
<title>Node36&#45;&gt;Node38</title>
<g id="a_edge54_Node000036_Node000038"><a xlink:title=" ">
<path fill="none" stroke="#63b8ff" d="M730.6,-384.98C750.32,-376.42 780.95,-363.11 803.58,-353.28"/>
<polygon fill="#63b8ff" stroke="#63b8ff" points="805.26,-356.37 813.04,-349.17 802.48,-349.94 805.26,-356.37"/>
</a>
</g>
</g>
<!-- Node37&#45;&gt;Node3 -->
<g id="edge52_Node000037_Node000003" class="edge">
<title>Node37&#45;&gt;Node3</title>
<g id="a_edge52_Node000037_Node000003"><a xlink:title=" ">
<path fill="none" stroke="#63b8ff" d="M684.57,-329.88C665.99,-322.72 641.58,-310.94 625,-294 593.81,-262.15 549.68,-132.54 533.9,-83.99"/>
<polygon fill="#63b8ff" stroke="#63b8ff" points="537.14,-82.65 530.74,-74.2 530.48,-84.79 537.14,-82.65"/>
</a>
</g>
</g>
<!-- Node37&#45;&gt;Node6 -->
<g id="edge51_Node000037_Node000006" class="edge">
<title>Node37&#45;&gt;Node6</title>
<g id="a_edge51_Node000037_Node000006"><a xlink:title=" ">
<path fill="none" stroke="#63b8ff" d="M761.02,-330.53C844.23,-315.84 1002,-281.29 1002,-230.5 1002,-230.5 1002,-230.5 1002,-118.5 1002,-85.02 985.55,-48.84 974.3,-28.01"/>
<polygon fill="#63b8ff" stroke="#63b8ff" points="977.24,-26.1 969.28,-19.1 971.13,-29.53 977.24,-26.1"/>
</a>
</g>
</g>
<!-- Node37&#45;&gt;Node8 -->
<g id="edge53_Node000037_Node000008" class="edge">
<title>Node37&#45;&gt;Node8</title>
<g id="a_edge53_Node000037_Node000008"><a xlink:title=" ">
<path fill="none" stroke="#63b8ff" d="M715.29,-329.75C718.81,-322.57 723.91,-312.18 728.28,-303.27"/>
<polygon fill="#63b8ff" stroke="#63b8ff" points="731.52,-304.61 732.79,-294.09 725.24,-301.53 731.52,-304.61"/>
</a>
</g>
</g>
<!-- Node41&#45;&gt;Node3 -->
<g id="edge65_Node000041_Node000003" class="edge">
<title>Node41&#45;&gt;Node3</title>
<g id="a_edge65_Node000041_Node000003"><a xlink:title=" ">
<path fill="none" stroke="#63b8ff" d="M483.69,-604.76C431.29,-566.43 232.48,-409.1 302,-275 353.81,-175.05 443.25,-220.39 509,-129 518.55,-115.72 523.36,-97.6 525.74,-84.12"/>
<polygon fill="#63b8ff" stroke="#63b8ff" points="529.22,-84.49 527.22,-74.09 522.3,-83.47 529.22,-84.49"/>
</a>
</g>
</g>
<!-- Node41&#45;&gt;Node19 -->
<g id="edge71_Node000041_Node000019" class="edge">
<title>Node41&#45;&gt;Node19</title>
<g id="a_edge71_Node000041_Node000019"><a xlink:title=" ">
<path fill="none" stroke="#63b8ff" d="M532.62,-613.13C689.15,-609.43 1294,-573 1294,-230.5 1294,-230.5 1294,-230.5 1294,-118.5 1294,-70.85 1241.18,-39.15 1205.05,-23.04"/>
<polygon fill="#63b8ff" stroke="#63b8ff" points="1206.38,-19.8 1195.81,-19.09 1203.63,-26.24 1206.38,-19.8"/>
</a>
</g>
</g>
<!-- Node41&#45;&gt;Node32 -->
<g id="edge64_Node000041_Node000032" class="edge">
<title>Node41&#45;&gt;Node32</title>
<g id="a_edge64_Node000041_Node000032"><a xlink:title=" ">
<path fill="none" stroke="#63b8ff" d="M471.58,-604.98C446.28,-596.16 406.55,-582.31 378.14,-572.41"/>
<polygon fill="#63b8ff" stroke="#63b8ff" points="379.21,-569.07 368.61,-569.08 376.9,-575.68 379.21,-569.07"/>
</a>
</g>
</g>
<!-- Node41&#45;&gt;Node34 -->
<g id="edge63_Node000041_Node000034" class="edge">
<title>Node41&#45;&gt;Node34</title>
<g id="a_edge63_Node000041_Node000034"><a xlink:title=" ">
<path fill="none" stroke="#63b8ff" d="M496,-604.66C496,-587.17 496,-547.8 496,-524.27"/>
<polygon fill="#63b8ff" stroke="#63b8ff" points="499.5,-524.16 496,-514.16 492.5,-524.16 499.5,-524.16"/>
</a>
</g>
</g>
<!-- Node41&#45;&gt;Node36 -->
<g id="edge70_Node000041_Node000036" class="edge">
<title>Node41&#45;&gt;Node36</title>
<g id="a_edge70_Node000041_Node000036"><a xlink:title=" ">
<path fill="none" stroke="#63b8ff" d="M523.23,-604.99C574.44,-587.34 683.91,-541.33 728,-459 735.73,-444.57 729.46,-426.37 722.45,-413.16"/>
<polygon fill="#63b8ff" stroke="#63b8ff" points="725.25,-411.03 717.17,-404.18 719.22,-414.57 725.25,-411.03"/>
</a>
</g>
</g>
<!-- Node42 -->
<g id="Node000042" class="node">
<title>Node42</title>
<g id="a_Node000042"><a xlink:href="mp__arith_8h.html" target="_top" xlink:title=" ">
<polygon fill="white" stroke="#666666" points="1160.5,-129 1091.5,-129 1091.5,-110 1160.5,-110 1160.5,-129"/>
<text text-anchor="middle" x="1126" y="-117" font-family="Helvetica,sans-Serif" font-size="10.00">mp_arith.h</text>
</a>
</g>
</g>
<!-- Node41&#45;&gt;Node42 -->
<g id="edge66_Node000041_Node000042" class="edge">
<title>Node41&#45;&gt;Node42</title>
<g id="a_edge66_Node000041_Node000042"><a xlink:title=" ">
<path fill="none" stroke="#63b8ff" d="M532.69,-608.38C663.18,-589.17 1097,-516.2 1097,-395.5 1097,-395.5 1097,-395.5 1097,-228.5 1097,-195.95 1109.44,-159.71 1118.03,-138.57"/>
<polygon fill="#63b8ff" stroke="#63b8ff" points="1121.3,-139.82 1121.97,-129.25 1114.85,-137.09 1121.3,-139.82"/>
</a>
</g>
</g>
<!-- Node42&#45;&gt;Node6 -->
<g id="edge68_Node000042_Node000006" class="edge">
<title>Node42&#45;&gt;Node6</title>
<g id="a_edge68_Node000042_Node000006"><a xlink:title=" ">
<path fill="none" stroke="#63b8ff" d="M1149.89,-109.86C1177.68,-98.51 1217.54,-77.38 1199,-55 1173.63,-24.37 1054.62,-14.66 996.34,-11.72"/>
<polygon fill="#63b8ff" stroke="#63b8ff" points="996.35,-8.21 986.2,-11.24 996.02,-15.21 996.35,-8.21"/>
</a>
</g>
</g>
<!-- Node42&#45;&gt;Node14 -->
<g id="edge67_Node000042_Node000014" class="edge">
<title>Node42&#45;&gt;Node14</title>
<g id="a_edge67_Node000042_Node000014"><a xlink:title=" ">
<path fill="none" stroke="#63b8ff" d="M1114.43,-109.98C1103.58,-102 1087.12,-89.88 1074.12,-80.31"/>
<polygon fill="#63b8ff" stroke="#63b8ff" points="1075.91,-77.28 1065.78,-74.17 1071.76,-82.92 1075.91,-77.28"/>
</a>
</g>
</g>
<!-- Node43 -->
<g id="Node000043" class="node">
<title>Node43</title>
<g id="a_Node000043"><a xlink:title=" ">
<polygon fill="#e0e0e0" stroke="#999999" points="1190,-74 1096,-74 1096,-55 1190,-55 1190,-74"/>
<text text-anchor="middle" x="1143" y="-62" font-family="Helvetica,sans-Serif" font-size="10.00">big&#45;int/bigint.hh</text>
</a>
</g>
</g>
<!-- Node42&#45;&gt;Node43 -->
<g id="edge69_Node000042_Node000043" class="edge">
<title>Node42&#45;&gt;Node43</title>
<g id="a_edge69_Node000042_Node000043"><a xlink:title=" ">
<path fill="none" stroke="#63b8ff" d="M1128.81,-109.75C1131.06,-102.72 1134.3,-92.62 1137.12,-83.84"/>
<polygon fill="#63b8ff" stroke="#63b8ff" points="1140.52,-84.68 1140.25,-74.09 1133.86,-82.54 1140.52,-84.68"/>
</a>
</g>
</g>
</g>
</svg>
