<?xml version="1.0" encoding="UTF-8" standalone="no"?>
<!DOCTYPE svg PUBLIC "-//W3C//DTD SVG 1.1//EN"
 "http://www.w3.org/Graphics/SVG/1.1/DTD/svg11.dtd">
<!-- Generated by graphviz version 2.43.0 (0)
 -->
<!-- Title: /home/runner/work/cbmc/cbmc/src/util/endianness_map.cpp Pages: 1 -->
<svg width="943pt" height="654pt"
 viewBox="0.00 0.00 943.09 654.00" xmlns="http://www.w3.org/2000/svg" xmlns:xlink="http://www.w3.org/1999/xlink">
<g id="graph0" class="graph" transform="scale(1 1) rotate(0) translate(4 650)">
<title>/home/runner/work/cbmc/cbmc/src/util/endianness_map.cpp</title>
<!-- Node1 -->
<g id="Node000001" class="node">
<title>Node1</title>
<g id="a_Node000001"><a xlink:title=" ">
<polygon fill="#999999" stroke="#666666" points="853,-646 713,-646 713,-605 853,-605 853,-646"/>
<text text-anchor="start" x="721" y="-634" font-family="Helvetica,sans-Serif" font-size="10.00">/home/runner/work/cbmc</text>
<text text-anchor="start" x="721" y="-623" font-family="Helvetica,sans-Serif" font-size="10.00">/cbmc/src/util/endianness</text>
<text text-anchor="middle" x="783" y="-612" font-family="Helvetica,sans-Serif" font-size="10.00">_map.cpp</text>
</a>
</g>
</g>
<!-- Node2 -->
<g id="Node000002" class="node">
<title>Node2</title>
<g id="a_Node000002"><a xlink:href="endianness__map_8h.html" target="_top" xlink:title=" ">
<polygon fill="white" stroke="#666666" points="539,-129 431,-129 431,-110 539,-110 539,-129"/>
<text text-anchor="middle" x="485" y="-117" font-family="Helvetica,sans-Serif" font-size="10.00">endianness_map.h</text>
</a>
</g>
</g>
<!-- Node1&#45;&gt;Node2 -->
<g id="edge1_Node000001_Node000002" class="edge">
<title>Node1&#45;&gt;Node2</title>
<g id="a_edge1_Node000001_Node000002"><a xlink:title=" ">
<path fill="none" stroke="#63b8ff" d="M782.1,-604.63C778.12,-540.14 756.97,-334.21 647,-220 615.68,-187.47 590.25,-208 552,-184 531.32,-171.02 511.52,-151 498.88,-136.91"/>
<polygon fill="#63b8ff" stroke="#63b8ff" points="501.21,-134.25 491.99,-129.02 495.93,-138.86 501.21,-134.25"/>
</a>
</g>
</g>
<!-- Node10 -->
<g id="Node000010" class="node">
<title>Node10</title>
<g id="a_Node000010"><a xlink:title=" ">
<polygon fill="#e0e0e0" stroke="#999999" points="925.5,-569 868.5,-569 868.5,-550 925.5,-550 925.5,-569"/>
<text text-anchor="middle" x="897" y="-557" font-family="Helvetica,sans-Serif" font-size="10.00">ostream</text>
</a>
</g>
</g>
<!-- Node1&#45;&gt;Node10 -->
<g id="edge9_Node000001_Node000010" class="edge">
<title>Node1&#45;&gt;Node10</title>
<g id="a_edge9_Node000001_Node000010"><a xlink:title=" ">
<path fill="none" stroke="#63b8ff" d="M817.82,-604.95C835.67,-594.93 856.95,-582.99 872.95,-574"/>
<polygon fill="#63b8ff" stroke="#63b8ff" points="874.69,-577.04 881.7,-569.09 871.26,-570.94 874.69,-577.04"/>
</a>
</g>
</g>
<!-- Node11 -->
<g id="Node000011" class="node">
<title>Node11</title>
<g id="a_Node000011"><a xlink:href="arith__tools_8h.html" target="_top" xlink:title=" ">
<polygon fill="white" stroke="#666666" points="310.5,-514 233.5,-514 233.5,-495 310.5,-495 310.5,-514"/>
<text text-anchor="middle" x="272" y="-502" font-family="Helvetica,sans-Serif" font-size="10.00">arith_tools.h</text>
</a>
</g>
</g>
<!-- Node1&#45;&gt;Node11 -->
<g id="edge10_Node000001_Node000011" class="edge">
<title>Node1&#45;&gt;Node11</title>
<g id="a_edge10_Node000001_Node000011"><a xlink:title=" ">
<path fill="none" stroke="#63b8ff" d="M712.75,-608.14C606.73,-583.45 408.67,-537.33 318.66,-516.37"/>
<polygon fill="#63b8ff" stroke="#63b8ff" points="319.28,-512.92 308.75,-514.06 317.69,-519.73 319.28,-512.92"/>
</a>
</g>
</g>
<!-- Node46 -->
<g id="Node000046" class="node">
<title>Node46</title>
<g id="a_Node000046"><a xlink:href="c__types_8h.html" target="_top" xlink:title=" ">
<polygon fill="white" stroke="#666666" points="735.5,-569 672.5,-569 672.5,-550 735.5,-550 735.5,-569"/>
<text text-anchor="middle" x="704" y="-557" font-family="Helvetica,sans-Serif" font-size="10.00">c_types.h</text>
</a>
</g>
</g>
<!-- Node1&#45;&gt;Node46 -->
<g id="edge51_Node000001_Node000046" class="edge">
<title>Node1&#45;&gt;Node46</title>
<g id="a_edge51_Node000001_Node000046"><a xlink:title=" ">
<path fill="none" stroke="#63b8ff" d="M758.87,-604.95C747.27,-595.55 733.57,-584.46 722.77,-575.7"/>
<polygon fill="#63b8ff" stroke="#63b8ff" points="724.79,-572.84 714.81,-569.26 720.38,-578.27 724.79,-572.84"/>
</a>
</g>
</g>
<!-- Node49 -->
<g id="Node000049" class="node">
<title>Node49</title>
<g id="a_Node000049"><a xlink:href="namespace_8h.html" target="_top" xlink:title=" ">
<polygon fill="white" stroke="#666666" points="652,-184 570,-184 570,-165 652,-165 652,-184"/>
<text text-anchor="middle" x="611" y="-172" font-family="Helvetica,sans-Serif" font-size="10.00">namespace.h</text>
</a>
</g>
</g>
<!-- Node1&#45;&gt;Node49 -->
<g id="edge57_Node000001_Node000049" class="edge">
<title>Node1&#45;&gt;Node49</title>
<g id="a_edge57_Node000001_Node000049"><a xlink:title=" ">
<path fill="none" stroke="#63b8ff" d="M788.09,-604.86C793.72,-581.39 802,-540.86 802,-505.5 802,-505.5 802,-505.5 802,-283.5 802,-248.18 701.76,-207.35 646.52,-187.54"/>
<polygon fill="#63b8ff" stroke="#63b8ff" points="647.35,-184.12 636.76,-184.09 645.02,-190.72 647.35,-184.12"/>
</a>
</g>
</g>
<!-- Node50 -->
<g id="Node000050" class="node">
<title>Node50</title>
<g id="a_Node000050"><a xlink:href="pointer__offset__size_8h.html" target="_top" xlink:title="Pointer Logic.">
<polygon fill="white" stroke="#666666" points="908,-184 790,-184 790,-165 908,-165 908,-184"/>
<text text-anchor="middle" x="849" y="-172" font-family="Helvetica,sans-Serif" font-size="10.00">pointer_offset_size.h</text>
</a>
</g>
</g>
<!-- Node1&#45;&gt;Node50 -->
<g id="edge60_Node000001_Node000050" class="edge">
<title>Node1&#45;&gt;Node50</title>
<g id="a_edge60_Node000001_Node000050"><a xlink:title=" ">
<path fill="none" stroke="#63b8ff" d="M799.18,-604.82C816.03,-582.27 840,-543.53 840,-505.5 840,-505.5 840,-505.5 840,-283.5 840,-252.08 843.83,-215.7 846.49,-194.2"/>
<polygon fill="#63b8ff" stroke="#63b8ff" points="849.98,-194.52 847.79,-184.16 843.04,-193.63 849.98,-194.52"/>
</a>
</g>
</g>
<!-- Node3 -->
<g id="Node000003" class="node">
<title>Node3</title>
<g id="a_Node000003"><a xlink:title=" ">
<polygon fill="#e0e0e0" stroke="#999999" points="797,-74 749,-74 749,-55 797,-55 797,-74"/>
<text text-anchor="middle" x="773" y="-62" font-family="Helvetica,sans-Serif" font-size="10.00">iosfwd</text>
</a>
</g>
</g>
<!-- Node2&#45;&gt;Node3 -->
<g id="edge2_Node000002_Node000003" class="edge">
<title>Node2&#45;&gt;Node3</title>
<g id="a_edge2_Node000002_Node000003"><a xlink:title=" ">
<path fill="none" stroke="#63b8ff" d="M531.27,-109.98C589.29,-99.31 687.37,-81.26 738.96,-71.76"/>
<polygon fill="#63b8ff" stroke="#63b8ff" points="739.73,-75.18 748.93,-69.93 738.46,-68.3 739.73,-75.18"/>
</a>
</g>
</g>
<!-- Node4 -->
<g id="Node000004" class="node">
<title>Node4</title>
<g id="a_Node000004"><a xlink:title=" ">
<polygon fill="#e0e0e0" stroke="#999999" points="581.5,-74 534.5,-74 534.5,-55 581.5,-55 581.5,-74"/>
<text text-anchor="middle" x="558" y="-62" font-family="Helvetica,sans-Serif" font-size="10.00">vector</text>
</a>
</g>
</g>
<!-- Node2&#45;&gt;Node4 -->
<g id="edge3_Node000002_Node000004" class="edge">
<title>Node2&#45;&gt;Node4</title>
<g id="a_edge3_Node000002_Node000004"><a xlink:title=" ">
<path fill="none" stroke="#63b8ff" d="M496.73,-109.98C507.73,-102 524.42,-89.88 537.6,-80.31"/>
<polygon fill="#63b8ff" stroke="#63b8ff" points="540.02,-82.88 546.06,-74.17 535.91,-77.21 540.02,-82.88"/>
</a>
</g>
</g>
<!-- Node5 -->
<g id="Node000005" class="node">
<title>Node5</title>
<g id="a_Node000005"><a xlink:href="src_2util_2invariant_8h.html" target="_top" xlink:title=" ">
<polygon fill="white" stroke="#666666" points="314.5,-74 245.5,-74 245.5,-55 314.5,-55 314.5,-74"/>
<text text-anchor="middle" x="280" y="-62" font-family="Helvetica,sans-Serif" font-size="10.00">invariant.h</text>
</a>
</g>
</g>
<!-- Node2&#45;&gt;Node5 -->
<g id="edge4_Node000002_Node000005" class="edge">
<title>Node2&#45;&gt;Node5</title>
<g id="a_edge4_Node000002_Node000005"><a xlink:title=" ">
<path fill="none" stroke="#63b8ff" d="M452.06,-109.98C417.05,-100.93 361.53,-86.58 323.07,-76.64"/>
<polygon fill="#63b8ff" stroke="#63b8ff" points="323.75,-73.2 313.19,-74.08 322,-79.97 323.75,-73.2"/>
</a>
</g>
</g>
<!-- Node6 -->
<g id="Node000006" class="node">
<title>Node6</title>
<g id="a_Node000006"><a xlink:title=" ">
<polygon fill="#e0e0e0" stroke="#999999" points="304.5,-19 255.5,-19 255.5,0 304.5,0 304.5,-19"/>
<text text-anchor="middle" x="280" y="-7" font-family="Helvetica,sans-Serif" font-size="10.00">cstdlib</text>
</a>
</g>
</g>
<!-- Node5&#45;&gt;Node6 -->
<g id="edge5_Node000005_Node000006" class="edge">
<title>Node5&#45;&gt;Node6</title>
<g id="a_edge5_Node000005_Node000006"><a xlink:title=" ">
<path fill="none" stroke="#63b8ff" d="M280,-54.75C280,-47.8 280,-37.85 280,-29.13"/>
<polygon fill="#63b8ff" stroke="#63b8ff" points="283.5,-29.09 280,-19.09 276.5,-29.09 283.5,-29.09"/>
</a>
</g>
</g>
<!-- Node7 -->
<g id="Node000007" class="node">
<title>Node7</title>
<g id="a_Node000007"><a xlink:title=" ">
<polygon fill="#e0e0e0" stroke="#999999" points="379,-19 323,-19 323,0 379,0 379,-19"/>
<text text-anchor="middle" x="351" y="-7" font-family="Helvetica,sans-Serif" font-size="10.00">sstream</text>
</a>
</g>
</g>
<!-- Node5&#45;&gt;Node7 -->
<g id="edge6_Node000005_Node000007" class="edge">
<title>Node5&#45;&gt;Node7</title>
<g id="a_edge6_Node000005_Node000007"><a xlink:title=" ">
<path fill="none" stroke="#63b8ff" d="M291.41,-54.98C302.11,-47 318.34,-34.88 331.16,-25.31"/>
<polygon fill="#63b8ff" stroke="#63b8ff" points="333.47,-27.96 339.39,-19.17 329.28,-22.35 333.47,-27.96"/>
</a>
</g>
</g>
<!-- Node8 -->
<g id="Node000008" class="node">
<title>Node8</title>
<g id="a_Node000008"><a xlink:title=" ">
<polygon fill="#e0e0e0" stroke="#999999" points="721,-19 677,-19 677,0 721,0 721,-19"/>
<text text-anchor="middle" x="699" y="-7" font-family="Helvetica,sans-Serif" font-size="10.00">string</text>
</a>
</g>
</g>
<!-- Node5&#45;&gt;Node8 -->
<g id="edge7_Node000005_Node000008" class="edge">
<title>Node5&#45;&gt;Node8</title>
<g id="a_edge7_Node000005_Node000008"><a xlink:title=" ">
<path fill="none" stroke="#63b8ff" d="M314.65,-59.12C394.23,-49.05 589.2,-24.39 666.58,-14.6"/>
<polygon fill="#63b8ff" stroke="#63b8ff" points="667.21,-18.05 676.7,-13.32 666.34,-11.1 667.21,-18.05"/>
</a>
</g>
</g>
<!-- Node9 -->
<g id="Node000009" class="node">
<title>Node9</title>
<g id="a_Node000009"><a xlink:title=" ">
<polygon fill="#e0e0e0" stroke="#999999" points="237.5,-19 168.5,-19 168.5,0 237.5,0 237.5,-19"/>
<text text-anchor="middle" x="203" y="-7" font-family="Helvetica,sans-Serif" font-size="10.00">type_traits</text>
</a>
</g>
</g>
<!-- Node5&#45;&gt;Node9 -->
<g id="edge8_Node000005_Node000009" class="edge">
<title>Node5&#45;&gt;Node9</title>
<g id="a_edge8_Node000005_Node000009"><a xlink:title=" ">
<path fill="none" stroke="#63b8ff" d="M267.63,-54.98C255.91,-46.92 238.08,-34.65 224.11,-25.03"/>
<polygon fill="#63b8ff" stroke="#63b8ff" points="225.82,-21.96 215.6,-19.17 221.85,-27.72 225.82,-21.96"/>
</a>
</g>
</g>
<!-- Node11&#45;&gt;Node5 -->
<g id="edge11_Node000011_Node000005" class="edge">
<title>Node11&#45;&gt;Node5</title>
<g id="a_edge11_Node000011_Node000005"><a xlink:title=" ">
<path fill="none" stroke="#63b8ff" d="M233.32,-496.52C158.22,-481.87 0,-445.1 0,-395.5 0,-395.5 0,-395.5 0,-228.5 0,-162.37 34.52,-146 90,-110 134.05,-81.41 194.42,-71.13 235.19,-67.46"/>
<polygon fill="#63b8ff" stroke="#63b8ff" points="235.68,-70.94 245.37,-66.65 235.12,-63.96 235.68,-70.94"/>
</a>
</g>
</g>
<!-- Node12 -->
<g id="Node000012" class="node">
<title>Node12</title>
<g id="a_Node000012"><a xlink:href="mp__arith_8h.html" target="_top" xlink:title=" ">
<polygon fill="white" stroke="#666666" points="930.5,-129 861.5,-129 861.5,-110 930.5,-110 930.5,-129"/>
<text text-anchor="middle" x="896" y="-117" font-family="Helvetica,sans-Serif" font-size="10.00">mp_arith.h</text>
</a>
</g>
</g>
<!-- Node11&#45;&gt;Node12 -->
<g id="edge12_Node000011_Node000012" class="edge">
<title>Node11&#45;&gt;Node12</title>
<g id="a_edge12_Node000011_Node000012"><a xlink:title=" ">
<path fill="none" stroke="#63b8ff" d="M308.81,-494.97C341.94,-486.92 391.77,-473.88 434,-459 607.65,-397.79 653.21,-383.71 814,-294 876.9,-258.91 910.73,-252.49 933,-184 935.61,-175.97 935.87,-172.94 933,-165 929.06,-154.09 921.14,-143.96 913.64,-136.14"/>
<polygon fill="#63b8ff" stroke="#63b8ff" points="916.05,-133.6 906.44,-129.13 911.16,-138.61 916.05,-133.6"/>
</a>
</g>
</g>
<!-- Node14 -->
<g id="Node000014" class="node">
<title>Node14</title>
<g id="a_Node000014"><a xlink:href="std__expr_8h.html" target="_top" xlink:title="API to expression classes.">
<polygon fill="white" stroke="#666666" points="305.5,-459 238.5,-459 238.5,-440 305.5,-440 305.5,-459"/>
<text text-anchor="middle" x="272" y="-447" font-family="Helvetica,sans-Serif" font-size="10.00">std_expr.h</text>
</a>
</g>
</g>
<!-- Node11&#45;&gt;Node14 -->
<g id="edge16_Node000011_Node000014" class="edge">
<title>Node11&#45;&gt;Node14</title>
<g id="a_edge16_Node000011_Node000014"><a xlink:title=" ">
<path fill="none" stroke="#63b8ff" d="M272,-494.75C272,-487.8 272,-477.85 272,-469.13"/>
<polygon fill="#63b8ff" stroke="#63b8ff" points="275.5,-469.09 272,-459.09 268.5,-469.09 275.5,-469.09"/>
</a>
</g>
</g>
<!-- Node45 -->
<g id="Node000045" class="node">
<title>Node45</title>
<g id="a_Node000045"><a xlink:title=" ">
<polygon fill="#e0e0e0" stroke="#999999" points="220,-459 176,-459 176,-440 220,-440 220,-459"/>
<text text-anchor="middle" x="198" y="-447" font-family="Helvetica,sans-Serif" font-size="10.00">limits</text>
</a>
</g>
</g>
<!-- Node11&#45;&gt;Node45 -->
<g id="edge50_Node000011_Node000045" class="edge">
<title>Node11&#45;&gt;Node45</title>
<g id="a_edge50_Node000011_Node000045"><a xlink:title=" ">
<path fill="none" stroke="#63b8ff" d="M260.11,-494.98C248.85,-486.92 231.71,-474.65 218.29,-465.03"/>
<polygon fill="#63b8ff" stroke="#63b8ff" points="220.27,-462.15 210.11,-459.17 216.2,-467.84 220.27,-462.15"/>
</a>
</g>
</g>
<!-- Node12&#45;&gt;Node3 -->
<g id="edge13_Node000012_Node000003" class="edge">
<title>Node12&#45;&gt;Node3</title>
<g id="a_edge13_Node000012_Node000003"><a xlink:title=" ">
<path fill="none" stroke="#63b8ff" d="M876.24,-109.98C856.27,-101.38 825.2,-87.99 802.35,-78.15"/>
<polygon fill="#63b8ff" stroke="#63b8ff" points="803.69,-74.91 793.12,-74.17 800.92,-81.34 803.69,-74.91"/>
</a>
</g>
</g>
<!-- Node12&#45;&gt;Node8 -->
<g id="edge14_Node000012_Node000008" class="edge">
<title>Node12&#45;&gt;Node8</title>
<g id="a_edge14_Node000012_Node000008"><a xlink:title=" ">
<path fill="none" stroke="#63b8ff" d="M903.82,-109.77C914.65,-96.6 931.44,-71.44 918,-55 894.81,-26.62 786.6,-15.9 731.46,-12.22"/>
<polygon fill="#63b8ff" stroke="#63b8ff" points="731.39,-8.71 721.19,-11.58 730.95,-15.7 731.39,-8.71"/>
</a>
</g>
</g>
<!-- Node13 -->
<g id="Node000013" class="node">
<title>Node13</title>
<g id="a_Node000013"><a xlink:title=" ">
<polygon fill="#e0e0e0" stroke="#999999" points="909,-74 815,-74 815,-55 909,-55 909,-74"/>
<text text-anchor="middle" x="862" y="-62" font-family="Helvetica,sans-Serif" font-size="10.00">big&#45;int/bigint.hh</text>
</a>
</g>
</g>
<!-- Node12&#45;&gt;Node13 -->
<g id="edge15_Node000012_Node000013" class="edge">
<title>Node12&#45;&gt;Node13</title>
<g id="a_edge15_Node000012_Node000013"><a xlink:title=" ">
<path fill="none" stroke="#63b8ff" d="M890.39,-109.75C885.68,-102.42 878.83,-91.73 873.03,-82.7"/>
<polygon fill="#63b8ff" stroke="#63b8ff" points="875.86,-80.62 867.51,-74.09 869.96,-84.4 875.86,-80.62"/>
</a>
</g>
</g>
<!-- Node14&#45;&gt;Node5 -->
<g id="edge42_Node000014_Node000005" class="edge">
<title>Node14&#45;&gt;Node5</title>
<g id="a_edge42_Node000014_Node000005"><a xlink:title=" ">
<path fill="none" stroke="#63b8ff" d="M245.16,-439.9C191.48,-421.87 76,-378.67 76,-340.5 76,-340.5 76,-340.5 76,-173.5 76,-101.9 175.36,-77.64 235.4,-69.51"/>
<polygon fill="#63b8ff" stroke="#63b8ff" points="235.91,-72.97 245.39,-68.26 235.04,-66.03 235.91,-72.97"/>
</a>
</g>
</g>
<!-- Node15 -->
<g id="Node000015" class="node">
<title>Node15</title>
<g id="a_Node000015"><a xlink:href="expr__cast_8h.html" target="_top" xlink:title="Templated functions to cast to specific exprt&#45;derived classes.">
<polygon fill="white" stroke="#666666" points="237.5,-349 164.5,-349 164.5,-330 237.5,-330 237.5,-349"/>
<text text-anchor="middle" x="201" y="-337" font-family="Helvetica,sans-Serif" font-size="10.00">expr_cast.h</text>
</a>
</g>
</g>
<!-- Node14&#45;&gt;Node15 -->
<g id="edge17_Node000014_Node000015" class="edge">
<title>Node14&#45;&gt;Node15</title>
<g id="a_edge17_Node000014_Node000015"><a xlink:title=" ">
<path fill="none" stroke="#63b8ff" d="M266.19,-439.66C254.43,-421.77 227.63,-381 212.3,-357.69"/>
<polygon fill="#63b8ff" stroke="#63b8ff" points="215.11,-355.59 206.69,-349.16 209.26,-359.44 215.11,-355.59"/>
</a>
</g>
</g>
<!-- Node44 -->
<g id="Node000044" class="node">
<title>Node44</title>
<g id="a_Node000044"><a xlink:href="std__types_8h.html" target="_top" xlink:title="Pre&#45;defined types.">
<polygon fill="white" stroke="#666666" points="359.5,-404 286.5,-404 286.5,-385 359.5,-385 359.5,-404"/>
<text text-anchor="middle" x="323" y="-392" font-family="Helvetica,sans-Serif" font-size="10.00">std_types.h</text>
</a>
</g>
</g>
<!-- Node14&#45;&gt;Node44 -->
<g id="edge43_Node000014_Node000044" class="edge">
<title>Node14&#45;&gt;Node44</title>
<g id="a_edge43_Node000014_Node000044"><a xlink:title=" ">
<path fill="none" stroke="#63b8ff" d="M280.42,-439.75C287.77,-432.11 298.63,-420.82 307.54,-411.56"/>
<polygon fill="#63b8ff" stroke="#63b8ff" points="310.32,-413.72 314.74,-404.09 305.28,-408.87 310.32,-413.72"/>
</a>
</g>
</g>
<!-- Node15&#45;&gt;Node5 -->
<g id="edge21_Node000015_Node000005" class="edge">
<title>Node15&#45;&gt;Node5</title>
<g id="a_edge21_Node000015_Node000005"><a xlink:title=" ">
<path fill="none" stroke="#63b8ff" d="M180.63,-329.9C165.42,-322.5 145.23,-310.4 133,-294 115.38,-270.39 114,-259.96 114,-230.5 114,-230.5 114,-230.5 114,-173.5 114,-143.33 116.06,-130.71 138,-110 164.33,-85.14 204.39,-74.17 235.26,-69.32"/>
<polygon fill="#63b8ff" stroke="#63b8ff" points="235.93,-72.76 245.34,-67.9 234.95,-65.83 235.93,-72.76"/>
</a>
</g>
</g>
<!-- Node15&#45;&gt;Node9 -->
<g id="edge19_Node000015_Node000009" class="edge">
<title>Node15&#45;&gt;Node9</title>
<g id="a_edge19_Node000015_Node000009"><a xlink:title=" ">
<path fill="none" stroke="#63b8ff" d="M176.32,-329.91C158.34,-322.63 134.36,-310.71 118,-294 58.2,-232.92 22.67,-185.89 62,-110 84.52,-66.54 135.72,-38.03 169.83,-23.08"/>
<polygon fill="#63b8ff" stroke="#63b8ff" points="171.53,-26.17 179.38,-19.05 168.81,-19.72 171.53,-26.17"/>
</a>
</g>
</g>
<!-- Node16 -->
<g id="Node000016" class="node">
<title>Node16</title>
<g id="a_Node000016"><a xlink:title=" ">
<polygon fill="#e0e0e0" stroke="#999999" points="199.5,-294 142.5,-294 142.5,-275 199.5,-275 199.5,-294"/>
<text text-anchor="middle" x="171" y="-282" font-family="Helvetica,sans-Serif" font-size="10.00">typeinfo</text>
</a>
</g>
</g>
<!-- Node15&#45;&gt;Node16 -->
<g id="edge18_Node000015_Node000016" class="edge">
<title>Node15&#45;&gt;Node16</title>
<g id="a_edge18_Node000015_Node000016"><a xlink:title=" ">
<path fill="none" stroke="#63b8ff" d="M196.05,-329.75C191.94,-322.49 185.97,-311.95 180.9,-302.98"/>
<polygon fill="#63b8ff" stroke="#63b8ff" points="183.83,-301.07 175.86,-294.09 177.74,-304.52 183.83,-301.07"/>
</a>
</g>
</g>
<!-- Node17 -->
<g id="Node000017" class="node">
<title>Node17</title>
<g id="a_Node000017"><a xlink:title=" ">
<polygon fill="#e0e0e0" stroke="#999999" points="283.5,-239 218.5,-239 218.5,-220 283.5,-220 283.5,-239"/>
<text text-anchor="middle" x="251" y="-227" font-family="Helvetica,sans-Serif" font-size="10.00">functional</text>
</a>
</g>
</g>
<!-- Node15&#45;&gt;Node17 -->
<g id="edge20_Node000015_Node000017" class="edge">
<title>Node15&#45;&gt;Node17</title>
<g id="a_edge20_Node000015_Node000017"><a xlink:title=" ">
<path fill="none" stroke="#63b8ff" d="M205.09,-329.66C213.3,-311.93 231.91,-271.73 242.75,-248.32"/>
<polygon fill="#63b8ff" stroke="#63b8ff" points="245.97,-249.7 246.99,-239.16 239.61,-246.76 245.97,-249.7"/>
</a>
</g>
</g>
<!-- Node18 -->
<g id="Node000018" class="node">
<title>Node18</title>
<g id="a_Node000018"><a xlink:href="expr_8h.html" target="_top" xlink:title=" ">
<polygon fill="white" stroke="#666666" points="403.5,-294 356.5,-294 356.5,-275 403.5,-275 403.5,-294"/>
<text text-anchor="middle" x="380" y="-282" font-family="Helvetica,sans-Serif" font-size="10.00">expr.h</text>
</a>
</g>
</g>
<!-- Node15&#45;&gt;Node18 -->
<g id="edge22_Node000015_Node000018" class="edge">
<title>Node15&#45;&gt;Node18</title>
<g id="a_edge22_Node000015_Node000018"><a xlink:title=" ">
<path fill="none" stroke="#63b8ff" d="M229.76,-329.98C261.64,-320.54 313,-305.34 346.63,-295.38"/>
<polygon fill="#63b8ff" stroke="#63b8ff" points="347.86,-298.67 356.46,-292.47 345.87,-291.95 347.86,-298.67"/>
</a>
</g>
</g>
<!-- Node18&#45;&gt;Node17 -->
<g id="edge41_Node000018_Node000017" class="edge">
<title>Node18&#45;&gt;Node17</title>
<g id="a_edge41_Node000018_Node000017"><a xlink:title=" ">
<path fill="none" stroke="#63b8ff" d="M359.27,-274.98C338.24,-266.34 305.45,-252.87 281.46,-243.02"/>
<polygon fill="#63b8ff" stroke="#63b8ff" points="282.68,-239.73 272.1,-239.17 280.02,-246.21 282.68,-239.73"/>
</a>
</g>
</g>
<!-- Node19 -->
<g id="Node000019" class="node">
<title>Node19</title>
<g id="a_Node000019"><a xlink:href="as__const_8h.html" target="_top" xlink:title=" ">
<polygon fill="white" stroke="#666666" points="556,-239 488,-239 488,-220 556,-220 556,-239"/>
<text text-anchor="middle" x="522" y="-227" font-family="Helvetica,sans-Serif" font-size="10.00">as_const.h</text>
</a>
</g>
</g>
<!-- Node18&#45;&gt;Node19 -->
<g id="edge23_Node000018_Node000019" class="edge">
<title>Node18&#45;&gt;Node19</title>
<g id="a_edge23_Node000018_Node000019"><a xlink:title=" ">
<path fill="none" stroke="#63b8ff" d="M402.81,-274.98C426.17,-266.27 462.7,-252.63 489.17,-242.75"/>
<polygon fill="#63b8ff" stroke="#63b8ff" points="490.63,-245.95 498.77,-239.17 488.18,-239.39 490.63,-245.95"/>
</a>
</g>
</g>
<!-- Node20 -->
<g id="Node000020" class="node">
<title>Node20</title>
<g id="a_Node000020"><a xlink:href="type_8h.html" target="_top" xlink:title="Defines typet, type_with_subtypet and type_with_subtypest.">
<polygon fill="white" stroke="#666666" points="621.5,-239 574.5,-239 574.5,-220 621.5,-220 621.5,-239"/>
<text text-anchor="middle" x="598" y="-227" font-family="Helvetica,sans-Serif" font-size="10.00">type.h</text>
</a>
</g>
</g>
<!-- Node18&#45;&gt;Node20 -->
<g id="edge24_Node000018_Node000020" class="edge">
<title>Node18&#45;&gt;Node20</title>
<g id="a_edge24_Node000018_Node000020"><a xlink:title=" ">
<path fill="none" stroke="#63b8ff" d="M403.68,-277.93C437.18,-270.03 500.56,-254.97 564.39,-239.12"/>
<polygon fill="#63b8ff" stroke="#63b8ff" points="565.36,-242.49 574.22,-236.67 563.67,-235.69 565.36,-242.49"/>
</a>
</g>
</g>
<!-- Node41 -->
<g id="Node000041" class="node">
<title>Node41</title>
<g id="a_Node000041"><a xlink:href="validation__mode_8h.html" target="_top" xlink:title=" ">
<polygon fill="white" stroke="#666666" points="365.5,-129 258.5,-129 258.5,-110 365.5,-110 365.5,-129"/>
<text text-anchor="middle" x="312" y="-117" font-family="Helvetica,sans-Serif" font-size="10.00">validation_mode.h</text>
</a>
</g>
</g>
<!-- Node18&#45;&gt;Node41 -->
<g id="edge40_Node000018_Node000041" class="edge">
<title>Node18&#45;&gt;Node41</title>
<g id="a_edge40_Node000018_Node000041"><a xlink:title=" ">
<path fill="none" stroke="#63b8ff" d="M366.73,-274.96C355.59,-267.04 340.21,-254.2 332,-239 314.71,-206.99 311.7,-163.6 311.53,-139.19"/>
<polygon fill="#63b8ff" stroke="#63b8ff" points="315.03,-139.17 311.62,-129.14 308.03,-139.11 315.03,-139.17"/>
</a>
</g>
</g>
<!-- Node42 -->
<g id="Node000042" class="node">
<title>Node42</title>
<g id="a_Node000042"><a xlink:href="validate__types_8h.html" target="_top" xlink:title=" ">
<polygon fill="white" stroke="#666666" points="476,-184 378,-184 378,-165 476,-165 476,-184"/>
<text text-anchor="middle" x="427" y="-172" font-family="Helvetica,sans-Serif" font-size="10.00">validate_types.h</text>
</a>
</g>
</g>
<!-- Node18&#45;&gt;Node42 -->
<g id="edge39_Node000018_Node000042" class="edge">
<title>Node18&#45;&gt;Node42</title>
<g id="a_edge39_Node000018_Node000042"><a xlink:title=" ">
<path fill="none" stroke="#63b8ff" d="M403.69,-283.01C460.53,-281.27 602.07,-273.51 631,-239 636.42,-232.53 636.3,-226.58 631,-220 621.82,-208.6 542.98,-193.87 486.07,-184.55"/>
<polygon fill="#63b8ff" stroke="#63b8ff" points="486.5,-181.07 476.07,-182.93 485.38,-187.98 486.5,-181.07"/>
</a>
</g>
</g>
<!-- Node43 -->
<g id="Node000043" class="node">
<title>Node43</title>
<g id="a_Node000043"><a xlink:href="validate__expressions_8h.html" target="_top" xlink:title=" ">
<polygon fill="white" stroke="#666666" points="469.5,-239 340.5,-239 340.5,-220 469.5,-220 469.5,-239"/>
<text text-anchor="middle" x="405" y="-227" font-family="Helvetica,sans-Serif" font-size="10.00">validate_expressions.h</text>
</a>
</g>
</g>
<!-- Node18&#45;&gt;Node43 -->
<g id="edge38_Node000018_Node000043" class="edge">
<title>Node18&#45;&gt;Node43</title>
<g id="a_edge38_Node000018_Node000043"><a xlink:title=" ">
<path fill="none" stroke="#63b8ff" d="M384.13,-274.75C387.51,-267.57 392.42,-257.18 396.62,-248.27"/>
<polygon fill="#63b8ff" stroke="#63b8ff" points="399.85,-249.63 400.95,-239.09 393.52,-246.64 399.85,-249.63"/>
</a>
</g>
</g>
<!-- Node21 -->
<g id="Node000021" class="node">
<title>Node21</title>
<g id="a_Node000021"><a xlink:href="source__location_8h.html" target="_top" xlink:title=" ">
<polygon fill="white" stroke="#666666" points="772,-184 670,-184 670,-165 772,-165 772,-184"/>
<text text-anchor="middle" x="721" y="-172" font-family="Helvetica,sans-Serif" font-size="10.00">source_location.h</text>
</a>
</g>
</g>
<!-- Node20&#45;&gt;Node21 -->
<g id="edge25_Node000020_Node000021" class="edge">
<title>Node20&#45;&gt;Node21</title>
<g id="a_edge25_Node000020_Node000021"><a xlink:title=" ">
<path fill="none" stroke="#63b8ff" d="M617.76,-219.98C637.73,-211.38 668.8,-197.99 691.65,-188.15"/>
<polygon fill="#63b8ff" stroke="#63b8ff" points="693.08,-191.34 700.88,-184.17 690.31,-184.91 693.08,-191.34"/>
</a>
</g>
</g>
<!-- Node39 -->
<g id="Node000039" class="node">
<title>Node39</title>
<g id="a_Node000039"><a xlink:href="validate_8h.html" target="_top" xlink:title=" ">
<polygon fill="#fff0f0" stroke="red" points="273.5,-184 208.5,-184 208.5,-165 273.5,-165 273.5,-184"/>
<text text-anchor="middle" x="241" y="-172" font-family="Helvetica,sans-Serif" font-size="10.00">validate.h</text>
</a>
</g>
</g>
<!-- Node20&#45;&gt;Node39 -->
<g id="edge33_Node000020_Node000039" class="edge">
<title>Node20&#45;&gt;Node39</title>
<g id="a_edge33_Node000020_Node000039"><a xlink:title=" ">
<path fill="none" stroke="#63b8ff" d="M574.28,-222.04C571.17,-221.3 568.02,-220.59 565,-220 465.2,-200.36 346.42,-186.42 284.1,-179.81"/>
<polygon fill="#63b8ff" stroke="#63b8ff" points="284.17,-176.3 273.86,-178.74 283.44,-183.27 284.17,-176.3"/>
</a>
</g>
</g>
<!-- Node20&#45;&gt;Node41 -->
<g id="edge37_Node000020_Node000041" class="edge">
<title>Node20&#45;&gt;Node41</title>
<g id="a_edge37_Node000020_Node000041"><a xlink:title=" ">
<path fill="none" stroke="#63b8ff" d="M574.25,-222.17C571.15,-221.41 568,-220.66 565,-220 478.51,-200.94 446.28,-227.27 369,-184 349.28,-172.96 332.82,-152.52 322.74,-137.81"/>
<polygon fill="#63b8ff" stroke="#63b8ff" points="325.46,-135.58 317.06,-129.13 319.6,-139.41 325.46,-135.58"/>
</a>
</g>
</g>
<!-- Node20&#45;&gt;Node42 -->
<g id="edge36_Node000020_Node000042" class="edge">
<title>Node20&#45;&gt;Node42</title>
<g id="a_edge36_Node000020_Node000042"><a xlink:title=" ">
<path fill="none" stroke="#63b8ff" d="M574.22,-221.13C545.78,-212.31 497.82,-197.45 464.4,-187.09"/>
<polygon fill="#63b8ff" stroke="#63b8ff" points="465.12,-183.65 454.53,-184.03 463.05,-190.34 465.12,-183.65"/>
</a>
</g>
</g>
<!-- Node21&#45;&gt;Node8 -->
<g id="edge32_Node000021_Node000008" class="edge">
<title>Node21&#45;&gt;Node8</title>
<g id="a_edge32_Node000021_Node000008"><a xlink:title=" ">
<path fill="none" stroke="#63b8ff" d="M719.82,-164.74C716.37,-139.2 706.28,-64.43 701.53,-29.23"/>
<polygon fill="#63b8ff" stroke="#63b8ff" points="704.99,-28.75 700.19,-19.31 698.06,-29.69 704.99,-28.75"/>
</a>
</g>
</g>
<!-- Node22 -->
<g id="Node000022" class="node">
<title>Node22</title>
<g id="a_Node000022"><a xlink:href="deprecate_8h.html" target="_top" xlink:title=" ">
<polygon fill="white" stroke="#666666" points="631,-129 557,-129 557,-110 631,-110 631,-129"/>
<text text-anchor="middle" x="594" y="-117" font-family="Helvetica,sans-Serif" font-size="10.00">deprecate.h</text>
</a>
</g>
</g>
<!-- Node21&#45;&gt;Node22 -->
<g id="edge26_Node000021_Node000022" class="edge">
<title>Node21&#45;&gt;Node22</title>
<g id="a_edge26_Node000021_Node000022"><a xlink:title=" ">
<path fill="none" stroke="#63b8ff" d="M700.6,-164.98C679.98,-156.38 647.89,-142.99 624.31,-133.15"/>
<polygon fill="#63b8ff" stroke="#63b8ff" points="625.35,-129.79 614.78,-129.17 622.66,-136.25 625.35,-129.79"/>
</a>
</g>
</g>
<!-- Node23 -->
<g id="Node000023" class="node">
<title>Node23</title>
<g id="a_Node000023"><a xlink:href="irep_8h.html" target="_top" xlink:title=" ">
<polygon fill="#fff0f0" stroke="red" points="693,-129 649,-129 649,-110 693,-110 693,-129"/>
<text text-anchor="middle" x="671" y="-117" font-family="Helvetica,sans-Serif" font-size="10.00">irep.h</text>
</a>
</g>
</g>
<!-- Node21&#45;&gt;Node23 -->
<g id="edge27_Node000021_Node000023" class="edge">
<title>Node21&#45;&gt;Node23</title>
<g id="a_edge27_Node000021_Node000023"><a xlink:title=" ">
<path fill="none" stroke="#63b8ff" d="M712.74,-164.75C705.54,-157.11 694.89,-145.82 686.15,-136.56"/>
<polygon fill="#63b8ff" stroke="#63b8ff" points="688.51,-133.96 679.1,-129.09 683.42,-138.76 688.51,-133.96"/>
</a>
</g>
</g>
<!-- Node38 -->
<g id="Node000038" class="node">
<title>Node38</title>
<g id="a_Node000038"><a xlink:title=" ">
<polygon fill="#e0e0e0" stroke="#999999" points="824,-129 768,-129 768,-110 824,-110 824,-129"/>
<text text-anchor="middle" x="796" y="-117" font-family="Helvetica,sans-Serif" font-size="10.00">optional</text>
</a>
</g>
</g>
<!-- Node21&#45;&gt;Node38 -->
<g id="edge31_Node000021_Node000038" class="edge">
<title>Node21&#45;&gt;Node38</title>
<g id="a_edge31_Node000021_Node000038"><a xlink:title=" ">
<path fill="none" stroke="#63b8ff" d="M733.05,-164.98C744.46,-156.92 761.83,-144.65 775.43,-135.03"/>
<polygon fill="#63b8ff" stroke="#63b8ff" points="777.58,-137.8 783.73,-129.17 773.54,-132.08 777.58,-137.8"/>
</a>
</g>
</g>
<!-- Node23&#45;&gt;Node4 -->
<g id="edge29_Node000023_Node000004" class="edge">
<title>Node23&#45;&gt;Node4</title>
<g id="a_edge29_Node000023_Node000004"><a xlink:title=" ">
<path fill="none" stroke="#63b8ff" d="M652.84,-109.98C634.75,-101.5 606.72,-88.35 585.81,-78.54"/>
<polygon fill="#63b8ff" stroke="#63b8ff" points="587.03,-75.25 576.49,-74.17 584.05,-81.59 587.03,-75.25"/>
</a>
</g>
</g>
<!-- Node23&#45;&gt;Node5 -->
<g id="edge30_Node000023_Node000005" class="edge">
<title>Node23&#45;&gt;Node5</title>
<g id="a_edge30_Node000023_Node000005"><a xlink:title=" ">
<path fill="none" stroke="#63b8ff" d="M648.74,-111.98C645.82,-111.25 642.85,-110.56 640,-110 527.47,-87.74 392.82,-74.63 324.5,-68.92"/>
<polygon fill="#63b8ff" stroke="#63b8ff" points="324.77,-65.43 314.51,-68.09 324.19,-72.4 324.77,-65.43"/>
</a>
</g>
</g>
<!-- Node23&#45;&gt;Node8 -->
<g id="edge28_Node000023_Node000008" class="edge">
<title>Node23&#45;&gt;Node8</title>
<g id="a_edge28_Node000023_Node000008"><a xlink:title=" ">
<path fill="none" stroke="#63b8ff" d="M673.29,-109.66C677.85,-92.09 688.12,-52.45 694.22,-28.95"/>
<polygon fill="#63b8ff" stroke="#63b8ff" points="697.63,-29.72 696.76,-19.16 690.86,-27.96 697.63,-29.72"/>
</a>
</g>
</g>
<!-- Node39&#45;&gt;Node9 -->
<g id="edge34_Node000039_Node000009" class="edge">
<title>Node39&#45;&gt;Node9</title>
<g id="a_edge34_Node000039_Node000009"><a xlink:title=" ">
<path fill="none" stroke="#63b8ff" d="M238.96,-164.74C233,-139.2 215.57,-64.43 207.37,-29.23"/>
<polygon fill="#63b8ff" stroke="#63b8ff" points="210.73,-28.25 205.05,-19.31 203.92,-29.84 210.73,-28.25"/>
</a>
</g>
</g>
<!-- Node39&#45;&gt;Node41 -->
<g id="edge35_Node000039_Node000041" class="edge">
<title>Node39&#45;&gt;Node41</title>
<g id="a_edge35_Node000039_Node000041"><a xlink:title=" ">
<path fill="none" stroke="#63b8ff" d="M252.41,-164.98C263.11,-157 279.34,-144.88 292.16,-135.31"/>
<polygon fill="#63b8ff" stroke="#63b8ff" points="294.47,-137.96 300.39,-129.17 290.28,-132.35 294.47,-137.96"/>
</a>
</g>
</g>
<!-- Node44&#45;&gt;Node5 -->
<g id="edge46_Node000044_Node000005" class="edge">
<title>Node44&#45;&gt;Node5</title>
<g id="a_edge46_Node000044_Node000005"><a xlink:title=" ">
<path fill="none" stroke="#63b8ff" d="M312.72,-384.7C288.16,-362.96 226.33,-303.74 202,-239 190.42,-208.19 187.97,-196.01 199,-165 211.34,-130.29 241.54,-98.9 261.37,-81.03"/>
<polygon fill="#63b8ff" stroke="#63b8ff" points="263.93,-83.44 269.16,-74.23 259.32,-78.17 263.93,-83.44"/>
</a>
</g>
</g>
<!-- Node44&#45;&gt;Node12 -->
<g id="edge47_Node000044_Node000012" class="edge">
<title>Node44&#45;&gt;Node12</title>
<g id="a_edge47_Node000044_Node000012"><a xlink:title=" ">
<path fill="none" stroke="#63b8ff" d="M353.93,-384.98C384.39,-376.44 432.16,-362.63 473,-349 672.69,-282.36 796.83,-356.85 917,-184 926.8,-169.9 918.27,-150.9 909.32,-137.37"/>
<polygon fill="#63b8ff" stroke="#63b8ff" points="911.97,-135.06 903.27,-129 906.29,-139.16 911.97,-135.06"/>
</a>
</g>
</g>
<!-- Node44&#45;&gt;Node15 -->
<g id="edge45_Node000044_Node000015" class="edge">
<title>Node44&#45;&gt;Node15</title>
<g id="a_edge45_Node000044_Node000015"><a xlink:title=" ">
<path fill="none" stroke="#63b8ff" d="M303.4,-384.98C283.68,-376.42 253.05,-363.11 230.42,-353.28"/>
<polygon fill="#63b8ff" stroke="#63b8ff" points="231.52,-349.94 220.96,-349.17 228.74,-356.37 231.52,-349.94"/>
</a>
</g>
</g>
<!-- Node44&#45;&gt;Node18 -->
<g id="edge44_Node000044_Node000018" class="edge">
<title>Node44&#45;&gt;Node18</title>
<g id="a_edge44_Node000044_Node000018"><a xlink:title=" ">
<path fill="none" stroke="#63b8ff" d="M327.66,-384.66C337.06,-366.85 358.43,-326.37 370.76,-303.01"/>
<polygon fill="#63b8ff" stroke="#63b8ff" points="373.86,-304.64 375.43,-294.16 367.67,-301.37 373.86,-304.64"/>
</a>
</g>
</g>
<!-- Node44&#45;&gt;Node39 -->
<g id="edge48_Node000044_Node000039" class="edge">
<title>Node44&#45;&gt;Node39</title>
<g id="a_edge48_Node000044_Node000039"><a xlink:title=" ">
<path fill="none" stroke="#63b8ff" d="M322.06,-384.96C319.33,-363.83 309.6,-308.42 280,-275 256.54,-248.51 227.52,-269.15 209,-239 199.48,-223.49 211.53,-204.79 223.47,-191.71"/>
<polygon fill="#63b8ff" stroke="#63b8ff" points="226.17,-193.96 230.7,-184.38 221.18,-189.05 226.17,-193.96"/>
</a>
</g>
</g>
<!-- Node30 -->
<g id="Node000030" class="node">
<title>Node30</title>
<g id="a_Node000030"><a xlink:title=" ">
<polygon fill="#e0e0e0" stroke="#999999" points="463.5,-349 370.5,-349 370.5,-330 463.5,-330 463.5,-349"/>
<text text-anchor="middle" x="417" y="-337" font-family="Helvetica,sans-Serif" font-size="10.00">unordered_map</text>
</a>
</g>
</g>
<!-- Node44&#45;&gt;Node30 -->
<g id="edge49_Node000044_Node000030" class="edge">
<title>Node44&#45;&gt;Node30</title>
<g id="a_edge49_Node000044_Node000030"><a xlink:title=" ">
<path fill="none" stroke="#63b8ff" d="M338.1,-384.98C352.82,-376.69 375.42,-363.94 392.67,-354.22"/>
<polygon fill="#63b8ff" stroke="#63b8ff" points="394.63,-357.13 401.62,-349.17 391.19,-351.03 394.63,-357.13"/>
</a>
</g>
</g>
<!-- Node46&#45;&gt;Node22 -->
<g id="edge52_Node000046_Node000022" class="edge">
<title>Node46&#45;&gt;Node22</title>
<g id="a_edge52_Node000046_Node000022"><a xlink:title=" ">
<path fill="none" stroke="#63b8ff" d="M707.29,-549.96C722.73,-508.34 783.78,-324.65 702,-220 662.17,-169.04 600.68,-235.08 561,-184 549.53,-169.24 562.95,-149.89 575.95,-136.45"/>
<polygon fill="#63b8ff" stroke="#63b8ff" points="578.6,-138.76 583.37,-129.3 573.75,-133.72 578.6,-138.76"/>
</a>
</g>
</g>
<!-- Node47 -->
<g id="Node000047" class="node">
<title>Node47</title>
<g id="a_Node000047"><a xlink:href="pointer__expr_8h.html" target="_top" xlink:title="API to expression classes for Pointers.">
<polygon fill="white" stroke="#666666" points="417,-514 331,-514 331,-495 417,-495 417,-514"/>
<text text-anchor="middle" x="374" y="-502" font-family="Helvetica,sans-Serif" font-size="10.00">pointer_expr.h</text>
</a>
</g>
</g>
<!-- Node46&#45;&gt;Node47 -->
<g id="edge53_Node000046_Node000047" class="edge">
<title>Node46&#45;&gt;Node47</title>
<g id="a_edge53_Node000046_Node000047"><a xlink:title=" ">
<path fill="none" stroke="#63b8ff" d="M672.36,-553.42C615.81,-544.34 496.86,-525.23 427.45,-514.08"/>
<polygon fill="#63b8ff" stroke="#63b8ff" points="427.59,-510.56 417.16,-512.43 426.48,-517.47 427.59,-510.56"/>
</a>
</g>
</g>
<!-- Node47&#45;&gt;Node14 -->
<g id="edge56_Node000047_Node000014" class="edge">
<title>Node47&#45;&gt;Node14</title>
<g id="a_edge56_Node000047_Node000014"><a xlink:title=" ">
<path fill="none" stroke="#63b8ff" d="M357.61,-494.98C341.43,-486.57 316.43,-473.59 297.62,-463.81"/>
<polygon fill="#63b8ff" stroke="#63b8ff" points="299.17,-460.68 288.69,-459.17 295.95,-466.89 299.17,-460.68"/>
</a>
</g>
</g>
<!-- Node48 -->
<g id="Node000048" class="node">
<title>Node48</title>
<g id="a_Node000048"><a xlink:href="bitvector__types_8h.html" target="_top" xlink:title="Pre&#45;defined bitvector types.">
<polygon fill="white" stroke="#666666" points="424.5,-459 323.5,-459 323.5,-440 424.5,-440 424.5,-459"/>
<text text-anchor="middle" x="374" y="-447" font-family="Helvetica,sans-Serif" font-size="10.00">bitvector_types.h</text>
</a>
</g>
</g>
<!-- Node47&#45;&gt;Node48 -->
<g id="edge54_Node000047_Node000048" class="edge">
<title>Node47&#45;&gt;Node48</title>
<g id="a_edge54_Node000047_Node000048"><a xlink:title=" ">
<path fill="none" stroke="#63b8ff" d="M374,-494.75C374,-487.8 374,-477.85 374,-469.13"/>
<polygon fill="#63b8ff" stroke="#63b8ff" points="377.5,-469.09 374,-459.09 370.5,-469.09 377.5,-469.09"/>
</a>
</g>
</g>
<!-- Node48&#45;&gt;Node44 -->
<g id="edge55_Node000048_Node000044" class="edge">
<title>Node48&#45;&gt;Node44</title>
<g id="a_edge55_Node000048_Node000044"><a xlink:title=" ">
<path fill="none" stroke="#63b8ff" d="M365.58,-439.75C358.23,-432.11 347.37,-420.82 338.46,-411.56"/>
<polygon fill="#63b8ff" stroke="#63b8ff" points="340.72,-408.87 331.26,-404.09 335.68,-413.72 340.72,-408.87"/>
</a>
</g>
</g>
<!-- Node49&#45;&gt;Node5 -->
<g id="edge58_Node000049_Node000005" class="edge">
<title>Node49&#45;&gt;Node5</title>
<g id="a_edge58_Node000049_Node000005"><a xlink:title=" ">
<path fill="none" stroke="#63b8ff" d="M569.82,-166.14C531.1,-158.68 471.82,-145.84 422,-129 399.67,-121.45 341.75,-94.67 307.17,-78.39"/>
<polygon fill="#63b8ff" stroke="#63b8ff" points="308.63,-75.21 298.09,-74.11 305.64,-81.54 308.63,-75.21"/>
</a>
</g>
</g>
<!-- Node49&#45;&gt;Node23 -->
<g id="edge59_Node000049_Node000023" class="edge">
<title>Node49&#45;&gt;Node23</title>
<g id="a_edge59_Node000049_Node000023"><a xlink:title=" ">
<path fill="none" stroke="#63b8ff" d="M620.64,-164.98C629.51,-157.15 642.87,-145.34 653.61,-135.86"/>
<polygon fill="#63b8ff" stroke="#63b8ff" points="656.01,-138.41 661.18,-129.17 651.37,-133.17 656.01,-138.41"/>
</a>
</g>
</g>
<!-- Node50&#45;&gt;Node12 -->
<g id="edge62_Node000050_Node000012" class="edge">
<title>Node50&#45;&gt;Node12</title>
<g id="a_edge62_Node000050_Node000012"><a xlink:title=" ">
<path fill="none" stroke="#63b8ff" d="M856.76,-164.75C863.47,-157.18 873.34,-146.05 881.51,-136.84"/>
<polygon fill="#63b8ff" stroke="#63b8ff" points="884.37,-138.89 888.38,-129.09 879.13,-134.25 884.37,-138.89"/>
</a>
</g>
</g>
<!-- Node50&#45;&gt;Node23 -->
<g id="edge61_Node000050_Node000023" class="edge">
<title>Node50&#45;&gt;Node23</title>
<g id="a_edge61_Node000050_Node000023"><a xlink:title=" ">
<path fill="none" stroke="#63b8ff" d="M820.4,-164.98C788.25,-155.41 736.19,-139.91 702.79,-129.96"/>
<polygon fill="#63b8ff" stroke="#63b8ff" points="703.65,-126.57 693.06,-127.07 701.65,-133.28 703.65,-126.57"/>
</a>
</g>
</g>
<!-- Node50&#45;&gt;Node38 -->
<g id="edge63_Node000050_Node000038" class="edge">
<title>Node50&#45;&gt;Node38</title>
<g id="a_edge63_Node000050_Node000038"><a xlink:title=" ">
<path fill="none" stroke="#63b8ff" d="M840.25,-164.75C832.53,-157.03 821.1,-145.6 811.78,-136.28"/>
<polygon fill="#63b8ff" stroke="#63b8ff" points="814.14,-133.69 804.59,-129.09 809.19,-138.64 814.14,-133.69"/>
</a>
</g>
</g>
</g>
</svg>
