<?xml version="1.0" encoding="UTF-8" standalone="no"?>
<!DOCTYPE svg PUBLIC "-//W3C//DTD SVG 1.1//EN"
 "http://www.w3.org/Graphics/SVG/1.1/DTD/svg11.dtd">
<!-- Generated by graphviz version 2.43.0 (0)
 -->
<!-- Title: /home/runner/work/cbmc/cbmc/src/solvers/smt2_incremental/encoding/enum_encoding.cpp Pages: 1 -->
<svg width="956pt" height="775pt"
 viewBox="0.00 0.00 955.50 775.00" xmlns="http://www.w3.org/2000/svg" xmlns:xlink="http://www.w3.org/1999/xlink">
<g id="graph0" class="graph" transform="scale(1 1) rotate(0) translate(4 771)">
<title>/home/runner/work/cbmc/cbmc/src/solvers/smt2_incremental/encoding/enum_encoding.cpp</title>
<!-- Node1 -->
<g id="Node000001" class="node">
<title>Node1</title>
<g id="a_Node000001"><a xlink:title=" ">
<polygon fill="#999999" stroke="#666666" points="675,-767 517,-767 517,-715 675,-715 675,-767"/>
<text text-anchor="start" x="525" y="-755" font-family="Helvetica,sans-Serif" font-size="10.00">/home/runner/work/cbmc</text>
<text text-anchor="start" x="525" y="-744" font-family="Helvetica,sans-Serif" font-size="10.00">/cbmc/src/solvers/smt2</text>
<text text-anchor="start" x="525" y="-733" font-family="Helvetica,sans-Serif" font-size="10.00">_incremental/encoding/enum</text>
<text text-anchor="middle" x="596" y="-722" font-family="Helvetica,sans-Serif" font-size="10.00">_encoding.cpp</text>
</a>
</g>
</g>
<!-- Node2 -->
<g id="Node000002" class="node">
<title>Node2</title>
<g id="a_Node000002"><a xlink:href="enum__encoding_8h.html" target="_top" xlink:title=" ">
<polygon fill="white" stroke="#666666" points="647.5,-624 544.5,-624 544.5,-605 647.5,-605 647.5,-624"/>
<text text-anchor="middle" x="596" y="-612" font-family="Helvetica,sans-Serif" font-size="10.00">enum_encoding.h</text>
</a>
</g>
</g>
<!-- Node1&#45;&gt;Node2 -->
<g id="edge1_Node000001_Node000002" class="edge">
<title>Node1&#45;&gt;Node2</title>
<g id="a_edge1_Node000001_Node000002"><a xlink:title=" ">
<path fill="none" stroke="#63b8ff" d="M596,-714.81C596,-690.95 596,-655.69 596,-634.24"/>
<polygon fill="#63b8ff" stroke="#63b8ff" points="599.5,-634.15 596,-624.15 592.5,-634.15 599.5,-634.15"/>
</a>
</g>
</g>
<!-- Node37 -->
<g id="Node000037" class="node">
<title>Node37</title>
<g id="a_Node000037"><a xlink:href="c__types_8h.html" target="_top" xlink:title=" ">
<polygon fill="white" stroke="#666666" points="208,-679 126,-679 126,-660 208,-660 208,-679"/>
<text text-anchor="middle" x="167" y="-667" font-family="Helvetica,sans-Serif" font-size="10.00">util/c_types.h</text>
</a>
</g>
</g>
<!-- Node1&#45;&gt;Node37 -->
<g id="edge31_Node000001_Node000037" class="edge">
<title>Node1&#45;&gt;Node37</title>
<g id="a_edge31_Node000001_Node000037"><a xlink:title=" ">
<path fill="none" stroke="#63b8ff" d="M516.81,-727.17C429.64,-713.05 292.07,-690.76 218.1,-678.78"/>
<polygon fill="#63b8ff" stroke="#63b8ff" points="218.53,-675.3 208.1,-677.16 217.41,-682.21 218.53,-675.3"/>
</a>
</g>
</g>
<!-- Node41 -->
<g id="Node000041" class="node">
<title>Node41</title>
<g id="a_Node000041"><a xlink:href="expr__cast_8h.html" target="_top" xlink:title="Templated functions to cast to specific exprt&#45;derived classes.">
<polygon fill="white" stroke="#666666" points="199.5,-459 126.5,-459 126.5,-440 199.5,-440 199.5,-459"/>
<text text-anchor="middle" x="163" y="-447" font-family="Helvetica,sans-Serif" font-size="10.00">expr_cast.h</text>
</a>
</g>
</g>
<!-- Node1&#45;&gt;Node41 -->
<g id="edge54_Node000001_Node000041" class="edge">
<title>Node1&#45;&gt;Node41</title>
<g id="a_edge54_Node000001_Node000041"><a xlink:title=" ">
<path fill="none" stroke="#63b8ff" d="M516.66,-739.61C428.08,-734.49 297,-710.81 297,-615.5 297,-615.5 297,-615.5 297,-558.5 297,-508.68 240.15,-477.94 200.5,-462.56"/>
<polygon fill="#63b8ff" stroke="#63b8ff" points="201.68,-459.26 191.09,-459.07 199.25,-465.83 201.68,-459.26"/>
</a>
</g>
</g>
<!-- Node46 -->
<g id="Node000046" class="node">
<title>Node46</title>
<g id="a_Node000046"><a xlink:href="namespace_8h.html" target="_top" xlink:title=" ">
<polygon fill="white" stroke="#666666" points="721.5,-184 620.5,-184 620.5,-165 721.5,-165 721.5,-184"/>
<text text-anchor="middle" x="671" y="-172" font-family="Helvetica,sans-Serif" font-size="10.00">util/namespace.h</text>
</a>
</g>
</g>
<!-- Node1&#45;&gt;Node46 -->
<g id="edge55_Node000001_Node000046" class="edge">
<title>Node1&#45;&gt;Node46</title>
<g id="a_edge55_Node000001_Node000046"><a xlink:title=" ">
<path fill="none" stroke="#63b8ff" d="M675.09,-736.94C756.65,-729.04 872,-702.5 872,-615.5 872,-615.5 872,-615.5 872,-283.5 872,-219.09 790.92,-192.93 731.75,-182.42"/>
<polygon fill="#63b8ff" stroke="#63b8ff" points="732.16,-178.94 721.72,-180.75 731.01,-185.84 732.16,-178.94"/>
</a>
</g>
</g>
<!-- Node47 -->
<g id="Node000047" class="node">
<title>Node47</title>
<g id="a_Node000047"><a xlink:title=" ">
<polygon fill="#e0e0e0" stroke="#999999" points="947.5,-679 900.5,-679 900.5,-660 947.5,-660 947.5,-679"/>
<text text-anchor="middle" x="924" y="-667" font-family="Helvetica,sans-Serif" font-size="10.00">queue</text>
</a>
</g>
</g>
<!-- Node1&#45;&gt;Node47 -->
<g id="edge58_Node000001_Node000047" class="edge">
<title>Node1&#45;&gt;Node47</title>
<g id="a_edge58_Node000001_Node000047"><a xlink:title=" ">
<path fill="none" stroke="#63b8ff" d="M675.14,-723.64C733.47,-711.51 814.73,-694.47 886,-679 887.45,-678.69 888.92,-678.36 890.41,-678.04"/>
<polygon fill="#63b8ff" stroke="#63b8ff" points="891.29,-681.43 900.29,-675.85 889.77,-674.59 891.29,-681.43"/>
</a>
</g>
</g>
<!-- Node3 -->
<g id="Node000003" class="node">
<title>Node3</title>
<g id="a_Node000003"><a xlink:href="expr_8h.html" target="_top" xlink:title=" ">
<polygon fill="white" stroke="#666666" points="628.5,-404 563.5,-404 563.5,-385 628.5,-385 628.5,-404"/>
<text text-anchor="middle" x="596" y="-392" font-family="Helvetica,sans-Serif" font-size="10.00">util/expr.h</text>
</a>
</g>
</g>
<!-- Node2&#45;&gt;Node3 -->
<g id="edge2_Node000002_Node000003" class="edge">
<title>Node2&#45;&gt;Node3</title>
<g id="a_edge2_Node000002_Node000003"><a xlink:title=" ">
<path fill="none" stroke="#63b8ff" d="M596,-604.95C596,-572.95 596,-459.68 596,-414.4"/>
<polygon fill="#63b8ff" stroke="#63b8ff" points="599.5,-414.22 596,-404.22 592.5,-414.22 599.5,-414.22"/>
</a>
</g>
</g>
<!-- Node4 -->
<g id="Node000004" class="node">
<title>Node4</title>
<g id="a_Node000004"><a xlink:href="as__const_8h.html" target="_top" xlink:title=" ">
<polygon fill="white" stroke="#666666" points="824,-19 756,-19 756,0 824,0 824,-19"/>
<text text-anchor="middle" x="790" y="-7" font-family="Helvetica,sans-Serif" font-size="10.00">as_const.h</text>
</a>
</g>
</g>
<!-- Node3&#45;&gt;Node4 -->
<g id="edge3_Node000003_Node000004" class="edge">
<title>Node3&#45;&gt;Node4</title>
<g id="a_edge3_Node000003_Node000004"><a xlink:title=" ">
<path fill="none" stroke="#63b8ff" d="M628.79,-390.23C682.4,-384.35 785.8,-370.52 815,-349 885.77,-296.84 910,-263.41 910,-175.5 910,-175.5 910,-175.5 910,-118.5 910,-89.04 910.5,-77.08 891,-55 876.25,-38.29 854.04,-27.58 834.21,-20.86"/>
<polygon fill="#63b8ff" stroke="#63b8ff" points="834.99,-17.44 824.4,-17.79 832.9,-24.12 834.99,-17.44"/>
</a>
</g>
</g>
<!-- Node5 -->
<g id="Node000005" class="node">
<title>Node5</title>
<g id="a_Node000005"><a xlink:href="type_8h.html" target="_top" xlink:title="Defines typet, type_with_subtypet and type_with_subtypest.">
<polygon fill="white" stroke="#666666" points="619.5,-349 572.5,-349 572.5,-330 619.5,-330 619.5,-349"/>
<text text-anchor="middle" x="596" y="-337" font-family="Helvetica,sans-Serif" font-size="10.00">type.h</text>
</a>
</g>
</g>
<!-- Node3&#45;&gt;Node5 -->
<g id="edge4_Node000003_Node000005" class="edge">
<title>Node3&#45;&gt;Node5</title>
<g id="a_edge4_Node000003_Node000005"><a xlink:title=" ">
<path fill="none" stroke="#63b8ff" d="M596,-384.75C596,-377.8 596,-367.85 596,-359.13"/>
<polygon fill="#63b8ff" stroke="#63b8ff" points="599.5,-359.09 596,-349.09 592.5,-359.09 599.5,-359.09"/>
</a>
</g>
</g>
<!-- Node33 -->
<g id="Node000033" class="node">
<title>Node33</title>
<g id="a_Node000033"><a xlink:href="validation__mode_8h.html" target="_top" xlink:title=" ">
<polygon fill="white" stroke="#666666" points="594.5,-239 487.5,-239 487.5,-220 594.5,-220 594.5,-239"/>
<text text-anchor="middle" x="541" y="-227" font-family="Helvetica,sans-Serif" font-size="10.00">validation_mode.h</text>
</a>
</g>
</g>
<!-- Node3&#45;&gt;Node33 -->
<g id="edge29_Node000003_Node000033" class="edge">
<title>Node3&#45;&gt;Node33</title>
<g id="a_edge29_Node000003_Node000033"><a xlink:title=" ">
<path fill="none" stroke="#63b8ff" d="M588.14,-385C580.75,-376.52 569.96,-362.8 564,-349 549.65,-315.77 544.19,-273.43 542.16,-249.41"/>
<polygon fill="#63b8ff" stroke="#63b8ff" points="545.64,-248.92 541.42,-239.2 538.66,-249.43 545.64,-248.92"/>
</a>
</g>
</g>
<!-- Node34 -->
<g id="Node000034" class="node">
<title>Node34</title>
<g id="a_Node000034"><a xlink:href="validate__types_8h.html" target="_top" xlink:title=" ">
<polygon fill="white" stroke="#666666" points="749,-294 651,-294 651,-275 749,-275 749,-294"/>
<text text-anchor="middle" x="700" y="-282" font-family="Helvetica,sans-Serif" font-size="10.00">validate_types.h</text>
</a>
</g>
</g>
<!-- Node3&#45;&gt;Node34 -->
<g id="edge28_Node000003_Node000034" class="edge">
<title>Node3&#45;&gt;Node34</title>
<g id="a_edge28_Node000003_Node000034"><a xlink:title=" ">
<path fill="none" stroke="#63b8ff" d="M604.51,-384.66C622.04,-366.46 662.4,-324.55 684.62,-301.47"/>
<polygon fill="#63b8ff" stroke="#63b8ff" points="687.25,-303.79 691.66,-294.16 682.2,-298.93 687.25,-303.79"/>
</a>
</g>
</g>
<!-- Node35 -->
<g id="Node000035" class="node">
<title>Node35</title>
<g id="a_Node000035"><a xlink:href="validate__expressions_8h.html" target="_top" xlink:title=" ">
<polygon fill="white" stroke="#666666" points="805.5,-349 676.5,-349 676.5,-330 805.5,-330 805.5,-349"/>
<text text-anchor="middle" x="741" y="-337" font-family="Helvetica,sans-Serif" font-size="10.00">validate_expressions.h</text>
</a>
</g>
</g>
<!-- Node3&#45;&gt;Node35 -->
<g id="edge27_Node000003_Node000035" class="edge">
<title>Node3&#45;&gt;Node35</title>
<g id="a_edge27_Node000003_Node000035"><a xlink:title=" ">
<path fill="none" stroke="#63b8ff" d="M619.3,-384.98C643.25,-376.23 680.78,-362.51 707.83,-352.62"/>
<polygon fill="#63b8ff" stroke="#63b8ff" points="709.09,-355.89 717.28,-349.17 706.69,-349.32 709.09,-355.89"/>
</a>
</g>
</g>
<!-- Node36 -->
<g id="Node000036" class="node">
<title>Node36</title>
<g id="a_Node000036"><a xlink:title=" ">
<polygon fill="#e0e0e0" stroke="#999999" points="360.5,-349 295.5,-349 295.5,-330 360.5,-330 360.5,-349"/>
<text text-anchor="middle" x="328" y="-337" font-family="Helvetica,sans-Serif" font-size="10.00">functional</text>
</a>
</g>
</g>
<!-- Node3&#45;&gt;Node36 -->
<g id="edge30_Node000003_Node000036" class="edge">
<title>Node3&#45;&gt;Node36</title>
<g id="a_edge30_Node000003_Node000036"><a xlink:title=" ">
<path fill="none" stroke="#63b8ff" d="M563.41,-387.05C515.05,-377.49 424.26,-359.54 370.66,-348.94"/>
<polygon fill="#63b8ff" stroke="#63b8ff" points="371.28,-345.49 360.79,-346.98 369.92,-352.36 371.28,-345.49"/>
</a>
</g>
</g>
<!-- Node6 -->
<g id="Node000006" class="node">
<title>Node6</title>
<g id="a_Node000006"><a xlink:href="source__location_8h.html" target="_top" xlink:title=" ">
<polygon fill="white" stroke="#666666" points="596,-184 494,-184 494,-165 596,-165 596,-184"/>
<text text-anchor="middle" x="545" y="-172" font-family="Helvetica,sans-Serif" font-size="10.00">source_location.h</text>
</a>
</g>
</g>
<!-- Node5&#45;&gt;Node6 -->
<g id="edge5_Node000005_Node000006" class="edge">
<title>Node5&#45;&gt;Node6</title>
<g id="a_edge5_Node000005_Node000006"><a xlink:title=" ">
<path fill="none" stroke="#63b8ff" d="M599.4,-329.88C606.86,-309.51 622.58,-257.28 604,-220 597.43,-206.82 584.9,-196.52 573.07,-189.16"/>
<polygon fill="#63b8ff" stroke="#63b8ff" points="574.68,-186.05 564.27,-184.1 571.2,-192.12 574.68,-186.05"/>
</a>
</g>
</g>
<!-- Node31 -->
<g id="Node000031" class="node">
<title>Node31</title>
<g id="a_Node000031"><a xlink:href="validate_8h.html" target="_top" xlink:title=" ">
<polygon fill="white" stroke="#666666" points="515.5,-294 450.5,-294 450.5,-275 515.5,-275 515.5,-294"/>
<text text-anchor="middle" x="483" y="-282" font-family="Helvetica,sans-Serif" font-size="10.00">validate.h</text>
</a>
</g>
</g>
<!-- Node5&#45;&gt;Node31 -->
<g id="edge18_Node000005_Node000031" class="edge">
<title>Node5&#45;&gt;Node31</title>
<g id="a_edge18_Node000005_Node000031"><a xlink:title=" ">
<path fill="none" stroke="#63b8ff" d="M577.84,-329.98C559.75,-321.5 531.72,-308.35 510.81,-298.54"/>
<polygon fill="#63b8ff" stroke="#63b8ff" points="512.03,-295.25 501.49,-294.17 509.05,-301.59 512.03,-295.25"/>
</a>
</g>
</g>
<!-- Node5&#45;&gt;Node33 -->
<g id="edge26_Node000005_Node000033" class="edge">
<title>Node5&#45;&gt;Node33</title>
<g id="a_edge26_Node000005_Node000033"><a xlink:title=" ">
<path fill="none" stroke="#63b8ff" d="M591.5,-329.66C582.47,-311.93 562,-271.73 550.07,-248.32"/>
<polygon fill="#63b8ff" stroke="#63b8ff" points="553.07,-246.48 545.41,-239.16 546.83,-249.66 553.07,-246.48"/>
</a>
</g>
</g>
<!-- Node5&#45;&gt;Node34 -->
<g id="edge25_Node000005_Node000034" class="edge">
<title>Node5&#45;&gt;Node34</title>
<g id="a_edge25_Node000005_Node000034"><a xlink:title=" ">
<path fill="none" stroke="#63b8ff" d="M612.71,-329.98C629.21,-321.57 654.7,-308.59 673.88,-298.81"/>
<polygon fill="#63b8ff" stroke="#63b8ff" points="675.67,-301.83 682.99,-294.17 672.49,-295.59 675.67,-301.83"/>
</a>
</g>
</g>
<!-- Node7 -->
<g id="Node000007" class="node">
<title>Node7</title>
<g id="a_Node000007"><a xlink:href="deprecate_8h.html" target="_top" xlink:title=" ">
<polygon fill="white" stroke="#666666" points="481,-129 407,-129 407,-110 481,-110 481,-129"/>
<text text-anchor="middle" x="444" y="-117" font-family="Helvetica,sans-Serif" font-size="10.00">deprecate.h</text>
</a>
</g>
</g>
<!-- Node6&#45;&gt;Node7 -->
<g id="edge6_Node000006_Node000007" class="edge">
<title>Node6&#45;&gt;Node7</title>
<g id="a_edge6_Node000006_Node000007"><a xlink:title=" ">
<path fill="none" stroke="#63b8ff" d="M528.77,-164.98C512.82,-156.61 488.22,-143.7 469.62,-133.95"/>
<polygon fill="#63b8ff" stroke="#63b8ff" points="471,-130.72 460.52,-129.17 467.75,-136.92 471,-130.72"/>
</a>
</g>
</g>
<!-- Node8 -->
<g id="Node000008" class="node">
<title>Node8</title>
<g id="a_Node000008"><a xlink:href="irep_8h.html" target="_top" xlink:title=" ">
<polygon fill="white" stroke="#666666" points="693,-129 649,-129 649,-110 693,-110 693,-129"/>
<text text-anchor="middle" x="671" y="-117" font-family="Helvetica,sans-Serif" font-size="10.00">irep.h</text>
</a>
</g>
</g>
<!-- Node6&#45;&gt;Node8 -->
<g id="edge7_Node000006_Node000008" class="edge">
<title>Node6&#45;&gt;Node8</title>
<g id="a_edge7_Node000006_Node000008"><a xlink:title=" ">
<path fill="none" stroke="#63b8ff" d="M565.24,-164.98C585.7,-156.38 617.53,-142.99 640.93,-133.15"/>
<polygon fill="#63b8ff" stroke="#63b8ff" points="642.53,-136.27 650.39,-129.17 639.81,-129.82 642.53,-136.27"/>
</a>
</g>
</g>
<!-- Node9 -->
<g id="Node000009" class="node">
<title>Node9</title>
<g id="a_Node000009"><a xlink:title=" ">
<polygon fill="#e0e0e0" stroke="#999999" points="401,-19 357,-19 357,0 401,0 401,-19"/>
<text text-anchor="middle" x="379" y="-7" font-family="Helvetica,sans-Serif" font-size="10.00">string</text>
</a>
</g>
</g>
<!-- Node6&#45;&gt;Node9 -->
<g id="edge17_Node000006_Node000009" class="edge">
<title>Node6&#45;&gt;Node9</title>
<g id="a_edge17_Node000006_Node000009"><a xlink:title=" ">
<path fill="none" stroke="#63b8ff" d="M551.84,-164.73C560.92,-151.95 574.63,-127.78 564,-110 530.75,-54.36 454.48,-28.01 410.97,-17.11"/>
<polygon fill="#63b8ff" stroke="#63b8ff" points="411.71,-13.69 401.17,-14.78 410.09,-20.5 411.71,-13.69"/>
</a>
</g>
</g>
<!-- Node30 -->
<g id="Node000030" class="node">
<title>Node30</title>
<g id="a_Node000030"><a xlink:title=" ">
<polygon fill="#e0e0e0" stroke="#999999" points="555,-129 499,-129 499,-110 555,-110 555,-129"/>
<text text-anchor="middle" x="527" y="-117" font-family="Helvetica,sans-Serif" font-size="10.00">optional</text>
</a>
</g>
</g>
<!-- Node6&#45;&gt;Node30 -->
<g id="edge16_Node000006_Node000030" class="edge">
<title>Node6&#45;&gt;Node30</title>
<g id="a_edge16_Node000006_Node000030"><a xlink:title=" ">
<path fill="none" stroke="#63b8ff" d="M542.03,-164.75C539.64,-157.72 536.21,-147.62 533.23,-138.84"/>
<polygon fill="#63b8ff" stroke="#63b8ff" points="536.45,-137.43 529.92,-129.09 529.82,-139.68 536.45,-137.43"/>
</a>
</g>
</g>
<!-- Node8&#45;&gt;Node9 -->
<g id="edge8_Node000008_Node000009" class="edge">
<title>Node8&#45;&gt;Node9</title>
<g id="a_edge8_Node000008_Node000009"><a xlink:title=" ">
<path fill="none" stroke="#63b8ff" d="M657.96,-109.92C637.04,-96.49 594.32,-70.44 555,-55 506.41,-35.91 447.01,-22.9 411.14,-16.08"/>
<polygon fill="#63b8ff" stroke="#63b8ff" points="411.7,-12.63 401.23,-14.25 410.43,-19.51 411.7,-12.63"/>
</a>
</g>
</g>
<!-- Node10 -->
<g id="Node000010" class="node">
<title>Node10</title>
<g id="a_Node000010"><a xlink:title=" ">
<polygon fill="#e0e0e0" stroke="#999999" points="799.5,-74 752.5,-74 752.5,-55 799.5,-55 799.5,-74"/>
<text text-anchor="middle" x="776" y="-62" font-family="Helvetica,sans-Serif" font-size="10.00">vector</text>
</a>
</g>
</g>
<!-- Node8&#45;&gt;Node10 -->
<g id="edge9_Node000008_Node000010" class="edge">
<title>Node8&#45;&gt;Node10</title>
<g id="a_edge9_Node000008_Node000010"><a xlink:title=" ">
<path fill="none" stroke="#63b8ff" d="M687.87,-109.98C704.61,-101.54 730.5,-88.47 749.89,-78.68"/>
<polygon fill="#63b8ff" stroke="#63b8ff" points="751.47,-81.8 758.82,-74.17 748.32,-75.55 751.47,-81.8"/>
</a>
</g>
</g>
<!-- Node11 -->
<g id="Node000011" class="node">
<title>Node11</title>
<g id="a_Node000011"><a xlink:href="src_2util_2invariant_8h.html" target="_top" xlink:title=" ">
<polygon fill="#fff0f0" stroke="red" points="312.5,-74 243.5,-74 243.5,-55 312.5,-55 312.5,-74"/>
<text text-anchor="middle" x="278" y="-62" font-family="Helvetica,sans-Serif" font-size="10.00">invariant.h</text>
</a>
</g>
</g>
<!-- Node8&#45;&gt;Node11 -->
<g id="edge10_Node000008_Node000011" class="edge">
<title>Node8&#45;&gt;Node11</title>
<g id="a_edge10_Node000008_Node000011"><a xlink:title=" ">
<path fill="none" stroke="#63b8ff" d="M648.74,-115.5C586,-107.04 406.82,-82.87 322.67,-71.52"/>
<polygon fill="#63b8ff" stroke="#63b8ff" points="323.03,-68.04 312.65,-70.17 322.09,-74.98 323.03,-68.04"/>
</a>
</g>
</g>
<!-- Node15 -->
<g id="Node000015" class="node">
<title>Node15</title>
<g id="a_Node000015"><a xlink:href="irep__ids_8h.html" target="_top" xlink:title="util">
<polygon fill="#fff0f0" stroke="red" points="882,-74 818,-74 818,-55 882,-55 882,-74"/>
<text text-anchor="middle" x="850" y="-62" font-family="Helvetica,sans-Serif" font-size="10.00">irep_ids.h</text>
</a>
</g>
</g>
<!-- Node8&#45;&gt;Node15 -->
<g id="edge13_Node000008_Node000015" class="edge">
<title>Node8&#45;&gt;Node15</title>
<g id="a_edge13_Node000008_Node000015"><a xlink:title=" ">
<path fill="none" stroke="#63b8ff" d="M693.31,-111.89C722.86,-103.14 775.45,-87.57 811.49,-76.9"/>
<polygon fill="#63b8ff" stroke="#63b8ff" points="812.59,-80.23 821.18,-74.03 810.6,-73.52 812.59,-80.23"/>
</a>
</g>
</g>
<!-- Node26 -->
<g id="Node000026" class="node">
<title>Node26</title>
<g id="a_Node000026"><a xlink:href="forward__list__as__map_8h.html" target="_top" xlink:title=" ">
<polygon fill="#fff0f0" stroke="red" points="734.5,-74 607.5,-74 607.5,-55 734.5,-55 734.5,-74"/>
<text text-anchor="middle" x="671" y="-62" font-family="Helvetica,sans-Serif" font-size="10.00">forward_list_as_map.h</text>
</a>
</g>
</g>
<!-- Node8&#45;&gt;Node26 -->
<g id="edge14_Node000008_Node000026" class="edge">
<title>Node8&#45;&gt;Node26</title>
<g id="a_edge14_Node000008_Node000026"><a xlink:title=" ">
<path fill="none" stroke="#63b8ff" d="M671,-109.75C671,-102.8 671,-92.85 671,-84.13"/>
<polygon fill="#63b8ff" stroke="#63b8ff" points="674.5,-84.09 671,-74.09 667.5,-84.09 674.5,-84.09"/>
</a>
</g>
</g>
<!-- Node11&#45;&gt;Node9 -->
<g id="edge11_Node000011_Node000009" class="edge">
<title>Node11&#45;&gt;Node9</title>
<g id="a_edge11_Node000011_Node000009"><a xlink:title=" ">
<path fill="none" stroke="#63b8ff" d="M294.23,-54.98C310.18,-46.61 334.78,-33.7 353.38,-23.95"/>
<polygon fill="#63b8ff" stroke="#63b8ff" points="355.25,-26.92 362.48,-19.17 352,-20.72 355.25,-26.92"/>
</a>
</g>
</g>
<!-- Node14 -->
<g id="Node000014" class="node">
<title>Node14</title>
<g id="a_Node000014"><a xlink:title=" ">
<polygon fill="#e0e0e0" stroke="#999999" points="249.5,-19 180.5,-19 180.5,0 249.5,0 249.5,-19"/>
<text text-anchor="middle" x="215" y="-7" font-family="Helvetica,sans-Serif" font-size="10.00">type_traits</text>
</a>
</g>
</g>
<!-- Node11&#45;&gt;Node14 -->
<g id="edge12_Node000011_Node000014" class="edge">
<title>Node11&#45;&gt;Node14</title>
<g id="a_edge12_Node000011_Node000014"><a xlink:title=" ">
<path fill="none" stroke="#63b8ff" d="M267.88,-54.98C258.56,-47.15 244.53,-35.34 233.26,-25.86"/>
<polygon fill="#63b8ff" stroke="#63b8ff" points="235.21,-22.93 225.31,-19.17 230.71,-28.29 235.21,-22.93"/>
</a>
</g>
</g>
<!-- Node26&#45;&gt;Node4 -->
<g id="edge15_Node000026_Node000004" class="edge">
<title>Node26&#45;&gt;Node4</title>
<g id="a_edge15_Node000026_Node000004"><a xlink:title=" ">
<path fill="none" stroke="#63b8ff" d="M690.12,-54.98C709.35,-46.42 739.23,-33.11 761.31,-23.28"/>
<polygon fill="#63b8ff" stroke="#63b8ff" points="762.82,-26.44 770.53,-19.17 759.97,-20.04 762.82,-26.44"/>
</a>
</g>
</g>
<!-- Node31&#45;&gt;Node14 -->
<g id="edge19_Node000031_Node000014" class="edge">
<title>Node31&#45;&gt;Node14</title>
<g id="a_edge19_Node000031_Node000014"><a xlink:title=" ">
<path fill="none" stroke="#63b8ff" d="M450.27,-281.94C415.1,-278.69 359.24,-268.82 322,-239 252.8,-183.58 226.14,-72.98 218.01,-29.08"/>
<polygon fill="#63b8ff" stroke="#63b8ff" points="221.45,-28.46 216.29,-19.21 214.56,-29.66 221.45,-28.46"/>
</a>
</g>
</g>
<!-- Node32 -->
<g id="Node000032" class="node">
<title>Node32</title>
<g id="a_Node000032"><a xlink:href="exception__utils_8h.html" target="_top" xlink:title=" ">
<polygon fill="white" stroke="#666666" points="431,-239 331,-239 331,-220 431,-220 431,-239"/>
<text text-anchor="middle" x="381" y="-227" font-family="Helvetica,sans-Serif" font-size="10.00">exception_utils.h</text>
</a>
</g>
</g>
<!-- Node31&#45;&gt;Node32 -->
<g id="edge20_Node000031_Node000032" class="edge">
<title>Node31&#45;&gt;Node32</title>
<g id="a_edge20_Node000031_Node000032"><a xlink:title=" ">
<path fill="none" stroke="#63b8ff" d="M466.61,-274.98C450.43,-266.57 425.43,-253.59 406.62,-243.81"/>
<polygon fill="#63b8ff" stroke="#63b8ff" points="408.17,-240.68 397.69,-239.17 404.95,-246.89 408.17,-240.68"/>
</a>
</g>
</g>
<!-- Node31&#45;&gt;Node33 -->
<g id="edge24_Node000031_Node000033" class="edge">
<title>Node31&#45;&gt;Node33</title>
<g id="a_edge24_Node000031_Node000033"><a xlink:title=" ">
<path fill="none" stroke="#63b8ff" d="M492.32,-274.98C500.81,-267.23 513.56,-255.58 523.88,-246.14"/>
<polygon fill="#63b8ff" stroke="#63b8ff" points="526.49,-248.5 531.51,-239.17 521.77,-243.33 526.49,-248.5"/>
</a>
</g>
</g>
<!-- Node32&#45;&gt;Node6 -->
<g id="edge23_Node000032_Node000006" class="edge">
<title>Node32&#45;&gt;Node6</title>
<g id="a_edge23_Node000032_Node000006"><a xlink:title=" ">
<path fill="none" stroke="#63b8ff" d="M407.35,-219.98C434.76,-211.13 477.89,-197.19 508.56,-187.28"/>
<polygon fill="#63b8ff" stroke="#63b8ff" points="510,-190.49 518.44,-184.08 507.85,-183.83 510,-190.49"/>
</a>
</g>
</g>
<!-- Node32&#45;&gt;Node9 -->
<g id="edge21_Node000032_Node000009" class="edge">
<title>Node32&#45;&gt;Node9</title>
<g id="a_edge21_Node000032_Node000009"><a xlink:title=" ">
<path fill="none" stroke="#63b8ff" d="M380.92,-219.95C380.63,-187.95 379.59,-74.68 379.17,-29.4"/>
<polygon fill="#63b8ff" stroke="#63b8ff" points="382.67,-29.19 379.08,-19.22 375.67,-29.26 382.67,-29.19"/>
</a>
</g>
</g>
<!-- Node32&#45;&gt;Node11 -->
<g id="edge22_Node000032_Node000011" class="edge">
<title>Node32&#45;&gt;Node11</title>
<g id="a_edge22_Node000032_Node000011"><a xlink:title=" ">
<path fill="none" stroke="#63b8ff" d="M375.46,-219.74C359.12,-193.87 310.85,-117.48 288.98,-82.88"/>
<polygon fill="#63b8ff" stroke="#63b8ff" points="291.87,-80.89 283.57,-74.31 285.95,-84.63 291.87,-80.89"/>
</a>
</g>
</g>
<!-- Node37&#45;&gt;Node7 -->
<g id="edge32_Node000037_Node000007" class="edge">
<title>Node37&#45;&gt;Node7</title>
<g id="a_edge32_Node000037_Node000007"><a xlink:title=" ">
<path fill="none" stroke="#63b8ff" d="M125.72,-660.64C76.27,-648.55 0,-620.23 0,-560.5 0,-560.5 0,-560.5 0,-393.5 0,-186.24 317.32,-406.05 440,-239 461.55,-209.66 455.23,-164.31 449.27,-139.07"/>
<polygon fill="#63b8ff" stroke="#63b8ff" points="452.64,-138.1 446.74,-129.3 445.86,-139.86 452.64,-138.1"/>
</a>
</g>
</g>
<!-- Node38 -->
<g id="Node000038" class="node">
<title>Node38</title>
<g id="a_Node000038"><a xlink:href="pointer__expr_8h.html" target="_top" xlink:title="API to expression classes for Pointers.">
<polygon fill="white" stroke="#666666" points="210,-624 124,-624 124,-605 210,-605 210,-624"/>
<text text-anchor="middle" x="167" y="-612" font-family="Helvetica,sans-Serif" font-size="10.00">pointer_expr.h</text>
</a>
</g>
</g>
<!-- Node37&#45;&gt;Node38 -->
<g id="edge33_Node000037_Node000038" class="edge">
<title>Node37&#45;&gt;Node38</title>
<g id="a_edge33_Node000037_Node000038"><a xlink:title=" ">
<path fill="none" stroke="#63b8ff" d="M167,-659.75C167,-652.8 167,-642.85 167,-634.13"/>
<polygon fill="#63b8ff" stroke="#63b8ff" points="170.5,-634.09 167,-624.09 163.5,-634.09 170.5,-634.09"/>
</a>
</g>
</g>
<!-- Node39 -->
<g id="Node000039" class="node">
<title>Node39</title>
<g id="a_Node000039"><a xlink:href="bitvector__types_8h.html" target="_top" xlink:title="Pre&#45;defined bitvector types.">
<polygon fill="white" stroke="#666666" points="268.5,-569 167.5,-569 167.5,-550 268.5,-550 268.5,-569"/>
<text text-anchor="middle" x="218" y="-557" font-family="Helvetica,sans-Serif" font-size="10.00">bitvector_types.h</text>
</a>
</g>
</g>
<!-- Node38&#45;&gt;Node39 -->
<g id="edge34_Node000038_Node000039" class="edge">
<title>Node38&#45;&gt;Node39</title>
<g id="a_edge34_Node000038_Node000039"><a xlink:title=" ">
<path fill="none" stroke="#63b8ff" d="M175.42,-604.75C182.77,-597.11 193.63,-585.82 202.54,-576.56"/>
<polygon fill="#63b8ff" stroke="#63b8ff" points="205.32,-578.72 209.74,-569.09 200.28,-573.87 205.32,-578.72"/>
</a>
</g>
</g>
<!-- Node45 -->
<g id="Node000045" class="node">
<title>Node45</title>
<g id="a_Node000045"><a xlink:href="std__expr_8h.html" target="_top" xlink:title="API to expression classes.">
<polygon fill="white" stroke="#666666" points="149.5,-569 82.5,-569 82.5,-550 149.5,-550 149.5,-569"/>
<text text-anchor="middle" x="116" y="-557" font-family="Helvetica,sans-Serif" font-size="10.00">std_expr.h</text>
</a>
</g>
</g>
<!-- Node38&#45;&gt;Node45 -->
<g id="edge50_Node000038_Node000045" class="edge">
<title>Node38&#45;&gt;Node45</title>
<g id="a_edge50_Node000038_Node000045"><a xlink:title=" ">
<path fill="none" stroke="#63b8ff" d="M158.58,-604.75C151.23,-597.11 140.37,-585.82 131.46,-576.56"/>
<polygon fill="#63b8ff" stroke="#63b8ff" points="133.72,-573.87 124.26,-569.09 128.68,-578.72 133.72,-573.87"/>
</a>
</g>
</g>
<!-- Node40 -->
<g id="Node000040" class="node">
<title>Node40</title>
<g id="a_Node000040"><a xlink:href="std__types_8h.html" target="_top" xlink:title="Pre&#45;defined types.">
<polygon fill="white" stroke="#666666" points="398.5,-514 325.5,-514 325.5,-495 398.5,-495 398.5,-514"/>
<text text-anchor="middle" x="362" y="-502" font-family="Helvetica,sans-Serif" font-size="10.00">std_types.h</text>
</a>
</g>
</g>
<!-- Node39&#45;&gt;Node40 -->
<g id="edge35_Node000039_Node000040" class="edge">
<title>Node39&#45;&gt;Node40</title>
<g id="a_edge35_Node000039_Node000040"><a xlink:title=" ">
<path fill="none" stroke="#63b8ff" d="M241.14,-549.98C264.82,-541.27 301.87,-527.63 328.71,-517.75"/>
<polygon fill="#63b8ff" stroke="#63b8ff" points="330.27,-520.91 338.44,-514.17 327.85,-514.34 330.27,-520.91"/>
</a>
</g>
</g>
<!-- Node40&#45;&gt;Node3 -->
<g id="edge36_Node000040_Node000003" class="edge">
<title>Node40&#45;&gt;Node3</title>
<g id="a_edge36_Node000040_Node000003"><a xlink:title=" ">
<path fill="none" stroke="#63b8ff" d="M398.75,-499.81C435.14,-494.87 491.44,-483.67 534,-459 554.31,-447.23 572.41,-426.97 583.73,-412.5"/>
<polygon fill="#63b8ff" stroke="#63b8ff" points="586.64,-414.46 589.87,-404.37 581.05,-410.25 586.64,-414.46"/>
</a>
</g>
</g>
<!-- Node40&#45;&gt;Node11 -->
<g id="edge43_Node000040_Node000011" class="edge">
<title>Node40&#45;&gt;Node11</title>
<g id="a_edge43_Node000040_Node000011"><a xlink:title=" ">
<path fill="none" stroke="#63b8ff" d="M346.14,-494.93C332.85,-487.07 314.17,-474.35 302,-459 249.81,-393.17 227,-369.51 227,-285.5 227,-285.5 227,-285.5 227,-228.5 227,-173.33 253.94,-112.25 268.66,-83"/>
<polygon fill="#63b8ff" stroke="#63b8ff" points="271.81,-84.53 273.29,-74.04 265.59,-81.31 271.81,-84.53"/>
</a>
</g>
</g>
<!-- Node40&#45;&gt;Node31 -->
<g id="edge48_Node000040_Node000031" class="edge">
<title>Node40&#45;&gt;Node31</title>
<g id="a_edge48_Node000040_Node000031"><a xlink:title=" ">
<path fill="none" stroke="#63b8ff" d="M398.71,-503.02C431.48,-500.41 477.77,-490.83 501,-459 535.46,-411.78 507.72,-337.13 491.99,-303.26"/>
<polygon fill="#63b8ff" stroke="#63b8ff" points="495.08,-301.61 487.57,-294.13 488.78,-304.66 495.08,-301.61"/>
</a>
</g>
</g>
<!-- Node40&#45;&gt;Node41 -->
<g id="edge37_Node000040_Node000041" class="edge">
<title>Node40&#45;&gt;Node41</title>
<g id="a_edge37_Node000040_Node000041"><a xlink:title=" ">
<path fill="none" stroke="#63b8ff" d="M330.03,-494.98C296.18,-485.97 242.6,-471.7 205.29,-461.76"/>
<polygon fill="#63b8ff" stroke="#63b8ff" points="205.79,-458.27 195.22,-459.08 203.99,-465.04 205.79,-458.27"/>
</a>
</g>
</g>
<!-- Node43 -->
<g id="Node000043" class="node">
<title>Node43</title>
<g id="a_Node000043"><a xlink:href="mp__arith_8h.html" target="_top" xlink:title=" ">
<polygon fill="white" stroke="#666666" points="380.5,-459 311.5,-459 311.5,-440 380.5,-440 380.5,-459"/>
<text text-anchor="middle" x="346" y="-447" font-family="Helvetica,sans-Serif" font-size="10.00">mp_arith.h</text>
</a>
</g>
</g>
<!-- Node40&#45;&gt;Node43 -->
<g id="edge44_Node000040_Node000043" class="edge">
<title>Node40&#45;&gt;Node43</title>
<g id="a_edge44_Node000040_Node000043"><a xlink:title=" ">
<path fill="none" stroke="#63b8ff" d="M359.36,-494.75C357.24,-487.72 354.19,-477.62 351.54,-468.84"/>
<polygon fill="#63b8ff" stroke="#63b8ff" points="354.83,-467.65 348.59,-459.09 348.13,-469.67 354.83,-467.65"/>
</a>
</g>
</g>
<!-- Node22 -->
<g id="Node000022" class="node">
<title>Node22</title>
<g id="a_Node000022"><a xlink:title=" ">
<polygon fill="#e0e0e0" stroke="#999999" points="491.5,-459 398.5,-459 398.5,-440 491.5,-440 491.5,-459"/>
<text text-anchor="middle" x="445" y="-447" font-family="Helvetica,sans-Serif" font-size="10.00">unordered_map</text>
</a>
</g>
</g>
<!-- Node40&#45;&gt;Node22 -->
<g id="edge49_Node000040_Node000022" class="edge">
<title>Node40&#45;&gt;Node22</title>
<g id="a_edge49_Node000040_Node000022"><a xlink:title=" ">
<path fill="none" stroke="#63b8ff" d="M375.34,-494.98C388.09,-486.84 407.55,-474.41 422.67,-464.76"/>
<polygon fill="#63b8ff" stroke="#63b8ff" points="424.88,-467.5 431.42,-459.17 421.11,-461.6 424.88,-467.5"/>
</a>
</g>
</g>
<!-- Node41&#45;&gt;Node3 -->
<g id="edge42_Node000041_Node000003" class="edge">
<title>Node41&#45;&gt;Node3</title>
<g id="a_edge42_Node000041_Node000003"><a xlink:title=" ">
<path fill="none" stroke="#63b8ff" d="M199.54,-444.03C279.2,-434.28 468.15,-411.15 553.2,-400.74"/>
<polygon fill="#63b8ff" stroke="#63b8ff" points="553.79,-404.19 563.29,-399.5 552.94,-397.25 553.79,-404.19"/>
</a>
</g>
</g>
<!-- Node41&#45;&gt;Node11 -->
<g id="edge41_Node000041_Node000011" class="edge">
<title>Node41&#45;&gt;Node11</title>
<g id="a_edge41_Node000041_Node000011"><a xlink:title=" ">
<path fill="none" stroke="#63b8ff" d="M155.98,-439.87C142.43,-422.3 114,-380.65 114,-340.5 114,-340.5 114,-340.5 114,-173.5 114,-116.21 184.67,-87.6 233.23,-74.7"/>
<polygon fill="#63b8ff" stroke="#63b8ff" points="234.38,-78.02 243.22,-72.18 232.67,-71.23 234.38,-78.02"/>
</a>
</g>
</g>
<!-- Node41&#45;&gt;Node14 -->
<g id="edge39_Node000041_Node000014" class="edge">
<title>Node41&#45;&gt;Node14</title>
<g id="a_edge39_Node000041_Node000014"><a xlink:title=" ">
<path fill="none" stroke="#63b8ff" d="M152.76,-439.89C143.39,-431.55 129.7,-418.11 121,-404 64.3,-312.03 38,-283.55 38,-175.5 38,-175.5 38,-175.5 38,-118.5 38,-56.57 117.93,-29.1 170.36,-17.75"/>
<polygon fill="#63b8ff" stroke="#63b8ff" points="171.36,-21.12 180.45,-15.69 169.95,-14.26 171.36,-21.12"/>
</a>
</g>
</g>
<!-- Node41&#45;&gt;Node36 -->
<g id="edge40_Node000041_Node000036" class="edge">
<title>Node41&#45;&gt;Node36</title>
<g id="a_edge40_Node000041_Node000036"><a xlink:title=" ">
<path fill="none" stroke="#63b8ff" d="M176.22,-439.84C204.58,-421.28 271.49,-377.49 306.22,-354.75"/>
<polygon fill="#63b8ff" stroke="#63b8ff" points="308.26,-357.6 314.71,-349.2 304.43,-351.74 308.26,-357.6"/>
</a>
</g>
</g>
<!-- Node42 -->
<g id="Node000042" class="node">
<title>Node42</title>
<g id="a_Node000042"><a xlink:title=" ">
<polygon fill="#e0e0e0" stroke="#999999" points="199.5,-404 142.5,-404 142.5,-385 199.5,-385 199.5,-404"/>
<text text-anchor="middle" x="171" y="-392" font-family="Helvetica,sans-Serif" font-size="10.00">typeinfo</text>
</a>
</g>
</g>
<!-- Node41&#45;&gt;Node42 -->
<g id="edge38_Node000041_Node000042" class="edge">
<title>Node41&#45;&gt;Node42</title>
<g id="a_edge38_Node000041_Node000042"><a xlink:title=" ">
<path fill="none" stroke="#63b8ff" d="M164.32,-439.75C165.37,-432.8 166.87,-422.85 168.19,-414.13"/>
<polygon fill="#63b8ff" stroke="#63b8ff" points="171.67,-414.5 169.7,-404.09 164.75,-413.45 171.67,-414.5"/>
</a>
</g>
</g>
<!-- Node43&#45;&gt;Node9 -->
<g id="edge46_Node000043_Node000009" class="edge">
<title>Node43&#45;&gt;Node9</title>
<g id="a_edge46_Node000043_Node000009"><a xlink:title=" ">
<path fill="none" stroke="#63b8ff" d="M380.61,-439.98C411.5,-431.6 453.32,-418.04 463,-404 467.79,-397.05 466.16,-392.83 463,-385 429.21,-301.36 355.79,-322.64 322,-239 291.36,-163.17 343.41,-66.32 367.63,-27.61"/>
<polygon fill="#63b8ff" stroke="#63b8ff" points="370.66,-29.37 373.12,-19.07 364.77,-25.59 370.66,-29.37"/>
</a>
</g>
</g>
<!-- Node17 -->
<g id="Node000017" class="node">
<title>Node17</title>
<g id="a_Node000017"><a xlink:title=" ">
<polygon fill="#e0e0e0" stroke="#999999" points="342,-404 294,-404 294,-385 342,-385 342,-404"/>
<text text-anchor="middle" x="318" y="-392" font-family="Helvetica,sans-Serif" font-size="10.00">iosfwd</text>
</a>
</g>
</g>
<!-- Node43&#45;&gt;Node17 -->
<g id="edge45_Node000043_Node000017" class="edge">
<title>Node43&#45;&gt;Node17</title>
<g id="a_edge45_Node000043_Node000017"><a xlink:title=" ">
<path fill="none" stroke="#63b8ff" d="M341.38,-439.75C337.54,-432.49 331.98,-421.95 327.24,-412.98"/>
<polygon fill="#63b8ff" stroke="#63b8ff" points="330.3,-411.3 322.54,-404.09 324.11,-414.57 330.3,-411.3"/>
</a>
</g>
</g>
<!-- Node44 -->
<g id="Node000044" class="node">
<title>Node44</title>
<g id="a_Node000044"><a xlink:title=" ">
<polygon fill="#e0e0e0" stroke="#999999" points="454,-404 360,-404 360,-385 454,-385 454,-404"/>
<text text-anchor="middle" x="407" y="-392" font-family="Helvetica,sans-Serif" font-size="10.00">big&#45;int/bigint.hh</text>
</a>
</g>
</g>
<!-- Node43&#45;&gt;Node44 -->
<g id="edge47_Node000043_Node000044" class="edge">
<title>Node43&#45;&gt;Node44</title>
<g id="a_edge47_Node000043_Node000044"><a xlink:title=" ">
<path fill="none" stroke="#63b8ff" d="M355.8,-439.98C364.82,-432.15 378.41,-420.34 389.32,-410.86"/>
<polygon fill="#63b8ff" stroke="#63b8ff" points="391.77,-413.37 397.02,-404.17 387.18,-408.09 391.77,-413.37"/>
</a>
</g>
</g>
<!-- Node45&#45;&gt;Node11 -->
<g id="edge52_Node000045_Node000011" class="edge">
<title>Node45&#45;&gt;Node11</title>
<g id="a_edge52_Node000045_Node000011"><a xlink:title=" ">
<path fill="none" stroke="#63b8ff" d="M103.81,-549.95C81.88,-533.45 38,-494.91 38,-450.5 38,-450.5 38,-450.5 38,-338.5 38,-229.35 44.11,-179.83 128,-110 157.77,-85.23 200.9,-74.24 233.28,-69.38"/>
<polygon fill="#63b8ff" stroke="#63b8ff" points="233.95,-72.82 243.39,-68 233.01,-65.88 233.95,-72.82"/>
</a>
</g>
</g>
<!-- Node45&#45;&gt;Node40 -->
<g id="edge53_Node000045_Node000040" class="edge">
<title>Node45&#45;&gt;Node40</title>
<g id="a_edge53_Node000045_Node000040"><a xlink:title=" ">
<path fill="none" stroke="#63b8ff" d="M149.69,-551.24C192.56,-542 266.85,-526 315.21,-515.58"/>
<polygon fill="#63b8ff" stroke="#63b8ff" points="316.07,-518.98 325.11,-513.45 314.6,-512.13 316.07,-518.98"/>
</a>
</g>
</g>
<!-- Node45&#45;&gt;Node41 -->
<g id="edge51_Node000045_Node000041" class="edge">
<title>Node45&#45;&gt;Node41</title>
<g id="a_edge51_Node000045_Node000041"><a xlink:title=" ">
<path fill="none" stroke="#63b8ff" d="M119.85,-549.66C127.53,-532.01 144.9,-492.09 155.11,-468.64"/>
<polygon fill="#63b8ff" stroke="#63b8ff" points="158.45,-469.72 159.23,-459.16 152.03,-466.93 158.45,-469.72"/>
</a>
</g>
</g>
<!-- Node46&#45;&gt;Node8 -->
<g id="edge57_Node000046_Node000008" class="edge">
<title>Node46&#45;&gt;Node8</title>
<g id="a_edge57_Node000046_Node000008"><a xlink:title=" ">
<path fill="none" stroke="#63b8ff" d="M671,-164.75C671,-157.8 671,-147.85 671,-139.13"/>
<polygon fill="#63b8ff" stroke="#63b8ff" points="674.5,-139.09 671,-129.09 667.5,-139.09 674.5,-139.09"/>
</a>
</g>
</g>
<!-- Node46&#45;&gt;Node11 -->
<g id="edge56_Node000046_Node000011" class="edge">
<title>Node46&#45;&gt;Node11</title>
<g id="a_edge56_Node000046_Node000011"><a xlink:title=" ">
<path fill="none" stroke="#63b8ff" d="M659.86,-164.9C641.16,-150.95 601.81,-123.59 564,-110 482.31,-80.64 380.64,-70.64 323.15,-67.24"/>
<polygon fill="#63b8ff" stroke="#63b8ff" points="323.12,-63.74 312.94,-66.68 322.74,-70.73 323.12,-63.74"/>
</a>
</g>
</g>
</g>
</svg>
