<?xml version="1.0" encoding="UTF-8" standalone="no"?>
<!DOCTYPE svg PUBLIC "-//W3C//DTD SVG 1.1//EN"
 "http://www.w3.org/Graphics/SVG/1.1/DTD/svg11.dtd">
<!-- Generated by graphviz version 2.43.0 (0)
 -->
<!-- Title: /home/runner/work/cbmc/cbmc/src/goto&#45;instrument/wmm/fence.cpp Pages: 1 -->
<svg width="1373pt" height="500pt"
 viewBox="0.00 0.00 1373.16 500.00" xmlns="http://www.w3.org/2000/svg" xmlns:xlink="http://www.w3.org/1999/xlink">
<g id="graph0" class="graph" transform="scale(1 1) rotate(0) translate(4 496)">
<title>/home/runner/work/cbmc/cbmc/src/goto&#45;instrument/wmm/fence.cpp</title>
<!-- Node1 -->
<g id="Node000001" class="node">
<title>Node1</title>
<g id="a_Node000001"><a xlink:title="Fences for instrumentation.">
<polygon fill="#999999" stroke="#666666" points="1145.16,-492 1000.16,-492 1000.16,-451 1145.16,-451 1145.16,-492"/>
<text text-anchor="start" x="1008.16" y="-480" font-family="Helvetica,sans-Serif" font-size="10.00">/home/runner/work/cbmc</text>
<text text-anchor="start" x="1008.16" y="-469" font-family="Helvetica,sans-Serif" font-size="10.00">/cbmc/src/goto&#45;instrument</text>
<text text-anchor="middle" x="1072.66" y="-458" font-family="Helvetica,sans-Serif" font-size="10.00">/wmm/fence.cpp</text>
</a>
</g>
</g>
<!-- Node2 -->
<g id="Node000002" class="node">
<title>Node2</title>
<g id="a_Node000002"><a xlink:href="fence_8h.html" target="_top" xlink:title="Fences for instrumentation.">
<polygon fill="white" stroke="#666666" points="682.16,-415 629.16,-415 629.16,-396 682.16,-396 682.16,-415"/>
<text text-anchor="middle" x="655.66" y="-403" font-family="Helvetica,sans-Serif" font-size="10.00">fence.h</text>
</a>
</g>
</g>
<!-- Node1&#45;&gt;Node2 -->
<g id="edge1_Node000001_Node000002" class="edge">
<title>Node1&#45;&gt;Node2</title>
<g id="a_edge1_Node000001_Node000002"><a xlink:title=" ">
<path fill="none" stroke="#63b8ff" d="M1000.02,-459.35C910.35,-445.59 761.3,-422.71 692.52,-412.16"/>
<polygon fill="#63b8ff" stroke="#63b8ff" points="692.99,-408.69 682.58,-410.63 691.93,-415.61 692.99,-408.69"/>
</a>
</g>
</g>
<!-- Node48 -->
<g id="Node000048" class="node">
<title>Node48</title>
<g id="a_Node000048"><a xlink:href="namespace_8h.html" target="_top" xlink:title=" ">
<polygon fill="white" stroke="#666666" points="1123.16,-294 1022.16,-294 1022.16,-275 1123.16,-275 1123.16,-294"/>
<text text-anchor="middle" x="1072.66" y="-282" font-family="Helvetica,sans-Serif" font-size="10.00">util/namespace.h</text>
</a>
</g>
</g>
<!-- Node1&#45;&gt;Node48 -->
<g id="edge59_Node000001_Node000048" class="edge">
<title>Node1&#45;&gt;Node48</title>
<g id="a_edge59_Node000001_Node000048"><a xlink:title=" ">
<path fill="none" stroke="#63b8ff" d="M1072.66,-450.7C1072.66,-414.86 1072.66,-339.67 1072.66,-304.46"/>
<polygon fill="#63b8ff" stroke="#63b8ff" points="1076.16,-304.16 1072.66,-294.16 1069.16,-304.16 1076.16,-304.16"/>
</a>
</g>
</g>
<!-- Node49 -->
<g id="Node000049" class="node">
<title>Node49</title>
<g id="a_Node000049"><a xlink:href="symbol_8h.html" target="_top" xlink:title="Symbol table entry.">
<polygon fill="white" stroke="#666666" points="1235.66,-129 1155.66,-129 1155.66,-110 1235.66,-110 1235.66,-129"/>
<text text-anchor="middle" x="1195.66" y="-117" font-family="Helvetica,sans-Serif" font-size="10.00">util/symbol.h</text>
</a>
</g>
</g>
<!-- Node1&#45;&gt;Node49 -->
<g id="edge62_Node000001_Node000049" class="edge">
<title>Node1&#45;&gt;Node49</title>
<g id="a_edge62_Node000001_Node000049"><a xlink:title=" ">
<path fill="none" stroke="#63b8ff" d="M1138.97,-450.95C1186.31,-432.44 1241.66,-399.39 1241.66,-346 1241.66,-346 1241.66,-346 1241.66,-228.5 1241.66,-194.04 1221.59,-157.98 1207.96,-137.47"/>
<polygon fill="#63b8ff" stroke="#63b8ff" points="1210.81,-135.44 1202.25,-129.2 1205.05,-139.42 1210.81,-135.44"/>
</a>
</g>
</g>
<!-- Node3 -->
<g id="Node000003" class="node">
<title>Node3</title>
<g id="a_Node000003"><a xlink:href="goto__program_8h.html" target="_top" xlink:title="Concrete Goto Program.">
<polygon fill="white" stroke="#666666" points="308.16,-360 195.16,-360 195.16,-330 308.16,-330 308.16,-360"/>
<text text-anchor="start" x="203.16" y="-348" font-family="Helvetica,sans-Serif" font-size="10.00">goto&#45;programs/goto</text>
<text text-anchor="middle" x="251.66" y="-337" font-family="Helvetica,sans-Serif" font-size="10.00">_program.h</text>
</a>
</g>
</g>
<!-- Node2&#45;&gt;Node3 -->
<g id="edge2_Node000002_Node000003" class="edge">
<title>Node2&#45;&gt;Node3</title>
<g id="a_edge2_Node000002_Node000003"><a xlink:title=" ">
<path fill="none" stroke="#63b8ff" d="M629.15,-400.66C566.78,-391.63 409.18,-368.81 318.56,-355.69"/>
<polygon fill="#63b8ff" stroke="#63b8ff" points="318.79,-352.18 308.39,-354.22 317.79,-359.11 318.79,-352.18"/>
</a>
</g>
</g>
<!-- Node4 -->
<g id="Node000004" class="node">
<title>Node4</title>
<g id="a_Node000004"><a xlink:href="src_2util_2invariant_8h.html" target="_top" xlink:title=" ">
<polygon fill="white" stroke="#666666" points="965.66,-74 877.66,-74 877.66,-55 965.66,-55 965.66,-74"/>
<text text-anchor="middle" x="921.66" y="-62" font-family="Helvetica,sans-Serif" font-size="10.00">util/invariant.h</text>
</a>
</g>
</g>
<!-- Node3&#45;&gt;Node4 -->
<g id="edge3_Node000003_Node000004" class="edge">
<title>Node3&#45;&gt;Node4</title>
<g id="a_edge3_Node000003_Node000004"><a xlink:title=" ">
<path fill="none" stroke="#63b8ff" d="M308.16,-343.69C444.37,-341.43 779.66,-326.14 779.66,-230.5 779.66,-230.5 779.66,-230.5 779.66,-173.5 779.66,-144.04 778.42,-131.41 798.66,-110 816.75,-90.85 843.71,-79.92 867.78,-73.69"/>
<polygon fill="#63b8ff" stroke="#63b8ff" points="868.61,-77.09 877.53,-71.37 866.99,-70.28 868.61,-77.09"/>
</a>
</g>
</g>
<!-- Node7 -->
<g id="Node000007" class="node">
<title>Node7</title>
<g id="a_Node000007"><a xlink:title=" ">
<polygon fill="#e0e0e0" stroke="#999999" points="163.66,-19 119.66,-19 119.66,0 163.66,0 163.66,-19"/>
<text text-anchor="middle" x="141.66" y="-7" font-family="Helvetica,sans-Serif" font-size="10.00">string</text>
</a>
</g>
</g>
<!-- Node3&#45;&gt;Node7 -->
<g id="edge58_Node000003_Node000007" class="edge">
<title>Node3&#45;&gt;Node7</title>
<g id="a_edge58_Node000003_Node000007"><a xlink:title=" ">
<path fill="none" stroke="#63b8ff" d="M195.11,-338.41C134.86,-331.35 44.77,-317.21 19.66,-294 -1.97,-274 0.66,-259.96 0.66,-230.5 0.66,-230.5 0.66,-230.5 0.66,-118.5 0.66,-63.81 68.35,-33.06 109.93,-19.33"/>
<polygon fill="#63b8ff" stroke="#63b8ff" points="111.14,-22.62 119.63,-16.27 109.04,-15.94 111.14,-22.62"/>
</a>
</g>
</g>
<!-- Node9 -->
<g id="Node000009" class="node">
<title>Node9</title>
<g id="a_Node000009"><a xlink:href="source__location_8h.html" target="_top" xlink:title=" ">
<polygon fill="white" stroke="#666666" points="312.16,-294 191.16,-294 191.16,-275 312.16,-275 312.16,-294"/>
<text text-anchor="middle" x="251.66" y="-282" font-family="Helvetica,sans-Serif" font-size="10.00">util/source_location.h</text>
</a>
</g>
</g>
<!-- Node3&#45;&gt;Node9 -->
<g id="edge8_Node000003_Node000009" class="edge">
<title>Node3&#45;&gt;Node9</title>
<g id="a_edge8_Node000003_Node000009"><a xlink:title=" ">
<path fill="none" stroke="#63b8ff" d="M251.66,-329.84C251.66,-322.21 251.66,-312.7 251.66,-304.45"/>
<polygon fill="#63b8ff" stroke="#63b8ff" points="255.16,-304.27 251.66,-294.27 248.16,-304.27 255.16,-304.27"/>
</a>
</g>
</g>
<!-- Node15 -->
<g id="Node000015" class="node">
<title>Node15</title>
<g id="a_Node000015"><a xlink:title=" ">
<polygon fill="#e0e0e0" stroke="#999999" points="326.66,-74 278.66,-74 278.66,-55 326.66,-55 326.66,-74"/>
<text text-anchor="middle" x="302.66" y="-62" font-family="Helvetica,sans-Serif" font-size="10.00">iosfwd</text>
</a>
</g>
</g>
<!-- Node3&#45;&gt;Node15 -->
<g id="edge54_Node000003_Node000015" class="edge">
<title>Node3&#45;&gt;Node15</title>
<g id="a_edge54_Node000003_Node000015"><a xlink:title=" ">
<path fill="none" stroke="#63b8ff" d="M282.92,-329.84C297.18,-321.59 312.66,-309.68 320.66,-294 332.89,-270.03 302.12,-226.28 297.66,-220 283.82,-200.49 268.37,-205.39 257.66,-184 242.9,-154.53 239.16,-140.08 252.66,-110 258.16,-97.74 268.89,-87.48 279.01,-79.91"/>
<polygon fill="#63b8ff" stroke="#63b8ff" points="281.01,-82.78 287.23,-74.2 277.02,-77.03 281.01,-82.78"/>
</a>
</g>
</g>
<!-- Node30 -->
<g id="Node000030" class="node">
<title>Node30</title>
<g id="a_Node000030"><a xlink:href="goto__instruction__code_8h.html" target="_top" xlink:title=" ">
<polygon fill="white" stroke="#666666" points="977.16,-294 844.16,-294 844.16,-275 977.16,-275 977.16,-294"/>
<text text-anchor="middle" x="910.66" y="-282" font-family="Helvetica,sans-Serif" font-size="10.00">goto_instruction_code.h</text>
</a>
</g>
</g>
<!-- Node3&#45;&gt;Node30 -->
<g id="edge28_Node000003_Node000030" class="edge">
<title>Node3&#45;&gt;Node30</title>
<g id="a_edge28_Node000003_Node000030"><a xlink:title=" ">
<path fill="none" stroke="#63b8ff" d="M308.41,-338.96C426.78,-328.45 700.06,-304.19 833.94,-292.31"/>
<polygon fill="#63b8ff" stroke="#63b8ff" points="834.46,-295.78 844.11,-291.41 833.84,-288.81 834.46,-295.78"/>
</a>
</g>
</g>
<!-- Node46 -->
<g id="Node000046" class="node">
<title>Node46</title>
<g id="a_Node000046"><a xlink:title=" ">
<polygon fill="#e0e0e0" stroke="#999999" points="72.66,-294 28.66,-294 28.66,-275 72.66,-275 72.66,-294"/>
<text text-anchor="middle" x="50.66" y="-282" font-family="Helvetica,sans-Serif" font-size="10.00">limits</text>
</a>
</g>
</g>
<!-- Node3&#45;&gt;Node46 -->
<g id="edge55_Node000003_Node000046" class="edge">
<title>Node3&#45;&gt;Node46</title>
<g id="a_edge55_Node000003_Node000046"><a xlink:title=" ">
<path fill="none" stroke="#63b8ff" d="M203.51,-329.99C166.1,-319.1 115.26,-304.3 82.69,-294.82"/>
<polygon fill="#63b8ff" stroke="#63b8ff" points="83.38,-291.38 72.8,-291.95 81.43,-298.1 83.38,-291.38"/>
</a>
</g>
</g>
<!-- Node19 -->
<g id="Node000019" class="node">
<title>Node19</title>
<g id="a_Node000019"><a xlink:title=" ">
<polygon fill="#e0e0e0" stroke="#999999" points="122.66,-294 90.66,-294 90.66,-275 122.66,-275 122.66,-294"/>
<text text-anchor="middle" x="106.66" y="-282" font-family="Helvetica,sans-Serif" font-size="10.00">list</text>
</a>
</g>
</g>
<!-- Node3&#45;&gt;Node19 -->
<g id="edge56_Node000003_Node000019" class="edge">
<title>Node3&#45;&gt;Node19</title>
<g id="a_edge56_Node000003_Node000019"><a xlink:title=" ">
<path fill="none" stroke="#63b8ff" d="M216.93,-329.99C190.83,-319.46 155.67,-305.27 132.14,-295.78"/>
<polygon fill="#63b8ff" stroke="#63b8ff" points="133.41,-292.52 122.82,-292.02 130.79,-299.01 133.41,-292.52"/>
</a>
</g>
</g>
<!-- Node47 -->
<g id="Node000047" class="node">
<title>Node47</title>
<g id="a_Node000047"><a xlink:title=" ">
<polygon fill="#e0e0e0" stroke="#999999" points="172.66,-294 140.66,-294 140.66,-275 172.66,-275 172.66,-294"/>
<text text-anchor="middle" x="156.66" y="-282" font-family="Helvetica,sans-Serif" font-size="10.00">set</text>
</a>
</g>
</g>
<!-- Node3&#45;&gt;Node47 -->
<g id="edge57_Node000003_Node000047" class="edge">
<title>Node3&#45;&gt;Node47</title>
<g id="a_edge57_Node000003_Node000047"><a xlink:title=" ">
<path fill="none" stroke="#63b8ff" d="M228.66,-329.84C213.65,-320.6 194.15,-308.59 179.23,-299.4"/>
<polygon fill="#63b8ff" stroke="#63b8ff" points="180.97,-296.36 170.61,-294.09 177.29,-302.32 180.97,-296.36"/>
</a>
</g>
</g>
<!-- Node5 -->
<g id="Node000005" class="node">
<title>Node5</title>
<g id="a_Node000005"><a xlink:title=" ">
<polygon fill="#e0e0e0" stroke="#999999" points="1017.16,-19 968.16,-19 968.16,0 1017.16,0 1017.16,-19"/>
<text text-anchor="middle" x="992.66" y="-7" font-family="Helvetica,sans-Serif" font-size="10.00">cstdlib</text>
</a>
</g>
</g>
<!-- Node4&#45;&gt;Node5 -->
<g id="edge4_Node000004_Node000005" class="edge">
<title>Node4&#45;&gt;Node5</title>
<g id="a_edge4_Node000004_Node000005"><a xlink:title=" ">
<path fill="none" stroke="#63b8ff" d="M933.07,-54.98C943.77,-47 960,-34.88 972.82,-25.31"/>
<polygon fill="#63b8ff" stroke="#63b8ff" points="975.12,-27.96 981.04,-19.17 970.94,-22.35 975.12,-27.96"/>
</a>
</g>
</g>
<!-- Node6 -->
<g id="Node000006" class="node">
<title>Node6</title>
<g id="a_Node000006"><a xlink:title=" ">
<polygon fill="#e0e0e0" stroke="#999999" points="949.66,-19 893.66,-19 893.66,0 949.66,0 949.66,-19"/>
<text text-anchor="middle" x="921.66" y="-7" font-family="Helvetica,sans-Serif" font-size="10.00">sstream</text>
</a>
</g>
</g>
<!-- Node4&#45;&gt;Node6 -->
<g id="edge5_Node000004_Node000006" class="edge">
<title>Node4&#45;&gt;Node6</title>
<g id="a_edge5_Node000004_Node000006"><a xlink:title=" ">
<path fill="none" stroke="#63b8ff" d="M921.66,-54.75C921.66,-47.8 921.66,-37.85 921.66,-29.13"/>
<polygon fill="#63b8ff" stroke="#63b8ff" points="925.16,-29.09 921.66,-19.09 918.16,-29.09 925.16,-29.09"/>
</a>
</g>
</g>
<!-- Node4&#45;&gt;Node7 -->
<g id="edge6_Node000004_Node000007" class="edge">
<title>Node4&#45;&gt;Node7</title>
<g id="a_edge6_Node000004_Node000007"><a xlink:title=" ">
<path fill="none" stroke="#63b8ff" d="M877.49,-60.5C736.24,-50.9 297.64,-21.1 174.25,-12.71"/>
<polygon fill="#63b8ff" stroke="#63b8ff" points="174.17,-9.2 163.96,-12.02 173.7,-16.19 174.17,-9.2"/>
</a>
</g>
</g>
<!-- Node8 -->
<g id="Node000008" class="node">
<title>Node8</title>
<g id="a_Node000008"><a xlink:title=" ">
<polygon fill="#e0e0e0" stroke="#999999" points="875.16,-19 806.16,-19 806.16,0 875.16,0 875.16,-19"/>
<text text-anchor="middle" x="840.66" y="-7" font-family="Helvetica,sans-Serif" font-size="10.00">type_traits</text>
</a>
</g>
</g>
<!-- Node4&#45;&gt;Node8 -->
<g id="edge7_Node000004_Node000008" class="edge">
<title>Node4&#45;&gt;Node8</title>
<g id="a_edge7_Node000004_Node000008"><a xlink:title=" ">
<path fill="none" stroke="#63b8ff" d="M908.64,-54.98C896.2,-46.84 877.2,-34.41 862.45,-24.76"/>
<polygon fill="#63b8ff" stroke="#63b8ff" points="864.19,-21.72 853.91,-19.17 860.36,-27.57 864.19,-21.72"/>
</a>
</g>
</g>
<!-- Node9&#45;&gt;Node7 -->
<g id="edge27_Node000009_Node000007" class="edge">
<title>Node9&#45;&gt;Node7</title>
<g id="a_edge27_Node000009_Node000007"><a xlink:title=" ">
<path fill="none" stroke="#63b8ff" d="M204.66,-274.99C153.73,-262.74 79.66,-234.74 79.66,-175.5 79.66,-175.5 79.66,-175.5 79.66,-118.5 79.66,-81.64 107.16,-45.97 125.53,-26.26"/>
<polygon fill="#63b8ff" stroke="#63b8ff" points="128.06,-28.67 132.51,-19.06 123.04,-23.8 128.06,-28.67"/>
</a>
</g>
</g>
<!-- Node10 -->
<g id="Node000010" class="node">
<title>Node10</title>
<g id="a_Node000010"><a xlink:href="deprecate_8h.html" target="_top" xlink:title=" ">
<polygon fill="white" stroke="#666666" points="214.66,-239 140.66,-239 140.66,-220 214.66,-220 214.66,-239"/>
<text text-anchor="middle" x="177.66" y="-227" font-family="Helvetica,sans-Serif" font-size="10.00">deprecate.h</text>
</a>
</g>
</g>
<!-- Node9&#45;&gt;Node10 -->
<g id="edge9_Node000009_Node000010" class="edge">
<title>Node9&#45;&gt;Node10</title>
<g id="a_edge9_Node000009_Node000010"><a xlink:title=" ">
<path fill="none" stroke="#63b8ff" d="M239.77,-274.98C228.51,-266.92 211.37,-254.65 197.95,-245.03"/>
<polygon fill="#63b8ff" stroke="#63b8ff" points="199.93,-242.15 189.76,-239.17 195.86,-247.84 199.93,-242.15"/>
</a>
</g>
</g>
<!-- Node11 -->
<g id="Node000011" class="node">
<title>Node11</title>
<g id="a_Node000011"><a xlink:href="irep_8h.html" target="_top" xlink:title=" ">
<polygon fill="white" stroke="#666666" points="494.66,-239 450.66,-239 450.66,-220 494.66,-220 494.66,-239"/>
<text text-anchor="middle" x="472.66" y="-227" font-family="Helvetica,sans-Serif" font-size="10.00">irep.h</text>
</a>
</g>
</g>
<!-- Node9&#45;&gt;Node11 -->
<g id="edge10_Node000009_Node000011" class="edge">
<title>Node9&#45;&gt;Node11</title>
<g id="a_edge10_Node000009_Node000011"><a xlink:title=" ">
<path fill="none" stroke="#63b8ff" d="M287.17,-274.98C329.48,-264.84 399.58,-248.03 440.41,-238.23"/>
<polygon fill="#63b8ff" stroke="#63b8ff" points="441.46,-241.58 450.36,-235.85 439.82,-234.77 441.46,-241.58"/>
</a>
</g>
</g>
<!-- Node29 -->
<g id="Node000029" class="node">
<title>Node29</title>
<g id="a_Node000029"><a xlink:title=" ">
<polygon fill="#e0e0e0" stroke="#999999" points="288.66,-239 232.66,-239 232.66,-220 288.66,-220 288.66,-239"/>
<text text-anchor="middle" x="260.66" y="-227" font-family="Helvetica,sans-Serif" font-size="10.00">optional</text>
</a>
</g>
</g>
<!-- Node9&#45;&gt;Node29 -->
<g id="edge26_Node000009_Node000029" class="edge">
<title>Node9&#45;&gt;Node29</title>
<g id="a_edge26_Node000009_Node000029"><a xlink:title=" ">
<path fill="none" stroke="#63b8ff" d="M253.14,-274.75C254.32,-267.8 256.01,-257.85 257.49,-249.13"/>
<polygon fill="#63b8ff" stroke="#63b8ff" points="260.98,-249.53 259.2,-239.09 254.07,-248.36 260.98,-249.53"/>
</a>
</g>
</g>
<!-- Node11&#45;&gt;Node4 -->
<g id="edge13_Node000011_Node000004" class="edge">
<title>Node11&#45;&gt;Node4</title>
<g id="a_edge13_Node000011_Node000004"><a xlink:title=" ">
<path fill="none" stroke="#63b8ff" d="M494.8,-222.27C522.14,-214.35 569.92,-199.8 609.66,-184 645.31,-169.82 729.75,-123.53 765.66,-110 801.92,-96.33 844.28,-84.5 875.69,-76.48"/>
<polygon fill="#63b8ff" stroke="#63b8ff" points="876.65,-79.85 885.49,-74.01 874.93,-73.06 876.65,-79.85"/>
</a>
</g>
</g>
<!-- Node11&#45;&gt;Node7 -->
<g id="edge11_Node000011_Node000007" class="edge">
<title>Node11&#45;&gt;Node7</title>
<g id="a_edge11_Node000011_Node000007"><a xlink:title=" ">
<path fill="none" stroke="#63b8ff" d="M450.37,-225.63C381.05,-216.18 171.74,-183.48 136.66,-129 116.94,-98.39 126.85,-53.52 134.86,-28.71"/>
<polygon fill="#63b8ff" stroke="#63b8ff" points="138.22,-29.71 138.19,-19.12 131.61,-27.41 138.22,-29.71"/>
</a>
</g>
</g>
<!-- Node12 -->
<g id="Node000012" class="node">
<title>Node12</title>
<g id="a_Node000012"><a xlink:title=" ">
<polygon fill="#e0e0e0" stroke="#999999" points="601.16,-184 554.16,-184 554.16,-165 601.16,-165 601.16,-184"/>
<text text-anchor="middle" x="577.66" y="-172" font-family="Helvetica,sans-Serif" font-size="10.00">vector</text>
</a>
</g>
</g>
<!-- Node11&#45;&gt;Node12 -->
<g id="edge12_Node000011_Node000012" class="edge">
<title>Node11&#45;&gt;Node12</title>
<g id="a_edge12_Node000011_Node000012"><a xlink:title=" ">
<path fill="none" stroke="#63b8ff" d="M489.53,-219.98C506.27,-211.54 532.16,-198.47 551.55,-188.68"/>
<polygon fill="#63b8ff" stroke="#63b8ff" points="553.13,-191.8 560.48,-184.17 549.98,-185.55 553.13,-191.8"/>
</a>
</g>
</g>
<!-- Node13 -->
<g id="Node000013" class="node">
<title>Node13</title>
<g id="a_Node000013"><a xlink:href="irep__ids_8h.html" target="_top" xlink:title="util">
<polygon fill="white" stroke="#666666" points="330.66,-184 266.66,-184 266.66,-165 330.66,-165 330.66,-184"/>
<text text-anchor="middle" x="298.66" y="-172" font-family="Helvetica,sans-Serif" font-size="10.00">irep_ids.h</text>
</a>
</g>
</g>
<!-- Node11&#45;&gt;Node13 -->
<g id="edge14_Node000011_Node000013" class="edge">
<title>Node11&#45;&gt;Node13</title>
<g id="a_edge14_Node000011_Node000013"><a xlink:title=" ">
<path fill="none" stroke="#63b8ff" d="M450.62,-221.79C421.99,-213.07 371.55,-197.7 336.68,-187.08"/>
<polygon fill="#63b8ff" stroke="#63b8ff" points="337.43,-183.65 326.84,-184.09 335.39,-190.35 337.43,-183.65"/>
</a>
</g>
</g>
<!-- Node24 -->
<g id="Node000024" class="node">
<title>Node24</title>
<g id="a_Node000024"><a xlink:href="forward__list__as__map_8h.html" target="_top" xlink:title=" ">
<polygon fill="white" stroke="#666666" points="536.16,-184 409.16,-184 409.16,-165 536.16,-165 536.16,-184"/>
<text text-anchor="middle" x="472.66" y="-172" font-family="Helvetica,sans-Serif" font-size="10.00">forward_list_as_map.h</text>
</a>
</g>
</g>
<!-- Node11&#45;&gt;Node24 -->
<g id="edge19_Node000011_Node000024" class="edge">
<title>Node11&#45;&gt;Node24</title>
<g id="a_edge19_Node000011_Node000024"><a xlink:title=" ">
<path fill="none" stroke="#63b8ff" d="M472.66,-219.75C472.66,-212.8 472.66,-202.85 472.66,-194.13"/>
<polygon fill="#63b8ff" stroke="#63b8ff" points="476.16,-194.09 472.66,-184.09 469.16,-194.09 476.16,-194.09"/>
</a>
</g>
</g>
<!-- Node14 -->
<g id="Node000014" class="node">
<title>Node14</title>
<g id="a_Node000014"><a xlink:href="dstring_8h.html" target="_top" xlink:title="Container for C&#45;Strings.">
<polygon fill="#fff0f0" stroke="red" points="205.16,-129 146.16,-129 146.16,-110 205.16,-110 205.16,-129"/>
<text text-anchor="middle" x="175.66" y="-117" font-family="Helvetica,sans-Serif" font-size="10.00">dstring.h</text>
</a>
</g>
</g>
<!-- Node13&#45;&gt;Node14 -->
<g id="edge15_Node000013_Node000014" class="edge">
<title>Node13&#45;&gt;Node14</title>
<g id="a_edge15_Node000013_Node000014"><a xlink:title=" ">
<path fill="none" stroke="#63b8ff" d="M278.9,-164.98C258.93,-156.38 227.85,-142.99 205.01,-133.15"/>
<polygon fill="#63b8ff" stroke="#63b8ff" points="206.35,-129.91 195.78,-129.17 203.58,-136.34 206.35,-129.91"/>
</a>
</g>
</g>
<!-- Node23 -->
<g id="Node000023" class="node">
<title>Node23</title>
<g id="a_Node000023"><a xlink:title=" ">
<polygon fill="#e0e0e0" stroke="#999999" points="335.66,-129 261.66,-129 261.66,-110 335.66,-110 335.66,-129"/>
<text text-anchor="middle" x="298.66" y="-117" font-family="Helvetica,sans-Serif" font-size="10.00">irep_ids.def</text>
</a>
</g>
</g>
<!-- Node13&#45;&gt;Node23 -->
<g id="edge18_Node000013_Node000023" class="edge">
<title>Node13&#45;&gt;Node23</title>
<g id="a_edge18_Node000013_Node000023"><a xlink:title=" ">
<path fill="none" stroke="#63b8ff" d="M298.66,-164.75C298.66,-157.8 298.66,-147.85 298.66,-139.13"/>
<polygon fill="#63b8ff" stroke="#63b8ff" points="302.16,-139.09 298.66,-129.09 295.16,-139.09 302.16,-139.09"/>
</a>
</g>
</g>
<!-- Node14&#45;&gt;Node7 -->
<g id="edge17_Node000014_Node000007" class="edge">
<title>Node14&#45;&gt;Node7</title>
<g id="a_edge17_Node000014_Node000007"><a xlink:title=" ">
<path fill="none" stroke="#63b8ff" d="M172.88,-109.66C167.34,-92.09 154.86,-52.45 147.47,-28.95"/>
<polygon fill="#63b8ff" stroke="#63b8ff" points="150.73,-27.65 144.38,-19.16 144.05,-29.75 150.73,-27.65"/>
</a>
</g>
</g>
<!-- Node14&#45;&gt;Node15 -->
<g id="edge16_Node000014_Node000015" class="edge">
<title>Node14&#45;&gt;Node15</title>
<g id="a_edge16_Node000014_Node000015"><a xlink:title=" ">
<path fill="none" stroke="#63b8ff" d="M196.06,-109.98C216.68,-101.38 248.76,-87.99 272.35,-78.15"/>
<polygon fill="#63b8ff" stroke="#63b8ff" points="274,-81.25 281.88,-74.17 271.31,-74.79 274,-81.25"/>
</a>
</g>
</g>
<!-- Node25 -->
<g id="Node000025" class="node">
<title>Node25</title>
<g id="a_Node000025"><a xlink:title=" ">
<polygon fill="#e0e0e0" stroke="#999999" points="417.66,-129 353.66,-129 353.66,-110 417.66,-110 417.66,-129"/>
<text text-anchor="middle" x="385.66" y="-117" font-family="Helvetica,sans-Serif" font-size="10.00">algorithm</text>
</a>
</g>
</g>
<!-- Node24&#45;&gt;Node25 -->
<g id="edge20_Node000024_Node000025" class="edge">
<title>Node24&#45;&gt;Node25</title>
<g id="a_edge20_Node000024_Node000025"><a xlink:title=" ">
<path fill="none" stroke="#63b8ff" d="M458.68,-164.98C445.19,-156.77 424.52,-144.18 408.62,-134.49"/>
<polygon fill="#63b8ff" stroke="#63b8ff" points="410.25,-131.38 399.89,-129.17 406.61,-137.36 410.25,-131.38"/>
</a>
</g>
</g>
<!-- Node26 -->
<g id="Node000026" class="node">
<title>Node26</title>
<g id="a_Node000026"><a xlink:title=" ">
<polygon fill="#e0e0e0" stroke="#999999" points="509.66,-129 435.66,-129 435.66,-110 509.66,-110 509.66,-129"/>
<text text-anchor="middle" x="472.66" y="-117" font-family="Helvetica,sans-Serif" font-size="10.00">forward_list</text>
</a>
</g>
</g>
<!-- Node24&#45;&gt;Node26 -->
<g id="edge21_Node000024_Node000026" class="edge">
<title>Node24&#45;&gt;Node26</title>
<g id="a_edge21_Node000024_Node000026"><a xlink:title=" ">
<path fill="none" stroke="#63b8ff" d="M472.66,-164.75C472.66,-157.8 472.66,-147.85 472.66,-139.13"/>
<polygon fill="#63b8ff" stroke="#63b8ff" points="476.16,-139.09 472.66,-129.09 469.16,-139.09 476.16,-139.09"/>
</a>
</g>
</g>
<!-- Node27 -->
<g id="Node000027" class="node">
<title>Node27</title>
<g id="a_Node000027"><a xlink:href="as__const_8h.html" target="_top" xlink:title=" ">
<polygon fill="white" stroke="#666666" points="723.66,-19 655.66,-19 655.66,0 723.66,0 723.66,-19"/>
<text text-anchor="middle" x="689.66" y="-7" font-family="Helvetica,sans-Serif" font-size="10.00">as_const.h</text>
</a>
</g>
</g>
<!-- Node24&#45;&gt;Node27 -->
<g id="edge22_Node000024_Node000027" class="edge">
<title>Node24&#45;&gt;Node27</title>
<g id="a_edge22_Node000024_Node000027"><a xlink:title=" ">
<path fill="none" stroke="#63b8ff" d="M521.34,-164.95C548.16,-158.44 580.93,-147.36 605.66,-129 642.14,-101.92 668.88,-54.26 681.52,-28.4"/>
<polygon fill="#63b8ff" stroke="#63b8ff" points="684.82,-29.6 685.93,-19.07 678.49,-26.61 684.82,-29.6"/>
</a>
</g>
</g>
<!-- Node28 -->
<g id="Node000028" class="node">
<title>Node28</title>
<g id="a_Node000028"><a xlink:href="narrow_8h.html" target="_top" xlink:title=" ">
<polygon fill="white" stroke="#666666" points="713.16,-129 654.16,-129 654.16,-110 713.16,-110 713.16,-129"/>
<text text-anchor="middle" x="683.66" y="-117" font-family="Helvetica,sans-Serif" font-size="10.00">narrow.h</text>
</a>
</g>
</g>
<!-- Node24&#45;&gt;Node28 -->
<g id="edge23_Node000024_Node000028" class="edge">
<title>Node24&#45;&gt;Node28</title>
<g id="a_edge23_Node000024_Node000028"><a xlink:title=" ">
<path fill="none" stroke="#63b8ff" d="M506.56,-164.98C544.07,-155.56 604.44,-140.4 644.08,-130.44"/>
<polygon fill="#63b8ff" stroke="#63b8ff" points="645.09,-133.8 653.93,-127.97 643.38,-127.01 645.09,-133.8"/>
</a>
</g>
</g>
<!-- Node28&#45;&gt;Node4 -->
<g id="edge25_Node000028_Node000004" class="edge">
<title>Node28&#45;&gt;Node4</title>
<g id="a_edge25_Node000028_Node000004"><a xlink:title=" ">
<path fill="none" stroke="#63b8ff" d="M713.32,-111.89C753.45,-102.96 825.54,-86.9 873.5,-76.22"/>
<polygon fill="#63b8ff" stroke="#63b8ff" points="874.34,-79.62 883.34,-74.03 872.82,-72.79 874.34,-79.62"/>
</a>
</g>
</g>
<!-- Node28&#45;&gt;Node8 -->
<g id="edge24_Node000028_Node000008" class="edge">
<title>Node28&#45;&gt;Node8</title>
<g id="a_edge24_Node000028_Node000008"><a xlink:title=" ">
<path fill="none" stroke="#63b8ff" d="M696.24,-109.84C723.11,-91.36 786.35,-47.86 819.51,-25.05"/>
<polygon fill="#63b8ff" stroke="#63b8ff" points="821.76,-27.75 828.02,-19.2 817.79,-21.98 821.76,-27.75"/>
</a>
</g>
</g>
<!-- Node31 -->
<g id="Node000031" class="node">
<title>Node31</title>
<g id="a_Node000031"><a xlink:href="std__code__base_8h.html" target="_top" xlink:title=" ">
<polygon fill="white" stroke="#666666" points="968.66,-239 852.66,-239 852.66,-220 968.66,-220 968.66,-239"/>
<text text-anchor="middle" x="910.66" y="-227" font-family="Helvetica,sans-Serif" font-size="10.00">util/std_code_base.h</text>
</a>
</g>
</g>
<!-- Node30&#45;&gt;Node31 -->
<g id="edge29_Node000030_Node000031" class="edge">
<title>Node30&#45;&gt;Node31</title>
<g id="a_edge29_Node000030_Node000031"><a xlink:title=" ">
<path fill="none" stroke="#63b8ff" d="M910.66,-274.75C910.66,-267.8 910.66,-257.85 910.66,-249.13"/>
<polygon fill="#63b8ff" stroke="#63b8ff" points="914.16,-249.09 910.66,-239.09 907.16,-249.09 914.16,-249.09"/>
</a>
</g>
</g>
<!-- Node45 -->
<g id="Node000045" class="node">
<title>Node45</title>
<g id="a_Node000045"><a xlink:href="std__expr_8h.html" target="_top" xlink:title="API to expression classes.">
<polygon fill="white" stroke="#666666" points="1090.66,-239 1004.66,-239 1004.66,-220 1090.66,-220 1090.66,-239"/>
<text text-anchor="middle" x="1047.66" y="-227" font-family="Helvetica,sans-Serif" font-size="10.00">util/std_expr.h</text>
</a>
</g>
</g>
<!-- Node30&#45;&gt;Node45 -->
<g id="edge50_Node000030_Node000045" class="edge">
<title>Node30&#45;&gt;Node45</title>
<g id="a_edge50_Node000030_Node000045"><a xlink:title=" ">
<path fill="none" stroke="#63b8ff" d="M932.67,-274.98C955.11,-266.3 990.14,-252.75 1015.64,-242.88"/>
<polygon fill="#63b8ff" stroke="#63b8ff" points="1017.18,-246.04 1025.25,-239.17 1014.66,-239.51 1017.18,-246.04"/>
</a>
</g>
</g>
<!-- Node31&#45;&gt;Node4 -->
<g id="edge38_Node000031_Node000004" class="edge">
<title>Node31&#45;&gt;Node4</title>
<g id="a_edge38_Node000031_Node000004"><a xlink:title=" ">
<path fill="none" stroke="#63b8ff" d="M911.25,-219.74C912.97,-194.31 917.97,-120.08 920.36,-84.69"/>
<polygon fill="#63b8ff" stroke="#63b8ff" points="923.88,-84.52 921.06,-74.31 916.9,-84.05 923.88,-84.52"/>
</a>
</g>
</g>
<!-- Node32 -->
<g id="Node000032" class="node">
<title>Node32</title>
<g id="a_Node000032"><a xlink:href="expr__cast_8h.html" target="_top" xlink:title="Templated functions to cast to specific exprt&#45;derived classes.">
<polygon fill="white" stroke="#666666" points="1365.16,-129 1292.16,-129 1292.16,-110 1365.16,-110 1365.16,-129"/>
<text text-anchor="middle" x="1328.66" y="-117" font-family="Helvetica,sans-Serif" font-size="10.00">expr_cast.h</text>
</a>
</g>
</g>
<!-- Node31&#45;&gt;Node32 -->
<g id="edge30_Node000031_Node000032" class="edge">
<title>Node31&#45;&gt;Node32</title>
<g id="a_edge30_Node000031_Node000032"><a xlink:title=" ">
<path fill="none" stroke="#63b8ff" d="M943.81,-219.94C1018.96,-200.52 1202.22,-153.17 1285.82,-131.57"/>
<polygon fill="#63b8ff" stroke="#63b8ff" points="1286.7,-134.96 1295.51,-129.07 1284.95,-128.18 1286.7,-134.96"/>
</a>
</g>
</g>
<!-- Node42 -->
<g id="Node000042" class="node">
<title>Node42</title>
<g id="a_Node000042"><a xlink:href="std__types_8h.html" target="_top" xlink:title="Pre&#45;defined types.">
<polygon fill="white" stroke="#666666" points="1037.16,-184 964.16,-184 964.16,-165 1037.16,-165 1037.16,-184"/>
<text text-anchor="middle" x="1000.66" y="-172" font-family="Helvetica,sans-Serif" font-size="10.00">std_types.h</text>
</a>
</g>
</g>
<!-- Node31&#45;&gt;Node42 -->
<g id="edge39_Node000031_Node000042" class="edge">
<title>Node31&#45;&gt;Node42</title>
<g id="a_edge39_Node000031_Node000042"><a xlink:title=" ">
<path fill="none" stroke="#63b8ff" d="M925.12,-219.98C939.07,-211.77 960.45,-199.18 976.91,-189.49"/>
<polygon fill="#63b8ff" stroke="#63b8ff" points="979.09,-192.26 985.93,-184.17 975.54,-186.23 979.09,-192.26"/>
</a>
</g>
</g>
<!-- Node37 -->
<g id="Node000037" class="node">
<title>Node37</title>
<g id="a_Node000037"><a xlink:href="validate_8h.html" target="_top" xlink:title=" ">
<polygon fill="#fff0f0" stroke="red" points="873.16,-129 808.16,-129 808.16,-110 873.16,-110 873.16,-129"/>
<text text-anchor="middle" x="840.66" y="-117" font-family="Helvetica,sans-Serif" font-size="10.00">validate.h</text>
</a>
</g>
</g>
<!-- Node31&#45;&gt;Node37 -->
<g id="edge49_Node000031_Node000037" class="edge">
<title>Node31&#45;&gt;Node37</title>
<g id="a_edge49_Node000031_Node000037"><a xlink:title=" ">
<path fill="none" stroke="#63b8ff" d="M904.93,-219.66C893.34,-201.77 866.91,-161 851.8,-137.69"/>
<polygon fill="#63b8ff" stroke="#63b8ff" points="854.65,-135.65 846.27,-129.16 848.77,-139.45 854.65,-135.65"/>
</a>
</g>
</g>
<!-- Node32&#45;&gt;Node4 -->
<g id="edge34_Node000032_Node000004" class="edge">
<title>Node32&#45;&gt;Node4</title>
<g id="a_edge34_Node000032_Node000004"><a xlink:title=" ">
<path fill="none" stroke="#63b8ff" d="M1291.82,-113.7C1219.78,-104.32 1059.96,-83.51 975.84,-72.56"/>
<polygon fill="#63b8ff" stroke="#63b8ff" points="976.09,-69.06 965.72,-71.24 975.19,-76 976.09,-69.06"/>
</a>
</g>
</g>
<!-- Node32&#45;&gt;Node8 -->
<g id="edge32_Node000032_Node000008" class="edge">
<title>Node32&#45;&gt;Node8</title>
<g id="a_edge32_Node000032_Node000008"><a xlink:title=" ">
<path fill="none" stroke="#63b8ff" d="M1319.87,-109.64C1305.03,-95.32 1273.42,-67.44 1240.66,-55 1095.04,0.3 1044.09,-40.36 885.31,-18.91"/>
<polygon fill="#63b8ff" stroke="#63b8ff" points="885.59,-15.41 875.19,-17.48 884.61,-22.34 885.59,-15.41"/>
</a>
</g>
</g>
<!-- Node33 -->
<g id="Node000033" class="node">
<title>Node33</title>
<g id="a_Node000033"><a xlink:title=" ">
<polygon fill="#e0e0e0" stroke="#999999" points="1345.16,-74 1288.16,-74 1288.16,-55 1345.16,-55 1345.16,-74"/>
<text text-anchor="middle" x="1316.66" y="-62" font-family="Helvetica,sans-Serif" font-size="10.00">typeinfo</text>
</a>
</g>
</g>
<!-- Node32&#45;&gt;Node33 -->
<g id="edge31_Node000032_Node000033" class="edge">
<title>Node32&#45;&gt;Node33</title>
<g id="a_edge31_Node000032_Node000033"><a xlink:title=" ">
<path fill="none" stroke="#63b8ff" d="M1326.68,-109.75C1325.09,-102.72 1322.8,-92.62 1320.81,-83.84"/>
<polygon fill="#63b8ff" stroke="#63b8ff" points="1324.22,-83.07 1318.6,-74.09 1317.4,-84.62 1324.22,-83.07"/>
</a>
</g>
</g>
<!-- Node34 -->
<g id="Node000034" class="node">
<title>Node34</title>
<g id="a_Node000034"><a xlink:title=" ">
<polygon fill="#e0e0e0" stroke="#999999" points="1323.16,-19 1258.16,-19 1258.16,0 1323.16,0 1323.16,-19"/>
<text text-anchor="middle" x="1290.66" y="-7" font-family="Helvetica,sans-Serif" font-size="10.00">functional</text>
</a>
</g>
</g>
<!-- Node32&#45;&gt;Node34 -->
<g id="edge33_Node000032_Node000034" class="edge">
<title>Node32&#45;&gt;Node34</title>
<g id="a_edge33_Node000032_Node000034"><a xlink:title=" ">
<path fill="none" stroke="#63b8ff" d="M1337.16,-109.64C1348.07,-97.15 1364.48,-73.79 1354.66,-55 1347.55,-41.39 1334.17,-31.1 1321.47,-23.87"/>
<polygon fill="#63b8ff" stroke="#63b8ff" points="1322.93,-20.68 1312.45,-19.13 1319.68,-26.88 1322.93,-20.68"/>
</a>
</g>
</g>
<!-- Node35 -->
<g id="Node000035" class="node">
<title>Node35</title>
<g id="a_Node000035"><a xlink:href="expr_8h.html" target="_top" xlink:title=" ">
<polygon fill="#fff0f0" stroke="red" points="1231.16,-74 1184.16,-74 1184.16,-55 1231.16,-55 1231.16,-74"/>
<text text-anchor="middle" x="1207.66" y="-62" font-family="Helvetica,sans-Serif" font-size="10.00">expr.h</text>
</a>
</g>
</g>
<!-- Node32&#45;&gt;Node35 -->
<g id="edge35_Node000032_Node000035" class="edge">
<title>Node32&#45;&gt;Node35</title>
<g id="a_edge35_Node000032_Node000035"><a xlink:title=" ">
<path fill="none" stroke="#63b8ff" d="M1309.22,-109.98C1289.66,-101.42 1259.28,-88.11 1236.83,-78.28"/>
<polygon fill="#63b8ff" stroke="#63b8ff" points="1238.02,-74.98 1227.45,-74.17 1235.21,-81.39 1238.02,-74.98"/>
</a>
</g>
</g>
<!-- Node35&#45;&gt;Node27 -->
<g id="edge36_Node000035_Node000027" class="edge">
<title>Node35&#45;&gt;Node27</title>
<g id="a_edge36_Node000035_Node000027"><a xlink:title=" ">
<path fill="none" stroke="#63b8ff" d="M1184.05,-61.08C1103.61,-52.85 839.3,-25.81 733.76,-15.01"/>
<polygon fill="#63b8ff" stroke="#63b8ff" points="734.06,-11.53 723.76,-13.99 733.35,-18.49 734.06,-11.53"/>
</a>
</g>
</g>
<!-- Node35&#45;&gt;Node34 -->
<g id="edge37_Node000035_Node000034" class="edge">
<title>Node35&#45;&gt;Node34</title>
<g id="a_edge37_Node000035_Node000034"><a xlink:title=" ">
<path fill="none" stroke="#63b8ff" d="M1220.99,-54.98C1233.74,-46.84 1253.21,-34.41 1268.33,-24.76"/>
<polygon fill="#63b8ff" stroke="#63b8ff" points="1270.54,-27.5 1277.08,-19.17 1266.77,-21.6 1270.54,-27.5"/>
</a>
</g>
</g>
<!-- Node42&#45;&gt;Node4 -->
<g id="edge42_Node000042_Node000004" class="edge">
<title>Node42&#45;&gt;Node4</title>
<g id="a_edge42_Node000042_Node000004"><a xlink:title=" ">
<path fill="none" stroke="#63b8ff" d="M1010.5,-164.87C1023.66,-152.26 1044,-128.31 1031.66,-110 1018.98,-91.2 996.87,-80.34 975.78,-74.07"/>
<polygon fill="#63b8ff" stroke="#63b8ff" points="976.45,-70.62 965.88,-71.42 974.64,-77.38 976.45,-70.62"/>
</a>
</g>
</g>
<!-- Node42&#45;&gt;Node32 -->
<g id="edge41_Node000042_Node000032" class="edge">
<title>Node42&#45;&gt;Node32</title>
<g id="a_edge41_Node000042_Node000032"><a xlink:title=" ">
<path fill="none" stroke="#63b8ff" d="M1037.41,-167.67C1090.47,-159.23 1191.62,-143.08 1277.66,-129 1278.95,-128.79 1280.27,-128.57 1281.59,-128.35"/>
<polygon fill="#63b8ff" stroke="#63b8ff" points="1282.59,-131.74 1291.89,-126.65 1281.45,-124.83 1282.59,-131.74"/>
</a>
</g>
</g>
<!-- Node42&#45;&gt;Node35 -->
<g id="edge40_Node000042_Node000035" class="edge">
<title>Node42&#45;&gt;Node35</title>
<g id="a_edge40_Node000042_Node000035"><a xlink:title=" ">
<path fill="none" stroke="#63b8ff" d="M1037.18,-172.35C1098.66,-169.56 1218.66,-160.17 1244.66,-129 1257.14,-114.04 1241.56,-94.33 1226.96,-80.86"/>
<polygon fill="#63b8ff" stroke="#63b8ff" points="1228.99,-77.99 1219.13,-74.09 1224.41,-83.28 1228.99,-77.99"/>
</a>
</g>
</g>
<!-- Node43 -->
<g id="Node000043" class="node">
<title>Node43</title>
<g id="a_Node000043"><a xlink:href="mp__arith_8h.html" target="_top" xlink:title=" ">
<polygon fill="#fff0f0" stroke="red" points="597.16,-129 528.16,-129 528.16,-110 597.16,-110 597.16,-129"/>
<text text-anchor="middle" x="562.66" y="-117" font-family="Helvetica,sans-Serif" font-size="10.00">mp_arith.h</text>
</a>
</g>
</g>
<!-- Node42&#45;&gt;Node43 -->
<g id="edge43_Node000042_Node000043" class="edge">
<title>Node42&#45;&gt;Node43</title>
<g id="a_edge43_Node000042_Node000043"><a xlink:title=" ">
<path fill="none" stroke="#63b8ff" d="M964.07,-169.07C884.15,-159.4 694.22,-136.42 607.38,-125.91"/>
<polygon fill="#63b8ff" stroke="#63b8ff" points="607.66,-122.42 597.31,-124.69 606.82,-129.37 607.66,-122.42"/>
</a>
</g>
</g>
<!-- Node42&#45;&gt;Node37 -->
<g id="edge46_Node000042_Node000037" class="edge">
<title>Node42&#45;&gt;Node37</title>
<g id="a_edge46_Node000042_Node000037"><a xlink:title=" ">
<path fill="none" stroke="#63b8ff" d="M974.95,-164.98C948.21,-156.13 906.13,-142.19 876.21,-132.28"/>
<polygon fill="#63b8ff" stroke="#63b8ff" points="877.16,-128.9 866.57,-129.08 874.96,-135.55 877.16,-128.9"/>
</a>
</g>
</g>
<!-- Node20 -->
<g id="Node000020" class="node">
<title>Node20</title>
<g id="a_Node000020"><a xlink:title=" ">
<polygon fill="#e0e0e0" stroke="#999999" points="1023.16,-129 930.16,-129 930.16,-110 1023.16,-110 1023.16,-129"/>
<text text-anchor="middle" x="976.66" y="-117" font-family="Helvetica,sans-Serif" font-size="10.00">unordered_map</text>
</a>
</g>
</g>
<!-- Node42&#45;&gt;Node20 -->
<g id="edge48_Node000042_Node000020" class="edge">
<title>Node42&#45;&gt;Node20</title>
<g id="a_edge48_Node000042_Node000020"><a xlink:title=" ">
<path fill="none" stroke="#63b8ff" d="M996.69,-164.75C993.44,-157.57 988.74,-147.18 984.7,-138.27"/>
<polygon fill="#63b8ff" stroke="#63b8ff" points="987.86,-136.75 980.55,-129.09 981.48,-139.64 987.86,-136.75"/>
</a>
</g>
</g>
<!-- Node43&#45;&gt;Node7 -->
<g id="edge45_Node000043_Node000007" class="edge">
<title>Node43&#45;&gt;Node7</title>
<g id="a_edge45_Node000043_Node000007"><a xlink:title=" ">
<path fill="none" stroke="#63b8ff" d="M533.75,-109.94C490.73,-97.31 407.24,-73.21 335.66,-55 279.03,-40.59 212.56,-25.8 173.97,-17.42"/>
<polygon fill="#63b8ff" stroke="#63b8ff" points="174.37,-13.93 163.85,-15.23 172.89,-20.77 174.37,-13.93"/>
</a>
</g>
</g>
<!-- Node43&#45;&gt;Node15 -->
<g id="edge44_Node000043_Node000015" class="edge">
<title>Node43&#45;&gt;Node15</title>
<g id="a_edge44_Node000043_Node000015"><a xlink:title=" ">
<path fill="none" stroke="#63b8ff" d="M528.13,-111.46C478.22,-101.29 386.47,-82.59 336.79,-72.46"/>
<polygon fill="#63b8ff" stroke="#63b8ff" points="337.35,-69 326.85,-70.43 335.95,-75.86 337.35,-69"/>
</a>
</g>
</g>
<!-- Node37&#45;&gt;Node8 -->
<g id="edge47_Node000037_Node000008" class="edge">
<title>Node37&#45;&gt;Node8</title>
<g id="a_edge47_Node000037_Node000008"><a xlink:title=" ">
<path fill="none" stroke="#63b8ff" d="M840.66,-109.66C840.66,-92.17 840.66,-52.8 840.66,-29.27"/>
<polygon fill="#63b8ff" stroke="#63b8ff" points="844.16,-29.16 840.66,-19.16 837.16,-29.16 844.16,-29.16"/>
</a>
</g>
</g>
<!-- Node45&#45;&gt;Node4 -->
<g id="edge52_Node000045_Node000004" class="edge">
<title>Node45&#45;&gt;Node4</title>
<g id="a_edge52_Node000045_Node000004"><a xlink:title=" ">
<path fill="none" stroke="#63b8ff" d="M1050.76,-219.75C1057.64,-198.63 1071.78,-144.1 1047.66,-110 1031.32,-86.91 1001.97,-75.72 975.7,-70.33"/>
<polygon fill="#63b8ff" stroke="#63b8ff" points="976.28,-66.88 965.82,-68.54 975.03,-73.77 976.28,-66.88"/>
</a>
</g>
</g>
<!-- Node45&#45;&gt;Node32 -->
<g id="edge51_Node000045_Node000032" class="edge">
<title>Node45&#45;&gt;Node32</title>
<g id="a_edge51_Node000045_Node000032"><a xlink:title=" ">
<path fill="none" stroke="#63b8ff" d="M1074.93,-219.99C1101.77,-211.45 1143.84,-197.65 1179.66,-184 1222.15,-167.81 1270.42,-146.73 1300.21,-133.41"/>
<polygon fill="#63b8ff" stroke="#63b8ff" points="1301.88,-136.49 1309.56,-129.2 1299.01,-130.11 1301.88,-136.49"/>
</a>
</g>
</g>
<!-- Node45&#45;&gt;Node42 -->
<g id="edge53_Node000045_Node000042" class="edge">
<title>Node45&#45;&gt;Node42</title>
<g id="a_edge53_Node000045_Node000042"><a xlink:title=" ">
<path fill="none" stroke="#63b8ff" d="M1039.9,-219.75C1033.19,-212.18 1023.32,-201.05 1015.15,-191.84"/>
<polygon fill="#63b8ff" stroke="#63b8ff" points="1017.53,-189.25 1008.27,-184.09 1012.29,-193.89 1017.53,-189.25"/>
</a>
</g>
</g>
<!-- Node48&#45;&gt;Node4 -->
<g id="edge60_Node000048_Node000004" class="edge">
<title>Node48&#45;&gt;Node4</title>
<g id="a_edge60_Node000048_Node000004"><a xlink:title=" ">
<path fill="none" stroke="#63b8ff" d="M1079.81,-274.97C1086.43,-266.48 1095.81,-252.75 1099.66,-239 1112.42,-193.35 1097.4,-140.94 1066.66,-110 1042.81,-86 1006.38,-74.88 976,-69.76"/>
<polygon fill="#63b8ff" stroke="#63b8ff" points="976.37,-66.28 965.96,-68.24 975.32,-73.2 976.37,-66.28"/>
</a>
</g>
</g>
<!-- Node48&#45;&gt;Node11 -->
<g id="edge61_Node000048_Node000011" class="edge">
<title>Node48&#45;&gt;Node11</title>
<g id="a_edge61_Node000048_Node000011"><a xlink:title=" ">
<path fill="none" stroke="#63b8ff" d="M1022.06,-278.46C1010.13,-277.3 997.45,-276.09 985.66,-275 803.77,-258.23 585.43,-239.88 504.69,-233.16"/>
<polygon fill="#63b8ff" stroke="#63b8ff" points="504.92,-229.66 494.67,-232.32 504.34,-236.64 504.92,-229.66"/>
</a>
</g>
</g>
<!-- Node49&#45;&gt;Node4 -->
<g id="edge65_Node000049_Node000004" class="edge">
<title>Node49&#45;&gt;Node4</title>
<g id="a_edge65_Node000049_Node000004"><a xlink:title=" ">
<path fill="none" stroke="#63b8ff" d="M1155.52,-110.74C1108.04,-101.55 1028.79,-86.22 975.88,-75.99"/>
<polygon fill="#63b8ff" stroke="#63b8ff" points="976.48,-72.54 965.99,-74.08 975.15,-79.41 976.48,-72.54"/>
</a>
</g>
</g>
<!-- Node49&#45;&gt;Node15 -->
<g id="edge63_Node000049_Node000015" class="edge">
<title>Node49&#45;&gt;Node15</title>
<g id="a_edge63_Node000049_Node000015"><a xlink:title=" ">
<path fill="none" stroke="#63b8ff" d="M1155.55,-116.12C1005.22,-107.2 476.62,-75.82 336.8,-67.53"/>
<polygon fill="#63b8ff" stroke="#63b8ff" points="336.87,-64.02 326.68,-66.93 336.45,-71.01 336.87,-64.02"/>
</a>
</g>
</g>
<!-- Node49&#45;&gt;Node35 -->
<g id="edge64_Node000049_Node000035" class="edge">
<title>Node49&#45;&gt;Node35</title>
<g id="a_edge64_Node000049_Node000035"><a xlink:title=" ">
<path fill="none" stroke="#63b8ff" d="M1197.64,-109.75C1199.23,-102.72 1201.52,-92.62 1203.5,-83.84"/>
<polygon fill="#63b8ff" stroke="#63b8ff" points="1206.92,-84.62 1205.71,-74.09 1200.09,-83.07 1206.92,-84.62"/>
</a>
</g>
</g>
</g>
</svg>
