<?xml version="1.0" encoding="UTF-8" standalone="no"?>
<!DOCTYPE svg PUBLIC "-//W3C//DTD SVG 1.1//EN"
 "http://www.w3.org/Graphics/SVG/1.1/DTD/svg11.dtd">
<!-- Generated by graphviz version 2.43.0 (0)
 -->
<!-- Title: /home/runner/work/cbmc/cbmc/src/util/fresh_symbol.cpp Pages: 1 -->
<svg width="1208pt" height="753pt"
 viewBox="0.00 0.00 1208.11 753.00" xmlns="http://www.w3.org/2000/svg" xmlns:xlink="http://www.w3.org/1999/xlink">
<g id="graph0" class="graph" transform="scale(1 1) rotate(0) translate(4 749)">
<title>/home/runner/work/cbmc/cbmc/src/util/fresh_symbol.cpp</title>
<!-- Node1 -->
<g id="Node000001" class="node">
<title>Node1</title>
<g id="a_Node000001"><a xlink:title="Fresh auxiliary symbol creation.">
<polygon fill="#999999" stroke="#666666" points="414.5,-745 243.5,-745 243.5,-715 414.5,-715 414.5,-745"/>
<text text-anchor="start" x="251.5" y="-733" font-family="Helvetica,sans-Serif" font-size="10.00">/home/runner/work/cbmc</text>
<text text-anchor="middle" x="329" y="-722" font-family="Helvetica,sans-Serif" font-size="10.00">/cbmc/src/util/fresh_symbol.cpp</text>
</a>
</g>
</g>
<!-- Node2 -->
<g id="Node000002" class="node">
<title>Node2</title>
<g id="a_Node000002"><a xlink:href="fresh__symbol_8h.html" target="_top" xlink:title="Fresh auxiliary symbol creation.">
<polygon fill="white" stroke="#666666" points="120,-349 28,-349 28,-330 120,-330 120,-349"/>
<text text-anchor="middle" x="74" y="-337" font-family="Helvetica,sans-Serif" font-size="10.00">fresh_symbol.h</text>
</a>
</g>
</g>
<!-- Node1&#45;&gt;Node2 -->
<g id="edge1_Node000001_Node000002" class="edge">
<title>Node1&#45;&gt;Node2</title>
<g id="a_edge1_Node000001_Node000002"><a xlink:title=" ">
<path fill="none" stroke="#63b8ff" d="M243.44,-722.36C175.55,-711.85 92,-684.84 92,-615.5 92,-615.5 92,-615.5 92,-448.5 92,-416.61 84.27,-380.14 78.94,-358.78"/>
<polygon fill="#63b8ff" stroke="#63b8ff" points="82.33,-357.9 76.43,-349.1 75.55,-359.66 82.33,-357.9"/>
</a>
</g>
</g>
<!-- Node6 -->
<g id="Node000006" class="node">
<title>Node6</title>
<g id="a_Node000006"><a xlink:href="src_2util_2invariant_8h.html" target="_top" xlink:title=" ">
<polygon fill="white" stroke="#666666" points="241.5,-129 172.5,-129 172.5,-110 241.5,-110 241.5,-129"/>
<text text-anchor="middle" x="207" y="-117" font-family="Helvetica,sans-Serif" font-size="10.00">invariant.h</text>
</a>
</g>
</g>
<!-- Node1&#45;&gt;Node6 -->
<g id="edge34_Node000001_Node000006" class="edge">
<title>Node1&#45;&gt;Node6</title>
<g id="a_edge34_Node000001_Node000006"><a xlink:title=" ">
<path fill="none" stroke="#63b8ff" d="M243.42,-716.71C145.94,-700.25 0,-667.01 0,-615.5 0,-615.5 0,-615.5 0,-228.5 0,-155.89 101.36,-132.01 162.22,-124.22"/>
<polygon fill="#63b8ff" stroke="#63b8ff" points="162.83,-127.68 172.35,-123.03 162.01,-120.72 162.83,-127.68"/>
</a>
</g>
</g>
<!-- Node26 -->
<g id="Node000026" class="node">
<title>Node26</title>
<g id="a_Node000026"><a xlink:href="namespace_8h.html" target="_top" xlink:title=" ">
<polygon fill="white" stroke="#666666" points="258,-349 176,-349 176,-330 258,-330 258,-349"/>
<text text-anchor="middle" x="217" y="-337" font-family="Helvetica,sans-Serif" font-size="10.00">namespace.h</text>
</a>
</g>
</g>
<!-- Node1&#45;&gt;Node26 -->
<g id="edge35_Node000001_Node000026" class="edge">
<title>Node1&#45;&gt;Node26</title>
<g id="a_edge35_Node000001_Node000026"><a xlink:title=" ">
<path fill="none" stroke="#63b8ff" d="M285.24,-714.86C243.51,-698.3 187,-666.47 187,-615.5 187,-615.5 187,-615.5 187,-448.5 187,-415.87 199.87,-379.65 208.75,-358.55"/>
<polygon fill="#63b8ff" stroke="#63b8ff" points="212.02,-359.8 212.83,-349.23 205.61,-356.99 212.02,-359.8"/>
</a>
</g>
</g>
<!-- Node27 -->
<g id="Node000027" class="node">
<title>Node27</title>
<g id="a_Node000027"><a xlink:href="rename_8h.html" target="_top" xlink:title=" ">
<polygon fill="white" stroke="#666666" points="669.5,-569 606.5,-569 606.5,-550 669.5,-550 669.5,-569"/>
<text text-anchor="middle" x="638" y="-557" font-family="Helvetica,sans-Serif" font-size="10.00">rename.h</text>
</a>
</g>
</g>
<!-- Node1&#45;&gt;Node27 -->
<g id="edge38_Node000001_Node000027" class="edge">
<title>Node1&#45;&gt;Node27</title>
<g id="a_edge38_Node000001_Node000027"><a xlink:title=" ">
<path fill="none" stroke="#63b8ff" d="M354.81,-714.92C413.36,-683 555.6,-605.43 613.19,-574.03"/>
<polygon fill="#63b8ff" stroke="#63b8ff" points="615.19,-576.92 622.3,-569.06 611.84,-570.78 615.19,-576.92"/>
</a>
</g>
</g>
<!-- Node28 -->
<g id="Node000028" class="node">
<title>Node28</title>
<g id="a_Node000028"><a xlink:href="symbol_8h.html" target="_top" xlink:title="Symbol table entry.">
<polygon fill="white" stroke="#666666" points="473,-624 411,-624 411,-605 473,-605 473,-624"/>
<text text-anchor="middle" x="442" y="-612" font-family="Helvetica,sans-Serif" font-size="10.00">symbol.h</text>
</a>
</g>
</g>
<!-- Node1&#45;&gt;Node28 -->
<g id="edge40_Node000001_Node000028" class="edge">
<title>Node1&#45;&gt;Node28</title>
<g id="a_edge40_Node000001_Node000028"><a xlink:title=" ">
<path fill="none" stroke="#63b8ff" d="M343.31,-714.63C364.47,-693.37 403.96,-653.71 426.03,-631.54"/>
<polygon fill="#63b8ff" stroke="#63b8ff" points="428.73,-633.79 433.31,-624.23 423.77,-628.85 428.73,-633.79"/>
</a>
</g>
</g>
<!-- Node40 -->
<g id="Node000040" class="node">
<title>Node40</title>
<g id="a_Node000040"><a xlink:href="symbol__table__base_8h.html" target="_top" xlink:title="Author: Diffblue Ltd.">
<polygon fill="white" stroke="#666666" points="1137,-679 1017,-679 1017,-660 1137,-660 1137,-679"/>
<text text-anchor="middle" x="1077" y="-667" font-family="Helvetica,sans-Serif" font-size="10.00">symbol_table_base.h</text>
</a>
</g>
</g>
<!-- Node1&#45;&gt;Node40 -->
<g id="edge64_Node000001_Node000040" class="edge">
<title>Node1&#45;&gt;Node40</title>
<g id="a_edge64_Node000001_Node000040"><a xlink:title=" ">
<path fill="none" stroke="#63b8ff" d="M414.81,-722.29C564.18,-710.61 869.18,-686.75 1006.83,-675.99"/>
<polygon fill="#63b8ff" stroke="#63b8ff" points="1007.15,-679.47 1016.85,-675.2 1006.6,-672.5 1007.15,-679.47"/>
</a>
</g>
</g>
<!-- Node3 -->
<g id="Node000003" class="node">
<title>Node3</title>
<g id="a_Node000003"><a xlink:title=" ">
<polygon fill="#e0e0e0" stroke="#999999" points="696,-19 652,-19 652,0 696,0 696,-19"/>
<text text-anchor="middle" x="674" y="-7" font-family="Helvetica,sans-Serif" font-size="10.00">string</text>
</a>
</g>
</g>
<!-- Node2&#45;&gt;Node3 -->
<g id="edge2_Node000002_Node000003" class="edge">
<title>Node2&#45;&gt;Node3</title>
<g id="a_edge2_Node000002_Node000003"><a xlink:title=" ">
<path fill="none" stroke="#63b8ff" d="M74,-329.82C74,-311.48 74,-267.44 74,-230.5 74,-230.5 74,-230.5 74,-118.5 74,-82.85 91.67,-72 123,-55 168.62,-30.25 530.49,-15.56 641.64,-11.59"/>
<polygon fill="#63b8ff" stroke="#63b8ff" points="642.02,-15.08 651.89,-11.23 641.78,-8.09 642.02,-15.08"/>
</a>
</g>
</g>
<!-- Node4 -->
<g id="Node000004" class="node">
<title>Node4</title>
<g id="a_Node000004"><a xlink:href="irep_8h.html" target="_top" xlink:title=" ">
<polygon fill="white" stroke="#666666" points="687,-294 643,-294 643,-275 687,-275 687,-294"/>
<text text-anchor="middle" x="665" y="-282" font-family="Helvetica,sans-Serif" font-size="10.00">irep.h</text>
</a>
</g>
</g>
<!-- Node2&#45;&gt;Node4 -->
<g id="edge3_Node000002_Node000004" class="edge">
<title>Node2&#45;&gt;Node4</title>
<g id="a_edge3_Node000002_Node000004"><a xlink:title=" ">
<path fill="none" stroke="#63b8ff" d="M120.36,-334.24C135.25,-332.88 151.82,-331.37 167,-330 342.45,-314.14 552.71,-295.46 632.31,-288.4"/>
<polygon fill="#63b8ff" stroke="#63b8ff" points="633.01,-291.85 642.66,-287.48 632.39,-284.88 633.01,-291.85"/>
</a>
</g>
</g>
<!-- Node4&#45;&gt;Node3 -->
<g id="edge4_Node000004_Node000003" class="edge">
<title>Node4&#45;&gt;Node3</title>
<g id="a_edge4_Node000004_Node000003"><a xlink:title=" ">
<path fill="none" stroke="#63b8ff" d="M661.61,-274.93C649.97,-244.22 613.85,-137.19 641,-55 644.46,-44.54 651.43,-34.53 658.08,-26.66"/>
<polygon fill="#63b8ff" stroke="#63b8ff" points="660.86,-28.8 664.98,-19.04 655.67,-24.1 660.86,-28.8"/>
</a>
</g>
</g>
<!-- Node5 -->
<g id="Node000005" class="node">
<title>Node5</title>
<g id="a_Node000005"><a xlink:title=" ">
<polygon fill="#e0e0e0" stroke="#999999" points="768.5,-74 721.5,-74 721.5,-55 768.5,-55 768.5,-74"/>
<text text-anchor="middle" x="745" y="-62" font-family="Helvetica,sans-Serif" font-size="10.00">vector</text>
</a>
</g>
</g>
<!-- Node4&#45;&gt;Node5 -->
<g id="edge5_Node000004_Node000005" class="edge">
<title>Node4&#45;&gt;Node5</title>
<g id="a_edge5_Node000004_Node000005"><a xlink:title=" ">
<path fill="none" stroke="#63b8ff" d="M668.14,-274.95C679.93,-242.81 721.8,-128.72 738.27,-83.83"/>
<polygon fill="#63b8ff" stroke="#63b8ff" points="741.64,-84.82 741.8,-74.22 735.07,-82.41 741.64,-84.82"/>
</a>
</g>
</g>
<!-- Node4&#45;&gt;Node6 -->
<g id="edge6_Node000004_Node000006" class="edge">
<title>Node4&#45;&gt;Node6</title>
<g id="a_edge6_Node000004_Node000006"><a xlink:title=" ">
<path fill="none" stroke="#63b8ff" d="M642.98,-277.96C638.38,-276.9 633.54,-275.86 629,-275 516.52,-253.83 484.26,-269.71 374,-239 313.96,-222.28 291.97,-224.97 245,-184 230.8,-171.62 220.4,-152.59 214.11,-138.59"/>
<polygon fill="#63b8ff" stroke="#63b8ff" points="217.2,-136.92 210.1,-129.06 210.75,-139.63 217.2,-136.92"/>
</a>
</g>
</g>
<!-- Node10 -->
<g id="Node000010" class="node">
<title>Node10</title>
<g id="a_Node000010"><a xlink:href="irep__ids_8h.html" target="_top" xlink:title="util">
<polygon fill="white" stroke="#666666" points="790,-239 726,-239 726,-220 790,-220 790,-239"/>
<text text-anchor="middle" x="758" y="-227" font-family="Helvetica,sans-Serif" font-size="10.00">irep_ids.h</text>
</a>
</g>
</g>
<!-- Node4&#45;&gt;Node10 -->
<g id="edge11_Node000004_Node000010" class="edge">
<title>Node4&#45;&gt;Node10</title>
<g id="a_edge11_Node000004_Node000010"><a xlink:title=" ">
<path fill="none" stroke="#63b8ff" d="M679.94,-274.98C694.5,-266.69 716.87,-253.94 733.93,-244.22"/>
<polygon fill="#63b8ff" stroke="#63b8ff" points="735.83,-247.16 742.79,-239.17 732.36,-241.08 735.83,-247.16"/>
</a>
</g>
</g>
<!-- Node21 -->
<g id="Node000021" class="node">
<title>Node21</title>
<g id="a_Node000021"><a xlink:href="forward__list__as__map_8h.html" target="_top" xlink:title=" ">
<polygon fill="white" stroke="#666666" points="510.5,-239 383.5,-239 383.5,-220 510.5,-220 510.5,-239"/>
<text text-anchor="middle" x="447" y="-227" font-family="Helvetica,sans-Serif" font-size="10.00">forward_list_as_map.h</text>
</a>
</g>
</g>
<!-- Node4&#45;&gt;Node21 -->
<g id="edge27_Node000004_Node000021" class="edge">
<title>Node4&#45;&gt;Node21</title>
<g id="a_edge27_Node000004_Node000021"><a xlink:title=" ">
<path fill="none" stroke="#63b8ff" d="M642.9,-278.13C607.6,-269.55 537.81,-252.58 491.77,-241.39"/>
<polygon fill="#63b8ff" stroke="#63b8ff" points="492.59,-237.98 482.05,-239.02 490.94,-244.78 492.59,-237.98"/>
</a>
</g>
</g>
<!-- Node6&#45;&gt;Node3 -->
<g id="edge9_Node000006_Node000003" class="edge">
<title>Node6&#45;&gt;Node3</title>
<g id="a_edge9_Node000006_Node000003"><a xlink:title=" ">
<path fill="none" stroke="#63b8ff" d="M231.26,-109.95C269.64,-96.67 346.89,-70.97 414,-55 495.14,-35.69 592.43,-21.33 641.82,-14.65"/>
<polygon fill="#63b8ff" stroke="#63b8ff" points="642.44,-18.1 651.89,-13.31 641.52,-11.16 642.44,-18.1"/>
</a>
</g>
</g>
<!-- Node7 -->
<g id="Node000007" class="node">
<title>Node7</title>
<g id="a_Node000007"><a xlink:title=" ">
<polygon fill="#e0e0e0" stroke="#999999" points="181.5,-74 132.5,-74 132.5,-55 181.5,-55 181.5,-74"/>
<text text-anchor="middle" x="157" y="-62" font-family="Helvetica,sans-Serif" font-size="10.00">cstdlib</text>
</a>
</g>
</g>
<!-- Node6&#45;&gt;Node7 -->
<g id="edge7_Node000006_Node000007" class="edge">
<title>Node6&#45;&gt;Node7</title>
<g id="a_edge7_Node000006_Node000007"><a xlink:title=" ">
<path fill="none" stroke="#63b8ff" d="M198.74,-109.75C191.54,-102.11 180.89,-90.82 172.15,-81.56"/>
<polygon fill="#63b8ff" stroke="#63b8ff" points="174.51,-78.96 165.1,-74.09 169.42,-83.76 174.51,-78.96"/>
</a>
</g>
</g>
<!-- Node8 -->
<g id="Node000008" class="node">
<title>Node8</title>
<g id="a_Node000008"><a xlink:title=" ">
<polygon fill="#e0e0e0" stroke="#999999" points="256,-74 200,-74 200,-55 256,-55 256,-74"/>
<text text-anchor="middle" x="228" y="-62" font-family="Helvetica,sans-Serif" font-size="10.00">sstream</text>
</a>
</g>
</g>
<!-- Node6&#45;&gt;Node8 -->
<g id="edge8_Node000006_Node000008" class="edge">
<title>Node6&#45;&gt;Node8</title>
<g id="a_edge8_Node000006_Node000008"><a xlink:title=" ">
<path fill="none" stroke="#63b8ff" d="M210.47,-109.75C213.28,-102.65 217.34,-92.4 220.85,-83.56"/>
<polygon fill="#63b8ff" stroke="#63b8ff" points="224.17,-84.68 224.6,-74.09 217.66,-82.1 224.17,-84.68"/>
</a>
</g>
</g>
<!-- Node9 -->
<g id="Node000009" class="node">
<title>Node9</title>
<g id="a_Node000009"><a xlink:title=" ">
<polygon fill="#e0e0e0" stroke="#999999" points="492.5,-74 423.5,-74 423.5,-55 492.5,-55 492.5,-74"/>
<text text-anchor="middle" x="458" y="-62" font-family="Helvetica,sans-Serif" font-size="10.00">type_traits</text>
</a>
</g>
</g>
<!-- Node6&#45;&gt;Node9 -->
<g id="edge10_Node000006_Node000009" class="edge">
<title>Node6&#45;&gt;Node9</title>
<g id="a_edge10_Node000006_Node000009"><a xlink:title=" ">
<path fill="none" stroke="#63b8ff" d="M241.64,-111.19C286.33,-101.75 364.17,-85.31 413.29,-74.94"/>
<polygon fill="#63b8ff" stroke="#63b8ff" points="414.25,-78.31 423.32,-72.82 412.81,-71.47 414.25,-78.31"/>
</a>
</g>
</g>
<!-- Node11 -->
<g id="Node000011" class="node">
<title>Node11</title>
<g id="a_Node000011"><a xlink:href="dstring_8h.html" target="_top" xlink:title="Container for C&#45;Strings.">
<polygon fill="white" stroke="#666666" points="910.5,-184 851.5,-184 851.5,-165 910.5,-165 910.5,-184"/>
<text text-anchor="middle" x="881" y="-172" font-family="Helvetica,sans-Serif" font-size="10.00">dstring.h</text>
</a>
</g>
</g>
<!-- Node10&#45;&gt;Node11 -->
<g id="edge12_Node000010_Node000011" class="edge">
<title>Node10&#45;&gt;Node11</title>
<g id="a_edge12_Node000010_Node000011"><a xlink:title=" ">
<path fill="none" stroke="#63b8ff" d="M777.76,-219.98C797.73,-211.38 828.8,-197.99 851.65,-188.15"/>
<polygon fill="#63b8ff" stroke="#63b8ff" points="853.08,-191.34 860.88,-184.17 850.31,-184.91 853.08,-191.34"/>
</a>
</g>
</g>
<!-- Node20 -->
<g id="Node000020" class="node">
<title>Node20</title>
<g id="a_Node000020"><a xlink:title=" ">
<polygon fill="#e0e0e0" stroke="#999999" points="795,-184 721,-184 721,-165 795,-165 795,-184"/>
<text text-anchor="middle" x="758" y="-172" font-family="Helvetica,sans-Serif" font-size="10.00">irep_ids.def</text>
</a>
</g>
</g>
<!-- Node10&#45;&gt;Node20 -->
<g id="edge26_Node000010_Node000020" class="edge">
<title>Node10&#45;&gt;Node20</title>
<g id="a_edge26_Node000010_Node000020"><a xlink:title=" ">
<path fill="none" stroke="#63b8ff" d="M758,-219.75C758,-212.8 758,-202.85 758,-194.13"/>
<polygon fill="#63b8ff" stroke="#63b8ff" points="761.5,-194.09 758,-184.09 754.5,-194.09 761.5,-194.09"/>
</a>
</g>
</g>
<!-- Node11&#45;&gt;Node3 -->
<g id="edge14_Node000011_Node000003" class="edge">
<title>Node11&#45;&gt;Node3</title>
<g id="a_edge14_Node000011_Node000003"><a xlink:title=" ">
<path fill="none" stroke="#63b8ff" d="M851.32,-167.5C825,-161.13 786.45,-149.14 758,-129 720.75,-102.63 694.19,-54.32 681.82,-28.27"/>
<polygon fill="#63b8ff" stroke="#63b8ff" points="685,-26.81 677.65,-19.18 678.63,-29.73 685,-26.81"/>
</a>
</g>
</g>
<!-- Node12 -->
<g id="Node000012" class="node">
<title>Node12</title>
<g id="a_Node000012"><a xlink:title=" ">
<polygon fill="#e0e0e0" stroke="#999999" points="1011,-129 963,-129 963,-110 1011,-110 1011,-129"/>
<text text-anchor="middle" x="987" y="-117" font-family="Helvetica,sans-Serif" font-size="10.00">iosfwd</text>
</a>
</g>
</g>
<!-- Node11&#45;&gt;Node12 -->
<g id="edge13_Node000011_Node000012" class="edge">
<title>Node11&#45;&gt;Node12</title>
<g id="a_edge13_Node000011_Node000012"><a xlink:title=" ">
<path fill="none" stroke="#63b8ff" d="M898.03,-164.98C914.93,-156.54 941.06,-143.47 960.64,-133.68"/>
<polygon fill="#63b8ff" stroke="#63b8ff" points="962.28,-136.77 969.66,-129.17 959.15,-130.51 962.28,-136.77"/>
</a>
</g>
</g>
<!-- Node13 -->
<g id="Node000013" class="node">
<title>Node13</title>
<g id="a_Node000013"><a xlink:href="magic_8h.html" target="_top" xlink:title="Magic numbers used throughout the codebase.">
<polygon fill="white" stroke="#666666" points="945,-129 889,-129 889,-110 945,-110 945,-129"/>
<text text-anchor="middle" x="917" y="-117" font-family="Helvetica,sans-Serif" font-size="10.00">magic.h</text>
</a>
</g>
</g>
<!-- Node11&#45;&gt;Node13 -->
<g id="edge15_Node000011_Node000013" class="edge">
<title>Node11&#45;&gt;Node13</title>
<g id="a_edge15_Node000011_Node000013"><a xlink:title=" ">
<path fill="none" stroke="#63b8ff" d="M886.94,-164.75C891.98,-157.34 899.34,-146.5 905.51,-137.41"/>
<polygon fill="#63b8ff" stroke="#63b8ff" points="908.44,-139.33 911.17,-129.09 902.65,-135.39 908.44,-139.33"/>
</a>
</g>
</g>
<!-- Node15 -->
<g id="Node000015" class="node">
<title>Node15</title>
<g id="a_Node000015"><a xlink:href="string__container_8h.html" target="_top" xlink:title="Container for C&#45;Strings.">
<polygon fill="white" stroke="#666666" points="871,-129 767,-129 767,-110 871,-110 871,-129"/>
<text text-anchor="middle" x="819" y="-117" font-family="Helvetica,sans-Serif" font-size="10.00">string_container.h</text>
</a>
</g>
</g>
<!-- Node11&#45;&gt;Node15 -->
<g id="edge17_Node000011_Node000015" class="edge">
<title>Node11&#45;&gt;Node15</title>
<g id="a_edge17_Node000011_Node000015"><a xlink:title=" ">
<path fill="none" stroke="#63b8ff" d="M871.04,-164.98C861.87,-157.15 848.06,-145.34 836.97,-135.86"/>
<polygon fill="#63b8ff" stroke="#63b8ff" points="839.02,-133.01 829.14,-129.17 834.47,-138.33 839.02,-133.01"/>
</a>
</g>
</g>
<!-- Node14 -->
<g id="Node000014" class="node">
<title>Node14</title>
<g id="a_Node000014"><a xlink:title=" ">
<polygon fill="#e0e0e0" stroke="#999999" points="1024.5,-19 971.5,-19 971.5,0 1024.5,0 1024.5,-19"/>
<text text-anchor="middle" x="998" y="-7" font-family="Helvetica,sans-Serif" font-size="10.00">cstddef</text>
</a>
</g>
</g>
<!-- Node13&#45;&gt;Node14 -->
<g id="edge16_Node000013_Node000014" class="edge">
<title>Node13&#45;&gt;Node14</title>
<g id="a_edge16_Node000013_Node000014"><a xlink:title=" ">
<path fill="none" stroke="#63b8ff" d="M945.18,-110.34C980.23,-99.9 1036.21,-82.21 1042,-74 1053.72,-57.39 1036.13,-38.19 1019.84,-25.28"/>
<polygon fill="#63b8ff" stroke="#63b8ff" points="1021.71,-22.32 1011.6,-19.16 1017.54,-27.93 1021.71,-22.32"/>
</a>
</g>
</g>
<!-- Node15&#45;&gt;Node5 -->
<g id="edge20_Node000015_Node000005" class="edge">
<title>Node15&#45;&gt;Node5</title>
<g id="a_edge20_Node000015_Node000005"><a xlink:title=" ">
<path fill="none" stroke="#63b8ff" d="M807.11,-109.98C795.85,-101.92 778.71,-89.65 765.29,-80.03"/>
<polygon fill="#63b8ff" stroke="#63b8ff" points="767.27,-77.15 757.11,-74.17 763.2,-82.84 767.27,-77.15"/>
</a>
</g>
</g>
<!-- Node16 -->
<g id="Node000016" class="node">
<title>Node16</title>
<g id="a_Node000016"><a xlink:title=" ">
<polygon fill="#e0e0e0" stroke="#999999" points="1033,-74 1001,-74 1001,-55 1033,-55 1033,-74"/>
<text text-anchor="middle" x="1017" y="-62" font-family="Helvetica,sans-Serif" font-size="10.00">list</text>
</a>
</g>
</g>
<!-- Node15&#45;&gt;Node16 -->
<g id="edge18_Node000015_Node000016" class="edge">
<title>Node15&#45;&gt;Node16</title>
<g id="a_edge18_Node000015_Node000016"><a xlink:title=" ">
<path fill="none" stroke="#63b8ff" d="M855.67,-109.92C888.78,-101.99 939.02,-89.49 991.16,-74.08"/>
<polygon fill="#63b8ff" stroke="#63b8ff" points="992.34,-77.38 1000.92,-71.17 990.34,-70.67 992.34,-77.38"/>
</a>
</g>
</g>
<!-- Node17 -->
<g id="Node000017" class="node">
<title>Node17</title>
<g id="a_Node000017"><a xlink:title=" ">
<polygon fill="#e0e0e0" stroke="#999999" points="1182.5,-74 1089.5,-74 1089.5,-55 1182.5,-55 1182.5,-74"/>
<text text-anchor="middle" x="1136" y="-62" font-family="Helvetica,sans-Serif" font-size="10.00">unordered_map</text>
</a>
</g>
</g>
<!-- Node15&#45;&gt;Node17 -->
<g id="edge19_Node000015_Node000017" class="edge">
<title>Node15&#45;&gt;Node17</title>
<g id="a_edge19_Node000015_Node000017"><a xlink:title=" ">
<path fill="none" stroke="#63b8ff" d="M869.93,-109.98C927.18,-100.41 1019.86,-84.92 1079.35,-74.97"/>
<polygon fill="#63b8ff" stroke="#63b8ff" points="1080.04,-78.4 1089.33,-73.3 1078.89,-71.5 1080.04,-78.4"/>
</a>
</g>
</g>
<!-- Node18 -->
<g id="Node000018" class="node">
<title>Node18</title>
<g id="a_Node000018"><a xlink:href="memory__units_8h.html" target="_top" xlink:title=" ">
<polygon fill="white" stroke="#666666" points="983,-74 887,-74 887,-55 983,-55 983,-74"/>
<text text-anchor="middle" x="935" y="-62" font-family="Helvetica,sans-Serif" font-size="10.00">memory_units.h</text>
</a>
</g>
</g>
<!-- Node15&#45;&gt;Node18 -->
<g id="edge21_Node000015_Node000018" class="edge">
<title>Node15&#45;&gt;Node18</title>
<g id="a_edge21_Node000015_Node000018"><a xlink:title=" ">
<path fill="none" stroke="#63b8ff" d="M837.64,-109.98C856.3,-101.46 885.25,-88.23 906.74,-78.41"/>
<polygon fill="#63b8ff" stroke="#63b8ff" points="908.38,-81.51 916.02,-74.17 905.47,-75.14 908.38,-81.51"/>
</a>
</g>
</g>
<!-- Node19 -->
<g id="Node000019" class="node">
<title>Node19</title>
<g id="a_Node000019"><a xlink:href="string__hash_8h.html" target="_top" xlink:title="string hashing">
<polygon fill="white" stroke="#666666" points="869,-74 787,-74 787,-55 869,-55 869,-74"/>
<text text-anchor="middle" x="828" y="-62" font-family="Helvetica,sans-Serif" font-size="10.00">string_hash.h</text>
</a>
</g>
</g>
<!-- Node15&#45;&gt;Node19 -->
<g id="edge24_Node000015_Node000019" class="edge">
<title>Node15&#45;&gt;Node19</title>
<g id="a_edge24_Node000015_Node000019"><a xlink:title=" ">
<path fill="none" stroke="#63b8ff" d="M820.49,-109.75C821.67,-102.8 823.36,-92.85 824.84,-84.13"/>
<polygon fill="#63b8ff" stroke="#63b8ff" points="828.32,-84.53 826.54,-74.09 821.42,-83.36 828.32,-84.53"/>
</a>
</g>
</g>
<!-- Node18&#45;&gt;Node3 -->
<g id="edge23_Node000018_Node000003" class="edge">
<title>Node18&#45;&gt;Node3</title>
<g id="a_edge23_Node000018_Node000003"><a xlink:title=" ">
<path fill="none" stroke="#63b8ff" d="M893.07,-54.98C840.95,-44.4 753.16,-26.58 706.1,-17.02"/>
<polygon fill="#63b8ff" stroke="#63b8ff" points="706.65,-13.56 696.15,-15 705.25,-20.42 706.65,-13.56"/>
</a>
</g>
</g>
<!-- Node18&#45;&gt;Node14 -->
<g id="edge22_Node000018_Node000014" class="edge">
<title>Node18&#45;&gt;Node14</title>
<g id="a_edge22_Node000018_Node000014"><a xlink:title=" ">
<path fill="none" stroke="#63b8ff" d="M945.12,-54.98C954.44,-47.15 968.47,-35.34 979.74,-25.86"/>
<polygon fill="#63b8ff" stroke="#63b8ff" points="982.29,-28.29 987.69,-19.17 977.79,-22.93 982.29,-28.29"/>
</a>
</g>
</g>
<!-- Node19&#45;&gt;Node3 -->
<g id="edge25_Node000019_Node000003" class="edge">
<title>Node19&#45;&gt;Node3</title>
<g id="a_edge25_Node000019_Node000003"><a xlink:title=" ">
<path fill="none" stroke="#63b8ff" d="M803.26,-54.98C776.79,-45.88 734.72,-31.4 705.81,-21.45"/>
<polygon fill="#63b8ff" stroke="#63b8ff" points="706.78,-18.08 696.18,-18.13 704.5,-24.7 706.78,-18.08"/>
</a>
</g>
</g>
<!-- Node22 -->
<g id="Node000022" class="node">
<title>Node22</title>
<g id="a_Node000022"><a xlink:title=" ">
<polygon fill="#e0e0e0" stroke="#999999" points="410,-184 346,-184 346,-165 410,-165 410,-184"/>
<text text-anchor="middle" x="378" y="-172" font-family="Helvetica,sans-Serif" font-size="10.00">algorithm</text>
</a>
</g>
</g>
<!-- Node21&#45;&gt;Node22 -->
<g id="edge28_Node000021_Node000022" class="edge">
<title>Node21&#45;&gt;Node22</title>
<g id="a_edge28_Node000021_Node000022"><a xlink:title=" ">
<path fill="none" stroke="#63b8ff" d="M435.91,-219.98C425.51,-212 409.74,-199.88 397.28,-190.31"/>
<polygon fill="#63b8ff" stroke="#63b8ff" points="399.35,-187.49 389.29,-184.17 395.09,-193.04 399.35,-187.49"/>
</a>
</g>
</g>
<!-- Node23 -->
<g id="Node000023" class="node">
<title>Node23</title>
<g id="a_Node000023"><a xlink:title=" ">
<polygon fill="#e0e0e0" stroke="#999999" points="328,-184 254,-184 254,-165 328,-165 328,-184"/>
<text text-anchor="middle" x="291" y="-172" font-family="Helvetica,sans-Serif" font-size="10.00">forward_list</text>
</a>
</g>
</g>
<!-- Node21&#45;&gt;Node23 -->
<g id="edge29_Node000021_Node000023" class="edge">
<title>Node21&#45;&gt;Node23</title>
<g id="a_edge29_Node000021_Node000023"><a xlink:title=" ">
<path fill="none" stroke="#63b8ff" d="M421.94,-219.98C395.97,-211.16 355.19,-197.31 326.04,-187.41"/>
<polygon fill="#63b8ff" stroke="#63b8ff" points="326.85,-183.99 316.26,-184.08 324.6,-190.61 326.85,-183.99"/>
</a>
</g>
</g>
<!-- Node24 -->
<g id="Node000024" class="node">
<title>Node24</title>
<g id="a_Node000024"><a xlink:href="as__const_8h.html" target="_top" xlink:title=" ">
<polygon fill="white" stroke="#666666" points="574,-184 506,-184 506,-165 574,-165 574,-184"/>
<text text-anchor="middle" x="540" y="-172" font-family="Helvetica,sans-Serif" font-size="10.00">as_const.h</text>
</a>
</g>
</g>
<!-- Node21&#45;&gt;Node24 -->
<g id="edge30_Node000021_Node000024" class="edge">
<title>Node21&#45;&gt;Node24</title>
<g id="a_edge30_Node000021_Node000024"><a xlink:title=" ">
<path fill="none" stroke="#63b8ff" d="M461.94,-219.98C476.5,-211.69 498.87,-198.94 515.93,-189.22"/>
<polygon fill="#63b8ff" stroke="#63b8ff" points="517.83,-192.16 524.79,-184.17 514.36,-186.08 517.83,-192.16"/>
</a>
</g>
</g>
<!-- Node25 -->
<g id="Node000025" class="node">
<title>Node25</title>
<g id="a_Node000025"><a xlink:href="narrow_8h.html" target="_top" xlink:title=" ">
<polygon fill="white" stroke="#666666" points="487.5,-184 428.5,-184 428.5,-165 487.5,-165 487.5,-184"/>
<text text-anchor="middle" x="458" y="-172" font-family="Helvetica,sans-Serif" font-size="10.00">narrow.h</text>
</a>
</g>
</g>
<!-- Node21&#45;&gt;Node25 -->
<g id="edge31_Node000021_Node000025" class="edge">
<title>Node21&#45;&gt;Node25</title>
<g id="a_edge31_Node000021_Node000025"><a xlink:title=" ">
<path fill="none" stroke="#63b8ff" d="M448.82,-219.75C450.26,-212.8 452.32,-202.85 454.13,-194.13"/>
<polygon fill="#63b8ff" stroke="#63b8ff" points="457.61,-194.59 456.22,-184.09 450.76,-193.17 457.61,-194.59"/>
</a>
</g>
</g>
<!-- Node25&#45;&gt;Node6 -->
<g id="edge33_Node000025_Node000006" class="edge">
<title>Node25&#45;&gt;Node6</title>
<g id="a_edge33_Node000025_Node000006"><a xlink:title=" ">
<path fill="none" stroke="#63b8ff" d="M428.19,-166.98C425.09,-166.31 421.98,-165.64 419,-165 361.12,-152.62 294.28,-138.64 251.38,-129.71"/>
<polygon fill="#63b8ff" stroke="#63b8ff" points="252.04,-126.27 241.53,-127.66 250.61,-133.13 252.04,-126.27"/>
</a>
</g>
</g>
<!-- Node25&#45;&gt;Node9 -->
<g id="edge32_Node000025_Node000009" class="edge">
<title>Node25&#45;&gt;Node9</title>
<g id="a_edge32_Node000025_Node000009"><a xlink:title=" ">
<path fill="none" stroke="#63b8ff" d="M458,-164.66C458,-147.17 458,-107.8 458,-84.27"/>
<polygon fill="#63b8ff" stroke="#63b8ff" points="461.5,-84.16 458,-74.16 454.5,-84.16 461.5,-84.16"/>
</a>
</g>
</g>
<!-- Node26&#45;&gt;Node4 -->
<g id="edge37_Node000026_Node000004" class="edge">
<title>Node26&#45;&gt;Node4</title>
<g id="a_edge37_Node000026_Node000004"><a xlink:title=" ">
<path fill="none" stroke="#63b8ff" d="M258.34,-333.61C346.79,-323.15 552.78,-298.78 632.59,-289.33"/>
<polygon fill="#63b8ff" stroke="#63b8ff" points="633.47,-292.75 642.99,-288.1 632.65,-285.8 633.47,-292.75"/>
</a>
</g>
</g>
<!-- Node26&#45;&gt;Node6 -->
<g id="edge36_Node000026_Node000006" class="edge">
<title>Node26&#45;&gt;Node6</title>
<g id="a_edge36_Node000026_Node000006"><a xlink:title=" ">
<path fill="none" stroke="#63b8ff" d="M211.81,-329.85C202.06,-313.06 181.36,-274.57 174,-239 167.34,-206.79 163.68,-196.23 174,-165 177.46,-154.54 184.43,-144.53 191.08,-136.66"/>
<polygon fill="#63b8ff" stroke="#63b8ff" points="193.86,-138.8 197.98,-129.04 188.67,-134.1 193.86,-138.8"/>
</a>
</g>
</g>
<!-- Node27&#45;&gt;Node4 -->
<g id="edge39_Node000027_Node000004" class="edge">
<title>Node27&#45;&gt;Node4</title>
<g id="a_edge39_Node000027_Node000004"><a xlink:title=" ">
<path fill="none" stroke="#63b8ff" d="M653.78,-549.79C680.31,-533.85 731,-497.27 731,-450.5 731,-450.5 731,-450.5 731,-393.5 731,-356.23 702.02,-320.93 682.47,-301.36"/>
<polygon fill="#63b8ff" stroke="#63b8ff" points="684.66,-298.61 675.02,-294.2 679.81,-303.65 684.66,-298.61"/>
</a>
</g>
</g>
<!-- Node28&#45;&gt;Node6 -->
<g id="edge63_Node000028_Node000006" class="edge">
<title>Node28&#45;&gt;Node6</title>
<g id="a_edge63_Node000028_Node000006"><a xlink:title=" ">
<path fill="none" stroke="#63b8ff" d="M410.82,-608.85C335.15,-596.7 148,-561.03 148,-505.5 148,-505.5 148,-505.5 148,-393.5 148,-291.63 125.25,-258.36 166,-165 170.9,-153.76 179.86,-143.52 188.15,-135.71"/>
<polygon fill="#63b8ff" stroke="#63b8ff" points="190.56,-138.25 195.74,-129 185.93,-133 190.56,-138.25"/>
</a>
</g>
</g>
<!-- Node28&#45;&gt;Node12 -->
<g id="edge41_Node000028_Node000012" class="edge">
<title>Node28&#45;&gt;Node12</title>
<g id="a_edge41_Node000028_Node000012"><a xlink:title=" ">
<path fill="none" stroke="#63b8ff" d="M473.12,-613.82C586.51,-614.16 971,-607.79 971,-505.5 971,-505.5 971,-505.5 971,-228.5 971,-196.85 977.81,-160.54 982.54,-139.11"/>
<polygon fill="#63b8ff" stroke="#63b8ff" points="986.01,-139.65 984.84,-129.12 979.19,-138.08 986.01,-139.65"/>
</a>
</g>
</g>
<!-- Node29 -->
<g id="Node000029" class="node">
<title>Node29</title>
<g id="a_Node000029"><a xlink:href="expr_8h.html" target="_top" xlink:title=" ">
<polygon fill="white" stroke="#666666" points="465.5,-569 418.5,-569 418.5,-550 465.5,-550 465.5,-569"/>
<text text-anchor="middle" x="442" y="-557" font-family="Helvetica,sans-Serif" font-size="10.00">expr.h</text>
</a>
</g>
</g>
<!-- Node28&#45;&gt;Node29 -->
<g id="edge42_Node000028_Node000029" class="edge">
<title>Node28&#45;&gt;Node29</title>
<g id="a_edge42_Node000028_Node000029"><a xlink:title=" ">
<path fill="none" stroke="#63b8ff" d="M442,-604.75C442,-597.8 442,-587.85 442,-579.13"/>
<polygon fill="#63b8ff" stroke="#63b8ff" points="445.5,-579.09 442,-569.09 438.5,-579.09 445.5,-579.09"/>
</a>
</g>
</g>
<!-- Node29&#45;&gt;Node24 -->
<g id="edge43_Node000029_Node000024" class="edge">
<title>Node29&#45;&gt;Node24</title>
<g id="a_edge43_Node000029_Node000024"><a xlink:title=" ">
<path fill="none" stroke="#63b8ff" d="M465.76,-558.56C497.37,-557.2 552.26,-549.5 578,-514 615.49,-462.28 562.65,-256.8 545.23,-193.9"/>
<polygon fill="#63b8ff" stroke="#63b8ff" points="548.58,-192.86 542.51,-184.17 541.83,-194.75 548.58,-192.86"/>
</a>
</g>
</g>
<!-- Node30 -->
<g id="Node000030" class="node">
<title>Node30</title>
<g id="a_Node000030"><a xlink:href="type_8h.html" target="_top" xlink:title="Defines typet, type_with_subtypet and type_with_subtypest.">
<polygon fill="white" stroke="#666666" points="569.5,-514 522.5,-514 522.5,-495 569.5,-495 569.5,-514"/>
<text text-anchor="middle" x="546" y="-502" font-family="Helvetica,sans-Serif" font-size="10.00">type.h</text>
</a>
</g>
</g>
<!-- Node29&#45;&gt;Node30 -->
<g id="edge44_Node000029_Node000030" class="edge">
<title>Node29&#45;&gt;Node30</title>
<g id="a_edge44_Node000029_Node000030"><a xlink:title=" ">
<path fill="none" stroke="#63b8ff" d="M458.71,-549.98C475.21,-541.57 500.7,-528.59 519.88,-518.81"/>
<polygon fill="#63b8ff" stroke="#63b8ff" points="521.67,-521.83 528.99,-514.17 518.49,-515.59 521.67,-521.83"/>
</a>
</g>
</g>
<!-- Node36 -->
<g id="Node000036" class="node">
<title>Node36</title>
<g id="a_Node000036"><a xlink:href="validation__mode_8h.html" target="_top" xlink:title=" ">
<polygon fill="white" stroke="#666666" points="508.5,-404 401.5,-404 401.5,-385 508.5,-385 508.5,-404"/>
<text text-anchor="middle" x="455" y="-392" font-family="Helvetica,sans-Serif" font-size="10.00">validation_mode.h</text>
</a>
</g>
</g>
<!-- Node29&#45;&gt;Node36 -->
<g id="edge61_Node000029_Node000036" class="edge">
<title>Node29&#45;&gt;Node36</title>
<g id="a_edge61_Node000029_Node000036"><a xlink:title=" ">
<path fill="none" stroke="#63b8ff" d="M418.39,-556.79C370.71,-552.78 265.63,-541.03 244,-514 197.78,-456.23 314.98,-421.87 392.65,-406.04"/>
<polygon fill="#63b8ff" stroke="#63b8ff" points="393.73,-409.4 402.86,-404.02 392.37,-402.53 393.73,-409.4"/>
</a>
</g>
</g>
<!-- Node37 -->
<g id="Node000037" class="node">
<title>Node37</title>
<g id="a_Node000037"><a xlink:href="validate__types_8h.html" target="_top" xlink:title=" ">
<polygon fill="white" stroke="#666666" points="448,-459 350,-459 350,-440 448,-440 448,-459"/>
<text text-anchor="middle" x="399" y="-447" font-family="Helvetica,sans-Serif" font-size="10.00">validate_types.h</text>
</a>
</g>
</g>
<!-- Node29&#45;&gt;Node37 -->
<g id="edge60_Node000029_Node000037" class="edge">
<title>Node29&#45;&gt;Node37</title>
<g id="a_edge60_Node000029_Node000037"><a xlink:title=" ">
<path fill="none" stroke="#63b8ff" d="M438.48,-549.66C431.45,-532.01 415.56,-492.09 406.22,-468.64"/>
<polygon fill="#63b8ff" stroke="#63b8ff" points="409.4,-467.15 402.45,-459.16 402.89,-469.74 409.4,-467.15"/>
</a>
</g>
</g>
<!-- Node38 -->
<g id="Node000038" class="node">
<title>Node38</title>
<g id="a_Node000038"><a xlink:href="validate__expressions_8h.html" target="_top" xlink:title=" ">
<polygon fill="white" stroke="#666666" points="382.5,-514 253.5,-514 253.5,-495 382.5,-495 382.5,-514"/>
<text text-anchor="middle" x="318" y="-502" font-family="Helvetica,sans-Serif" font-size="10.00">validate_expressions.h</text>
</a>
</g>
</g>
<!-- Node29&#45;&gt;Node38 -->
<g id="edge59_Node000029_Node000038" class="edge">
<title>Node29&#45;&gt;Node38</title>
<g id="a_edge59_Node000029_Node000038"><a xlink:title=" ">
<path fill="none" stroke="#63b8ff" d="M422.08,-549.98C401.95,-541.38 370.62,-527.99 347.59,-518.15"/>
<polygon fill="#63b8ff" stroke="#63b8ff" points="348.86,-514.88 338.29,-514.17 346.1,-521.32 348.86,-514.88"/>
</a>
</g>
</g>
<!-- Node39 -->
<g id="Node000039" class="node">
<title>Node39</title>
<g id="a_Node000039"><a xlink:title=" ">
<polygon fill="#e0e0e0" stroke="#999999" points="504.5,-514 439.5,-514 439.5,-495 504.5,-495 504.5,-514"/>
<text text-anchor="middle" x="472" y="-502" font-family="Helvetica,sans-Serif" font-size="10.00">functional</text>
</a>
</g>
</g>
<!-- Node29&#45;&gt;Node39 -->
<g id="edge62_Node000029_Node000039" class="edge">
<title>Node29&#45;&gt;Node39</title>
<g id="a_edge62_Node000029_Node000039"><a xlink:title=" ">
<path fill="none" stroke="#63b8ff" d="M446.95,-549.75C451.06,-542.49 457.03,-531.95 462.1,-522.98"/>
<polygon fill="#63b8ff" stroke="#63b8ff" points="465.26,-524.52 467.14,-514.09 459.17,-521.07 465.26,-524.52"/>
</a>
</g>
</g>
<!-- Node31 -->
<g id="Node000031" class="node">
<title>Node31</title>
<g id="a_Node000031"><a xlink:href="source__location_8h.html" target="_top" xlink:title=" ">
<polygon fill="white" stroke="#666666" points="861,-349 759,-349 759,-330 861,-330 861,-349"/>
<text text-anchor="middle" x="810" y="-337" font-family="Helvetica,sans-Serif" font-size="10.00">source_location.h</text>
</a>
</g>
</g>
<!-- Node30&#45;&gt;Node31 -->
<g id="edge45_Node000030_Node000031" class="edge">
<title>Node30&#45;&gt;Node31</title>
<g id="a_edge45_Node000030_Node000031"><a xlink:title=" ">
<path fill="none" stroke="#63b8ff" d="M560.76,-494.89C589.88,-477.84 656.68,-438.48 712,-404 738.58,-387.43 768.78,-367.72 788.55,-354.71"/>
<polygon fill="#63b8ff" stroke="#63b8ff" points="790.68,-357.5 797.09,-349.07 786.82,-351.65 790.68,-357.5"/>
</a>
</g>
</g>
<!-- Node34 -->
<g id="Node000034" class="node">
<title>Node34</title>
<g id="a_Node000034"><a xlink:href="validate_8h.html" target="_top" xlink:title=" ">
<polygon fill="white" stroke="#666666" points="569.5,-459 504.5,-459 504.5,-440 569.5,-440 569.5,-459"/>
<text text-anchor="middle" x="537" y="-447" font-family="Helvetica,sans-Serif" font-size="10.00">validate.h</text>
</a>
</g>
</g>
<!-- Node30&#45;&gt;Node34 -->
<g id="edge50_Node000030_Node000034" class="edge">
<title>Node30&#45;&gt;Node34</title>
<g id="a_edge50_Node000030_Node000034"><a xlink:title=" ">
<path fill="none" stroke="#63b8ff" d="M544.51,-494.75C543.33,-487.8 541.64,-477.85 540.16,-469.13"/>
<polygon fill="#63b8ff" stroke="#63b8ff" points="543.58,-468.36 538.46,-459.09 536.68,-469.53 543.58,-468.36"/>
</a>
</g>
</g>
<!-- Node30&#45;&gt;Node36 -->
<g id="edge58_Node000030_Node000036" class="edge">
<title>Node30&#45;&gt;Node36</title>
<g id="a_edge58_Node000030_Node000036"><a xlink:title=" ">
<path fill="none" stroke="#63b8ff" d="M534.19,-494.81C523.25,-486.41 506.92,-472.93 495,-459 482.85,-444.8 471.76,-426.58 464.35,-413.3"/>
<polygon fill="#63b8ff" stroke="#63b8ff" points="467.29,-411.38 459.45,-404.26 461.14,-414.71 467.29,-411.38"/>
</a>
</g>
</g>
<!-- Node30&#45;&gt;Node37 -->
<g id="edge57_Node000030_Node000037" class="edge">
<title>Node30&#45;&gt;Node37</title>
<g id="a_edge57_Node000030_Node000037"><a xlink:title=" ">
<path fill="none" stroke="#63b8ff" d="M522.38,-494.98C498.1,-486.23 460.05,-472.51 432.63,-462.62"/>
<polygon fill="#63b8ff" stroke="#63b8ff" points="433.64,-459.27 423.05,-459.17 431.27,-465.85 433.64,-459.27"/>
</a>
</g>
</g>
<!-- Node31&#45;&gt;Node3 -->
<g id="edge49_Node000031_Node000003" class="edge">
<title>Node31&#45;&gt;Node3</title>
<g id="a_edge49_Node000031_Node000003"><a xlink:title=" ">
<path fill="none" stroke="#63b8ff" d="M828.49,-329.91C912.89,-290.2 1254.75,-123.38 1192,-55 1159.14,-19.2 815,-12.14 706.54,-10.8"/>
<polygon fill="#63b8ff" stroke="#63b8ff" points="706.26,-7.3 696.23,-10.68 706.18,-14.3 706.26,-7.3"/>
</a>
</g>
</g>
<!-- Node31&#45;&gt;Node4 -->
<g id="edge47_Node000031_Node000004" class="edge">
<title>Node31&#45;&gt;Node4</title>
<g id="a_edge47_Node000031_Node000004"><a xlink:title=" ">
<path fill="none" stroke="#63b8ff" d="M786.7,-329.98C762.32,-321.07 723.87,-307.02 696.73,-297.1"/>
<polygon fill="#63b8ff" stroke="#63b8ff" points="697.88,-293.79 687.29,-293.65 695.48,-300.37 697.88,-293.79"/>
</a>
</g>
</g>
<!-- Node32 -->
<g id="Node000032" class="node">
<title>Node32</title>
<g id="a_Node000032"><a xlink:href="deprecate_8h.html" target="_top" xlink:title=" ">
<polygon fill="white" stroke="#666666" points="779,-294 705,-294 705,-275 779,-275 779,-294"/>
<text text-anchor="middle" x="742" y="-282" font-family="Helvetica,sans-Serif" font-size="10.00">deprecate.h</text>
</a>
</g>
</g>
<!-- Node31&#45;&gt;Node32 -->
<g id="edge46_Node000031_Node000032" class="edge">
<title>Node31&#45;&gt;Node32</title>
<g id="a_edge46_Node000031_Node000032"><a xlink:title=" ">
<path fill="none" stroke="#63b8ff" d="M799.07,-329.98C788.92,-322.07 773.58,-310.11 761.35,-300.58"/>
<polygon fill="#63b8ff" stroke="#63b8ff" points="763.16,-297.56 753.12,-294.17 758.86,-303.08 763.16,-297.56"/>
</a>
</g>
</g>
<!-- Node33 -->
<g id="Node000033" class="node">
<title>Node33</title>
<g id="a_Node000033"><a xlink:title=" ">
<polygon fill="#e0e0e0" stroke="#999999" points="853,-294 797,-294 797,-275 853,-275 853,-294"/>
<text text-anchor="middle" x="825" y="-282" font-family="Helvetica,sans-Serif" font-size="10.00">optional</text>
</a>
</g>
</g>
<!-- Node31&#45;&gt;Node33 -->
<g id="edge48_Node000031_Node000033" class="edge">
<title>Node31&#45;&gt;Node33</title>
<g id="a_edge48_Node000031_Node000033"><a xlink:title=" ">
<path fill="none" stroke="#63b8ff" d="M812.48,-329.75C814.46,-322.72 817.32,-312.62 819.81,-303.84"/>
<polygon fill="#63b8ff" stroke="#63b8ff" points="823.21,-304.66 822.57,-294.09 816.48,-302.76 823.21,-304.66"/>
</a>
</g>
</g>
<!-- Node34&#45;&gt;Node9 -->
<g id="edge51_Node000034_Node000009" class="edge">
<title>Node34&#45;&gt;Node9</title>
<g id="a_edge51_Node000034_Node000009"><a xlink:title=" ">
<path fill="none" stroke="#63b8ff" d="M542.03,-439.62C561.8,-403.42 630.86,-264.26 583,-165 563.11,-123.74 516.87,-94.31 486.55,-78.62"/>
<polygon fill="#63b8ff" stroke="#63b8ff" points="487.83,-75.34 477.32,-74 484.7,-81.6 487.83,-75.34"/>
</a>
</g>
</g>
<!-- Node35 -->
<g id="Node000035" class="node">
<title>Node35</title>
<g id="a_Node000035"><a xlink:href="exception__utils_8h.html" target="_top" xlink:title=" ">
<polygon fill="white" stroke="#666666" points="703,-404 603,-404 603,-385 703,-385 703,-404"/>
<text text-anchor="middle" x="653" y="-392" font-family="Helvetica,sans-Serif" font-size="10.00">exception_utils.h</text>
</a>
</g>
</g>
<!-- Node34&#45;&gt;Node35 -->
<g id="edge52_Node000034_Node000035" class="edge">
<title>Node34&#45;&gt;Node35</title>
<g id="a_edge52_Node000034_Node000035"><a xlink:title=" ">
<path fill="none" stroke="#63b8ff" d="M555.64,-439.98C574.3,-431.46 603.25,-418.23 624.74,-408.41"/>
<polygon fill="#63b8ff" stroke="#63b8ff" points="626.38,-411.51 634.02,-404.17 623.47,-405.14 626.38,-411.51"/>
</a>
</g>
</g>
<!-- Node34&#45;&gt;Node36 -->
<g id="edge56_Node000034_Node000036" class="edge">
<title>Node34&#45;&gt;Node36</title>
<g id="a_edge56_Node000034_Node000036"><a xlink:title=" ">
<path fill="none" stroke="#63b8ff" d="M523.83,-439.98C511.23,-431.84 492,-419.41 477.06,-409.76"/>
<polygon fill="#63b8ff" stroke="#63b8ff" points="478.71,-406.66 468.41,-404.17 474.91,-412.54 478.71,-406.66"/>
</a>
</g>
</g>
<!-- Node35&#45;&gt;Node3 -->
<g id="edge53_Node000035_Node000003" class="edge">
<title>Node35&#45;&gt;Node3</title>
<g id="a_edge53_Node000035_Node000003"><a xlink:title=" ">
<path fill="none" stroke="#63b8ff" d="M703.02,-390.38C760.42,-385.64 849.34,-374.33 870,-349 910,-299.96 806.53,-167.47 804,-165 778.43,-139.98 759.3,-152.13 732,-129 708.94,-109.46 705.22,-101.18 692,-74 685.03,-59.65 680.31,-42.13 677.47,-29.13"/>
<polygon fill="#63b8ff" stroke="#63b8ff" points="680.84,-28.17 675.43,-19.06 673.98,-29.56 680.84,-28.17"/>
</a>
</g>
</g>
<!-- Node35&#45;&gt;Node6 -->
<g id="edge54_Node000035_Node000006" class="edge">
<title>Node35&#45;&gt;Node6</title>
<g id="a_edge54_Node000035_Node000006"><a xlink:title=" ">
<path fill="none" stroke="#63b8ff" d="M628,-384.9C568.75,-364.01 415.97,-307.31 299,-239 263.92,-218.51 249.2,-217.34 226,-184 216.65,-170.57 211.83,-152.47 209.39,-139.03"/>
<polygon fill="#63b8ff" stroke="#63b8ff" points="212.83,-138.39 207.85,-129.04 205.91,-139.46 212.83,-138.39"/>
</a>
</g>
</g>
<!-- Node35&#45;&gt;Node31 -->
<g id="edge55_Node000035_Node000031" class="edge">
<title>Node35&#45;&gt;Node31</title>
<g id="a_edge55_Node000035_Node000031"><a xlink:title=" ">
<path fill="none" stroke="#63b8ff" d="M678.22,-384.98C704.36,-376.16 745.4,-362.31 774.73,-352.41"/>
<polygon fill="#63b8ff" stroke="#63b8ff" points="776.22,-355.6 784.58,-349.08 773.98,-348.96 776.22,-355.6"/>
</a>
</g>
</g>
<!-- Node40&#45;&gt;Node16 -->
<g id="edge66_Node000040_Node000016" class="edge">
<title>Node40&#45;&gt;Node16</title>
<g id="a_edge66_Node000040_Node000016"><a xlink:title=" ">
<path fill="none" stroke="#63b8ff" d="M1077,-659.82C1077,-641.48 1077,-597.44 1077,-560.5 1077,-560.5 1077,-560.5 1077,-173.5 1077,-137.09 1050.62,-101.48 1032.84,-81.62"/>
<polygon fill="#63b8ff" stroke="#63b8ff" points="1035.23,-79.05 1025.85,-74.11 1030.11,-83.82 1035.23,-79.05"/>
</a>
</g>
</g>
<!-- Node40&#45;&gt;Node17 -->
<g id="edge68_Node000040_Node000017" class="edge">
<title>Node40&#45;&gt;Node17</title>
<g id="a_edge68_Node000040_Node000017"><a xlink:title=" ">
<path fill="none" stroke="#63b8ff" d="M1082.28,-659.9C1092.73,-642.07 1115,-599.46 1115,-560.5 1115,-560.5 1115,-560.5 1115,-173.5 1115,-141.46 1124.02,-105.03 1130.23,-83.73"/>
<polygon fill="#63b8ff" stroke="#63b8ff" points="1133.61,-84.65 1133.17,-74.07 1126.91,-82.62 1133.61,-84.65"/>
</a>
</g>
</g>
<!-- Node40&#45;&gt;Node28 -->
<g id="edge65_Node000040_Node000028" class="edge">
<title>Node40&#45;&gt;Node28</title>
<g id="a_edge65_Node000040_Node000028"><a xlink:title=" ">
<path fill="none" stroke="#63b8ff" d="M1016.97,-663.49C889.07,-652.81 592.44,-628.06 483.28,-618.95"/>
<polygon fill="#63b8ff" stroke="#63b8ff" points="483.27,-615.43 473.01,-618.09 482.69,-622.41 483.27,-615.43"/>
</a>
</g>
</g>
<!-- Node41 -->
<g id="Node000041" class="node">
<title>Node41</title>
<g id="a_Node000041"><a xlink:title=" ">
<polygon fill="#e0e0e0" stroke="#999999" points="1181,-624 1143,-624 1143,-605 1181,-605 1181,-624"/>
<text text-anchor="middle" x="1162" y="-612" font-family="Helvetica,sans-Serif" font-size="10.00">map</text>
</a>
</g>
</g>
<!-- Node40&#45;&gt;Node41 -->
<g id="edge67_Node000040_Node000041" class="edge">
<title>Node40&#45;&gt;Node41</title>
<g id="a_edge67_Node000040_Node000041"><a xlink:title=" ">
<path fill="none" stroke="#63b8ff" d="M1090.66,-659.98C1103.84,-651.77 1124.03,-639.18 1139.57,-629.49"/>
<polygon fill="#63b8ff" stroke="#63b8ff" points="1141.46,-632.43 1148.09,-624.17 1137.76,-626.49 1141.46,-632.43"/>
</a>
</g>
</g>
</g>
</svg>
