<?xml version="1.0" encoding="UTF-8" standalone="no"?>
<!DOCTYPE svg PUBLIC "-//W3C//DTD SVG 1.1//EN"
 "http://www.w3.org/Graphics/SVG/1.1/DTD/svg11.dtd">
<!-- Generated by graphviz version 2.43.0 (0)
 -->
<!-- Title: /home/runner/work/cbmc/cbmc/src/goto&#45;programs/goto_instruction_code.cpp Pages: 1 -->
<svg width="1122pt" height="654pt"
 viewBox="0.00 0.00 1121.50 654.00" xmlns="http://www.w3.org/2000/svg" xmlns:xlink="http://www.w3.org/1999/xlink">
<g id="graph0" class="graph" transform="scale(1 1) rotate(0) translate(4 650)">
<title>/home/runner/work/cbmc/cbmc/src/goto&#45;programs/goto_instruction_code.cpp</title>
<!-- Node1 -->
<g id="Node000001" class="node">
<title>Node1</title>
<g id="a_Node000001"><a xlink:title="Data structures representing instructions in a GOTO program.">
<polygon fill="#999999" stroke="#666666" points="723,-646 576,-646 576,-605 723,-605 723,-646"/>
<text text-anchor="start" x="584" y="-634" font-family="Helvetica,sans-Serif" font-size="10.00">/home/runner/work/cbmc</text>
<text text-anchor="start" x="584" y="-623" font-family="Helvetica,sans-Serif" font-size="10.00">/cbmc/src/goto&#45;programs</text>
<text text-anchor="middle" x="649.5" y="-612" font-family="Helvetica,sans-Serif" font-size="10.00">/goto_instruction_code.cpp</text>
</a>
</g>
</g>
<!-- Node2 -->
<g id="Node000002" class="node">
<title>Node2</title>
<g id="a_Node000002"><a xlink:href="goto__instruction__code_8h.html" target="_top" xlink:title=" ">
<polygon fill="white" stroke="#666666" points="372,-514 239,-514 239,-495 372,-495 372,-514"/>
<text text-anchor="middle" x="305.5" y="-502" font-family="Helvetica,sans-Serif" font-size="10.00">goto_instruction_code.h</text>
</a>
</g>
</g>
<!-- Node1&#45;&gt;Node2 -->
<g id="edge1_Node000001_Node000002" class="edge">
<title>Node1&#45;&gt;Node2</title>
<g id="a_edge1_Node000001_Node000002"><a xlink:title=" ">
<path fill="none" stroke="#63b8ff" d="M575.79,-618.02C521.43,-611.12 446.77,-597.11 386.5,-569 361.36,-557.27 336.92,-536.42 321.58,-521.82"/>
<polygon fill="#63b8ff" stroke="#63b8ff" points="323.64,-518.94 314.05,-514.45 318.75,-523.94 323.64,-518.94"/>
</a>
</g>
</g>
<!-- Node43 -->
<g id="Node000043" class="node">
<title>Node43</title>
<g id="a_Node000043"><a xlink:href="std__expr_8h.html" target="_top" xlink:title="API to expression classes.">
<polygon fill="white" stroke="#666666" points="434.5,-459 348.5,-459 348.5,-440 434.5,-440 434.5,-459"/>
<text text-anchor="middle" x="391.5" y="-447" font-family="Helvetica,sans-Serif" font-size="10.00">util/std_expr.h</text>
</a>
</g>
</g>
<!-- Node1&#45;&gt;Node43 -->
<g id="edge61_Node000001_Node000043" class="edge">
<title>Node1&#45;&gt;Node43</title>
<g id="a_edge61_Node000001_Node000043"><a xlink:title=" ">
<path fill="none" stroke="#63b8ff" d="M575.57,-620.71C532.03,-614.92 478.43,-601.14 441.5,-569 411.42,-542.82 398.98,-495.51 394.2,-469.28"/>
<polygon fill="#63b8ff" stroke="#63b8ff" points="397.61,-468.46 392.55,-459.16 390.7,-469.59 397.61,-468.46"/>
</a>
</g>
</g>
<!-- Node44 -->
<g id="Node000044" class="node">
<title>Node44</title>
<g id="a_Node000044"><a xlink:href="arith__tools_8h.html" target="_top" xlink:title=" ">
<polygon fill="white" stroke="#666666" points="704.5,-514 608.5,-514 608.5,-495 704.5,-495 704.5,-514"/>
<text text-anchor="middle" x="656.5" y="-502" font-family="Helvetica,sans-Serif" font-size="10.00">util/arith_tools.h</text>
</a>
</g>
</g>
<!-- Node1&#45;&gt;Node44 -->
<g id="edge46_Node000001_Node000044" class="edge">
<title>Node1&#45;&gt;Node44</title>
<g id="a_edge46_Node000001_Node000044"><a xlink:title=" ">
<path fill="none" stroke="#63b8ff" d="M636.87,-604.9C628.79,-589.88 620.8,-568.64 626.5,-550 629.59,-539.9 635.82,-530.02 641.81,-522.15"/>
<polygon fill="#63b8ff" stroke="#63b8ff" points="644.68,-524.16 648.29,-514.2 639.26,-519.74 644.68,-524.16"/>
</a>
</g>
</g>
<!-- Node46 -->
<g id="Node000046" class="node">
<title>Node46</title>
<g id="a_Node000046"><a xlink:href="c__types_8h.html" target="_top" xlink:title=" ">
<polygon fill="white" stroke="#666666" points="849.5,-569 767.5,-569 767.5,-550 849.5,-550 849.5,-569"/>
<text text-anchor="middle" x="808.5" y="-557" font-family="Helvetica,sans-Serif" font-size="10.00">util/c_types.h</text>
</a>
</g>
</g>
<!-- Node1&#45;&gt;Node46 -->
<g id="edge51_Node000001_Node000046" class="edge">
<title>Node1&#45;&gt;Node46</title>
<g id="a_edge51_Node000001_Node000046"><a xlink:title=" ">
<path fill="none" stroke="#63b8ff" d="M698.07,-604.95C724,-594.51 755.14,-581.98 777.73,-572.88"/>
<polygon fill="#63b8ff" stroke="#63b8ff" points="779.18,-576.07 787.15,-569.09 776.57,-569.58 779.18,-576.07"/>
</a>
</g>
</g>
<!-- Node49 -->
<g id="Node000049" class="node">
<title>Node49</title>
<g id="a_Node000049"><a xlink:href="cprover__prefix_8h.html" target="_top" xlink:title=" ">
<polygon fill="white" stroke="#666666" points="749.5,-569 635.5,-569 635.5,-550 749.5,-550 749.5,-569"/>
<text text-anchor="middle" x="692.5" y="-557" font-family="Helvetica,sans-Serif" font-size="10.00">util/cprover_prefix.h</text>
</a>
</g>
</g>
<!-- Node1&#45;&gt;Node49 -->
<g id="edge57_Node000001_Node000049" class="edge">
<title>Node1&#45;&gt;Node49</title>
<g id="a_edge57_Node000001_Node000049"><a xlink:title=" ">
<path fill="none" stroke="#63b8ff" d="M662.64,-604.95C668.45,-596.3 675.23,-586.2 680.86,-577.82"/>
<polygon fill="#63b8ff" stroke="#63b8ff" points="683.94,-579.51 686.61,-569.26 678.13,-575.61 683.94,-579.51"/>
</a>
</g>
</g>
<!-- Node50 -->
<g id="Node000050" class="node">
<title>Node50</title>
<g id="a_Node000050"><a xlink:href="namespace_8h.html" target="_top" xlink:title=" ">
<polygon fill="white" stroke="#666666" points="1030,-184 929,-184 929,-165 1030,-165 1030,-184"/>
<text text-anchor="middle" x="979.5" y="-172" font-family="Helvetica,sans-Serif" font-size="10.00">util/namespace.h</text>
</a>
</g>
</g>
<!-- Node1&#45;&gt;Node50 -->
<g id="edge58_Node000001_Node000050" class="edge">
<title>Node1&#45;&gt;Node50</title>
<g id="a_edge58_Node000001_Node000050"><a xlink:title=" ">
<path fill="none" stroke="#63b8ff" d="M723.22,-619.09C845.14,-608.1 1075.5,-577.78 1075.5,-505.5 1075.5,-505.5 1075.5,-505.5 1075.5,-283.5 1075.5,-240.72 1032.9,-207.01 1004.45,-189.27"/>
<polygon fill="#63b8ff" stroke="#63b8ff" points="1006.16,-186.21 995.79,-184.08 1002.57,-192.22 1006.16,-186.21"/>
</a>
</g>
</g>
<!-- Node51 -->
<g id="Node000051" class="node">
<title>Node51</title>
<g id="a_Node000051"><a xlink:href="string__constant_8h.html" target="_top" xlink:title=" ">
<polygon fill="white" stroke="#666666" points="569,-569 450,-569 450,-550 569,-550 569,-569"/>
<text text-anchor="middle" x="509.5" y="-557" font-family="Helvetica,sans-Serif" font-size="10.00">util/string_constant.h</text>
</a>
</g>
</g>
<!-- Node1&#45;&gt;Node51 -->
<g id="edge62_Node000001_Node000051" class="edge">
<title>Node1&#45;&gt;Node51</title>
<g id="a_edge62_Node000001_Node000051"><a xlink:title=" ">
<path fill="none" stroke="#63b8ff" d="M606.73,-604.95C584.21,-594.65 557.22,-582.31 537.4,-573.25"/>
<polygon fill="#63b8ff" stroke="#63b8ff" points="538.84,-570.07 528.29,-569.09 535.93,-576.43 538.84,-570.07"/>
</a>
</g>
</g>
<!-- Node52 -->
<g id="Node000052" class="node">
<title>Node52</title>
<g id="a_Node000052"><a xlink:href="symbol_8h.html" target="_top" xlink:title="Symbol table entry.">
<polygon fill="white" stroke="#666666" points="861.5,-349 781.5,-349 781.5,-330 861.5,-330 861.5,-349"/>
<text text-anchor="middle" x="821.5" y="-337" font-family="Helvetica,sans-Serif" font-size="10.00">util/symbol.h</text>
</a>
</g>
</g>
<!-- Node1&#45;&gt;Node52 -->
<g id="edge64_Node000001_Node000052" class="edge">
<title>Node1&#45;&gt;Node52</title>
<g id="a_edge64_Node000001_Node000052"><a xlink:title=" ">
<path fill="none" stroke="#63b8ff" d="M723.25,-620.83C767.07,-615.1 821.2,-601.34 858.5,-569 881.67,-548.91 885.5,-536.17 885.5,-505.5 885.5,-505.5 885.5,-505.5 885.5,-448.5 885.5,-411.53 857.4,-376.14 838.44,-356.46"/>
<polygon fill="#63b8ff" stroke="#63b8ff" points="840.77,-353.84 831.22,-349.26 835.83,-358.8 840.77,-353.84"/>
</a>
</g>
</g>
<!-- Node3 -->
<g id="Node000003" class="node">
<title>Node3</title>
<g id="a_Node000003"><a xlink:href="std__code__base_8h.html" target="_top" xlink:title=" ">
<polygon fill="white" stroke="#666666" points="308.5,-459 192.5,-459 192.5,-440 308.5,-440 308.5,-459"/>
<text text-anchor="middle" x="250.5" y="-447" font-family="Helvetica,sans-Serif" font-size="10.00">util/std_code_base.h</text>
</a>
</g>
</g>
<!-- Node2&#45;&gt;Node3 -->
<g id="edge2_Node000002_Node000003" class="edge">
<title>Node2&#45;&gt;Node3</title>
<g id="a_edge2_Node000002_Node000003"><a xlink:title=" ">
<path fill="none" stroke="#63b8ff" d="M296.42,-494.75C288.41,-487.03 276.54,-475.6 266.88,-466.28"/>
<polygon fill="#63b8ff" stroke="#63b8ff" points="269.04,-463.51 259.41,-459.09 264.19,-468.55 269.04,-463.51"/>
</a>
</g>
</g>
<!-- Node2&#45;&gt;Node43 -->
<g id="edge42_Node000002_Node000043" class="edge">
<title>Node2&#45;&gt;Node43</title>
<g id="a_edge42_Node000002_Node000043"><a xlink:title=" ">
<path fill="none" stroke="#63b8ff" d="M319.32,-494.98C332.65,-486.77 353.08,-474.18 368.81,-464.49"/>
<polygon fill="#63b8ff" stroke="#63b8ff" points="370.75,-467.4 377.43,-459.17 367.08,-461.44 370.75,-467.4"/>
</a>
</g>
</g>
<!-- Node4 -->
<g id="Node000004" class="node">
<title>Node4</title>
<g id="a_Node000004"><a xlink:href="expr__cast_8h.html" target="_top" xlink:title="Templated functions to cast to specific exprt&#45;derived classes.">
<polygon fill="white" stroke="#666666" points="287,-349 214,-349 214,-330 287,-330 287,-349"/>
<text text-anchor="middle" x="250.5" y="-337" font-family="Helvetica,sans-Serif" font-size="10.00">expr_cast.h</text>
</a>
</g>
</g>
<!-- Node3&#45;&gt;Node4 -->
<g id="edge3_Node000003_Node000004" class="edge">
<title>Node3&#45;&gt;Node4</title>
<g id="a_edge3_Node000003_Node000004"><a xlink:title=" ">
<path fill="none" stroke="#63b8ff" d="M250.5,-439.66C250.5,-422.17 250.5,-382.8 250.5,-359.27"/>
<polygon fill="#63b8ff" stroke="#63b8ff" points="254,-359.16 250.5,-349.16 247,-359.16 254,-359.16"/>
</a>
</g>
</g>
<!-- Node8 -->
<g id="Node000008" class="node">
<title>Node8</title>
<g id="a_Node000008"><a xlink:href="src_2util_2invariant_8h.html" target="_top" xlink:title=" ">
<polygon fill="white" stroke="#666666" points="528,-74 459,-74 459,-55 528,-55 528,-74"/>
<text text-anchor="middle" x="493.5" y="-62" font-family="Helvetica,sans-Serif" font-size="10.00">invariant.h</text>
</a>
</g>
</g>
<!-- Node3&#45;&gt;Node8 -->
<g id="edge30_Node000003_Node000008" class="edge">
<title>Node3&#45;&gt;Node8</title>
<g id="a_edge30_Node000003_Node000008"><a xlink:title=" ">
<path fill="none" stroke="#63b8ff" d="M192.34,-446.72C121.6,-441.09 11.5,-419.61 11.5,-340.5 11.5,-340.5 11.5,-340.5 11.5,-228.5 11.5,-143.54 81.65,-139.01 161.5,-110 259.62,-74.35 383.37,-66.82 448.57,-65.5"/>
<polygon fill="#63b8ff" stroke="#63b8ff" points="448.96,-68.99 458.9,-65.33 448.84,-61.99 448.96,-68.99"/>
</a>
</g>
</g>
<!-- Node35 -->
<g id="Node000035" class="node">
<title>Node35</title>
<g id="a_Node000035"><a xlink:href="validate_8h.html" target="_top" xlink:title=" ">
<polygon fill="#fff0f0" stroke="red" points="181,-184 116,-184 116,-165 181,-165 181,-184"/>
<text text-anchor="middle" x="148.5" y="-172" font-family="Helvetica,sans-Serif" font-size="10.00">validate.h</text>
</a>
</g>
</g>
<!-- Node3&#45;&gt;Node35 -->
<g id="edge41_Node000003_Node000035" class="edge">
<title>Node3&#45;&gt;Node35</title>
<g id="a_edge41_Node000003_Node000035"><a xlink:title=" ">
<path fill="none" stroke="#63b8ff" d="M243.29,-439.81C225.13,-417.36 177.57,-354.96 157.5,-294 147.12,-262.48 147.13,-253.19 147.5,-220 147.6,-211.49 147.79,-202.07 147.99,-194.09"/>
<polygon fill="#63b8ff" stroke="#63b8ff" points="151.49,-194.12 148.25,-184.03 144.49,-193.94 151.49,-194.12"/>
</a>
</g>
</g>
<!-- Node40 -->
<g id="Node000040" class="node">
<title>Node40</title>
<g id="a_Node000040"><a xlink:href="std__types_8h.html" target="_top" xlink:title="Pre&#45;defined types.">
<polygon fill="white" stroke="#666666" points="427,-404 354,-404 354,-385 427,-385 427,-404"/>
<text text-anchor="middle" x="390.5" y="-392" font-family="Helvetica,sans-Serif" font-size="10.00">std_types.h</text>
</a>
</g>
</g>
<!-- Node3&#45;&gt;Node40 -->
<g id="edge31_Node000003_Node000040" class="edge">
<title>Node3&#45;&gt;Node40</title>
<g id="a_edge31_Node000003_Node000040"><a xlink:title=" ">
<path fill="none" stroke="#63b8ff" d="M272.99,-439.98C296.02,-431.27 332.04,-417.63 358.13,-407.75"/>
<polygon fill="#63b8ff" stroke="#63b8ff" points="359.48,-410.98 367.6,-404.17 357.01,-404.44 359.48,-410.98"/>
</a>
</g>
</g>
<!-- Node5 -->
<g id="Node000005" class="node">
<title>Node5</title>
<g id="a_Node000005"><a xlink:title=" ">
<polygon fill="#e0e0e0" stroke="#999999" points="249,-294 192,-294 192,-275 249,-275 249,-294"/>
<text text-anchor="middle" x="220.5" y="-282" font-family="Helvetica,sans-Serif" font-size="10.00">typeinfo</text>
</a>
</g>
</g>
<!-- Node4&#45;&gt;Node5 -->
<g id="edge4_Node000004_Node000005" class="edge">
<title>Node4&#45;&gt;Node5</title>
<g id="a_edge4_Node000004_Node000005"><a xlink:title=" ">
<path fill="none" stroke="#63b8ff" d="M245.55,-329.75C241.44,-322.49 235.47,-311.95 230.4,-302.98"/>
<polygon fill="#63b8ff" stroke="#63b8ff" points="233.33,-301.07 225.36,-294.09 227.24,-304.52 233.33,-301.07"/>
</a>
</g>
</g>
<!-- Node6 -->
<g id="Node000006" class="node">
<title>Node6</title>
<g id="a_Node000006"><a xlink:title=" ">
<polygon fill="#e0e0e0" stroke="#999999" points="69,-19 0,-19 0,0 69,0 69,-19"/>
<text text-anchor="middle" x="34.5" y="-7" font-family="Helvetica,sans-Serif" font-size="10.00">type_traits</text>
</a>
</g>
</g>
<!-- Node4&#45;&gt;Node6 -->
<g id="edge5_Node000004_Node000006" class="edge">
<title>Node4&#45;&gt;Node6</title>
<g id="a_edge5_Node000004_Node000006"><a xlink:title=" ">
<path fill="none" stroke="#63b8ff" d="M233.55,-329.85C218.95,-321.85 197.85,-308.97 182.5,-294 100.26,-213.8 54.29,-78.08 39.67,-28.95"/>
<polygon fill="#63b8ff" stroke="#63b8ff" points="42.97,-27.74 36.82,-19.11 36.24,-29.69 42.97,-27.74"/>
</a>
</g>
</g>
<!-- Node7 -->
<g id="Node000007" class="node">
<title>Node7</title>
<g id="a_Node000007"><a xlink:title=" ">
<polygon fill="#e0e0e0" stroke="#999999" points="341,-239 276,-239 276,-220 341,-220 341,-239"/>
<text text-anchor="middle" x="308.5" y="-227" font-family="Helvetica,sans-Serif" font-size="10.00">functional</text>
</a>
</g>
</g>
<!-- Node4&#45;&gt;Node7 -->
<g id="edge6_Node000004_Node000007" class="edge">
<title>Node4&#45;&gt;Node7</title>
<g id="a_edge6_Node000004_Node000007"><a xlink:title=" ">
<path fill="none" stroke="#63b8ff" d="M261.13,-329.69C270.45,-321.4 283.7,-308.17 291.5,-294 299.16,-280.08 303.52,-262.52 305.9,-249.4"/>
<polygon fill="#63b8ff" stroke="#63b8ff" points="309.4,-249.63 307.51,-239.21 302.49,-248.54 309.4,-249.63"/>
</a>
</g>
</g>
<!-- Node4&#45;&gt;Node8 -->
<g id="edge7_Node000004_Node000008" class="edge">
<title>Node4&#45;&gt;Node8</title>
<g id="a_edge7_Node000004_Node000008"><a xlink:title=" ">
<path fill="none" stroke="#63b8ff" d="M253.92,-329.66C258.23,-317.2 264.41,-293.87 258.5,-275 252.68,-256.41 239.32,-257.59 233.5,-239 216.37,-184.29 196.54,-153.83 233.5,-110 260.47,-78.02 381.4,-69.02 448.42,-66.49"/>
<polygon fill="#63b8ff" stroke="#63b8ff" points="448.82,-69.98 458.69,-66.14 448.58,-62.98 448.82,-69.98"/>
</a>
</g>
</g>
<!-- Node12 -->
<g id="Node000012" class="node">
<title>Node12</title>
<g id="a_Node000012"><a xlink:href="expr_8h.html" target="_top" xlink:title=" ">
<polygon fill="white" stroke="#666666" points="489,-294 442,-294 442,-275 489,-275 489,-294"/>
<text text-anchor="middle" x="465.5" y="-282" font-family="Helvetica,sans-Serif" font-size="10.00">expr.h</text>
</a>
</g>
</g>
<!-- Node4&#45;&gt;Node12 -->
<g id="edge12_Node000004_Node000012" class="edge">
<title>Node4&#45;&gt;Node12</title>
<g id="a_edge12_Node000004_Node000012"><a xlink:title=" ">
<path fill="none" stroke="#63b8ff" d="M285.04,-329.98C325.45,-320.02 391.88,-303.65 431.88,-293.79"/>
<polygon fill="#63b8ff" stroke="#63b8ff" points="432.82,-297.16 441.69,-291.37 431.15,-290.36 432.82,-297.16"/>
</a>
</g>
</g>
<!-- Node8&#45;&gt;Node6 -->
<g id="edge11_Node000008_Node000006" class="edge">
<title>Node8&#45;&gt;Node6</title>
<g id="a_edge11_Node000008_Node000006"><a xlink:title=" ">
<path fill="none" stroke="#63b8ff" d="M458.62,-59.47C376.33,-49.97 170.16,-26.16 79.02,-15.64"/>
<polygon fill="#63b8ff" stroke="#63b8ff" points="79.35,-12.16 69.01,-14.48 78.54,-19.11 79.35,-12.16"/>
</a>
</g>
</g>
<!-- Node9 -->
<g id="Node000009" class="node">
<title>Node9</title>
<g id="a_Node000009"><a xlink:title=" ">
<polygon fill="#e0e0e0" stroke="#999999" points="483,-19 434,-19 434,0 483,0 483,-19"/>
<text text-anchor="middle" x="458.5" y="-7" font-family="Helvetica,sans-Serif" font-size="10.00">cstdlib</text>
</a>
</g>
</g>
<!-- Node8&#45;&gt;Node9 -->
<g id="edge8_Node000008_Node000009" class="edge">
<title>Node8&#45;&gt;Node9</title>
<g id="a_edge8_Node000008_Node000009"><a xlink:title=" ">
<path fill="none" stroke="#63b8ff" d="M487.72,-54.75C482.88,-47.42 475.82,-36.73 469.86,-27.7"/>
<polygon fill="#63b8ff" stroke="#63b8ff" points="472.6,-25.5 464.17,-19.09 466.76,-29.36 472.6,-25.5"/>
</a>
</g>
</g>
<!-- Node10 -->
<g id="Node000010" class="node">
<title>Node10</title>
<g id="a_Node000010"><a xlink:title=" ">
<polygon fill="#e0e0e0" stroke="#999999" points="557.5,-19 501.5,-19 501.5,0 557.5,0 557.5,-19"/>
<text text-anchor="middle" x="529.5" y="-7" font-family="Helvetica,sans-Serif" font-size="10.00">sstream</text>
</a>
</g>
</g>
<!-- Node8&#45;&gt;Node10 -->
<g id="edge9_Node000008_Node000010" class="edge">
<title>Node8&#45;&gt;Node10</title>
<g id="a_edge9_Node000008_Node000010"><a xlink:title=" ">
<path fill="none" stroke="#63b8ff" d="M499.44,-54.75C504.48,-47.34 511.84,-36.5 518.01,-27.41"/>
<polygon fill="#63b8ff" stroke="#63b8ff" points="520.94,-29.33 523.67,-19.09 515.15,-25.39 520.94,-29.33"/>
</a>
</g>
</g>
<!-- Node11 -->
<g id="Node000011" class="node">
<title>Node11</title>
<g id="a_Node000011"><a xlink:title=" ">
<polygon fill="#e0e0e0" stroke="#999999" points="893.5,-19 849.5,-19 849.5,0 893.5,0 893.5,-19"/>
<text text-anchor="middle" x="871.5" y="-7" font-family="Helvetica,sans-Serif" font-size="10.00">string</text>
</a>
</g>
</g>
<!-- Node8&#45;&gt;Node11 -->
<g id="edge10_Node000008_Node000011" class="edge">
<title>Node8&#45;&gt;Node11</title>
<g id="a_edge10_Node000008_Node000011"><a xlink:title=" ">
<path fill="none" stroke="#63b8ff" d="M528.05,-58.66C600.68,-48.47 768.34,-24.96 839.08,-15.05"/>
<polygon fill="#63b8ff" stroke="#63b8ff" points="839.76,-18.48 849.18,-13.63 838.79,-11.55 839.76,-18.48"/>
</a>
</g>
</g>
<!-- Node12&#45;&gt;Node7 -->
<g id="edge29_Node000012_Node000007" class="edge">
<title>Node12&#45;&gt;Node7</title>
<g id="a_edge29_Node000012_Node000007"><a xlink:title=" ">
<path fill="none" stroke="#63b8ff" d="M442,-275.57C415.86,-266.74 373.4,-252.41 343.39,-242.28"/>
<polygon fill="#63b8ff" stroke="#63b8ff" points="344.32,-238.9 333.73,-239.02 342.08,-245.53 344.32,-238.9"/>
</a>
</g>
</g>
<!-- Node13 -->
<g id="Node000013" class="node">
<title>Node13</title>
<g id="a_Node000013"><a xlink:href="as__const_8h.html" target="_top" xlink:title=" ">
<polygon fill="white" stroke="#666666" points="613.5,-239 545.5,-239 545.5,-220 613.5,-220 613.5,-239"/>
<text text-anchor="middle" x="579.5" y="-227" font-family="Helvetica,sans-Serif" font-size="10.00">as_const.h</text>
</a>
</g>
</g>
<!-- Node12&#45;&gt;Node13 -->
<g id="edge13_Node000012_Node000013" class="edge">
<title>Node12&#45;&gt;Node13</title>
<g id="a_edge13_Node000012_Node000013"><a xlink:title=" ">
<path fill="none" stroke="#63b8ff" d="M483.82,-274.98C502.16,-266.46 530.61,-253.23 551.73,-243.41"/>
<polygon fill="#63b8ff" stroke="#63b8ff" points="553.26,-246.56 560.85,-239.17 550.31,-240.21 553.26,-246.56"/>
</a>
</g>
</g>
<!-- Node14 -->
<g id="Node000014" class="node">
<title>Node14</title>
<g id="a_Node000014"><a xlink:href="type_8h.html" target="_top" xlink:title="Defines typet, type_with_subtypet and type_with_subtypest.">
<polygon fill="white" stroke="#666666" points="679,-239 632,-239 632,-220 679,-220 679,-239"/>
<text text-anchor="middle" x="655.5" y="-227" font-family="Helvetica,sans-Serif" font-size="10.00">type.h</text>
</a>
</g>
</g>
<!-- Node12&#45;&gt;Node14 -->
<g id="edge14_Node000012_Node000014" class="edge">
<title>Node12&#45;&gt;Node14</title>
<g id="a_edge14_Node000012_Node000014"><a xlink:title=" ">
<path fill="none" stroke="#63b8ff" d="M489.18,-276.89C522.55,-267.59 583.59,-250.56 621.72,-239.92"/>
<polygon fill="#63b8ff" stroke="#63b8ff" points="623.13,-243.16 631.82,-237.11 621.25,-236.42 623.13,-243.16"/>
</a>
</g>
</g>
<!-- Node37 -->
<g id="Node000037" class="node">
<title>Node37</title>
<g id="a_Node000037"><a xlink:href="validation__mode_8h.html" target="_top" xlink:title=" ">
<polygon fill="white" stroke="#666666" points="423,-129 316,-129 316,-110 423,-110 423,-129"/>
<text text-anchor="middle" x="369.5" y="-117" font-family="Helvetica,sans-Serif" font-size="10.00">validation_mode.h</text>
</a>
</g>
</g>
<!-- Node12&#45;&gt;Node37 -->
<g id="edge28_Node000012_Node000037" class="edge">
<title>Node12&#45;&gt;Node37</title>
<g id="a_edge28_Node000012_Node000037"><a xlink:title=" ">
<path fill="none" stroke="#63b8ff" d="M441.77,-275.81C424.49,-268.94 402.01,-257.12 389.5,-239 368.73,-208.91 367.02,-164.48 368.01,-139.45"/>
<polygon fill="#63b8ff" stroke="#63b8ff" points="371.53,-139.34 368.62,-129.15 364.54,-138.93 371.53,-139.34"/>
</a>
</g>
</g>
<!-- Node38 -->
<g id="Node000038" class="node">
<title>Node38</title>
<g id="a_Node000038"><a xlink:href="validate__types_8h.html" target="_top" xlink:title=" ">
<polygon fill="white" stroke="#666666" points="708.5,-184 610.5,-184 610.5,-165 708.5,-165 708.5,-184"/>
<text text-anchor="middle" x="659.5" y="-172" font-family="Helvetica,sans-Serif" font-size="10.00">validate_types.h</text>
</a>
</g>
</g>
<!-- Node12&#45;&gt;Node38 -->
<g id="edge27_Node000012_Node000038" class="edge">
<title>Node12&#45;&gt;Node38</title>
<g id="a_edge27_Node000012_Node000038"><a xlink:title=" ">
<path fill="none" stroke="#63b8ff" d="M489.25,-282.43C541.44,-279.52 663.46,-269.53 688.5,-239 700.08,-224.88 687.98,-205.37 676.06,-191.72"/>
<polygon fill="#63b8ff" stroke="#63b8ff" points="678.27,-188.97 668.87,-184.07 673.17,-193.76 678.27,-188.97"/>
</a>
</g>
</g>
<!-- Node39 -->
<g id="Node000039" class="node">
<title>Node39</title>
<g id="a_Node000039"><a xlink:href="validate__expressions_8h.html" target="_top" xlink:title=" ">
<polygon fill="white" stroke="#666666" points="527,-239 398,-239 398,-220 527,-220 527,-239"/>
<text text-anchor="middle" x="462.5" y="-227" font-family="Helvetica,sans-Serif" font-size="10.00">validate_expressions.h</text>
</a>
</g>
</g>
<!-- Node12&#45;&gt;Node39 -->
<g id="edge26_Node000012_Node000039" class="edge">
<title>Node12&#45;&gt;Node39</title>
<g id="a_edge26_Node000012_Node000039"><a xlink:title=" ">
<path fill="none" stroke="#63b8ff" d="M465,-274.75C464.61,-267.8 464.05,-257.85 463.55,-249.13"/>
<polygon fill="#63b8ff" stroke="#63b8ff" points="467.05,-248.88 462.99,-239.09 460.06,-249.27 467.05,-248.88"/>
</a>
</g>
</g>
<!-- Node15 -->
<g id="Node000015" class="node">
<title>Node15</title>
<g id="a_Node000015"><a xlink:href="source__location_8h.html" target="_top" xlink:title=" ">
<polygon fill="#fff0f0" stroke="red" points="910.5,-184 808.5,-184 808.5,-165 910.5,-165 910.5,-184"/>
<text text-anchor="middle" x="859.5" y="-172" font-family="Helvetica,sans-Serif" font-size="10.00">source_location.h</text>
</a>
</g>
</g>
<!-- Node14&#45;&gt;Node15 -->
<g id="edge15_Node000014_Node000015" class="edge">
<title>Node14&#45;&gt;Node15</title>
<g id="a_edge15_Node000014_Node000015"><a xlink:title=" ">
<path fill="none" stroke="#63b8ff" d="M679.3,-222.32C712.99,-213.56 775.14,-197.42 816.9,-186.57"/>
<polygon fill="#63b8ff" stroke="#63b8ff" points="817.98,-189.9 826.78,-184 816.22,-183.13 817.98,-189.9"/>
</a>
</g>
</g>
<!-- Node14&#45;&gt;Node35 -->
<g id="edge21_Node000014_Node000035" class="edge">
<title>Node14&#45;&gt;Node35</title>
<g id="a_edge21_Node000014_Node000035"><a xlink:title=" ">
<path fill="none" stroke="#63b8ff" d="M631.8,-221.92C628.69,-221.19 625.53,-220.53 622.5,-220 464.97,-192.5 274.81,-181.15 191.32,-177.24"/>
<polygon fill="#63b8ff" stroke="#63b8ff" points="191.36,-173.74 181.21,-176.78 191.04,-180.74 191.36,-173.74"/>
</a>
</g>
</g>
<!-- Node14&#45;&gt;Node37 -->
<g id="edge25_Node000014_Node000037" class="edge">
<title>Node14&#45;&gt;Node37</title>
<g id="a_edge25_Node000014_Node000037"><a xlink:title=" ">
<path fill="none" stroke="#63b8ff" d="M632.58,-219.84C581.83,-200.68 459.88,-154.63 401.59,-132.62"/>
<polygon fill="#63b8ff" stroke="#63b8ff" points="402.72,-129.31 392.13,-129.05 400.25,-135.85 402.72,-129.31"/>
</a>
</g>
</g>
<!-- Node14&#45;&gt;Node38 -->
<g id="edge24_Node000014_Node000038" class="edge">
<title>Node14&#45;&gt;Node38</title>
<g id="a_edge24_Node000014_Node000038"><a xlink:title=" ">
<path fill="none" stroke="#63b8ff" d="M656.16,-219.75C656.68,-212.8 657.44,-202.85 658.09,-194.13"/>
<polygon fill="#63b8ff" stroke="#63b8ff" points="661.59,-194.32 658.85,-184.09 654.61,-193.8 661.59,-194.32"/>
</a>
</g>
</g>
<!-- Node15&#45;&gt;Node11 -->
<g id="edge20_Node000015_Node000011" class="edge">
<title>Node15&#45;&gt;Node11</title>
<g id="a_edge20_Node000015_Node000011"><a xlink:title=" ">
<path fill="none" stroke="#63b8ff" d="M860.15,-164.74C862.02,-139.31 867.48,-65.08 870.09,-29.69"/>
<polygon fill="#63b8ff" stroke="#63b8ff" points="873.61,-29.54 870.85,-19.31 866.63,-29.02 873.61,-29.54"/>
</a>
</g>
</g>
<!-- Node16 -->
<g id="Node000016" class="node">
<title>Node16</title>
<g id="a_Node000016"><a xlink:href="deprecate_8h.html" target="_top" xlink:title=" ">
<polygon fill="white" stroke="#666666" points="1075.5,-129 1001.5,-129 1001.5,-110 1075.5,-110 1075.5,-129"/>
<text text-anchor="middle" x="1038.5" y="-117" font-family="Helvetica,sans-Serif" font-size="10.00">deprecate.h</text>
</a>
</g>
</g>
<!-- Node15&#45;&gt;Node16 -->
<g id="edge16_Node000015_Node000016" class="edge">
<title>Node15&#45;&gt;Node16</title>
<g id="a_edge16_Node000015_Node000016"><a xlink:title=" ">
<path fill="none" stroke="#63b8ff" d="M888.26,-164.98C918.44,-156.05 966.07,-141.94 999.6,-132.02"/>
<polygon fill="#63b8ff" stroke="#63b8ff" points="1000.92,-135.28 1009.52,-129.08 998.93,-128.57 1000.92,-135.28"/>
</a>
</g>
</g>
<!-- Node17 -->
<g id="Node000017" class="node">
<title>Node17</title>
<g id="a_Node000017"><a xlink:href="irep_8h.html" target="_top" xlink:title=" ">
<polygon fill="#fff0f0" stroke="red" points="949.5,-129 905.5,-129 905.5,-110 949.5,-110 949.5,-129"/>
<text text-anchor="middle" x="927.5" y="-117" font-family="Helvetica,sans-Serif" font-size="10.00">irep.h</text>
</a>
</g>
</g>
<!-- Node15&#45;&gt;Node17 -->
<g id="edge17_Node000015_Node000017" class="edge">
<title>Node15&#45;&gt;Node17</title>
<g id="a_edge17_Node000015_Node000017"><a xlink:title=" ">
<path fill="none" stroke="#63b8ff" d="M870.43,-164.98C880.58,-157.07 895.92,-145.11 908.15,-135.58"/>
<polygon fill="#63b8ff" stroke="#63b8ff" points="910.64,-138.08 916.38,-129.17 906.34,-132.56 910.64,-138.08"/>
</a>
</g>
</g>
<!-- Node17&#45;&gt;Node8 -->
<g id="edge19_Node000017_Node000008" class="edge">
<title>Node17&#45;&gt;Node8</title>
<g id="a_edge19_Node000017_Node000008"><a xlink:title=" ">
<path fill="none" stroke="#63b8ff" d="M905.12,-112.77C900.63,-111.75 895.93,-110.77 891.5,-110 764.34,-87.96 612.34,-74.49 538.37,-68.74"/>
<polygon fill="#63b8ff" stroke="#63b8ff" points="538.27,-65.23 528.04,-67.95 537.74,-72.21 538.27,-65.23"/>
</a>
</g>
</g>
<!-- Node17&#45;&gt;Node11 -->
<g id="edge18_Node000017_Node000011" class="edge">
<title>Node17&#45;&gt;Node11</title>
<g id="a_edge18_Node000017_Node000011"><a xlink:title=" ">
<path fill="none" stroke="#63b8ff" d="M922.92,-109.66C913.72,-91.93 892.88,-51.73 880.74,-28.32"/>
<polygon fill="#63b8ff" stroke="#63b8ff" points="883.7,-26.42 875.99,-19.16 877.49,-29.65 883.7,-26.42"/>
</a>
</g>
</g>
<!-- Node35&#45;&gt;Node6 -->
<g id="edge22_Node000035_Node000006" class="edge">
<title>Node35&#45;&gt;Node6</title>
<g id="a_edge22_Node000035_Node000006"><a xlink:title=" ">
<path fill="none" stroke="#63b8ff" d="M142.37,-164.74C124.28,-138.87 70.85,-62.48 46.66,-27.88"/>
<polygon fill="#63b8ff" stroke="#63b8ff" points="49.26,-25.5 40.66,-19.31 43.52,-29.51 49.26,-25.5"/>
</a>
</g>
</g>
<!-- Node35&#45;&gt;Node37 -->
<g id="edge23_Node000035_Node000037" class="edge">
<title>Node35&#45;&gt;Node37</title>
<g id="a_edge23_Node000035_Node000037"><a xlink:title=" ">
<path fill="none" stroke="#63b8ff" d="M181.11,-165.68C218.9,-156.62 281.43,-141.62 323.99,-131.41"/>
<polygon fill="#63b8ff" stroke="#63b8ff" points="324.92,-134.79 333.82,-129.06 323.28,-127.98 324.92,-134.79"/>
</a>
</g>
</g>
<!-- Node40&#45;&gt;Node4 -->
<g id="edge33_Node000040_Node000004" class="edge">
<title>Node40&#45;&gt;Node4</title>
<g id="a_edge33_Node000040_Node000004"><a xlink:title=" ">
<path fill="none" stroke="#63b8ff" d="M368.01,-384.98C344.98,-376.27 308.96,-362.63 282.87,-352.75"/>
<polygon fill="#63b8ff" stroke="#63b8ff" points="283.99,-349.44 273.4,-349.17 281.52,-355.98 283.99,-349.44"/>
</a>
</g>
</g>
<!-- Node40&#45;&gt;Node8 -->
<g id="edge34_Node000040_Node000008" class="edge">
<title>Node40&#45;&gt;Node8</title>
<g id="a_edge34_Node000040_Node000008"><a xlink:title=" ">
<path fill="none" stroke="#63b8ff" d="M377,-384.97C342.42,-361.93 254.27,-295.09 267.5,-220 276.53,-168.77 268.68,-144.63 307.5,-110 328.1,-91.62 400.43,-78.34 448.58,-71.29"/>
<polygon fill="#63b8ff" stroke="#63b8ff" points="449.36,-74.72 458.76,-69.84 448.37,-67.79 449.36,-74.72"/>
</a>
</g>
</g>
<!-- Node40&#45;&gt;Node12 -->
<g id="edge32_Node000040_Node000012" class="edge">
<title>Node40&#45;&gt;Node12</title>
<g id="a_edge32_Node000040_Node000012"><a xlink:title=" ">
<path fill="none" stroke="#63b8ff" d="M405.98,-384.86C418.63,-377.05 436.06,-364.43 446.5,-349 455.67,-335.45 460.52,-317.36 463.01,-303.96"/>
<polygon fill="#63b8ff" stroke="#63b8ff" points="466.48,-304.43 464.6,-294 459.57,-303.33 466.48,-304.43"/>
</a>
</g>
</g>
<!-- Node40&#45;&gt;Node35 -->
<g id="edge39_Node000040_Node000035" class="edge">
<title>Node40&#45;&gt;Node35</title>
<g id="a_edge39_Node000040_Node000035"><a xlink:title=" ">
<path fill="none" stroke="#63b8ff" d="M353.9,-394.25C312.83,-393.14 246.46,-385.25 204.5,-349 158.04,-308.85 149.83,-229.91 148.59,-194.03"/>
<polygon fill="#63b8ff" stroke="#63b8ff" points="152.09,-193.93 148.39,-184 145.09,-194.07 152.09,-193.93"/>
</a>
</g>
</g>
<!-- Node41 -->
<g id="Node000041" class="node">
<title>Node41</title>
<g id="a_Node000041"><a xlink:href="mp__arith_8h.html" target="_top" xlink:title=" ">
<polygon fill="white" stroke="#666666" points="958,-349 889,-349 889,-330 958,-330 958,-349"/>
<text text-anchor="middle" x="923.5" y="-337" font-family="Helvetica,sans-Serif" font-size="10.00">mp_arith.h</text>
</a>
</g>
</g>
<!-- Node40&#45;&gt;Node41 -->
<g id="edge35_Node000040_Node000041" class="edge">
<title>Node40&#45;&gt;Node41</title>
<g id="a_edge35_Node000040_Node000041"><a xlink:title=" ">
<path fill="none" stroke="#63b8ff" d="M427.02,-390.95C507.37,-385.15 705.48,-369.86 870.5,-349 873.18,-348.66 875.94,-348.29 878.71,-347.9"/>
<polygon fill="#63b8ff" stroke="#63b8ff" points="879.39,-351.34 888.77,-346.41 878.36,-344.41 879.39,-351.34"/>
</a>
</g>
</g>
<!-- Node26 -->
<g id="Node000026" class="node">
<title>Node26</title>
<g id="a_Node000026"><a xlink:title=" ">
<polygon fill="#e0e0e0" stroke="#999999" points="437,-349 344,-349 344,-330 437,-330 437,-349"/>
<text text-anchor="middle" x="390.5" y="-337" font-family="Helvetica,sans-Serif" font-size="10.00">unordered_map</text>
</a>
</g>
</g>
<!-- Node40&#45;&gt;Node26 -->
<g id="edge40_Node000040_Node000026" class="edge">
<title>Node40&#45;&gt;Node26</title>
<g id="a_edge40_Node000040_Node000026"><a xlink:title=" ">
<path fill="none" stroke="#63b8ff" d="M390.5,-384.75C390.5,-377.8 390.5,-367.85 390.5,-359.13"/>
<polygon fill="#63b8ff" stroke="#63b8ff" points="394,-359.09 390.5,-349.09 387,-359.09 394,-359.09"/>
</a>
</g>
</g>
<!-- Node41&#45;&gt;Node11 -->
<g id="edge37_Node000041_Node000011" class="edge">
<title>Node41&#45;&gt;Node11</title>
<g id="a_edge37_Node000041_Node000011"><a xlink:title=" ">
<path fill="none" stroke="#63b8ff" d="M949.92,-329.87C1002.13,-310.98 1113.5,-260.68 1113.5,-175.5 1113.5,-175.5 1113.5,-175.5 1113.5,-118.5 1113.5,-27.85 970.15,-12.76 904.11,-10.62"/>
<polygon fill="#63b8ff" stroke="#63b8ff" points="903.91,-7.12 893.83,-10.37 903.75,-14.11 903.91,-7.12"/>
</a>
</g>
</g>
<!-- Node21 -->
<g id="Node000021" class="node">
<title>Node21</title>
<g id="a_Node000021"><a xlink:title=" ">
<polygon fill="#e0e0e0" stroke="#999999" points="859.5,-294 811.5,-294 811.5,-275 859.5,-275 859.5,-294"/>
<text text-anchor="middle" x="835.5" y="-282" font-family="Helvetica,sans-Serif" font-size="10.00">iosfwd</text>
</a>
</g>
</g>
<!-- Node41&#45;&gt;Node21 -->
<g id="edge36_Node000041_Node000021" class="edge">
<title>Node41&#45;&gt;Node21</title>
<g id="a_edge36_Node000041_Node000021"><a xlink:title=" ">
<path fill="none" stroke="#63b8ff" d="M909.36,-329.98C895.71,-321.77 874.81,-309.18 858.72,-299.49"/>
<polygon fill="#63b8ff" stroke="#63b8ff" points="860.27,-296.33 849.9,-294.17 856.66,-302.33 860.27,-296.33"/>
</a>
</g>
</g>
<!-- Node42 -->
<g id="Node000042" class="node">
<title>Node42</title>
<g id="a_Node000042"><a xlink:title=" ">
<polygon fill="#e0e0e0" stroke="#999999" points="971.5,-294 877.5,-294 877.5,-275 971.5,-275 971.5,-294"/>
<text text-anchor="middle" x="924.5" y="-282" font-family="Helvetica,sans-Serif" font-size="10.00">big&#45;int/bigint.hh</text>
</a>
</g>
</g>
<!-- Node41&#45;&gt;Node42 -->
<g id="edge38_Node000041_Node000042" class="edge">
<title>Node41&#45;&gt;Node42</title>
<g id="a_edge38_Node000041_Node000042"><a xlink:title=" ">
<path fill="none" stroke="#63b8ff" d="M923.67,-329.75C923.8,-322.8 923.98,-312.85 924.15,-304.13"/>
<polygon fill="#63b8ff" stroke="#63b8ff" points="927.65,-304.15 924.34,-294.09 920.65,-304.02 927.65,-304.15"/>
</a>
</g>
</g>
<!-- Node43&#45;&gt;Node4 -->
<g id="edge43_Node000043_Node000004" class="edge">
<title>Node43&#45;&gt;Node4</title>
<g id="a_edge43_Node000043_Node000004"><a xlink:title=" ">
<path fill="none" stroke="#63b8ff" d="M379.96,-439.66C355.78,-421.14 299.56,-378.08 269.79,-355.28"/>
<polygon fill="#63b8ff" stroke="#63b8ff" points="271.87,-352.46 261.8,-349.16 267.61,-358.02 271.87,-352.46"/>
</a>
</g>
</g>
<!-- Node43&#45;&gt;Node8 -->
<g id="edge44_Node000043_Node000008" class="edge">
<title>Node43&#45;&gt;Node8</title>
<g id="a_edge44_Node000043_Node000008"><a xlink:title=" ">
<path fill="none" stroke="#63b8ff" d="M350.59,-439.95C259.81,-420.4 49.5,-371.75 49.5,-340.5 49.5,-340.5 49.5,-340.5 49.5,-228.5 49.5,-190.58 76.34,-188 106.5,-165 210.42,-85.76 370.97,-69.26 448.52,-66.07"/>
<polygon fill="#63b8ff" stroke="#63b8ff" points="449.03,-69.56 458.9,-65.71 448.78,-62.56 449.03,-69.56"/>
</a>
</g>
</g>
<!-- Node43&#45;&gt;Node40 -->
<g id="edge45_Node000043_Node000040" class="edge">
<title>Node43&#45;&gt;Node40</title>
<g id="a_edge45_Node000043_Node000040"><a xlink:title=" ">
<path fill="none" stroke="#63b8ff" d="M391.33,-439.75C391.2,-432.8 391.02,-422.85 390.85,-414.13"/>
<polygon fill="#63b8ff" stroke="#63b8ff" points="394.35,-414.02 390.66,-404.09 387.35,-414.15 394.35,-414.02"/>
</a>
</g>
</g>
<!-- Node44&#45;&gt;Node8 -->
<g id="edge47_Node000044_Node000008" class="edge">
<title>Node44&#45;&gt;Node8</title>
<g id="a_edge47_Node000044_Node000008"><a xlink:title=" ">
<path fill="none" stroke="#63b8ff" d="M671.2,-494.87C696.48,-478.79 745.5,-441.66 745.5,-395.5 745.5,-395.5 745.5,-395.5 745.5,-283.5 745.5,-229.38 752.05,-206.65 717.5,-165 671.75,-109.84 589.27,-84.2 538.17,-73.1"/>
<polygon fill="#63b8ff" stroke="#63b8ff" points="538.58,-69.61 528.08,-71.01 537.16,-76.47 538.58,-69.61"/>
</a>
</g>
</g>
<!-- Node44&#45;&gt;Node41 -->
<g id="edge48_Node000044_Node000041" class="edge">
<title>Node44&#45;&gt;Node41</title>
<g id="a_edge48_Node000044_Node000041"><a xlink:title=" ">
<path fill="none" stroke="#63b8ff" d="M680.1,-494.99C701.44,-486.91 733.42,-473.82 759.5,-459 815.93,-426.93 876.33,-379.43 905.58,-355.47"/>
<polygon fill="#63b8ff" stroke="#63b8ff" points="907.81,-358.17 913.29,-349.1 903.35,-352.77 907.81,-358.17"/>
</a>
</g>
</g>
<!-- Node44&#45;&gt;Node43 -->
<g id="edge49_Node000044_Node000043" class="edge">
<title>Node44&#45;&gt;Node43</title>
<g id="a_edge49_Node000044_Node000043"><a xlink:title=" ">
<path fill="none" stroke="#63b8ff" d="M613.92,-494.98C567.8,-485.76 494.14,-471.03 444.34,-461.07"/>
<polygon fill="#63b8ff" stroke="#63b8ff" points="444.9,-457.61 434.41,-459.08 443.53,-464.48 444.9,-457.61"/>
</a>
</g>
</g>
<!-- Node45 -->
<g id="Node000045" class="node">
<title>Node45</title>
<g id="a_Node000045"><a xlink:title=" ">
<polygon fill="#e0e0e0" stroke="#999999" points="678.5,-459 634.5,-459 634.5,-440 678.5,-440 678.5,-459"/>
<text text-anchor="middle" x="656.5" y="-447" font-family="Helvetica,sans-Serif" font-size="10.00">limits</text>
</a>
</g>
</g>
<!-- Node44&#45;&gt;Node45 -->
<g id="edge50_Node000044_Node000045" class="edge">
<title>Node44&#45;&gt;Node45</title>
<g id="a_edge50_Node000044_Node000045"><a xlink:title=" ">
<path fill="none" stroke="#63b8ff" d="M656.5,-494.75C656.5,-487.8 656.5,-477.85 656.5,-469.13"/>
<polygon fill="#63b8ff" stroke="#63b8ff" points="660,-469.09 656.5,-459.09 653,-469.09 660,-469.09"/>
</a>
</g>
</g>
<!-- Node46&#45;&gt;Node16 -->
<g id="edge52_Node000046_Node000016" class="edge">
<title>Node46&#45;&gt;Node16</title>
<g id="a_edge52_Node000046_Node000016"><a xlink:title=" ">
<path fill="none" stroke="#63b8ff" d="M817.29,-549.75C855.24,-511.16 1004.7,-350.76 1039.5,-184 1042.57,-169.29 1042.09,-152.25 1040.97,-139.52"/>
<polygon fill="#63b8ff" stroke="#63b8ff" points="1044.41,-138.8 1039.84,-129.24 1037.45,-139.56 1044.41,-138.8"/>
</a>
</g>
</g>
<!-- Node47 -->
<g id="Node000047" class="node">
<title>Node47</title>
<g id="a_Node000047"><a xlink:href="pointer__expr_8h.html" target="_top" xlink:title="API to expression classes for Pointers.">
<polygon fill="white" stroke="#666666" points="552.5,-514 466.5,-514 466.5,-495 552.5,-495 552.5,-514"/>
<text text-anchor="middle" x="509.5" y="-502" font-family="Helvetica,sans-Serif" font-size="10.00">pointer_expr.h</text>
</a>
</g>
</g>
<!-- Node46&#45;&gt;Node47 -->
<g id="edge53_Node000046_Node000047" class="edge">
<title>Node46&#45;&gt;Node47</title>
<g id="a_edge53_Node000046_Node000047"><a xlink:title=" ">
<path fill="none" stroke="#63b8ff" d="M767.24,-551.19C714.04,-541.76 621.44,-525.34 562.91,-514.97"/>
<polygon fill="#63b8ff" stroke="#63b8ff" points="563.21,-511.47 552.76,-513.17 561.99,-518.36 563.21,-511.47"/>
</a>
</g>
</g>
<!-- Node47&#45;&gt;Node43 -->
<g id="edge56_Node000047_Node000043" class="edge">
<title>Node47&#45;&gt;Node43</title>
<g id="a_edge56_Node000047_Node000043"><a xlink:title=" ">
<path fill="none" stroke="#63b8ff" d="M490.54,-494.98C471.47,-486.42 441.84,-473.11 419.95,-463.28"/>
<polygon fill="#63b8ff" stroke="#63b8ff" points="421.36,-460.07 410.8,-459.17 418.49,-466.46 421.36,-460.07"/>
</a>
</g>
</g>
<!-- Node48 -->
<g id="Node000048" class="node">
<title>Node48</title>
<g id="a_Node000048"><a xlink:href="bitvector__types_8h.html" target="_top" xlink:title="Pre&#45;defined bitvector types.">
<polygon fill="white" stroke="#666666" points="558,-459 457,-459 457,-440 558,-440 558,-459"/>
<text text-anchor="middle" x="507.5" y="-447" font-family="Helvetica,sans-Serif" font-size="10.00">bitvector_types.h</text>
</a>
</g>
</g>
<!-- Node47&#45;&gt;Node48 -->
<g id="edge54_Node000047_Node000048" class="edge">
<title>Node47&#45;&gt;Node48</title>
<g id="a_edge54_Node000047_Node000048"><a xlink:title=" ">
<path fill="none" stroke="#63b8ff" d="M509.17,-494.75C508.91,-487.8 508.53,-477.85 508.2,-469.13"/>
<polygon fill="#63b8ff" stroke="#63b8ff" points="511.7,-468.95 507.82,-459.09 504.7,-469.21 511.7,-468.95"/>
</a>
</g>
</g>
<!-- Node48&#45;&gt;Node40 -->
<g id="edge55_Node000048_Node000040" class="edge">
<title>Node48&#45;&gt;Node40</title>
<g id="a_edge55_Node000048_Node000040"><a xlink:title=" ">
<path fill="none" stroke="#63b8ff" d="M488.7,-439.98C469.88,-431.46 440.68,-418.23 419,-408.41"/>
<polygon fill="#63b8ff" stroke="#63b8ff" points="420.19,-405.11 409.64,-404.17 417.3,-411.48 420.19,-405.11"/>
</a>
</g>
</g>
<!-- Node50&#45;&gt;Node8 -->
<g id="edge59_Node000050_Node000008" class="edge">
<title>Node50&#45;&gt;Node8</title>
<g id="a_edge59_Node000050_Node000008"><a xlink:title=" ">
<path fill="none" stroke="#63b8ff" d="M958.79,-164.98C924.97,-151.4 855.54,-124.85 794.5,-110 704.92,-88.2 597.59,-75.44 538.34,-69.53"/>
<polygon fill="#63b8ff" stroke="#63b8ff" points="538.5,-66.03 528.2,-68.54 537.82,-72.99 538.5,-66.03"/>
</a>
</g>
</g>
<!-- Node50&#45;&gt;Node17 -->
<g id="edge60_Node000050_Node000017" class="edge">
<title>Node50&#45;&gt;Node17</title>
<g id="a_edge60_Node000050_Node000017"><a xlink:title=" ">
<path fill="none" stroke="#63b8ff" d="M970.91,-164.75C963.34,-157.03 952.12,-145.6 942.99,-136.28"/>
<polygon fill="#63b8ff" stroke="#63b8ff" points="945.43,-133.78 935.93,-129.09 940.43,-138.68 945.43,-133.78"/>
</a>
</g>
</g>
<!-- Node51&#45;&gt;Node43 -->
<g id="edge63_Node000051_Node000043" class="edge">
<title>Node51&#45;&gt;Node43</title>
<g id="a_edge63_Node000051_Node000043"><a xlink:title=" ">
<path fill="none" stroke="#63b8ff" d="M498.99,-549.81C488.37,-540.97 471.58,-526.78 457.5,-514 440.14,-498.25 420.89,-479.58 407.68,-466.58"/>
<polygon fill="#63b8ff" stroke="#63b8ff" points="409.88,-463.84 400.31,-459.3 404.96,-468.81 409.88,-463.84"/>
</a>
</g>
</g>
<!-- Node52&#45;&gt;Node8 -->
<g id="edge67_Node000052_Node000008" class="edge">
<title>Node52&#45;&gt;Node8</title>
<g id="a_edge67_Node000052_Node000008"><a xlink:title=" ">
<path fill="none" stroke="#63b8ff" d="M817.29,-329.79C813.13,-320.94 806.78,-306.74 802.5,-294 775.64,-214.1 818.37,-167.26 756.5,-110 725.53,-81.34 605.36,-70.93 538.69,-67.32"/>
<polygon fill="#63b8ff" stroke="#63b8ff" points="538.64,-63.81 528.48,-66.79 538.28,-70.8 538.64,-63.81"/>
</a>
</g>
</g>
<!-- Node52&#45;&gt;Node12 -->
<g id="edge66_Node000052_Node000012" class="edge">
<title>Node52&#45;&gt;Node12</title>
<g id="a_edge66_Node000052_Node000012"><a xlink:title=" ">
<path fill="none" stroke="#63b8ff" d="M781.35,-332.52C710.73,-322.01 565.51,-300.39 499.5,-290.56"/>
<polygon fill="#63b8ff" stroke="#63b8ff" points="499.64,-287.04 489.24,-289.03 498.61,-293.97 499.64,-287.04"/>
</a>
</g>
</g>
<!-- Node52&#45;&gt;Node21 -->
<g id="edge65_Node000052_Node000021" class="edge">
<title>Node52&#45;&gt;Node21</title>
<g id="a_edge65_Node000052_Node000021"><a xlink:title=" ">
<path fill="none" stroke="#63b8ff" d="M823.81,-329.75C825.67,-322.72 828.34,-312.62 830.65,-303.84"/>
<polygon fill="#63b8ff" stroke="#63b8ff" points="834.06,-304.65 833.23,-294.09 827.29,-302.86 834.06,-304.65"/>
</a>
</g>
</g>
</g>
</svg>
