<?xml version="1.0" encoding="UTF-8" standalone="no"?>
<!DOCTYPE svg PUBLIC "-//W3C//DTD SVG 1.1//EN"
 "http://www.w3.org/Graphics/SVG/1.1/DTD/svg11.dtd">
<!-- Generated by graphviz version 2.43.0 (0)
 -->
<!-- Title: /home/runner/work/cbmc/cbmc/src/goto&#45;programs/goto_functions.cpp Pages: 1 -->
<svg width="1136pt" height="764pt"
 viewBox="0.00 0.00 1136.00 764.00" xmlns="http://www.w3.org/2000/svg" xmlns:xlink="http://www.w3.org/1999/xlink">
<g id="graph0" class="graph" transform="scale(1 1) rotate(0) translate(4 760)">
<title>/home/runner/work/cbmc/cbmc/src/goto&#45;programs/goto_functions.cpp</title>
<!-- Node1 -->
<g id="Node000001" class="node">
<title>Node1</title>
<g id="a_Node000001"><a xlink:title="Goto Programs with Functions.">
<polygon fill="#999999" stroke="#666666" points="1061,-756 923,-756 923,-715 1061,-715 1061,-756"/>
<text text-anchor="start" x="931" y="-744" font-family="Helvetica,sans-Serif" font-size="10.00">/home/runner/work/cbmc</text>
<text text-anchor="start" x="931" y="-733" font-family="Helvetica,sans-Serif" font-size="10.00">/cbmc/src/goto&#45;programs</text>
<text text-anchor="middle" x="992" y="-722" font-family="Helvetica,sans-Serif" font-size="10.00">/goto_functions.cpp</text>
</a>
</g>
</g>
<!-- Node2 -->
<g id="Node000002" class="node">
<title>Node2</title>
<g id="a_Node000002"><a xlink:href="goto__functions_8h.html" target="_top" xlink:title="Goto Programs with Functions.">
<polygon fill="white" stroke="#666666" points="871,-679 773,-679 773,-660 871,-660 871,-679"/>
<text text-anchor="middle" x="822" y="-667" font-family="Helvetica,sans-Serif" font-size="10.00">goto_functions.h</text>
</a>
</g>
</g>
<!-- Node1&#45;&gt;Node2 -->
<g id="edge1_Node000001_Node000002" class="edge">
<title>Node1&#45;&gt;Node2</title>
<g id="a_edge1_Node000001_Node000002"><a xlink:title=" ">
<path fill="none" stroke="#63b8ff" d="M940.07,-714.95C912.09,-704.42 878.45,-691.75 854.25,-682.64"/>
<polygon fill="#63b8ff" stroke="#63b8ff" points="855.41,-679.34 844.82,-679.09 852.95,-685.89 855.41,-679.34"/>
</a>
</g>
</g>
<!-- Node51 -->
<g id="Node000051" class="node">
<title>Node51</title>
<g id="a_Node000051"><a xlink:href="namespace_8h.html" target="_top" xlink:title=" ">
<polygon fill="white" stroke="#666666" points="1013.5,-184 912.5,-184 912.5,-165 1013.5,-165 1013.5,-184"/>
<text text-anchor="middle" x="963" y="-172" font-family="Helvetica,sans-Serif" font-size="10.00">util/namespace.h</text>
</a>
</g>
</g>
<!-- Node1&#45;&gt;Node51 -->
<g id="edge56_Node000001_Node000051" class="edge">
<title>Node1&#45;&gt;Node51</title>
<g id="a_edge56_Node000001_Node000051"><a xlink:title=" ">
<path fill="none" stroke="#63b8ff" d="M1004.26,-714.69C1017.28,-691.72 1036,-652.28 1036,-615.5 1036,-615.5 1036,-615.5 1036,-448.5 1036,-349.24 990.41,-236.36 971.28,-193.38"/>
<polygon fill="#63b8ff" stroke="#63b8ff" points="974.45,-191.89 967.13,-184.23 968.07,-194.78 974.45,-191.89"/>
</a>
</g>
</g>
<!-- Node52 -->
<g id="Node000052" class="node">
<title>Node52</title>
<g id="a_Node000052"><a xlink:href="symbol_8h.html" target="_top" xlink:title="Symbol table entry.">
<polygon fill="white" stroke="#666666" points="800,-349 720,-349 720,-330 800,-330 800,-349"/>
<text text-anchor="middle" x="760" y="-337" font-family="Helvetica,sans-Serif" font-size="10.00">util/symbol.h</text>
</a>
</g>
</g>
<!-- Node1&#45;&gt;Node52 -->
<g id="edge59_Node000001_Node000052" class="edge">
<title>Node1&#45;&gt;Node52</title>
<g id="a_edge59_Node000001_Node000052"><a xlink:title=" ">
<path fill="none" stroke="#63b8ff" d="M981.62,-714.9C970.37,-691.8 954,-651.93 954,-615.5 954,-615.5 954,-615.5 954,-503.5 954,-422.37 853.31,-373.54 797.01,-352.57"/>
<polygon fill="#63b8ff" stroke="#63b8ff" points="797.98,-349.2 787.38,-349.1 795.6,-355.79 797.98,-349.2"/>
</a>
</g>
</g>
<!-- Node29 -->
<g id="Node000029" class="node">
<title>Node29</title>
<g id="a_Node000029"><a xlink:title=" ">
<polygon fill="#e0e0e0" stroke="#999999" points="1128,-679 1064,-679 1064,-660 1128,-660 1128,-679"/>
<text text-anchor="middle" x="1096" y="-667" font-family="Helvetica,sans-Serif" font-size="10.00">algorithm</text>
</a>
</g>
</g>
<!-- Node1&#45;&gt;Node29 -->
<g id="edge63_Node000001_Node000029" class="edge">
<title>Node1&#45;&gt;Node29</title>
<g id="a_edge63_Node000001_Node000029"><a xlink:title=" ">
<path fill="none" stroke="#63b8ff" d="M1023.77,-714.95C1039.74,-705.12 1058.74,-693.43 1073.24,-684.51"/>
<polygon fill="#63b8ff" stroke="#63b8ff" points="1075.36,-687.31 1082.04,-679.09 1071.69,-681.35 1075.36,-687.31"/>
</a>
</g>
</g>
<!-- Node3 -->
<g id="Node000003" class="node">
<title>Node3</title>
<g id="a_Node000003"><a xlink:href="goto__function_8h.html" target="_top" xlink:title="Goto Function.">
<polygon fill="white" stroke="#666666" points="738,-624 646,-624 646,-605 738,-605 738,-624"/>
<text text-anchor="middle" x="692" y="-612" font-family="Helvetica,sans-Serif" font-size="10.00">goto_function.h</text>
</a>
</g>
</g>
<!-- Node2&#45;&gt;Node3 -->
<g id="edge2_Node000002_Node000003" class="edge">
<title>Node2&#45;&gt;Node3</title>
<g id="a_edge2_Node000002_Node000003"><a xlink:title=" ">
<path fill="none" stroke="#63b8ff" d="M801.11,-659.98C779.92,-651.34 746.87,-637.87 722.7,-628.02"/>
<polygon fill="#63b8ff" stroke="#63b8ff" points="723.85,-624.7 713.27,-624.17 721.21,-631.19 723.85,-624.7"/>
</a>
</g>
</g>
<!-- Node49 -->
<g id="Node000049" class="node">
<title>Node49</title>
<g id="a_Node000049"><a xlink:href="cprover__prefix_8h.html" target="_top" xlink:title=" ">
<polygon fill="white" stroke="#666666" points="926,-624 812,-624 812,-605 926,-605 926,-624"/>
<text text-anchor="middle" x="869" y="-612" font-family="Helvetica,sans-Serif" font-size="10.00">util/cprover_prefix.h</text>
</a>
</g>
</g>
<!-- Node2&#45;&gt;Node49 -->
<g id="edge54_Node000002_Node000049" class="edge">
<title>Node2&#45;&gt;Node49</title>
<g id="a_edge54_Node000002_Node000049"><a xlink:title=" ">
<path fill="none" stroke="#63b8ff" d="M829.76,-659.75C836.47,-652.18 846.34,-641.05 854.51,-631.84"/>
<polygon fill="#63b8ff" stroke="#63b8ff" points="857.37,-633.89 861.38,-624.09 852.13,-629.25 857.37,-633.89"/>
</a>
</g>
</g>
<!-- Node50 -->
<g id="Node000050" class="node">
<title>Node50</title>
<g id="a_Node000050"><a xlink:title=" ">
<polygon fill="#e0e0e0" stroke="#999999" points="794,-624 756,-624 756,-605 794,-605 794,-624"/>
<text text-anchor="middle" x="775" y="-612" font-family="Helvetica,sans-Serif" font-size="10.00">map</text>
</a>
</g>
</g>
<!-- Node2&#45;&gt;Node50 -->
<g id="edge55_Node000002_Node000050" class="edge">
<title>Node2&#45;&gt;Node50</title>
<g id="a_edge55_Node000002_Node000050"><a xlink:title=" ">
<path fill="none" stroke="#63b8ff" d="M814.24,-659.75C807.53,-652.18 797.66,-641.05 789.49,-631.84"/>
<polygon fill="#63b8ff" stroke="#63b8ff" points="791.87,-629.25 782.62,-624.09 786.63,-633.89 791.87,-629.25"/>
</a>
</g>
</g>
<!-- Node4 -->
<g id="Node000004" class="node">
<title>Node4</title>
<g id="a_Node000004"><a xlink:href="std__types_8h.html" target="_top" xlink:title="Pre&#45;defined types.">
<polygon fill="white" stroke="#666666" points="460,-404 368,-404 368,-385 460,-385 460,-404"/>
<text text-anchor="middle" x="414" y="-392" font-family="Helvetica,sans-Serif" font-size="10.00">util/std_types.h</text>
</a>
</g>
</g>
<!-- Node3&#45;&gt;Node4 -->
<g id="edge3_Node000003_Node000004" class="edge">
<title>Node3&#45;&gt;Node4</title>
<g id="a_edge3_Node000003_Node000004"><a xlink:title=" ">
<path fill="none" stroke="#63b8ff" d="M708.04,-604.91C720.85,-597.2 738.22,-584.71 748,-569 765.62,-540.72 780.04,-521.62 760,-495 725.11,-448.66 558.95,-417.22 470.2,-403.42"/>
<polygon fill="#63b8ff" stroke="#63b8ff" points="470.71,-399.96 460.29,-401.91 469.65,-406.88 470.71,-399.96"/>
</a>
</g>
</g>
<!-- Node43 -->
<g id="Node000043" class="node">
<title>Node43</title>
<g id="a_Node000043"><a xlink:href="goto__program_8h.html" target="_top" xlink:title="Concrete Goto Program.">
<polygon fill="white" stroke="#666666" points="739,-569 645,-569 645,-550 739,-550 739,-569"/>
<text text-anchor="middle" x="692" y="-557" font-family="Helvetica,sans-Serif" font-size="10.00">goto_program.h</text>
</a>
</g>
</g>
<!-- Node3&#45;&gt;Node43 -->
<g id="edge36_Node000003_Node000043" class="edge">
<title>Node3&#45;&gt;Node43</title>
<g id="a_edge36_Node000003_Node000043"><a xlink:title=" ">
<path fill="none" stroke="#63b8ff" d="M692,-604.75C692,-597.8 692,-587.85 692,-579.13"/>
<polygon fill="#63b8ff" stroke="#63b8ff" points="695.5,-579.09 692,-569.09 688.5,-579.09 695.5,-579.09"/>
</a>
</g>
</g>
<!-- Node5 -->
<g id="Node000005" class="node">
<title>Node5</title>
<g id="a_Node000005"><a xlink:href="expr_8h.html" target="_top" xlink:title=" ">
<polygon fill="white" stroke="#666666" points="508.5,-294 461.5,-294 461.5,-275 508.5,-275 508.5,-294"/>
<text text-anchor="middle" x="485" y="-282" font-family="Helvetica,sans-Serif" font-size="10.00">expr.h</text>
</a>
</g>
</g>
<!-- Node4&#45;&gt;Node5 -->
<g id="edge4_Node000004_Node000005" class="edge">
<title>Node4&#45;&gt;Node5</title>
<g id="a_edge4_Node000004_Node000005"><a xlink:title=" ">
<path fill="none" stroke="#63b8ff" d="M427.9,-384.93C439.66,-376.99 456.15,-364.14 466,-349 474.83,-335.44 479.69,-317.61 482.28,-304.3"/>
<polygon fill="#63b8ff" stroke="#63b8ff" points="485.74,-304.82 483.96,-294.38 478.84,-303.65 485.74,-304.82"/>
</a>
</g>
</g>
<!-- Node13 -->
<g id="Node000013" class="node">
<title>Node13</title>
<g id="a_Node000013"><a xlink:href="src_2util_2invariant_8h.html" target="_top" xlink:title=" ">
<polygon fill="#fff0f0" stroke="red" points="553.5,-74 484.5,-74 484.5,-55 553.5,-55 553.5,-74"/>
<text text-anchor="middle" x="519" y="-62" font-family="Helvetica,sans-Serif" font-size="10.00">invariant.h</text>
</a>
</g>
</g>
<!-- Node4&#45;&gt;Node13 -->
<g id="edge29_Node000004_Node000013" class="edge">
<title>Node4&#45;&gt;Node13</title>
<g id="a_edge29_Node000004_Node000013"><a xlink:title=" ">
<path fill="none" stroke="#63b8ff" d="M458.63,-384.96C526.28,-369.34 652.64,-329.11 707,-239 751.73,-164.84 619.25,-103 553.57,-77.73"/>
<polygon fill="#63b8ff" stroke="#63b8ff" points="554.6,-74.38 544.01,-74.13 552.14,-80.93 554.6,-74.38"/>
</a>
</g>
</g>
<!-- Node33 -->
<g id="Node000033" class="node">
<title>Node33</title>
<g id="a_Node000033"><a xlink:href="validate_8h.html" target="_top" xlink:title=" ">
<polygon fill="#fff0f0" stroke="red" points="251.5,-184 186.5,-184 186.5,-165 251.5,-165 251.5,-184"/>
<text text-anchor="middle" x="219" y="-172" font-family="Helvetica,sans-Serif" font-size="10.00">validate.h</text>
</a>
</g>
</g>
<!-- Node4&#45;&gt;Node33 -->
<g id="edge34_Node000004_Node000033" class="edge">
<title>Node4&#45;&gt;Node33</title>
<g id="a_edge34_Node000004_Node000033"><a xlink:title=" ">
<path fill="none" stroke="#63b8ff" d="M367.8,-390.99C333.29,-386.85 286.94,-376.18 256,-349 216.06,-313.91 219.66,-291.08 209,-239 205.92,-223.95 209.04,-206.72 212.59,-194.01"/>
<polygon fill="#63b8ff" stroke="#63b8ff" points="216.02,-194.76 215.67,-184.17 209.34,-192.67 216.02,-194.76"/>
</a>
</g>
</g>
<!-- Node39 -->
<g id="Node000039" class="node">
<title>Node39</title>
<g id="a_Node000039"><a xlink:href="expr__cast_8h.html" target="_top" xlink:title="Templated functions to cast to specific exprt&#45;derived classes.">
<polygon fill="white" stroke="#666666" points="337.5,-349 264.5,-349 264.5,-330 337.5,-330 337.5,-349"/>
<text text-anchor="middle" x="301" y="-337" font-family="Helvetica,sans-Serif" font-size="10.00">expr_cast.h</text>
</a>
</g>
</g>
<!-- Node4&#45;&gt;Node39 -->
<g id="edge23_Node000004_Node000039" class="edge">
<title>Node4&#45;&gt;Node39</title>
<g id="a_edge23_Node000004_Node000039"><a xlink:title=" ">
<path fill="none" stroke="#63b8ff" d="M395.84,-384.98C377.75,-376.5 349.72,-363.35 328.81,-353.54"/>
<polygon fill="#63b8ff" stroke="#63b8ff" points="330.03,-350.25 319.49,-349.17 327.05,-356.59 330.03,-350.25"/>
</a>
</g>
</g>
<!-- Node41 -->
<g id="Node000041" class="node">
<title>Node41</title>
<g id="a_Node000041"><a xlink:href="mp__arith_8h.html" target="_top" xlink:title=" ">
<polygon fill="white" stroke="#666666" points="925.5,-349 856.5,-349 856.5,-330 925.5,-330 925.5,-349"/>
<text text-anchor="middle" x="891" y="-337" font-family="Helvetica,sans-Serif" font-size="10.00">mp_arith.h</text>
</a>
</g>
</g>
<!-- Node4&#45;&gt;Node41 -->
<g id="edge30_Node000004_Node000041" class="edge">
<title>Node4&#45;&gt;Node41</title>
<g id="a_edge30_Node000004_Node000041"><a xlink:title=" ">
<path fill="none" stroke="#63b8ff" d="M460.17,-388.37C551.82,-378.19 755.66,-355.54 846.18,-345.48"/>
<polygon fill="#63b8ff" stroke="#63b8ff" points="846.84,-348.93 856.39,-344.35 846.07,-341.97 846.84,-348.93"/>
</a>
</g>
</g>
<!-- Node24 -->
<g id="Node000024" class="node">
<title>Node24</title>
<g id="a_Node000024"><a xlink:title=" ">
<polygon fill="#e0e0e0" stroke="#999999" points="456.5,-349 363.5,-349 363.5,-330 456.5,-330 456.5,-349"/>
<text text-anchor="middle" x="410" y="-337" font-family="Helvetica,sans-Serif" font-size="10.00">unordered_map</text>
</a>
</g>
</g>
<!-- Node4&#45;&gt;Node24 -->
<g id="edge35_Node000004_Node000024" class="edge">
<title>Node4&#45;&gt;Node24</title>
<g id="a_edge35_Node000004_Node000024"><a xlink:title=" ">
<path fill="none" stroke="#63b8ff" d="M413.34,-384.75C412.82,-377.8 412.06,-367.85 411.41,-359.13"/>
<polygon fill="#63b8ff" stroke="#63b8ff" points="414.89,-358.8 410.65,-349.09 407.91,-359.32 414.89,-358.8"/>
</a>
</g>
</g>
<!-- Node6 -->
<g id="Node000006" class="node">
<title>Node6</title>
<g id="a_Node000006"><a xlink:href="as__const_8h.html" target="_top" xlink:title=" ">
<polygon fill="white" stroke="#666666" points="474,-239 406,-239 406,-220 474,-220 474,-239"/>
<text text-anchor="middle" x="440" y="-227" font-family="Helvetica,sans-Serif" font-size="10.00">as_const.h</text>
</a>
</g>
</g>
<!-- Node5&#45;&gt;Node6 -->
<g id="edge5_Node000005_Node000006" class="edge">
<title>Node5&#45;&gt;Node6</title>
<g id="a_edge5_Node000005_Node000006"><a xlink:title=" ">
<path fill="none" stroke="#63b8ff" d="M477.57,-274.75C471.15,-267.18 461.69,-256.05 453.88,-246.84"/>
<polygon fill="#63b8ff" stroke="#63b8ff" points="456.43,-244.45 447.29,-239.09 451.1,-248.98 456.43,-244.45"/>
</a>
</g>
</g>
<!-- Node7 -->
<g id="Node000007" class="node">
<title>Node7</title>
<g id="a_Node000007"><a xlink:href="type_8h.html" target="_top" xlink:title="Defines typet, type_with_subtypet and type_with_subtypest.">
<polygon fill="white" stroke="#666666" points="387.5,-239 340.5,-239 340.5,-220 387.5,-220 387.5,-239"/>
<text text-anchor="middle" x="364" y="-227" font-family="Helvetica,sans-Serif" font-size="10.00">type.h</text>
</a>
</g>
</g>
<!-- Node5&#45;&gt;Node7 -->
<g id="edge6_Node000005_Node000007" class="edge">
<title>Node5&#45;&gt;Node7</title>
<g id="a_edge6_Node000005_Node000007"><a xlink:title=" ">
<path fill="none" stroke="#63b8ff" d="M465.56,-274.98C446.01,-266.42 415.62,-253.11 393.18,-243.28"/>
<polygon fill="#63b8ff" stroke="#63b8ff" points="394.36,-239.98 383.79,-239.17 391.55,-246.39 394.36,-239.98"/>
</a>
</g>
</g>
<!-- Node35 -->
<g id="Node000035" class="node">
<title>Node35</title>
<g id="a_Node000035"><a xlink:href="validation__mode_8h.html" target="_top" xlink:title=" ">
<polygon fill="white" stroke="#666666" points="447.5,-129 340.5,-129 340.5,-110 447.5,-110 447.5,-129"/>
<text text-anchor="middle" x="394" y="-117" font-family="Helvetica,sans-Serif" font-size="10.00">validation_mode.h</text>
</a>
</g>
</g>
<!-- Node5&#45;&gt;Node35 -->
<g id="edge21_Node000005_Node000035" class="edge">
<title>Node5&#45;&gt;Node35</title>
<g id="a_edge21_Node000005_Node000035"><a xlink:title=" ">
<path fill="none" stroke="#63b8ff" d="M490.88,-274.89C504.29,-254.08 534.18,-200.17 510,-165 497.87,-147.36 477.71,-136.71 457.57,-130.28"/>
<polygon fill="#63b8ff" stroke="#63b8ff" points="458.29,-126.84 447.72,-127.45 456.36,-133.57 458.29,-126.84"/>
</a>
</g>
</g>
<!-- Node36 -->
<g id="Node000036" class="node">
<title>Node36</title>
<g id="a_Node000036"><a xlink:href="validate__types_8h.html" target="_top" xlink:title=" ">
<polygon fill="white" stroke="#666666" points="501,-184 403,-184 403,-165 501,-165 501,-184"/>
<text text-anchor="middle" x="452" y="-172" font-family="Helvetica,sans-Serif" font-size="10.00">validate_types.h</text>
</a>
</g>
</g>
<!-- Node5&#45;&gt;Node36 -->
<g id="edge20_Node000005_Node000036" class="edge">
<title>Node5&#45;&gt;Node36</title>
<g id="a_edge20_Node000005_Node000036"><a xlink:title=" ">
<path fill="none" stroke="#63b8ff" d="M486.28,-274.6C487.73,-262.06 489.18,-238.64 483,-220 479.61,-209.76 473.04,-199.77 466.82,-191.86"/>
<polygon fill="#63b8ff" stroke="#63b8ff" points="469.49,-189.59 460.38,-184.18 464.13,-194.09 469.49,-189.59"/>
</a>
</g>
</g>
<!-- Node37 -->
<g id="Node000037" class="node">
<title>Node37</title>
<g id="a_Node000037"><a xlink:href="validate__expressions_8h.html" target="_top" xlink:title=" ">
<polygon fill="white" stroke="#666666" points="697.5,-239 568.5,-239 568.5,-220 697.5,-220 697.5,-239"/>
<text text-anchor="middle" x="633" y="-227" font-family="Helvetica,sans-Serif" font-size="10.00">validate_expressions.h</text>
</a>
</g>
</g>
<!-- Node5&#45;&gt;Node37 -->
<g id="edge19_Node000005_Node000037" class="edge">
<title>Node5&#45;&gt;Node37</title>
<g id="a_edge19_Node000005_Node000037"><a xlink:title=" ">
<path fill="none" stroke="#63b8ff" d="M508.78,-274.98C533.23,-266.23 571.53,-252.51 599.15,-242.62"/>
<polygon fill="#63b8ff" stroke="#63b8ff" points="600.55,-245.84 608.79,-239.17 598.19,-239.25 600.55,-245.84"/>
</a>
</g>
</g>
<!-- Node38 -->
<g id="Node000038" class="node">
<title>Node38</title>
<g id="a_Node000038"><a xlink:title=" ">
<polygon fill="#e0e0e0" stroke="#999999" points="283.5,-239 218.5,-239 218.5,-220 283.5,-220 283.5,-239"/>
<text text-anchor="middle" x="251" y="-227" font-family="Helvetica,sans-Serif" font-size="10.00">functional</text>
</a>
</g>
</g>
<!-- Node5&#45;&gt;Node38 -->
<g id="edge22_Node000005_Node000038" class="edge">
<title>Node5&#45;&gt;Node38</title>
<g id="a_edge22_Node000005_Node000038"><a xlink:title=" ">
<path fill="none" stroke="#63b8ff" d="M461.28,-278.13C422.01,-269.23 342.96,-251.33 293.76,-240.18"/>
<polygon fill="#63b8ff" stroke="#63b8ff" points="294.26,-236.71 283.74,-237.92 292.72,-243.54 294.26,-236.71"/>
</a>
</g>
</g>
<!-- Node8 -->
<g id="Node000008" class="node">
<title>Node8</title>
<g id="a_Node000008"><a xlink:href="source__location_8h.html" target="_top" xlink:title=" ">
<polygon fill="#fff0f0" stroke="red" points="894,-184 792,-184 792,-165 894,-165 894,-184"/>
<text text-anchor="middle" x="843" y="-172" font-family="Helvetica,sans-Serif" font-size="10.00">source_location.h</text>
</a>
</g>
</g>
<!-- Node7&#45;&gt;Node8 -->
<g id="edge7_Node000007_Node000008" class="edge">
<title>Node7&#45;&gt;Node8</title>
<g id="a_edge7_Node000007_Node000008"><a xlink:title=" ">
<path fill="none" stroke="#63b8ff" d="M387.7,-221.93C390.81,-221.21 393.97,-220.54 397,-220 533.2,-195.81 695.31,-183.76 781.67,-178.65"/>
<polygon fill="#63b8ff" stroke="#63b8ff" points="782.04,-182.13 791.82,-178.06 781.63,-175.15 782.04,-182.13"/>
</a>
</g>
</g>
<!-- Node7&#45;&gt;Node33 -->
<g id="edge14_Node000007_Node000033" class="edge">
<title>Node7&#45;&gt;Node33</title>
<g id="a_edge14_Node000007_Node000033"><a xlink:title=" ">
<path fill="none" stroke="#63b8ff" d="M340.7,-219.98C316.75,-211.23 279.22,-197.51 252.17,-187.62"/>
<polygon fill="#63b8ff" stroke="#63b8ff" points="253.31,-184.32 242.72,-184.17 250.91,-190.89 253.31,-184.32"/>
</a>
</g>
</g>
<!-- Node7&#45;&gt;Node35 -->
<g id="edge18_Node000007_Node000035" class="edge">
<title>Node7&#45;&gt;Node35</title>
<g id="a_edge18_Node000007_Node000035"><a xlink:title=" ">
<path fill="none" stroke="#63b8ff" d="M366.46,-219.66C371.34,-202.09 382.35,-162.45 388.87,-138.95"/>
<polygon fill="#63b8ff" stroke="#63b8ff" points="392.29,-139.73 391.59,-129.16 385.55,-137.86 392.29,-139.73"/>
</a>
</g>
</g>
<!-- Node7&#45;&gt;Node36 -->
<g id="edge17_Node000007_Node000036" class="edge">
<title>Node7&#45;&gt;Node36</title>
<g id="a_edge17_Node000007_Node000036"><a xlink:title=" ">
<path fill="none" stroke="#63b8ff" d="M378.14,-219.98C391.79,-211.77 412.69,-199.18 428.78,-189.49"/>
<polygon fill="#63b8ff" stroke="#63b8ff" points="430.84,-192.33 437.6,-184.17 427.23,-186.33 430.84,-192.33"/>
</a>
</g>
</g>
<!-- Node10 -->
<g id="Node000010" class="node">
<title>Node10</title>
<g id="a_Node000010"><a xlink:href="irep_8h.html" target="_top" xlink:title=" ">
<polygon fill="#fff0f0" stroke="red" points="915,-129 871,-129 871,-110 915,-110 915,-129"/>
<text text-anchor="middle" x="893" y="-117" font-family="Helvetica,sans-Serif" font-size="10.00">irep.h</text>
</a>
</g>
</g>
<!-- Node8&#45;&gt;Node10 -->
<g id="edge8_Node000008_Node000010" class="edge">
<title>Node8&#45;&gt;Node10</title>
<g id="a_edge8_Node000008_Node000010"><a xlink:title=" ">
<path fill="none" stroke="#63b8ff" d="M851.26,-164.75C858.46,-157.11 869.11,-145.82 877.85,-136.56"/>
<polygon fill="#63b8ff" stroke="#63b8ff" points="880.58,-138.76 884.9,-129.09 875.49,-133.96 880.58,-138.76"/>
</a>
</g>
</g>
<!-- Node11 -->
<g id="Node000011" class="node">
<title>Node11</title>
<g id="a_Node000011"><a xlink:title=" ">
<polygon fill="#e0e0e0" stroke="#999999" points="915,-19 871,-19 871,0 915,0 915,-19"/>
<text text-anchor="middle" x="893" y="-7" font-family="Helvetica,sans-Serif" font-size="10.00">string</text>
</a>
</g>
</g>
<!-- Node8&#45;&gt;Node11 -->
<g id="edge13_Node000008_Node000011" class="edge">
<title>Node8&#45;&gt;Node11</title>
<g id="a_edge13_Node000008_Node000011"><a xlink:title=" ">
<path fill="none" stroke="#63b8ff" d="M845.55,-164.86C849.17,-152.64 856.02,-129.59 862,-110 870.69,-81.53 881.02,-48.55 887.29,-28.63"/>
<polygon fill="#63b8ff" stroke="#63b8ff" points="890.65,-29.6 890.31,-19.01 883.97,-27.5 890.65,-29.6"/>
</a>
</g>
</g>
<!-- Node10&#45;&gt;Node11 -->
<g id="edge9_Node000010_Node000011" class="edge">
<title>Node10&#45;&gt;Node11</title>
<g id="a_edge9_Node000010_Node000011"><a xlink:title=" ">
<path fill="none" stroke="#63b8ff" d="M893,-109.66C893,-92.17 893,-52.8 893,-29.27"/>
<polygon fill="#63b8ff" stroke="#63b8ff" points="896.5,-29.16 893,-19.16 889.5,-29.16 896.5,-29.16"/>
</a>
</g>
</g>
<!-- Node10&#45;&gt;Node13 -->
<g id="edge10_Node000010_Node000013" class="edge">
<title>Node10&#45;&gt;Node13</title>
<g id="a_edge10_Node000010_Node000013"><a xlink:title=" ">
<path fill="none" stroke="#63b8ff" d="M870.72,-115.34C810.68,-106.83 644.56,-83.29 563.98,-71.87"/>
<polygon fill="#63b8ff" stroke="#63b8ff" points="564.06,-68.35 553.67,-70.41 563.08,-75.28 564.06,-68.35"/>
</a>
</g>
</g>
<!-- Node13&#45;&gt;Node11 -->
<g id="edge11_Node000013_Node000011" class="edge">
<title>Node13&#45;&gt;Node11</title>
<g id="a_edge11_Node000013_Node000011"><a xlink:title=" ">
<path fill="none" stroke="#63b8ff" d="M553.51,-58.61C625.58,-48.4 791.15,-24.93 860.99,-15.04"/>
<polygon fill="#63b8ff" stroke="#63b8ff" points="861.56,-18.49 870.97,-13.62 860.57,-11.56 861.56,-18.49"/>
</a>
</g>
</g>
<!-- Node16 -->
<g id="Node000016" class="node">
<title>Node16</title>
<g id="a_Node000016"><a xlink:title=" ">
<polygon fill="#e0e0e0" stroke="#999999" points="253.5,-19 184.5,-19 184.5,0 253.5,0 253.5,-19"/>
<text text-anchor="middle" x="219" y="-7" font-family="Helvetica,sans-Serif" font-size="10.00">type_traits</text>
</a>
</g>
</g>
<!-- Node13&#45;&gt;Node16 -->
<g id="edge12_Node000013_Node000016" class="edge">
<title>Node13&#45;&gt;Node16</title>
<g id="a_edge12_Node000013_Node000016"><a xlink:title=" ">
<path fill="none" stroke="#63b8ff" d="M484.29,-57.37C429.76,-47.73 324.04,-29.06 263.83,-18.42"/>
<polygon fill="#63b8ff" stroke="#63b8ff" points="264.31,-14.95 253.86,-16.66 263.1,-21.84 264.31,-14.95"/>
</a>
</g>
</g>
<!-- Node33&#45;&gt;Node16 -->
<g id="edge15_Node000033_Node000016" class="edge">
<title>Node33&#45;&gt;Node16</title>
<g id="a_edge15_Node000033_Node000016"><a xlink:title=" ">
<path fill="none" stroke="#63b8ff" d="M219,-164.74C219,-139.31 219,-65.08 219,-29.69"/>
<polygon fill="#63b8ff" stroke="#63b8ff" points="222.5,-29.31 219,-19.31 215.5,-29.31 222.5,-29.31"/>
</a>
</g>
</g>
<!-- Node33&#45;&gt;Node35 -->
<g id="edge16_Node000033_Node000035" class="edge">
<title>Node33&#45;&gt;Node35</title>
<g id="a_edge16_Node000033_Node000035"><a xlink:title=" ">
<path fill="none" stroke="#63b8ff" d="M247.12,-164.98C276.62,-156.05 323.19,-141.94 355.97,-132.02"/>
<polygon fill="#63b8ff" stroke="#63b8ff" points="357.11,-135.33 365.66,-129.08 355.08,-128.63 357.11,-135.33"/>
</a>
</g>
</g>
<!-- Node39&#45;&gt;Node5 -->
<g id="edge28_Node000039_Node000005" class="edge">
<title>Node39&#45;&gt;Node5</title>
<g id="a_edge28_Node000039_Node000005"><a xlink:title=" ">
<path fill="none" stroke="#63b8ff" d="M330.56,-329.98C363.66,-320.45 417.18,-305.03 451.72,-295.09"/>
<polygon fill="#63b8ff" stroke="#63b8ff" points="452.72,-298.44 461.36,-292.31 450.78,-291.71 452.72,-298.44"/>
</a>
</g>
</g>
<!-- Node39&#45;&gt;Node13 -->
<g id="edge27_Node000039_Node000013" class="edge">
<title>Node39&#45;&gt;Node13</title>
<g id="a_edge27_Node000039_Node000013"><a xlink:title=" ">
<path fill="none" stroke="#63b8ff" d="M306.7,-329.72C312,-321.04 319.58,-307.18 323,-294 343.57,-214.75 279.69,-172.99 332,-110 349.91,-88.43 424.89,-76 474.29,-70.01"/>
<polygon fill="#63b8ff" stroke="#63b8ff" points="474.89,-73.46 484.42,-68.83 474.08,-66.51 474.89,-73.46"/>
</a>
</g>
</g>
<!-- Node39&#45;&gt;Node16 -->
<g id="edge25_Node000039_Node000016" class="edge">
<title>Node39&#45;&gt;Node16</title>
<g id="a_edge25_Node000039_Node000016"><a xlink:title=" ">
<path fill="none" stroke="#63b8ff" d="M286.82,-329.91C247.24,-304.97 136.13,-227.96 100,-129 82.18,-80.19 146.84,-41.91 187.78,-23.15"/>
<polygon fill="#63b8ff" stroke="#63b8ff" points="189.39,-26.27 197.11,-19.02 186.55,-19.87 189.39,-26.27"/>
</a>
</g>
</g>
<!-- Node39&#45;&gt;Node38 -->
<g id="edge26_Node000039_Node000038" class="edge">
<title>Node39&#45;&gt;Node38</title>
<g id="a_edge26_Node000039_Node000038"><a xlink:title=" ">
<path fill="none" stroke="#63b8ff" d="M284.42,-329.87C271.83,-322.3 255.46,-310.01 248,-294 241.44,-279.93 243,-262.16 245.73,-249"/>
<polygon fill="#63b8ff" stroke="#63b8ff" points="249.14,-249.75 248.14,-239.21 242.35,-248.07 249.14,-249.75"/>
</a>
</g>
</g>
<!-- Node40 -->
<g id="Node000040" class="node">
<title>Node40</title>
<g id="a_Node000040"><a xlink:title=" ">
<polygon fill="#e0e0e0" stroke="#999999" points="313.5,-294 256.5,-294 256.5,-275 313.5,-275 313.5,-294"/>
<text text-anchor="middle" x="285" y="-282" font-family="Helvetica,sans-Serif" font-size="10.00">typeinfo</text>
</a>
</g>
</g>
<!-- Node39&#45;&gt;Node40 -->
<g id="edge24_Node000039_Node000040" class="edge">
<title>Node39&#45;&gt;Node40</title>
<g id="a_edge24_Node000039_Node000040"><a xlink:title=" ">
<path fill="none" stroke="#63b8ff" d="M298.36,-329.75C296.24,-322.72 293.19,-312.62 290.54,-303.84"/>
<polygon fill="#63b8ff" stroke="#63b8ff" points="293.83,-302.65 287.59,-294.09 287.13,-304.67 293.83,-302.65"/>
</a>
</g>
</g>
<!-- Node41&#45;&gt;Node11 -->
<g id="edge32_Node000041_Node000011" class="edge">
<title>Node41&#45;&gt;Node11</title>
<g id="a_edge32_Node000041_Node000011"><a xlink:title=" ">
<path fill="none" stroke="#63b8ff" d="M925.64,-330.18C970.22,-317.17 1042,-287.39 1042,-230.5 1042,-230.5 1042,-230.5 1042,-118.5 1042,-61.15 968.73,-31.12 924.95,-18.3"/>
<polygon fill="#63b8ff" stroke="#63b8ff" points="925.88,-14.93 915.31,-15.61 924,-21.67 925.88,-14.93"/>
</a>
</g>
</g>
<!-- Node19 -->
<g id="Node000019" class="node">
<title>Node19</title>
<g id="a_Node000019"><a xlink:title=" ">
<polygon fill="#e0e0e0" stroke="#999999" points="826,-294 778,-294 778,-275 826,-275 826,-294"/>
<text text-anchor="middle" x="802" y="-282" font-family="Helvetica,sans-Serif" font-size="10.00">iosfwd</text>
</a>
</g>
</g>
<!-- Node41&#45;&gt;Node19 -->
<g id="edge31_Node000041_Node000019" class="edge">
<title>Node41&#45;&gt;Node19</title>
<g id="a_edge31_Node000041_Node000019"><a xlink:title=" ">
<path fill="none" stroke="#63b8ff" d="M876.7,-329.98C862.9,-321.77 841.76,-309.18 825.49,-299.49"/>
<polygon fill="#63b8ff" stroke="#63b8ff" points="826.94,-296.28 816.56,-294.17 823.36,-302.29 826.94,-296.28"/>
</a>
</g>
</g>
<!-- Node42 -->
<g id="Node000042" class="node">
<title>Node42</title>
<g id="a_Node000042"><a xlink:title=" ">
<polygon fill="#e0e0e0" stroke="#999999" points="938,-294 844,-294 844,-275 938,-275 938,-294"/>
<text text-anchor="middle" x="891" y="-282" font-family="Helvetica,sans-Serif" font-size="10.00">big&#45;int/bigint.hh</text>
</a>
</g>
</g>
<!-- Node41&#45;&gt;Node42 -->
<g id="edge33_Node000041_Node000042" class="edge">
<title>Node41&#45;&gt;Node42</title>
<g id="a_edge33_Node000041_Node000042"><a xlink:title=" ">
<path fill="none" stroke="#63b8ff" d="M891,-329.75C891,-322.8 891,-312.85 891,-304.13"/>
<polygon fill="#63b8ff" stroke="#63b8ff" points="894.5,-304.09 891,-294.09 887.5,-304.09 894.5,-304.09"/>
</a>
</g>
</g>
<!-- Node43&#45;&gt;Node8 -->
<g id="edge38_Node000043_Node000008" class="edge">
<title>Node43&#45;&gt;Node8</title>
<g id="a_edge38_Node000043_Node000008"><a xlink:title=" ">
<path fill="none" stroke="#63b8ff" d="M732.18,-549.99C757.21,-543.25 789.09,-531.92 813,-514 885.97,-459.3 897.33,-432.06 935,-349 948.76,-318.66 960.09,-305.64 947,-275 930.74,-236.93 891.97,-206.47 866.64,-189.71"/>
<polygon fill="#63b8ff" stroke="#63b8ff" points="868.29,-186.61 857.98,-184.16 864.51,-192.5 868.29,-186.61"/>
</a>
</g>
</g>
<!-- Node43&#45;&gt;Node11 -->
<g id="edge53_Node000043_Node000011" class="edge">
<title>Node43&#45;&gt;Node11</title>
<g id="a_edge53_Node000043_Node000011"><a xlink:title=" ">
<path fill="none" stroke="#63b8ff" d="M739.02,-550.08C768.83,-543.35 807.39,-532 838,-514 935.61,-456.59 1080,-294.34 1080,-230.5 1080,-230.5 1080,-230.5 1080,-118.5 1080,-47.85 978.68,-22.69 925.2,-14.33"/>
<polygon fill="#63b8ff" stroke="#63b8ff" points="925.59,-10.85 915.19,-12.88 924.58,-17.78 925.59,-10.85"/>
</a>
</g>
</g>
<!-- Node43&#45;&gt;Node13 -->
<g id="edge37_Node000043_Node000013" class="edge">
<title>Node43&#45;&gt;Node13</title>
<g id="a_edge37_Node000043_Node000013"><a xlink:title=" ">
<path fill="none" stroke="#63b8ff" d="M644.98,-556.14C489.23,-547.68 0,-515.93 0,-450.5 0,-450.5 0,-450.5 0,-228.5 0,-154.49 49.61,-140.59 117,-110 179.88,-81.46 383.4,-70.51 474.36,-66.96"/>
<polygon fill="#63b8ff" stroke="#63b8ff" points="474.5,-70.46 484.36,-66.59 474.24,-63.47 474.5,-70.46"/>
</a>
</g>
</g>
<!-- Node43&#45;&gt;Node19 -->
<g id="edge49_Node000043_Node000019" class="edge">
<title>Node43&#45;&gt;Node19</title>
<g id="a_edge49_Node000043_Node000019"><a xlink:title=" ">
<path fill="none" stroke="#63b8ff" d="M720.84,-549.95C760.76,-536.12 828,-504.77 828,-450.5 828,-450.5 828,-450.5 828,-393.5 828,-361.15 816.83,-324.82 809.14,-303.62"/>
<polygon fill="#63b8ff" stroke="#63b8ff" points="812.32,-302.13 805.51,-294.01 805.77,-304.6 812.32,-302.13"/>
</a>
</g>
</g>
<!-- Node44 -->
<g id="Node000044" class="node">
<title>Node44</title>
<g id="a_Node000044"><a xlink:href="goto__instruction__code_8h.html" target="_top" xlink:title=" ">
<polygon fill="white" stroke="#666666" points="688.5,-514 555.5,-514 555.5,-495 688.5,-495 688.5,-514"/>
<text text-anchor="middle" x="622" y="-502" font-family="Helvetica,sans-Serif" font-size="10.00">goto_instruction_code.h</text>
</a>
</g>
</g>
<!-- Node43&#45;&gt;Node44 -->
<g id="edge39_Node000043_Node000044" class="edge">
<title>Node43&#45;&gt;Node44</title>
<g id="a_edge39_Node000043_Node000044"><a xlink:title=" ">
<path fill="none" stroke="#63b8ff" d="M680.75,-549.98C670.2,-542 654.2,-529.88 641.56,-520.31"/>
<polygon fill="#63b8ff" stroke="#63b8ff" points="643.54,-517.42 633.45,-514.17 639.31,-523 643.54,-517.42"/>
</a>
</g>
</g>
<!-- Node47 -->
<g id="Node000047" class="node">
<title>Node47</title>
<g id="a_Node000047"><a xlink:title=" ">
<polygon fill="#e0e0e0" stroke="#999999" points="751,-514 707,-514 707,-495 751,-495 751,-514"/>
<text text-anchor="middle" x="729" y="-502" font-family="Helvetica,sans-Serif" font-size="10.00">limits</text>
</a>
</g>
</g>
<!-- Node43&#45;&gt;Node47 -->
<g id="edge50_Node000043_Node000047" class="edge">
<title>Node43&#45;&gt;Node47</title>
<g id="a_edge50_Node000043_Node000047"><a xlink:title=" ">
<path fill="none" stroke="#63b8ff" d="M698.11,-549.75C703.28,-542.34 710.85,-531.5 717.19,-522.41"/>
<polygon fill="#63b8ff" stroke="#63b8ff" points="720.15,-524.29 723,-514.09 714.41,-520.29 720.15,-524.29"/>
</a>
</g>
</g>
<!-- Node23 -->
<g id="Node000023" class="node">
<title>Node23</title>
<g id="a_Node000023"><a xlink:title=" ">
<polygon fill="#e0e0e0" stroke="#999999" points="487,-514 455,-514 455,-495 487,-495 487,-514"/>
<text text-anchor="middle" x="471" y="-502" font-family="Helvetica,sans-Serif" font-size="10.00">list</text>
</a>
</g>
</g>
<!-- Node43&#45;&gt;Node23 -->
<g id="edge51_Node000043_Node000023" class="edge">
<title>Node43&#45;&gt;Node23</title>
<g id="a_edge51_Node000043_Node000023"><a xlink:title=" ">
<path fill="none" stroke="#63b8ff" d="M648.46,-549.98C610.71,-542.28 554.45,-530.09 497.03,-514.06"/>
<polygon fill="#63b8ff" stroke="#63b8ff" points="497.64,-510.59 487.06,-511.24 495.73,-517.33 497.64,-510.59"/>
</a>
</g>
</g>
<!-- Node48 -->
<g id="Node000048" class="node">
<title>Node48</title>
<g id="a_Node000048"><a xlink:title=" ">
<polygon fill="#e0e0e0" stroke="#999999" points="537,-514 505,-514 505,-495 537,-495 537,-514"/>
<text text-anchor="middle" x="521" y="-502" font-family="Helvetica,sans-Serif" font-size="10.00">set</text>
</a>
</g>
</g>
<!-- Node43&#45;&gt;Node48 -->
<g id="edge52_Node000043_Node000048" class="edge">
<title>Node43&#45;&gt;Node48</title>
<g id="a_edge52_Node000043_Node000048"><a xlink:title=" ">
<path fill="none" stroke="#63b8ff" d="M663.61,-549.95C634.35,-541.11 587.41,-526.81 547,-514 546.9,-513.97 546.8,-513.94 546.7,-513.91"/>
<polygon fill="#63b8ff" stroke="#63b8ff" points="547.8,-510.58 537.21,-510.85 545.66,-517.25 547.8,-510.58"/>
</a>
</g>
</g>
<!-- Node45 -->
<g id="Node000045" class="node">
<title>Node45</title>
<g id="a_Node000045"><a xlink:href="std__code__base_8h.html" target="_top" xlink:title=" ">
<polygon fill="white" stroke="#666666" points="353,-459 237,-459 237,-440 353,-440 353,-459"/>
<text text-anchor="middle" x="295" y="-447" font-family="Helvetica,sans-Serif" font-size="10.00">util/std_code_base.h</text>
</a>
</g>
</g>
<!-- Node44&#45;&gt;Node45 -->
<g id="edge40_Node000044_Node000045" class="edge">
<title>Node44&#45;&gt;Node45</title>
<g id="a_edge40_Node000044_Node000045"><a xlink:title=" ">
<path fill="none" stroke="#63b8ff" d="M569.46,-494.98C511.74,-485.63 419.09,-470.61 357.64,-460.65"/>
<polygon fill="#63b8ff" stroke="#63b8ff" points="358.11,-457.18 347.68,-459.04 356.99,-464.09 358.11,-457.18"/>
</a>
</g>
</g>
<!-- Node46 -->
<g id="Node000046" class="node">
<title>Node46</title>
<g id="a_Node000046"><a xlink:href="std__expr_8h.html" target="_top" xlink:title="API to expression classes.">
<polygon fill="white" stroke="#666666" points="457,-459 371,-459 371,-440 457,-440 457,-459"/>
<text text-anchor="middle" x="414" y="-447" font-family="Helvetica,sans-Serif" font-size="10.00">util/std_expr.h</text>
</a>
</g>
</g>
<!-- Node44&#45;&gt;Node46 -->
<g id="edge45_Node000044_Node000046" class="edge">
<title>Node44&#45;&gt;Node46</title>
<g id="a_edge45_Node000044_Node000046"><a xlink:title=" ">
<path fill="none" stroke="#63b8ff" d="M588.58,-494.98C553.06,-485.93 496.73,-471.58 457.7,-461.64"/>
<polygon fill="#63b8ff" stroke="#63b8ff" points="458.24,-458.16 447.68,-459.08 456.51,-464.94 458.24,-458.16"/>
</a>
</g>
</g>
<!-- Node45&#45;&gt;Node4 -->
<g id="edge43_Node000045_Node000004" class="edge">
<title>Node45&#45;&gt;Node4</title>
<g id="a_edge43_Node000045_Node000004"><a xlink:title=" ">
<path fill="none" stroke="#63b8ff" d="M314.12,-439.98C333.35,-431.42 363.23,-418.11 385.31,-408.28"/>
<polygon fill="#63b8ff" stroke="#63b8ff" points="386.82,-411.44 394.53,-404.17 383.97,-405.04 386.82,-411.44"/>
</a>
</g>
</g>
<!-- Node45&#45;&gt;Node13 -->
<g id="edge42_Node000045_Node000013" class="edge">
<title>Node45&#45;&gt;Node13</title>
<g id="a_edge42_Node000045_Node000013"><a xlink:title=" ">
<path fill="none" stroke="#63b8ff" d="M236.68,-448.47C160.86,-445 38,-426.16 38,-340.5 38,-340.5 38,-340.5 38,-283.5 38,-190.99 70.21,-151.27 153,-110 208.47,-82.35 389.49,-71.07 474.34,-67.21"/>
<polygon fill="#63b8ff" stroke="#63b8ff" points="474.61,-70.7 484.44,-66.77 474.3,-63.71 474.61,-70.7"/>
</a>
</g>
</g>
<!-- Node45&#45;&gt;Node33 -->
<g id="edge44_Node000045_Node000033" class="edge">
<title>Node45&#45;&gt;Node33</title>
<g id="a_edge44_Node000045_Node000033"><a xlink:title=" ">
<path fill="none" stroke="#63b8ff" d="M236.71,-443.13C185.6,-437.07 116.89,-425.18 100,-404 42.77,-332.23 153.78,-228.68 200.06,-190.43"/>
<polygon fill="#63b8ff" stroke="#63b8ff" points="202.34,-193.09 207.89,-184.07 197.92,-187.66 202.34,-193.09"/>
</a>
</g>
</g>
<!-- Node45&#45;&gt;Node39 -->
<g id="edge41_Node000045_Node000039" class="edge">
<title>Node45&#45;&gt;Node39</title>
<g id="a_edge41_Node000045_Node000039"><a xlink:title=" ">
<path fill="none" stroke="#63b8ff" d="M295.49,-439.66C296.46,-422.17 298.65,-382.8 299.96,-359.27"/>
<polygon fill="#63b8ff" stroke="#63b8ff" points="303.46,-359.34 300.52,-349.16 296.47,-358.95 303.46,-359.34"/>
</a>
</g>
</g>
<!-- Node46&#45;&gt;Node4 -->
<g id="edge48_Node000046_Node000004" class="edge">
<title>Node46&#45;&gt;Node4</title>
<g id="a_edge48_Node000046_Node000004"><a xlink:title=" ">
<path fill="none" stroke="#63b8ff" d="M414,-439.75C414,-432.8 414,-422.85 414,-414.13"/>
<polygon fill="#63b8ff" stroke="#63b8ff" points="417.5,-414.09 414,-404.09 410.5,-414.09 417.5,-414.09"/>
</a>
</g>
</g>
<!-- Node46&#45;&gt;Node13 -->
<g id="edge47_Node000046_Node000013" class="edge">
<title>Node46&#45;&gt;Node13</title>
<g id="a_edge47_Node000046_Node000013"><a xlink:title=" ">
<path fill="none" stroke="#63b8ff" d="M380.17,-439.99C301.71,-419.79 114,-368.52 114,-340.5 114,-340.5 114,-340.5 114,-173.5 114,-99.55 369.25,-74.95 474.47,-67.95"/>
<polygon fill="#63b8ff" stroke="#63b8ff" points="474.71,-71.44 484.47,-67.31 474.27,-64.46 474.71,-71.44"/>
</a>
</g>
</g>
<!-- Node46&#45;&gt;Node39 -->
<g id="edge46_Node000046_Node000039" class="edge">
<title>Node46&#45;&gt;Node39</title>
<g id="a_edge46_Node000046_Node000039"><a xlink:title=" ">
<path fill="none" stroke="#63b8ff" d="M402.2,-439.78C390.77,-431.14 373.13,-417.31 359,-404 342.95,-388.88 326.12,-370.08 314.75,-356.87"/>
<polygon fill="#63b8ff" stroke="#63b8ff" points="317.27,-354.44 308.13,-349.09 311.95,-358.98 317.27,-354.44"/>
</a>
</g>
</g>
<!-- Node51&#45;&gt;Node10 -->
<g id="edge58_Node000051_Node000010" class="edge">
<title>Node51&#45;&gt;Node10</title>
<g id="a_edge58_Node000051_Node000010"><a xlink:title=" ">
<path fill="none" stroke="#63b8ff" d="M951.75,-164.98C941.2,-157 925.2,-144.88 912.56,-135.31"/>
<polygon fill="#63b8ff" stroke="#63b8ff" points="914.54,-132.42 904.45,-129.17 910.31,-138 914.54,-132.42"/>
</a>
</g>
</g>
<!-- Node51&#45;&gt;Node13 -->
<g id="edge57_Node000051_Node000013" class="edge">
<title>Node51&#45;&gt;Node13</title>
<g id="a_edge57_Node000051_Node000013"><a xlink:title=" ">
<path fill="none" stroke="#63b8ff" d="M960.41,-164.74C955.7,-150.56 944.33,-122.88 924,-110 865.03,-72.64 656.21,-66.44 563.69,-65.55"/>
<polygon fill="#63b8ff" stroke="#63b8ff" points="563.55,-62.05 553.52,-65.47 563.5,-69.05 563.55,-62.05"/>
</a>
</g>
</g>
<!-- Node52&#45;&gt;Node5 -->
<g id="edge61_Node000052_Node000005" class="edge">
<title>Node52&#45;&gt;Node5</title>
<g id="a_edge61_Node000052_Node000005"><a xlink:title=" ">
<path fill="none" stroke="#63b8ff" d="M719.72,-330.74C665.4,-320.27 569.64,-301.81 518.84,-292.02"/>
<polygon fill="#63b8ff" stroke="#63b8ff" points="519.2,-288.53 508.72,-290.07 517.88,-295.4 519.2,-288.53"/>
</a>
</g>
</g>
<!-- Node52&#45;&gt;Node13 -->
<g id="edge62_Node000052_Node000013" class="edge">
<title>Node52&#45;&gt;Node13</title>
<g id="a_edge62_Node000052_Node000013"><a xlink:title=" ">
<path fill="none" stroke="#63b8ff" d="M760.55,-329.99C762.78,-292.59 769.67,-143.17 740,-110 717.1,-84.39 621.66,-72.98 563.95,-68.33"/>
<polygon fill="#63b8ff" stroke="#63b8ff" points="563.88,-64.82 553.64,-67.54 563.35,-71.8 563.88,-64.82"/>
</a>
</g>
</g>
<!-- Node52&#45;&gt;Node19 -->
<g id="edge60_Node000052_Node000019" class="edge">
<title>Node52&#45;&gt;Node19</title>
<g id="a_edge60_Node000052_Node000019"><a xlink:title=" ">
<path fill="none" stroke="#63b8ff" d="M766.94,-329.75C772.87,-322.26 781.57,-311.28 788.82,-302.13"/>
<polygon fill="#63b8ff" stroke="#63b8ff" points="791.73,-304.1 795.19,-294.09 786.24,-299.75 791.73,-304.1"/>
</a>
</g>
</g>
</g>
</svg>
