<?xml version="1.0" encoding="UTF-8" standalone="no"?>
<!DOCTYPE svg PUBLIC "-//W3C//DTD SVG 1.1//EN"
 "http://www.w3.org/Graphics/SVG/1.1/DTD/svg11.dtd">
<!-- Generated by graphviz version 2.43.0 (0)
 -->
<!-- Title: /home/runner/work/cbmc/cbmc/src/goto&#45;programs/goto_function.cpp Pages: 1 -->
<svg width="1225pt" height="819pt"
 viewBox="0.00 0.00 1225.00 819.00" xmlns="http://www.w3.org/2000/svg" xmlns:xlink="http://www.w3.org/1999/xlink">
<g id="graph0" class="graph" transform="scale(1 1) rotate(0) translate(4 815)">
<title>/home/runner/work/cbmc/cbmc/src/goto&#45;programs/goto_function.cpp</title>
<!-- Node1 -->
<g id="Node000001" class="node">
<title>Node1</title>
<g id="a_Node000001"><a xlink:title="Goto Function.">
<polygon fill="#999999" stroke="#666666" points="902,-811 764,-811 764,-770 902,-770 902,-811"/>
<text text-anchor="start" x="772" y="-799" font-family="Helvetica,sans-Serif" font-size="10.00">/home/runner/work/cbmc</text>
<text text-anchor="start" x="772" y="-788" font-family="Helvetica,sans-Serif" font-size="10.00">/cbmc/src/goto&#45;programs</text>
<text text-anchor="middle" x="833" y="-777" font-family="Helvetica,sans-Serif" font-size="10.00">/goto_function.cpp</text>
</a>
</g>
</g>
<!-- Node2 -->
<g id="Node000002" class="node">
<title>Node2</title>
<g id="a_Node000002"><a xlink:href="goto__function_8h.html" target="_top" xlink:title="Goto Function.">
<polygon fill="white" stroke="#666666" points="879,-734 787,-734 787,-715 879,-715 879,-734"/>
<text text-anchor="middle" x="833" y="-722" font-family="Helvetica,sans-Serif" font-size="10.00">goto_function.h</text>
</a>
</g>
</g>
<!-- Node1&#45;&gt;Node2 -->
<g id="edge1_Node000001_Node000002" class="edge">
<title>Node1&#45;&gt;Node2</title>
<g id="a_edge1_Node000001_Node000002"><a xlink:title=" ">
<path fill="none" stroke="#63b8ff" d="M833,-769.95C833,-761.85 833,-752.5 833,-744.47"/>
<polygon fill="#63b8ff" stroke="#63b8ff" points="836.5,-744.26 833,-734.26 829.5,-744.26 836.5,-744.26"/>
</a>
</g>
</g>
<!-- Node48 -->
<g id="Node000048" class="node">
<title>Node48</title>
<g id="a_Node000048"><a xlink:href="namespace_8h.html" target="_top" xlink:title=" ">
<polygon fill="white" stroke="#666666" points="1112.5,-184 1011.5,-184 1011.5,-165 1112.5,-165 1112.5,-184"/>
<text text-anchor="middle" x="1062" y="-172" font-family="Helvetica,sans-Serif" font-size="10.00">util/namespace.h</text>
</a>
</g>
</g>
<!-- Node1&#45;&gt;Node48 -->
<g id="edge59_Node000001_Node000048" class="edge">
<title>Node1&#45;&gt;Node48</title>
<g id="a_edge59_Node000001_Node000048"><a xlink:title=" ">
<path fill="none" stroke="#63b8ff" d="M902.12,-777.15C992.93,-758.91 1141,-721.38 1141,-670.5 1141,-670.5 1141,-670.5 1141,-283.5 1141,-243.78 1105.75,-208.93 1082.34,-190.17"/>
<polygon fill="#63b8ff" stroke="#63b8ff" points="1084.4,-187.34 1074.34,-184.01 1080.13,-192.89 1084.4,-187.34"/>
</a>
</g>
</g>
<!-- Node49 -->
<g id="Node000049" class="node">
<title>Node49</title>
<g id="a_Node000049"><a xlink:href="symbol_8h.html" target="_top" xlink:title="Symbol table entry.">
<polygon fill="white" stroke="#666666" points="715,-459 635,-459 635,-440 715,-440 715,-459"/>
<text text-anchor="middle" x="675" y="-447" font-family="Helvetica,sans-Serif" font-size="10.00">util/symbol.h</text>
</a>
</g>
</g>
<!-- Node1&#45;&gt;Node49 -->
<g id="edge62_Node000001_Node000049" class="edge">
<title>Node1&#45;&gt;Node49</title>
<g id="a_edge62_Node000001_Node000049"><a xlink:title=" ">
<path fill="none" stroke="#63b8ff" d="M787.16,-769.85C750.08,-750.52 704,-717.12 704,-670.5 704,-670.5 704,-670.5 704,-558.5 704,-525.95 691.56,-489.71 682.97,-468.57"/>
<polygon fill="#63b8ff" stroke="#63b8ff" points="686.15,-467.09 679.03,-459.25 679.7,-469.82 686.15,-467.09"/>
</a>
</g>
</g>
<!-- Node3 -->
<g id="Node000003" class="node">
<title>Node3</title>
<g id="a_Node000003"><a xlink:href="std__types_8h.html" target="_top" xlink:title="Pre&#45;defined types.">
<polygon fill="white" stroke="#666666" points="559,-514 467,-514 467,-495 559,-495 559,-514"/>
<text text-anchor="middle" x="513" y="-502" font-family="Helvetica,sans-Serif" font-size="10.00">util/std_types.h</text>
</a>
</g>
</g>
<!-- Node2&#45;&gt;Node3 -->
<g id="edge2_Node000002_Node000003" class="edge">
<title>Node2&#45;&gt;Node3</title>
<g id="a_edge2_Node000002_Node000003"><a xlink:title=" ">
<path fill="none" stroke="#63b8ff" d="M786.93,-722.26C720.17,-717.81 597.48,-699.19 533,-624 508.97,-595.98 508.6,-550.1 510.67,-524.42"/>
<polygon fill="#63b8ff" stroke="#63b8ff" points="514.18,-524.49 511.71,-514.18 507.21,-523.78 514.18,-524.49"/>
</a>
</g>
</g>
<!-- Node42 -->
<g id="Node000042" class="node">
<title>Node42</title>
<g id="a_Node000042"><a xlink:href="goto__program_8h.html" target="_top" xlink:title="Concrete Goto Program.">
<polygon fill="white" stroke="#666666" points="916,-679 822,-679 822,-660 916,-660 916,-679"/>
<text text-anchor="middle" x="869" y="-667" font-family="Helvetica,sans-Serif" font-size="10.00">goto_program.h</text>
</a>
</g>
</g>
<!-- Node2&#45;&gt;Node42 -->
<g id="edge41_Node000002_Node000042" class="edge">
<title>Node2&#45;&gt;Node42</title>
<g id="a_edge41_Node000002_Node000042"><a xlink:title=" ">
<path fill="none" stroke="#63b8ff" d="M838.94,-714.75C843.98,-707.34 851.34,-696.5 857.51,-687.41"/>
<polygon fill="#63b8ff" stroke="#63b8ff" points="860.44,-689.33 863.17,-679.09 854.65,-685.39 860.44,-689.33"/>
</a>
</g>
</g>
<!-- Node4 -->
<g id="Node000004" class="node">
<title>Node4</title>
<g id="a_Node000004"><a xlink:href="expr_8h.html" target="_top" xlink:title=" ">
<polygon fill="white" stroke="#666666" points="333.5,-404 286.5,-404 286.5,-385 333.5,-385 333.5,-404"/>
<text text-anchor="middle" x="310" y="-392" font-family="Helvetica,sans-Serif" font-size="10.00">expr.h</text>
</a>
</g>
</g>
<!-- Node3&#45;&gt;Node4 -->
<g id="edge3_Node000003_Node000004" class="edge">
<title>Node3&#45;&gt;Node4</title>
<g id="a_edge3_Node000003_Node000004"><a xlink:title=" ">
<path fill="none" stroke="#63b8ff" d="M496.73,-494.84C461.38,-476.04 377.35,-431.33 335.13,-408.87"/>
<polygon fill="#63b8ff" stroke="#63b8ff" points="336.54,-405.65 326.06,-404.05 333.25,-411.83 336.54,-405.65"/>
</a>
</g>
</g>
<!-- Node12 -->
<g id="Node000012" class="node">
<title>Node12</title>
<g id="a_Node000012"><a xlink:href="src_2util_2invariant_8h.html" target="_top" xlink:title=" ">
<polygon fill="#fff0f0" stroke="red" points="740.5,-74 671.5,-74 671.5,-55 740.5,-55 740.5,-74"/>
<text text-anchor="middle" x="706" y="-62" font-family="Helvetica,sans-Serif" font-size="10.00">invariant.h</text>
</a>
</g>
</g>
<!-- Node3&#45;&gt;Node12 -->
<g id="edge34_Node000003_Node000012" class="edge">
<title>Node3&#45;&gt;Node12</title>
<g id="a_edge34_Node000003_Node000012"><a xlink:title=" ">
<path fill="none" stroke="#63b8ff" d="M559.07,-500.74C646.85,-495.02 831.11,-480.55 850,-459 871.68,-434.27 855.36,-417.45 850,-385 837.39,-308.59 830.31,-288.4 794,-220 770.2,-175.17 747.98,-174.26 725,-129 717.75,-114.72 712.76,-97.19 709.73,-84.17"/>
<polygon fill="#63b8ff" stroke="#63b8ff" points="713.08,-83.12 707.55,-74.08 706.24,-84.6 713.08,-83.12"/>
</a>
</g>
</g>
<!-- Node32 -->
<g id="Node000032" class="node">
<title>Node32</title>
<g id="a_Node000032"><a xlink:href="validate_8h.html" target="_top" xlink:title=" ">
<polygon fill="white" stroke="#666666" points="544.5,-294 479.5,-294 479.5,-275 544.5,-275 544.5,-294"/>
<text text-anchor="middle" x="512" y="-282" font-family="Helvetica,sans-Serif" font-size="10.00">validate.h</text>
</a>
</g>
</g>
<!-- Node3&#45;&gt;Node32 -->
<g id="edge39_Node000003_Node000032" class="edge">
<title>Node3&#45;&gt;Node32</title>
<g id="a_edge39_Node000003_Node000032"><a xlink:title=" ">
<path fill="none" stroke="#63b8ff" d="M523.31,-494.82C532.21,-486.62 544.48,-473.45 550,-459 570.47,-405.42 575.18,-383.31 554,-330 549.48,-318.63 540.53,-308.48 532.04,-300.76"/>
<polygon fill="#63b8ff" stroke="#63b8ff" points="534.11,-297.92 524.21,-294.14 529.59,-303.27 534.11,-297.92"/>
</a>
</g>
</g>
<!-- Node38 -->
<g id="Node000038" class="node">
<title>Node38</title>
<g id="a_Node000038"><a xlink:href="expr__cast_8h.html" target="_top" xlink:title="Templated functions to cast to specific exprt&#45;derived classes.">
<polygon fill="white" stroke="#666666" points="287.5,-459 214.5,-459 214.5,-440 287.5,-440 287.5,-459"/>
<text text-anchor="middle" x="251" y="-447" font-family="Helvetica,sans-Serif" font-size="10.00">expr_cast.h</text>
</a>
</g>
</g>
<!-- Node3&#45;&gt;Node38 -->
<g id="edge28_Node000003_Node000038" class="edge">
<title>Node3&#45;&gt;Node38</title>
<g id="a_edge28_Node000003_Node000038"><a xlink:title=" ">
<path fill="none" stroke="#63b8ff" d="M470.91,-494.98C423.64,-485.42 347.14,-469.95 297.97,-460"/>
<polygon fill="#63b8ff" stroke="#63b8ff" points="298.4,-456.52 287.91,-457.97 297.02,-463.38 298.4,-456.52"/>
</a>
</g>
</g>
<!-- Node40 -->
<g id="Node000040" class="node">
<title>Node40</title>
<g id="a_Node000040"><a xlink:href="mp__arith_8h.html" target="_top" xlink:title=" ">
<polygon fill="white" stroke="#666666" points="840.5,-459 771.5,-459 771.5,-440 840.5,-440 840.5,-459"/>
<text text-anchor="middle" x="806" y="-447" font-family="Helvetica,sans-Serif" font-size="10.00">mp_arith.h</text>
</a>
</g>
</g>
<!-- Node3&#45;&gt;Node40 -->
<g id="edge35_Node000003_Node000040" class="edge">
<title>Node3&#45;&gt;Node40</title>
<g id="a_edge35_Node000003_Node000040"><a xlink:title=" ">
<path fill="none" stroke="#63b8ff" d="M559.1,-495.16C614.36,-485.16 706.35,-468.53 761.08,-458.63"/>
<polygon fill="#63b8ff" stroke="#63b8ff" points="761.96,-462.02 771.18,-456.8 760.71,-455.14 761.96,-462.02"/>
</a>
</g>
</g>
<!-- Node23 -->
<g id="Node000023" class="node">
<title>Node23</title>
<g id="a_Node000023"><a xlink:title=" ">
<polygon fill="#e0e0e0" stroke="#999999" points="540.5,-459 447.5,-459 447.5,-440 540.5,-440 540.5,-459"/>
<text text-anchor="middle" x="494" y="-447" font-family="Helvetica,sans-Serif" font-size="10.00">unordered_map</text>
</a>
</g>
</g>
<!-- Node3&#45;&gt;Node23 -->
<g id="edge40_Node000003_Node000023" class="edge">
<title>Node3&#45;&gt;Node23</title>
<g id="a_edge40_Node000003_Node000023"><a xlink:title=" ">
<path fill="none" stroke="#63b8ff" d="M509.86,-494.75C507.32,-487.65 503.64,-477.4 500.47,-468.56"/>
<polygon fill="#63b8ff" stroke="#63b8ff" points="503.75,-467.32 497.08,-459.09 497.16,-469.68 503.75,-467.32"/>
</a>
</g>
</g>
<!-- Node5 -->
<g id="Node000005" class="node">
<title>Node5</title>
<g id="a_Node000005"><a xlink:href="as__const_8h.html" target="_top" xlink:title=" ">
<polygon fill="white" stroke="#666666" points="545,-349 477,-349 477,-330 545,-330 545,-349"/>
<text text-anchor="middle" x="511" y="-337" font-family="Helvetica,sans-Serif" font-size="10.00">as_const.h</text>
</a>
</g>
</g>
<!-- Node4&#45;&gt;Node5 -->
<g id="edge4_Node000004_Node000005" class="edge">
<title>Node4&#45;&gt;Node5</title>
<g id="a_edge4_Node000004_Node000005"><a xlink:title=" ">
<path fill="none" stroke="#63b8ff" d="M333.85,-387.21C367.09,-378.45 427.87,-362.42 468.85,-351.61"/>
<polygon fill="#63b8ff" stroke="#63b8ff" points="469.78,-354.99 478.56,-349.05 467.99,-348.22 469.78,-354.99"/>
</a>
</g>
</g>
<!-- Node6 -->
<g id="Node000006" class="node">
<title>Node6</title>
<g id="a_Node000006"><a xlink:href="type_8h.html" target="_top" xlink:title="Defines typet, type_with_subtypet and type_with_subtypest.">
<polygon fill="white" stroke="#666666" points="311.5,-349 264.5,-349 264.5,-330 311.5,-330 311.5,-349"/>
<text text-anchor="middle" x="288" y="-337" font-family="Helvetica,sans-Serif" font-size="10.00">type.h</text>
</a>
</g>
</g>
<!-- Node4&#45;&gt;Node6 -->
<g id="edge5_Node000004_Node000006" class="edge">
<title>Node4&#45;&gt;Node6</title>
<g id="a_edge5_Node000004_Node000006"><a xlink:title=" ">
<path fill="none" stroke="#63b8ff" d="M306.37,-384.75C303.42,-377.65 299.17,-367.4 295.49,-358.56"/>
<polygon fill="#63b8ff" stroke="#63b8ff" points="298.63,-356.98 291.57,-349.09 292.17,-359.67 298.63,-356.98"/>
</a>
</g>
</g>
<!-- Node34 -->
<g id="Node000034" class="node">
<title>Node34</title>
<g id="a_Node000034"><a xlink:href="validation__mode_8h.html" target="_top" xlink:title=" ">
<polygon fill="white" stroke="#666666" points="240.5,-239 133.5,-239 133.5,-220 240.5,-220 240.5,-239"/>
<text text-anchor="middle" x="187" y="-227" font-family="Helvetica,sans-Serif" font-size="10.00">validation_mode.h</text>
</a>
</g>
</g>
<!-- Node4&#45;&gt;Node34 -->
<g id="edge26_Node000004_Node000034" class="edge">
<title>Node4&#45;&gt;Node34</title>
<g id="a_edge26_Node000004_Node000034"><a xlink:title=" ">
<path fill="none" stroke="#63b8ff" d="M294.84,-384.92C281.6,-376.88 262.43,-363.9 249,-349 221.51,-318.51 202.41,-273.6 193.23,-248.74"/>
<polygon fill="#63b8ff" stroke="#63b8ff" points="196.46,-247.38 189.81,-239.13 189.87,-249.73 196.46,-247.38"/>
</a>
</g>
</g>
<!-- Node35 -->
<g id="Node000035" class="node">
<title>Node35</title>
<g id="a_Node000035"><a xlink:href="validate__types_8h.html" target="_top" xlink:title=" ">
<polygon fill="white" stroke="#666666" points="324,-294 226,-294 226,-275 324,-275 324,-294"/>
<text text-anchor="middle" x="275" y="-282" font-family="Helvetica,sans-Serif" font-size="10.00">validate_types.h</text>
</a>
</g>
</g>
<!-- Node4&#45;&gt;Node35 -->
<g id="edge25_Node000004_Node000035" class="edge">
<title>Node4&#45;&gt;Node35</title>
<g id="a_edge25_Node000004_Node000035"><a xlink:title=" ">
<path fill="none" stroke="#63b8ff" d="M293.11,-384.95C280.29,-377.43 263.62,-365.15 256,-349 248.96,-334.07 255.77,-315.94 263.13,-302.88"/>
<polygon fill="#63b8ff" stroke="#63b8ff" points="266.33,-304.35 268.63,-294.01 260.38,-300.66 266.33,-304.35"/>
</a>
</g>
</g>
<!-- Node36 -->
<g id="Node000036" class="node">
<title>Node36</title>
<g id="a_Node000036"><a xlink:href="validate__expressions_8h.html" target="_top" xlink:title=" ">
<polygon fill="white" stroke="#666666" points="458.5,-349 329.5,-349 329.5,-330 458.5,-330 458.5,-349"/>
<text text-anchor="middle" x="394" y="-337" font-family="Helvetica,sans-Serif" font-size="10.00">validate_expressions.h</text>
</a>
</g>
</g>
<!-- Node4&#45;&gt;Node36 -->
<g id="edge24_Node000004_Node000036" class="edge">
<title>Node4&#45;&gt;Node36</title>
<g id="a_edge24_Node000004_Node000036"><a xlink:title=" ">
<path fill="none" stroke="#63b8ff" d="M323.5,-384.98C336.4,-376.84 356.1,-364.41 371.4,-354.76"/>
<polygon fill="#63b8ff" stroke="#63b8ff" points="373.67,-357.47 380.26,-349.17 369.93,-351.55 373.67,-357.47"/>
</a>
</g>
</g>
<!-- Node37 -->
<g id="Node000037" class="node">
<title>Node37</title>
<g id="a_Node000037"><a xlink:title=" ">
<polygon fill="#e0e0e0" stroke="#999999" points="169.5,-349 104.5,-349 104.5,-330 169.5,-330 169.5,-349"/>
<text text-anchor="middle" x="137" y="-337" font-family="Helvetica,sans-Serif" font-size="10.00">functional</text>
</a>
</g>
</g>
<!-- Node4&#45;&gt;Node37 -->
<g id="edge27_Node000004_Node000037" class="edge">
<title>Node4&#45;&gt;Node37</title>
<g id="a_edge27_Node000004_Node000037"><a xlink:title=" ">
<path fill="none" stroke="#63b8ff" d="M286.31,-386.24C257.5,-377.42 208.54,-362.42 174.57,-352.01"/>
<polygon fill="#63b8ff" stroke="#63b8ff" points="175.57,-348.66 164.98,-349.07 173.52,-355.35 175.57,-348.66"/>
</a>
</g>
</g>
<!-- Node7 -->
<g id="Node000007" class="node">
<title>Node7</title>
<g id="a_Node000007"><a xlink:href="source__location_8h.html" target="_top" xlink:title=" ">
<polygon fill="white" stroke="#666666" points="896,-184 794,-184 794,-165 896,-165 896,-184"/>
<text text-anchor="middle" x="845" y="-172" font-family="Helvetica,sans-Serif" font-size="10.00">source_location.h</text>
</a>
</g>
</g>
<!-- Node6&#45;&gt;Node7 -->
<g id="edge6_Node000006_Node000007" class="edge">
<title>Node6&#45;&gt;Node7</title>
<g id="a_edge6_Node000006_Node000007"><a xlink:title=" ">
<path fill="none" stroke="#63b8ff" d="M310.94,-329.95C345.43,-317.22 412.81,-292.87 471,-275 561.17,-247.3 584.83,-244.23 676,-220 718.92,-208.59 768,-195.68 802.17,-186.72"/>
<polygon fill="#63b8ff" stroke="#63b8ff" points="803.49,-189.99 812.27,-184.07 801.71,-183.22 803.49,-189.99"/>
</a>
</g>
</g>
<!-- Node6&#45;&gt;Node32 -->
<g id="edge15_Node000006_Node000032" class="edge">
<title>Node6&#45;&gt;Node32</title>
<g id="a_edge15_Node000006_Node000032"><a xlink:title=" ">
<path fill="none" stroke="#63b8ff" d="M311.78,-332.31C314.88,-331.52 318.01,-330.73 321,-330 371.85,-317.53 430.52,-303.99 469.27,-295.16"/>
<polygon fill="#63b8ff" stroke="#63b8ff" points="470.19,-298.54 479.16,-292.91 468.63,-291.71 470.19,-298.54"/>
</a>
</g>
</g>
<!-- Node6&#45;&gt;Node34 -->
<g id="edge23_Node000006_Node000034" class="edge">
<title>Node6&#45;&gt;Node34</title>
<g id="a_edge23_Node000006_Node000034"><a xlink:title=" ">
<path fill="none" stroke="#63b8ff" d="M301.67,-330C319.66,-317.74 347.39,-294.44 333,-275 322.26,-260.5 281.62,-248.83 245.94,-241.09"/>
<polygon fill="#63b8ff" stroke="#63b8ff" points="246.54,-237.64 236.04,-239.01 245.11,-244.49 246.54,-237.64"/>
</a>
</g>
</g>
<!-- Node6&#45;&gt;Node35 -->
<g id="edge22_Node000006_Node000035" class="edge">
<title>Node6&#45;&gt;Node35</title>
<g id="a_edge22_Node000006_Node000035"><a xlink:title=" ">
<path fill="none" stroke="#63b8ff" d="M285.85,-329.75C284.13,-322.72 281.65,-312.62 279.5,-303.84"/>
<polygon fill="#63b8ff" stroke="#63b8ff" points="282.89,-302.97 277.11,-294.09 276.09,-304.63 282.89,-302.97"/>
</a>
</g>
</g>
<!-- Node8 -->
<g id="Node000008" class="node">
<title>Node8</title>
<g id="a_Node000008"><a xlink:href="deprecate_8h.html" target="_top" xlink:title=" ">
<polygon fill="white" stroke="#666666" points="882,-129 808,-129 808,-110 882,-110 882,-129"/>
<text text-anchor="middle" x="845" y="-117" font-family="Helvetica,sans-Serif" font-size="10.00">deprecate.h</text>
</a>
</g>
</g>
<!-- Node7&#45;&gt;Node8 -->
<g id="edge7_Node000007_Node000008" class="edge">
<title>Node7&#45;&gt;Node8</title>
<g id="a_edge7_Node000007_Node000008"><a xlink:title=" ">
<path fill="none" stroke="#63b8ff" d="M845,-164.75C845,-157.8 845,-147.85 845,-139.13"/>
<polygon fill="#63b8ff" stroke="#63b8ff" points="848.5,-139.09 845,-129.09 841.5,-139.09 848.5,-139.09"/>
</a>
</g>
</g>
<!-- Node9 -->
<g id="Node000009" class="node">
<title>Node9</title>
<g id="a_Node000009"><a xlink:href="irep_8h.html" target="_top" xlink:title=" ">
<polygon fill="#fff0f0" stroke="red" points="1058,-129 1014,-129 1014,-110 1058,-110 1058,-129"/>
<text text-anchor="middle" x="1036" y="-117" font-family="Helvetica,sans-Serif" font-size="10.00">irep.h</text>
</a>
</g>
</g>
<!-- Node7&#45;&gt;Node9 -->
<g id="edge8_Node000007_Node000009" class="edge">
<title>Node7&#45;&gt;Node9</title>
<g id="a_edge8_Node000007_Node000009"><a xlink:title=" ">
<path fill="none" stroke="#63b8ff" d="M875.69,-164.98C910.82,-155.24 968.09,-139.34 1003.83,-129.43"/>
<polygon fill="#63b8ff" stroke="#63b8ff" points="1005.04,-132.72 1013.74,-126.68 1003.17,-125.98 1005.04,-132.72"/>
</a>
</g>
</g>
<!-- Node10 -->
<g id="Node000010" class="node">
<title>Node10</title>
<g id="a_Node000010"><a xlink:title=" ">
<polygon fill="#e0e0e0" stroke="#999999" points="1129,-19 1085,-19 1085,0 1129,0 1129,-19"/>
<text text-anchor="middle" x="1107" y="-7" font-family="Helvetica,sans-Serif" font-size="10.00">string</text>
</a>
</g>
</g>
<!-- Node7&#45;&gt;Node10 -->
<g id="edge14_Node000007_Node000010" class="edge">
<title>Node7&#45;&gt;Node10</title>
<g id="a_edge14_Node000007_Node000010"><a xlink:title=" ">
<path fill="none" stroke="#63b8ff" d="M858.72,-164.97C901.33,-138.46 1031.7,-57.35 1084.47,-24.52"/>
<polygon fill="#63b8ff" stroke="#63b8ff" points="1086.46,-27.4 1093.1,-19.15 1082.76,-21.46 1086.46,-27.4"/>
</a>
</g>
</g>
<!-- Node31 -->
<g id="Node000031" class="node">
<title>Node31</title>
<g id="a_Node000031"><a xlink:title=" ">
<polygon fill="#e0e0e0" stroke="#999999" points="790,-129 734,-129 734,-110 790,-110 790,-129"/>
<text text-anchor="middle" x="762" y="-117" font-family="Helvetica,sans-Serif" font-size="10.00">optional</text>
</a>
</g>
</g>
<!-- Node7&#45;&gt;Node31 -->
<g id="edge13_Node000007_Node000031" class="edge">
<title>Node7&#45;&gt;Node31</title>
<g id="a_edge13_Node000007_Node000031"><a xlink:title=" ">
<path fill="none" stroke="#63b8ff" d="M831.66,-164.98C818.91,-156.84 799.45,-144.41 784.33,-134.76"/>
<polygon fill="#63b8ff" stroke="#63b8ff" points="785.89,-131.6 775.58,-129.17 782.12,-137.5 785.89,-131.6"/>
</a>
</g>
</g>
<!-- Node9&#45;&gt;Node10 -->
<g id="edge9_Node000009_Node000010" class="edge">
<title>Node9&#45;&gt;Node10</title>
<g id="a_edge9_Node000009_Node000010"><a xlink:title=" ">
<path fill="none" stroke="#63b8ff" d="M1041.81,-109.66C1053.57,-91.77 1080.37,-51 1095.7,-27.69"/>
<polygon fill="#63b8ff" stroke="#63b8ff" points="1098.74,-29.44 1101.31,-19.16 1092.89,-25.59 1098.74,-29.44"/>
</a>
</g>
</g>
<!-- Node9&#45;&gt;Node12 -->
<g id="edge10_Node000009_Node000012" class="edge">
<title>Node9&#45;&gt;Node12</title>
<g id="a_edge10_Node000009_Node000012"><a xlink:title=" ">
<path fill="none" stroke="#63b8ff" d="M1013.98,-113C1009.37,-111.93 1004.54,-110.88 1000,-110 912.21,-93.02 808.62,-78.65 750.8,-71.12"/>
<polygon fill="#63b8ff" stroke="#63b8ff" points="750.92,-67.61 740.56,-69.8 750.02,-74.55 750.92,-67.61"/>
</a>
</g>
</g>
<!-- Node12&#45;&gt;Node10 -->
<g id="edge11_Node000012_Node000010" class="edge">
<title>Node12&#45;&gt;Node10</title>
<g id="a_edge11_Node000012_Node000010"><a xlink:title=" ">
<path fill="none" stroke="#63b8ff" d="M740.54,-58.94C817.13,-48.81 1000.33,-24.6 1074.75,-14.76"/>
<polygon fill="#63b8ff" stroke="#63b8ff" points="1075.46,-18.2 1084.91,-13.42 1074.54,-11.26 1075.46,-18.2"/>
</a>
</g>
</g>
<!-- Node15 -->
<g id="Node000015" class="node">
<title>Node15</title>
<g id="a_Node000015"><a xlink:title=" ">
<polygon fill="#e0e0e0" stroke="#999999" points="72.5,-19 3.5,-19 3.5,0 72.5,0 72.5,-19"/>
<text text-anchor="middle" x="38" y="-7" font-family="Helvetica,sans-Serif" font-size="10.00">type_traits</text>
</a>
</g>
</g>
<!-- Node12&#45;&gt;Node15 -->
<g id="edge12_Node000012_Node000015" class="edge">
<title>Node12&#45;&gt;Node15</title>
<g id="a_edge12_Node000012_Node000015"><a xlink:title=" ">
<path fill="none" stroke="#63b8ff" d="M671.49,-60.76C559.75,-51.9 207.84,-23.98 82.71,-14.05"/>
<polygon fill="#63b8ff" stroke="#63b8ff" points="82.95,-10.56 72.7,-13.25 82.39,-17.53 82.95,-10.56"/>
</a>
</g>
</g>
<!-- Node32&#45;&gt;Node15 -->
<g id="edge16_Node000032_Node000015" class="edge">
<title>Node32&#45;&gt;Node15</title>
<g id="a_edge16_Node000032_Node000015"><a xlink:title=" ">
<path fill="none" stroke="#63b8ff" d="M497.03,-274.88C428.69,-235.52 146.06,-72.73 61.81,-24.21"/>
<polygon fill="#63b8ff" stroke="#63b8ff" points="63.38,-21.08 52.97,-19.12 59.89,-27.15 63.38,-21.08"/>
</a>
</g>
</g>
<!-- Node33 -->
<g id="Node000033" class="node">
<title>Node33</title>
<g id="a_Node000033"><a xlink:href="exception__utils_8h.html" target="_top" xlink:title=" ">
<polygon fill="white" stroke="#666666" points="785,-239 685,-239 685,-220 785,-220 785,-239"/>
<text text-anchor="middle" x="735" y="-227" font-family="Helvetica,sans-Serif" font-size="10.00">exception_utils.h</text>
</a>
</g>
</g>
<!-- Node32&#45;&gt;Node33 -->
<g id="edge17_Node000032_Node000033" class="edge">
<title>Node32&#45;&gt;Node33</title>
<g id="a_edge17_Node000032_Node000033"><a xlink:title=" ">
<path fill="none" stroke="#63b8ff" d="M544.9,-275.68C583.04,-266.62 646.13,-251.62 689.08,-241.41"/>
<polygon fill="#63b8ff" stroke="#63b8ff" points="690.08,-244.77 699,-239.06 688.46,-237.96 690.08,-244.77"/>
</a>
</g>
</g>
<!-- Node32&#45;&gt;Node34 -->
<g id="edge21_Node000032_Node000034" class="edge">
<title>Node32&#45;&gt;Node34</title>
<g id="a_edge21_Node000032_Node000034"><a xlink:title=" ">
<path fill="none" stroke="#63b8ff" d="M479.35,-278.18C425.76,-269.44 318.26,-251.91 249.61,-240.71"/>
<polygon fill="#63b8ff" stroke="#63b8ff" points="249.8,-237.19 239.36,-239.04 248.67,-244.1 249.8,-237.19"/>
</a>
</g>
</g>
<!-- Node33&#45;&gt;Node7 -->
<g id="edge20_Node000033_Node000007" class="edge">
<title>Node33&#45;&gt;Node7</title>
<g id="a_edge20_Node000033_Node000007"><a xlink:title=" ">
<path fill="none" stroke="#63b8ff" d="M752.67,-219.98C770.29,-211.5 797.58,-198.35 817.93,-188.54"/>
<polygon fill="#63b8ff" stroke="#63b8ff" points="819.52,-191.66 827.01,-184.17 816.48,-185.36 819.52,-191.66"/>
</a>
</g>
</g>
<!-- Node33&#45;&gt;Node10 -->
<g id="edge18_Node000033_Node000010" class="edge">
<title>Node33&#45;&gt;Node10</title>
<g id="a_edge18_Node000033_Node000010"><a xlink:title=" ">
<path fill="none" stroke="#63b8ff" d="M785.18,-226.39C884.81,-221.68 1099.95,-208.73 1122,-184 1161.02,-140.23 1132.31,-63.21 1116.1,-28.43"/>
<polygon fill="#63b8ff" stroke="#63b8ff" points="1119.07,-26.54 1111.56,-19.08 1112.78,-29.6 1119.07,-26.54"/>
</a>
</g>
</g>
<!-- Node33&#45;&gt;Node12 -->
<g id="edge19_Node000033_Node000012" class="edge">
<title>Node33&#45;&gt;Node12</title>
<g id="a_edge19_Node000033_Node000012"><a xlink:title=" ">
<path fill="none" stroke="#63b8ff" d="M729.81,-219.85C720.06,-203.06 699.36,-164.57 692,-129 688.82,-113.63 693.23,-96.22 697.91,-83.52"/>
<polygon fill="#63b8ff" stroke="#63b8ff" points="701.22,-84.69 701.76,-74.11 694.74,-82.05 701.22,-84.69"/>
</a>
</g>
</g>
<!-- Node38&#45;&gt;Node4 -->
<g id="edge33_Node000038_Node000004" class="edge">
<title>Node38&#45;&gt;Node4</title>
<g id="a_edge33_Node000038_Node000004"><a xlink:title=" ">
<path fill="none" stroke="#63b8ff" d="M260.48,-439.98C269.2,-432.15 282.34,-420.34 292.9,-410.86"/>
<polygon fill="#63b8ff" stroke="#63b8ff" points="295.25,-413.46 300.35,-404.17 290.57,-408.25 295.25,-413.46"/>
</a>
</g>
</g>
<!-- Node38&#45;&gt;Node12 -->
<g id="edge32_Node000038_Node000012" class="edge">
<title>Node38&#45;&gt;Node12</title>
<g id="a_edge32_Node000038_Node000012"><a xlink:title=" ">
<path fill="none" stroke="#63b8ff" d="M222.73,-439.97C185.62,-427.07 122.02,-398.66 95,-349 74.8,-311.87 46.01,-298.49 125,-220 202.16,-143.33 538.8,-89.09 661.26,-71.58"/>
<polygon fill="#63b8ff" stroke="#63b8ff" points="661.99,-75.01 671.41,-70.14 661.01,-68.08 661.99,-75.01"/>
</a>
</g>
</g>
<!-- Node38&#45;&gt;Node15 -->
<g id="edge30_Node000038_Node000015" class="edge">
<title>Node38&#45;&gt;Node15</title>
<g id="a_edge30_Node000038_Node000015"><a xlink:title=" ">
<path fill="none" stroke="#63b8ff" d="M214.23,-442.24C144.52,-428.04 0,-386.43 0,-285.5 0,-285.5 0,-285.5 0,-118.5 0,-85.02 16.45,-48.84 27.7,-28.01"/>
<polygon fill="#63b8ff" stroke="#63b8ff" points="30.87,-29.53 32.72,-19.1 24.76,-26.1 30.87,-29.53"/>
</a>
</g>
</g>
<!-- Node38&#45;&gt;Node37 -->
<g id="edge31_Node000038_Node000037" class="edge">
<title>Node38&#45;&gt;Node37</title>
<g id="a_edge31_Node000038_Node000037"><a xlink:title=" ">
<path fill="none" stroke="#63b8ff" d="M241.39,-439.69C231.66,-430.75 216.22,-416.48 203,-404 185.96,-387.91 166.66,-369.29 153.35,-356.4"/>
<polygon fill="#63b8ff" stroke="#63b8ff" points="155.53,-353.63 145.92,-349.18 150.66,-358.66 155.53,-353.63"/>
</a>
</g>
</g>
<!-- Node39 -->
<g id="Node000039" class="node">
<title>Node39</title>
<g id="a_Node000039"><a xlink:title=" ">
<polygon fill="#e0e0e0" stroke="#999999" points="268.5,-404 211.5,-404 211.5,-385 268.5,-385 268.5,-404"/>
<text text-anchor="middle" x="240" y="-392" font-family="Helvetica,sans-Serif" font-size="10.00">typeinfo</text>
</a>
</g>
</g>
<!-- Node38&#45;&gt;Node39 -->
<g id="edge29_Node000038_Node000039" class="edge">
<title>Node38&#45;&gt;Node39</title>
<g id="a_edge29_Node000038_Node000039"><a xlink:title=" ">
<path fill="none" stroke="#63b8ff" d="M249.18,-439.75C247.74,-432.8 245.68,-422.85 243.87,-414.13"/>
<polygon fill="#63b8ff" stroke="#63b8ff" points="247.24,-413.17 241.78,-404.09 240.39,-414.59 247.24,-413.17"/>
</a>
</g>
</g>
<!-- Node40&#45;&gt;Node10 -->
<g id="edge37_Node000040_Node000010" class="edge">
<title>Node40&#45;&gt;Node10</title>
<g id="a_edge37_Node000040_Node000010"><a xlink:title=" ">
<path fill="none" stroke="#63b8ff" d="M824.24,-439.93C899.13,-404.15 1179,-264.48 1179,-175.5 1179,-175.5 1179,-175.5 1179,-118.5 1179,-80.1 1147.11,-44.98 1125.77,-25.78"/>
<polygon fill="#63b8ff" stroke="#63b8ff" points="1127.79,-22.89 1117.94,-19 1123.21,-28.19 1127.79,-22.89"/>
</a>
</g>
</g>
<!-- Node18 -->
<g id="Node000018" class="node">
<title>Node18</title>
<g id="a_Node000018"><a xlink:title=" ">
<polygon fill="#e0e0e0" stroke="#999999" points="729,-404 681,-404 681,-385 729,-385 729,-404"/>
<text text-anchor="middle" x="705" y="-392" font-family="Helvetica,sans-Serif" font-size="10.00">iosfwd</text>
</a>
</g>
</g>
<!-- Node40&#45;&gt;Node18 -->
<g id="edge36_Node000040_Node000018" class="edge">
<title>Node40&#45;&gt;Node18</title>
<g id="a_edge36_Node000040_Node000018"><a xlink:title=" ">
<path fill="none" stroke="#63b8ff" d="M789.77,-439.98C773.82,-431.61 749.22,-418.7 730.62,-408.95"/>
<polygon fill="#63b8ff" stroke="#63b8ff" points="732,-405.72 721.52,-404.17 728.75,-411.92 732,-405.72"/>
</a>
</g>
</g>
<!-- Node41 -->
<g id="Node000041" class="node">
<title>Node41</title>
<g id="a_Node000041"><a xlink:title=" ">
<polygon fill="#e0e0e0" stroke="#999999" points="841,-404 747,-404 747,-385 841,-385 841,-404"/>
<text text-anchor="middle" x="794" y="-392" font-family="Helvetica,sans-Serif" font-size="10.00">big&#45;int/bigint.hh</text>
</a>
</g>
</g>
<!-- Node40&#45;&gt;Node41 -->
<g id="edge38_Node000040_Node000041" class="edge">
<title>Node40&#45;&gt;Node41</title>
<g id="a_edge38_Node000040_Node000041"><a xlink:title=" ">
<path fill="none" stroke="#63b8ff" d="M804.02,-439.75C802.43,-432.72 800.14,-422.62 798.15,-413.84"/>
<polygon fill="#63b8ff" stroke="#63b8ff" points="801.57,-413.07 795.94,-404.09 794.74,-414.62 801.57,-413.07"/>
</a>
</g>
</g>
<!-- Node42&#45;&gt;Node7 -->
<g id="edge43_Node000042_Node000007" class="edge">
<title>Node42&#45;&gt;Node7</title>
<g id="a_edge43_Node000042_Node000007"><a xlink:title=" ">
<path fill="none" stroke="#63b8ff" d="M890.18,-659.95C923.14,-645.06 983,-611.07 983,-560.5 983,-560.5 983,-560.5 983,-393.5 983,-305.22 901.2,-223.65 863.56,-190.79"/>
<polygon fill="#63b8ff" stroke="#63b8ff" points="865.71,-188.02 855.83,-184.19 861.16,-193.35 865.71,-188.02"/>
</a>
</g>
</g>
<!-- Node42&#45;&gt;Node10 -->
<g id="edge58_Node000042_Node000010" class="edge">
<title>Node42&#45;&gt;Node10</title>
<g id="a_edge58_Node000042_Node000010"><a xlink:title=" ">
<path fill="none" stroke="#63b8ff" d="M916.07,-667.08C984.4,-662.22 1103,-642.04 1103,-560.5 1103,-560.5 1103,-560.5 1103,-393.5 1103,-284.16 1217,-284.84 1217,-175.5 1217,-175.5 1217,-175.5 1217,-118.5 1217,-73.07 1168.64,-40.4 1136.05,-23.55"/>
<polygon fill="#63b8ff" stroke="#63b8ff" points="1137.43,-20.33 1126.92,-19.02 1134.32,-26.6 1137.43,-20.33"/>
</a>
</g>
</g>
<!-- Node42&#45;&gt;Node12 -->
<g id="edge42_Node000042_Node000012" class="edge">
<title>Node42&#45;&gt;Node12</title>
<g id="a_edge42_Node000042_Node000012"><a xlink:title=" ">
<path fill="none" stroke="#63b8ff" d="M905.02,-659.92C949.97,-646.82 1021,-617.15 1021,-560.5 1021,-560.5 1021,-560.5 1021,-338.5 1021,-226.17 1003.91,-175.98 913,-110 865.11,-75.25 795.61,-66.6 750.61,-64.98"/>
<polygon fill="#63b8ff" stroke="#63b8ff" points="750.64,-61.48 740.56,-64.71 750.46,-68.47 750.64,-61.48"/>
</a>
</g>
</g>
<!-- Node42&#45;&gt;Node18 -->
<g id="edge54_Node000042_Node000018" class="edge">
<title>Node42&#45;&gt;Node18</title>
<g id="a_edge54_Node000042_Node000018"><a xlink:title=" ">
<path fill="none" stroke="#63b8ff" d="M843.8,-659.91C807.03,-645.58 743,-613.08 743,-560.5 743,-560.5 743,-560.5 743,-503.5 743,-470.02 726.55,-433.84 715.3,-413.01"/>
<polygon fill="#63b8ff" stroke="#63b8ff" points="718.24,-411.1 710.28,-404.1 712.13,-414.53 718.24,-411.1"/>
</a>
</g>
</g>
<!-- Node43 -->
<g id="Node000043" class="node">
<title>Node43</title>
<g id="a_Node000043"><a xlink:href="goto__instruction__code_8h.html" target="_top" xlink:title=" ">
<polygon fill="white" stroke="#666666" points="674.5,-624 541.5,-624 541.5,-605 674.5,-605 674.5,-624"/>
<text text-anchor="middle" x="608" y="-612" font-family="Helvetica,sans-Serif" font-size="10.00">goto_instruction_code.h</text>
</a>
</g>
</g>
<!-- Node42&#45;&gt;Node43 -->
<g id="edge44_Node000042_Node000043" class="edge">
<title>Node42&#45;&gt;Node43</title>
<g id="a_edge44_Node000042_Node000043"><a xlink:title=" ">
<path fill="none" stroke="#63b8ff" d="M827.07,-659.98C781.73,-650.78 709.39,-636.09 660.35,-626.13"/>
<polygon fill="#63b8ff" stroke="#63b8ff" points="660.76,-622.64 650.26,-624.08 659.37,-629.5 660.76,-622.64"/>
</a>
</g>
</g>
<!-- Node46 -->
<g id="Node000046" class="node">
<title>Node46</title>
<g id="a_Node000046"><a xlink:title=" ">
<polygon fill="#e0e0e0" stroke="#999999" points="835,-624 791,-624 791,-605 835,-605 835,-624"/>
<text text-anchor="middle" x="813" y="-612" font-family="Helvetica,sans-Serif" font-size="10.00">limits</text>
</a>
</g>
</g>
<!-- Node42&#45;&gt;Node46 -->
<g id="edge55_Node000042_Node000046" class="edge">
<title>Node42&#45;&gt;Node46</title>
<g id="a_edge55_Node000042_Node000046"><a xlink:title=" ">
<path fill="none" stroke="#63b8ff" d="M860,-659.98C851.81,-652.23 839.49,-640.58 829.53,-631.14"/>
<polygon fill="#63b8ff" stroke="#63b8ff" points="831.83,-628.5 822.16,-624.17 827.02,-633.59 831.83,-628.5"/>
</a>
</g>
</g>
<!-- Node22 -->
<g id="Node000022" class="node">
<title>Node22</title>
<g id="a_Node000022"><a xlink:title=" ">
<polygon fill="#e0e0e0" stroke="#999999" points="885,-624 853,-624 853,-605 885,-605 885,-624"/>
<text text-anchor="middle" x="869" y="-612" font-family="Helvetica,sans-Serif" font-size="10.00">list</text>
</a>
</g>
</g>
<!-- Node42&#45;&gt;Node22 -->
<g id="edge56_Node000042_Node000022" class="edge">
<title>Node42&#45;&gt;Node22</title>
<g id="a_edge56_Node000042_Node000022"><a xlink:title=" ">
<path fill="none" stroke="#63b8ff" d="M869,-659.75C869,-652.8 869,-642.85 869,-634.13"/>
<polygon fill="#63b8ff" stroke="#63b8ff" points="872.5,-634.09 869,-624.09 865.5,-634.09 872.5,-634.09"/>
</a>
</g>
</g>
<!-- Node47 -->
<g id="Node000047" class="node">
<title>Node47</title>
<g id="a_Node000047"><a xlink:title=" ">
<polygon fill="#e0e0e0" stroke="#999999" points="935,-624 903,-624 903,-605 935,-605 935,-624"/>
<text text-anchor="middle" x="919" y="-612" font-family="Helvetica,sans-Serif" font-size="10.00">set</text>
</a>
</g>
</g>
<!-- Node42&#45;&gt;Node47 -->
<g id="edge57_Node000042_Node000047" class="edge">
<title>Node42&#45;&gt;Node47</title>
<g id="a_edge57_Node000042_Node000047"><a xlink:title=" ">
<path fill="none" stroke="#63b8ff" d="M877.26,-659.75C884.46,-652.11 895.11,-640.82 903.85,-631.56"/>
<polygon fill="#63b8ff" stroke="#63b8ff" points="906.58,-633.76 910.9,-624.09 901.49,-628.96 906.58,-633.76"/>
</a>
</g>
</g>
<!-- Node44 -->
<g id="Node000044" class="node">
<title>Node44</title>
<g id="a_Node000044"><a xlink:href="std__code__base_8h.html" target="_top" xlink:title=" ">
<polygon fill="white" stroke="#666666" points="665,-569 549,-569 549,-550 665,-550 665,-569"/>
<text text-anchor="middle" x="607" y="-557" font-family="Helvetica,sans-Serif" font-size="10.00">util/std_code_base.h</text>
</a>
</g>
</g>
<!-- Node43&#45;&gt;Node44 -->
<g id="edge45_Node000043_Node000044" class="edge">
<title>Node43&#45;&gt;Node44</title>
<g id="a_edge45_Node000043_Node000044"><a xlink:title=" ">
<path fill="none" stroke="#63b8ff" d="M607.83,-604.75C607.7,-597.8 607.52,-587.85 607.35,-579.13"/>
<polygon fill="#63b8ff" stroke="#63b8ff" points="610.85,-579.02 607.16,-569.09 603.85,-579.15 610.85,-579.02"/>
</a>
</g>
</g>
<!-- Node45 -->
<g id="Node000045" class="node">
<title>Node45</title>
<g id="a_Node000045"><a xlink:href="std__expr_8h.html" target="_top" xlink:title="API to expression classes.">
<polygon fill="white" stroke="#666666" points="396,-569 310,-569 310,-550 396,-550 396,-569"/>
<text text-anchor="middle" x="353" y="-557" font-family="Helvetica,sans-Serif" font-size="10.00">util/std_expr.h</text>
</a>
</g>
</g>
<!-- Node43&#45;&gt;Node45 -->
<g id="edge50_Node000043_Node000045" class="edge">
<title>Node43&#45;&gt;Node45</title>
<g id="a_edge50_Node000043_Node000045"><a xlink:title=" ">
<path fill="none" stroke="#63b8ff" d="M567.03,-604.98C522.74,-595.78 452.06,-581.09 404.15,-571.13"/>
<polygon fill="#63b8ff" stroke="#63b8ff" points="404.79,-567.69 394.29,-569.08 403.37,-574.54 404.79,-567.69"/>
</a>
</g>
</g>
<!-- Node44&#45;&gt;Node3 -->
<g id="edge48_Node000044_Node000003" class="edge">
<title>Node44&#45;&gt;Node3</title>
<g id="a_edge48_Node000044_Node000003"><a xlink:title=" ">
<path fill="none" stroke="#63b8ff" d="M591.9,-549.98C577.18,-541.69 554.58,-528.94 537.33,-519.22"/>
<polygon fill="#63b8ff" stroke="#63b8ff" points="538.81,-516.03 528.38,-514.17 535.37,-522.13 538.81,-516.03"/>
</a>
</g>
</g>
<!-- Node44&#45;&gt;Node12 -->
<g id="edge47_Node000044_Node000012" class="edge">
<title>Node44&#45;&gt;Node12</title>
<g id="a_edge47_Node000044_Node000012"><a xlink:title=" ">
<path fill="none" stroke="#63b8ff" d="M663.78,-549.94C750.75,-535.21 907,-501.63 907,-450.5 907,-450.5 907,-450.5 907,-393.5 907,-267.3 980.82,-198.65 891,-110 871.45,-90.71 799.23,-77.7 751.02,-70.96"/>
<polygon fill="#63b8ff" stroke="#63b8ff" points="751.21,-67.45 740.83,-69.57 750.27,-74.39 751.21,-67.45"/>
</a>
</g>
</g>
<!-- Node44&#45;&gt;Node32 -->
<g id="edge49_Node000044_Node000032" class="edge">
<title>Node44&#45;&gt;Node32</title>
<g id="a_edge49_Node000044_Node000032"><a xlink:title=" ">
<path fill="none" stroke="#63b8ff" d="M607.89,-549.82C610.74,-517.83 616.93,-404.53 571,-330 563.12,-317.2 550.09,-306.8 538.29,-299.28"/>
<polygon fill="#63b8ff" stroke="#63b8ff" points="539.98,-296.22 529.6,-294.1 536.39,-302.23 539.98,-296.22"/>
</a>
</g>
</g>
<!-- Node44&#45;&gt;Node38 -->
<g id="edge46_Node000044_Node000038" class="edge">
<title>Node44&#45;&gt;Node38</title>
<g id="a_edge46_Node000044_Node000038"><a xlink:title=" ">
<path fill="none" stroke="#63b8ff" d="M578.14,-549.95C548.11,-541.04 499.73,-526.63 458,-514 398.67,-496.04 329.88,-474.87 288.44,-462.08"/>
<polygon fill="#63b8ff" stroke="#63b8ff" points="289.36,-458.7 278.77,-459.09 287.29,-465.39 289.36,-458.7"/>
</a>
</g>
</g>
<!-- Node45&#45;&gt;Node3 -->
<g id="edge53_Node000045_Node000003" class="edge">
<title>Node45&#45;&gt;Node3</title>
<g id="a_edge53_Node000045_Node000003"><a xlink:title=" ">
<path fill="none" stroke="#63b8ff" d="M378.71,-549.98C405.45,-541.13 447.53,-527.19 477.45,-517.28"/>
<polygon fill="#63b8ff" stroke="#63b8ff" points="478.7,-520.55 487.09,-514.08 476.5,-513.9 478.7,-520.55"/>
</a>
</g>
</g>
<!-- Node45&#45;&gt;Node12 -->
<g id="edge52_Node000045_Node000012" class="edge">
<title>Node45&#45;&gt;Node12</title>
<g id="a_edge52_Node000045_Node000012"><a xlink:title=" ">
<path fill="none" stroke="#63b8ff" d="M326.14,-549.94C249.97,-523.82 38,-437.47 38,-285.5 38,-285.5 38,-285.5 38,-228.5 38,-99.83 511.69,-72.28 661.29,-66.78"/>
<polygon fill="#63b8ff" stroke="#63b8ff" points="661.62,-70.27 671.49,-66.43 661.38,-63.28 661.62,-70.27"/>
</a>
</g>
</g>
<!-- Node45&#45;&gt;Node38 -->
<g id="edge51_Node000045_Node000038" class="edge">
<title>Node45&#45;&gt;Node38</title>
<g id="a_edge51_Node000045_Node000038"><a xlink:title=" ">
<path fill="none" stroke="#63b8ff" d="M344.65,-549.66C327.46,-531.46 287.88,-489.55 266.08,-466.47"/>
<polygon fill="#63b8ff" stroke="#63b8ff" points="268.59,-464.03 259.18,-459.16 263.5,-468.83 268.59,-464.03"/>
</a>
</g>
</g>
<!-- Node48&#45;&gt;Node9 -->
<g id="edge61_Node000048_Node000009" class="edge">
<title>Node48&#45;&gt;Node9</title>
<g id="a_edge61_Node000048_Node000009"><a xlink:title=" ">
<path fill="none" stroke="#63b8ff" d="M1057.71,-164.75C1054.19,-157.57 1049.09,-147.18 1044.72,-138.27"/>
<polygon fill="#63b8ff" stroke="#63b8ff" points="1047.76,-136.53 1040.21,-129.09 1041.48,-139.61 1047.76,-136.53"/>
</a>
</g>
</g>
<!-- Node48&#45;&gt;Node12 -->
<g id="edge60_Node000048_Node000012" class="edge">
<title>Node48&#45;&gt;Node12</title>
<g id="a_edge60_Node000048_Node000012"><a xlink:title=" ">
<path fill="none" stroke="#63b8ff" d="M1066.16,-164.87C1072,-151.38 1080.48,-125.24 1067,-110 1046.36,-86.66 842.92,-72.85 750.85,-67.76"/>
<polygon fill="#63b8ff" stroke="#63b8ff" points="750.9,-64.26 740.72,-67.21 750.52,-71.25 750.9,-64.26"/>
</a>
</g>
</g>
<!-- Node49&#45;&gt;Node4 -->
<g id="edge64_Node000049_Node000004" class="edge">
<title>Node49&#45;&gt;Node4</title>
<g id="a_edge64_Node000049_Node000004"><a xlink:title=" ">
<path fill="none" stroke="#63b8ff" d="M634.89,-442.68C562.47,-432.16 411.13,-410.19 343.69,-400.39"/>
<polygon fill="#63b8ff" stroke="#63b8ff" points="344.01,-396.9 333.61,-398.93 343,-403.83 344.01,-396.9"/>
</a>
</g>
</g>
<!-- Node49&#45;&gt;Node12 -->
<g id="edge65_Node000049_Node000012" class="edge">
<title>Node49&#45;&gt;Node12</title>
<g id="a_edge65_Node000049_Node000012"><a xlink:title=" ">
<path fill="none" stroke="#63b8ff" d="M674.25,-439.98C673.51,-431.03 672.42,-416.54 672,-404 671.72,-395.56 671.9,-393.44 672,-385 673.48,-262.63 654.95,-228.38 686,-110 688.42,-100.78 692.57,-91.07 696.47,-83.08"/>
<polygon fill="#63b8ff" stroke="#63b8ff" points="699.66,-84.54 701.12,-74.05 693.43,-81.34 699.66,-84.54"/>
</a>
</g>
</g>
<!-- Node49&#45;&gt;Node18 -->
<g id="edge63_Node000049_Node000018" class="edge">
<title>Node49&#45;&gt;Node18</title>
<g id="a_edge63_Node000049_Node000018"><a xlink:title=" ">
<path fill="none" stroke="#63b8ff" d="M679.95,-439.75C684.06,-432.49 690.03,-421.95 695.1,-412.98"/>
<polygon fill="#63b8ff" stroke="#63b8ff" points="698.26,-414.52 700.14,-404.09 692.17,-411.07 698.26,-414.52"/>
</a>
</g>
</g>
</g>
</svg>
