<?xml version="1.0" encoding="UTF-8" standalone="no"?>
<!DOCTYPE svg PUBLIC "-//W3C//DTD SVG 1.1//EN"
 "http://www.w3.org/Graphics/SVG/1.1/DTD/svg11.dtd">
<!-- Generated by graphviz version 2.43.0 (0)
 -->
<!-- Title: /home/runner/work/cbmc/cbmc/src/util/interval.cpp Pages: 1 -->
<svg width="1160pt" height="643pt"
 viewBox="0.00 0.00 1160.00 643.00" xmlns="http://www.w3.org/2000/svg" xmlns:xlink="http://www.w3.org/1999/xlink">
<g id="graph0" class="graph" transform="scale(1 1) rotate(0) translate(4 639)">
<title>/home/runner/work/cbmc/cbmc/src/util/interval.cpp</title>
<!-- Node1 -->
<g id="Node000001" class="node">
<title>Node1</title>
<g id="a_Node000001"><a xlink:title=" ">
<polygon fill="#999999" stroke="#666666" points="910.5,-635 767.5,-635 767.5,-605 910.5,-605 910.5,-635"/>
<text text-anchor="start" x="775.5" y="-623" font-family="Helvetica,sans-Serif" font-size="10.00">/home/runner/work/cbmc</text>
<text text-anchor="middle" x="839" y="-612" font-family="Helvetica,sans-Serif" font-size="10.00">/cbmc/src/util/interval.cpp</text>
</a>
</g>
</g>
<!-- Node2 -->
<g id="Node000002" class="node">
<title>Node2</title>
<g id="a_Node000002"><a xlink:href="interval_8h.html" target="_top" xlink:title=" ">
<polygon fill="white" stroke="#666666" points="951.5,-514 888.5,-514 888.5,-495 951.5,-495 951.5,-514"/>
<text text-anchor="middle" x="920" y="-502" font-family="Helvetica,sans-Serif" font-size="10.00">interval.h</text>
</a>
</g>
</g>
<!-- Node1&#45;&gt;Node2 -->
<g id="edge1_Node000001_Node000002" class="edge">
<title>Node1&#45;&gt;Node2</title>
<g id="a_edge1_Node000001_Node000002"><a xlink:title=" ">
<path fill="none" stroke="#63b8ff" d="M849.26,-604.63C864.22,-583.65 891.99,-544.75 907.92,-522.42"/>
<polygon fill="#63b8ff" stroke="#63b8ff" points="910.81,-524.4 913.77,-514.23 905.11,-520.34 910.81,-524.4"/>
</a>
</g>
</g>
<!-- Node3 -->
<g id="Node000003" class="node">
<title>Node3</title>
<g id="a_Node000003"><a xlink:href="std__expr_8h.html" target="_top" xlink:title="API to expression classes.">
<polygon fill="white" stroke="#666666" points="696,-459 610,-459 610,-440 696,-440 696,-459"/>
<text text-anchor="middle" x="653" y="-447" font-family="Helvetica,sans-Serif" font-size="10.00">util/std_expr.h</text>
</a>
</g>
</g>
<!-- Node1&#45;&gt;Node3 -->
<g id="edge61_Node000001_Node000003" class="edge">
<title>Node1&#45;&gt;Node3</title>
<g id="a_edge61_Node000001_Node000003"><a xlink:title=" ">
<path fill="none" stroke="#63b8ff" d="M767.42,-611.74C737.24,-605.13 704.06,-592.62 682,-569 656.43,-541.62 652.35,-495.49 652.27,-469.6"/>
<polygon fill="#63b8ff" stroke="#63b8ff" points="655.78,-469.33 652.45,-459.27 648.78,-469.21 655.78,-469.33"/>
</a>
</g>
</g>
<!-- Node44 -->
<g id="Node000044" class="node">
<title>Node44</title>
<g id="a_Node000044"><a xlink:href="arith__tools_8h.html" target="_top" xlink:title=" ">
<polygon fill="white" stroke="#666666" points="812.5,-514 735.5,-514 735.5,-495 812.5,-495 812.5,-514"/>
<text text-anchor="middle" x="774" y="-502" font-family="Helvetica,sans-Serif" font-size="10.00">arith_tools.h</text>
</a>
</g>
</g>
<!-- Node1&#45;&gt;Node44 -->
<g id="edge44_Node000001_Node000044" class="edge">
<title>Node1&#45;&gt;Node44</title>
<g id="a_edge44_Node000001_Node000044"><a xlink:title=" ">
<path fill="none" stroke="#63b8ff" d="M830.77,-604.63C818.86,-583.84 796.87,-545.44 784.03,-523.02"/>
<polygon fill="#63b8ff" stroke="#63b8ff" points="787.01,-521.17 779,-514.23 780.93,-524.65 787.01,-521.17"/>
</a>
</g>
</g>
<!-- Node46 -->
<g id="Node000046" class="node">
<title>Node46</title>
<g id="a_Node000046"><a xlink:href="bitvector__expr_8h.html" target="_top" xlink:title="API to expression classes for bitvectors.">
<polygon fill="white" stroke="#666666" points="786.5,-569 691.5,-569 691.5,-550 786.5,-550 786.5,-569"/>
<text text-anchor="middle" x="739" y="-557" font-family="Helvetica,sans-Serif" font-size="10.00">bitvector_expr.h</text>
</a>
</g>
</g>
<!-- Node1&#45;&gt;Node46 -->
<g id="edge49_Node000001_Node000046" class="edge">
<title>Node1&#45;&gt;Node46</title>
<g id="a_edge49_Node000001_Node000046"><a xlink:title=" ">
<path fill="none" stroke="#63b8ff" d="M815.05,-604.99C799.11,-595.66 778.27,-583.47 762.44,-574.21"/>
<polygon fill="#63b8ff" stroke="#63b8ff" points="764.17,-571.17 753.77,-569.14 760.63,-577.21 764.17,-571.17"/>
</a>
</g>
</g>
<!-- Node47 -->
<g id="Node000047" class="node">
<title>Node47</title>
<g id="a_Node000047"><a xlink:href="c__types_8h.html" target="_top" xlink:title=" ">
<polygon fill="white" stroke="#666666" points="594.5,-569 531.5,-569 531.5,-550 594.5,-550 594.5,-569"/>
<text text-anchor="middle" x="563" y="-557" font-family="Helvetica,sans-Serif" font-size="10.00">c_types.h</text>
</a>
</g>
</g>
<!-- Node1&#45;&gt;Node47 -->
<g id="edge51_Node000001_Node000047" class="edge">
<title>Node1&#45;&gt;Node47</title>
<g id="a_edge51_Node000001_Node000047"><a xlink:title=" ">
<path fill="none" stroke="#63b8ff" d="M772.89,-604.99C720.66,-593.92 649.38,-578.81 604.78,-569.36"/>
<polygon fill="#63b8ff" stroke="#63b8ff" points="605.37,-565.9 594.87,-567.25 603.92,-572.75 605.37,-565.9"/>
</a>
</g>
</g>
<!-- Node50 -->
<g id="Node000050" class="node">
<title>Node50</title>
<g id="a_Node000050"><a xlink:href="namespace_8h.html" target="_top" xlink:title=" ">
<polygon fill="white" stroke="#666666" points="912,-184 830,-184 830,-165 912,-165 912,-184"/>
<text text-anchor="middle" x="871" y="-172" font-family="Helvetica,sans-Serif" font-size="10.00">namespace.h</text>
</a>
</g>
</g>
<!-- Node1&#45;&gt;Node50 -->
<g id="edge57_Node000001_Node000050" class="edge">
<title>Node1&#45;&gt;Node50</title>
<g id="a_edge57_Node000001_Node000050"><a xlink:title=" ">
<path fill="none" stroke="#63b8ff" d="M841.46,-604.93C847.39,-569.75 862,-475.07 862,-395.5 862,-395.5 862,-395.5 862,-283.5 862,-252.08 865.83,-215.7 868.49,-194.2"/>
<polygon fill="#63b8ff" stroke="#63b8ff" points="871.98,-194.52 869.79,-184.16 865.04,-193.63 871.98,-194.52"/>
</a>
</g>
</g>
<!-- Node51 -->
<g id="Node000051" class="node">
<title>Node51</title>
<g id="a_Node000051"><a xlink:href="simplify__expr_8h.html" target="_top" xlink:title=" ">
<polygon fill="white" stroke="#666666" points="1127.5,-569 1036.5,-569 1036.5,-550 1127.5,-550 1127.5,-569"/>
<text text-anchor="middle" x="1082" y="-557" font-family="Helvetica,sans-Serif" font-size="10.00">simplify_expr.h</text>
</a>
</g>
</g>
<!-- Node1&#45;&gt;Node51 -->
<g id="edge60_Node000001_Node000051" class="edge">
<title>Node1&#45;&gt;Node51</title>
<g id="a_edge60_Node000001_Node000051"><a xlink:title=" ">
<path fill="none" stroke="#63b8ff" d="M897.2,-604.99C939.96,-594.7 997.22,-580.91 1036.61,-571.43"/>
<polygon fill="#63b8ff" stroke="#63b8ff" points="1037.57,-574.8 1046.47,-569.05 1035.93,-567.99 1037.57,-574.8"/>
</a>
</g>
</g>
<!-- Node52 -->
<g id="Node000052" class="node">
<title>Node52</title>
<g id="a_Node000052"><a xlink:href="symbol__table_8h.html" target="_top" xlink:title="Author: Diffblue Ltd.">
<polygon fill="white" stroke="#666666" points="1018,-569 926,-569 926,-550 1018,-550 1018,-569"/>
<text text-anchor="middle" x="972" y="-557" font-family="Helvetica,sans-Serif" font-size="10.00">symbol_table.h</text>
</a>
</g>
</g>
<!-- Node1&#45;&gt;Node52 -->
<g id="edge62_Node000001_Node000052" class="edge">
<title>Node1&#45;&gt;Node52</title>
<g id="a_edge62_Node000001_Node000052"><a xlink:title=" ">
<path fill="none" stroke="#63b8ff" d="M870.86,-604.99C892.85,-595.31 921.85,-582.56 943.16,-573.18"/>
<polygon fill="#63b8ff" stroke="#63b8ff" points="944.61,-576.37 952.36,-569.14 941.8,-569.96 944.61,-576.37"/>
</a>
</g>
</g>
<!-- Node2&#45;&gt;Node3 -->
<g id="edge2_Node000002_Node000003" class="edge">
<title>Node2&#45;&gt;Node3</title>
<g id="a_edge2_Node000002_Node000003"><a xlink:title=" ">
<path fill="none" stroke="#63b8ff" d="M888.32,-497.21C843.33,-488.28 760.34,-471.81 705.91,-461"/>
<polygon fill="#63b8ff" stroke="#63b8ff" points="706.59,-457.57 696.1,-459.05 705.22,-464.44 706.59,-457.57"/>
</a>
</g>
</g>
<!-- Node21 -->
<g id="Node000021" class="node">
<title>Node21</title>
<g id="a_Node000021"><a xlink:title=" ">
<polygon fill="#e0e0e0" stroke="#999999" points="950,-294 902,-294 902,-275 950,-275 950,-294"/>
<text text-anchor="middle" x="926" y="-282" font-family="Helvetica,sans-Serif" font-size="10.00">iosfwd</text>
</a>
</g>
</g>
<!-- Node2&#45;&gt;Node21 -->
<g id="edge43_Node000002_Node000021" class="edge">
<title>Node2&#45;&gt;Node21</title>
<g id="a_edge43_Node000002_Node000021"><a xlink:title=" ">
<path fill="none" stroke="#63b8ff" d="M919.82,-494.87C919.46,-475.32 918.76,-426.13 920,-385 920.85,-356.8 923.05,-324.17 924.54,-304.19"/>
<polygon fill="#63b8ff" stroke="#63b8ff" points="928.04,-304.25 925.31,-294.01 921.06,-303.71 928.04,-304.25"/>
</a>
</g>
</g>
<!-- Node43 -->
<g id="Node000043" class="node">
<title>Node43</title>
<g id="a_Node000043"><a xlink:href="threeval_8h.html" target="_top" xlink:title=" ">
<polygon fill="white" stroke="#666666" points="1013.5,-404 928.5,-404 928.5,-385 1013.5,-385 1013.5,-404"/>
<text text-anchor="middle" x="971" y="-392" font-family="Helvetica,sans-Serif" font-size="10.00">util/threeval.h</text>
</a>
</g>
</g>
<!-- Node2&#45;&gt;Node43 -->
<g id="edge41_Node000002_Node000043" class="edge">
<title>Node2&#45;&gt;Node43</title>
<g id="a_edge41_Node000002_Node000043"><a xlink:title=" ">
<path fill="none" stroke="#63b8ff" d="M924.17,-494.66C932.55,-476.93 951.53,-436.73 962.59,-413.32"/>
<polygon fill="#63b8ff" stroke="#63b8ff" points="965.81,-414.7 966.91,-404.16 959.48,-411.71 965.81,-414.7"/>
</a>
</g>
</g>
<!-- Node4 -->
<g id="Node000004" class="node">
<title>Node4</title>
<g id="a_Node000004"><a xlink:href="expr__cast_8h.html" target="_top" xlink:title="Templated functions to cast to specific exprt&#45;derived classes.">
<polygon fill="white" stroke="#666666" points="481.5,-349 408.5,-349 408.5,-330 481.5,-330 481.5,-349"/>
<text text-anchor="middle" x="445" y="-337" font-family="Helvetica,sans-Serif" font-size="10.00">expr_cast.h</text>
</a>
</g>
</g>
<!-- Node3&#45;&gt;Node4 -->
<g id="edge3_Node000003_Node000004" class="edge">
<title>Node3&#45;&gt;Node4</title>
<g id="a_edge3_Node000003_Node000004"><a xlink:title=" ">
<path fill="none" stroke="#63b8ff" d="M613.7,-440C574.38,-431 517.06,-416.42 498,-404 479.84,-392.17 464.67,-372.21 455.28,-357.83"/>
<polygon fill="#63b8ff" stroke="#63b8ff" points="458.23,-355.95 449.97,-349.32 452.29,-359.66 458.23,-355.95"/>
</a>
</g>
</g>
<!-- Node8 -->
<g id="Node000008" class="node">
<title>Node8</title>
<g id="a_Node000008"><a xlink:href="src_2util_2invariant_8h.html" target="_top" xlink:title=" ">
<polygon fill="white" stroke="#666666" points="683.5,-74 614.5,-74 614.5,-55 683.5,-55 683.5,-74"/>
<text text-anchor="middle" x="649" y="-62" font-family="Helvetica,sans-Serif" font-size="10.00">invariant.h</text>
</a>
</g>
</g>
<!-- Node3&#45;&gt;Node8 -->
<g id="edge30_Node000003_Node000008" class="edge">
<title>Node3&#45;&gt;Node8</title>
<g id="a_edge30_Node000003_Node000008"><a xlink:title=" ">
<path fill="none" stroke="#63b8ff" d="M654.2,-439.96C657.44,-419.3 667.96,-365.7 694,-330 709.71,-308.46 726.75,-315.87 742,-294 758.85,-269.84 761,-259.96 761,-230.5 761,-230.5 761,-230.5 761,-173.5 761,-127.77 712.02,-95.29 678.84,-78.54"/>
<polygon fill="#63b8ff" stroke="#63b8ff" points="680.07,-75.24 669.54,-74.04 677.02,-81.54 680.07,-75.24"/>
</a>
</g>
</g>
<!-- Node40 -->
<g id="Node000040" class="node">
<title>Node40</title>
<g id="a_Node000040"><a xlink:href="std__types_8h.html" target="_top" xlink:title="Pre&#45;defined types.">
<polygon fill="white" stroke="#666666" points="580.5,-404 507.5,-404 507.5,-385 580.5,-385 580.5,-404"/>
<text text-anchor="middle" x="544" y="-392" font-family="Helvetica,sans-Serif" font-size="10.00">std_types.h</text>
</a>
</g>
</g>
<!-- Node3&#45;&gt;Node40 -->
<g id="edge31_Node000003_Node000040" class="edge">
<title>Node3&#45;&gt;Node40</title>
<g id="a_edge31_Node000003_Node000040"><a xlink:title=" ">
<path fill="none" stroke="#63b8ff" d="M635.49,-439.98C618.03,-431.5 590.99,-418.35 570.83,-408.54"/>
<polygon fill="#63b8ff" stroke="#63b8ff" points="572.36,-405.4 561.83,-404.17 569.29,-411.69 572.36,-405.4"/>
</a>
</g>
</g>
<!-- Node5 -->
<g id="Node000005" class="node">
<title>Node5</title>
<g id="a_Node000005"><a xlink:title=" ">
<polygon fill="#e0e0e0" stroke="#999999" points="417.5,-294 360.5,-294 360.5,-275 417.5,-275 417.5,-294"/>
<text text-anchor="middle" x="389" y="-282" font-family="Helvetica,sans-Serif" font-size="10.00">typeinfo</text>
</a>
</g>
</g>
<!-- Node4&#45;&gt;Node5 -->
<g id="edge4_Node000004_Node000005" class="edge">
<title>Node4&#45;&gt;Node5</title>
<g id="a_edge4_Node000004_Node000005"><a xlink:title=" ">
<path fill="none" stroke="#63b8ff" d="M436,-329.98C427.81,-322.23 415.49,-310.58 405.53,-301.14"/>
<polygon fill="#63b8ff" stroke="#63b8ff" points="407.83,-298.5 398.16,-294.17 403.02,-303.59 407.83,-298.5"/>
</a>
</g>
</g>
<!-- Node6 -->
<g id="Node000006" class="node">
<title>Node6</title>
<g id="a_Node000006"><a xlink:title=" ">
<polygon fill="#e0e0e0" stroke="#999999" points="87.5,-19 18.5,-19 18.5,0 87.5,0 87.5,-19"/>
<text text-anchor="middle" x="53" y="-7" font-family="Helvetica,sans-Serif" font-size="10.00">type_traits</text>
</a>
</g>
</g>
<!-- Node4&#45;&gt;Node6 -->
<g id="edge5_Node000004_Node000006" class="edge">
<title>Node4&#45;&gt;Node6</title>
<g id="a_edge5_Node000004_Node000006"><a xlink:title=" ">
<path fill="none" stroke="#63b8ff" d="M408.21,-337.42C301.59,-333.31 0,-314.27 0,-230.5 0,-230.5 0,-230.5 0,-118.5 0,-83.02 23.33,-47.08 39.04,-26.9"/>
<polygon fill="#63b8ff" stroke="#63b8ff" points="41.83,-29.01 45.41,-19.04 36.39,-24.61 41.83,-29.01"/>
</a>
</g>
</g>
<!-- Node7 -->
<g id="Node000007" class="node">
<title>Node7</title>
<g id="a_Node000007"><a xlink:title=" ">
<polygon fill="#e0e0e0" stroke="#999999" points="169.5,-239 104.5,-239 104.5,-220 169.5,-220 169.5,-239"/>
<text text-anchor="middle" x="137" y="-227" font-family="Helvetica,sans-Serif" font-size="10.00">functional</text>
</a>
</g>
</g>
<!-- Node4&#45;&gt;Node7 -->
<g id="edge6_Node000004_Node000007" class="edge">
<title>Node4&#45;&gt;Node7</title>
<g id="a_edge6_Node000004_Node000007"><a xlink:title=" ">
<path fill="none" stroke="#63b8ff" d="M420.57,-329.94C365.99,-310.79 233.99,-264.51 171.24,-242.51"/>
<polygon fill="#63b8ff" stroke="#63b8ff" points="172.02,-239.07 161.43,-239.07 169.71,-245.68 172.02,-239.07"/>
</a>
</g>
</g>
<!-- Node4&#45;&gt;Node8 -->
<g id="edge7_Node000004_Node000008" class="edge">
<title>Node4&#45;&gt;Node8</title>
<g id="a_edge7_Node000004_Node000008"><a xlink:title=" ">
<path fill="none" stroke="#63b8ff" d="M454.97,-329.73C464.6,-321.04 479.41,-307.18 491,-294 554.71,-221.54 615.33,-122.8 638.79,-83.09"/>
<polygon fill="#63b8ff" stroke="#63b8ff" points="641.89,-84.72 643.93,-74.32 635.85,-81.18 641.89,-84.72"/>
</a>
</g>
</g>
<!-- Node12 -->
<g id="Node000012" class="node">
<title>Node12</title>
<g id="a_Node000012"><a xlink:href="expr_8h.html" target="_top" xlink:title=" ">
<polygon fill="white" stroke="#666666" points="482.5,-294 435.5,-294 435.5,-275 482.5,-275 482.5,-294"/>
<text text-anchor="middle" x="459" y="-282" font-family="Helvetica,sans-Serif" font-size="10.00">expr.h</text>
</a>
</g>
</g>
<!-- Node4&#45;&gt;Node12 -->
<g id="edge12_Node000004_Node000012" class="edge">
<title>Node4&#45;&gt;Node12</title>
<g id="a_edge12_Node000004_Node000012"><a xlink:title=" ">
<path fill="none" stroke="#63b8ff" d="M447.31,-329.75C449.17,-322.72 451.84,-312.62 454.15,-303.84"/>
<polygon fill="#63b8ff" stroke="#63b8ff" points="457.56,-304.65 456.73,-294.09 450.79,-302.86 457.56,-304.65"/>
</a>
</g>
</g>
<!-- Node8&#45;&gt;Node6 -->
<g id="edge11_Node000008_Node000006" class="edge">
<title>Node8&#45;&gt;Node6</title>
<g id="a_edge11_Node000008_Node000006"><a xlink:title=" ">
<path fill="none" stroke="#63b8ff" d="M614.38,-60.42C512.23,-51.34 212.11,-24.65 97.86,-14.49"/>
<polygon fill="#63b8ff" stroke="#63b8ff" points="97.99,-10.99 87.72,-13.59 97.37,-17.96 97.99,-10.99"/>
</a>
</g>
</g>
<!-- Node9 -->
<g id="Node000009" class="node">
<title>Node9</title>
<g id="a_Node000009"><a xlink:title=" ">
<polygon fill="#e0e0e0" stroke="#999999" points="623.5,-19 574.5,-19 574.5,0 623.5,0 623.5,-19"/>
<text text-anchor="middle" x="599" y="-7" font-family="Helvetica,sans-Serif" font-size="10.00">cstdlib</text>
</a>
</g>
</g>
<!-- Node8&#45;&gt;Node9 -->
<g id="edge8_Node000008_Node000009" class="edge">
<title>Node8&#45;&gt;Node9</title>
<g id="a_edge8_Node000008_Node000009"><a xlink:title=" ">
<path fill="none" stroke="#63b8ff" d="M640.74,-54.75C633.54,-47.11 622.89,-35.82 614.15,-26.56"/>
<polygon fill="#63b8ff" stroke="#63b8ff" points="616.51,-23.96 607.1,-19.09 611.42,-28.76 616.51,-23.96"/>
</a>
</g>
</g>
<!-- Node10 -->
<g id="Node000010" class="node">
<title>Node10</title>
<g id="a_Node000010"><a xlink:title=" ">
<polygon fill="#e0e0e0" stroke="#999999" points="698,-19 642,-19 642,0 698,0 698,-19"/>
<text text-anchor="middle" x="670" y="-7" font-family="Helvetica,sans-Serif" font-size="10.00">sstream</text>
</a>
</g>
</g>
<!-- Node8&#45;&gt;Node10 -->
<g id="edge9_Node000008_Node000010" class="edge">
<title>Node8&#45;&gt;Node10</title>
<g id="a_edge9_Node000008_Node000010"><a xlink:title=" ">
<path fill="none" stroke="#63b8ff" d="M652.47,-54.75C655.28,-47.65 659.34,-37.4 662.85,-28.56"/>
<polygon fill="#63b8ff" stroke="#63b8ff" points="666.17,-29.68 666.6,-19.09 659.66,-27.1 666.17,-29.68"/>
</a>
</g>
</g>
<!-- Node11 -->
<g id="Node000011" class="node">
<title>Node11</title>
<g id="a_Node000011"><a xlink:title=" ">
<polygon fill="#e0e0e0" stroke="#999999" points="555,-19 511,-19 511,0 555,0 555,-19"/>
<text text-anchor="middle" x="533" y="-7" font-family="Helvetica,sans-Serif" font-size="10.00">string</text>
</a>
</g>
</g>
<!-- Node8&#45;&gt;Node11 -->
<g id="edge10_Node000008_Node000011" class="edge">
<title>Node8&#45;&gt;Node11</title>
<g id="a_edge10_Node000008_Node000011"><a xlink:title=" ">
<path fill="none" stroke="#63b8ff" d="M630.36,-54.98C611.7,-46.46 582.75,-33.23 561.26,-23.41"/>
<polygon fill="#63b8ff" stroke="#63b8ff" points="562.53,-20.14 551.98,-19.17 559.62,-26.51 562.53,-20.14"/>
</a>
</g>
</g>
<!-- Node12&#45;&gt;Node7 -->
<g id="edge29_Node000012_Node000007" class="edge">
<title>Node12&#45;&gt;Node7</title>
<g id="a_edge29_Node000012_Node000007"><a xlink:title=" ">
<path fill="none" stroke="#63b8ff" d="M435.28,-277.07C432.17,-276.32 429.02,-275.61 426,-275 319.43,-253.41 291.29,-256.68 184,-239 182.54,-238.76 181.06,-238.51 179.56,-238.26"/>
<polygon fill="#63b8ff" stroke="#63b8ff" points="180.04,-234.79 169.59,-236.53 178.85,-241.69 180.04,-234.79"/>
</a>
</g>
</g>
<!-- Node13 -->
<g id="Node000013" class="node">
<title>Node13</title>
<g id="a_Node000013"><a xlink:href="as__const_8h.html" target="_top" xlink:title=" ">
<polygon fill="white" stroke="#666666" points="507,-239 439,-239 439,-220 507,-220 507,-239"/>
<text text-anchor="middle" x="473" y="-227" font-family="Helvetica,sans-Serif" font-size="10.00">as_const.h</text>
</a>
</g>
</g>
<!-- Node12&#45;&gt;Node13 -->
<g id="edge13_Node000012_Node000013" class="edge">
<title>Node12&#45;&gt;Node13</title>
<g id="a_edge13_Node000012_Node000013"><a xlink:title=" ">
<path fill="none" stroke="#63b8ff" d="M461.31,-274.75C463.17,-267.72 465.84,-257.62 468.15,-248.84"/>
<polygon fill="#63b8ff" stroke="#63b8ff" points="471.56,-249.65 470.73,-239.09 464.79,-247.86 471.56,-249.65"/>
</a>
</g>
</g>
<!-- Node14 -->
<g id="Node000014" class="node">
<title>Node14</title>
<g id="a_Node000014"><a xlink:href="type_8h.html" target="_top" xlink:title="Defines typet, type_with_subtypet and type_with_subtypest.">
<polygon fill="white" stroke="#666666" points="273.5,-239 226.5,-239 226.5,-220 273.5,-220 273.5,-239"/>
<text text-anchor="middle" x="250" y="-227" font-family="Helvetica,sans-Serif" font-size="10.00">type.h</text>
</a>
</g>
</g>
<!-- Node12&#45;&gt;Node14 -->
<g id="edge14_Node000012_Node000014" class="edge">
<title>Node12&#45;&gt;Node14</title>
<g id="a_edge14_Node000012_Node000014"><a xlink:title=" ">
<path fill="none" stroke="#63b8ff" d="M435.21,-277.35C432.11,-276.56 428.98,-275.76 426,-275 365.05,-259.53 347.5,-255.81 283.54,-239.37"/>
<polygon fill="#63b8ff" stroke="#63b8ff" points="284.31,-235.96 273.76,-236.85 282.57,-242.74 284.31,-235.96"/>
</a>
</g>
</g>
<!-- Node37 -->
<g id="Node000037" class="node">
<title>Node37</title>
<g id="a_Node000037"><a xlink:href="validation__mode_8h.html" target="_top" xlink:title=" ">
<polygon fill="white" stroke="#666666" points="280.5,-129 173.5,-129 173.5,-110 280.5,-110 280.5,-129"/>
<text text-anchor="middle" x="227" y="-117" font-family="Helvetica,sans-Serif" font-size="10.00">validation_mode.h</text>
</a>
</g>
</g>
<!-- Node12&#45;&gt;Node37 -->
<g id="edge28_Node000012_Node000037" class="edge">
<title>Node12&#45;&gt;Node37</title>
<g id="a_edge28_Node000012_Node000037"><a xlink:title=" ">
<path fill="none" stroke="#63b8ff" d="M435.26,-277.14C432.16,-276.38 429.01,-275.65 426,-275 379.92,-265.11 247.36,-275.04 217,-239 193.15,-210.69 207.61,-163.91 218.42,-138.42"/>
<polygon fill="#63b8ff" stroke="#63b8ff" points="221.66,-139.75 222.57,-129.19 215.28,-136.88 221.66,-139.75"/>
</a>
</g>
</g>
<!-- Node38 -->
<g id="Node000038" class="node">
<title>Node38</title>
<g id="a_Node000038"><a xlink:href="validate__types_8h.html" target="_top" xlink:title=" ">
<polygon fill="white" stroke="#666666" points="521,-184 423,-184 423,-165 521,-165 521,-184"/>
<text text-anchor="middle" x="472" y="-172" font-family="Helvetica,sans-Serif" font-size="10.00">validate_types.h</text>
</a>
</g>
</g>
<!-- Node12&#45;&gt;Node38 -->
<g id="edge27_Node000012_Node000038" class="edge">
<title>Node12&#45;&gt;Node38</title>
<g id="a_edge27_Node000012_Node000038"><a xlink:title=" ">
<path fill="none" stroke="#63b8ff" d="M477.35,-274.88C490.79,-267.46 508.02,-255.36 516,-239 524.73,-221.1 508.53,-202.6 493.38,-190.22"/>
<polygon fill="#63b8ff" stroke="#63b8ff" points="495.31,-187.29 485.24,-184.01 491.07,-192.86 495.31,-187.29"/>
</a>
</g>
</g>
<!-- Node39 -->
<g id="Node000039" class="node">
<title>Node39</title>
<g id="a_Node000039"><a xlink:href="validate__expressions_8h.html" target="_top" xlink:title=" ">
<polygon fill="white" stroke="#666666" points="420.5,-239 291.5,-239 291.5,-220 420.5,-220 420.5,-239"/>
<text text-anchor="middle" x="356" y="-227" font-family="Helvetica,sans-Serif" font-size="10.00">validate_expressions.h</text>
</a>
</g>
</g>
<!-- Node12&#45;&gt;Node39 -->
<g id="edge26_Node000012_Node000039" class="edge">
<title>Node12&#45;&gt;Node39</title>
<g id="a_edge26_Node000012_Node000039"><a xlink:title=" ">
<path fill="none" stroke="#63b8ff" d="M442.45,-274.98C426.11,-266.57 400.87,-253.59 381.87,-243.81"/>
<polygon fill="#63b8ff" stroke="#63b8ff" points="383.34,-240.63 372.85,-239.17 380.14,-246.86 383.34,-240.63"/>
</a>
</g>
</g>
<!-- Node15 -->
<g id="Node000015" class="node">
<title>Node15</title>
<g id="a_Node000015"><a xlink:href="source__location_8h.html" target="_top" xlink:title=" ">
<polygon fill="#fff0f0" stroke="red" points="377,-184 275,-184 275,-165 377,-165 377,-184"/>
<text text-anchor="middle" x="326" y="-172" font-family="Helvetica,sans-Serif" font-size="10.00">source_location.h</text>
</a>
</g>
</g>
<!-- Node14&#45;&gt;Node15 -->
<g id="edge15_Node000014_Node000015" class="edge">
<title>Node14&#45;&gt;Node15</title>
<g id="a_edge15_Node000014_Node000015"><a xlink:title=" ">
<path fill="none" stroke="#63b8ff" d="M262.21,-219.98C273.78,-211.92 291.38,-199.65 305.16,-190.03"/>
<polygon fill="#63b8ff" stroke="#63b8ff" points="307.37,-192.76 313.57,-184.17 303.36,-187.02 307.37,-192.76"/>
</a>
</g>
</g>
<!-- Node35 -->
<g id="Node000035" class="node">
<title>Node35</title>
<g id="a_Node000035"><a xlink:href="validate_8h.html" target="_top" xlink:title=" ">
<polygon fill="#fff0f0" stroke="red" points="150.5,-184 85.5,-184 85.5,-165 150.5,-165 150.5,-184"/>
<text text-anchor="middle" x="118" y="-172" font-family="Helvetica,sans-Serif" font-size="10.00">validate.h</text>
</a>
</g>
</g>
<!-- Node14&#45;&gt;Node35 -->
<g id="edge21_Node000014_Node000035" class="edge">
<title>Node14&#45;&gt;Node35</title>
<g id="a_edge21_Node000014_Node000035"><a xlink:title=" ">
<path fill="none" stroke="#63b8ff" d="M228.79,-219.98C207.27,-211.34 173.72,-197.87 149.17,-188.02"/>
<polygon fill="#63b8ff" stroke="#63b8ff" points="150.18,-184.65 139.59,-184.17 147.57,-191.14 150.18,-184.65"/>
</a>
</g>
</g>
<!-- Node14&#45;&gt;Node37 -->
<g id="edge25_Node000014_Node000037" class="edge">
<title>Node14&#45;&gt;Node37</title>
<g id="a_edge25_Node000014_Node000037"><a xlink:title=" ">
<path fill="none" stroke="#63b8ff" d="M248.12,-219.66C244.38,-202.09 235.93,-162.45 230.93,-138.95"/>
<polygon fill="#63b8ff" stroke="#63b8ff" points="234.35,-138.21 228.84,-129.16 227.5,-139.67 234.35,-138.21"/>
</a>
</g>
</g>
<!-- Node14&#45;&gt;Node38 -->
<g id="edge24_Node000014_Node000038" class="edge">
<title>Node14&#45;&gt;Node38</title>
<g id="a_edge24_Node000014_Node000038"><a xlink:title=" ">
<path fill="none" stroke="#63b8ff" d="M273.75,-222.11C276.53,-221.39 279.32,-220.67 282,-220 330.28,-207.94 385.7,-195.07 424.18,-186.29"/>
<polygon fill="#63b8ff" stroke="#63b8ff" points="425.1,-189.67 434.07,-184.04 423.54,-182.84 425.1,-189.67"/>
</a>
</g>
</g>
<!-- Node15&#45;&gt;Node11 -->
<g id="edge20_Node000015_Node000011" class="edge">
<title>Node15&#45;&gt;Node11</title>
<g id="a_edge20_Node000015_Node000011"><a xlink:title=" ">
<path fill="none" stroke="#63b8ff" d="M336.84,-164.97C370.22,-138.68 471.81,-58.69 514.15,-25.34"/>
<polygon fill="#63b8ff" stroke="#63b8ff" points="516.33,-28.08 522.02,-19.15 512,-22.58 516.33,-28.08"/>
</a>
</g>
</g>
<!-- Node16 -->
<g id="Node000016" class="node">
<title>Node16</title>
<g id="a_Node000016"><a xlink:href="deprecate_8h.html" target="_top" xlink:title=" ">
<polygon fill="white" stroke="#666666" points="155,-129 81,-129 81,-110 155,-110 155,-129"/>
<text text-anchor="middle" x="118" y="-117" font-family="Helvetica,sans-Serif" font-size="10.00">deprecate.h</text>
</a>
</g>
</g>
<!-- Node15&#45;&gt;Node16 -->
<g id="edge16_Node000015_Node000016" class="edge">
<title>Node15&#45;&gt;Node16</title>
<g id="a_edge16_Node000015_Node000016"><a xlink:title=" ">
<path fill="none" stroke="#63b8ff" d="M292.58,-164.98C257.06,-155.93 200.73,-141.58 161.7,-131.64"/>
<polygon fill="#63b8ff" stroke="#63b8ff" points="162.24,-128.16 151.68,-129.08 160.51,-134.94 162.24,-128.16"/>
</a>
</g>
</g>
<!-- Node17 -->
<g id="Node000017" class="node">
<title>Node17</title>
<g id="a_Node000017"><a xlink:href="irep_8h.html" target="_top" xlink:title=" ">
<polygon fill="#fff0f0" stroke="red" points="583,-129 539,-129 539,-110 583,-110 583,-129"/>
<text text-anchor="middle" x="561" y="-117" font-family="Helvetica,sans-Serif" font-size="10.00">irep.h</text>
</a>
</g>
</g>
<!-- Node15&#45;&gt;Node17 -->
<g id="edge17_Node000015_Node000017" class="edge">
<title>Node15&#45;&gt;Node17</title>
<g id="a_edge17_Node000015_Node000017"><a xlink:title=" ">
<path fill="none" stroke="#63b8ff" d="M363.76,-164.98C409.54,-154.66 485.92,-137.43 528.96,-127.73"/>
<polygon fill="#63b8ff" stroke="#63b8ff" points="529.91,-131.1 538.9,-125.49 528.37,-124.27 529.91,-131.1"/>
</a>
</g>
</g>
<!-- Node17&#45;&gt;Node8 -->
<g id="edge19_Node000017_Node000008" class="edge">
<title>Node17&#45;&gt;Node8</title>
<g id="a_edge19_Node000017_Node000008"><a xlink:title=" ">
<path fill="none" stroke="#63b8ff" d="M575.14,-109.98C588.79,-101.77 609.69,-89.18 625.78,-79.49"/>
<polygon fill="#63b8ff" stroke="#63b8ff" points="627.84,-82.33 634.6,-74.17 624.23,-76.33 627.84,-82.33"/>
</a>
</g>
</g>
<!-- Node17&#45;&gt;Node11 -->
<g id="edge18_Node000017_Node000011" class="edge">
<title>Node17&#45;&gt;Node11</title>
<g id="a_edge18_Node000017_Node000011"><a xlink:title=" ">
<path fill="none" stroke="#63b8ff" d="M558.71,-109.66C554.15,-92.09 543.88,-52.45 537.78,-28.95"/>
<polygon fill="#63b8ff" stroke="#63b8ff" points="541.14,-27.96 535.24,-19.16 534.37,-29.72 541.14,-27.96"/>
</a>
</g>
</g>
<!-- Node35&#45;&gt;Node6 -->
<g id="edge22_Node000035_Node000006" class="edge">
<title>Node35&#45;&gt;Node6</title>
<g id="a_edge22_Node000035_Node000006"><a xlink:title=" ">
<path fill="none" stroke="#63b8ff" d="M105.26,-164.85C94.56,-156.86 79.81,-143.98 72,-129 55.21,-96.78 52.48,-53.47 52.44,-29.13"/>
<polygon fill="#63b8ff" stroke="#63b8ff" points="55.94,-29.16 52.58,-19.11 48.94,-29.06 55.94,-29.16"/>
</a>
</g>
</g>
<!-- Node35&#45;&gt;Node37 -->
<g id="edge23_Node000035_Node000037" class="edge">
<title>Node35&#45;&gt;Node37</title>
<g id="a_edge23_Node000035_Node000037"><a xlink:title=" ">
<path fill="none" stroke="#63b8ff" d="M135.51,-164.98C152.97,-156.5 180.01,-143.35 200.17,-133.54"/>
<polygon fill="#63b8ff" stroke="#63b8ff" points="201.71,-136.69 209.17,-129.17 198.64,-130.4 201.71,-136.69"/>
</a>
</g>
</g>
<!-- Node40&#45;&gt;Node4 -->
<g id="edge33_Node000040_Node000004" class="edge">
<title>Node40&#45;&gt;Node4</title>
<g id="a_edge33_Node000040_Node000004"><a xlink:title=" ">
<path fill="none" stroke="#63b8ff" d="M528.09,-384.98C512.45,-376.61 488.34,-363.7 470.12,-353.95"/>
<polygon fill="#63b8ff" stroke="#63b8ff" points="471.66,-350.8 461.2,-349.17 468.36,-356.98 471.66,-350.8"/>
</a>
</g>
</g>
<!-- Node40&#45;&gt;Node8 -->
<g id="edge34_Node000040_Node000008" class="edge">
<title>Node40&#45;&gt;Node8</title>
<g id="a_edge34_Node000040_Node000008"><a xlink:title=" ">
<path fill="none" stroke="#63b8ff" d="M546.99,-384.87C558.38,-351.83 600.02,-230.23 631,-129 635.62,-113.92 640.47,-96.69 643.98,-83.99"/>
<polygon fill="#63b8ff" stroke="#63b8ff" points="647.4,-84.73 646.67,-74.16 640.65,-82.88 647.4,-84.73"/>
</a>
</g>
</g>
<!-- Node40&#45;&gt;Node12 -->
<g id="edge32_Node000040_Node000012" class="edge">
<title>Node40&#45;&gt;Node12</title>
<g id="a_edge32_Node000040_Node000012"><a xlink:title=" ">
<path fill="none" stroke="#63b8ff" d="M537.04,-384.66C522.84,-366.61 490.31,-325.28 472.05,-302.08"/>
<polygon fill="#63b8ff" stroke="#63b8ff" points="474.75,-299.85 465.81,-294.16 469.25,-304.18 474.75,-299.85"/>
</a>
</g>
</g>
<!-- Node40&#45;&gt;Node35 -->
<g id="edge39_Node000040_Node000035" class="edge">
<title>Node40&#45;&gt;Node35</title>
<g id="a_edge39_Node000040_Node000035"><a xlink:title=" ">
<path fill="none" stroke="#63b8ff" d="M507.25,-394C418.24,-392.96 191.35,-376.33 95,-239 85.06,-224.83 94.23,-205.88 103.79,-192.38"/>
<polygon fill="#63b8ff" stroke="#63b8ff" points="106.6,-194.46 109.92,-184.4 101.05,-190.2 106.6,-194.46"/>
</a>
</g>
</g>
<!-- Node41 -->
<g id="Node000041" class="node">
<title>Node41</title>
<g id="a_Node000041"><a xlink:href="mp__arith_8h.html" target="_top" xlink:title=" ">
<polygon fill="white" stroke="#666666" points="645.5,-349 576.5,-349 576.5,-330 645.5,-330 645.5,-349"/>
<text text-anchor="middle" x="611" y="-337" font-family="Helvetica,sans-Serif" font-size="10.00">mp_arith.h</text>
</a>
</g>
</g>
<!-- Node40&#45;&gt;Node41 -->
<g id="edge35_Node000040_Node000041" class="edge">
<title>Node40&#45;&gt;Node41</title>
<g id="a_edge35_Node000040_Node000041"><a xlink:title=" ">
<path fill="none" stroke="#63b8ff" d="M554.76,-384.98C564.77,-377.07 579.89,-365.11 591.93,-355.58"/>
<polygon fill="#63b8ff" stroke="#63b8ff" points="594.37,-358.12 600.04,-349.17 590.03,-352.63 594.37,-358.12"/>
</a>
</g>
</g>
<!-- Node26 -->
<g id="Node000026" class="node">
<title>Node26</title>
<g id="a_Node000026"><a xlink:title=" ">
<polygon fill="#e0e0e0" stroke="#999999" points="795.5,-349 702.5,-349 702.5,-330 795.5,-330 795.5,-349"/>
<text text-anchor="middle" x="749" y="-337" font-family="Helvetica,sans-Serif" font-size="10.00">unordered_map</text>
</a>
</g>
</g>
<!-- Node40&#45;&gt;Node26 -->
<g id="edge40_Node000040_Node000026" class="edge">
<title>Node40&#45;&gt;Node26</title>
<g id="a_edge40_Node000040_Node000026"><a xlink:title=" ">
<path fill="none" stroke="#63b8ff" d="M576.94,-384.98C611.95,-375.93 667.47,-361.58 705.93,-351.64"/>
<polygon fill="#63b8ff" stroke="#63b8ff" points="707,-354.97 715.81,-349.08 705.25,-348.2 707,-354.97"/>
</a>
</g>
</g>
<!-- Node41&#45;&gt;Node11 -->
<g id="edge37_Node000041_Node000011" class="edge">
<title>Node41&#45;&gt;Node11</title>
<g id="a_edge37_Node000041_Node000011"><a xlink:title=" ">
<path fill="none" stroke="#63b8ff" d="M606.2,-329.66C591.19,-301.46 545.24,-210.65 530,-129 528.45,-120.7 529.87,-118.44 530,-110 530.42,-81.83 531.52,-49.19 532.27,-29.2"/>
<polygon fill="#63b8ff" stroke="#63b8ff" points="535.77,-29.14 532.66,-19.02 528.78,-28.88 535.77,-29.14"/>
</a>
</g>
</g>
<!-- Node41&#45;&gt;Node21 -->
<g id="edge36_Node000041_Node000021" class="edge">
<title>Node41&#45;&gt;Node21</title>
<g id="a_edge36_Node000041_Node000021"><a xlink:title=" ">
<path fill="none" stroke="#63b8ff" d="M645.61,-332.68C706.22,-322.48 830.87,-301.51 891.44,-291.31"/>
<polygon fill="#63b8ff" stroke="#63b8ff" points="892.35,-294.71 901.63,-289.6 891.19,-287.81 892.35,-294.71"/>
</a>
</g>
</g>
<!-- Node42 -->
<g id="Node000042" class="node">
<title>Node42</title>
<g id="a_Node000042"><a xlink:title=" ">
<polygon fill="#e0e0e0" stroke="#999999" points="733,-294 639,-294 639,-275 733,-275 733,-294"/>
<text text-anchor="middle" x="686" y="-282" font-family="Helvetica,sans-Serif" font-size="10.00">big&#45;int/bigint.hh</text>
</a>
</g>
</g>
<!-- Node41&#45;&gt;Node42 -->
<g id="edge38_Node000041_Node000042" class="edge">
<title>Node41&#45;&gt;Node42</title>
<g id="a_edge38_Node000041_Node000042"><a xlink:title=" ">
<path fill="none" stroke="#63b8ff" d="M623.05,-329.98C634.46,-321.92 651.83,-309.65 665.43,-300.03"/>
<polygon fill="#63b8ff" stroke="#63b8ff" points="667.58,-302.8 673.73,-294.17 663.54,-297.08 667.58,-302.8"/>
</a>
</g>
</g>
<!-- Node43&#45;&gt;Node21 -->
<g id="edge42_Node000043_Node000021" class="edge">
<title>Node43&#45;&gt;Node21</title>
<g id="a_edge42_Node000043_Node000021"><a xlink:title=" ">
<path fill="none" stroke="#63b8ff" d="M967.32,-384.66C959.96,-367.01 943.33,-327.09 933.56,-303.64"/>
<polygon fill="#63b8ff" stroke="#63b8ff" points="936.68,-302.04 929.61,-294.16 930.22,-304.74 936.68,-302.04"/>
</a>
</g>
</g>
<!-- Node44&#45;&gt;Node3 -->
<g id="edge47_Node000044_Node000003" class="edge">
<title>Node44&#45;&gt;Node3</title>
<g id="a_edge47_Node000044_Node000003"><a xlink:title=" ">
<path fill="none" stroke="#63b8ff" d="M754.56,-494.98C735.01,-486.42 704.62,-473.11 682.18,-463.28"/>
<polygon fill="#63b8ff" stroke="#63b8ff" points="683.36,-459.98 672.79,-459.17 680.55,-466.39 683.36,-459.98"/>
</a>
</g>
</g>
<!-- Node44&#45;&gt;Node8 -->
<g id="edge45_Node000044_Node000008" class="edge">
<title>Node44&#45;&gt;Node8</title>
<g id="a_edge45_Node000044_Node000008"><a xlink:title=" ">
<path fill="none" stroke="#63b8ff" d="M782.48,-494.85C790.05,-486.47 800.6,-473.01 805,-459 807.53,-450.94 805.04,-448.44 805,-440 804.44,-317.05 811.37,-282.45 775,-165 767.06,-139.35 769.1,-128.88 750,-110 734.38,-94.56 712.5,-84.02 693.09,-77.1"/>
<polygon fill="#63b8ff" stroke="#63b8ff" points="694.1,-73.75 683.51,-73.89 691.88,-80.38 694.1,-73.75"/>
</a>
</g>
</g>
<!-- Node44&#45;&gt;Node41 -->
<g id="edge46_Node000044_Node000041" class="edge">
<title>Node44&#45;&gt;Node41</title>
<g id="a_edge46_Node000044_Node000041"><a xlink:title=" ">
<path fill="none" stroke="#63b8ff" d="M765.24,-494.74C739.03,-468.53 661.01,-390.51 627.07,-356.57"/>
<polygon fill="#63b8ff" stroke="#63b8ff" points="629.35,-353.9 619.81,-349.31 624.4,-358.85 629.35,-353.9"/>
</a>
</g>
</g>
<!-- Node45 -->
<g id="Node000045" class="node">
<title>Node45</title>
<g id="a_Node000045"><a xlink:title=" ">
<polygon fill="#e0e0e0" stroke="#999999" points="796,-459 752,-459 752,-440 796,-440 796,-459"/>
<text text-anchor="middle" x="774" y="-447" font-family="Helvetica,sans-Serif" font-size="10.00">limits</text>
</a>
</g>
</g>
<!-- Node44&#45;&gt;Node45 -->
<g id="edge48_Node000044_Node000045" class="edge">
<title>Node44&#45;&gt;Node45</title>
<g id="a_edge48_Node000044_Node000045"><a xlink:title=" ">
<path fill="none" stroke="#63b8ff" d="M774,-494.75C774,-487.8 774,-477.85 774,-469.13"/>
<polygon fill="#63b8ff" stroke="#63b8ff" points="777.5,-469.09 774,-459.09 770.5,-469.09 777.5,-469.09"/>
</a>
</g>
</g>
<!-- Node46&#45;&gt;Node3 -->
<g id="edge50_Node000046_Node000003" class="edge">
<title>Node46&#45;&gt;Node3</title>
<g id="a_edge50_Node000046_Node000003"><a xlink:title=" ">
<path fill="none" stroke="#63b8ff" d="M731.96,-549.66C717.59,-531.61 684.67,-490.28 666.2,-467.08"/>
<polygon fill="#63b8ff" stroke="#63b8ff" points="668.86,-464.8 659.89,-459.16 663.39,-469.16 668.86,-464.8"/>
</a>
</g>
</g>
<!-- Node47&#45;&gt;Node16 -->
<g id="edge52_Node000047_Node000016" class="edge">
<title>Node47&#45;&gt;Node16</title>
<g id="a_edge52_Node000047_Node000016"><a xlink:title=" ">
<path fill="none" stroke="#63b8ff" d="M531.34,-558.77C417.84,-558.91 38,-551.81 38,-450.5 38,-450.5 38,-450.5 38,-228.5 38,-188.81 73.32,-154.18 97.03,-135.41"/>
<polygon fill="#63b8ff" stroke="#63b8ff" points="99.31,-138.07 105.15,-129.23 95.07,-132.5 99.31,-138.07"/>
</a>
</g>
</g>
<!-- Node48 -->
<g id="Node000048" class="node">
<title>Node48</title>
<g id="a_Node000048"><a xlink:href="pointer__expr_8h.html" target="_top" xlink:title="API to expression classes for Pointers.">
<polygon fill="white" stroke="#666666" points="606,-514 520,-514 520,-495 606,-495 606,-514"/>
<text text-anchor="middle" x="563" y="-502" font-family="Helvetica,sans-Serif" font-size="10.00">pointer_expr.h</text>
</a>
</g>
</g>
<!-- Node47&#45;&gt;Node48 -->
<g id="edge53_Node000047_Node000048" class="edge">
<title>Node47&#45;&gt;Node48</title>
<g id="a_edge53_Node000047_Node000048"><a xlink:title=" ">
<path fill="none" stroke="#63b8ff" d="M563,-549.75C563,-542.8 563,-532.85 563,-524.13"/>
<polygon fill="#63b8ff" stroke="#63b8ff" points="566.5,-524.09 563,-514.09 559.5,-524.09 566.5,-524.09"/>
</a>
</g>
</g>
<!-- Node48&#45;&gt;Node3 -->
<g id="edge56_Node000048_Node000003" class="edge">
<title>Node48&#45;&gt;Node3</title>
<g id="a_edge56_Node000048_Node000003"><a xlink:title=" ">
<path fill="none" stroke="#63b8ff" d="M577.46,-494.98C591.42,-486.77 612.79,-474.18 629.25,-464.49"/>
<polygon fill="#63b8ff" stroke="#63b8ff" points="631.44,-467.26 638.28,-459.17 627.88,-461.23 631.44,-467.26"/>
</a>
</g>
</g>
<!-- Node49 -->
<g id="Node000049" class="node">
<title>Node49</title>
<g id="a_Node000049"><a xlink:href="bitvector__types_8h.html" target="_top" xlink:title="Pre&#45;defined bitvector types.">
<polygon fill="white" stroke="#666666" points="591.5,-459 490.5,-459 490.5,-440 591.5,-440 591.5,-459"/>
<text text-anchor="middle" x="541" y="-447" font-family="Helvetica,sans-Serif" font-size="10.00">bitvector_types.h</text>
</a>
</g>
</g>
<!-- Node48&#45;&gt;Node49 -->
<g id="edge54_Node000048_Node000049" class="edge">
<title>Node48&#45;&gt;Node49</title>
<g id="a_edge54_Node000048_Node000049"><a xlink:title=" ">
<path fill="none" stroke="#63b8ff" d="M559.37,-494.75C556.42,-487.65 552.17,-477.4 548.49,-468.56"/>
<polygon fill="#63b8ff" stroke="#63b8ff" points="551.63,-466.98 544.57,-459.09 545.17,-469.67 551.63,-466.98"/>
</a>
</g>
</g>
<!-- Node49&#45;&gt;Node40 -->
<g id="edge55_Node000049_Node000040" class="edge">
<title>Node49&#45;&gt;Node40</title>
<g id="a_edge55_Node000049_Node000040"><a xlink:title=" ">
<path fill="none" stroke="#63b8ff" d="M541.5,-439.75C541.89,-432.8 542.45,-422.85 542.95,-414.13"/>
<polygon fill="#63b8ff" stroke="#63b8ff" points="546.44,-414.27 543.51,-404.09 539.45,-413.88 546.44,-414.27"/>
</a>
</g>
</g>
<!-- Node50&#45;&gt;Node8 -->
<g id="edge58_Node000050_Node000008" class="edge">
<title>Node50&#45;&gt;Node8</title>
<g id="a_edge58_Node000050_Node000008"><a xlink:title=" ">
<path fill="none" stroke="#63b8ff" d="M865.8,-164.63C857.21,-150.81 838.76,-124.23 816,-110 778.6,-86.62 729.09,-75.42 693.71,-70.12"/>
<polygon fill="#63b8ff" stroke="#63b8ff" points="694.06,-66.63 683.67,-68.71 693.09,-73.56 694.06,-66.63"/>
</a>
</g>
</g>
<!-- Node50&#45;&gt;Node17 -->
<g id="edge59_Node000050_Node000017" class="edge">
<title>Node50&#45;&gt;Node17</title>
<g id="a_edge59_Node000050_Node000017"><a xlink:title=" ">
<path fill="none" stroke="#63b8ff" d="M829.83,-166.46C767.48,-155.8 650.35,-135.78 593.54,-126.06"/>
<polygon fill="#63b8ff" stroke="#63b8ff" points="593.79,-122.55 583.34,-124.32 592.61,-129.45 593.79,-122.55"/>
</a>
</g>
</g>
<!-- Node53 -->
<g id="Node000053" class="node">
<title>Node53</title>
<g id="a_Node000053"><a xlink:href="symbol__table__base_8h.html" target="_top" xlink:title="Author: Diffblue Ltd.">
<polygon fill="white" stroke="#666666" points="1152,-404 1032,-404 1032,-385 1152,-385 1152,-404"/>
<text text-anchor="middle" x="1092" y="-392" font-family="Helvetica,sans-Serif" font-size="10.00">symbol_table_base.h</text>
</a>
</g>
</g>
<!-- Node52&#45;&gt;Node53 -->
<g id="edge63_Node000052_Node000053" class="edge">
<title>Node52&#45;&gt;Node53</title>
<g id="a_edge63_Node000052_Node000053"><a xlink:title=" ">
<path fill="none" stroke="#63b8ff" d="M978.45,-549.74C997.58,-523.76 1054.21,-446.83 1079.53,-412.44"/>
<polygon fill="#63b8ff" stroke="#63b8ff" points="1082.41,-414.44 1085.52,-404.31 1076.77,-410.28 1082.41,-414.44"/>
</a>
</g>
</g>
<!-- Node53&#45;&gt;Node26 -->
<g id="edge70_Node000053_Node000026" class="edge">
<title>Node53&#45;&gt;Node26</title>
<g id="a_edge70_Node000053_Node000026"><a xlink:title=" ">
<path fill="none" stroke="#63b8ff" d="M1036.89,-384.98C973.44,-375.18 869.74,-359.16 805.64,-349.25"/>
<polygon fill="#63b8ff" stroke="#63b8ff" points="806.12,-345.79 795.71,-347.72 805.06,-352.7 806.12,-345.79"/>
</a>
</g>
</g>
<!-- Node54 -->
<g id="Node000054" class="node">
<title>Node54</title>
<g id="a_Node000054"><a xlink:href="symbol_8h.html" target="_top" xlink:title="Symbol table entry.">
<polygon fill="white" stroke="#666666" points="1028,-349 966,-349 966,-330 1028,-330 1028,-349"/>
<text text-anchor="middle" x="997" y="-337" font-family="Helvetica,sans-Serif" font-size="10.00">symbol.h</text>
</a>
</g>
</g>
<!-- Node53&#45;&gt;Node54 -->
<g id="edge64_Node000053_Node000054" class="edge">
<title>Node53&#45;&gt;Node54</title>
<g id="a_edge64_Node000053_Node000054"><a xlink:title=" ">
<path fill="none" stroke="#63b8ff" d="M1076.74,-384.98C1061.87,-376.69 1039.02,-363.94 1021.58,-354.22"/>
<polygon fill="#63b8ff" stroke="#63b8ff" points="1022.98,-350.99 1012.54,-349.17 1019.57,-357.1 1022.98,-350.99"/>
</a>
</g>
</g>
<!-- Node25 -->
<g id="Node000025" class="node">
<title>Node25</title>
<g id="a_Node000025"><a xlink:title=" ">
<polygon fill="#e0e0e0" stroke="#999999" points="1148,-349 1116,-349 1116,-330 1148,-330 1148,-349"/>
<text text-anchor="middle" x="1132" y="-337" font-family="Helvetica,sans-Serif" font-size="10.00">list</text>
</a>
</g>
</g>
<!-- Node53&#45;&gt;Node25 -->
<g id="edge68_Node000053_Node000025" class="edge">
<title>Node53&#45;&gt;Node25</title>
<g id="a_edge68_Node000053_Node000025"><a xlink:title=" ">
<path fill="none" stroke="#63b8ff" d="M1098.61,-384.75C1104.26,-377.26 1112.54,-366.28 1119.45,-357.13"/>
<polygon fill="#63b8ff" stroke="#63b8ff" points="1122.29,-359.18 1125.52,-349.09 1116.7,-354.96 1122.29,-359.18"/>
</a>
</g>
</g>
<!-- Node55 -->
<g id="Node000055" class="node">
<title>Node55</title>
<g id="a_Node000055"><a xlink:title=" ">
<polygon fill="#e0e0e0" stroke="#999999" points="1098,-349 1060,-349 1060,-330 1098,-330 1098,-349"/>
<text text-anchor="middle" x="1079" y="-337" font-family="Helvetica,sans-Serif" font-size="10.00">map</text>
</a>
</g>
</g>
<!-- Node53&#45;&gt;Node55 -->
<g id="edge69_Node000053_Node000055" class="edge">
<title>Node53&#45;&gt;Node55</title>
<g id="a_edge69_Node000053_Node000055"><a xlink:title=" ">
<path fill="none" stroke="#63b8ff" d="M1089.85,-384.75C1088.13,-377.72 1085.65,-367.62 1083.5,-358.84"/>
<polygon fill="#63b8ff" stroke="#63b8ff" points="1086.89,-357.97 1081.11,-349.09 1080.09,-359.63 1086.89,-357.97"/>
</a>
</g>
</g>
<!-- Node54&#45;&gt;Node8 -->
<g id="edge67_Node000054_Node000008" class="edge">
<title>Node54&#45;&gt;Node8</title>
<g id="a_edge67_Node000054_Node000008"><a xlink:title=" ">
<path fill="none" stroke="#63b8ff" d="M995.65,-329.85C992.92,-311.55 987,-267.6 987,-230.5 987,-230.5 987,-230.5 987,-173.5 987,-112.63 785.55,-81.37 693.7,-70.29"/>
<polygon fill="#63b8ff" stroke="#63b8ff" points="693.92,-66.79 683.58,-69.1 693.1,-73.74 693.92,-66.79"/>
</a>
</g>
</g>
<!-- Node54&#45;&gt;Node12 -->
<g id="edge66_Node000054_Node000012" class="edge">
<title>Node54&#45;&gt;Node12</title>
<g id="a_edge66_Node000054_Node000012"><a xlink:title=" ">
<path fill="none" stroke="#63b8ff" d="M965.75,-335.42C871.5,-326.14 590.57,-298.46 492.91,-288.84"/>
<polygon fill="#63b8ff" stroke="#63b8ff" points="493.01,-285.33 482.72,-287.84 492.33,-292.3 493.01,-285.33"/>
</a>
</g>
</g>
<!-- Node54&#45;&gt;Node21 -->
<g id="edge65_Node000054_Node000021" class="edge">
<title>Node54&#45;&gt;Node21</title>
<g id="a_edge65_Node000054_Node000021"><a xlink:title=" ">
<path fill="none" stroke="#63b8ff" d="M985.59,-329.98C974.89,-322 958.66,-309.88 945.84,-300.31"/>
<polygon fill="#63b8ff" stroke="#63b8ff" points="947.72,-297.35 937.61,-294.17 943.53,-302.96 947.72,-297.35"/>
</a>
</g>
</g>
</g>
</svg>
