<?xml version="1.0" encoding="UTF-8" standalone="no"?>
<!DOCTYPE svg PUBLIC "-//W3C//DTD SVG 1.1//EN"
 "http://www.w3.org/Graphics/SVG/1.1/DTD/svg11.dtd">
<!-- Generated by graphviz version 2.43.0 (0)
 -->
<!-- Title: /home/runner/work/cbmc/cbmc/jbmc/src/java_bytecode/java_class_loader_limit.cpp Pages: 1 -->
<svg width="1168pt" height="709pt"
 viewBox="0.00 0.00 1168.00 709.00" xmlns="http://www.w3.org/2000/svg" xmlns:xlink="http://www.w3.org/1999/xlink">
<g id="graph0" class="graph" transform="scale(1 1) rotate(0) translate(4 705)">
<title>/home/runner/work/cbmc/cbmc/jbmc/src/java_bytecode/java_class_loader_limit.cpp</title>
<!-- Node1 -->
<g id="Node000001" class="node">
<title>Node1</title>
<g id="a_Node000001"><a xlink:title="limit class path loading">
<polygon fill="#999999" stroke="#666666" points="444,-701 280,-701 280,-660 444,-660 444,-701"/>
<text text-anchor="start" x="288" y="-689" font-family="Helvetica,sans-Serif" font-size="10.00">/home/runner/work/cbmc</text>
<text text-anchor="start" x="288" y="-678" font-family="Helvetica,sans-Serif" font-size="10.00">/cbmc/jbmc/src/java_bytecode</text>
<text text-anchor="middle" x="362" y="-667" font-family="Helvetica,sans-Serif" font-size="10.00">/java_class_loader_limit.cpp</text>
</a>
</g>
</g>
<!-- Node2 -->
<g id="Node000002" class="node">
<title>Node2</title>
<g id="a_Node000002"><a xlink:href="java__class__loader__limit_8h.html" target="_top" xlink:title="limit class path loading">
<polygon fill="white" stroke="#666666" points="432,-624 292,-624 292,-605 432,-605 432,-624"/>
<text text-anchor="middle" x="362" y="-612" font-family="Helvetica,sans-Serif" font-size="10.00">java_class_loader_limit.h</text>
</a>
</g>
</g>
<!-- Node1&#45;&gt;Node2 -->
<g id="edge1_Node000001_Node000002" class="edge">
<title>Node1&#45;&gt;Node2</title>
<g id="a_edge1_Node000001_Node000002"><a xlink:title=" ">
<path fill="none" stroke="#63b8ff" d="M362,-659.95C362,-651.85 362,-642.5 362,-634.47"/>
<polygon fill="#63b8ff" stroke="#63b8ff" points="365.5,-634.26 362,-624.26 358.5,-634.26 365.5,-634.26"/>
</a>
</g>
</g>
<!-- Node6 -->
<g id="Node000006" class="node">
<title>Node6</title>
<g id="a_Node000006"><a xlink:href="src_2util_2invariant_8h.html" target="_top" xlink:title=" ">
<polygon fill="white" stroke="#666666" points="161.5,-74 92.5,-74 92.5,-55 161.5,-55 161.5,-74"/>
<text text-anchor="middle" x="127" y="-62" font-family="Helvetica,sans-Serif" font-size="10.00">invariant.h</text>
</a>
</g>
</g>
<!-- Node1&#45;&gt;Node6 -->
<g id="edge71_Node000001_Node000006" class="edge">
<title>Node1&#45;&gt;Node6</title>
<g id="a_edge71_Node000001_Node000006"><a xlink:title=" ">
<path fill="none" stroke="#63b8ff" d="M279.82,-666.04C183.83,-647.93 38,-611.96 38,-560.5 38,-560.5 38,-560.5 38,-173.5 38,-132.03 77.57,-97.84 103.94,-79.67"/>
<polygon fill="#63b8ff" stroke="#63b8ff" points="105.9,-82.57 112.3,-74.13 102.03,-76.73 105.9,-82.57"/>
</a>
</g>
</g>
<!-- Node33 -->
<g id="Node000033" class="node">
<title>Node33</title>
<g id="a_Node000033"><a xlink:href="json__parser_8h.html" target="_top" xlink:title=" ">
<polygon fill="white" stroke="#666666" points="815,-624 711,-624 711,-605 815,-605 815,-624"/>
<text text-anchor="middle" x="763" y="-612" font-family="Helvetica,sans-Serif" font-size="10.00">json/json_parser.h</text>
</a>
</g>
</g>
<!-- Node1&#45;&gt;Node33 -->
<g id="edge34_Node000001_Node000033" class="edge">
<title>Node1&#45;&gt;Node33</title>
<g id="a_edge34_Node000001_Node000033"><a xlink:title=" ">
<path fill="none" stroke="#63b8ff" d="M444.12,-666.39C520.18,-654.25 631.66,-636.46 700.66,-625.45"/>
<polygon fill="#63b8ff" stroke="#63b8ff" points="701.61,-628.84 710.93,-623.81 700.51,-621.93 701.61,-628.84"/>
</a>
</g>
</g>
<!-- Node3 -->
<g id="Node000003" class="node">
<title>Node3</title>
<g id="a_Node000003"><a xlink:title=" ">
<polygon fill="#e0e0e0" stroke="#999999" points="434,-569 402,-569 402,-550 434,-550 434,-569"/>
<text text-anchor="middle" x="418" y="-557" font-family="Helvetica,sans-Serif" font-size="10.00">set</text>
</a>
</g>
</g>
<!-- Node2&#45;&gt;Node3 -->
<g id="edge2_Node000002_Node000003" class="edge">
<title>Node2&#45;&gt;Node3</title>
<g id="a_edge2_Node000002_Node000003"><a xlink:title=" ">
<path fill="none" stroke="#63b8ff" d="M371,-604.98C379.19,-597.23 391.51,-585.58 401.47,-576.14"/>
<polygon fill="#63b8ff" stroke="#63b8ff" points="403.98,-578.59 408.84,-569.17 399.17,-573.5 403.98,-578.59"/>
</a>
</g>
</g>
<!-- Node4 -->
<g id="Node000004" class="node">
<title>Node4</title>
<g id="a_Node000004"><a xlink:title=" ">
<polygon fill="#e0e0e0" stroke="#999999" points="384,-569 340,-569 340,-550 384,-550 384,-569"/>
<text text-anchor="middle" x="362" y="-557" font-family="Helvetica,sans-Serif" font-size="10.00">regex</text>
</a>
</g>
</g>
<!-- Node2&#45;&gt;Node4 -->
<g id="edge3_Node000002_Node000004" class="edge">
<title>Node2&#45;&gt;Node4</title>
<g id="a_edge3_Node000002_Node000004"><a xlink:title=" ">
<path fill="none" stroke="#63b8ff" d="M362,-604.75C362,-597.8 362,-587.85 362,-579.13"/>
<polygon fill="#63b8ff" stroke="#63b8ff" points="365.5,-579.09 362,-569.09 358.5,-579.09 365.5,-579.09"/>
</a>
</g>
</g>
<!-- Node5 -->
<g id="Node000005" class="node">
<title>Node5</title>
<g id="a_Node000005"><a xlink:href="src_2util_2message_8h.html" target="_top" xlink:title=" ">
<polygon fill="white" stroke="#666666" points="356.5,-349 267.5,-349 267.5,-330 356.5,-330 356.5,-349"/>
<text text-anchor="middle" x="312" y="-337" font-family="Helvetica,sans-Serif" font-size="10.00">util/message.h</text>
</a>
</g>
</g>
<!-- Node2&#45;&gt;Node5 -->
<g id="edge4_Node000002_Node000005" class="edge">
<title>Node2&#45;&gt;Node5</title>
<g id="a_edge4_Node000002_Node000005"><a xlink:title=" ">
<path fill="none" stroke="#63b8ff" d="M354.84,-604.89C341.01,-587.36 312,-545.79 312,-505.5 312,-505.5 312,-505.5 312,-448.5 312,-417.19 312,-380.77 312,-359.23"/>
<polygon fill="#63b8ff" stroke="#63b8ff" points="315.5,-359.18 312,-349.18 308.5,-359.18 315.5,-359.18"/>
</a>
</g>
</g>
<!-- Node5&#45;&gt;Node6 -->
<g id="edge5_Node000005_Node000006" class="edge">
<title>Node5&#45;&gt;Node6</title>
<g id="a_edge5_Node000005_Node000006"><a xlink:title=" ">
<path fill="none" stroke="#63b8ff" d="M267.33,-337.4C198.91,-333.09 76,-313.75 76,-230.5 76,-230.5 76,-230.5 76,-173.5 76,-138.28 98.45,-102.25 113.56,-81.99"/>
<polygon fill="#63b8ff" stroke="#63b8ff" points="116.33,-84.13 119.69,-74.09 110.8,-79.84 116.33,-84.13"/>
</a>
</g>
</g>
<!-- Node8 -->
<g id="Node000008" class="node">
<title>Node8</title>
<g id="a_Node000008"><a xlink:title=" ">
<polygon fill="#e0e0e0" stroke="#999999" points="56,-19 0,-19 0,0 56,0 56,-19"/>
<text text-anchor="middle" x="28" y="-7" font-family="Helvetica,sans-Serif" font-size="10.00">sstream</text>
</a>
</g>
</g>
<!-- Node5&#45;&gt;Node8 -->
<g id="edge32_Node000005_Node000008" class="edge">
<title>Node5&#45;&gt;Node8</title>
<g id="a_edge32_Node000005_Node000008"><a xlink:title=" ">
<path fill="none" stroke="#63b8ff" d="M267.19,-335.14C220.95,-330.4 147.52,-319.32 89,-294 44.4,-274.7 0,-279.09 0,-230.5 0,-230.5 0,-230.5 0,-118.5 0,-86.02 12.01,-49.76 20.3,-28.6"/>
<polygon fill="#63b8ff" stroke="#63b8ff" points="23.57,-29.84 24.11,-19.26 17.09,-27.2 23.57,-29.84"/>
</a>
</g>
</g>
<!-- Node9 -->
<g id="Node000009" class="node">
<title>Node9</title>
<g id="a_Node000009"><a xlink:title=" ">
<polygon fill="#e0e0e0" stroke="#999999" points="1049,-19 1005,-19 1005,0 1049,0 1049,-19"/>
<text text-anchor="middle" x="1027" y="-7" font-family="Helvetica,sans-Serif" font-size="10.00">string</text>
</a>
</g>
</g>
<!-- Node5&#45;&gt;Node9 -->
<g id="edge33_Node000005_Node000009" class="edge">
<title>Node5&#45;&gt;Node9</title>
<g id="a_edge33_Node000005_Node000009"><a xlink:title=" ">
<path fill="none" stroke="#63b8ff" d="M314.35,-329.77C324.35,-294.49 367.08,-161.91 457,-110 550.47,-56.04 888.59,-22.57 994.83,-13.2"/>
<polygon fill="#63b8ff" stroke="#63b8ff" points="995.27,-16.68 1004.93,-12.32 994.67,-9.7 995.27,-16.68"/>
</a>
</g>
</g>
<!-- Node11 -->
<g id="Node000011" class="node">
<title>Node11</title>
<g id="a_Node000011"><a xlink:href="source__location_8h.html" target="_top" xlink:title=" ">
<polygon fill="white" stroke="#666666" points="839,-294 737,-294 737,-275 839,-275 839,-294"/>
<text text-anchor="middle" x="788" y="-282" font-family="Helvetica,sans-Serif" font-size="10.00">source_location.h</text>
</a>
</g>
</g>
<!-- Node5&#45;&gt;Node11 -->
<g id="edge10_Node000005_Node000011" class="edge">
<title>Node5&#45;&gt;Node11</title>
<g id="a_edge10_Node000005_Node000011"><a xlink:title=" ">
<path fill="none" stroke="#63b8ff" d="M356.78,-333.51C442.5,-323.97 629.87,-303.11 726.96,-292.3"/>
<polygon fill="#63b8ff" stroke="#63b8ff" points="727.37,-295.77 736.92,-291.19 726.59,-288.82 727.37,-295.77"/>
</a>
</g>
</g>
<!-- Node17 -->
<g id="Node000017" class="node">
<title>Node17</title>
<g id="a_Node000017"><a xlink:title=" ">
<polygon fill="#e0e0e0" stroke="#999999" points="849,-74 801,-74 801,-55 849,-55 849,-74"/>
<text text-anchor="middle" x="825" y="-62" font-family="Helvetica,sans-Serif" font-size="10.00">iosfwd</text>
</a>
</g>
</g>
<!-- Node5&#45;&gt;Node17 -->
<g id="edge31_Node000005_Node000017" class="edge">
<title>Node5&#45;&gt;Node17</title>
<g id="a_edge31_Node000005_Node000017"><a xlink:title=" ">
<path fill="none" stroke="#63b8ff" d="M317.1,-329.99C340.1,-291.95 435.09,-138 483,-110 534.72,-79.78 714.52,-69.61 790.59,-66.62"/>
<polygon fill="#63b8ff" stroke="#63b8ff" points="790.75,-70.11 800.61,-66.24 790.48,-63.12 790.75,-70.11"/>
</a>
</g>
</g>
<!-- Node32 -->
<g id="Node000032" class="node">
<title>Node32</title>
<g id="a_Node000032"><a xlink:title=" ">
<polygon fill="#e0e0e0" stroke="#999999" points="359.5,-184 294.5,-184 294.5,-165 359.5,-165 359.5,-184"/>
<text text-anchor="middle" x="327" y="-172" font-family="Helvetica,sans-Serif" font-size="10.00">functional</text>
</a>
</g>
</g>
<!-- Node5&#45;&gt;Node32 -->
<g id="edge30_Node000005_Node000032" class="edge">
<title>Node5&#45;&gt;Node32</title>
<g id="a_edge30_Node000005_Node000032"><a xlink:title=" ">
<path fill="none" stroke="#63b8ff" d="M308.4,-329.82C304.94,-320.99 299.97,-306.81 298,-294 292.42,-257.69 307.71,-216.19 318.16,-193.2"/>
<polygon fill="#63b8ff" stroke="#63b8ff" points="321.39,-194.55 322.52,-184.02 315.07,-191.55 321.39,-194.55"/>
</a>
</g>
</g>
<!-- Node7 -->
<g id="Node000007" class="node">
<title>Node7</title>
<g id="a_Node000007"><a xlink:title=" ">
<polygon fill="#e0e0e0" stroke="#999999" points="151.5,-19 102.5,-19 102.5,0 151.5,0 151.5,-19"/>
<text text-anchor="middle" x="127" y="-7" font-family="Helvetica,sans-Serif" font-size="10.00">cstdlib</text>
</a>
</g>
</g>
<!-- Node6&#45;&gt;Node7 -->
<g id="edge6_Node000006_Node000007" class="edge">
<title>Node6&#45;&gt;Node7</title>
<g id="a_edge6_Node000006_Node000007"><a xlink:title=" ">
<path fill="none" stroke="#63b8ff" d="M127,-54.75C127,-47.8 127,-37.85 127,-29.13"/>
<polygon fill="#63b8ff" stroke="#63b8ff" points="130.5,-29.09 127,-19.09 123.5,-29.09 130.5,-29.09"/>
</a>
</g>
</g>
<!-- Node6&#45;&gt;Node8 -->
<g id="edge7_Node000006_Node000008" class="edge">
<title>Node6&#45;&gt;Node8</title>
<g id="a_edge7_Node000006_Node000008"><a xlink:title=" ">
<path fill="none" stroke="#63b8ff" d="M111.09,-54.98C95.45,-46.61 71.34,-33.7 53.12,-23.95"/>
<polygon fill="#63b8ff" stroke="#63b8ff" points="54.66,-20.8 44.2,-19.17 51.36,-26.98 54.66,-20.8"/>
</a>
</g>
</g>
<!-- Node6&#45;&gt;Node9 -->
<g id="edge8_Node000006_Node000009" class="edge">
<title>Node6&#45;&gt;Node9</title>
<g id="a_edge8_Node000006_Node000009"><a xlink:title=" ">
<path fill="none" stroke="#63b8ff" d="M161.73,-61.45C305.77,-52.97 855.16,-20.62 994.65,-12.41"/>
<polygon fill="#63b8ff" stroke="#63b8ff" points="994.92,-15.9 1004.7,-11.81 994.51,-8.91 994.92,-15.9"/>
</a>
</g>
</g>
<!-- Node10 -->
<g id="Node000010" class="node">
<title>Node10</title>
<g id="a_Node000010"><a xlink:title=" ">
<polygon fill="#e0e0e0" stroke="#999999" points="271.5,-19 202.5,-19 202.5,0 271.5,0 271.5,-19"/>
<text text-anchor="middle" x="237" y="-7" font-family="Helvetica,sans-Serif" font-size="10.00">type_traits</text>
</a>
</g>
</g>
<!-- Node6&#45;&gt;Node10 -->
<g id="edge9_Node000006_Node000010" class="edge">
<title>Node6&#45;&gt;Node10</title>
<g id="a_edge9_Node000006_Node000010"><a xlink:title=" ">
<path fill="none" stroke="#63b8ff" d="M144.67,-54.98C162.29,-46.5 189.58,-33.35 209.93,-23.54"/>
<polygon fill="#63b8ff" stroke="#63b8ff" points="211.52,-26.66 219.01,-19.17 208.48,-20.36 211.52,-26.66"/>
</a>
</g>
</g>
<!-- Node11&#45;&gt;Node9 -->
<g id="edge29_Node000011_Node000009" class="edge">
<title>Node11&#45;&gt;Node9</title>
<g id="a_edge29_Node000011_Node000009"><a xlink:title=" ">
<path fill="none" stroke="#63b8ff" d="M839.22,-275.63C923.94,-261.15 1084,-226.99 1084,-175.5 1084,-175.5 1084,-175.5 1084,-118.5 1084,-82.51 1058.94,-46.76 1042.05,-26.76"/>
<polygon fill="#63b8ff" stroke="#63b8ff" points="1044.64,-24.4 1035.41,-19.2 1039.38,-29.02 1044.64,-24.4"/>
</a>
</g>
</g>
<!-- Node12 -->
<g id="Node000012" class="node">
<title>Node12</title>
<g id="a_Node000012"><a xlink:href="deprecate_8h.html" target="_top" xlink:title=" ">
<polygon fill="white" stroke="#666666" points="911,-239 837,-239 837,-220 911,-220 911,-239"/>
<text text-anchor="middle" x="874" y="-227" font-family="Helvetica,sans-Serif" font-size="10.00">deprecate.h</text>
</a>
</g>
</g>
<!-- Node11&#45;&gt;Node12 -->
<g id="edge11_Node000011_Node000012" class="edge">
<title>Node11&#45;&gt;Node12</title>
<g id="a_edge11_Node000011_Node000012"><a xlink:title=" ">
<path fill="none" stroke="#63b8ff" d="M801.82,-274.98C815.15,-266.77 835.58,-254.18 851.31,-244.49"/>
<polygon fill="#63b8ff" stroke="#63b8ff" points="853.25,-247.4 859.93,-239.17 849.58,-241.44 853.25,-247.4"/>
</a>
</g>
</g>
<!-- Node13 -->
<g id="Node000013" class="node">
<title>Node13</title>
<g id="a_Node000013"><a xlink:href="irep_8h.html" target="_top" xlink:title=" ">
<polygon fill="white" stroke="#666666" points="781,-239 737,-239 737,-220 781,-220 781,-239"/>
<text text-anchor="middle" x="759" y="-227" font-family="Helvetica,sans-Serif" font-size="10.00">irep.h</text>
</a>
</g>
</g>
<!-- Node11&#45;&gt;Node13 -->
<g id="edge12_Node000011_Node000013" class="edge">
<title>Node11&#45;&gt;Node13</title>
<g id="a_edge12_Node000011_Node000013"><a xlink:title=" ">
<path fill="none" stroke="#63b8ff" d="M783.21,-274.75C779.24,-267.49 773.47,-256.95 768.57,-247.98"/>
<polygon fill="#63b8ff" stroke="#63b8ff" points="771.57,-246.18 763.7,-239.09 765.43,-249.54 771.57,-246.18"/>
</a>
</g>
</g>
<!-- Node31 -->
<g id="Node000031" class="node">
<title>Node31</title>
<g id="a_Node000031"><a xlink:title=" ">
<polygon fill="#e0e0e0" stroke="#999999" points="985,-239 929,-239 929,-220 985,-220 985,-239"/>
<text text-anchor="middle" x="957" y="-227" font-family="Helvetica,sans-Serif" font-size="10.00">optional</text>
</a>
</g>
</g>
<!-- Node11&#45;&gt;Node31 -->
<g id="edge28_Node000011_Node000031" class="edge">
<title>Node11&#45;&gt;Node31</title>
<g id="a_edge28_Node000011_Node000031"><a xlink:title=" ">
<path fill="none" stroke="#63b8ff" d="M815.15,-274.98C843.53,-266.09 888.23,-252.07 919.86,-242.15"/>
<polygon fill="#63b8ff" stroke="#63b8ff" points="921.14,-245.41 929.63,-239.08 919.05,-238.73 921.14,-245.41"/>
</a>
</g>
</g>
<!-- Node13&#45;&gt;Node6 -->
<g id="edge15_Node000013_Node000006" class="edge">
<title>Node13&#45;&gt;Node6</title>
<g id="a_edge15_Node000013_Node000006"><a xlink:title=" ">
<path fill="none" stroke="#63b8ff" d="M736.56,-221.97C709.85,-213.98 664.09,-199.57 626,-184 608.15,-176.7 605.49,-170.47 587,-165 460.33,-127.56 420.16,-160.96 292,-129 241.8,-116.48 186.17,-92.92 154.03,-78.28"/>
<polygon fill="#63b8ff" stroke="#63b8ff" points="155.39,-75.05 144.84,-74.05 152.46,-81.41 155.39,-75.05"/>
</a>
</g>
</g>
<!-- Node13&#45;&gt;Node9 -->
<g id="edge13_Node000013_Node000009" class="edge">
<title>Node13&#45;&gt;Node9</title>
<g id="a_edge13_Node000013_Node000009"><a xlink:title=" ">
<path fill="none" stroke="#63b8ff" d="M781.23,-222.22C813.65,-212.86 872.1,-195.16 891,-184 955.48,-145.91 1000.85,-64.68 1018.65,-28.51"/>
<polygon fill="#63b8ff" stroke="#63b8ff" points="1021.94,-29.74 1023.1,-19.2 1015.63,-26.71 1021.94,-29.74"/>
</a>
</g>
</g>
<!-- Node14 -->
<g id="Node000014" class="node">
<title>Node14</title>
<g id="a_Node000014"><a xlink:title=" ">
<polygon fill="#e0e0e0" stroke="#999999" points="577.5,-184 530.5,-184 530.5,-165 577.5,-165 577.5,-184"/>
<text text-anchor="middle" x="554" y="-172" font-family="Helvetica,sans-Serif" font-size="10.00">vector</text>
</a>
</g>
</g>
<!-- Node13&#45;&gt;Node14 -->
<g id="edge14_Node000013_Node000014" class="edge">
<title>Node13&#45;&gt;Node14</title>
<g id="a_edge14_Node000013_Node000014"><a xlink:title=" ">
<path fill="none" stroke="#63b8ff" d="M736.67,-222.73C700.62,-213.41 629.41,-195 587.34,-184.12"/>
<polygon fill="#63b8ff" stroke="#63b8ff" points="588.12,-180.71 577.56,-181.59 586.37,-187.48 588.12,-180.71"/>
</a>
</g>
</g>
<!-- Node15 -->
<g id="Node000015" class="node">
<title>Node15</title>
<g id="a_Node000015"><a xlink:href="irep__ids_8h.html" target="_top" xlink:title="util">
<polygon fill="white" stroke="#666666" points="882,-184 818,-184 818,-165 882,-165 882,-184"/>
<text text-anchor="middle" x="850" y="-172" font-family="Helvetica,sans-Serif" font-size="10.00">irep_ids.h</text>
</a>
</g>
</g>
<!-- Node13&#45;&gt;Node15 -->
<g id="edge16_Node000013_Node000015" class="edge">
<title>Node13&#45;&gt;Node15</title>
<g id="a_edge16_Node000013_Node000015"><a xlink:title=" ">
<path fill="none" stroke="#63b8ff" d="M773.62,-219.98C787.86,-211.69 809.75,-198.94 826.45,-189.22"/>
<polygon fill="#63b8ff" stroke="#63b8ff" points="828.23,-192.23 835.11,-184.17 824.71,-186.18 828.23,-192.23"/>
</a>
</g>
</g>
<!-- Node26 -->
<g id="Node000026" class="node">
<title>Node26</title>
<g id="a_Node000026"><a xlink:href="forward__list__as__map_8h.html" target="_top" xlink:title=" ">
<polygon fill="white" stroke="#666666" points="761.5,-184 634.5,-184 634.5,-165 761.5,-165 761.5,-184"/>
<text text-anchor="middle" x="698" y="-172" font-family="Helvetica,sans-Serif" font-size="10.00">forward_list_as_map.h</text>
</a>
</g>
</g>
<!-- Node13&#45;&gt;Node26 -->
<g id="edge21_Node000013_Node000026" class="edge">
<title>Node13&#45;&gt;Node26</title>
<g id="a_edge21_Node000013_Node000026"><a xlink:title=" ">
<path fill="none" stroke="#63b8ff" d="M749.2,-219.98C740.18,-212.15 726.59,-200.34 715.68,-190.86"/>
<polygon fill="#63b8ff" stroke="#63b8ff" points="717.82,-188.09 707.98,-184.17 713.23,-193.37 717.82,-188.09"/>
</a>
</g>
</g>
<!-- Node16 -->
<g id="Node000016" class="node">
<title>Node16</title>
<g id="a_Node000016"><a xlink:href="dstring_8h.html" target="_top" xlink:title="Container for C&#45;Strings.">
<polygon fill="#fff0f0" stroke="red" points="941.5,-129 882.5,-129 882.5,-110 941.5,-110 941.5,-129"/>
<text text-anchor="middle" x="912" y="-117" font-family="Helvetica,sans-Serif" font-size="10.00">dstring.h</text>
</a>
</g>
</g>
<!-- Node15&#45;&gt;Node16 -->
<g id="edge17_Node000015_Node000016" class="edge">
<title>Node15&#45;&gt;Node16</title>
<g id="a_edge17_Node000015_Node000016"><a xlink:title=" ">
<path fill="none" stroke="#63b8ff" d="M859.96,-164.98C869.13,-157.15 882.94,-145.34 894.03,-135.86"/>
<polygon fill="#63b8ff" stroke="#63b8ff" points="896.53,-138.33 901.86,-129.17 891.98,-133.01 896.53,-138.33"/>
</a>
</g>
</g>
<!-- Node25 -->
<g id="Node000025" class="node">
<title>Node25</title>
<g id="a_Node000025"><a xlink:title=" ">
<polygon fill="#e0e0e0" stroke="#999999" points="864,-129 790,-129 790,-110 864,-110 864,-129"/>
<text text-anchor="middle" x="827" y="-117" font-family="Helvetica,sans-Serif" font-size="10.00">irep_ids.def</text>
</a>
</g>
</g>
<!-- Node15&#45;&gt;Node25 -->
<g id="edge20_Node000015_Node000025" class="edge">
<title>Node15&#45;&gt;Node25</title>
<g id="a_edge20_Node000015_Node000025"><a xlink:title=" ">
<path fill="none" stroke="#63b8ff" d="M846.2,-164.75C843.09,-157.57 838.58,-147.18 834.71,-138.27"/>
<polygon fill="#63b8ff" stroke="#63b8ff" points="837.92,-136.87 830.73,-129.09 831.5,-139.66 837.92,-136.87"/>
</a>
</g>
</g>
<!-- Node16&#45;&gt;Node9 -->
<g id="edge19_Node000016_Node000009" class="edge">
<title>Node16&#45;&gt;Node9</title>
<g id="a_edge19_Node000016_Node000009"><a xlink:title=" ">
<path fill="none" stroke="#63b8ff" d="M921.41,-109.66C940.88,-91.38 985.81,-49.18 1010.32,-26.17"/>
<polygon fill="#63b8ff" stroke="#63b8ff" points="1012.89,-28.56 1017.78,-19.16 1008.09,-23.45 1012.89,-28.56"/>
</a>
</g>
</g>
<!-- Node16&#45;&gt;Node17 -->
<g id="edge18_Node000016_Node000017" class="edge">
<title>Node16&#45;&gt;Node17</title>
<g id="a_edge18_Node000016_Node000017"><a xlink:title=" ">
<path fill="none" stroke="#63b8ff" d="M898.02,-109.98C884.53,-101.77 863.87,-89.18 847.96,-79.49"/>
<polygon fill="#63b8ff" stroke="#63b8ff" points="849.59,-76.38 839.23,-74.17 845.95,-82.36 849.59,-76.38"/>
</a>
</g>
</g>
<!-- Node27 -->
<g id="Node000027" class="node">
<title>Node27</title>
<g id="a_Node000027"><a xlink:title=" ">
<polygon fill="#e0e0e0" stroke="#999999" points="734,-129 670,-129 670,-110 734,-110 734,-129"/>
<text text-anchor="middle" x="702" y="-117" font-family="Helvetica,sans-Serif" font-size="10.00">algorithm</text>
</a>
</g>
</g>
<!-- Node26&#45;&gt;Node27 -->
<g id="edge22_Node000026_Node000027" class="edge">
<title>Node26&#45;&gt;Node27</title>
<g id="a_edge22_Node000026_Node000027"><a xlink:title=" ">
<path fill="none" stroke="#63b8ff" d="M698.66,-164.75C699.18,-157.8 699.94,-147.85 700.59,-139.13"/>
<polygon fill="#63b8ff" stroke="#63b8ff" points="704.09,-139.32 701.35,-129.09 697.11,-138.8 704.09,-139.32"/>
</a>
</g>
</g>
<!-- Node28 -->
<g id="Node000028" class="node">
<title>Node28</title>
<g id="a_Node000028"><a xlink:title=" ">
<polygon fill="#e0e0e0" stroke="#999999" points="652,-129 578,-129 578,-110 652,-110 652,-129"/>
<text text-anchor="middle" x="615" y="-117" font-family="Helvetica,sans-Serif" font-size="10.00">forward_list</text>
</a>
</g>
</g>
<!-- Node26&#45;&gt;Node28 -->
<g id="edge23_Node000026_Node000028" class="edge">
<title>Node26&#45;&gt;Node28</title>
<g id="a_edge23_Node000026_Node000028"><a xlink:title=" ">
<path fill="none" stroke="#63b8ff" d="M684.66,-164.98C671.91,-156.84 652.45,-144.41 637.33,-134.76"/>
<polygon fill="#63b8ff" stroke="#63b8ff" points="638.89,-131.6 628.58,-129.17 635.12,-137.5 638.89,-131.6"/>
</a>
</g>
</g>
<!-- Node29 -->
<g id="Node000029" class="node">
<title>Node29</title>
<g id="a_Node000029"><a xlink:href="as__const_8h.html" target="_top" xlink:title=" ">
<polygon fill="white" stroke="#666666" points="560,-129 492,-129 492,-110 560,-110 560,-129"/>
<text text-anchor="middle" x="526" y="-117" font-family="Helvetica,sans-Serif" font-size="10.00">as_const.h</text>
</a>
</g>
</g>
<!-- Node26&#45;&gt;Node29 -->
<g id="edge24_Node000026_Node000029" class="edge">
<title>Node26&#45;&gt;Node29</title>
<g id="a_edge24_Node000026_Node000029"><a xlink:title=" ">
<path fill="none" stroke="#63b8ff" d="M670.37,-164.98C641.49,-156.09 595.99,-142.07 563.8,-132.15"/>
<polygon fill="#63b8ff" stroke="#63b8ff" points="564.44,-128.68 553.85,-129.08 562.38,-135.37 564.44,-128.68"/>
</a>
</g>
</g>
<!-- Node30 -->
<g id="Node000030" class="node">
<title>Node30</title>
<g id="a_Node000030"><a xlink:href="narrow_8h.html" target="_top" xlink:title=" ">
<polygon fill="white" stroke="#666666" points="359.5,-129 300.5,-129 300.5,-110 359.5,-110 359.5,-129"/>
<text text-anchor="middle" x="330" y="-117" font-family="Helvetica,sans-Serif" font-size="10.00">narrow.h</text>
</a>
</g>
</g>
<!-- Node26&#45;&gt;Node30 -->
<g id="edge25_Node000026_Node000030" class="edge">
<title>Node26&#45;&gt;Node30</title>
<g id="a_edge25_Node000026_Node000030"><a xlink:title=" ">
<path fill="none" stroke="#63b8ff" d="M638.87,-164.98C563.43,-154.12 434.95,-135.62 370.05,-126.27"/>
<polygon fill="#63b8ff" stroke="#63b8ff" points="370.22,-122.76 359.82,-124.8 369.22,-129.68 370.22,-122.76"/>
</a>
</g>
</g>
<!-- Node30&#45;&gt;Node6 -->
<g id="edge27_Node000030_Node000006" class="edge">
<title>Node30&#45;&gt;Node6</title>
<g id="a_edge27_Node000030_Node000006"><a xlink:title=" ">
<path fill="none" stroke="#63b8ff" d="M300.48,-110.79C265.99,-101.79 208.64,-86.81 169.39,-76.57"/>
<polygon fill="#63b8ff" stroke="#63b8ff" points="170.14,-73.15 159.58,-74.01 168.37,-79.92 170.14,-73.15"/>
</a>
</g>
</g>
<!-- Node30&#45;&gt;Node10 -->
<g id="edge26_Node000030_Node000010" class="edge">
<title>Node30&#45;&gt;Node10</title>
<g id="a_edge26_Node000030_Node000010"><a xlink:title=" ">
<path fill="none" stroke="#63b8ff" d="M322.39,-109.66C306.78,-91.54 270.94,-49.91 251.01,-26.77"/>
<polygon fill="#63b8ff" stroke="#63b8ff" points="253.63,-24.45 244.46,-19.16 248.33,-29.02 253.63,-24.45"/>
</a>
</g>
</g>
<!-- Node34 -->
<g id="Node000034" class="node">
<title>Node34</title>
<g id="a_Node000034"><a xlink:title=" ">
<polygon fill="#e0e0e0" stroke="#999999" points="759.5,-569 716.5,-569 716.5,-550 759.5,-550 759.5,-569"/>
<text text-anchor="middle" x="738" y="-557" font-family="Helvetica,sans-Serif" font-size="10.00">stack</text>
</a>
</g>
</g>
<!-- Node33&#45;&gt;Node34 -->
<g id="edge35_Node000033_Node000034" class="edge">
<title>Node33&#45;&gt;Node34</title>
<g id="a_edge35_Node000033_Node000034"><a xlink:title=" ">
<path fill="none" stroke="#63b8ff" d="M758.87,-604.75C755.49,-597.57 750.58,-587.18 746.38,-578.27"/>
<polygon fill="#63b8ff" stroke="#63b8ff" points="749.48,-576.64 742.05,-569.09 743.15,-579.63 749.48,-576.64"/>
</a>
</g>
</g>
<!-- Node35 -->
<g id="Node000035" class="node">
<title>Node35</title>
<g id="a_Node000035"><a xlink:href="parser_8h.html" target="_top" xlink:title="Parser utilities.">
<polygon fill="white" stroke="#666666" points="907,-569 833,-569 833,-550 907,-550 907,-569"/>
<text text-anchor="middle" x="870" y="-557" font-family="Helvetica,sans-Serif" font-size="10.00">util/parser.h</text>
</a>
</g>
</g>
<!-- Node33&#45;&gt;Node35 -->
<g id="edge36_Node000033_Node000035" class="edge">
<title>Node33&#45;&gt;Node35</title>
<g id="a_edge36_Node000033_Node000035"><a xlink:title=" ">
<path fill="none" stroke="#63b8ff" d="M780.19,-604.98C797.25,-596.54 823.63,-583.47 843.4,-573.68"/>
<polygon fill="#63b8ff" stroke="#63b8ff" points="845.09,-576.75 852.5,-569.17 841.98,-570.47 845.09,-576.75"/>
</a>
</g>
</g>
<!-- Node45 -->
<g id="Node000045" class="node">
<title>Node45</title>
<g id="a_Node000045"><a xlink:href="json_8h.html" target="_top" xlink:title=" ">
<polygon fill="white" stroke="#666666" points="665.5,-294 600.5,-294 600.5,-275 665.5,-275 665.5,-294"/>
<text text-anchor="middle" x="633" y="-282" font-family="Helvetica,sans-Serif" font-size="10.00">util/json.h</text>
</a>
</g>
</g>
<!-- Node33&#45;&gt;Node45 -->
<g id="edge60_Node000033_Node000045" class="edge">
<title>Node33&#45;&gt;Node45</title>
<g id="a_edge60_Node000033_Node000045"><a xlink:title=" ">
<path fill="none" stroke="#63b8ff" d="M766.37,-604.98C773.2,-586.93 788,-543.41 788,-505.5 788,-505.5 788,-505.5 788,-448.5 788,-419.04 789.77,-405.89 769,-385 730.33,-346.12 689.38,-388.16 651,-349 639.35,-337.12 635.13,-318.29 633.65,-304.22"/>
<polygon fill="#63b8ff" stroke="#63b8ff" points="637.14,-303.91 632.97,-294.17 630.16,-304.39 637.14,-303.91"/>
</a>
</g>
</g>
<!-- Node35&#45;&gt;Node5 -->
<g id="edge54_Node000035_Node000005" class="edge">
<title>Node35&#45;&gt;Node5</title>
<g id="a_edge54_Node000035_Node000005"><a xlink:title=" ">
<path fill="none" stroke="#63b8ff" d="M832.97,-554.77C756.38,-546.89 582.87,-528.09 525,-514 455.6,-497.11 427.74,-506.04 374,-459 342.66,-431.57 324.8,-384.4 316.92,-358.62"/>
<polygon fill="#63b8ff" stroke="#63b8ff" points="320.28,-357.64 314.14,-349 313.55,-359.58 320.28,-357.64"/>
</a>
</g>
</g>
<!-- Node35&#45;&gt;Node9 -->
<g id="edge58_Node000035_Node000009" class="edge">
<title>Node35&#45;&gt;Node9</title>
<g id="a_edge58_Node000035_Node000009"><a xlink:title=" ">
<path fill="none" stroke="#63b8ff" d="M907.4,-557.44C953.68,-554.74 1033.72,-545.47 1094,-514 1130.08,-495.16 1160,-491.21 1160,-450.5 1160,-450.5 1160,-450.5 1160,-118.5 1160,-66.54 1098.07,-35.2 1058.72,-20.54"/>
<polygon fill="#63b8ff" stroke="#63b8ff" points="1059.86,-17.23 1049.26,-17.17 1057.51,-23.82 1059.86,-17.23"/>
</a>
</g>
</g>
<!-- Node35&#45;&gt;Node14 -->
<g id="edge59_Node000035_Node000014" class="edge">
<title>Node35&#45;&gt;Node14</title>
<g id="a_edge59_Node000035_Node000014"><a xlink:title=" ">
<path fill="none" stroke="#63b8ff" d="M863.7,-549.75C851.53,-531.98 826,-489.98 826,-450.5 826,-450.5 826,-450.5 826,-393.5 826,-355.58 796.54,-356.07 769,-330 740.64,-303.16 664.28,-241.96 632,-220 615.24,-208.6 595.39,-197.3 579.9,-188.94"/>
<polygon fill="#63b8ff" stroke="#63b8ff" points="581.37,-185.75 570.89,-184.14 578.07,-191.93 581.37,-185.75"/>
</a>
</g>
</g>
<!-- Node35&#45;&gt;Node17 -->
<g id="edge56_Node000035_Node000017" class="edge">
<title>Node35&#45;&gt;Node17</title>
<g id="a_edge56_Node000035_Node000017"><a xlink:title=" ">
<path fill="none" stroke="#63b8ff" d="M901.74,-549.95C943.87,-536.46 1013,-505.88 1013,-450.5 1013,-450.5 1013,-450.5 1013,-283.5 1013,-248.37 954.89,-113.77 951,-110 926.01,-85.83 887.1,-74.71 859.13,-69.64"/>
<polygon fill="#63b8ff" stroke="#63b8ff" points="859.44,-66.14 849,-67.98 858.3,-73.05 859.44,-66.14"/>
</a>
</g>
</g>
<!-- Node36 -->
<g id="Node000036" class="node">
<title>Node36</title>
<g id="a_Node000036"><a xlink:href="expr_8h.html" target="_top" xlink:title=" ">
<polygon fill="white" stroke="#666666" points="580.5,-514 533.5,-514 533.5,-495 580.5,-495 580.5,-514"/>
<text text-anchor="middle" x="557" y="-502" font-family="Helvetica,sans-Serif" font-size="10.00">expr.h</text>
</a>
</g>
</g>
<!-- Node35&#45;&gt;Node36 -->
<g id="edge37_Node000035_Node000036" class="edge">
<title>Node35&#45;&gt;Node36</title>
<g id="a_edge37_Node000035_Node000036"><a xlink:title=" ">
<path fill="none" stroke="#63b8ff" d="M832.87,-552.21C771.46,-541.81 649.67,-521.19 590.64,-511.2"/>
<polygon fill="#63b8ff" stroke="#63b8ff" points="591.16,-507.73 580.71,-509.52 589.99,-514.64 591.16,-507.73"/>
</a>
</g>
</g>
<!-- Node43 -->
<g id="Node000043" class="node">
<title>Node43</title>
<g id="a_Node000043"><a xlink:title=" ">
<polygon fill="#e0e0e0" stroke="#999999" points="922,-514 854,-514 854,-495 922,-495 922,-514"/>
<text text-anchor="middle" x="888" y="-502" font-family="Helvetica,sans-Serif" font-size="10.00">filesystem</text>
</a>
</g>
</g>
<!-- Node35&#45;&gt;Node43 -->
<g id="edge55_Node000035_Node000043" class="edge">
<title>Node35&#45;&gt;Node43</title>
<g id="a_edge55_Node000035_Node000043"><a xlink:title=" ">
<path fill="none" stroke="#63b8ff" d="M872.97,-549.75C875.36,-542.72 878.79,-532.62 881.77,-523.84"/>
<polygon fill="#63b8ff" stroke="#63b8ff" points="885.18,-524.68 885.08,-514.09 878.55,-522.43 885.18,-524.68"/>
</a>
</g>
</g>
<!-- Node44 -->
<g id="Node000044" class="node">
<title>Node44</title>
<g id="a_Node000044"><a xlink:title=" ">
<polygon fill="#e0e0e0" stroke="#999999" points="1085,-514 1041,-514 1041,-495 1085,-495 1085,-514"/>
<text text-anchor="middle" x="1063" y="-502" font-family="Helvetica,sans-Serif" font-size="10.00">limits</text>
</a>
</g>
</g>
<!-- Node35&#45;&gt;Node44 -->
<g id="edge57_Node000035_Node000044" class="edge">
<title>Node35&#45;&gt;Node44</title>
<g id="a_edge57_Node000035_Node000044"><a xlink:title=" ">
<path fill="none" stroke="#63b8ff" d="M901.01,-549.98C936.6,-540.21 994.7,-524.26 1030.79,-514.35"/>
<polygon fill="#63b8ff" stroke="#63b8ff" points="1032.08,-517.62 1040.79,-511.6 1030.22,-510.87 1032.08,-517.62"/>
</a>
</g>
</g>
<!-- Node36&#45;&gt;Node29 -->
<g id="edge38_Node000036_Node000029" class="edge">
<title>Node36&#45;&gt;Node29</title>
<g id="a_edge38_Node000036_Node000029"><a xlink:title=" ">
<path fill="none" stroke="#63b8ff" d="M533.17,-496.84C514.09,-490.29 488.12,-478.39 473,-459 442.05,-419.3 452.04,-398.98 446,-349 436.04,-266.65 488.99,-175.46 513.76,-138.01"/>
<polygon fill="#63b8ff" stroke="#63b8ff" points="516.95,-139.54 519.67,-129.3 511.16,-135.62 516.95,-139.54"/>
</a>
</g>
</g>
<!-- Node36&#45;&gt;Node32 -->
<g id="edge53_Node000036_Node000032" class="edge">
<title>Node36&#45;&gt;Node32</title>
<g id="a_edge53_Node000036_Node000032"><a xlink:title=" ">
<path fill="none" stroke="#63b8ff" d="M533.23,-498.85C496.84,-491.31 429.67,-475.58 412,-459 390,-438.36 388,-425.67 388,-395.5 388,-395.5 388,-395.5 388,-283.5 388,-246.95 361.18,-211.38 343.11,-191.57"/>
<polygon fill="#63b8ff" stroke="#63b8ff" points="345.42,-188.93 336,-184.08 340.35,-193.75 345.42,-188.93"/>
</a>
</g>
</g>
<!-- Node37 -->
<g id="Node000037" class="node">
<title>Node37</title>
<g id="a_Node000037"><a xlink:href="type_8h.html" target="_top" xlink:title="Defines typet, type_with_subtypet and type_with_subtypest.">
<polygon fill="white" stroke="#666666" points="686.5,-459 639.5,-459 639.5,-440 686.5,-440 686.5,-459"/>
<text text-anchor="middle" x="663" y="-447" font-family="Helvetica,sans-Serif" font-size="10.00">type.h</text>
</a>
</g>
</g>
<!-- Node36&#45;&gt;Node37 -->
<g id="edge39_Node000036_Node000037" class="edge">
<title>Node36&#45;&gt;Node37</title>
<g id="a_edge39_Node000036_Node000037"><a xlink:title=" ">
<path fill="none" stroke="#63b8ff" d="M574.03,-494.98C590.93,-486.54 617.06,-473.47 636.64,-463.68"/>
<polygon fill="#63b8ff" stroke="#63b8ff" points="638.28,-466.77 645.66,-459.17 635.15,-460.51 638.28,-466.77"/>
</a>
</g>
</g>
<!-- Node40 -->
<g id="Node000040" class="node">
<title>Node40</title>
<g id="a_Node000040"><a xlink:href="validation__mode_8h.html" target="_top" xlink:title=" ">
<polygon fill="white" stroke="#666666" points="561.5,-349 454.5,-349 454.5,-330 561.5,-330 561.5,-349"/>
<text text-anchor="middle" x="508" y="-337" font-family="Helvetica,sans-Serif" font-size="10.00">validation_mode.h</text>
</a>
</g>
</g>
<!-- Node36&#45;&gt;Node40 -->
<g id="edge52_Node000036_Node000040" class="edge">
<title>Node36&#45;&gt;Node40</title>
<g id="a_edge52_Node000036_Node000040"><a xlink:title=" ">
<path fill="none" stroke="#63b8ff" d="M533.32,-496.1C516.25,-489.39 494.47,-477.64 484,-459 465.75,-426.51 484.36,-382.09 497.48,-357.91"/>
<polygon fill="#63b8ff" stroke="#63b8ff" points="500.56,-359.58 502.48,-349.16 494.48,-356.11 500.56,-359.58"/>
</a>
</g>
</g>
<!-- Node41 -->
<g id="Node000041" class="node">
<title>Node41</title>
<g id="a_Node000041"><a xlink:href="validate__types_8h.html" target="_top" xlink:title=" ">
<polygon fill="white" stroke="#666666" points="760,-404 662,-404 662,-385 760,-385 760,-404"/>
<text text-anchor="middle" x="711" y="-392" font-family="Helvetica,sans-Serif" font-size="10.00">validate_types.h</text>
</a>
</g>
</g>
<!-- Node36&#45;&gt;Node41 -->
<g id="edge51_Node000036_Node000041" class="edge">
<title>Node36&#45;&gt;Node41</title>
<g id="a_edge51_Node000036_Node000041"><a xlink:title=" ">
<path fill="none" stroke="#63b8ff" d="M580.63,-502.75C611.68,-500.44 665.8,-491.64 696,-459 707.06,-447.05 710.43,-428.5 711.26,-414.52"/>
<polygon fill="#63b8ff" stroke="#63b8ff" points="714.76,-414.18 711.47,-404.11 707.76,-414.04 714.76,-414.18"/>
</a>
</g>
</g>
<!-- Node42 -->
<g id="Node000042" class="node">
<title>Node42</title>
<g id="a_Node000042"><a xlink:href="validate__expressions_8h.html" target="_top" xlink:title=" ">
<polygon fill="white" stroke="#666666" points="621.5,-459 492.5,-459 492.5,-440 621.5,-440 621.5,-459"/>
<text text-anchor="middle" x="557" y="-447" font-family="Helvetica,sans-Serif" font-size="10.00">validate_expressions.h</text>
</a>
</g>
</g>
<!-- Node36&#45;&gt;Node42 -->
<g id="edge50_Node000036_Node000042" class="edge">
<title>Node36&#45;&gt;Node42</title>
<g id="a_edge50_Node000036_Node000042"><a xlink:title=" ">
<path fill="none" stroke="#63b8ff" d="M557,-494.75C557,-487.8 557,-477.85 557,-469.13"/>
<polygon fill="#63b8ff" stroke="#63b8ff" points="560.5,-469.09 557,-459.09 553.5,-469.09 560.5,-469.09"/>
</a>
</g>
</g>
<!-- Node37&#45;&gt;Node11 -->
<g id="edge40_Node000037_Node000011" class="edge">
<title>Node37&#45;&gt;Node11</title>
<g id="a_edge40_Node000037_Node000011"><a xlink:title=" ">
<path fill="none" stroke="#63b8ff" d="M657.96,-439.75C651.09,-426.55 640.95,-401.35 653,-385 685.02,-341.54 731.02,-387.36 769,-349 780.75,-337.13 785.29,-318.3 787.01,-304.22"/>
<polygon fill="#63b8ff" stroke="#63b8ff" points="790.5,-304.44 787.87,-294.17 783.53,-303.84 790.5,-304.44"/>
</a>
</g>
</g>
<!-- Node38 -->
<g id="Node000038" class="node">
<title>Node38</title>
<g id="a_Node000038"><a xlink:href="validate_8h.html" target="_top" xlink:title=" ">
<polygon fill="white" stroke="#666666" points="605.5,-404 540.5,-404 540.5,-385 605.5,-385 605.5,-404"/>
<text text-anchor="middle" x="573" y="-392" font-family="Helvetica,sans-Serif" font-size="10.00">validate.h</text>
</a>
</g>
</g>
<!-- Node37&#45;&gt;Node38 -->
<g id="edge41_Node000037_Node000038" class="edge">
<title>Node37&#45;&gt;Node38</title>
<g id="a_edge41_Node000037_Node000038"><a xlink:title=" ">
<path fill="none" stroke="#63b8ff" d="M648.54,-439.98C634.58,-431.77 613.21,-419.18 596.75,-409.49"/>
<polygon fill="#63b8ff" stroke="#63b8ff" points="598.12,-406.23 587.72,-404.17 594.56,-412.26 598.12,-406.23"/>
</a>
</g>
</g>
<!-- Node37&#45;&gt;Node40 -->
<g id="edge49_Node000037_Node000040" class="edge">
<title>Node37&#45;&gt;Node40</title>
<g id="a_edge49_Node000037_Node000040"><a xlink:title=" ">
<path fill="none" stroke="#63b8ff" d="M639.34,-441.66C603.79,-431.2 539.92,-411.66 532,-404 519.7,-392.11 513.63,-373.28 510.68,-359.21"/>
<polygon fill="#63b8ff" stroke="#63b8ff" points="514.1,-358.42 508.93,-349.17 507.2,-359.62 514.1,-358.42"/>
</a>
</g>
</g>
<!-- Node37&#45;&gt;Node41 -->
<g id="edge48_Node000037_Node000041" class="edge">
<title>Node37&#45;&gt;Node41</title>
<g id="a_edge48_Node000037_Node000041"><a xlink:title=" ">
<path fill="none" stroke="#63b8ff" d="M670.93,-439.75C677.85,-432.11 688.07,-420.82 696.45,-411.56"/>
<polygon fill="#63b8ff" stroke="#63b8ff" points="699.1,-413.85 703.22,-404.09 693.91,-409.15 699.1,-413.85"/>
</a>
</g>
</g>
<!-- Node38&#45;&gt;Node10 -->
<g id="edge42_Node000038_Node000010" class="edge">
<title>Node38&#45;&gt;Node10</title>
<g id="a_edge42_Node000038_Node000010"><a xlink:title=" ">
<path fill="none" stroke="#63b8ff" d="M574.56,-384.89C576.44,-372.31 578.5,-348.38 571,-330 520.89,-207.08 467.01,-199.52 369,-110 332.45,-76.61 285.22,-43.04 258.3,-24.7"/>
<polygon fill="#63b8ff" stroke="#63b8ff" points="260.24,-21.78 250,-19.08 256.32,-27.58 260.24,-21.78"/>
</a>
</g>
</g>
<!-- Node39 -->
<g id="Node000039" class="node">
<title>Node39</title>
<g id="a_Node000039"><a xlink:href="exception__utils_8h.html" target="_top" xlink:title=" ">
<polygon fill="white" stroke="#666666" points="760,-349 660,-349 660,-330 760,-330 760,-349"/>
<text text-anchor="middle" x="710" y="-337" font-family="Helvetica,sans-Serif" font-size="10.00">exception_utils.h</text>
</a>
</g>
</g>
<!-- Node38&#45;&gt;Node39 -->
<g id="edge43_Node000038_Node000039" class="edge">
<title>Node38&#45;&gt;Node39</title>
<g id="a_edge43_Node000038_Node000039"><a xlink:title=" ">
<path fill="none" stroke="#63b8ff" d="M595.01,-384.98C617.45,-376.3 652.48,-362.75 677.99,-352.88"/>
<polygon fill="#63b8ff" stroke="#63b8ff" points="679.52,-356.04 687.59,-349.17 677,-349.51 679.52,-356.04"/>
</a>
</g>
</g>
<!-- Node38&#45;&gt;Node40 -->
<g id="edge47_Node000038_Node000040" class="edge">
<title>Node38&#45;&gt;Node40</title>
<g id="a_edge47_Node000038_Node000040"><a xlink:title=" ">
<path fill="none" stroke="#63b8ff" d="M562.56,-384.98C552.85,-377.07 538.18,-365.11 526.5,-355.58"/>
<polygon fill="#63b8ff" stroke="#63b8ff" points="528.6,-352.78 518.63,-349.17 524.17,-358.2 528.6,-352.78"/>
</a>
</g>
</g>
<!-- Node39&#45;&gt;Node6 -->
<g id="edge45_Node000039_Node000006" class="edge">
<title>Node39&#45;&gt;Node6</title>
<g id="a_edge45_Node000039_Node000006"><a xlink:title=" ">
<path fill="none" stroke="#63b8ff" d="M659.83,-335.01C542.98,-325.95 257.03,-298.16 184,-239 136.2,-200.28 128.11,-120.61 127,-84.29"/>
<polygon fill="#63b8ff" stroke="#63b8ff" points="130.5,-84.07 126.84,-74.12 123.5,-84.18 130.5,-84.07"/>
</a>
</g>
</g>
<!-- Node39&#45;&gt;Node9 -->
<g id="edge44_Node000039_Node000009" class="edge">
<title>Node39&#45;&gt;Node9</title>
<g id="a_edge44_Node000039_Node000009"><a xlink:title=" ">
<path fill="none" stroke="#63b8ff" d="M760.11,-335.9C869.91,-328.83 1122,-304.54 1122,-230.5 1122,-230.5 1122,-230.5 1122,-118.5 1122,-75.91 1079.84,-42.14 1051.69,-24.33"/>
<polygon fill="#63b8ff" stroke="#63b8ff" points="1053.48,-21.32 1043.12,-19.12 1049.84,-27.31 1053.48,-21.32"/>
</a>
</g>
</g>
<!-- Node39&#45;&gt;Node11 -->
<g id="edge46_Node000039_Node000011" class="edge">
<title>Node39&#45;&gt;Node11</title>
<g id="a_edge46_Node000039_Node000011"><a xlink:title=" ">
<path fill="none" stroke="#63b8ff" d="M722.53,-329.98C734.4,-321.92 752.46,-309.65 766.61,-300.03"/>
<polygon fill="#63b8ff" stroke="#63b8ff" points="768.94,-302.69 775.24,-294.17 765,-296.9 768.94,-302.69"/>
</a>
</g>
</g>
<!-- Node45&#45;&gt;Node9 -->
<g id="edge64_Node000045_Node000009" class="edge">
<title>Node45&#45;&gt;Node9</title>
<g id="a_edge64_Node000045_Node000009"><a xlink:title=" ">
<path fill="none" stroke="#63b8ff" d="M665.75,-276.12C697.93,-268.42 748.13,-255.23 790,-239 807.61,-232.17 810.79,-227.77 828,-220 866.89,-202.45 881.11,-207.08 917,-184 971.33,-149.05 986.13,-133.19 1012,-74 1018.32,-59.55 1022.2,-42.04 1024.43,-29.07"/>
<polygon fill="#63b8ff" stroke="#63b8ff" points="1027.91,-29.44 1025.98,-19.03 1020.99,-28.37 1027.91,-29.44"/>
</a>
</g>
</g>
<!-- Node45&#45;&gt;Node13 -->
<g id="edge65_Node000045_Node000013" class="edge">
<title>Node45&#45;&gt;Node13</title>
<g id="a_edge65_Node000045_Node000013"><a xlink:title=" ">
<path fill="none" stroke="#63b8ff" d="M653.24,-274.98C673.7,-266.38 705.53,-252.99 728.93,-243.15"/>
<polygon fill="#63b8ff" stroke="#63b8ff" points="730.53,-246.27 738.39,-239.17 727.81,-239.82 730.53,-246.27"/>
</a>
</g>
</g>
<!-- Node45&#45;&gt;Node14 -->
<g id="edge61_Node000045_Node000014" class="edge">
<title>Node45&#45;&gt;Node14</title>
<g id="a_edge61_Node000045_Node000014"><a xlink:title=" ">
<path fill="none" stroke="#63b8ff" d="M632.17,-274.95C630.56,-262.01 626.03,-237.15 614,-220 605.16,-207.39 591.61,-196.91 579.62,-189.29"/>
<polygon fill="#63b8ff" stroke="#63b8ff" points="581.24,-186.18 570.87,-184.03 577.64,-192.18 581.24,-186.18"/>
</a>
</g>
</g>
<!-- Node45&#45;&gt;Node17 -->
<g id="edge63_Node000045_Node000017" class="edge">
<title>Node45&#45;&gt;Node17</title>
<g id="a_edge63_Node000045_Node000017"><a xlink:title=" ">
<path fill="none" stroke="#63b8ff" d="M646.32,-274.77C679.41,-252.98 763.21,-196.98 771,-184 788.07,-155.54 766.35,-139.78 781,-110 786.58,-98.65 796.18,-88.43 804.99,-80.65"/>
<polygon fill="#63b8ff" stroke="#63b8ff" points="807.26,-83.31 812.72,-74.23 802.79,-77.92 807.26,-83.31"/>
</a>
</g>
</g>
<!-- Node46 -->
<g id="Node000046" class="node">
<title>Node46</title>
<g id="a_Node000046"><a xlink:title=" ">
<polygon fill="#e0e0e0" stroke="#999999" points="605,-239 567,-239 567,-220 605,-220 605,-239"/>
<text text-anchor="middle" x="586" y="-227" font-family="Helvetica,sans-Serif" font-size="10.00">map</text>
</a>
</g>
</g>
<!-- Node45&#45;&gt;Node46 -->
<g id="edge62_Node000045_Node000046" class="edge">
<title>Node45&#45;&gt;Node46</title>
<g id="a_edge62_Node000045_Node000046"><a xlink:title=" ">
<path fill="none" stroke="#63b8ff" d="M625.24,-274.75C618.53,-267.18 608.66,-256.05 600.49,-246.84"/>
<polygon fill="#63b8ff" stroke="#63b8ff" points="602.87,-244.25 593.62,-239.09 597.63,-248.89 602.87,-244.25"/>
</a>
</g>
</g>
<!-- Node47 -->
<g id="Node000047" class="node">
<title>Node47</title>
<g id="a_Node000047"><a xlink:href="range_8h.html" target="_top" xlink:title="Ranges: pair of begin and end iterators, which can be initialized from containers,...">
<polygon fill="white" stroke="#666666" points="245.5,-239 192.5,-239 192.5,-220 245.5,-220 245.5,-239"/>
<text text-anchor="middle" x="219" y="-227" font-family="Helvetica,sans-Serif" font-size="10.00">range.h</text>
</a>
</g>
</g>
<!-- Node45&#45;&gt;Node47 -->
<g id="edge66_Node000045_Node000047" class="edge">
<title>Node45&#45;&gt;Node47</title>
<g id="a_edge66_Node000045_Node000047"><a xlink:title=" ">
<path fill="none" stroke="#63b8ff" d="M600.17,-279.3C523.94,-269.54 335.38,-245.4 255.59,-235.18"/>
<polygon fill="#63b8ff" stroke="#63b8ff" points="255.89,-231.69 245.52,-233.9 255,-238.64 255.89,-231.69"/>
</a>
</g>
</g>
<!-- Node47&#45;&gt;Node6 -->
<g id="edge67_Node000047_Node000006" class="edge">
<title>Node47&#45;&gt;Node6</title>
<g id="a_edge67_Node000047_Node000006"><a xlink:title=" ">
<path fill="none" stroke="#63b8ff" d="M208.65,-219.85C199.14,-211.48 185.19,-198.02 176,-184 154.62,-151.38 139.56,-107.92 132.18,-83.73"/>
<polygon fill="#63b8ff" stroke="#63b8ff" points="135.52,-82.67 129.33,-74.07 128.8,-84.65 135.52,-82.67"/>
</a>
</g>
</g>
<!-- Node47&#45;&gt;Node10 -->
<g id="edge70_Node000047_Node000010" class="edge">
<title>Node47&#45;&gt;Node10</title>
<g id="a_edge70_Node000047_Node000010"><a xlink:title=" ">
<path fill="none" stroke="#63b8ff" d="M216.43,-219.73C213.95,-210.83 210.4,-196.59 209,-184 202.68,-127.03 220.71,-60.25 230.76,-28.73"/>
<polygon fill="#63b8ff" stroke="#63b8ff" points="234.12,-29.72 233.93,-19.12 227.47,-27.52 234.12,-29.72"/>
</a>
</g>
</g>
<!-- Node47&#45;&gt;Node32 -->
<g id="edge68_Node000047_Node000032" class="edge">
<title>Node47&#45;&gt;Node32</title>
<g id="a_edge68_Node000047_Node000032"><a xlink:title=" ">
<path fill="none" stroke="#63b8ff" d="M236.35,-219.98C253.57,-211.54 280.2,-198.47 300.15,-188.68"/>
<polygon fill="#63b8ff" stroke="#63b8ff" points="301.9,-191.72 309.33,-184.17 298.81,-185.43 301.9,-191.72"/>
</a>
</g>
</g>
<!-- Node48 -->
<g id="Node000048" class="node">
<title>Node48</title>
<g id="a_Node000048"><a xlink:title=" ">
<polygon fill="#e0e0e0" stroke="#999999" points="276,-184 218,-184 218,-165 276,-165 276,-184"/>
<text text-anchor="middle" x="247" y="-172" font-family="Helvetica,sans-Serif" font-size="10.00">memory</text>
</a>
</g>
</g>
<!-- Node47&#45;&gt;Node48 -->
<g id="edge69_Node000047_Node000048" class="edge">
<title>Node47&#45;&gt;Node48</title>
<g id="a_edge69_Node000047_Node000048"><a xlink:title=" ">
<path fill="none" stroke="#63b8ff" d="M223.62,-219.75C227.46,-212.49 233.02,-201.95 237.76,-192.98"/>
<polygon fill="#63b8ff" stroke="#63b8ff" points="240.89,-194.57 242.46,-184.09 234.7,-191.3 240.89,-194.57"/>
</a>
</g>
</g>
</g>
</svg>
