<?xml version="1.0" encoding="UTF-8" standalone="no"?>
<!DOCTYPE svg PUBLIC "-//W3C//DTD SVG 1.1//EN"
 "http://www.w3.org/Graphics/SVG/1.1/DTD/svg11.dtd">
<!-- Generated by graphviz version 2.43.0 (0)
 -->
<!-- Title: /home/runner/work/cbmc/cbmc/jbmc/src/java_bytecode/java_object_factory.h Pages: 1 -->
<svg width="987pt" height="654pt"
 viewBox="0.00 0.00 986.50 654.00" xmlns="http://www.w3.org/2000/svg" xmlns:xlink="http://www.w3.org/1999/xlink">
<g id="graph0" class="graph" transform="scale(1 1) rotate(0) translate(4 650)">
<title>/home/runner/work/cbmc/cbmc/jbmc/src/java_bytecode/java_object_factory.h</title>
<!-- Node1 -->
<g id="Node000001" class="node">
<title>Node1</title>
<g id="a_Node000001"><a xlink:title="This module is responsible for the synthesis of code (in the form of a sequence of codet statements) ...">
<polygon fill="#999999" stroke="#666666" points="895,-646 731,-646 731,-605 895,-605 895,-646"/>
<text text-anchor="start" x="739" y="-634" font-family="Helvetica,sans-Serif" font-size="10.00">/home/runner/work/cbmc</text>
<text text-anchor="start" x="739" y="-623" font-family="Helvetica,sans-Serif" font-size="10.00">/cbmc/jbmc/src/java_bytecode</text>
<text text-anchor="middle" x="813" y="-612" font-family="Helvetica,sans-Serif" font-size="10.00">/java_object_factory.h</text>
</a>
</g>
</g>
<!-- Node2 -->
<g id="Node000002" class="node">
<title>Node2</title>
<g id="a_Node000002"><a xlink:href="std__code_8h.html" target="_top" xlink:title=" ">
<polygon fill="white" stroke="#666666" points="852,-514 764,-514 764,-495 852,-495 852,-514"/>
<text text-anchor="middle" x="808" y="-502" font-family="Helvetica,sans-Serif" font-size="10.00">util/std_code.h</text>
</a>
</g>
</g>
<!-- Node1&#45;&gt;Node2 -->
<g id="edge1_Node000001_Node000002" class="edge">
<title>Node1&#45;&gt;Node2</title>
<g id="a_edge1_Node000001_Node000002"><a xlink:title=" ">
<path fill="none" stroke="#63b8ff" d="M812.17,-604.85C811.23,-582.48 809.71,-546.19 808.79,-524.21"/>
<polygon fill="#63b8ff" stroke="#63b8ff" points="812.28,-524.02 808.36,-514.18 805.29,-524.31 812.28,-524.02"/>
</a>
</g>
</g>
<!-- Node44 -->
<g id="Node000044" class="node">
<title>Node44</title>
<g id="a_Node000044"><a xlink:href="allocate__objects_8h.html" target="_top" xlink:title=" ">
<polygon fill="white" stroke="#666666" points="978.5,-569 841.5,-569 841.5,-550 978.5,-550 978.5,-569"/>
<text text-anchor="middle" x="910" y="-557" font-family="Helvetica,sans-Serif" font-size="10.00">ansi&#45;c/allocate_objects.h</text>
</a>
</g>
</g>
<!-- Node1&#45;&gt;Node44 -->
<g id="edge46_Node000001_Node000044" class="edge">
<title>Node1&#45;&gt;Node44</title>
<g id="a_edge46_Node000001_Node000044"><a xlink:title=" ">
<path fill="none" stroke="#63b8ff" d="M842.63,-604.95C857.39,-595.21 874.91,-583.65 888.38,-574.76"/>
<polygon fill="#63b8ff" stroke="#63b8ff" points="890.56,-577.52 896.98,-569.09 886.7,-571.68 890.56,-577.52"/>
</a>
</g>
</g>
<!-- Node46 -->
<g id="Node000046" class="node">
<title>Node46</title>
<g id="a_Node000046"><a xlink:href="nondet_8h.html" target="_top" xlink:title=" ">
<polygon fill="white" stroke="#666666" points="784.5,-569 725.5,-569 725.5,-550 784.5,-550 784.5,-569"/>
<text text-anchor="middle" x="755" y="-557" font-family="Helvetica,sans-Serif" font-size="10.00">nondet.h</text>
</a>
</g>
</g>
<!-- Node1&#45;&gt;Node46 -->
<g id="edge51_Node000001_Node000046" class="edge">
<title>Node1&#45;&gt;Node46</title>
<g id="a_edge51_Node000001_Node000046"><a xlink:title=" ">
<path fill="none" stroke="#63b8ff" d="M795.28,-604.95C787.1,-595.92 777.5,-585.33 769.73,-576.75"/>
<polygon fill="#63b8ff" stroke="#63b8ff" points="772.25,-574.32 762.94,-569.26 767.06,-579.02 772.25,-574.32"/>
</a>
</g>
</g>
<!-- Node3 -->
<g id="Node000003" class="node">
<title>Node3</title>
<g id="a_Node000003"><a xlink:title=" ">
<polygon fill="#e0e0e0" stroke="#999999" points="884,-459 852,-459 852,-440 884,-440 884,-459"/>
<text text-anchor="middle" x="868" y="-447" font-family="Helvetica,sans-Serif" font-size="10.00">list</text>
</a>
</g>
</g>
<!-- Node2&#45;&gt;Node3 -->
<g id="edge2_Node000002_Node000003" class="edge">
<title>Node2&#45;&gt;Node3</title>
<g id="a_edge2_Node000002_Node000003"><a xlink:title=" ">
<path fill="none" stroke="#63b8ff" d="M817.64,-494.98C826.51,-487.15 839.87,-475.34 850.61,-465.86"/>
<polygon fill="#63b8ff" stroke="#63b8ff" points="853.01,-468.41 858.18,-459.17 848.37,-463.17 853.01,-468.41"/>
</a>
</g>
</g>
<!-- Node4 -->
<g id="Node000004" class="node">
<title>Node4</title>
<g id="a_Node000004"><a xlink:href="std__code__base_8h.html" target="_top" xlink:title=" ">
<polygon fill="white" stroke="#666666" points="731,-459 633,-459 633,-440 731,-440 731,-459"/>
<text text-anchor="middle" x="682" y="-447" font-family="Helvetica,sans-Serif" font-size="10.00">std_code_base.h</text>
</a>
</g>
</g>
<!-- Node2&#45;&gt;Node4 -->
<g id="edge3_Node000002_Node000004" class="edge">
<title>Node2&#45;&gt;Node4</title>
<g id="a_edge3_Node000002_Node000004"><a xlink:title=" ">
<path fill="none" stroke="#63b8ff" d="M787.76,-494.98C767.3,-486.38 735.47,-472.99 712.07,-463.15"/>
<polygon fill="#63b8ff" stroke="#63b8ff" points="713.19,-459.82 702.61,-459.17 710.47,-466.27 713.19,-459.82"/>
</a>
</g>
</g>
<!-- Node43 -->
<g id="Node000043" class="node">
<title>Node43</title>
<g id="a_Node000043"><a xlink:href="std__expr_8h.html" target="_top" xlink:title="API to expression classes.">
<polygon fill="white" stroke="#666666" points="833.5,-459 766.5,-459 766.5,-440 833.5,-440 833.5,-459"/>
<text text-anchor="middle" x="800" y="-447" font-family="Helvetica,sans-Serif" font-size="10.00">std_expr.h</text>
</a>
</g>
</g>
<!-- Node2&#45;&gt;Node43 -->
<g id="edge42_Node000002_Node000043" class="edge">
<title>Node2&#45;&gt;Node43</title>
<g id="a_edge42_Node000002_Node000043"><a xlink:title=" ">
<path fill="none" stroke="#63b8ff" d="M806.68,-494.75C805.63,-487.8 804.13,-477.85 802.81,-469.13"/>
<polygon fill="#63b8ff" stroke="#63b8ff" points="806.25,-468.45 801.3,-459.09 799.33,-469.5 806.25,-468.45"/>
</a>
</g>
</g>
<!-- Node5 -->
<g id="Node000005" class="node">
<title>Node5</title>
<g id="a_Node000005"><a xlink:href="expr__cast_8h.html" target="_top" xlink:title="Templated functions to cast to specific exprt&#45;derived classes.">
<polygon fill="white" stroke="#666666" points="718.5,-349 645.5,-349 645.5,-330 718.5,-330 718.5,-349"/>
<text text-anchor="middle" x="682" y="-337" font-family="Helvetica,sans-Serif" font-size="10.00">expr_cast.h</text>
</a>
</g>
</g>
<!-- Node4&#45;&gt;Node5 -->
<g id="edge4_Node000004_Node000005" class="edge">
<title>Node4&#45;&gt;Node5</title>
<g id="a_edge4_Node000004_Node000005"><a xlink:title=" ">
<path fill="none" stroke="#63b8ff" d="M682,-439.66C682,-422.17 682,-382.8 682,-359.27"/>
<polygon fill="#63b8ff" stroke="#63b8ff" points="685.5,-359.16 682,-349.16 678.5,-359.16 685.5,-359.16"/>
</a>
</g>
</g>
<!-- Node9 -->
<g id="Node000009" class="node">
<title>Node9</title>
<g id="a_Node000009"><a xlink:href="src_2util_2invariant_8h.html" target="_top" xlink:title=" ">
<polygon fill="white" stroke="#666666" points="777.5,-74 708.5,-74 708.5,-55 777.5,-55 777.5,-74"/>
<text text-anchor="middle" x="743" y="-62" font-family="Helvetica,sans-Serif" font-size="10.00">invariant.h</text>
</a>
</g>
</g>
<!-- Node4&#45;&gt;Node9 -->
<g id="edge30_Node000004_Node000009" class="edge">
<title>Node4&#45;&gt;Node9</title>
<g id="a_edge30_Node000004_Node000009"><a xlink:title=" ">
<path fill="none" stroke="#63b8ff" d="M694.63,-439.88C725.07,-417.96 800,-356.77 800,-285.5 800,-285.5 800,-285.5 800,-173.5 800,-137.51 774.94,-101.76 758.05,-81.76"/>
<polygon fill="#63b8ff" stroke="#63b8ff" points="760.64,-79.4 751.41,-74.2 755.38,-84.02 760.64,-79.4"/>
</a>
</g>
</g>
<!-- Node35 -->
<g id="Node000035" class="node">
<title>Node35</title>
<g id="a_Node000035"><a xlink:href="validate_8h.html" target="_top" xlink:title=" ">
<polygon fill="#fff0f0" stroke="red" points="159.5,-184 94.5,-184 94.5,-165 159.5,-165 159.5,-184"/>
<text text-anchor="middle" x="127" y="-172" font-family="Helvetica,sans-Serif" font-size="10.00">validate.h</text>
</a>
</g>
</g>
<!-- Node4&#45;&gt;Node35 -->
<g id="edge41_Node000004_Node000035" class="edge">
<title>Node4&#45;&gt;Node35</title>
<g id="a_edge41_Node000004_Node000035"><a xlink:title=" ">
<path fill="none" stroke="#63b8ff" d="M632.95,-445.91C476.58,-437.01 0,-404.63 0,-340.5 0,-340.5 0,-340.5 0,-283.5 0,-235.01 54.39,-203.73 91.98,-187.91"/>
<polygon fill="#63b8ff" stroke="#63b8ff" points="93.64,-191.01 101.6,-184.03 91.02,-184.52 93.64,-191.01"/>
</a>
</g>
</g>
<!-- Node40 -->
<g id="Node000040" class="node">
<title>Node40</title>
<g id="a_Node000040"><a xlink:href="std__types_8h.html" target="_top" xlink:title="Pre&#45;defined types.">
<polygon fill="white" stroke="#666666" points="635.5,-404 562.5,-404 562.5,-385 635.5,-385 635.5,-404"/>
<text text-anchor="middle" x="599" y="-392" font-family="Helvetica,sans-Serif" font-size="10.00">std_types.h</text>
</a>
</g>
</g>
<!-- Node4&#45;&gt;Node40 -->
<g id="edge31_Node000004_Node000040" class="edge">
<title>Node4&#45;&gt;Node40</title>
<g id="a_edge31_Node000004_Node000040"><a xlink:title=" ">
<path fill="none" stroke="#63b8ff" d="M668.66,-439.98C655.91,-431.84 636.45,-419.41 621.33,-409.76"/>
<polygon fill="#63b8ff" stroke="#63b8ff" points="622.89,-406.6 612.58,-404.17 619.12,-412.5 622.89,-406.6"/>
</a>
</g>
</g>
<!-- Node6 -->
<g id="Node000006" class="node">
<title>Node6</title>
<g id="a_Node000006"><a xlink:title=" ">
<polygon fill="#e0e0e0" stroke="#999999" points="695.5,-294 638.5,-294 638.5,-275 695.5,-275 695.5,-294"/>
<text text-anchor="middle" x="667" y="-282" font-family="Helvetica,sans-Serif" font-size="10.00">typeinfo</text>
</a>
</g>
</g>
<!-- Node5&#45;&gt;Node6 -->
<g id="edge5_Node000005_Node000006" class="edge">
<title>Node5&#45;&gt;Node6</title>
<g id="a_edge5_Node000005_Node000006"><a xlink:title=" ">
<path fill="none" stroke="#63b8ff" d="M679.52,-329.75C677.54,-322.72 674.68,-312.62 672.19,-303.84"/>
<polygon fill="#63b8ff" stroke="#63b8ff" points="675.52,-302.76 669.43,-294.09 668.79,-304.66 675.52,-302.76"/>
</a>
</g>
</g>
<!-- Node7 -->
<g id="Node000007" class="node">
<title>Node7</title>
<g id="a_Node000007"><a xlink:title=" ">
<polygon fill="#e0e0e0" stroke="#999999" points="260.5,-19 191.5,-19 191.5,0 260.5,0 260.5,-19"/>
<text text-anchor="middle" x="226" y="-7" font-family="Helvetica,sans-Serif" font-size="10.00">type_traits</text>
</a>
</g>
</g>
<!-- Node5&#45;&gt;Node7 -->
<g id="edge6_Node000005_Node000007" class="edge">
<title>Node5&#45;&gt;Node7</title>
<g id="a_edge6_Node000005_Node000007"><a xlink:title=" ">
<path fill="none" stroke="#63b8ff" d="M645.46,-331.22C543.07,-310.69 259.88,-252.92 245,-239 223.49,-218.88 226,-204.96 226,-175.5 226,-175.5 226,-175.5 226,-118.5 226,-87.19 226,-50.77 226,-29.23"/>
<polygon fill="#63b8ff" stroke="#63b8ff" points="229.5,-29.18 226,-19.18 222.5,-29.18 229.5,-29.18"/>
</a>
</g>
</g>
<!-- Node8 -->
<g id="Node000008" class="node">
<title>Node8</title>
<g id="a_Node000008"><a xlink:title=" ">
<polygon fill="#e0e0e0" stroke="#999999" points="695.5,-239 630.5,-239 630.5,-220 695.5,-220 695.5,-239"/>
<text text-anchor="middle" x="663" y="-227" font-family="Helvetica,sans-Serif" font-size="10.00">functional</text>
</a>
</g>
</g>
<!-- Node5&#45;&gt;Node8 -->
<g id="edge7_Node000005_Node000008" class="edge">
<title>Node5&#45;&gt;Node8</title>
<g id="a_edge7_Node000005_Node000008"><a xlink:title=" ">
<path fill="none" stroke="#63b8ff" d="M665.42,-329.87C652.83,-322.3 636.46,-310.01 629,-294 621.3,-277.48 633.39,-259.19 645.23,-246.5"/>
<polygon fill="#63b8ff" stroke="#63b8ff" points="647.76,-248.91 652.39,-239.38 642.83,-243.95 647.76,-248.91"/>
</a>
</g>
</g>
<!-- Node5&#45;&gt;Node9 -->
<g id="edge8_Node000005_Node000009" class="edge">
<title>Node5&#45;&gt;Node9</title>
<g id="a_edge8_Node000005_Node000009"><a xlink:title=" ">
<path fill="none" stroke="#63b8ff" d="M687.84,-329.98C699.38,-312.29 724,-269.93 724,-230.5 724,-230.5 724,-230.5 724,-173.5 724,-141.56 732.16,-105.1 737.78,-83.77"/>
<polygon fill="#63b8ff" stroke="#63b8ff" points="741.17,-84.66 740.44,-74.09 734.42,-82.81 741.17,-84.66"/>
</a>
</g>
</g>
<!-- Node13 -->
<g id="Node000013" class="node">
<title>Node13</title>
<g id="a_Node000013"><a xlink:href="expr_8h.html" target="_top" xlink:title=" ">
<polygon fill="white" stroke="#666666" points="554.5,-294 507.5,-294 507.5,-275 554.5,-275 554.5,-294"/>
<text text-anchor="middle" x="531" y="-282" font-family="Helvetica,sans-Serif" font-size="10.00">expr.h</text>
</a>
</g>
</g>
<!-- Node5&#45;&gt;Node13 -->
<g id="edge13_Node000005_Node000013" class="edge">
<title>Node5&#45;&gt;Node13</title>
<g id="a_edge13_Node000005_Node000013"><a xlink:title=" ">
<path fill="none" stroke="#63b8ff" d="M657.74,-329.98C632.38,-321.09 592.43,-307.06 564.17,-297.14"/>
<polygon fill="#63b8ff" stroke="#63b8ff" points="565.3,-293.83 554.7,-293.82 562.98,-300.43 565.3,-293.83"/>
</a>
</g>
</g>
<!-- Node9&#45;&gt;Node7 -->
<g id="edge12_Node000009_Node000007" class="edge">
<title>Node9&#45;&gt;Node7</title>
<g id="a_edge12_Node000009_Node000007"><a xlink:title=" ">
<path fill="none" stroke="#63b8ff" d="M708.28,-59.94C617.31,-50.62 372.13,-25.48 270.78,-15.09"/>
<polygon fill="#63b8ff" stroke="#63b8ff" points="270.88,-11.58 260.57,-14.04 270.16,-18.55 270.88,-11.58"/>
</a>
</g>
</g>
<!-- Node10 -->
<g id="Node000010" class="node">
<title>Node10</title>
<g id="a_Node000010"><a xlink:title=" ">
<polygon fill="#e0e0e0" stroke="#999999" points="731.5,-19 682.5,-19 682.5,0 731.5,0 731.5,-19"/>
<text text-anchor="middle" x="707" y="-7" font-family="Helvetica,sans-Serif" font-size="10.00">cstdlib</text>
</a>
</g>
</g>
<!-- Node9&#45;&gt;Node10 -->
<g id="edge9_Node000009_Node000010" class="edge">
<title>Node9&#45;&gt;Node10</title>
<g id="a_edge9_Node000009_Node000010"><a xlink:title=" ">
<path fill="none" stroke="#63b8ff" d="M737.06,-54.75C732.02,-47.34 724.66,-36.5 718.49,-27.41"/>
<polygon fill="#63b8ff" stroke="#63b8ff" points="721.35,-25.39 712.83,-19.09 715.56,-29.33 721.35,-25.39"/>
</a>
</g>
</g>
<!-- Node11 -->
<g id="Node000011" class="node">
<title>Node11</title>
<g id="a_Node000011"><a xlink:title=" ">
<polygon fill="#e0e0e0" stroke="#999999" points="806,-19 750,-19 750,0 806,0 806,-19"/>
<text text-anchor="middle" x="778" y="-7" font-family="Helvetica,sans-Serif" font-size="10.00">sstream</text>
</a>
</g>
</g>
<!-- Node9&#45;&gt;Node11 -->
<g id="edge10_Node000009_Node000011" class="edge">
<title>Node9&#45;&gt;Node11</title>
<g id="a_edge10_Node000009_Node000011"><a xlink:title=" ">
<path fill="none" stroke="#63b8ff" d="M748.78,-54.75C753.62,-47.42 760.68,-36.73 766.64,-27.7"/>
<polygon fill="#63b8ff" stroke="#63b8ff" points="769.74,-29.36 772.33,-19.09 763.9,-25.5 769.74,-29.36"/>
</a>
</g>
</g>
<!-- Node12 -->
<g id="Node000012" class="node">
<title>Node12</title>
<g id="a_Node000012"><a xlink:title=" ">
<polygon fill="#e0e0e0" stroke="#999999" points="614,-19 570,-19 570,0 614,0 614,-19"/>
<text text-anchor="middle" x="592" y="-7" font-family="Helvetica,sans-Serif" font-size="10.00">string</text>
</a>
</g>
</g>
<!-- Node9&#45;&gt;Node12 -->
<g id="edge11_Node000009_Node000012" class="edge">
<title>Node9&#45;&gt;Node12</title>
<g id="a_edge11_Node000009_Node000012"><a xlink:title=" ">
<path fill="none" stroke="#63b8ff" d="M718.74,-54.98C692.94,-45.93 652.02,-31.56 623.68,-21.62"/>
<polygon fill="#63b8ff" stroke="#63b8ff" points="624.83,-18.31 614.23,-18.3 622.51,-24.92 624.83,-18.31"/>
</a>
</g>
</g>
<!-- Node13&#45;&gt;Node8 -->
<g id="edge29_Node000013_Node000008" class="edge">
<title>Node13&#45;&gt;Node8</title>
<g id="a_edge29_Node000013_Node000008"><a xlink:title=" ">
<path fill="none" stroke="#63b8ff" d="M552.21,-274.98C573.73,-266.34 607.28,-252.87 631.83,-243.02"/>
<polygon fill="#63b8ff" stroke="#63b8ff" points="633.43,-246.14 641.41,-239.17 630.82,-239.65 633.43,-246.14"/>
</a>
</g>
</g>
<!-- Node14 -->
<g id="Node000014" class="node">
<title>Node14</title>
<g id="a_Node000014"><a xlink:href="as__const_8h.html" target="_top" xlink:title=" ">
<polygon fill="white" stroke="#666666" points="574,-239 506,-239 506,-220 574,-220 574,-239"/>
<text text-anchor="middle" x="540" y="-227" font-family="Helvetica,sans-Serif" font-size="10.00">as_const.h</text>
</a>
</g>
</g>
<!-- Node13&#45;&gt;Node14 -->
<g id="edge14_Node000013_Node000014" class="edge">
<title>Node13&#45;&gt;Node14</title>
<g id="a_edge14_Node000013_Node000014"><a xlink:title=" ">
<path fill="none" stroke="#63b8ff" d="M532.49,-274.75C533.67,-267.8 535.36,-257.85 536.84,-249.13"/>
<polygon fill="#63b8ff" stroke="#63b8ff" points="540.32,-249.53 538.54,-239.09 533.42,-248.36 540.32,-249.53"/>
</a>
</g>
</g>
<!-- Node15 -->
<g id="Node000015" class="node">
<title>Node15</title>
<g id="a_Node000015"><a xlink:href="type_8h.html" target="_top" xlink:title="Defines typet, type_with_subtypet and type_with_subtypest.">
<polygon fill="white" stroke="#666666" points="487.5,-239 440.5,-239 440.5,-220 487.5,-220 487.5,-239"/>
<text text-anchor="middle" x="464" y="-227" font-family="Helvetica,sans-Serif" font-size="10.00">type.h</text>
</a>
</g>
</g>
<!-- Node13&#45;&gt;Node15 -->
<g id="edge15_Node000013_Node000015" class="edge">
<title>Node13&#45;&gt;Node15</title>
<g id="a_edge15_Node000013_Node000015"><a xlink:title=" ">
<path fill="none" stroke="#63b8ff" d="M520.24,-274.98C510.23,-267.07 495.11,-255.11 483.07,-245.58"/>
<polygon fill="#63b8ff" stroke="#63b8ff" points="484.97,-242.63 474.96,-239.17 480.63,-248.12 484.97,-242.63"/>
</a>
</g>
</g>
<!-- Node37 -->
<g id="Node000037" class="node">
<title>Node37</title>
<g id="a_Node000037"><a xlink:href="validation__mode_8h.html" target="_top" xlink:title=" ">
<polygon fill="white" stroke="#666666" points="465.5,-129 358.5,-129 358.5,-110 465.5,-110 465.5,-129"/>
<text text-anchor="middle" x="412" y="-117" font-family="Helvetica,sans-Serif" font-size="10.00">validation_mode.h</text>
</a>
</g>
</g>
<!-- Node13&#45;&gt;Node37 -->
<g id="edge28_Node000013_Node000037" class="edge">
<title>Node13&#45;&gt;Node37</title>
<g id="a_edge28_Node000013_Node000037"><a xlink:title=" ">
<path fill="none" stroke="#63b8ff" d="M507.18,-279.59C483.96,-274.46 449.53,-263.1 431,-239 408.53,-209.78 408.04,-164.36 409.89,-139.08"/>
<polygon fill="#63b8ff" stroke="#63b8ff" points="413.38,-139.29 410.83,-129.01 406.41,-138.64 413.38,-139.29"/>
</a>
</g>
</g>
<!-- Node38 -->
<g id="Node000038" class="node">
<title>Node38</title>
<g id="a_Node000038"><a xlink:href="validate__types_8h.html" target="_top" xlink:title=" ">
<polygon fill="white" stroke="#666666" points="696,-184 598,-184 598,-165 696,-165 696,-184"/>
<text text-anchor="middle" x="647" y="-172" font-family="Helvetica,sans-Serif" font-size="10.00">validate_types.h</text>
</a>
</g>
</g>
<!-- Node13&#45;&gt;Node38 -->
<g id="edge27_Node000013_Node000038" class="edge">
<title>Node13&#45;&gt;Node38</title>
<g id="a_edge27_Node000013_Node000038"><a xlink:title=" ">
<path fill="none" stroke="#63b8ff" d="M541.56,-274.86C552.2,-266.05 569.02,-251.88 583,-239 599.97,-223.36 618.61,-204.68 631.38,-191.64"/>
<polygon fill="#63b8ff" stroke="#63b8ff" points="634.03,-193.94 638.5,-184.33 629.02,-189.05 634.03,-193.94"/>
</a>
</g>
</g>
<!-- Node39 -->
<g id="Node000039" class="node">
<title>Node39</title>
<g id="a_Node000039"><a xlink:href="validate__expressions_8h.html" target="_top" xlink:title=" ">
<polygon fill="white" stroke="#666666" points="383.5,-239 254.5,-239 254.5,-220 383.5,-220 383.5,-239"/>
<text text-anchor="middle" x="319" y="-227" font-family="Helvetica,sans-Serif" font-size="10.00">validate_expressions.h</text>
</a>
</g>
</g>
<!-- Node13&#45;&gt;Node39 -->
<g id="edge26_Node000013_Node000039" class="edge">
<title>Node13&#45;&gt;Node39</title>
<g id="a_edge26_Node000013_Node000039"><a xlink:title=" ">
<path fill="none" stroke="#63b8ff" d="M507.09,-277.52C472.23,-268.81 406.85,-252.46 363.11,-241.53"/>
<polygon fill="#63b8ff" stroke="#63b8ff" points="363.86,-238.11 353.31,-239.08 362.16,-244.9 363.86,-238.11"/>
</a>
</g>
</g>
<!-- Node16 -->
<g id="Node000016" class="node">
<title>Node16</title>
<g id="a_Node000016"><a xlink:href="source__location_8h.html" target="_top" xlink:title=" ">
<polygon fill="#fff0f0" stroke="red" points="580,-184 478,-184 478,-165 580,-165 580,-184"/>
<text text-anchor="middle" x="529" y="-172" font-family="Helvetica,sans-Serif" font-size="10.00">source_location.h</text>
</a>
</g>
</g>
<!-- Node15&#45;&gt;Node16 -->
<g id="edge16_Node000015_Node000016" class="edge">
<title>Node15&#45;&gt;Node16</title>
<g id="a_edge16_Node000015_Node000016"><a xlink:title=" ">
<path fill="none" stroke="#63b8ff" d="M474.44,-219.98C484.15,-212.07 498.82,-200.11 510.5,-190.58"/>
<polygon fill="#63b8ff" stroke="#63b8ff" points="512.83,-193.2 518.37,-184.17 508.4,-187.78 512.83,-193.2"/>
</a>
</g>
</g>
<!-- Node15&#45;&gt;Node35 -->
<g id="edge21_Node000015_Node000035" class="edge">
<title>Node15&#45;&gt;Node35</title>
<g id="a_edge21_Node000015_Node000035"><a xlink:title=" ">
<path fill="none" stroke="#63b8ff" d="M440.3,-224.77C383.97,-215.91 241.4,-193.49 169.64,-182.21"/>
<polygon fill="#63b8ff" stroke="#63b8ff" points="170.01,-178.72 159.59,-180.63 168.92,-185.64 170.01,-178.72"/>
</a>
</g>
</g>
<!-- Node15&#45;&gt;Node37 -->
<g id="edge25_Node000015_Node000037" class="edge">
<title>Node15&#45;&gt;Node37</title>
<g id="a_edge25_Node000015_Node000037"><a xlink:title=" ">
<path fill="none" stroke="#63b8ff" d="M459.74,-219.66C451.21,-201.93 431.85,-161.73 420.58,-138.32"/>
<polygon fill="#63b8ff" stroke="#63b8ff" points="423.66,-136.65 416.17,-129.16 417.35,-139.69 423.66,-136.65"/>
</a>
</g>
</g>
<!-- Node15&#45;&gt;Node38 -->
<g id="edge24_Node000015_Node000038" class="edge">
<title>Node15&#45;&gt;Node38</title>
<g id="a_edge24_Node000015_Node000038"><a xlink:title=" ">
<path fill="none" stroke="#63b8ff" d="M487.55,-221.68C517.9,-212.89 571.11,-197.48 607.66,-186.89"/>
<polygon fill="#63b8ff" stroke="#63b8ff" points="608.86,-190.19 617.49,-184.05 606.91,-183.47 608.86,-190.19"/>
</a>
</g>
</g>
<!-- Node16&#45;&gt;Node12 -->
<g id="edge20_Node000016_Node000012" class="edge">
<title>Node16&#45;&gt;Node12</title>
<g id="a_edge20_Node000016_Node000012"><a xlink:title=" ">
<path fill="none" stroke="#63b8ff" d="M532.39,-164.74C542.3,-139.09 571.41,-63.78 584.94,-28.78"/>
<polygon fill="#63b8ff" stroke="#63b8ff" points="588.26,-29.9 588.6,-19.31 581.73,-27.37 588.26,-29.9"/>
</a>
</g>
</g>
<!-- Node18 -->
<g id="Node000018" class="node">
<title>Node18</title>
<g id="a_Node000018"><a xlink:href="irep_8h.html" target="_top" xlink:title=" ">
<polygon fill="#fff0f0" stroke="red" points="690,-129 646,-129 646,-110 690,-110 690,-129"/>
<text text-anchor="middle" x="668" y="-117" font-family="Helvetica,sans-Serif" font-size="10.00">irep.h</text>
</a>
</g>
</g>
<!-- Node16&#45;&gt;Node18 -->
<g id="edge17_Node000016_Node000018" class="edge">
<title>Node16&#45;&gt;Node18</title>
<g id="a_edge17_Node000016_Node000018"><a xlink:title=" ">
<path fill="none" stroke="#63b8ff" d="M551.33,-164.98C574.33,-156.21 610.38,-142.47 636.32,-132.58"/>
<polygon fill="#63b8ff" stroke="#63b8ff" points="637.63,-135.83 645.72,-128.99 635.13,-129.29 637.63,-135.83"/>
</a>
</g>
</g>
<!-- Node18&#45;&gt;Node9 -->
<g id="edge19_Node000018_Node000009" class="edge">
<title>Node18&#45;&gt;Node9</title>
<g id="a_edge19_Node000018_Node000009"><a xlink:title=" ">
<path fill="none" stroke="#63b8ff" d="M680.05,-109.98C691.46,-101.92 708.83,-89.65 722.43,-80.03"/>
<polygon fill="#63b8ff" stroke="#63b8ff" points="724.58,-82.8 730.73,-74.17 720.54,-77.08 724.58,-82.8"/>
</a>
</g>
</g>
<!-- Node18&#45;&gt;Node12 -->
<g id="edge18_Node000018_Node000012" class="edge">
<title>Node18&#45;&gt;Node12</title>
<g id="a_edge18_Node000018_Node000012"><a xlink:title=" ">
<path fill="none" stroke="#63b8ff" d="M661.78,-109.66C649.14,-91.69 620.25,-50.64 603.88,-27.38"/>
<polygon fill="#63b8ff" stroke="#63b8ff" points="606.71,-25.32 598.09,-19.16 600.99,-29.35 606.71,-25.32"/>
</a>
</g>
</g>
<!-- Node35&#45;&gt;Node7 -->
<g id="edge22_Node000035_Node000007" class="edge">
<title>Node35&#45;&gt;Node7</title>
<g id="a_edge22_Node000035_Node000007"><a xlink:title=" ">
<path fill="none" stroke="#63b8ff" d="M132.32,-164.74C148.04,-138.87 194.43,-62.48 215.44,-27.88"/>
<polygon fill="#63b8ff" stroke="#63b8ff" points="218.45,-29.67 220.65,-19.31 212.47,-26.04 218.45,-29.67"/>
</a>
</g>
</g>
<!-- Node35&#45;&gt;Node37 -->
<g id="edge23_Node000035_Node000037" class="edge">
<title>Node35&#45;&gt;Node37</title>
<g id="a_edge23_Node000035_Node000037"><a xlink:title=" ">
<path fill="none" stroke="#63b8ff" d="M159.69,-167.42C207.55,-158.52 297.35,-141.82 355.89,-130.93"/>
<polygon fill="#63b8ff" stroke="#63b8ff" points="356.89,-134.31 366.09,-129.04 355.61,-127.43 356.89,-134.31"/>
</a>
</g>
</g>
<!-- Node40&#45;&gt;Node5 -->
<g id="edge33_Node000040_Node000005" class="edge">
<title>Node40&#45;&gt;Node5</title>
<g id="a_edge33_Node000040_Node000005"><a xlink:title=" ">
<path fill="none" stroke="#63b8ff" d="M612.34,-384.98C625.09,-376.84 644.55,-364.41 659.67,-354.76"/>
<polygon fill="#63b8ff" stroke="#63b8ff" points="661.88,-357.5 668.42,-349.17 658.11,-351.6 661.88,-357.5"/>
</a>
</g>
</g>
<!-- Node40&#45;&gt;Node9 -->
<g id="edge34_Node000040_Node000009" class="edge">
<title>Node40&#45;&gt;Node9</title>
<g id="a_edge34_Node000040_Node000009"><a xlink:title=" ">
<path fill="none" stroke="#63b8ff" d="M635.62,-388.06C663.32,-382.35 700.93,-371 727,-349 751.63,-328.22 762,-317.73 762,-285.5 762,-285.5 762,-285.5 762,-173.5 762,-141.56 753.84,-105.1 748.22,-83.77"/>
<polygon fill="#63b8ff" stroke="#63b8ff" points="751.58,-82.81 745.56,-74.09 744.83,-84.66 751.58,-82.81"/>
</a>
</g>
</g>
<!-- Node40&#45;&gt;Node13 -->
<g id="edge32_Node000040_Node000013" class="edge">
<title>Node40&#45;&gt;Node13</title>
<g id="a_edge32_Node000040_Node000013"><a xlink:title=" ">
<path fill="none" stroke="#63b8ff" d="M571.71,-384.88C555,-378.03 534.96,-366.62 525,-349 517.26,-335.31 519.95,-317.26 523.89,-303.91"/>
<polygon fill="#63b8ff" stroke="#63b8ff" points="527.22,-304.97 527.13,-294.38 520.6,-302.72 527.22,-304.97"/>
</a>
</g>
</g>
<!-- Node40&#45;&gt;Node35 -->
<g id="edge39_Node000040_Node000035" class="edge">
<title>Node40&#45;&gt;Node35</title>
<g id="a_edge39_Node000040_Node000035"><a xlink:title=" ">
<path fill="none" stroke="#63b8ff" d="M562.44,-393.33C449.57,-391.87 110.96,-380.28 57,-294 34.04,-257.28 78.68,-213.16 106.71,-190.52"/>
<polygon fill="#63b8ff" stroke="#63b8ff" points="109.05,-193.13 114.78,-184.21 104.74,-187.61 109.05,-193.13"/>
</a>
</g>
</g>
<!-- Node41 -->
<g id="Node000041" class="node">
<title>Node41</title>
<g id="a_Node000041"><a xlink:href="mp__arith_8h.html" target="_top" xlink:title=" ">
<polygon fill="white" stroke="#666666" points="248.5,-349 179.5,-349 179.5,-330 248.5,-330 248.5,-349"/>
<text text-anchor="middle" x="214" y="-337" font-family="Helvetica,sans-Serif" font-size="10.00">mp_arith.h</text>
</a>
</g>
</g>
<!-- Node40&#45;&gt;Node41 -->
<g id="edge35_Node000040_Node000041" class="edge">
<title>Node40&#45;&gt;Node41</title>
<g id="a_edge35_Node000040_Node000041"><a xlink:title=" ">
<path fill="none" stroke="#63b8ff" d="M562.43,-388.47C491.62,-378.72 335.99,-357.29 258.98,-346.69"/>
<polygon fill="#63b8ff" stroke="#63b8ff" points="259.04,-343.17 248.65,-345.27 258.08,-350.1 259.04,-343.17"/>
</a>
</g>
</g>
<!-- Node26 -->
<g id="Node000026" class="node">
<title>Node26</title>
<g id="a_Node000026"><a xlink:title=" ">
<polygon fill="#e0e0e0" stroke="#999999" points="627.5,-349 534.5,-349 534.5,-330 627.5,-330 627.5,-349"/>
<text text-anchor="middle" x="581" y="-337" font-family="Helvetica,sans-Serif" font-size="10.00">unordered_map</text>
</a>
</g>
</g>
<!-- Node40&#45;&gt;Node26 -->
<g id="edge40_Node000040_Node000026" class="edge">
<title>Node40&#45;&gt;Node26</title>
<g id="a_edge40_Node000040_Node000026"><a xlink:title=" ">
<path fill="none" stroke="#63b8ff" d="M596.03,-384.75C593.64,-377.72 590.21,-367.62 587.23,-358.84"/>
<polygon fill="#63b8ff" stroke="#63b8ff" points="590.45,-357.43 583.92,-349.09 583.82,-359.68 590.45,-357.43"/>
</a>
</g>
</g>
<!-- Node41&#45;&gt;Node12 -->
<g id="edge37_Node000041_Node000012" class="edge">
<title>Node41&#45;&gt;Node12</title>
<g id="a_edge37_Node000041_Node000012"><a xlink:title=" ">
<path fill="none" stroke="#63b8ff" d="M210.81,-329.66C206.8,-317.18 201.12,-293.85 207,-275 223.5,-222.1 344.1,-113.36 349,-110 417.45,-63.07 511.43,-32.57 560.02,-18.86"/>
<polygon fill="#63b8ff" stroke="#63b8ff" points="560.97,-22.23 569.67,-16.19 559.1,-15.49 560.97,-22.23"/>
</a>
</g>
</g>
<!-- Node22 -->
<g id="Node000022" class="node">
<title>Node22</title>
<g id="a_Node000022"><a xlink:title=" ">
<polygon fill="#e0e0e0" stroke="#999999" points="264,-294 216,-294 216,-275 264,-275 264,-294"/>
<text text-anchor="middle" x="240" y="-282" font-family="Helvetica,sans-Serif" font-size="10.00">iosfwd</text>
</a>
</g>
</g>
<!-- Node41&#45;&gt;Node22 -->
<g id="edge36_Node000041_Node000022" class="edge">
<title>Node41&#45;&gt;Node22</title>
<g id="a_edge36_Node000041_Node000022"><a xlink:title=" ">
<path fill="none" stroke="#63b8ff" d="M218.29,-329.75C221.81,-322.57 226.91,-312.18 231.28,-303.27"/>
<polygon fill="#63b8ff" stroke="#63b8ff" points="234.52,-304.61 235.79,-294.09 228.24,-301.53 234.52,-304.61"/>
</a>
</g>
</g>
<!-- Node42 -->
<g id="Node000042" class="node">
<title>Node42</title>
<g id="a_Node000042"><a xlink:title=" ">
<polygon fill="#e0e0e0" stroke="#999999" points="160,-294 66,-294 66,-275 160,-275 160,-294"/>
<text text-anchor="middle" x="113" y="-282" font-family="Helvetica,sans-Serif" font-size="10.00">big&#45;int/bigint.hh</text>
</a>
</g>
</g>
<!-- Node41&#45;&gt;Node42 -->
<g id="edge38_Node000041_Node000042" class="edge">
<title>Node41&#45;&gt;Node42</title>
<g id="a_edge38_Node000041_Node000042"><a xlink:title=" ">
<path fill="none" stroke="#63b8ff" d="M197.77,-329.98C181.82,-321.61 157.22,-308.7 138.62,-298.95"/>
<polygon fill="#63b8ff" stroke="#63b8ff" points="140,-295.72 129.52,-294.17 136.75,-301.92 140,-295.72"/>
</a>
</g>
</g>
<!-- Node43&#45;&gt;Node5 -->
<g id="edge43_Node000043_Node000005" class="edge">
<title>Node43&#45;&gt;Node5</title>
<g id="a_edge43_Node000043_Node000005"><a xlink:title=" ">
<path fill="none" stroke="#63b8ff" d="M790.34,-439.66C770.36,-421.38 724.26,-379.18 699.12,-356.17"/>
<polygon fill="#63b8ff" stroke="#63b8ff" points="701.2,-353.33 691.46,-349.16 696.47,-358.49 701.2,-353.33"/>
</a>
</g>
</g>
<!-- Node43&#45;&gt;Node9 -->
<g id="edge44_Node000043_Node000009" class="edge">
<title>Node43&#45;&gt;Node9</title>
<g id="a_edge44_Node000043_Node000009"><a xlink:title=" ">
<path fill="none" stroke="#63b8ff" d="M805.28,-439.9C815.73,-422.07 838,-379.46 838,-340.5 838,-340.5 838,-340.5 838,-173.5 838,-143.33 833.11,-133.34 814,-110 803.14,-96.74 787.24,-86.26 773.24,-78.81"/>
<polygon fill="#63b8ff" stroke="#63b8ff" points="774.44,-75.5 763.93,-74.14 771.3,-81.75 774.44,-75.5"/>
</a>
</g>
</g>
<!-- Node43&#45;&gt;Node40 -->
<g id="edge45_Node000043_Node000040" class="edge">
<title>Node43&#45;&gt;Node40</title>
<g id="a_edge45_Node000043_Node000040"><a xlink:title=" ">
<path fill="none" stroke="#63b8ff" d="M767.71,-439.98C733.38,-430.93 678.94,-416.58 641.23,-406.64"/>
<polygon fill="#63b8ff" stroke="#63b8ff" points="642.11,-403.25 631.55,-404.08 640.32,-410.02 642.11,-403.25"/>
</a>
</g>
</g>
<!-- Node44&#45;&gt;Node2 -->
<g id="edge50_Node000044_Node000002" class="edge">
<title>Node44&#45;&gt;Node2</title>
<g id="a_edge50_Node000044_Node000002"><a xlink:title=" ">
<path fill="none" stroke="#63b8ff" d="M893.61,-549.98C877.43,-541.57 852.43,-528.59 833.62,-518.81"/>
<polygon fill="#63b8ff" stroke="#63b8ff" points="835.17,-515.68 824.69,-514.17 831.95,-521.89 835.17,-515.68"/>
</a>
</g>
</g>
<!-- Node45 -->
<g id="Node000045" class="node">
<title>Node45</title>
<g id="a_Node000045"><a xlink:href="namespace_8h.html" target="_top" xlink:title=" ">
<polygon fill="white" stroke="#666666" points="967.5,-184 866.5,-184 866.5,-165 967.5,-165 967.5,-184"/>
<text text-anchor="middle" x="917" y="-172" font-family="Helvetica,sans-Serif" font-size="10.00">util/namespace.h</text>
</a>
</g>
</g>
<!-- Node44&#45;&gt;Node45 -->
<g id="edge47_Node000044_Node000045" class="edge">
<title>Node44&#45;&gt;Node45</title>
<g id="a_edge47_Node000044_Node000045"><a xlink:title=" ">
<path fill="none" stroke="#63b8ff" d="M910.54,-549.82C911.63,-531.49 914,-487.46 914,-450.5 914,-450.5 914,-450.5 914,-283.5 914,-252.18 915.28,-215.77 916.16,-194.23"/>
<polygon fill="#63b8ff" stroke="#63b8ff" points="919.66,-194.32 916.6,-184.18 912.67,-194.02 919.66,-194.32"/>
</a>
</g>
</g>
<!-- Node45&#45;&gt;Node9 -->
<g id="edge48_Node000045_Node000009" class="edge">
<title>Node45&#45;&gt;Node9</title>
<g id="a_edge48_Node000045_Node000009"><a xlink:title=" ">
<path fill="none" stroke="#63b8ff" d="M909.86,-164.6C898.73,-151.2 876.01,-125.75 852,-110 830.36,-95.8 803.47,-84.76 781.81,-77.23"/>
<polygon fill="#63b8ff" stroke="#63b8ff" points="782.85,-73.89 772.26,-74.02 780.62,-80.53 782.85,-73.89"/>
</a>
</g>
</g>
<!-- Node45&#45;&gt;Node18 -->
<g id="edge49_Node000045_Node000018" class="edge">
<title>Node45&#45;&gt;Node18</title>
<g id="a_edge49_Node000045_Node000018"><a xlink:title=" ">
<path fill="none" stroke="#63b8ff" d="M876.99,-164.98C827.76,-154.51 745.16,-136.92 699.95,-127.3"/>
<polygon fill="#63b8ff" stroke="#63b8ff" points="700.61,-123.86 690.1,-125.2 699.15,-130.71 700.61,-123.86"/>
</a>
</g>
</g>
<!-- Node46&#45;&gt;Node2 -->
<g id="edge52_Node000046_Node000002" class="edge">
<title>Node46&#45;&gt;Node2</title>
<g id="a_edge52_Node000046_Node000002"><a xlink:title=" ">
<path fill="none" stroke="#63b8ff" d="M763.75,-549.75C771.47,-542.03 782.9,-530.6 792.22,-521.28"/>
<polygon fill="#63b8ff" stroke="#63b8ff" points="794.81,-523.64 799.41,-514.09 789.86,-518.69 794.81,-523.64"/>
</a>
</g>
</g>
</g>
</svg>
