<?xml version="1.0" encoding="UTF-8" standalone="no"?>
<!DOCTYPE svg PUBLIC "-//W3C//DTD SVG 1.1//EN"
 "http://www.w3.org/Graphics/SVG/1.1/DTD/svg11.dtd">
<!-- Generated by graphviz version 2.43.0 (0)
 -->
<!-- Title: /home/runner/work/cbmc/cbmc/jbmc/src/java_bytecode/java_bytecode_typecheck.h Pages: 1 -->
<svg width="1285pt" height="720pt"
 viewBox="0.00 0.00 1285.00 720.00" xmlns="http://www.w3.org/2000/svg" xmlns:xlink="http://www.w3.org/1999/xlink">
<g id="graph0" class="graph" transform="scale(1 1) rotate(0) translate(4 716)">
<title>/home/runner/work/cbmc/cbmc/jbmc/src/java_bytecode/java_bytecode_typecheck.h</title>
<!-- Node1 -->
<g id="Node000001" class="node">
<title>Node1</title>
<g id="a_Node000001"><a xlink:title="JAVA Bytecode Language Type Checking.">
<polygon fill="#999999" stroke="#666666" points="308,-712 144,-712 144,-671 308,-671 308,-712"/>
<text text-anchor="start" x="152" y="-700" font-family="Helvetica,sans-Serif" font-size="10.00">/home/runner/work/cbmc</text>
<text text-anchor="start" x="152" y="-689" font-family="Helvetica,sans-Serif" font-size="10.00">/cbmc/jbmc/src/java_bytecode</text>
<text text-anchor="middle" x="226" y="-678" font-family="Helvetica,sans-Serif" font-size="10.00">/java_bytecode_typecheck.h</text>
</a>
</g>
</g>
<!-- Node2 -->
<g id="Node000002" class="node">
<title>Node2</title>
<g id="a_Node000002"><a xlink:title=" ">
<polygon fill="#e0e0e0" stroke="#999999" points="122,-629.5 90,-629.5 90,-610.5 122,-610.5 122,-629.5"/>
<text text-anchor="middle" x="106" y="-617.5" font-family="Helvetica,sans-Serif" font-size="10.00">set</text>
</a>
</g>
</g>
<!-- Node1&#45;&gt;Node2 -->
<g id="edge1_Node000001_Node000002" class="edge">
<title>Node1&#45;&gt;Node2</title>
<g id="a_edge1_Node000001_Node000002"><a xlink:title=" ">
<path fill="none" stroke="#63b8ff" d="M192.25,-670.96C172.37,-659.44 147.69,-645.14 129.83,-634.8"/>
<polygon fill="#63b8ff" stroke="#63b8ff" points="131.09,-631.49 120.68,-629.5 127.58,-637.54 131.09,-631.49"/>
</a>
</g>
</g>
<!-- Node3 -->
<g id="Node000003" class="node">
<title>Node3</title>
<g id="a_Node000003"><a xlink:href="journalling__symbol__table_8h.html" target="_top" xlink:title="Author: Diffblue Ltd.">
<polygon fill="white" stroke="#666666" points="483,-635 355,-635 355,-605 483,-605 483,-635"/>
<text text-anchor="start" x="363" y="-623" font-family="Helvetica,sans-Serif" font-size="10.00">util/journalling_symbol</text>
<text text-anchor="middle" x="419" y="-612" font-family="Helvetica,sans-Serif" font-size="10.00">_table.h</text>
</a>
</g>
</g>
<!-- Node1&#45;&gt;Node3 -->
<g id="edge2_Node000001_Node000003" class="edge">
<title>Node1&#45;&gt;Node3</title>
<g id="a_edge2_Node000001_Node000003"><a xlink:title=" ">
<path fill="none" stroke="#63b8ff" d="M280.27,-670.96C308.7,-660.72 343.21,-648.29 370.7,-638.39"/>
<polygon fill="#63b8ff" stroke="#63b8ff" points="371.89,-641.69 380.11,-635 369.52,-635.1 371.89,-641.69"/>
</a>
</g>
</g>
<!-- Node43 -->
<g id="Node000043" class="node">
<title>Node43</title>
<g id="a_Node000043"><a xlink:href="typecheck_8h.html" target="_top" xlink:title=" ">
<polygon fill="white" stroke="#666666" points="235.5,-629.5 140.5,-629.5 140.5,-610.5 235.5,-610.5 235.5,-629.5"/>
<text text-anchor="middle" x="188" y="-617.5" font-family="Helvetica,sans-Serif" font-size="10.00">util/typecheck.h</text>
</a>
</g>
</g>
<!-- Node1&#45;&gt;Node43 -->
<g id="edge58_Node000001_Node000043" class="edge">
<title>Node1&#45;&gt;Node43</title>
<g id="a_edge58_Node000001_Node000043"><a xlink:title=" ">
<path fill="none" stroke="#63b8ff" d="M215.21,-670.77C209.68,-660.66 203,-648.44 197.65,-638.64"/>
<polygon fill="#63b8ff" stroke="#63b8ff" points="200.69,-636.91 192.82,-629.82 194.55,-640.27 200.69,-636.91"/>
</a>
</g>
</g>
<!-- Node45 -->
<g id="Node000045" class="node">
<title>Node45</title>
<g id="a_Node000045"><a xlink:href="namespace_8h.html" target="_top" xlink:title=" ">
<polygon fill="white" stroke="#666666" points="383.5,-349 282.5,-349 282.5,-330 383.5,-330 383.5,-349"/>
<text text-anchor="middle" x="333" y="-337" font-family="Helvetica,sans-Serif" font-size="10.00">util/namespace.h</text>
</a>
</g>
</g>
<!-- Node1&#45;&gt;Node45 -->
<g id="edge66_Node000001_Node000045" class="edge">
<title>Node1&#45;&gt;Node45</title>
<g id="a_edge66_Node000001_Node000045"><a xlink:title=" ">
<path fill="none" stroke="#63b8ff" d="M232.51,-670.75C235.98,-660.17 240.28,-646.89 244,-635 276.6,-530.94 313.81,-405.54 327.54,-359.03"/>
<polygon fill="#63b8ff" stroke="#63b8ff" points="330.97,-359.77 330.44,-349.19 324.26,-357.79 330.97,-359.77"/>
</a>
</g>
</g>
<!-- Node4 -->
<g id="Node000004" class="node">
<title>Node4</title>
<g id="a_Node000004"><a xlink:href="irep_8h.html" target="_top" xlink:title=" ">
<polygon fill="white" stroke="#666666" points="498,-294 454,-294 454,-275 498,-275 498,-294"/>
<text text-anchor="middle" x="476" y="-282" font-family="Helvetica,sans-Serif" font-size="10.00">irep.h</text>
</a>
</g>
</g>
<!-- Node3&#45;&gt;Node4 -->
<g id="edge3_Node000003_Node000004" class="edge">
<title>Node3&#45;&gt;Node4</title>
<g id="a_edge3_Node000003_Node000004"><a xlink:title=" ">
<path fill="none" stroke="#63b8ff" d="M430.25,-604.99C437.34,-595.41 446.06,-582.12 451,-569 469.77,-519.14 469,-503.77 469,-450.5 469,-450.5 469,-450.5 469,-393.5 469,-362.12 471.98,-325.73 474.05,-304.21"/>
<polygon fill="#63b8ff" stroke="#63b8ff" points="477.54,-304.47 475.06,-294.17 470.58,-303.77 477.54,-304.47"/>
</a>
</g>
</g>
<!-- Node27 -->
<g id="Node000027" class="node">
<title>Node27</title>
<g id="a_Node000027"><a xlink:href="symbol__table__base_8h.html" target="_top" xlink:title="Author: Diffblue Ltd.">
<polygon fill="white" stroke="#666666" points="743,-569 623,-569 623,-550 743,-550 743,-569"/>
<text text-anchor="middle" x="683" y="-557" font-family="Helvetica,sans-Serif" font-size="10.00">symbol_table_base.h</text>
</a>
</g>
</g>
<!-- Node3&#45;&gt;Node27 -->
<g id="edge34_Node000003_Node000027" class="edge">
<title>Node3&#45;&gt;Node27</title>
<g id="a_edge34_Node000003_Node000027"><a xlink:title=" ">
<path fill="none" stroke="#63b8ff" d="M482.23,-604.99C528.98,-594.63 591.69,-580.73 634.5,-571.25"/>
<polygon fill="#63b8ff" stroke="#63b8ff" points="635.39,-574.63 644.4,-569.05 633.88,-567.8 635.39,-574.63"/>
</a>
</g>
</g>
<!-- Node41 -->
<g id="Node000041" class="node">
<title>Node41</title>
<g id="a_Node000041"><a xlink:title=" ">
<polygon fill="#e0e0e0" stroke="#999999" points="378,-569 292,-569 292,-550 378,-550 378,-569"/>
<text text-anchor="middle" x="335" y="-557" font-family="Helvetica,sans-Serif" font-size="10.00">unordered_set</text>
</a>
</g>
</g>
<!-- Node3&#45;&gt;Node41 -->
<g id="edge56_Node000003_Node000041" class="edge">
<title>Node3&#45;&gt;Node41</title>
<g id="a_edge56_Node000003_Node000041"><a xlink:title=" ">
<path fill="none" stroke="#63b8ff" d="M398.67,-604.84C385.73,-595.83 369.01,-584.18 355.95,-575.09"/>
<polygon fill="#63b8ff" stroke="#63b8ff" points="357.79,-572.11 347.59,-569.27 353.79,-577.85 357.79,-572.11"/>
</a>
</g>
</g>
<!-- Node42 -->
<g id="Node000042" class="node">
<title>Node42</title>
<g id="a_Node000042"><a xlink:title=" ">
<polygon fill="#e0e0e0" stroke="#999999" points="441.5,-569 396.5,-569 396.5,-550 441.5,-550 441.5,-569"/>
<text text-anchor="middle" x="419" y="-557" font-family="Helvetica,sans-Serif" font-size="10.00">utility</text>
</a>
</g>
</g>
<!-- Node3&#45;&gt;Node42 -->
<g id="edge57_Node000003_Node000042" class="edge">
<title>Node3&#45;&gt;Node42</title>
<g id="a_edge57_Node000003_Node000042"><a xlink:title=" ">
<path fill="none" stroke="#63b8ff" d="M419,-604.84C419,-597.21 419,-587.7 419,-579.45"/>
<polygon fill="#63b8ff" stroke="#63b8ff" points="422.5,-579.27 419,-569.27 415.5,-579.27 422.5,-579.27"/>
</a>
</g>
</g>
<!-- Node5 -->
<g id="Node000005" class="node">
<title>Node5</title>
<g id="a_Node000005"><a xlink:title=" ">
<polygon fill="#e0e0e0" stroke="#999999" points="827,-19 783,-19 783,0 827,0 827,-19"/>
<text text-anchor="middle" x="805" y="-7" font-family="Helvetica,sans-Serif" font-size="10.00">string</text>
</a>
</g>
</g>
<!-- Node4&#45;&gt;Node5 -->
<g id="edge4_Node000004_Node000005" class="edge">
<title>Node4&#45;&gt;Node5</title>
<g id="a_edge4_Node000004_Node000005"><a xlink:title=" ">
<path fill="none" stroke="#63b8ff" d="M495.12,-274.8C525.73,-260.04 586.03,-227.4 623,-184 664,-135.87 636.42,-97.76 683,-55 708.07,-31.99 746,-20.64 772.9,-15.2"/>
<polygon fill="#63b8ff" stroke="#63b8ff" points="773.78,-18.6 782.98,-13.34 772.51,-11.72 773.78,-18.6"/>
</a>
</g>
</g>
<!-- Node6 -->
<g id="Node000006" class="node">
<title>Node6</title>
<g id="a_Node000006"><a xlink:title=" ">
<polygon fill="#e0e0e0" stroke="#999999" points="738.5,-74 691.5,-74 691.5,-55 738.5,-55 738.5,-74"/>
<text text-anchor="middle" x="715" y="-62" font-family="Helvetica,sans-Serif" font-size="10.00">vector</text>
</a>
</g>
</g>
<!-- Node4&#45;&gt;Node6 -->
<g id="edge5_Node000004_Node000006" class="edge">
<title>Node4&#45;&gt;Node6</title>
<g id="a_edge5_Node000004_Node000006"><a xlink:title=" ">
<path fill="none" stroke="#63b8ff" d="M478.56,-274.71C485.13,-253.5 504.36,-198.78 537,-165 578.55,-122 642.76,-92.43 681.64,-77.28"/>
<polygon fill="#63b8ff" stroke="#63b8ff" points="683.31,-80.39 691.42,-73.57 680.83,-73.84 683.31,-80.39"/>
</a>
</g>
</g>
<!-- Node7 -->
<g id="Node000007" class="node">
<title>Node7</title>
<g id="a_Node000007"><a xlink:href="src_2util_2invariant_8h.html" target="_top" xlink:title=" ">
<polygon fill="white" stroke="#666666" points="186.5,-129 117.5,-129 117.5,-110 186.5,-110 186.5,-129"/>
<text text-anchor="middle" x="152" y="-117" font-family="Helvetica,sans-Serif" font-size="10.00">invariant.h</text>
</a>
</g>
</g>
<!-- Node4&#45;&gt;Node7 -->
<g id="edge6_Node000004_Node000007" class="edge">
<title>Node4&#45;&gt;Node7</title>
<g id="a_edge6_Node000004_Node000007"><a xlink:title=" ">
<path fill="none" stroke="#63b8ff" d="M453.85,-281.78C416.09,-278.15 337.57,-267.56 278,-239 228.1,-215.08 184.75,-164.2 164.38,-137.56"/>
<polygon fill="#63b8ff" stroke="#63b8ff" points="166.95,-135.15 158.16,-129.24 161.34,-139.34 166.95,-135.15"/>
</a>
</g>
</g>
<!-- Node11 -->
<g id="Node000011" class="node">
<title>Node11</title>
<g id="a_Node000011"><a xlink:href="irep__ids_8h.html" target="_top" xlink:title="util">
<polygon fill="white" stroke="#666666" points="777,-239 713,-239 713,-220 777,-220 777,-239"/>
<text text-anchor="middle" x="745" y="-227" font-family="Helvetica,sans-Serif" font-size="10.00">irep_ids.h</text>
</a>
</g>
</g>
<!-- Node4&#45;&gt;Node11 -->
<g id="edge11_Node000004_Node000011" class="edge">
<title>Node4&#45;&gt;Node11</title>
<g id="a_edge11_Node000004_Node000011"><a xlink:title=" ">
<path fill="none" stroke="#63b8ff" d="M498.01,-279.16C542.76,-270.35 644.98,-250.21 702.91,-238.79"/>
<polygon fill="#63b8ff" stroke="#63b8ff" points="703.71,-242.2 712.85,-236.83 702.36,-235.33 703.71,-242.2"/>
</a>
</g>
</g>
<!-- Node22 -->
<g id="Node000022" class="node">
<title>Node22</title>
<g id="a_Node000022"><a xlink:href="forward__list__as__map_8h.html" target="_top" xlink:title=" ">
<polygon fill="white" stroke="#666666" points="413.5,-239 286.5,-239 286.5,-220 413.5,-220 413.5,-239"/>
<text text-anchor="middle" x="350" y="-227" font-family="Helvetica,sans-Serif" font-size="10.00">forward_list_as_map.h</text>
</a>
</g>
</g>
<!-- Node4&#45;&gt;Node22 -->
<g id="edge27_Node000004_Node000022" class="edge">
<title>Node4&#45;&gt;Node22</title>
<g id="a_edge27_Node000004_Node000022"><a xlink:title=" ">
<path fill="none" stroke="#63b8ff" d="M455.76,-274.98C435.3,-266.38 403.47,-252.99 380.07,-243.15"/>
<polygon fill="#63b8ff" stroke="#63b8ff" points="381.19,-239.82 370.61,-239.17 378.47,-246.27 381.19,-239.82"/>
</a>
</g>
</g>
<!-- Node7&#45;&gt;Node5 -->
<g id="edge9_Node000007_Node000005" class="edge">
<title>Node7&#45;&gt;Node5</title>
<g id="a_edge9_Node000007_Node000005"><a xlink:title=" ">
<path fill="none" stroke="#63b8ff" d="M158.18,-109.56C168.73,-95.13 191.75,-67.08 219,-55 319.33,-10.53 664.81,-9.38 772.61,-10.14"/>
<polygon fill="#63b8ff" stroke="#63b8ff" points="772.82,-13.64 782.85,-10.22 772.88,-6.64 772.82,-13.64"/>
</a>
</g>
</g>
<!-- Node8 -->
<g id="Node000008" class="node">
<title>Node8</title>
<g id="a_Node000008"><a xlink:title=" ">
<polygon fill="#e0e0e0" stroke="#999999" points="171.5,-74 122.5,-74 122.5,-55 171.5,-55 171.5,-74"/>
<text text-anchor="middle" x="147" y="-62" font-family="Helvetica,sans-Serif" font-size="10.00">cstdlib</text>
</a>
</g>
</g>
<!-- Node7&#45;&gt;Node8 -->
<g id="edge7_Node000007_Node000008" class="edge">
<title>Node7&#45;&gt;Node8</title>
<g id="a_edge7_Node000007_Node000008"><a xlink:title=" ">
<path fill="none" stroke="#63b8ff" d="M151.17,-109.75C150.52,-102.8 149.58,-92.85 148.76,-84.13"/>
<polygon fill="#63b8ff" stroke="#63b8ff" points="152.23,-83.72 147.81,-74.09 145.27,-84.37 152.23,-83.72"/>
</a>
</g>
</g>
<!-- Node9 -->
<g id="Node000009" class="node">
<title>Node9</title>
<g id="a_Node000009"><a xlink:title=" ">
<polygon fill="#e0e0e0" stroke="#999999" points="102,-74 46,-74 46,-55 102,-55 102,-74"/>
<text text-anchor="middle" x="74" y="-62" font-family="Helvetica,sans-Serif" font-size="10.00">sstream</text>
</a>
</g>
</g>
<!-- Node7&#45;&gt;Node9 -->
<g id="edge8_Node000007_Node000009" class="edge">
<title>Node7&#45;&gt;Node9</title>
<g id="a_edge8_Node000007_Node000009"><a xlink:title=" ">
<path fill="none" stroke="#63b8ff" d="M139.47,-109.98C127.6,-101.92 109.54,-89.65 95.39,-80.03"/>
<polygon fill="#63b8ff" stroke="#63b8ff" points="97,-76.9 86.76,-74.17 93.06,-82.69 97,-76.9"/>
</a>
</g>
</g>
<!-- Node10 -->
<g id="Node000010" class="node">
<title>Node10</title>
<g id="a_Node000010"><a xlink:title=" ">
<polygon fill="#e0e0e0" stroke="#999999" points="297.5,-74 228.5,-74 228.5,-55 297.5,-55 297.5,-74"/>
<text text-anchor="middle" x="263" y="-62" font-family="Helvetica,sans-Serif" font-size="10.00">type_traits</text>
</a>
</g>
</g>
<!-- Node7&#45;&gt;Node10 -->
<g id="edge10_Node000007_Node000010" class="edge">
<title>Node7&#45;&gt;Node10</title>
<g id="a_edge10_Node000007_Node000010"><a xlink:title=" ">
<path fill="none" stroke="#63b8ff" d="M169.83,-109.98C187.61,-101.5 215.15,-88.35 235.68,-78.54"/>
<polygon fill="#63b8ff" stroke="#63b8ff" points="237.33,-81.64 244.84,-74.17 234.31,-75.32 237.33,-81.64"/>
</a>
</g>
</g>
<!-- Node12 -->
<g id="Node000012" class="node">
<title>Node12</title>
<g id="a_Node000012"><a xlink:href="dstring_8h.html" target="_top" xlink:title="Container for C&#45;Strings.">
<polygon fill="white" stroke="#666666" points="897.5,-184 838.5,-184 838.5,-165 897.5,-165 897.5,-184"/>
<text text-anchor="middle" x="868" y="-172" font-family="Helvetica,sans-Serif" font-size="10.00">dstring.h</text>
</a>
</g>
</g>
<!-- Node11&#45;&gt;Node12 -->
<g id="edge12_Node000011_Node000012" class="edge">
<title>Node11&#45;&gt;Node12</title>
<g id="a_edge12_Node000011_Node000012"><a xlink:title=" ">
<path fill="none" stroke="#63b8ff" d="M764.76,-219.98C784.73,-211.38 815.8,-197.99 838.65,-188.15"/>
<polygon fill="#63b8ff" stroke="#63b8ff" points="840.08,-191.34 847.88,-184.17 837.31,-184.91 840.08,-191.34"/>
</a>
</g>
</g>
<!-- Node21 -->
<g id="Node000021" class="node">
<title>Node21</title>
<g id="a_Node000021"><a xlink:title=" ">
<polygon fill="#e0e0e0" stroke="#999999" points="782,-184 708,-184 708,-165 782,-165 782,-184"/>
<text text-anchor="middle" x="745" y="-172" font-family="Helvetica,sans-Serif" font-size="10.00">irep_ids.def</text>
</a>
</g>
</g>
<!-- Node11&#45;&gt;Node21 -->
<g id="edge26_Node000011_Node000021" class="edge">
<title>Node11&#45;&gt;Node21</title>
<g id="a_edge26_Node000011_Node000021"><a xlink:title=" ">
<path fill="none" stroke="#63b8ff" d="M745,-219.75C745,-212.8 745,-202.85 745,-194.13"/>
<polygon fill="#63b8ff" stroke="#63b8ff" points="748.5,-194.09 745,-184.09 741.5,-194.09 748.5,-194.09"/>
</a>
</g>
</g>
<!-- Node12&#45;&gt;Node5 -->
<g id="edge14_Node000012_Node000005" class="edge">
<title>Node12&#45;&gt;Node5</title>
<g id="a_edge14_Node000012_Node000005"><a xlink:title=" ">
<path fill="none" stroke="#63b8ff" d="M864.63,-165C857.82,-147.82 842,-107.76 829,-74 823.11,-58.7 816.54,-41.29 811.76,-28.57"/>
<polygon fill="#63b8ff" stroke="#63b8ff" points="815.02,-27.28 808.23,-19.14 808.46,-29.73 815.02,-27.28"/>
</a>
</g>
</g>
<!-- Node13 -->
<g id="Node000013" class="node">
<title>Node13</title>
<g id="a_Node000013"><a xlink:title=" ">
<polygon fill="#e0e0e0" stroke="#999999" points="777,-129 729,-129 729,-110 777,-110 777,-129"/>
<text text-anchor="middle" x="753" y="-117" font-family="Helvetica,sans-Serif" font-size="10.00">iosfwd</text>
</a>
</g>
</g>
<!-- Node12&#45;&gt;Node13 -->
<g id="edge13_Node000012_Node000013" class="edge">
<title>Node12&#45;&gt;Node13</title>
<g id="a_edge13_Node000012_Node000013"><a xlink:title=" ">
<path fill="none" stroke="#63b8ff" d="M849.52,-164.98C831.02,-156.46 802.32,-143.23 781.02,-133.41"/>
<polygon fill="#63b8ff" stroke="#63b8ff" points="782.36,-130.18 771.81,-129.17 779.43,-136.53 782.36,-130.18"/>
</a>
</g>
</g>
<!-- Node14 -->
<g id="Node000014" class="node">
<title>Node14</title>
<g id="a_Node000014"><a xlink:href="magic_8h.html" target="_top" xlink:title="Magic numbers used throughout the codebase.">
<polygon fill="white" stroke="#666666" points="1277,-129 1221,-129 1221,-110 1277,-110 1277,-129"/>
<text text-anchor="middle" x="1249" y="-117" font-family="Helvetica,sans-Serif" font-size="10.00">magic.h</text>
</a>
</g>
</g>
<!-- Node12&#45;&gt;Node14 -->
<g id="edge15_Node000012_Node000014" class="edge">
<title>Node12&#45;&gt;Node14</title>
<g id="a_edge15_Node000012_Node000014"><a xlink:title=" ">
<path fill="none" stroke="#63b8ff" d="M897.58,-169.39C965.96,-159.87 1134.93,-136.37 1210.91,-125.8"/>
<polygon fill="#63b8ff" stroke="#63b8ff" points="1211.57,-129.24 1220.99,-124.4 1210.61,-122.31 1211.57,-129.24"/>
</a>
</g>
</g>
<!-- Node16 -->
<g id="Node000016" class="node">
<title>Node16</title>
<g id="a_Node000016"><a xlink:href="string__container_8h.html" target="_top" xlink:title="Container for C&#45;Strings.">
<polygon fill="white" stroke="#666666" points="1043,-129 939,-129 939,-110 1043,-110 1043,-129"/>
<text text-anchor="middle" x="991" y="-117" font-family="Helvetica,sans-Serif" font-size="10.00">string_container.h</text>
</a>
</g>
</g>
<!-- Node12&#45;&gt;Node16 -->
<g id="edge17_Node000012_Node000016" class="edge">
<title>Node12&#45;&gt;Node16</title>
<g id="a_edge17_Node000012_Node000016"><a xlink:title=" ">
<path fill="none" stroke="#63b8ff" d="M887.76,-164.98C907.73,-156.38 938.8,-142.99 961.65,-133.15"/>
<polygon fill="#63b8ff" stroke="#63b8ff" points="963.08,-136.34 970.88,-129.17 960.31,-129.91 963.08,-136.34"/>
</a>
</g>
</g>
<!-- Node15 -->
<g id="Node000015" class="node">
<title>Node15</title>
<g id="a_Node000015"><a xlink:title=" ">
<polygon fill="#e0e0e0" stroke="#999999" points="1164.5,-19 1111.5,-19 1111.5,0 1164.5,0 1164.5,-19"/>
<text text-anchor="middle" x="1138" y="-7" font-family="Helvetica,sans-Serif" font-size="10.00">cstddef</text>
</a>
</g>
</g>
<!-- Node14&#45;&gt;Node15 -->
<g id="edge16_Node000014_Node000015" class="edge">
<title>Node14&#45;&gt;Node15</title>
<g id="a_edge16_Node000014_Node000015"><a xlink:title=" ">
<path fill="none" stroke="#63b8ff" d="M1249.91,-109.68C1250.79,-96.38 1250.51,-71.06 1238,-55 1222.58,-35.2 1196.45,-23.99 1174.77,-17.77"/>
<polygon fill="#63b8ff" stroke="#63b8ff" points="1175.42,-14.32 1164.86,-15.18 1173.65,-21.09 1175.42,-14.32"/>
</a>
</g>
</g>
<!-- Node16&#45;&gt;Node6 -->
<g id="edge20_Node000016_Node000006" class="edge">
<title>Node16&#45;&gt;Node6</title>
<g id="a_edge20_Node000016_Node000006"><a xlink:title=" ">
<path fill="none" stroke="#63b8ff" d="M946.66,-109.98C891.46,-99.39 798.41,-81.52 748.7,-71.97"/>
<polygon fill="#63b8ff" stroke="#63b8ff" points="749.26,-68.51 738.78,-70.07 747.94,-75.39 749.26,-68.51"/>
</a>
</g>
</g>
<!-- Node17 -->
<g id="Node000017" class="node">
<title>Node17</title>
<g id="a_Node000017"><a xlink:title=" ">
<polygon fill="#e0e0e0" stroke="#999999" points="1117,-74 1085,-74 1085,-55 1117,-55 1117,-74"/>
<text text-anchor="middle" x="1101" y="-62" font-family="Helvetica,sans-Serif" font-size="10.00">list</text>
</a>
</g>
</g>
<!-- Node16&#45;&gt;Node17 -->
<g id="edge18_Node000016_Node000017" class="edge">
<title>Node16&#45;&gt;Node17</title>
<g id="a_edge18_Node000016_Node000017"><a xlink:title=" ">
<path fill="none" stroke="#63b8ff" d="M1008.67,-109.98C1026.81,-101.24 1055.21,-87.56 1075.72,-77.68"/>
<polygon fill="#63b8ff" stroke="#63b8ff" points="1077.31,-80.8 1084.8,-73.3 1074.28,-74.49 1077.31,-80.8"/>
</a>
</g>
</g>
<!-- Node18 -->
<g id="Node000018" class="node">
<title>Node18</title>
<g id="a_Node000018"><a xlink:title=" ">
<polygon fill="#e0e0e0" stroke="#999999" points="1228.5,-74 1135.5,-74 1135.5,-55 1228.5,-55 1228.5,-74"/>
<text text-anchor="middle" x="1182" y="-62" font-family="Helvetica,sans-Serif" font-size="10.00">unordered_map</text>
</a>
</g>
</g>
<!-- Node16&#45;&gt;Node18 -->
<g id="edge19_Node000016_Node000018" class="edge">
<title>Node16&#45;&gt;Node18</title>
<g id="a_edge19_Node000016_Node000018"><a xlink:title=" ">
<path fill="none" stroke="#63b8ff" d="M1021.69,-109.98C1054.17,-100.97 1105.6,-86.7 1141.41,-76.76"/>
<polygon fill="#63b8ff" stroke="#63b8ff" points="1142.37,-80.13 1151.07,-74.08 1140.5,-73.38 1142.37,-80.13"/>
</a>
</g>
</g>
<!-- Node19 -->
<g id="Node000019" class="node">
<title>Node19</title>
<g id="a_Node000019"><a xlink:href="memory__units_8h.html" target="_top" xlink:title=" ">
<polygon fill="white" stroke="#666666" points="1067,-74 971,-74 971,-55 1067,-55 1067,-74"/>
<text text-anchor="middle" x="1019" y="-62" font-family="Helvetica,sans-Serif" font-size="10.00">memory_units.h</text>
</a>
</g>
</g>
<!-- Node16&#45;&gt;Node19 -->
<g id="edge21_Node000016_Node000019" class="edge">
<title>Node16&#45;&gt;Node19</title>
<g id="a_edge21_Node000016_Node000019"><a xlink:title=" ">
<path fill="none" stroke="#63b8ff" d="M995.62,-109.75C999.46,-102.49 1005.02,-91.95 1009.76,-82.98"/>
<polygon fill="#63b8ff" stroke="#63b8ff" points="1012.89,-84.57 1014.46,-74.09 1006.7,-81.3 1012.89,-84.57"/>
</a>
</g>
</g>
<!-- Node20 -->
<g id="Node000020" class="node">
<title>Node20</title>
<g id="a_Node000020"><a xlink:href="string__hash_8h.html" target="_top" xlink:title="string hashing">
<polygon fill="white" stroke="#666666" points="953,-74 871,-74 871,-55 953,-55 953,-74"/>
<text text-anchor="middle" x="912" y="-62" font-family="Helvetica,sans-Serif" font-size="10.00">string_hash.h</text>
</a>
</g>
</g>
<!-- Node16&#45;&gt;Node20 -->
<g id="edge24_Node000016_Node000020" class="edge">
<title>Node16&#45;&gt;Node20</title>
<g id="a_edge24_Node000016_Node000020"><a xlink:title=" ">
<path fill="none" stroke="#63b8ff" d="M978.31,-109.98C966.17,-101.84 947.64,-89.41 933.25,-79.76"/>
<polygon fill="#63b8ff" stroke="#63b8ff" points="935.18,-76.84 924.92,-74.17 931.28,-82.65 935.18,-76.84"/>
</a>
</g>
</g>
<!-- Node19&#45;&gt;Node5 -->
<g id="edge23_Node000019_Node000005" class="edge">
<title>Node19&#45;&gt;Node5</title>
<g id="a_edge23_Node000019_Node000005"><a xlink:title=" ">
<path fill="none" stroke="#63b8ff" d="M984.62,-54.98C943.95,-44.91 876.77,-28.27 837.11,-18.45"/>
<polygon fill="#63b8ff" stroke="#63b8ff" points="837.73,-15 827.18,-15.99 836.05,-21.8 837.73,-15"/>
</a>
</g>
</g>
<!-- Node19&#45;&gt;Node15 -->
<g id="edge22_Node000019_Node000015" class="edge">
<title>Node19&#45;&gt;Node15</title>
<g id="a_edge22_Node000019_Node000015"><a xlink:title=" ">
<path fill="none" stroke="#63b8ff" d="M1038.12,-54.98C1057.35,-46.42 1087.23,-33.11 1109.31,-23.28"/>
<polygon fill="#63b8ff" stroke="#63b8ff" points="1110.82,-26.44 1118.53,-19.17 1107.97,-20.04 1110.82,-26.44"/>
</a>
</g>
</g>
<!-- Node20&#45;&gt;Node5 -->
<g id="edge25_Node000020_Node000005" class="edge">
<title>Node20&#45;&gt;Node5</title>
<g id="a_edge25_Node000020_Node000005"><a xlink:title=" ">
<path fill="none" stroke="#63b8ff" d="M894.81,-54.98C877.75,-46.54 851.37,-33.47 831.6,-23.68"/>
<polygon fill="#63b8ff" stroke="#63b8ff" points="833.02,-20.47 822.5,-19.17 829.91,-26.75 833.02,-20.47"/>
</a>
</g>
</g>
<!-- Node23 -->
<g id="Node000023" class="node">
<title>Node23</title>
<g id="a_Node000023"><a xlink:title=" ">
<polygon fill="#e0e0e0" stroke="#999999" points="452,-184 388,-184 388,-165 452,-165 452,-184"/>
<text text-anchor="middle" x="420" y="-172" font-family="Helvetica,sans-Serif" font-size="10.00">algorithm</text>
</a>
</g>
</g>
<!-- Node22&#45;&gt;Node23 -->
<g id="edge28_Node000022_Node000023" class="edge">
<title>Node22&#45;&gt;Node23</title>
<g id="a_edge28_Node000022_Node000023"><a xlink:title=" ">
<path fill="none" stroke="#63b8ff" d="M361.25,-219.98C371.8,-212 387.8,-199.88 400.44,-190.31"/>
<polygon fill="#63b8ff" stroke="#63b8ff" points="402.69,-193 408.55,-184.17 398.46,-187.42 402.69,-193"/>
</a>
</g>
</g>
<!-- Node24 -->
<g id="Node000024" class="node">
<title>Node24</title>
<g id="a_Node000024"><a xlink:title=" ">
<polygon fill="#e0e0e0" stroke="#999999" points="370,-184 296,-184 296,-165 370,-165 370,-184"/>
<text text-anchor="middle" x="333" y="-172" font-family="Helvetica,sans-Serif" font-size="10.00">forward_list</text>
</a>
</g>
</g>
<!-- Node22&#45;&gt;Node24 -->
<g id="edge29_Node000022_Node000024" class="edge">
<title>Node22&#45;&gt;Node24</title>
<g id="a_edge29_Node000022_Node000024"><a xlink:title=" ">
<path fill="none" stroke="#63b8ff" d="M347.19,-219.75C344.94,-212.72 341.7,-202.62 338.88,-193.84"/>
<polygon fill="#63b8ff" stroke="#63b8ff" points="342.14,-192.54 335.75,-184.09 335.48,-194.68 342.14,-192.54"/>
</a>
</g>
</g>
<!-- Node25 -->
<g id="Node000025" class="node">
<title>Node25</title>
<g id="a_Node000025"><a xlink:href="as__const_8h.html" target="_top" xlink:title=" ">
<polygon fill="white" stroke="#666666" points="614,-184 546,-184 546,-165 614,-165 614,-184"/>
<text text-anchor="middle" x="580" y="-172" font-family="Helvetica,sans-Serif" font-size="10.00">as_const.h</text>
</a>
</g>
</g>
<!-- Node22&#45;&gt;Node25 -->
<g id="edge30_Node000022_Node000025" class="edge">
<title>Node22&#45;&gt;Node25</title>
<g id="a_edge30_Node000022_Node000025"><a xlink:title=" ">
<path fill="none" stroke="#63b8ff" d="M386.95,-219.98C427.51,-210.64 492.59,-195.64 535.82,-185.68"/>
<polygon fill="#63b8ff" stroke="#63b8ff" points="536.81,-189.04 545.77,-183.39 535.24,-182.22 536.81,-189.04"/>
</a>
</g>
</g>
<!-- Node26 -->
<g id="Node000026" class="node">
<title>Node26</title>
<g id="a_Node000026"><a xlink:href="narrow_8h.html" target="_top" xlink:title=" ">
<polygon fill="white" stroke="#666666" points="277.5,-184 218.5,-184 218.5,-165 277.5,-165 277.5,-184"/>
<text text-anchor="middle" x="248" y="-172" font-family="Helvetica,sans-Serif" font-size="10.00">narrow.h</text>
</a>
</g>
</g>
<!-- Node22&#45;&gt;Node26 -->
<g id="edge31_Node000022_Node000026" class="edge">
<title>Node22&#45;&gt;Node26</title>
<g id="a_edge31_Node000022_Node000026"><a xlink:title=" ">
<path fill="none" stroke="#63b8ff" d="M333.61,-219.98C317.43,-211.57 292.43,-198.59 273.62,-188.81"/>
<polygon fill="#63b8ff" stroke="#63b8ff" points="275.17,-185.68 264.69,-184.17 271.95,-191.89 275.17,-185.68"/>
</a>
</g>
</g>
<!-- Node26&#45;&gt;Node7 -->
<g id="edge33_Node000026_Node000007" class="edge">
<title>Node26&#45;&gt;Node7</title>
<g id="a_edge33_Node000026_Node000007"><a xlink:title=" ">
<path fill="none" stroke="#63b8ff" d="M232.58,-164.98C217.55,-156.69 194.46,-143.94 176.84,-134.22"/>
<polygon fill="#63b8ff" stroke="#63b8ff" points="178.15,-130.94 167.7,-129.17 174.77,-137.07 178.15,-130.94"/>
</a>
</g>
</g>
<!-- Node26&#45;&gt;Node10 -->
<g id="edge32_Node000026_Node000010" class="edge">
<title>Node26&#45;&gt;Node10</title>
<g id="a_edge32_Node000026_Node000010"><a xlink:title=" ">
<path fill="none" stroke="#63b8ff" d="M249.23,-164.66C251.66,-147.17 257.12,-107.8 260.39,-84.27"/>
<polygon fill="#63b8ff" stroke="#63b8ff" points="263.89,-84.54 261.8,-74.16 256.95,-83.58 263.89,-84.54"/>
</a>
</g>
</g>
<!-- Node27&#45;&gt;Node17 -->
<g id="edge53_Node000027_Node000017" class="edge">
<title>Node27&#45;&gt;Node17</title>
<g id="a_edge53_Node000027_Node000017"><a xlink:title=" ">
<path fill="none" stroke="#63b8ff" d="M743.13,-555.75C860.56,-548.74 1109,-525.08 1109,-450.5 1109,-450.5 1109,-450.5 1109,-173.5 1109,-142.1 1105.6,-105.71 1103.23,-84.2"/>
<polygon fill="#63b8ff" stroke="#63b8ff" points="1106.69,-83.7 1102.08,-74.16 1099.74,-84.5 1106.69,-83.7"/>
</a>
</g>
</g>
<!-- Node27&#45;&gt;Node18 -->
<g id="edge55_Node000027_Node000018" class="edge">
<title>Node27&#45;&gt;Node18</title>
<g id="a_edge55_Node000027_Node000018"><a xlink:title=" ">
<path fill="none" stroke="#63b8ff" d="M743.18,-557.45C871.83,-553.58 1162,-535.43 1162,-450.5 1162,-450.5 1162,-450.5 1162,-173.5 1162,-141.51 1170.59,-105.07 1176.51,-83.75"/>
<polygon fill="#63b8ff" stroke="#63b8ff" points="1179.89,-84.66 1179.3,-74.08 1173.16,-82.71 1179.89,-84.66"/>
</a>
</g>
</g>
<!-- Node28 -->
<g id="Node000028" class="node">
<title>Node28</title>
<g id="a_Node000028"><a xlink:href="symbol_8h.html" target="_top" xlink:title="Symbol table entry.">
<polygon fill="white" stroke="#666666" points="714,-514 652,-514 652,-495 714,-495 714,-514"/>
<text text-anchor="middle" x="683" y="-502" font-family="Helvetica,sans-Serif" font-size="10.00">symbol.h</text>
</a>
</g>
</g>
<!-- Node27&#45;&gt;Node28 -->
<g id="edge35_Node000027_Node000028" class="edge">
<title>Node27&#45;&gt;Node28</title>
<g id="a_edge35_Node000027_Node000028"><a xlink:title=" ">
<path fill="none" stroke="#63b8ff" d="M683,-549.75C683,-542.8 683,-532.85 683,-524.13"/>
<polygon fill="#63b8ff" stroke="#63b8ff" points="686.5,-524.09 683,-514.09 679.5,-524.09 686.5,-524.09"/>
</a>
</g>
</g>
<!-- Node40 -->
<g id="Node000040" class="node">
<title>Node40</title>
<g id="a_Node000040"><a xlink:title=" ">
<polygon fill="#e0e0e0" stroke="#999999" points="634,-514 596,-514 596,-495 634,-495 634,-514"/>
<text text-anchor="middle" x="615" y="-502" font-family="Helvetica,sans-Serif" font-size="10.00">map</text>
</a>
</g>
</g>
<!-- Node27&#45;&gt;Node40 -->
<g id="edge54_Node000027_Node000040" class="edge">
<title>Node27&#45;&gt;Node40</title>
<g id="a_edge54_Node000027_Node000040"><a xlink:title=" ">
<path fill="none" stroke="#63b8ff" d="M672.07,-549.98C661.92,-542.07 646.58,-530.11 634.35,-520.58"/>
<polygon fill="#63b8ff" stroke="#63b8ff" points="636.16,-517.56 626.12,-514.17 631.86,-523.08 636.16,-517.56"/>
</a>
</g>
</g>
<!-- Node28&#45;&gt;Node7 -->
<g id="edge52_Node000028_Node000007" class="edge">
<title>Node28&#45;&gt;Node7</title>
<g id="a_edge52_Node000028_Node000007"><a xlink:title=" ">
<path fill="none" stroke="#63b8ff" d="M651.77,-495.42C625.74,-487.98 588.18,-475.59 558,-459 476.43,-414.15 469.59,-382.9 393,-330 328.84,-285.69 305.18,-286.05 243,-239 214.41,-217.37 205.51,-212.68 184,-184 173.48,-169.97 164.78,-151.97 159.12,-138.71"/>
<polygon fill="#63b8ff" stroke="#63b8ff" points="162.29,-137.2 155.26,-129.27 155.81,-139.85 162.29,-137.2"/>
</a>
</g>
</g>
<!-- Node28&#45;&gt;Node13 -->
<g id="edge36_Node000028_Node000013" class="edge">
<title>Node28&#45;&gt;Node13</title>
<g id="a_edge36_Node000028_Node000013"><a xlink:title=" ">
<path fill="none" stroke="#63b8ff" d="M653.4,-494.96C612.85,-481.24 545,-450.11 545,-395.5 545,-395.5 545,-395.5 545,-338.5 545,-280.56 751.63,-285.65 786,-239 805.55,-212.46 802.41,-195.93 791,-165 786.94,-153.99 778.81,-143.86 771.1,-136.05"/>
<polygon fill="#63b8ff" stroke="#63b8ff" points="773.39,-133.39 763.71,-129.07 768.58,-138.48 773.39,-133.39"/>
</a>
</g>
</g>
<!-- Node29 -->
<g id="Node000029" class="node">
<title>Node29</title>
<g id="a_Node000029"><a xlink:href="expr_8h.html" target="_top" xlink:title=" ">
<polygon fill="white" stroke="#666666" points="805.5,-459 758.5,-459 758.5,-440 805.5,-440 805.5,-459"/>
<text text-anchor="middle" x="782" y="-447" font-family="Helvetica,sans-Serif" font-size="10.00">expr.h</text>
</a>
</g>
</g>
<!-- Node28&#45;&gt;Node29 -->
<g id="edge37_Node000028_Node000029" class="edge">
<title>Node28&#45;&gt;Node29</title>
<g id="a_edge37_Node000028_Node000029"><a xlink:title=" ">
<path fill="none" stroke="#63b8ff" d="M698.91,-494.98C714.55,-486.61 738.66,-473.7 756.88,-463.95"/>
<polygon fill="#63b8ff" stroke="#63b8ff" points="758.64,-466.98 765.8,-459.17 755.34,-460.8 758.64,-466.98"/>
</a>
</g>
</g>
<!-- Node29&#45;&gt;Node25 -->
<g id="edge38_Node000029_Node000025" class="edge">
<title>Node29&#45;&gt;Node25</title>
<g id="a_edge38_Node000029_Node000025"><a xlink:title=" ">
<path fill="none" stroke="#63b8ff" d="M758.39,-446.63C705.68,-441.03 583,-419.51 583,-340.5 583,-340.5 583,-340.5 583,-283.5 583,-252.18 581.72,-215.77 580.84,-194.23"/>
<polygon fill="#63b8ff" stroke="#63b8ff" points="584.33,-194.02 580.4,-184.18 577.34,-194.32 584.33,-194.02"/>
</a>
</g>
</g>
<!-- Node30 -->
<g id="Node000030" class="node">
<title>Node30</title>
<g id="a_Node000030"><a xlink:href="type_8h.html" target="_top" xlink:title="Defines typet, type_with_subtypet and type_with_subtypest.">
<polygon fill="white" stroke="#666666" points="805.5,-404 758.5,-404 758.5,-385 805.5,-385 805.5,-404"/>
<text text-anchor="middle" x="782" y="-392" font-family="Helvetica,sans-Serif" font-size="10.00">type.h</text>
</a>
</g>
</g>
<!-- Node29&#45;&gt;Node30 -->
<g id="edge39_Node000029_Node000030" class="edge">
<title>Node29&#45;&gt;Node30</title>
<g id="a_edge39_Node000029_Node000030"><a xlink:title=" ">
<path fill="none" stroke="#63b8ff" d="M782,-439.75C782,-432.8 782,-422.85 782,-414.13"/>
<polygon fill="#63b8ff" stroke="#63b8ff" points="785.5,-414.09 782,-404.09 778.5,-414.09 785.5,-414.09"/>
</a>
</g>
</g>
<!-- Node36 -->
<g id="Node000036" class="node">
<title>Node36</title>
<g id="a_Node000036"><a xlink:href="validation__mode_8h.html" target="_top" xlink:title=" ">
<polygon fill="white" stroke="#666666" points="878.5,-294 771.5,-294 771.5,-275 878.5,-275 878.5,-294"/>
<text text-anchor="middle" x="825" y="-282" font-family="Helvetica,sans-Serif" font-size="10.00">validation_mode.h</text>
</a>
</g>
</g>
<!-- Node29&#45;&gt;Node36 -->
<g id="edge50_Node000029_Node000036" class="edge">
<title>Node29&#45;&gt;Node36</title>
<g id="a_edge50_Node000029_Node000036"><a xlink:title=" ">
<path fill="none" stroke="#63b8ff" d="M805.56,-443.4C845.68,-433.3 926.23,-406.56 960,-349 979.15,-316.36 932.46,-300.29 888.85,-292.51"/>
<polygon fill="#63b8ff" stroke="#63b8ff" points="889.18,-289.02 878.75,-290.84 888.04,-295.93 889.18,-289.02"/>
</a>
</g>
</g>
<!-- Node37 -->
<g id="Node000037" class="node">
<title>Node37</title>
<g id="a_Node000037"><a xlink:href="validate__types_8h.html" target="_top" xlink:title=" ">
<polygon fill="white" stroke="#666666" points="951,-349 853,-349 853,-330 951,-330 951,-349"/>
<text text-anchor="middle" x="902" y="-337" font-family="Helvetica,sans-Serif" font-size="10.00">validate_types.h</text>
</a>
</g>
</g>
<!-- Node29&#45;&gt;Node37 -->
<g id="edge49_Node000029_Node000037" class="edge">
<title>Node29&#45;&gt;Node37</title>
<g id="a_edge49_Node000029_Node000037"><a xlink:title=" ">
<path fill="none" stroke="#63b8ff" d="M791.82,-439.66C812.23,-421.3 859.43,-378.81 884.93,-355.87"/>
<polygon fill="#63b8ff" stroke="#63b8ff" points="887.29,-358.45 892.38,-349.16 882.61,-353.25 887.29,-358.45"/>
</a>
</g>
</g>
<!-- Node38 -->
<g id="Node000038" class="node">
<title>Node38</title>
<g id="a_Node000038"><a xlink:href="validate__expressions_8h.html" target="_top" xlink:title=" ">
<polygon fill="white" stroke="#666666" points="1080.5,-404 951.5,-404 951.5,-385 1080.5,-385 1080.5,-404"/>
<text text-anchor="middle" x="1016" y="-392" font-family="Helvetica,sans-Serif" font-size="10.00">validate_expressions.h</text>
</a>
</g>
</g>
<!-- Node29&#45;&gt;Node38 -->
<g id="edge48_Node000029_Node000038" class="edge">
<title>Node29&#45;&gt;Node38</title>
<g id="a_edge48_Node000029_Node000038"><a xlink:title=" ">
<path fill="none" stroke="#63b8ff" d="M805.72,-443.13C843.77,-434.51 919.16,-417.43 968.56,-406.24"/>
<polygon fill="#63b8ff" stroke="#63b8ff" points="969.4,-409.64 978.38,-404.02 967.86,-402.82 969.4,-409.64"/>
</a>
</g>
</g>
<!-- Node39 -->
<g id="Node000039" class="node">
<title>Node39</title>
<g id="a_Node000039"><a xlink:title=" ">
<polygon fill="#e0e0e0" stroke="#999999" points="264.5,-349 199.5,-349 199.5,-330 264.5,-330 264.5,-349"/>
<text text-anchor="middle" x="232" y="-337" font-family="Helvetica,sans-Serif" font-size="10.00">functional</text>
</a>
</g>
</g>
<!-- Node29&#45;&gt;Node39 -->
<g id="edge51_Node000029_Node000039" class="edge">
<title>Node29&#45;&gt;Node39</title>
<g id="a_edge51_Node000029_Node000039"><a xlink:title=" ">
<path fill="none" stroke="#63b8ff" d="M758.44,-443.94C687.32,-430.16 468.3,-387.65 274.63,-349.12"/>
<polygon fill="#63b8ff" stroke="#63b8ff" points="275.05,-345.63 264.56,-347.11 273.68,-352.49 275.05,-345.63"/>
</a>
</g>
</g>
<!-- Node31 -->
<g id="Node000031" class="node">
<title>Node31</title>
<g id="a_Node000031"><a xlink:href="source__location_8h.html" target="_top" xlink:title=" ">
<polygon fill="#fff0f0" stroke="red" points="713,-349 611,-349 611,-330 713,-330 713,-349"/>
<text text-anchor="middle" x="662" y="-337" font-family="Helvetica,sans-Serif" font-size="10.00">source_location.h</text>
</a>
</g>
</g>
<!-- Node30&#45;&gt;Node31 -->
<g id="edge40_Node000030_Node000031" class="edge">
<title>Node30&#45;&gt;Node31</title>
<g id="a_edge40_Node000030_Node000031"><a xlink:title=" ">
<path fill="none" stroke="#63b8ff" d="M762.72,-384.98C743.33,-376.42 713.19,-363.11 690.93,-353.28"/>
<polygon fill="#63b8ff" stroke="#63b8ff" points="692.19,-350.01 681.63,-349.17 689.36,-356.41 692.19,-350.01"/>
</a>
</g>
</g>
<!-- Node34 -->
<g id="Node000034" class="node">
<title>Node34</title>
<g id="a_Node000034"><a xlink:href="validate_8h.html" target="_top" xlink:title=" ">
<polygon fill="#fff0f0" stroke="red" points="796.5,-349 731.5,-349 731.5,-330 796.5,-330 796.5,-349"/>
<text text-anchor="middle" x="764" y="-337" font-family="Helvetica,sans-Serif" font-size="10.00">validate.h</text>
</a>
</g>
</g>
<!-- Node30&#45;&gt;Node34 -->
<g id="edge43_Node000030_Node000034" class="edge">
<title>Node30&#45;&gt;Node34</title>
<g id="a_edge43_Node000030_Node000034"><a xlink:title=" ">
<path fill="none" stroke="#63b8ff" d="M779.03,-384.75C776.64,-377.72 773.21,-367.62 770.23,-358.84"/>
<polygon fill="#63b8ff" stroke="#63b8ff" points="773.45,-357.43 766.92,-349.09 766.82,-359.68 773.45,-357.43"/>
</a>
</g>
</g>
<!-- Node30&#45;&gt;Node36 -->
<g id="edge47_Node000030_Node000036" class="edge">
<title>Node30&#45;&gt;Node36</title>
<g id="a_edge47_Node000030_Node000036"><a xlink:title=" ">
<path fill="none" stroke="#63b8ff" d="M787.33,-384.89C792.59,-376.11 800.63,-361.98 806,-349 812.06,-334.36 817.1,-317.1 820.46,-304.28"/>
<polygon fill="#63b8ff" stroke="#63b8ff" points="823.92,-304.87 822.97,-294.32 817.13,-303.17 823.92,-304.87"/>
</a>
</g>
</g>
<!-- Node30&#45;&gt;Node37 -->
<g id="edge46_Node000030_Node000037" class="edge">
<title>Node30&#45;&gt;Node37</title>
<g id="a_edge46_Node000030_Node000037"><a xlink:title=" ">
<path fill="none" stroke="#63b8ff" d="M801.28,-384.98C820.67,-376.42 850.81,-363.11 873.07,-353.28"/>
<polygon fill="#63b8ff" stroke="#63b8ff" points="874.64,-356.41 882.37,-349.17 871.81,-350.01 874.64,-356.41"/>
</a>
</g>
</g>
<!-- Node31&#45;&gt;Node4 -->
<g id="edge41_Node000031_Node000004" class="edge">
<title>Node31&#45;&gt;Node4</title>
<g id="a_edge41_Node000031_Node000004"><a xlink:title=" ">
<path fill="none" stroke="#63b8ff" d="M632.12,-329.98C598.09,-320.29 542.74,-304.52 507.9,-294.59"/>
<polygon fill="#63b8ff" stroke="#63b8ff" points="508.8,-291.21 498.22,-291.83 506.88,-297.94 508.8,-291.21"/>
</a>
</g>
</g>
<!-- Node31&#45;&gt;Node5 -->
<g id="edge42_Node000031_Node000005" class="edge">
<title>Node31&#45;&gt;Node5</title>
<g id="a_edge42_Node000031_Node000005"><a xlink:title=" ">
<path fill="none" stroke="#63b8ff" d="M675.69,-329.81C695.07,-317.53 731.66,-294.41 763,-275 827.36,-235.13 870.82,-250.5 907,-184 923.77,-153.17 851.41,-63.88 819.48,-26.87"/>
<polygon fill="#63b8ff" stroke="#63b8ff" points="821.85,-24.27 812.64,-19.03 816.58,-28.87 821.85,-24.27"/>
</a>
</g>
</g>
<!-- Node34&#45;&gt;Node10 -->
<g id="edge44_Node000034_Node000010" class="edge">
<title>Node34&#45;&gt;Node10</title>
<g id="a_edge44_Node000034_Node000010"><a xlink:title=" ">
<path fill="none" stroke="#63b8ff" d="M759.47,-329.69C744.34,-301.15 692.52,-210.45 623,-165 522.64,-99.39 379.45,-76.65 307.65,-69.08"/>
<polygon fill="#63b8ff" stroke="#63b8ff" points="307.89,-65.59 297.59,-68.07 307.19,-72.55 307.89,-65.59"/>
</a>
</g>
</g>
<!-- Node34&#45;&gt;Node36 -->
<g id="edge45_Node000034_Node000036" class="edge">
<title>Node34&#45;&gt;Node36</title>
<g id="a_edge45_Node000034_Node000036"><a xlink:title=" ">
<path fill="none" stroke="#63b8ff" d="M773.8,-329.98C782.82,-322.15 796.41,-310.34 807.32,-300.86"/>
<polygon fill="#63b8ff" stroke="#63b8ff" points="809.77,-303.37 815.02,-294.17 805.18,-298.09 809.77,-303.37"/>
</a>
</g>
</g>
<!-- Node44 -->
<g id="Node000044" class="node">
<title>Node44</title>
<g id="a_Node000044"><a xlink:href="src_2util_2message_8h.html" target="_top" xlink:title=" ">
<polygon fill="white" stroke="#666666" points="201,-404 131,-404 131,-385 201,-385 201,-404"/>
<text text-anchor="middle" x="166" y="-392" font-family="Helvetica,sans-Serif" font-size="10.00">message.h</text>
</a>
</g>
</g>
<!-- Node43&#45;&gt;Node44 -->
<g id="edge59_Node000043_Node000044" class="edge">
<title>Node43&#45;&gt;Node44</title>
<g id="a_edge59_Node000043_Node000044"><a xlink:title=" ">
<path fill="none" stroke="#63b8ff" d="M187.14,-610.24C183.9,-577.35 172.43,-460.8 167.88,-414.59"/>
<polygon fill="#63b8ff" stroke="#63b8ff" points="171.34,-414.05 166.88,-404.44 164.38,-414.74 171.34,-414.05"/>
</a>
</g>
</g>
<!-- Node44&#45;&gt;Node5 -->
<g id="edge65_Node000044_Node000005" class="edge">
<title>Node44&#45;&gt;Node5</title>
<g id="a_edge65_Node000044_Node000005"><a xlink:title=" ">
<path fill="none" stroke="#63b8ff" d="M130.8,-386.96C82.07,-375.64 0,-347.39 0,-285.5 0,-285.5 0,-285.5 0,-118.5 0,-85.84 9.16,-72.09 37,-55 100.38,-16.1 634.77,-11.2 772.65,-10.59"/>
<polygon fill="#63b8ff" stroke="#63b8ff" points="772.97,-14.09 782.96,-10.55 772.95,-7.09 772.97,-14.09"/>
</a>
</g>
</g>
<!-- Node44&#45;&gt;Node7 -->
<g id="edge60_Node000044_Node000007" class="edge">
<title>Node44&#45;&gt;Node7</title>
<g id="a_edge60_Node000044_Node000007"><a xlink:title=" ">
<path fill="none" stroke="#63b8ff" d="M151.14,-384.91C125.58,-368.9 76,-331.87 76,-285.5 76,-285.5 76,-285.5 76,-228.5 76,-189.47 109.61,-154.58 132.13,-135.6"/>
<polygon fill="#63b8ff" stroke="#63b8ff" points="134.56,-138.14 140.12,-129.12 130.15,-132.7 134.56,-138.14"/>
</a>
</g>
</g>
<!-- Node44&#45;&gt;Node9 -->
<g id="edge64_Node000044_Node000009" class="edge">
<title>Node44&#45;&gt;Node9</title>
<g id="a_edge64_Node000044_Node000009"><a xlink:title=" ">
<path fill="none" stroke="#63b8ff" d="M140.1,-384.91C102.7,-370.68 38,-338.42 38,-285.5 38,-285.5 38,-285.5 38,-173.5 38,-140.21 53.58,-103.97 64.25,-83.08"/>
<polygon fill="#63b8ff" stroke="#63b8ff" points="67.4,-84.61 68.99,-74.13 61.21,-81.32 67.4,-84.61"/>
</a>
</g>
</g>
<!-- Node44&#45;&gt;Node13 -->
<g id="edge63_Node000044_Node000013" class="edge">
<title>Node44&#45;&gt;Node13</title>
<g id="a_edge63_Node000044_Node000013"><a xlink:title=" ">
<path fill="none" stroke="#63b8ff" d="M167.01,-384.92C169.02,-371.48 174.75,-345.42 190,-330 268.18,-250.96 324.09,-289.75 423,-239 476.74,-211.43 481.12,-187.94 537,-165 598.19,-139.89 675.16,-128.4 718.75,-123.59"/>
<polygon fill="#63b8ff" stroke="#63b8ff" points="719.24,-127.06 728.82,-122.53 718.51,-120.1 719.24,-127.06"/>
</a>
</g>
</g>
<!-- Node44&#45;&gt;Node31 -->
<g id="edge61_Node000044_Node000031" class="edge">
<title>Node44&#45;&gt;Node31</title>
<g id="a_edge61_Node000044_Node000031"><a xlink:title=" ">
<path fill="none" stroke="#63b8ff" d="M201.27,-389.73C284.81,-380.8 495.55,-358.29 600.56,-347.07"/>
<polygon fill="#63b8ff" stroke="#63b8ff" points="601.12,-350.53 610.69,-345.98 600.38,-343.56 601.12,-350.53"/>
</a>
</g>
</g>
<!-- Node44&#45;&gt;Node39 -->
<g id="edge62_Node000044_Node000039" class="edge">
<title>Node44&#45;&gt;Node39</title>
<g id="a_edge62_Node000044_Node000039"><a xlink:title=" ">
<path fill="none" stroke="#63b8ff" d="M176.6,-384.98C186.46,-377.07 201.35,-365.11 213.22,-355.58"/>
<polygon fill="#63b8ff" stroke="#63b8ff" points="215.6,-358.16 221.2,-349.17 211.21,-352.7 215.6,-358.16"/>
</a>
</g>
</g>
<!-- Node45&#45;&gt;Node4 -->
<g id="edge68_Node000045_Node000004" class="edge">
<title>Node45&#45;&gt;Node4</title>
<g id="a_edge68_Node000045_Node000004"><a xlink:title=" ">
<path fill="none" stroke="#63b8ff" d="M355.98,-329.98C379.78,-321.16 417.16,-307.31 443.89,-297.4"/>
<polygon fill="#63b8ff" stroke="#63b8ff" points="445.39,-300.58 453.55,-293.82 442.96,-294.01 445.39,-300.58"/>
</a>
</g>
</g>
<!-- Node45&#45;&gt;Node7 -->
<g id="edge67_Node000045_Node000007" class="edge">
<title>Node45&#45;&gt;Node7</title>
<g id="a_edge67_Node000045_Node000007"><a xlink:title=" ">
<path fill="none" stroke="#63b8ff" d="M282.27,-330.21C233.67,-319.1 164,-293.97 138,-239 122.42,-206.05 134.87,-162.41 144.18,-138.34"/>
<polygon fill="#63b8ff" stroke="#63b8ff" points="147.44,-139.62 148.01,-129.04 140.96,-136.96 147.44,-139.62"/>
</a>
</g>
</g>
</g>
</svg>
