<?xml version="1.0" encoding="UTF-8" standalone="no"?>
<!DOCTYPE svg PUBLIC "-//W3C//DTD SVG 1.1//EN"
 "http://www.w3.org/Graphics/SVG/1.1/DTD/svg11.dtd">
<!-- Generated by graphviz version 2.43.0 (0)
 -->
<!-- Title: /home/runner/work/cbmc/cbmc/jbmc/src/jdiff/jdiff_main.cpp Pages: 1 -->
<svg width="1229pt" height="632pt"
 viewBox="0.00 0.00 1229.00 632.00" xmlns="http://www.w3.org/2000/svg" xmlns:xlink="http://www.w3.org/1999/xlink">
<g id="graph0" class="graph" transform="scale(1 1) rotate(0) translate(4 628)">
<title>/home/runner/work/cbmc/cbmc/jbmc/src/jdiff/jdiff_main.cpp</title>
<!-- Node1 -->
<g id="Node000001" class="node">
<title>Node1</title>
<g id="a_Node000001"><a xlink:title="JDIFF Main Module.">
<polygon fill="#999999" stroke="#666666" points="463,-624 325,-624 325,-583 463,-583 463,-624"/>
<text text-anchor="start" x="333" y="-612" font-family="Helvetica,sans-Serif" font-size="10.00">/home/runner/work/cbmc</text>
<text text-anchor="start" x="333" y="-601" font-family="Helvetica,sans-Serif" font-size="10.00">/cbmc/jbmc/src/jdiff/jdiff</text>
<text text-anchor="middle" x="394" y="-590" font-family="Helvetica,sans-Serif" font-size="10.00">_main.cpp</text>
</a>
</g>
</g>
<!-- Node2 -->
<g id="Node000002" class="node">
<title>Node2</title>
<g id="a_Node000002"><a xlink:href="jdiff__parse__options_8h.html" target="_top" xlink:title="JDIFF Command Line Option Processing.">
<polygon fill="white" stroke="#666666" points="453,-547 335,-547 335,-528 453,-528 453,-547"/>
<text text-anchor="middle" x="394" y="-535" font-family="Helvetica,sans-Serif" font-size="10.00">jdiff_parse_options.h</text>
</a>
</g>
</g>
<!-- Node1&#45;&gt;Node2 -->
<g id="edge1_Node000001_Node000002" class="edge">
<title>Node1&#45;&gt;Node2</title>
<g id="a_edge1_Node000001_Node000002"><a xlink:title=" ">
<path fill="none" stroke="#63b8ff" d="M394,-582.95C394,-574.85 394,-565.5 394,-557.47"/>
<polygon fill="#63b8ff" stroke="#63b8ff" points="397.5,-557.26 394,-547.26 390.5,-557.26 397.5,-557.26"/>
</a>
</g>
</g>
<!-- Node3 -->
<g id="Node000003" class="node">
<title>Node3</title>
<g id="a_Node000003"><a xlink:href="parse__options_8h.html" target="_top" xlink:title=" ">
<polygon fill="white" stroke="#666666" points="315.5,-365.5 202.5,-365.5 202.5,-346.5 315.5,-346.5 315.5,-365.5"/>
<text text-anchor="middle" x="259" y="-353.5" font-family="Helvetica,sans-Serif" font-size="10.00">util/parse_options.h</text>
</a>
</g>
</g>
<!-- Node2&#45;&gt;Node3 -->
<g id="edge2_Node000002_Node000003" class="edge">
<title>Node2&#45;&gt;Node3</title>
<g id="a_edge2_Node000002_Node000003"><a xlink:title=" ">
<path fill="none" stroke="#63b8ff" d="M387.49,-527.84C366.42,-499.82 299.82,-411.27 271.71,-373.9"/>
<polygon fill="#63b8ff" stroke="#63b8ff" points="274.25,-371.46 265.45,-365.57 268.66,-375.67 274.25,-371.46"/>
</a>
</g>
</g>
<!-- Node36 -->
<g id="Node000036" class="node">
<title>Node36</title>
<g id="a_Node000036"><a xlink:href="timestamper_8h.html" target="_top" xlink:title="Emit timestamps.">
<polygon fill="white" stroke="#666666" points="154,-250 66,-250 66,-231 154,-231 154,-250"/>
<text text-anchor="middle" x="110" y="-238" font-family="Helvetica,sans-Serif" font-size="10.00">timestamper.h</text>
</a>
</g>
</g>
<!-- Node2&#45;&gt;Node36 -->
<g id="edge36_Node000002_Node000036" class="edge">
<title>Node2&#45;&gt;Node36</title>
<g id="a_edge36_Node000002_Node000036"><a xlink:title=" ">
<path fill="none" stroke="#63b8ff" d="M334.59,-531C224.52,-519.16 0,-486.54 0,-417.5 0,-417.5 0,-417.5 0,-355 0,-307.8 49.67,-272.78 82.25,-254.89"/>
<polygon fill="#63b8ff" stroke="#63b8ff" points="84.13,-257.86 91.34,-250.1 80.86,-251.67 84.13,-257.86"/>
</a>
</g>
</g>
<!-- Node37 -->
<g id="Node000037" class="node">
<title>Node37</title>
<g id="a_Node000037"><a xlink:href="show__goto__functions_8h.html" target="_top" xlink:title="Show the goto functions.">
<polygon fill="white" stroke="#666666" points="691.5,-492 574.5,-492 574.5,-462 691.5,-462 691.5,-492"/>
<text text-anchor="start" x="582.5" y="-480" font-family="Helvetica,sans-Serif" font-size="10.00">goto&#45;programs/show</text>
<text text-anchor="middle" x="633" y="-469" font-family="Helvetica,sans-Serif" font-size="10.00">_goto_functions.h</text>
</a>
</g>
</g>
<!-- Node2&#45;&gt;Node37 -->
<g id="edge37_Node000002_Node000037" class="edge">
<title>Node2&#45;&gt;Node37</title>
<g id="a_edge37_Node000002_Node000037"><a xlink:title=" ">
<path fill="none" stroke="#63b8ff" d="M428.75,-527.99C464.5,-519.24 521.09,-505.39 565.65,-494.48"/>
<polygon fill="#63b8ff" stroke="#63b8ff" points="566.66,-497.84 575.54,-492.06 565,-491.04 566.66,-497.84"/>
</a>
</g>
</g>
<!-- Node38 -->
<g id="Node000038" class="node">
<title>Node38</title>
<g id="a_Node000038"><a xlink:href="show__properties_8h.html" target="_top" xlink:title="Show the properties.">
<polygon fill="white" stroke="#666666" points="456.5,-195 339.5,-195 339.5,-165 456.5,-165 456.5,-195"/>
<text text-anchor="start" x="347.5" y="-183" font-family="Helvetica,sans-Serif" font-size="10.00">goto&#45;programs/show</text>
<text text-anchor="middle" x="398" y="-172" font-family="Helvetica,sans-Serif" font-size="10.00">_properties.h</text>
</a>
</g>
</g>
<!-- Node2&#45;&gt;Node38 -->
<g id="edge38_Node000002_Node000038" class="edge">
<title>Node2&#45;&gt;Node38</title>
<g id="a_edge38_Node000002_Node000038"><a xlink:title=" ">
<path fill="none" stroke="#63b8ff" d="M394.1,-527.71C394.61,-482.65 396.92,-276.85 397.72,-205.47"/>
<polygon fill="#63b8ff" stroke="#63b8ff" points="401.23,-205.25 397.84,-195.21 394.23,-205.17 401.23,-205.25"/>
</a>
</g>
</g>
<!-- Node39 -->
<g id="Node000039" class="node">
<title>Node39</title>
<g id="a_Node000039"><a xlink:href="cover_8h.html" target="_top" xlink:title="Coverage Instrumentation.">
<polygon fill="white" stroke="#666666" points="556,-486.5 422,-486.5 422,-467.5 556,-467.5 556,-486.5"/>
<text text-anchor="middle" x="489" y="-474.5" font-family="Helvetica,sans-Serif" font-size="10.00">goto&#45;instrument/cover.h</text>
</a>
</g>
</g>
<!-- Node2&#45;&gt;Node39 -->
<g id="edge41_Node000002_Node000039" class="edge">
<title>Node2&#45;&gt;Node39</title>
<g id="a_edge41_Node000002_Node000039"><a xlink:title=" ">
<path fill="none" stroke="#63b8ff" d="M408.02,-527.87C423.31,-518.45 448.03,-503.23 466.14,-492.08"/>
<polygon fill="#63b8ff" stroke="#63b8ff" points="468.25,-494.89 474.92,-486.67 464.57,-488.93 468.25,-494.89"/>
</a>
</g>
</g>
<!-- Node4 -->
<g id="Node000004" class="node">
<title>Node4</title>
<g id="a_Node000004"><a xlink:title=" ">
<polygon fill="#e0e0e0" stroke="#999999" points="408,-19 364,-19 364,0 408,0 408,-19"/>
<text text-anchor="middle" x="386" y="-7" font-family="Helvetica,sans-Serif" font-size="10.00">string</text>
</a>
</g>
</g>
<!-- Node3&#45;&gt;Node4 -->
<g id="edge3_Node000003_Node000004" class="edge">
<title>Node3&#45;&gt;Node4</title>
<g id="a_edge3_Node000003_Node000004"><a xlink:title=" ">
<path fill="none" stroke="#63b8ff" d="M202.37,-350.2C136.89,-341.2 38,-315.36 38,-241.5 38,-241.5 38,-241.5 38,-118.5 38,-52.69 267.89,-22.51 353.97,-13.52"/>
<polygon fill="#63b8ff" stroke="#63b8ff" points="354.37,-17 363.97,-12.5 353.66,-10.03 354.37,-17"/>
</a>
</g>
</g>
<!-- Node5 -->
<g id="Node000005" class="node">
<title>Node5</title>
<g id="a_Node000005"><a xlink:href="cmdline_8h.html" target="_top" xlink:title=" ">
<polygon fill="white" stroke="#666666" points="237.5,-250 172.5,-250 172.5,-231 237.5,-231 237.5,-250"/>
<text text-anchor="middle" x="205" y="-238" font-family="Helvetica,sans-Serif" font-size="10.00">cmdline.h</text>
</a>
</g>
</g>
<!-- Node3&#45;&gt;Node5 -->
<g id="edge4_Node000003_Node000005" class="edge">
<title>Node3&#45;&gt;Node5</title>
<g id="a_edge4_Node000003_Node000005"><a xlink:title=" ">
<path fill="none" stroke="#63b8ff" d="M245.82,-346.49C233.56,-337.73 216.01,-322.88 208,-305 201.72,-290.98 201.38,-273.43 202.38,-260.33"/>
<polygon fill="#63b8ff" stroke="#63b8ff" points="205.88,-260.49 203.49,-250.17 198.93,-259.74 205.88,-260.49"/>
</a>
</g>
</g>
<!-- Node10 -->
<g id="Node000010" class="node">
<title>Node10</title>
<g id="a_Node000010"><a xlink:href="src_2util_2message_8h.html" target="_top" xlink:title=" ">
<polygon fill="white" stroke="#666666" points="673,-250 603,-250 603,-231 673,-231 673,-250"/>
<text text-anchor="middle" x="638" y="-238" font-family="Helvetica,sans-Serif" font-size="10.00">message.h</text>
</a>
</g>
</g>
<!-- Node3&#45;&gt;Node10 -->
<g id="edge10_Node000003_Node000010" class="edge">
<title>Node3&#45;&gt;Node10</title>
<g id="a_edge10_Node000003_Node000010"><a xlink:title=" ">
<path fill="none" stroke="#63b8ff" d="M276.53,-346.42C306.37,-332.11 369.24,-303.24 425,-286 481.8,-268.43 549.27,-255.65 592.81,-248.4"/>
<polygon fill="#63b8ff" stroke="#63b8ff" points="593.51,-251.84 602.81,-246.77 592.38,-244.93 593.51,-251.84"/>
</a>
</g>
</g>
<!-- Node34 -->
<g id="Node000034" class="node">
<title>Node34</title>
<g id="a_Node000034"><a xlink:href="ui__message_8h.html" target="_top" xlink:title=" ">
<polygon fill="white" stroke="#666666" points="301,-305 217,-305 217,-286 301,-286 301,-305"/>
<text text-anchor="middle" x="259" y="-293" font-family="Helvetica,sans-Serif" font-size="10.00">ui_message.h</text>
</a>
</g>
</g>
<!-- Node3&#45;&gt;Node34 -->
<g id="edge30_Node000003_Node000034" class="edge">
<title>Node3&#45;&gt;Node34</title>
<g id="a_edge30_Node000003_Node000034"><a xlink:title=" ">
<path fill="none" stroke="#63b8ff" d="M259,-346.37C259,-338.25 259,-325.81 259,-315.39"/>
<polygon fill="#63b8ff" stroke="#63b8ff" points="262.5,-315.17 259,-305.17 255.5,-315.17 262.5,-315.17"/>
</a>
</g>
</g>
<!-- Node5&#45;&gt;Node4 -->
<g id="edge8_Node000005_Node000004" class="edge">
<title>Node5&#45;&gt;Node4</title>
<g id="a_edge8_Node000005_Node000004"><a xlink:title=" ">
<path fill="none" stroke="#63b8ff" d="M200.14,-230.98C184.59,-202.44 139.53,-109.04 183,-55 204.11,-28.77 302.34,-17.13 354.02,-12.75"/>
<polygon fill="#63b8ff" stroke="#63b8ff" points="354.31,-16.24 364,-11.95 353.75,-9.26 354.31,-16.24"/>
</a>
</g>
</g>
<!-- Node6 -->
<g id="Node000006" class="node">
<title>Node6</title>
<g id="a_Node000006"><a xlink:title=" ">
<polygon fill="#e0e0e0" stroke="#999999" points="569,-189.5 525,-189.5 525,-170.5 569,-170.5 569,-189.5"/>
<text text-anchor="middle" x="547" y="-177.5" font-family="Helvetica,sans-Serif" font-size="10.00">limits</text>
</a>
</g>
</g>
<!-- Node5&#45;&gt;Node6 -->
<g id="edge5_Node000005_Node000006" class="edge">
<title>Node5&#45;&gt;Node6</title>
<g id="a_edge5_Node000005_Node000006"><a xlink:title=" ">
<path fill="none" stroke="#63b8ff" d="M237.87,-237.84C295.32,-234.27 417.28,-223.73 516,-195 517.64,-194.52 519.3,-193.98 520.96,-193.38"/>
<polygon fill="#63b8ff" stroke="#63b8ff" points="522.33,-196.6 530.27,-189.59 519.69,-190.12 522.33,-196.6"/>
</a>
</g>
</g>
<!-- Node7 -->
<g id="Node000007" class="node">
<title>Node7</title>
<g id="a_Node000007"><a xlink:title=" ">
<polygon fill="#e0e0e0" stroke="#999999" points="507,-189.5 475,-189.5 475,-170.5 507,-170.5 507,-189.5"/>
<text text-anchor="middle" x="491" y="-177.5" font-family="Helvetica,sans-Serif" font-size="10.00">list</text>
</a>
</g>
</g>
<!-- Node5&#45;&gt;Node7 -->
<g id="edge6_Node000005_Node000007" class="edge">
<title>Node5&#45;&gt;Node7</title>
<g id="a_edge6_Node000005_Node000007"><a xlink:title=" ">
<path fill="none" stroke="#63b8ff" d="M237.63,-237.51C287.94,-233.67 386.9,-222.95 466,-195 466.86,-194.7 467.73,-194.36 468.6,-194.01"/>
<polygon fill="#63b8ff" stroke="#63b8ff" points="470.2,-197.12 477.64,-189.58 467.12,-190.83 470.2,-197.12"/>
</a>
</g>
</g>
<!-- Node8 -->
<g id="Node000008" class="node">
<title>Node8</title>
<g id="a_Node000008"><a xlink:title=" ">
<polygon fill="#e0e0e0" stroke="#999999" points="426,-129 370,-129 370,-110 426,-110 426,-129"/>
<text text-anchor="middle" x="398" y="-117" font-family="Helvetica,sans-Serif" font-size="10.00">optional</text>
</a>
</g>
</g>
<!-- Node5&#45;&gt;Node8 -->
<g id="edge7_Node000005_Node000008" class="edge">
<title>Node5&#45;&gt;Node8</title>
<g id="a_edge7_Node000005_Node000008"><a xlink:title=" ">
<path fill="none" stroke="#63b8ff" d="M203.48,-230.86C201.32,-215.51 199.27,-183.36 216,-165 235.08,-144.05 312.48,-131.01 359.99,-124.81"/>
<polygon fill="#63b8ff" stroke="#63b8ff" points="360.44,-128.28 369.93,-123.56 359.57,-121.33 360.44,-128.28"/>
</a>
</g>
</g>
<!-- Node9 -->
<g id="Node000009" class="node">
<title>Node9</title>
<g id="a_Node000009"><a xlink:title=" ">
<polygon fill="#e0e0e0" stroke="#999999" points="239.5,-74 192.5,-74 192.5,-55 239.5,-55 239.5,-74"/>
<text text-anchor="middle" x="216" y="-62" font-family="Helvetica,sans-Serif" font-size="10.00">vector</text>
</a>
</g>
</g>
<!-- Node5&#45;&gt;Node9 -->
<g id="edge9_Node000005_Node000009" class="edge">
<title>Node5&#45;&gt;Node9</title>
<g id="a_edge9_Node000005_Node000009"><a xlink:title=" ">
<path fill="none" stroke="#63b8ff" d="M203.76,-230.99C202.52,-222.05 200.7,-207.57 200,-195 199.25,-181.69 198.94,-178.29 200,-165 202.27,-136.58 208.13,-104.03 212.09,-84.12"/>
<polygon fill="#63b8ff" stroke="#63b8ff" points="215.54,-84.73 214.11,-74.23 208.68,-83.33 215.54,-84.73"/>
</a>
</g>
</g>
<!-- Node10&#45;&gt;Node4 -->
<g id="edge29_Node000010_Node000004" class="edge">
<title>Node10&#45;&gt;Node4</title>
<g id="a_edge29_Node000010_Node000004"><a xlink:title=" ">
<path fill="none" stroke="#63b8ff" d="M602.96,-239.89C530.04,-239.88 365.85,-235.26 331,-195 287.65,-144.91 344.39,-61.79 372.23,-26.81"/>
<polygon fill="#63b8ff" stroke="#63b8ff" points="374.99,-28.96 378.6,-19 369.56,-24.53 374.99,-28.96"/>
</a>
</g>
</g>
<!-- Node11 -->
<g id="Node000011" class="node">
<title>Node11</title>
<g id="a_Node000011"><a xlink:href="src_2util_2invariant_8h.html" target="_top" xlink:title=" ">
<polygon fill="white" stroke="#666666" points="936.5,-74 867.5,-74 867.5,-55 936.5,-55 936.5,-74"/>
<text text-anchor="middle" x="902" y="-62" font-family="Helvetica,sans-Serif" font-size="10.00">invariant.h</text>
</a>
</g>
</g>
<!-- Node10&#45;&gt;Node11 -->
<g id="edge11_Node000010_Node000011" class="edge">
<title>Node10&#45;&gt;Node11</title>
<g id="a_edge11_Node000010_Node000011"><a xlink:title=" ">
<path fill="none" stroke="#63b8ff" d="M673.13,-233.74C717.94,-225.89 792.32,-210.95 815,-195 855.87,-166.27 883.01,-111.72 894.99,-83.47"/>
<polygon fill="#63b8ff" stroke="#63b8ff" points="898.3,-84.61 898.83,-74.03 891.82,-81.97 898.3,-84.61"/>
</a>
</g>
</g>
<!-- Node13 -->
<g id="Node000013" class="node">
<title>Node13</title>
<g id="a_Node000013"><a xlink:title=" ">
<polygon fill="#e0e0e0" stroke="#999999" points="836,-19 780,-19 780,0 836,0 836,-19"/>
<text text-anchor="middle" x="808" y="-7" font-family="Helvetica,sans-Serif" font-size="10.00">sstream</text>
</a>
</g>
</g>
<!-- Node10&#45;&gt;Node13 -->
<g id="edge28_Node000010_Node000013" class="edge">
<title>Node10&#45;&gt;Node13</title>
<g id="a_edge28_Node000010_Node000013"><a xlink:title=" ">
<path fill="none" stroke="#63b8ff" d="M673.32,-233.07C711.21,-225.42 767.87,-211.58 782,-195 822.69,-147.23 816.64,-65.9 811.32,-29.32"/>
<polygon fill="#63b8ff" stroke="#63b8ff" points="814.73,-28.43 809.68,-19.11 807.81,-29.54 814.73,-28.43"/>
</a>
</g>
</g>
<!-- Node15 -->
<g id="Node000015" class="node">
<title>Node15</title>
<g id="a_Node000015"><a xlink:href="source__location_8h.html" target="_top" xlink:title=" ">
<polygon fill="white" stroke="#666666" points="773,-189.5 671,-189.5 671,-170.5 773,-170.5 773,-189.5"/>
<text text-anchor="middle" x="722" y="-177.5" font-family="Helvetica,sans-Serif" font-size="10.00">source_location.h</text>
</a>
</g>
</g>
<!-- Node10&#45;&gt;Node15 -->
<g id="edge16_Node000010_Node000015" class="edge">
<title>Node10&#45;&gt;Node15</title>
<g id="a_edge16_Node000010_Node000015"><a xlink:title=" ">
<path fill="none" stroke="#63b8ff" d="M650.39,-230.87C663.79,-221.54 685.38,-206.51 701.35,-195.38"/>
<polygon fill="#63b8ff" stroke="#63b8ff" points="703.35,-198.25 709.55,-189.67 699.35,-192.51 703.35,-198.25"/>
</a>
</g>
</g>
<!-- Node33 -->
<g id="Node000033" class="node">
<title>Node33</title>
<g id="a_Node000033"><a xlink:title=" ">
<polygon fill="#e0e0e0" stroke="#999999" points="652.5,-189.5 587.5,-189.5 587.5,-170.5 652.5,-170.5 652.5,-189.5"/>
<text text-anchor="middle" x="620" y="-177.5" font-family="Helvetica,sans-Serif" font-size="10.00">functional</text>
</a>
</g>
</g>
<!-- Node10&#45;&gt;Node33 -->
<g id="edge26_Node000010_Node000033" class="edge">
<title>Node10&#45;&gt;Node33</title>
<g id="a_edge26_Node000010_Node000033"><a xlink:title=" ">
<path fill="none" stroke="#63b8ff" d="M635.34,-230.87C632.82,-222.66 628.94,-210.04 625.71,-199.55"/>
<polygon fill="#63b8ff" stroke="#63b8ff" points="628.95,-198.2 622.67,-189.67 622.26,-200.25 628.95,-198.2"/>
</a>
</g>
</g>
<!-- Node20 -->
<g id="Node000020" class="node">
<title>Node20</title>
<g id="a_Node000020"><a xlink:title=" ">
<polygon fill="#e0e0e0" stroke="#999999" points="915,-189.5 867,-189.5 867,-170.5 915,-170.5 915,-189.5"/>
<text text-anchor="middle" x="891" y="-177.5" font-family="Helvetica,sans-Serif" font-size="10.00">iosfwd</text>
</a>
</g>
</g>
<!-- Node10&#45;&gt;Node20 -->
<g id="edge27_Node000010_Node000020" class="edge">
<title>Node10&#45;&gt;Node20</title>
<g id="a_edge27_Node000010_Node000020"><a xlink:title=" ">
<path fill="none" stroke="#63b8ff" d="M673.02,-233.9C715.89,-226.68 790.51,-212.87 853,-195 855.28,-194.35 857.62,-193.62 859.97,-192.86"/>
<polygon fill="#63b8ff" stroke="#63b8ff" points="861.18,-196.14 869.48,-189.56 858.89,-189.53 861.18,-196.14"/>
</a>
</g>
</g>
<!-- Node11&#45;&gt;Node4 -->
<g id="edge14_Node000011_Node000004" class="edge">
<title>Node11&#45;&gt;Node4</title>
<g id="a_edge14_Node000011_Node000004"><a xlink:title=" ">
<path fill="none" stroke="#63b8ff" d="M867.25,-57.13C862.47,-56.36 857.62,-55.62 853,-55 690.66,-33.22 495.18,-18.2 418.81,-12.76"/>
<polygon fill="#63b8ff" stroke="#63b8ff" points="418.65,-9.24 408.43,-12.02 418.16,-16.22 418.65,-9.24"/>
</a>
</g>
</g>
<!-- Node12 -->
<g id="Node000012" class="node">
<title>Node12</title>
<g id="a_Node000012"><a xlink:title=" ">
<polygon fill="#e0e0e0" stroke="#999999" points="918.5,-19 869.5,-19 869.5,0 918.5,0 918.5,-19"/>
<text text-anchor="middle" x="894" y="-7" font-family="Helvetica,sans-Serif" font-size="10.00">cstdlib</text>
</a>
</g>
</g>
<!-- Node11&#45;&gt;Node12 -->
<g id="edge12_Node000011_Node000012" class="edge">
<title>Node11&#45;&gt;Node12</title>
<g id="a_edge12_Node000011_Node000012"><a xlink:title=" ">
<path fill="none" stroke="#63b8ff" d="M900.68,-54.75C899.63,-47.8 898.13,-37.85 896.81,-29.13"/>
<polygon fill="#63b8ff" stroke="#63b8ff" points="900.25,-28.45 895.3,-19.09 893.33,-29.5 900.25,-28.45"/>
</a>
</g>
</g>
<!-- Node11&#45;&gt;Node13 -->
<g id="edge13_Node000011_Node000013" class="edge">
<title>Node11&#45;&gt;Node13</title>
<g id="a_edge13_Node000011_Node000013"><a xlink:title=" ">
<path fill="none" stroke="#63b8ff" d="M886.9,-54.98C872.18,-46.69 849.58,-33.94 832.33,-24.22"/>
<polygon fill="#63b8ff" stroke="#63b8ff" points="833.81,-21.03 823.38,-19.17 830.37,-27.13 833.81,-21.03"/>
</a>
</g>
</g>
<!-- Node14 -->
<g id="Node000014" class="node">
<title>Node14</title>
<g id="a_Node000014"><a xlink:title=" ">
<polygon fill="#e0e0e0" stroke="#999999" points="1005.5,-19 936.5,-19 936.5,0 1005.5,0 1005.5,-19"/>
<text text-anchor="middle" x="971" y="-7" font-family="Helvetica,sans-Serif" font-size="10.00">type_traits</text>
</a>
</g>
</g>
<!-- Node11&#45;&gt;Node14 -->
<g id="edge15_Node000011_Node000014" class="edge">
<title>Node11&#45;&gt;Node14</title>
<g id="a_edge15_Node000011_Node000014"><a xlink:title=" ">
<path fill="none" stroke="#63b8ff" d="M913.09,-54.98C923.49,-47 939.26,-34.88 951.72,-25.31"/>
<polygon fill="#63b8ff" stroke="#63b8ff" points="953.91,-28.04 959.71,-19.17 949.65,-22.49 953.91,-28.04"/>
</a>
</g>
</g>
<!-- Node15&#45;&gt;Node4 -->
<g id="edge25_Node000015_Node000004" class="edge">
<title>Node15&#45;&gt;Node4</title>
<g id="a_edge25_Node000015_Node000004"><a xlink:title=" ">
<path fill="none" stroke="#63b8ff" d="M696.13,-170.33C669.04,-161.02 625.47,-145.33 589,-129 540.92,-107.47 529.49,-100.57 484,-74 456.8,-58.11 426.51,-38.11 406.91,-24.85"/>
<polygon fill="#63b8ff" stroke="#63b8ff" points="408.69,-21.83 398.45,-19.1 404.75,-27.62 408.69,-21.83"/>
</a>
</g>
</g>
<!-- Node15&#45;&gt;Node8 -->
<g id="edge24_Node000015_Node000008" class="edge">
<title>Node15&#45;&gt;Node8</title>
<g id="a_edge24_Node000015_Node000008"><a xlink:title=" ">
<path fill="none" stroke="#63b8ff" d="M687.18,-170.48C678.95,-168.57 670.18,-166.63 662,-165 566.56,-145.93 541.92,-145.49 446,-129 442.79,-128.45 439.46,-127.87 436.12,-127.29"/>
<polygon fill="#63b8ff" stroke="#63b8ff" points="436.62,-123.82 426.16,-125.54 435.41,-130.72 436.62,-123.82"/>
</a>
</g>
</g>
<!-- Node16 -->
<g id="Node000016" class="node">
<title>Node16</title>
<g id="a_Node000016"><a xlink:href="deprecate_8h.html" target="_top" xlink:title=" ">
<polygon fill="white" stroke="#666666" points="759,-129 685,-129 685,-110 759,-110 759,-129"/>
<text text-anchor="middle" x="722" y="-117" font-family="Helvetica,sans-Serif" font-size="10.00">deprecate.h</text>
</a>
</g>
</g>
<!-- Node15&#45;&gt;Node16 -->
<g id="edge17_Node000015_Node000016" class="edge">
<title>Node15&#45;&gt;Node16</title>
<g id="a_edge17_Node000015_Node000016"><a xlink:title=" ">
<path fill="none" stroke="#63b8ff" d="M722,-170.37C722,-162.25 722,-149.81 722,-139.39"/>
<polygon fill="#63b8ff" stroke="#63b8ff" points="725.5,-139.17 722,-129.17 718.5,-139.17 725.5,-139.17"/>
</a>
</g>
</g>
<!-- Node17 -->
<g id="Node000017" class="node">
<title>Node17</title>
<g id="a_Node000017"><a xlink:href="irep_8h.html" target="_top" xlink:title=" ">
<polygon fill="white" stroke="#666666" points="642,-129 598,-129 598,-110 642,-110 642,-129"/>
<text text-anchor="middle" x="620" y="-117" font-family="Helvetica,sans-Serif" font-size="10.00">irep.h</text>
</a>
</g>
</g>
<!-- Node15&#45;&gt;Node17 -->
<g id="edge18_Node000015_Node000017" class="edge">
<title>Node15&#45;&gt;Node17</title>
<g id="a_edge18_Node000015_Node000017"><a xlink:title=" ">
<path fill="none" stroke="#63b8ff" d="M706.95,-170.37C690.38,-160.86 663.5,-145.45 644.01,-134.27"/>
<polygon fill="#63b8ff" stroke="#63b8ff" points="645.53,-131.11 635.11,-129.17 642.05,-137.18 645.53,-131.11"/>
</a>
</g>
</g>
<!-- Node17&#45;&gt;Node4 -->
<g id="edge19_Node000017_Node000004" class="edge">
<title>Node17&#45;&gt;Node4</title>
<g id="a_edge19_Node000017_Node000004"><a xlink:title=" ">
<path fill="none" stroke="#63b8ff" d="M601.25,-109.84C560.15,-90.88 462,-45.58 413.75,-23.31"/>
<polygon fill="#63b8ff" stroke="#63b8ff" points="415.06,-20.06 404.52,-19.05 412.13,-26.42 415.06,-20.06"/>
</a>
</g>
</g>
<!-- Node17&#45;&gt;Node9 -->
<g id="edge20_Node000017_Node000009" class="edge">
<title>Node17&#45;&gt;Node9</title>
<g id="a_edge20_Node000017_Node000009"><a xlink:title=" ">
<path fill="none" stroke="#63b8ff" d="M597.99,-115.61C531.1,-106.84 329.86,-80.44 249.59,-69.91"/>
<polygon fill="#63b8ff" stroke="#63b8ff" points="249.9,-66.42 239.53,-68.59 248.99,-73.36 249.9,-66.42"/>
</a>
</g>
</g>
<!-- Node17&#45;&gt;Node11 -->
<g id="edge21_Node000017_Node000011" class="edge">
<title>Node17&#45;&gt;Node11</title>
<g id="a_edge21_Node000017_Node000011"><a xlink:title=" ">
<path fill="none" stroke="#63b8ff" d="M642.13,-114.34C688.28,-105.67 795.59,-85.5 856.91,-73.97"/>
<polygon fill="#63b8ff" stroke="#63b8ff" points="857.89,-77.35 867.07,-72.07 856.59,-70.47 857.89,-77.35"/>
</a>
</g>
</g>
<!-- Node18 -->
<g id="Node000018" class="node">
<title>Node18</title>
<g id="a_Node000018"><a xlink:href="irep__ids_8h.html" target="_top" xlink:title="util">
<polygon fill="#fff0f0" stroke="red" points="622,-74 558,-74 558,-55 622,-55 622,-74"/>
<text text-anchor="middle" x="590" y="-62" font-family="Helvetica,sans-Serif" font-size="10.00">irep_ids.h</text>
</a>
</g>
</g>
<!-- Node17&#45;&gt;Node18 -->
<g id="edge22_Node000017_Node000018" class="edge">
<title>Node17&#45;&gt;Node18</title>
<g id="a_edge22_Node000017_Node000018"><a xlink:title=" ">
<path fill="none" stroke="#63b8ff" d="M615.05,-109.75C610.94,-102.49 604.97,-91.95 599.9,-82.98"/>
<polygon fill="#63b8ff" stroke="#63b8ff" points="602.83,-81.07 594.86,-74.09 596.74,-84.52 602.83,-81.07"/>
</a>
</g>
</g>
<!-- Node28 -->
<g id="Node000028" class="node">
<title>Node28</title>
<g id="a_Node000028"><a xlink:href="forward__list__as__map_8h.html" target="_top" xlink:title=" ">
<polygon fill="#fff0f0" stroke="red" points="767.5,-74 640.5,-74 640.5,-55 767.5,-55 767.5,-74"/>
<text text-anchor="middle" x="704" y="-62" font-family="Helvetica,sans-Serif" font-size="10.00">forward_list_as_map.h</text>
</a>
</g>
</g>
<!-- Node17&#45;&gt;Node28 -->
<g id="edge23_Node000017_Node000028" class="edge">
<title>Node17&#45;&gt;Node28</title>
<g id="a_edge23_Node000017_Node000028"><a xlink:title=" ">
<path fill="none" stroke="#63b8ff" d="M633.5,-109.98C646.4,-101.84 666.1,-89.41 681.4,-79.76"/>
<polygon fill="#63b8ff" stroke="#63b8ff" points="683.67,-82.47 690.26,-74.17 679.93,-76.55 683.67,-82.47"/>
</a>
</g>
</g>
<!-- Node34&#45;&gt;Node10 -->
<g id="edge32_Node000034_Node000010" class="edge">
<title>Node34&#45;&gt;Node10</title>
<g id="a_edge32_Node000034_Node000010"><a xlink:title=" ">
<path fill="none" stroke="#63b8ff" d="M301.19,-288.03C305.85,-287.34 310.52,-286.65 315,-286 413.97,-271.67 530.17,-255.93 592.68,-247.54"/>
<polygon fill="#63b8ff" stroke="#63b8ff" points="593.16,-251.01 602.61,-246.21 592.23,-244.07 593.16,-251.01"/>
</a>
</g>
</g>
<!-- Node35 -->
<g id="Node000035" class="node">
<title>Node35</title>
<g id="a_Node000035"><a xlink:title=" ">
<polygon fill="#e0e0e0" stroke="#999999" points="283,-189.5 225,-189.5 225,-170.5 283,-170.5 283,-189.5"/>
<text text-anchor="middle" x="254" y="-177.5" font-family="Helvetica,sans-Serif" font-size="10.00">memory</text>
</a>
</g>
</g>
<!-- Node34&#45;&gt;Node35 -->
<g id="edge31_Node000034_Node000035" class="edge">
<title>Node34&#45;&gt;Node35</title>
<g id="a_edge31_Node000034_Node000035"><a xlink:title=" ">
<path fill="none" stroke="#63b8ff" d="M258.62,-285.97C257.82,-267.73 255.92,-224.57 254.82,-199.64"/>
<polygon fill="#63b8ff" stroke="#63b8ff" points="258.32,-199.47 254.38,-189.63 251.32,-199.77 258.32,-199.47"/>
</a>
</g>
</g>
<!-- Node34&#45;&gt;Node36 -->
<g id="edge33_Node000034_Node000036" class="edge">
<title>Node34&#45;&gt;Node36</title>
<g id="a_edge33_Node000034_Node000036"><a xlink:title=" ">
<path fill="none" stroke="#63b8ff" d="M235.06,-285.98C210.44,-277.23 171.88,-263.51 144.08,-253.62"/>
<polygon fill="#63b8ff" stroke="#63b8ff" points="144.97,-250.22 134.38,-250.17 142.62,-256.82 144.97,-250.22"/>
</a>
</g>
</g>
<!-- Node36&#45;&gt;Node4 -->
<g id="edge35_Node000036_Node000004" class="edge">
<title>Node36&#45;&gt;Node4</title>
<g id="a_edge35_Node000036_Node000004"><a xlink:title=" ">
<path fill="none" stroke="#63b8ff" d="M109.91,-230.95C110.11,-201.52 114.96,-103.54 169,-55 195.89,-30.85 300.28,-18.17 353.87,-13.14"/>
<polygon fill="#63b8ff" stroke="#63b8ff" points="354.23,-16.62 363.87,-12.24 353.59,-9.65 354.23,-16.62"/>
</a>
</g>
</g>
<!-- Node36&#45;&gt;Node35 -->
<g id="edge34_Node000036_Node000035" class="edge">
<title>Node36&#45;&gt;Node35</title>
<g id="a_edge34_Node000036_Node000035"><a xlink:title=" ">
<path fill="none" stroke="#63b8ff" d="M130.94,-230.99C155.36,-221.07 195.93,-204.59 223.77,-193.28"/>
<polygon fill="#63b8ff" stroke="#63b8ff" points="225.09,-196.52 233.04,-189.52 222.45,-190.04 225.09,-196.52"/>
</a>
</g>
</g>
<!-- Node38&#45;&gt;Node8 -->
<g id="edge40_Node000038_Node000008" class="edge">
<title>Node38&#45;&gt;Node8</title>
<g id="a_edge40_Node000038_Node000008"><a xlink:title=" ">
<path fill="none" stroke="#63b8ff" d="M398,-164.84C398,-157.21 398,-147.7 398,-139.45"/>
<polygon fill="#63b8ff" stroke="#63b8ff" points="401.5,-139.27 398,-129.27 394.5,-139.27 401.5,-139.27"/>
</a>
</g>
</g>
<!-- Node38&#45;&gt;Node17 -->
<g id="edge39_Node000038_Node000017" class="edge">
<title>Node38&#45;&gt;Node17</title>
<g id="a_edge39_Node000038_Node000017"><a xlink:title=" ">
<path fill="none" stroke="#63b8ff" d="M451.17,-164.99C493.79,-153.76 552.18,-138.37 587.93,-128.95"/>
<polygon fill="#63b8ff" stroke="#63b8ff" points="589.04,-132.28 597.82,-126.34 587.26,-125.51 589.04,-132.28"/>
</a>
</g>
</g>
<!-- Node40 -->
<g id="Node000040" class="node">
<title>Node40</title>
<g id="a_Node000040"><a xlink:href="cover__filter_8h.html" target="_top" xlink:title="Filters for the Coverage Instrumentation.">
<polygon fill="white" stroke="#666666" points="628,-426 548,-426 548,-407 628,-407 628,-426"/>
<text text-anchor="middle" x="588" y="-414" font-family="Helvetica,sans-Serif" font-size="10.00">cover_filter.h</text>
</a>
</g>
</g>
<!-- Node39&#45;&gt;Node40 -->
<g id="edge42_Node000039_Node000040" class="edge">
<title>Node39&#45;&gt;Node40</title>
<g id="a_edge42_Node000039_Node000040"><a xlink:title=" ">
<path fill="none" stroke="#63b8ff" d="M503.61,-467.37C519.69,-457.86 545.78,-442.45 564.7,-431.27"/>
<polygon fill="#63b8ff" stroke="#63b8ff" points="566.5,-434.27 573.33,-426.17 562.94,-428.24 566.5,-434.27"/>
</a>
</g>
</g>
<!-- Node63 -->
<g id="Node000063" class="node">
<title>Node63</title>
<g id="a_Node000063"><a xlink:href="cover__instrument_8h.html" target="_top" xlink:title="Coverage Instrumentation.">
<polygon fill="white" stroke="#666666" points="544.5,-305 433.5,-305 433.5,-286 544.5,-286 544.5,-305"/>
<text text-anchor="middle" x="489" y="-293" font-family="Helvetica,sans-Serif" font-size="10.00">cover_instrument.h</text>
</a>
</g>
</g>
<!-- Node39&#45;&gt;Node63 -->
<g id="edge58_Node000039_Node000063" class="edge">
<title>Node39&#45;&gt;Node63</title>
<g id="a_edge58_Node000039_Node000063"><a xlink:title=" ">
<path fill="none" stroke="#63b8ff" d="M489,-467.34C489,-439.8 489,-353.76 489,-315.34"/>
<polygon fill="#63b8ff" stroke="#63b8ff" points="492.5,-315.07 489,-305.07 485.5,-315.07 492.5,-315.07"/>
</a>
</g>
</g>
<!-- Node40&#45;&gt;Node35 -->
<g id="edge44_Node000040_Node000035" class="edge">
<title>Node40&#45;&gt;Node35</title>
<g id="a_edge44_Node000040_Node000035"><a xlink:title=" ">
<path fill="none" stroke="#63b8ff" d="M574.8,-406.76C546.94,-388.26 480.14,-343.67 425,-305 369.8,-266.29 305.69,-219.23 273.94,-195.77"/>
<polygon fill="#63b8ff" stroke="#63b8ff" points="275.64,-192.68 265.52,-189.55 271.48,-198.31 275.64,-192.68"/>
</a>
</g>
</g>
<!-- Node41 -->
<g id="Node000041" class="node">
<title>Node41</title>
<g id="a_Node000041"><a xlink:title=" ">
<polygon fill="#e0e0e0" stroke="#999999" points="739,-365.5 695,-365.5 695,-346.5 739,-346.5 739,-365.5"/>
<text text-anchor="middle" x="717" y="-353.5" font-family="Helvetica,sans-Serif" font-size="10.00">regex</text>
</a>
</g>
</g>
<!-- Node40&#45;&gt;Node41 -->
<g id="edge43_Node000040_Node000041" class="edge">
<title>Node40&#45;&gt;Node41</title>
<g id="a_edge43_Node000040_Node000041"><a xlink:title=" ">
<path fill="none" stroke="#63b8ff" d="M606.76,-406.99C628.35,-397.2 664.03,-381.02 688.93,-369.73"/>
<polygon fill="#63b8ff" stroke="#63b8ff" points="690.56,-372.83 698.22,-365.52 687.67,-366.46 690.56,-372.83"/>
</a>
</g>
</g>
<!-- Node42 -->
<g id="Node000042" class="node">
<title>Node42</title>
<g id="a_Node000042"><a xlink:href="goto__functions_8h.html" target="_top" xlink:title="Goto Programs with Functions.">
<polygon fill="white" stroke="#666666" points="676.5,-371 563.5,-371 563.5,-341 676.5,-341 676.5,-371"/>
<text text-anchor="start" x="571.5" y="-359" font-family="Helvetica,sans-Serif" font-size="10.00">goto&#45;programs/goto</text>
<text text-anchor="middle" x="620" y="-348" font-family="Helvetica,sans-Serif" font-size="10.00">_functions.h</text>
</a>
</g>
</g>
<!-- Node40&#45;&gt;Node42 -->
<g id="edge45_Node000040_Node000042" class="edge">
<title>Node40&#45;&gt;Node42</title>
<g id="a_edge45_Node000040_Node000042"><a xlink:title=" ">
<path fill="none" stroke="#63b8ff" d="M592.72,-406.87C596.58,-399.81 602.22,-389.5 607.37,-380.08"/>
<polygon fill="#63b8ff" stroke="#63b8ff" points="610.55,-381.57 612.28,-371.11 604.41,-378.21 610.55,-381.57"/>
</a>
</g>
</g>
<!-- Node43 -->
<g id="Node000043" class="node">
<title>Node43</title>
<g id="a_Node000043"><a xlink:href="goto__function_8h.html" target="_top" xlink:title="Goto Function.">
<polygon fill="white" stroke="#666666" points="843,-305 751,-305 751,-286 843,-286 843,-305"/>
<text text-anchor="middle" x="797" y="-293" font-family="Helvetica,sans-Serif" font-size="10.00">goto_function.h</text>
</a>
</g>
</g>
<!-- Node42&#45;&gt;Node43 -->
<g id="edge46_Node000042_Node000043" class="edge">
<title>Node42&#45;&gt;Node43</title>
<g id="a_edge46_Node000042_Node000043"><a xlink:title=" ">
<path fill="none" stroke="#63b8ff" d="M662.4,-340.99C692.68,-330.98 732.95,-317.67 761.53,-308.22"/>
<polygon fill="#63b8ff" stroke="#63b8ff" points="762.72,-311.52 771.12,-305.05 760.53,-304.87 762.72,-311.52"/>
</a>
</g>
</g>
<!-- Node61 -->
<g id="Node000061" class="node">
<title>Node61</title>
<g id="a_Node000061"><a xlink:href="cprover__prefix_8h.html" target="_top" xlink:title=" ">
<polygon fill="white" stroke="#666666" points="677,-305 563,-305 563,-286 677,-286 677,-305"/>
<text text-anchor="middle" x="620" y="-293" font-family="Helvetica,sans-Serif" font-size="10.00">util/cprover_prefix.h</text>
</a>
</g>
</g>
<!-- Node42&#45;&gt;Node61 -->
<g id="edge56_Node000042_Node000061" class="edge">
<title>Node42&#45;&gt;Node61</title>
<g id="a_edge56_Node000042_Node000061"><a xlink:title=" ">
<path fill="none" stroke="#63b8ff" d="M620,-340.84C620,-333.21 620,-323.7 620,-315.45"/>
<polygon fill="#63b8ff" stroke="#63b8ff" points="623.5,-315.27 620,-305.27 616.5,-315.27 623.5,-315.27"/>
</a>
</g>
</g>
<!-- Node62 -->
<g id="Node000062" class="node">
<title>Node62</title>
<g id="a_Node000062"><a xlink:title=" ">
<polygon fill="#e0e0e0" stroke="#999999" points="733,-305 695,-305 695,-286 733,-286 733,-305"/>
<text text-anchor="middle" x="714" y="-293" font-family="Helvetica,sans-Serif" font-size="10.00">map</text>
</a>
</g>
</g>
<!-- Node42&#45;&gt;Node62 -->
<g id="edge57_Node000042_Node000062" class="edge">
<title>Node42&#45;&gt;Node62</title>
<g id="a_edge57_Node000042_Node000062"><a xlink:title=" ">
<path fill="none" stroke="#63b8ff" d="M642.75,-340.84C657.6,-331.6 676.9,-319.59 691.66,-310.4"/>
<polygon fill="#63b8ff" stroke="#63b8ff" points="693.55,-313.35 700.19,-305.09 689.85,-307.41 693.55,-313.35"/>
</a>
</g>
</g>
<!-- Node44 -->
<g id="Node000044" class="node">
<title>Node44</title>
<g id="a_Node000044"><a xlink:href="std__types_8h.html" target="_top" xlink:title="Pre&#45;defined types.">
<polygon fill="#fff0f0" stroke="red" points="1221,-129 1129,-129 1129,-110 1221,-110 1221,-129"/>
<text text-anchor="middle" x="1175" y="-117" font-family="Helvetica,sans-Serif" font-size="10.00">util/std_types.h</text>
</a>
</g>
</g>
<!-- Node43&#45;&gt;Node44 -->
<g id="edge47_Node000043_Node000044" class="edge">
<title>Node43&#45;&gt;Node44</title>
<g id="a_edge47_Node000043_Node000044"><a xlink:title=" ">
<path fill="none" stroke="#63b8ff" d="M843.13,-286.45C905.32,-274.09 1017.81,-246.3 1101,-195 1125.88,-179.66 1148.62,-154.32 1162.14,-137.52"/>
<polygon fill="#63b8ff" stroke="#63b8ff" points="1165.26,-139.21 1168.66,-129.18 1159.74,-134.9 1165.26,-139.21"/>
</a>
</g>
</g>
<!-- Node56 -->
<g id="Node000056" class="node">
<title>Node56</title>
<g id="a_Node000056"><a xlink:href="goto__program_8h.html" target="_top" xlink:title="Concrete Goto Program.">
<polygon fill="#fff0f0" stroke="red" points="803,-250 709,-250 709,-231 803,-231 803,-250"/>
<text text-anchor="middle" x="756" y="-238" font-family="Helvetica,sans-Serif" font-size="10.00">goto_program.h</text>
</a>
</g>
</g>
<!-- Node43&#45;&gt;Node56 -->
<g id="edge49_Node000043_Node000056" class="edge">
<title>Node43&#45;&gt;Node56</title>
<g id="a_edge49_Node000043_Node000056"><a xlink:title=" ">
<path fill="none" stroke="#63b8ff" d="M790.23,-285.75C784.44,-278.26 775.94,-267.28 768.86,-258.13"/>
<polygon fill="#63b8ff" stroke="#63b8ff" points="771.53,-255.86 762.64,-250.09 765.99,-260.14 771.53,-255.86"/>
</a>
</g>
</g>
<!-- Node44&#45;&gt;Node11 -->
<g id="edge48_Node000044_Node000011" class="edge">
<title>Node44&#45;&gt;Node11</title>
<g id="a_edge48_Node000044_Node000011"><a xlink:title=" ">
<path fill="none" stroke="#63b8ff" d="M1131.14,-109.98C1080.52,-100.16 997.71,-84.08 946.72,-74.18"/>
<polygon fill="#63b8ff" stroke="#63b8ff" points="947.14,-70.7 936.66,-72.23 945.81,-77.57 947.14,-70.7"/>
</a>
</g>
</g>
<!-- Node56&#45;&gt;Node4 -->
<g id="edge55_Node000056_Node000004" class="edge">
<title>Node56&#45;&gt;Node4</title>
<g id="a_edge55_Node000056_Node000004"><a xlink:title=" ">
<path fill="none" stroke="#63b8ff" d="M798.75,-230.99C845.92,-221.16 916.25,-205.07 924,-195 932.13,-184.43 929.97,-176.92 924,-165 887.47,-92.03 852.84,-85.11 777,-55 711.82,-29.13 499.75,-16.13 418.28,-12"/>
<polygon fill="#63b8ff" stroke="#63b8ff" points="418.29,-8.5 408.13,-11.5 417.94,-15.49 418.29,-8.5"/>
</a>
</g>
</g>
<!-- Node56&#45;&gt;Node6 -->
<g id="edge53_Node000056_Node000006" class="edge">
<title>Node56&#45;&gt;Node6</title>
<g id="a_edge53_Node000056_Node000006"><a xlink:title=" ">
<path fill="none" stroke="#63b8ff" d="M713.95,-230.99C677.72,-223.18 624.27,-210.47 579,-195 577.57,-194.51 576.11,-193.98 574.64,-193.43"/>
<polygon fill="#63b8ff" stroke="#63b8ff" points="575.65,-190.06 565.07,-189.53 573.01,-196.54 575.65,-190.06"/>
</a>
</g>
</g>
<!-- Node56&#45;&gt;Node7 -->
<g id="edge54_Node000056_Node000007" class="edge">
<title>Node56&#45;&gt;Node7</title>
<g id="a_edge54_Node000056_Node000007"><a xlink:title=" ">
<path fill="none" stroke="#63b8ff" d="M708.83,-232.62C649.37,-223.63 550.72,-207.55 516,-195 515.14,-194.69 514.28,-194.35 513.41,-193.99"/>
<polygon fill="#63b8ff" stroke="#63b8ff" points="514.89,-190.82 504.37,-189.54 511.8,-197.1 514.89,-190.82"/>
</a>
</g>
</g>
<!-- Node56&#45;&gt;Node11 -->
<g id="edge50_Node000056_Node000011" class="edge">
<title>Node56&#45;&gt;Node11</title>
<g id="a_edge50_Node000056_Node000011"><a xlink:title=" ">
<path fill="none" stroke="#63b8ff" d="M803.04,-240.31C884.45,-240.58 1046.36,-235.83 1082,-195 1129.19,-140.93 1012.19,-96.93 945.11,-77.01"/>
<polygon fill="#63b8ff" stroke="#63b8ff" points="945.78,-73.56 935.2,-74.14 943.83,-80.29 945.78,-73.56"/>
</a>
</g>
</g>
<!-- Node56&#45;&gt;Node15 -->
<g id="edge51_Node000056_Node000015" class="edge">
<title>Node56&#45;&gt;Node15</title>
<g id="a_edge51_Node000056_Node000015"><a xlink:title=" ">
<path fill="none" stroke="#63b8ff" d="M750.98,-230.87C746.06,-222.4 738.41,-209.24 732.21,-198.57"/>
<polygon fill="#63b8ff" stroke="#63b8ff" points="735.09,-196.55 727.04,-189.67 729.04,-200.07 735.09,-196.55"/>
</a>
</g>
</g>
<!-- Node56&#45;&gt;Node20 -->
<g id="edge52_Node000056_Node000020" class="edge">
<title>Node56&#45;&gt;Node20</title>
<g id="a_edge52_Node000056_Node000020"><a xlink:title=" ">
<path fill="none" stroke="#63b8ff" d="M775.63,-230.99C798.33,-221.16 835.9,-204.88 861.97,-193.58"/>
<polygon fill="#63b8ff" stroke="#63b8ff" points="863.56,-196.7 871.35,-189.52 860.78,-190.28 863.56,-196.7"/>
</a>
</g>
</g>
<!-- Node63&#45;&gt;Node35 -->
<g id="edge63_Node000063_Node000035" class="edge">
<title>Node63&#45;&gt;Node35</title>
<g id="a_edge63_Node000063_Node000035"><a xlink:title=" ">
<path fill="none" stroke="#63b8ff" d="M471.34,-285.97C430.59,-266.29 329.81,-217.61 281.15,-194.11"/>
<polygon fill="#63b8ff" stroke="#63b8ff" points="282.4,-190.83 271.87,-189.63 279.35,-197.13 282.4,-190.83"/>
</a>
</g>
</g>
<!-- Node63&#45;&gt;Node56 -->
<g id="edge62_Node000063_Node000056" class="edge">
<title>Node63&#45;&gt;Node56</title>
<g id="a_edge62_Node000063_Node000056"><a xlink:title=" ">
<path fill="none" stroke="#63b8ff" d="M531.9,-285.98C578.37,-276.76 652.59,-262.03 702.76,-252.07"/>
<polygon fill="#63b8ff" stroke="#63b8ff" points="703.64,-255.46 712.77,-250.08 702.28,-248.6 703.64,-255.46"/>
</a>
</g>
</g>
<!-- Node64 -->
<g id="Node000064" class="node">
<title>Node64</title>
<g id="a_Node000064"><a xlink:href="namespace_8h.html" target="_top" xlink:title=" ">
<polygon fill="white" stroke="#666666" points="1072.5,-189.5 971.5,-189.5 971.5,-170.5 1072.5,-170.5 1072.5,-189.5"/>
<text text-anchor="middle" x="1022" y="-177.5" font-family="Helvetica,sans-Serif" font-size="10.00">util/namespace.h</text>
</a>
</g>
</g>
<!-- Node63&#45;&gt;Node64 -->
<g id="edge59_Node000063_Node000064" class="edge">
<title>Node63&#45;&gt;Node64</title>
<g id="a_edge59_Node000063_Node000064"><a xlink:title=" ">
<path fill="none" stroke="#63b8ff" d="M544.65,-287.1C633.59,-275.23 799.14,-252.97 812,-250 876.8,-235.02 950.11,-208.7 990.71,-193.26"/>
<polygon fill="#63b8ff" stroke="#63b8ff" points="992.22,-196.43 1000.3,-189.58 989.71,-189.89 992.22,-196.43"/>
</a>
</g>
</g>
<!-- Node64&#45;&gt;Node11 -->
<g id="edge60_Node000064_Node000011" class="edge">
<title>Node64&#45;&gt;Node11</title>
<g id="a_edge60_Node000064_Node000011"><a xlink:title=" ">
<path fill="none" stroke="#63b8ff" d="M1012.98,-170.47C992.91,-151.49 944.32,-105.53 918.61,-81.21"/>
<polygon fill="#63b8ff" stroke="#63b8ff" points="920.79,-78.46 911.12,-74.13 915.98,-83.54 920.79,-78.46"/>
</a>
</g>
</g>
<!-- Node64&#45;&gt;Node17 -->
<g id="edge61_Node000064_Node000017" class="edge">
<title>Node64&#45;&gt;Node17</title>
<g id="a_edge61_Node000064_Node000017"><a xlink:title=" ">
<path fill="none" stroke="#63b8ff" d="M971.39,-171.73C889.61,-159.98 731.91,-137.28 676,-129 668.22,-127.85 659.84,-126.59 651.99,-125.4"/>
<polygon fill="#63b8ff" stroke="#63b8ff" points="652.48,-121.93 642.07,-123.89 651.43,-128.85 652.48,-121.93"/>
</a>
</g>
</g>
</g>
</svg>
