<?xml version="1.0" encoding="UTF-8" standalone="no"?>
<!DOCTYPE svg PUBLIC "-//W3C//DTD SVG 1.1//EN"
 "http://www.w3.org/Graphics/SVG/1.1/DTD/svg11.dtd">
<!-- Generated by graphviz version 2.43.0 (0)
 -->
<!-- Title: /home/runner/work/cbmc/cbmc/src/json/json_parser.cpp Pages: 1 -->
<svg width="945pt" height="588pt"
 viewBox="0.00 0.00 945.21 588.00" xmlns="http://www.w3.org/2000/svg" xmlns:xlink="http://www.w3.org/1999/xlink">
<g id="graph0" class="graph" transform="scale(1 1) rotate(0) translate(4 584)">
<title>/home/runner/work/cbmc/cbmc/src/json/json_parser.cpp</title>
<!-- Node1 -->
<g id="Node000001" class="node">
<title>Node1</title>
<g id="a_Node000001"><a xlink:title=" ">
<polygon fill="#999999" stroke="#666666" points="510.5,-580 345.5,-580 345.5,-550 510.5,-550 510.5,-580"/>
<text text-anchor="start" x="353.5" y="-568" font-family="Helvetica,sans-Serif" font-size="10.00">/home/runner/work/cbmc</text>
<text text-anchor="middle" x="428" y="-557" font-family="Helvetica,sans-Serif" font-size="10.00">/cbmc/src/json/json_parser.cpp</text>
</a>
</g>
</g>
<!-- Node2 -->
<g id="Node000002" class="node">
<title>Node2</title>
<g id="a_Node000002"><a xlink:href="json__parser_8h.html" target="_top" xlink:title=" ">
<polygon fill="white" stroke="#666666" points="425.5,-514 344.5,-514 344.5,-495 425.5,-495 425.5,-514"/>
<text text-anchor="middle" x="385" y="-502" font-family="Helvetica,sans-Serif" font-size="10.00">json_parser.h</text>
</a>
</g>
</g>
<!-- Node1&#45;&gt;Node2 -->
<g id="edge1_Node000001_Node000002" class="edge">
<title>Node1&#45;&gt;Node2</title>
<g id="a_edge1_Node000001_Node000002"><a xlink:title=" ">
<path fill="none" stroke="#63b8ff" d="M417.59,-549.84C411.54,-541.61 403.88,-531.18 397.5,-522.51"/>
<polygon fill="#63b8ff" stroke="#63b8ff" points="400.19,-520.25 391.44,-514.27 394.55,-524.4 400.19,-520.25"/>
</a>
</g>
</g>
<!-- Node46 -->
<g id="Node000046" class="node">
<title>Node46</title>
<g id="a_Node000046"><a xlink:title=" ">
<polygon fill="#e0e0e0" stroke="#999999" points="498.5,-514 443.5,-514 443.5,-495 498.5,-495 498.5,-514"/>
<text text-anchor="middle" x="471" y="-502" font-family="Helvetica,sans-Serif" font-size="10.00">fstream</text>
</a>
</g>
</g>
<!-- Node1&#45;&gt;Node46 -->
<g id="edge54_Node000001_Node000046" class="edge">
<title>Node1&#45;&gt;Node46</title>
<g id="a_edge54_Node000001_Node000046"><a xlink:title=" ">
<path fill="none" stroke="#63b8ff" d="M438.41,-549.84C444.46,-541.61 452.12,-531.18 458.5,-522.51"/>
<polygon fill="#63b8ff" stroke="#63b8ff" points="461.45,-524.4 464.56,-514.27 455.81,-520.25 461.45,-524.4"/>
</a>
</g>
</g>
<!-- Node3 -->
<g id="Node000003" class="node">
<title>Node3</title>
<g id="a_Node000003"><a xlink:title=" ">
<polygon fill="#e0e0e0" stroke="#999999" points="329.5,-459 286.5,-459 286.5,-440 329.5,-440 329.5,-459"/>
<text text-anchor="middle" x="308" y="-447" font-family="Helvetica,sans-Serif" font-size="10.00">stack</text>
</a>
</g>
</g>
<!-- Node2&#45;&gt;Node3 -->
<g id="edge2_Node000002_Node000003" class="edge">
<title>Node2&#45;&gt;Node3</title>
<g id="a_edge2_Node000002_Node000003"><a xlink:title=" ">
<path fill="none" stroke="#63b8ff" d="M372.63,-494.98C360.91,-486.92 343.08,-474.65 329.11,-465.03"/>
<polygon fill="#63b8ff" stroke="#63b8ff" points="330.82,-461.96 320.6,-459.17 326.85,-467.72 330.82,-461.96"/>
</a>
</g>
</g>
<!-- Node4 -->
<g id="Node000004" class="node">
<title>Node4</title>
<g id="a_Node000004"><a xlink:href="parser_8h.html" target="_top" xlink:title="Parser utilities.">
<polygon fill="white" stroke="#666666" points="422,-459 348,-459 348,-440 422,-440 422,-459"/>
<text text-anchor="middle" x="385" y="-447" font-family="Helvetica,sans-Serif" font-size="10.00">util/parser.h</text>
</a>
</g>
</g>
<!-- Node2&#45;&gt;Node4 -->
<g id="edge3_Node000002_Node000004" class="edge">
<title>Node2&#45;&gt;Node4</title>
<g id="a_edge3_Node000002_Node000004"><a xlink:title=" ">
<path fill="none" stroke="#63b8ff" d="M385,-494.75C385,-487.8 385,-477.85 385,-469.13"/>
<polygon fill="#63b8ff" stroke="#63b8ff" points="388.5,-469.09 385,-459.09 381.5,-469.09 388.5,-469.09"/>
</a>
</g>
</g>
<!-- Node42 -->
<g id="Node000042" class="node">
<title>Node42</title>
<g id="a_Node000042"><a xlink:href="json_8h.html" target="_top" xlink:title=" ">
<polygon fill="white" stroke="#666666" points="762.5,-239 697.5,-239 697.5,-220 762.5,-220 762.5,-239"/>
<text text-anchor="middle" x="730" y="-227" font-family="Helvetica,sans-Serif" font-size="10.00">util/json.h</text>
</a>
</g>
</g>
<!-- Node2&#45;&gt;Node42 -->
<g id="edge43_Node000002_Node000042" class="edge">
<title>Node2&#45;&gt;Node42</title>
<g id="a_edge43_Node000002_Node000042"><a xlink:title=" ">
<path fill="none" stroke="#63b8ff" d="M421.9,-494.98C505.88,-475.08 704,-424.99 704,-395.5 704,-395.5 704,-395.5 704,-338.5 704,-306.15 715.17,-269.82 722.86,-248.62"/>
<polygon fill="#63b8ff" stroke="#63b8ff" points="726.23,-249.6 726.49,-239.01 719.68,-247.13 726.23,-249.6"/>
</a>
</g>
</g>
<!-- Node5 -->
<g id="Node000005" class="node">
<title>Node5</title>
<g id="a_Node000005"><a xlink:href="expr_8h.html" target="_top" xlink:title=" ">
<polygon fill="white" stroke="#666666" points="440.5,-404 393.5,-404 393.5,-385 440.5,-385 440.5,-404"/>
<text text-anchor="middle" x="417" y="-392" font-family="Helvetica,sans-Serif" font-size="10.00">expr.h</text>
</a>
</g>
</g>
<!-- Node4&#45;&gt;Node5 -->
<g id="edge4_Node000004_Node000005" class="edge">
<title>Node4&#45;&gt;Node5</title>
<g id="a_edge4_Node000004_Node000005"><a xlink:title=" ">
<path fill="none" stroke="#63b8ff" d="M390.28,-439.75C394.71,-432.42 401.16,-421.73 406.62,-412.7"/>
<polygon fill="#63b8ff" stroke="#63b8ff" points="409.64,-414.46 411.81,-404.09 403.65,-410.84 409.64,-414.46"/>
</a>
</g>
</g>
<!-- Node11 -->
<g id="Node000011" class="node">
<title>Node11</title>
<g id="a_Node000011"><a xlink:title=" ">
<polygon fill="#e0e0e0" stroke="#999999" points="174,-19 130,-19 130,0 174,0 174,-19"/>
<text text-anchor="middle" x="152" y="-7" font-family="Helvetica,sans-Serif" font-size="10.00">string</text>
</a>
</g>
</g>
<!-- Node4&#45;&gt;Node11 -->
<g id="edge41_Node000004_Node000011" class="edge">
<title>Node4&#45;&gt;Node11</title>
<g id="a_edge41_Node000004_Node000011"><a xlink:title=" ">
<path fill="none" stroke="#63b8ff" d="M347.81,-441.74C344.49,-441.15 341.18,-440.56 338,-440 183.78,-412.84 0,-497.1 0,-340.5 0,-340.5 0,-340.5 0,-118.5 0,-60.09 75.52,-30.36 120.09,-17.91"/>
<polygon fill="#63b8ff" stroke="#63b8ff" points="121.13,-21.25 129.9,-15.3 119.33,-14.49 121.13,-21.25"/>
</a>
</g>
</g>
<!-- Node12 -->
<g id="Node000012" class="node">
<title>Node12</title>
<g id="a_Node000012"><a xlink:title=" ">
<polygon fill="#e0e0e0" stroke="#999999" points="377.5,-74 330.5,-74 330.5,-55 377.5,-55 377.5,-74"/>
<text text-anchor="middle" x="354" y="-62" font-family="Helvetica,sans-Serif" font-size="10.00">vector</text>
</a>
</g>
</g>
<!-- Node4&#45;&gt;Node12 -->
<g id="edge42_Node000004_Node000012" class="edge">
<title>Node4&#45;&gt;Node12</title>
<g id="a_edge42_Node000004_Node000012"><a xlink:title=" ">
<path fill="none" stroke="#63b8ff" d="M347.86,-440.93C258.35,-422.15 38,-372.68 38,-340.5 38,-340.5 38,-340.5 38,-228.5 38,-102.67 238.36,-73.88 320,-67.37"/>
<polygon fill="#63b8ff" stroke="#63b8ff" points="320.53,-70.84 330.25,-66.62 320.02,-63.86 320.53,-70.84"/>
</a>
</g>
</g>
<!-- Node39 -->
<g id="Node000039" class="node">
<title>Node39</title>
<g id="a_Node000039"><a xlink:href="src_2util_2message_8h.html" target="_top" xlink:title=" ">
<polygon fill="white" stroke="#666666" points="612,-239 542,-239 542,-220 612,-220 612,-239"/>
<text text-anchor="middle" x="577" y="-227" font-family="Helvetica,sans-Serif" font-size="10.00">message.h</text>
</a>
</g>
</g>
<!-- Node4&#45;&gt;Node39 -->
<g id="edge31_Node000004_Node000039" class="edge">
<title>Node4&#45;&gt;Node39</title>
<g id="a_edge31_Node000004_Node000039"><a xlink:title=" ">
<path fill="none" stroke="#63b8ff" d="M413.96,-439.96C452.64,-426.97 520.3,-398.39 555,-349 576.08,-318.99 578.61,-274.54 578.11,-249.48"/>
<polygon fill="#63b8ff" stroke="#63b8ff" points="581.59,-249.02 577.7,-239.17 574.6,-249.29 581.59,-249.02"/>
</a>
</g>
</g>
<!-- Node19 -->
<g id="Node000019" class="node">
<title>Node19</title>
<g id="a_Node000019"><a xlink:title=" ">
<polygon fill="#e0e0e0" stroke="#999999" points="664,-184 616,-184 616,-165 664,-165 664,-184"/>
<text text-anchor="middle" x="640" y="-172" font-family="Helvetica,sans-Serif" font-size="10.00">iosfwd</text>
</a>
</g>
</g>
<!-- Node4&#45;&gt;Node19 -->
<g id="edge39_Node000004_Node000019" class="edge">
<title>Node4&#45;&gt;Node19</title>
<g id="a_edge39_Node000004_Node000019"><a xlink:title=" ">
<path fill="none" stroke="#63b8ff" d="M422.08,-448.99C492.8,-447.77 640,-434.01 640,-340.5 640,-340.5 640,-340.5 640,-283.5 640,-252.19 640,-215.77 640,-194.23"/>
<polygon fill="#63b8ff" stroke="#63b8ff" points="643.5,-194.18 640,-184.18 636.5,-194.18 643.5,-194.18"/>
</a>
</g>
</g>
<!-- Node40 -->
<g id="Node000040" class="node">
<title>Node40</title>
<g id="a_Node000040"><a xlink:title=" ">
<polygon fill="#e0e0e0" stroke="#999999" points="313,-404 245,-404 245,-385 313,-385 313,-404"/>
<text text-anchor="middle" x="279" y="-392" font-family="Helvetica,sans-Serif" font-size="10.00">filesystem</text>
</a>
</g>
</g>
<!-- Node4&#45;&gt;Node40 -->
<g id="edge38_Node000004_Node000040" class="edge">
<title>Node4&#45;&gt;Node40</title>
<g id="a_edge38_Node000004_Node000040"><a xlink:title=" ">
<path fill="none" stroke="#63b8ff" d="M367.97,-439.98C351.07,-431.54 324.94,-418.47 305.36,-408.68"/>
<polygon fill="#63b8ff" stroke="#63b8ff" points="306.85,-405.51 296.34,-404.17 303.72,-411.77 306.85,-405.51"/>
</a>
</g>
</g>
<!-- Node41 -->
<g id="Node000041" class="node">
<title>Node41</title>
<g id="a_Node000041"><a xlink:title=" ">
<polygon fill="#e0e0e0" stroke="#999999" points="375,-404 331,-404 331,-385 375,-385 375,-404"/>
<text text-anchor="middle" x="353" y="-392" font-family="Helvetica,sans-Serif" font-size="10.00">limits</text>
</a>
</g>
</g>
<!-- Node4&#45;&gt;Node41 -->
<g id="edge40_Node000004_Node000041" class="edge">
<title>Node4&#45;&gt;Node41</title>
<g id="a_edge40_Node000004_Node000041"><a xlink:title=" ">
<path fill="none" stroke="#63b8ff" d="M379.72,-439.75C375.29,-432.42 368.84,-421.73 363.38,-412.7"/>
<polygon fill="#63b8ff" stroke="#63b8ff" points="366.35,-410.84 358.19,-404.09 360.36,-414.46 366.35,-410.84"/>
</a>
</g>
</g>
<!-- Node6 -->
<g id="Node000006" class="node">
<title>Node6</title>
<g id="a_Node000006"><a xlink:href="as__const_8h.html" target="_top" xlink:title=" ">
<polygon fill="white" stroke="#666666" points="513,-349 445,-349 445,-330 513,-330 513,-349"/>
<text text-anchor="middle" x="479" y="-337" font-family="Helvetica,sans-Serif" font-size="10.00">as_const.h</text>
</a>
</g>
</g>
<!-- Node5&#45;&gt;Node6 -->
<g id="edge5_Node000005_Node000006" class="edge">
<title>Node5&#45;&gt;Node6</title>
<g id="a_edge5_Node000005_Node000006"><a xlink:title=" ">
<path fill="none" stroke="#63b8ff" d="M426.96,-384.98C436.13,-377.15 449.94,-365.34 461.03,-355.86"/>
<polygon fill="#63b8ff" stroke="#63b8ff" points="463.53,-358.33 468.86,-349.17 458.98,-353.01 463.53,-358.33"/>
</a>
</g>
</g>
<!-- Node7 -->
<g id="Node000007" class="node">
<title>Node7</title>
<g id="a_Node000007"><a xlink:href="type_8h.html" target="_top" xlink:title="Defines typet, type_with_subtypet and type_with_subtypest.">
<polygon fill="white" stroke="#666666" points="203.5,-349 156.5,-349 156.5,-330 203.5,-330 203.5,-349"/>
<text text-anchor="middle" x="180" y="-337" font-family="Helvetica,sans-Serif" font-size="10.00">type.h</text>
</a>
</g>
</g>
<!-- Node5&#45;&gt;Node7 -->
<g id="edge6_Node000005_Node000007" class="edge">
<title>Node5&#45;&gt;Node7</title>
<g id="a_edge6_Node000005_Node000007"><a xlink:title=" ">
<path fill="none" stroke="#63b8ff" d="M393.24,-387.24C390.14,-386.46 387,-385.7 384,-385 311.06,-367.98 289.72,-367.08 213.78,-349.33"/>
<polygon fill="#63b8ff" stroke="#63b8ff" points="214.27,-345.85 203.73,-346.95 212.66,-352.66 214.27,-345.85"/>
</a>
</g>
</g>
<!-- Node35 -->
<g id="Node000035" class="node">
<title>Node35</title>
<g id="a_Node000035"><a xlink:href="validation__mode_8h.html" target="_top" xlink:title=" ">
<polygon fill="white" stroke="#666666" points="476.5,-239 369.5,-239 369.5,-220 476.5,-220 476.5,-239"/>
<text text-anchor="middle" x="423" y="-227" font-family="Helvetica,sans-Serif" font-size="10.00">validation_mode.h</text>
</a>
</g>
</g>
<!-- Node5&#45;&gt;Node35 -->
<g id="edge29_Node000005_Node000035" class="edge">
<title>Node5&#45;&gt;Node35</title>
<g id="a_edge29_Node000005_Node000035"><a xlink:title=" ">
<path fill="none" stroke="#63b8ff" d="M417.32,-384.74C418.26,-359.31 420.99,-285.08 422.29,-249.69"/>
<polygon fill="#63b8ff" stroke="#63b8ff" points="425.81,-249.43 422.68,-239.31 418.81,-249.17 425.81,-249.43"/>
</a>
</g>
</g>
<!-- Node36 -->
<g id="Node000036" class="node">
<title>Node36</title>
<g id="a_Node000036"><a xlink:href="validate__types_8h.html" target="_top" xlink:title=" ">
<polygon fill="white" stroke="#666666" points="393,-294 295,-294 295,-275 393,-275 393,-294"/>
<text text-anchor="middle" x="344" y="-282" font-family="Helvetica,sans-Serif" font-size="10.00">validate_types.h</text>
</a>
</g>
</g>
<!-- Node5&#45;&gt;Node36 -->
<g id="edge28_Node000005_Node000036" class="edge">
<title>Node5&#45;&gt;Node36</title>
<g id="a_edge28_Node000005_Node000036"><a xlink:title=" ">
<path fill="none" stroke="#63b8ff" d="M411.03,-384.66C398.94,-366.77 371.38,-326 355.62,-302.69"/>
<polygon fill="#63b8ff" stroke="#63b8ff" points="358.35,-300.48 349.85,-294.16 352.55,-304.4 358.35,-300.48"/>
</a>
</g>
</g>
<!-- Node37 -->
<g id="Node000037" class="node">
<title>Node37</title>
<g id="a_Node000037"><a xlink:href="validate__expressions_8h.html" target="_top" xlink:title=" ">
<polygon fill="white" stroke="#666666" points="350.5,-349 221.5,-349 221.5,-330 350.5,-330 350.5,-349"/>
<text text-anchor="middle" x="286" y="-337" font-family="Helvetica,sans-Serif" font-size="10.00">validate_expressions.h</text>
</a>
</g>
</g>
<!-- Node5&#45;&gt;Node37 -->
<g id="edge27_Node000005_Node000037" class="edge">
<title>Node5&#45;&gt;Node37</title>
<g id="a_edge27_Node000005_Node000037"><a xlink:title=" ">
<path fill="none" stroke="#63b8ff" d="M395.95,-384.98C374.59,-376.34 341.3,-362.87 316.94,-353.02"/>
<polygon fill="#63b8ff" stroke="#63b8ff" points="318.01,-349.68 307.43,-349.17 315.39,-356.17 318.01,-349.68"/>
</a>
</g>
</g>
<!-- Node38 -->
<g id="Node000038" class="node">
<title>Node38</title>
<g id="a_Node000038"><a xlink:title=" ">
<polygon fill="#e0e0e0" stroke="#999999" points="587.5,-129 522.5,-129 522.5,-110 587.5,-110 587.5,-129"/>
<text text-anchor="middle" x="555" y="-117" font-family="Helvetica,sans-Serif" font-size="10.00">functional</text>
</a>
</g>
</g>
<!-- Node5&#45;&gt;Node38 -->
<g id="edge30_Node000005_Node000038" class="edge">
<title>Node5&#45;&gt;Node38</title>
<g id="a_edge30_Node000005_Node000038"><a xlink:title=" ">
<path fill="none" stroke="#63b8ff" d="M440.55,-390.57C465.21,-386.15 502.94,-375.28 522,-349 555.78,-302.42 524.33,-276.88 533,-220 537.35,-191.5 545.07,-158.98 550.11,-139.09"/>
<polygon fill="#63b8ff" stroke="#63b8ff" points="553.55,-139.77 552.66,-129.21 546.78,-138.02 553.55,-139.77"/>
</a>
</g>
</g>
<!-- Node8 -->
<g id="Node000008" class="node">
<title>Node8</title>
<g id="a_Node000008"><a xlink:href="source__location_8h.html" target="_top" xlink:title=" ">
<polygon fill="white" stroke="#666666" points="274,-184 172,-184 172,-165 274,-165 274,-184"/>
<text text-anchor="middle" x="223" y="-172" font-family="Helvetica,sans-Serif" font-size="10.00">source_location.h</text>
</a>
</g>
</g>
<!-- Node7&#45;&gt;Node8 -->
<g id="edge7_Node000007_Node000008" class="edge">
<title>Node7&#45;&gt;Node8</title>
<g id="a_edge7_Node000007_Node000008"><a xlink:title=" ">
<path fill="none" stroke="#63b8ff" d="M175.67,-329.92C166.07,-309.61 145.3,-257.53 164,-220 170.57,-206.82 183.1,-196.52 194.93,-189.16"/>
<polygon fill="#63b8ff" stroke="#63b8ff" points="196.8,-192.12 203.73,-184.1 193.32,-186.05 196.8,-192.12"/>
</a>
</g>
</g>
<!-- Node33 -->
<g id="Node000033" class="node">
<title>Node33</title>
<g id="a_Node000033"><a xlink:href="validate_8h.html" target="_top" xlink:title=" ">
<polygon fill="white" stroke="#666666" points="238.5,-294 173.5,-294 173.5,-275 238.5,-275 238.5,-294"/>
<text text-anchor="middle" x="206" y="-282" font-family="Helvetica,sans-Serif" font-size="10.00">validate.h</text>
</a>
</g>
</g>
<!-- Node7&#45;&gt;Node33 -->
<g id="edge18_Node000007_Node000033" class="edge">
<title>Node7&#45;&gt;Node33</title>
<g id="a_edge18_Node000007_Node000033"><a xlink:title=" ">
<path fill="none" stroke="#63b8ff" d="M184.29,-329.75C187.81,-322.57 192.91,-312.18 197.28,-303.27"/>
<polygon fill="#63b8ff" stroke="#63b8ff" points="200.52,-304.61 201.79,-294.09 194.24,-301.53 200.52,-304.61"/>
</a>
</g>
</g>
<!-- Node7&#45;&gt;Node35 -->
<g id="edge26_Node000007_Node000035" class="edge">
<title>Node7&#45;&gt;Node35</title>
<g id="a_edge26_Node000007_Node000035"><a xlink:title=" ">
<path fill="none" stroke="#63b8ff" d="M192.23,-329.92C211.45,-316.72 250.27,-291.25 286,-275 316.51,-261.12 352.63,-249.58 380.12,-241.73"/>
<polygon fill="#63b8ff" stroke="#63b8ff" points="381.15,-245.07 389.83,-239 379.26,-238.33 381.15,-245.07"/>
</a>
</g>
</g>
<!-- Node7&#45;&gt;Node36 -->
<g id="edge25_Node000007_Node000036" class="edge">
<title>Node7&#45;&gt;Node36</title>
<g id="a_edge25_Node000007_Node000036"><a xlink:title=" ">
<path fill="none" stroke="#63b8ff" d="M203.85,-330.79C231.18,-321.96 276.28,-307.38 307.92,-297.16"/>
<polygon fill="#63b8ff" stroke="#63b8ff" points="309.24,-300.41 317.68,-294.01 307.09,-293.75 309.24,-300.41"/>
</a>
</g>
</g>
<!-- Node9 -->
<g id="Node000009" class="node">
<title>Node9</title>
<g id="a_Node000009"><a xlink:href="deprecate_8h.html" target="_top" xlink:title=" ">
<polygon fill="white" stroke="#666666" points="254,-129 180,-129 180,-110 254,-110 254,-129"/>
<text text-anchor="middle" x="217" y="-117" font-family="Helvetica,sans-Serif" font-size="10.00">deprecate.h</text>
</a>
</g>
</g>
<!-- Node8&#45;&gt;Node9 -->
<g id="edge8_Node000008_Node000009" class="edge">
<title>Node8&#45;&gt;Node9</title>
<g id="a_edge8_Node000008_Node000009"><a xlink:title=" ">
<path fill="none" stroke="#63b8ff" d="M222.01,-164.75C221.22,-157.8 220.1,-147.85 219.11,-139.13"/>
<polygon fill="#63b8ff" stroke="#63b8ff" points="222.58,-138.63 217.97,-129.09 215.62,-139.42 222.58,-138.63"/>
</a>
</g>
</g>
<!-- Node10 -->
<g id="Node000010" class="node">
<title>Node10</title>
<g id="a_Node000010"><a xlink:href="irep_8h.html" target="_top" xlink:title=" ">
<polygon fill="#fff0f0" stroke="red" points="428,-129 384,-129 384,-110 428,-110 428,-129"/>
<text text-anchor="middle" x="406" y="-117" font-family="Helvetica,sans-Serif" font-size="10.00">irep.h</text>
</a>
</g>
</g>
<!-- Node8&#45;&gt;Node10 -->
<g id="edge9_Node000008_Node000010" class="edge">
<title>Node8&#45;&gt;Node10</title>
<g id="a_edge9_Node000008_Node000010"><a xlink:title=" ">
<path fill="none" stroke="#63b8ff" d="M252.4,-164.98C285.64,-155.36 339.58,-139.74 373.89,-129.8"/>
<polygon fill="#63b8ff" stroke="#63b8ff" points="375.23,-133.05 383.86,-126.91 373.29,-126.33 375.23,-133.05"/>
</a>
</g>
</g>
<!-- Node8&#45;&gt;Node11 -->
<g id="edge17_Node000008_Node000011" class="edge">
<title>Node8&#45;&gt;Node11</title>
<g id="a_edge17_Node000008_Node000011"><a xlink:title=" ">
<path fill="none" stroke="#63b8ff" d="M208.12,-164.93C196.07,-157.15 179.72,-144.55 171,-129 153.23,-97.31 150.85,-53.81 151.14,-29.29"/>
<polygon fill="#63b8ff" stroke="#63b8ff" points="154.65,-29.29 151.43,-19.19 147.65,-29.09 154.65,-29.29"/>
</a>
</g>
</g>
<!-- Node32 -->
<g id="Node000032" class="node">
<title>Node32</title>
<g id="a_Node000032"><a xlink:title=" ">
<polygon fill="#e0e0e0" stroke="#999999" points="328,-129 272,-129 272,-110 328,-110 328,-129"/>
<text text-anchor="middle" x="300" y="-117" font-family="Helvetica,sans-Serif" font-size="10.00">optional</text>
</a>
</g>
</g>
<!-- Node8&#45;&gt;Node32 -->
<g id="edge16_Node000008_Node000032" class="edge">
<title>Node8&#45;&gt;Node32</title>
<g id="a_edge16_Node000008_Node000032"><a xlink:title=" ">
<path fill="none" stroke="#63b8ff" d="M235.37,-164.98C247.09,-156.92 264.92,-144.65 278.89,-135.03"/>
<polygon fill="#63b8ff" stroke="#63b8ff" points="281.15,-137.72 287.4,-129.17 277.18,-131.96 281.15,-137.72"/>
</a>
</g>
</g>
<!-- Node10&#45;&gt;Node11 -->
<g id="edge10_Node000010_Node000011" class="edge">
<title>Node10&#45;&gt;Node11</title>
<g id="a_edge10_Node000010_Node000011"><a xlink:title=" ">
<path fill="none" stroke="#63b8ff" d="M406.07,-109.62C405.66,-95.78 402.73,-69.18 387,-55 357.59,-28.49 241.58,-16.78 184.32,-12.53"/>
<polygon fill="#63b8ff" stroke="#63b8ff" points="184.24,-9.02 174.02,-11.8 183.75,-16 184.24,-9.02"/>
</a>
</g>
</g>
<!-- Node10&#45;&gt;Node12 -->
<g id="edge11_Node000010_Node000012" class="edge">
<title>Node10&#45;&gt;Node12</title>
<g id="a_edge11_Node000010_Node000012"><a xlink:title=" ">
<path fill="none" stroke="#63b8ff" d="M397.41,-109.75C389.84,-102.03 378.62,-90.6 369.49,-81.28"/>
<polygon fill="#63b8ff" stroke="#63b8ff" points="371.93,-78.78 362.43,-74.09 366.93,-83.68 371.93,-78.78"/>
</a>
</g>
</g>
<!-- Node13 -->
<g id="Node000013" class="node">
<title>Node13</title>
<g id="a_Node000013"><a xlink:href="src_2util_2invariant_8h.html" target="_top" xlink:title=" ">
<polygon fill="#fff0f0" stroke="red" points="620.5,-74 551.5,-74 551.5,-55 620.5,-55 620.5,-74"/>
<text text-anchor="middle" x="586" y="-62" font-family="Helvetica,sans-Serif" font-size="10.00">invariant.h</text>
</a>
</g>
</g>
<!-- Node10&#45;&gt;Node13 -->
<g id="edge12_Node000010_Node000013" class="edge">
<title>Node10&#45;&gt;Node13</title>
<g id="a_edge12_Node000010_Node000013"><a xlink:title=" ">
<path fill="none" stroke="#63b8ff" d="M428.07,-112C457.68,-103.28 510.72,-87.66 547.11,-76.95"/>
<polygon fill="#63b8ff" stroke="#63b8ff" points="548.29,-80.25 556.89,-74.07 546.31,-73.54 548.29,-80.25"/>
</a>
</g>
</g>
<!-- Node13&#45;&gt;Node11 -->
<g id="edge14_Node000013_Node000011" class="edge">
<title>Node13&#45;&gt;Node11</title>
<g id="a_edge14_Node000013_Node000011"><a xlink:title=" ">
<path fill="none" stroke="#63b8ff" d="M551.22,-59.25C469.02,-49.21 263.72,-24.14 184.18,-14.43"/>
<polygon fill="#63b8ff" stroke="#63b8ff" points="184.6,-10.96 174.25,-13.22 183.76,-17.9 184.6,-10.96"/>
</a>
</g>
</g>
<!-- Node15 -->
<g id="Node000015" class="node">
<title>Node15</title>
<g id="a_Node000015"><a xlink:title=" ">
<polygon fill="#e0e0e0" stroke="#999999" points="831,-19 775,-19 775,0 831,0 831,-19"/>
<text text-anchor="middle" x="803" y="-7" font-family="Helvetica,sans-Serif" font-size="10.00">sstream</text>
</a>
</g>
</g>
<!-- Node13&#45;&gt;Node15 -->
<g id="edge13_Node000013_Node000015" class="edge">
<title>Node13&#45;&gt;Node15</title>
<g id="a_edge13_Node000013_Node000015"><a xlink:title=" ">
<path fill="none" stroke="#63b8ff" d="M620.86,-54.98C660.29,-45.35 724.29,-29.72 764.98,-19.79"/>
<polygon fill="#63b8ff" stroke="#63b8ff" points="765.91,-23.16 774.79,-17.39 764.24,-16.36 765.91,-23.16"/>
</a>
</g>
</g>
<!-- Node16 -->
<g id="Node000016" class="node">
<title>Node16</title>
<g id="a_Node000016"><a xlink:title=" ">
<polygon fill="#e0e0e0" stroke="#999999" points="620.5,-19 551.5,-19 551.5,0 620.5,0 620.5,-19"/>
<text text-anchor="middle" x="586" y="-7" font-family="Helvetica,sans-Serif" font-size="10.00">type_traits</text>
</a>
</g>
</g>
<!-- Node13&#45;&gt;Node16 -->
<g id="edge15_Node000013_Node000016" class="edge">
<title>Node13&#45;&gt;Node16</title>
<g id="a_edge15_Node000013_Node000016"><a xlink:title=" ">
<path fill="none" stroke="#63b8ff" d="M586,-54.75C586,-47.8 586,-37.85 586,-29.13"/>
<polygon fill="#63b8ff" stroke="#63b8ff" points="589.5,-29.09 586,-19.09 582.5,-29.09 589.5,-29.09"/>
</a>
</g>
</g>
<!-- Node33&#45;&gt;Node16 -->
<g id="edge19_Node000033_Node000016" class="edge">
<title>Node33&#45;&gt;Node16</title>
<g id="a_edge19_Node000033_Node000016"><a xlink:title=" ">
<path fill="none" stroke="#63b8ff" d="M221.67,-274.86C237.21,-266.16 261.58,-252.19 282,-239 395.33,-165.81 521.42,-63.88 567.7,-25.72"/>
<polygon fill="#63b8ff" stroke="#63b8ff" points="570.15,-28.23 575.63,-19.16 565.69,-22.84 570.15,-28.23"/>
</a>
</g>
</g>
<!-- Node34 -->
<g id="Node000034" class="node">
<title>Node34</title>
<g id="a_Node000034"><a xlink:href="exception__utils_8h.html" target="_top" xlink:title=" ">
<polygon fill="white" stroke="#666666" points="273,-239 173,-239 173,-220 273,-220 273,-239"/>
<text text-anchor="middle" x="223" y="-227" font-family="Helvetica,sans-Serif" font-size="10.00">exception_utils.h</text>
</a>
</g>
</g>
<!-- Node33&#45;&gt;Node34 -->
<g id="edge20_Node000033_Node000034" class="edge">
<title>Node33&#45;&gt;Node34</title>
<g id="a_edge20_Node000033_Node000034"><a xlink:title=" ">
<path fill="none" stroke="#63b8ff" d="M208.81,-274.75C211.06,-267.72 214.3,-257.62 217.12,-248.84"/>
<polygon fill="#63b8ff" stroke="#63b8ff" points="220.52,-249.68 220.25,-239.09 213.86,-247.54 220.52,-249.68"/>
</a>
</g>
</g>
<!-- Node33&#45;&gt;Node35 -->
<g id="edge24_Node000033_Node000035" class="edge">
<title>Node33&#45;&gt;Node35</title>
<g id="a_edge24_Node000033_Node000035"><a xlink:title=" ">
<path fill="none" stroke="#63b8ff" d="M238.96,-275.45C276.09,-266.38 336.65,-251.59 378.09,-241.47"/>
<polygon fill="#63b8ff" stroke="#63b8ff" points="379.05,-244.84 387.93,-239.07 377.38,-238.04 379.05,-244.84"/>
</a>
</g>
</g>
<!-- Node34&#45;&gt;Node8 -->
<g id="edge23_Node000034_Node000008" class="edge">
<title>Node34&#45;&gt;Node8</title>
<g id="a_edge23_Node000034_Node000008"><a xlink:title=" ">
<path fill="none" stroke="#63b8ff" d="M223,-219.75C223,-212.8 223,-202.85 223,-194.13"/>
<polygon fill="#63b8ff" stroke="#63b8ff" points="226.5,-194.09 223,-184.09 219.5,-194.09 226.5,-194.09"/>
</a>
</g>
</g>
<!-- Node34&#45;&gt;Node11 -->
<g id="edge21_Node000034_Node000011" class="edge">
<title>Node34&#45;&gt;Node11</title>
<g id="a_edge21_Node000034_Node000011"><a xlink:title=" ">
<path fill="none" stroke="#63b8ff" d="M172.77,-223.85C146.49,-218.57 116.43,-207.42 100,-184 67.07,-137.07 76.02,-107.08 100,-55 105.75,-42.52 116.91,-32.24 127.42,-24.71"/>
<polygon fill="#63b8ff" stroke="#63b8ff" points="129.57,-27.49 135.97,-19.05 125.7,-21.65 129.57,-27.49"/>
</a>
</g>
</g>
<!-- Node34&#45;&gt;Node13 -->
<g id="edge22_Node000034_Node000013" class="edge">
<title>Node34&#45;&gt;Node13</title>
<g id="a_edge22_Node000034_Node000013"><a xlink:title=" ">
<path fill="none" stroke="#63b8ff" d="M242.01,-219.97C301.78,-193.13 486.18,-110.32 557.46,-78.31"/>
<polygon fill="#63b8ff" stroke="#63b8ff" points="559.06,-81.44 566.74,-74.15 556.19,-75.05 559.06,-81.44"/>
</a>
</g>
</g>
<!-- Node39&#45;&gt;Node8 -->
<g id="edge33_Node000039_Node000008" class="edge">
<title>Node39&#45;&gt;Node8</title>
<g id="a_edge33_Node000039_Node000008"><a xlink:title=" ">
<path fill="none" stroke="#63b8ff" d="M541.76,-223.22C481.72,-214.23 358.85,-195.84 284.43,-184.7"/>
<polygon fill="#63b8ff" stroke="#63b8ff" points="284.67,-181.19 274.26,-183.17 283.63,-188.12 284.67,-181.19"/>
</a>
</g>
</g>
<!-- Node39&#45;&gt;Node11 -->
<g id="edge37_Node000039_Node000011" class="edge">
<title>Node39&#45;&gt;Node11</title>
<g id="a_edge37_Node000039_Node000011"><a xlink:title=" ">
<path fill="none" stroke="#63b8ff" d="M541.68,-224.99C442.15,-215.07 166.38,-187.32 163,-184 121.39,-143.19 136.29,-65.23 146.13,-29.38"/>
<polygon fill="#63b8ff" stroke="#63b8ff" points="149.62,-29.91 149.07,-19.33 142.9,-27.94 149.62,-29.91"/>
</a>
</g>
</g>
<!-- Node39&#45;&gt;Node13 -->
<g id="edge32_Node000039_Node000013" class="edge">
<title>Node39&#45;&gt;Node13</title>
<g id="a_edge32_Node000039_Node000013"><a xlink:title=" ">
<path fill="none" stroke="#63b8ff" d="M580.18,-219.92C587,-200.45 602.04,-151.42 597,-110 595.94,-101.31 593.76,-91.87 591.62,-83.93"/>
<polygon fill="#63b8ff" stroke="#63b8ff" points="594.96,-82.89 588.83,-74.25 588.23,-84.83 594.96,-82.89"/>
</a>
</g>
</g>
<!-- Node39&#45;&gt;Node15 -->
<g id="edge36_Node000039_Node000015" class="edge">
<title>Node39&#45;&gt;Node15</title>
<g id="a_edge36_Node000039_Node000015"><a xlink:title=" ">
<path fill="none" stroke="#63b8ff" d="M612.1,-224.96C696.33,-216.31 903.82,-194.11 915,-184 939.78,-161.61 942.5,-140.08 928,-110 908.11,-68.74 861.87,-39.31 831.55,-23.62"/>
<polygon fill="#63b8ff" stroke="#63b8ff" points="832.83,-20.34 822.32,-19 829.7,-26.6 832.83,-20.34"/>
</a>
</g>
</g>
<!-- Node39&#45;&gt;Node38 -->
<g id="edge34_Node000039_Node000038" class="edge">
<title>Node39&#45;&gt;Node38</title>
<g id="a_edge34_Node000039_Node000038"><a xlink:title=" ">
<path fill="none" stroke="#63b8ff" d="M575.2,-219.66C571.64,-202.17 563.62,-162.8 558.82,-139.27"/>
<polygon fill="#63b8ff" stroke="#63b8ff" points="562.19,-138.26 556.76,-129.16 555.33,-139.66 562.19,-138.26"/>
</a>
</g>
</g>
<!-- Node39&#45;&gt;Node19 -->
<g id="edge35_Node000039_Node000019" class="edge">
<title>Node39&#45;&gt;Node19</title>
<g id="a_edge35_Node000039_Node000019"><a xlink:title=" ">
<path fill="none" stroke="#63b8ff" d="M587.12,-219.98C596.44,-212.15 610.47,-200.34 621.74,-190.86"/>
<polygon fill="#63b8ff" stroke="#63b8ff" points="624.29,-193.29 629.69,-184.17 619.79,-187.93 624.29,-193.29"/>
</a>
</g>
</g>
<!-- Node42&#45;&gt;Node10 -->
<g id="edge48_Node000042_Node000010" class="edge">
<title>Node42&#45;&gt;Node10</title>
<g id="a_edge48_Node000042_Node000010"><a xlink:title=" ">
<path fill="none" stroke="#63b8ff" d="M729.43,-219.94C728,-206.04 723.07,-178.76 706,-165 685.34,-148.35 511.2,-130.33 438.1,-123.42"/>
<polygon fill="#63b8ff" stroke="#63b8ff" points="438.36,-119.93 428.08,-122.48 437.71,-126.9 438.36,-119.93"/>
</a>
</g>
</g>
<!-- Node42&#45;&gt;Node11 -->
<g id="edge47_Node000042_Node000011" class="edge">
<title>Node42&#45;&gt;Node11</title>
<g id="a_edge47_Node000042_Node000011"><a xlink:title=" ">
<path fill="none" stroke="#63b8ff" d="M731.34,-219.9C732.91,-207.33 734.46,-183.41 727,-165 702.52,-104.59 688.1,-84.55 630,-55 551.76,-15.21 278.68,-10.77 184.34,-10.45"/>
<polygon fill="#63b8ff" stroke="#63b8ff" points="184.26,-6.95 174.26,-10.43 184.25,-13.95 184.26,-6.95"/>
</a>
</g>
</g>
<!-- Node42&#45;&gt;Node12 -->
<g id="edge44_Node000042_Node000012" class="edge">
<title>Node42&#45;&gt;Node12</title>
<g id="a_edge44_Node000042_Node000012"><a xlink:title=" ">
<path fill="none" stroke="#63b8ff" d="M725.03,-219.71C716.46,-205.48 697.44,-177.72 673,-165 554.65,-103.42 478.24,-213.49 375,-129 361.81,-118.21 356.84,-98.92 355,-84.42"/>
<polygon fill="#63b8ff" stroke="#63b8ff" points="358.46,-83.74 354.1,-74.08 351.48,-84.34 358.46,-83.74"/>
</a>
</g>
</g>
<!-- Node42&#45;&gt;Node19 -->
<g id="edge46_Node000042_Node000019" class="edge">
<title>Node42&#45;&gt;Node19</title>
<g id="a_edge46_Node000042_Node000019"><a xlink:title=" ">
<path fill="none" stroke="#63b8ff" d="M715.54,-219.98C701.58,-211.77 680.21,-199.18 663.75,-189.49"/>
<polygon fill="#63b8ff" stroke="#63b8ff" points="665.12,-186.23 654.72,-184.17 661.56,-192.26 665.12,-186.23"/>
</a>
</g>
</g>
<!-- Node43 -->
<g id="Node000043" class="node">
<title>Node43</title>
<g id="a_Node000043"><a xlink:title=" ">
<polygon fill="#e0e0e0" stroke="#999999" points="834,-184 796,-184 796,-165 834,-165 834,-184"/>
<text text-anchor="middle" x="815" y="-172" font-family="Helvetica,sans-Serif" font-size="10.00">map</text>
</a>
</g>
</g>
<!-- Node42&#45;&gt;Node43 -->
<g id="edge45_Node000042_Node000043" class="edge">
<title>Node42&#45;&gt;Node43</title>
<g id="a_edge45_Node000042_Node000043"><a xlink:title=" ">
<path fill="none" stroke="#63b8ff" d="M743.66,-219.98C756.84,-211.77 777.03,-199.18 792.57,-189.49"/>
<polygon fill="#63b8ff" stroke="#63b8ff" points="794.46,-192.43 801.09,-184.17 790.76,-186.49 794.46,-192.43"/>
</a>
</g>
</g>
<!-- Node44 -->
<g id="Node000044" class="node">
<title>Node44</title>
<g id="a_Node000044"><a xlink:href="range_8h.html" target="_top" xlink:title="Ranges: pair of begin and end iterators, which can be initialized from containers,...">
<polygon fill="white" stroke="#666666" points="905.5,-184 852.5,-184 852.5,-165 905.5,-165 905.5,-184"/>
<text text-anchor="middle" x="879" y="-172" font-family="Helvetica,sans-Serif" font-size="10.00">range.h</text>
</a>
</g>
</g>
<!-- Node42&#45;&gt;Node44 -->
<g id="edge49_Node000042_Node000044" class="edge">
<title>Node42&#45;&gt;Node44</title>
<g id="a_edge49_Node000042_Node000044"><a xlink:title=" ">
<path fill="none" stroke="#63b8ff" d="M753.94,-219.98C778.56,-211.23 817.12,-197.51 844.92,-187.62"/>
<polygon fill="#63b8ff" stroke="#63b8ff" points="846.38,-190.82 854.62,-184.17 844.03,-184.22 846.38,-190.82"/>
</a>
</g>
</g>
<!-- Node44&#45;&gt;Node13 -->
<g id="edge50_Node000044_Node000013" class="edge">
<title>Node44&#45;&gt;Node13</title>
<g id="a_edge50_Node000044_Node000013"><a xlink:title=" ">
<path fill="none" stroke="#63b8ff" d="M855.52,-164.84C803.53,-145.68 678.59,-99.63 618.87,-77.62"/>
<polygon fill="#63b8ff" stroke="#63b8ff" points="619.78,-74.22 609.19,-74.05 617.36,-80.79 619.78,-74.22"/>
</a>
</g>
</g>
<!-- Node44&#45;&gt;Node16 -->
<g id="edge53_Node000044_Node000016" class="edge">
<title>Node44&#45;&gt;Node16</title>
<g id="a_edge53_Node000044_Node000016"><a xlink:title=" ">
<path fill="none" stroke="#63b8ff" d="M873.7,-164.72C859.83,-142.56 820.12,-84.04 771,-55 727.54,-29.31 670.03,-18.43 630.74,-13.84"/>
<polygon fill="#63b8ff" stroke="#63b8ff" points="630.98,-10.34 620.66,-12.75 630.23,-17.3 630.98,-10.34"/>
</a>
</g>
</g>
<!-- Node44&#45;&gt;Node38 -->
<g id="edge51_Node000044_Node000038" class="edge">
<title>Node44&#45;&gt;Node38</title>
<g id="a_edge51_Node000044_Node000038"><a xlink:title=" ">
<path fill="none" stroke="#63b8ff" d="M852.31,-166.95C849.18,-166.26 846.03,-165.59 843,-165 756.28,-148.09 653.86,-133.54 597.51,-126"/>
<polygon fill="#63b8ff" stroke="#63b8ff" points="597.91,-122.53 587.54,-124.68 596.99,-129.47 597.91,-122.53"/>
</a>
</g>
</g>
<!-- Node45 -->
<g id="Node000045" class="node">
<title>Node45</title>
<g id="a_Node000045"><a xlink:title=" ">
<polygon fill="#e0e0e0" stroke="#999999" points="919,-129 861,-129 861,-110 919,-110 919,-129"/>
<text text-anchor="middle" x="890" y="-117" font-family="Helvetica,sans-Serif" font-size="10.00">memory</text>
</a>
</g>
</g>
<!-- Node44&#45;&gt;Node45 -->
<g id="edge52_Node000044_Node000045" class="edge">
<title>Node44&#45;&gt;Node45</title>
<g id="a_edge52_Node000044_Node000045"><a xlink:title=" ">
<path fill="none" stroke="#63b8ff" d="M880.82,-164.75C882.26,-157.8 884.32,-147.85 886.13,-139.13"/>
<polygon fill="#63b8ff" stroke="#63b8ff" points="889.61,-139.59 888.22,-129.09 882.76,-138.17 889.61,-139.59"/>
</a>
</g>
</g>
</g>
</svg>
