<?xml version="1.0" encoding="UTF-8" standalone="no"?>
<!DOCTYPE svg PUBLIC "-//W3C//DTD SVG 1.1//EN"
 "http://www.w3.org/Graphics/SVG/1.1/DTD/svg11.dtd">
<!-- Generated by graphviz version 2.43.0 (0)
 -->
<!-- Title: /home/runner/work/cbmc/cbmc/src/linking/linking_diagnostics.cpp Pages: 1 -->
<svg width="1268pt" height="654pt"
 viewBox="0.00 0.00 1268.00 654.00" xmlns="http://www.w3.org/2000/svg" xmlns:xlink="http://www.w3.org/1999/xlink">
<g id="graph0" class="graph" transform="scale(1 1) rotate(0) translate(4 650)">
<title>/home/runner/work/cbmc/cbmc/src/linking/linking_diagnostics.cpp</title>
<!-- Node1 -->
<g id="Node000001" class="node">
<title>Node1</title>
<g id="a_Node000001"><a xlink:title="ANSI&#45;C Linking.">
<polygon fill="#999999" stroke="#666666" points="445.5,-646 307.5,-646 307.5,-605 445.5,-605 445.5,-646"/>
<text text-anchor="start" x="315.5" y="-634" font-family="Helvetica,sans-Serif" font-size="10.00">/home/runner/work/cbmc</text>
<text text-anchor="start" x="315.5" y="-623" font-family="Helvetica,sans-Serif" font-size="10.00">/cbmc/src/linking/linking</text>
<text text-anchor="middle" x="376.5" y="-612" font-family="Helvetica,sans-Serif" font-size="10.00">_diagnostics.cpp</text>
</a>
</g>
</g>
<!-- Node2 -->
<g id="Node000002" class="node">
<title>Node2</title>
<g id="a_Node000002"><a xlink:href="linking__diagnostics_8h.html" target="_top" xlink:title="ANSI&#45;C Linking.">
<polygon fill="white" stroke="#666666" points="724,-514 605,-514 605,-495 724,-495 724,-514"/>
<text text-anchor="middle" x="664.5" y="-502" font-family="Helvetica,sans-Serif" font-size="10.00">linking_diagnostics.h</text>
</a>
</g>
</g>
<!-- Node1&#45;&gt;Node2 -->
<g id="edge1_Node000001_Node000002" class="edge">
<title>Node1&#45;&gt;Node2</title>
<g id="a_edge1_Node000001_Node000002"><a xlink:title=" ">
<path fill="none" stroke="#63b8ff" d="M423.73,-604.98C483.43,-580.32 584.41,-538.59 634.49,-517.9"/>
<polygon fill="#63b8ff" stroke="#63b8ff" points="635.89,-521.11 643.8,-514.05 633.22,-514.64 635.89,-521.11"/>
</a>
</g>
</g>
<!-- Node44 -->
<g id="Node000044" class="node">
<title>Node44</title>
<g id="a_Node000044"><a xlink:href="c__types_8h.html" target="_top" xlink:title=" ">
<polygon fill="white" stroke="#666666" points="417.5,-569 335.5,-569 335.5,-550 417.5,-550 417.5,-569"/>
<text text-anchor="middle" x="376.5" y="-557" font-family="Helvetica,sans-Serif" font-size="10.00">util/c_types.h</text>
</a>
</g>
</g>
<!-- Node1&#45;&gt;Node44 -->
<g id="edge45_Node000001_Node000044" class="edge">
<title>Node1&#45;&gt;Node44</title>
<g id="a_edge45_Node000001_Node000044"><a xlink:title=" ">
<path fill="none" stroke="#63b8ff" d="M376.5,-604.95C376.5,-596.85 376.5,-587.5 376.5,-579.47"/>
<polygon fill="#63b8ff" stroke="#63b8ff" points="380,-579.26 376.5,-569.26 373,-579.26 380,-579.26"/>
</a>
</g>
</g>
<!-- Node47 -->
<g id="Node000047" class="node">
<title>Node47</title>
<g id="a_Node000047"><a xlink:href="mathematical__types_8h.html" target="_top" xlink:title="Mathematical types.">
<polygon fill="white" stroke="#666666" points="1052,-404 907,-404 907,-385 1052,-385 1052,-404"/>
<text text-anchor="middle" x="979.5" y="-392" font-family="Helvetica,sans-Serif" font-size="10.00">util/mathematical_types.h</text>
</a>
</g>
</g>
<!-- Node1&#45;&gt;Node47 -->
<g id="edge51_Node000001_Node000047" class="edge">
<title>Node1&#45;&gt;Node47</title>
<g id="a_edge51_Node000001_Node000047"><a xlink:title=" ">
<path fill="none" stroke="#63b8ff" d="M445.78,-606.24C518.28,-586.39 634.92,-552.32 732.5,-514 816.05,-481.19 910.65,-432.36 954.6,-408.95"/>
<polygon fill="#63b8ff" stroke="#63b8ff" points="956.51,-411.9 963.68,-404.1 953.21,-405.73 956.51,-411.9"/>
</a>
</g>
</g>
<!-- Node48 -->
<g id="Node000048" class="node">
<title>Node48</title>
<g id="a_Node000048"><a xlink:href="src_2util_2message_8h.html" target="_top" xlink:title=" ">
<polygon fill="white" stroke="#666666" points="262,-294 173,-294 173,-275 262,-275 262,-294"/>
<text text-anchor="middle" x="217.5" y="-282" font-family="Helvetica,sans-Serif" font-size="10.00">util/message.h</text>
</a>
</g>
</g>
<!-- Node1&#45;&gt;Node48 -->
<g id="edge55_Node000001_Node000048" class="edge">
<title>Node1&#45;&gt;Node48</title>
<g id="a_edge55_Node000001_Node000048"><a xlink:title=" ">
<path fill="none" stroke="#63b8ff" d="M307.41,-619.87C266.83,-613.76 217.08,-599.96 183.5,-569 161.32,-548.55 159.5,-535.67 159.5,-505.5 159.5,-505.5 159.5,-505.5 159.5,-393.5 159.5,-357.37 185,-321.67 202.19,-301.71"/>
<polygon fill="#63b8ff" stroke="#63b8ff" points="204.88,-303.95 208.94,-294.17 199.66,-299.28 204.88,-303.95"/>
</a>
</g>
</g>
<!-- Node49 -->
<g id="Node000049" class="node">
<title>Node49</title>
<g id="a_Node000049"><a xlink:href="namespace_8h.html" target="_top" xlink:title=" ">
<polygon fill="white" stroke="#666666" points="296,-184 195,-184 195,-165 296,-165 296,-184"/>
<text text-anchor="middle" x="245.5" y="-172" font-family="Helvetica,sans-Serif" font-size="10.00">util/namespace.h</text>
</a>
</g>
</g>
<!-- Node1&#45;&gt;Node49 -->
<g id="edge62_Node000001_Node000049" class="edge">
<title>Node1&#45;&gt;Node49</title>
<g id="a_edge62_Node000001_Node000049"><a xlink:title=" ">
<path fill="none" stroke="#63b8ff" d="M307.29,-608.15C256.92,-591.66 197.5,-560.54 197.5,-505.5 197.5,-505.5 197.5,-505.5 197.5,-448.5 197.5,-369.92 136.95,-348.96 163.5,-275 176.06,-240 206.85,-208.53 226.92,-190.74"/>
<polygon fill="#63b8ff" stroke="#63b8ff" points="229.23,-193.37 234.53,-184.2 224.66,-188.06 229.23,-193.37"/>
</a>
</g>
</g>
<!-- Node50 -->
<g id="Node000050" class="node">
<title>Node50</title>
<g id="a_Node000050"><a xlink:href="language__util_8h.html" target="_top" xlink:title=" ">
<polygon fill="white" stroke="#666666" points="131,-514 0,-514 0,-495 131,-495 131,-514"/>
<text text-anchor="middle" x="65.5" y="-502" font-family="Helvetica,sans-Serif" font-size="10.00">langapi/language_util.h</text>
</a>
</g>
</g>
<!-- Node1&#45;&gt;Node50 -->
<g id="edge65_Node000001_Node000050" class="edge">
<title>Node1&#45;&gt;Node50</title>
<g id="a_edge65_Node000001_Node000050"><a xlink:title=" ">
<path fill="none" stroke="#63b8ff" d="M307.38,-615.93C260.03,-608.16 196.76,-593.97 145.5,-569 120.75,-556.94 96.6,-536.16 81.42,-521.66"/>
<polygon fill="#63b8ff" stroke="#63b8ff" points="83.56,-518.85 73.96,-514.35 78.65,-523.85 83.56,-518.85"/>
</a>
</g>
</g>
<!-- Node51 -->
<g id="Node000051" class="node">
<title>Node51</title>
<g id="a_Node000051"><a xlink:title=" ">
<polygon fill="#e0e0e0" stroke="#999999" points="934.5,-569 848.5,-569 848.5,-550 934.5,-550 934.5,-569"/>
<text text-anchor="middle" x="891.5" y="-557" font-family="Helvetica,sans-Serif" font-size="10.00">unordered_set</text>
</a>
</g>
</g>
<!-- Node1&#45;&gt;Node51 -->
<g id="edge67_Node000001_Node000051" class="edge">
<title>Node1&#45;&gt;Node51</title>
<g id="a_edge67_Node000001_Node000051"><a xlink:title=" ">
<path fill="none" stroke="#63b8ff" d="M445.63,-616.72C535.37,-606.49 696.79,-587.61 834.5,-569 835.75,-568.83 837.03,-568.66 838.31,-568.48"/>
<polygon fill="#63b8ff" stroke="#63b8ff" points="838.84,-571.94 848.26,-567.08 837.87,-565.01 838.84,-571.94"/>
</a>
</g>
</g>
<!-- Node3 -->
<g id="Node000003" class="node">
<title>Node3</title>
<g id="a_Node000003"><a xlink:href="std__expr_8h.html" target="_top" xlink:title="API to expression classes.">
<polygon fill="white" stroke="#666666" points="792.5,-459 706.5,-459 706.5,-440 792.5,-440 792.5,-459"/>
<text text-anchor="middle" x="749.5" y="-447" font-family="Helvetica,sans-Serif" font-size="10.00">util/std_expr.h</text>
</a>
</g>
</g>
<!-- Node2&#45;&gt;Node3 -->
<g id="edge2_Node000002_Node000003" class="edge">
<title>Node2&#45;&gt;Node3</title>
<g id="a_edge2_Node000002_Node000003"><a xlink:title=" ">
<path fill="none" stroke="#63b8ff" d="M678.16,-494.98C691.34,-486.77 711.53,-474.18 727.07,-464.49"/>
<polygon fill="#63b8ff" stroke="#63b8ff" points="728.96,-467.43 735.59,-459.17 725.26,-461.49 728.96,-467.43"/>
</a>
</g>
</g>
<!-- Node43 -->
<g id="Node000043" class="node">
<title>Node43</title>
<g id="a_Node000043"><a xlink:href="symbol_8h.html" target="_top" xlink:title="Symbol table entry.">
<polygon fill="white" stroke="#666666" points="638.5,-349 558.5,-349 558.5,-330 638.5,-330 638.5,-349"/>
<text text-anchor="middle" x="598.5" y="-337" font-family="Helvetica,sans-Serif" font-size="10.00">util/symbol.h</text>
</a>
</g>
</g>
<!-- Node2&#45;&gt;Node43 -->
<g id="edge41_Node000002_Node000043" class="edge">
<title>Node2&#45;&gt;Node43</title>
<g id="a_edge41_Node000002_Node000043"><a xlink:title=" ">
<path fill="none" stroke="#63b8ff" d="M629.06,-494.99C610.24,-488.48 588.74,-477.38 577.5,-459 558.14,-427.36 575.73,-382.61 588.34,-358.15"/>
<polygon fill="#63b8ff" stroke="#63b8ff" points="591.45,-359.75 593.15,-349.29 585.3,-356.41 591.45,-359.75"/>
</a>
</g>
</g>
<!-- Node4 -->
<g id="Node000004" class="node">
<title>Node4</title>
<g id="a_Node000004"><a xlink:href="expr__cast_8h.html" target="_top" xlink:title="Templated functions to cast to specific exprt&#45;derived classes.">
<polygon fill="white" stroke="#666666" points="841,-349 768,-349 768,-330 841,-330 841,-349"/>
<text text-anchor="middle" x="804.5" y="-337" font-family="Helvetica,sans-Serif" font-size="10.00">expr_cast.h</text>
</a>
</g>
</g>
<!-- Node3&#45;&gt;Node4 -->
<g id="edge3_Node000003_Node000004" class="edge">
<title>Node3&#45;&gt;Node4</title>
<g id="a_edge3_Node000003_Node000004"><a xlink:title=" ">
<path fill="none" stroke="#63b8ff" d="M754,-439.66C763.03,-421.93 783.5,-381.73 795.43,-358.32"/>
<polygon fill="#63b8ff" stroke="#63b8ff" points="798.67,-359.66 800.09,-349.16 792.43,-356.48 798.67,-359.66"/>
</a>
</g>
</g>
<!-- Node8 -->
<g id="Node000008" class="node">
<title>Node8</title>
<g id="a_Node000008"><a xlink:href="src_2util_2invariant_8h.html" target="_top" xlink:title=" ">
<polygon fill="white" stroke="#666666" points="582,-74 513,-74 513,-55 582,-55 582,-74"/>
<text text-anchor="middle" x="547.5" y="-62" font-family="Helvetica,sans-Serif" font-size="10.00">invariant.h</text>
</a>
</g>
</g>
<!-- Node3&#45;&gt;Node8 -->
<g id="edge30_Node000003_Node000008" class="edge">
<title>Node3&#45;&gt;Node8</title>
<g id="a_edge30_Node000003_Node000008"><a xlink:title=" ">
<path fill="none" stroke="#63b8ff" d="M792.63,-448.05C911.57,-445.65 1235.5,-430.82 1235.5,-340.5 1235.5,-340.5 1235.5,-340.5 1235.5,-283.5 1235.5,-185.8 1186.48,-156.41 1100.5,-110 1056.23,-86.11 715.94,-71.58 592.25,-67.04"/>
<polygon fill="#63b8ff" stroke="#63b8ff" points="592.12,-63.53 582,-66.67 591.87,-70.53 592.12,-63.53"/>
</a>
</g>
</g>
<!-- Node40 -->
<g id="Node000040" class="node">
<title>Node40</title>
<g id="a_Node000040"><a xlink:href="std__types_8h.html" target="_top" xlink:title="Pre&#45;defined types.">
<polygon fill="white" stroke="#666666" points="749,-404 676,-404 676,-385 749,-385 749,-404"/>
<text text-anchor="middle" x="712.5" y="-392" font-family="Helvetica,sans-Serif" font-size="10.00">std_types.h</text>
</a>
</g>
</g>
<!-- Node3&#45;&gt;Node40 -->
<g id="edge31_Node000003_Node000040" class="edge">
<title>Node3&#45;&gt;Node40</title>
<g id="a_edge31_Node000003_Node000040"><a xlink:title=" ">
<path fill="none" stroke="#63b8ff" d="M743.39,-439.75C738.22,-432.34 730.65,-421.5 724.31,-412.41"/>
<polygon fill="#63b8ff" stroke="#63b8ff" points="727.09,-410.29 718.5,-404.09 721.35,-414.29 727.09,-410.29"/>
</a>
</g>
</g>
<!-- Node5 -->
<g id="Node000005" class="node">
<title>Node5</title>
<g id="a_Node000005"><a xlink:title=" ">
<polygon fill="#e0e0e0" stroke="#999999" points="760,-294 703,-294 703,-275 760,-275 760,-294"/>
<text text-anchor="middle" x="731.5" y="-282" font-family="Helvetica,sans-Serif" font-size="10.00">typeinfo</text>
</a>
</g>
</g>
<!-- Node4&#45;&gt;Node5 -->
<g id="edge4_Node000004_Node000005" class="edge">
<title>Node4&#45;&gt;Node5</title>
<g id="a_edge4_Node000004_Node000005"><a xlink:title=" ">
<path fill="none" stroke="#63b8ff" d="M792.77,-329.98C781.77,-322 765.08,-309.88 751.9,-300.31"/>
<polygon fill="#63b8ff" stroke="#63b8ff" points="753.59,-297.21 743.44,-294.17 749.48,-302.88 753.59,-297.21"/>
</a>
</g>
</g>
<!-- Node6 -->
<g id="Node000006" class="node">
<title>Node6</title>
<g id="a_Node000006"><a xlink:title=" ">
<polygon fill="#e0e0e0" stroke="#999999" points="1260,-19 1191,-19 1191,0 1260,0 1260,-19"/>
<text text-anchor="middle" x="1225.5" y="-7" font-family="Helvetica,sans-Serif" font-size="10.00">type_traits</text>
</a>
</g>
</g>
<!-- Node4&#45;&gt;Node6 -->
<g id="edge5_Node000004_Node000006" class="edge">
<title>Node4&#45;&gt;Node6</title>
<g id="a_edge5_Node000004_Node000006"><a xlink:title=" ">
<path fill="none" stroke="#63b8ff" d="M841.01,-329.95C895.41,-316.2 999.79,-285.86 1078.5,-239 1155.97,-192.88 1157.31,-155.19 1196.5,-74 1203.83,-58.82 1211.75,-41.4 1217.46,-28.64"/>
<polygon fill="#63b8ff" stroke="#63b8ff" points="1220.8,-29.74 1221.68,-19.18 1214.41,-26.89 1220.8,-29.74"/>
</a>
</g>
</g>
<!-- Node7 -->
<g id="Node000007" class="node">
<title>Node7</title>
<g id="a_Node000007"><a xlink:title=" ">
<polygon fill="#e0e0e0" stroke="#999999" points="717,-239 652,-239 652,-220 717,-220 717,-239"/>
<text text-anchor="middle" x="684.5" y="-227" font-family="Helvetica,sans-Serif" font-size="10.00">functional</text>
</a>
</g>
</g>
<!-- Node4&#45;&gt;Node7 -->
<g id="edge6_Node000004_Node000007" class="edge">
<title>Node4&#45;&gt;Node7</title>
<g id="a_edge6_Node000004_Node000007"><a xlink:title=" ">
<path fill="none" stroke="#63b8ff" d="M801.52,-329.67C796.66,-316.36 785.87,-291.03 769.5,-275 755.27,-261.07 735.8,-250.45 719.08,-243.08"/>
<polygon fill="#63b8ff" stroke="#63b8ff" points="720.19,-239.75 709.61,-239.12 717.49,-246.21 720.19,-239.75"/>
</a>
</g>
</g>
<!-- Node4&#45;&gt;Node8 -->
<g id="edge7_Node000004_Node000008" class="edge">
<title>Node4&#45;&gt;Node8</title>
<g id="a_edge7_Node000004_Node000008"><a xlink:title=" ">
<path fill="none" stroke="#63b8ff" d="M775.34,-329.97C752.13,-322.46 719.37,-310.19 693.5,-294 657.89,-271.72 623.5,-272.5 623.5,-230.5 623.5,-230.5 623.5,-230.5 623.5,-173.5 623.5,-134.47 589.89,-99.58 567.37,-80.6"/>
<polygon fill="#63b8ff" stroke="#63b8ff" points="569.35,-77.7 559.38,-74.12 564.94,-83.14 569.35,-77.7"/>
</a>
</g>
</g>
<!-- Node12 -->
<g id="Node000012" class="node">
<title>Node12</title>
<g id="a_Node000012"><a xlink:href="expr_8h.html" target="_top" xlink:title=" ">
<polygon fill="white" stroke="#666666" points="864,-294 817,-294 817,-275 864,-275 864,-294"/>
<text text-anchor="middle" x="840.5" y="-282" font-family="Helvetica,sans-Serif" font-size="10.00">expr.h</text>
</a>
</g>
</g>
<!-- Node4&#45;&gt;Node12 -->
<g id="edge12_Node000004_Node000012" class="edge">
<title>Node4&#45;&gt;Node12</title>
<g id="a_edge12_Node000004_Node000012"><a xlink:title=" ">
<path fill="none" stroke="#63b8ff" d="M810.44,-329.75C815.48,-322.34 822.84,-311.5 829.01,-302.41"/>
<polygon fill="#63b8ff" stroke="#63b8ff" points="831.94,-304.33 834.67,-294.09 826.15,-300.39 831.94,-304.33"/>
</a>
</g>
</g>
<!-- Node8&#45;&gt;Node6 -->
<g id="edge11_Node000008_Node000006" class="edge">
<title>Node8&#45;&gt;Node6</title>
<g id="a_edge11_Node000008_Node000006"><a xlink:title=" ">
<path fill="none" stroke="#63b8ff" d="M582.05,-60.8C695.05,-51.97 1053.59,-23.94 1180.47,-14.02"/>
<polygon fill="#63b8ff" stroke="#63b8ff" points="1180.91,-17.5 1190.61,-13.23 1180.37,-10.52 1180.91,-17.5"/>
</a>
</g>
</g>
<!-- Node9 -->
<g id="Node000009" class="node">
<title>Node9</title>
<g id="a_Node000009"><a xlink:title=" ">
<polygon fill="#e0e0e0" stroke="#999999" points="572,-19 523,-19 523,0 572,0 572,-19"/>
<text text-anchor="middle" x="547.5" y="-7" font-family="Helvetica,sans-Serif" font-size="10.00">cstdlib</text>
</a>
</g>
</g>
<!-- Node8&#45;&gt;Node9 -->
<g id="edge8_Node000008_Node000009" class="edge">
<title>Node8&#45;&gt;Node9</title>
<g id="a_edge8_Node000008_Node000009"><a xlink:title=" ">
<path fill="none" stroke="#63b8ff" d="M547.5,-54.75C547.5,-47.8 547.5,-37.85 547.5,-29.13"/>
<polygon fill="#63b8ff" stroke="#63b8ff" points="551,-29.09 547.5,-19.09 544,-29.09 551,-29.09"/>
</a>
</g>
</g>
<!-- Node10 -->
<g id="Node000010" class="node">
<title>Node10</title>
<g id="a_Node000010"><a xlink:title=" ">
<polygon fill="#e0e0e0" stroke="#999999" points="142.5,-19 86.5,-19 86.5,0 142.5,0 142.5,-19"/>
<text text-anchor="middle" x="114.5" y="-7" font-family="Helvetica,sans-Serif" font-size="10.00">sstream</text>
</a>
</g>
</g>
<!-- Node8&#45;&gt;Node10 -->
<g id="edge9_Node000008_Node000010" class="edge">
<title>Node8&#45;&gt;Node10</title>
<g id="a_edge9_Node000008_Node000010"><a xlink:title=" ">
<path fill="none" stroke="#63b8ff" d="M512.8,-59.25C432.83,-49.46 236.1,-25.38 152.78,-15.19"/>
<polygon fill="#63b8ff" stroke="#63b8ff" points="153.08,-11.7 142.73,-13.96 152.23,-18.64 153.08,-11.7"/>
</a>
</g>
</g>
<!-- Node11 -->
<g id="Node000011" class="node">
<title>Node11</title>
<g id="a_Node000011"><a xlink:title=" ">
<polygon fill="#e0e0e0" stroke="#999999" points="271.5,-19 227.5,-19 227.5,0 271.5,0 271.5,-19"/>
<text text-anchor="middle" x="249.5" y="-7" font-family="Helvetica,sans-Serif" font-size="10.00">string</text>
</a>
</g>
</g>
<!-- Node8&#45;&gt;Node11 -->
<g id="edge10_Node000008_Node000011" class="edge">
<title>Node8&#45;&gt;Node11</title>
<g id="a_edge10_Node000008_Node000011"><a xlink:title=" ">
<path fill="none" stroke="#63b8ff" d="M512.73,-57.32C454.6,-46.98 338.51,-26.33 281.96,-16.27"/>
<polygon fill="#63b8ff" stroke="#63b8ff" points="282.26,-12.77 271.8,-14.47 281.03,-19.66 282.26,-12.77"/>
</a>
</g>
</g>
<!-- Node12&#45;&gt;Node7 -->
<g id="edge29_Node000012_Node000007" class="edge">
<title>Node12&#45;&gt;Node7</title>
<g id="a_edge29_Node000012_Node000007"><a xlink:title=" ">
<path fill="none" stroke="#63b8ff" d="M816.81,-275.45C790.85,-266.63 748.95,-252.4 719.27,-242.31"/>
<polygon fill="#63b8ff" stroke="#63b8ff" points="720.31,-238.97 709.71,-239.07 718.05,-245.6 720.31,-238.97"/>
</a>
</g>
</g>
<!-- Node13 -->
<g id="Node000013" class="node">
<title>Node13</title>
<g id="a_Node000013"><a xlink:href="as__const_8h.html" target="_top" xlink:title=" ">
<polygon fill="white" stroke="#666666" points="989.5,-239 921.5,-239 921.5,-220 989.5,-220 989.5,-239"/>
<text text-anchor="middle" x="955.5" y="-227" font-family="Helvetica,sans-Serif" font-size="10.00">as_const.h</text>
</a>
</g>
</g>
<!-- Node12&#45;&gt;Node13 -->
<g id="edge13_Node000012_Node000013" class="edge">
<title>Node12&#45;&gt;Node13</title>
<g id="a_edge13_Node000012_Node000013"><a xlink:title=" ">
<path fill="none" stroke="#63b8ff" d="M858.98,-274.98C877.48,-266.46 906.18,-253.23 927.48,-243.41"/>
<polygon fill="#63b8ff" stroke="#63b8ff" points="929.07,-246.53 936.69,-239.17 926.14,-240.18 929.07,-246.53"/>
</a>
</g>
</g>
<!-- Node14 -->
<g id="Node000014" class="node">
<title>Node14</title>
<g id="a_Node000014"><a xlink:href="type_8h.html" target="_top" xlink:title="Defines typet, type_with_subtypet and type_with_subtypest.">
<polygon fill="white" stroke="#666666" points="1055,-239 1008,-239 1008,-220 1055,-220 1055,-239"/>
<text text-anchor="middle" x="1031.5" y="-227" font-family="Helvetica,sans-Serif" font-size="10.00">type.h</text>
</a>
</g>
</g>
<!-- Node12&#45;&gt;Node14 -->
<g id="edge14_Node000012_Node000014" class="edge">
<title>Node12&#45;&gt;Node14</title>
<g id="a_edge14_Node000012_Node000014"><a xlink:title=" ">
<path fill="none" stroke="#63b8ff" d="M864.3,-276.89C898.09,-267.52 960.07,-250.32 998.34,-239.7"/>
<polygon fill="#63b8ff" stroke="#63b8ff" points="999.3,-243.07 1008,-237.02 997.42,-236.32 999.3,-243.07"/>
</a>
</g>
</g>
<!-- Node37 -->
<g id="Node000037" class="node">
<title>Node37</title>
<g id="a_Node000037"><a xlink:href="validation__mode_8h.html" target="_top" xlink:title=" ">
<polygon fill="white" stroke="#666666" points="1091,-129 984,-129 984,-110 1091,-110 1091,-129"/>
<text text-anchor="middle" x="1037.5" y="-117" font-family="Helvetica,sans-Serif" font-size="10.00">validation_mode.h</text>
</a>
</g>
</g>
<!-- Node12&#45;&gt;Node37 -->
<g id="edge28_Node000012_Node000037" class="edge">
<title>Node12&#45;&gt;Node37</title>
<g id="a_edge28_Node000012_Node000037"><a xlink:title=" ">
<path fill="none" stroke="#63b8ff" d="M864.36,-282.44C916.78,-279.57 1039.34,-269.65 1064.5,-239 1070.85,-231.27 1052.97,-169.96 1043.28,-138.7"/>
<polygon fill="#63b8ff" stroke="#63b8ff" points="1046.58,-137.53 1040.25,-129.03 1039.9,-139.62 1046.58,-137.53"/>
</a>
</g>
</g>
<!-- Node38 -->
<g id="Node000038" class="node">
<title>Node38</title>
<g id="a_Node000038"><a xlink:href="validate__types_8h.html" target="_top" xlink:title=" ">
<polygon fill="white" stroke="#666666" points="882.5,-184 784.5,-184 784.5,-165 882.5,-165 882.5,-184"/>
<text text-anchor="middle" x="833.5" y="-172" font-family="Helvetica,sans-Serif" font-size="10.00">validate_types.h</text>
</a>
</g>
</g>
<!-- Node12&#45;&gt;Node38 -->
<g id="edge27_Node000012_Node000038" class="edge">
<title>Node12&#45;&gt;Node38</title>
<g id="a_edge27_Node000012_Node000038"><a xlink:title=" ">
<path fill="none" stroke="#63b8ff" d="M816.92,-276.55C799.29,-269.98 776.44,-258.21 765.5,-239 753.56,-218.03 778.72,-199.91 801.74,-188.45"/>
<polygon fill="#63b8ff" stroke="#63b8ff" points="803.46,-191.51 811.03,-184.11 800.49,-185.17 803.46,-191.51"/>
</a>
</g>
</g>
<!-- Node39 -->
<g id="Node000039" class="node">
<title>Node39</title>
<g id="a_Node000039"><a xlink:href="validate__expressions_8h.html" target="_top" xlink:title=" ">
<polygon fill="white" stroke="#666666" points="903,-239 774,-239 774,-220 903,-220 903,-239"/>
<text text-anchor="middle" x="838.5" y="-227" font-family="Helvetica,sans-Serif" font-size="10.00">validate_expressions.h</text>
</a>
</g>
</g>
<!-- Node12&#45;&gt;Node39 -->
<g id="edge26_Node000012_Node000039" class="edge">
<title>Node12&#45;&gt;Node39</title>
<g id="a_edge26_Node000012_Node000039"><a xlink:title=" ">
<path fill="none" stroke="#63b8ff" d="M840.17,-274.75C839.91,-267.8 839.53,-257.85 839.2,-249.13"/>
<polygon fill="#63b8ff" stroke="#63b8ff" points="842.7,-248.95 838.82,-239.09 835.7,-249.21 842.7,-248.95"/>
</a>
</g>
</g>
<!-- Node15 -->
<g id="Node000015" class="node">
<title>Node15</title>
<g id="a_Node000015"><a xlink:href="source__location_8h.html" target="_top" xlink:title=" ">
<polygon fill="#fff0f0" stroke="red" points="416.5,-184 314.5,-184 314.5,-165 416.5,-165 416.5,-184"/>
<text text-anchor="middle" x="365.5" y="-172" font-family="Helvetica,sans-Serif" font-size="10.00">source_location.h</text>
</a>
</g>
</g>
<!-- Node14&#45;&gt;Node15 -->
<g id="edge15_Node000014_Node000015" class="edge">
<title>Node14&#45;&gt;Node15</title>
<g id="a_edge15_Node000014_Node000015"><a xlink:title=" ">
<path fill="none" stroke="#63b8ff" d="M1007.82,-221.85C1004.7,-221.14 1001.54,-220.49 998.5,-220 790.77,-186.23 540.57,-178.08 426.97,-176.12"/>
<polygon fill="#63b8ff" stroke="#63b8ff" points="426.79,-172.62 416.73,-175.95 426.68,-179.61 426.79,-172.62"/>
</a>
</g>
</g>
<!-- Node35 -->
<g id="Node000035" class="node">
<title>Node35</title>
<g id="a_Node000035"><a xlink:href="validate_8h.html" target="_top" xlink:title=" ">
<polygon fill="#fff0f0" stroke="red" points="1131,-184 1066,-184 1066,-165 1131,-165 1131,-184"/>
<text text-anchor="middle" x="1098.5" y="-172" font-family="Helvetica,sans-Serif" font-size="10.00">validate.h</text>
</a>
</g>
</g>
<!-- Node14&#45;&gt;Node35 -->
<g id="edge21_Node000014_Node000035" class="edge">
<title>Node14&#45;&gt;Node35</title>
<g id="a_edge21_Node000014_Node000035"><a xlink:title=" ">
<path fill="none" stroke="#63b8ff" d="M1042.26,-219.98C1052.27,-212.07 1067.39,-200.11 1079.43,-190.58"/>
<polygon fill="#63b8ff" stroke="#63b8ff" points="1081.87,-193.12 1087.54,-184.17 1077.53,-187.63 1081.87,-193.12"/>
</a>
</g>
</g>
<!-- Node14&#45;&gt;Node37 -->
<g id="edge25_Node000014_Node000037" class="edge">
<title>Node14&#45;&gt;Node37</title>
<g id="a_edge25_Node000014_Node000037"><a xlink:title=" ">
<path fill="none" stroke="#63b8ff" d="M1028.89,-219.85C1025.54,-207.61 1020.5,-184.55 1023.5,-165 1024.85,-156.19 1027.63,-146.74 1030.35,-138.82"/>
<polygon fill="#63b8ff" stroke="#63b8ff" points="1033.73,-139.77 1033.9,-129.18 1027.16,-137.35 1033.73,-139.77"/>
</a>
</g>
</g>
<!-- Node14&#45;&gt;Node38 -->
<g id="edge24_Node000014_Node000038" class="edge">
<title>Node14&#45;&gt;Node38</title>
<g id="a_edge24_Node000014_Node000038"><a xlink:title=" ">
<path fill="none" stroke="#63b8ff" d="M1007.62,-222.11C974.81,-213.33 915.3,-197.4 875.1,-186.63"/>
<polygon fill="#63b8ff" stroke="#63b8ff" points="875.88,-183.22 865.32,-184.02 874.07,-189.98 875.88,-183.22"/>
</a>
</g>
</g>
<!-- Node15&#45;&gt;Node11 -->
<g id="edge20_Node000015_Node000011" class="edge">
<title>Node15&#45;&gt;Node11</title>
<g id="a_edge20_Node000015_Node000011"><a xlink:title=" ">
<path fill="none" stroke="#63b8ff" d="M359.26,-164.74C340.85,-138.87 286.49,-62.48 261.87,-27.88"/>
<polygon fill="#63b8ff" stroke="#63b8ff" points="264.42,-25.43 255.77,-19.31 258.71,-29.48 264.42,-25.43"/>
</a>
</g>
</g>
<!-- Node16 -->
<g id="Node000016" class="node">
<title>Node16</title>
<g id="a_Node000016"><a xlink:href="deprecate_8h.html" target="_top" xlink:title=" ">
<polygon fill="white" stroke="#666666" points="519.5,-129 445.5,-129 445.5,-110 519.5,-110 519.5,-129"/>
<text text-anchor="middle" x="482.5" y="-117" font-family="Helvetica,sans-Serif" font-size="10.00">deprecate.h</text>
</a>
</g>
</g>
<!-- Node15&#45;&gt;Node16 -->
<g id="edge16_Node000015_Node000016" class="edge">
<title>Node15&#45;&gt;Node16</title>
<g id="a_edge16_Node000015_Node000016"><a xlink:title=" ">
<path fill="none" stroke="#63b8ff" d="M384.3,-164.98C403.12,-156.46 432.32,-143.23 454,-133.41"/>
<polygon fill="#63b8ff" stroke="#63b8ff" points="455.7,-136.48 463.36,-129.17 452.81,-130.11 455.7,-136.48"/>
</a>
</g>
</g>
<!-- Node17 -->
<g id="Node000017" class="node">
<title>Node17</title>
<g id="a_Node000017"><a xlink:href="irep_8h.html" target="_top" xlink:title=" ">
<polygon fill="#fff0f0" stroke="red" points="271.5,-129 227.5,-129 227.5,-110 271.5,-110 271.5,-129"/>
<text text-anchor="middle" x="249.5" y="-117" font-family="Helvetica,sans-Serif" font-size="10.00">irep.h</text>
</a>
</g>
</g>
<!-- Node15&#45;&gt;Node17 -->
<g id="edge17_Node000015_Node000017" class="edge">
<title>Node15&#45;&gt;Node17</title>
<g id="a_edge17_Node000015_Node000017"><a xlink:title=" ">
<path fill="none" stroke="#63b8ff" d="M346.86,-164.98C328.2,-156.46 299.25,-143.23 277.76,-133.41"/>
<polygon fill="#63b8ff" stroke="#63b8ff" points="279.03,-130.14 268.48,-129.17 276.12,-136.51 279.03,-130.14"/>
</a>
</g>
</g>
<!-- Node17&#45;&gt;Node8 -->
<g id="edge19_Node000017_Node000008" class="edge">
<title>Node17&#45;&gt;Node8</title>
<g id="a_edge19_Node000017_Node000008"><a xlink:title=" ">
<path fill="none" stroke="#63b8ff" d="M271.9,-114.52C320.85,-105.81 438.15,-84.95 502.83,-73.45"/>
<polygon fill="#63b8ff" stroke="#63b8ff" points="503.5,-76.88 512.73,-71.68 502.28,-69.99 503.5,-76.88"/>
</a>
</g>
</g>
<!-- Node17&#45;&gt;Node11 -->
<g id="edge18_Node000017_Node000011" class="edge">
<title>Node17&#45;&gt;Node11</title>
<g id="a_edge18_Node000017_Node000011"><a xlink:title=" ">
<path fill="none" stroke="#63b8ff" d="M249.5,-109.66C249.5,-92.17 249.5,-52.8 249.5,-29.27"/>
<polygon fill="#63b8ff" stroke="#63b8ff" points="253,-29.16 249.5,-19.16 246,-29.16 253,-29.16"/>
</a>
</g>
</g>
<!-- Node35&#45;&gt;Node6 -->
<g id="edge22_Node000035_Node000006" class="edge">
<title>Node35&#45;&gt;Node6</title>
<g id="a_edge22_Node000035_Node000006"><a xlink:title=" ">
<path fill="none" stroke="#63b8ff" d="M1105.33,-164.74C1125.57,-138.76 1185.51,-61.83 1212.3,-27.44"/>
<polygon fill="#63b8ff" stroke="#63b8ff" points="1215.25,-29.35 1218.64,-19.31 1209.73,-25.04 1215.25,-29.35"/>
</a>
</g>
</g>
<!-- Node35&#45;&gt;Node37 -->
<g id="edge23_Node000035_Node000037" class="edge">
<title>Node35&#45;&gt;Node37</title>
<g id="a_edge23_Node000035_Node000037"><a xlink:title=" ">
<path fill="none" stroke="#63b8ff" d="M1088.7,-164.98C1079.68,-157.15 1066.09,-145.34 1055.18,-135.86"/>
<polygon fill="#63b8ff" stroke="#63b8ff" points="1057.32,-133.09 1047.48,-129.17 1052.73,-138.37 1057.32,-133.09"/>
</a>
</g>
</g>
<!-- Node40&#45;&gt;Node4 -->
<g id="edge33_Node000040_Node000004" class="edge">
<title>Node40&#45;&gt;Node4</title>
<g id="a_edge33_Node000040_Node000004"><a xlink:title=" ">
<path fill="none" stroke="#63b8ff" d="M727.28,-384.98C741.68,-376.69 763.81,-363.94 780.69,-354.22"/>
<polygon fill="#63b8ff" stroke="#63b8ff" points="782.53,-357.19 789.45,-349.17 779.04,-351.13 782.53,-357.19"/>
</a>
</g>
</g>
<!-- Node40&#45;&gt;Node8 -->
<g id="edge34_Node000040_Node000008" class="edge">
<title>Node40&#45;&gt;Node8</title>
<g id="a_edge34_Node000040_Node000008"><a xlink:title=" ">
<path fill="none" stroke="#63b8ff" d="M675.96,-388.67C632.78,-382.13 564.84,-368.94 549.5,-349 517.71,-307.66 537.18,-140.52 544.83,-84.16"/>
<polygon fill="#63b8ff" stroke="#63b8ff" points="548.31,-84.55 546.22,-74.17 541.37,-83.59 548.31,-84.55"/>
</a>
</g>
</g>
<!-- Node40&#45;&gt;Node12 -->
<g id="edge32_Node000040_Node000012" class="edge">
<title>Node40&#45;&gt;Node12</title>
<g id="a_edge32_Node000040_Node000012"><a xlink:title=" ">
<path fill="none" stroke="#63b8ff" d="M749.27,-392.91C781.79,-390.2 827.53,-380.54 850.5,-349 860.03,-335.92 855.55,-317.28 849.88,-303.58"/>
<polygon fill="#63b8ff" stroke="#63b8ff" points="852.92,-301.82 845.52,-294.23 846.58,-304.78 852.92,-301.82"/>
</a>
</g>
</g>
<!-- Node40&#45;&gt;Node35 -->
<g id="edge39_Node000040_Node000035" class="edge">
<title>Node40&#45;&gt;Node35</title>
<g id="a_edge39_Node000040_Node000035"><a xlink:title=" ">
<path fill="none" stroke="#63b8ff" d="M749.06,-389.08C823.2,-378.09 991.55,-342.51 1078.5,-239 1089.07,-226.42 1094.07,-208.22 1096.42,-194.53"/>
<polygon fill="#63b8ff" stroke="#63b8ff" points="1099.93,-194.7 1097.84,-184.31 1093,-193.74 1099.93,-194.7"/>
</a>
</g>
</g>
<!-- Node41 -->
<g id="Node000041" class="node">
<title>Node41</title>
<g id="a_Node000041"><a xlink:href="mp__arith_8h.html" target="_top" xlink:title=" ">
<polygon fill="white" stroke="#666666" points="461,-294 392,-294 392,-275 461,-275 461,-294"/>
<text text-anchor="middle" x="426.5" y="-282" font-family="Helvetica,sans-Serif" font-size="10.00">mp_arith.h</text>
</a>
</g>
</g>
<!-- Node40&#45;&gt;Node41 -->
<g id="edge35_Node000040_Node000041" class="edge">
<title>Node40&#45;&gt;Node41</title>
<g id="a_edge35_Node000040_Node000041"><a xlink:title=" ">
<path fill="none" stroke="#63b8ff" d="M675.75,-389.51C635.32,-384.13 569.1,-372.42 516.5,-349 489.13,-336.81 461.55,-315.76 444.27,-301.25"/>
<polygon fill="#63b8ff" stroke="#63b8ff" points="446.09,-298.21 436.22,-294.35 441.53,-303.52 446.09,-298.21"/>
</a>
</g>
</g>
<!-- Node26 -->
<g id="Node000026" class="node">
<title>Node26</title>
<g id="a_Node000026"><a xlink:title=" ">
<polygon fill="#e0e0e0" stroke="#999999" points="750,-349 657,-349 657,-330 750,-330 750,-349"/>
<text text-anchor="middle" x="703.5" y="-337" font-family="Helvetica,sans-Serif" font-size="10.00">unordered_map</text>
</a>
</g>
</g>
<!-- Node40&#45;&gt;Node26 -->
<g id="edge40_Node000040_Node000026" class="edge">
<title>Node40&#45;&gt;Node26</title>
<g id="a_edge40_Node000040_Node000026"><a xlink:title=" ">
<path fill="none" stroke="#63b8ff" d="M711.01,-384.75C709.83,-377.8 708.14,-367.85 706.66,-359.13"/>
<polygon fill="#63b8ff" stroke="#63b8ff" points="710.08,-358.36 704.96,-349.09 703.18,-359.53 710.08,-358.36"/>
</a>
</g>
</g>
<!-- Node41&#45;&gt;Node11 -->
<g id="edge37_Node000041_Node000011" class="edge">
<title>Node41&#45;&gt;Node11</title>
<g id="a_edge37_Node000041_Node000011"><a xlink:title=" ">
<path fill="none" stroke="#63b8ff" d="M391.91,-280.85C337.19,-274.57 232.06,-253.6 185.5,-184 150.76,-132.07 205.82,-58.83 234.23,-26.69"/>
<polygon fill="#63b8ff" stroke="#63b8ff" points="236.99,-28.86 241.12,-19.1 231.81,-24.15 236.99,-28.86"/>
</a>
</g>
</g>
<!-- Node21 -->
<g id="Node000021" class="node">
<title>Node21</title>
<g id="a_Node000021"><a xlink:title=" ">
<polygon fill="#e0e0e0" stroke="#999999" points="519.5,-239 471.5,-239 471.5,-220 519.5,-220 519.5,-239"/>
<text text-anchor="middle" x="495.5" y="-227" font-family="Helvetica,sans-Serif" font-size="10.00">iosfwd</text>
</a>
</g>
</g>
<!-- Node41&#45;&gt;Node21 -->
<g id="edge36_Node000041_Node000021" class="edge">
<title>Node41&#45;&gt;Node21</title>
<g id="a_edge36_Node000041_Node000021"><a xlink:title=" ">
<path fill="none" stroke="#63b8ff" d="M437.59,-274.98C447.99,-267 463.76,-254.88 476.22,-245.31"/>
<polygon fill="#63b8ff" stroke="#63b8ff" points="478.41,-248.04 484.21,-239.17 474.15,-242.49 478.41,-248.04"/>
</a>
</g>
</g>
<!-- Node42 -->
<g id="Node000042" class="node">
<title>Node42</title>
<g id="a_Node000042"><a xlink:title=" ">
<polygon fill="#e0e0e0" stroke="#999999" points="453.5,-239 359.5,-239 359.5,-220 453.5,-220 453.5,-239"/>
<text text-anchor="middle" x="406.5" y="-227" font-family="Helvetica,sans-Serif" font-size="10.00">big&#45;int/bigint.hh</text>
</a>
</g>
</g>
<!-- Node41&#45;&gt;Node42 -->
<g id="edge38_Node000041_Node000042" class="edge">
<title>Node41&#45;&gt;Node42</title>
<g id="a_edge38_Node000041_Node000042"><a xlink:title=" ">
<path fill="none" stroke="#63b8ff" d="M423.2,-274.75C420.52,-267.65 416.65,-257.4 413.31,-248.56"/>
<polygon fill="#63b8ff" stroke="#63b8ff" points="416.55,-247.21 409.74,-239.09 410,-249.68 416.55,-247.21"/>
</a>
</g>
</g>
<!-- Node43&#45;&gt;Node8 -->
<g id="edge44_Node000043_Node000008" class="edge">
<title>Node43&#45;&gt;Node8</title>
<g id="a_edge44_Node000043_Node000008"><a xlink:title=" ">
<path fill="none" stroke="#63b8ff" d="M596.75,-329.86C593.2,-311.6 585.5,-267.7 585.5,-230.5 585.5,-230.5 585.5,-230.5 585.5,-173.5 585.5,-140.02 569.05,-103.84 557.8,-83.01"/>
<polygon fill="#63b8ff" stroke="#63b8ff" points="560.74,-81.1 552.78,-74.1 554.63,-84.53 560.74,-81.1"/>
</a>
</g>
</g>
<!-- Node43&#45;&gt;Node12 -->
<g id="edge43_Node000043_Node000012" class="edge">
<title>Node43&#45;&gt;Node12</title>
<g id="a_edge43_Node000043_Node000012"><a xlink:title=" ">
<path fill="none" stroke="#63b8ff" d="M637.38,-329.98C684.26,-319.72 762.28,-302.63 806.74,-292.89"/>
<polygon fill="#63b8ff" stroke="#63b8ff" points="807.73,-296.26 816.75,-290.7 806.24,-289.42 807.73,-296.26"/>
</a>
</g>
</g>
<!-- Node43&#45;&gt;Node21 -->
<g id="edge42_Node000043_Node000021" class="edge">
<title>Node43&#45;&gt;Node21</title>
<g id="a_edge42_Node000043_Node000021"><a xlink:title=" ">
<path fill="none" stroke="#63b8ff" d="M590.07,-329.66C572.71,-311.46 532.74,-269.55 510.73,-246.47"/>
<polygon fill="#63b8ff" stroke="#63b8ff" points="513.19,-243.98 503.76,-239.16 508.13,-248.81 513.19,-243.98"/>
</a>
</g>
</g>
<!-- Node44&#45;&gt;Node16 -->
<g id="edge46_Node000044_Node000016" class="edge">
<title>Node44&#45;&gt;Node16</title>
<g id="a_edge46_Node000044_Node000016"><a xlink:title=" ">
<path fill="none" stroke="#63b8ff" d="M370.05,-549.77C357.61,-532.04 331.5,-490.11 331.5,-450.5 331.5,-450.5 331.5,-450.5 331.5,-283.5 331.5,-254.04 330.5,-241.63 350.5,-220 380.58,-187.45 409.45,-212.37 443.5,-184 458.07,-171.86 468.75,-152.79 475.21,-138.72"/>
<polygon fill="#63b8ff" stroke="#63b8ff" points="478.6,-139.7 479.32,-129.13 472.16,-136.94 478.6,-139.7"/>
</a>
</g>
</g>
<!-- Node45 -->
<g id="Node000045" class="node">
<title>Node45</title>
<g id="a_Node000045"><a xlink:href="pointer__expr_8h.html" target="_top" xlink:title="API to expression classes for Pointers.">
<polygon fill="white" stroke="#666666" points="586.5,-514 500.5,-514 500.5,-495 586.5,-495 586.5,-514"/>
<text text-anchor="middle" x="543.5" y="-502" font-family="Helvetica,sans-Serif" font-size="10.00">pointer_expr.h</text>
</a>
</g>
</g>
<!-- Node44&#45;&gt;Node45 -->
<g id="edge47_Node000044_Node000045" class="edge">
<title>Node44&#45;&gt;Node45</title>
<g id="a_edge47_Node000044_Node000045"><a xlink:title=" ">
<path fill="none" stroke="#63b8ff" d="M403.33,-549.98C431.37,-541.09 475.55,-527.07 506.8,-517.15"/>
<polygon fill="#63b8ff" stroke="#63b8ff" points="507.99,-520.44 516.46,-514.08 505.87,-513.77 507.99,-520.44"/>
</a>
</g>
</g>
<!-- Node45&#45;&gt;Node3 -->
<g id="edge50_Node000045_Node000003" class="edge">
<title>Node45&#45;&gt;Node3</title>
<g id="a_edge50_Node000045_Node000003"><a xlink:title=" ">
<path fill="none" stroke="#63b8ff" d="M576.6,-494.98C611.78,-485.93 667.57,-471.58 706.22,-461.64"/>
<polygon fill="#63b8ff" stroke="#63b8ff" points="707.33,-464.96 716.14,-459.08 705.59,-458.18 707.33,-464.96"/>
</a>
</g>
</g>
<!-- Node46 -->
<g id="Node000046" class="node">
<title>Node46</title>
<g id="a_Node000046"><a xlink:href="bitvector__types_8h.html" target="_top" xlink:title="Pre&#45;defined bitvector types.">
<polygon fill="white" stroke="#666666" points="688,-459 587,-459 587,-440 688,-440 688,-459"/>
<text text-anchor="middle" x="637.5" y="-447" font-family="Helvetica,sans-Serif" font-size="10.00">bitvector_types.h</text>
</a>
</g>
</g>
<!-- Node45&#45;&gt;Node46 -->
<g id="edge48_Node000045_Node000046" class="edge">
<title>Node45&#45;&gt;Node46</title>
<g id="a_edge48_Node000045_Node000046"><a xlink:title=" ">
<path fill="none" stroke="#63b8ff" d="M558.6,-494.98C573.32,-486.69 595.92,-473.94 613.17,-464.22"/>
<polygon fill="#63b8ff" stroke="#63b8ff" points="615.13,-467.13 622.12,-459.17 611.69,-461.03 615.13,-467.13"/>
</a>
</g>
</g>
<!-- Node46&#45;&gt;Node40 -->
<g id="edge49_Node000046_Node000040" class="edge">
<title>Node46&#45;&gt;Node40</title>
<g id="a_edge49_Node000046_Node000040"><a xlink:title=" ">
<path fill="none" stroke="#63b8ff" d="M649.55,-439.98C660.96,-431.92 678.33,-419.65 691.93,-410.03"/>
<polygon fill="#63b8ff" stroke="#63b8ff" points="694.08,-412.8 700.23,-404.17 690.04,-407.08 694.08,-412.8"/>
</a>
</g>
</g>
<!-- Node47&#45;&gt;Node4 -->
<g id="edge52_Node000047_Node000004" class="edge">
<title>Node47&#45;&gt;Node4</title>
<g id="a_edge52_Node000047_Node000004"><a xlink:title=" ">
<path fill="none" stroke="#63b8ff" d="M951.38,-384.98C921.88,-376.05 875.31,-361.94 842.53,-352.02"/>
<polygon fill="#63b8ff" stroke="#63b8ff" points="843.42,-348.63 832.84,-349.08 841.39,-355.33 843.42,-348.63"/>
</a>
</g>
</g>
<!-- Node47&#45;&gt;Node8 -->
<g id="edge53_Node000047_Node000008" class="edge">
<title>Node47&#45;&gt;Node8</title>
<g id="a_edge53_Node000047_Node000008"><a xlink:title=" ">
<path fill="none" stroke="#63b8ff" d="M1052.09,-387.29C1115.51,-377.41 1197.5,-351.81 1197.5,-285.5 1197.5,-285.5 1197.5,-285.5 1197.5,-228.5 1197.5,-160.44 1160.79,-141.58 1100.5,-110 1055.99,-86.68 716.63,-71.81 592.66,-67.11"/>
<polygon fill="#63b8ff" stroke="#63b8ff" points="592.5,-63.6 582.38,-66.72 592.24,-70.6 592.5,-63.6"/>
</a>
</g>
</g>
<!-- Node47&#45;&gt;Node14 -->
<g id="edge54_Node000047_Node000014" class="edge">
<title>Node47&#45;&gt;Node14</title>
<g id="a_edge54_Node000047_Node000014"><a xlink:title=" ">
<path fill="none" stroke="#63b8ff" d="M982.3,-384.74C990.44,-359.2 1014.3,-284.43 1025.52,-249.23"/>
<polygon fill="#63b8ff" stroke="#63b8ff" points="1028.99,-249.9 1028.69,-239.31 1022.32,-247.77 1028.99,-249.9"/>
</a>
</g>
</g>
<!-- Node48&#45;&gt;Node7 -->
<g id="edge58_Node000048_Node000007" class="edge">
<title>Node48&#45;&gt;Node7</title>
<g id="a_edge58_Node000048_Node000007"><a xlink:title=" ">
<path fill="none" stroke="#63b8ff" d="M262.28,-278.42C352.11,-268.22 553.26,-245.39 641.56,-235.37"/>
<polygon fill="#63b8ff" stroke="#63b8ff" points="642.21,-238.82 651.75,-234.22 641.42,-231.87 642.21,-238.82"/>
</a>
</g>
</g>
<!-- Node48&#45;&gt;Node8 -->
<g id="edge56_Node000048_Node000008" class="edge">
<title>Node48&#45;&gt;Node8</title>
<g id="a_edge56_Node000048_Node000008"><a xlink:title=" ">
<path fill="none" stroke="#63b8ff" d="M228.97,-274.9C247.01,-261.66 283.51,-236.16 317.5,-220 363.2,-198.28 392.97,-222.75 425.5,-184 446.88,-158.53 415.89,-136.09 436.5,-110 452.71,-89.47 479.86,-78.37 503.24,-72.39"/>
<polygon fill="#63b8ff" stroke="#63b8ff" points="504.04,-75.8 512.99,-70.13 502.46,-68.98 504.04,-75.8"/>
</a>
</g>
</g>
<!-- Node48&#45;&gt;Node10 -->
<g id="edge60_Node000048_Node000010" class="edge">
<title>Node48&#45;&gt;Node10</title>
<g id="a_edge60_Node000048_Node000010"><a xlink:title=" ">
<path fill="none" stroke="#63b8ff" d="M201.68,-274.92C176.07,-260.1 126.02,-227.11 102.5,-184 74.95,-133.52 95.04,-62.11 107.13,-28.86"/>
<polygon fill="#63b8ff" stroke="#63b8ff" points="110.55,-29.73 110.84,-19.13 104.01,-27.23 110.55,-29.73"/>
</a>
</g>
</g>
<!-- Node48&#45;&gt;Node11 -->
<g id="edge61_Node000048_Node000011" class="edge">
<title>Node48&#45;&gt;Node11</title>
<g id="a_edge61_Node000048_Node000011"><a xlink:title=" ">
<path fill="none" stroke="#63b8ff" d="M209.28,-274.66C197.6,-262.2 175.4,-238.87 155.5,-220 137.91,-203.31 124.5,-206.09 114.5,-184 90.85,-131.77 80.9,-101.46 114.5,-55 137.82,-22.75 185.34,-13.47 217.31,-11.02"/>
<polygon fill="#63b8ff" stroke="#63b8ff" points="217.71,-14.51 227.49,-10.43 217.31,-7.52 217.71,-14.51"/>
</a>
</g>
</g>
<!-- Node48&#45;&gt;Node15 -->
<g id="edge57_Node000048_Node000015" class="edge">
<title>Node48&#45;&gt;Node15</title>
<g id="a_edge57_Node000048_Node000015"><a xlink:title=" ">
<path fill="none" stroke="#63b8ff" d="M224.4,-274.83C235.13,-261.74 256.96,-236.69 279.5,-220 296.67,-207.29 317.98,-196.23 335.09,-188.32"/>
<polygon fill="#63b8ff" stroke="#63b8ff" points="336.93,-191.33 344.62,-184.04 334.06,-184.94 336.93,-191.33"/>
</a>
</g>
</g>
<!-- Node48&#45;&gt;Node21 -->
<g id="edge59_Node000048_Node000021" class="edge">
<title>Node48&#45;&gt;Node21</title>
<g id="a_edge59_Node000048_Node000021"><a xlink:title=" ">
<path fill="none" stroke="#63b8ff" d="M262.4,-276.35C309.56,-268.61 386.1,-255.43 461.28,-239.14"/>
<polygon fill="#63b8ff" stroke="#63b8ff" points="462.38,-242.48 471.4,-236.92 460.88,-235.64 462.38,-242.48"/>
</a>
</g>
</g>
<!-- Node49&#45;&gt;Node8 -->
<g id="edge63_Node000049_Node000008" class="edge">
<title>Node49&#45;&gt;Node8</title>
<g id="a_edge63_Node000049_Node000008"><a xlink:title=" ">
<path fill="none" stroke="#63b8ff" d="M265.25,-164.95C294.97,-152.23 353.07,-127.89 403.5,-110 438.24,-97.67 478.36,-85.44 507.41,-76.92"/>
<polygon fill="#63b8ff" stroke="#63b8ff" points="508.58,-80.23 517.2,-74.07 506.62,-73.51 508.58,-80.23"/>
</a>
</g>
</g>
<!-- Node49&#45;&gt;Node17 -->
<g id="edge64_Node000049_Node000017" class="edge">
<title>Node49&#45;&gt;Node17</title>
<g id="a_edge64_Node000049_Node000017"><a xlink:title=" ">
<path fill="none" stroke="#63b8ff" d="M246.16,-164.75C246.68,-157.8 247.44,-147.85 248.09,-139.13"/>
<polygon fill="#63b8ff" stroke="#63b8ff" points="251.59,-139.32 248.85,-129.09 244.61,-138.8 251.59,-139.32"/>
</a>
</g>
</g>
<!-- Node50&#45;&gt;Node17 -->
<g id="edge66_Node000050_Node000017" class="edge">
<title>Node50&#45;&gt;Node17</title>
<g id="a_edge66_Node000050_Node000017"><a xlink:title=" ">
<path fill="none" stroke="#63b8ff" d="M65.5,-494.82C65.5,-476.48 65.5,-432.44 65.5,-395.5 65.5,-395.5 65.5,-395.5 65.5,-283.5 65.5,-203.11 165.11,-152.78 217.75,-131.79"/>
<polygon fill="#63b8ff" stroke="#63b8ff" points="219.24,-134.97 227.31,-128.1 216.72,-128.44 219.24,-134.97"/>
</a>
</g>
</g>
</g>
</svg>
