<?xml version="1.0" encoding="UTF-8" standalone="no"?>
<!DOCTYPE svg PUBLIC "-//W3C//DTD SVG 1.1//EN"
 "http://www.w3.org/Graphics/SVG/1.1/DTD/svg11.dtd">
<!-- Generated by graphviz version 2.43.0 (0)
 -->
<!-- Title: /home/runner/work/cbmc/cbmc/jbmc/unit/java&#45;testing&#45;utils/load_java_class.h Pages: 1 -->
<svg width="1290pt" height="731pt"
 viewBox="0.00 0.00 1289.50 731.00" xmlns="http://www.w3.org/2000/svg" xmlns:xlink="http://www.w3.org/1999/xlink">
<g id="graph0" class="graph" transform="scale(1 1) rotate(0) translate(4 727)">
<title>/home/runner/work/cbmc/cbmc/jbmc/unit/java&#45;testing&#45;utils/load_java_class.h</title>
<!-- Node1 -->
<g id="Node000001" class="node">
<title>Node1</title>
<g id="a_Node000001"><a xlink:title="Utility for loading and parsing a specified java class file, returning the symbol table generated by ...">
<polygon fill="#999999" stroke="#666666" points="868,-723 712,-723 712,-682 868,-682 868,-723"/>
<text text-anchor="start" x="720" y="-711" font-family="Helvetica,sans-Serif" font-size="10.00">/home/runner/work/cbmc</text>
<text text-anchor="start" x="720" y="-700" font-family="Helvetica,sans-Serif" font-size="10.00">/cbmc/jbmc/unit/java&#45;testing</text>
<text text-anchor="middle" x="790" y="-689" font-family="Helvetica,sans-Serif" font-size="10.00">&#45;utils/load_java_class.h</text>
</a>
</g>
</g>
<!-- Node2 -->
<g id="Node000002" class="node">
<title>Node2</title>
<g id="a_Node000002"><a xlink:href="symbol__table_8h.html" target="_top" xlink:title="Author: Diffblue Ltd.">
<polygon fill="white" stroke="#666666" points="670,-580 560,-580 560,-561 670,-561 670,-580"/>
<text text-anchor="middle" x="615" y="-568" font-family="Helvetica,sans-Serif" font-size="10.00">util/symbol_table.h</text>
</a>
</g>
</g>
<!-- Node1&#45;&gt;Node2 -->
<g id="edge1_Node000001_Node000002" class="edge">
<title>Node1&#45;&gt;Node2</title>
<g id="a_edge1_Node000001_Node000002"><a xlink:title=" ">
<path fill="none" stroke="#63b8ff" d="M763.42,-681.76C728.09,-655.51 666.45,-609.72 634.88,-586.26"/>
<polygon fill="#63b8ff" stroke="#63b8ff" points="636.57,-583.17 626.46,-580.01 632.4,-588.79 636.57,-583.17"/>
</a>
</g>
</g>
<!-- Node40 -->
<g id="Node000040" class="node">
<title>Node40</title>
<g id="a_Node000040"><a xlink:href="goto__model_8h.html" target="_top" xlink:title="Symbol Table + CFG.">
<polygon fill="white" stroke="#666666" points="846.5,-646 733.5,-646 733.5,-616 846.5,-616 846.5,-646"/>
<text text-anchor="start" x="741.5" y="-634" font-family="Helvetica,sans-Serif" font-size="10.00">goto&#45;programs/goto</text>
<text text-anchor="middle" x="790" y="-623" font-family="Helvetica,sans-Serif" font-size="10.00">_model.h</text>
</a>
</g>
</g>
<!-- Node1&#45;&gt;Node40 -->
<g id="edge26_Node000001_Node000040" class="edge">
<title>Node1&#45;&gt;Node40</title>
<g id="a_edge26_Node000001_Node000040"><a xlink:title=" ">
<path fill="none" stroke="#63b8ff" d="M790,-681.77C790,-673.85 790,-664.63 790,-656.3"/>
<polygon fill="#63b8ff" stroke="#63b8ff" points="793.5,-656.04 790,-646.04 786.5,-656.04 793.5,-656.04"/>
</a>
</g>
</g>
<!-- Node61 -->
<g id="Node000061" class="node">
<title>Node61</title>
<g id="a_Node000061"><a xlink:title=" ">
<polygon fill="#e0e0e0" stroke="#999999" points="923,-640.5 865,-640.5 865,-621.5 923,-621.5 923,-640.5"/>
<text text-anchor="middle" x="894" y="-628.5" font-family="Helvetica,sans-Serif" font-size="10.00">memory</text>
</a>
</g>
</g>
<!-- Node1&#45;&gt;Node61 -->
<g id="edge66_Node000001_Node000061" class="edge">
<title>Node1&#45;&gt;Node61</title>
<g id="a_edge66_Node000001_Node000061"><a xlink:title=" ">
<path fill="none" stroke="#63b8ff" d="M819.25,-681.96C836.32,-670.54 857.48,-656.41 872.92,-646.09"/>
<polygon fill="#63b8ff" stroke="#63b8ff" points="874.91,-648.97 881.28,-640.5 871.02,-643.15 874.91,-648.97"/>
</a>
</g>
</g>
<!-- Node3 -->
<g id="Node000003" class="node">
<title>Node3</title>
<g id="a_Node000003"><a xlink:href="symbol__table__base_8h.html" target="_top" xlink:title="Author: Diffblue Ltd.">
<polygon fill="white" stroke="#666666" points="666,-404 546,-404 546,-385 666,-385 666,-404"/>
<text text-anchor="middle" x="606" y="-392" font-family="Helvetica,sans-Serif" font-size="10.00">symbol_table_base.h</text>
</a>
</g>
</g>
<!-- Node2&#45;&gt;Node3 -->
<g id="edge2_Node000002_Node000003" class="edge">
<title>Node2&#45;&gt;Node3</title>
<g id="a_edge2_Node000002_Node000003"><a xlink:title=" ">
<path fill="none" stroke="#63b8ff" d="M614.54,-560.63C613.14,-533.64 608.92,-452.03 606.99,-414.61"/>
<polygon fill="#63b8ff" stroke="#63b8ff" points="610.46,-413.95 606.45,-404.14 603.47,-414.31 610.46,-413.95"/>
</a>
</g>
</g>
<!-- Node4 -->
<g id="Node000004" class="node">
<title>Node4</title>
<g id="a_Node000004"><a xlink:href="symbol_8h.html" target="_top" xlink:title="Symbol table entry.">
<polygon fill="white" stroke="#666666" points="617,-349 555,-349 555,-330 617,-330 617,-349"/>
<text text-anchor="middle" x="586" y="-337" font-family="Helvetica,sans-Serif" font-size="10.00">symbol.h</text>
</a>
</g>
</g>
<!-- Node3&#45;&gt;Node4 -->
<g id="edge3_Node000003_Node000004" class="edge">
<title>Node3&#45;&gt;Node4</title>
<g id="a_edge3_Node000003_Node000004"><a xlink:title=" ">
<path fill="none" stroke="#63b8ff" d="M602.7,-384.75C600.02,-377.65 596.15,-367.4 592.81,-358.56"/>
<polygon fill="#63b8ff" stroke="#63b8ff" points="596.05,-357.21 589.24,-349.09 589.5,-359.68 596.05,-357.21"/>
</a>
</g>
</g>
<!-- Node23 -->
<g id="Node000023" class="node">
<title>Node23</title>
<g id="a_Node000023"><a xlink:title=" ">
<polygon fill="#e0e0e0" stroke="#999999" points="660,-294 628,-294 628,-275 660,-275 660,-294"/>
<text text-anchor="middle" x="644" y="-282" font-family="Helvetica,sans-Serif" font-size="10.00">list</text>
</a>
</g>
</g>
<!-- Node3&#45;&gt;Node23 -->
<g id="edge23_Node000003_Node000023" class="edge">
<title>Node3&#45;&gt;Node23</title>
<g id="a_edge23_Node000003_Node000023"><a xlink:title=" ">
<path fill="none" stroke="#63b8ff" d="M610.37,-384.79C614.71,-375.93 621.36,-361.73 626,-349 631.4,-334.18 636.2,-316.93 639.48,-304.16"/>
<polygon fill="#63b8ff" stroke="#63b8ff" points="642.92,-304.81 641.95,-294.26 636.13,-303.11 642.92,-304.81"/>
</a>
</g>
</g>
<!-- Node39 -->
<g id="Node000039" class="node">
<title>Node39</title>
<g id="a_Node000039"><a xlink:title=" ">
<polygon fill="#e0e0e0" stroke="#999999" points="537,-349 499,-349 499,-330 537,-330 537,-349"/>
<text text-anchor="middle" x="518" y="-337" font-family="Helvetica,sans-Serif" font-size="10.00">map</text>
</a>
</g>
</g>
<!-- Node3&#45;&gt;Node39 -->
<g id="edge24_Node000003_Node000039" class="edge">
<title>Node3&#45;&gt;Node39</title>
<g id="a_edge24_Node000003_Node000039"><a xlink:title=" ">
<path fill="none" stroke="#63b8ff" d="M591.86,-384.98C578.21,-376.77 557.31,-364.18 541.22,-354.49"/>
<polygon fill="#63b8ff" stroke="#63b8ff" points="542.77,-351.33 532.4,-349.17 539.16,-357.33 542.77,-351.33"/>
</a>
</g>
</g>
<!-- Node24 -->
<g id="Node000024" class="node">
<title>Node24</title>
<g id="a_Node000024"><a xlink:title=" ">
<polygon fill="#e0e0e0" stroke="#999999" points="480.5,-349 387.5,-349 387.5,-330 480.5,-330 480.5,-349"/>
<text text-anchor="middle" x="434" y="-337" font-family="Helvetica,sans-Serif" font-size="10.00">unordered_map</text>
</a>
</g>
</g>
<!-- Node3&#45;&gt;Node24 -->
<g id="edge25_Node000003_Node000024" class="edge">
<title>Node3&#45;&gt;Node24</title>
<g id="a_edge25_Node000003_Node000024"><a xlink:title=" ">
<path fill="none" stroke="#63b8ff" d="M578.37,-384.98C549.49,-376.09 503.99,-362.07 471.8,-352.15"/>
<polygon fill="#63b8ff" stroke="#63b8ff" points="472.44,-348.68 461.85,-349.08 470.38,-355.37 472.44,-348.68"/>
</a>
</g>
</g>
<!-- Node5 -->
<g id="Node000005" class="node">
<title>Node5</title>
<g id="a_Node000005"><a xlink:title=" ">
<polygon fill="#e0e0e0" stroke="#999999" points="610,-294 562,-294 562,-275 610,-275 610,-294"/>
<text text-anchor="middle" x="586" y="-282" font-family="Helvetica,sans-Serif" font-size="10.00">iosfwd</text>
</a>
</g>
</g>
<!-- Node4&#45;&gt;Node5 -->
<g id="edge4_Node000004_Node000005" class="edge">
<title>Node4&#45;&gt;Node5</title>
<g id="a_edge4_Node000004_Node000005"><a xlink:title=" ">
<path fill="none" stroke="#63b8ff" d="M586,-329.75C586,-322.8 586,-312.85 586,-304.13"/>
<polygon fill="#63b8ff" stroke="#63b8ff" points="589.5,-304.09 586,-294.09 582.5,-304.09 589.5,-304.09"/>
</a>
</g>
</g>
<!-- Node6 -->
<g id="Node000006" class="node">
<title>Node6</title>
<g id="a_Node000006"><a xlink:href="expr_8h.html" target="_top" xlink:title=" ">
<polygon fill="white" stroke="#666666" points="311.5,-294 264.5,-294 264.5,-275 311.5,-275 311.5,-294"/>
<text text-anchor="middle" x="288" y="-282" font-family="Helvetica,sans-Serif" font-size="10.00">expr.h</text>
</a>
</g>
</g>
<!-- Node4&#45;&gt;Node6 -->
<g id="edge5_Node000004_Node000006" class="edge">
<title>Node4&#45;&gt;Node6</title>
<g id="a_edge5_Node000004_Node000006"><a xlink:title=" ">
<path fill="none" stroke="#63b8ff" d="M554.58,-331.7C551.68,-331.11 548.79,-330.54 546,-330 465.74,-314.56 370.95,-298.85 321.63,-290.88"/>
<polygon fill="#63b8ff" stroke="#63b8ff" points="321.96,-287.38 311.53,-289.25 320.85,-294.29 321.96,-287.38"/>
</a>
</g>
</g>
<!-- Node14 -->
<g id="Node000014" class="node">
<title>Node14</title>
<g id="a_Node000014"><a xlink:href="src_2util_2invariant_8h.html" target="_top" xlink:title=" ">
<polygon fill="#fff0f0" stroke="red" points="722.5,-74 653.5,-74 653.5,-55 722.5,-55 722.5,-74"/>
<text text-anchor="middle" x="688" y="-62" font-family="Helvetica,sans-Serif" font-size="10.00">invariant.h</text>
</a>
</g>
</g>
<!-- Node4&#45;&gt;Node14 -->
<g id="edge22_Node000004_Node000014" class="edge">
<title>Node4&#45;&gt;Node14</title>
<g id="a_edge22_Node000004_Node000014"><a xlink:title=" ">
<path fill="none" stroke="#63b8ff" d="M575.42,-329.64C561.84,-317.14 541.32,-293.78 553,-275 572.1,-244.28 601.93,-266.01 626,-239 666.73,-193.3 681.21,-118.97 685.93,-84.35"/>
<polygon fill="#63b8ff" stroke="#63b8ff" points="689.42,-84.59 687.18,-74.24 682.48,-83.73 689.42,-84.59"/>
</a>
</g>
</g>
<!-- Node7 -->
<g id="Node000007" class="node">
<title>Node7</title>
<g id="a_Node000007"><a xlink:href="as__const_8h.html" target="_top" xlink:title=" ">
<polygon fill="white" stroke="#666666" points="584,-239 516,-239 516,-220 584,-220 584,-239"/>
<text text-anchor="middle" x="550" y="-227" font-family="Helvetica,sans-Serif" font-size="10.00">as_const.h</text>
</a>
</g>
</g>
<!-- Node6&#45;&gt;Node7 -->
<g id="edge6_Node000006_Node000007" class="edge">
<title>Node6&#45;&gt;Node7</title>
<g id="a_edge6_Node000006_Node000007"><a xlink:title=" ">
<path fill="none" stroke="#63b8ff" d="M311.71,-278.7C355.59,-269.83 450.05,-250.72 505.96,-239.41"/>
<polygon fill="#63b8ff" stroke="#63b8ff" points="506.83,-242.8 515.93,-237.39 505.44,-235.94 506.83,-242.8"/>
</a>
</g>
</g>
<!-- Node8 -->
<g id="Node000008" class="node">
<title>Node8</title>
<g id="a_Node000008"><a xlink:href="type_8h.html" target="_top" xlink:title="Defines typet, type_with_subtypet and type_with_subtypest.">
<polygon fill="white" stroke="#666666" points="311.5,-239 264.5,-239 264.5,-220 311.5,-220 311.5,-239"/>
<text text-anchor="middle" x="288" y="-227" font-family="Helvetica,sans-Serif" font-size="10.00">type.h</text>
</a>
</g>
</g>
<!-- Node6&#45;&gt;Node8 -->
<g id="edge7_Node000006_Node000008" class="edge">
<title>Node6&#45;&gt;Node8</title>
<g id="a_edge7_Node000006_Node000008"><a xlink:title=" ">
<path fill="none" stroke="#63b8ff" d="M288,-274.75C288,-267.8 288,-257.85 288,-249.13"/>
<polygon fill="#63b8ff" stroke="#63b8ff" points="291.5,-249.09 288,-239.09 284.5,-249.09 291.5,-249.09"/>
</a>
</g>
</g>
<!-- Node35 -->
<g id="Node000035" class="node">
<title>Node35</title>
<g id="a_Node000035"><a xlink:href="validation__mode_8h.html" target="_top" xlink:title=" ">
<polygon fill="white" stroke="#666666" points="264.5,-129 157.5,-129 157.5,-110 264.5,-110 264.5,-129"/>
<text text-anchor="middle" x="211" y="-117" font-family="Helvetica,sans-Serif" font-size="10.00">validation_mode.h</text>
</a>
</g>
</g>
<!-- Node6&#45;&gt;Node35 -->
<g id="edge20_Node000006_Node000035" class="edge">
<title>Node6&#45;&gt;Node35</title>
<g id="a_edge20_Node000006_Node000035"><a xlink:title=" ">
<path fill="none" stroke="#63b8ff" d="M277.58,-274.99C259.28,-259.29 221.99,-223.72 208,-184 202.9,-169.51 204.23,-152 206.51,-139.04"/>
<polygon fill="#63b8ff" stroke="#63b8ff" points="209.99,-139.52 208.62,-129.01 203.14,-138.08 209.99,-139.52"/>
</a>
</g>
</g>
<!-- Node36 -->
<g id="Node000036" class="node">
<title>Node36</title>
<g id="a_Node000036"><a xlink:href="validate__types_8h.html" target="_top" xlink:title=" ">
<polygon fill="white" stroke="#666666" points="437,-184 339,-184 339,-165 437,-165 437,-184"/>
<text text-anchor="middle" x="388" y="-172" font-family="Helvetica,sans-Serif" font-size="10.00">validate_types.h</text>
</a>
</g>
</g>
<!-- Node6&#45;&gt;Node36 -->
<g id="edge19_Node000006_Node000036" class="edge">
<title>Node6&#45;&gt;Node36</title>
<g id="a_edge19_Node000006_Node000036"><a xlink:title=" ">
<path fill="none" stroke="#63b8ff" d="M296.18,-274.66C312.97,-256.54 351.51,-214.91 372.93,-191.77"/>
<polygon fill="#63b8ff" stroke="#63b8ff" points="375.76,-193.87 379.98,-184.16 370.62,-189.12 375.76,-193.87"/>
</a>
</g>
</g>
<!-- Node37 -->
<g id="Node000037" class="node">
<title>Node37</title>
<g id="a_Node000037"><a xlink:href="validate__expressions_8h.html" target="_top" xlink:title=" ">
<polygon fill="white" stroke="#666666" points="497.5,-239 368.5,-239 368.5,-220 497.5,-220 497.5,-239"/>
<text text-anchor="middle" x="433" y="-227" font-family="Helvetica,sans-Serif" font-size="10.00">validate_expressions.h</text>
</a>
</g>
</g>
<!-- Node6&#45;&gt;Node37 -->
<g id="edge18_Node000006_Node000037" class="edge">
<title>Node6&#45;&gt;Node37</title>
<g id="a_edge18_Node000006_Node000037"><a xlink:title=" ">
<path fill="none" stroke="#63b8ff" d="M311.3,-274.98C335.25,-266.23 372.78,-252.51 399.83,-242.62"/>
<polygon fill="#63b8ff" stroke="#63b8ff" points="401.09,-245.89 409.28,-239.17 398.69,-239.32 401.09,-245.89"/>
</a>
</g>
</g>
<!-- Node38 -->
<g id="Node000038" class="node">
<title>Node38</title>
<g id="a_Node000038"><a xlink:title=" ">
<polygon fill="#e0e0e0" stroke="#999999" points="207.5,-239 142.5,-239 142.5,-220 207.5,-220 207.5,-239"/>
<text text-anchor="middle" x="175" y="-227" font-family="Helvetica,sans-Serif" font-size="10.00">functional</text>
</a>
</g>
</g>
<!-- Node6&#45;&gt;Node38 -->
<g id="edge21_Node000006_Node000038" class="edge">
<title>Node6&#45;&gt;Node38</title>
<g id="a_edge21_Node000006_Node000038"><a xlink:title=" ">
<path fill="none" stroke="#63b8ff" d="M269.84,-274.98C251.75,-266.5 223.72,-253.35 202.81,-243.54"/>
<polygon fill="#63b8ff" stroke="#63b8ff" points="204.03,-240.25 193.49,-239.17 201.05,-246.59 204.03,-240.25"/>
</a>
</g>
</g>
<!-- Node9 -->
<g id="Node000009" class="node">
<title>Node9</title>
<g id="a_Node000009"><a xlink:href="source__location_8h.html" target="_top" xlink:title=" ">
<polygon fill="#fff0f0" stroke="red" points="827,-184 725,-184 725,-165 827,-165 827,-184"/>
<text text-anchor="middle" x="776" y="-172" font-family="Helvetica,sans-Serif" font-size="10.00">source_location.h</text>
</a>
</g>
</g>
<!-- Node8&#45;&gt;Node9 -->
<g id="edge8_Node000008_Node000009" class="edge">
<title>Node8&#45;&gt;Node9</title>
<g id="a_edge8_Node000008_Node000009"><a xlink:title=" ">
<path fill="none" stroke="#63b8ff" d="M311.66,-225.59C325.46,-223.91 343.21,-221.79 359,-220 485.44,-205.69 633.6,-190.17 714.89,-181.77"/>
<polygon fill="#63b8ff" stroke="#63b8ff" points="715.36,-185.24 724.94,-180.74 714.64,-178.28 715.36,-185.24"/>
</a>
</g>
</g>
<!-- Node33 -->
<g id="Node000033" class="node">
<title>Node33</title>
<g id="a_Node000033"><a xlink:href="validate_8h.html" target="_top" xlink:title=" ">
<polygon fill="#fff0f0" stroke="red" points="282.5,-184 217.5,-184 217.5,-165 282.5,-165 282.5,-184"/>
<text text-anchor="middle" x="250" y="-172" font-family="Helvetica,sans-Serif" font-size="10.00">validate.h</text>
</a>
</g>
</g>
<!-- Node8&#45;&gt;Node33 -->
<g id="edge14_Node000008_Node000033" class="edge">
<title>Node8&#45;&gt;Node33</title>
<g id="a_edge14_Node000008_Node000033"><a xlink:title=" ">
<path fill="none" stroke="#63b8ff" d="M281.73,-219.75C276.41,-212.34 268.64,-201.5 262.12,-192.41"/>
<polygon fill="#63b8ff" stroke="#63b8ff" points="264.83,-190.18 256.16,-184.09 259.14,-194.26 264.83,-190.18"/>
</a>
</g>
</g>
<!-- Node8&#45;&gt;Node35 -->
<g id="edge17_Node000008_Node000035" class="edge">
<title>Node8&#45;&gt;Node35</title>
<g id="a_edge17_Node000008_Node000035"><a xlink:title=" ">
<path fill="none" stroke="#63b8ff" d="M291.16,-219.99C295.37,-207.11 301.18,-182.31 291,-165 282.26,-150.14 266.56,-139.88 251.37,-132.99"/>
<polygon fill="#63b8ff" stroke="#63b8ff" points="252.62,-129.72 242.05,-129.13 249.94,-136.19 252.62,-129.72"/>
</a>
</g>
</g>
<!-- Node8&#45;&gt;Node36 -->
<g id="edge16_Node000008_Node000036" class="edge">
<title>Node8&#45;&gt;Node36</title>
<g id="a_edge16_Node000008_Node000036"><a xlink:title=" ">
<path fill="none" stroke="#63b8ff" d="M304.07,-219.98C319.86,-211.61 344.22,-198.7 362.63,-188.95"/>
<polygon fill="#63b8ff" stroke="#63b8ff" points="364.44,-191.95 371.64,-184.17 361.17,-185.76 364.44,-191.95"/>
</a>
</g>
</g>
<!-- Node11 -->
<g id="Node000011" class="node">
<title>Node11</title>
<g id="a_Node000011"><a xlink:href="irep_8h.html" target="_top" xlink:title=" ">
<polygon fill="#fff0f0" stroke="red" points="1018,-129 974,-129 974,-110 1018,-110 1018,-129"/>
<text text-anchor="middle" x="996" y="-117" font-family="Helvetica,sans-Serif" font-size="10.00">irep.h</text>
</a>
</g>
</g>
<!-- Node9&#45;&gt;Node11 -->
<g id="edge9_Node000009_Node000011" class="edge">
<title>Node9&#45;&gt;Node11</title>
<g id="a_edge9_Node000009_Node000011"><a xlink:title=" ">
<path fill="none" stroke="#63b8ff" d="M811.35,-164.98C853.47,-154.84 923.25,-138.03 963.89,-128.23"/>
<polygon fill="#63b8ff" stroke="#63b8ff" points="964.91,-131.59 973.81,-125.85 963.27,-124.79 964.91,-131.59"/>
</a>
</g>
</g>
<!-- Node12 -->
<g id="Node000012" class="node">
<title>Node12</title>
<g id="a_Node000012"><a xlink:title=" ">
<polygon fill="#e0e0e0" stroke="#999999" points="798,-19 754,-19 754,0 798,0 798,-19"/>
<text text-anchor="middle" x="776" y="-7" font-family="Helvetica,sans-Serif" font-size="10.00">string</text>
</a>
</g>
</g>
<!-- Node9&#45;&gt;Node12 -->
<g id="edge13_Node000009_Node000012" class="edge">
<title>Node9&#45;&gt;Node12</title>
<g id="a_edge13_Node000009_Node000012"><a xlink:title=" ">
<path fill="none" stroke="#63b8ff" d="M776,-164.74C776,-139.31 776,-65.08 776,-29.69"/>
<polygon fill="#63b8ff" stroke="#63b8ff" points="779.5,-29.31 776,-19.31 772.5,-29.31 779.5,-29.31"/>
</a>
</g>
</g>
<!-- Node11&#45;&gt;Node12 -->
<g id="edge10_Node000011_Node000012" class="edge">
<title>Node11&#45;&gt;Node12</title>
<g id="a_edge10_Node000011_Node000012"><a xlink:title=" ">
<path fill="none" stroke="#63b8ff" d="M993.48,-109.59C989.07,-95.7 978.62,-69.04 960,-55 915.05,-21.1 847.87,-12.64 808.34,-10.76"/>
<polygon fill="#63b8ff" stroke="#63b8ff" points="808.32,-7.26 798.2,-10.39 808.07,-14.25 808.32,-7.26"/>
</a>
</g>
</g>
<!-- Node11&#45;&gt;Node14 -->
<g id="edge11_Node000011_Node000014" class="edge">
<title>Node11&#45;&gt;Node14</title>
<g id="a_edge11_Node000011_Node000014"><a xlink:title=" ">
<path fill="none" stroke="#63b8ff" d="M973.85,-114.69C923.57,-106.04 800.01,-84.77 732.98,-73.24"/>
<polygon fill="#63b8ff" stroke="#63b8ff" points="733.18,-69.72 722.73,-71.48 731.99,-76.62 733.18,-69.72"/>
</a>
</g>
</g>
<!-- Node14&#45;&gt;Node12 -->
<g id="edge12_Node000014_Node000012" class="edge">
<title>Node14&#45;&gt;Node12</title>
<g id="a_edge12_Node000014_Node000012"><a xlink:title=" ">
<path fill="none" stroke="#63b8ff" d="M702.14,-54.98C715.79,-46.77 736.69,-34.18 752.78,-24.49"/>
<polygon fill="#63b8ff" stroke="#63b8ff" points="754.84,-27.33 761.6,-19.17 751.23,-21.33 754.84,-27.33"/>
</a>
</g>
</g>
<!-- Node33&#45;&gt;Node35 -->
<g id="edge15_Node000033_Node000035" class="edge">
<title>Node33&#45;&gt;Node35</title>
<g id="a_edge15_Node000033_Node000035"><a xlink:title=" ">
<path fill="none" stroke="#63b8ff" d="M243.56,-164.75C238.11,-157.34 230.14,-146.5 223.44,-137.41"/>
<polygon fill="#63b8ff" stroke="#63b8ff" points="226.07,-135.07 217.32,-129.09 220.43,-139.22 226.07,-135.07"/>
</a>
</g>
</g>
<!-- Node40&#45;&gt;Node2 -->
<g id="edge35_Node000040_Node000002" class="edge">
<title>Node40&#45;&gt;Node2</title>
<g id="a_edge35_Node000040_Node000002"><a xlink:title=" ">
<path fill="none" stroke="#63b8ff" d="M748.08,-615.99C718.27,-606.02 678.67,-592.78 650.44,-583.35"/>
<polygon fill="#63b8ff" stroke="#63b8ff" points="651.18,-579.9 640.59,-580.05 648.96,-586.54 651.18,-579.9"/>
</a>
</g>
</g>
<!-- Node41 -->
<g id="Node000041" class="node">
<title>Node41</title>
<g id="a_Node000041"><a xlink:href="journalling__symbol__table_8h.html" target="_top" xlink:title="Author: Diffblue Ltd.">
<polygon fill="white" stroke="#666666" points="1222,-470 1094,-470 1094,-440 1222,-440 1222,-470"/>
<text text-anchor="start" x="1102" y="-458" font-family="Helvetica,sans-Serif" font-size="10.00">util/journalling_symbol</text>
<text text-anchor="middle" x="1158" y="-447" font-family="Helvetica,sans-Serif" font-size="10.00">_table.h</text>
</a>
</g>
</g>
<!-- Node40&#45;&gt;Node41 -->
<g id="edge27_Node000040_Node000041" class="edge">
<title>Node40&#45;&gt;Node41</title>
<g id="a_edge27_Node000040_Node000041"><a xlink:title=" ">
<path fill="none" stroke="#63b8ff" d="M846.85,-617.75C849.94,-617.15 853.01,-616.56 856,-616 955.13,-597.53 995.9,-635.62 1080,-580 1116.27,-556.01 1138.89,-508.74 1149.91,-480"/>
<polygon fill="#63b8ff" stroke="#63b8ff" points="1153.3,-480.92 1153.45,-470.32 1146.73,-478.51 1153.3,-480.92"/>
</a>
</g>
</g>
<!-- Node44 -->
<g id="Node000044" class="node">
<title>Node44</title>
<g id="a_Node000044"><a xlink:href="namespace_8h.html" target="_top" xlink:title=" ">
<polygon fill="white" stroke="#666666" points="1075.5,-184 974.5,-184 974.5,-165 1075.5,-165 1075.5,-184"/>
<text text-anchor="middle" x="1025" y="-172" font-family="Helvetica,sans-Serif" font-size="10.00">util/namespace.h</text>
</a>
</g>
</g>
<!-- Node40&#45;&gt;Node44 -->
<g id="edge32_Node000040_Node000044" class="edge">
<title>Node40&#45;&gt;Node44</title>
<g id="a_edge32_Node000040_Node000044"><a xlink:title=" ">
<path fill="none" stroke="#63b8ff" d="M836.2,-615.97C914.77,-591.44 1066,-541.05 1066,-516.5 1066,-516.5 1066,-516.5 1066,-283.5 1066,-249.57 1048.09,-213.31 1035.94,-192.62"/>
<polygon fill="#63b8ff" stroke="#63b8ff" points="1038.9,-190.75 1030.7,-184.04 1032.93,-194.4 1038.9,-190.75"/>
</a>
</g>
</g>
<!-- Node45 -->
<g id="Node000045" class="node">
<title>Node45</title>
<g id="a_Node000045"><a xlink:href="abstract__goto__model_8h.html" target="_top" xlink:title="Abstract interface to eager or lazy GOTO models.">
<polygon fill="white" stroke="#666666" points="854,-580 726,-580 726,-561 854,-561 854,-580"/>
<text text-anchor="middle" x="790" y="-568" font-family="Helvetica,sans-Serif" font-size="10.00">abstract_goto_model.h</text>
</a>
</g>
</g>
<!-- Node40&#45;&gt;Node45 -->
<g id="edge36_Node000040_Node000045" class="edge">
<title>Node40&#45;&gt;Node45</title>
<g id="a_edge36_Node000040_Node000045"><a xlink:title=" ">
<path fill="none" stroke="#63b8ff" d="M790,-615.84C790,-608.21 790,-598.7 790,-590.45"/>
<polygon fill="#63b8ff" stroke="#63b8ff" points="793.5,-590.27 790,-580.27 786.5,-590.27 793.5,-590.27"/>
</a>
</g>
</g>
<!-- Node46 -->
<g id="Node000046" class="node">
<title>Node46</title>
<g id="a_Node000046"><a xlink:href="goto__functions_8h.html" target="_top" xlink:title="Goto Programs with Functions.">
<polygon fill="white" stroke="#666666" points="878,-525 780,-525 780,-506 878,-506 878,-525"/>
<text text-anchor="middle" x="829" y="-513" font-family="Helvetica,sans-Serif" font-size="10.00">goto_functions.h</text>
</a>
</g>
</g>
<!-- Node40&#45;&gt;Node46 -->
<g id="edge64_Node000040_Node000046" class="edge">
<title>Node40&#45;&gt;Node46</title>
<g id="a_edge64_Node000040_Node000046"><a xlink:title=" ">
<path fill="none" stroke="#63b8ff" d="M823.78,-615.85C838.65,-607.71 854.62,-595.9 863,-580 871.6,-563.69 859.02,-545.11 846.8,-532.28"/>
<polygon fill="#63b8ff" stroke="#63b8ff" points="849.04,-529.58 839.44,-525.11 844.16,-534.59 849.04,-529.58"/>
</a>
</g>
</g>
<!-- Node60 -->
<g id="Node000060" class="node">
<title>Node60</title>
<g id="a_Node000060"><a xlink:href="validate__goto__model_8h.html" target="_top" xlink:title=" ">
<polygon fill="white" stroke="#666666" points="762,-525 634,-525 634,-506 762,-506 762,-525"/>
<text text-anchor="middle" x="698" y="-513" font-family="Helvetica,sans-Serif" font-size="10.00">validate_goto_model.h</text>
</a>
</g>
</g>
<!-- Node40&#45;&gt;Node60 -->
<g id="edge65_Node000040_Node000060" class="edge">
<title>Node40&#45;&gt;Node60</title>
<g id="a_edge65_Node000040_Node000060"><a xlink:title=" ">
<path fill="none" stroke="#63b8ff" d="M760.38,-615.89C745.43,-607.4 728.14,-595.26 717,-580 707.35,-566.78 702.56,-548.66 700.21,-535.16"/>
<polygon fill="#63b8ff" stroke="#63b8ff" points="703.65,-534.5 698.75,-525.11 696.72,-535.51 703.65,-534.5"/>
</a>
</g>
</g>
<!-- Node41&#45;&gt;Node3 -->
<g id="edge29_Node000041_Node000003" class="edge">
<title>Node41&#45;&gt;Node3</title>
<g id="a_edge29_Node000041_Node000003"><a xlink:title=" ">
<path fill="none" stroke="#63b8ff" d="M1093.87,-447.2C989.7,-436.16 784.51,-414.42 676.43,-402.96"/>
<polygon fill="#63b8ff" stroke="#63b8ff" points="676.59,-399.46 666.28,-401.89 675.85,-406.42 676.59,-399.46"/>
</a>
</g>
</g>
<!-- Node41&#45;&gt;Node11 -->
<g id="edge28_Node000041_Node000011" class="edge">
<title>Node41&#45;&gt;Node11</title>
<g id="a_edge28_Node000041_Node000011"><a xlink:title=" ">
<path fill="none" stroke="#63b8ff" d="M1146.28,-439.97C1130.4,-419.49 1104,-379.56 1104,-340.5 1104,-340.5 1104,-340.5 1104,-228.5 1104,-199.04 1103.95,-187.55 1085,-165 1070.23,-147.43 1046.83,-136.11 1027.72,-129.29"/>
<polygon fill="#63b8ff" stroke="#63b8ff" points="1028.79,-125.96 1018.19,-126.12 1026.58,-132.6 1028.79,-125.96"/>
</a>
</g>
</g>
<!-- Node42 -->
<g id="Node000042" class="node">
<title>Node42</title>
<g id="a_Node000042"><a xlink:title=" ">
<polygon fill="#e0e0e0" stroke="#999999" points="1218,-404 1132,-404 1132,-385 1218,-385 1218,-404"/>
<text text-anchor="middle" x="1175" y="-392" font-family="Helvetica,sans-Serif" font-size="10.00">unordered_set</text>
</a>
</g>
</g>
<!-- Node41&#45;&gt;Node42 -->
<g id="edge30_Node000041_Node000042" class="edge">
<title>Node41&#45;&gt;Node42</title>
<g id="a_edge30_Node000041_Node000042"><a xlink:title=" ">
<path fill="none" stroke="#63b8ff" d="M1162.12,-439.84C1164.38,-432.04 1167.22,-422.27 1169.66,-413.89"/>
<polygon fill="#63b8ff" stroke="#63b8ff" points="1173.02,-414.85 1172.45,-404.27 1166.3,-412.89 1173.02,-414.85"/>
</a>
</g>
</g>
<!-- Node43 -->
<g id="Node000043" class="node">
<title>Node43</title>
<g id="a_Node000043"><a xlink:title=" ">
<polygon fill="#e0e0e0" stroke="#999999" points="1281.5,-404 1236.5,-404 1236.5,-385 1281.5,-385 1281.5,-404"/>
<text text-anchor="middle" x="1259" y="-392" font-family="Helvetica,sans-Serif" font-size="10.00">utility</text>
</a>
</g>
</g>
<!-- Node41&#45;&gt;Node43 -->
<g id="edge31_Node000041_Node000043" class="edge">
<title>Node41&#45;&gt;Node43</title>
<g id="a_edge31_Node000041_Node000043"><a xlink:title=" ">
<path fill="none" stroke="#63b8ff" d="M1182.19,-439.99C1198.29,-430.66 1219.34,-418.47 1235.33,-409.21"/>
<polygon fill="#63b8ff" stroke="#63b8ff" points="1237.19,-412.18 1244.08,-404.14 1233.68,-406.12 1237.19,-412.18"/>
</a>
</g>
</g>
<!-- Node44&#45;&gt;Node11 -->
<g id="edge34_Node000044_Node000011" class="edge">
<title>Node44&#45;&gt;Node11</title>
<g id="a_edge34_Node000044_Node000011"><a xlink:title=" ">
<path fill="none" stroke="#63b8ff" d="M1020.21,-164.75C1016.24,-157.49 1010.47,-146.95 1005.57,-137.98"/>
<polygon fill="#63b8ff" stroke="#63b8ff" points="1008.57,-136.18 1000.7,-129.09 1002.43,-139.54 1008.57,-136.18"/>
</a>
</g>
</g>
<!-- Node44&#45;&gt;Node14 -->
<g id="edge33_Node000044_Node000014" class="edge">
<title>Node44&#45;&gt;Node14</title>
<g id="a_edge33_Node000044_Node000014"><a xlink:title=" ">
<path fill="none" stroke="#63b8ff" d="M998.27,-164.94C938.3,-145.72 792.93,-99.13 724.62,-77.24"/>
<polygon fill="#63b8ff" stroke="#63b8ff" points="725.32,-73.78 714.73,-74.07 723.18,-80.45 725.32,-73.78"/>
</a>
</g>
</g>
<!-- Node45&#45;&gt;Node46 -->
<g id="edge37_Node000045_Node000046" class="edge">
<title>Node45&#45;&gt;Node46</title>
<g id="a_edge37_Node000045_Node000046"><a xlink:title=" ">
<path fill="none" stroke="#63b8ff" d="M796.44,-560.75C801.89,-553.34 809.86,-542.5 816.56,-533.41"/>
<polygon fill="#63b8ff" stroke="#63b8ff" points="819.57,-535.22 822.68,-525.09 813.93,-531.07 819.57,-535.22"/>
</a>
</g>
</g>
<!-- Node45&#45;&gt;Node60 -->
<g id="edge62_Node000045_Node000060" class="edge">
<title>Node45&#45;&gt;Node60</title>
<g id="a_edge62_Node000045_Node000060"><a xlink:title=" ">
<path fill="none" stroke="#63b8ff" d="M775.22,-560.98C760.82,-552.69 738.69,-539.94 721.81,-530.22"/>
<polygon fill="#63b8ff" stroke="#63b8ff" points="723.46,-527.13 713.05,-525.17 719.97,-533.19 723.46,-527.13"/>
</a>
</g>
</g>
<!-- Node46&#45;&gt;Node39 -->
<g id="edge61_Node000046_Node000039" class="edge">
<title>Node46&#45;&gt;Node39</title>
<g id="a_edge61_Node000046_Node000039"><a xlink:title=" ">
<path fill="none" stroke="#63b8ff" d="M784.76,-505.97C749.9,-498.53 700.43,-486.35 659,-470 601.66,-447.37 575.9,-451.83 537,-404 526.68,-391.31 521.96,-373.12 519.81,-359.47"/>
<polygon fill="#63b8ff" stroke="#63b8ff" points="523.25,-358.77 518.53,-349.28 516.3,-359.63 523.25,-358.77"/>
</a>
</g>
</g>
<!-- Node47 -->
<g id="Node000047" class="node">
<title>Node47</title>
<g id="a_Node000047"><a xlink:href="goto__function_8h.html" target="_top" xlink:title="Goto Function.">
<polygon fill="white" stroke="#666666" points="760,-464.5 668,-464.5 668,-445.5 760,-445.5 760,-464.5"/>
<text text-anchor="middle" x="714" y="-452.5" font-family="Helvetica,sans-Serif" font-size="10.00">goto_function.h</text>
</a>
</g>
</g>
<!-- Node46&#45;&gt;Node47 -->
<g id="edge38_Node000046_Node000047" class="edge">
<title>Node46&#45;&gt;Node47</title>
<g id="a_edge38_Node000046_Node000047"><a xlink:title=" ">
<path fill="none" stroke="#63b8ff" d="M812.03,-505.87C793.09,-496.23 762.21,-480.53 740.17,-469.31"/>
<polygon fill="#63b8ff" stroke="#63b8ff" points="741.54,-466.08 731.04,-464.67 738.36,-472.32 741.54,-466.08"/>
</a>
</g>
</g>
<!-- Node59 -->
<g id="Node000059" class="node">
<title>Node59</title>
<g id="a_Node000059"><a xlink:href="cprover__prefix_8h.html" target="_top" xlink:title=" ">
<polygon fill="white" stroke="#666666" points="892,-464.5 778,-464.5 778,-445.5 892,-445.5 892,-464.5"/>
<text text-anchor="middle" x="835" y="-452.5" font-family="Helvetica,sans-Serif" font-size="10.00">util/cprover_prefix.h</text>
</a>
</g>
</g>
<!-- Node46&#45;&gt;Node59 -->
<g id="edge60_Node000046_Node000059" class="edge">
<title>Node46&#45;&gt;Node59</title>
<g id="a_edge60_Node000046_Node000059"><a xlink:title=" ">
<path fill="none" stroke="#63b8ff" d="M829.89,-505.87C830.72,-497.75 831.99,-485.31 833.06,-474.89"/>
<polygon fill="#63b8ff" stroke="#63b8ff" points="836.57,-474.97 834.11,-464.67 829.61,-474.26 836.57,-474.97"/>
</a>
</g>
</g>
<!-- Node48 -->
<g id="Node000048" class="node">
<title>Node48</title>
<g id="a_Node000048"><a xlink:href="std__types_8h.html" target="_top" xlink:title="Pre&#45;defined types.">
<polygon fill="white" stroke="#666666" points="318,-404 226,-404 226,-385 318,-385 318,-404"/>
<text text-anchor="middle" x="272" y="-392" font-family="Helvetica,sans-Serif" font-size="10.00">util/std_types.h</text>
</a>
</g>
</g>
<!-- Node47&#45;&gt;Node48 -->
<g id="edge39_Node000047_Node000048" class="edge">
<title>Node47&#45;&gt;Node48</title>
<g id="a_edge39_Node000047_Node000048"><a xlink:title=" ">
<path fill="none" stroke="#63b8ff" d="M667.95,-447.91C586.38,-437.11 416.81,-414.67 328.39,-402.96"/>
<polygon fill="#63b8ff" stroke="#63b8ff" points="328.65,-399.47 318.28,-401.63 327.73,-406.41 328.65,-399.47"/>
</a>
</g>
</g>
<!-- Node53 -->
<g id="Node000053" class="node">
<title>Node53</title>
<g id="a_Node000053"><a xlink:href="goto__program_8h.html" target="_top" xlink:title="Concrete Goto Program.">
<polygon fill="white" stroke="#666666" points="779,-349 685,-349 685,-330 779,-330 779,-349"/>
<text text-anchor="middle" x="732" y="-337" font-family="Helvetica,sans-Serif" font-size="10.00">goto_program.h</text>
</a>
</g>
</g>
<!-- Node47&#45;&gt;Node53 -->
<g id="edge51_Node000047_Node000053" class="edge">
<title>Node47&#45;&gt;Node53</title>
<g id="a_edge51_Node000047_Node000053"><a xlink:title=" ">
<path fill="none" stroke="#63b8ff" d="M715.35,-445.47C718.25,-427.23 725.09,-384.07 729.04,-359.14"/>
<polygon fill="#63b8ff" stroke="#63b8ff" points="732.52,-359.55 730.63,-349.13 725.61,-358.46 732.52,-359.55"/>
</a>
</g>
</g>
<!-- Node48&#45;&gt;Node6 -->
<g id="edge40_Node000048_Node000006" class="edge">
<title>Node48&#45;&gt;Node6</title>
<g id="a_edge40_Node000048_Node000006"><a xlink:title=" ">
<path fill="none" stroke="#63b8ff" d="M273.31,-384.66C275.9,-367.17 281.73,-327.8 285.22,-304.27"/>
<polygon fill="#63b8ff" stroke="#63b8ff" points="288.71,-304.56 286.72,-294.16 281.79,-303.54 288.71,-304.56"/>
</a>
</g>
</g>
<!-- Node48&#45;&gt;Node14 -->
<g id="edge45_Node000048_Node000014" class="edge">
<title>Node48&#45;&gt;Node14</title>
<g id="a_edge45_Node000048_Node000014"><a xlink:title=" ">
<path fill="none" stroke="#63b8ff" d="M225.86,-385.05C148.26,-369.5 0,-333.51 0,-285.5 0,-285.5 0,-285.5 0,-173.5 0,-111.98 63.83,-126.86 123,-110 220.5,-82.22 527.12,-70.33 643.03,-66.75"/>
<polygon fill="#63b8ff" stroke="#63b8ff" points="643.42,-70.24 653.31,-66.44 643.21,-63.24 643.42,-70.24"/>
</a>
</g>
</g>
<!-- Node48&#45;&gt;Node33 -->
<g id="edge49_Node000048_Node000033" class="edge">
<title>Node48&#45;&gt;Node33</title>
<g id="a_edge49_Node000048_Node000033"><a xlink:title=" ">
<path fill="none" stroke="#63b8ff" d="M225.92,-389.46C198.1,-384.48 164.4,-373.42 145,-349 114.41,-310.49 135.67,-288.11 133,-239 132.54,-230.57 128.21,-226.95 133,-220 149.61,-195.91 181.11,-184.85 207.24,-179.78"/>
<polygon fill="#63b8ff" stroke="#63b8ff" points="208.05,-183.19 217.32,-178.06 206.87,-176.29 208.05,-183.19"/>
</a>
</g>
</g>
<!-- Node48&#45;&gt;Node24 -->
<g id="edge50_Node000048_Node000024" class="edge">
<title>Node48&#45;&gt;Node24</title>
<g id="a_edge50_Node000048_Node000024"><a xlink:title=" ">
<path fill="none" stroke="#63b8ff" d="M298.03,-384.98C325.11,-376.13 367.71,-362.19 398.01,-352.28"/>
<polygon fill="#63b8ff" stroke="#63b8ff" points="399.35,-355.52 407.77,-349.08 397.18,-348.87 399.35,-355.52"/>
</a>
</g>
</g>
<!-- Node49 -->
<g id="Node000049" class="node">
<title>Node49</title>
<g id="a_Node000049"><a xlink:href="expr__cast_8h.html" target="_top" xlink:title="Templated functions to cast to specific exprt&#45;derived classes.">
<polygon fill="#fff0f0" stroke="red" points="227.5,-349 154.5,-349 154.5,-330 227.5,-330 227.5,-349"/>
<text text-anchor="middle" x="191" y="-337" font-family="Helvetica,sans-Serif" font-size="10.00">expr_cast.h</text>
</a>
</g>
</g>
<!-- Node48&#45;&gt;Node49 -->
<g id="edge41_Node000048_Node000049" class="edge">
<title>Node48&#45;&gt;Node49</title>
<g id="a_edge41_Node000048_Node000049"><a xlink:title=" ">
<path fill="none" stroke="#63b8ff" d="M258.99,-384.98C246.54,-376.84 227.54,-364.41 212.79,-354.76"/>
<polygon fill="#63b8ff" stroke="#63b8ff" points="214.54,-351.72 204.25,-349.17 210.7,-357.57 214.54,-351.72"/>
</a>
</g>
</g>
<!-- Node51 -->
<g id="Node000051" class="node">
<title>Node51</title>
<g id="a_Node000051"><a xlink:href="mp__arith_8h.html" target="_top" xlink:title=" ">
<polygon fill="#fff0f0" stroke="red" points="369.5,-349 300.5,-349 300.5,-330 369.5,-330 369.5,-349"/>
<text text-anchor="middle" x="335" y="-337" font-family="Helvetica,sans-Serif" font-size="10.00">mp_arith.h</text>
</a>
</g>
</g>
<!-- Node48&#45;&gt;Node51 -->
<g id="edge46_Node000048_Node000051" class="edge">
<title>Node48&#45;&gt;Node51</title>
<g id="a_edge46_Node000048_Node000051"><a xlink:title=" ">
<path fill="none" stroke="#63b8ff" d="M282.12,-384.98C291.44,-377.15 305.47,-365.34 316.74,-355.86"/>
<polygon fill="#63b8ff" stroke="#63b8ff" points="319.29,-358.29 324.69,-349.17 314.79,-352.93 319.29,-358.29"/>
</a>
</g>
</g>
<!-- Node49&#45;&gt;Node6 -->
<g id="edge44_Node000049_Node000006" class="edge">
<title>Node49&#45;&gt;Node6</title>
<g id="a_edge44_Node000049_Node000006"><a xlink:title=" ">
<path fill="none" stroke="#63b8ff" d="M206.58,-329.98C221.77,-321.69 245.1,-308.94 262.9,-299.22"/>
<polygon fill="#63b8ff" stroke="#63b8ff" points="265.03,-302.04 272.13,-294.17 261.68,-295.89 265.03,-302.04"/>
</a>
</g>
</g>
<!-- Node49&#45;&gt;Node14 -->
<g id="edge43_Node000049_Node000014" class="edge">
<title>Node49&#45;&gt;Node14</title>
<g id="a_edge43_Node000049_Node000014"><a xlink:title=" ">
<path fill="none" stroke="#63b8ff" d="M178.97,-329.91C157.31,-313.36 114,-274.71 114,-230.5 114,-230.5 114,-230.5 114,-173.5 114,-141.49 121.23,-127.56 148,-110 188.98,-83.11 521.18,-70.51 643.23,-66.75"/>
<polygon fill="#63b8ff" stroke="#63b8ff" points="643.46,-70.25 653.35,-66.45 643.25,-63.25 643.46,-70.25"/>
</a>
</g>
</g>
<!-- Node49&#45;&gt;Node38 -->
<g id="edge42_Node000049_Node000038" class="edge">
<title>Node49&#45;&gt;Node38</title>
<g id="a_edge42_Node000049_Node000038"><a xlink:title=" ">
<path fill="none" stroke="#63b8ff" d="M189.69,-329.66C187.1,-312.17 181.27,-272.8 177.78,-249.27"/>
<polygon fill="#63b8ff" stroke="#63b8ff" points="181.21,-248.54 176.28,-239.16 174.29,-249.56 181.21,-248.54"/>
</a>
</g>
</g>
<!-- Node51&#45;&gt;Node5 -->
<g id="edge47_Node000051_Node000005" class="edge">
<title>Node51&#45;&gt;Node5</title>
<g id="a_edge47_Node000051_Node000005"><a xlink:title=" ">
<path fill="none" stroke="#63b8ff" d="M369.64,-331.19C417.75,-321.03 504.26,-302.76 552.02,-292.68"/>
<polygon fill="#63b8ff" stroke="#63b8ff" points="552.82,-296.08 561.88,-290.59 551.37,-289.24 552.82,-296.08"/>
</a>
</g>
</g>
<!-- Node51&#45;&gt;Node12 -->
<g id="edge48_Node000051_Node000012" class="edge">
<title>Node51&#45;&gt;Node12</title>
<g id="a_edge48_Node000051_Node000012"><a xlink:title=" ">
<path fill="none" stroke="#63b8ff" d="M367.02,-329.96C428.83,-312.9 561.29,-273.26 593,-239 613.01,-217.38 612,-204.96 612,-175.5 612,-175.5 612,-175.5 612,-118.5 612,-86.9 620.13,-75.71 644,-55 672.31,-30.44 714.72,-19.31 743.78,-14.35"/>
<polygon fill="#63b8ff" stroke="#63b8ff" points="744.49,-17.78 753.83,-12.78 743.41,-10.86 744.49,-17.78"/>
</a>
</g>
</g>
<!-- Node53&#45;&gt;Node5 -->
<g id="edge55_Node000053_Node000005" class="edge">
<title>Node53&#45;&gt;Node5</title>
<g id="a_edge55_Node000053_Node000005"><a xlink:title=" ">
<path fill="none" stroke="#63b8ff" d="M708.54,-329.98C684.42,-321.23 646.63,-307.51 619.4,-297.62"/>
<polygon fill="#63b8ff" stroke="#63b8ff" points="620.48,-294.29 609.88,-294.17 618.09,-300.87 620.48,-294.29"/>
</a>
</g>
</g>
<!-- Node53&#45;&gt;Node9 -->
<g id="edge53_Node000053_Node000009" class="edge">
<title>Node53&#45;&gt;Node9</title>
<g id="a_edge53_Node000053_Node000009"><a xlink:title=" ">
<path fill="none" stroke="#63b8ff" d="M738.16,-329.74C743.95,-321.07 752.39,-307.22 757,-294 768.85,-260.02 773.36,-217.94 775.04,-194.17"/>
<polygon fill="#63b8ff" stroke="#63b8ff" points="778.54,-194.28 775.65,-184.08 771.55,-193.85 778.54,-194.28"/>
</a>
</g>
</g>
<!-- Node53&#45;&gt;Node12 -->
<g id="edge59_Node000053_Node000012" class="edge">
<title>Node53&#45;&gt;Node12</title>
<g id="a_edge59_Node000053_Node000012"><a xlink:title=" ">
<path fill="none" stroke="#63b8ff" d="M779.09,-338C850.26,-336.13 980.01,-328.01 1009,-294 1053.6,-241.67 857.35,-76.04 794.69,-25.37"/>
<polygon fill="#63b8ff" stroke="#63b8ff" points="796.76,-22.55 786.77,-19.01 792.37,-28 796.76,-22.55"/>
</a>
</g>
</g>
<!-- Node53&#45;&gt;Node14 -->
<g id="edge52_Node000053_Node000014" class="edge">
<title>Node53&#45;&gt;Node14</title>
<g id="a_edge52_Node000053_Node000014"><a xlink:title=" ">
<path fill="none" stroke="#63b8ff" d="M725.7,-329.75C713.53,-311.98 688,-269.98 688,-230.5 688,-230.5 688,-230.5 688,-173.5 688,-142.19 688,-105.77 688,-84.23"/>
<polygon fill="#63b8ff" stroke="#63b8ff" points="691.5,-84.18 688,-74.18 684.5,-84.18 691.5,-84.18"/>
</a>
</g>
</g>
<!-- Node53&#45;&gt;Node23 -->
<g id="edge57_Node000053_Node000023" class="edge">
<title>Node53&#45;&gt;Node23</title>
<g id="a_edge57_Node000053_Node000023"><a xlink:title=" ">
<path fill="none" stroke="#63b8ff" d="M717.86,-329.98C704.21,-321.77 683.31,-309.18 667.22,-299.49"/>
<polygon fill="#63b8ff" stroke="#63b8ff" points="668.77,-296.33 658.4,-294.17 665.16,-302.33 668.77,-296.33"/>
</a>
</g>
</g>
<!-- Node54 -->
<g id="Node000054" class="node">
<title>Node54</title>
<g id="a_Node000054"><a xlink:href="goto__instruction__code_8h.html" target="_top" xlink:title=" ">
<polygon fill="#fff0f0" stroke="red" points="937.5,-294 804.5,-294 804.5,-275 937.5,-275 937.5,-294"/>
<text text-anchor="middle" x="871" y="-282" font-family="Helvetica,sans-Serif" font-size="10.00">goto_instruction_code.h</text>
</a>
</g>
</g>
<!-- Node53&#45;&gt;Node54 -->
<g id="edge54_Node000053_Node000054" class="edge">
<title>Node53&#45;&gt;Node54</title>
<g id="a_edge54_Node000053_Node000054"><a xlink:title=" ">
<path fill="none" stroke="#63b8ff" d="M754.33,-329.98C777.2,-321.27 812.96,-307.63 838.86,-297.75"/>
<polygon fill="#63b8ff" stroke="#63b8ff" points="840.16,-301 848.26,-294.17 837.67,-294.46 840.16,-301"/>
</a>
</g>
</g>
<!-- Node57 -->
<g id="Node000057" class="node">
<title>Node57</title>
<g id="a_Node000057"><a xlink:title=" ">
<polygon fill="#e0e0e0" stroke="#999999" points="1000,-294 956,-294 956,-275 1000,-275 1000,-294"/>
<text text-anchor="middle" x="978" y="-282" font-family="Helvetica,sans-Serif" font-size="10.00">limits</text>
</a>
</g>
</g>
<!-- Node53&#45;&gt;Node57 -->
<g id="edge56_Node000053_Node000057" class="edge">
<title>Node53&#45;&gt;Node57</title>
<g id="a_edge56_Node000053_Node000057"><a xlink:title=" ">
<path fill="none" stroke="#63b8ff" d="M776.42,-330C817.69,-321.93 881.09,-309.13 945.7,-293.96"/>
<polygon fill="#63b8ff" stroke="#63b8ff" points="946.73,-297.31 955.66,-291.6 945.12,-290.5 946.73,-297.31"/>
</a>
</g>
</g>
<!-- Node58 -->
<g id="Node000058" class="node">
<title>Node58</title>
<g id="a_Node000058"><a xlink:title=" ">
<polygon fill="#e0e0e0" stroke="#999999" points="748,-294 716,-294 716,-275 748,-275 748,-294"/>
<text text-anchor="middle" x="732" y="-282" font-family="Helvetica,sans-Serif" font-size="10.00">set</text>
</a>
</g>
</g>
<!-- Node53&#45;&gt;Node58 -->
<g id="edge58_Node000053_Node000058" class="edge">
<title>Node53&#45;&gt;Node58</title>
<g id="a_edge58_Node000053_Node000058"><a xlink:title=" ">
<path fill="none" stroke="#63b8ff" d="M732,-329.75C732,-322.8 732,-312.85 732,-304.13"/>
<polygon fill="#63b8ff" stroke="#63b8ff" points="735.5,-304.09 732,-294.09 728.5,-304.09 735.5,-304.09"/>
</a>
</g>
</g>
<!-- Node60&#45;&gt;Node35 -->
<g id="edge63_Node000060_Node000035" class="edge">
<title>Node60&#45;&gt;Node35</title>
<g id="a_edge63_Node000060_Node000035"><a xlink:title=" ">
<path fill="none" stroke="#63b8ff" d="M633.82,-509.64C467.96,-496.22 38,-455.64 38,-395.5 38,-395.5 38,-395.5 38,-228.5 38,-172.9 103.09,-144.87 153.42,-131.51"/>
<polygon fill="#63b8ff" stroke="#63b8ff" points="154.43,-134.87 163.27,-129.03 152.72,-128.08 154.43,-134.87"/>
</a>
</g>
</g>
</g>
</svg>
