<?xml version="1.0" encoding="UTF-8" standalone="no"?>
<!DOCTYPE svg PUBLIC "-//W3C//DTD SVG 1.1//EN"
 "http://www.w3.org/Graphics/SVG/1.1/DTD/svg11.dtd">
<!-- Generated by graphviz version 2.43.0 (0)
 -->
<!-- Title: /home/runner/work/cbmc/cbmc/src/cprover/may_alias.cpp Pages: 1 -->
<svg width="940pt" height="654pt"
 viewBox="0.00 0.00 939.50 654.00" xmlns="http://www.w3.org/2000/svg" xmlns:xlink="http://www.w3.org/1999/xlink">
<g id="graph0" class="graph" transform="scale(1 1) rotate(0) translate(4 650)">
<title>/home/runner/work/cbmc/cbmc/src/cprover/may_alias.cpp</title>
<!-- Node1 -->
<g id="Node000001" class="node">
<title>Node1</title>
<g id="a_Node000001"><a xlink:title="May Alias.">
<polygon fill="#999999" stroke="#666666" points="686,-646 548,-646 548,-605 686,-605 686,-646"/>
<text text-anchor="start" x="556" y="-634" font-family="Helvetica,sans-Serif" font-size="10.00">/home/runner/work/cbmc</text>
<text text-anchor="start" x="556" y="-623" font-family="Helvetica,sans-Serif" font-size="10.00">/cbmc/src/cprover/may</text>
<text text-anchor="middle" x="617" y="-612" font-family="Helvetica,sans-Serif" font-size="10.00">_alias.cpp</text>
</a>
</g>
</g>
<!-- Node2 -->
<g id="Node000002" class="node">
<title>Node2</title>
<g id="a_Node000002"><a xlink:href="may__alias_8h.html" target="_top" xlink:title="May Alias.">
<polygon fill="white" stroke="#666666" points="484,-569 408,-569 408,-550 484,-550 484,-569"/>
<text text-anchor="middle" x="446" y="-557" font-family="Helvetica,sans-Serif" font-size="10.00">may_alias.h</text>
</a>
</g>
</g>
<!-- Node1&#45;&gt;Node2 -->
<g id="edge1_Node000001_Node000002" class="edge">
<title>Node1&#45;&gt;Node2</title>
<g id="a_edge1_Node000001_Node000002"><a xlink:title=" ">
<path fill="none" stroke="#63b8ff" d="M564.77,-604.95C536.62,-594.42 502.78,-581.75 478.44,-572.64"/>
<polygon fill="#63b8ff" stroke="#63b8ff" points="479.55,-569.32 468.96,-569.09 477.1,-575.88 479.55,-569.32"/>
</a>
</g>
</g>
<!-- Node3 -->
<g id="Node000003" class="node">
<title>Node3</title>
<g id="a_Node000003"><a xlink:href="std__expr_8h.html" target="_top" xlink:title="API to expression classes.">
<polygon fill="white" stroke="#666666" points="496,-459 410,-459 410,-440 496,-440 496,-459"/>
<text text-anchor="middle" x="453" y="-447" font-family="Helvetica,sans-Serif" font-size="10.00">util/std_expr.h</text>
</a>
</g>
</g>
<!-- Node1&#45;&gt;Node3 -->
<g id="edge52_Node000001_Node000003" class="edge">
<title>Node1&#45;&gt;Node3</title>
<g id="a_edge52_Node000001_Node000003"><a xlink:title=" ">
<path fill="none" stroke="#63b8ff" d="M598.51,-604.88C565.9,-570.29 498.78,-499.07 468.46,-466.91"/>
<polygon fill="#63b8ff" stroke="#63b8ff" points="470.68,-464.15 461.27,-459.27 465.58,-468.95 470.68,-464.15"/>
</a>
</g>
</g>
<!-- Node44 -->
<g id="Node000044" class="node">
<title>Node44</title>
<g id="a_Node000044"><a xlink:href="c__types_8h.html" target="_top" xlink:title=" ">
<polygon fill="white" stroke="#666666" points="693,-569 611,-569 611,-550 693,-550 693,-569"/>
<text text-anchor="middle" x="652" y="-557" font-family="Helvetica,sans-Serif" font-size="10.00">util/c_types.h</text>
</a>
</g>
</g>
<!-- Node1&#45;&gt;Node44 -->
<g id="edge42_Node000001_Node000044" class="edge">
<title>Node1&#45;&gt;Node44</title>
<g id="a_edge42_Node000001_Node000044"><a xlink:title=" ">
<path fill="none" stroke="#63b8ff" d="M627.69,-604.95C632.37,-596.39 637.82,-586.42 642.38,-578.1"/>
<polygon fill="#63b8ff" stroke="#63b8ff" points="645.48,-579.71 647.21,-569.26 639.34,-576.35 645.48,-579.71"/>
</a>
</g>
</g>
<!-- Node45 -->
<g id="Node000045" class="node">
<title>Node45</title>
<g id="a_Node000045"><a xlink:href="pointer__expr_8h.html" target="_top" xlink:title="API to expression classes for Pointers.">
<polygon fill="white" stroke="#666666" points="626,-514 540,-514 540,-495 626,-495 626,-514"/>
<text text-anchor="middle" x="583" y="-502" font-family="Helvetica,sans-Serif" font-size="10.00">pointer_expr.h</text>
</a>
</g>
</g>
<!-- Node1&#45;&gt;Node45 -->
<g id="edge51_Node000001_Node000045" class="edge">
<title>Node1&#45;&gt;Node45</title>
<g id="a_edge51_Node000001_Node000045"><a xlink:title=" ">
<path fill="none" stroke="#63b8ff" d="M611.39,-604.85C604.96,-582.37 594.53,-545.86 588.26,-523.91"/>
<polygon fill="#63b8ff" stroke="#63b8ff" points="591.59,-522.83 585.48,-514.18 584.86,-524.75 591.59,-522.83"/>
</a>
</g>
</g>
<!-- Node47 -->
<g id="Node000047" class="node">
<title>Node47</title>
<g id="a_Node000047"><a xlink:href="namespace_8h.html" target="_top" xlink:title=" ">
<polygon fill="white" stroke="#666666" points="931.5,-184 830.5,-184 830.5,-165 931.5,-165 931.5,-184"/>
<text text-anchor="middle" x="881" y="-172" font-family="Helvetica,sans-Serif" font-size="10.00">util/namespace.h</text>
</a>
</g>
</g>
<!-- Node1&#45;&gt;Node47 -->
<g id="edge48_Node000001_Node000047" class="edge">
<title>Node1&#45;&gt;Node47</title>
<g id="a_edge48_Node000001_Node000047"><a xlink:title=" ">
<path fill="none" stroke="#63b8ff" d="M686.24,-623.17C767.12,-617.51 890,-594.3 890,-505.5 890,-505.5 890,-505.5 890,-283.5 890,-252.08 886.17,-215.7 883.51,-194.2"/>
<polygon fill="#63b8ff" stroke="#63b8ff" points="886.96,-193.63 882.21,-184.16 880.02,-194.52 886.96,-193.63"/>
</a>
</g>
</g>
<!-- Node48 -->
<g id="Node000048" class="node">
<title>Node48</title>
<g id="a_Node000048"><a xlink:href="symbol_8h.html" target="_top" xlink:title="Symbol table entry.">
<polygon fill="white" stroke="#666666" points="862,-349 782,-349 782,-330 862,-330 862,-349"/>
<text text-anchor="middle" x="822" y="-337" font-family="Helvetica,sans-Serif" font-size="10.00">util/symbol.h</text>
</a>
</g>
</g>
<!-- Node1&#45;&gt;Node48 -->
<g id="edge53_Node000001_Node000048" class="edge">
<title>Node1&#45;&gt;Node48</title>
<g id="a_edge53_Node000001_Node000048"><a xlink:title=" ">
<path fill="none" stroke="#63b8ff" d="M686.13,-610.68C740.46,-595.32 807,-564.47 807,-505.5 807,-505.5 807,-505.5 807,-448.5 807,-416.89 813.38,-380.56 817.82,-359.13"/>
<polygon fill="#63b8ff" stroke="#63b8ff" points="821.29,-359.64 819.98,-349.12 814.45,-358.16 821.29,-359.64"/>
</a>
</g>
</g>
<!-- Node2&#45;&gt;Node3 -->
<g id="edge2_Node000002_Node000003" class="edge">
<title>Node2&#45;&gt;Node3</title>
<g id="a_edge2_Node000002_Node000003"><a xlink:title=" ">
<path fill="none" stroke="#63b8ff" d="M446.57,-549.66C447.71,-532.17 450.26,-492.8 451.78,-469.27"/>
<polygon fill="#63b8ff" stroke="#63b8ff" points="455.28,-469.36 452.44,-459.16 448.3,-468.91 455.28,-469.36"/>
</a>
</g>
</g>
<!-- Node43 -->
<g id="Node000043" class="node">
<title>Node43</title>
<g id="a_Node000043"><a xlink:title=" ">
<polygon fill="#e0e0e0" stroke="#999999" points="425,-514 339,-514 339,-495 425,-495 425,-514"/>
<text text-anchor="middle" x="382" y="-502" font-family="Helvetica,sans-Serif" font-size="10.00">unordered_set</text>
</a>
</g>
</g>
<!-- Node2&#45;&gt;Node43 -->
<g id="edge41_Node000002_Node000043" class="edge">
<title>Node2&#45;&gt;Node43</title>
<g id="a_edge41_Node000002_Node000043"><a xlink:title=" ">
<path fill="none" stroke="#63b8ff" d="M435.72,-549.98C426.16,-542.07 411.72,-530.11 400.22,-520.58"/>
<polygon fill="#63b8ff" stroke="#63b8ff" points="402.4,-517.85 392.47,-514.17 397.94,-523.24 402.4,-517.85"/>
</a>
</g>
</g>
<!-- Node4 -->
<g id="Node000004" class="node">
<title>Node4</title>
<g id="a_Node000004"><a xlink:href="expr__cast_8h.html" target="_top" xlink:title="Templated functions to cast to specific exprt&#45;derived classes.">
<polygon fill="white" stroke="#666666" points="226.5,-349 153.5,-349 153.5,-330 226.5,-330 226.5,-349"/>
<text text-anchor="middle" x="190" y="-337" font-family="Helvetica,sans-Serif" font-size="10.00">expr_cast.h</text>
</a>
</g>
</g>
<!-- Node3&#45;&gt;Node4 -->
<g id="edge3_Node000003_Node000004" class="edge">
<title>Node3&#45;&gt;Node4</title>
<g id="a_edge3_Node000003_Node000004"><a xlink:title=" ">
<path fill="none" stroke="#63b8ff" d="M431.92,-439.84C385.45,-420.76 274.04,-375.01 220.17,-352.89"/>
<polygon fill="#63b8ff" stroke="#63b8ff" points="221.39,-349.61 210.81,-349.05 218.73,-356.08 221.39,-349.61"/>
</a>
</g>
</g>
<!-- Node8 -->
<g id="Node000008" class="node">
<title>Node8</title>
<g id="a_Node000008"><a xlink:href="src_2util_2invariant_8h.html" target="_top" xlink:title=" ">
<polygon fill="white" stroke="#666666" points="619.5,-74 550.5,-74 550.5,-55 619.5,-55 619.5,-74"/>
<text text-anchor="middle" x="585" y="-62" font-family="Helvetica,sans-Serif" font-size="10.00">invariant.h</text>
</a>
</g>
</g>
<!-- Node3&#45;&gt;Node8 -->
<g id="edge30_Node000003_Node000008" class="edge">
<title>Node3&#45;&gt;Node8</title>
<g id="a_edge30_Node000003_Node000008"><a xlink:title=" ">
<path fill="none" stroke="#63b8ff" d="M409.97,-447.36C296.9,-443.19 0,-424.28 0,-340.5 0,-340.5 0,-340.5 0,-173.5 0,-86.15 100.75,-129.07 186,-110 312.42,-81.73 465.59,-71.05 540.03,-67.32"/>
<polygon fill="#63b8ff" stroke="#63b8ff" points="540.61,-70.8 550.43,-66.82 540.27,-63.81 540.61,-70.8"/>
</a>
</g>
</g>
<!-- Node40 -->
<g id="Node000040" class="node">
<title>Node40</title>
<g id="a_Node000040"><a xlink:href="std__types_8h.html" target="_top" xlink:title="Pre&#45;defined types.">
<polygon fill="white" stroke="#666666" points="489.5,-404 416.5,-404 416.5,-385 489.5,-385 489.5,-404"/>
<text text-anchor="middle" x="453" y="-392" font-family="Helvetica,sans-Serif" font-size="10.00">std_types.h</text>
</a>
</g>
</g>
<!-- Node3&#45;&gt;Node40 -->
<g id="edge31_Node000003_Node000040" class="edge">
<title>Node3&#45;&gt;Node40</title>
<g id="a_edge31_Node000003_Node000040"><a xlink:title=" ">
<path fill="none" stroke="#63b8ff" d="M453,-439.75C453,-432.8 453,-422.85 453,-414.13"/>
<polygon fill="#63b8ff" stroke="#63b8ff" points="456.5,-414.09 453,-404.09 449.5,-414.09 456.5,-414.09"/>
</a>
</g>
</g>
<!-- Node5 -->
<g id="Node000005" class="node">
<title>Node5</title>
<g id="a_Node000005"><a xlink:title=" ">
<polygon fill="#e0e0e0" stroke="#999999" points="85.5,-294 28.5,-294 28.5,-275 85.5,-275 85.5,-294"/>
<text text-anchor="middle" x="57" y="-282" font-family="Helvetica,sans-Serif" font-size="10.00">typeinfo</text>
</a>
</g>
</g>
<!-- Node4&#45;&gt;Node5 -->
<g id="edge4_Node000004_Node000005" class="edge">
<title>Node4&#45;&gt;Node5</title>
<g id="a_edge4_Node000004_Node000005"><a xlink:title=" ">
<path fill="none" stroke="#63b8ff" d="M168.63,-329.98C146.85,-321.3 112.84,-307.75 88.08,-297.88"/>
<polygon fill="#63b8ff" stroke="#63b8ff" points="89.34,-294.62 78.76,-294.17 86.75,-301.12 89.34,-294.62"/>
</a>
</g>
</g>
<!-- Node6 -->
<g id="Node000006" class="node">
<title>Node6</title>
<g id="a_Node000006"><a xlink:title=" ">
<polygon fill="#e0e0e0" stroke="#999999" points="311.5,-19 242.5,-19 242.5,0 311.5,0 311.5,-19"/>
<text text-anchor="middle" x="277" y="-7" font-family="Helvetica,sans-Serif" font-size="10.00">type_traits</text>
</a>
</g>
</g>
<!-- Node4&#45;&gt;Node6 -->
<g id="edge5_Node000004_Node000006" class="edge">
<title>Node4&#45;&gt;Node6</title>
<g id="a_edge5_Node000004_Node000006"><a xlink:title=" ">
<path fill="none" stroke="#63b8ff" d="M178.12,-329.88C156.75,-313.26 114,-274.52 114,-230.5 114,-230.5 114,-230.5 114,-118.5 114,-61.45 184.24,-32.76 232.5,-19.78"/>
<polygon fill="#63b8ff" stroke="#63b8ff" points="233.61,-23.11 242.43,-17.25 231.88,-16.33 233.61,-23.11"/>
</a>
</g>
</g>
<!-- Node7 -->
<g id="Node000007" class="node">
<title>Node7</title>
<g id="a_Node000007"><a xlink:title=" ">
<polygon fill="#e0e0e0" stroke="#999999" points="283.5,-239 218.5,-239 218.5,-220 283.5,-220 283.5,-239"/>
<text text-anchor="middle" x="251" y="-227" font-family="Helvetica,sans-Serif" font-size="10.00">functional</text>
</a>
</g>
</g>
<!-- Node4&#45;&gt;Node7 -->
<g id="edge6_Node000004_Node000007" class="edge">
<title>Node4&#45;&gt;Node7</title>
<g id="a_edge6_Node000004_Node000007"><a xlink:title=" ">
<path fill="none" stroke="#63b8ff" d="M194.99,-329.66C205.05,-311.85 227.92,-271.37 241.11,-248.01"/>
<polygon fill="#63b8ff" stroke="#63b8ff" points="244.24,-249.59 246.11,-239.16 238.14,-246.14 244.24,-249.59"/>
</a>
</g>
</g>
<!-- Node4&#45;&gt;Node8 -->
<g id="edge7_Node000004_Node000008" class="edge">
<title>Node4&#45;&gt;Node8</title>
<g id="a_edge7_Node000004_Node000008"><a xlink:title=" ">
<path fill="none" stroke="#63b8ff" d="M184.72,-329.9C174.27,-312.07 152,-269.46 152,-230.5 152,-230.5 152,-230.5 152,-173.5 152,-94.13 429.37,-72.63 540.12,-67.2"/>
<polygon fill="#63b8ff" stroke="#63b8ff" points="540.47,-70.69 550.3,-66.73 540.15,-63.7 540.47,-70.69"/>
</a>
</g>
</g>
<!-- Node12 -->
<g id="Node000012" class="node">
<title>Node12</title>
<g id="a_Node000012"><a xlink:href="expr_8h.html" target="_top" xlink:title=" ">
<polygon fill="white" stroke="#666666" points="477.5,-294 430.5,-294 430.5,-275 477.5,-275 477.5,-294"/>
<text text-anchor="middle" x="454" y="-282" font-family="Helvetica,sans-Serif" font-size="10.00">expr.h</text>
</a>
</g>
</g>
<!-- Node4&#45;&gt;Node12 -->
<g id="edge12_Node000004_Node000012" class="edge">
<title>Node4&#45;&gt;Node12</title>
<g id="a_edge12_Node000004_Node000012"><a xlink:title=" ">
<path fill="none" stroke="#63b8ff" d="M226.71,-331.13C278.16,-320.8 370.98,-302.17 420.59,-292.21"/>
<polygon fill="#63b8ff" stroke="#63b8ff" points="421.38,-295.62 430.49,-290.22 420,-288.76 421.38,-295.62"/>
</a>
</g>
</g>
<!-- Node8&#45;&gt;Node6 -->
<g id="edge11_Node000008_Node000006" class="edge">
<title>Node8&#45;&gt;Node6</title>
<g id="a_edge11_Node000008_Node000006"><a xlink:title=" ">
<path fill="none" stroke="#63b8ff" d="M550.27,-57.52C494.08,-47.86 383.33,-28.8 321.47,-18.15"/>
<polygon fill="#63b8ff" stroke="#63b8ff" points="322.05,-14.7 311.61,-16.45 320.87,-21.6 322.05,-14.7"/>
</a>
</g>
</g>
<!-- Node9 -->
<g id="Node000009" class="node">
<title>Node9</title>
<g id="a_Node000009"><a xlink:title=" ">
<polygon fill="#e0e0e0" stroke="#999999" points="593.5,-19 544.5,-19 544.5,0 593.5,0 593.5,-19"/>
<text text-anchor="middle" x="569" y="-7" font-family="Helvetica,sans-Serif" font-size="10.00">cstdlib</text>
</a>
</g>
</g>
<!-- Node8&#45;&gt;Node9 -->
<g id="edge8_Node000008_Node000009" class="edge">
<title>Node8&#45;&gt;Node9</title>
<g id="a_edge8_Node000008_Node000009"><a xlink:title=" ">
<path fill="none" stroke="#63b8ff" d="M582.36,-54.75C580.24,-47.72 577.19,-37.62 574.54,-28.84"/>
<polygon fill="#63b8ff" stroke="#63b8ff" points="577.83,-27.65 571.59,-19.09 571.13,-29.67 577.83,-27.65"/>
</a>
</g>
</g>
<!-- Node10 -->
<g id="Node000010" class="node">
<title>Node10</title>
<g id="a_Node000010"><a xlink:title=" ">
<polygon fill="#e0e0e0" stroke="#999999" points="668,-19 612,-19 612,0 668,0 668,-19"/>
<text text-anchor="middle" x="640" y="-7" font-family="Helvetica,sans-Serif" font-size="10.00">sstream</text>
</a>
</g>
</g>
<!-- Node8&#45;&gt;Node10 -->
<g id="edge9_Node000008_Node000010" class="edge">
<title>Node8&#45;&gt;Node10</title>
<g id="a_edge9_Node000008_Node000010"><a xlink:title=" ">
<path fill="none" stroke="#63b8ff" d="M594.08,-54.75C602.09,-47.03 613.96,-35.6 623.62,-26.28"/>
<polygon fill="#63b8ff" stroke="#63b8ff" points="626.31,-28.55 631.09,-19.09 621.46,-23.51 626.31,-28.55"/>
</a>
</g>
</g>
<!-- Node11 -->
<g id="Node000011" class="node">
<title>Node11</title>
<g id="a_Node000011"><a xlink:title=" ">
<polygon fill="#e0e0e0" stroke="#999999" points="495,-19 451,-19 451,0 495,0 495,-19"/>
<text text-anchor="middle" x="473" y="-7" font-family="Helvetica,sans-Serif" font-size="10.00">string</text>
</a>
</g>
</g>
<!-- Node8&#45;&gt;Node11 -->
<g id="edge10_Node000008_Node000011" class="edge">
<title>Node8&#45;&gt;Node11</title>
<g id="a_edge10_Node000008_Node000011"><a xlink:title=" ">
<path fill="none" stroke="#63b8ff" d="M567.01,-54.98C549.07,-46.5 521.28,-33.35 500.57,-23.54"/>
<polygon fill="#63b8ff" stroke="#63b8ff" points="501.86,-20.28 491.32,-19.17 498.86,-26.61 501.86,-20.28"/>
</a>
</g>
</g>
<!-- Node12&#45;&gt;Node7 -->
<g id="edge29_Node000012_Node000007" class="edge">
<title>Node12&#45;&gt;Node7</title>
<g id="a_edge29_Node000012_Node000007"><a xlink:title=" ">
<path fill="none" stroke="#63b8ff" d="M430.32,-277.32C396.79,-268.56 334.95,-252.42 293.4,-241.57"/>
<polygon fill="#63b8ff" stroke="#63b8ff" points="294.12,-238.14 283.56,-239 292.35,-244.91 294.12,-238.14"/>
</a>
</g>
</g>
<!-- Node13 -->
<g id="Node000013" class="node">
<title>Node13</title>
<g id="a_Node000013"><a xlink:href="as__const_8h.html" target="_top" xlink:title=" ">
<polygon fill="white" stroke="#666666" points="698,-239 630,-239 630,-220 698,-220 698,-239"/>
<text text-anchor="middle" x="664" y="-227" font-family="Helvetica,sans-Serif" font-size="10.00">as_const.h</text>
</a>
</g>
</g>
<!-- Node12&#45;&gt;Node13 -->
<g id="edge13_Node000012_Node000013" class="edge">
<title>Node12&#45;&gt;Node13</title>
<g id="a_edge13_Node000012_Node000013"><a xlink:title=" ">
<path fill="none" stroke="#63b8ff" d="M477.68,-277.52C512.21,-268.81 576.98,-252.46 620.31,-241.53"/>
<polygon fill="#63b8ff" stroke="#63b8ff" points="621.18,-244.92 630.02,-239.08 619.47,-238.13 621.18,-244.92"/>
</a>
</g>
</g>
<!-- Node14 -->
<g id="Node000014" class="node">
<title>Node14</title>
<g id="a_Node000014"><a xlink:href="type_8h.html" target="_top" xlink:title="Defines typet, type_with_subtypet and type_with_subtypest.">
<polygon fill="white" stroke="#666666" points="425.5,-239 378.5,-239 378.5,-220 425.5,-220 425.5,-239"/>
<text text-anchor="middle" x="402" y="-227" font-family="Helvetica,sans-Serif" font-size="10.00">type.h</text>
</a>
</g>
</g>
<!-- Node12&#45;&gt;Node14 -->
<g id="edge14_Node000012_Node000014" class="edge">
<title>Node12&#45;&gt;Node14</title>
<g id="a_edge14_Node000012_Node000014"><a xlink:title=" ">
<path fill="none" stroke="#63b8ff" d="M445.41,-274.75C437.84,-267.03 426.62,-255.6 417.49,-246.28"/>
<polygon fill="#63b8ff" stroke="#63b8ff" points="419.93,-243.78 410.43,-239.09 414.93,-248.68 419.93,-243.78"/>
</a>
</g>
</g>
<!-- Node37 -->
<g id="Node000037" class="node">
<title>Node37</title>
<g id="a_Node000037"><a xlink:href="validation__mode_8h.html" target="_top" xlink:title=" ">
<polygon fill="white" stroke="#666666" points="412.5,-129 305.5,-129 305.5,-110 412.5,-110 412.5,-129"/>
<text text-anchor="middle" x="359" y="-117" font-family="Helvetica,sans-Serif" font-size="10.00">validation_mode.h</text>
</a>
</g>
</g>
<!-- Node12&#45;&gt;Node37 -->
<g id="edge28_Node000012_Node000037" class="edge">
<title>Node12&#45;&gt;Node37</title>
<g id="a_edge28_Node000012_Node000037"><a xlink:title=" ">
<path fill="none" stroke="#63b8ff" d="M430.25,-277.88C410.35,-271.82 383.01,-260.09 369,-239 348.89,-208.73 351.71,-164.05 355.43,-139.1"/>
<polygon fill="#63b8ff" stroke="#63b8ff" points="358.9,-139.59 357.13,-129.15 352,-138.42 358.9,-139.59"/>
</a>
</g>
</g>
<!-- Node38 -->
<g id="Node000038" class="node">
<title>Node38</title>
<g id="a_Node000038"><a xlink:href="validate__types_8h.html" target="_top" xlink:title=" ">
<polygon fill="white" stroke="#666666" points="634,-184 536,-184 536,-165 634,-165 634,-184"/>
<text text-anchor="middle" x="585" y="-172" font-family="Helvetica,sans-Serif" font-size="10.00">validate_types.h</text>
</a>
</g>
</g>
<!-- Node12&#45;&gt;Node38 -->
<g id="edge27_Node000012_Node000038" class="edge">
<title>Node12&#45;&gt;Node38</title>
<g id="a_edge27_Node000012_Node000038"><a xlink:title=" ">
<path fill="none" stroke="#63b8ff" d="M454.27,-274.96C455.14,-261.59 458.7,-235.61 473,-220 487.64,-204.02 508.76,-193.69 528.72,-187.05"/>
<polygon fill="#63b8ff" stroke="#63b8ff" points="529.87,-190.36 538.4,-184.08 527.81,-183.67 529.87,-190.36"/>
</a>
</g>
</g>
<!-- Node39 -->
<g id="Node000039" class="node">
<title>Node39</title>
<g id="a_Node000039"><a xlink:href="validate__expressions_8h.html" target="_top" xlink:title=" ">
<polygon fill="white" stroke="#666666" points="611.5,-239 482.5,-239 482.5,-220 611.5,-220 611.5,-239"/>
<text text-anchor="middle" x="547" y="-227" font-family="Helvetica,sans-Serif" font-size="10.00">validate_expressions.h</text>
</a>
</g>
</g>
<!-- Node12&#45;&gt;Node39 -->
<g id="edge26_Node000012_Node000039" class="edge">
<title>Node12&#45;&gt;Node39</title>
<g id="a_edge26_Node000012_Node000039"><a xlink:title=" ">
<path fill="none" stroke="#63b8ff" d="M468.94,-274.98C483.5,-266.69 505.87,-253.94 522.93,-244.22"/>
<polygon fill="#63b8ff" stroke="#63b8ff" points="524.83,-247.16 531.79,-239.17 521.36,-241.08 524.83,-247.16"/>
</a>
</g>
</g>
<!-- Node15 -->
<g id="Node000015" class="node">
<title>Node15</title>
<g id="a_Node000015"><a xlink:href="source__location_8h.html" target="_top" xlink:title=" ">
<polygon fill="#fff0f0" stroke="red" points="518,-184 416,-184 416,-165 518,-165 518,-184"/>
<text text-anchor="middle" x="467" y="-172" font-family="Helvetica,sans-Serif" font-size="10.00">source_location.h</text>
</a>
</g>
</g>
<!-- Node14&#45;&gt;Node15 -->
<g id="edge15_Node000014_Node000015" class="edge">
<title>Node14&#45;&gt;Node15</title>
<g id="a_edge15_Node000014_Node000015"><a xlink:title=" ">
<path fill="none" stroke="#63b8ff" d="M412.44,-219.98C422.15,-212.07 436.82,-200.11 448.5,-190.58"/>
<polygon fill="#63b8ff" stroke="#63b8ff" points="450.83,-193.2 456.37,-184.17 446.4,-187.78 450.83,-193.2"/>
</a>
</g>
</g>
<!-- Node35 -->
<g id="Node000035" class="node">
<title>Node35</title>
<g id="a_Node000035"><a xlink:href="validate_8h.html" target="_top" xlink:title=" ">
<polygon fill="#fff0f0" stroke="red" points="321.5,-184 256.5,-184 256.5,-165 321.5,-165 321.5,-184"/>
<text text-anchor="middle" x="289" y="-172" font-family="Helvetica,sans-Serif" font-size="10.00">validate.h</text>
</a>
</g>
</g>
<!-- Node14&#45;&gt;Node35 -->
<g id="edge21_Node000014_Node000035" class="edge">
<title>Node14&#45;&gt;Node35</title>
<g id="a_edge21_Node000014_Node000035"><a xlink:title=" ">
<path fill="none" stroke="#63b8ff" d="M383.84,-219.98C365.75,-211.5 337.72,-198.35 316.81,-188.54"/>
<polygon fill="#63b8ff" stroke="#63b8ff" points="318.03,-185.25 307.49,-184.17 315.05,-191.59 318.03,-185.25"/>
</a>
</g>
</g>
<!-- Node14&#45;&gt;Node37 -->
<g id="edge25_Node000014_Node000037" class="edge">
<title>Node14&#45;&gt;Node37</title>
<g id="a_edge25_Node000014_Node000037"><a xlink:title=" ">
<path fill="none" stroke="#63b8ff" d="M398.48,-219.66C391.45,-202.01 375.56,-162.09 366.22,-138.64"/>
<polygon fill="#63b8ff" stroke="#63b8ff" points="369.4,-137.15 362.45,-129.16 362.89,-139.74 369.4,-137.15"/>
</a>
</g>
</g>
<!-- Node14&#45;&gt;Node38 -->
<g id="edge24_Node000014_Node000038" class="edge">
<title>Node14&#45;&gt;Node38</title>
<g id="a_edge24_Node000014_Node000038"><a xlink:title=" ">
<path fill="none" stroke="#63b8ff" d="M425.55,-221.68C455.9,-212.89 509.11,-197.48 545.66,-186.89"/>
<polygon fill="#63b8ff" stroke="#63b8ff" points="546.86,-190.19 555.49,-184.05 544.91,-183.47 546.86,-190.19"/>
</a>
</g>
</g>
<!-- Node15&#45;&gt;Node11 -->
<g id="edge20_Node000015_Node000011" class="edge">
<title>Node15&#45;&gt;Node11</title>
<g id="a_edge20_Node000015_Node000011"><a xlink:title=" ">
<path fill="none" stroke="#63b8ff" d="M467.32,-164.74C468.26,-139.31 470.99,-65.08 472.29,-29.69"/>
<polygon fill="#63b8ff" stroke="#63b8ff" points="475.81,-29.43 472.68,-19.31 468.81,-29.17 475.81,-29.43"/>
</a>
</g>
</g>
<!-- Node16 -->
<g id="Node000016" class="node">
<title>Node16</title>
<g id="a_Node000016"><a xlink:href="deprecate_8h.html" target="_top" xlink:title=" ">
<polygon fill="white" stroke="#666666" points="560,-129 486,-129 486,-110 560,-110 560,-129"/>
<text text-anchor="middle" x="523" y="-117" font-family="Helvetica,sans-Serif" font-size="10.00">deprecate.h</text>
</a>
</g>
</g>
<!-- Node15&#45;&gt;Node16 -->
<g id="edge16_Node000015_Node000016" class="edge">
<title>Node15&#45;&gt;Node16</title>
<g id="a_edge16_Node000015_Node000016"><a xlink:title=" ">
<path fill="none" stroke="#63b8ff" d="M476,-164.98C484.19,-157.23 496.51,-145.58 506.47,-136.14"/>
<polygon fill="#63b8ff" stroke="#63b8ff" points="508.98,-138.59 513.84,-129.17 504.17,-133.5 508.98,-138.59"/>
</a>
</g>
</g>
<!-- Node17 -->
<g id="Node000017" class="node">
<title>Node17</title>
<g id="a_Node000017"><a xlink:href="irep_8h.html" target="_top" xlink:title=" ">
<polygon fill="#fff0f0" stroke="red" points="622,-129 578,-129 578,-110 622,-110 622,-129"/>
<text text-anchor="middle" x="600" y="-117" font-family="Helvetica,sans-Serif" font-size="10.00">irep.h</text>
</a>
</g>
</g>
<!-- Node15&#45;&gt;Node17 -->
<g id="edge17_Node000015_Node000017" class="edge">
<title>Node15&#45;&gt;Node17</title>
<g id="a_edge17_Node000015_Node000017"><a xlink:title=" ">
<path fill="none" stroke="#63b8ff" d="M488.37,-164.98C510.15,-156.3 544.16,-142.75 568.92,-132.88"/>
<polygon fill="#63b8ff" stroke="#63b8ff" points="570.25,-136.12 578.24,-129.17 567.66,-129.62 570.25,-136.12"/>
</a>
</g>
</g>
<!-- Node17&#45;&gt;Node8 -->
<g id="edge19_Node000017_Node000008" class="edge">
<title>Node17&#45;&gt;Node8</title>
<g id="a_edge19_Node000017_Node000008"><a xlink:title=" ">
<path fill="none" stroke="#63b8ff" d="M597.52,-109.75C595.54,-102.72 592.68,-92.62 590.19,-83.84"/>
<polygon fill="#63b8ff" stroke="#63b8ff" points="593.52,-82.76 587.43,-74.09 586.79,-84.66 593.52,-82.76"/>
</a>
</g>
</g>
<!-- Node17&#45;&gt;Node11 -->
<g id="edge18_Node000017_Node000011" class="edge">
<title>Node17&#45;&gt;Node11</title>
<g id="a_edge18_Node000017_Node000011"><a xlink:title=" ">
<path fill="none" stroke="#63b8ff" d="M588.21,-109.93C576.31,-101.18 557.54,-87.07 542,-74 523.46,-58.41 503.16,-39.49 489.41,-26.38"/>
<polygon fill="#63b8ff" stroke="#63b8ff" points="491.78,-23.8 482.14,-19.4 486.93,-28.85 491.78,-23.8"/>
</a>
</g>
</g>
<!-- Node35&#45;&gt;Node6 -->
<g id="edge22_Node000035_Node000006" class="edge">
<title>Node35&#45;&gt;Node6</title>
<g id="a_edge22_Node000035_Node000006"><a xlink:title=" ">
<path fill="none" stroke="#63b8ff" d="M288.35,-164.74C286.48,-139.31 281.02,-65.08 278.41,-29.69"/>
<polygon fill="#63b8ff" stroke="#63b8ff" points="281.87,-29.02 277.65,-19.31 274.89,-29.54 281.87,-29.02"/>
</a>
</g>
</g>
<!-- Node35&#45;&gt;Node37 -->
<g id="edge23_Node000035_Node000037" class="edge">
<title>Node35&#45;&gt;Node37</title>
<g id="a_edge23_Node000035_Node000037"><a xlink:title=" ">
<path fill="none" stroke="#63b8ff" d="M300.25,-164.98C310.8,-157 326.8,-144.88 339.44,-135.31"/>
<polygon fill="#63b8ff" stroke="#63b8ff" points="341.69,-138 347.55,-129.17 337.46,-132.42 341.69,-138"/>
</a>
</g>
</g>
<!-- Node40&#45;&gt;Node4 -->
<g id="edge33_Node000040_Node000004" class="edge">
<title>Node40&#45;&gt;Node4</title>
<g id="a_edge33_Node000040_Node000004"><a xlink:title=" ">
<path fill="none" stroke="#63b8ff" d="M416.43,-386.13C369.46,-376.66 287.88,-360.22 236.53,-349.88"/>
<polygon fill="#63b8ff" stroke="#63b8ff" points="237.18,-346.44 226.68,-347.89 235.79,-353.3 237.18,-346.44"/>
</a>
</g>
</g>
<!-- Node40&#45;&gt;Node8 -->
<g id="edge34_Node000040_Node000008" class="edge">
<title>Node40&#45;&gt;Node8</title>
<g id="a_edge34_Node000040_Node000008"><a xlink:title=" ">
<path fill="none" stroke="#63b8ff" d="M487.27,-384.93C545.53,-368.24 661.96,-325.24 707,-239 740.18,-175.47 652.37,-108.24 608.38,-79.67"/>
<polygon fill="#63b8ff" stroke="#63b8ff" points="610.03,-76.57 599.71,-74.17 606.28,-82.49 610.03,-76.57"/>
</a>
</g>
</g>
<!-- Node40&#45;&gt;Node12 -->
<g id="edge32_Node000040_Node000012" class="edge">
<title>Node40&#45;&gt;Node12</title>
<g id="a_edge32_Node000040_Node000012"><a xlink:title=" ">
<path fill="none" stroke="#63b8ff" d="M470.46,-384.88C483.47,-377.38 500.28,-365.18 508,-349 517.27,-329.58 497.56,-311.3 479.4,-299.39"/>
<polygon fill="#63b8ff" stroke="#63b8ff" points="481.1,-296.32 470.75,-294.07 477.44,-302.29 481.1,-296.32"/>
</a>
</g>
</g>
<!-- Node40&#45;&gt;Node35 -->
<g id="edge39_Node000040_Node000035" class="edge">
<title>Node40&#45;&gt;Node35</title>
<g id="a_edge39_Node000040_Node000035"><a xlink:title=" ">
<path fill="none" stroke="#63b8ff" d="M439.19,-384.98C426.93,-376.89 409.13,-363.79 397,-349 373.56,-320.41 378.13,-306.64 359,-275 340.7,-244.73 316.39,-211.48 301.76,-192.11"/>
<polygon fill="#63b8ff" stroke="#63b8ff" points="304.44,-189.85 295.6,-184.01 298.87,-194.09 304.44,-189.85"/>
</a>
</g>
</g>
<!-- Node41 -->
<g id="Node000041" class="node">
<title>Node41</title>
<g id="a_Node000041"><a xlink:href="mp__arith_8h.html" target="_top" xlink:title=" ">
<polygon fill="white" stroke="#666666" points="343.5,-349 274.5,-349 274.5,-330 343.5,-330 343.5,-349"/>
<text text-anchor="middle" x="309" y="-337" font-family="Helvetica,sans-Serif" font-size="10.00">mp_arith.h</text>
</a>
</g>
</g>
<!-- Node40&#45;&gt;Node41 -->
<g id="edge35_Node000040_Node000041" class="edge">
<title>Node40&#45;&gt;Node41</title>
<g id="a_edge35_Node000040_Node000041"><a xlink:title=" ">
<path fill="none" stroke="#63b8ff" d="M429.86,-384.98C406.18,-376.27 369.13,-362.63 342.29,-352.75"/>
<polygon fill="#63b8ff" stroke="#63b8ff" points="343.15,-349.34 332.56,-349.17 340.73,-355.91 343.15,-349.34"/>
</a>
</g>
</g>
<!-- Node26 -->
<g id="Node000026" class="node">
<title>Node26</title>
<g id="a_Node000026"><a xlink:title=" ">
<polygon fill="#e0e0e0" stroke="#999999" points="499.5,-349 406.5,-349 406.5,-330 499.5,-330 499.5,-349"/>
<text text-anchor="middle" x="453" y="-337" font-family="Helvetica,sans-Serif" font-size="10.00">unordered_map</text>
</a>
</g>
</g>
<!-- Node40&#45;&gt;Node26 -->
<g id="edge40_Node000040_Node000026" class="edge">
<title>Node40&#45;&gt;Node26</title>
<g id="a_edge40_Node000040_Node000026"><a xlink:title=" ">
<path fill="none" stroke="#63b8ff" d="M453,-384.75C453,-377.8 453,-367.85 453,-359.13"/>
<polygon fill="#63b8ff" stroke="#63b8ff" points="456.5,-359.09 453,-349.09 449.5,-359.09 456.5,-359.09"/>
</a>
</g>
</g>
<!-- Node41&#45;&gt;Node11 -->
<g id="edge37_Node000041_Node000011" class="edge">
<title>Node41&#45;&gt;Node11</title>
<g id="a_edge37_Node000041_Node000011"><a xlink:title=" ">
<path fill="none" stroke="#63b8ff" d="M294.12,-329.87C280.83,-321.7 261.3,-308.56 247,-294 206.05,-252.31 190,-233.94 190,-175.5 190,-175.5 190,-175.5 190,-118.5 190,-65.37 366.31,-28.83 440.61,-15.79"/>
<polygon fill="#63b8ff" stroke="#63b8ff" points="441.53,-19.18 450.79,-14.03 440.34,-12.28 441.53,-19.18"/>
</a>
</g>
</g>
<!-- Node21 -->
<g id="Node000021" class="node">
<title>Node21</title>
<g id="a_Node000021"><a xlink:title=" ">
<polygon fill="#e0e0e0" stroke="#999999" points="619,-294 571,-294 571,-275 619,-275 619,-294"/>
<text text-anchor="middle" x="595" y="-282" font-family="Helvetica,sans-Serif" font-size="10.00">iosfwd</text>
</a>
</g>
</g>
<!-- Node41&#45;&gt;Node21 -->
<g id="edge36_Node000041_Node000021" class="edge">
<title>Node41&#45;&gt;Node21</title>
<g id="a_edge36_Node000041_Node000021"><a xlink:title=" ">
<path fill="none" stroke="#63b8ff" d="M343.78,-332.05C399.03,-321.82 506.15,-301.96 560.94,-291.81"/>
<polygon fill="#63b8ff" stroke="#63b8ff" points="561.66,-295.24 570.85,-289.97 560.38,-288.36 561.66,-295.24"/>
</a>
</g>
</g>
<!-- Node42 -->
<g id="Node000042" class="node">
<title>Node42</title>
<g id="a_Node000042"><a xlink:title=" ">
<polygon fill="#e0e0e0" stroke="#999999" points="350,-294 256,-294 256,-275 350,-275 350,-294"/>
<text text-anchor="middle" x="303" y="-282" font-family="Helvetica,sans-Serif" font-size="10.00">big&#45;int/bigint.hh</text>
</a>
</g>
</g>
<!-- Node41&#45;&gt;Node42 -->
<g id="edge38_Node000041_Node000042" class="edge">
<title>Node41&#45;&gt;Node42</title>
<g id="a_edge38_Node000041_Node000042"><a xlink:title=" ">
<path fill="none" stroke="#63b8ff" d="M308.01,-329.75C307.22,-322.8 306.1,-312.85 305.11,-304.13"/>
<polygon fill="#63b8ff" stroke="#63b8ff" points="308.58,-303.63 303.97,-294.09 301.62,-304.42 308.58,-303.63"/>
</a>
</g>
</g>
<!-- Node44&#45;&gt;Node16 -->
<g id="edge43_Node000044_Node000016" class="edge">
<title>Node44&#45;&gt;Node16</title>
<g id="a_edge43_Node000044_Node000016"><a xlink:title=" ">
<path fill="none" stroke="#63b8ff" d="M669.77,-549.95C698.99,-534.5 754,-498.99 754,-450.5 754,-450.5 754,-450.5 754,-393.5 754,-313.61 749.62,-287.57 707,-220 676.44,-171.56 613.7,-145.04 570.03,-131.82"/>
<polygon fill="#63b8ff" stroke="#63b8ff" points="570.77,-128.39 560.19,-128.96 568.82,-135.11 570.77,-128.39"/>
</a>
</g>
</g>
<!-- Node44&#45;&gt;Node45 -->
<g id="edge44_Node000044_Node000045" class="edge">
<title>Node44&#45;&gt;Node45</title>
<g id="a_edge44_Node000044_Node000045"><a xlink:title=" ">
<path fill="none" stroke="#63b8ff" d="M640.91,-549.98C630.51,-542 614.74,-529.88 602.28,-520.31"/>
<polygon fill="#63b8ff" stroke="#63b8ff" points="604.35,-517.49 594.29,-514.17 600.09,-523.04 604.35,-517.49"/>
</a>
</g>
</g>
<!-- Node45&#45;&gt;Node3 -->
<g id="edge47_Node000045_Node000003" class="edge">
<title>Node45&#45;&gt;Node3</title>
<g id="a_edge47_Node000045_Node000003"><a xlink:title=" ">
<path fill="none" stroke="#63b8ff" d="M562.11,-494.98C540.92,-486.34 507.87,-472.87 483.7,-463.02"/>
<polygon fill="#63b8ff" stroke="#63b8ff" points="484.85,-459.7 474.27,-459.17 482.21,-466.19 484.85,-459.7"/>
</a>
</g>
</g>
<!-- Node46 -->
<g id="Node000046" class="node">
<title>Node46</title>
<g id="a_Node000046"><a xlink:href="bitvector__types_8h.html" target="_top" xlink:title="Pre&#45;defined bitvector types.">
<polygon fill="white" stroke="#666666" points="627.5,-459 526.5,-459 526.5,-440 627.5,-440 627.5,-459"/>
<text text-anchor="middle" x="577" y="-447" font-family="Helvetica,sans-Serif" font-size="10.00">bitvector_types.h</text>
</a>
</g>
</g>
<!-- Node45&#45;&gt;Node46 -->
<g id="edge45_Node000045_Node000046" class="edge">
<title>Node45&#45;&gt;Node46</title>
<g id="a_edge45_Node000045_Node000046"><a xlink:title=" ">
<path fill="none" stroke="#63b8ff" d="M582.01,-494.75C581.22,-487.8 580.1,-477.85 579.11,-469.13"/>
<polygon fill="#63b8ff" stroke="#63b8ff" points="582.58,-468.63 577.97,-459.09 575.62,-469.42 582.58,-468.63"/>
</a>
</g>
</g>
<!-- Node46&#45;&gt;Node40 -->
<g id="edge46_Node000046_Node000040" class="edge">
<title>Node46&#45;&gt;Node40</title>
<g id="a_edge46_Node000046_Node000040"><a xlink:title=" ">
<path fill="none" stroke="#63b8ff" d="M557.08,-439.98C536.95,-431.38 505.62,-417.99 482.59,-408.15"/>
<polygon fill="#63b8ff" stroke="#63b8ff" points="483.86,-404.88 473.29,-404.17 481.1,-411.32 483.86,-404.88"/>
</a>
</g>
</g>
<!-- Node47&#45;&gt;Node8 -->
<g id="edge49_Node000047_Node000008" class="edge">
<title>Node47&#45;&gt;Node8</title>
<g id="a_edge49_Node000047_Node000008"><a xlink:title=" ">
<path fill="none" stroke="#63b8ff" d="M874.91,-164.9C864.53,-150.96 842,-123.6 816,-110 756.49,-78.87 678.13,-69.37 629.68,-66.56"/>
<polygon fill="#63b8ff" stroke="#63b8ff" points="629.68,-63.05 619.52,-66.04 629.33,-70.04 629.68,-63.05"/>
</a>
</g>
</g>
<!-- Node47&#45;&gt;Node17 -->
<g id="edge50_Node000047_Node000017" class="edge">
<title>Node47&#45;&gt;Node17</title>
<g id="a_edge50_Node000047_Node000017"><a xlink:title=" ">
<path fill="none" stroke="#63b8ff" d="M835.85,-164.98C778.79,-154.22 681.98,-135.96 631.99,-126.53"/>
<polygon fill="#63b8ff" stroke="#63b8ff" points="632.54,-123.08 622.07,-124.66 631.25,-129.96 632.54,-123.08"/>
</a>
</g>
</g>
<!-- Node48&#45;&gt;Node8 -->
<g id="edge56_Node000048_Node000008" class="edge">
<title>Node48&#45;&gt;Node8</title>
<g id="a_edge56_Node000048_Node000008"><a xlink:title=" ">
<path fill="none" stroke="#63b8ff" d="M819.3,-329.92C813.84,-311.77 802,-268.07 802,-230.5 802,-230.5 802,-230.5 802,-173.5 802,-97.36 693.61,-74.9 630.04,-68.27"/>
<polygon fill="#63b8ff" stroke="#63b8ff" points="630.15,-64.77 619.86,-67.31 629.49,-71.74 630.15,-64.77"/>
</a>
</g>
</g>
<!-- Node48&#45;&gt;Node12 -->
<g id="edge55_Node000048_Node000012" class="edge">
<title>Node48&#45;&gt;Node12</title>
<g id="a_edge55_Node000048_Node000012"><a xlink:title=" ">
<path fill="none" stroke="#63b8ff" d="M781.92,-332.73C709.07,-322.23 556.19,-300.22 488.04,-290.4"/>
<polygon fill="#63b8ff" stroke="#63b8ff" points="488.25,-286.9 477.86,-288.94 487.26,-293.83 488.25,-286.9"/>
</a>
</g>
</g>
<!-- Node48&#45;&gt;Node21 -->
<g id="edge54_Node000048_Node000021" class="edge">
<title>Node48&#45;&gt;Node21</title>
<g id="a_edge54_Node000048_Node000021"><a xlink:title=" ">
<path fill="none" stroke="#63b8ff" d="M785.53,-329.98C742.34,-319.9 670.98,-303.24 628.94,-293.42"/>
<polygon fill="#63b8ff" stroke="#63b8ff" points="629.7,-290.01 619.17,-291.14 628.11,-296.82 629.7,-290.01"/>
</a>
</g>
</g>
</g>
</svg>
