<?xml version="1.0" encoding="UTF-8" standalone="no"?>
<!DOCTYPE svg PUBLIC "-//W3C//DTD SVG 1.1//EN"
 "http://www.w3.org/Graphics/SVG/1.1/DTD/svg11.dtd">
<!-- Generated by graphviz version 2.43.0 (0)
 -->
<!-- Title: /home/runner/work/cbmc/cbmc/src/langapi/mode.cpp Pages: 1 -->
<svg width="1414pt" height="698pt"
 viewBox="0.00 0.00 1414.00 698.00" xmlns="http://www.w3.org/2000/svg" xmlns:xlink="http://www.w3.org/1999/xlink">
<g id="graph0" class="graph" transform="scale(1 1) rotate(0) translate(4 694)">
<title>/home/runner/work/cbmc/cbmc/src/langapi/mode.cpp</title>
<!-- Node1 -->
<g id="Node000001" class="node">
<title>Node1</title>
<g id="a_Node000001"><a xlink:title=" ">
<polygon fill="#999999" stroke="#666666" points="359.5,-690 206.5,-690 206.5,-660 359.5,-660 359.5,-690"/>
<text text-anchor="start" x="214.5" y="-678" font-family="Helvetica,sans-Serif" font-size="10.00">/home/runner/work/cbmc</text>
<text text-anchor="middle" x="283" y="-667" font-family="Helvetica,sans-Serif" font-size="10.00">/cbmc/src/langapi/mode.cpp</text>
</a>
</g>
</g>
<!-- Node2 -->
<g id="Node000002" class="node">
<title>Node2</title>
<g id="a_Node000002"><a xlink:href="mode_8h.html" target="_top" xlink:title=" ">
<polygon fill="white" stroke="#666666" points="249.5,-349 196.5,-349 196.5,-330 249.5,-330 249.5,-349"/>
<text text-anchor="middle" x="223" y="-337" font-family="Helvetica,sans-Serif" font-size="10.00">mode.h</text>
</a>
</g>
</g>
<!-- Node1&#45;&gt;Node2 -->
<g id="edge1_Node000001_Node000002" class="edge">
<title>Node1&#45;&gt;Node2</title>
<g id="a_edge1_Node000001_Node000002"><a xlink:title=" ">
<path fill="none" stroke="#63b8ff" d="M274.52,-659.87C262.78,-638.94 243,-598.11 243,-560.5 243,-560.5 243,-560.5 243,-448.5 243,-416.51 234.41,-380.07 228.49,-358.75"/>
<polygon fill="#63b8ff" stroke="#63b8ff" points="231.84,-357.71 225.7,-349.08 225.11,-359.66 231.84,-357.71"/>
</a>
</g>
</g>
<!-- Node6 -->
<g id="Node000006" class="node">
<title>Node6</title>
<g id="a_Node000006"><a xlink:href="src_2util_2invariant_8h.html" target="_top" xlink:title=" ">
<polygon fill="white" stroke="#666666" points="1122.5,-129 1053.5,-129 1053.5,-110 1122.5,-110 1122.5,-129"/>
<text text-anchor="middle" x="1088" y="-117" font-family="Helvetica,sans-Serif" font-size="10.00">invariant.h</text>
</a>
</g>
</g>
<!-- Node1&#45;&gt;Node6 -->
<g id="edge45_Node000001_Node000006" class="edge">
<title>Node1&#45;&gt;Node6</title>
<g id="a_edge45_Node000001_Node000006"><a xlink:title=" ">
<path fill="none" stroke="#63b8ff" d="M359.75,-674.3C612.98,-674.3 1406,-665.89 1406,-560.5 1406,-560.5 1406,-560.5 1406,-228.5 1406,-179.91 1361.64,-184.18 1317,-165 1256.46,-138.99 1180.38,-128.06 1132.96,-123.56"/>
<polygon fill="#63b8ff" stroke="#63b8ff" points="1132.98,-120.05 1122.71,-122.64 1132.36,-127.02 1132.98,-120.05"/>
</a>
</g>
</g>
<!-- Node16 -->
<g id="Node000016" class="node">
<title>Node16</title>
<g id="a_Node000016"><a xlink:title=" ">
<polygon fill="#e0e0e0" stroke="#999999" points="32,-74 0,-74 0,-55 32,-55 32,-74"/>
<text text-anchor="middle" x="16" y="-62" font-family="Helvetica,sans-Serif" font-size="10.00">list</text>
</a>
</g>
</g>
<!-- Node1&#45;&gt;Node16 -->
<g id="edge34_Node000001_Node000016" class="edge">
<title>Node1&#45;&gt;Node16</title>
<g id="a_edge34_Node000001_Node000016"><a xlink:title=" ">
<path fill="none" stroke="#63b8ff" d="M206.33,-670.67C132.51,-662.85 32,-637.98 32,-560.5 32,-560.5 32,-560.5 32,-173.5 32,-141.85 25.19,-105.54 20.46,-84.11"/>
<polygon fill="#63b8ff" stroke="#63b8ff" points="23.81,-83.08 18.16,-74.12 16.99,-84.65 23.81,-83.08"/>
</a>
</g>
</g>
<!-- Node26 -->
<g id="Node000026" class="node">
<title>Node26</title>
<g id="a_Node000026"><a xlink:title=" ">
<polygon fill="#e0e0e0" stroke="#999999" points="134,-294 76,-294 76,-275 134,-275 134,-294"/>
<text text-anchor="middle" x="105" y="-282" font-family="Helvetica,sans-Serif" font-size="10.00">memory</text>
</a>
</g>
</g>
<!-- Node1&#45;&gt;Node26 -->
<g id="edge35_Node000001_Node000026" class="edge">
<title>Node1&#45;&gt;Node26</title>
<g id="a_edge35_Node000001_Node000026"><a xlink:title=" ">
<path fill="none" stroke="#63b8ff" d="M224.94,-659.91C177.07,-644.42 117,-614.26 117,-560.5 117,-560.5 117,-560.5 117,-393.5 117,-362 111.89,-325.64 108.34,-304.16"/>
<polygon fill="#63b8ff" stroke="#63b8ff" points="111.76,-303.4 106.62,-294.14 104.87,-304.59 111.76,-303.4"/>
</a>
</g>
</g>
<!-- Node27 -->
<g id="Node000027" class="node">
<title>Node27</title>
<g id="a_Node000027"><a xlink:title=" ">
<polygon fill="#e0e0e0" stroke="#999999" points="184,-294 152,-294 152,-275 184,-275 184,-294"/>
<text text-anchor="middle" x="168" y="-282" font-family="Helvetica,sans-Serif" font-size="10.00">set</text>
</a>
</g>
</g>
<!-- Node1&#45;&gt;Node27 -->
<g id="edge36_Node000001_Node000027" class="edge">
<title>Node1&#45;&gt;Node27</title>
<g id="a_edge36_Node000001_Node000027"><a xlink:title=" ">
<path fill="none" stroke="#63b8ff" d="M251.88,-659.85C217.82,-641.98 168,-607.77 168,-560.5 168,-560.5 168,-560.5 168,-393.5 168,-362.19 168,-325.77 168,-304.23"/>
<polygon fill="#63b8ff" stroke="#63b8ff" points="171.5,-304.18 168,-294.18 164.5,-304.18 171.5,-304.18"/>
</a>
</g>
</g>
<!-- Node28 -->
<g id="Node000028" class="node">
<title>Node28</title>
<g id="a_Node000028"><a xlink:href="language_8h.html" target="_top" xlink:title="Abstract interface to support a programming language.">
<polygon fill="white" stroke="#666666" points="338.5,-349 267.5,-349 267.5,-330 338.5,-330 338.5,-349"/>
<text text-anchor="middle" x="303" y="-337" font-family="Helvetica,sans-Serif" font-size="10.00">language.h</text>
</a>
</g>
</g>
<!-- Node1&#45;&gt;Node28 -->
<g id="edge37_Node000001_Node000028" class="edge">
<title>Node1&#45;&gt;Node28</title>
<g id="a_edge37_Node000001_Node000028"><a xlink:title=" ">
<path fill="none" stroke="#63b8ff" d="M285.07,-659.7C288,-638.22 293,-596.3 293,-560.5 293,-560.5 293,-560.5 293,-448.5 293,-417.06 297.25,-380.68 300.21,-359.19"/>
<polygon fill="#63b8ff" stroke="#63b8ff" points="303.7,-359.55 301.65,-349.15 296.77,-358.56 303.7,-359.55"/>
</a>
</g>
</g>
<!-- Node30 -->
<g id="Node000030" class="node">
<title>Node30</title>
<g id="a_Node000030"><a xlink:href="namespace_8h.html" target="_top" xlink:title=" ">
<polygon fill="white" stroke="#666666" points="591.5,-349 490.5,-349 490.5,-330 591.5,-330 591.5,-349"/>
<text text-anchor="middle" x="541" y="-337" font-family="Helvetica,sans-Serif" font-size="10.00">util/namespace.h</text>
</a>
</g>
</g>
<!-- Node1&#45;&gt;Node30 -->
<g id="edge46_Node000001_Node000030" class="edge">
<title>Node1&#45;&gt;Node30</title>
<g id="a_edge46_Node000001_Node000030"><a xlink:title=" ">
<path fill="none" stroke="#63b8ff" d="M359.75,-662.62C417.23,-649.24 486,-620.66 486,-560.5 486,-560.5 486,-560.5 486,-448.5 486,-412.94 509.97,-377.27 526.26,-357.12"/>
<polygon fill="#63b8ff" stroke="#63b8ff" points="529.12,-359.16 532.88,-349.25 523.77,-354.65 529.12,-359.16"/>
</a>
</g>
</g>
<!-- Node31 -->
<g id="Node000031" class="node">
<title>Node31</title>
<g id="a_Node000031"><a xlink:href="symbol_8h.html" target="_top" xlink:title="Symbol table entry.">
<polygon fill="white" stroke="#666666" points="780,-624 700,-624 700,-605 780,-605 780,-624"/>
<text text-anchor="middle" x="740" y="-612" font-family="Helvetica,sans-Serif" font-size="10.00">util/symbol.h</text>
</a>
</g>
</g>
<!-- Node1&#45;&gt;Node31 -->
<g id="edge49_Node000001_Node000031" class="edge">
<title>Node1&#45;&gt;Node31</title>
<g id="a_edge49_Node000001_Node000031"><a xlink:title=" ">
<path fill="none" stroke="#63b8ff" d="M359.75,-664.18C453.55,-652.17 609.61,-632.19 689.5,-621.97"/>
<polygon fill="#63b8ff" stroke="#63b8ff" points="690.31,-625.39 699.78,-620.65 689.42,-618.45 690.31,-625.39"/>
</a>
</g>
</g>
<!-- Node3 -->
<g id="Node000003" class="node">
<title>Node3</title>
<g id="a_Node000003"><a xlink:href="irep_8h.html" target="_top" xlink:title=" ">
<polygon fill="white" stroke="#666666" points="572.5,-294 509.5,-294 509.5,-275 572.5,-275 572.5,-294"/>
<text text-anchor="middle" x="541" y="-282" font-family="Helvetica,sans-Serif" font-size="10.00">util/irep.h</text>
</a>
</g>
</g>
<!-- Node2&#45;&gt;Node3 -->
<g id="edge2_Node000002_Node000003" class="edge">
<title>Node2&#45;&gt;Node3</title>
<g id="a_edge2_Node000002_Node000003"><a xlink:title=" ">
<path fill="none" stroke="#63b8ff" d="M249.7,-331.78C252.5,-331.14 255.3,-330.54 258,-330 343.22,-312.98 443.96,-298.46 499.32,-290.96"/>
<polygon fill="#63b8ff" stroke="#63b8ff" points="500,-294.4 509.44,-289.6 499.06,-287.46 500,-294.4"/>
</a>
</g>
</g>
<!-- Node2&#45;&gt;Node26 -->
<g id="edge33_Node000002_Node000026" class="edge">
<title>Node2&#45;&gt;Node26</title>
<g id="a_edge33_Node000002_Node000026"><a xlink:title=" ">
<path fill="none" stroke="#63b8ff" d="M204.04,-329.98C184.97,-321.42 155.34,-308.11 133.45,-298.28"/>
<polygon fill="#63b8ff" stroke="#63b8ff" points="134.86,-295.07 124.3,-294.17 131.99,-301.46 134.86,-295.07"/>
</a>
</g>
</g>
<!-- Node4 -->
<g id="Node000004" class="node">
<title>Node4</title>
<g id="a_Node000004"><a xlink:title=" ">
<polygon fill="#e0e0e0" stroke="#999999" points="536,-19 492,-19 492,0 536,0 536,-19"/>
<text text-anchor="middle" x="514" y="-7" font-family="Helvetica,sans-Serif" font-size="10.00">string</text>
</a>
</g>
</g>
<!-- Node3&#45;&gt;Node4 -->
<g id="edge3_Node000003_Node000004" class="edge">
<title>Node3&#45;&gt;Node4</title>
<g id="a_edge3_Node000003_Node000004"><a xlink:title=" ">
<path fill="none" stroke="#63b8ff" d="M543.26,-274.9C550.92,-244.1 574.01,-136.77 547,-55 543.54,-44.54 536.57,-34.53 529.92,-26.66"/>
<polygon fill="#63b8ff" stroke="#63b8ff" points="532.33,-24.1 523.02,-19.04 527.14,-28.8 532.33,-24.1"/>
</a>
</g>
</g>
<!-- Node5 -->
<g id="Node000005" class="node">
<title>Node5</title>
<g id="a_Node000005"><a xlink:title=" ">
<polygon fill="#e0e0e0" stroke="#999999" points="537.5,-74 490.5,-74 490.5,-55 537.5,-55 537.5,-74"/>
<text text-anchor="middle" x="514" y="-62" font-family="Helvetica,sans-Serif" font-size="10.00">vector</text>
</a>
</g>
</g>
<!-- Node3&#45;&gt;Node5 -->
<g id="edge4_Node000003_Node000005" class="edge">
<title>Node3&#45;&gt;Node5</title>
<g id="a_edge4_Node000003_Node000005"><a xlink:title=" ">
<path fill="none" stroke="#63b8ff" d="M539.94,-274.95C535.98,-242.95 521.95,-129.68 516.34,-84.4"/>
<polygon fill="#63b8ff" stroke="#63b8ff" points="519.78,-83.72 515.08,-74.22 512.84,-84.58 519.78,-83.72"/>
</a>
</g>
</g>
<!-- Node3&#45;&gt;Node6 -->
<g id="edge5_Node000003_Node000006" class="edge">
<title>Node3&#45;&gt;Node6</title>
<g id="a_edge5_Node000003_Node000006"><a xlink:title=" ">
<path fill="none" stroke="#63b8ff" d="M572.8,-280.9C619.43,-276.36 708.57,-264.87 780,-239 843.24,-216.09 849.52,-189.9 912,-165 955.17,-147.79 1006.99,-135.65 1043.18,-128.44"/>
<polygon fill="#63b8ff" stroke="#63b8ff" points="1044.27,-131.79 1053.42,-126.45 1042.94,-124.92 1044.27,-131.79"/>
</a>
</g>
</g>
<!-- Node10 -->
<g id="Node000010" class="node">
<title>Node10</title>
<g id="a_Node000010"><a xlink:href="irep__ids_8h.html" target="_top" xlink:title="util">
<polygon fill="white" stroke="#666666" points="489,-239 425,-239 425,-220 489,-220 489,-239"/>
<text text-anchor="middle" x="457" y="-227" font-family="Helvetica,sans-Serif" font-size="10.00">irep_ids.h</text>
</a>
</g>
</g>
<!-- Node3&#45;&gt;Node10 -->
<g id="edge10_Node000003_Node000010" class="edge">
<title>Node3&#45;&gt;Node10</title>
<g id="a_edge10_Node000003_Node000010"><a xlink:title=" ">
<path fill="none" stroke="#63b8ff" d="M527.5,-274.98C514.6,-266.84 494.9,-254.41 479.6,-244.76"/>
<polygon fill="#63b8ff" stroke="#63b8ff" points="481.07,-241.55 470.74,-239.17 477.33,-247.47 481.07,-241.55"/>
</a>
</g>
</g>
<!-- Node21 -->
<g id="Node000021" class="node">
<title>Node21</title>
<g id="a_Node000021"><a xlink:href="forward__list__as__map_8h.html" target="_top" xlink:title=" ">
<polygon fill="white" stroke="#666666" points="770.5,-239 643.5,-239 643.5,-220 770.5,-220 770.5,-239"/>
<text text-anchor="middle" x="707" y="-227" font-family="Helvetica,sans-Serif" font-size="10.00">forward_list_as_map.h</text>
</a>
</g>
</g>
<!-- Node3&#45;&gt;Node21 -->
<g id="edge26_Node000003_Node000021" class="edge">
<title>Node3&#45;&gt;Node21</title>
<g id="a_edge26_Node000003_Node000021"><a xlink:title=" ">
<path fill="none" stroke="#63b8ff" d="M567.67,-274.98C595.54,-266.09 639.45,-252.07 670.52,-242.15"/>
<polygon fill="#63b8ff" stroke="#63b8ff" points="671.66,-245.46 680.12,-239.08 669.53,-238.79 671.66,-245.46"/>
</a>
</g>
</g>
<!-- Node6&#45;&gt;Node4 -->
<g id="edge8_Node000006_Node000004" class="edge">
<title>Node6&#45;&gt;Node4</title>
<g id="a_edge8_Node000006_Node000004"><a xlink:title=" ">
<path fill="none" stroke="#63b8ff" d="M1081.18,-109.6C1069.59,-95.21 1044.49,-67.23 1016,-55 930.86,-18.44 642.96,-11.92 546.1,-10.75"/>
<polygon fill="#63b8ff" stroke="#63b8ff" points="546.07,-7.25 536.03,-10.64 545.99,-14.25 546.07,-7.25"/>
</a>
</g>
</g>
<!-- Node7 -->
<g id="Node000007" class="node">
<title>Node7</title>
<g id="a_Node000007"><a xlink:title=" ">
<polygon fill="#e0e0e0" stroke="#999999" points="1112.5,-74 1063.5,-74 1063.5,-55 1112.5,-55 1112.5,-74"/>
<text text-anchor="middle" x="1088" y="-62" font-family="Helvetica,sans-Serif" font-size="10.00">cstdlib</text>
</a>
</g>
</g>
<!-- Node6&#45;&gt;Node7 -->
<g id="edge6_Node000006_Node000007" class="edge">
<title>Node6&#45;&gt;Node7</title>
<g id="a_edge6_Node000006_Node000007"><a xlink:title=" ">
<path fill="none" stroke="#63b8ff" d="M1088,-109.75C1088,-102.8 1088,-92.85 1088,-84.13"/>
<polygon fill="#63b8ff" stroke="#63b8ff" points="1091.5,-84.09 1088,-74.09 1084.5,-84.09 1091.5,-84.09"/>
</a>
</g>
</g>
<!-- Node8 -->
<g id="Node000008" class="node">
<title>Node8</title>
<g id="a_Node000008"><a xlink:title=" ">
<polygon fill="#e0e0e0" stroke="#999999" points="1187,-74 1131,-74 1131,-55 1187,-55 1187,-74"/>
<text text-anchor="middle" x="1159" y="-62" font-family="Helvetica,sans-Serif" font-size="10.00">sstream</text>
</a>
</g>
</g>
<!-- Node6&#45;&gt;Node8 -->
<g id="edge7_Node000006_Node000008" class="edge">
<title>Node6&#45;&gt;Node8</title>
<g id="a_edge7_Node000006_Node000008"><a xlink:title=" ">
<path fill="none" stroke="#63b8ff" d="M1099.41,-109.98C1110.11,-102 1126.34,-89.88 1139.16,-80.31"/>
<polygon fill="#63b8ff" stroke="#63b8ff" points="1141.47,-82.96 1147.39,-74.17 1137.28,-77.35 1141.47,-82.96"/>
</a>
</g>
</g>
<!-- Node9 -->
<g id="Node000009" class="node">
<title>Node9</title>
<g id="a_Node000009"><a xlink:title=" ">
<polygon fill="#e0e0e0" stroke="#999999" points="1006.5,-74 937.5,-74 937.5,-55 1006.5,-55 1006.5,-74"/>
<text text-anchor="middle" x="972" y="-62" font-family="Helvetica,sans-Serif" font-size="10.00">type_traits</text>
</a>
</g>
</g>
<!-- Node6&#45;&gt;Node9 -->
<g id="edge9_Node000006_Node000009" class="edge">
<title>Node6&#45;&gt;Node9</title>
<g id="a_edge9_Node000006_Node000009"><a xlink:title=" ">
<path fill="none" stroke="#63b8ff" d="M1069.36,-109.98C1050.7,-101.46 1021.75,-88.23 1000.26,-78.41"/>
<polygon fill="#63b8ff" stroke="#63b8ff" points="1001.53,-75.14 990.98,-74.17 998.62,-81.51 1001.53,-75.14"/>
</a>
</g>
</g>
<!-- Node11 -->
<g id="Node000011" class="node">
<title>Node11</title>
<g id="a_Node000011"><a xlink:href="dstring_8h.html" target="_top" xlink:title="Container for C&#45;Strings.">
<polygon fill="white" stroke="#666666" points="325.5,-184 266.5,-184 266.5,-165 325.5,-165 325.5,-184"/>
<text text-anchor="middle" x="296" y="-172" font-family="Helvetica,sans-Serif" font-size="10.00">dstring.h</text>
</a>
</g>
</g>
<!-- Node10&#45;&gt;Node11 -->
<g id="edge11_Node000010_Node000011" class="edge">
<title>Node10&#45;&gt;Node11</title>
<g id="a_edge11_Node000010_Node000011"><a xlink:title=" ">
<path fill="none" stroke="#63b8ff" d="M431.13,-219.98C404.22,-211.13 361.88,-197.19 331.77,-187.28"/>
<polygon fill="#63b8ff" stroke="#63b8ff" points="332.66,-183.88 322.07,-184.08 330.47,-190.53 332.66,-183.88"/>
</a>
</g>
</g>
<!-- Node20 -->
<g id="Node000020" class="node">
<title>Node20</title>
<g id="a_Node000020"><a xlink:title=" ">
<polygon fill="#e0e0e0" stroke="#999999" points="494,-184 420,-184 420,-165 494,-165 494,-184"/>
<text text-anchor="middle" x="457" y="-172" font-family="Helvetica,sans-Serif" font-size="10.00">irep_ids.def</text>
</a>
</g>
</g>
<!-- Node10&#45;&gt;Node20 -->
<g id="edge25_Node000010_Node000020" class="edge">
<title>Node10&#45;&gt;Node20</title>
<g id="a_edge25_Node000010_Node000020"><a xlink:title=" ">
<path fill="none" stroke="#63b8ff" d="M457,-219.75C457,-212.8 457,-202.85 457,-194.13"/>
<polygon fill="#63b8ff" stroke="#63b8ff" points="460.5,-194.09 457,-184.09 453.5,-194.09 460.5,-194.09"/>
</a>
</g>
</g>
<!-- Node11&#45;&gt;Node4 -->
<g id="edge13_Node000011_Node000004" class="edge">
<title>Node11&#45;&gt;Node4</title>
<g id="a_edge13_Node000011_Node000004"><a xlink:title=" ">
<path fill="none" stroke="#63b8ff" d="M309.68,-164.99C336.01,-148.43 395.25,-110.32 442,-74 461.8,-58.61 483.2,-39.38 497.48,-26.13"/>
<polygon fill="#63b8ff" stroke="#63b8ff" points="500.08,-28.49 504.99,-19.1 495.3,-23.38 500.08,-28.49"/>
</a>
</g>
</g>
<!-- Node12 -->
<g id="Node000012" class="node">
<title>Node12</title>
<g id="a_Node000012"><a xlink:title=" ">
<polygon fill="#e0e0e0" stroke="#999999" points="473,-129 425,-129 425,-110 473,-110 473,-129"/>
<text text-anchor="middle" x="449" y="-117" font-family="Helvetica,sans-Serif" font-size="10.00">iosfwd</text>
</a>
</g>
</g>
<!-- Node11&#45;&gt;Node12 -->
<g id="edge12_Node000011_Node000012" class="edge">
<title>Node11&#45;&gt;Node12</title>
<g id="a_edge12_Node000011_Node000012"><a xlink:title=" ">
<path fill="none" stroke="#63b8ff" d="M320.58,-164.98C346.27,-156.09 386.76,-142.06 415.39,-132.14"/>
<polygon fill="#63b8ff" stroke="#63b8ff" points="416.68,-135.4 424.98,-128.82 414.39,-128.79 416.68,-135.4"/>
</a>
</g>
</g>
<!-- Node13 -->
<g id="Node000013" class="node">
<title>Node13</title>
<g id="a_Node000013"><a xlink:href="magic_8h.html" target="_top" xlink:title="Magic numbers used throughout the codebase.">
<polygon fill="white" stroke="#666666" points="158,-129 102,-129 102,-110 158,-110 158,-129"/>
<text text-anchor="middle" x="130" y="-117" font-family="Helvetica,sans-Serif" font-size="10.00">magic.h</text>
</a>
</g>
</g>
<!-- Node11&#45;&gt;Node13 -->
<g id="edge14_Node000011_Node000013" class="edge">
<title>Node11&#45;&gt;Node13</title>
<g id="a_edge14_Node000011_Node000013"><a xlink:title=" ">
<path fill="none" stroke="#63b8ff" d="M269.33,-164.98C241.46,-156.09 197.55,-142.07 166.48,-132.15"/>
<polygon fill="#63b8ff" stroke="#63b8ff" points="167.47,-128.79 156.88,-129.08 165.34,-135.46 167.47,-128.79"/>
</a>
</g>
</g>
<!-- Node15 -->
<g id="Node000015" class="node">
<title>Node15</title>
<g id="a_Node000015"><a xlink:href="string__container_8h.html" target="_top" xlink:title="Container for C&#45;Strings.">
<polygon fill="white" stroke="#666666" points="346,-129 242,-129 242,-110 346,-110 346,-129"/>
<text text-anchor="middle" x="294" y="-117" font-family="Helvetica,sans-Serif" font-size="10.00">string_container.h</text>
</a>
</g>
</g>
<!-- Node11&#45;&gt;Node15 -->
<g id="edge16_Node000011_Node000015" class="edge">
<title>Node11&#45;&gt;Node15</title>
<g id="a_edge16_Node000011_Node000015"><a xlink:title=" ">
<path fill="none" stroke="#63b8ff" d="M295.67,-164.75C295.41,-157.8 295.03,-147.85 294.7,-139.13"/>
<polygon fill="#63b8ff" stroke="#63b8ff" points="298.2,-138.95 294.32,-129.09 291.2,-139.21 298.2,-138.95"/>
</a>
</g>
</g>
<!-- Node14 -->
<g id="Node000014" class="node">
<title>Node14</title>
<g id="a_Node000014"><a xlink:title=" ">
<polygon fill="#e0e0e0" stroke="#999999" points="124.5,-19 71.5,-19 71.5,0 124.5,0 124.5,-19"/>
<text text-anchor="middle" x="98" y="-7" font-family="Helvetica,sans-Serif" font-size="10.00">cstddef</text>
</a>
</g>
</g>
<!-- Node13&#45;&gt;Node14 -->
<g id="edge15_Node000013_Node000014" class="edge">
<title>Node13&#45;&gt;Node14</title>
<g id="a_edge15_Node000013_Node000014"><a xlink:title=" ">
<path fill="none" stroke="#63b8ff" d="M114.27,-109.88C102.12,-102.23 86.2,-89.83 79,-74 72.25,-59.14 78.81,-41.25 86.01,-28.26"/>
<polygon fill="#63b8ff" stroke="#63b8ff" points="89.19,-29.76 91.42,-19.4 83.22,-26.1 89.19,-29.76"/>
</a>
</g>
</g>
<!-- Node15&#45;&gt;Node5 -->
<g id="edge19_Node000015_Node000005" class="edge">
<title>Node15&#45;&gt;Node5</title>
<g id="a_edge19_Node000015_Node000005"><a xlink:title=" ">
<path fill="none" stroke="#63b8ff" d="M329.35,-109.98C371,-99.95 439.7,-83.4 480.52,-73.57"/>
<polygon fill="#63b8ff" stroke="#63b8ff" points="481.36,-76.96 490.27,-71.22 479.73,-70.16 481.36,-76.96"/>
</a>
</g>
</g>
<!-- Node15&#45;&gt;Node16 -->
<g id="edge17_Node000015_Node000016" class="edge">
<title>Node15&#45;&gt;Node16</title>
<g id="a_edge17_Node000015_Node000016"><a xlink:title=" ">
<path fill="none" stroke="#63b8ff" d="M249.33,-109.98C190.81,-98.83 90.04,-79.62 42.41,-70.54"/>
<polygon fill="#63b8ff" stroke="#63b8ff" points="42.77,-67.04 32.29,-68.61 41.46,-73.92 42.77,-67.04"/>
</a>
</g>
</g>
<!-- Node17 -->
<g id="Node000017" class="node">
<title>Node17</title>
<g id="a_Node000017"><a xlink:title=" ">
<polygon fill="#e0e0e0" stroke="#999999" points="433.5,-74 340.5,-74 340.5,-55 433.5,-55 433.5,-74"/>
<text text-anchor="middle" x="387" y="-62" font-family="Helvetica,sans-Serif" font-size="10.00">unordered_map</text>
</a>
</g>
</g>
<!-- Node15&#45;&gt;Node17 -->
<g id="edge18_Node000015_Node000017" class="edge">
<title>Node15&#45;&gt;Node17</title>
<g id="a_edge18_Node000015_Node000017"><a xlink:title=" ">
<path fill="none" stroke="#63b8ff" d="M308.94,-109.98C323.5,-101.69 345.87,-88.94 362.93,-79.22"/>
<polygon fill="#63b8ff" stroke="#63b8ff" points="364.83,-82.16 371.79,-74.17 361.36,-76.08 364.83,-82.16"/>
</a>
</g>
</g>
<!-- Node18 -->
<g id="Node000018" class="node">
<title>Node18</title>
<g id="a_Node000018"><a xlink:href="memory__units_8h.html" target="_top" xlink:title=" ">
<polygon fill="white" stroke="#666666" points="184,-74 88,-74 88,-55 184,-55 184,-74"/>
<text text-anchor="middle" x="136" y="-62" font-family="Helvetica,sans-Serif" font-size="10.00">memory_units.h</text>
</a>
</g>
</g>
<!-- Node15&#45;&gt;Node18 -->
<g id="edge20_Node000015_Node000018" class="edge">
<title>Node15&#45;&gt;Node18</title>
<g id="a_edge20_Node000015_Node000018"><a xlink:title=" ">
<path fill="none" stroke="#63b8ff" d="M268.61,-109.98C242.2,-101.13 200.65,-87.19 171.11,-77.28"/>
<polygon fill="#63b8ff" stroke="#63b8ff" points="172.18,-73.94 161.58,-74.08 169.95,-80.58 172.18,-73.94"/>
</a>
</g>
</g>
<!-- Node19 -->
<g id="Node000019" class="node">
<title>Node19</title>
<g id="a_Node000019"><a xlink:href="string__hash_8h.html" target="_top" xlink:title="string hashing">
<polygon fill="white" stroke="#666666" points="322,-74 240,-74 240,-55 322,-55 322,-74"/>
<text text-anchor="middle" x="281" y="-62" font-family="Helvetica,sans-Serif" font-size="10.00">string_hash.h</text>
</a>
</g>
</g>
<!-- Node15&#45;&gt;Node19 -->
<g id="edge23_Node000015_Node000019" class="edge">
<title>Node15&#45;&gt;Node19</title>
<g id="a_edge23_Node000015_Node000019"><a xlink:title=" ">
<path fill="none" stroke="#63b8ff" d="M291.85,-109.75C290.13,-102.72 287.65,-92.62 285.5,-83.84"/>
<polygon fill="#63b8ff" stroke="#63b8ff" points="288.89,-82.97 283.11,-74.09 282.09,-84.63 288.89,-82.97"/>
</a>
</g>
</g>
<!-- Node18&#45;&gt;Node4 -->
<g id="edge22_Node000018_Node000004" class="edge">
<title>Node18&#45;&gt;Node4</title>
<g id="a_edge22_Node000018_Node000004"><a xlink:title=" ">
<path fill="none" stroke="#63b8ff" d="M184.26,-56.73C262.5,-45.76 414.98,-24.38 481.58,-15.05"/>
<polygon fill="#63b8ff" stroke="#63b8ff" points="482.46,-18.46 491.87,-13.6 481.48,-11.53 482.46,-18.46"/>
</a>
</g>
</g>
<!-- Node18&#45;&gt;Node14 -->
<g id="edge21_Node000018_Node000014" class="edge">
<title>Node18&#45;&gt;Node14</title>
<g id="a_edge21_Node000018_Node000014"><a xlink:title=" ">
<path fill="none" stroke="#63b8ff" d="M129.73,-54.75C124.41,-47.34 116.64,-36.5 110.12,-27.41"/>
<polygon fill="#63b8ff" stroke="#63b8ff" points="112.83,-25.18 104.16,-19.09 107.14,-29.26 112.83,-25.18"/>
</a>
</g>
</g>
<!-- Node19&#45;&gt;Node4 -->
<g id="edge24_Node000019_Node000004" class="edge">
<title>Node19&#45;&gt;Node4</title>
<g id="a_edge24_Node000019_Node000004"><a xlink:title=" ">
<path fill="none" stroke="#63b8ff" d="M318.44,-54.98C363.71,-44.69 439.16,-27.52 481.9,-17.8"/>
<polygon fill="#63b8ff" stroke="#63b8ff" points="482.79,-21.19 491.77,-15.56 481.24,-14.36 482.79,-21.19"/>
</a>
</g>
</g>
<!-- Node22 -->
<g id="Node000022" class="node">
<title>Node22</title>
<g id="a_Node000022"><a xlink:title=" ">
<polygon fill="#e0e0e0" stroke="#999999" points="652,-184 588,-184 588,-165 652,-165 652,-184"/>
<text text-anchor="middle" x="620" y="-172" font-family="Helvetica,sans-Serif" font-size="10.00">algorithm</text>
</a>
</g>
</g>
<!-- Node21&#45;&gt;Node22 -->
<g id="edge27_Node000021_Node000022" class="edge">
<title>Node21&#45;&gt;Node22</title>
<g id="a_edge27_Node000021_Node000022"><a xlink:title=" ">
<path fill="none" stroke="#63b8ff" d="M693.02,-219.98C679.53,-211.77 658.87,-199.18 642.96,-189.49"/>
<polygon fill="#63b8ff" stroke="#63b8ff" points="644.59,-186.38 634.23,-184.17 640.95,-192.36 644.59,-186.38"/>
</a>
</g>
</g>
<!-- Node23 -->
<g id="Node000023" class="node">
<title>Node23</title>
<g id="a_Node000023"><a xlink:title=" ">
<polygon fill="#e0e0e0" stroke="#999999" points="744,-184 670,-184 670,-165 744,-165 744,-184"/>
<text text-anchor="middle" x="707" y="-172" font-family="Helvetica,sans-Serif" font-size="10.00">forward_list</text>
</a>
</g>
</g>
<!-- Node21&#45;&gt;Node23 -->
<g id="edge28_Node000021_Node000023" class="edge">
<title>Node21&#45;&gt;Node23</title>
<g id="a_edge28_Node000021_Node000023"><a xlink:title=" ">
<path fill="none" stroke="#63b8ff" d="M707,-219.75C707,-212.8 707,-202.85 707,-194.13"/>
<polygon fill="#63b8ff" stroke="#63b8ff" points="710.5,-194.09 707,-184.09 703.5,-194.09 710.5,-194.09"/>
</a>
</g>
</g>
<!-- Node24 -->
<g id="Node000024" class="node">
<title>Node24</title>
<g id="a_Node000024"><a xlink:href="as__const_8h.html" target="_top" xlink:title=" ">
<polygon fill="white" stroke="#666666" points="1022,-184 954,-184 954,-165 1022,-165 1022,-184"/>
<text text-anchor="middle" x="988" y="-172" font-family="Helvetica,sans-Serif" font-size="10.00">as_const.h</text>
</a>
</g>
</g>
<!-- Node21&#45;&gt;Node24 -->
<g id="edge29_Node000021_Node000024" class="edge">
<title>Node21&#45;&gt;Node24</title>
<g id="a_edge29_Node000021_Node000024"><a xlink:title=" ">
<path fill="none" stroke="#63b8ff" d="M752.15,-219.98C804.8,-210.05 891.27,-193.74 943.6,-183.87"/>
<polygon fill="#63b8ff" stroke="#63b8ff" points="944.41,-187.28 953.59,-181.99 943.12,-180.4 944.41,-187.28"/>
</a>
</g>
</g>
<!-- Node25 -->
<g id="Node000025" class="node">
<title>Node25</title>
<g id="a_Node000025"><a xlink:href="narrow_8h.html" target="_top" xlink:title=" ">
<polygon fill="white" stroke="#666666" points="821.5,-184 762.5,-184 762.5,-165 821.5,-165 821.5,-184"/>
<text text-anchor="middle" x="792" y="-172" font-family="Helvetica,sans-Serif" font-size="10.00">narrow.h</text>
</a>
</g>
</g>
<!-- Node21&#45;&gt;Node25 -->
<g id="edge30_Node000021_Node000025" class="edge">
<title>Node21&#45;&gt;Node25</title>
<g id="a_edge30_Node000021_Node000025"><a xlink:title=" ">
<path fill="none" stroke="#63b8ff" d="M720.66,-219.98C733.84,-211.77 754.03,-199.18 769.57,-189.49"/>
<polygon fill="#63b8ff" stroke="#63b8ff" points="771.46,-192.43 778.09,-184.17 767.76,-186.49 771.46,-192.43"/>
</a>
</g>
</g>
<!-- Node25&#45;&gt;Node6 -->
<g id="edge32_Node000025_Node000006" class="edge">
<title>Node25&#45;&gt;Node6</title>
<g id="a_edge32_Node000025_Node000006"><a xlink:title=" ">
<path fill="none" stroke="#63b8ff" d="M821.81,-167.67C826.55,-166.77 831.41,-165.85 836,-165 908.55,-151.59 993.01,-136.85 1043.4,-128.15"/>
<polygon fill="#63b8ff" stroke="#63b8ff" points="1044.06,-131.59 1053.32,-126.44 1042.87,-124.69 1044.06,-131.59"/>
</a>
</g>
</g>
<!-- Node25&#45;&gt;Node9 -->
<g id="edge31_Node000025_Node000009" class="edge">
<title>Node25&#45;&gt;Node9</title>
<g id="a_edge31_Node000025_Node000009"><a xlink:title=" ">
<path fill="none" stroke="#63b8ff" d="M806.43,-164.84C837.5,-146.2 910.98,-102.11 948.73,-79.46"/>
<polygon fill="#63b8ff" stroke="#63b8ff" points="950.73,-82.34 957.51,-74.2 947.13,-76.34 950.73,-82.34"/>
</a>
</g>
</g>
<!-- Node28&#45;&gt;Node3 -->
<g id="edge39_Node000028_Node000003" class="edge">
<title>Node28&#45;&gt;Node3</title>
<g id="a_edge39_Node000028_Node000003"><a xlink:title=" ">
<path fill="none" stroke="#63b8ff" d="M338.63,-330.57C381.67,-320.98 453.95,-304.89 499.47,-294.75"/>
<polygon fill="#63b8ff" stroke="#63b8ff" points="500.32,-298.15 509.32,-292.56 498.8,-291.31 500.32,-298.15"/>
</a>
</g>
</g>
<!-- Node28&#45;&gt;Node4 -->
<g id="edge43_Node000028_Node000004" class="edge">
<title>Node28&#45;&gt;Node4</title>
<g id="a_edge43_Node000028_Node000004"><a xlink:title=" ">
<path fill="none" stroke="#63b8ff" d="M280.77,-329.89C264.75,-322.61 243.78,-310.68 231,-294 213.08,-270.62 212,-259.96 212,-230.5 212,-230.5 212,-230.5 212,-118.5 212,-89.04 208.81,-74.38 231,-55 267.9,-22.77 415.64,-13.79 481.74,-11.36"/>
<polygon fill="#63b8ff" stroke="#63b8ff" points="482.12,-14.85 491.99,-11.02 481.88,-7.86 482.12,-14.85"/>
</a>
</g>
</g>
<!-- Node28&#45;&gt;Node6 -->
<g id="edge38_Node000028_Node000006" class="edge">
<title>Node28&#45;&gt;Node6</title>
<g id="a_edge38_Node000028_Node000006"><a xlink:title=" ">
<path fill="none" stroke="#63b8ff" d="M338.92,-334.09C392.27,-327.24 495.5,-312.85 582,-294 671.24,-274.55 695.04,-272.51 780,-239 846.2,-212.89 855.68,-190.81 922,-165 961.94,-149.46 1009.32,-137.35 1043.22,-129.71"/>
<polygon fill="#63b8ff" stroke="#63b8ff" points="1044.27,-133.06 1053.28,-127.48 1042.76,-126.23 1044.27,-133.06"/>
</a>
</g>
</g>
<!-- Node28&#45;&gt;Node12 -->
<g id="edge40_Node000028_Node000012" class="edge">
<title>Node28&#45;&gt;Node12</title>
<g id="a_edge40_Node000028_Node000012"><a xlink:title=" ">
<path fill="none" stroke="#63b8ff" d="M310.47,-329.81C317.57,-321.2 328.16,-307.39 335,-294 362.51,-240.19 340.64,-212.51 378,-165 388.52,-151.62 404.25,-141.18 418.24,-133.78"/>
<polygon fill="#63b8ff" stroke="#63b8ff" points="420.16,-136.73 427.56,-129.14 417.04,-130.46 420.16,-136.73"/>
</a>
</g>
</g>
<!-- Node28&#45;&gt;Node26 -->
<g id="edge41_Node000028_Node000026" class="edge">
<title>Node28&#45;&gt;Node26</title>
<g id="a_edge41_Node000028_Node000026"><a xlink:title=" ">
<path fill="none" stroke="#63b8ff" d="M271.19,-329.98C236.61,-320.73 181.34,-305.94 144.14,-295.98"/>
<polygon fill="#63b8ff" stroke="#63b8ff" points="144.72,-292.51 134.15,-293.3 142.91,-299.27 144.72,-292.51"/>
</a>
</g>
</g>
<!-- Node28&#45;&gt;Node27 -->
<g id="edge42_Node000028_Node000027" class="edge">
<title>Node28&#45;&gt;Node27</title>
<g id="a_edge42_Node000028_Node000027"><a xlink:title=" ">
<path fill="none" stroke="#63b8ff" d="M281.31,-329.98C257.36,-320.58 218.84,-305.46 193.47,-295.5"/>
<polygon fill="#63b8ff" stroke="#63b8ff" points="194.72,-292.23 184.13,-291.83 192.16,-298.74 194.72,-292.23"/>
</a>
</g>
</g>
<!-- Node29 -->
<g id="Node000029" class="node">
<title>Node29</title>
<g id="a_Node000029"><a xlink:title=" ">
<polygon fill="#e0e0e0" stroke="#999999" points="326,-294 240,-294 240,-275 326,-275 326,-294"/>
<text text-anchor="middle" x="283" y="-282" font-family="Helvetica,sans-Serif" font-size="10.00">unordered_set</text>
</a>
</g>
</g>
<!-- Node28&#45;&gt;Node29 -->
<g id="edge44_Node000028_Node000029" class="edge">
<title>Node28&#45;&gt;Node29</title>
<g id="a_edge44_Node000028_Node000029"><a xlink:title=" ">
<path fill="none" stroke="#63b8ff" d="M299.7,-329.75C297.02,-322.65 293.15,-312.4 289.81,-303.56"/>
<polygon fill="#63b8ff" stroke="#63b8ff" points="293.05,-302.21 286.24,-294.09 286.5,-304.68 293.05,-302.21"/>
</a>
</g>
</g>
<!-- Node30&#45;&gt;Node3 -->
<g id="edge48_Node000030_Node000003" class="edge">
<title>Node30&#45;&gt;Node3</title>
<g id="a_edge48_Node000030_Node000003"><a xlink:title=" ">
<path fill="none" stroke="#63b8ff" d="M541,-329.75C541,-322.8 541,-312.85 541,-304.13"/>
<polygon fill="#63b8ff" stroke="#63b8ff" points="544.5,-304.09 541,-294.09 537.5,-304.09 544.5,-304.09"/>
</a>
</g>
</g>
<!-- Node30&#45;&gt;Node6 -->
<g id="edge47_Node000030_Node000006" class="edge">
<title>Node30&#45;&gt;Node6</title>
<g id="a_edge47_Node000030_Node000006"><a xlink:title=" ">
<path fill="none" stroke="#63b8ff" d="M591.6,-336.69C670.92,-333 820.02,-322.41 864,-294 920.87,-257.27 891.35,-206.29 945,-165 973.6,-142.99 1013.23,-131.76 1043.52,-126.1"/>
<polygon fill="#63b8ff" stroke="#63b8ff" points="1044.15,-129.54 1053.4,-124.39 1042.95,-122.65 1044.15,-129.54"/>
</a>
</g>
</g>
<!-- Node31&#45;&gt;Node6 -->
<g id="edge72_Node000031_Node000006" class="edge">
<title>Node31&#45;&gt;Node6</title>
<g id="a_edge72_Node000031_Node000006"><a xlink:title=" ">
<path fill="none" stroke="#63b8ff" d="M780.24,-610.86C918.85,-601.22 1368,-565.38 1368,-505.5 1368,-505.5 1368,-505.5 1368,-228.5 1368,-178.7 1211.86,-143.05 1132.78,-128.19"/>
<polygon fill="#63b8ff" stroke="#63b8ff" points="1133.08,-124.69 1122.61,-126.31 1131.81,-131.57 1133.08,-124.69"/>
</a>
</g>
</g>
<!-- Node31&#45;&gt;Node12 -->
<g id="edge50_Node000031_Node000012" class="edge">
<title>Node31&#45;&gt;Node12</title>
<g id="a_edge50_Node000031_Node000012"><a xlink:title=" ">
<path fill="none" stroke="#63b8ff" d="M699.74,-609.6C608.14,-599.62 392,-569.31 392,-505.5 392,-505.5 392,-505.5 392,-228.5 392,-199.04 396.91,-190.87 411,-165 416.69,-154.56 425.11,-144.37 432.59,-136.38"/>
<polygon fill="#63b8ff" stroke="#63b8ff" points="435.12,-138.79 439.61,-129.19 430.11,-133.9 435.12,-138.79"/>
</a>
</g>
</g>
<!-- Node32 -->
<g id="Node000032" class="node">
<title>Node32</title>
<g id="a_Node000032"><a xlink:href="expr_8h.html" target="_top" xlink:title=" ">
<polygon fill="white" stroke="#666666" points="985.5,-569 938.5,-569 938.5,-550 985.5,-550 985.5,-569"/>
<text text-anchor="middle" x="962" y="-557" font-family="Helvetica,sans-Serif" font-size="10.00">expr.h</text>
</a>
</g>
</g>
<!-- Node31&#45;&gt;Node32 -->
<g id="edge51_Node000031_Node000032" class="edge">
<title>Node31&#45;&gt;Node32</title>
<g id="a_edge51_Node000031_Node000032"><a xlink:title=" ">
<path fill="none" stroke="#63b8ff" d="M775.67,-604.98C817.81,-594.92 887.39,-578.31 928.55,-568.49"/>
<polygon fill="#63b8ff" stroke="#63b8ff" points="929.45,-571.87 938.37,-566.14 927.83,-565.06 929.45,-571.87"/>
</a>
</g>
</g>
<!-- Node32&#45;&gt;Node24 -->
<g id="edge52_Node000032_Node000024" class="edge">
<title>Node32&#45;&gt;Node24</title>
<g id="a_edge52_Node000032_Node000024"><a xlink:title=" ">
<path fill="none" stroke="#63b8ff" d="M955.79,-549.68C938.82,-524.51 893.73,-450 906,-385 920.04,-310.59 959.84,-228.74 978.33,-193.39"/>
<polygon fill="#63b8ff" stroke="#63b8ff" points="981.55,-194.8 983.14,-184.33 975.36,-191.52 981.55,-194.8"/>
</a>
</g>
</g>
<!-- Node33 -->
<g id="Node000033" class="node">
<title>Node33</title>
<g id="a_Node000033"><a xlink:href="type_8h.html" target="_top" xlink:title="Defines typet, type_with_subtypet and type_with_subtypest.">
<polygon fill="white" stroke="#666666" points="1267.5,-514 1220.5,-514 1220.5,-495 1267.5,-495 1267.5,-514"/>
<text text-anchor="middle" x="1244" y="-502" font-family="Helvetica,sans-Serif" font-size="10.00">type.h</text>
</a>
</g>
</g>
<!-- Node32&#45;&gt;Node33 -->
<g id="edge53_Node000032_Node000033" class="edge">
<title>Node32&#45;&gt;Node33</title>
<g id="a_edge53_Node000032_Node000033"><a xlink:title=" ">
<path fill="none" stroke="#63b8ff" d="M985.57,-554.98C1028.45,-548.43 1122.25,-533.43 1210.4,-514.21"/>
<polygon fill="#63b8ff" stroke="#63b8ff" points="1211.28,-517.6 1220.29,-512.03 1209.77,-510.77 1211.28,-517.6"/>
</a>
</g>
</g>
<!-- Node39 -->
<g id="Node000039" class="node">
<title>Node39</title>
<g id="a_Node000039"><a xlink:href="validation__mode_8h.html" target="_top" xlink:title=" ">
<polygon fill="white" stroke="#666666" points="1021.5,-404 914.5,-404 914.5,-385 1021.5,-385 1021.5,-404"/>
<text text-anchor="middle" x="968" y="-392" font-family="Helvetica,sans-Serif" font-size="10.00">validation_mode.h</text>
</a>
</g>
</g>
<!-- Node32&#45;&gt;Node39 -->
<g id="edge70_Node000032_Node000039" class="edge">
<title>Node32&#45;&gt;Node39</title>
<g id="a_edge70_Node000032_Node000039"><a xlink:title=" ">
<path fill="none" stroke="#63b8ff" d="M960.49,-549.83C957.3,-530.19 950.59,-480.84 956,-440 957.16,-431.27 959.53,-421.83 961.87,-413.9"/>
<polygon fill="#63b8ff" stroke="#63b8ff" points="965.25,-414.82 964.91,-404.23 958.57,-412.72 965.25,-414.82"/>
</a>
</g>
</g>
<!-- Node40 -->
<g id="Node000040" class="node">
<title>Node40</title>
<g id="a_Node000040"><a xlink:href="validate__types_8h.html" target="_top" xlink:title=" ">
<polygon fill="white" stroke="#666666" points="1063,-459 965,-459 965,-440 1063,-440 1063,-459"/>
<text text-anchor="middle" x="1014" y="-447" font-family="Helvetica,sans-Serif" font-size="10.00">validate_types.h</text>
</a>
</g>
</g>
<!-- Node32&#45;&gt;Node40 -->
<g id="edge69_Node000032_Node000040" class="edge">
<title>Node32&#45;&gt;Node40</title>
<g id="a_edge69_Node000032_Node000040"><a xlink:title=" ">
<path fill="none" stroke="#63b8ff" d="M963.78,-549.95C966.58,-537.44 972.68,-513.6 982,-495 986.94,-485.13 993.98,-475.06 1000.2,-467.01"/>
<polygon fill="#63b8ff" stroke="#63b8ff" points="1002.96,-469.15 1006.48,-459.16 997.5,-464.78 1002.96,-469.15"/>
</a>
</g>
</g>
<!-- Node41 -->
<g id="Node000041" class="node">
<title>Node41</title>
<g id="a_Node000041"><a xlink:href="validate__expressions_8h.html" target="_top" xlink:title=" ">
<polygon fill="white" stroke="#666666" points="1119.5,-514 990.5,-514 990.5,-495 1119.5,-495 1119.5,-514"/>
<text text-anchor="middle" x="1055" y="-502" font-family="Helvetica,sans-Serif" font-size="10.00">validate_expressions.h</text>
</a>
</g>
</g>
<!-- Node32&#45;&gt;Node41 -->
<g id="edge68_Node000032_Node000041" class="edge">
<title>Node32&#45;&gt;Node41</title>
<g id="a_edge68_Node000032_Node000041"><a xlink:title=" ">
<path fill="none" stroke="#63b8ff" d="M976.94,-549.98C991.5,-541.69 1013.87,-528.94 1030.93,-519.22"/>
<polygon fill="#63b8ff" stroke="#63b8ff" points="1032.83,-522.16 1039.79,-514.17 1029.36,-516.08 1032.83,-522.16"/>
</a>
</g>
</g>
<!-- Node42 -->
<g id="Node000042" class="node">
<title>Node42</title>
<g id="a_Node000042"><a xlink:title=" ">
<polygon fill="#e0e0e0" stroke="#999999" points="1202.5,-514 1137.5,-514 1137.5,-495 1202.5,-495 1202.5,-514"/>
<text text-anchor="middle" x="1170" y="-502" font-family="Helvetica,sans-Serif" font-size="10.00">functional</text>
</a>
</g>
</g>
<!-- Node32&#45;&gt;Node42 -->
<g id="edge71_Node000032_Node000042" class="edge">
<title>Node32&#45;&gt;Node42</title>
<g id="a_edge71_Node000032_Node000042"><a xlink:title=" ">
<path fill="none" stroke="#63b8ff" d="M985.86,-552.42C1020.34,-543.64 1084.63,-527.25 1127.38,-516.36"/>
<polygon fill="#63b8ff" stroke="#63b8ff" points="1128.39,-519.71 1137.22,-513.85 1126.66,-512.93 1128.39,-519.71"/>
</a>
</g>
</g>
<!-- Node34 -->
<g id="Node000034" class="node">
<title>Node34</title>
<g id="a_Node000034"><a xlink:href="source__location_8h.html" target="_top" xlink:title=" ">
<polygon fill="white" stroke="#666666" points="1241,-349 1139,-349 1139,-330 1241,-330 1241,-349"/>
<text text-anchor="middle" x="1190" y="-337" font-family="Helvetica,sans-Serif" font-size="10.00">source_location.h</text>
</a>
</g>
</g>
<!-- Node33&#45;&gt;Node34 -->
<g id="edge54_Node000033_Node000034" class="edge">
<title>Node33&#45;&gt;Node34</title>
<g id="a_edge54_Node000033_Node000034"><a xlink:title=" ">
<path fill="none" stroke="#63b8ff" d="M1243.68,-494.8C1242.66,-474.67 1238.51,-423.68 1222,-385 1217.72,-374.97 1210.86,-365.01 1204.59,-357.06"/>
<polygon fill="#63b8ff" stroke="#63b8ff" points="1207.24,-354.78 1198.17,-349.32 1201.86,-359.25 1207.24,-354.78"/>
</a>
</g>
</g>
<!-- Node37 -->
<g id="Node000037" class="node">
<title>Node37</title>
<g id="a_Node000037"><a xlink:href="validate_8h.html" target="_top" xlink:title=" ">
<polygon fill="white" stroke="#666666" points="1194.5,-459 1129.5,-459 1129.5,-440 1194.5,-440 1194.5,-459"/>
<text text-anchor="middle" x="1162" y="-447" font-family="Helvetica,sans-Serif" font-size="10.00">validate.h</text>
</a>
</g>
</g>
<!-- Node33&#45;&gt;Node37 -->
<g id="edge59_Node000033_Node000037" class="edge">
<title>Node33&#45;&gt;Node37</title>
<g id="a_edge59_Node000033_Node000037"><a xlink:title=" ">
<path fill="none" stroke="#63b8ff" d="M1230.83,-494.98C1218.23,-486.84 1199,-474.41 1184.06,-464.76"/>
<polygon fill="#63b8ff" stroke="#63b8ff" points="1185.71,-461.66 1175.41,-459.17 1181.91,-467.54 1185.71,-461.66"/>
</a>
</g>
</g>
<!-- Node33&#45;&gt;Node39 -->
<g id="edge67_Node000033_Node000039" class="edge">
<title>Node33&#45;&gt;Node39</title>
<g id="a_edge67_Node000033_Node000039"><a xlink:title=" ">
<path fill="none" stroke="#63b8ff" d="M1220.3,-495.29C1195.44,-486.6 1155.3,-472.31 1121,-459 1077.45,-442.1 1027.58,-421.08 996.93,-407.98"/>
<polygon fill="#63b8ff" stroke="#63b8ff" points="998.26,-404.74 987.69,-404.01 995.5,-411.17 998.26,-404.74"/>
</a>
</g>
</g>
<!-- Node33&#45;&gt;Node40 -->
<g id="edge66_Node000033_Node000040" class="edge">
<title>Node33&#45;&gt;Node40</title>
<g id="a_edge66_Node000033_Node000040"><a xlink:title=" ">
<path fill="none" stroke="#63b8ff" d="M1220.26,-497.09C1217.48,-496.37 1214.68,-495.66 1212,-495 1161.68,-482.67 1103.85,-469.82 1063.73,-461.12"/>
<polygon fill="#63b8ff" stroke="#63b8ff" points="1064.44,-457.69 1053.93,-459 1062.96,-464.53 1064.44,-457.69"/>
</a>
</g>
</g>
<!-- Node34&#45;&gt;Node3 -->
<g id="edge56_Node000034_Node000003" class="edge">
<title>Node34&#45;&gt;Node3</title>
<g id="a_edge56_Node000034_Node000003"><a xlink:title=" ">
<path fill="none" stroke="#63b8ff" d="M1138.8,-334.32C1014.14,-324.14 696.71,-298.22 582.63,-288.9"/>
<polygon fill="#63b8ff" stroke="#63b8ff" points="582.8,-285.4 572.55,-288.08 582.23,-292.38 582.8,-285.4"/>
</a>
</g>
</g>
<!-- Node34&#45;&gt;Node4 -->
<g id="edge58_Node000034_Node000004" class="edge">
<title>Node34&#45;&gt;Node4</title>
<g id="a_edge58_Node000034_Node000004"><a xlink:title=" ">
<path fill="none" stroke="#63b8ff" d="M1220.38,-329.98C1261.55,-316.36 1330,-285.45 1330,-230.5 1330,-230.5 1330,-230.5 1330,-118.5 1330,-88.33 1330.33,-72.84 1306,-55 1243.97,-9.51 686.93,-9.53 546.19,-10.27"/>
<polygon fill="#63b8ff" stroke="#63b8ff" points="546.03,-6.77 536.05,-10.33 546.07,-13.77 546.03,-6.77"/>
</a>
</g>
</g>
<!-- Node35 -->
<g id="Node000035" class="node">
<title>Node35</title>
<g id="a_Node000035"><a xlink:href="deprecate_8h.html" target="_top" xlink:title=" ">
<polygon fill="white" stroke="#666666" points="1190,-294 1116,-294 1116,-275 1190,-275 1190,-294"/>
<text text-anchor="middle" x="1153" y="-282" font-family="Helvetica,sans-Serif" font-size="10.00">deprecate.h</text>
</a>
</g>
</g>
<!-- Node34&#45;&gt;Node35 -->
<g id="edge55_Node000034_Node000035" class="edge">
<title>Node34&#45;&gt;Node35</title>
<g id="a_edge55_Node000034_Node000035"><a xlink:title=" ">
<path fill="none" stroke="#63b8ff" d="M1183.89,-329.75C1178.72,-322.34 1171.15,-311.5 1164.81,-302.41"/>
<polygon fill="#63b8ff" stroke="#63b8ff" points="1167.59,-300.29 1159,-294.09 1161.85,-304.29 1167.59,-300.29"/>
</a>
</g>
</g>
<!-- Node36 -->
<g id="Node000036" class="node">
<title>Node36</title>
<g id="a_Node000036"><a xlink:title=" ">
<polygon fill="#e0e0e0" stroke="#999999" points="1264,-294 1208,-294 1208,-275 1264,-275 1264,-294"/>
<text text-anchor="middle" x="1236" y="-282" font-family="Helvetica,sans-Serif" font-size="10.00">optional</text>
</a>
</g>
</g>
<!-- Node34&#45;&gt;Node36 -->
<g id="edge57_Node000034_Node000036" class="edge">
<title>Node34&#45;&gt;Node36</title>
<g id="a_edge57_Node000034_Node000036"><a xlink:title=" ">
<path fill="none" stroke="#63b8ff" d="M1197.6,-329.75C1204.16,-322.18 1213.82,-311.05 1221.81,-301.84"/>
<polygon fill="#63b8ff" stroke="#63b8ff" points="1224.63,-303.94 1228.55,-294.09 1219.35,-299.35 1224.63,-303.94"/>
</a>
</g>
</g>
<!-- Node37&#45;&gt;Node9 -->
<g id="edge60_Node000037_Node000009" class="edge">
<title>Node37&#45;&gt;Node9</title>
<g id="a_edge60_Node000037_Node000009"><a xlink:title=" ">
<path fill="none" stroke="#63b8ff" d="M1141.46,-439.96C1109.12,-424.99 1050,-390.74 1050,-340.5 1050,-340.5 1050,-340.5 1050,-228.5 1050,-170.19 1008.88,-110.62 986.35,-82.36"/>
<polygon fill="#63b8ff" stroke="#63b8ff" points="988.81,-79.84 979.76,-74.33 983.4,-84.28 988.81,-79.84"/>
</a>
</g>
</g>
<!-- Node38 -->
<g id="Node000038" class="node">
<title>Node38</title>
<g id="a_Node000038"><a xlink:href="exception__utils_8h.html" target="_top" xlink:title=" ">
<polygon fill="white" stroke="#666666" points="1213,-404 1113,-404 1113,-385 1213,-385 1213,-404"/>
<text text-anchor="middle" x="1163" y="-392" font-family="Helvetica,sans-Serif" font-size="10.00">exception_utils.h</text>
</a>
</g>
</g>
<!-- Node37&#45;&gt;Node38 -->
<g id="edge61_Node000037_Node000038" class="edge">
<title>Node37&#45;&gt;Node38</title>
<g id="a_edge61_Node000037_Node000038"><a xlink:title=" ">
<path fill="none" stroke="#63b8ff" d="M1162.17,-439.75C1162.3,-432.8 1162.48,-422.85 1162.65,-414.13"/>
<polygon fill="#63b8ff" stroke="#63b8ff" points="1166.15,-414.15 1162.84,-404.09 1159.15,-414.02 1166.15,-414.15"/>
</a>
</g>
</g>
<!-- Node37&#45;&gt;Node39 -->
<g id="edge65_Node000037_Node000039" class="edge">
<title>Node37&#45;&gt;Node39</title>
<g id="a_edge65_Node000037_Node000039"><a xlink:title=" ">
<path fill="none" stroke="#63b8ff" d="M1130.83,-439.98C1097.84,-430.97 1045.6,-416.7 1009.23,-406.76"/>
<polygon fill="#63b8ff" stroke="#63b8ff" points="1009.98,-403.34 999.41,-404.08 1008.14,-410.09 1009.98,-403.34"/>
</a>
</g>
</g>
<!-- Node38&#45;&gt;Node4 -->
<g id="edge62_Node000038_Node000004" class="edge">
<title>Node38&#45;&gt;Node4</title>
<g id="a_edge62_Node000038_Node000004"><a xlink:title=" ">
<path fill="none" stroke="#63b8ff" d="M1189.11,-384.97C1226.8,-370.82 1292,-338.66 1292,-285.5 1292,-285.5 1292,-285.5 1292,-118.5 1292,-67.34 1244.48,-71.32 1196,-55 1073.32,-13.69 664.35,-10.47 546.21,-10.42"/>
<polygon fill="#63b8ff" stroke="#63b8ff" points="546.01,-6.92 536.01,-10.43 546.02,-13.92 546.01,-6.92"/>
</a>
</g>
</g>
<!-- Node38&#45;&gt;Node6 -->
<g id="edge63_Node000038_Node000006" class="edge">
<title>Node38&#45;&gt;Node6</title>
<g id="a_edge63_Node000038_Node000006"><a xlink:title=" ">
<path fill="none" stroke="#63b8ff" d="M1151.28,-384.84C1130.19,-368.16 1088,-329.33 1088,-285.5 1088,-285.5 1088,-285.5 1088,-228.5 1088,-197.19 1088,-160.77 1088,-139.23"/>
<polygon fill="#63b8ff" stroke="#63b8ff" points="1091.5,-139.18 1088,-129.18 1084.5,-139.18 1091.5,-139.18"/>
</a>
</g>
</g>
<!-- Node38&#45;&gt;Node34 -->
<g id="edge64_Node000038_Node000034" class="edge">
<title>Node38&#45;&gt;Node34</title>
<g id="a_edge64_Node000038_Node000034"><a xlink:title=" ">
<path fill="none" stroke="#63b8ff" d="M1167.46,-384.75C1171.12,-377.57 1176.41,-367.18 1180.95,-358.27"/>
<polygon fill="#63b8ff" stroke="#63b8ff" points="1184.2,-359.59 1185.62,-349.09 1177.97,-356.41 1184.2,-359.59"/>
</a>
</g>
</g>
</g>
</svg>
