<?xml version="1.0" encoding="UTF-8" standalone="no"?>
<!DOCTYPE svg PUBLIC "-//W3C//DTD SVG 1.1//EN"
 "http://www.w3.org/Graphics/SVG/1.1/DTD/svg11.dtd">
<!-- Generated by graphviz version 2.43.0 (0)
 -->
<!-- Title: /home/runner/work/cbmc/cbmc/src/util/namespace.h Pages: 1 -->
<svg width="1012pt" height="368pt"
 viewBox="0.00 0.00 1012.01 368.00" xmlns="http://www.w3.org/2000/svg" xmlns:xlink="http://www.w3.org/1999/xlink">
<g id="graph0" class="graph" transform="scale(1 1) rotate(0) translate(4 364)">
<title>/home/runner/work/cbmc/cbmc/src/util/namespace.h</title>
<!-- Node1 -->
<g id="Node000001" class="node">
<title>Node1</title>
<g id="a_Node000001"><a xlink:title=" ">
<polygon fill="#999999" stroke="#666666" points="297,-360 147,-360 147,-330 297,-330 297,-360"/>
<text text-anchor="start" x="155" y="-348" font-family="Helvetica,sans-Serif" font-size="10.00">/home/runner/work/cbmc</text>
<text text-anchor="middle" x="222" y="-337" font-family="Helvetica,sans-Serif" font-size="10.00">/cbmc/src/util/namespace.h</text>
</a>
</g>
</g>
<!-- Node2 -->
<g id="Node000002" class="node">
<title>Node2</title>
<g id="a_Node000002"><a xlink:href="src_2util_2invariant_8h.html" target="_top" xlink:title=" ">
<polygon fill="white" stroke="#666666" points="159.5,-129 90.5,-129 90.5,-110 159.5,-110 159.5,-129"/>
<text text-anchor="middle" x="125" y="-117" font-family="Helvetica,sans-Serif" font-size="10.00">invariant.h</text>
</a>
</g>
</g>
<!-- Node1&#45;&gt;Node2 -->
<g id="edge1_Node000001_Node000002" class="edge">
<title>Node1&#45;&gt;Node2</title>
<g id="a_edge1_Node000001_Node000002"><a xlink:title=" ">
<path fill="none" stroke="#63b8ff" d="M210.51,-329.65C189.82,-302.88 146.83,-242.72 129,-184 124.63,-169.6 123.78,-152.53 123.94,-139.72"/>
<polygon fill="#63b8ff" stroke="#63b8ff" points="127.45,-139.47 124.3,-129.35 120.45,-139.23 127.45,-139.47"/>
</a>
</g>
</g>
<!-- Node7 -->
<g id="Node000007" class="node">
<title>Node7</title>
<g id="a_Node000007"><a xlink:href="irep_8h.html" target="_top" xlink:title=" ">
<polygon fill="white" stroke="#666666" points="451,-294 407,-294 407,-275 451,-275 451,-294"/>
<text text-anchor="middle" x="429" y="-282" font-family="Helvetica,sans-Serif" font-size="10.00">irep.h</text>
</a>
</g>
</g>
<!-- Node1&#45;&gt;Node7 -->
<g id="edge6_Node000001_Node000007" class="edge">
<title>Node1&#45;&gt;Node7</title>
<g id="a_edge6_Node000001_Node000007"><a xlink:title=" ">
<path fill="none" stroke="#63b8ff" d="M271.58,-329.99C310.5,-318.99 363.52,-304.01 397,-294.54"/>
<polygon fill="#63b8ff" stroke="#63b8ff" points="398.06,-297.88 406.73,-291.79 396.16,-291.14 398.06,-297.88"/>
</a>
</g>
</g>
<!-- Node3 -->
<g id="Node000003" class="node">
<title>Node3</title>
<g id="a_Node000003"><a xlink:title=" ">
<polygon fill="#e0e0e0" stroke="#999999" points="123.5,-74 74.5,-74 74.5,-55 123.5,-55 123.5,-74"/>
<text text-anchor="middle" x="99" y="-62" font-family="Helvetica,sans-Serif" font-size="10.00">cstdlib</text>
</a>
</g>
</g>
<!-- Node2&#45;&gt;Node3 -->
<g id="edge2_Node000002_Node000003" class="edge">
<title>Node2&#45;&gt;Node3</title>
<g id="a_edge2_Node000002_Node000003"><a xlink:title=" ">
<path fill="none" stroke="#63b8ff" d="M120.71,-109.75C117.19,-102.57 112.09,-92.18 107.72,-83.27"/>
<polygon fill="#63b8ff" stroke="#63b8ff" points="110.76,-81.53 103.21,-74.09 104.48,-84.61 110.76,-81.53"/>
</a>
</g>
</g>
<!-- Node4 -->
<g id="Node000004" class="node">
<title>Node4</title>
<g id="a_Node000004"><a xlink:title=" ">
<polygon fill="#e0e0e0" stroke="#999999" points="56,-74 0,-74 0,-55 56,-55 56,-74"/>
<text text-anchor="middle" x="28" y="-62" font-family="Helvetica,sans-Serif" font-size="10.00">sstream</text>
</a>
</g>
</g>
<!-- Node2&#45;&gt;Node4 -->
<g id="edge3_Node000002_Node000004" class="edge">
<title>Node2&#45;&gt;Node4</title>
<g id="a_edge3_Node000002_Node000004"><a xlink:title=" ">
<path fill="none" stroke="#63b8ff" d="M109.42,-109.98C94.23,-101.69 70.9,-88.94 53.1,-79.22"/>
<polygon fill="#63b8ff" stroke="#63b8ff" points="54.32,-75.89 43.87,-74.17 50.97,-82.04 54.32,-75.89"/>
</a>
</g>
</g>
<!-- Node5 -->
<g id="Node000005" class="node">
<title>Node5</title>
<g id="a_Node000005"><a xlink:title=" ">
<polygon fill="#e0e0e0" stroke="#999999" points="627,-19 583,-19 583,0 627,0 627,-19"/>
<text text-anchor="middle" x="605" y="-7" font-family="Helvetica,sans-Serif" font-size="10.00">string</text>
</a>
</g>
</g>
<!-- Node2&#45;&gt;Node5 -->
<g id="edge4_Node000002_Node000005" class="edge">
<title>Node2&#45;&gt;Node5</title>
<g id="a_edge4_Node000002_Node000005"><a xlink:title=" ">
<path fill="none" stroke="#63b8ff" d="M128.52,-109.69C134.72,-95.44 149.06,-67.65 171,-55 239.34,-15.59 483.83,-10.85 572.54,-10.46"/>
<polygon fill="#63b8ff" stroke="#63b8ff" points="572.82,-13.95 582.81,-10.43 572.8,-6.95 572.82,-13.95"/>
</a>
</g>
</g>
<!-- Node6 -->
<g id="Node000006" class="node">
<title>Node6</title>
<g id="a_Node000006"><a xlink:title=" ">
<polygon fill="#e0e0e0" stroke="#999999" points="249.5,-74 180.5,-74 180.5,-55 249.5,-55 249.5,-74"/>
<text text-anchor="middle" x="215" y="-62" font-family="Helvetica,sans-Serif" font-size="10.00">type_traits</text>
</a>
</g>
</g>
<!-- Node2&#45;&gt;Node6 -->
<g id="edge5_Node000002_Node000006" class="edge">
<title>Node2&#45;&gt;Node6</title>
<g id="a_edge5_Node000002_Node000006"><a xlink:title=" ">
<path fill="none" stroke="#63b8ff" d="M139.46,-109.98C153.42,-101.77 174.79,-89.18 191.25,-79.49"/>
<polygon fill="#63b8ff" stroke="#63b8ff" points="193.44,-82.26 200.28,-74.17 189.88,-76.23 193.44,-82.26"/>
</a>
</g>
</g>
<!-- Node7&#45;&gt;Node2 -->
<g id="edge9_Node000007_Node000002" class="edge">
<title>Node7&#45;&gt;Node2</title>
<g id="a_edge9_Node000007_Node000002"><a xlink:title=" ">
<path fill="none" stroke="#63b8ff" d="M406.68,-282.53C353.07,-278.95 216.11,-262.22 144,-184 132.79,-171.84 128.18,-153.31 126.29,-139.4"/>
<polygon fill="#63b8ff" stroke="#63b8ff" points="129.73,-138.65 125.26,-129.05 122.77,-139.35 129.73,-138.65"/>
</a>
</g>
</g>
<!-- Node7&#45;&gt;Node5 -->
<g id="edge7_Node000007_Node000005" class="edge">
<title>Node7&#45;&gt;Node5</title>
<g id="a_edge7_Node000007_Node000005"><a xlink:title=" ">
<path fill="none" stroke="#63b8ff" d="M439.94,-275C460.08,-258.29 501,-218.99 501,-175.5 501,-175.5 501,-175.5 501,-118.5 501,-88.91 502.07,-77.74 521,-55 534.63,-38.63 555.88,-27.45 573.59,-20.39"/>
<polygon fill="#63b8ff" stroke="#63b8ff" points="574.85,-23.66 583,-16.89 572.4,-17.1 574.85,-23.66"/>
</a>
</g>
</g>
<!-- Node8 -->
<g id="Node000008" class="node">
<title>Node8</title>
<g id="a_Node000008"><a xlink:title=" ">
<polygon fill="#e0e0e0" stroke="#999999" points="576.5,-74 529.5,-74 529.5,-55 576.5,-55 576.5,-74"/>
<text text-anchor="middle" x="553" y="-62" font-family="Helvetica,sans-Serif" font-size="10.00">vector</text>
</a>
</g>
</g>
<!-- Node7&#45;&gt;Node8 -->
<g id="edge8_Node000007_Node000008" class="edge">
<title>Node7&#45;&gt;Node8</title>
<g id="a_edge8_Node000007_Node000008"><a xlink:title=" ">
<path fill="none" stroke="#63b8ff" d="M451.19,-277.84C470.96,-271.63 499.14,-259.67 515,-239 550.92,-192.18 554.37,-118.41 553.83,-84.14"/>
<polygon fill="#63b8ff" stroke="#63b8ff" points="557.32,-84.02 553.53,-74.13 550.33,-84.23 557.32,-84.02"/>
</a>
</g>
</g>
<!-- Node9 -->
<g id="Node000009" class="node">
<title>Node9</title>
<g id="a_Node000009"><a xlink:href="irep__ids_8h.html" target="_top" xlink:title="util">
<polygon fill="white" stroke="#666666" points="689,-239 625,-239 625,-220 689,-220 689,-239"/>
<text text-anchor="middle" x="657" y="-227" font-family="Helvetica,sans-Serif" font-size="10.00">irep_ids.h</text>
</a>
</g>
</g>
<!-- Node7&#45;&gt;Node9 -->
<g id="edge10_Node000007_Node000009" class="edge">
<title>Node7&#45;&gt;Node9</title>
<g id="a_edge10_Node000007_Node000009"><a xlink:title=" ">
<path fill="none" stroke="#63b8ff" d="M451.28,-278.32C489.15,-269.52 566.66,-251.5 614.98,-240.27"/>
<polygon fill="#63b8ff" stroke="#63b8ff" points="615.87,-243.65 624.82,-237.98 614.29,-236.84 615.87,-243.65"/>
</a>
</g>
</g>
<!-- Node20 -->
<g id="Node000020" class="node">
<title>Node20</title>
<g id="a_Node000020"><a xlink:href="forward__list__as__map_8h.html" target="_top" xlink:title=" ">
<polygon fill="white" stroke="#666666" points="420.5,-239 293.5,-239 293.5,-220 420.5,-220 420.5,-239"/>
<text text-anchor="middle" x="357" y="-227" font-family="Helvetica,sans-Serif" font-size="10.00">forward_list_as_map.h</text>
</a>
</g>
</g>
<!-- Node7&#45;&gt;Node20 -->
<g id="edge26_Node000007_Node000020" class="edge">
<title>Node7&#45;&gt;Node20</title>
<g id="a_edge26_Node000007_Node000020"><a xlink:title=" ">
<path fill="none" stroke="#63b8ff" d="M417.43,-274.98C406.58,-267 390.12,-254.88 377.12,-245.31"/>
<polygon fill="#63b8ff" stroke="#63b8ff" points="378.91,-242.28 368.78,-239.17 374.76,-247.92 378.91,-242.28"/>
</a>
</g>
</g>
<!-- Node10 -->
<g id="Node000010" class="node">
<title>Node10</title>
<g id="a_Node000010"><a xlink:href="dstring_8h.html" target="_top" xlink:title="Container for C&#45;Strings.">
<polygon fill="white" stroke="#666666" points="794.5,-184 735.5,-184 735.5,-165 794.5,-165 794.5,-184"/>
<text text-anchor="middle" x="765" y="-172" font-family="Helvetica,sans-Serif" font-size="10.00">dstring.h</text>
</a>
</g>
</g>
<!-- Node9&#45;&gt;Node10 -->
<g id="edge11_Node000009_Node000010" class="edge">
<title>Node9&#45;&gt;Node10</title>
<g id="a_edge11_Node000009_Node000010"><a xlink:title=" ">
<path fill="none" stroke="#63b8ff" d="M674.35,-219.98C691.57,-211.54 718.2,-198.47 738.15,-188.68"/>
<polygon fill="#63b8ff" stroke="#63b8ff" points="739.9,-191.72 747.33,-184.17 736.81,-185.43 739.9,-191.72"/>
</a>
</g>
</g>
<!-- Node19 -->
<g id="Node000019" class="node">
<title>Node19</title>
<g id="a_Node000019"><a xlink:title=" ">
<polygon fill="#e0e0e0" stroke="#999999" points="694,-184 620,-184 620,-165 694,-165 694,-184"/>
<text text-anchor="middle" x="657" y="-172" font-family="Helvetica,sans-Serif" font-size="10.00">irep_ids.def</text>
</a>
</g>
</g>
<!-- Node9&#45;&gt;Node19 -->
<g id="edge25_Node000009_Node000019" class="edge">
<title>Node9&#45;&gt;Node19</title>
<g id="a_edge25_Node000009_Node000019"><a xlink:title=" ">
<path fill="none" stroke="#63b8ff" d="M657,-219.75C657,-212.8 657,-202.85 657,-194.13"/>
<polygon fill="#63b8ff" stroke="#63b8ff" points="660.5,-194.09 657,-184.09 653.5,-194.09 660.5,-194.09"/>
</a>
</g>
</g>
<!-- Node10&#45;&gt;Node5 -->
<g id="edge13_Node000010_Node000005" class="edge">
<title>Node10&#45;&gt;Node5</title>
<g id="a_edge13_Node000010_Node000005"><a xlink:title=" ">
<path fill="none" stroke="#63b8ff" d="M745.45,-164.94C714.95,-150.58 656.19,-118.75 624,-74 614.45,-60.72 609.64,-42.6 607.26,-29.12"/>
<polygon fill="#63b8ff" stroke="#63b8ff" points="610.7,-28.47 605.78,-19.09 603.78,-29.49 610.7,-28.47"/>
</a>
</g>
</g>
<!-- Node11 -->
<g id="Node000011" class="node">
<title>Node11</title>
<g id="a_Node000011"><a xlink:title=" ">
<polygon fill="#e0e0e0" stroke="#999999" points="883,-129 835,-129 835,-110 883,-110 883,-129"/>
<text text-anchor="middle" x="859" y="-117" font-family="Helvetica,sans-Serif" font-size="10.00">iosfwd</text>
</a>
</g>
</g>
<!-- Node10&#45;&gt;Node11 -->
<g id="edge12_Node000010_Node000011" class="edge">
<title>Node10&#45;&gt;Node11</title>
<g id="a_edge12_Node000010_Node000011"><a xlink:title=" ">
<path fill="none" stroke="#63b8ff" d="M780.1,-164.98C794.82,-156.69 817.42,-143.94 834.67,-134.22"/>
<polygon fill="#63b8ff" stroke="#63b8ff" points="836.63,-137.13 843.62,-129.17 833.19,-131.03 836.63,-137.13"/>
</a>
</g>
</g>
<!-- Node12 -->
<g id="Node000012" class="node">
<title>Node12</title>
<g id="a_Node000012"><a xlink:href="magic_8h.html" target="_top" xlink:title="Magic numbers used throughout the codebase.">
<polygon fill="white" stroke="#666666" points="1002,-129 946,-129 946,-110 1002,-110 1002,-129"/>
<text text-anchor="middle" x="974" y="-117" font-family="Helvetica,sans-Serif" font-size="10.00">magic.h</text>
</a>
</g>
</g>
<!-- Node10&#45;&gt;Node12 -->
<g id="edge14_Node000010_Node000012" class="edge">
<title>Node10&#45;&gt;Node12</title>
<g id="a_edge14_Node000010_Node000012"><a xlink:title=" ">
<path fill="none" stroke="#63b8ff" d="M794.5,-166.02C831.64,-156.6 895.48,-140.41 936.17,-130.09"/>
<polygon fill="#63b8ff" stroke="#63b8ff" points="937.15,-133.46 945.98,-127.6 935.43,-126.67 937.15,-133.46"/>
</a>
</g>
</g>
<!-- Node14 -->
<g id="Node000014" class="node">
<title>Node14</title>
<g id="a_Node000014"><a xlink:href="string__container_8h.html" target="_top" xlink:title="Container for C&#45;Strings.">
<polygon fill="white" stroke="#666666" points="817,-129 713,-129 713,-110 817,-110 817,-129"/>
<text text-anchor="middle" x="765" y="-117" font-family="Helvetica,sans-Serif" font-size="10.00">string_container.h</text>
</a>
</g>
</g>
<!-- Node10&#45;&gt;Node14 -->
<g id="edge16_Node000010_Node000014" class="edge">
<title>Node10&#45;&gt;Node14</title>
<g id="a_edge16_Node000010_Node000014"><a xlink:title=" ">
<path fill="none" stroke="#63b8ff" d="M765,-164.75C765,-157.8 765,-147.85 765,-139.13"/>
<polygon fill="#63b8ff" stroke="#63b8ff" points="768.5,-139.09 765,-129.09 761.5,-139.09 768.5,-139.09"/>
</a>
</g>
</g>
<!-- Node13 -->
<g id="Node000013" class="node">
<title>Node13</title>
<g id="a_Node000013"><a xlink:title=" ">
<polygon fill="#e0e0e0" stroke="#999999" points="926.5,-19 873.5,-19 873.5,0 926.5,0 926.5,-19"/>
<text text-anchor="middle" x="900" y="-7" font-family="Helvetica,sans-Serif" font-size="10.00">cstddef</text>
</a>
</g>
</g>
<!-- Node12&#45;&gt;Node13 -->
<g id="edge15_Node000012_Node000013" class="edge">
<title>Node12&#45;&gt;Node13</title>
<g id="a_edge15_Node000012_Node000013"><a xlink:title=" ">
<path fill="none" stroke="#63b8ff" d="M982.6,-109.79C994.08,-97.07 1011.68,-72.98 1000,-55 986.09,-33.58 959.22,-22.39 936.83,-16.58"/>
<polygon fill="#63b8ff" stroke="#63b8ff" points="937.46,-13.14 926.92,-14.28 935.87,-19.95 937.46,-13.14"/>
</a>
</g>
</g>
<!-- Node14&#45;&gt;Node8 -->
<g id="edge19_Node000014_Node000008" class="edge">
<title>Node14&#45;&gt;Node8</title>
<g id="a_edge19_Node000014_Node000008"><a xlink:title=" ">
<path fill="none" stroke="#63b8ff" d="M730.94,-109.98C691.29,-100.07 626.22,-83.81 586.72,-73.93"/>
<polygon fill="#63b8ff" stroke="#63b8ff" points="587.33,-70.48 576.78,-71.45 585.63,-77.27 587.33,-70.48"/>
</a>
</g>
</g>
<!-- Node15 -->
<g id="Node000015" class="node">
<title>Node15</title>
<g id="a_Node000015"><a xlink:title=" ">
<polygon fill="#e0e0e0" stroke="#999999" points="991,-74 959,-74 959,-55 991,-55 991,-74"/>
<text text-anchor="middle" x="975" y="-62" font-family="Helvetica,sans-Serif" font-size="10.00">list</text>
</a>
</g>
</g>
<!-- Node14&#45;&gt;Node15 -->
<g id="edge17_Node000014_Node000015" class="edge">
<title>Node14&#45;&gt;Node15</title>
<g id="a_edge17_Node000014_Node000015"><a xlink:title=" ">
<path fill="none" stroke="#63b8ff" d="M804.97,-110C840.5,-102.19 894.01,-89.84 949.01,-74.08"/>
<polygon fill="#63b8ff" stroke="#63b8ff" points="950.3,-77.35 958.93,-71.21 948.35,-70.63 950.3,-77.35"/>
</a>
</g>
</g>
<!-- Node16 -->
<g id="Node000016" class="node">
<title>Node16</title>
<g id="a_Node000016"><a xlink:title=" ">
<polygon fill="#e0e0e0" stroke="#999999" points="940.5,-74 847.5,-74 847.5,-55 940.5,-55 940.5,-74"/>
<text text-anchor="middle" x="894" y="-62" font-family="Helvetica,sans-Serif" font-size="10.00">unordered_map</text>
</a>
</g>
</g>
<!-- Node14&#45;&gt;Node16 -->
<g id="edge18_Node000014_Node000016" class="edge">
<title>Node14&#45;&gt;Node16</title>
<g id="a_edge18_Node000014_Node000016"><a xlink:title=" ">
<path fill="none" stroke="#63b8ff" d="M785.73,-109.98C806.76,-101.34 839.55,-87.87 863.54,-78.02"/>
<polygon fill="#63b8ff" stroke="#63b8ff" points="864.98,-81.21 872.9,-74.17 862.32,-74.73 864.98,-81.21"/>
</a>
</g>
</g>
<!-- Node17 -->
<g id="Node000017" class="node">
<title>Node17</title>
<g id="a_Node000017"><a xlink:href="memory__units_8h.html" target="_top" xlink:title=" ">
<polygon fill="white" stroke="#666666" points="829,-74 733,-74 733,-55 829,-55 829,-74"/>
<text text-anchor="middle" x="781" y="-62" font-family="Helvetica,sans-Serif" font-size="10.00">memory_units.h</text>
</a>
</g>
</g>
<!-- Node14&#45;&gt;Node17 -->
<g id="edge20_Node000014_Node000017" class="edge">
<title>Node14&#45;&gt;Node17</title>
<g id="a_edge20_Node000014_Node000017"><a xlink:title=" ">
<path fill="none" stroke="#63b8ff" d="M767.64,-109.75C769.76,-102.72 772.81,-92.62 775.46,-83.84"/>
<polygon fill="#63b8ff" stroke="#63b8ff" points="778.87,-84.67 778.41,-74.09 772.17,-82.65 778.87,-84.67"/>
</a>
</g>
</g>
<!-- Node18 -->
<g id="Node000018" class="node">
<title>Node18</title>
<g id="a_Node000018"><a xlink:href="string__hash_8h.html" target="_top" xlink:title="string hashing">
<polygon fill="white" stroke="#666666" points="715,-74 633,-74 633,-55 715,-55 715,-74"/>
<text text-anchor="middle" x="674" y="-62" font-family="Helvetica,sans-Serif" font-size="10.00">string_hash.h</text>
</a>
</g>
</g>
<!-- Node14&#45;&gt;Node18 -->
<g id="edge23_Node000014_Node000018" class="edge">
<title>Node14&#45;&gt;Node18</title>
<g id="a_edge23_Node000014_Node000018"><a xlink:title=" ">
<path fill="none" stroke="#63b8ff" d="M750.38,-109.98C736.14,-101.69 714.25,-88.94 697.55,-79.22"/>
<polygon fill="#63b8ff" stroke="#63b8ff" points="699.29,-76.18 688.89,-74.17 695.77,-82.23 699.29,-76.18"/>
</a>
</g>
</g>
<!-- Node17&#45;&gt;Node5 -->
<g id="edge22_Node000017_Node000005" class="edge">
<title>Node17&#45;&gt;Node5</title>
<g id="a_edge22_Node000017_Node000005"><a xlink:title=" ">
<path fill="none" stroke="#63b8ff" d="M752.72,-54.98C721.02,-45.44 669.74,-30 636.7,-20.05"/>
<polygon fill="#63b8ff" stroke="#63b8ff" points="637.66,-16.68 627.08,-17.15 635.64,-23.38 637.66,-16.68"/>
</a>
</g>
</g>
<!-- Node17&#45;&gt;Node13 -->
<g id="edge21_Node000017_Node000013" class="edge">
<title>Node17&#45;&gt;Node13</title>
<g id="a_edge21_Node000017_Node000013"><a xlink:title=" ">
<path fill="none" stroke="#63b8ff" d="M800.12,-54.98C819.35,-46.42 849.23,-33.11 871.31,-23.28"/>
<polygon fill="#63b8ff" stroke="#63b8ff" points="872.82,-26.44 880.53,-19.17 869.97,-20.04 872.82,-26.44"/>
</a>
</g>
</g>
<!-- Node18&#45;&gt;Node5 -->
<g id="edge24_Node000018_Node000005" class="edge">
<title>Node18&#45;&gt;Node5</title>
<g id="a_edge24_Node000018_Node000005"><a xlink:title=" ">
<path fill="none" stroke="#63b8ff" d="M662.91,-54.98C652.51,-47 636.74,-34.88 624.28,-25.31"/>
<polygon fill="#63b8ff" stroke="#63b8ff" points="626.35,-22.49 616.29,-19.17 622.09,-28.04 626.35,-22.49"/>
</a>
</g>
</g>
<!-- Node21 -->
<g id="Node000021" class="node">
<title>Node21</title>
<g id="a_Node000021"><a xlink:title=" ">
<polygon fill="#e0e0e0" stroke="#999999" points="473,-184 409,-184 409,-165 473,-165 473,-184"/>
<text text-anchor="middle" x="441" y="-172" font-family="Helvetica,sans-Serif" font-size="10.00">algorithm</text>
</a>
</g>
</g>
<!-- Node20&#45;&gt;Node21 -->
<g id="edge27_Node000020_Node000021" class="edge">
<title>Node20&#45;&gt;Node21</title>
<g id="a_edge27_Node000020_Node000021"><a xlink:title=" ">
<path fill="none" stroke="#63b8ff" d="M370.5,-219.98C383.4,-211.84 403.1,-199.41 418.4,-189.76"/>
<polygon fill="#63b8ff" stroke="#63b8ff" points="420.67,-192.47 427.26,-184.17 416.93,-186.55 420.67,-192.47"/>
</a>
</g>
</g>
<!-- Node22 -->
<g id="Node000022" class="node">
<title>Node22</title>
<g id="a_Node000022"><a xlink:title=" ">
<polygon fill="#e0e0e0" stroke="#999999" points="305,-184 231,-184 231,-165 305,-165 305,-184"/>
<text text-anchor="middle" x="268" y="-172" font-family="Helvetica,sans-Serif" font-size="10.00">forward_list</text>
</a>
</g>
</g>
<!-- Node20&#45;&gt;Node22 -->
<g id="edge28_Node000020_Node000022" class="edge">
<title>Node20&#45;&gt;Node22</title>
<g id="a_edge28_Node000020_Node000022"><a xlink:title=" ">
<path fill="none" stroke="#63b8ff" d="M342.7,-219.98C328.9,-211.77 307.76,-199.18 291.49,-189.49"/>
<polygon fill="#63b8ff" stroke="#63b8ff" points="292.94,-186.28 282.56,-184.17 289.36,-192.29 292.94,-186.28"/>
</a>
</g>
</g>
<!-- Node23 -->
<g id="Node000023" class="node">
<title>Node23</title>
<g id="a_Node000023"><a xlink:href="as__const_8h.html" target="_top" xlink:title=" ">
<polygon fill="white" stroke="#666666" points="391,-184 323,-184 323,-165 391,-165 391,-184"/>
<text text-anchor="middle" x="357" y="-172" font-family="Helvetica,sans-Serif" font-size="10.00">as_const.h</text>
</a>
</g>
</g>
<!-- Node20&#45;&gt;Node23 -->
<g id="edge29_Node000020_Node000023" class="edge">
<title>Node20&#45;&gt;Node23</title>
<g id="a_edge29_Node000020_Node000023"><a xlink:title=" ">
<path fill="none" stroke="#63b8ff" d="M357,-219.75C357,-212.8 357,-202.85 357,-194.13"/>
<polygon fill="#63b8ff" stroke="#63b8ff" points="360.5,-194.09 357,-184.09 353.5,-194.09 360.5,-194.09"/>
</a>
</g>
</g>
<!-- Node24 -->
<g id="Node000024" class="node">
<title>Node24</title>
<g id="a_Node000024"><a xlink:href="narrow_8h.html" target="_top" xlink:title=" ">
<polygon fill="white" stroke="#666666" points="212.5,-184 153.5,-184 153.5,-165 212.5,-165 212.5,-184"/>
<text text-anchor="middle" x="183" y="-172" font-family="Helvetica,sans-Serif" font-size="10.00">narrow.h</text>
</a>
</g>
</g>
<!-- Node20&#45;&gt;Node24 -->
<g id="edge30_Node000020_Node000024" class="edge">
<title>Node20&#45;&gt;Node24</title>
<g id="a_edge30_Node000020_Node000024"><a xlink:title=" ">
<path fill="none" stroke="#63b8ff" d="M329.04,-219.98C299.7,-211.05 253.4,-196.94 220.81,-187.02"/>
<polygon fill="#63b8ff" stroke="#63b8ff" points="221.76,-183.65 211.18,-184.08 219.72,-190.34 221.76,-183.65"/>
</a>
</g>
</g>
<!-- Node24&#45;&gt;Node2 -->
<g id="edge32_Node000024_Node000002" class="edge">
<title>Node24&#45;&gt;Node2</title>
<g id="a_edge32_Node000024_Node000002"><a xlink:title=" ">
<path fill="none" stroke="#63b8ff" d="M173.68,-164.98C165.19,-157.23 152.44,-145.58 142.12,-136.14"/>
<polygon fill="#63b8ff" stroke="#63b8ff" points="144.23,-133.33 134.49,-129.17 139.51,-138.5 144.23,-133.33"/>
</a>
</g>
</g>
<!-- Node24&#45;&gt;Node6 -->
<g id="edge31_Node000024_Node000006" class="edge">
<title>Node24&#45;&gt;Node6</title>
<g id="a_edge31_Node000024_Node000006"><a xlink:title=" ">
<path fill="none" stroke="#63b8ff" d="M185.62,-164.66C190.82,-147.09 202.57,-107.45 209.53,-83.95"/>
<polygon fill="#63b8ff" stroke="#63b8ff" points="212.95,-84.74 212.43,-74.16 206.24,-82.75 212.95,-84.74"/>
</a>
</g>
</g>
</g>
</svg>
