<?xml version="1.0" encoding="UTF-8" standalone="no"?>
<!DOCTYPE svg PUBLIC "-//W3C//DTD SVG 1.1//EN"
 "http://www.w3.org/Graphics/SVG/1.1/DTD/svg11.dtd">
<!-- Generated by graphviz version 2.43.0 (0)
 -->
<!-- Title: /home/runner/work/cbmc/cbmc/jbmc/src/java_bytecode/nondet.cpp Pages: 1 -->
<svg width="965pt" height="544pt"
 viewBox="0.00 0.00 965.30 544.00" xmlns="http://www.w3.org/2000/svg" xmlns:xlink="http://www.w3.org/1999/xlink">
<g id="graph0" class="graph" transform="scale(1 1) rotate(0) translate(4 540)">
<title>/home/runner/work/cbmc/cbmc/jbmc/src/java_bytecode/nondet.cpp</title>
<!-- Node1 -->
<g id="Node000001" class="node">
<title>Node1</title>
<g id="a_Node000001"><a xlink:title=" ">
<polygon fill="#999999" stroke="#666666" points="745,-536 581,-536 581,-495 745,-495 745,-536"/>
<text text-anchor="start" x="589" y="-524" font-family="Helvetica,sans-Serif" font-size="10.00">/home/runner/work/cbmc</text>
<text text-anchor="start" x="589" y="-513" font-family="Helvetica,sans-Serif" font-size="10.00">/cbmc/jbmc/src/java_bytecode</text>
<text text-anchor="middle" x="663" y="-502" font-family="Helvetica,sans-Serif" font-size="10.00">/nondet.cpp</text>
</a>
</g>
</g>
<!-- Node2 -->
<g id="Node000002" class="node">
<title>Node2</title>
<g id="a_Node000002"><a xlink:href="nondet_8h.html" target="_top" xlink:title=" ">
<polygon fill="white" stroke="#666666" points="576.5,-459 517.5,-459 517.5,-440 576.5,-440 576.5,-459"/>
<text text-anchor="middle" x="547" y="-447" font-family="Helvetica,sans-Serif" font-size="10.00">nondet.h</text>
</a>
</g>
</g>
<!-- Node1&#45;&gt;Node2 -->
<g id="edge1_Node000001_Node000002" class="edge">
<title>Node1&#45;&gt;Node2</title>
<g id="a_edge1_Node000001_Node000002"><a xlink:title=" ">
<path fill="none" stroke="#63b8ff" d="M627.57,-494.95C609.41,-484.93 587.76,-472.99 571.47,-464"/>
<polygon fill="#63b8ff" stroke="#63b8ff" points="573.02,-460.86 562.57,-459.09 569.64,-466.99 573.02,-460.86"/>
</a>
</g>
</g>
<!-- Node45 -->
<g id="Node000045" class="node">
<title>Node45</title>
<g id="a_Node000045"><a xlink:href="arith__tools_8h.html" target="_top" xlink:title=" ">
<polygon fill="white" stroke="#666666" points="808,-404 712,-404 712,-385 808,-385 808,-404"/>
<text text-anchor="middle" x="760" y="-392" font-family="Helvetica,sans-Serif" font-size="10.00">util/arith_tools.h</text>
</a>
</g>
</g>
<!-- Node1&#45;&gt;Node45 -->
<g id="edge42_Node000001_Node000045" class="edge">
<title>Node1&#45;&gt;Node45</title>
<g id="a_edge42_Node000001_Node000045"><a xlink:title=" ">
<path fill="none" stroke="#63b8ff" d="M700.59,-494.93C715.03,-485.75 730.55,-473.59 741,-459 750.53,-445.7 755.33,-427.58 757.72,-414.11"/>
<polygon fill="#63b8ff" stroke="#63b8ff" points="761.2,-414.49 759.21,-404.08 754.28,-413.46 761.2,-414.49"/>
</a>
</g>
</g>
<!-- Node47 -->
<g id="Node000047" class="node">
<title>Node47</title>
<g id="a_Node000047"><a xlink:href="allocate__objects_8h.html" target="_top" xlink:title=" ">
<polygon fill="white" stroke="#666666" points="731.5,-459 594.5,-459 594.5,-440 731.5,-440 731.5,-459"/>
<text text-anchor="middle" x="663" y="-447" font-family="Helvetica,sans-Serif" font-size="10.00">ansi&#45;c/allocate_objects.h</text>
</a>
</g>
</g>
<!-- Node1&#45;&gt;Node47 -->
<g id="edge47_Node000001_Node000047" class="edge">
<title>Node1&#45;&gt;Node47</title>
<g id="a_edge47_Node000001_Node000047"><a xlink:title=" ">
<path fill="none" stroke="#63b8ff" d="M663,-494.95C663,-486.85 663,-477.5 663,-469.47"/>
<polygon fill="#63b8ff" stroke="#63b8ff" points="666.5,-469.26 663,-459.26 659.5,-469.26 666.5,-469.26"/>
</a>
</g>
</g>
<!-- Node3 -->
<g id="Node000003" class="node">
<title>Node3</title>
<g id="a_Node000003"><a xlink:href="std__code_8h.html" target="_top" xlink:title=" ">
<polygon fill="white" stroke="#666666" points="591,-404 503,-404 503,-385 591,-385 591,-404"/>
<text text-anchor="middle" x="547" y="-392" font-family="Helvetica,sans-Serif" font-size="10.00">util/std_code.h</text>
</a>
</g>
</g>
<!-- Node2&#45;&gt;Node3 -->
<g id="edge2_Node000002_Node000003" class="edge">
<title>Node2&#45;&gt;Node3</title>
<g id="a_edge2_Node000002_Node000003"><a xlink:title=" ">
<path fill="none" stroke="#63b8ff" d="M547,-439.75C547,-432.8 547,-422.85 547,-414.13"/>
<polygon fill="#63b8ff" stroke="#63b8ff" points="550.5,-414.09 547,-404.09 543.5,-414.09 550.5,-414.09"/>
</a>
</g>
</g>
<!-- Node4 -->
<g id="Node000004" class="node">
<title>Node4</title>
<g id="a_Node000004"><a xlink:title=" ">
<polygon fill="#e0e0e0" stroke="#999999" points="545,-349 513,-349 513,-330 545,-330 545,-349"/>
<text text-anchor="middle" x="529" y="-337" font-family="Helvetica,sans-Serif" font-size="10.00">list</text>
</a>
</g>
</g>
<!-- Node3&#45;&gt;Node4 -->
<g id="edge3_Node000003_Node000004" class="edge">
<title>Node3&#45;&gt;Node4</title>
<g id="a_edge3_Node000003_Node000004"><a xlink:title=" ">
<path fill="none" stroke="#63b8ff" d="M544.03,-384.75C541.64,-377.72 538.21,-367.62 535.23,-358.84"/>
<polygon fill="#63b8ff" stroke="#63b8ff" points="538.45,-357.43 531.92,-349.09 531.82,-359.68 538.45,-357.43"/>
</a>
</g>
</g>
<!-- Node5 -->
<g id="Node000005" class="node">
<title>Node5</title>
<g id="a_Node000005"><a xlink:href="std__code__base_8h.html" target="_top" xlink:title=" ">
<polygon fill="white" stroke="#666666" points="495,-349 397,-349 397,-330 495,-330 495,-349"/>
<text text-anchor="middle" x="446" y="-337" font-family="Helvetica,sans-Serif" font-size="10.00">std_code_base.h</text>
</a>
</g>
</g>
<!-- Node3&#45;&gt;Node5 -->
<g id="edge4_Node000003_Node000005" class="edge">
<title>Node3&#45;&gt;Node5</title>
<g id="a_edge4_Node000003_Node000005"><a xlink:title=" ">
<path fill="none" stroke="#63b8ff" d="M530.77,-384.98C514.82,-376.61 490.22,-363.7 471.62,-353.95"/>
<polygon fill="#63b8ff" stroke="#63b8ff" points="473,-350.72 462.52,-349.17 469.75,-356.92 473,-350.72"/>
</a>
</g>
</g>
<!-- Node44 -->
<g id="Node000044" class="node">
<title>Node44</title>
<g id="a_Node000044"><a xlink:href="std__expr_8h.html" target="_top" xlink:title="API to expression classes.">
<polygon fill="white" stroke="#666666" points="630.5,-349 563.5,-349 563.5,-330 630.5,-330 630.5,-349"/>
<text text-anchor="middle" x="597" y="-337" font-family="Helvetica,sans-Serif" font-size="10.00">std_expr.h</text>
</a>
</g>
</g>
<!-- Node3&#45;&gt;Node44 -->
<g id="edge38_Node000003_Node000044" class="edge">
<title>Node3&#45;&gt;Node44</title>
<g id="a_edge38_Node000003_Node000044"><a xlink:title=" ">
<path fill="none" stroke="#63b8ff" d="M555.26,-384.75C562.46,-377.11 573.11,-365.82 581.85,-356.56"/>
<polygon fill="#63b8ff" stroke="#63b8ff" points="584.58,-358.76 588.9,-349.09 579.49,-353.96 584.58,-358.76"/>
</a>
</g>
</g>
<!-- Node6 -->
<g id="Node000006" class="node">
<title>Node6</title>
<g id="a_Node000006"><a xlink:href="expr__cast_8h.html" target="_top" xlink:title="Templated functions to cast to specific exprt&#45;derived classes.">
<polygon fill="white" stroke="#666666" points="492.5,-239 419.5,-239 419.5,-220 492.5,-220 492.5,-239"/>
<text text-anchor="middle" x="456" y="-227" font-family="Helvetica,sans-Serif" font-size="10.00">expr_cast.h</text>
</a>
</g>
</g>
<!-- Node5&#45;&gt;Node6 -->
<g id="edge5_Node000005_Node000006" class="edge">
<title>Node5&#45;&gt;Node6</title>
<g id="a_edge5_Node000005_Node000006"><a xlink:title=" ">
<path fill="none" stroke="#63b8ff" d="M435.1,-329.79C421.57,-317.85 401.29,-295.53 410,-275 414.98,-263.25 424.75,-253.09 434.01,-245.45"/>
<polygon fill="#63b8ff" stroke="#63b8ff" points="436.4,-248.03 442.22,-239.18 432.15,-242.47 436.4,-248.03"/>
</a>
</g>
</g>
<!-- Node10 -->
<g id="Node000010" class="node">
<title>Node10</title>
<g id="a_Node000010"><a xlink:href="src_2util_2invariant_8h.html" target="_top" xlink:title=" ">
<polygon fill="white" stroke="#666666" points="705.5,-184 636.5,-184 636.5,-165 705.5,-165 705.5,-184"/>
<text text-anchor="middle" x="671" y="-172" font-family="Helvetica,sans-Serif" font-size="10.00">invariant.h</text>
</a>
</g>
</g>
<!-- Node5&#45;&gt;Node10 -->
<g id="edge26_Node000005_Node000010" class="edge">
<title>Node5&#45;&gt;Node10</title>
<g id="a_edge26_Node000005_Node000010"><a xlink:title=" ">
<path fill="none" stroke="#63b8ff" d="M457.78,-329.97C494.15,-303.62 604.95,-223.35 650.8,-190.13"/>
<polygon fill="#63b8ff" stroke="#63b8ff" points="653.02,-192.85 659.06,-184.15 648.91,-187.18 653.02,-192.85"/>
</a>
</g>
</g>
<!-- Node36 -->
<g id="Node000036" class="node">
<title>Node36</title>
<g id="a_Node000036"><a xlink:href="validate_8h.html" target="_top" xlink:title=" ">
<polygon fill="#fff0f0" stroke="red" points="131.5,-74 66.5,-74 66.5,-55 131.5,-55 131.5,-74"/>
<text text-anchor="middle" x="99" y="-62" font-family="Helvetica,sans-Serif" font-size="10.00">validate.h</text>
</a>
</g>
</g>
<!-- Node5&#45;&gt;Node36 -->
<g id="edge37_Node000005_Node000036" class="edge">
<title>Node5&#45;&gt;Node36</title>
<g id="a_edge37_Node000005_Node000036"><a xlink:title=" ">
<path fill="none" stroke="#63b8ff" d="M396.99,-336.95C281.14,-331.94 0,-311.46 0,-230.5 0,-230.5 0,-230.5 0,-173.5 0,-130.35 43.47,-96.96 72.8,-79.35"/>
<polygon fill="#63b8ff" stroke="#63b8ff" points="74.84,-82.21 81.76,-74.19 71.34,-76.15 74.84,-82.21"/>
</a>
</g>
</g>
<!-- Node41 -->
<g id="Node000041" class="node">
<title>Node41</title>
<g id="a_Node000041"><a xlink:href="std__types_8h.html" target="_top" xlink:title="Pre&#45;defined types.">
<polygon fill="white" stroke="#666666" points="492.5,-294 419.5,-294 419.5,-275 492.5,-275 492.5,-294"/>
<text text-anchor="middle" x="456" y="-282" font-family="Helvetica,sans-Serif" font-size="10.00">std_types.h</text>
</a>
</g>
</g>
<!-- Node5&#45;&gt;Node41 -->
<g id="edge27_Node000005_Node000041" class="edge">
<title>Node5&#45;&gt;Node41</title>
<g id="a_edge27_Node000005_Node000041"><a xlink:title=" ">
<path fill="none" stroke="#63b8ff" d="M447.65,-329.75C448.96,-322.8 450.84,-312.85 452.48,-304.13"/>
<polygon fill="#63b8ff" stroke="#63b8ff" points="455.96,-304.56 454.38,-294.09 449.09,-303.27 455.96,-304.56"/>
</a>
</g>
</g>
<!-- Node7 -->
<g id="Node000007" class="node">
<title>Node7</title>
<g id="a_Node000007"><a xlink:title=" ">
<polygon fill="#e0e0e0" stroke="#999999" points="518.5,-184 461.5,-184 461.5,-165 518.5,-165 518.5,-184"/>
<text text-anchor="middle" x="490" y="-172" font-family="Helvetica,sans-Serif" font-size="10.00">typeinfo</text>
</a>
</g>
</g>
<!-- Node6&#45;&gt;Node7 -->
<g id="edge6_Node000006_Node000007" class="edge">
<title>Node6&#45;&gt;Node7</title>
<g id="a_edge6_Node000006_Node000007"><a xlink:title=" ">
<path fill="none" stroke="#63b8ff" d="M461.61,-219.75C466.32,-212.42 473.17,-201.73 478.97,-192.7"/>
<polygon fill="#63b8ff" stroke="#63b8ff" points="482.04,-194.4 484.49,-184.09 476.14,-190.62 482.04,-194.4"/>
</a>
</g>
</g>
<!-- Node8 -->
<g id="Node000008" class="node">
<title>Node8</title>
<g id="a_Node000008"><a xlink:title=" ">
<polygon fill="#e0e0e0" stroke="#999999" points="581.5,-19 512.5,-19 512.5,0 581.5,0 581.5,-19"/>
<text text-anchor="middle" x="547" y="-7" font-family="Helvetica,sans-Serif" font-size="10.00">type_traits</text>
</a>
</g>
</g>
<!-- Node6&#45;&gt;Node8 -->
<g id="edge7_Node000006_Node000008" class="edge">
<title>Node6&#45;&gt;Node8</title>
<g id="a_edge7_Node000006_Node000008"><a xlink:title=" ">
<path fill="none" stroke="#63b8ff" d="M479.83,-219.98C495.92,-212.92 516.13,-201.22 527,-184 557.68,-135.37 553.88,-63.58 549.85,-29.63"/>
<polygon fill="#63b8ff" stroke="#63b8ff" points="553.26,-28.74 548.47,-19.3 546.32,-29.67 553.26,-28.74"/>
</a>
</g>
</g>
<!-- Node9 -->
<g id="Node000009" class="node">
<title>Node9</title>
<g id="a_Node000009"><a xlink:title=" ">
<polygon fill="#e0e0e0" stroke="#999999" points="518.5,-129 453.5,-129 453.5,-110 518.5,-110 518.5,-129"/>
<text text-anchor="middle" x="486" y="-117" font-family="Helvetica,sans-Serif" font-size="10.00">functional</text>
</a>
</g>
</g>
<!-- Node6&#45;&gt;Node9 -->
<g id="edge8_Node000006_Node000009" class="edge">
<title>Node6&#45;&gt;Node9</title>
<g id="a_edge8_Node000006_Node000009"><a xlink:title=" ">
<path fill="none" stroke="#63b8ff" d="M453.36,-219.59C450.09,-207.05 445.7,-183.63 452,-165 455.56,-154.47 462.72,-144.48 469.55,-136.63"/>
<polygon fill="#63b8ff" stroke="#63b8ff" points="472.13,-139.01 476.39,-129.31 467.01,-134.23 472.13,-139.01"/>
</a>
</g>
</g>
<!-- Node6&#45;&gt;Node10 -->
<g id="edge9_Node000006_Node000010" class="edge">
<title>Node6&#45;&gt;Node10</title>
<g id="a_edge9_Node000006_Node000010"><a xlink:title=" ">
<path fill="none" stroke="#63b8ff" d="M490.54,-219.98C527.42,-210.89 585.99,-196.46 626.34,-186.51"/>
<polygon fill="#63b8ff" stroke="#63b8ff" points="627.31,-189.87 636.19,-184.08 625.64,-183.08 627.31,-189.87"/>
</a>
</g>
</g>
<!-- Node14 -->
<g id="Node000014" class="node">
<title>Node14</title>
<g id="a_Node000014"><a xlink:href="expr_8h.html" target="_top" xlink:title=" ">
<polygon fill="white" stroke="#666666" points="305.5,-184 258.5,-184 258.5,-165 305.5,-165 305.5,-184"/>
<text text-anchor="middle" x="282" y="-172" font-family="Helvetica,sans-Serif" font-size="10.00">expr.h</text>
</a>
</g>
</g>
<!-- Node6&#45;&gt;Node14 -->
<g id="edge14_Node000006_Node000014" class="edge">
<title>Node6&#45;&gt;Node14</title>
<g id="a_edge14_Node000006_Node000014"><a xlink:title=" ">
<path fill="none" stroke="#63b8ff" d="M428.04,-219.98C397.31,-210.62 347.97,-195.59 315.27,-185.63"/>
<polygon fill="#63b8ff" stroke="#63b8ff" points="316.28,-182.28 305.69,-182.72 314.24,-188.98 316.28,-182.28"/>
</a>
</g>
</g>
<!-- Node10&#45;&gt;Node8 -->
<g id="edge13_Node000010_Node000008" class="edge">
<title>Node10&#45;&gt;Node8</title>
<g id="a_edge13_Node000010_Node000008"><a xlink:title=" ">
<path fill="none" stroke="#63b8ff" d="M682.29,-164.93C696.85,-152.79 719.06,-129.84 708,-110 682.37,-64.03 625.78,-36.63 587.01,-22.56"/>
<polygon fill="#63b8ff" stroke="#63b8ff" points="587.67,-19.09 577.07,-19.11 585.37,-25.7 587.67,-19.09"/>
</a>
</g>
</g>
<!-- Node11 -->
<g id="Node000011" class="node">
<title>Node11</title>
<g id="a_Node000011"><a xlink:title=" ">
<polygon fill="#e0e0e0" stroke="#999999" points="624.5,-129 575.5,-129 575.5,-110 624.5,-110 624.5,-129"/>
<text text-anchor="middle" x="600" y="-117" font-family="Helvetica,sans-Serif" font-size="10.00">cstdlib</text>
</a>
</g>
</g>
<!-- Node10&#45;&gt;Node11 -->
<g id="edge10_Node000010_Node000011" class="edge">
<title>Node10&#45;&gt;Node11</title>
<g id="a_edge10_Node000010_Node000011"><a xlink:title=" ">
<path fill="none" stroke="#63b8ff" d="M659.59,-164.98C648.89,-157 632.66,-144.88 619.84,-135.31"/>
<polygon fill="#63b8ff" stroke="#63b8ff" points="621.72,-132.35 611.61,-129.17 617.53,-137.96 621.72,-132.35"/>
</a>
</g>
</g>
<!-- Node12 -->
<g id="Node000012" class="node">
<title>Node12</title>
<g id="a_Node000012"><a xlink:title=" ">
<polygon fill="#e0e0e0" stroke="#999999" points="699,-129 643,-129 643,-110 699,-110 699,-129"/>
<text text-anchor="middle" x="671" y="-117" font-family="Helvetica,sans-Serif" font-size="10.00">sstream</text>
</a>
</g>
</g>
<!-- Node10&#45;&gt;Node12 -->
<g id="edge11_Node000010_Node000012" class="edge">
<title>Node10&#45;&gt;Node12</title>
<g id="a_edge11_Node000010_Node000012"><a xlink:title=" ">
<path fill="none" stroke="#63b8ff" d="M671,-164.75C671,-157.8 671,-147.85 671,-139.13"/>
<polygon fill="#63b8ff" stroke="#63b8ff" points="674.5,-139.09 671,-129.09 667.5,-139.09 674.5,-139.09"/>
</a>
</g>
</g>
<!-- Node13 -->
<g id="Node000013" class="node">
<title>Node13</title>
<g id="a_Node000013"><a xlink:title=" ">
<polygon fill="#e0e0e0" stroke="#999999" points="799,-129 755,-129 755,-110 799,-110 799,-129"/>
<text text-anchor="middle" x="777" y="-117" font-family="Helvetica,sans-Serif" font-size="10.00">string</text>
</a>
</g>
</g>
<!-- Node10&#45;&gt;Node13 -->
<g id="edge12_Node000010_Node000013" class="edge">
<title>Node10&#45;&gt;Node13</title>
<g id="a_edge12_Node000010_Node000013"><a xlink:title=" ">
<path fill="none" stroke="#63b8ff" d="M688.03,-164.98C704.93,-156.54 731.06,-143.47 750.64,-133.68"/>
<polygon fill="#63b8ff" stroke="#63b8ff" points="752.28,-136.77 759.66,-129.17 749.15,-130.51 752.28,-136.77"/>
</a>
</g>
</g>
<!-- Node14&#45;&gt;Node9 -->
<g id="edge25_Node000014_Node000009" class="edge">
<title>Node14&#45;&gt;Node9</title>
<g id="a_edge25_Node000014_Node000009"><a xlink:title=" ">
<path fill="none" stroke="#63b8ff" d="M305.8,-167.32C339.49,-158.56 401.64,-142.42 443.4,-131.57"/>
<polygon fill="#63b8ff" stroke="#63b8ff" points="444.48,-134.9 453.28,-129 442.72,-128.13 444.48,-134.9"/>
</a>
</g>
</g>
<!-- Node15 -->
<g id="Node000015" class="node">
<title>Node15</title>
<g id="a_Node000015"><a xlink:href="as__const_8h.html" target="_top" xlink:title=" ">
<polygon fill="white" stroke="#666666" points="435,-129 367,-129 367,-110 435,-110 435,-129"/>
<text text-anchor="middle" x="401" y="-117" font-family="Helvetica,sans-Serif" font-size="10.00">as_const.h</text>
</a>
</g>
</g>
<!-- Node14&#45;&gt;Node15 -->
<g id="edge15_Node000014_Node000015" class="edge">
<title>Node14&#45;&gt;Node15</title>
<g id="a_edge15_Node000014_Node000015"><a xlink:title=" ">
<path fill="none" stroke="#63b8ff" d="M301.12,-164.98C320.35,-156.42 350.23,-143.11 372.31,-133.28"/>
<polygon fill="#63b8ff" stroke="#63b8ff" points="373.82,-136.44 381.53,-129.17 370.97,-130.04 373.82,-136.44"/>
</a>
</g>
</g>
<!-- Node16 -->
<g id="Node000016" class="node">
<title>Node16</title>
<g id="a_Node000016"><a xlink:href="type_8h.html" target="_top" xlink:title="Defines typet, type_with_subtypet and type_with_subtypest.">
<polygon fill="#fff0f0" stroke="red" points="162.5,-129 115.5,-129 115.5,-110 162.5,-110 162.5,-129"/>
<text text-anchor="middle" x="139" y="-117" font-family="Helvetica,sans-Serif" font-size="10.00">type.h</text>
</a>
</g>
</g>
<!-- Node14&#45;&gt;Node16 -->
<g id="edge16_Node000014_Node000016" class="edge">
<title>Node14&#45;&gt;Node16</title>
<g id="a_edge16_Node000014_Node000016"><a xlink:title=" ">
<path fill="none" stroke="#63b8ff" d="M259.02,-164.98C235.5,-156.27 198.71,-142.63 172.06,-132.75"/>
<polygon fill="#63b8ff" stroke="#63b8ff" points="172.99,-129.36 162.39,-129.17 170.55,-135.93 172.99,-129.36"/>
</a>
</g>
</g>
<!-- Node38 -->
<g id="Node000038" class="node">
<title>Node38</title>
<g id="a_Node000038"><a xlink:href="validation__mode_8h.html" target="_top" xlink:title=" ">
<polygon fill="white" stroke="#666666" points="152.5,-19 45.5,-19 45.5,0 152.5,0 152.5,-19"/>
<text text-anchor="middle" x="99" y="-7" font-family="Helvetica,sans-Serif" font-size="10.00">validation_mode.h</text>
</a>
</g>
</g>
<!-- Node14&#45;&gt;Node38 -->
<g id="edge24_Node000014_Node000038" class="edge">
<title>Node14&#45;&gt;Node38</title>
<g id="a_edge24_Node000014_Node000038"><a xlink:title=" ">
<path fill="none" stroke="#63b8ff" d="M258.38,-171.93C222.93,-168.64 154.91,-158.67 106,-129 72.28,-108.54 42.43,-91.66 57,-55 61.52,-43.63 70.47,-33.48 78.96,-25.76"/>
<polygon fill="#63b8ff" stroke="#63b8ff" points="81.41,-28.27 86.79,-19.14 76.89,-22.92 81.41,-28.27"/>
</a>
</g>
</g>
<!-- Node39 -->
<g id="Node000039" class="node">
<title>Node39</title>
<g id="a_Node000039"><a xlink:href="validate__types_8h.html" target="_top" xlink:title=" ">
<polygon fill="white" stroke="#666666" points="286,-74 188,-74 188,-55 286,-55 286,-74"/>
<text text-anchor="middle" x="237" y="-62" font-family="Helvetica,sans-Serif" font-size="10.00">validate_types.h</text>
</a>
</g>
</g>
<!-- Node14&#45;&gt;Node39 -->
<g id="edge23_Node000014_Node000039" class="edge">
<title>Node14&#45;&gt;Node39</title>
<g id="a_edge23_Node000014_Node000039"><a xlink:title=" ">
<path fill="none" stroke="#63b8ff" d="M258.28,-165.87C241.5,-159.09 220.23,-147.35 210,-129 201.48,-113.72 211.46,-95.21 221.61,-82.13"/>
<polygon fill="#63b8ff" stroke="#63b8ff" points="224.36,-84.31 228.12,-74.41 219,-79.8 224.36,-84.31"/>
</a>
</g>
</g>
<!-- Node40 -->
<g id="Node000040" class="node">
<title>Node40</title>
<g id="a_Node000040"><a xlink:href="validate__expressions_8h.html" target="_top" xlink:title=" ">
<polygon fill="white" stroke="#666666" points="348.5,-129 219.5,-129 219.5,-110 348.5,-110 348.5,-129"/>
<text text-anchor="middle" x="284" y="-117" font-family="Helvetica,sans-Serif" font-size="10.00">validate_expressions.h</text>
</a>
</g>
</g>
<!-- Node14&#45;&gt;Node40 -->
<g id="edge22_Node000014_Node000040" class="edge">
<title>Node14&#45;&gt;Node40</title>
<g id="a_edge22_Node000014_Node000040"><a xlink:title=" ">
<path fill="none" stroke="#63b8ff" d="M282.33,-164.75C282.59,-157.8 282.97,-147.85 283.3,-139.13"/>
<polygon fill="#63b8ff" stroke="#63b8ff" points="286.8,-139.21 283.68,-129.09 279.8,-138.95 286.8,-139.21"/>
</a>
</g>
</g>
<!-- Node16&#45;&gt;Node36 -->
<g id="edge17_Node000016_Node000036" class="edge">
<title>Node16&#45;&gt;Node36</title>
<g id="a_edge17_Node000016_Node000036"><a xlink:title=" ">
<path fill="none" stroke="#63b8ff" d="M132.39,-109.75C126.74,-102.26 118.46,-91.28 111.55,-82.13"/>
<polygon fill="#63b8ff" stroke="#63b8ff" points="114.3,-79.96 105.48,-74.09 108.71,-84.18 114.3,-79.96"/>
</a>
</g>
</g>
<!-- Node16&#45;&gt;Node38 -->
<g id="edge21_Node000016_Node000038" class="edge">
<title>Node16&#45;&gt;Node38</title>
<g id="a_edge21_Node000016_Node000038"><a xlink:title=" ">
<path fill="none" stroke="#63b8ff" d="M141.12,-109.92C143.79,-97.37 147.22,-73.49 140,-55 135.6,-43.73 126.86,-33.59 118.57,-25.85"/>
<polygon fill="#63b8ff" stroke="#63b8ff" points="120.77,-23.12 110.93,-19.2 116.18,-28.4 120.77,-23.12"/>
</a>
</g>
</g>
<!-- Node16&#45;&gt;Node39 -->
<g id="edge20_Node000016_Node000039" class="edge">
<title>Node16&#45;&gt;Node39</title>
<g id="a_edge20_Node000016_Node000039"><a xlink:title=" ">
<path fill="none" stroke="#63b8ff" d="M154.75,-109.98C170.23,-101.61 194.09,-88.7 212.14,-78.95"/>
<polygon fill="#63b8ff" stroke="#63b8ff" points="213.84,-82.01 220.97,-74.17 210.51,-75.85 213.84,-82.01"/>
</a>
</g>
</g>
<!-- Node36&#45;&gt;Node8 -->
<g id="edge18_Node000036_Node000008" class="edge">
<title>Node36&#45;&gt;Node8</title>
<g id="a_edge18_Node000036_Node000008"><a xlink:title=" ">
<path fill="none" stroke="#63b8ff" d="M131.58,-59.65C210.51,-50.31 412.07,-26.46 502.23,-15.8"/>
<polygon fill="#63b8ff" stroke="#63b8ff" points="502.88,-19.24 512.4,-14.59 502.06,-12.29 502.88,-19.24"/>
</a>
</g>
</g>
<!-- Node36&#45;&gt;Node38 -->
<g id="edge19_Node000036_Node000038" class="edge">
<title>Node36&#45;&gt;Node38</title>
<g id="a_edge19_Node000036_Node000038"><a xlink:title=" ">
<path fill="none" stroke="#63b8ff" d="M99,-54.75C99,-47.8 99,-37.85 99,-29.13"/>
<polygon fill="#63b8ff" stroke="#63b8ff" points="102.5,-29.09 99,-19.09 95.5,-29.09 102.5,-29.09"/>
</a>
</g>
</g>
<!-- Node41&#45;&gt;Node6 -->
<g id="edge29_Node000041_Node000006" class="edge">
<title>Node41&#45;&gt;Node6</title>
<g id="a_edge29_Node000041_Node000006"><a xlink:title=" ">
<path fill="none" stroke="#63b8ff" d="M456,-274.75C456,-267.8 456,-257.85 456,-249.13"/>
<polygon fill="#63b8ff" stroke="#63b8ff" points="459.5,-249.09 456,-239.09 452.5,-249.09 459.5,-249.09"/>
</a>
</g>
</g>
<!-- Node41&#45;&gt;Node10 -->
<g id="edge30_Node000041_Node000010" class="edge">
<title>Node41&#45;&gt;Node10</title>
<g id="a_edge30_Node000041_Node000010"><a xlink:title=" ">
<path fill="none" stroke="#63b8ff" d="M466.07,-274.86C481.95,-261.59 514.18,-236.03 545,-220 571.98,-205.97 604.37,-194.64 629.56,-186.92"/>
<polygon fill="#63b8ff" stroke="#63b8ff" points="630.6,-190.26 639.17,-184.04 628.59,-183.56 630.6,-190.26"/>
</a>
</g>
</g>
<!-- Node41&#45;&gt;Node14 -->
<g id="edge28_Node000041_Node000014" class="edge">
<title>Node41&#45;&gt;Node14</title>
<g id="a_edge28_Node000041_Node000014"><a xlink:title=" ">
<path fill="none" stroke="#63b8ff" d="M419.41,-283.02C383.86,-280.54 330.72,-271.18 299,-239 287.37,-227.2 283.46,-208.36 282.26,-194.26"/>
<polygon fill="#63b8ff" stroke="#63b8ff" points="285.75,-194.02 281.78,-184.19 278.76,-194.35 285.75,-194.02"/>
</a>
</g>
</g>
<!-- Node41&#45;&gt;Node36 -->
<g id="edge35_Node000041_Node000036" class="edge">
<title>Node41&#45;&gt;Node36</title>
<g id="a_edge35_Node000041_Node000036"><a xlink:title=" ">
<path fill="none" stroke="#63b8ff" d="M419.28,-277.22C383.93,-270.42 329.45,-257.94 285,-239 199.1,-202.4 155.98,-207.88 106,-129 97.56,-115.68 96.34,-97.57 96.92,-84.09"/>
<polygon fill="#63b8ff" stroke="#63b8ff" points="100.41,-84.32 97.71,-74.08 93.43,-83.77 100.41,-84.32"/>
</a>
</g>
</g>
<!-- Node42 -->
<g id="Node000042" class="node">
<title>Node42</title>
<g id="a_Node000042"><a xlink:href="mp__arith_8h.html" target="_top" xlink:title=" ">
<polygon fill="white" stroke="#666666" points="889.5,-239 820.5,-239 820.5,-220 889.5,-220 889.5,-239"/>
<text text-anchor="middle" x="855" y="-227" font-family="Helvetica,sans-Serif" font-size="10.00">mp_arith.h</text>
</a>
</g>
</g>
<!-- Node41&#45;&gt;Node42 -->
<g id="edge31_Node000041_Node000042" class="edge">
<title>Node41&#45;&gt;Node42</title>
<g id="a_edge31_Node000041_Node000042"><a xlink:title=" ">
<path fill="none" stroke="#63b8ff" d="M492.53,-279.24C555.83,-271.75 690.01,-255.47 803,-239 805.37,-238.65 807.79,-238.29 810.24,-237.92"/>
<polygon fill="#63b8ff" stroke="#63b8ff" points="811,-241.34 820.34,-236.34 809.92,-234.43 811,-241.34"/>
</a>
</g>
</g>
<!-- Node27 -->
<g id="Node000027" class="node">
<title>Node27</title>
<g id="a_Node000027"><a xlink:title=" ">
<polygon fill="#e0e0e0" stroke="#999999" points="401.5,-239 308.5,-239 308.5,-220 401.5,-220 401.5,-239"/>
<text text-anchor="middle" x="355" y="-227" font-family="Helvetica,sans-Serif" font-size="10.00">unordered_map</text>
</a>
</g>
</g>
<!-- Node41&#45;&gt;Node27 -->
<g id="edge36_Node000041_Node000027" class="edge">
<title>Node41&#45;&gt;Node27</title>
<g id="a_edge36_Node000041_Node000027"><a xlink:title=" ">
<path fill="none" stroke="#63b8ff" d="M439.77,-274.98C423.82,-266.61 399.22,-253.7 380.62,-243.95"/>
<polygon fill="#63b8ff" stroke="#63b8ff" points="382,-240.72 371.52,-239.17 378.75,-246.92 382,-240.72"/>
</a>
</g>
</g>
<!-- Node42&#45;&gt;Node13 -->
<g id="edge33_Node000042_Node000013" class="edge">
<title>Node42&#45;&gt;Node13</title>
<g id="a_edge33_Node000042_Node000013"><a xlink:title=" ">
<path fill="none" stroke="#63b8ff" d="M889.5,-220.43C925.07,-210.47 972.63,-191.54 952,-165 934.64,-142.67 854.81,-129.71 809.2,-124.01"/>
<polygon fill="#63b8ff" stroke="#63b8ff" points="809.55,-120.52 799.21,-122.8 808.72,-127.47 809.55,-120.52"/>
</a>
</g>
</g>
<!-- Node23 -->
<g id="Node000023" class="node">
<title>Node23</title>
<g id="a_Node000023"><a xlink:title=" ">
<polygon fill="#e0e0e0" stroke="#999999" points="831,-184 783,-184 783,-165 831,-165 831,-184"/>
<text text-anchor="middle" x="807" y="-172" font-family="Helvetica,sans-Serif" font-size="10.00">iosfwd</text>
</a>
</g>
</g>
<!-- Node42&#45;&gt;Node23 -->
<g id="edge32_Node000042_Node000023" class="edge">
<title>Node42&#45;&gt;Node23</title>
<g id="a_edge32_Node000042_Node000023"><a xlink:title=" ">
<path fill="none" stroke="#63b8ff" d="M847.07,-219.75C840.15,-212.11 829.93,-200.82 821.55,-191.56"/>
<polygon fill="#63b8ff" stroke="#63b8ff" points="824.09,-189.15 814.78,-184.09 818.9,-193.85 824.09,-189.15"/>
</a>
</g>
</g>
<!-- Node43 -->
<g id="Node000043" class="node">
<title>Node43</title>
<g id="a_Node000043"><a xlink:title=" ">
<polygon fill="#e0e0e0" stroke="#999999" points="943,-184 849,-184 849,-165 943,-165 943,-184"/>
<text text-anchor="middle" x="896" y="-172" font-family="Helvetica,sans-Serif" font-size="10.00">big&#45;int/bigint.hh</text>
</a>
</g>
</g>
<!-- Node42&#45;&gt;Node43 -->
<g id="edge34_Node000042_Node000043" class="edge">
<title>Node42&#45;&gt;Node43</title>
<g id="a_edge34_Node000042_Node000043"><a xlink:title=" ">
<path fill="none" stroke="#63b8ff" d="M861.77,-219.75C867.56,-212.26 876.06,-201.28 883.14,-192.13"/>
<polygon fill="#63b8ff" stroke="#63b8ff" points="886.01,-194.14 889.36,-184.09 880.47,-189.86 886.01,-194.14"/>
</a>
</g>
</g>
<!-- Node44&#45;&gt;Node6 -->
<g id="edge39_Node000044_Node000006" class="edge">
<title>Node44&#45;&gt;Node6</title>
<g id="a_edge39_Node000044_Node000006"><a xlink:title=" ">
<path fill="none" stroke="#63b8ff" d="M585.46,-329.66C561.28,-311.14 505.06,-268.08 475.29,-245.28"/>
<polygon fill="#63b8ff" stroke="#63b8ff" points="477.37,-242.46 467.3,-239.16 473.11,-248.02 477.37,-242.46"/>
</a>
</g>
</g>
<!-- Node44&#45;&gt;Node10 -->
<g id="edge40_Node000044_Node000010" class="edge">
<title>Node44&#45;&gt;Node10</title>
<g id="a_edge40_Node000044_Node000010"><a xlink:title=" ">
<path fill="none" stroke="#63b8ff" d="M599.01,-329.67C601.98,-317.21 608.06,-293.88 616,-275 628.63,-244.96 647.84,-212.28 659.9,-192.86"/>
<polygon fill="#63b8ff" stroke="#63b8ff" points="662.96,-194.56 665.33,-184.23 657.04,-190.83 662.96,-194.56"/>
</a>
</g>
</g>
<!-- Node44&#45;&gt;Node41 -->
<g id="edge41_Node000044_Node000041" class="edge">
<title>Node44&#45;&gt;Node41</title>
<g id="a_edge41_Node000044_Node000041"><a xlink:title=" ">
<path fill="none" stroke="#63b8ff" d="M574.35,-329.98C551.15,-321.27 514.88,-307.63 488.6,-297.75"/>
<polygon fill="#63b8ff" stroke="#63b8ff" points="489.66,-294.41 479.07,-294.17 487.2,-300.97 489.66,-294.41"/>
</a>
</g>
</g>
<!-- Node45&#45;&gt;Node10 -->
<g id="edge43_Node000045_Node000010" class="edge">
<title>Node45&#45;&gt;Node10</title>
<g id="a_edge43_Node000045_Node000010"><a xlink:title=" ">
<path fill="none" stroke="#63b8ff" d="M759.37,-384.85C757.68,-364.82 752.01,-314.04 736,-275 723.02,-243.36 699.6,-210.98 684.7,-192.08"/>
<polygon fill="#63b8ff" stroke="#63b8ff" points="687.33,-189.77 678.34,-184.17 681.88,-194.16 687.33,-189.77"/>
</a>
</g>
</g>
<!-- Node45&#45;&gt;Node42 -->
<g id="edge44_Node000045_Node000042" class="edge">
<title>Node45&#45;&gt;Node42</title>
<g id="a_edge44_Node000045_Node000042"><a xlink:title=" ">
<path fill="none" stroke="#63b8ff" d="M785.96,-384.95C802.93,-377.98 824.09,-366.41 836,-349 856.62,-318.86 857.91,-274.46 856.68,-249.44"/>
<polygon fill="#63b8ff" stroke="#63b8ff" points="860.15,-248.88 855.97,-239.15 853.16,-249.36 860.15,-248.88"/>
</a>
</g>
</g>
<!-- Node45&#45;&gt;Node44 -->
<g id="edge45_Node000045_Node000044" class="edge">
<title>Node45&#45;&gt;Node44</title>
<g id="a_edge45_Node000045_Node000044"><a xlink:title=" ">
<path fill="none" stroke="#63b8ff" d="M733.81,-384.98C706.56,-376.13 663.7,-362.19 633.22,-352.28"/>
<polygon fill="#63b8ff" stroke="#63b8ff" points="633.99,-348.85 623.39,-349.08 631.82,-355.5 633.99,-348.85"/>
</a>
</g>
</g>
<!-- Node46 -->
<g id="Node000046" class="node">
<title>Node46</title>
<g id="a_Node000046"><a xlink:title=" ">
<polygon fill="#e0e0e0" stroke="#999999" points="827,-349 783,-349 783,-330 827,-330 827,-349"/>
<text text-anchor="middle" x="805" y="-337" font-family="Helvetica,sans-Serif" font-size="10.00">limits</text>
</a>
</g>
</g>
<!-- Node45&#45;&gt;Node46 -->
<g id="edge46_Node000045_Node000046" class="edge">
<title>Node45&#45;&gt;Node46</title>
<g id="a_edge46_Node000045_Node000046"><a xlink:title=" ">
<path fill="none" stroke="#63b8ff" d="M767.43,-384.75C773.85,-377.18 783.31,-366.05 791.12,-356.84"/>
<polygon fill="#63b8ff" stroke="#63b8ff" points="793.9,-358.98 797.71,-349.09 788.57,-354.45 793.9,-358.98"/>
</a>
</g>
</g>
<!-- Node47&#45;&gt;Node3 -->
<g id="edge53_Node000047_Node000003" class="edge">
<title>Node47&#45;&gt;Node3</title>
<g id="a_edge53_Node000047_Node000003"><a xlink:title=" ">
<path fill="none" stroke="#63b8ff" d="M644.36,-439.98C625.7,-431.46 596.75,-418.23 575.26,-408.41"/>
<polygon fill="#63b8ff" stroke="#63b8ff" points="576.53,-405.14 565.98,-404.17 573.62,-411.51 576.53,-405.14"/>
</a>
</g>
</g>
<!-- Node48 -->
<g id="Node000048" class="node">
<title>Node48</title>
<g id="a_Node000048"><a xlink:href="namespace_8h.html" target="_top" xlink:title=" ">
<polygon fill="white" stroke="#666666" points="726.5,-294 625.5,-294 625.5,-275 726.5,-275 726.5,-294"/>
<text text-anchor="middle" x="676" y="-282" font-family="Helvetica,sans-Serif" font-size="10.00">util/namespace.h</text>
</a>
</g>
</g>
<!-- Node47&#45;&gt;Node48 -->
<g id="edge48_Node000047_Node000048" class="edge">
<title>Node47&#45;&gt;Node48</title>
<g id="a_edge48_Node000047_Node000048"><a xlink:title=" ">
<path fill="none" stroke="#63b8ff" d="M663.7,-439.74C665.73,-414.31 671.65,-340.08 674.47,-304.69"/>
<polygon fill="#63b8ff" stroke="#63b8ff" points="677.99,-304.55 675.3,-294.31 671.01,-304 677.99,-304.55"/>
</a>
</g>
</g>
<!-- Node48&#45;&gt;Node10 -->
<g id="edge49_Node000048_Node000010" class="edge">
<title>Node48&#45;&gt;Node10</title>
<g id="a_edge49_Node000048_Node000010"><a xlink:title=" ">
<path fill="none" stroke="#63b8ff" d="M675.59,-274.66C674.78,-257.17 672.96,-217.8 671.87,-194.27"/>
<polygon fill="#63b8ff" stroke="#63b8ff" points="675.36,-193.99 671.4,-184.16 668.37,-194.31 675.36,-193.99"/>
</a>
</g>
</g>
<!-- Node19 -->
<g id="Node000019" class="node">
<title>Node19</title>
<g id="a_Node000019"><a xlink:href="irep_8h.html" target="_top" xlink:title=" ">
<polygon fill="#fff0f0" stroke="red" points="794,-239 750,-239 750,-220 794,-220 794,-239"/>
<text text-anchor="middle" x="772" y="-227" font-family="Helvetica,sans-Serif" font-size="10.00">irep.h</text>
</a>
</g>
</g>
<!-- Node48&#45;&gt;Node19 -->
<g id="edge50_Node000048_Node000019" class="edge">
<title>Node48&#45;&gt;Node19</title>
<g id="a_edge50_Node000048_Node000019"><a xlink:title=" ">
<path fill="none" stroke="#63b8ff" d="M691.42,-274.98C706.45,-266.69 729.54,-253.94 747.16,-244.22"/>
<polygon fill="#63b8ff" stroke="#63b8ff" points="749.23,-247.07 756.3,-239.17 745.85,-240.94 749.23,-247.07"/>
</a>
</g>
</g>
<!-- Node19&#45;&gt;Node10 -->
<g id="edge52_Node000019_Node000010" class="edge">
<title>Node19&#45;&gt;Node10</title>
<g id="a_edge52_Node000019_Node000010"><a xlink:title=" ">
<path fill="none" stroke="#63b8ff" d="M755.77,-219.98C739.82,-211.61 715.22,-198.7 696.62,-188.95"/>
<polygon fill="#63b8ff" stroke="#63b8ff" points="698,-185.72 687.52,-184.17 694.75,-191.92 698,-185.72"/>
</a>
</g>
</g>
<!-- Node19&#45;&gt;Node13 -->
<g id="edge51_Node000019_Node000013" class="edge">
<title>Node19&#45;&gt;Node13</title>
<g id="a_edge51_Node000019_Node000013"><a xlink:title=" ">
<path fill="none" stroke="#63b8ff" d="M772.17,-219.87C772.44,-207.65 773.03,-184.61 774,-165 774.42,-156.48 775.03,-147.06 775.6,-139.09"/>
<polygon fill="#63b8ff" stroke="#63b8ff" points="779.09,-139.25 776.33,-129.03 772.11,-138.74 779.09,-139.25"/>
</a>
</g>
</g>
</g>
</svg>
