<?xml version="1.0" encoding="UTF-8" standalone="no"?>
<!DOCTYPE svg PUBLIC "-//W3C//DTD SVG 1.1//EN"
 "http://www.w3.org/Graphics/SVG/1.1/DTD/svg11.dtd">
<!-- Generated by graphviz version 2.43.0 (0)
 -->
<!-- Title: /home/runner/work/cbmc/cbmc/src/ansi&#45;c/padding.cpp Pages: 1 -->
<svg width="1226pt" height="654pt"
 viewBox="0.00 0.00 1225.94 654.00" xmlns="http://www.w3.org/2000/svg" xmlns:xlink="http://www.w3.org/1999/xlink">
<g id="graph0" class="graph" transform="scale(1 1) rotate(0) translate(4 650)">
<title>/home/runner/work/cbmc/cbmc/src/ansi&#45;c/padding.cpp</title>
<!-- Node1 -->
<g id="Node000001" class="node">
<title>Node1</title>
<g id="a_Node000001"><a xlink:title="C++ Language Type Checking.">
<polygon fill="#999999" stroke="#666666" points="907,-646 749,-646 749,-616 907,-616 907,-646"/>
<text text-anchor="start" x="757" y="-634" font-family="Helvetica,sans-Serif" font-size="10.00">/home/runner/work/cbmc</text>
<text text-anchor="middle" x="828" y="-623" font-family="Helvetica,sans-Serif" font-size="10.00">/cbmc/src/ansi&#45;c/padding.cpp</text>
</a>
</g>
</g>
<!-- Node2 -->
<g id="Node000002" class="node">
<title>Node2</title>
<g id="a_Node000002"><a xlink:href="padding_8h.html" target="_top" xlink:title="ANSI&#45;C Language Type Checking.">
<polygon fill="white" stroke="#666666" points="819.5,-525 754.5,-525 754.5,-506 819.5,-506 819.5,-525"/>
<text text-anchor="middle" x="787" y="-513" font-family="Helvetica,sans-Serif" font-size="10.00">padding.h</text>
</a>
</g>
</g>
<!-- Node1&#45;&gt;Node2 -->
<g id="edge1_Node000001_Node000002" class="edge">
<title>Node1&#45;&gt;Node2</title>
<g id="a_edge1_Node000001_Node000002"><a xlink:title=" ">
<path fill="none" stroke="#63b8ff" d="M822.81,-615.63C815.4,-595.12 801.8,-557.47 793.66,-534.93"/>
<polygon fill="#63b8ff" stroke="#63b8ff" points="796.84,-533.45 790.15,-525.23 790.26,-535.82 796.84,-533.45"/>
</a>
</g>
</g>
<!-- Node7 -->
<g id="Node000007" class="node">
<title>Node7</title>
<g id="a_Node000007"><a xlink:title=" ">
<polygon fill="#e0e0e0" stroke="#999999" points="978,-580 914,-580 914,-561 978,-561 978,-580"/>
<text text-anchor="middle" x="946" y="-568" font-family="Helvetica,sans-Serif" font-size="10.00">algorithm</text>
</a>
</g>
</g>
<!-- Node1&#45;&gt;Node7 -->
<g id="edge6_Node000001_Node000007" class="edge">
<title>Node1&#45;&gt;Node7</title>
<g id="a_edge6_Node000001_Node000007"><a xlink:title=" ">
<path fill="none" stroke="#63b8ff" d="M856.26,-615.99C875.42,-606.49 900.58,-594.02 919.39,-584.69"/>
<polygon fill="#63b8ff" stroke="#63b8ff" points="921.17,-587.72 928.57,-580.14 918.06,-581.45 921.17,-587.72"/>
</a>
</g>
</g>
<!-- Node8 -->
<g id="Node000008" class="node">
<title>Node8</title>
<g id="a_Node000008"><a xlink:href="arith__tools_8h.html" target="_top" xlink:title=" ">
<polygon fill="white" stroke="#666666" points="446,-525 350,-525 350,-506 446,-506 446,-525"/>
<text text-anchor="middle" x="398" y="-513" font-family="Helvetica,sans-Serif" font-size="10.00">util/arith_tools.h</text>
</a>
</g>
</g>
<!-- Node1&#45;&gt;Node8 -->
<g id="edge7_Node000001_Node000008" class="edge">
<title>Node1&#45;&gt;Node8</title>
<g id="a_edge7_Node000001_Node000008"><a xlink:title=" ">
<path fill="none" stroke="#63b8ff" d="M759.98,-615.95C716.12,-606.55 657.96,-593.49 607,-580 545.53,-563.73 474.92,-541.53 433.52,-528.15"/>
<polygon fill="#63b8ff" stroke="#63b8ff" points="434.49,-524.79 423.89,-525.03 432.33,-531.44 434.49,-524.79"/>
</a>
</g>
</g>
<!-- Node45 -->
<g id="Node000045" class="node">
<title>Node45</title>
<g id="a_Node000045"><a xlink:href="c__types_8h.html" target="_top" xlink:title=" ">
<polygon fill="white" stroke="#666666" points="698,-580 616,-580 616,-561 698,-561 698,-580"/>
<text text-anchor="middle" x="657" y="-568" font-family="Helvetica,sans-Serif" font-size="10.00">util/c_types.h</text>
</a>
</g>
</g>
<!-- Node1&#45;&gt;Node45 -->
<g id="edge48_Node000001_Node000045" class="edge">
<title>Node1&#45;&gt;Node45</title>
<g id="a_edge48_Node000001_Node000045"><a xlink:title=" ">
<path fill="none" stroke="#63b8ff" d="M787.04,-615.99C758,-606.05 719.45,-592.86 691.88,-583.43"/>
<polygon fill="#63b8ff" stroke="#63b8ff" points="692.85,-580.06 682.25,-580.14 690.58,-586.69 692.85,-580.06"/>
</a>
</g>
</g>
<!-- Node48 -->
<g id="Node000048" class="node">
<title>Node48</title>
<g id="a_Node000048"><a xlink:href="config_8h.html" target="_top" xlink:title=" ">
<polygon fill="white" stroke="#666666" points="1118,-470 1044,-470 1044,-451 1118,-451 1118,-470"/>
<text text-anchor="middle" x="1081" y="-458" font-family="Helvetica,sans-Serif" font-size="10.00">util/config.h</text>
</a>
</g>
</g>
<!-- Node1&#45;&gt;Node48 -->
<g id="edge54_Node000001_Node000048" class="edge">
<title>Node1&#45;&gt;Node48</title>
<g id="a_edge54_Node000001_Node000048"><a xlink:title=" ">
<path fill="none" stroke="#63b8ff" d="M841.97,-615.78C856.82,-601.08 881.38,-577.96 905,-561 954.65,-525.36 1018.19,-492.17 1053.75,-474.58"/>
<polygon fill="#63b8ff" stroke="#63b8ff" points="1055.56,-477.59 1063,-470.05 1052.48,-471.31 1055.56,-477.59"/>
</a>
</g>
</g>
<!-- Node51 -->
<g id="Node000051" class="node">
<title>Node51</title>
<g id="a_Node000051"><a xlink:href="namespace_8h.html" target="_top" xlink:title=" ">
<polygon fill="white" stroke="#666666" points="735.5,-184 634.5,-184 634.5,-165 735.5,-165 735.5,-184"/>
<text text-anchor="middle" x="685" y="-172" font-family="Helvetica,sans-Serif" font-size="10.00">util/namespace.h</text>
</a>
</g>
</g>
<!-- Node1&#45;&gt;Node51 -->
<g id="edge62_Node000001_Node000051" class="edge">
<title>Node1&#45;&gt;Node51</title>
<g id="a_edge62_Node000001_Node000051"><a xlink:title=" ">
<path fill="none" stroke="#63b8ff" d="M802,-615.92C771.78,-597.43 726,-561.94 726,-516.5 726,-516.5 726,-516.5 726,-283.5 726,-249.57 708.09,-213.31 695.94,-192.62"/>
<polygon fill="#63b8ff" stroke="#63b8ff" points="698.9,-190.75 690.7,-184.04 692.93,-194.4 698.9,-190.75"/>
</a>
</g>
</g>
<!-- Node52 -->
<g id="Node000052" class="node">
<title>Node52</title>
<g id="a_Node000052"><a xlink:href="pointer__offset__size_8h.html" target="_top" xlink:title="Pointer Logic.">
<polygon fill="white" stroke="#666666" points="909.5,-415 806.5,-415 806.5,-385 909.5,-385 909.5,-415"/>
<text text-anchor="start" x="814.5" y="-403" font-family="Helvetica,sans-Serif" font-size="10.00">util/pointer_offset</text>
<text text-anchor="middle" x="858" y="-392" font-family="Helvetica,sans-Serif" font-size="10.00">_size.h</text>
</a>
</g>
</g>
<!-- Node1&#45;&gt;Node52 -->
<g id="edge65_Node000001_Node000052" class="edge">
<title>Node1&#45;&gt;Node52</title>
<g id="a_edge65_Node000001_Node000052"><a xlink:title=" ">
<path fill="none" stroke="#63b8ff" d="M829.88,-615.68C834.89,-577.43 848.62,-472.61 854.85,-425.04"/>
<polygon fill="#63b8ff" stroke="#63b8ff" points="858.33,-425.4 856.16,-415.03 851.39,-424.49 858.33,-425.4"/>
</a>
</g>
</g>
<!-- Node53 -->
<g id="Node000053" class="node">
<title>Node53</title>
<g id="a_Node000053"><a xlink:href="simplify__expr_8h.html" target="_top" xlink:title=" ">
<polygon fill="white" stroke="#666666" points="1106,-580 996,-580 996,-561 1106,-561 1106,-580"/>
<text text-anchor="middle" x="1051" y="-568" font-family="Helvetica,sans-Serif" font-size="10.00">util/simplify_expr.h</text>
</a>
</g>
</g>
<!-- Node1&#45;&gt;Node53 -->
<g id="edge69_Node000001_Node000053" class="edge">
<title>Node1&#45;&gt;Node53</title>
<g id="a_edge69_Node000001_Node000053"><a xlink:title=" ">
<path fill="none" stroke="#63b8ff" d="M881.41,-615.99C920.4,-605.76 972.53,-592.09 1008.65,-582.61"/>
<polygon fill="#63b8ff" stroke="#63b8ff" points="1009.61,-585.98 1018.39,-580.05 1007.83,-579.21 1009.61,-585.98"/>
</a>
</g>
</g>
<!-- Node3 -->
<g id="Node000003" class="node">
<title>Node3</title>
<g id="a_Node000003"><a xlink:href="mp__arith_8h.html" target="_top" xlink:title=" ">
<polygon fill="white" stroke="#666666" points="893,-349 805,-349 805,-330 893,-330 893,-349"/>
<text text-anchor="middle" x="849" y="-337" font-family="Helvetica,sans-Serif" font-size="10.00">util/mp_arith.h</text>
</a>
</g>
</g>
<!-- Node2&#45;&gt;Node3 -->
<g id="edge2_Node000002_Node000003" class="edge">
<title>Node2&#45;&gt;Node3</title>
<g id="a_edge2_Node000002_Node000003"><a xlink:title=" ">
<path fill="none" stroke="#63b8ff" d="M785.49,-505.72C782.19,-483.9 776.17,-426.01 797,-385 803.22,-372.75 814.43,-362.49 824.85,-354.92"/>
<polygon fill="#63b8ff" stroke="#63b8ff" points="826.98,-357.71 833.3,-349.21 823.05,-351.91 826.98,-357.71"/>
</a>
</g>
</g>
<!-- Node4 -->
<g id="Node000004" class="node">
<title>Node4</title>
<g id="a_Node000004"><a xlink:title=" ">
<polygon fill="#e0e0e0" stroke="#999999" points="990,-294 942,-294 942,-275 990,-275 990,-294"/>
<text text-anchor="middle" x="966" y="-282" font-family="Helvetica,sans-Serif" font-size="10.00">iosfwd</text>
</a>
</g>
</g>
<!-- Node3&#45;&gt;Node4 -->
<g id="edge3_Node000003_Node000004" class="edge">
<title>Node3&#45;&gt;Node4</title>
<g id="a_edge3_Node000003_Node000004"><a xlink:title=" ">
<path fill="none" stroke="#63b8ff" d="M867.8,-329.98C886.62,-321.46 915.82,-308.23 937.5,-298.41"/>
<polygon fill="#63b8ff" stroke="#63b8ff" points="939.2,-301.48 946.86,-294.17 936.31,-295.11 939.2,-301.48"/>
</a>
</g>
</g>
<!-- Node5 -->
<g id="Node000005" class="node">
<title>Node5</title>
<g id="a_Node000005"><a xlink:title=" ">
<polygon fill="#e0e0e0" stroke="#999999" points="832,-19 788,-19 788,0 832,0 832,-19"/>
<text text-anchor="middle" x="810" y="-7" font-family="Helvetica,sans-Serif" font-size="10.00">string</text>
</a>
</g>
</g>
<!-- Node3&#45;&gt;Node5 -->
<g id="edge4_Node000003_Node000005" class="edge">
<title>Node3&#45;&gt;Node5</title>
<g id="a_edge4_Node000003_Node000005"><a xlink:title=" ">
<path fill="none" stroke="#63b8ff" d="M862.5,-329.7C873.36,-321.78 887.94,-309.1 895,-294 919.33,-241.96 918.37,-220.35 903,-165 887.57,-109.44 846.2,-53.86 824.21,-27.04"/>
<polygon fill="#63b8ff" stroke="#63b8ff" points="826.66,-24.51 817.56,-19.09 821.29,-29.01 826.66,-24.51"/>
</a>
</g>
</g>
<!-- Node6 -->
<g id="Node000006" class="node">
<title>Node6</title>
<g id="a_Node000006"><a xlink:title=" ">
<polygon fill="#e0e0e0" stroke="#999999" points="886,-294 792,-294 792,-275 886,-275 886,-294"/>
<text text-anchor="middle" x="839" y="-282" font-family="Helvetica,sans-Serif" font-size="10.00">big&#45;int/bigint.hh</text>
</a>
</g>
</g>
<!-- Node3&#45;&gt;Node6 -->
<g id="edge5_Node000003_Node000006" class="edge">
<title>Node3&#45;&gt;Node6</title>
<g id="a_edge5_Node000003_Node000006"><a xlink:title=" ">
<path fill="none" stroke="#63b8ff" d="M847.35,-329.75C846.04,-322.8 844.16,-312.85 842.52,-304.13"/>
<polygon fill="#63b8ff" stroke="#63b8ff" points="845.91,-303.27 840.62,-294.09 839.04,-304.56 845.91,-303.27"/>
</a>
</g>
</g>
<!-- Node8&#45;&gt;Node3 -->
<g id="edge13_Node000008_Node000003" class="edge">
<title>Node8&#45;&gt;Node3</title>
<g id="a_edge13_Node000008_Node000003"><a xlink:title=" ">
<path fill="none" stroke="#63b8ff" d="M407.08,-505.87C421.73,-492.37 452.01,-466.23 482,-451 586.55,-397.91 721.05,-365.55 794.74,-350.54"/>
<polygon fill="#63b8ff" stroke="#63b8ff" points="795.61,-353.94 804.72,-348.54 794.23,-347.07 795.61,-353.94"/>
</a>
</g>
</g>
<!-- Node9 -->
<g id="Node000009" class="node">
<title>Node9</title>
<g id="a_Node000009"><a xlink:href="src_2util_2invariant_8h.html" target="_top" xlink:title=" ">
<polygon fill="white" stroke="#666666" points="159.5,-74 90.5,-74 90.5,-55 159.5,-55 159.5,-74"/>
<text text-anchor="middle" x="125" y="-62" font-family="Helvetica,sans-Serif" font-size="10.00">invariant.h</text>
</a>
</g>
</g>
<!-- Node8&#45;&gt;Node9 -->
<g id="edge8_Node000008_Node000009" class="edge">
<title>Node8&#45;&gt;Node9</title>
<g id="a_edge8_Node000008_Node000009"><a xlink:title=" ">
<path fill="none" stroke="#63b8ff" d="M349.99,-510.97C244.14,-501.85 0,-473.03 0,-401 0,-401 0,-401 0,-173.5 0,-125.32 53.83,-93.87 90.84,-77.93"/>
<polygon fill="#63b8ff" stroke="#63b8ff" points="92.39,-81.08 100.3,-74.03 89.72,-74.61 92.39,-81.08"/>
</a>
</g>
</g>
<!-- Node13 -->
<g id="Node000013" class="node">
<title>Node13</title>
<g id="a_Node000013"><a xlink:href="std__expr_8h.html" target="_top" xlink:title="API to expression classes.">
<polygon fill="white" stroke="#666666" points="431.5,-470 364.5,-470 364.5,-451 431.5,-451 431.5,-470"/>
<text text-anchor="middle" x="398" y="-458" font-family="Helvetica,sans-Serif" font-size="10.00">std_expr.h</text>
</a>
</g>
</g>
<!-- Node8&#45;&gt;Node13 -->
<g id="edge14_Node000008_Node000013" class="edge">
<title>Node8&#45;&gt;Node13</title>
<g id="a_edge14_Node000008_Node000013"><a xlink:title=" ">
<path fill="none" stroke="#63b8ff" d="M398,-505.75C398,-498.8 398,-488.85 398,-480.13"/>
<polygon fill="#63b8ff" stroke="#63b8ff" points="401.5,-480.09 398,-470.09 394.5,-480.09 401.5,-480.09"/>
</a>
</g>
</g>
<!-- Node44 -->
<g id="Node000044" class="node">
<title>Node44</title>
<g id="a_Node000044"><a xlink:title=" ">
<polygon fill="#e0e0e0" stroke="#999999" points="346,-470 302,-470 302,-451 346,-451 346,-470"/>
<text text-anchor="middle" x="324" y="-458" font-family="Helvetica,sans-Serif" font-size="10.00">limits</text>
</a>
</g>
</g>
<!-- Node8&#45;&gt;Node44 -->
<g id="edge47_Node000008_Node000044" class="edge">
<title>Node8&#45;&gt;Node44</title>
<g id="a_edge47_Node000008_Node000044"><a xlink:title=" ">
<path fill="none" stroke="#63b8ff" d="M386.11,-505.98C374.85,-497.92 357.71,-485.65 344.29,-476.03"/>
<polygon fill="#63b8ff" stroke="#63b8ff" points="346.27,-473.15 336.11,-470.17 342.2,-478.84 346.27,-473.15"/>
</a>
</g>
</g>
<!-- Node9&#45;&gt;Node5 -->
<g id="edge11_Node000009_Node000005" class="edge">
<title>Node9&#45;&gt;Node5</title>
<g id="a_edge11_Node000009_Node000005"><a xlink:title=" ">
<path fill="none" stroke="#63b8ff" d="M159.91,-60.8C278.24,-51.64 663.07,-21.87 777.57,-13.01"/>
<polygon fill="#63b8ff" stroke="#63b8ff" points="778.09,-16.48 787.79,-12.22 777.55,-9.5 778.09,-16.48"/>
</a>
</g>
</g>
<!-- Node10 -->
<g id="Node000010" class="node">
<title>Node10</title>
<g id="a_Node000010"><a xlink:title=" ">
<polygon fill="#e0e0e0" stroke="#999999" points="161.5,-19 112.5,-19 112.5,0 161.5,0 161.5,-19"/>
<text text-anchor="middle" x="137" y="-7" font-family="Helvetica,sans-Serif" font-size="10.00">cstdlib</text>
</a>
</g>
</g>
<!-- Node9&#45;&gt;Node10 -->
<g id="edge9_Node000009_Node000010" class="edge">
<title>Node9&#45;&gt;Node10</title>
<g id="a_edge9_Node000009_Node000010"><a xlink:title=" ">
<path fill="none" stroke="#63b8ff" d="M126.98,-54.75C128.57,-47.72 130.86,-37.62 132.85,-28.84"/>
<polygon fill="#63b8ff" stroke="#63b8ff" points="136.26,-29.62 135.06,-19.09 129.43,-28.07 136.26,-29.62"/>
</a>
</g>
</g>
<!-- Node11 -->
<g id="Node000011" class="node">
<title>Node11</title>
<g id="a_Node000011"><a xlink:title=" ">
<polygon fill="#e0e0e0" stroke="#999999" points="94,-19 38,-19 38,0 94,0 94,-19"/>
<text text-anchor="middle" x="66" y="-7" font-family="Helvetica,sans-Serif" font-size="10.00">sstream</text>
</a>
</g>
</g>
<!-- Node9&#45;&gt;Node11 -->
<g id="edge10_Node000009_Node000011" class="edge">
<title>Node9&#45;&gt;Node11</title>
<g id="a_edge10_Node000009_Node000011"><a xlink:title=" ">
<path fill="none" stroke="#63b8ff" d="M115.52,-54.98C106.8,-47.15 93.66,-35.34 83.1,-25.86"/>
<polygon fill="#63b8ff" stroke="#63b8ff" points="85.43,-23.25 75.65,-19.17 80.75,-28.46 85.43,-23.25"/>
</a>
</g>
</g>
<!-- Node12 -->
<g id="Node000012" class="node">
<title>Node12</title>
<g id="a_Node000012"><a xlink:title=" ">
<polygon fill="#e0e0e0" stroke="#999999" points="270.5,-19 201.5,-19 201.5,0 270.5,0 270.5,-19"/>
<text text-anchor="middle" x="236" y="-7" font-family="Helvetica,sans-Serif" font-size="10.00">type_traits</text>
</a>
</g>
</g>
<!-- Node9&#45;&gt;Node12 -->
<g id="edge12_Node000009_Node000012" class="edge">
<title>Node9&#45;&gt;Node12</title>
<g id="a_edge12_Node000009_Node000012"><a xlink:title=" ">
<path fill="none" stroke="#63b8ff" d="M142.83,-54.98C160.61,-46.5 188.15,-33.35 208.68,-23.54"/>
<polygon fill="#63b8ff" stroke="#63b8ff" points="210.33,-26.64 217.84,-19.17 207.31,-20.32 210.33,-26.64"/>
</a>
</g>
</g>
<!-- Node13&#45;&gt;Node9 -->
<g id="edge39_Node000013_Node000009" class="edge">
<title>Node13&#45;&gt;Node9</title>
<g id="a_edge39_Node000013_Node000009"><a xlink:title=" ">
<path fill="none" stroke="#63b8ff" d="M364.46,-452.06C275.09,-431.76 38,-374.69 38,-340.5 38,-340.5 38,-340.5 38,-173.5 38,-132.58 76.35,-98.39 102.12,-80.03"/>
<polygon fill="#63b8ff" stroke="#63b8ff" points="104.35,-82.75 110.63,-74.21 100.4,-76.97 104.35,-82.75"/>
</a>
</g>
</g>
<!-- Node14 -->
<g id="Node000014" class="node">
<title>Node14</title>
<g id="a_Node000014"><a xlink:href="expr__cast_8h.html" target="_top" xlink:title="Templated functions to cast to specific exprt&#45;derived classes.">
<polygon fill="white" stroke="#666666" points="302.5,-349 229.5,-349 229.5,-330 302.5,-330 302.5,-349"/>
<text text-anchor="middle" x="266" y="-337" font-family="Helvetica,sans-Serif" font-size="10.00">expr_cast.h</text>
</a>
</g>
</g>
<!-- Node13&#45;&gt;Node14 -->
<g id="edge15_Node000013_Node000014" class="edge">
<title>Node13&#45;&gt;Node14</title>
<g id="a_edge15_Node000013_Node000014"><a xlink:title=" ">
<path fill="none" stroke="#63b8ff" d="M388.51,-450.94C366.45,-431.06 311.47,-381.49 283.27,-356.07"/>
<polygon fill="#63b8ff" stroke="#63b8ff" points="285.53,-353.4 275.76,-349.3 280.85,-358.6 285.53,-353.4"/>
</a>
</g>
</g>
<!-- Node43 -->
<g id="Node000043" class="node">
<title>Node43</title>
<g id="a_Node000043"><a xlink:href="std__types_8h.html" target="_top" xlink:title="Pre&#45;defined types.">
<polygon fill="white" stroke="#666666" points="434.5,-409.5 361.5,-409.5 361.5,-390.5 434.5,-390.5 434.5,-409.5"/>
<text text-anchor="middle" x="398" y="-397.5" font-family="Helvetica,sans-Serif" font-size="10.00">std_types.h</text>
</a>
</g>
</g>
<!-- Node13&#45;&gt;Node43 -->
<g id="edge40_Node000013_Node000043" class="edge">
<title>Node13&#45;&gt;Node43</title>
<g id="a_edge40_Node000013_Node000043"><a xlink:title=" ">
<path fill="none" stroke="#63b8ff" d="M398,-450.87C398,-442.75 398,-430.31 398,-419.89"/>
<polygon fill="#63b8ff" stroke="#63b8ff" points="401.5,-419.67 398,-409.67 394.5,-419.67 401.5,-419.67"/>
</a>
</g>
</g>
<!-- Node14&#45;&gt;Node9 -->
<g id="edge19_Node000014_Node000009" class="edge">
<title>Node14&#45;&gt;Node9</title>
<g id="a_edge19_Node000014_Node000009"><a xlink:title=" ">
<path fill="none" stroke="#63b8ff" d="M229.98,-329.92C185.03,-316.82 114,-287.15 114,-230.5 114,-230.5 114,-230.5 114,-173.5 114,-142.03 118.68,-105.66 121.94,-84.18"/>
<polygon fill="#63b8ff" stroke="#63b8ff" points="125.42,-84.57 123.52,-74.15 118.5,-83.48 125.42,-84.57"/>
</a>
</g>
</g>
<!-- Node14&#45;&gt;Node12 -->
<g id="edge17_Node000014_Node000012" class="edge">
<title>Node14&#45;&gt;Node12</title>
<g id="a_edge17_Node000014_Node000012"><a xlink:title=" ">
<path fill="none" stroke="#63b8ff" d="M263.23,-329.77C255.8,-305.55 236,-235.35 236,-175.5 236,-175.5 236,-175.5 236,-118.5 236,-87.19 236,-50.77 236,-29.23"/>
<polygon fill="#63b8ff" stroke="#63b8ff" points="239.5,-29.18 236,-19.18 232.5,-29.18 239.5,-29.18"/>
</a>
</g>
</g>
<!-- Node15 -->
<g id="Node000015" class="node">
<title>Node15</title>
<g id="a_Node000015"><a xlink:title=" ">
<polygon fill="#e0e0e0" stroke="#999999" points="237.5,-294 180.5,-294 180.5,-275 237.5,-275 237.5,-294"/>
<text text-anchor="middle" x="209" y="-282" font-family="Helvetica,sans-Serif" font-size="10.00">typeinfo</text>
</a>
</g>
</g>
<!-- Node14&#45;&gt;Node15 -->
<g id="edge16_Node000014_Node000015" class="edge">
<title>Node14&#45;&gt;Node15</title>
<g id="a_edge16_Node000014_Node000015"><a xlink:title=" ">
<path fill="none" stroke="#63b8ff" d="M256.84,-329.98C248.5,-322.23 235.97,-310.58 225.82,-301.14"/>
<polygon fill="#63b8ff" stroke="#63b8ff" points="228.03,-298.42 218.32,-294.17 223.26,-303.54 228.03,-298.42"/>
</a>
</g>
</g>
<!-- Node16 -->
<g id="Node000016" class="node">
<title>Node16</title>
<g id="a_Node000016"><a xlink:title=" ">
<polygon fill="#e0e0e0" stroke="#999999" points="207.5,-239 142.5,-239 142.5,-220 207.5,-220 207.5,-239"/>
<text text-anchor="middle" x="175" y="-227" font-family="Helvetica,sans-Serif" font-size="10.00">functional</text>
</a>
</g>
</g>
<!-- Node14&#45;&gt;Node16 -->
<g id="edge18_Node000014_Node000016" class="edge">
<title>Node14&#45;&gt;Node16</title>
<g id="a_edge18_Node000014_Node000016"><a xlink:title=" ">
<path fill="none" stroke="#63b8ff" d="M229.33,-331.43C208.38,-325.31 183.8,-314.13 171,-294 162.49,-280.61 164.79,-262.26 168.44,-248.73"/>
<polygon fill="#63b8ff" stroke="#63b8ff" points="171.81,-249.69 171.49,-239.1 165.14,-247.58 171.81,-249.69"/>
</a>
</g>
</g>
<!-- Node17 -->
<g id="Node000017" class="node">
<title>Node17</title>
<g id="a_Node000017"><a xlink:href="expr_8h.html" target="_top" xlink:title=" ">
<polygon fill="white" stroke="#666666" points="356.5,-294 309.5,-294 309.5,-275 356.5,-275 356.5,-294"/>
<text text-anchor="middle" x="333" y="-282" font-family="Helvetica,sans-Serif" font-size="10.00">expr.h</text>
</a>
</g>
</g>
<!-- Node14&#45;&gt;Node17 -->
<g id="edge20_Node000014_Node000017" class="edge">
<title>Node14&#45;&gt;Node17</title>
<g id="a_edge20_Node000014_Node000017"><a xlink:title=" ">
<path fill="none" stroke="#63b8ff" d="M276.76,-329.98C286.77,-322.07 301.89,-310.11 313.93,-300.58"/>
<polygon fill="#63b8ff" stroke="#63b8ff" points="316.37,-303.12 322.04,-294.17 312.03,-297.63 316.37,-303.12"/>
</a>
</g>
</g>
<!-- Node17&#45;&gt;Node16 -->
<g id="edge38_Node000017_Node000016" class="edge">
<title>Node17&#45;&gt;Node16</title>
<g id="a_edge38_Node000017_Node000016"><a xlink:title=" ">
<path fill="none" stroke="#63b8ff" d="M309.35,-275.57C283.05,-266.74 240.31,-252.41 210.11,-242.28"/>
<polygon fill="#63b8ff" stroke="#63b8ff" points="210.98,-238.88 200.39,-239.02 208.76,-245.51 210.98,-238.88"/>
</a>
</g>
</g>
<!-- Node18 -->
<g id="Node000018" class="node">
<title>Node18</title>
<g id="a_Node000018"><a xlink:href="as__const_8h.html" target="_top" xlink:title=" ">
<polygon fill="white" stroke="#666666" points="474,-239 406,-239 406,-220 474,-220 474,-239"/>
<text text-anchor="middle" x="440" y="-227" font-family="Helvetica,sans-Serif" font-size="10.00">as_const.h</text>
</a>
</g>
</g>
<!-- Node17&#45;&gt;Node18 -->
<g id="edge21_Node000017_Node000018" class="edge">
<title>Node17&#45;&gt;Node18</title>
<g id="a_edge21_Node000017_Node000018"><a xlink:title=" ">
<path fill="none" stroke="#63b8ff" d="M350.19,-274.98C367.25,-266.54 393.63,-253.47 413.4,-243.68"/>
<polygon fill="#63b8ff" stroke="#63b8ff" points="415.09,-246.75 422.5,-239.17 411.98,-240.47 415.09,-246.75"/>
</a>
</g>
</g>
<!-- Node19 -->
<g id="Node000019" class="node">
<title>Node19</title>
<g id="a_Node000019"><a xlink:href="type_8h.html" target="_top" xlink:title="Defines typet, type_with_subtypet and type_with_subtypest.">
<polygon fill="white" stroke="#666666" points="387.5,-239 340.5,-239 340.5,-220 387.5,-220 387.5,-239"/>
<text text-anchor="middle" x="364" y="-227" font-family="Helvetica,sans-Serif" font-size="10.00">type.h</text>
</a>
</g>
</g>
<!-- Node17&#45;&gt;Node19 -->
<g id="edge22_Node000017_Node000019" class="edge">
<title>Node17&#45;&gt;Node19</title>
<g id="a_edge22_Node000017_Node000019"><a xlink:title=" ">
<path fill="none" stroke="#63b8ff" d="M338.12,-274.75C342.36,-267.49 348.53,-256.95 353.78,-247.98"/>
<polygon fill="#63b8ff" stroke="#63b8ff" points="356.95,-249.49 358.98,-239.09 350.91,-245.95 356.95,-249.49"/>
</a>
</g>
</g>
<!-- Node40 -->
<g id="Node000040" class="node">
<title>Node40</title>
<g id="a_Node000040"><a xlink:href="validation__mode_8h.html" target="_top" xlink:title=" ">
<polygon fill="white" stroke="#666666" points="460.5,-129 353.5,-129 353.5,-110 460.5,-110 460.5,-129"/>
<text text-anchor="middle" x="407" y="-117" font-family="Helvetica,sans-Serif" font-size="10.00">validation_mode.h</text>
</a>
</g>
</g>
<!-- Node17&#45;&gt;Node40 -->
<g id="edge37_Node000017_Node000040" class="edge">
<title>Node17&#45;&gt;Node40</title>
<g id="a_edge37_Node000017_Node000040"><a xlink:title=" ">
<path fill="none" stroke="#63b8ff" d="M325.11,-274.74C307.47,-254.06 268.26,-201.22 293,-165 304.69,-147.89 324.01,-137.36 343.46,-130.88"/>
<polygon fill="#63b8ff" stroke="#63b8ff" points="344.72,-134.15 353.3,-127.93 342.71,-127.45 344.72,-134.15"/>
</a>
</g>
</g>
<!-- Node41 -->
<g id="Node000041" class="node">
<title>Node41</title>
<g id="a_Node000041"><a xlink:href="validate__types_8h.html" target="_top" xlink:title=" ">
<polygon fill="white" stroke="#666666" points="400,-184 302,-184 302,-165 400,-165 400,-184"/>
<text text-anchor="middle" x="351" y="-172" font-family="Helvetica,sans-Serif" font-size="10.00">validate_types.h</text>
</a>
</g>
</g>
<!-- Node17&#45;&gt;Node41 -->
<g id="edge36_Node000017_Node000041" class="edge">
<title>Node17&#45;&gt;Node41</title>
<g id="a_edge36_Node000017_Node000041"><a xlink:title=" ">
<path fill="none" stroke="#63b8ff" d="M331.41,-274.75C329.46,-262.4 326.88,-239.2 331,-220 332.97,-210.8 337,-201.2 340.93,-193.29"/>
<polygon fill="#63b8ff" stroke="#63b8ff" points="344.09,-194.79 345.68,-184.32 337.91,-191.51 344.09,-194.79"/>
</a>
</g>
</g>
<!-- Node42 -->
<g id="Node000042" class="node">
<title>Node42</title>
<g id="a_Node000042"><a xlink:href="validate__expressions_8h.html" target="_top" xlink:title=" ">
<polygon fill="white" stroke="#666666" points="621.5,-239 492.5,-239 492.5,-220 621.5,-220 621.5,-239"/>
<text text-anchor="middle" x="557" y="-227" font-family="Helvetica,sans-Serif" font-size="10.00">validate_expressions.h</text>
</a>
</g>
</g>
<!-- Node17&#45;&gt;Node42 -->
<g id="edge35_Node000017_Node000042" class="edge">
<title>Node17&#45;&gt;Node42</title>
<g id="a_edge35_Node000017_Node000042"><a xlink:title=" ">
<path fill="none" stroke="#63b8ff" d="M356.55,-277.93C393.07,-269.29 464.04,-252.49 510.99,-241.39"/>
<polygon fill="#63b8ff" stroke="#63b8ff" points="511.98,-244.75 520.91,-239.04 510.37,-237.94 511.98,-244.75"/>
</a>
</g>
</g>
<!-- Node20 -->
<g id="Node000020" class="node">
<title>Node20</title>
<g id="a_Node000020"><a xlink:href="source__location_8h.html" target="_top" xlink:title=" ">
<polygon fill="white" stroke="#666666" points="894,-184 792,-184 792,-165 894,-165 894,-184"/>
<text text-anchor="middle" x="843" y="-172" font-family="Helvetica,sans-Serif" font-size="10.00">source_location.h</text>
</a>
</g>
</g>
<!-- Node19&#45;&gt;Node20 -->
<g id="edge23_Node000019_Node000020" class="edge">
<title>Node19&#45;&gt;Node20</title>
<g id="a_edge23_Node000019_Node000020"><a xlink:title=" ">
<path fill="none" stroke="#63b8ff" d="M387.7,-221.93C390.81,-221.21 393.97,-220.54 397,-220 433.92,-213.44 668.04,-191.54 781.51,-181.11"/>
<polygon fill="#63b8ff" stroke="#63b8ff" points="782.13,-184.57 791.77,-180.17 781.49,-177.6 782.13,-184.57"/>
</a>
</g>
</g>
<!-- Node38 -->
<g id="Node000038" class="node">
<title>Node38</title>
<g id="a_Node000038"><a xlink:href="validate_8h.html" target="_top" xlink:title=" ">
<polygon fill="#fff0f0" stroke="red" points="521.5,-184 456.5,-184 456.5,-165 521.5,-165 521.5,-184"/>
<text text-anchor="middle" x="489" y="-172" font-family="Helvetica,sans-Serif" font-size="10.00">validate.h</text>
</a>
</g>
</g>
<!-- Node19&#45;&gt;Node38 -->
<g id="edge30_Node000019_Node000038" class="edge">
<title>Node19&#45;&gt;Node38</title>
<g id="a_edge30_Node000019_Node000038"><a xlink:title=" ">
<path fill="none" stroke="#63b8ff" d="M384.08,-219.98C404.37,-211.38 435.96,-197.99 459.17,-188.15"/>
<polygon fill="#63b8ff" stroke="#63b8ff" points="460.71,-191.3 468.55,-184.17 457.98,-184.85 460.71,-191.3"/>
</a>
</g>
</g>
<!-- Node19&#45;&gt;Node40 -->
<g id="edge34_Node000019_Node000040" class="edge">
<title>Node19&#45;&gt;Node40</title>
<g id="a_edge34_Node000019_Node000040"><a xlink:title=" ">
<path fill="none" stroke="#63b8ff" d="M377.49,-219.75C388.29,-211.87 402.65,-199.21 409,-184 414.92,-169.83 413.81,-152.29 411.56,-139.24"/>
<polygon fill="#63b8ff" stroke="#63b8ff" points="414.92,-138.19 409.45,-129.12 408.07,-139.63 414.92,-138.19"/>
</a>
</g>
</g>
<!-- Node19&#45;&gt;Node41 -->
<g id="edge33_Node000019_Node000041" class="edge">
<title>Node19&#45;&gt;Node41</title>
<g id="a_edge33_Node000019_Node000041"><a xlink:title=" ">
<path fill="none" stroke="#63b8ff" d="M361.85,-219.75C360.13,-212.72 357.65,-202.62 355.5,-193.84"/>
<polygon fill="#63b8ff" stroke="#63b8ff" points="358.89,-192.97 353.11,-184.09 352.09,-194.63 358.89,-192.97"/>
</a>
</g>
</g>
<!-- Node20&#45;&gt;Node5 -->
<g id="edge29_Node000020_Node000005" class="edge">
<title>Node20&#45;&gt;Node5</title>
<g id="a_edge29_Node000020_Node000005"><a xlink:title=" ">
<path fill="none" stroke="#63b8ff" d="M841.23,-164.74C836.06,-139.2 820.92,-64.43 813.79,-29.23"/>
<polygon fill="#63b8ff" stroke="#63b8ff" points="817.2,-28.41 811.78,-19.31 810.34,-29.8 817.2,-28.41"/>
</a>
</g>
</g>
<!-- Node21 -->
<g id="Node000021" class="node">
<title>Node21</title>
<g id="a_Node000021"><a xlink:href="deprecate_8h.html" target="_top" xlink:title=" ">
<polygon fill="white" stroke="#666666" points="687,-129 613,-129 613,-110 687,-110 687,-129"/>
<text text-anchor="middle" x="650" y="-117" font-family="Helvetica,sans-Serif" font-size="10.00">deprecate.h</text>
</a>
</g>
</g>
<!-- Node20&#45;&gt;Node21 -->
<g id="edge24_Node000020_Node000021" class="edge">
<title>Node20&#45;&gt;Node21</title>
<g id="a_edge24_Node000020_Node000021"><a xlink:title=" ">
<path fill="none" stroke="#63b8ff" d="M811.99,-164.98C779.17,-155.97 727.2,-141.7 691.01,-131.76"/>
<polygon fill="#63b8ff" stroke="#63b8ff" points="691.82,-128.36 681.25,-129.08 689.97,-135.11 691.82,-128.36"/>
</a>
</g>
</g>
<!-- Node22 -->
<g id="Node000022" class="node">
<title>Node22</title>
<g id="a_Node000022"><a xlink:href="irep_8h.html" target="_top" xlink:title=" ">
<polygon fill="#fff0f0" stroke="red" points="793,-129 749,-129 749,-110 793,-110 793,-129"/>
<text text-anchor="middle" x="771" y="-117" font-family="Helvetica,sans-Serif" font-size="10.00">irep.h</text>
</a>
</g>
</g>
<!-- Node20&#45;&gt;Node22 -->
<g id="edge25_Node000020_Node000022" class="edge">
<title>Node20&#45;&gt;Node22</title>
<g id="a_edge25_Node000020_Node000022"><a xlink:title=" ">
<path fill="none" stroke="#63b8ff" d="M831.43,-164.98C820.58,-157 804.12,-144.88 791.12,-135.31"/>
<polygon fill="#63b8ff" stroke="#63b8ff" points="792.91,-132.28 782.78,-129.17 788.76,-137.92 792.91,-132.28"/>
</a>
</g>
</g>
<!-- Node37 -->
<g id="Node000037" class="node">
<title>Node37</title>
<g id="a_Node000037"><a xlink:title=" ">
<polygon fill="#e0e0e0" stroke="#999999" points="1046,-129 990,-129 990,-110 1046,-110 1046,-129"/>
<text text-anchor="middle" x="1018" y="-117" font-family="Helvetica,sans-Serif" font-size="10.00">optional</text>
</a>
</g>
</g>
<!-- Node20&#45;&gt;Node37 -->
<g id="edge28_Node000020_Node000037" class="edge">
<title>Node20&#45;&gt;Node37</title>
<g id="a_edge28_Node000020_Node000037"><a xlink:title=" ">
<path fill="none" stroke="#63b8ff" d="M871.12,-164.98C900.71,-156.02 947.47,-141.86 980.26,-131.93"/>
<polygon fill="#63b8ff" stroke="#63b8ff" points="981.4,-135.24 989.95,-128.99 979.37,-128.54 981.4,-135.24"/>
</a>
</g>
</g>
<!-- Node22&#45;&gt;Node5 -->
<g id="edge26_Node000022_Node000005" class="edge">
<title>Node22&#45;&gt;Node5</title>
<g id="a_edge26_Node000022_Node000005"><a xlink:title=" ">
<path fill="none" stroke="#63b8ff" d="M774.19,-109.66C780.57,-92.01 794.98,-52.09 803.45,-28.64"/>
<polygon fill="#63b8ff" stroke="#63b8ff" points="806.77,-29.75 806.87,-19.16 800.18,-27.38 806.77,-29.75"/>
</a>
</g>
</g>
<!-- Node22&#45;&gt;Node9 -->
<g id="edge27_Node000022_Node000009" class="edge">
<title>Node22&#45;&gt;Node9</title>
<g id="a_edge27_Node000022_Node000009"><a xlink:title=" ">
<path fill="none" stroke="#63b8ff" d="M748.71,-115.77C733.8,-113.99 713.74,-111.7 696,-110 500.42,-91.3 266.58,-74.96 170.06,-68.47"/>
<polygon fill="#63b8ff" stroke="#63b8ff" points="170.01,-64.96 159.8,-67.78 169.54,-71.95 170.01,-64.96"/>
</a>
</g>
</g>
<!-- Node38&#45;&gt;Node12 -->
<g id="edge31_Node000038_Node000012" class="edge">
<title>Node38&#45;&gt;Node12</title>
<g id="a_edge31_Node000038_Node000012"><a xlink:title=" ">
<path fill="none" stroke="#63b8ff" d="M488.53,-165C487.36,-151.67 483.28,-125.76 469,-110 418.88,-54.69 332.84,-28.99 280.51,-17.94"/>
<polygon fill="#63b8ff" stroke="#63b8ff" points="281.01,-14.47 270.51,-15.93 279.62,-21.33 281.01,-14.47"/>
</a>
</g>
</g>
<!-- Node38&#45;&gt;Node40 -->
<g id="edge32_Node000038_Node000040" class="edge">
<title>Node38&#45;&gt;Node40</title>
<g id="a_edge32_Node000038_Node000040"><a xlink:title=" ">
<path fill="none" stroke="#63b8ff" d="M475.83,-164.98C463.23,-156.84 444,-144.41 429.06,-134.76"/>
<polygon fill="#63b8ff" stroke="#63b8ff" points="430.71,-131.66 420.41,-129.17 426.91,-137.54 430.71,-131.66"/>
</a>
</g>
</g>
<!-- Node43&#45;&gt;Node3 -->
<g id="edge44_Node000043_Node000003" class="edge">
<title>Node43&#45;&gt;Node3</title>
<g id="a_edge44_Node000043_Node000003"><a xlink:title=" ">
<path fill="none" stroke="#63b8ff" d="M425.87,-390.5C433.33,-388.46 441.43,-386.45 449,-385 571.48,-361.53 717.62,-349.15 794.88,-343.81"/>
<polygon fill="#63b8ff" stroke="#63b8ff" points="795.12,-347.3 804.86,-343.14 794.65,-340.32 795.12,-347.3"/>
</a>
</g>
</g>
<!-- Node43&#45;&gt;Node9 -->
<g id="edge43_Node000043_Node000009" class="edge">
<title>Node43&#45;&gt;Node9</title>
<g id="a_edge43_Node000043_Node000009"><a xlink:title=" ">
<path fill="none" stroke="#63b8ff" d="M361.38,-394.02C276.98,-381.51 76,-345.44 76,-285.5 76,-285.5 76,-285.5 76,-173.5 76,-138.68 97.38,-102.74 111.9,-82.35"/>
<polygon fill="#63b8ff" stroke="#63b8ff" points="114.84,-84.25 117.98,-74.13 109.21,-80.09 114.84,-84.25"/>
</a>
</g>
</g>
<!-- Node43&#45;&gt;Node14 -->
<g id="edge42_Node000043_Node000014" class="edge">
<title>Node43&#45;&gt;Node14</title>
<g id="a_edge42_Node000043_Node000014"><a xlink:title=" ">
<path fill="none" stroke="#63b8ff" d="M378.81,-390.49C356.61,-380.66 319.88,-364.38 294.38,-353.08"/>
<polygon fill="#63b8ff" stroke="#63b8ff" points="295.78,-349.87 285.22,-349.02 292.94,-356.27 295.78,-349.87"/>
</a>
</g>
</g>
<!-- Node43&#45;&gt;Node17 -->
<g id="edge41_Node000043_Node000017" class="edge">
<title>Node43&#45;&gt;Node17</title>
<g id="a_edge41_Node000043_Node000017"><a xlink:title=" ">
<path fill="none" stroke="#63b8ff" d="M393.11,-390.47C382.48,-371.9 357.06,-327.51 342.92,-302.82"/>
<polygon fill="#63b8ff" stroke="#63b8ff" points="345.95,-301.07 337.94,-294.13 339.87,-304.55 345.95,-301.07"/>
</a>
</g>
</g>
<!-- Node43&#45;&gt;Node38 -->
<g id="edge45_Node000043_Node000038" class="edge">
<title>Node43&#45;&gt;Node38</title>
<g id="a_edge45_Node000043_Node000038"><a xlink:title=" ">
<path fill="none" stroke="#63b8ff" d="M423.68,-390.46C474.25,-372.09 585.64,-323.47 630,-239 651.44,-198.17 580.62,-183.54 531.7,-178.34"/>
<polygon fill="#63b8ff" stroke="#63b8ff" points="531.93,-174.84 521.64,-177.36 531.25,-181.81 531.93,-174.84"/>
</a>
</g>
</g>
<!-- Node30 -->
<g id="Node000030" class="node">
<title>Node30</title>
<g id="a_Node000030"><a xlink:title=" ">
<polygon fill="#e0e0e0" stroke="#999999" points="659.5,-349 566.5,-349 566.5,-330 659.5,-330 659.5,-349"/>
<text text-anchor="middle" x="613" y="-337" font-family="Helvetica,sans-Serif" font-size="10.00">unordered_map</text>
</a>
</g>
</g>
<!-- Node43&#45;&gt;Node30 -->
<g id="edge46_Node000043_Node000030" class="edge">
<title>Node43&#45;&gt;Node30</title>
<g id="a_edge46_Node000043_Node000030"><a xlink:title=" ">
<path fill="none" stroke="#63b8ff" d="M429.01,-390.47C435.61,-388.66 442.53,-386.76 449,-385 490.78,-373.6 538.58,-360.64 571.75,-351.66"/>
<polygon fill="#63b8ff" stroke="#63b8ff" points="572.81,-354.99 581.55,-349 570.99,-348.24 572.81,-354.99"/>
</a>
</g>
</g>
<!-- Node45&#45;&gt;Node21 -->
<g id="edge49_Node000045_Node000021" class="edge">
<title>Node45&#45;&gt;Node21</title>
<g id="a_edge49_Node000045_Node000021"><a xlink:title=" ">
<path fill="none" stroke="#63b8ff" d="M661.31,-560.78C669.83,-542.73 688,-499.73 688,-461.5 688,-461.5 688,-461.5 688,-283.5 688,-231.16 639.58,-234.27 625,-184 620.33,-167.88 628.48,-150.17 636.69,-137.55"/>
<polygon fill="#63b8ff" stroke="#63b8ff" points="639.57,-139.54 642.5,-129.36 633.86,-135.49 639.57,-139.54"/>
</a>
</g>
</g>
<!-- Node46 -->
<g id="Node000046" class="node">
<title>Node46</title>
<g id="a_Node000046"><a xlink:href="pointer__expr_8h.html" target="_top" xlink:title="API to expression classes for Pointers.">
<polygon fill="white" stroke="#666666" points="585,-525 499,-525 499,-506 585,-506 585,-525"/>
<text text-anchor="middle" x="542" y="-513" font-family="Helvetica,sans-Serif" font-size="10.00">pointer_expr.h</text>
</a>
</g>
</g>
<!-- Node45&#45;&gt;Node46 -->
<g id="edge50_Node000045_Node000046" class="edge">
<title>Node45&#45;&gt;Node46</title>
<g id="a_edge50_Node000045_Node000046"><a xlink:title=" ">
<path fill="none" stroke="#63b8ff" d="M638.52,-560.98C620.02,-552.46 591.32,-539.23 570.02,-529.41"/>
<polygon fill="#63b8ff" stroke="#63b8ff" points="571.36,-526.18 560.81,-525.17 568.43,-532.53 571.36,-526.18"/>
</a>
</g>
</g>
<!-- Node46&#45;&gt;Node13 -->
<g id="edge53_Node000046_Node000013" class="edge">
<title>Node46&#45;&gt;Node13</title>
<g id="a_edge53_Node000046_Node000013"><a xlink:title=" ">
<path fill="none" stroke="#63b8ff" d="M518.86,-505.98C495.18,-497.27 458.13,-483.63 431.29,-473.75"/>
<polygon fill="#63b8ff" stroke="#63b8ff" points="432.15,-470.34 421.56,-470.17 429.73,-476.91 432.15,-470.34"/>
</a>
</g>
</g>
<!-- Node47 -->
<g id="Node000047" class="node">
<title>Node47</title>
<g id="a_Node000047"><a xlink:href="bitvector__types_8h.html" target="_top" xlink:title="Pre&#45;defined bitvector types.">
<polygon fill="white" stroke="#666666" points="592.5,-470 491.5,-470 491.5,-451 592.5,-451 592.5,-470"/>
<text text-anchor="middle" x="542" y="-458" font-family="Helvetica,sans-Serif" font-size="10.00">bitvector_types.h</text>
</a>
</g>
</g>
<!-- Node46&#45;&gt;Node47 -->
<g id="edge51_Node000046_Node000047" class="edge">
<title>Node46&#45;&gt;Node47</title>
<g id="a_edge51_Node000046_Node000047"><a xlink:title=" ">
<path fill="none" stroke="#63b8ff" d="M542,-505.75C542,-498.8 542,-488.85 542,-480.13"/>
<polygon fill="#63b8ff" stroke="#63b8ff" points="545.5,-480.09 542,-470.09 538.5,-480.09 545.5,-480.09"/>
</a>
</g>
</g>
<!-- Node47&#45;&gt;Node43 -->
<g id="edge52_Node000047_Node000043" class="edge">
<title>Node47&#45;&gt;Node43</title>
<g id="a_edge52_Node000047_Node000043"><a xlink:title=" ">
<path fill="none" stroke="#63b8ff" d="M521.06,-450.99C496.64,-441.07 456.07,-424.59 428.23,-413.28"/>
<polygon fill="#63b8ff" stroke="#63b8ff" points="429.55,-410.04 418.96,-409.52 426.91,-416.52 429.55,-410.04"/>
</a>
</g>
</g>
<!-- Node48&#45;&gt;Node22 -->
<g id="edge59_Node000048_Node000022" class="edge">
<title>Node48&#45;&gt;Node22</title>
<g id="a_edge59_Node000048_Node000022"><a xlink:title=" ">
<path fill="none" stroke="#63b8ff" d="M1075.69,-450.81C1070.38,-441.96 1062.16,-427.77 1056,-415 999.43,-297.66 1011.3,-237.39 903,-165 872.34,-144.5 831.36,-132.63 803.24,-126.39"/>
<polygon fill="#63b8ff" stroke="#63b8ff" points="803.65,-122.9 793.14,-124.26 802.2,-129.75 803.65,-122.9"/>
</a>
</g>
</g>
<!-- Node48&#45;&gt;Node37 -->
<g id="edge61_Node000048_Node000037" class="edge">
<title>Node48&#45;&gt;Node37</title>
<g id="a_edge61_Node000048_Node000037"><a xlink:title=" ">
<path fill="none" stroke="#63b8ff" d="M1118.27,-454.47C1144.18,-449.04 1177.6,-437.86 1198,-415 1220.75,-389.5 1217,-374.67 1217,-340.5 1217,-340.5 1217,-340.5 1217,-228.5 1217,-156.15 1114.15,-132.01 1056.33,-124.15"/>
<polygon fill="#63b8ff" stroke="#63b8ff" points="1056.45,-120.64 1046.09,-122.87 1055.58,-127.59 1056.45,-120.64"/>
</a>
</g>
</g>
<!-- Node49 -->
<g id="Node000049" class="node">
<title>Node49</title>
<g id="a_Node000049"><a xlink:href="ieee__float_8h.html" target="_top" xlink:title=" ">
<polygon fill="white" stroke="#666666" points="1189,-409.5 1115,-409.5 1115,-390.5 1189,-390.5 1189,-409.5"/>
<text text-anchor="middle" x="1152" y="-397.5" font-family="Helvetica,sans-Serif" font-size="10.00">ieee_float.h</text>
</a>
</g>
</g>
<!-- Node48&#45;&gt;Node49 -->
<g id="edge55_Node000048_Node000049" class="edge">
<title>Node48&#45;&gt;Node49</title>
<g id="a_edge55_Node000048_Node000049"><a xlink:title=" ">
<path fill="none" stroke="#63b8ff" d="M1091.48,-450.87C1102.49,-441.8 1120.04,-427.34 1133.41,-416.32"/>
<polygon fill="#63b8ff" stroke="#63b8ff" points="1135.99,-418.73 1141.48,-409.67 1131.54,-413.33 1135.99,-418.73"/>
</a>
</g>
</g>
<!-- Node29 -->
<g id="Node000029" class="node">
<title>Node29</title>
<g id="a_Node000029"><a xlink:title=" ">
<polygon fill="#e0e0e0" stroke="#999999" points="1097,-409.5 1065,-409.5 1065,-390.5 1097,-390.5 1097,-409.5"/>
<text text-anchor="middle" x="1081" y="-397.5" font-family="Helvetica,sans-Serif" font-size="10.00">list</text>
</a>
</g>
</g>
<!-- Node48&#45;&gt;Node29 -->
<g id="edge60_Node000048_Node000029" class="edge">
<title>Node48&#45;&gt;Node29</title>
<g id="a_edge60_Node000048_Node000029"><a xlink:title=" ">
<path fill="none" stroke="#63b8ff" d="M1081,-450.87C1081,-442.75 1081,-430.31 1081,-419.89"/>
<polygon fill="#63b8ff" stroke="#63b8ff" points="1084.5,-419.67 1081,-409.67 1077.5,-419.67 1084.5,-419.67"/>
</a>
</g>
</g>
<!-- Node49&#45;&gt;Node3 -->
<g id="edge57_Node000049_Node000003" class="edge">
<title>Node49&#45;&gt;Node3</title>
<g id="a_edge57_Node000049_Node000003"><a xlink:title=" ">
<path fill="none" stroke="#63b8ff" d="M1125.88,-390.44C1119.43,-388.49 1112.5,-386.54 1106,-385 1036.82,-368.55 955.81,-355.54 903.52,-347.93"/>
<polygon fill="#63b8ff" stroke="#63b8ff" points="903.85,-344.45 893.45,-346.49 902.85,-351.38 903.85,-344.45"/>
</a>
</g>
</g>
<!-- Node49&#45;&gt;Node4 -->
<g id="edge56_Node000049_Node000004" class="edge">
<title>Node49&#45;&gt;Node4</title>
<g id="a_edge56_Node000049_Node000004"><a xlink:title=" ">
<path fill="none" stroke="#63b8ff" d="M1138.02,-390.47C1106.11,-371 1027.66,-323.13 988.71,-299.36"/>
<polygon fill="#63b8ff" stroke="#63b8ff" points="990.5,-296.35 980.14,-294.13 986.86,-302.33 990.5,-296.35"/>
</a>
</g>
</g>
<!-- Node50 -->
<g id="Node000050" class="node">
<title>Node50</title>
<g id="a_Node000050"><a xlink:href="format__spec_8h.html" target="_top" xlink:title=" ">
<polygon fill="white" stroke="#666666" points="1189,-349 1103,-349 1103,-330 1189,-330 1189,-349"/>
<text text-anchor="middle" x="1146" y="-337" font-family="Helvetica,sans-Serif" font-size="10.00">format_spec.h</text>
</a>
</g>
</g>
<!-- Node49&#45;&gt;Node50 -->
<g id="edge58_Node000049_Node000050" class="edge">
<title>Node49&#45;&gt;Node50</title>
<g id="a_edge58_Node000049_Node000050"><a xlink:title=" ">
<path fill="none" stroke="#63b8ff" d="M1151.11,-390.37C1150.28,-382.25 1149.01,-369.81 1147.94,-359.39"/>
<polygon fill="#63b8ff" stroke="#63b8ff" points="1151.39,-358.76 1146.89,-349.17 1144.43,-359.47 1151.39,-358.76"/>
</a>
</g>
</g>
<!-- Node51&#45;&gt;Node9 -->
<g id="edge63_Node000051_Node000009" class="edge">
<title>Node51&#45;&gt;Node9</title>
<g id="a_edge63_Node000051_Node000009"><a xlink:title=" ">
<path fill="none" stroke="#63b8ff" d="M660.7,-164.99C621.05,-151.42 539.76,-124.88 469,-110 363,-87.71 236.12,-74.77 170.04,-69.05"/>
<polygon fill="#63b8ff" stroke="#63b8ff" points="170.23,-65.55 159.97,-68.19 169.64,-72.53 170.23,-65.55"/>
</a>
</g>
</g>
<!-- Node51&#45;&gt;Node22 -->
<g id="edge64_Node000051_Node000022" class="edge">
<title>Node51&#45;&gt;Node22</title>
<g id="a_edge64_Node000051_Node000022"><a xlink:title=" ">
<path fill="none" stroke="#63b8ff" d="M698.82,-164.98C712.15,-156.77 732.58,-144.18 748.31,-134.49"/>
<polygon fill="#63b8ff" stroke="#63b8ff" points="750.25,-137.4 756.93,-129.17 746.58,-131.44 750.25,-137.4"/>
</a>
</g>
</g>
<!-- Node52&#45;&gt;Node3 -->
<g id="edge67_Node000052_Node000003" class="edge">
<title>Node52&#45;&gt;Node3</title>
<g id="a_edge67_Node000052_Node000003"><a xlink:title=" ">
<path fill="none" stroke="#63b8ff" d="M855.82,-384.84C854.63,-377.13 853.15,-367.49 851.87,-359.17"/>
<polygon fill="#63b8ff" stroke="#63b8ff" points="855.33,-358.62 850.35,-349.27 848.41,-359.68 855.33,-358.62"/>
</a>
</g>
</g>
<!-- Node52&#45;&gt;Node22 -->
<g id="edge66_Node000052_Node000022" class="edge">
<title>Node52&#45;&gt;Node22</title>
<g id="a_edge66_Node000052_Node000022"><a xlink:title=" ">
<path fill="none" stroke="#63b8ff" d="M834.76,-384.9C806.93,-366.03 764,-329.76 764,-285.5 764,-285.5 764,-285.5 764,-228.5 764,-197.12 766.98,-160.73 769.05,-139.21"/>
<polygon fill="#63b8ff" stroke="#63b8ff" points="772.54,-139.47 770.06,-129.17 765.58,-138.77 772.54,-139.47"/>
</a>
</g>
</g>
<!-- Node52&#45;&gt;Node37 -->
<g id="edge68_Node000052_Node000037" class="edge">
<title>Node52&#45;&gt;Node37</title>
<g id="a_edge68_Node000052_Node000037"><a xlink:title=" ">
<path fill="none" stroke="#63b8ff" d="M909.51,-385.79C956.28,-370.32 1018,-339.65 1018,-285.5 1018,-285.5 1018,-285.5 1018,-228.5 1018,-197.19 1018,-160.77 1018,-139.23"/>
<polygon fill="#63b8ff" stroke="#63b8ff" points="1021.5,-139.18 1018,-129.18 1014.5,-139.18 1021.5,-139.18"/>
</a>
</g>
</g>
</g>
</svg>
