<?xml version="1.0" encoding="UTF-8" standalone="no"?>
<!DOCTYPE svg PUBLIC "-//W3C//DTD SVG 1.1//EN"
 "http://www.w3.org/Graphics/SVG/1.1/DTD/svg11.dtd">
<!-- Generated by graphviz version 2.43.0 (0)
 -->
<!-- Title: /home/runner/work/cbmc/cbmc/src/util/parser.h Pages: 1 -->
<svg width="1040pt" height="588pt"
 viewBox="0.00 0.00 1039.50 588.00" xmlns="http://www.w3.org/2000/svg" xmlns:xlink="http://www.w3.org/1999/xlink">
<g id="graph0" class="graph" transform="scale(1 1) rotate(0) translate(4 584)">
<title>/home/runner/work/cbmc/cbmc/src/util/parser.h</title>
<!-- Node1 -->
<g id="Node000001" class="node">
<title>Node1</title>
<g id="a_Node000001"><a xlink:title="Parser utilities.">
<polygon fill="#999999" stroke="#666666" points="323,-580 185,-580 185,-550 323,-550 323,-580"/>
<text text-anchor="start" x="193" y="-568" font-family="Helvetica,sans-Serif" font-size="10.00">/home/runner/work/cbmc</text>
<text text-anchor="middle" x="254" y="-557" font-family="Helvetica,sans-Serif" font-size="10.00">/cbmc/src/util/parser.h</text>
</a>
</g>
</g>
<!-- Node2 -->
<g id="Node000002" class="node">
<title>Node2</title>
<g id="a_Node000002"><a xlink:href="expr_8h.html" target="_top" xlink:title=" ">
<polygon fill="white" stroke="#666666" points="353.5,-514 306.5,-514 306.5,-495 353.5,-495 353.5,-514"/>
<text text-anchor="middle" x="330" y="-502" font-family="Helvetica,sans-Serif" font-size="10.00">expr.h</text>
</a>
</g>
</g>
<!-- Node1&#45;&gt;Node2 -->
<g id="edge1_Node000001_Node000002" class="edge">
<title>Node1&#45;&gt;Node2</title>
<g id="a_edge1_Node000001_Node000002"><a xlink:title=" ">
<path fill="none" stroke="#63b8ff" d="M272.4,-549.84C283.88,-541 298.65,-529.63 310.36,-520.62"/>
<polygon fill="#63b8ff" stroke="#63b8ff" points="312.82,-523.14 318.61,-514.27 308.55,-517.59 312.82,-523.14"/>
</a>
</g>
</g>
<!-- Node8 -->
<g id="Node000008" class="node">
<title>Node8</title>
<g id="a_Node000008"><a xlink:title=" ">
<polygon fill="#e0e0e0" stroke="#999999" points="270,-19 226,-19 226,0 270,0 270,-19"/>
<text text-anchor="middle" x="248" y="-7" font-family="Helvetica,sans-Serif" font-size="10.00">string</text>
</a>
</g>
</g>
<!-- Node1&#45;&gt;Node8 -->
<g id="edge51_Node000001_Node000008" class="edge">
<title>Node1&#45;&gt;Node8</title>
<g id="a_edge51_Node000001_Node000008"><a xlink:title=" ">
<path fill="none" stroke="#63b8ff" d="M184.93,-561.78C109.71,-555.24 0,-531.76 0,-450.5 0,-450.5 0,-450.5 0,-118.5 0,-25.34 148.94,-11.71 215.97,-10.29"/>
<polygon fill="#63b8ff" stroke="#63b8ff" points="216.04,-13.79 225.99,-10.16 215.95,-6.79 216.04,-13.79"/>
</a>
</g>
</g>
<!-- Node9 -->
<g id="Node000009" class="node">
<title>Node9</title>
<g id="a_Node000009"><a xlink:title=" ">
<polygon fill="#e0e0e0" stroke="#999999" points="244.5,-184 197.5,-184 197.5,-165 244.5,-165 244.5,-184"/>
<text text-anchor="middle" x="221" y="-172" font-family="Helvetica,sans-Serif" font-size="10.00">vector</text>
</a>
</g>
</g>
<!-- Node1&#45;&gt;Node9 -->
<g id="edge52_Node000001_Node000009" class="edge">
<title>Node1&#45;&gt;Node9</title>
<g id="a_edge52_Node000001_Node000009"><a xlink:title=" ">
<path fill="none" stroke="#63b8ff" d="M255.6,-549.74C259.99,-507.46 270.84,-379.26 254,-275 249.25,-245.59 237.08,-213.11 228.93,-193.51"/>
<polygon fill="#63b8ff" stroke="#63b8ff" points="232.03,-191.87 224.88,-184.05 225.59,-194.62 232.03,-191.87"/>
</a>
</g>
</g>
<!-- Node16 -->
<g id="Node000016" class="node">
<title>Node16</title>
<g id="a_Node000016"><a xlink:title=" ">
<polygon fill="#e0e0e0" stroke="#999999" points="162,-74 114,-74 114,-55 162,-55 162,-74"/>
<text text-anchor="middle" x="138" y="-62" font-family="Helvetica,sans-Serif" font-size="10.00">iosfwd</text>
</a>
</g>
</g>
<!-- Node1&#45;&gt;Node16 -->
<g id="edge49_Node000001_Node000016" class="edge">
<title>Node1&#45;&gt;Node16</title>
<g id="a_edge49_Node000001_Node000016"><a xlink:title=" ">
<path fill="none" stroke="#63b8ff" d="M184.76,-556.53C121.59,-545.41 38,-517.96 38,-450.5 38,-450.5 38,-450.5 38,-228.5 38,-166.56 91.12,-108.32 119.93,-81.29"/>
<polygon fill="#63b8ff" stroke="#63b8ff" points="122.65,-83.55 127.67,-74.23 117.93,-78.38 122.65,-83.55"/>
</a>
</g>
</g>
<!-- Node36 -->
<g id="Node000036" class="node">
<title>Node36</title>
<g id="a_Node000036"><a xlink:href="src_2util_2message_8h.html" target="_top" xlink:title=" ">
<polygon fill="white" stroke="#666666" points="208,-349 138,-349 138,-330 208,-330 208,-349"/>
<text text-anchor="middle" x="173" y="-337" font-family="Helvetica,sans-Serif" font-size="10.00">message.h</text>
</a>
</g>
</g>
<!-- Node1&#45;&gt;Node36 -->
<g id="edge41_Node000001_Node000036" class="edge">
<title>Node1&#45;&gt;Node36</title>
<g id="a_edge41_Node000001_Node000036"><a xlink:title=" ">
<path fill="none" stroke="#63b8ff" d="M248.81,-549.68C234.65,-510.6 195.34,-402.15 179.62,-358.78"/>
<polygon fill="#63b8ff" stroke="#63b8ff" points="182.86,-357.44 176.16,-349.23 176.28,-359.83 182.86,-357.44"/>
</a>
</g>
</g>
<!-- Node37 -->
<g id="Node000037" class="node">
<title>Node37</title>
<g id="a_Node000037"><a xlink:title=" ">
<polygon fill="#e0e0e0" stroke="#999999" points="440,-514 372,-514 372,-495 440,-495 440,-514"/>
<text text-anchor="middle" x="406" y="-502" font-family="Helvetica,sans-Serif" font-size="10.00">filesystem</text>
</a>
</g>
</g>
<!-- Node1&#45;&gt;Node37 -->
<g id="edge48_Node000001_Node000037" class="edge">
<title>Node1&#45;&gt;Node37</title>
<g id="a_edge48_Node000001_Node000037"><a xlink:title=" ">
<path fill="none" stroke="#63b8ff" d="M290.41,-549.99C315.88,-540.18 349.59,-527.21 374.03,-517.81"/>
<polygon fill="#63b8ff" stroke="#63b8ff" points="375.48,-521 383.55,-514.14 372.96,-514.46 375.48,-521"/>
</a>
</g>
</g>
<!-- Node38 -->
<g id="Node000038" class="node">
<title>Node38</title>
<g id="a_Node000038"><a xlink:title=" ">
<polygon fill="#e0e0e0" stroke="#999999" points="502,-514 458,-514 458,-495 502,-495 502,-514"/>
<text text-anchor="middle" x="480" y="-502" font-family="Helvetica,sans-Serif" font-size="10.00">limits</text>
</a>
</g>
</g>
<!-- Node1&#45;&gt;Node38 -->
<g id="edge50_Node000001_Node000038" class="edge">
<title>Node1&#45;&gt;Node38</title>
<g id="a_edge50_Node000001_Node000038"><a xlink:title=" ">
<path fill="none" stroke="#63b8ff" d="M309.96,-549.91C346.69,-540.61 396.02,-527.99 448.22,-514.18"/>
<polygon fill="#63b8ff" stroke="#63b8ff" points="449.23,-517.53 458,-511.58 447.43,-510.76 449.23,-517.53"/>
</a>
</g>
</g>
<!-- Node3 -->
<g id="Node000003" class="node">
<title>Node3</title>
<g id="a_Node000003"><a xlink:href="as__const_8h.html" target="_top" xlink:title=" ">
<polygon fill="white" stroke="#666666" points="494,-129 426,-129 426,-110 494,-110 494,-129"/>
<text text-anchor="middle" x="460" y="-117" font-family="Helvetica,sans-Serif" font-size="10.00">as_const.h</text>
</a>
</g>
</g>
<!-- Node2&#45;&gt;Node3 -->
<g id="edge2_Node000002_Node000003" class="edge">
<title>Node2&#45;&gt;Node3</title>
<g id="a_edge2_Node000002_Node000003"><a xlink:title=" ">
<path fill="none" stroke="#63b8ff" d="M353.57,-497.35C399.08,-485.44 494.73,-460.3 496,-459 523.82,-430.65 539,-325.22 539,-285.5 539,-285.5 539,-285.5 539,-228.5 539,-188.78 503.75,-153.93 480.34,-135.17"/>
<polygon fill="#63b8ff" stroke="#63b8ff" points="482.4,-132.34 472.34,-129.01 478.13,-137.89 482.4,-132.34"/>
</a>
</g>
</g>
<!-- Node4 -->
<g id="Node000004" class="node">
<title>Node4</title>
<g id="a_Node000004"><a xlink:href="type_8h.html" target="_top" xlink:title="Defines typet, type_with_subtypet and type_with_subtypest.">
<polygon fill="white" stroke="#666666" points="693.5,-459 646.5,-459 646.5,-440 693.5,-440 693.5,-459"/>
<text text-anchor="middle" x="670" y="-447" font-family="Helvetica,sans-Serif" font-size="10.00">type.h</text>
</a>
</g>
</g>
<!-- Node2&#45;&gt;Node4 -->
<g id="edge3_Node000002_Node000004" class="edge">
<title>Node2&#45;&gt;Node4</title>
<g id="a_edge3_Node000002_Node000004"><a xlink:title=" ">
<path fill="none" stroke="#63b8ff" d="M353.72,-497.06C356.83,-496.32 359.98,-495.61 363,-495 461.47,-475.24 579.38,-460.66 636.16,-454.19"/>
<polygon fill="#63b8ff" stroke="#63b8ff" points="636.81,-457.64 646.36,-453.04 636.03,-450.68 636.81,-457.64"/>
</a>
</g>
</g>
<!-- Node32 -->
<g id="Node000032" class="node">
<title>Node32</title>
<g id="a_Node000032"><a xlink:href="validation__mode_8h.html" target="_top" xlink:title=" ">
<polygon fill="white" stroke="#666666" points="1031.5,-349 924.5,-349 924.5,-330 1031.5,-330 1031.5,-349"/>
<text text-anchor="middle" x="978" y="-337" font-family="Helvetica,sans-Serif" font-size="10.00">validation_mode.h</text>
</a>
</g>
</g>
<!-- Node2&#45;&gt;Node32 -->
<g id="edge39_Node000002_Node000032" class="edge">
<title>Node2&#45;&gt;Node32</title>
<g id="a_edge39_Node000002_Node000032"><a xlink:title=" ">
<path fill="none" stroke="#63b8ff" d="M353.7,-496.95C356.81,-496.22 359.97,-495.55 363,-495 601.21,-451.95 685.04,-515.3 900,-404 924.07,-391.54 947.64,-370.84 962.45,-356.47"/>
<polygon fill="#63b8ff" stroke="#63b8ff" points="965.11,-358.77 969.73,-349.24 960.17,-353.8 965.11,-358.77"/>
</a>
</g>
</g>
<!-- Node33 -->
<g id="Node000033" class="node">
<title>Node33</title>
<g id="a_Node000033"><a xlink:href="validate__types_8h.html" target="_top" xlink:title=" ">
<polygon fill="white" stroke="#666666" points="642,-404 544,-404 544,-385 642,-385 642,-404"/>
<text text-anchor="middle" x="593" y="-392" font-family="Helvetica,sans-Serif" font-size="10.00">validate_types.h</text>
</a>
</g>
</g>
<!-- Node2&#45;&gt;Node33 -->
<g id="edge38_Node000002_Node000033" class="edge">
<title>Node2&#45;&gt;Node33</title>
<g id="a_edge38_Node000002_Node000033"><a xlink:title=" ">
<path fill="none" stroke="#63b8ff" d="M329.92,-494.61C330.31,-480.75 333.23,-454.12 349,-440 375.63,-416.16 470.33,-404.53 533.61,-399.29"/>
<polygon fill="#63b8ff" stroke="#63b8ff" points="534.18,-402.76 543.88,-398.48 533.63,-395.78 534.18,-402.76"/>
</a>
</g>
</g>
<!-- Node34 -->
<g id="Node000034" class="node">
<title>Node34</title>
<g id="a_Node000034"><a xlink:href="validate__expressions_8h.html" target="_top" xlink:title=" ">
<polygon fill="white" stroke="#666666" points="487.5,-459 358.5,-459 358.5,-440 487.5,-440 487.5,-459"/>
<text text-anchor="middle" x="423" y="-447" font-family="Helvetica,sans-Serif" font-size="10.00">validate_expressions.h</text>
</a>
</g>
</g>
<!-- Node2&#45;&gt;Node34 -->
<g id="edge37_Node000002_Node000034" class="edge">
<title>Node2&#45;&gt;Node34</title>
<g id="a_edge37_Node000002_Node000034"><a xlink:title=" ">
<path fill="none" stroke="#63b8ff" d="M344.94,-494.98C359.5,-486.69 381.87,-473.94 398.93,-464.22"/>
<polygon fill="#63b8ff" stroke="#63b8ff" points="400.83,-467.16 407.79,-459.17 397.36,-461.08 400.83,-467.16"/>
</a>
</g>
</g>
<!-- Node35 -->
<g id="Node000035" class="node">
<title>Node35</title>
<g id="a_Node000035"><a xlink:title=" ">
<polygon fill="#e0e0e0" stroke="#999999" points="245.5,-294 180.5,-294 180.5,-275 245.5,-275 245.5,-294"/>
<text text-anchor="middle" x="213" y="-282" font-family="Helvetica,sans-Serif" font-size="10.00">functional</text>
</a>
</g>
</g>
<!-- Node2&#45;&gt;Node35 -->
<g id="edge40_Node000002_Node000035" class="edge">
<title>Node2&#45;&gt;Node35</title>
<g id="a_edge40_Node000002_Node000035"><a xlink:title=" ">
<path fill="none" stroke="#63b8ff" d="M325.41,-494.95C308.09,-462.67 246.41,-347.75 222.53,-303.26"/>
<polygon fill="#63b8ff" stroke="#63b8ff" points="225.49,-301.38 217.68,-294.22 219.33,-304.69 225.49,-301.38"/>
</a>
</g>
</g>
<!-- Node5 -->
<g id="Node000005" class="node">
<title>Node5</title>
<g id="a_Node000005"><a xlink:href="source__location_8h.html" target="_top" xlink:title=" ">
<polygon fill="white" stroke="#666666" points="442,-294 340,-294 340,-275 442,-275 442,-294"/>
<text text-anchor="middle" x="391" y="-282" font-family="Helvetica,sans-Serif" font-size="10.00">source_location.h</text>
</a>
</g>
</g>
<!-- Node4&#45;&gt;Node5 -->
<g id="edge4_Node000004_Node000005" class="edge">
<title>Node4&#45;&gt;Node5</title>
<g id="a_edge4_Node000004_Node000005"><a xlink:title=" ">
<path fill="none" stroke="#63b8ff" d="M669.75,-439.94C668.92,-426.53 665.4,-400.52 651,-385 598.71,-328.65 511.04,-303.91 452.13,-293.26"/>
<polygon fill="#63b8ff" stroke="#63b8ff" points="452.66,-289.8 442.21,-291.55 451.47,-296.7 452.66,-289.8"/>
</a>
</g>
</g>
<!-- Node30 -->
<g id="Node000030" class="node">
<title>Node30</title>
<g id="a_Node000030"><a xlink:href="validate_8h.html" target="_top" xlink:title=" ">
<polygon fill="white" stroke="#666666" points="858.5,-404 793.5,-404 793.5,-385 858.5,-385 858.5,-404"/>
<text text-anchor="middle" x="826" y="-392" font-family="Helvetica,sans-Serif" font-size="10.00">validate.h</text>
</a>
</g>
</g>
<!-- Node4&#45;&gt;Node30 -->
<g id="edge28_Node000004_Node000030" class="edge">
<title>Node4&#45;&gt;Node30</title>
<g id="a_edge28_Node000004_Node000030"><a xlink:title=" ">
<path fill="none" stroke="#63b8ff" d="M693.69,-440.45C719.65,-431.63 761.55,-417.4 791.23,-407.31"/>
<polygon fill="#63b8ff" stroke="#63b8ff" points="792.45,-410.6 800.79,-404.07 790.19,-403.97 792.45,-410.6"/>
</a>
</g>
</g>
<!-- Node4&#45;&gt;Node32 -->
<g id="edge36_Node000004_Node000032" class="edge">
<title>Node4&#45;&gt;Node32</title>
<g id="a_edge36_Node000004_Node000032"><a xlink:title=" ">
<path fill="none" stroke="#63b8ff" d="M693.54,-445.56C731.33,-440.32 807.45,-427.65 868,-404 901.25,-391.02 936.43,-369.06 957.81,-354.67"/>
<polygon fill="#63b8ff" stroke="#63b8ff" points="959.8,-357.55 966.08,-349.02 955.85,-351.77 959.8,-357.55"/>
</a>
</g>
</g>
<!-- Node4&#45;&gt;Node33 -->
<g id="edge35_Node000004_Node000033" class="edge">
<title>Node4&#45;&gt;Node33</title>
<g id="a_edge35_Node000004_Node000033"><a xlink:title=" ">
<path fill="none" stroke="#63b8ff" d="M657.63,-439.98C645.91,-431.92 628.08,-419.65 614.11,-410.03"/>
<polygon fill="#63b8ff" stroke="#63b8ff" points="615.82,-406.96 605.6,-404.17 611.85,-412.72 615.82,-406.96"/>
</a>
</g>
</g>
<!-- Node6 -->
<g id="Node000006" class="node">
<title>Node6</title>
<g id="a_Node000006"><a xlink:href="deprecate_8h.html" target="_top" xlink:title=" ">
<polygon fill="white" stroke="#666666" points="511,-239 437,-239 437,-220 511,-220 511,-239"/>
<text text-anchor="middle" x="474" y="-227" font-family="Helvetica,sans-Serif" font-size="10.00">deprecate.h</text>
</a>
</g>
</g>
<!-- Node5&#45;&gt;Node6 -->
<g id="edge5_Node000005_Node000006" class="edge">
<title>Node5&#45;&gt;Node6</title>
<g id="a_edge5_Node000005_Node000006"><a xlink:title=" ">
<path fill="none" stroke="#63b8ff" d="M404.34,-274.98C417.09,-266.84 436.55,-254.41 451.67,-244.76"/>
<polygon fill="#63b8ff" stroke="#63b8ff" points="453.88,-247.5 460.42,-239.17 450.11,-241.6 453.88,-247.5"/>
</a>
</g>
</g>
<!-- Node7 -->
<g id="Node000007" class="node">
<title>Node7</title>
<g id="a_Node000007"><a xlink:href="irep_8h.html" target="_top" xlink:title=" ">
<polygon fill="white" stroke="#666666" points="345,-239 301,-239 301,-220 345,-220 345,-239"/>
<text text-anchor="middle" x="323" y="-227" font-family="Helvetica,sans-Serif" font-size="10.00">irep.h</text>
</a>
</g>
</g>
<!-- Node5&#45;&gt;Node7 -->
<g id="edge6_Node000005_Node000007" class="edge">
<title>Node5&#45;&gt;Node7</title>
<g id="a_edge6_Node000005_Node000007"><a xlink:title=" ">
<path fill="none" stroke="#63b8ff" d="M380.07,-274.98C369.92,-267.07 354.58,-255.11 342.35,-245.58"/>
<polygon fill="#63b8ff" stroke="#63b8ff" points="344.16,-242.56 334.12,-239.17 339.86,-248.08 344.16,-242.56"/>
</a>
</g>
</g>
<!-- Node5&#45;&gt;Node8 -->
<g id="edge27_Node000005_Node000008" class="edge">
<title>Node5&#45;&gt;Node8</title>
<g id="a_edge27_Node000005_Node000008"><a xlink:title=" ">
<path fill="none" stroke="#63b8ff" d="M358.45,-274.9C337.45,-268.01 310.68,-256.55 292,-239 264.9,-213.55 276.52,-193.79 253,-165 237.01,-145.43 219.82,-151.83 209,-129 192.54,-94.27 217.64,-50.75 234.59,-27.32"/>
<polygon fill="#63b8ff" stroke="#63b8ff" points="237.55,-29.2 240.79,-19.11 231.97,-24.98 237.55,-29.2"/>
</a>
</g>
</g>
<!-- Node29 -->
<g id="Node000029" class="node">
<title>Node29</title>
<g id="a_Node000029"><a xlink:title=" ">
<polygon fill="#e0e0e0" stroke="#999999" points="419,-239 363,-239 363,-220 419,-220 419,-239"/>
<text text-anchor="middle" x="391" y="-227" font-family="Helvetica,sans-Serif" font-size="10.00">optional</text>
</a>
</g>
</g>
<!-- Node5&#45;&gt;Node29 -->
<g id="edge26_Node000005_Node000029" class="edge">
<title>Node5&#45;&gt;Node29</title>
<g id="a_edge26_Node000005_Node000029"><a xlink:title=" ">
<path fill="none" stroke="#63b8ff" d="M391,-274.75C391,-267.8 391,-257.85 391,-249.13"/>
<polygon fill="#63b8ff" stroke="#63b8ff" points="394.5,-249.09 391,-239.09 387.5,-249.09 394.5,-249.09"/>
</a>
</g>
</g>
<!-- Node7&#45;&gt;Node8 -->
<g id="edge7_Node000007_Node000008" class="edge">
<title>Node7&#45;&gt;Node8</title>
<g id="a_edge7_Node000007_Node000008"><a xlink:title=" ">
<path fill="none" stroke="#63b8ff" d="M338.35,-219.69C350.28,-211.94 366.09,-199.49 374,-184 388.99,-154.64 393.65,-139.53 379,-110 358.12,-67.92 309.99,-38.84 278.25,-23.42"/>
<polygon fill="#63b8ff" stroke="#63b8ff" points="279.51,-20.15 268.97,-19.08 276.54,-26.49 279.51,-20.15"/>
</a>
</g>
</g>
<!-- Node7&#45;&gt;Node9 -->
<g id="edge8_Node000007_Node000009" class="edge">
<title>Node7&#45;&gt;Node9</title>
<g id="a_edge8_Node000007_Node000009"><a xlink:title=" ">
<path fill="none" stroke="#63b8ff" d="M306.61,-219.98C290.43,-211.57 265.43,-198.59 246.62,-188.81"/>
<polygon fill="#63b8ff" stroke="#63b8ff" points="248.17,-185.68 237.69,-184.17 244.95,-191.89 248.17,-185.68"/>
</a>
</g>
</g>
<!-- Node10 -->
<g id="Node000010" class="node">
<title>Node10</title>
<g id="a_Node000010"><a xlink:href="src_2util_2invariant_8h.html" target="_top" xlink:title=" ">
<polygon fill="white" stroke="#666666" points="849.5,-74 780.5,-74 780.5,-55 849.5,-55 849.5,-74"/>
<text text-anchor="middle" x="815" y="-62" font-family="Helvetica,sans-Serif" font-size="10.00">invariant.h</text>
</a>
</g>
</g>
<!-- Node7&#45;&gt;Node10 -->
<g id="edge9_Node000007_Node000010" class="edge">
<title>Node7&#45;&gt;Node10</title>
<g id="a_edge9_Node000007_Node000010"><a xlink:title=" ">
<path fill="none" stroke="#63b8ff" d="M345.24,-221.9C348.17,-221.18 351.15,-220.52 354,-220 439.19,-204.49 664.32,-222.27 742,-184 771.9,-169.27 775.84,-157.58 793,-129 801.44,-114.93 807.25,-97.16 810.77,-84"/>
<polygon fill="#63b8ff" stroke="#63b8ff" points="814.19,-84.75 813.19,-74.21 807.39,-83.07 814.19,-84.75"/>
</a>
</g>
</g>
<!-- Node14 -->
<g id="Node000014" class="node">
<title>Node14</title>
<g id="a_Node000014"><a xlink:href="irep__ids_8h.html" target="_top" xlink:title="util">
<polygon fill="white" stroke="#666666" points="365,-184 301,-184 301,-165 365,-165 365,-184"/>
<text text-anchor="middle" x="333" y="-172" font-family="Helvetica,sans-Serif" font-size="10.00">irep_ids.h</text>
</a>
</g>
</g>
<!-- Node7&#45;&gt;Node14 -->
<g id="edge14_Node000007_Node000014" class="edge">
<title>Node7&#45;&gt;Node14</title>
<g id="a_edge14_Node000007_Node000014"><a xlink:title=" ">
<path fill="none" stroke="#63b8ff" d="M324.65,-219.75C325.96,-212.8 327.84,-202.85 329.48,-194.13"/>
<polygon fill="#63b8ff" stroke="#63b8ff" points="332.96,-194.56 331.38,-184.09 326.09,-193.27 332.96,-194.56"/>
</a>
</g>
</g>
<!-- Node25 -->
<g id="Node000025" class="node">
<title>Node25</title>
<g id="a_Node000025"><a xlink:href="forward__list__as__map_8h.html" target="_top" xlink:title=" ">
<polygon fill="white" stroke="#666666" points="732.5,-184 605.5,-184 605.5,-165 732.5,-165 732.5,-184"/>
<text text-anchor="middle" x="669" y="-172" font-family="Helvetica,sans-Serif" font-size="10.00">forward_list_as_map.h</text>
</a>
</g>
</g>
<!-- Node7&#45;&gt;Node25 -->
<g id="edge19_Node000007_Node000025" class="edge">
<title>Node7&#45;&gt;Node25</title>
<g id="a_edge19_Node000007_Node000025"><a xlink:title=" ">
<path fill="none" stroke="#63b8ff" d="M345.27,-222.03C348.19,-221.29 351.16,-220.59 354,-220 435.89,-203.06 531.09,-190.59 595.22,-183.23"/>
<polygon fill="#63b8ff" stroke="#63b8ff" points="595.7,-186.7 605.24,-182.1 594.91,-179.75 595.7,-186.7"/>
</a>
</g>
</g>
<!-- Node10&#45;&gt;Node8 -->
<g id="edge12_Node000010_Node000008" class="edge">
<title>Node10&#45;&gt;Node8</title>
<g id="a_edge12_Node000010_Node000008"><a xlink:title=" ">
<path fill="none" stroke="#63b8ff" d="M780.39,-60.26C678.2,-50.71 378.81,-22.73 280.03,-13.49"/>
<polygon fill="#63b8ff" stroke="#63b8ff" points="280.33,-10.01 270.05,-12.56 279.68,-16.98 280.33,-10.01"/>
</a>
</g>
</g>
<!-- Node11 -->
<g id="Node000011" class="node">
<title>Node11</title>
<g id="a_Node000011"><a xlink:title=" ">
<polygon fill="#e0e0e0" stroke="#999999" points="884.5,-19 835.5,-19 835.5,0 884.5,0 884.5,-19"/>
<text text-anchor="middle" x="860" y="-7" font-family="Helvetica,sans-Serif" font-size="10.00">cstdlib</text>
</a>
</g>
</g>
<!-- Node10&#45;&gt;Node11 -->
<g id="edge10_Node000010_Node000011" class="edge">
<title>Node10&#45;&gt;Node11</title>
<g id="a_edge10_Node000010_Node000011"><a xlink:title=" ">
<path fill="none" stroke="#63b8ff" d="M822.43,-54.75C828.85,-47.18 838.31,-36.05 846.12,-26.84"/>
<polygon fill="#63b8ff" stroke="#63b8ff" points="848.9,-28.98 852.71,-19.09 843.57,-24.45 848.9,-28.98"/>
</a>
</g>
</g>
<!-- Node12 -->
<g id="Node000012" class="node">
<title>Node12</title>
<g id="a_Node000012"><a xlink:title=" ">
<polygon fill="#e0e0e0" stroke="#999999" points="552,-19 496,-19 496,0 552,0 552,-19"/>
<text text-anchor="middle" x="524" y="-7" font-family="Helvetica,sans-Serif" font-size="10.00">sstream</text>
</a>
</g>
</g>
<!-- Node10&#45;&gt;Node12 -->
<g id="edge11_Node000010_Node000012" class="edge">
<title>Node10&#45;&gt;Node12</title>
<g id="a_edge11_Node000010_Node000012"><a xlink:title=" ">
<path fill="none" stroke="#63b8ff" d="M780.48,-57.21C725.77,-47.25 619.52,-27.9 562.45,-17.5"/>
<polygon fill="#63b8ff" stroke="#63b8ff" points="562.86,-14.02 552.39,-15.67 561.61,-20.91 562.86,-14.02"/>
</a>
</g>
</g>
<!-- Node13 -->
<g id="Node000013" class="node">
<title>Node13</title>
<g id="a_Node000013"><a xlink:title=" ">
<polygon fill="#e0e0e0" stroke="#999999" points="817.5,-19 748.5,-19 748.5,0 817.5,0 817.5,-19"/>
<text text-anchor="middle" x="783" y="-7" font-family="Helvetica,sans-Serif" font-size="10.00">type_traits</text>
</a>
</g>
</g>
<!-- Node10&#45;&gt;Node13 -->
<g id="edge13_Node000010_Node000013" class="edge">
<title>Node10&#45;&gt;Node13</title>
<g id="a_edge13_Node000010_Node000013"><a xlink:title=" ">
<path fill="none" stroke="#63b8ff" d="M809.72,-54.75C805.29,-47.42 798.84,-36.73 793.38,-27.7"/>
<polygon fill="#63b8ff" stroke="#63b8ff" points="796.35,-25.84 788.19,-19.09 790.36,-29.46 796.35,-25.84"/>
</a>
</g>
</g>
<!-- Node15 -->
<g id="Node000015" class="node">
<title>Node15</title>
<g id="a_Node000015"><a xlink:href="dstring_8h.html" target="_top" xlink:title="Container for C&#45;Strings.">
<polygon fill="#fff0f0" stroke="red" points="277.5,-129 218.5,-129 218.5,-110 277.5,-110 277.5,-129"/>
<text text-anchor="middle" x="248" y="-117" font-family="Helvetica,sans-Serif" font-size="10.00">dstring.h</text>
</a>
</g>
</g>
<!-- Node14&#45;&gt;Node15 -->
<g id="edge15_Node000014_Node000015" class="edge">
<title>Node14&#45;&gt;Node15</title>
<g id="a_edge15_Node000014_Node000015"><a xlink:title=" ">
<path fill="none" stroke="#63b8ff" d="M319.34,-164.98C306.16,-156.77 285.97,-144.18 270.43,-134.49"/>
<polygon fill="#63b8ff" stroke="#63b8ff" points="272.24,-131.49 261.91,-129.17 268.54,-137.43 272.24,-131.49"/>
</a>
</g>
</g>
<!-- Node24 -->
<g id="Node000024" class="node">
<title>Node24</title>
<g id="a_Node000024"><a xlink:title=" ">
<polygon fill="#e0e0e0" stroke="#999999" points="370,-129 296,-129 296,-110 370,-110 370,-129"/>
<text text-anchor="middle" x="333" y="-117" font-family="Helvetica,sans-Serif" font-size="10.00">irep_ids.def</text>
</a>
</g>
</g>
<!-- Node14&#45;&gt;Node24 -->
<g id="edge18_Node000014_Node000024" class="edge">
<title>Node14&#45;&gt;Node24</title>
<g id="a_edge18_Node000014_Node000024"><a xlink:title=" ">
<path fill="none" stroke="#63b8ff" d="M333,-164.75C333,-157.8 333,-147.85 333,-139.13"/>
<polygon fill="#63b8ff" stroke="#63b8ff" points="336.5,-139.09 333,-129.09 329.5,-139.09 336.5,-139.09"/>
</a>
</g>
</g>
<!-- Node15&#45;&gt;Node8 -->
<g id="edge17_Node000015_Node000008" class="edge">
<title>Node15&#45;&gt;Node8</title>
<g id="a_edge17_Node000015_Node000008"><a xlink:title=" ">
<path fill="none" stroke="#63b8ff" d="M248,-109.66C248,-92.17 248,-52.8 248,-29.27"/>
<polygon fill="#63b8ff" stroke="#63b8ff" points="251.5,-29.16 248,-19.16 244.5,-29.16 251.5,-29.16"/>
</a>
</g>
</g>
<!-- Node15&#45;&gt;Node16 -->
<g id="edge16_Node000015_Node000016" class="edge">
<title>Node15&#45;&gt;Node16</title>
<g id="a_edge16_Node000015_Node000016"><a xlink:title=" ">
<path fill="none" stroke="#63b8ff" d="M230.33,-109.98C212.71,-101.5 185.42,-88.35 165.07,-78.54"/>
<polygon fill="#63b8ff" stroke="#63b8ff" points="166.52,-75.36 155.99,-74.17 163.48,-81.66 166.52,-75.36"/>
</a>
</g>
</g>
<!-- Node25&#45;&gt;Node3 -->
<g id="edge22_Node000025_Node000003" class="edge">
<title>Node25&#45;&gt;Node3</title>
<g id="a_edge22_Node000025_Node000003"><a xlink:title=" ">
<path fill="none" stroke="#63b8ff" d="M635.42,-164.98C599.65,-155.91 542.88,-141.52 503.66,-131.57"/>
<polygon fill="#63b8ff" stroke="#63b8ff" points="504.4,-128.15 493.84,-129.08 502.68,-134.93 504.4,-128.15"/>
</a>
</g>
</g>
<!-- Node26 -->
<g id="Node000026" class="node">
<title>Node26</title>
<g id="a_Node000026"><a xlink:title=" ">
<polygon fill="#e0e0e0" stroke="#999999" points="614,-129 550,-129 550,-110 614,-110 614,-129"/>
<text text-anchor="middle" x="582" y="-117" font-family="Helvetica,sans-Serif" font-size="10.00">algorithm</text>
</a>
</g>
</g>
<!-- Node25&#45;&gt;Node26 -->
<g id="edge20_Node000025_Node000026" class="edge">
<title>Node25&#45;&gt;Node26</title>
<g id="a_edge20_Node000025_Node000026"><a xlink:title=" ">
<path fill="none" stroke="#63b8ff" d="M655.02,-164.98C641.53,-156.77 620.87,-144.18 604.96,-134.49"/>
<polygon fill="#63b8ff" stroke="#63b8ff" points="606.59,-131.38 596.23,-129.17 602.95,-137.36 606.59,-131.38"/>
</a>
</g>
</g>
<!-- Node27 -->
<g id="Node000027" class="node">
<title>Node27</title>
<g id="a_Node000027"><a xlink:title=" ">
<polygon fill="#e0e0e0" stroke="#999999" points="706,-129 632,-129 632,-110 706,-110 706,-129"/>
<text text-anchor="middle" x="669" y="-117" font-family="Helvetica,sans-Serif" font-size="10.00">forward_list</text>
</a>
</g>
</g>
<!-- Node25&#45;&gt;Node27 -->
<g id="edge21_Node000025_Node000027" class="edge">
<title>Node25&#45;&gt;Node27</title>
<g id="a_edge21_Node000025_Node000027"><a xlink:title=" ">
<path fill="none" stroke="#63b8ff" d="M669,-164.75C669,-157.8 669,-147.85 669,-139.13"/>
<polygon fill="#63b8ff" stroke="#63b8ff" points="672.5,-139.09 669,-129.09 665.5,-139.09 672.5,-139.09"/>
</a>
</g>
</g>
<!-- Node28 -->
<g id="Node000028" class="node">
<title>Node28</title>
<g id="a_Node000028"><a xlink:href="narrow_8h.html" target="_top" xlink:title=" ">
<polygon fill="white" stroke="#666666" points="783.5,-129 724.5,-129 724.5,-110 783.5,-110 783.5,-129"/>
<text text-anchor="middle" x="754" y="-117" font-family="Helvetica,sans-Serif" font-size="10.00">narrow.h</text>
</a>
</g>
</g>
<!-- Node25&#45;&gt;Node28 -->
<g id="edge23_Node000025_Node000028" class="edge">
<title>Node25&#45;&gt;Node28</title>
<g id="a_edge23_Node000025_Node000028"><a xlink:title=" ">
<path fill="none" stroke="#63b8ff" d="M682.66,-164.98C695.84,-156.77 716.03,-144.18 731.57,-134.49"/>
<polygon fill="#63b8ff" stroke="#63b8ff" points="733.46,-137.43 740.09,-129.17 729.76,-131.49 733.46,-137.43"/>
</a>
</g>
</g>
<!-- Node28&#45;&gt;Node10 -->
<g id="edge25_Node000028_Node000010" class="edge">
<title>Node28&#45;&gt;Node10</title>
<g id="a_edge25_Node000028_Node000010"><a xlink:title=" ">
<path fill="none" stroke="#63b8ff" d="M763.8,-109.98C772.82,-102.15 786.41,-90.34 797.32,-80.86"/>
<polygon fill="#63b8ff" stroke="#63b8ff" points="799.77,-83.37 805.02,-74.17 795.18,-78.09 799.77,-83.37"/>
</a>
</g>
</g>
<!-- Node28&#45;&gt;Node13 -->
<g id="edge24_Node000028_Node000013" class="edge">
<title>Node28&#45;&gt;Node13</title>
<g id="a_edge24_Node000028_Node000013"><a xlink:title=" ">
<path fill="none" stroke="#63b8ff" d="M756.37,-109.66C761.09,-92.09 771.74,-52.45 778.04,-28.95"/>
<polygon fill="#63b8ff" stroke="#63b8ff" points="781.46,-29.72 780.68,-19.16 774.7,-27.91 781.46,-29.72"/>
</a>
</g>
</g>
<!-- Node30&#45;&gt;Node13 -->
<g id="edge29_Node000030_Node000013" class="edge">
<title>Node30&#45;&gt;Node13</title>
<g id="a_edge29_Node000030_Node000013"><a xlink:title=" ">
<path fill="none" stroke="#63b8ff" d="M836.33,-384.77C861.87,-362.14 926,-298.56 926,-230.5 926,-230.5 926,-230.5 926,-118.5 926,-67.12 866.5,-37.09 824.26,-22.24"/>
<polygon fill="#63b8ff" stroke="#63b8ff" points="825.33,-18.91 814.74,-19.05 823.1,-25.55 825.33,-18.91"/>
</a>
</g>
</g>
<!-- Node31 -->
<g id="Node000031" class="node">
<title>Node31</title>
<g id="a_Node000031"><a xlink:href="exception__utils_8h.html" target="_top" xlink:title=" ">
<polygon fill="white" stroke="#666666" points="774,-349 674,-349 674,-330 774,-330 774,-349"/>
<text text-anchor="middle" x="724" y="-337" font-family="Helvetica,sans-Serif" font-size="10.00">exception_utils.h</text>
</a>
</g>
</g>
<!-- Node30&#45;&gt;Node31 -->
<g id="edge30_Node000030_Node000031" class="edge">
<title>Node30&#45;&gt;Node31</title>
<g id="a_edge30_Node000030_Node000031"><a xlink:title=" ">
<path fill="none" stroke="#63b8ff" d="M809.61,-384.98C793.43,-376.57 768.43,-363.59 749.62,-353.81"/>
<polygon fill="#63b8ff" stroke="#63b8ff" points="751.17,-350.68 740.69,-349.17 747.95,-356.89 751.17,-350.68"/>
</a>
</g>
</g>
<!-- Node30&#45;&gt;Node32 -->
<g id="edge34_Node000030_Node000032" class="edge">
<title>Node30&#45;&gt;Node32</title>
<g id="a_edge34_Node000030_Node000032"><a xlink:title=" ">
<path fill="none" stroke="#63b8ff" d="M850.42,-384.98C875.72,-376.16 915.45,-362.31 943.86,-352.41"/>
<polygon fill="#63b8ff" stroke="#63b8ff" points="945.1,-355.68 953.39,-349.08 942.79,-349.07 945.1,-355.68"/>
</a>
</g>
</g>
<!-- Node31&#45;&gt;Node5 -->
<g id="edge33_Node000031_Node000005" class="edge">
<title>Node31&#45;&gt;Node5</title>
<g id="a_edge33_Node000031_Node000005"><a xlink:title=" ">
<path fill="none" stroke="#63b8ff" d="M673.79,-330.51C614.46,-321.07 515.78,-305.36 452.08,-295.22"/>
<polygon fill="#63b8ff" stroke="#63b8ff" points="452.6,-291.76 442.17,-293.64 451.5,-298.67 452.6,-291.76"/>
</a>
</g>
</g>
<!-- Node31&#45;&gt;Node8 -->
<g id="edge31_Node000031_Node000008" class="edge">
<title>Node31&#45;&gt;Node8</title>
<g id="a_edge31_Node000031_Node000008"><a xlink:title=" ">
<path fill="none" stroke="#63b8ff" d="M717.79,-329.76C693.82,-296.57 603.63,-176.95 503,-110 430.26,-61.61 330.5,-31.41 280.03,-18.23"/>
<polygon fill="#63b8ff" stroke="#63b8ff" points="280.88,-14.83 270.32,-15.74 279.14,-21.61 280.88,-14.83"/>
</a>
</g>
</g>
<!-- Node31&#45;&gt;Node10 -->
<g id="edge32_Node000031_Node000010" class="edge">
<title>Node31&#45;&gt;Node10</title>
<g id="a_edge32_Node000031_Node000010"><a xlink:title=" ">
<path fill="none" stroke="#63b8ff" d="M766.23,-329.97C814.83,-317.4 888,-288.8 888,-230.5 888,-230.5 888,-230.5 888,-173.5 888,-143.33 880.97,-134.94 864,-110 856.3,-98.68 845.16,-88.26 835.44,-80.36"/>
<polygon fill="#63b8ff" stroke="#63b8ff" points="837.44,-77.47 827.4,-74.1 833.14,-83 837.44,-77.47"/>
</a>
</g>
</g>
<!-- Node36&#45;&gt;Node5 -->
<g id="edge43_Node000036_Node000005" class="edge">
<title>Node36&#45;&gt;Node5</title>
<g id="a_edge43_Node000036_Node000005"><a xlink:title=" ">
<path fill="none" stroke="#63b8ff" d="M208.03,-329.98C245.5,-320.87 305.05,-306.4 345.98,-296.45"/>
<polygon fill="#63b8ff" stroke="#63b8ff" points="346.81,-299.85 355.7,-294.08 345.16,-293.04 346.81,-299.85"/>
</a>
</g>
</g>
<!-- Node36&#45;&gt;Node8 -->
<g id="edge47_Node000036_Node000008" class="edge">
<title>Node36&#45;&gt;Node8</title>
<g id="a_edge47_Node000036_Node000008"><a xlink:title=" ">
<path fill="none" stroke="#63b8ff" d="M168.46,-329.85C164,-321.04 157.25,-306.87 153,-294 119.06,-191.11 40.77,-142.25 105,-55 130.24,-20.71 181.71,-12.08 215.52,-10.31"/>
<polygon fill="#63b8ff" stroke="#63b8ff" points="215.95,-13.8 225.82,-9.96 215.71,-6.8 215.95,-13.8"/>
</a>
</g>
</g>
<!-- Node36&#45;&gt;Node10 -->
<g id="edge42_Node000036_Node000010" class="edge">
<title>Node36&#45;&gt;Node10</title>
<g id="a_edge42_Node000036_Node000010"><a xlink:title=" ">
<path fill="none" stroke="#63b8ff" d="M208.29,-338C306.62,-334.93 588.37,-314.55 769,-184 793.93,-165.98 800.24,-157.81 811,-129 816.38,-114.59 817.09,-97.08 816.62,-84.09"/>
<polygon fill="#63b8ff" stroke="#63b8ff" points="820.11,-83.8 815.99,-74.04 813.12,-84.24 820.11,-83.8"/>
</a>
</g>
</g>
<!-- Node36&#45;&gt;Node12 -->
<g id="edge46_Node000036_Node000012" class="edge">
<title>Node36&#45;&gt;Node12</title>
<g id="a_edge46_Node000036_Node000012"><a xlink:title=" ">
<path fill="none" stroke="#63b8ff" d="M166.07,-329.76C136.22,-291.09 23.83,-133.79 105,-55 132.06,-28.73 387.45,-15.91 485.72,-11.91"/>
<polygon fill="#63b8ff" stroke="#63b8ff" points="485.97,-15.41 495.82,-11.51 485.69,-8.41 485.97,-15.41"/>
</a>
</g>
</g>
<!-- Node36&#45;&gt;Node16 -->
<g id="edge45_Node000036_Node000016" class="edge">
<title>Node36&#45;&gt;Node16</title>
<g id="a_edge45_Node000036_Node000016"><a xlink:title=" ">
<path fill="none" stroke="#63b8ff" d="M170.17,-329.93C164.44,-311.8 152,-268.13 152,-230.5 152,-230.5 152,-230.5 152,-173.5 152,-141.93 146.04,-105.59 141.9,-84.14"/>
<polygon fill="#63b8ff" stroke="#63b8ff" points="145.29,-83.24 139.89,-74.13 138.43,-84.62 145.29,-83.24"/>
</a>
</g>
</g>
<!-- Node36&#45;&gt;Node35 -->
<g id="edge44_Node000036_Node000035" class="edge">
<title>Node36&#45;&gt;Node35</title>
<g id="a_edge44_Node000036_Node000035"><a xlink:title=" ">
<path fill="none" stroke="#63b8ff" d="M179.61,-329.75C185.26,-322.26 193.54,-311.28 200.45,-302.13"/>
<polygon fill="#63b8ff" stroke="#63b8ff" points="203.29,-304.18 206.52,-294.09 197.7,-299.96 203.29,-304.18"/>
</a>
</g>
</g>
</g>
</svg>
