<?xml version="1.0" encoding="UTF-8" standalone="no"?>
<!DOCTYPE svg PUBLIC "-//W3C//DTD SVG 1.1//EN"
 "http://www.w3.org/Graphics/SVG/1.1/DTD/svg11.dtd">
<!-- Generated by graphviz version 2.43.0 (0)
 -->
<!-- Title: /home/runner/work/cbmc/cbmc/src/util/pointer_predicates.cpp Pages: 1 -->
<svg width="1087pt" height="654pt"
 viewBox="0.00 0.00 1086.74 654.00" xmlns="http://www.w3.org/2000/svg" xmlns:xlink="http://www.w3.org/1999/xlink">
<g id="graph0" class="graph" transform="scale(1 1) rotate(0) translate(4 650)">
<title>/home/runner/work/cbmc/cbmc/src/util/pointer_predicates.cpp</title>
<!-- Node1 -->
<g id="Node000001" class="node">
<title>Node1</title>
<g id="a_Node000001"><a xlink:title="Various predicates over pointers in programs.">
<polygon fill="#999999" stroke="#666666" points="747.24,-646 609.24,-646 609.24,-605 747.24,-605 747.24,-646"/>
<text text-anchor="start" x="617.24" y="-634" font-family="Helvetica,sans-Serif" font-size="10.00">/home/runner/work/cbmc</text>
<text text-anchor="start" x="617.24" y="-623" font-family="Helvetica,sans-Serif" font-size="10.00">/cbmc/src/util/pointer</text>
<text text-anchor="middle" x="678.24" y="-612" font-family="Helvetica,sans-Serif" font-size="10.00">_predicates.cpp</text>
</a>
</g>
</g>
<!-- Node2 -->
<g id="Node000002" class="node">
<title>Node2</title>
<g id="a_Node000002"><a xlink:href="pointer__predicates_8h.html" target="_top" xlink:title="Various predicates over pointers in programs.">
<polygon fill="white" stroke="#666666" points="621.24,-514 505.24,-514 505.24,-495 621.24,-495 621.24,-514"/>
<text text-anchor="middle" x="563.24" y="-502" font-family="Helvetica,sans-Serif" font-size="10.00">pointer_predicates.h</text>
</a>
</g>
</g>
<!-- Node1&#45;&gt;Node2 -->
<g id="edge1_Node000001_Node000002" class="edge">
<title>Node1&#45;&gt;Node2</title>
<g id="a_edge1_Node000001_Node000002"><a xlink:title=" ">
<path fill="none" stroke="#63b8ff" d="M659.25,-604.85C636.74,-581.55 599.65,-543.17 578.77,-521.57"/>
<polygon fill="#63b8ff" stroke="#63b8ff" points="581.09,-518.93 571.63,-514.18 576.06,-523.8 581.09,-518.93"/>
</a>
</g>
</g>
<!-- Node3 -->
<g id="Node000003" class="node">
<title>Node3</title>
<g id="a_Node000003"><a xlink:href="std__expr_8h.html" target="_top" xlink:title="API to expression classes.">
<polygon fill="white" stroke="#666666" points="472.74,-459 405.74,-459 405.74,-440 472.74,-440 472.74,-459"/>
<text text-anchor="middle" x="439.24" y="-447" font-family="Helvetica,sans-Serif" font-size="10.00">std_expr.h</text>
</a>
</g>
</g>
<!-- Node1&#45;&gt;Node3 -->
<g id="edge62_Node000001_Node000003" class="edge">
<title>Node1&#45;&gt;Node3</title>
<g id="a_edge62_Node000001_Node000003"><a xlink:title=" ">
<path fill="none" stroke="#63b8ff" d="M638.78,-604.9C600.36,-584.85 541.34,-551.41 496.24,-514 479.22,-499.88 462.67,-480.63 451.82,-467.04"/>
<polygon fill="#63b8ff" stroke="#63b8ff" points="454.49,-464.76 445.58,-459.04 448.97,-469.07 454.49,-464.76"/>
</a>
</g>
</g>
<!-- Node43 -->
<g id="Node000043" class="node">
<title>Node43</title>
<g id="a_Node000043"><a xlink:href="arith__tools_8h.html" target="_top" xlink:title=" ">
<polygon fill="white" stroke="#666666" points="716.74,-514 639.74,-514 639.74,-495 716.74,-495 716.74,-514"/>
<text text-anchor="middle" x="678.24" y="-502" font-family="Helvetica,sans-Serif" font-size="10.00">arith_tools.h</text>
</a>
</g>
</g>
<!-- Node1&#45;&gt;Node43 -->
<g id="edge42_Node000001_Node000043" class="edge">
<title>Node1&#45;&gt;Node43</title>
<g id="a_edge42_Node000001_Node000043"><a xlink:title=" ">
<path fill="none" stroke="#63b8ff" d="M678.24,-604.85C678.24,-582.48 678.24,-546.19 678.24,-524.21"/>
<polygon fill="#63b8ff" stroke="#63b8ff" points="681.74,-524.18 678.24,-514.18 674.74,-524.18 681.74,-524.18"/>
</a>
</g>
</g>
<!-- Node45 -->
<g id="Node000045" class="node">
<title>Node45</title>
<g id="a_Node000045"><a xlink:href="c__types_8h.html" target="_top" xlink:title=" ">
<polygon fill="white" stroke="#666666" points="423.74,-569 360.74,-569 360.74,-550 423.74,-550 423.74,-569"/>
<text text-anchor="middle" x="392.24" y="-557" font-family="Helvetica,sans-Serif" font-size="10.00">c_types.h</text>
</a>
</g>
</g>
<!-- Node1&#45;&gt;Node45 -->
<g id="edge47_Node000001_Node000045" class="edge">
<title>Node1&#45;&gt;Node45</title>
<g id="a_edge47_Node000001_Node000045"><a xlink:title=" ">
<path fill="none" stroke="#63b8ff" d="M609.01,-609.01C554.3,-596.76 479.74,-580.08 433.86,-569.81"/>
<polygon fill="#63b8ff" stroke="#63b8ff" points="434.48,-566.37 423.96,-567.6 432.96,-573.2 434.48,-566.37"/>
</a>
</g>
</g>
<!-- Node46 -->
<g id="Node000046" class="node">
<title>Node46</title>
<g id="a_Node000046"><a xlink:href="pointer__expr_8h.html" target="_top" xlink:title="API to expression classes for Pointers.">
<polygon fill="white" stroke="#666666" points="399.24,-514 313.24,-514 313.24,-495 399.24,-495 399.24,-514"/>
<text text-anchor="middle" x="356.24" y="-502" font-family="Helvetica,sans-Serif" font-size="10.00">pointer_expr.h</text>
</a>
</g>
</g>
<!-- Node1&#45;&gt;Node46 -->
<g id="edge57_Node000001_Node000046" class="edge">
<title>Node1&#45;&gt;Node46</title>
<g id="a_edge57_Node000001_Node000046"><a xlink:title=" ">
<path fill="none" stroke="#63b8ff" d="M609.04,-622.85C523.02,-619.16 383.57,-607.27 351.24,-569 340.78,-556.61 343.94,-537.58 348.56,-523.59"/>
<polygon fill="#63b8ff" stroke="#63b8ff" points="351.9,-524.65 352.16,-514.05 345.35,-522.17 351.9,-524.65"/>
</a>
</g>
</g>
<!-- Node48 -->
<g id="Node000048" class="node">
<title>Node48</title>
<g id="a_Node000048"><a xlink:href="cprover__prefix_8h.html" target="_top" xlink:title=" ">
<polygon fill="white" stroke="#666666" points="1078.74,-569 983.74,-569 983.74,-550 1078.74,-550 1078.74,-569"/>
<text text-anchor="middle" x="1031.24" y="-557" font-family="Helvetica,sans-Serif" font-size="10.00">cprover_prefix.h</text>
</a>
</g>
</g>
<!-- Node1&#45;&gt;Node48 -->
<g id="edge53_Node000001_Node000048" class="edge">
<title>Node1&#45;&gt;Node48</title>
<g id="a_edge53_Node000001_Node000048"><a xlink:title=" ">
<path fill="none" stroke="#63b8ff" d="M747.56,-611.93C813.85,-599.91 912.59,-582.01 974.38,-570.81"/>
<polygon fill="#63b8ff" stroke="#63b8ff" points="975.13,-574.23 984.34,-569 973.88,-567.34 975.13,-574.23"/>
</a>
</g>
</g>
<!-- Node49 -->
<g id="Node000049" class="node">
<title>Node49</title>
<g id="a_Node000049"><a xlink:href="namespace_8h.html" target="_top" xlink:title=" ">
<polygon fill="white" stroke="#666666" points="1014.24,-184 932.24,-184 932.24,-165 1014.24,-165 1014.24,-184"/>
<text text-anchor="middle" x="973.24" y="-172" font-family="Helvetica,sans-Serif" font-size="10.00">namespace.h</text>
</a>
</g>
</g>
<!-- Node1&#45;&gt;Node49 -->
<g id="edge54_Node000001_Node000049" class="edge">
<title>Node1&#45;&gt;Node49</title>
<g id="a_edge54_Node000001_Node000049"><a xlink:title=" ">
<path fill="none" stroke="#63b8ff" d="M747.43,-623.59C829.47,-618.43 955.24,-595.79 955.24,-505.5 955.24,-505.5 955.24,-505.5 955.24,-283.5 955.24,-251.61 962.97,-215.14 968.3,-193.78"/>
<polygon fill="#63b8ff" stroke="#63b8ff" points="971.69,-194.66 970.82,-184.1 964.92,-192.9 971.69,-194.66"/>
</a>
</g>
</g>
<!-- Node50 -->
<g id="Node000050" class="node">
<title>Node50</title>
<g id="a_Node000050"><a xlink:href="pointer__offset__size_8h.html" target="_top" xlink:title="Pointer Logic.">
<polygon fill="white" stroke="#666666" points="927.24,-404 809.24,-404 809.24,-385 927.24,-385 927.24,-404"/>
<text text-anchor="middle" x="868.24" y="-392" font-family="Helvetica,sans-Serif" font-size="10.00">pointer_offset_size.h</text>
</a>
</g>
</g>
<!-- Node1&#45;&gt;Node50 -->
<g id="edge58_Node000001_Node000050" class="edge">
<title>Node1&#45;&gt;Node50</title>
<g id="a_edge58_Node000001_Node000050"><a xlink:title=" ">
<path fill="none" stroke="#63b8ff" d="M713.34,-604.9C728.55,-595.33 745.9,-582.89 759.24,-569 806.4,-519.93 843.94,-447.32 859.91,-413.74"/>
<polygon fill="#63b8ff" stroke="#63b8ff" points="863.26,-414.84 864.32,-404.3 856.92,-411.88 863.26,-414.84"/>
</a>
</g>
</g>
<!-- Node51 -->
<g id="Node000051" class="node">
<title>Node51</title>
<g id="a_Node000051"><a xlink:href="symbol_8h.html" target="_top" xlink:title="Symbol table entry.">
<polygon fill="white" stroke="#666666" points="717.24,-349 655.24,-349 655.24,-330 717.24,-330 717.24,-349"/>
<text text-anchor="middle" x="686.24" y="-337" font-family="Helvetica,sans-Serif" font-size="10.00">symbol.h</text>
</a>
</g>
</g>
<!-- Node1&#45;&gt;Node51 -->
<g id="edge63_Node000001_Node000051" class="edge">
<title>Node1&#45;&gt;Node51</title>
<g id="a_edge63_Node000001_Node000051"><a xlink:title=" ">
<path fill="none" stroke="#63b8ff" d="M689.68,-604.96C701.53,-583.49 719.26,-547.58 726.24,-514 738.11,-456.9 710.76,-389.72 695.55,-358.34"/>
<polygon fill="#63b8ff" stroke="#63b8ff" points="698.55,-356.51 690.93,-349.14 692.29,-359.64 698.55,-356.51"/>
</a>
</g>
</g>
<!-- Node2&#45;&gt;Node3 -->
<g id="edge2_Node000002_Node000003" class="edge">
<title>Node2&#45;&gt;Node3</title>
<g id="a_edge2_Node000002_Node000003"><a xlink:title=" ">
<path fill="none" stroke="#63b8ff" d="M543.32,-494.98C523.19,-486.38 491.86,-472.99 468.83,-463.15"/>
<polygon fill="#63b8ff" stroke="#63b8ff" points="470.1,-459.88 459.53,-459.17 467.35,-466.32 470.1,-459.88"/>
</a>
</g>
</g>
<!-- Node4 -->
<g id="Node000004" class="node">
<title>Node4</title>
<g id="a_Node000004"><a xlink:href="expr__cast_8h.html" target="_top" xlink:title="Templated functions to cast to specific exprt&#45;derived classes.">
<polygon fill="white" stroke="#666666" points="297.74,-349 224.74,-349 224.74,-330 297.74,-330 297.74,-349"/>
<text text-anchor="middle" x="261.24" y="-337" font-family="Helvetica,sans-Serif" font-size="10.00">expr_cast.h</text>
</a>
</g>
</g>
<!-- Node3&#45;&gt;Node4 -->
<g id="edge3_Node000003_Node000004" class="edge">
<title>Node3&#45;&gt;Node4</title>
<g id="a_edge3_Node000003_Node000004"><a xlink:title=" ">
<path fill="none" stroke="#63b8ff" d="M425.95,-439.92C406.72,-427.56 369.99,-404.15 338.24,-385 320.62,-374.37 300.46,-362.74 285.2,-354.04"/>
<polygon fill="#63b8ff" stroke="#63b8ff" points="286.81,-350.93 276.39,-349.03 283.36,-357.02 286.81,-350.93"/>
</a>
</g>
</g>
<!-- Node8 -->
<g id="Node000008" class="node">
<title>Node8</title>
<g id="a_Node000008"><a xlink:href="src_2util_2invariant_8h.html" target="_top" xlink:title=" ">
<polygon fill="white" stroke="#666666" points="608.74,-74 539.74,-74 539.74,-55 608.74,-55 608.74,-74"/>
<text text-anchor="middle" x="574.24" y="-62" font-family="Helvetica,sans-Serif" font-size="10.00">invariant.h</text>
</a>
</g>
</g>
<!-- Node3&#45;&gt;Node8 -->
<g id="edge31_Node000003_Node000008" class="edge">
<title>Node3&#45;&gt;Node8</title>
<g id="a_edge31_Node000003_Node000008"><a xlink:title=" ">
<path fill="none" stroke="#63b8ff" d="M455.7,-439.97C483.37,-424.3 536.24,-388.13 536.24,-340.5 536.24,-340.5 536.24,-340.5 536.24,-173.5 536.24,-140.02 552.69,-103.84 563.95,-83.01"/>
<polygon fill="#63b8ff" stroke="#63b8ff" points="567.11,-84.53 568.96,-74.1 561.01,-81.1 567.11,-84.53"/>
</a>
</g>
</g>
<!-- Node40 -->
<g id="Node000040" class="node">
<title>Node40</title>
<g id="a_Node000040"><a xlink:href="std__types_8h.html" target="_top" xlink:title="Pre&#45;defined types.">
<polygon fill="white" stroke="#666666" points="329.74,-404 256.74,-404 256.74,-385 329.74,-385 329.74,-404"/>
<text text-anchor="middle" x="293.24" y="-392" font-family="Helvetica,sans-Serif" font-size="10.00">std_types.h</text>
</a>
</g>
</g>
<!-- Node3&#45;&gt;Node40 -->
<g id="edge32_Node000003_Node000040" class="edge">
<title>Node3&#45;&gt;Node40</title>
<g id="a_edge32_Node000003_Node000040"><a xlink:title=" ">
<path fill="none" stroke="#63b8ff" d="M415.79,-439.98C391.66,-431.23 353.88,-417.51 326.64,-407.62"/>
<polygon fill="#63b8ff" stroke="#63b8ff" points="327.72,-404.29 317.13,-404.17 325.33,-410.87 327.72,-404.29"/>
</a>
</g>
</g>
<!-- Node5 -->
<g id="Node000005" class="node">
<title>Node5</title>
<g id="a_Node000005"><a xlink:title=" ">
<polygon fill="#e0e0e0" stroke="#999999" points="252.74,-294 195.74,-294 195.74,-275 252.74,-275 252.74,-294"/>
<text text-anchor="middle" x="224.24" y="-282" font-family="Helvetica,sans-Serif" font-size="10.00">typeinfo</text>
</a>
</g>
</g>
<!-- Node4&#45;&gt;Node5 -->
<g id="edge4_Node000004_Node000005" class="edge">
<title>Node4&#45;&gt;Node5</title>
<g id="a_edge4_Node000004_Node000005"><a xlink:title=" ">
<path fill="none" stroke="#63b8ff" d="M255.13,-329.75C249.96,-322.34 242.4,-311.5 236.05,-302.41"/>
<polygon fill="#63b8ff" stroke="#63b8ff" points="238.83,-300.29 230.24,-294.09 233.09,-304.29 238.83,-300.29"/>
</a>
</g>
</g>
<!-- Node6 -->
<g id="Node000006" class="node">
<title>Node6</title>
<g id="a_Node000006"><a xlink:title=" ">
<polygon fill="#e0e0e0" stroke="#999999" points="100.74,-19 31.74,-19 31.74,0 100.74,0 100.74,-19"/>
<text text-anchor="middle" x="66.24" y="-7" font-family="Helvetica,sans-Serif" font-size="10.00">type_traits</text>
</a>
</g>
</g>
<!-- Node4&#45;&gt;Node6 -->
<g id="edge5_Node000004_Node000006" class="edge">
<title>Node4&#45;&gt;Node6</title>
<g id="a_edge5_Node000004_Node000006"><a xlink:title=" ">
<path fill="none" stroke="#63b8ff" d="M228.52,-329.9C168.35,-313.34 44.11,-275.45 20.24,-239 -24.49,-170.67 29.9,-68.06 54.92,-27.69"/>
<polygon fill="#63b8ff" stroke="#63b8ff" points="57.89,-29.55 60.31,-19.23 51.99,-25.79 57.89,-29.55"/>
</a>
</g>
</g>
<!-- Node7 -->
<g id="Node000007" class="node">
<title>Node7</title>
<g id="a_Node000007"><a xlink:title=" ">
<polygon fill="#e0e0e0" stroke="#999999" points="94.74,-239 29.74,-239 29.74,-220 94.74,-220 94.74,-239"/>
<text text-anchor="middle" x="62.24" y="-227" font-family="Helvetica,sans-Serif" font-size="10.00">functional</text>
</a>
</g>
</g>
<!-- Node4&#45;&gt;Node7 -->
<g id="edge6_Node000004_Node000007" class="edge">
<title>Node4&#45;&gt;Node7</title>
<g id="a_edge6_Node000004_Node000007"><a xlink:title=" ">
<path fill="none" stroke="#63b8ff" d="M245.3,-329.84C210.64,-311.04 128.27,-266.33 86.88,-243.87"/>
<polygon fill="#63b8ff" stroke="#63b8ff" points="88.45,-240.74 77.99,-239.05 85.11,-246.89 88.45,-240.74"/>
</a>
</g>
</g>
<!-- Node4&#45;&gt;Node8 -->
<g id="edge7_Node000004_Node000008" class="edge">
<title>Node4&#45;&gt;Node8</title>
<g id="a_edge7_Node000004_Node000008"><a xlink:title=" ">
<path fill="none" stroke="#63b8ff" d="M297.76,-337.93C364.24,-334.75 498.24,-317.54 498.24,-230.5 498.24,-230.5 498.24,-230.5 498.24,-173.5 498.24,-143.33 504.91,-134.69 522.24,-110 530.35,-98.45 542.13,-88.04 552.42,-80.2"/>
<polygon fill="#63b8ff" stroke="#63b8ff" points="554.58,-82.96 560.61,-74.25 550.46,-77.3 554.58,-82.96"/>
</a>
</g>
</g>
<!-- Node12 -->
<g id="Node000012" class="node">
<title>Node12</title>
<g id="a_Node000012"><a xlink:href="expr_8h.html" target="_top" xlink:title=" ">
<polygon fill="white" stroke="#666666" points="317.74,-294 270.74,-294 270.74,-275 317.74,-275 317.74,-294"/>
<text text-anchor="middle" x="294.24" y="-282" font-family="Helvetica,sans-Serif" font-size="10.00">expr.h</text>
</a>
</g>
</g>
<!-- Node4&#45;&gt;Node12 -->
<g id="edge12_Node000004_Node000012" class="edge">
<title>Node4&#45;&gt;Node12</title>
<g id="a_edge12_Node000004_Node000012"><a xlink:title=" ">
<path fill="none" stroke="#63b8ff" d="M266.69,-329.75C271.26,-322.42 277.91,-311.73 283.54,-302.7"/>
<polygon fill="#63b8ff" stroke="#63b8ff" points="286.58,-304.43 288.9,-294.09 280.64,-300.73 286.58,-304.43"/>
</a>
</g>
</g>
<!-- Node8&#45;&gt;Node6 -->
<g id="edge11_Node000008_Node000006" class="edge">
<title>Node8&#45;&gt;Node6</title>
<g id="a_edge11_Node000008_Node000006"><a xlink:title=" ">
<path fill="none" stroke="#63b8ff" d="M539.73,-59.9C450.22,-50.56 210.68,-25.57 110.87,-15.16"/>
<polygon fill="#63b8ff" stroke="#63b8ff" points="111.12,-11.66 100.81,-14.11 110.39,-18.63 111.12,-11.66"/>
</a>
</g>
</g>
<!-- Node9 -->
<g id="Node000009" class="node">
<title>Node9</title>
<g id="a_Node000009"><a xlink:title=" ">
<polygon fill="#e0e0e0" stroke="#999999" points="562.74,-19 513.74,-19 513.74,0 562.74,0 562.74,-19"/>
<text text-anchor="middle" x="538.24" y="-7" font-family="Helvetica,sans-Serif" font-size="10.00">cstdlib</text>
</a>
</g>
</g>
<!-- Node8&#45;&gt;Node9 -->
<g id="edge8_Node000008_Node000009" class="edge">
<title>Node8&#45;&gt;Node9</title>
<g id="a_edge8_Node000008_Node000009"><a xlink:title=" ">
<path fill="none" stroke="#63b8ff" d="M568.3,-54.75C563.27,-47.34 555.91,-36.5 549.73,-27.41"/>
<polygon fill="#63b8ff" stroke="#63b8ff" points="552.59,-25.39 544.08,-19.09 546.8,-29.33 552.59,-25.39"/>
</a>
</g>
</g>
<!-- Node10 -->
<g id="Node000010" class="node">
<title>Node10</title>
<g id="a_Node000010"><a xlink:title=" ">
<polygon fill="#e0e0e0" stroke="#999999" points="637.24,-19 581.24,-19 581.24,0 637.24,0 637.24,-19"/>
<text text-anchor="middle" x="609.24" y="-7" font-family="Helvetica,sans-Serif" font-size="10.00">sstream</text>
</a>
</g>
</g>
<!-- Node8&#45;&gt;Node10 -->
<g id="edge9_Node000008_Node000010" class="edge">
<title>Node8&#45;&gt;Node10</title>
<g id="a_edge9_Node000008_Node000010"><a xlink:title=" ">
<path fill="none" stroke="#63b8ff" d="M580.02,-54.75C584.87,-47.42 591.92,-36.73 597.89,-27.7"/>
<polygon fill="#63b8ff" stroke="#63b8ff" points="600.98,-29.36 603.57,-19.09 595.14,-25.5 600.98,-29.36"/>
</a>
</g>
</g>
<!-- Node11 -->
<g id="Node000011" class="node">
<title>Node11</title>
<g id="a_Node000011"><a xlink:title=" ">
<polygon fill="#e0e0e0" stroke="#999999" points="837.24,-19 793.24,-19 793.24,0 837.24,0 837.24,-19"/>
<text text-anchor="middle" x="815.24" y="-7" font-family="Helvetica,sans-Serif" font-size="10.00">string</text>
</a>
</g>
</g>
<!-- Node8&#45;&gt;Node11 -->
<g id="edge10_Node000008_Node000011" class="edge">
<title>Node8&#45;&gt;Node11</title>
<g id="a_edge10_Node000008_Node000011"><a xlink:title=" ">
<path fill="none" stroke="#63b8ff" d="M608.77,-55.91C655.38,-45.66 737.8,-27.53 783.13,-17.56"/>
<polygon fill="#63b8ff" stroke="#63b8ff" points="784,-20.96 793.01,-15.39 782.49,-14.12 784,-20.96"/>
</a>
</g>
</g>
<!-- Node12&#45;&gt;Node7 -->
<g id="edge30_Node000012_Node000007" class="edge">
<title>Node12&#45;&gt;Node7</title>
<g id="a_edge30_Node000012_Node000007"><a xlink:title=" ">
<path fill="none" stroke="#63b8ff" d="M270.47,-277.28C267.37,-276.5 264.24,-275.72 261.24,-275 207.57,-262.09 145.46,-248.4 105.09,-239.67"/>
<polygon fill="#63b8ff" stroke="#63b8ff" points="105.58,-236.19 95.07,-237.5 104.1,-243.03 105.58,-236.19"/>
</a>
</g>
</g>
<!-- Node13 -->
<g id="Node000013" class="node">
<title>Node13</title>
<g id="a_Node000013"><a xlink:href="as__const_8h.html" target="_top" xlink:title=" ">
<polygon fill="white" stroke="#666666" points="432.24,-239 364.24,-239 364.24,-220 432.24,-220 432.24,-239"/>
<text text-anchor="middle" x="398.24" y="-227" font-family="Helvetica,sans-Serif" font-size="10.00">as_const.h</text>
</a>
</g>
</g>
<!-- Node12&#45;&gt;Node13 -->
<g id="edge13_Node000012_Node000013" class="edge">
<title>Node12&#45;&gt;Node13</title>
<g id="a_edge13_Node000012_Node000013"><a xlink:title=" ">
<path fill="none" stroke="#63b8ff" d="M310.95,-274.98C327.46,-266.57 352.94,-253.59 372.12,-243.81"/>
<polygon fill="#63b8ff" stroke="#63b8ff" points="373.91,-246.83 381.23,-239.17 370.73,-240.59 373.91,-246.83"/>
</a>
</g>
</g>
<!-- Node14 -->
<g id="Node000014" class="node">
<title>Node14</title>
<g id="a_Node000014"><a xlink:href="type_8h.html" target="_top" xlink:title="Defines typet, type_with_subtypet and type_with_subtypest.">
<polygon fill="white" stroke="#666666" points="198.74,-239 151.74,-239 151.74,-220 198.74,-220 198.74,-239"/>
<text text-anchor="middle" x="175.24" y="-227" font-family="Helvetica,sans-Serif" font-size="10.00">type.h</text>
</a>
</g>
</g>
<!-- Node12&#45;&gt;Node14 -->
<g id="edge14_Node000012_Node000014" class="edge">
<title>Node12&#45;&gt;Node14</title>
<g id="a_edge14_Node000012_Node000014"><a xlink:title=" ">
<path fill="none" stroke="#63b8ff" d="M275.12,-274.98C255.89,-266.42 226.01,-253.11 203.94,-243.28"/>
<polygon fill="#63b8ff" stroke="#63b8ff" points="205.27,-240.04 194.71,-239.17 202.42,-246.44 205.27,-240.04"/>
</a>
</g>
</g>
<!-- Node37 -->
<g id="Node000037" class="node">
<title>Node37</title>
<g id="a_Node000037"><a xlink:href="validation__mode_8h.html" target="_top" xlink:title=" ">
<polygon fill="white" stroke="#666666" points="201.74,-129 94.74,-129 94.74,-110 201.74,-110 201.74,-129"/>
<text text-anchor="middle" x="148.24" y="-117" font-family="Helvetica,sans-Serif" font-size="10.00">validation_mode.h</text>
</a>
</g>
</g>
<!-- Node12&#45;&gt;Node37 -->
<g id="edge29_Node000012_Node000037" class="edge">
<title>Node12&#45;&gt;Node37</title>
<g id="a_edge29_Node000012_Node000037"><a xlink:title=" ">
<path fill="none" stroke="#63b8ff" d="M270.58,-277.37C228.85,-266.44 146.18,-244.25 142.24,-239 120.2,-209.57 131.81,-163.57 140.87,-138.41"/>
<polygon fill="#63b8ff" stroke="#63b8ff" points="144.16,-139.61 144.48,-129.02 137.62,-137.09 144.16,-139.61"/>
</a>
</g>
</g>
<!-- Node38 -->
<g id="Node000038" class="node">
<title>Node38</title>
<g id="a_Node000038"><a xlink:href="validate__types_8h.html" target="_top" xlink:title=" ">
<polygon fill="white" stroke="#666666" points="382.24,-184 284.24,-184 284.24,-165 382.24,-165 382.24,-184"/>
<text text-anchor="middle" x="333.24" y="-172" font-family="Helvetica,sans-Serif" font-size="10.00">validate_types.h</text>
</a>
</g>
</g>
<!-- Node12&#45;&gt;Node38 -->
<g id="edge28_Node000012_Node000038" class="edge">
<title>Node12&#45;&gt;Node38</title>
<g id="a_edge28_Node000012_Node000038"><a xlink:title=" ">
<path fill="none" stroke="#63b8ff" d="M317.86,-284.25C351.59,-283.88 412.64,-277.54 441.24,-239 460.02,-213.69 422.96,-196.69 387.24,-186.7"/>
<polygon fill="#63b8ff" stroke="#63b8ff" points="387.81,-183.23 377.25,-184.07 386.03,-190 387.81,-183.23"/>
</a>
</g>
</g>
<!-- Node39 -->
<g id="Node000039" class="node">
<title>Node39</title>
<g id="a_Node000039"><a xlink:href="validate__expressions_8h.html" target="_top" xlink:title=" ">
<polygon fill="white" stroke="#666666" points="345.74,-239 216.74,-239 216.74,-220 345.74,-220 345.74,-239"/>
<text text-anchor="middle" x="281.24" y="-227" font-family="Helvetica,sans-Serif" font-size="10.00">validate_expressions.h</text>
</a>
</g>
</g>
<!-- Node12&#45;&gt;Node39 -->
<g id="edge27_Node000012_Node000039" class="edge">
<title>Node12&#45;&gt;Node39</title>
<g id="a_edge27_Node000012_Node000039"><a xlink:title=" ">
<path fill="none" stroke="#63b8ff" d="M292.1,-274.75C290.37,-267.72 287.9,-257.62 285.74,-248.84"/>
<polygon fill="#63b8ff" stroke="#63b8ff" points="289.13,-247.97 283.35,-239.09 282.33,-249.63 289.13,-247.97"/>
</a>
</g>
</g>
<!-- Node15 -->
<g id="Node000015" class="node">
<title>Node15</title>
<g id="a_Node000015"><a xlink:href="source__location_8h.html" target="_top" xlink:title=" ">
<polygon fill="white" stroke="#666666" points="826.24,-184 724.24,-184 724.24,-165 826.24,-165 826.24,-184"/>
<text text-anchor="middle" x="775.24" y="-172" font-family="Helvetica,sans-Serif" font-size="10.00">source_location.h</text>
</a>
</g>
</g>
<!-- Node14&#45;&gt;Node15 -->
<g id="edge15_Node000014_Node000015" class="edge">
<title>Node14&#45;&gt;Node15</title>
<g id="a_edge15_Node000014_Node000015"><a xlink:title=" ">
<path fill="none" stroke="#63b8ff" d="M198.9,-221.7C201.7,-221.05 204.52,-220.46 207.24,-220 389.84,-188.86 609.23,-179.47 713.88,-176.67"/>
<polygon fill="#63b8ff" stroke="#63b8ff" points="714.04,-180.16 723.95,-176.41 713.86,-173.17 714.04,-180.16"/>
</a>
</g>
</g>
<!-- Node35 -->
<g id="Node000035" class="node">
<title>Node35</title>
<g id="a_Node000035"><a xlink:href="validate_8h.html" target="_top" xlink:title=" ">
<polygon fill="#fff0f0" stroke="red" points="94.74,-184 29.74,-184 29.74,-165 94.74,-165 94.74,-184"/>
<text text-anchor="middle" x="62.24" y="-172" font-family="Helvetica,sans-Serif" font-size="10.00">validate.h</text>
</a>
</g>
</g>
<!-- Node14&#45;&gt;Node35 -->
<g id="edge22_Node000014_Node000035" class="edge">
<title>Node14&#45;&gt;Node35</title>
<g id="a_edge22_Node000014_Node000035"><a xlink:title=" ">
<path fill="none" stroke="#63b8ff" d="M157.09,-219.98C138.99,-211.5 110.96,-198.35 90.06,-188.54"/>
<polygon fill="#63b8ff" stroke="#63b8ff" points="91.27,-185.25 80.73,-184.17 88.3,-191.59 91.27,-185.25"/>
</a>
</g>
</g>
<!-- Node14&#45;&gt;Node37 -->
<g id="edge26_Node000014_Node000037" class="edge">
<title>Node14&#45;&gt;Node37</title>
<g id="a_edge26_Node000014_Node000037"><a xlink:title=" ">
<path fill="none" stroke="#63b8ff" d="M173.03,-219.66C168.64,-202.09 158.73,-162.45 152.86,-138.95"/>
<polygon fill="#63b8ff" stroke="#63b8ff" points="156.23,-138.01 150.41,-129.16 149.44,-139.71 156.23,-138.01"/>
</a>
</g>
</g>
<!-- Node14&#45;&gt;Node38 -->
<g id="edge25_Node000014_Node000038" class="edge">
<title>Node14&#45;&gt;Node38</title>
<g id="a_edge25_Node000014_Node000038"><a xlink:title=" ">
<path fill="none" stroke="#63b8ff" d="M198.9,-220.57C225.2,-211.74 267.93,-197.41 298.14,-187.28"/>
<polygon fill="#63b8ff" stroke="#63b8ff" points="299.49,-190.51 307.86,-184.02 297.26,-183.88 299.49,-190.51"/>
</a>
</g>
</g>
<!-- Node15&#45;&gt;Node11 -->
<g id="edge21_Node000015_Node000011" class="edge">
<title>Node15&#45;&gt;Node11</title>
<g id="a_edge21_Node000015_Node000011"><a xlink:title=" ">
<path fill="none" stroke="#63b8ff" d="M777.39,-164.74C783.66,-139.2 802.01,-64.43 810.65,-29.23"/>
<polygon fill="#63b8ff" stroke="#63b8ff" points="814.1,-29.85 813.08,-19.31 807.3,-28.18 814.1,-29.85"/>
</a>
</g>
</g>
<!-- Node16 -->
<g id="Node000016" class="node">
<title>Node16</title>
<g id="a_Node000016"><a xlink:href="deprecate_8h.html" target="_top" xlink:title=" ">
<polygon fill="white" stroke="#666666" points="738.24,-129 664.24,-129 664.24,-110 738.24,-110 738.24,-129"/>
<text text-anchor="middle" x="701.24" y="-117" font-family="Helvetica,sans-Serif" font-size="10.00">deprecate.h</text>
</a>
</g>
</g>
<!-- Node15&#45;&gt;Node16 -->
<g id="edge16_Node000015_Node000016" class="edge">
<title>Node15&#45;&gt;Node16</title>
<g id="a_edge16_Node000015_Node000016"><a xlink:title=" ">
<path fill="none" stroke="#63b8ff" d="M763.35,-164.98C752.09,-156.92 734.96,-144.65 721.53,-135.03"/>
<polygon fill="#63b8ff" stroke="#63b8ff" points="723.52,-132.15 713.35,-129.17 719.44,-137.84 723.52,-132.15"/>
</a>
</g>
</g>
<!-- Node17 -->
<g id="Node000017" class="node">
<title>Node17</title>
<g id="a_Node000017"><a xlink:href="irep_8h.html" target="_top" xlink:title=" ">
<polygon fill="#fff0f0" stroke="red" points="921.24,-129 877.24,-129 877.24,-110 921.24,-110 921.24,-129"/>
<text text-anchor="middle" x="899.24" y="-117" font-family="Helvetica,sans-Serif" font-size="10.00">irep.h</text>
</a>
</g>
</g>
<!-- Node15&#45;&gt;Node17 -->
<g id="edge17_Node000015_Node000017" class="edge">
<title>Node15&#45;&gt;Node17</title>
<g id="a_edge17_Node000015_Node000017"><a xlink:title=" ">
<path fill="none" stroke="#63b8ff" d="M795.17,-164.98C815.29,-156.38 846.62,-142.99 869.65,-133.15"/>
<polygon fill="#63b8ff" stroke="#63b8ff" points="871.14,-136.32 878.96,-129.17 868.39,-129.88 871.14,-136.32"/>
</a>
</g>
</g>
<!-- Node34 -->
<g id="Node000034" class="node">
<title>Node34</title>
<g id="a_Node000034"><a xlink:title=" ">
<polygon fill="#e0e0e0" stroke="#999999" points="859.24,-129 803.24,-129 803.24,-110 859.24,-110 859.24,-129"/>
<text text-anchor="middle" x="831.24" y="-117" font-family="Helvetica,sans-Serif" font-size="10.00">optional</text>
</a>
</g>
</g>
<!-- Node15&#45;&gt;Node34 -->
<g id="edge20_Node000015_Node000034" class="edge">
<title>Node15&#45;&gt;Node34</title>
<g id="a_edge20_Node000015_Node000034"><a xlink:title=" ">
<path fill="none" stroke="#63b8ff" d="M784.24,-164.98C792.44,-157.23 804.75,-145.58 814.72,-136.14"/>
<polygon fill="#63b8ff" stroke="#63b8ff" points="817.23,-138.59 822.08,-129.17 812.41,-133.5 817.23,-138.59"/>
</a>
</g>
</g>
<!-- Node17&#45;&gt;Node8 -->
<g id="edge19_Node000017_Node000008" class="edge">
<title>Node17&#45;&gt;Node8</title>
<g id="a_edge19_Node000017_Node000008"><a xlink:title=" ">
<path fill="none" stroke="#63b8ff" d="M876.97,-112.06C874.05,-111.31 871.08,-110.6 868.24,-110 780.77,-91.45 677.07,-77.63 619.15,-70.63"/>
<polygon fill="#63b8ff" stroke="#63b8ff" points="619.22,-67.12 608.88,-69.41 618.39,-74.07 619.22,-67.12"/>
</a>
</g>
</g>
<!-- Node17&#45;&gt;Node11 -->
<g id="edge18_Node000017_Node000011" class="edge">
<title>Node17&#45;&gt;Node11</title>
<g id="a_edge18_Node000017_Node000011"><a xlink:title=" ">
<path fill="none" stroke="#63b8ff" d="M892.37,-109.66C878.33,-91.61 846.18,-50.28 828.14,-27.08"/>
<polygon fill="#63b8ff" stroke="#63b8ff" points="830.88,-24.9 821.98,-19.16 825.35,-29.2 830.88,-24.9"/>
</a>
</g>
</g>
<!-- Node35&#45;&gt;Node6 -->
<g id="edge23_Node000035_Node000006" class="edge">
<title>Node35&#45;&gt;Node6</title>
<g id="a_edge23_Node000035_Node000006"><a xlink:title=" ">
<path fill="none" stroke="#63b8ff" d="M62.46,-164.74C63.08,-139.31 64.9,-65.08 65.77,-29.69"/>
<polygon fill="#63b8ff" stroke="#63b8ff" points="69.28,-29.39 66.03,-19.31 62.28,-29.22 69.28,-29.39"/>
</a>
</g>
</g>
<!-- Node35&#45;&gt;Node37 -->
<g id="edge24_Node000035_Node000037" class="edge">
<title>Node35&#45;&gt;Node37</title>
<g id="a_edge24_Node000035_Node000037"><a xlink:title=" ">
<path fill="none" stroke="#63b8ff" d="M76.06,-164.98C89.4,-156.77 109.82,-144.18 125.55,-134.49"/>
<polygon fill="#63b8ff" stroke="#63b8ff" points="127.5,-137.4 134.18,-129.17 123.83,-131.44 127.5,-137.4"/>
</a>
</g>
</g>
<!-- Node40&#45;&gt;Node4 -->
<g id="edge34_Node000040_Node000004" class="edge">
<title>Node40&#45;&gt;Node4</title>
<g id="a_edge34_Node000040_Node000004"><a xlink:title=" ">
<path fill="none" stroke="#63b8ff" d="M287.96,-384.75C283.53,-377.42 277.08,-366.73 271.63,-357.7"/>
<polygon fill="#63b8ff" stroke="#63b8ff" points="274.59,-355.84 266.43,-349.09 268.6,-359.46 274.59,-355.84"/>
</a>
</g>
</g>
<!-- Node40&#45;&gt;Node8 -->
<g id="edge35_Node000040_Node000008" class="edge">
<title>Node40&#45;&gt;Node8</title>
<g id="a_edge35_Node000040_Node000008"><a xlink:title=" ">
<path fill="none" stroke="#63b8ff" d="M256.38,-393.51C210.48,-391.91 131.2,-383.78 74.24,-349 1.51,-304.58 -19.76,-240.25 20.24,-165 38.01,-131.58 50.34,-124.61 85.24,-110 164.78,-76.7 423.98,-68.24 529.22,-66.16"/>
<polygon fill="#63b8ff" stroke="#63b8ff" points="529.58,-69.65 539.51,-65.96 529.44,-62.65 529.58,-69.65"/>
</a>
</g>
</g>
<!-- Node40&#45;&gt;Node12 -->
<g id="edge33_Node000040_Node000012" class="edge">
<title>Node40&#45;&gt;Node12</title>
<g id="a_edge33_Node000040_Node000012"><a xlink:title=" ">
<path fill="none" stroke="#63b8ff" d="M296.59,-384.8C299.8,-375.94 304.42,-361.75 306.24,-349 308.43,-333.71 304.8,-316.5 300.97,-303.86"/>
<polygon fill="#63b8ff" stroke="#63b8ff" points="304.19,-302.46 297.69,-294.09 297.55,-304.68 304.19,-302.46"/>
</a>
</g>
</g>
<!-- Node40&#45;&gt;Node35 -->
<g id="edge40_Node000040_Node000035" class="edge">
<title>Node40&#45;&gt;Node35</title>
<g id="a_edge40_Node000040_Node000035"><a xlink:title=" ">
<path fill="none" stroke="#63b8ff" d="M256.64,-392.12C216.34,-389.05 151.06,-379.34 104.24,-349 52.62,-315.55 39.95,-297.27 20.24,-239 17.54,-231 17.13,-227.85 20.24,-220 24.76,-208.63 33.72,-198.48 42.2,-190.76"/>
<polygon fill="#63b8ff" stroke="#63b8ff" points="44.66,-193.27 50.03,-184.14 40.14,-187.92 44.66,-193.27"/>
</a>
</g>
</g>
<!-- Node41 -->
<g id="Node000041" class="node">
<title>Node41</title>
<g id="a_Node000041"><a xlink:href="mp__arith_8h.html" target="_top" xlink:title=" ">
<polygon fill="white" stroke="#666666" points="819.74,-349 750.74,-349 750.74,-330 819.74,-330 819.74,-349"/>
<text text-anchor="middle" x="785.24" y="-337" font-family="Helvetica,sans-Serif" font-size="10.00">mp_arith.h</text>
</a>
</g>
</g>
<!-- Node40&#45;&gt;Node41 -->
<g id="edge36_Node000040_Node000041" class="edge">
<title>Node40&#45;&gt;Node41</title>
<g id="a_edge36_Node000040_Node000041"><a xlink:title=" ">
<path fill="none" stroke="#63b8ff" d="M329.8,-390.25C404.42,-383.5 579.62,-367.09 726.24,-349 730.94,-348.42 735.84,-347.78 740.72,-347.11"/>
<polygon fill="#63b8ff" stroke="#63b8ff" points="741.23,-350.57 750.65,-345.72 740.26,-343.64 741.23,-350.57"/>
</a>
</g>
</g>
<!-- Node26 -->
<g id="Node000026" class="node">
<title>Node26</title>
<g id="a_Node000026"><a xlink:title=" ">
<polygon fill="#e0e0e0" stroke="#999999" points="206.74,-349 113.74,-349 113.74,-330 206.74,-330 206.74,-349"/>
<text text-anchor="middle" x="160.24" y="-337" font-family="Helvetica,sans-Serif" font-size="10.00">unordered_map</text>
</a>
</g>
</g>
<!-- Node40&#45;&gt;Node26 -->
<g id="edge41_Node000040_Node000026" class="edge">
<title>Node40&#45;&gt;Node26</title>
<g id="a_edge41_Node000040_Node000026"><a xlink:title=" ">
<path fill="none" stroke="#63b8ff" d="M271.88,-384.98C250.09,-376.3 216.08,-362.75 191.32,-352.88"/>
<polygon fill="#63b8ff" stroke="#63b8ff" points="192.59,-349.62 182,-349.17 190,-356.12 192.59,-349.62"/>
</a>
</g>
</g>
<!-- Node41&#45;&gt;Node11 -->
<g id="edge38_Node000041_Node000011" class="edge">
<title>Node41&#45;&gt;Node11</title>
<g id="a_edge38_Node000041_Node000011"><a xlink:title=" ">
<path fill="none" stroke="#63b8ff" d="M819.9,-339.13C890.05,-338.4 1042.24,-325.84 1042.24,-230.5 1042.24,-230.5 1042.24,-230.5 1042.24,-118.5 1042.24,-33.31 910.26,-15.24 847.57,-11.47"/>
<polygon fill="#63b8ff" stroke="#63b8ff" points="847.59,-7.96 837.42,-10.94 847.23,-14.95 847.59,-7.96"/>
</a>
</g>
</g>
<!-- Node21 -->
<g id="Node000021" class="node">
<title>Node21</title>
<g id="a_Node000021"><a xlink:title=" ">
<polygon fill="#e0e0e0" stroke="#999999" points="726.24,-294 678.24,-294 678.24,-275 726.24,-275 726.24,-294"/>
<text text-anchor="middle" x="702.24" y="-282" font-family="Helvetica,sans-Serif" font-size="10.00">iosfwd</text>
</a>
</g>
</g>
<!-- Node41&#45;&gt;Node21 -->
<g id="edge37_Node000041_Node000021" class="edge">
<title>Node41&#45;&gt;Node21</title>
<g id="a_edge37_Node000041_Node000021"><a xlink:title=" ">
<path fill="none" stroke="#63b8ff" d="M771.91,-329.98C759.16,-321.84 739.69,-309.41 724.57,-299.76"/>
<polygon fill="#63b8ff" stroke="#63b8ff" points="726.13,-296.6 715.82,-294.17 722.37,-302.5 726.13,-296.6"/>
</a>
</g>
</g>
<!-- Node42 -->
<g id="Node000042" class="node">
<title>Node42</title>
<g id="a_Node000042"><a xlink:title=" ">
<polygon fill="#e0e0e0" stroke="#999999" points="838.24,-294 744.24,-294 744.24,-275 838.24,-275 838.24,-294"/>
<text text-anchor="middle" x="791.24" y="-282" font-family="Helvetica,sans-Serif" font-size="10.00">big&#45;int/bigint.hh</text>
</a>
</g>
</g>
<!-- Node41&#45;&gt;Node42 -->
<g id="edge39_Node000041_Node000042" class="edge">
<title>Node41&#45;&gt;Node42</title>
<g id="a_edge39_Node000041_Node000042"><a xlink:title=" ">
<path fill="none" stroke="#63b8ff" d="M786.23,-329.75C787.02,-322.8 788.15,-312.85 789.13,-304.13"/>
<polygon fill="#63b8ff" stroke="#63b8ff" points="792.62,-304.42 790.27,-294.09 785.67,-303.63 792.62,-304.42"/>
</a>
</g>
</g>
<!-- Node43&#45;&gt;Node3 -->
<g id="edge45_Node000043_Node000003" class="edge">
<title>Node43&#45;&gt;Node3</title>
<g id="a_edge45_Node000043_Node000003"><a xlink:title=" ">
<path fill="none" stroke="#63b8ff" d="M639.84,-494.98C597,-485.48 527.82,-470.14 482.93,-460.19"/>
<polygon fill="#63b8ff" stroke="#63b8ff" points="483.43,-456.71 472.91,-457.97 481.92,-463.55 483.43,-456.71"/>
</a>
</g>
</g>
<!-- Node43&#45;&gt;Node8 -->
<g id="edge43_Node000043_Node000008" class="edge">
<title>Node43&#45;&gt;Node8</title>
<g id="a_edge43_Node000043_Node000008"><a xlink:title=" ">
<path fill="none" stroke="#63b8ff" d="M670.43,-494.67C646.24,-466.42 574.24,-374.82 574.24,-285.5 574.24,-285.5 574.24,-285.5 574.24,-173.5 574.24,-142.19 574.24,-105.77 574.24,-84.23"/>
<polygon fill="#63b8ff" stroke="#63b8ff" points="577.74,-84.18 574.24,-74.18 570.74,-84.18 577.74,-84.18"/>
</a>
</g>
</g>
<!-- Node43&#45;&gt;Node41 -->
<g id="edge44_Node000043_Node000041" class="edge">
<title>Node43&#45;&gt;Node41</title>
<g id="a_edge44_Node000043_Node000041"><a xlink:title=" ">
<path fill="none" stroke="#63b8ff" d="M684,-494.74C700.98,-468.87 751.12,-392.48 773.83,-357.88"/>
<polygon fill="#63b8ff" stroke="#63b8ff" points="776.9,-359.59 779.46,-349.31 771.05,-355.75 776.9,-359.59"/>
</a>
</g>
</g>
<!-- Node44 -->
<g id="Node000044" class="node">
<title>Node44</title>
<g id="a_Node000044"><a xlink:title=" ">
<polygon fill="#e0e0e0" stroke="#999999" points="584.24,-459 540.24,-459 540.24,-440 584.24,-440 584.24,-459"/>
<text text-anchor="middle" x="562.24" y="-447" font-family="Helvetica,sans-Serif" font-size="10.00">limits</text>
</a>
</g>
</g>
<!-- Node43&#45;&gt;Node44 -->
<g id="edge46_Node000043_Node000044" class="edge">
<title>Node43&#45;&gt;Node44</title>
<g id="a_edge46_Node000043_Node000044"><a xlink:title=" ">
<path fill="none" stroke="#63b8ff" d="M659.61,-494.98C640.95,-486.46 611.99,-473.23 590.5,-463.41"/>
<polygon fill="#63b8ff" stroke="#63b8ff" points="591.77,-460.14 581.22,-459.17 588.86,-466.51 591.77,-460.14"/>
</a>
</g>
</g>
<!-- Node45&#45;&gt;Node16 -->
<g id="edge48_Node000045_Node000016" class="edge">
<title>Node45&#45;&gt;Node16</title>
<g id="a_edge48_Node000045_Node000016"><a xlink:title=" ">
<path fill="none" stroke="#63b8ff" d="M400.37,-549.87C416.37,-532.81 452.96,-493.41 482.24,-459 502.53,-435.16 508.21,-429.59 526.24,-404 594.7,-306.86 666,-183.03 691.48,-137.93"/>
<polygon fill="#63b8ff" stroke="#63b8ff" points="694.6,-139.52 696.45,-129.09 688.5,-136.09 694.6,-139.52"/>
</a>
</g>
</g>
<!-- Node45&#45;&gt;Node46 -->
<g id="edge49_Node000045_Node000046" class="edge">
<title>Node45&#45;&gt;Node46</title>
<g id="a_edge49_Node000045_Node000046"><a xlink:title=" ">
<path fill="none" stroke="#63b8ff" d="M386.3,-549.75C381.27,-542.34 373.91,-531.5 367.73,-522.41"/>
<polygon fill="#63b8ff" stroke="#63b8ff" points="370.59,-520.39 362.08,-514.09 364.8,-524.33 370.59,-520.39"/>
</a>
</g>
</g>
<!-- Node46&#45;&gt;Node3 -->
<g id="edge52_Node000046_Node000003" class="edge">
<title>Node46&#45;&gt;Node3</title>
<g id="a_edge52_Node000046_Node000003"><a xlink:title=" ">
<path fill="none" stroke="#63b8ff" d="M369.58,-494.98C382.33,-486.84 401.8,-474.41 416.91,-464.76"/>
<polygon fill="#63b8ff" stroke="#63b8ff" points="419.12,-467.5 425.67,-459.17 415.35,-461.6 419.12,-467.5"/>
</a>
</g>
</g>
<!-- Node47 -->
<g id="Node000047" class="node">
<title>Node47</title>
<g id="a_Node000047"><a xlink:href="bitvector__types_8h.html" target="_top" xlink:title="Pre&#45;defined bitvector types.">
<polygon fill="white" stroke="#666666" points="357.74,-459 256.74,-459 256.74,-440 357.74,-440 357.74,-459"/>
<text text-anchor="middle" x="307.24" y="-447" font-family="Helvetica,sans-Serif" font-size="10.00">bitvector_types.h</text>
</a>
</g>
</g>
<!-- Node46&#45;&gt;Node47 -->
<g id="edge50_Node000046_Node000047" class="edge">
<title>Node46&#45;&gt;Node47</title>
<g id="a_edge50_Node000046_Node000047"><a xlink:title=" ">
<path fill="none" stroke="#63b8ff" d="M348.15,-494.75C341.09,-487.11 330.66,-475.82 322.1,-466.56"/>
<polygon fill="#63b8ff" stroke="#63b8ff" points="324.54,-464.06 315.18,-459.09 319.4,-468.81 324.54,-464.06"/>
</a>
</g>
</g>
<!-- Node47&#45;&gt;Node40 -->
<g id="edge51_Node000047_Node000040" class="edge">
<title>Node47&#45;&gt;Node40</title>
<g id="a_edge51_Node000047_Node000040"><a xlink:title=" ">
<path fill="none" stroke="#63b8ff" d="M304.93,-439.75C303.08,-432.72 300.41,-422.62 298.09,-413.84"/>
<polygon fill="#63b8ff" stroke="#63b8ff" points="301.45,-412.86 295.51,-404.09 294.68,-414.65 301.45,-412.86"/>
</a>
</g>
</g>
<!-- Node49&#45;&gt;Node8 -->
<g id="edge55_Node000049_Node000008" class="edge">
<title>Node49&#45;&gt;Node8</title>
<g id="a_edge55_Node000049_Node000008"><a xlink:title=" ">
<path fill="none" stroke="#63b8ff" d="M970.09,-164.76C964.49,-150.6 951.36,-122.94 930.24,-110 879,-78.59 702.69,-69.25 619.01,-66.55"/>
<polygon fill="#63b8ff" stroke="#63b8ff" points="618.9,-63.05 608.8,-66.24 618.69,-70.04 618.9,-63.05"/>
</a>
</g>
</g>
<!-- Node49&#45;&gt;Node17 -->
<g id="edge56_Node000049_Node000017" class="edge">
<title>Node49&#45;&gt;Node17</title>
<g id="a_edge56_Node000049_Node000017"><a xlink:title=" ">
<path fill="none" stroke="#63b8ff" d="M961.35,-164.98C950.09,-156.92 932.96,-144.65 919.53,-135.03"/>
<polygon fill="#63b8ff" stroke="#63b8ff" points="921.52,-132.15 911.35,-129.17 917.44,-137.84 921.52,-132.15"/>
</a>
</g>
</g>
<!-- Node50&#45;&gt;Node17 -->
<g id="edge59_Node000050_Node000017" class="edge">
<title>Node50&#45;&gt;Node17</title>
<g id="a_edge59_Node000050_Node000017"><a xlink:title=" ">
<path fill="none" stroke="#63b8ff" d="M873.25,-384.87C883.14,-366.97 904.24,-324.24 904.24,-285.5 904.24,-285.5 904.24,-285.5 904.24,-228.5 904.24,-197.16 902.12,-160.75 900.64,-139.22"/>
<polygon fill="#63b8ff" stroke="#63b8ff" points="904.12,-138.9 899.92,-129.17 897.14,-139.4 904.12,-138.9"/>
</a>
</g>
</g>
<!-- Node50&#45;&gt;Node34 -->
<g id="edge61_Node000050_Node000034" class="edge">
<title>Node50&#45;&gt;Node34</title>
<g id="a_edge61_Node000050_Node000034"><a xlink:title=" ">
<path fill="none" stroke="#63b8ff" d="M867.97,-384.82C867.43,-366.48 866.24,-322.44 866.24,-285.5 866.24,-285.5 866.24,-285.5 866.24,-228.5 866.24,-195.3 851.09,-159.03 840.73,-138.11"/>
<polygon fill="#63b8ff" stroke="#63b8ff" points="843.8,-136.44 836.11,-129.15 837.58,-139.64 843.8,-136.44"/>
</a>
</g>
</g>
<!-- Node50&#45;&gt;Node41 -->
<g id="edge60_Node000050_Node000041" class="edge">
<title>Node50&#45;&gt;Node41</title>
<g id="a_edge60_Node000050_Node000041"><a xlink:title=" ">
<path fill="none" stroke="#63b8ff" d="M854.91,-384.98C842.16,-376.84 822.69,-364.41 807.57,-354.76"/>
<polygon fill="#63b8ff" stroke="#63b8ff" points="809.13,-351.6 798.82,-349.17 805.37,-357.5 809.13,-351.6"/>
</a>
</g>
</g>
<!-- Node51&#45;&gt;Node8 -->
<g id="edge66_Node000051_Node000008" class="edge">
<title>Node51&#45;&gt;Node8</title>
<g id="a_edge66_Node000051_Node000008"><a xlink:title=" ">
<path fill="none" stroke="#63b8ff" d="M682.64,-329.73C666.85,-291.22 603.47,-136.74 581.66,-83.58"/>
<polygon fill="#63b8ff" stroke="#63b8ff" points="584.81,-82.03 577.77,-74.11 578.33,-84.69 584.81,-82.03"/>
</a>
</g>
</g>
<!-- Node51&#45;&gt;Node12 -->
<g id="edge65_Node000051_Node000012" class="edge">
<title>Node51&#45;&gt;Node12</title>
<g id="a_edge65_Node000051_Node000012"><a xlink:title=" ">
<path fill="none" stroke="#63b8ff" d="M655.16,-334.3C582.84,-324.52 403.76,-300.31 328.46,-290.13"/>
<polygon fill="#63b8ff" stroke="#63b8ff" points="328.51,-286.6 318.13,-288.73 327.57,-293.54 328.51,-286.6"/>
</a>
</g>
</g>
<!-- Node51&#45;&gt;Node21 -->
<g id="edge64_Node000051_Node000021" class="edge">
<title>Node51&#45;&gt;Node21</title>
<g id="a_edge64_Node000051_Node000021"><a xlink:title=" ">
<path fill="none" stroke="#63b8ff" d="M688.89,-329.75C691.01,-322.72 694.06,-312.62 696.71,-303.84"/>
<polygon fill="#63b8ff" stroke="#63b8ff" points="700.11,-304.67 699.65,-294.09 693.41,-302.65 700.11,-304.67"/>
</a>
</g>
</g>
</g>
</svg>
