<?xml version="1.0" encoding="UTF-8" standalone="no"?>
<!DOCTYPE svg PUBLIC "-//W3C//DTD SVG 1.1//EN"
 "http://www.w3.org/Graphics/SVG/1.1/DTD/svg11.dtd">
<!-- Generated by graphviz version 2.43.0 (0)
 -->
<!-- Title: /home/runner/work/cbmc/cbmc/src/ansi&#45;c/preprocessor_line.cpp Pages: 1 -->
<svg width="1243pt" height="654pt"
 viewBox="0.00 0.00 1243.00 654.00" xmlns="http://www.w3.org/2000/svg" xmlns:xlink="http://www.w3.org/1999/xlink">
<g id="graph0" class="graph" transform="scale(1 1) rotate(0) translate(4 650)">
<title>/home/runner/work/cbmc/cbmc/src/ansi&#45;c/preprocessor_line.cpp</title>
<!-- Node1 -->
<g id="Node000001" class="node">
<title>Node1</title>
<g id="a_Node000001"><a xlink:title="ANSI&#45;C Language Conversion.">
<polygon fill="#999999" stroke="#666666" points="288.5,-646 127.5,-646 127.5,-605 288.5,-605 288.5,-646"/>
<text text-anchor="start" x="135.5" y="-634" font-family="Helvetica,sans-Serif" font-size="10.00">/home/runner/work/cbmc</text>
<text text-anchor="start" x="135.5" y="-623" font-family="Helvetica,sans-Serif" font-size="10.00">/cbmc/src/ansi&#45;c/preprocessor</text>
<text text-anchor="middle" x="208" y="-612" font-family="Helvetica,sans-Serif" font-size="10.00">_line.cpp</text>
</a>
</g>
</g>
<!-- Node2 -->
<g id="Node000002" class="node">
<title>Node2</title>
<g id="a_Node000002"><a xlink:href="preprocessor__line_8h.html" target="_top" xlink:title="ANSI&#45;C Language Conversion.">
<polygon fill="white" stroke="#666666" points="112,-569 0,-569 0,-550 112,-550 112,-569"/>
<text text-anchor="middle" x="56" y="-557" font-family="Helvetica,sans-Serif" font-size="10.00">preprocessor_line.h</text>
</a>
</g>
</g>
<!-- Node1&#45;&gt;Node2 -->
<g id="edge1_Node000001_Node000002" class="edge">
<title>Node1&#45;&gt;Node2</title>
<g id="a_edge1_Node000001_Node000002"><a xlink:title=" ">
<path fill="none" stroke="#63b8ff" d="M161.57,-604.95C136.89,-594.56 107.28,-582.09 85.7,-573.01"/>
<polygon fill="#63b8ff" stroke="#63b8ff" points="86.98,-569.75 76.41,-569.09 84.26,-576.2 86.98,-569.75"/>
</a>
</g>
</g>
<!-- Node3 -->
<g id="Node000003" class="node">
<title>Node3</title>
<g id="a_Node000003"><a xlink:title=" ">
<polygon fill="#e0e0e0" stroke="#999999" points="179.5,-569 130.5,-569 130.5,-550 179.5,-550 179.5,-569"/>
<text text-anchor="middle" x="155" y="-557" font-family="Helvetica,sans-Serif" font-size="10.00">cctype</text>
</a>
</g>
</g>
<!-- Node1&#45;&gt;Node3 -->
<g id="edge2_Node000001_Node000003" class="edge">
<title>Node1&#45;&gt;Node3</title>
<g id="a_edge2_Node000001_Node000003"><a xlink:title=" ">
<path fill="none" stroke="#63b8ff" d="M191.81,-604.95C184.41,-596.02 175.75,-585.55 168.68,-577.02"/>
<polygon fill="#63b8ff" stroke="#63b8ff" points="171.33,-574.73 162.25,-569.26 165.94,-579.19 171.33,-574.73"/>
</a>
</g>
</g>
<!-- Node4 -->
<g id="Node000004" class="node">
<title>Node4</title>
<g id="a_Node000004"><a xlink:href="string2int_8h.html" target="_top" xlink:title=" ">
<polygon fill="white" stroke="#666666" points="284.5,-184 193.5,-184 193.5,-165 284.5,-165 284.5,-184"/>
<text text-anchor="middle" x="239" y="-172" font-family="Helvetica,sans-Serif" font-size="10.00">util/string2int.h</text>
</a>
</g>
</g>
<!-- Node1&#45;&gt;Node4 -->
<g id="edge3_Node000001_Node000004" class="edge">
<title>Node1&#45;&gt;Node4</title>
<g id="a_edge3_Node000001_Node000004"><a xlink:title=" ">
<path fill="none" stroke="#63b8ff" d="M208,-604.71C208,-581.09 208,-540.41 208,-505.5 208,-505.5 208,-505.5 208,-283.5 208,-250.79 221.3,-214.6 230.48,-193.52"/>
<polygon fill="#63b8ff" stroke="#63b8ff" points="233.75,-194.77 234.69,-184.22 227.37,-191.88 233.75,-194.77"/>
</a>
</g>
</g>
<!-- Node12 -->
<g id="Node000012" class="node">
<title>Node12</title>
<g id="a_Node000012"><a xlink:href="parser_8h.html" target="_top" xlink:title="Parser utilities.">
<polygon fill="white" stroke="#666666" points="949,-569 875,-569 875,-550 949,-550 949,-569"/>
<text text-anchor="middle" x="912" y="-557" font-family="Helvetica,sans-Serif" font-size="10.00">util/parser.h</text>
</a>
</g>
</g>
<!-- Node1&#45;&gt;Node12 -->
<g id="edge14_Node000001_Node000012" class="edge">
<title>Node1&#45;&gt;Node12</title>
<g id="a_edge14_Node000001_Node000012"><a xlink:title=" ">
<path fill="none" stroke="#63b8ff" d="M288.76,-617.16C436.53,-603.72 746.13,-575.58 864.55,-564.81"/>
<polygon fill="#63b8ff" stroke="#63b8ff" points="865.09,-568.28 874.74,-563.89 864.46,-561.31 865.09,-568.28"/>
</a>
</g>
</g>
<!-- Node43 -->
<g id="Node000043" class="node">
<title>Node43</title>
<g id="a_Node000043"><a xlink:href="unescape__string_8h.html" target="_top" xlink:title="ANSI&#45;C Language Conversion.">
<polygon fill="white" stroke="#666666" points="1235,-74 1093,-74 1093,-55 1235,-55 1235,-74"/>
<text text-anchor="middle" x="1164" y="-62" font-family="Helvetica,sans-Serif" font-size="10.00">literals/unescape_string.h</text>
</a>
</g>
</g>
<!-- Node1&#45;&gt;Node43 -->
<g id="edge55_Node000001_Node000043" class="edge">
<title>Node1&#45;&gt;Node43</title>
<g id="a_edge55_Node000001_Node000043"><a xlink:title=" ">
<path fill="none" stroke="#63b8ff" d="M288.76,-622.83C518.62,-617.03 1160,-593 1160,-505.5 1160,-505.5 1160,-505.5 1160,-173.5 1160,-142.17 1161.7,-105.76 1162.89,-84.23"/>
<polygon fill="#63b8ff" stroke="#63b8ff" points="1166.38,-84.36 1163.46,-74.18 1159.4,-83.96 1166.38,-84.36"/>
</a>
</g>
</g>
<!-- Node5 -->
<g id="Node000005" class="node">
<title>Node5</title>
<g id="a_Node000005"><a xlink:href="narrow_8h.html" target="_top" xlink:title=" ">
<polygon fill="white" stroke="#666666" points="400.5,-129 341.5,-129 341.5,-110 400.5,-110 400.5,-129"/>
<text text-anchor="middle" x="371" y="-117" font-family="Helvetica,sans-Serif" font-size="10.00">narrow.h</text>
</a>
</g>
</g>
<!-- Node4&#45;&gt;Node5 -->
<g id="edge4_Node000004_Node000005" class="edge">
<title>Node4&#45;&gt;Node5</title>
<g id="a_edge4_Node000004_Node000005"><a xlink:title=" ">
<path fill="none" stroke="#63b8ff" d="M260.21,-164.98C281.73,-156.34 315.28,-142.87 339.83,-133.02"/>
<polygon fill="#63b8ff" stroke="#63b8ff" points="341.43,-136.14 349.41,-129.17 338.82,-129.65 341.43,-136.14"/>
</a>
</g>
</g>
<!-- Node6 -->
<g id="Node000006" class="node">
<title>Node6</title>
<g id="a_Node000006"><a xlink:title=" ">
<polygon fill="#e0e0e0" stroke="#999999" points="299.5,-19 230.5,-19 230.5,0 299.5,0 299.5,-19"/>
<text text-anchor="middle" x="265" y="-7" font-family="Helvetica,sans-Serif" font-size="10.00">type_traits</text>
</a>
</g>
</g>
<!-- Node4&#45;&gt;Node6 -->
<g id="edge13_Node000004_Node000006" class="edge">
<title>Node4&#45;&gt;Node6</title>
<g id="a_edge13_Node000004_Node000006"><a xlink:title=" ">
<path fill="none" stroke="#63b8ff" d="M235.27,-164.82C227.23,-144.76 210.09,-93.88 225,-55 229.24,-43.94 237.64,-33.91 245.64,-26.18"/>
<polygon fill="#63b8ff" stroke="#63b8ff" points="248.25,-28.55 253.36,-19.27 243.58,-23.33 248.25,-28.55"/>
</a>
</g>
</g>
<!-- Node10 -->
<g id="Node000010" class="node">
<title>Node10</title>
<g id="a_Node000010"><a xlink:title=" ">
<polygon fill="#e0e0e0" stroke="#999999" points="831,-19 787,-19 787,0 831,0 831,-19"/>
<text text-anchor="middle" x="809" y="-7" font-family="Helvetica,sans-Serif" font-size="10.00">string</text>
</a>
</g>
</g>
<!-- Node4&#45;&gt;Node10 -->
<g id="edge12_Node000004_Node000010" class="edge">
<title>Node4&#45;&gt;Node10</title>
<g id="a_edge12_Node000004_Node000010"><a xlink:title=" ">
<path fill="none" stroke="#63b8ff" d="M239.43,-164.64C240.53,-151.3 244.38,-125.91 258,-110 294.83,-66.95 318.46,-70.33 373,-55 411.62,-44.15 682.45,-20.98 776.73,-13.15"/>
<polygon fill="#63b8ff" stroke="#63b8ff" points="777.15,-16.63 786.82,-12.31 776.57,-9.65 777.15,-16.63"/>
</a>
</g>
</g>
<!-- Node11 -->
<g id="Node000011" class="node">
<title>Node11</title>
<g id="a_Node000011"><a xlink:title=" ">
<polygon fill="#e0e0e0" stroke="#999999" points="323,-129 267,-129 267,-110 323,-110 323,-129"/>
<text text-anchor="middle" x="295" y="-117" font-family="Helvetica,sans-Serif" font-size="10.00">optional</text>
</a>
</g>
</g>
<!-- Node4&#45;&gt;Node11 -->
<g id="edge11_Node000004_Node000011" class="edge">
<title>Node4&#45;&gt;Node11</title>
<g id="a_edge11_Node000004_Node000011"><a xlink:title=" ">
<path fill="none" stroke="#63b8ff" d="M248,-164.98C256.19,-157.23 268.51,-145.58 278.47,-136.14"/>
<polygon fill="#63b8ff" stroke="#63b8ff" points="280.98,-138.59 285.84,-129.17 276.17,-133.5 280.98,-138.59"/>
</a>
</g>
</g>
<!-- Node5&#45;&gt;Node6 -->
<g id="edge5_Node000005_Node000006" class="edge">
<title>Node5&#45;&gt;Node6</title>
<g id="a_edge5_Node000005_Node000006"><a xlink:title=" ">
<path fill="none" stroke="#63b8ff" d="M362.33,-109.66C344.46,-91.46 303.32,-49.55 280.67,-26.47"/>
<polygon fill="#63b8ff" stroke="#63b8ff" points="283,-23.84 273.5,-19.16 278,-28.75 283,-23.84"/>
</a>
</g>
</g>
<!-- Node7 -->
<g id="Node000007" class="node">
<title>Node7</title>
<g id="a_Node000007"><a xlink:href="src_2util_2invariant_8h.html" target="_top" xlink:title=" ">
<polygon fill="white" stroke="#666666" points="451.5,-74 382.5,-74 382.5,-55 451.5,-55 451.5,-74"/>
<text text-anchor="middle" x="417" y="-62" font-family="Helvetica,sans-Serif" font-size="10.00">invariant.h</text>
</a>
</g>
</g>
<!-- Node5&#45;&gt;Node7 -->
<g id="edge6_Node000005_Node000007" class="edge">
<title>Node5&#45;&gt;Node7</title>
<g id="a_edge6_Node000005_Node000007"><a xlink:title=" ">
<path fill="none" stroke="#63b8ff" d="M378.6,-109.75C385.16,-102.18 394.82,-91.05 402.81,-81.84"/>
<polygon fill="#63b8ff" stroke="#63b8ff" points="405.63,-83.94 409.55,-74.09 400.35,-79.35 405.63,-83.94"/>
</a>
</g>
</g>
<!-- Node7&#45;&gt;Node6 -->
<g id="edge10_Node000007_Node000006" class="edge">
<title>Node7&#45;&gt;Node6</title>
<g id="a_edge10_Node000007_Node000006"><a xlink:title=" ">
<path fill="none" stroke="#63b8ff" d="M392.58,-54.98C367.28,-46.16 327.55,-32.31 299.14,-22.41"/>
<polygon fill="#63b8ff" stroke="#63b8ff" points="300.21,-19.07 289.61,-19.08 297.9,-25.68 300.21,-19.07"/>
</a>
</g>
</g>
<!-- Node8 -->
<g id="Node000008" class="node">
<title>Node8</title>
<g id="a_Node000008"><a xlink:title=" ">
<polygon fill="#e0e0e0" stroke="#999999" points="441.5,-19 392.5,-19 392.5,0 441.5,0 441.5,-19"/>
<text text-anchor="middle" x="417" y="-7" font-family="Helvetica,sans-Serif" font-size="10.00">cstdlib</text>
</a>
</g>
</g>
<!-- Node7&#45;&gt;Node8 -->
<g id="edge7_Node000007_Node000008" class="edge">
<title>Node7&#45;&gt;Node8</title>
<g id="a_edge7_Node000007_Node000008"><a xlink:title=" ">
<path fill="none" stroke="#63b8ff" d="M417,-54.75C417,-47.8 417,-37.85 417,-29.13"/>
<polygon fill="#63b8ff" stroke="#63b8ff" points="420.5,-29.09 417,-19.09 413.5,-29.09 420.5,-29.09"/>
</a>
</g>
</g>
<!-- Node9 -->
<g id="Node000009" class="node">
<title>Node9</title>
<g id="a_Node000009"><a xlink:title=" ">
<polygon fill="#e0e0e0" stroke="#999999" points="668,-19 612,-19 612,0 668,0 668,-19"/>
<text text-anchor="middle" x="640" y="-7" font-family="Helvetica,sans-Serif" font-size="10.00">sstream</text>
</a>
</g>
</g>
<!-- Node7&#45;&gt;Node9 -->
<g id="edge8_Node000007_Node000009" class="edge">
<title>Node7&#45;&gt;Node9</title>
<g id="a_edge8_Node000007_Node000009"><a xlink:title=" ">
<path fill="none" stroke="#63b8ff" d="M451.84,-55.22C492.58,-45.54 559.79,-29.56 601.88,-19.56"/>
<polygon fill="#63b8ff" stroke="#63b8ff" points="602.84,-22.93 611.76,-17.21 601.22,-16.12 602.84,-22.93"/>
</a>
</g>
</g>
<!-- Node7&#45;&gt;Node10 -->
<g id="edge9_Node000007_Node000010" class="edge">
<title>Node7&#45;&gt;Node10</title>
<g id="a_edge9_Node000007_Node000010"><a xlink:title=" ">
<path fill="none" stroke="#63b8ff" d="M451.5,-57.32C456.37,-56.51 461.3,-55.71 466,-55 579.97,-37.73 715.9,-21.34 776.75,-14.22"/>
<polygon fill="#63b8ff" stroke="#63b8ff" points="777.36,-17.67 786.88,-13.04 776.55,-10.72 777.36,-17.67"/>
</a>
</g>
</g>
<!-- Node12&#45;&gt;Node10 -->
<g id="edge53_Node000012_Node000010" class="edge">
<title>Node12&#45;&gt;Node10</title>
<g id="a_edge53_Node000012_Node000010"><a xlink:title=" ">
<path fill="none" stroke="#63b8ff" d="M917.27,-549.87C944.17,-505.45 1065,-301.97 1065,-230.5 1065,-230.5 1065,-230.5 1065,-118.5 1065,-22.57 910.52,-10.51 841.57,-9.9"/>
<polygon fill="#63b8ff" stroke="#63b8ff" points="841.27,-6.4 831.27,-9.89 841.27,-13.4 841.27,-6.4"/>
</a>
</g>
</g>
<!-- Node13 -->
<g id="Node000013" class="node">
<title>Node13</title>
<g id="a_Node000013"><a xlink:href="expr_8h.html" target="_top" xlink:title=" ">
<polygon fill="white" stroke="#666666" points="748.5,-514 701.5,-514 701.5,-495 748.5,-495 748.5,-514"/>
<text text-anchor="middle" x="725" y="-502" font-family="Helvetica,sans-Serif" font-size="10.00">expr.h</text>
</a>
</g>
</g>
<!-- Node12&#45;&gt;Node13 -->
<g id="edge15_Node000012_Node000013" class="edge">
<title>Node12&#45;&gt;Node13</title>
<g id="a_edge15_Node000012_Node000013"><a xlink:title=" ">
<path fill="none" stroke="#63b8ff" d="M881.96,-549.98C848.22,-540.42 793.62,-524.95 758.53,-515"/>
<polygon fill="#63b8ff" stroke="#63b8ff" points="759.32,-511.59 748.74,-512.23 757.41,-518.32 759.32,-511.59"/>
</a>
</g>
</g>
<!-- Node19 -->
<g id="Node000019" class="node">
<title>Node19</title>
<g id="a_Node000019"><a xlink:title=" ">
<polygon fill="#e0e0e0" stroke="#999999" points="476.5,-184 429.5,-184 429.5,-165 476.5,-165 476.5,-184"/>
<text text-anchor="middle" x="453" y="-172" font-family="Helvetica,sans-Serif" font-size="10.00">vector</text>
</a>
</g>
</g>
<!-- Node12&#45;&gt;Node19 -->
<g id="edge54_Node000012_Node000019" class="edge">
<title>Node12&#45;&gt;Node19</title>
<g id="a_edge54_Node000012_Node000019"><a xlink:title=" ">
<path fill="none" stroke="#63b8ff" d="M874.78,-556.03C740.22,-546.63 287,-510.51 287,-450.5 287,-450.5 287,-450.5 287,-283.5 287,-221.04 370.6,-192.84 419.14,-181.73"/>
<polygon fill="#63b8ff" stroke="#63b8ff" points="420.18,-185.09 429.22,-179.55 418.7,-178.24 420.18,-185.09"/>
</a>
</g>
</g>
<!-- Node40 -->
<g id="Node000040" class="node">
<title>Node40</title>
<g id="a_Node000040"><a xlink:href="src_2util_2message_8h.html" target="_top" xlink:title=" ">
<polygon fill="white" stroke="#666666" points="928,-349 858,-349 858,-330 928,-330 928,-349"/>
<text text-anchor="middle" x="893" y="-337" font-family="Helvetica,sans-Serif" font-size="10.00">message.h</text>
</a>
</g>
</g>
<!-- Node12&#45;&gt;Node40 -->
<g id="edge43_Node000012_Node000040" class="edge">
<title>Node12&#45;&gt;Node40</title>
<g id="a_edge43_Node000012_Node000040"><a xlink:title=" ">
<path fill="none" stroke="#63b8ff" d="M911.26,-549.95C908.47,-517.95 898.59,-404.68 894.65,-359.4"/>
<polygon fill="#63b8ff" stroke="#63b8ff" points="898.12,-358.88 893.76,-349.22 891.14,-359.49 898.12,-358.88"/>
</a>
</g>
</g>
<!-- Node22 -->
<g id="Node000022" class="node">
<title>Node22</title>
<g id="a_Node000022"><a xlink:title=" ">
<polygon fill="#e0e0e0" stroke="#999999" points="1037,-294 989,-294 989,-275 1037,-275 1037,-294"/>
<text text-anchor="middle" x="1013" y="-282" font-family="Helvetica,sans-Serif" font-size="10.00">iosfwd</text>
</a>
</g>
</g>
<!-- Node12&#45;&gt;Node22 -->
<g id="edge51_Node000012_Node000022" class="edge">
<title>Node12&#45;&gt;Node22</title>
<g id="a_edge51_Node000012_Node000022"><a xlink:title=" ">
<path fill="none" stroke="#63b8ff" d="M949.33,-554C997.27,-547.5 1076.83,-534.02 1098,-514 1119.4,-493.76 1117,-479.96 1117,-450.5 1117,-450.5 1117,-450.5 1117,-393.5 1117,-349.39 1071.42,-316.35 1040.61,-299.06"/>
<polygon fill="#63b8ff" stroke="#63b8ff" points="1042.06,-295.86 1031.59,-294.2 1038.74,-302.02 1042.06,-295.86"/>
</a>
</g>
</g>
<!-- Node41 -->
<g id="Node000041" class="node">
<title>Node41</title>
<g id="a_Node000041"><a xlink:title=" ">
<polygon fill="#e0e0e0" stroke="#999999" points="1027,-514 959,-514 959,-495 1027,-495 1027,-514"/>
<text text-anchor="middle" x="993" y="-502" font-family="Helvetica,sans-Serif" font-size="10.00">filesystem</text>
</a>
</g>
</g>
<!-- Node12&#45;&gt;Node41 -->
<g id="edge50_Node000012_Node000041" class="edge">
<title>Node12&#45;&gt;Node41</title>
<g id="a_edge50_Node000012_Node000041"><a xlink:title=" ">
<path fill="none" stroke="#63b8ff" d="M925.01,-549.98C937.46,-541.84 956.46,-529.41 971.21,-519.76"/>
<polygon fill="#63b8ff" stroke="#63b8ff" points="973.3,-522.57 979.75,-514.17 969.46,-516.72 973.3,-522.57"/>
</a>
</g>
</g>
<!-- Node42 -->
<g id="Node000042" class="node">
<title>Node42</title>
<g id="a_Node000042"><a xlink:title=" ">
<polygon fill="#e0e0e0" stroke="#999999" points="1089,-514 1045,-514 1045,-495 1089,-495 1089,-514"/>
<text text-anchor="middle" x="1067" y="-502" font-family="Helvetica,sans-Serif" font-size="10.00">limits</text>
</a>
</g>
</g>
<!-- Node12&#45;&gt;Node42 -->
<g id="edge52_Node000012_Node000042" class="edge">
<title>Node12&#45;&gt;Node42</title>
<g id="a_edge52_Node000012_Node000042"><a xlink:title=" ">
<path fill="none" stroke="#63b8ff" d="M936.9,-549.98C963.54,-540.88 1005.88,-526.4 1034.98,-516.45"/>
<polygon fill="#63b8ff" stroke="#63b8ff" points="1036.34,-519.68 1044.67,-513.13 1034.08,-513.06 1036.34,-519.68"/>
</a>
</g>
</g>
<!-- Node14 -->
<g id="Node000014" class="node">
<title>Node14</title>
<g id="a_Node000014"><a xlink:href="as__const_8h.html" target="_top" xlink:title=" ">
<polygon fill="white" stroke="#666666" points="668,-129 600,-129 600,-110 668,-110 668,-129"/>
<text text-anchor="middle" x="634" y="-117" font-family="Helvetica,sans-Serif" font-size="10.00">as_const.h</text>
</a>
</g>
</g>
<!-- Node13&#45;&gt;Node14 -->
<g id="edge16_Node000013_Node000014" class="edge">
<title>Node13&#45;&gt;Node14</title>
<g id="a_edge16_Node000013_Node000014"><a xlink:title=" ">
<path fill="none" stroke="#63b8ff" d="M730.28,-494.9C740.73,-477.07 763,-434.46 763,-395.5 763,-395.5 763,-395.5 763,-338.5 763,-261.23 797.94,-227.12 752,-165 742.76,-152.51 707.49,-140.18 677.89,-131.69"/>
<polygon fill="#63b8ff" stroke="#63b8ff" points="678.69,-128.28 668.12,-128.96 676.81,-135.02 678.69,-128.28"/>
</a>
</g>
</g>
<!-- Node15 -->
<g id="Node000015" class="node">
<title>Node15</title>
<g id="a_Node000015"><a xlink:href="type_8h.html" target="_top" xlink:title="Defines typet, type_with_subtypet and type_with_subtypest.">
<polygon fill="white" stroke="#666666" points="511.5,-459 464.5,-459 464.5,-440 511.5,-440 511.5,-459"/>
<text text-anchor="middle" x="488" y="-447" font-family="Helvetica,sans-Serif" font-size="10.00">type.h</text>
</a>
</g>
</g>
<!-- Node13&#45;&gt;Node15 -->
<g id="edge17_Node000013_Node000015" class="edge">
<title>Node13&#45;&gt;Node15</title>
<g id="a_edge17_Node000013_Node000015"><a xlink:title=" ">
<path fill="none" stroke="#63b8ff" d="M701.24,-498.71C664.69,-491.27 592.22,-476.19 521.67,-459.33"/>
<polygon fill="#63b8ff" stroke="#63b8ff" points="522.28,-455.87 511.73,-456.93 520.64,-462.68 522.28,-455.87"/>
</a>
</g>
</g>
<!-- Node36 -->
<g id="Node000036" class="node">
<title>Node36</title>
<g id="a_Node000036"><a xlink:href="validation__mode_8h.html" target="_top" xlink:title=" ">
<polygon fill="white" stroke="#666666" points="623.5,-349 516.5,-349 516.5,-330 623.5,-330 623.5,-349"/>
<text text-anchor="middle" x="570" y="-337" font-family="Helvetica,sans-Serif" font-size="10.00">validation_mode.h</text>
</a>
</g>
</g>
<!-- Node13&#45;&gt;Node36 -->
<g id="edge41_Node000013_Node000036" class="edge">
<title>Node13&#45;&gt;Node36</title>
<g id="a_edge41_Node000013_Node000036"><a xlink:title=" ">
<path fill="none" stroke="#63b8ff" d="M725.4,-494.78C725.89,-473.26 724.14,-417.02 695,-385 679,-367.41 655.57,-356.78 633.32,-350.34"/>
<polygon fill="#63b8ff" stroke="#63b8ff" points="634.11,-346.93 623.54,-347.75 632.31,-353.69 634.11,-346.93"/>
</a>
</g>
</g>
<!-- Node37 -->
<g id="Node000037" class="node">
<title>Node37</title>
<g id="a_Node000037"><a xlink:href="validate__types_8h.html" target="_top" xlink:title=" ">
<polygon fill="white" stroke="#666666" points="686,-404 588,-404 588,-385 686,-385 686,-404"/>
<text text-anchor="middle" x="637" y="-392" font-family="Helvetica,sans-Serif" font-size="10.00">validate_types.h</text>
</a>
</g>
</g>
<!-- Node13&#45;&gt;Node37 -->
<g id="edge40_Node000013_Node000037" class="edge">
<title>Node13&#45;&gt;Node37</title>
<g id="a_edge40_Node000013_Node000037"><a xlink:title=" ">
<path fill="none" stroke="#63b8ff" d="M717.8,-494.66C703.09,-476.61 669.41,-435.28 650.51,-412.08"/>
<polygon fill="#63b8ff" stroke="#63b8ff" points="653.09,-409.7 644.05,-404.16 647.66,-414.12 653.09,-409.7"/>
</a>
</g>
</g>
<!-- Node38 -->
<g id="Node000038" class="node">
<title>Node38</title>
<g id="a_Node000038"><a xlink:href="validate__expressions_8h.html" target="_top" xlink:title=" ">
<polygon fill="white" stroke="#666666" points="658.5,-459 529.5,-459 529.5,-440 658.5,-440 658.5,-459"/>
<text text-anchor="middle" x="594" y="-447" font-family="Helvetica,sans-Serif" font-size="10.00">validate_expressions.h</text>
</a>
</g>
</g>
<!-- Node13&#45;&gt;Node38 -->
<g id="edge39_Node000013_Node000038" class="edge">
<title>Node13&#45;&gt;Node38</title>
<g id="a_edge39_Node000013_Node000038"><a xlink:title=" ">
<path fill="none" stroke="#63b8ff" d="M703.95,-494.98C682.59,-486.34 649.3,-472.87 624.94,-463.02"/>
<polygon fill="#63b8ff" stroke="#63b8ff" points="626.01,-459.68 615.43,-459.17 623.39,-466.17 626.01,-459.68"/>
</a>
</g>
</g>
<!-- Node39 -->
<g id="Node000039" class="node">
<title>Node39</title>
<g id="a_Node000039"><a xlink:title=" ">
<polygon fill="#e0e0e0" stroke="#999999" points="856.5,-294 791.5,-294 791.5,-275 856.5,-275 856.5,-294"/>
<text text-anchor="middle" x="824" y="-282" font-family="Helvetica,sans-Serif" font-size="10.00">functional</text>
</a>
</g>
</g>
<!-- Node13&#45;&gt;Node39 -->
<g id="edge42_Node000013_Node000039" class="edge">
<title>Node13&#45;&gt;Node39</title>
<g id="a_edge42_Node000013_Node000039"><a xlink:title=" ">
<path fill="none" stroke="#63b8ff" d="M738.99,-494.99C750.83,-487.09 767.35,-474.27 777,-459 808.62,-408.98 819.19,-337.86 822.54,-304.35"/>
<polygon fill="#63b8ff" stroke="#63b8ff" points="826.04,-304.43 823.45,-294.16 819.07,-303.81 826.04,-304.43"/>
</a>
</g>
</g>
<!-- Node16 -->
<g id="Node000016" class="node">
<title>Node16</title>
<g id="a_Node000016"><a xlink:href="source__location_8h.html" target="_top" xlink:title=" ">
<polygon fill="white" stroke="#666666" points="602,-294 500,-294 500,-275 602,-275 602,-294"/>
<text text-anchor="middle" x="551" y="-282" font-family="Helvetica,sans-Serif" font-size="10.00">source_location.h</text>
</a>
</g>
</g>
<!-- Node15&#45;&gt;Node16 -->
<g id="edge18_Node000015_Node000016" class="edge">
<title>Node15&#45;&gt;Node16</title>
<g id="a_edge18_Node000015_Node000016"><a xlink:title=" ">
<path fill="none" stroke="#63b8ff" d="M487.64,-439.92C487.14,-419.62 487.96,-367.54 507,-330 512.72,-318.72 522.33,-308.5 531.11,-300.71"/>
<polygon fill="#63b8ff" stroke="#63b8ff" points="533.39,-303.37 538.81,-294.27 528.9,-298 533.39,-303.37"/>
</a>
</g>
</g>
<!-- Node34 -->
<g id="Node000034" class="node">
<title>Node34</title>
<g id="a_Node000034"><a xlink:href="validate_8h.html" target="_top" xlink:title=" ">
<polygon fill="white" stroke="#666666" points="439.5,-404 374.5,-404 374.5,-385 439.5,-385 439.5,-404"/>
<text text-anchor="middle" x="407" y="-392" font-family="Helvetica,sans-Serif" font-size="10.00">validate.h</text>
</a>
</g>
</g>
<!-- Node15&#45;&gt;Node34 -->
<g id="edge30_Node000015_Node000034" class="edge">
<title>Node15&#45;&gt;Node34</title>
<g id="a_edge30_Node000015_Node000034"><a xlink:title=" ">
<path fill="none" stroke="#63b8ff" d="M474.99,-439.98C462.54,-431.84 443.54,-419.41 428.79,-409.76"/>
<polygon fill="#63b8ff" stroke="#63b8ff" points="430.54,-406.72 420.25,-404.17 426.7,-412.57 430.54,-406.72"/>
</a>
</g>
</g>
<!-- Node15&#45;&gt;Node36 -->
<g id="edge38_Node000015_Node000036" class="edge">
<title>Node15&#45;&gt;Node36</title>
<g id="a_edge38_Node000015_Node000036"><a xlink:title=" ">
<path fill="none" stroke="#63b8ff" d="M494.71,-439.66C508.35,-421.69 539.52,-380.64 557.18,-357.38"/>
<polygon fill="#63b8ff" stroke="#63b8ff" points="560.17,-359.24 563.43,-349.16 554.59,-355.01 560.17,-359.24"/>
</a>
</g>
</g>
<!-- Node15&#45;&gt;Node37 -->
<g id="edge37_Node000015_Node000037" class="edge">
<title>Node15&#45;&gt;Node37</title>
<g id="a_edge37_Node000015_Node000037"><a xlink:title=" ">
<path fill="none" stroke="#63b8ff" d="M511.61,-440.1C536.31,-431.32 575.31,-417.44 603.26,-407.5"/>
<polygon fill="#63b8ff" stroke="#63b8ff" points="604.76,-410.68 613.01,-404.03 602.41,-404.09 604.76,-410.68"/>
</a>
</g>
</g>
<!-- Node16&#45;&gt;Node10 -->
<g id="edge29_Node000016_Node000010" class="edge">
<title>Node16&#45;&gt;Node10</title>
<g id="a_edge29_Node000016_Node000010"><a xlink:title=" ">
<path fill="none" stroke="#63b8ff" d="M590.69,-274.99C639.67,-262.63 722.87,-235.37 775,-184 812.62,-146.92 813.43,-126.41 820,-74 821.91,-58.72 818.59,-41.51 815.11,-28.86"/>
<polygon fill="#63b8ff" stroke="#63b8ff" points="818.39,-27.64 812.13,-19.09 811.69,-29.68 818.39,-27.64"/>
</a>
</g>
</g>
<!-- Node16&#45;&gt;Node11 -->
<g id="edge28_Node000016_Node000011" class="edge">
<title>Node16&#45;&gt;Node11</title>
<g id="a_edge28_Node000016_Node000011"><a xlink:title=" ">
<path fill="none" stroke="#63b8ff" d="M537.6,-274.97C496.05,-248.51 369.1,-167.68 317.33,-134.72"/>
<polygon fill="#63b8ff" stroke="#63b8ff" points="318.89,-131.56 308.58,-129.15 315.13,-137.47 318.89,-131.56"/>
</a>
</g>
</g>
<!-- Node17 -->
<g id="Node000017" class="node">
<title>Node17</title>
<g id="a_Node000017"><a xlink:href="deprecate_8h.html" target="_top" xlink:title=" ">
<polygon fill="white" stroke="#666666" points="665,-239 591,-239 591,-220 665,-220 665,-239"/>
<text text-anchor="middle" x="628" y="-227" font-family="Helvetica,sans-Serif" font-size="10.00">deprecate.h</text>
</a>
</g>
</g>
<!-- Node16&#45;&gt;Node17 -->
<g id="edge19_Node000016_Node000017" class="edge">
<title>Node16&#45;&gt;Node17</title>
<g id="a_edge19_Node000016_Node000017"><a xlink:title=" ">
<path fill="none" stroke="#63b8ff" d="M563.37,-274.98C575.09,-266.92 592.92,-254.65 606.89,-245.03"/>
<polygon fill="#63b8ff" stroke="#63b8ff" points="609.15,-247.72 615.4,-239.17 605.18,-241.96 609.15,-247.72"/>
</a>
</g>
</g>
<!-- Node18 -->
<g id="Node000018" class="node">
<title>Node18</title>
<g id="a_Node000018"><a xlink:href="irep_8h.html" target="_top" xlink:title=" ">
<polygon fill="white" stroke="#666666" points="573,-239 529,-239 529,-220 573,-220 573,-239"/>
<text text-anchor="middle" x="551" y="-227" font-family="Helvetica,sans-Serif" font-size="10.00">irep.h</text>
</a>
</g>
</g>
<!-- Node16&#45;&gt;Node18 -->
<g id="edge20_Node000016_Node000018" class="edge">
<title>Node16&#45;&gt;Node18</title>
<g id="a_edge20_Node000016_Node000018"><a xlink:title=" ">
<path fill="none" stroke="#63b8ff" d="M551,-274.75C551,-267.8 551,-257.85 551,-249.13"/>
<polygon fill="#63b8ff" stroke="#63b8ff" points="554.5,-249.09 551,-239.09 547.5,-249.09 554.5,-249.09"/>
</a>
</g>
</g>
<!-- Node18&#45;&gt;Node7 -->
<g id="edge23_Node000018_Node000007" class="edge">
<title>Node18&#45;&gt;Node7</title>
<g id="a_edge23_Node000018_Node000007"><a xlink:title=" ">
<path fill="none" stroke="#63b8ff" d="M543.8,-219.74C522.44,-193.76 459.19,-116.83 430.93,-82.44"/>
<polygon fill="#63b8ff" stroke="#63b8ff" points="433.29,-79.81 424.24,-74.31 427.89,-84.25 433.29,-79.81"/>
</a>
</g>
</g>
<!-- Node18&#45;&gt;Node10 -->
<g id="edge21_Node000018_Node000010" class="edge">
<title>Node18&#45;&gt;Node10</title>
<g id="a_edge21_Node000018_Node000010"><a xlink:title=" ">
<path fill="none" stroke="#63b8ff" d="M573.31,-222.21C576.23,-221.44 579.18,-220.68 582,-220 657.05,-201.78 694.5,-235.56 752,-184 797.58,-143.12 806.83,-65.2 808.62,-29.37"/>
<polygon fill="#63b8ff" stroke="#63b8ff" points="812.12,-29.44 808.98,-19.32 805.13,-29.19 812.12,-29.44"/>
</a>
</g>
</g>
<!-- Node18&#45;&gt;Node19 -->
<g id="edge22_Node000018_Node000019" class="edge">
<title>Node18&#45;&gt;Node19</title>
<g id="a_edge22_Node000018_Node000019"><a xlink:title=" ">
<path fill="none" stroke="#63b8ff" d="M535.25,-219.98C519.77,-211.61 495.91,-198.7 477.86,-188.95"/>
<polygon fill="#63b8ff" stroke="#63b8ff" points="479.49,-185.85 469.03,-184.17 476.16,-192.01 479.49,-185.85"/>
</a>
</g>
</g>
<!-- Node20 -->
<g id="Node000020" class="node">
<title>Node20</title>
<g id="a_Node000020"><a xlink:href="irep__ids_8h.html" target="_top" xlink:title="util">
<polygon fill="#fff0f0" stroke="red" points="743,-184 679,-184 679,-165 743,-165 743,-184"/>
<text text-anchor="middle" x="711" y="-172" font-family="Helvetica,sans-Serif" font-size="10.00">irep_ids.h</text>
</a>
</g>
</g>
<!-- Node18&#45;&gt;Node20 -->
<g id="edge24_Node000018_Node000020" class="edge">
<title>Node18&#45;&gt;Node20</title>
<g id="a_edge24_Node000018_Node000020"><a xlink:title=" ">
<path fill="none" stroke="#63b8ff" d="M573.25,-221.13C599.75,-212.35 644.35,-197.58 675.6,-187.23"/>
<polygon fill="#63b8ff" stroke="#63b8ff" points="676.85,-190.5 685.24,-184.03 674.64,-183.86 676.85,-190.5"/>
</a>
</g>
</g>
<!-- Node31 -->
<g id="Node000031" class="node">
<title>Node31</title>
<g id="a_Node000031"><a xlink:href="forward__list__as__map_8h.html" target="_top" xlink:title=" ">
<polygon fill="#fff0f0" stroke="red" points="660.5,-184 533.5,-184 533.5,-165 660.5,-165 660.5,-184"/>
<text text-anchor="middle" x="597" y="-172" font-family="Helvetica,sans-Serif" font-size="10.00">forward_list_as_map.h</text>
</a>
</g>
</g>
<!-- Node18&#45;&gt;Node31 -->
<g id="edge25_Node000018_Node000031" class="edge">
<title>Node18&#45;&gt;Node31</title>
<g id="a_edge25_Node000018_Node000031"><a xlink:title=" ">
<path fill="none" stroke="#63b8ff" d="M558.6,-219.75C565.16,-212.18 574.82,-201.05 582.81,-191.84"/>
<polygon fill="#63b8ff" stroke="#63b8ff" points="585.63,-193.94 589.55,-184.09 580.35,-189.35 585.63,-193.94"/>
</a>
</g>
</g>
<!-- Node31&#45;&gt;Node5 -->
<g id="edge27_Node000031_Node000005" class="edge">
<title>Node31&#45;&gt;Node5</title>
<g id="a_edge27_Node000031_Node000005"><a xlink:title=" ">
<path fill="none" stroke="#63b8ff" d="M560.69,-164.98C519.65,-155.36 453.07,-139.75 410.69,-129.81"/>
<polygon fill="#63b8ff" stroke="#63b8ff" points="411.26,-126.35 400.73,-127.47 409.66,-133.16 411.26,-126.35"/>
</a>
</g>
</g>
<!-- Node31&#45;&gt;Node14 -->
<g id="edge26_Node000031_Node000014" class="edge">
<title>Node31&#45;&gt;Node14</title>
<g id="a_edge26_Node000031_Node000014"><a xlink:title=" ">
<path fill="none" stroke="#63b8ff" d="M603.11,-164.75C608.28,-157.34 615.85,-146.5 622.19,-137.41"/>
<polygon fill="#63b8ff" stroke="#63b8ff" points="625.15,-139.29 628,-129.09 619.41,-135.29 625.15,-139.29"/>
</a>
</g>
</g>
<!-- Node34&#45;&gt;Node6 -->
<g id="edge31_Node000034_Node000006" class="edge">
<title>Node34&#45;&gt;Node6</title>
<g id="a_edge31_Node000034_Node000006"><a xlink:title=" ">
<path fill="none" stroke="#63b8ff" d="M387.93,-384.85C371.42,-376.86 347.36,-363.98 329,-349 253.34,-287.3 218.44,-275.35 184,-184 169.18,-144.68 173.85,-124.24 217,-55 224.07,-43.66 234.77,-33.35 244.27,-25.52"/>
<polygon fill="#63b8ff" stroke="#63b8ff" points="246.48,-28.23 252.19,-19.31 242.16,-22.72 246.48,-28.23"/>
</a>
</g>
</g>
<!-- Node35 -->
<g id="Node000035" class="node">
<title>Node35</title>
<g id="a_Node000035"><a xlink:href="exception__utils_8h.html" target="_top" xlink:title=" ">
<polygon fill="white" stroke="#666666" points="438,-349 338,-349 338,-330 438,-330 438,-349"/>
<text text-anchor="middle" x="388" y="-337" font-family="Helvetica,sans-Serif" font-size="10.00">exception_utils.h</text>
</a>
</g>
</g>
<!-- Node34&#45;&gt;Node35 -->
<g id="edge32_Node000034_Node000035" class="edge">
<title>Node34&#45;&gt;Node35</title>
<g id="a_edge32_Node000034_Node000035"><a xlink:title=" ">
<path fill="none" stroke="#63b8ff" d="M403.86,-384.75C401.32,-377.65 397.64,-367.4 394.47,-358.56"/>
<polygon fill="#63b8ff" stroke="#63b8ff" points="397.75,-357.32 391.08,-349.09 391.16,-359.68 397.75,-357.32"/>
</a>
</g>
</g>
<!-- Node34&#45;&gt;Node36 -->
<g id="edge36_Node000034_Node000036" class="edge">
<title>Node34&#45;&gt;Node36</title>
<g id="a_edge36_Node000034_Node000036"><a xlink:title=" ">
<path fill="none" stroke="#63b8ff" d="M433.19,-384.98C460.44,-376.13 503.3,-362.19 533.78,-352.28"/>
<polygon fill="#63b8ff" stroke="#63b8ff" points="535.18,-355.5 543.61,-349.08 533.01,-348.85 535.18,-355.5"/>
</a>
</g>
</g>
<!-- Node35&#45;&gt;Node7 -->
<g id="edge34_Node000035_Node000007" class="edge">
<title>Node35&#45;&gt;Node7</title>
<g id="a_edge34_Node000035_Node000007"><a xlink:title=" ">
<path fill="none" stroke="#63b8ff" d="M377.01,-329.99C367.55,-321.9 354.57,-308.81 349,-294 328.81,-240.34 320.75,-214.89 349,-165 364.32,-137.94 392.01,-155.05 409,-129 417.63,-115.77 419.14,-97.64 418.78,-84.15"/>
<polygon fill="#63b8ff" stroke="#63b8ff" points="422.27,-83.87 418.15,-74.1 415.28,-84.3 422.27,-83.87"/>
</a>
</g>
</g>
<!-- Node35&#45;&gt;Node10 -->
<g id="edge33_Node000035_Node000010" class="edge">
<title>Node35&#45;&gt;Node10</title>
<g id="a_edge33_Node000035_Node000010"><a xlink:title=" ">
<path fill="none" stroke="#63b8ff" d="M386.9,-329.73C383.94,-302.05 378.59,-215.42 420,-165 512.97,-51.8 700.73,-21.08 776.35,-13.13"/>
<polygon fill="#63b8ff" stroke="#63b8ff" points="777.06,-16.58 786.67,-12.12 776.37,-9.61 777.06,-16.58"/>
</a>
</g>
</g>
<!-- Node35&#45;&gt;Node16 -->
<g id="edge35_Node000035_Node000016" class="edge">
<title>Node35&#45;&gt;Node16</title>
<g id="a_edge35_Node000035_Node000016"><a xlink:title=" ">
<path fill="none" stroke="#63b8ff" d="M414.19,-329.98C441.44,-321.13 484.3,-307.19 514.78,-297.28"/>
<polygon fill="#63b8ff" stroke="#63b8ff" points="516.18,-300.5 524.61,-294.08 514.01,-293.85 516.18,-300.5"/>
</a>
</g>
</g>
<!-- Node40&#45;&gt;Node7 -->
<g id="edge44_Node000040_Node000007" class="edge">
<title>Node40&#45;&gt;Node7</title>
<g id="a_edge44_Node000040_Node000007"><a xlink:title=" ">
<path fill="none" stroke="#63b8ff" d="M891.98,-329.94C888.23,-302.18 872.72,-213.58 823,-165 771.53,-114.71 556.16,-82.62 461.71,-70.72"/>
<polygon fill="#63b8ff" stroke="#63b8ff" points="461.97,-67.22 451.62,-69.47 461.11,-74.17 461.97,-67.22"/>
</a>
</g>
</g>
<!-- Node40&#45;&gt;Node9 -->
<g id="edge48_Node000040_Node000009" class="edge">
<title>Node40&#45;&gt;Node9</title>
<g id="a_edge48_Node000040_Node000009"><a xlink:title=" ">
<path fill="none" stroke="#63b8ff" d="M894.71,-329.82C896.86,-317.55 899.94,-294.44 897,-275 888.95,-221.72 882.36,-204.78 846,-165 789.2,-102.85 704.48,-48.53 663.67,-24.15"/>
<polygon fill="#63b8ff" stroke="#63b8ff" points="665.35,-21.08 654.96,-19.01 661.79,-27.11 665.35,-21.08"/>
</a>
</g>
</g>
<!-- Node40&#45;&gt;Node10 -->
<g id="edge49_Node000040_Node000010" class="edge">
<title>Node40&#45;&gt;Node10</title>
<g id="a_edge49_Node000040_Node000010"><a xlink:title=" ">
<path fill="none" stroke="#63b8ff" d="M903.71,-329.96C913.51,-321.67 927.85,-308.26 937,-294 953.3,-268.61 961,-260.67 961,-230.5 961,-230.5 961,-230.5 961,-118.5 961,-60.09 885.48,-30.36 840.91,-17.91"/>
<polygon fill="#63b8ff" stroke="#63b8ff" points="841.67,-14.49 831.1,-15.3 839.87,-21.25 841.67,-14.49"/>
</a>
</g>
</g>
<!-- Node40&#45;&gt;Node16 -->
<g id="edge45_Node000040_Node000016" class="edge">
<title>Node40&#45;&gt;Node16</title>
<g id="a_edge45_Node000040_Node000016"><a xlink:title=" ">
<path fill="none" stroke="#63b8ff" d="M857.69,-333.03C799.78,-324.05 683.93,-306.1 612.37,-295.01"/>
<polygon fill="#63b8ff" stroke="#63b8ff" points="612.56,-291.5 602.14,-293.43 611.49,-298.42 612.56,-291.5"/>
</a>
</g>
</g>
<!-- Node40&#45;&gt;Node39 -->
<g id="edge46_Node000040_Node000039" class="edge">
<title>Node40&#45;&gt;Node39</title>
<g id="a_edge46_Node000040_Node000039"><a xlink:title=" ">
<path fill="none" stroke="#63b8ff" d="M881.91,-329.98C871.51,-322 855.74,-309.88 843.28,-300.31"/>
<polygon fill="#63b8ff" stroke="#63b8ff" points="845.35,-297.49 835.29,-294.17 841.09,-303.04 845.35,-297.49"/>
</a>
</g>
</g>
<!-- Node40&#45;&gt;Node22 -->
<g id="edge47_Node000040_Node000022" class="edge">
<title>Node40&#45;&gt;Node22</title>
<g id="a_edge47_Node000040_Node000022"><a xlink:title=" ">
<path fill="none" stroke="#63b8ff" d="M912.28,-329.98C931.67,-321.42 961.81,-308.11 984.07,-298.28"/>
<polygon fill="#63b8ff" stroke="#63b8ff" points="985.64,-301.41 993.37,-294.17 982.81,-295.01 985.64,-301.41"/>
</a>
</g>
</g>
<!-- Node43&#45;&gt;Node10 -->
<g id="edge56_Node000043_Node000010" class="edge">
<title>Node43&#45;&gt;Node10</title>
<g id="a_edge56_Node000043_Node000010"><a xlink:title=" ">
<path fill="none" stroke="#63b8ff" d="M1106.96,-54.98C1031.71,-43.75 901.76,-24.35 841.47,-15.35"/>
<polygon fill="#63b8ff" stroke="#63b8ff" points="841.8,-11.86 831.39,-13.84 840.76,-18.78 841.8,-11.86"/>
</a>
</g>
</g>
</g>
</svg>
