<?xml version="1.0" encoding="UTF-8" standalone="no"?>
<!DOCTYPE svg PUBLIC "-//W3C//DTD SVG 1.1//EN"
 "http://www.w3.org/Graphics/SVG/1.1/DTD/svg11.dtd">
<!-- Generated by graphviz version 2.43.0 (0)
 -->
<!-- Title: /home/runner/work/cbmc/cbmc/src/util/rename.cpp Pages: 1 -->
<svg width="842pt" height="423pt"
 viewBox="0.00 0.00 841.50 423.00" xmlns="http://www.w3.org/2000/svg" xmlns:xlink="http://www.w3.org/1999/xlink">
<g id="graph0" class="graph" transform="scale(1 1) rotate(0) translate(4 419)">
<title>/home/runner/work/cbmc/cbmc/src/util/rename.cpp</title>
<!-- Node1 -->
<g id="Node000001" class="node">
<title>Node1</title>
<g id="a_Node000001"><a xlink:title=" ">
<polygon fill="#999999" stroke="#666666" points="152.5,-415 9.5,-415 9.5,-385 152.5,-385 152.5,-415"/>
<text text-anchor="start" x="17.5" y="-403" font-family="Helvetica,sans-Serif" font-size="10.00">/home/runner/work/cbmc</text>
<text text-anchor="middle" x="81" y="-392" font-family="Helvetica,sans-Serif" font-size="10.00">/cbmc/src/util/rename.cpp</text>
</a>
</g>
</g>
<!-- Node2 -->
<g id="Node000002" class="node">
<title>Node2</title>
<g id="a_Node000002"><a xlink:href="rename_8h.html" target="_top" xlink:title=" ">
<polygon fill="white" stroke="#666666" points="112.5,-349 49.5,-349 49.5,-330 112.5,-330 112.5,-349"/>
<text text-anchor="middle" x="81" y="-337" font-family="Helvetica,sans-Serif" font-size="10.00">rename.h</text>
</a>
</g>
</g>
<!-- Node1&#45;&gt;Node2 -->
<g id="edge1_Node000001_Node000002" class="edge">
<title>Node1&#45;&gt;Node2</title>
<g id="a_edge1_Node000001_Node000002"><a xlink:title=" ">
<path fill="none" stroke="#63b8ff" d="M81,-384.84C81,-377.21 81,-367.7 81,-359.45"/>
<polygon fill="#63b8ff" stroke="#63b8ff" points="84.5,-359.27 81,-349.27 77.5,-359.27 84.5,-359.27"/>
</a>
</g>
</g>
<!-- Node4 -->
<g id="Node000004" class="node">
<title>Node4</title>
<g id="a_Node000004"><a xlink:title=" ">
<polygon fill="#e0e0e0" stroke="#999999" points="188,-19 144,-19 144,0 188,0 188,-19"/>
<text text-anchor="middle" x="166" y="-7" font-family="Helvetica,sans-Serif" font-size="10.00">string</text>
</a>
</g>
</g>
<!-- Node1&#45;&gt;Node4 -->
<g id="edge33_Node000001_Node000004" class="edge">
<title>Node1&#45;&gt;Node4</title>
<g id="a_edge33_Node000001_Node000004"><a xlink:title=" ">
<path fill="none" stroke="#63b8ff" d="M61.8,-384.83C37.85,-365.35 0,-327.86 0,-285.5 0,-285.5 0,-285.5 0,-118.5 0,-55.24 85.75,-27.12 133.99,-16.31"/>
<polygon fill="#63b8ff" stroke="#63b8ff" points="134.9,-19.7 143.96,-14.2 133.45,-12.85 134.9,-19.7"/>
</a>
</g>
</g>
<!-- Node26 -->
<g id="Node000026" class="node">
<title>Node26</title>
<g id="a_Node000026"><a xlink:href="namespace_8h.html" target="_top" xlink:title=" ">
<polygon fill="white" stroke="#666666" points="213,-349 131,-349 131,-330 213,-330 213,-349"/>
<text text-anchor="middle" x="172" y="-337" font-family="Helvetica,sans-Serif" font-size="10.00">namespace.h</text>
</a>
</g>
</g>
<!-- Node1&#45;&gt;Node26 -->
<g id="edge34_Node000001_Node000026" class="edge">
<title>Node1&#45;&gt;Node26</title>
<g id="a_edge34_Node000001_Node000026"><a xlink:title=" ">
<path fill="none" stroke="#63b8ff" d="M103.03,-384.84C117.27,-375.68 135.73,-363.82 149.97,-354.66"/>
<polygon fill="#63b8ff" stroke="#63b8ff" points="152.11,-357.45 158.63,-349.09 148.33,-351.56 152.11,-357.45"/>
</a>
</g>
</g>
<!-- Node3 -->
<g id="Node000003" class="node">
<title>Node3</title>
<g id="a_Node000003"><a xlink:href="irep_8h.html" target="_top" xlink:title=" ">
<polygon fill="white" stroke="#666666" points="165,-294 121,-294 121,-275 165,-275 165,-294"/>
<text text-anchor="middle" x="143" y="-282" font-family="Helvetica,sans-Serif" font-size="10.00">irep.h</text>
</a>
</g>
</g>
<!-- Node2&#45;&gt;Node3 -->
<g id="edge2_Node000002_Node000003" class="edge">
<title>Node2&#45;&gt;Node3</title>
<g id="a_edge2_Node000002_Node000003"><a xlink:title=" ">
<path fill="none" stroke="#63b8ff" d="M90.96,-329.98C100.13,-322.15 113.94,-310.34 125.03,-300.86"/>
<polygon fill="#63b8ff" stroke="#63b8ff" points="127.53,-303.33 132.86,-294.17 122.98,-298.01 127.53,-303.33"/>
</a>
</g>
</g>
<!-- Node3&#45;&gt;Node4 -->
<g id="edge3_Node000003_Node000004" class="edge">
<title>Node3&#45;&gt;Node4</title>
<g id="a_edge3_Node000003_Node000004"><a xlink:title=" ">
<path fill="none" stroke="#63b8ff" d="M124.23,-274.85C94.03,-259.49 38,-224.4 38,-175.5 38,-175.5 38,-175.5 38,-118.5 38,-68.19 96.48,-36.55 134.38,-21.32"/>
<polygon fill="#63b8ff" stroke="#63b8ff" points="135.91,-24.49 144,-17.63 133.41,-17.95 135.91,-24.49"/>
</a>
</g>
</g>
<!-- Node5 -->
<g id="Node000005" class="node">
<title>Node5</title>
<g id="a_Node000005"><a xlink:title=" ">
<polygon fill="#e0e0e0" stroke="#999999" points="833.5,-74 786.5,-74 786.5,-55 833.5,-55 833.5,-74"/>
<text text-anchor="middle" x="810" y="-62" font-family="Helvetica,sans-Serif" font-size="10.00">vector</text>
</a>
</g>
</g>
<!-- Node3&#45;&gt;Node5 -->
<g id="edge4_Node000003_Node000005" class="edge">
<title>Node3&#45;&gt;Node5</title>
<g id="a_edge4_Node000003_Node000005"><a xlink:title=" ">
<path fill="none" stroke="#63b8ff" d="M165.05,-282.81C248.09,-280.02 541.75,-268.23 630,-239 711.92,-211.87 740.92,-199.98 790,-129 799.35,-115.48 804.48,-97.39 807.2,-83.98"/>
<polygon fill="#63b8ff" stroke="#63b8ff" points="810.67,-84.47 808.95,-74.01 803.77,-83.25 810.67,-84.47"/>
</a>
</g>
</g>
<!-- Node6 -->
<g id="Node000006" class="node">
<title>Node6</title>
<g id="a_Node000006"><a xlink:href="src_2util_2invariant_8h.html" target="_top" xlink:title=" ">
<polygon fill="white" stroke="#666666" points="227.5,-129 158.5,-129 158.5,-110 227.5,-110 227.5,-129"/>
<text text-anchor="middle" x="193" y="-117" font-family="Helvetica,sans-Serif" font-size="10.00">invariant.h</text>
</a>
</g>
</g>
<!-- Node3&#45;&gt;Node6 -->
<g id="edge5_Node000003_Node000006" class="edge">
<title>Node3&#45;&gt;Node6</title>
<g id="a_edge5_Node000003_Node000006"><a xlink:title=" ">
<path fill="none" stroke="#63b8ff" d="M145.59,-274.87C151.47,-255.3 166.3,-206.08 179,-165 181.66,-156.38 184.66,-146.84 187.2,-138.81"/>
<polygon fill="#63b8ff" stroke="#63b8ff" points="190.61,-139.61 190.29,-129.02 183.94,-137.5 190.61,-139.61"/>
</a>
</g>
</g>
<!-- Node10 -->
<g id="Node000010" class="node">
<title>Node10</title>
<g id="a_Node000010"><a xlink:href="irep__ids_8h.html" target="_top" xlink:title="util">
<polygon fill="white" stroke="#666666" points="621,-239 557,-239 557,-220 621,-220 621,-239"/>
<text text-anchor="middle" x="589" y="-227" font-family="Helvetica,sans-Serif" font-size="10.00">irep_ids.h</text>
</a>
</g>
</g>
<!-- Node3&#45;&gt;Node10 -->
<g id="edge10_Node000003_Node000010" class="edge">
<title>Node3&#45;&gt;Node10</title>
<g id="a_edge10_Node000003_Node000010"><a xlink:title=" ">
<path fill="none" stroke="#63b8ff" d="M165.12,-280.87C235.35,-272.53 454.16,-246.52 546.84,-235.51"/>
<polygon fill="#63b8ff" stroke="#63b8ff" points="547.46,-238.96 556.98,-234.31 546.63,-232.01 547.46,-238.96"/>
</a>
</g>
</g>
<!-- Node21 -->
<g id="Node000021" class="node">
<title>Node21</title>
<g id="a_Node000021"><a xlink:href="forward__list__as__map_8h.html" target="_top" xlink:title=" ">
<polygon fill="white" stroke="#666666" points="394.5,-239 267.5,-239 267.5,-220 394.5,-220 394.5,-239"/>
<text text-anchor="middle" x="331" y="-227" font-family="Helvetica,sans-Serif" font-size="10.00">forward_list_as_map.h</text>
</a>
</g>
</g>
<!-- Node3&#45;&gt;Node21 -->
<g id="edge26_Node000003_Node000021" class="edge">
<title>Node3&#45;&gt;Node21</title>
<g id="a_edge26_Node000003_Node000021"><a xlink:title=" ">
<path fill="none" stroke="#63b8ff" d="M165.3,-277.21C196.2,-268.5 252.53,-252.62 290.84,-241.82"/>
<polygon fill="#63b8ff" stroke="#63b8ff" points="291.98,-245.14 300.65,-239.05 290.08,-238.4 291.98,-245.14"/>
</a>
</g>
</g>
<!-- Node6&#45;&gt;Node4 -->
<g id="edge8_Node000006_Node000004" class="edge">
<title>Node6&#45;&gt;Node4</title>
<g id="a_edge8_Node000006_Node000004"><a xlink:title=" ">
<path fill="none" stroke="#63b8ff" d="M158.15,-112.54C135.96,-106.75 108.86,-95.52 95,-74 81.26,-52.67 109.48,-34.1 134.31,-22.65"/>
<polygon fill="#63b8ff" stroke="#63b8ff" points="135.8,-25.82 143.56,-18.61 133,-19.4 135.8,-25.82"/>
</a>
</g>
</g>
<!-- Node7 -->
<g id="Node000007" class="node">
<title>Node7</title>
<g id="a_Node000007"><a xlink:title=" ">
<polygon fill="#e0e0e0" stroke="#999999" points="153.5,-74 104.5,-74 104.5,-55 153.5,-55 153.5,-74"/>
<text text-anchor="middle" x="129" y="-62" font-family="Helvetica,sans-Serif" font-size="10.00">cstdlib</text>
</a>
</g>
</g>
<!-- Node6&#45;&gt;Node7 -->
<g id="edge6_Node000006_Node000007" class="edge">
<title>Node6&#45;&gt;Node7</title>
<g id="a_edge6_Node000006_Node000007"><a xlink:title=" ">
<path fill="none" stroke="#63b8ff" d="M182.72,-109.98C173.16,-102.07 158.72,-90.11 147.22,-80.58"/>
<polygon fill="#63b8ff" stroke="#63b8ff" points="149.4,-77.85 139.47,-74.17 144.94,-83.24 149.4,-77.85"/>
</a>
</g>
</g>
<!-- Node8 -->
<g id="Node000008" class="node">
<title>Node8</title>
<g id="a_Node000008"><a xlink:title=" ">
<polygon fill="#e0e0e0" stroke="#999999" points="228,-74 172,-74 172,-55 228,-55 228,-74"/>
<text text-anchor="middle" x="200" y="-62" font-family="Helvetica,sans-Serif" font-size="10.00">sstream</text>
</a>
</g>
</g>
<!-- Node6&#45;&gt;Node8 -->
<g id="edge7_Node000006_Node000008" class="edge">
<title>Node6&#45;&gt;Node8</title>
<g id="a_edge7_Node000006_Node000008"><a xlink:title=" ">
<path fill="none" stroke="#63b8ff" d="M194.16,-109.75C195.07,-102.8 196.39,-92.85 197.54,-84.13"/>
<polygon fill="#63b8ff" stroke="#63b8ff" points="201.03,-84.46 198.87,-74.09 194.09,-83.54 201.03,-84.46"/>
</a>
</g>
</g>
<!-- Node9 -->
<g id="Node000009" class="node">
<title>Node9</title>
<g id="a_Node000009"><a xlink:title=" ">
<polygon fill="#e0e0e0" stroke="#999999" points="353.5,-74 284.5,-74 284.5,-55 353.5,-55 353.5,-74"/>
<text text-anchor="middle" x="319" y="-62" font-family="Helvetica,sans-Serif" font-size="10.00">type_traits</text>
</a>
</g>
</g>
<!-- Node6&#45;&gt;Node9 -->
<g id="edge9_Node000006_Node000009" class="edge">
<title>Node6&#45;&gt;Node9</title>
<g id="a_edge9_Node000006_Node000009"><a xlink:title=" ">
<path fill="none" stroke="#63b8ff" d="M213.24,-109.98C233.7,-101.38 265.53,-87.99 288.93,-78.15"/>
<polygon fill="#63b8ff" stroke="#63b8ff" points="290.53,-81.27 298.39,-74.17 287.81,-74.82 290.53,-81.27"/>
</a>
</g>
</g>
<!-- Node11 -->
<g id="Node000011" class="node">
<title>Node11</title>
<g id="a_Node000011"><a xlink:href="dstring_8h.html" target="_top" xlink:title="Container for C&#45;Strings.">
<polygon fill="white" stroke="#666666" points="618.5,-184 559.5,-184 559.5,-165 618.5,-165 618.5,-184"/>
<text text-anchor="middle" x="589" y="-172" font-family="Helvetica,sans-Serif" font-size="10.00">dstring.h</text>
</a>
</g>
</g>
<!-- Node10&#45;&gt;Node11 -->
<g id="edge11_Node000010_Node000011" class="edge">
<title>Node10&#45;&gt;Node11</title>
<g id="a_edge11_Node000010_Node000011"><a xlink:title=" ">
<path fill="none" stroke="#63b8ff" d="M589,-219.75C589,-212.8 589,-202.85 589,-194.13"/>
<polygon fill="#63b8ff" stroke="#63b8ff" points="592.5,-194.09 589,-184.09 585.5,-194.09 592.5,-194.09"/>
</a>
</g>
</g>
<!-- Node20 -->
<g id="Node000020" class="node">
<title>Node20</title>
<g id="a_Node000020"><a xlink:title=" ">
<polygon fill="#e0e0e0" stroke="#999999" points="711,-184 637,-184 637,-165 711,-165 711,-184"/>
<text text-anchor="middle" x="674" y="-172" font-family="Helvetica,sans-Serif" font-size="10.00">irep_ids.def</text>
</a>
</g>
</g>
<!-- Node10&#45;&gt;Node20 -->
<g id="edge25_Node000010_Node000020" class="edge">
<title>Node10&#45;&gt;Node20</title>
<g id="a_edge25_Node000010_Node000020"><a xlink:title=" ">
<path fill="none" stroke="#63b8ff" d="M602.66,-219.98C615.84,-211.77 636.03,-199.18 651.57,-189.49"/>
<polygon fill="#63b8ff" stroke="#63b8ff" points="653.46,-192.43 660.09,-184.17 649.76,-186.49 653.46,-192.43"/>
</a>
</g>
</g>
<!-- Node11&#45;&gt;Node4 -->
<g id="edge13_Node000011_Node000004" class="edge">
<title>Node11&#45;&gt;Node4</title>
<g id="a_edge13_Node000011_Node000004"><a xlink:title=" ">
<path fill="none" stroke="#63b8ff" d="M559.2,-166.4C502.47,-152.39 375.64,-118.6 275,-74 243.08,-59.85 208.65,-38.7 187.21,-24.76"/>
<polygon fill="#63b8ff" stroke="#63b8ff" points="188.87,-21.66 178.6,-19.08 185.02,-27.51 188.87,-21.66"/>
</a>
</g>
</g>
<!-- Node12 -->
<g id="Node000012" class="node">
<title>Node12</title>
<g id="a_Node000012"><a xlink:title=" ">
<polygon fill="#e0e0e0" stroke="#999999" points="707,-129 659,-129 659,-110 707,-110 707,-129"/>
<text text-anchor="middle" x="683" y="-117" font-family="Helvetica,sans-Serif" font-size="10.00">iosfwd</text>
</a>
</g>
</g>
<!-- Node11&#45;&gt;Node12 -->
<g id="edge12_Node000011_Node000012" class="edge">
<title>Node11&#45;&gt;Node12</title>
<g id="a_edge12_Node000011_Node000012"><a xlink:title=" ">
<path fill="none" stroke="#63b8ff" d="M604.1,-164.98C618.82,-156.69 641.42,-143.94 658.67,-134.22"/>
<polygon fill="#63b8ff" stroke="#63b8ff" points="660.63,-137.13 667.62,-129.17 657.19,-131.03 660.63,-137.13"/>
</a>
</g>
</g>
<!-- Node13 -->
<g id="Node000013" class="node">
<title>Node13</title>
<g id="a_Node000013"><a xlink:href="magic_8h.html" target="_top" xlink:title="Magic numbers used throughout the codebase.">
<polygon fill="white" stroke="#666666" points="781,-129 725,-129 725,-110 781,-110 781,-129"/>
<text text-anchor="middle" x="753" y="-117" font-family="Helvetica,sans-Serif" font-size="10.00">magic.h</text>
</a>
</g>
</g>
<!-- Node11&#45;&gt;Node13 -->
<g id="edge14_Node000011_Node000013" class="edge">
<title>Node11&#45;&gt;Node13</title>
<g id="a_edge14_Node000011_Node000013"><a xlink:title=" ">
<path fill="none" stroke="#63b8ff" d="M615.35,-164.98C642.76,-156.13 685.89,-142.19 716.56,-132.28"/>
<polygon fill="#63b8ff" stroke="#63b8ff" points="718,-135.49 726.44,-129.08 715.85,-128.83 718,-135.49"/>
</a>
</g>
</g>
<!-- Node15 -->
<g id="Node000015" class="node">
<title>Node15</title>
<g id="a_Node000015"><a xlink:href="string__container_8h.html" target="_top" xlink:title="Container for C&#45;Strings.">
<polygon fill="white" stroke="#666666" points="641,-129 537,-129 537,-110 641,-110 641,-129"/>
<text text-anchor="middle" x="589" y="-117" font-family="Helvetica,sans-Serif" font-size="10.00">string_container.h</text>
</a>
</g>
</g>
<!-- Node11&#45;&gt;Node15 -->
<g id="edge16_Node000011_Node000015" class="edge">
<title>Node11&#45;&gt;Node15</title>
<g id="a_edge16_Node000011_Node000015"><a xlink:title=" ">
<path fill="none" stroke="#63b8ff" d="M589,-164.75C589,-157.8 589,-147.85 589,-139.13"/>
<polygon fill="#63b8ff" stroke="#63b8ff" points="592.5,-139.09 589,-129.09 585.5,-139.09 592.5,-139.09"/>
</a>
</g>
</g>
<!-- Node14 -->
<g id="Node000014" class="node">
<title>Node14</title>
<g id="a_Node000014"><a xlink:title=" ">
<polygon fill="#e0e0e0" stroke="#999999" points="665.5,-19 612.5,-19 612.5,0 665.5,0 665.5,-19"/>
<text text-anchor="middle" x="639" y="-7" font-family="Helvetica,sans-Serif" font-size="10.00">cstddef</text>
</a>
</g>
</g>
<!-- Node13&#45;&gt;Node14 -->
<g id="edge15_Node000013_Node000014" class="edge">
<title>Node13&#45;&gt;Node14</title>
<g id="a_edge15_Node000013_Node000014"><a xlink:title=" ">
<path fill="none" stroke="#63b8ff" d="M753.42,-109.64C753.59,-96.3 751.99,-70.92 739,-55 723.13,-35.56 697.02,-24.33 675.45,-18.02"/>
<polygon fill="#63b8ff" stroke="#63b8ff" points="676.18,-14.59 665.61,-15.38 674.36,-21.35 676.18,-14.59"/>
</a>
</g>
</g>
<!-- Node15&#45;&gt;Node5 -->
<g id="edge19_Node000015_Node000005" class="edge">
<title>Node15&#45;&gt;Node5</title>
<g id="a_edge19_Node000015_Node000005"><a xlink:title=" ">
<path fill="none" stroke="#63b8ff" d="M624.51,-109.98C666.46,-99.92 735.73,-83.31 776.7,-73.49"/>
<polygon fill="#63b8ff" stroke="#63b8ff" points="777.56,-76.88 786.47,-71.14 775.93,-70.07 777.56,-76.88"/>
</a>
</g>
</g>
<!-- Node16 -->
<g id="Node000016" class="node">
<title>Node16</title>
<g id="a_Node000016"><a xlink:title=" ">
<polygon fill="#e0e0e0" stroke="#999999" points="618,-74 586,-74 586,-55 618,-55 618,-74"/>
<text text-anchor="middle" x="602" y="-62" font-family="Helvetica,sans-Serif" font-size="10.00">list</text>
</a>
</g>
</g>
<!-- Node15&#45;&gt;Node16 -->
<g id="edge17_Node000015_Node000016" class="edge">
<title>Node15&#45;&gt;Node16</title>
<g id="a_edge17_Node000015_Node000016"><a xlink:title=" ">
<path fill="none" stroke="#63b8ff" d="M591.15,-109.75C592.87,-102.72 595.35,-92.62 597.5,-83.84"/>
<polygon fill="#63b8ff" stroke="#63b8ff" points="600.91,-84.63 599.89,-74.09 594.11,-82.97 600.91,-84.63"/>
</a>
</g>
</g>
<!-- Node17 -->
<g id="Node000017" class="node">
<title>Node17</title>
<g id="a_Node000017"><a xlink:title=" ">
<polygon fill="#e0e0e0" stroke="#999999" points="729.5,-74 636.5,-74 636.5,-55 729.5,-55 729.5,-74"/>
<text text-anchor="middle" x="683" y="-62" font-family="Helvetica,sans-Serif" font-size="10.00">unordered_map</text>
</a>
</g>
</g>
<!-- Node15&#45;&gt;Node17 -->
<g id="edge18_Node000015_Node000017" class="edge">
<title>Node15&#45;&gt;Node17</title>
<g id="a_edge18_Node000015_Node000017"><a xlink:title=" ">
<path fill="none" stroke="#63b8ff" d="M604.1,-109.98C618.82,-101.69 641.42,-88.94 658.67,-79.22"/>
<polygon fill="#63b8ff" stroke="#63b8ff" points="660.63,-82.13 667.62,-74.17 657.19,-76.03 660.63,-82.13"/>
</a>
</g>
</g>
<!-- Node18 -->
<g id="Node000018" class="node">
<title>Node18</title>
<g id="a_Node000018"><a xlink:href="memory__units_8h.html" target="_top" xlink:title=" ">
<polygon fill="white" stroke="#666666" points="568,-74 472,-74 472,-55 568,-55 568,-74"/>
<text text-anchor="middle" x="520" y="-62" font-family="Helvetica,sans-Serif" font-size="10.00">memory_units.h</text>
</a>
</g>
</g>
<!-- Node15&#45;&gt;Node18 -->
<g id="edge20_Node000015_Node000018" class="edge">
<title>Node15&#45;&gt;Node18</title>
<g id="a_edge20_Node000015_Node000018"><a xlink:title=" ">
<path fill="none" stroke="#63b8ff" d="M577.91,-109.98C567.51,-102 551.74,-89.88 539.28,-80.31"/>
<polygon fill="#63b8ff" stroke="#63b8ff" points="541.35,-77.49 531.29,-74.17 537.09,-83.04 541.35,-77.49"/>
</a>
</g>
</g>
<!-- Node19 -->
<g id="Node000019" class="node">
<title>Node19</title>
<g id="a_Node000019"><a xlink:href="string__hash_8h.html" target="_top" xlink:title="string hashing">
<polygon fill="white" stroke="#666666" points="454,-74 372,-74 372,-55 454,-55 454,-74"/>
<text text-anchor="middle" x="413" y="-62" font-family="Helvetica,sans-Serif" font-size="10.00">string_hash.h</text>
</a>
</g>
</g>
<!-- Node15&#45;&gt;Node19 -->
<g id="edge23_Node000015_Node000019" class="edge">
<title>Node15&#45;&gt;Node19</title>
<g id="a_edge23_Node000015_Node000019"><a xlink:title=" ">
<path fill="none" stroke="#63b8ff" d="M560.72,-109.98C531.05,-101.05 484.21,-86.94 451.25,-77.02"/>
<polygon fill="#63b8ff" stroke="#63b8ff" points="452.08,-73.61 441.5,-74.08 450.07,-80.32 452.08,-73.61"/>
</a>
</g>
</g>
<!-- Node18&#45;&gt;Node4 -->
<g id="edge22_Node000018_Node000004" class="edge">
<title>Node18&#45;&gt;Node4</title>
<g id="a_edge22_Node000018_Node000004"><a xlink:title=" ">
<path fill="none" stroke="#63b8ff" d="M471.89,-56.3C398.62,-45.33 260.99,-24.72 198.43,-15.36"/>
<polygon fill="#63b8ff" stroke="#63b8ff" points="198.76,-11.87 188.36,-13.85 197.73,-18.79 198.76,-11.87"/>
</a>
</g>
</g>
<!-- Node18&#45;&gt;Node14 -->
<g id="edge21_Node000018_Node000014" class="edge">
<title>Node18&#45;&gt;Node14</title>
<g id="a_edge21_Node000018_Node000014"><a xlink:title=" ">
<path fill="none" stroke="#63b8ff" d="M539.12,-54.98C558.35,-46.42 588.23,-33.11 610.31,-23.28"/>
<polygon fill="#63b8ff" stroke="#63b8ff" points="611.82,-26.44 619.53,-19.17 608.97,-20.04 611.82,-26.44"/>
</a>
</g>
</g>
<!-- Node19&#45;&gt;Node4 -->
<g id="edge24_Node000019_Node000004" class="edge">
<title>Node19&#45;&gt;Node4</title>
<g id="a_edge24_Node000019_Node000004"><a xlink:title=" ">
<path fill="none" stroke="#63b8ff" d="M373.32,-54.98C324.61,-44.53 242.96,-27.01 198.04,-17.38"/>
<polygon fill="#63b8ff" stroke="#63b8ff" points="198.76,-13.95 188.25,-15.27 197.29,-20.79 198.76,-13.95"/>
</a>
</g>
</g>
<!-- Node22 -->
<g id="Node000022" class="node">
<title>Node22</title>
<g id="a_Node000022"><a xlink:title=" ">
<polygon fill="#e0e0e0" stroke="#999999" points="363,-184 299,-184 299,-165 363,-165 363,-184"/>
<text text-anchor="middle" x="331" y="-172" font-family="Helvetica,sans-Serif" font-size="10.00">algorithm</text>
</a>
</g>
</g>
<!-- Node21&#45;&gt;Node22 -->
<g id="edge27_Node000021_Node000022" class="edge">
<title>Node21&#45;&gt;Node22</title>
<g id="a_edge27_Node000021_Node000022"><a xlink:title=" ">
<path fill="none" stroke="#63b8ff" d="M331,-219.75C331,-212.8 331,-202.85 331,-194.13"/>
<polygon fill="#63b8ff" stroke="#63b8ff" points="334.5,-194.09 331,-184.09 327.5,-194.09 334.5,-194.09"/>
</a>
</g>
</g>
<!-- Node23 -->
<g id="Node000023" class="node">
<title>Node23</title>
<g id="a_Node000023"><a xlink:title=" ">
<polygon fill="#e0e0e0" stroke="#999999" points="455,-184 381,-184 381,-165 455,-165 455,-184"/>
<text text-anchor="middle" x="418" y="-172" font-family="Helvetica,sans-Serif" font-size="10.00">forward_list</text>
</a>
</g>
</g>
<!-- Node21&#45;&gt;Node23 -->
<g id="edge28_Node000021_Node000023" class="edge">
<title>Node21&#45;&gt;Node23</title>
<g id="a_edge28_Node000021_Node000023"><a xlink:title=" ">
<path fill="none" stroke="#63b8ff" d="M344.98,-219.98C358.47,-211.77 379.13,-199.18 395.04,-189.49"/>
<polygon fill="#63b8ff" stroke="#63b8ff" points="397.05,-192.36 403.77,-184.17 393.41,-186.38 397.05,-192.36"/>
</a>
</g>
</g>
<!-- Node24 -->
<g id="Node000024" class="node">
<title>Node24</title>
<g id="a_Node000024"><a xlink:href="as__const_8h.html" target="_top" xlink:title=" ">
<polygon fill="white" stroke="#666666" points="541,-184 473,-184 473,-165 541,-165 541,-184"/>
<text text-anchor="middle" x="507" y="-172" font-family="Helvetica,sans-Serif" font-size="10.00">as_const.h</text>
</a>
</g>
</g>
<!-- Node21&#45;&gt;Node24 -->
<g id="edge29_Node000021_Node000024" class="edge">
<title>Node21&#45;&gt;Node24</title>
<g id="a_edge29_Node000021_Node000024"><a xlink:title=" ">
<path fill="none" stroke="#63b8ff" d="M359.28,-219.98C388.95,-211.05 435.79,-196.94 468.75,-187.02"/>
<polygon fill="#63b8ff" stroke="#63b8ff" points="469.93,-190.32 478.5,-184.08 467.92,-183.61 469.93,-190.32"/>
</a>
</g>
</g>
<!-- Node25 -->
<g id="Node000025" class="node">
<title>Node25</title>
<g id="a_Node000025"><a xlink:href="narrow_8h.html" target="_top" xlink:title=" ">
<polygon fill="white" stroke="#666666" points="280.5,-184 221.5,-184 221.5,-165 280.5,-165 280.5,-184"/>
<text text-anchor="middle" x="251" y="-172" font-family="Helvetica,sans-Serif" font-size="10.00">narrow.h</text>
</a>
</g>
</g>
<!-- Node21&#45;&gt;Node25 -->
<g id="edge30_Node000021_Node000025" class="edge">
<title>Node21&#45;&gt;Node25</title>
<g id="a_edge30_Node000021_Node000025"><a xlink:title=" ">
<path fill="none" stroke="#63b8ff" d="M318.15,-219.98C305.86,-211.84 287.09,-199.41 272.52,-189.76"/>
<polygon fill="#63b8ff" stroke="#63b8ff" points="274.36,-186.78 264.09,-184.17 270.49,-192.61 274.36,-186.78"/>
</a>
</g>
</g>
<!-- Node25&#45;&gt;Node6 -->
<g id="edge32_Node000025_Node000006" class="edge">
<title>Node25&#45;&gt;Node6</title>
<g id="a_edge32_Node000025_Node000006"><a xlink:title=" ">
<path fill="none" stroke="#63b8ff" d="M241.68,-164.98C233.19,-157.23 220.44,-145.58 210.12,-136.14"/>
<polygon fill="#63b8ff" stroke="#63b8ff" points="212.23,-133.33 202.49,-129.17 207.51,-138.5 212.23,-133.33"/>
</a>
</g>
</g>
<!-- Node25&#45;&gt;Node9 -->
<g id="edge31_Node000025_Node000009" class="edge">
<title>Node25&#45;&gt;Node9</title>
<g id="a_edge31_Node000025_Node000009"><a xlink:title=" ">
<path fill="none" stroke="#63b8ff" d="M256.56,-164.66C267.83,-146.77 293.5,-106 308.17,-82.69"/>
<polygon fill="#63b8ff" stroke="#63b8ff" points="311.18,-84.49 313.55,-74.16 305.26,-80.76 311.18,-84.49"/>
</a>
</g>
</g>
<!-- Node26&#45;&gt;Node3 -->
<g id="edge36_Node000026_Node000003" class="edge">
<title>Node26&#45;&gt;Node3</title>
<g id="a_edge36_Node000026_Node000003"><a xlink:title=" ">
<path fill="none" stroke="#63b8ff" d="M167.21,-329.75C163.24,-322.49 157.47,-311.95 152.57,-302.98"/>
<polygon fill="#63b8ff" stroke="#63b8ff" points="155.57,-301.18 147.7,-294.09 149.43,-304.54 155.57,-301.18"/>
</a>
</g>
</g>
<!-- Node26&#45;&gt;Node6 -->
<g id="edge35_Node000026_Node000006" class="edge">
<title>Node26&#45;&gt;Node6</title>
<g id="a_edge35_Node000026_Node000006"><a xlink:title=" ">
<path fill="none" stroke="#63b8ff" d="M172.82,-329.95C175.91,-297.95 186.82,-184.68 191.18,-139.4"/>
<polygon fill="#63b8ff" stroke="#63b8ff" points="194.68,-139.51 192.16,-129.22 187.72,-138.84 194.68,-139.51"/>
</a>
</g>
</g>
</g>
</svg>
