<?xml version="1.0" encoding="UTF-8" standalone="no"?>
<!DOCTYPE svg PUBLIC "-//W3C//DTD SVG 1.1//EN"
 "http://www.w3.org/Graphics/SVG/1.1/DTD/svg11.dtd">
<!-- Generated by graphviz version 2.43.0 (0)
 -->
<!-- Title: /home/runner/work/cbmc/cbmc/src/cprover/sentinel_dll.cpp Pages: 1 -->
<svg width="1016pt" height="654pt"
 viewBox="0.00 0.00 1015.50 654.00" xmlns="http://www.w3.org/2000/svg" xmlns:xlink="http://www.w3.org/1999/xlink">
<g id="graph0" class="graph" transform="scale(1 1) rotate(0) translate(4 650)">
<title>/home/runner/work/cbmc/cbmc/src/cprover/sentinel_dll.cpp</title>
<!-- Node1 -->
<g id="Node000001" class="node">
<title>Node1</title>
<g id="a_Node000001"><a xlink:title="Axioms.">
<polygon fill="#999999" stroke="#666666" points="563.5,-646 418.5,-646 418.5,-605 563.5,-605 563.5,-646"/>
<text text-anchor="start" x="426.5" y="-634" font-family="Helvetica,sans-Serif" font-size="10.00">/home/runner/work/cbmc</text>
<text text-anchor="start" x="426.5" y="-623" font-family="Helvetica,sans-Serif" font-size="10.00">/cbmc/src/cprover/sentinel</text>
<text text-anchor="middle" x="491" y="-612" font-family="Helvetica,sans-Serif" font-size="10.00">_dll.cpp</text>
</a>
</g>
</g>
<!-- Node2 -->
<g id="Node000002" class="node">
<title>Node2</title>
<g id="a_Node000002"><a xlink:href="sentinel__dll_8h.html" target="_top" xlink:title=" ">
<polygon fill="white" stroke="#666666" points="387,-514 305,-514 305,-495 387,-495 387,-514"/>
<text text-anchor="middle" x="346" y="-502" font-family="Helvetica,sans-Serif" font-size="10.00">sentinel_dll.h</text>
</a>
</g>
</g>
<!-- Node1&#45;&gt;Node2 -->
<g id="edge1_Node000001_Node000002" class="edge">
<title>Node1&#45;&gt;Node2</title>
<g id="a_edge1_Node000001_Node000002"><a xlink:title=" ">
<path fill="none" stroke="#63b8ff" d="M455.67,-604.86C439.26,-595.03 419.91,-582.38 404,-569 387.13,-554.81 370.42,-535.86 359.31,-522.37"/>
<polygon fill="#63b8ff" stroke="#63b8ff" points="361.87,-519.97 352.86,-514.39 356.42,-524.37 361.87,-519.97"/>
</a>
</g>
</g>
<!-- Node43 -->
<g id="Node000043" class="node">
<title>Node43</title>
<g id="a_Node000043"><a xlink:href="c__types_8h.html" target="_top" xlink:title=" ">
<polygon fill="white" stroke="#666666" points="601,-569 519,-569 519,-550 601,-550 601,-569"/>
<text text-anchor="middle" x="560" y="-557" font-family="Helvetica,sans-Serif" font-size="10.00">util/c_types.h</text>
</a>
</g>
</g>
<!-- Node1&#45;&gt;Node43 -->
<g id="edge41_Node000001_Node000043" class="edge">
<title>Node1&#45;&gt;Node43</title>
<g id="a_edge41_Node000001_Node000043"><a xlink:title=" ">
<path fill="none" stroke="#63b8ff" d="M512.08,-604.95C522.01,-595.74 533.7,-584.9 543.05,-576.23"/>
<polygon fill="#63b8ff" stroke="#63b8ff" points="545.6,-578.63 550.56,-569.26 540.84,-573.49 545.6,-578.63"/>
</a>
</g>
</g>
<!-- Node44 -->
<g id="Node000044" class="node">
<title>Node44</title>
<g id="a_Node000044"><a xlink:href="pointer__expr_8h.html" target="_top" xlink:title="API to expression classes for Pointers.">
<polygon fill="white" stroke="#666666" points="534,-514 448,-514 448,-495 534,-495 534,-514"/>
<text text-anchor="middle" x="491" y="-502" font-family="Helvetica,sans-Serif" font-size="10.00">pointer_expr.h</text>
</a>
</g>
</g>
<!-- Node1&#45;&gt;Node44 -->
<g id="edge50_Node000001_Node000044" class="edge">
<title>Node1&#45;&gt;Node44</title>
<g id="a_edge50_Node000001_Node000044"><a xlink:title=" ">
<path fill="none" stroke="#63b8ff" d="M491,-604.85C491,-582.48 491,-546.19 491,-524.21"/>
<polygon fill="#63b8ff" stroke="#63b8ff" points="494.5,-524.18 491,-514.18 487.5,-524.18 494.5,-524.18"/>
</a>
</g>
</g>
<!-- Node46 -->
<g id="Node000046" class="node">
<title>Node46</title>
<g id="a_Node000046"><a xlink:href="namespace_8h.html" target="_top" xlink:title=" ">
<polygon fill="white" stroke="#666666" points="1007.5,-184 906.5,-184 906.5,-165 1007.5,-165 1007.5,-184"/>
<text text-anchor="middle" x="957" y="-172" font-family="Helvetica,sans-Serif" font-size="10.00">util/namespace.h</text>
</a>
</g>
</g>
<!-- Node1&#45;&gt;Node46 -->
<g id="edge47_Node000001_Node000046" class="edge">
<title>Node1&#45;&gt;Node46</title>
<g id="a_edge47_Node000001_Node000046"><a xlink:title=" ">
<path fill="none" stroke="#63b8ff" d="M563.98,-620.04C690.23,-610.3 936,-581.57 936,-505.5 936,-505.5 936,-505.5 936,-283.5 936,-251.46 945.02,-215.03 951.23,-193.73"/>
<polygon fill="#63b8ff" stroke="#63b8ff" points="954.61,-194.65 954.17,-184.07 947.91,-192.62 954.61,-194.65"/>
</a>
</g>
</g>
<!-- Node47 -->
<g id="Node000047" class="node">
<title>Node47</title>
<g id="a_Node000047"><a xlink:href="state_8h.html" target="_top" xlink:title=" ">
<polygon fill="white" stroke="#666666" points="463,-569 413,-569 413,-550 463,-550 463,-569"/>
<text text-anchor="middle" x="438" y="-557" font-family="Helvetica,sans-Serif" font-size="10.00">state.h</text>
</a>
</g>
</g>
<!-- Node1&#45;&gt;Node47 -->
<g id="edge51_Node000001_Node000047" class="edge">
<title>Node1&#45;&gt;Node47</title>
<g id="a_edge51_Node000001_Node000047"><a xlink:title=" ">
<path fill="none" stroke="#63b8ff" d="M474.81,-604.95C467.41,-596.02 458.75,-585.55 451.68,-577.02"/>
<polygon fill="#63b8ff" stroke="#63b8ff" points="454.33,-574.73 445.25,-569.26 448.94,-579.19 454.33,-574.73"/>
</a>
</g>
</g>
<!-- Node3 -->
<g id="Node000003" class="node">
<title>Node3</title>
<g id="a_Node000003"><a xlink:href="std__expr_8h.html" target="_top" xlink:title="API to expression classes.">
<polygon fill="white" stroke="#666666" points="388,-459 302,-459 302,-440 388,-440 388,-459"/>
<text text-anchor="middle" x="345" y="-447" font-family="Helvetica,sans-Serif" font-size="10.00">util/std_expr.h</text>
</a>
</g>
</g>
<!-- Node2&#45;&gt;Node3 -->
<g id="edge2_Node000002_Node000003" class="edge">
<title>Node2&#45;&gt;Node3</title>
<g id="a_edge2_Node000002_Node000003"><a xlink:title=" ">
<path fill="none" stroke="#63b8ff" d="M345.83,-494.75C345.7,-487.8 345.52,-477.85 345.35,-469.13"/>
<polygon fill="#63b8ff" stroke="#63b8ff" points="348.85,-469.02 345.16,-459.09 341.85,-469.15 348.85,-469.02"/>
</a>
</g>
</g>
<!-- Node4 -->
<g id="Node000004" class="node">
<title>Node4</title>
<g id="a_Node000004"><a xlink:href="expr__cast_8h.html" target="_top" xlink:title="Templated functions to cast to specific exprt&#45;derived classes.">
<polygon fill="white" stroke="#666666" points="169.5,-349 96.5,-349 96.5,-330 169.5,-330 169.5,-349"/>
<text text-anchor="middle" x="133" y="-337" font-family="Helvetica,sans-Serif" font-size="10.00">expr_cast.h</text>
</a>
</g>
</g>
<!-- Node3&#45;&gt;Node4 -->
<g id="edge3_Node000003_Node000004" class="edge">
<title>Node3&#45;&gt;Node4</title>
<g id="a_edge3_Node000003_Node000004"><a xlink:title=" ">
<path fill="none" stroke="#63b8ff" d="M328.01,-439.84C290.94,-420.96 202.6,-375.96 158.69,-353.59"/>
<polygon fill="#63b8ff" stroke="#63b8ff" points="160.28,-350.47 149.78,-349.05 157.1,-356.7 160.28,-350.47"/>
</a>
</g>
</g>
<!-- Node8 -->
<g id="Node000008" class="node">
<title>Node8</title>
<g id="a_Node000008"><a xlink:href="src_2util_2invariant_8h.html" target="_top" xlink:title=" ">
<polygon fill="white" stroke="#666666" points="653.5,-74 584.5,-74 584.5,-55 653.5,-55 653.5,-74"/>
<text text-anchor="middle" x="619" y="-62" font-family="Helvetica,sans-Serif" font-size="10.00">invariant.h</text>
</a>
</g>
</g>
<!-- Node3&#45;&gt;Node8 -->
<g id="edge30_Node000003_Node000008" class="edge">
<title>Node3&#45;&gt;Node8</title>
<g id="a_edge30_Node000003_Node000008"><a xlink:title=" ">
<path fill="none" stroke="#63b8ff" d="M301.75,-441.65C246.2,-430.83 149.62,-404.98 88,-349 44.36,-309.35 35.07,-274.74 57,-220 82.14,-157.26 101.23,-139.57 162,-110 233.91,-75.01 473.84,-67.53 574.23,-65.93"/>
<polygon fill="#63b8ff" stroke="#63b8ff" points="574.4,-69.43 584.35,-65.79 574.3,-62.43 574.4,-69.43"/>
</a>
</g>
</g>
<!-- Node40 -->
<g id="Node000040" class="node">
<title>Node40</title>
<g id="a_Node000040"><a xlink:href="std__types_8h.html" target="_top" xlink:title="Pre&#45;defined types.">
<polygon fill="white" stroke="#666666" points="531.5,-404 458.5,-404 458.5,-385 531.5,-385 531.5,-404"/>
<text text-anchor="middle" x="495" y="-392" font-family="Helvetica,sans-Serif" font-size="10.00">std_types.h</text>
</a>
</g>
</g>
<!-- Node3&#45;&gt;Node40 -->
<g id="edge31_Node000003_Node000040" class="edge">
<title>Node3&#45;&gt;Node40</title>
<g id="a_edge31_Node000003_Node000040"><a xlink:title=" ">
<path fill="none" stroke="#63b8ff" d="M369.1,-439.98C393.88,-431.23 432.7,-417.51 460.69,-407.62"/>
<polygon fill="#63b8ff" stroke="#63b8ff" points="462.2,-410.8 470.46,-404.17 459.87,-404.2 462.2,-410.8"/>
</a>
</g>
</g>
<!-- Node5 -->
<g id="Node000005" class="node">
<title>Node5</title>
<g id="a_Node000005"><a xlink:title=" ">
<polygon fill="#e0e0e0" stroke="#999999" points="131.5,-294 74.5,-294 74.5,-275 131.5,-275 131.5,-294"/>
<text text-anchor="middle" x="103" y="-282" font-family="Helvetica,sans-Serif" font-size="10.00">typeinfo</text>
</a>
</g>
</g>
<!-- Node4&#45;&gt;Node5 -->
<g id="edge4_Node000004_Node000005" class="edge">
<title>Node4&#45;&gt;Node5</title>
<g id="a_edge4_Node000004_Node000005"><a xlink:title=" ">
<path fill="none" stroke="#63b8ff" d="M128.05,-329.75C123.94,-322.49 117.97,-311.95 112.9,-302.98"/>
<polygon fill="#63b8ff" stroke="#63b8ff" points="115.83,-301.07 107.86,-294.09 109.74,-304.52 115.83,-301.07"/>
</a>
</g>
</g>
<!-- Node6 -->
<g id="Node000006" class="node">
<title>Node6</title>
<g id="a_Node000006"><a xlink:title=" ">
<polygon fill="#e0e0e0" stroke="#999999" points="561.5,-19 492.5,-19 492.5,0 561.5,0 561.5,-19"/>
<text text-anchor="middle" x="527" y="-7" font-family="Helvetica,sans-Serif" font-size="10.00">type_traits</text>
</a>
</g>
</g>
<!-- Node4&#45;&gt;Node6 -->
<g id="edge5_Node000004_Node000006" class="edge">
<title>Node4&#45;&gt;Node6</title>
<g id="a_edge5_Node000004_Node000006"><a xlink:title=" ">
<path fill="none" stroke="#63b8ff" d="M112.31,-329.97C96.13,-322.46 73.95,-310.19 59,-294 19.08,-250.78 0,-234.33 0,-175.5 0,-175.5 0,-175.5 0,-118.5 0,-20.39 354.94,-10.57 482.24,-10.21"/>
<polygon fill="#63b8ff" stroke="#63b8ff" points="482.43,-13.71 492.42,-10.2 482.42,-6.71 482.43,-13.71"/>
</a>
</g>
</g>
<!-- Node7 -->
<g id="Node000007" class="node">
<title>Node7</title>
<g id="a_Node000007"><a xlink:title=" ">
<polygon fill="#e0e0e0" stroke="#999999" points="131.5,-239 66.5,-239 66.5,-220 131.5,-220 131.5,-239"/>
<text text-anchor="middle" x="99" y="-227" font-family="Helvetica,sans-Serif" font-size="10.00">functional</text>
</a>
</g>
</g>
<!-- Node4&#45;&gt;Node7 -->
<g id="edge6_Node000004_Node000007" class="edge">
<title>Node4&#45;&gt;Node7</title>
<g id="a_edge6_Node000004_Node000007"><a xlink:title=" ">
<path fill="none" stroke="#63b8ff" d="M109.22,-329.92C93.57,-322.89 74.33,-311.25 65,-294 56.23,-277.79 68.83,-259.19 81.1,-246.33"/>
<polygon fill="#63b8ff" stroke="#63b8ff" points="83.77,-248.62 88.51,-239.14 78.89,-243.6 83.77,-248.62"/>
</a>
</g>
</g>
<!-- Node4&#45;&gt;Node8 -->
<g id="edge7_Node000004_Node000008" class="edge">
<title>Node4&#45;&gt;Node8</title>
<g id="a_edge7_Node000004_Node000008"><a xlink:title=" ">
<path fill="none" stroke="#63b8ff" d="M136.75,-329.73C144.17,-311.56 160,-268.38 160,-230.5 160,-230.5 160,-230.5 160,-173.5 160,-143.33 160.09,-128.4 184,-110 214.47,-86.56 469.02,-72.36 574.01,-67.44"/>
<polygon fill="#63b8ff" stroke="#63b8ff" points="574.45,-70.93 584.28,-66.97 574.13,-63.94 574.45,-70.93"/>
</a>
</g>
</g>
<!-- Node12 -->
<g id="Node000012" class="node">
<title>Node12</title>
<g id="a_Node000012"><a xlink:href="expr_8h.html" target="_top" xlink:title=" ">
<polygon fill="white" stroke="#666666" points="390.5,-294 343.5,-294 343.5,-275 390.5,-275 390.5,-294"/>
<text text-anchor="middle" x="367" y="-282" font-family="Helvetica,sans-Serif" font-size="10.00">expr.h</text>
</a>
</g>
</g>
<!-- Node4&#45;&gt;Node12 -->
<g id="edge12_Node000004_Node000012" class="edge">
<title>Node4&#45;&gt;Node12</title>
<g id="a_edge12_Node000004_Node000012"><a xlink:title=" ">
<path fill="none" stroke="#63b8ff" d="M169.56,-330.22C214.54,-320.03 290.27,-302.88 333.7,-293.04"/>
<polygon fill="#63b8ff" stroke="#63b8ff" points="334.51,-296.45 343.49,-290.82 332.97,-289.62 334.51,-296.45"/>
</a>
</g>
</g>
<!-- Node8&#45;&gt;Node6 -->
<g id="edge11_Node000008_Node000006" class="edge">
<title>Node8&#45;&gt;Node6</title>
<g id="a_edge11_Node000008_Node000006"><a xlink:title=" ">
<path fill="none" stroke="#63b8ff" d="M604.22,-54.98C589.82,-46.69 567.69,-33.94 550.81,-24.22"/>
<polygon fill="#63b8ff" stroke="#63b8ff" points="552.46,-21.13 542.05,-19.17 548.97,-27.19 552.46,-21.13"/>
</a>
</g>
</g>
<!-- Node9 -->
<g id="Node000009" class="node">
<title>Node9</title>
<g id="a_Node000009"><a xlink:title=" ">
<polygon fill="#e0e0e0" stroke="#999999" points="628.5,-19 579.5,-19 579.5,0 628.5,0 628.5,-19"/>
<text text-anchor="middle" x="604" y="-7" font-family="Helvetica,sans-Serif" font-size="10.00">cstdlib</text>
</a>
</g>
</g>
<!-- Node8&#45;&gt;Node9 -->
<g id="edge8_Node000008_Node000009" class="edge">
<title>Node8&#45;&gt;Node9</title>
<g id="a_edge8_Node000008_Node000009"><a xlink:title=" ">
<path fill="none" stroke="#63b8ff" d="M616.52,-54.75C614.54,-47.72 611.68,-37.62 609.19,-28.84"/>
<polygon fill="#63b8ff" stroke="#63b8ff" points="612.52,-27.76 606.43,-19.09 605.79,-29.66 612.52,-27.76"/>
</a>
</g>
</g>
<!-- Node10 -->
<g id="Node000010" class="node">
<title>Node10</title>
<g id="a_Node000010"><a xlink:title=" ">
<polygon fill="#e0e0e0" stroke="#999999" points="703,-19 647,-19 647,0 703,0 703,-19"/>
<text text-anchor="middle" x="675" y="-7" font-family="Helvetica,sans-Serif" font-size="10.00">sstream</text>
</a>
</g>
</g>
<!-- Node8&#45;&gt;Node10 -->
<g id="edge9_Node000008_Node000010" class="edge">
<title>Node8&#45;&gt;Node10</title>
<g id="a_edge9_Node000008_Node000010"><a xlink:title=" ">
<path fill="none" stroke="#63b8ff" d="M628,-54.98C636.19,-47.23 648.51,-35.58 658.47,-26.14"/>
<polygon fill="#63b8ff" stroke="#63b8ff" points="660.98,-28.59 665.84,-19.17 656.17,-23.5 660.98,-28.59"/>
</a>
</g>
</g>
<!-- Node11 -->
<g id="Node000011" class="node">
<title>Node11</title>
<g id="a_Node000011"><a xlink:title=" ">
<polygon fill="#e0e0e0" stroke="#999999" points="765,-19 721,-19 721,0 765,0 765,-19"/>
<text text-anchor="middle" x="743" y="-7" font-family="Helvetica,sans-Serif" font-size="10.00">string</text>
</a>
</g>
</g>
<!-- Node8&#45;&gt;Node11 -->
<g id="edge10_Node000008_Node000011" class="edge">
<title>Node8&#45;&gt;Node11</title>
<g id="a_edge10_Node000008_Node000011"><a xlink:title=" ">
<path fill="none" stroke="#63b8ff" d="M638.92,-54.98C659.05,-46.38 690.38,-32.99 713.41,-23.15"/>
<polygon fill="#63b8ff" stroke="#63b8ff" points="714.9,-26.32 722.71,-19.17 712.14,-19.88 714.9,-26.32"/>
</a>
</g>
</g>
<!-- Node12&#45;&gt;Node7 -->
<g id="edge29_Node000012_Node000007" class="edge">
<title>Node12&#45;&gt;Node7</title>
<g id="a_edge29_Node000012_Node000007"><a xlink:title=" ">
<path fill="none" stroke="#63b8ff" d="M343.22,-278.8C297.99,-269.85 199.03,-250.28 141.93,-238.99"/>
<polygon fill="#63b8ff" stroke="#63b8ff" points="142.27,-235.49 131.78,-236.98 140.91,-242.36 142.27,-235.49"/>
</a>
</g>
</g>
<!-- Node13 -->
<g id="Node000013" class="node">
<title>Node13</title>
<g id="a_Node000013"><a xlink:href="as__const_8h.html" target="_top" xlink:title=" ">
<polygon fill="white" stroke="#666666" points="294,-239 226,-239 226,-220 294,-220 294,-239"/>
<text text-anchor="middle" x="260" y="-227" font-family="Helvetica,sans-Serif" font-size="10.00">as_const.h</text>
</a>
</g>
</g>
<!-- Node12&#45;&gt;Node13 -->
<g id="edge13_Node000012_Node000013" class="edge">
<title>Node12&#45;&gt;Node13</title>
<g id="a_edge13_Node000012_Node000013"><a xlink:title=" ">
<path fill="none" stroke="#63b8ff" d="M349.81,-274.98C332.75,-266.54 306.37,-253.47 286.6,-243.68"/>
<polygon fill="#63b8ff" stroke="#63b8ff" points="288.02,-240.47 277.5,-239.17 284.91,-246.75 288.02,-240.47"/>
</a>
</g>
</g>
<!-- Node14 -->
<g id="Node000014" class="node">
<title>Node14</title>
<g id="a_Node000014"><a xlink:href="type_8h.html" target="_top" xlink:title="Defines typet, type_with_subtypet and type_with_subtypest.">
<polygon fill="white" stroke="#666666" points="583.5,-239 536.5,-239 536.5,-220 583.5,-220 583.5,-239"/>
<text text-anchor="middle" x="560" y="-227" font-family="Helvetica,sans-Serif" font-size="10.00">type.h</text>
</a>
</g>
</g>
<!-- Node12&#45;&gt;Node14 -->
<g id="edge14_Node000012_Node000014" class="edge">
<title>Node12&#45;&gt;Node14</title>
<g id="a_edge14_Node000012_Node000014"><a xlink:title=" ">
<path fill="none" stroke="#63b8ff" d="M390.67,-277C424.76,-267.64 487.86,-250.31 526.66,-239.66"/>
<polygon fill="#63b8ff" stroke="#63b8ff" points="527.73,-242.99 536.44,-236.97 525.87,-236.24 527.73,-242.99"/>
</a>
</g>
</g>
<!-- Node37 -->
<g id="Node000037" class="node">
<title>Node37</title>
<g id="a_Node000037"><a xlink:href="validation__mode_8h.html" target="_top" xlink:title=" ">
<polygon fill="white" stroke="#666666" points="527.5,-129 420.5,-129 420.5,-110 527.5,-110 527.5,-129"/>
<text text-anchor="middle" x="474" y="-117" font-family="Helvetica,sans-Serif" font-size="10.00">validation_mode.h</text>
</a>
</g>
</g>
<!-- Node12&#45;&gt;Node37 -->
<g id="edge28_Node000012_Node000037" class="edge">
<title>Node12&#45;&gt;Node37</title>
<g id="a_edge28_Node000012_Node000037"><a xlink:title=" ">
<path fill="none" stroke="#63b8ff" d="M390.53,-278.19C410.52,-272.3 437.98,-260.63 451,-239 468.98,-209.13 410.89,-196.88 425,-165 430.32,-152.97 440.68,-142.8 450.51,-135.24"/>
<polygon fill="#63b8ff" stroke="#63b8ff" points="452.76,-137.93 458.87,-129.27 448.7,-132.23 452.76,-137.93"/>
</a>
</g>
</g>
<!-- Node38 -->
<g id="Node000038" class="node">
<title>Node38</title>
<g id="a_Node000038"><a xlink:href="validate__types_8h.html" target="_top" xlink:title=" ">
<polygon fill="white" stroke="#666666" points="532,-184 434,-184 434,-165 532,-165 532,-184"/>
<text text-anchor="middle" x="483" y="-172" font-family="Helvetica,sans-Serif" font-size="10.00">validate_types.h</text>
</a>
</g>
</g>
<!-- Node12&#45;&gt;Node38 -->
<g id="edge27_Node000012_Node000038" class="edge">
<title>Node12&#45;&gt;Node38</title>
<g id="a_edge27_Node000012_Node000038"><a xlink:title=" ">
<path fill="none" stroke="#63b8ff" d="M390.69,-277.86C421.62,-269.96 473.11,-254.79 484,-239 492.99,-225.96 491.58,-207.57 488.61,-193.93"/>
<polygon fill="#63b8ff" stroke="#63b8ff" points="491.98,-193 486.06,-184.21 485.21,-194.77 491.98,-193"/>
</a>
</g>
</g>
<!-- Node39 -->
<g id="Node000039" class="node">
<title>Node39</title>
<g id="a_Node000039"><a xlink:href="validate__expressions_8h.html" target="_top" xlink:title=" ">
<polygon fill="white" stroke="#666666" points="441.5,-239 312.5,-239 312.5,-220 441.5,-220 441.5,-239"/>
<text text-anchor="middle" x="377" y="-227" font-family="Helvetica,sans-Serif" font-size="10.00">validate_expressions.h</text>
</a>
</g>
</g>
<!-- Node12&#45;&gt;Node39 -->
<g id="edge26_Node000012_Node000039" class="edge">
<title>Node12&#45;&gt;Node39</title>
<g id="a_edge26_Node000012_Node000039"><a xlink:title=" ">
<path fill="none" stroke="#63b8ff" d="M368.65,-274.75C369.96,-267.8 371.84,-257.85 373.48,-249.13"/>
<polygon fill="#63b8ff" stroke="#63b8ff" points="376.96,-249.56 375.38,-239.09 370.09,-248.27 376.96,-249.56"/>
</a>
</g>
</g>
<!-- Node15 -->
<g id="Node000015" class="node">
<title>Node15</title>
<g id="a_Node000015"><a xlink:href="source__location_8h.html" target="_top" xlink:title=" ">
<polygon fill="#fff0f0" stroke="red" points="812,-184 710,-184 710,-165 812,-165 812,-184"/>
<text text-anchor="middle" x="761" y="-172" font-family="Helvetica,sans-Serif" font-size="10.00">source_location.h</text>
</a>
</g>
</g>
<!-- Node14&#45;&gt;Node15 -->
<g id="edge15_Node000014_Node000015" class="edge">
<title>Node14&#45;&gt;Node15</title>
<g id="a_edge15_Node000014_Node000015"><a xlink:title=" ">
<path fill="none" stroke="#63b8ff" d="M583.85,-222.21C617.09,-213.45 677.87,-197.42 718.85,-186.61"/>
<polygon fill="#63b8ff" stroke="#63b8ff" points="719.78,-189.99 728.56,-184.05 717.99,-183.22 719.78,-189.99"/>
</a>
</g>
</g>
<!-- Node35 -->
<g id="Node000035" class="node">
<title>Node35</title>
<g id="a_Node000035"><a xlink:href="validate_8h.html" target="_top" xlink:title=" ">
<polygon fill="#fff0f0" stroke="red" points="653.5,-184 588.5,-184 588.5,-165 653.5,-165 653.5,-184"/>
<text text-anchor="middle" x="621" y="-172" font-family="Helvetica,sans-Serif" font-size="10.00">validate.h</text>
</a>
</g>
</g>
<!-- Node14&#45;&gt;Node35 -->
<g id="edge21_Node000014_Node000035" class="edge">
<title>Node14&#45;&gt;Node35</title>
<g id="a_edge21_Node000014_Node000035"><a xlink:title=" ">
<path fill="none" stroke="#63b8ff" d="M569.8,-219.98C578.82,-212.15 592.41,-200.34 603.32,-190.86"/>
<polygon fill="#63b8ff" stroke="#63b8ff" points="605.77,-193.37 611.02,-184.17 601.18,-188.09 605.77,-193.37"/>
</a>
</g>
</g>
<!-- Node14&#45;&gt;Node37 -->
<g id="edge25_Node000014_Node000037" class="edge">
<title>Node14&#45;&gt;Node37</title>
<g id="a_edge25_Node000014_Node000037"><a xlink:title=" ">
<path fill="none" stroke="#63b8ff" d="M559.28,-219.87C557.81,-206.82 553.47,-181.83 541,-165 531.14,-151.69 516.03,-141.16 502.66,-133.69"/>
<polygon fill="#63b8ff" stroke="#63b8ff" points="504.24,-130.57 493.76,-129.01 500.98,-136.77 504.24,-130.57"/>
</a>
</g>
</g>
<!-- Node14&#45;&gt;Node38 -->
<g id="edge24_Node000014_Node000038" class="edge">
<title>Node14&#45;&gt;Node38</title>
<g id="a_edge24_Node000014_Node000038"><a xlink:title=" ">
<path fill="none" stroke="#63b8ff" d="M547.63,-219.98C535.91,-211.92 518.08,-199.65 504.11,-190.03"/>
<polygon fill="#63b8ff" stroke="#63b8ff" points="505.82,-186.96 495.6,-184.17 501.85,-192.72 505.82,-186.96"/>
</a>
</g>
</g>
<!-- Node15&#45;&gt;Node11 -->
<g id="edge20_Node000015_Node000011" class="edge">
<title>Node15&#45;&gt;Node11</title>
<g id="a_edge20_Node000015_Node000011"><a xlink:title=" ">
<path fill="none" stroke="#63b8ff" d="M760.03,-164.74C757.22,-139.31 749.03,-65.08 745.12,-29.69"/>
<polygon fill="#63b8ff" stroke="#63b8ff" points="748.55,-28.86 743.97,-19.31 741.59,-29.63 748.55,-28.86"/>
</a>
</g>
</g>
<!-- Node16 -->
<g id="Node000016" class="node">
<title>Node16</title>
<g id="a_Node000016"><a xlink:href="deprecate_8h.html" target="_top" xlink:title=" ">
<polygon fill="white" stroke="#666666" points="845,-129 771,-129 771,-110 845,-110 845,-129"/>
<text text-anchor="middle" x="808" y="-117" font-family="Helvetica,sans-Serif" font-size="10.00">deprecate.h</text>
</a>
</g>
</g>
<!-- Node15&#45;&gt;Node16 -->
<g id="edge16_Node000015_Node000016" class="edge">
<title>Node15&#45;&gt;Node16</title>
<g id="a_edge16_Node000015_Node000016"><a xlink:title=" ">
<path fill="none" stroke="#63b8ff" d="M768.76,-164.75C775.47,-157.18 785.34,-146.05 793.51,-136.84"/>
<polygon fill="#63b8ff" stroke="#63b8ff" points="796.37,-138.89 800.38,-129.09 791.13,-134.25 796.37,-138.89"/>
</a>
</g>
</g>
<!-- Node17 -->
<g id="Node000017" class="node">
<title>Node17</title>
<g id="a_Node000017"><a xlink:href="irep_8h.html" target="_top" xlink:title=" ">
<polygon fill="#fff0f0" stroke="red" points="983,-129 939,-129 939,-110 983,-110 983,-129"/>
<text text-anchor="middle" x="961" y="-117" font-family="Helvetica,sans-Serif" font-size="10.00">irep.h</text>
</a>
</g>
</g>
<!-- Node15&#45;&gt;Node17 -->
<g id="edge17_Node000015_Node000017" class="edge">
<title>Node15&#45;&gt;Node17</title>
<g id="a_edge17_Node000015_Node000017"><a xlink:title=" ">
<path fill="none" stroke="#63b8ff" d="M793.13,-164.98C830.48,-155.09 891.73,-138.86 929.01,-128.98"/>
<polygon fill="#63b8ff" stroke="#63b8ff" points="930.08,-132.31 938.85,-126.37 928.29,-125.55 930.08,-132.31"/>
</a>
</g>
</g>
<!-- Node17&#45;&gt;Node8 -->
<g id="edge19_Node000017_Node000008" class="edge">
<title>Node17&#45;&gt;Node8</title>
<g id="a_edge19_Node000017_Node000008"><a xlink:title=" ">
<path fill="none" stroke="#63b8ff" d="M938.98,-112.98C934.38,-111.92 929.54,-110.86 925,-110 832.71,-92.43 723.61,-78.09 663.81,-70.77"/>
<polygon fill="#63b8ff" stroke="#63b8ff" points="663.93,-67.26 653.58,-69.53 663.09,-74.21 663.93,-67.26"/>
</a>
</g>
</g>
<!-- Node17&#45;&gt;Node11 -->
<g id="edge18_Node000017_Node000011" class="edge">
<title>Node17&#45;&gt;Node11</title>
<g id="a_edge18_Node000017_Node000011"><a xlink:title=" ">
<path fill="none" stroke="#63b8ff" d="M943.53,-109.84C905.41,-90.96 814.57,-45.96 769.41,-23.59"/>
<polygon fill="#63b8ff" stroke="#63b8ff" points="770.77,-20.35 760.25,-19.05 767.66,-26.62 770.77,-20.35"/>
</a>
</g>
</g>
<!-- Node35&#45;&gt;Node6 -->
<g id="edge22_Node000035_Node000006" class="edge">
<title>Node35&#45;&gt;Node6</title>
<g id="a_edge22_Node000035_Node000006"><a xlink:title=" ">
<path fill="none" stroke="#63b8ff" d="M615.95,-164.74C601.09,-138.98 557.35,-63.13 537.28,-28.33"/>
<polygon fill="#63b8ff" stroke="#63b8ff" points="540.11,-26.22 532.08,-19.31 534.04,-29.72 540.11,-26.22"/>
</a>
</g>
</g>
<!-- Node35&#45;&gt;Node37 -->
<g id="edge23_Node000035_Node000037" class="edge">
<title>Node35&#45;&gt;Node37</title>
<g id="a_edge23_Node000035_Node000037"><a xlink:title=" ">
<path fill="none" stroke="#63b8ff" d="M597.38,-164.98C573.1,-156.23 535.05,-142.51 507.63,-132.62"/>
<polygon fill="#63b8ff" stroke="#63b8ff" points="508.64,-129.27 498.05,-129.17 506.27,-135.85 508.64,-129.27"/>
</a>
</g>
</g>
<!-- Node40&#45;&gt;Node4 -->
<g id="edge33_Node000040_Node000004" class="edge">
<title>Node40&#45;&gt;Node4</title>
<g id="a_edge33_Node000040_Node000004"><a xlink:title=" ">
<path fill="none" stroke="#63b8ff" d="M458.3,-388.13C392.08,-378.43 252.75,-358.03 179.8,-347.35"/>
<polygon fill="#63b8ff" stroke="#63b8ff" points="179.93,-343.83 169.53,-345.85 178.92,-350.76 179.93,-343.83"/>
</a>
</g>
</g>
<!-- Node40&#45;&gt;Node8 -->
<g id="edge34_Node000040_Node000008" class="edge">
<title>Node40&#45;&gt;Node8</title>
<g id="a_edge34_Node000040_Node000008"><a xlink:title=" ">
<path fill="none" stroke="#63b8ff" d="M531.52,-393.17C577.03,-391.22 655.76,-382.73 713,-349 796.11,-300.03 820.6,-274.5 854,-184 865.39,-153.15 874.98,-135.33 854,-110 830.34,-81.43 725.24,-71.07 663.9,-67.41"/>
<polygon fill="#63b8ff" stroke="#63b8ff" points="663.9,-63.9 653.72,-66.84 663.51,-70.89 663.9,-63.9"/>
</a>
</g>
</g>
<!-- Node40&#45;&gt;Node12 -->
<g id="edge32_Node000040_Node000012" class="edge">
<title>Node40&#45;&gt;Node12</title>
<g id="a_edge32_Node000040_Node000012"><a xlink:title=" ">
<path fill="none" stroke="#63b8ff" d="M484.53,-384.66C462.76,-366.3 412.41,-323.81 385.21,-300.87"/>
<polygon fill="#63b8ff" stroke="#63b8ff" points="387.16,-297.93 377.26,-294.16 382.65,-303.28 387.16,-297.93"/>
</a>
</g>
</g>
<!-- Node40&#45;&gt;Node35 -->
<g id="edge39_Node000040_Node000035" class="edge">
<title>Node40&#45;&gt;Node35</title>
<g id="a_edge39_Node000040_Node000035"><a xlink:title=" ">
<path fill="none" stroke="#63b8ff" d="M493.81,-384.69C491.44,-363.44 488.37,-308.64 514,-275 537.38,-244.31 565.88,-266.45 593,-239 605.29,-226.55 612.65,-207.8 616.71,-193.9"/>
<polygon fill="#63b8ff" stroke="#63b8ff" points="620.16,-194.56 619.3,-184 613.38,-192.79 620.16,-194.56"/>
</a>
</g>
</g>
<!-- Node41 -->
<g id="Node000041" class="node">
<title>Node41</title>
<g id="a_Node000041"><a xlink:href="mp__arith_8h.html" target="_top" xlink:title=" ">
<polygon fill="white" stroke="#666666" points="703.5,-349 634.5,-349 634.5,-330 703.5,-330 703.5,-349"/>
<text text-anchor="middle" x="669" y="-337" font-family="Helvetica,sans-Serif" font-size="10.00">mp_arith.h</text>
</a>
</g>
</g>
<!-- Node40&#45;&gt;Node41 -->
<g id="edge35_Node000040_Node000041" class="edge">
<title>Node40&#45;&gt;Node41</title>
<g id="a_edge35_Node000040_Node000041"><a xlink:title=" ">
<path fill="none" stroke="#63b8ff" d="M522.96,-384.98C552.3,-376.05 598.6,-361.94 631.19,-352.02"/>
<polygon fill="#63b8ff" stroke="#63b8ff" points="632.28,-355.34 640.82,-349.08 630.24,-348.65 632.28,-355.34"/>
</a>
</g>
</g>
<!-- Node26 -->
<g id="Node000026" class="node">
<title>Node26</title>
<g id="a_Node000026"><a xlink:title=" ">
<polygon fill="#e0e0e0" stroke="#999999" points="616.5,-349 523.5,-349 523.5,-330 616.5,-330 616.5,-349"/>
<text text-anchor="middle" x="570" y="-337" font-family="Helvetica,sans-Serif" font-size="10.00">unordered_map</text>
</a>
</g>
</g>
<!-- Node40&#45;&gt;Node26 -->
<g id="edge40_Node000040_Node000026" class="edge">
<title>Node40&#45;&gt;Node26</title>
<g id="a_edge40_Node000040_Node000026"><a xlink:title=" ">
<path fill="none" stroke="#63b8ff" d="M507.05,-384.98C518.46,-376.92 535.83,-364.65 549.43,-355.03"/>
<polygon fill="#63b8ff" stroke="#63b8ff" points="551.58,-357.8 557.73,-349.17 547.54,-352.08 551.58,-357.8"/>
</a>
</g>
</g>
<!-- Node41&#45;&gt;Node11 -->
<g id="edge37_Node000041_Node000011" class="edge">
<title>Node41&#45;&gt;Node11</title>
<g id="a_edge37_Node000041_Node000011"><a xlink:title=" ">
<path fill="none" stroke="#63b8ff" d="M674.9,-329.75C680.4,-321.08 688.29,-307.23 692,-294 707.52,-238.66 691.42,-221.67 701,-165 709.47,-114.92 727.25,-57.61 736.73,-28.91"/>
<polygon fill="#63b8ff" stroke="#63b8ff" points="740.17,-29.67 740.03,-19.08 733.53,-27.45 740.17,-29.67"/>
</a>
</g>
</g>
<!-- Node21 -->
<g id="Node000021" class="node">
<title>Node21</title>
<g id="a_Node000021"><a xlink:title=" ">
<polygon fill="#e0e0e0" stroke="#999999" points="683,-294 635,-294 635,-275 683,-275 683,-294"/>
<text text-anchor="middle" x="659" y="-282" font-family="Helvetica,sans-Serif" font-size="10.00">iosfwd</text>
</a>
</g>
</g>
<!-- Node41&#45;&gt;Node21 -->
<g id="edge36_Node000041_Node000021" class="edge">
<title>Node41&#45;&gt;Node21</title>
<g id="a_edge36_Node000041_Node000021"><a xlink:title=" ">
<path fill="none" stroke="#63b8ff" d="M667.35,-329.75C666.04,-322.8 664.16,-312.85 662.52,-304.13"/>
<polygon fill="#63b8ff" stroke="#63b8ff" points="665.91,-303.27 660.62,-294.09 659.04,-304.56 665.91,-303.27"/>
</a>
</g>
</g>
<!-- Node42 -->
<g id="Node000042" class="node">
<title>Node42</title>
<g id="a_Node000042"><a xlink:title=" ">
<polygon fill="#e0e0e0" stroke="#999999" points="617,-294 523,-294 523,-275 617,-275 617,-294"/>
<text text-anchor="middle" x="570" y="-282" font-family="Helvetica,sans-Serif" font-size="10.00">big&#45;int/bigint.hh</text>
</a>
</g>
</g>
<!-- Node41&#45;&gt;Node42 -->
<g id="edge38_Node000041_Node000042" class="edge">
<title>Node41&#45;&gt;Node42</title>
<g id="a_edge38_Node000041_Node000042"><a xlink:title=" ">
<path fill="none" stroke="#63b8ff" d="M653.09,-329.98C637.45,-321.61 613.34,-308.7 595.12,-298.95"/>
<polygon fill="#63b8ff" stroke="#63b8ff" points="596.66,-295.8 586.2,-294.17 593.36,-301.98 596.66,-295.8"/>
</a>
</g>
</g>
<!-- Node43&#45;&gt;Node16 -->
<g id="edge42_Node000043_Node000016" class="edge">
<title>Node43&#45;&gt;Node16</title>
<g id="a_edge42_Node000043_Node000016"><a xlink:title=" ">
<path fill="none" stroke="#63b8ff" d="M601.01,-551.51C678.79,-537.09 840,-501.1 840,-450.5 840,-450.5 840,-450.5 840,-228.5 840,-195.71 826.27,-159.54 816.8,-138.49"/>
<polygon fill="#63b8ff" stroke="#63b8ff" points="819.86,-136.77 812.45,-129.2 813.52,-139.74 819.86,-136.77"/>
</a>
</g>
</g>
<!-- Node43&#45;&gt;Node44 -->
<g id="edge43_Node000043_Node000044" class="edge">
<title>Node43&#45;&gt;Node44</title>
<g id="a_edge43_Node000043_Node000044"><a xlink:title=" ">
<path fill="none" stroke="#63b8ff" d="M548.91,-549.98C538.51,-542 522.74,-529.88 510.28,-520.31"/>
<polygon fill="#63b8ff" stroke="#63b8ff" points="512.35,-517.49 502.29,-514.17 508.09,-523.04 512.35,-517.49"/>
</a>
</g>
</g>
<!-- Node44&#45;&gt;Node3 -->
<g id="edge46_Node000044_Node000003" class="edge">
<title>Node44&#45;&gt;Node3</title>
<g id="a_edge46_Node000044_Node000003"><a xlink:title=" ">
<path fill="none" stroke="#63b8ff" d="M467.54,-494.98C443.42,-486.23 405.63,-472.51 378.4,-462.62"/>
<polygon fill="#63b8ff" stroke="#63b8ff" points="379.48,-459.29 368.88,-459.17 377.09,-465.87 379.48,-459.29"/>
</a>
</g>
</g>
<!-- Node45 -->
<g id="Node000045" class="node">
<title>Node45</title>
<g id="a_Node000045"><a xlink:href="bitvector__types_8h.html" target="_top" xlink:title="Pre&#45;defined bitvector types.">
<polygon fill="white" stroke="#666666" points="545.5,-459 444.5,-459 444.5,-440 545.5,-440 545.5,-459"/>
<text text-anchor="middle" x="495" y="-447" font-family="Helvetica,sans-Serif" font-size="10.00">bitvector_types.h</text>
</a>
</g>
</g>
<!-- Node44&#45;&gt;Node45 -->
<g id="edge44_Node000044_Node000045" class="edge">
<title>Node44&#45;&gt;Node45</title>
<g id="a_edge44_Node000044_Node000045"><a xlink:title=" ">
<path fill="none" stroke="#63b8ff" d="M491.66,-494.75C492.18,-487.8 492.94,-477.85 493.59,-469.13"/>
<polygon fill="#63b8ff" stroke="#63b8ff" points="497.09,-469.32 494.35,-459.09 490.11,-468.8 497.09,-469.32"/>
</a>
</g>
</g>
<!-- Node45&#45;&gt;Node40 -->
<g id="edge45_Node000045_Node000040" class="edge">
<title>Node45&#45;&gt;Node40</title>
<g id="a_edge45_Node000045_Node000040"><a xlink:title=" ">
<path fill="none" stroke="#63b8ff" d="M495,-439.75C495,-432.8 495,-422.85 495,-414.13"/>
<polygon fill="#63b8ff" stroke="#63b8ff" points="498.5,-414.09 495,-404.09 491.5,-414.09 498.5,-414.09"/>
</a>
</g>
</g>
<!-- Node46&#45;&gt;Node8 -->
<g id="edge48_Node000046_Node000008" class="edge">
<title>Node46&#45;&gt;Node8</title>
<g id="a_edge48_Node000046_Node000008"><a xlink:title=" ">
<path fill="none" stroke="#63b8ff" d="M950.32,-164.83C938.98,-150.79 914.47,-123.29 887,-110 814.41,-74.88 719.23,-66.82 664.02,-65.34"/>
<polygon fill="#63b8ff" stroke="#63b8ff" points="663.93,-61.84 653.86,-65.13 663.79,-68.84 663.93,-61.84"/>
</a>
</g>
</g>
<!-- Node46&#45;&gt;Node17 -->
<g id="edge49_Node000046_Node000017" class="edge">
<title>Node46&#45;&gt;Node17</title>
<g id="a_edge49_Node000046_Node000017"><a xlink:title=" ">
<path fill="none" stroke="#63b8ff" d="M957.66,-164.75C958.18,-157.8 958.94,-147.85 959.59,-139.13"/>
<polygon fill="#63b8ff" stroke="#63b8ff" points="963.09,-139.32 960.35,-129.09 956.11,-138.8 963.09,-139.32"/>
</a>
</g>
</g>
<!-- Node47&#45;&gt;Node44 -->
<g id="edge56_Node000047_Node000044" class="edge">
<title>Node47&#45;&gt;Node44</title>
<g id="a_edge56_Node000047_Node000044"><a xlink:title=" ">
<path fill="none" stroke="#63b8ff" d="M446.75,-549.75C454.47,-542.03 465.9,-530.6 475.22,-521.28"/>
<polygon fill="#63b8ff" stroke="#63b8ff" points="477.81,-523.64 482.41,-514.09 472.86,-518.69 477.81,-523.64"/>
</a>
</g>
</g>
<!-- Node48 -->
<g id="Node000048" class="node">
<title>Node48</title>
<g id="a_Node000048"><a xlink:href="mathematical__types_8h.html" target="_top" xlink:title="Mathematical types.">
<polygon fill="white" stroke="#666666" points="414.5,-404 269.5,-404 269.5,-385 414.5,-385 414.5,-404"/>
<text text-anchor="middle" x="342" y="-392" font-family="Helvetica,sans-Serif" font-size="10.00">util/mathematical_types.h</text>
</a>
</g>
</g>
<!-- Node47&#45;&gt;Node48 -->
<g id="edge52_Node000047_Node000048" class="edge">
<title>Node47&#45;&gt;Node48</title>
<g id="a_edge52_Node000047_Node000048"><a xlink:title=" ">
<path fill="none" stroke="#63b8ff" d="M436.67,-549.71C433.18,-528.97 422.26,-476 397,-440 388.65,-428.1 376.26,-417.69 365.36,-409.94"/>
<polygon fill="#63b8ff" stroke="#63b8ff" points="367.28,-407.01 357.04,-404.31 363.36,-412.81 367.28,-407.01"/>
</a>
</g>
</g>
<!-- Node48&#45;&gt;Node4 -->
<g id="edge53_Node000048_Node000004" class="edge">
<title>Node48&#45;&gt;Node4</title>
<g id="a_edge53_Node000048_Node000004"><a xlink:title=" ">
<path fill="none" stroke="#63b8ff" d="M308.42,-384.98C272.65,-375.91 215.88,-361.52 176.66,-351.57"/>
<polygon fill="#63b8ff" stroke="#63b8ff" points="177.4,-348.15 166.84,-349.08 175.68,-354.93 177.4,-348.15"/>
</a>
</g>
</g>
<!-- Node48&#45;&gt;Node8 -->
<g id="edge54_Node000048_Node000008" class="edge">
<title>Node48&#45;&gt;Node8</title>
<g id="a_edge54_Node000048_Node000008"><a xlink:title=" ">
<path fill="none" stroke="#63b8ff" d="M309.68,-384.91C267.23,-371.44 198,-340.97 198,-285.5 198,-285.5 198,-285.5 198,-173.5 198,-96.55 465.23,-73.66 573.88,-67.53"/>
<polygon fill="#63b8ff" stroke="#63b8ff" points="574.39,-71.01 584.19,-66.98 574.02,-64.02 574.39,-71.01"/>
</a>
</g>
</g>
<!-- Node48&#45;&gt;Node14 -->
<g id="edge55_Node000048_Node000014" class="edge">
<title>Node48&#45;&gt;Node14</title>
<g id="a_edge55_Node000048_Node000014"><a xlink:title=" ">
<path fill="none" stroke="#63b8ff" d="M350.93,-384.8C372.3,-364.25 428.48,-311.67 481,-275 497.67,-263.36 517.64,-252.13 533.32,-243.87"/>
<polygon fill="#63b8ff" stroke="#63b8ff" points="535.2,-246.84 542.47,-239.13 531.98,-240.62 535.2,-246.84"/>
</a>
</g>
</g>
</g>
</svg>
