<?xml version="1.0" encoding="UTF-8" standalone="no"?>
<!DOCTYPE svg PUBLIC "-//W3C//DTD SVG 1.1//EN"
 "http://www.w3.org/Graphics/SVG/1.1/DTD/svg11.dtd">
<!-- Generated by graphviz version 2.43.0 (0)
 -->
<!-- Title: /home/runner/work/cbmc/cbmc/src/util/simplify_expr_boolean.cpp Pages: 1 -->
<svg width="1140pt" height="764pt"
 viewBox="0.00 0.00 1140.00 764.00" xmlns="http://www.w3.org/2000/svg" xmlns:xlink="http://www.w3.org/1999/xlink">
<g id="graph0" class="graph" transform="scale(1 1) rotate(0) translate(4 760)">
<title>/home/runner/work/cbmc/cbmc/src/util/simplify_expr_boolean.cpp</title>
<!-- Node1 -->
<g id="Node000001" class="node">
<title>Node1</title>
<g id="a_Node000001"><a xlink:title=" ">
<polygon fill="#999999" stroke="#666666" points="754,-756 616,-756 616,-715 754,-715 754,-756"/>
<text text-anchor="start" x="624" y="-744" font-family="Helvetica,sans-Serif" font-size="10.00">/home/runner/work/cbmc</text>
<text text-anchor="start" x="624" y="-733" font-family="Helvetica,sans-Serif" font-size="10.00">/cbmc/src/util/simplify</text>
<text text-anchor="middle" x="685" y="-722" font-family="Helvetica,sans-Serif" font-size="10.00">_expr_boolean.cpp</text>
</a>
</g>
</g>
<!-- Node2 -->
<g id="Node000002" class="node">
<title>Node2</title>
<g id="a_Node000002"><a xlink:href="simplify__expr__class_8h.html" target="_top" xlink:title=" ">
<polygon fill="white" stroke="#666666" points="343,-514 221,-514 221,-495 343,-495 343,-514"/>
<text text-anchor="middle" x="282" y="-502" font-family="Helvetica,sans-Serif" font-size="10.00">simplify_expr_class.h</text>
</a>
</g>
</g>
<!-- Node1&#45;&gt;Node2 -->
<g id="edge1_Node000001_Node000002" class="edge">
<title>Node1&#45;&gt;Node2</title>
<g id="a_edge1_Node000001_Node000002"><a xlink:title=" ">
<path fill="none" stroke="#63b8ff" d="M615.94,-717.68C583.94,-708.5 546.01,-695.58 514,-679 425.94,-633.38 335.89,-555.1 299.16,-521.54"/>
<polygon fill="#63b8ff" stroke="#63b8ff" points="301.11,-518.57 291.39,-514.37 296.37,-523.72 301.11,-518.57"/>
</a>
</g>
</g>
<!-- Node40 -->
<g id="Node000040" class="node">
<title>Node40</title>
<g id="a_Node000040"><a xlink:href="arith__tools_8h.html" target="_top" xlink:title=" ">
<polygon fill="white" stroke="#666666" points="146.5,-624 69.5,-624 69.5,-605 146.5,-605 146.5,-624"/>
<text text-anchor="middle" x="108" y="-612" font-family="Helvetica,sans-Serif" font-size="10.00">arith_tools.h</text>
</a>
</g>
</g>
<!-- Node1&#45;&gt;Node40 -->
<g id="edge37_Node000001_Node000040" class="edge">
<title>Node1&#45;&gt;Node40</title>
<g id="a_edge37_Node000001_Node000040"><a xlink:title=" ">
<path fill="none" stroke="#63b8ff" d="M615.72,-733.54C491.82,-730.79 238.07,-720.15 161,-679 141.67,-668.68 126.56,-648.11 117.5,-633.17"/>
<polygon fill="#63b8ff" stroke="#63b8ff" points="120.44,-631.26 112.44,-624.33 114.37,-634.74 120.44,-631.26"/>
</a>
</g>
</g>
<!-- Node41 -->
<g id="Node000041" class="node">
<title>Node41</title>
<g id="a_Node000041"><a xlink:href="std__expr_8h.html" target="_top" xlink:title="API to expression classes.">
<polygon fill="white" stroke="#666666" points="674.5,-569 607.5,-569 607.5,-550 674.5,-550 674.5,-569"/>
<text text-anchor="middle" x="641" y="-557" font-family="Helvetica,sans-Serif" font-size="10.00">std_expr.h</text>
</a>
</g>
</g>
<!-- Node1&#45;&gt;Node41 -->
<g id="edge75_Node000001_Node000041" class="edge">
<title>Node1&#45;&gt;Node41</title>
<g id="a_edge75_Node000001_Node000041"><a xlink:title=" ">
<path fill="none" stroke="#63b8ff" d="M680.04,-714.88C671.48,-681.02 654.04,-612.09 645.68,-579.01"/>
<polygon fill="#63b8ff" stroke="#63b8ff" points="649.06,-578.11 643.22,-569.27 642.28,-579.83 649.06,-578.11"/>
</a>
</g>
</g>
<!-- Node46 -->
<g id="Node000046" class="node">
<title>Node46</title>
<g id="a_Node000046"><a xlink:href="c__types_8h.html" target="_top" xlink:title=" ">
<polygon fill="white" stroke="#666666" points="586.5,-679 523.5,-679 523.5,-660 586.5,-660 586.5,-679"/>
<text text-anchor="middle" x="555" y="-667" font-family="Helvetica,sans-Serif" font-size="10.00">c_types.h</text>
</a>
</g>
</g>
<!-- Node1&#45;&gt;Node46 -->
<g id="edge56_Node000001_Node000046" class="edge">
<title>Node1&#45;&gt;Node46</title>
<g id="a_edge56_Node000001_Node000046"><a xlink:title=" ">
<path fill="none" stroke="#63b8ff" d="M645.29,-714.95C624.66,-704.79 599.99,-692.65 581.66,-683.63"/>
<polygon fill="#63b8ff" stroke="#63b8ff" points="582.97,-680.37 572.45,-679.09 579.88,-686.65 582.97,-680.37"/>
</a>
</g>
</g>
<!-- Node49 -->
<g id="Node000049" class="node">
<title>Node49</title>
<g id="a_Node000049"><a xlink:href="expr__util_8h.html" target="_top" xlink:title="Deprecated expression utility functions.">
<polygon fill="white" stroke="#666666" points="990,-404 922,-404 922,-385 990,-385 990,-404"/>
<text text-anchor="middle" x="956" y="-392" font-family="Helvetica,sans-Serif" font-size="10.00">expr_util.h</text>
</a>
</g>
</g>
<!-- Node1&#45;&gt;Node49 -->
<g id="edge62_Node000001_Node000049" class="edge">
<title>Node1&#45;&gt;Node49</title>
<g id="a_edge62_Node000001_Node000049"><a xlink:title=" ">
<path fill="none" stroke="#63b8ff" d="M754.07,-731.62C830.79,-724.28 944,-699.25 944,-615.5 944,-615.5 944,-615.5 944,-503.5 944,-472 949.11,-435.64 952.66,-414.16"/>
<polygon fill="#63b8ff" stroke="#63b8ff" points="956.13,-414.59 954.38,-404.14 949.24,-413.4 956.13,-414.59"/>
</a>
</g>
</g>
<!-- Node50 -->
<g id="Node000050" class="node">
<title>Node50</title>
<g id="a_Node000050"><a xlink:href="mathematical__expr_8h.html" target="_top" xlink:title="API to expression classes for &#39;mathematical&#39; expressions.">
<polygon fill="white" stroke="#666666" points="789,-624 669,-624 669,-605 789,-605 789,-624"/>
<text text-anchor="middle" x="729" y="-612" font-family="Helvetica,sans-Serif" font-size="10.00">mathematical_expr.h</text>
</a>
</g>
</g>
<!-- Node1&#45;&gt;Node50 -->
<g id="edge66_Node000001_Node000050" class="edge">
<title>Node1&#45;&gt;Node50</title>
<g id="a_edge66_Node000001_Node000050"><a xlink:title=" ">
<path fill="none" stroke="#63b8ff" d="M692.27,-714.85C700.61,-692.27 714.2,-655.52 722.3,-633.61"/>
<polygon fill="#63b8ff" stroke="#63b8ff" points="725.61,-634.77 725.79,-624.18 719.04,-632.34 725.61,-634.77"/>
</a>
</g>
</g>
<!-- Node52 -->
<g id="Node000052" class="node">
<title>Node52</title>
<g id="a_Node000052"><a xlink:href="namespace_8h.html" target="_top" xlink:title=" ">
<polygon fill="white" stroke="#666666" points="947,-184 865,-184 865,-165 947,-165 947,-184"/>
<text text-anchor="middle" x="906" y="-172" font-family="Helvetica,sans-Serif" font-size="10.00">namespace.h</text>
</a>
</g>
</g>
<!-- Node1&#45;&gt;Node52 -->
<g id="edge72_Node000001_Node000052" class="edge">
<title>Node1&#45;&gt;Node52</title>
<g id="a_edge72_Node000001_Node000052"><a xlink:title=" ">
<path fill="none" stroke="#63b8ff" d="M754.4,-724.08C852,-707.44 1018,-670.98 1018,-615.5 1018,-615.5 1018,-615.5 1018,-338.5 1018,-274.2 958.07,-216.75 925.89,-190.54"/>
<polygon fill="#63b8ff" stroke="#63b8ff" points="928,-187.74 917.99,-184.27 923.65,-193.23 928,-187.74"/>
</a>
</g>
</g>
<!-- Node53 -->
<g id="Node000053" class="node">
<title>Node53</title>
<g id="a_Node000053"><a xlink:title=" ">
<polygon fill="#e0e0e0" stroke="#999999" points="1132,-679 1046,-679 1046,-660 1132,-660 1132,-679"/>
<text text-anchor="middle" x="1089" y="-667" font-family="Helvetica,sans-Serif" font-size="10.00">unordered_set</text>
</a>
</g>
</g>
<!-- Node1&#45;&gt;Node53 -->
<g id="edge76_Node000001_Node000053" class="edge">
<title>Node1&#45;&gt;Node53</title>
<g id="a_edge76_Node000001_Node000053"><a xlink:title=" ">
<path fill="none" stroke="#63b8ff" d="M754.45,-723.5C834.23,-710.86 963.38,-690.4 1035.66,-678.95"/>
<polygon fill="#63b8ff" stroke="#63b8ff" points="1036.57,-682.35 1045.9,-677.33 1035.48,-675.44 1036.57,-682.35"/>
</a>
</g>
</g>
<!-- Node3 -->
<g id="Node000003" class="node">
<title>Node3</title>
<g id="a_Node000003"><a xlink:title=" ">
<polygon fill="#e0e0e0" stroke="#999999" points="298,-459 266,-459 266,-440 298,-440 298,-459"/>
<text text-anchor="middle" x="282" y="-447" font-family="Helvetica,sans-Serif" font-size="10.00">set</text>
</a>
</g>
</g>
<!-- Node2&#45;&gt;Node3 -->
<g id="edge2_Node000002_Node000003" class="edge">
<title>Node2&#45;&gt;Node3</title>
<g id="a_edge2_Node000002_Node000003"><a xlink:title=" ">
<path fill="none" stroke="#63b8ff" d="M282,-494.75C282,-487.8 282,-477.85 282,-469.13"/>
<polygon fill="#63b8ff" stroke="#63b8ff" points="285.5,-469.09 282,-459.09 278.5,-469.09 285.5,-469.09"/>
</a>
</g>
</g>
<!-- Node4 -->
<g id="Node000004" class="node">
<title>Node4</title>
<g id="a_Node000004"><a xlink:href="expr_8h.html" target="_top" xlink:title=" ">
<polygon fill="white" stroke="#666666" points="561.5,-404 514.5,-404 514.5,-385 561.5,-385 561.5,-404"/>
<text text-anchor="middle" x="538" y="-392" font-family="Helvetica,sans-Serif" font-size="10.00">expr.h</text>
</a>
</g>
</g>
<!-- Node2&#45;&gt;Node4 -->
<g id="edge3_Node000002_Node000004" class="edge">
<title>Node2&#45;&gt;Node4</title>
<g id="a_edge3_Node000002_Node000004"><a xlink:title=" ">
<path fill="none" stroke="#63b8ff" d="M299.83,-494.9C326.12,-482.33 376.94,-458.42 421,-440 448.9,-428.34 481.03,-416.21 504.55,-407.56"/>
<polygon fill="#63b8ff" stroke="#63b8ff" points="505.88,-410.81 514.07,-404.08 503.47,-404.23 505.88,-410.81"/>
</a>
</g>
</g>
<!-- Node6 -->
<g id="Node000006" class="node">
<title>Node6</title>
<g id="a_Node000006"><a xlink:href="type_8h.html" target="_top" xlink:title="Defines typet, type_with_subtypet and type_with_subtypest.">
<polygon fill="white" stroke="#666666" points="515.5,-349 468.5,-349 468.5,-330 515.5,-330 515.5,-349"/>
<text text-anchor="middle" x="492" y="-337" font-family="Helvetica,sans-Serif" font-size="10.00">type.h</text>
</a>
</g>
</g>
<!-- Node2&#45;&gt;Node6 -->
<g id="edge36_Node000002_Node000006" class="edge">
<title>Node2&#45;&gt;Node6</title>
<g id="a_edge36_Node000002_Node000006"><a xlink:title=" ">
<path fill="none" stroke="#63b8ff" d="M292.99,-494.97C326.87,-468.68 429.92,-388.69 472.88,-355.34"/>
<polygon fill="#63b8ff" stroke="#63b8ff" points="475.11,-358.04 480.86,-349.15 470.81,-352.51 475.11,-358.04"/>
</a>
</g>
</g>
<!-- Node38 -->
<g id="Node000038" class="node">
<title>Node38</title>
<g id="a_Node000038"><a xlink:href="mp__arith_8h.html" target="_top" xlink:title=" ">
<polygon fill="white" stroke="#666666" points="247.5,-459 178.5,-459 178.5,-440 247.5,-440 247.5,-459"/>
<text text-anchor="middle" x="213" y="-447" font-family="Helvetica,sans-Serif" font-size="10.00">mp_arith.h</text>
</a>
</g>
</g>
<!-- Node2&#45;&gt;Node38 -->
<g id="edge32_Node000002_Node000038" class="edge">
<title>Node2&#45;&gt;Node38</title>
<g id="a_edge32_Node000002_Node000038"><a xlink:title=" ">
<path fill="none" stroke="#63b8ff" d="M270.91,-494.98C260.51,-487 244.74,-474.88 232.28,-465.31"/>
<polygon fill="#63b8ff" stroke="#63b8ff" points="234.35,-462.49 224.29,-459.17 230.09,-468.04 234.35,-462.49"/>
</a>
</g>
</g>
<!-- Node5 -->
<g id="Node000005" class="node">
<title>Node5</title>
<g id="a_Node000005"><a xlink:href="as__const_8h.html" target="_top" xlink:title=" ">
<polygon fill="white" stroke="#666666" points="894,-19 826,-19 826,0 894,0 894,-19"/>
<text text-anchor="middle" x="860" y="-7" font-family="Helvetica,sans-Serif" font-size="10.00">as_const.h</text>
</a>
</g>
</g>
<!-- Node4&#45;&gt;Node5 -->
<g id="edge4_Node000004_Node000005" class="edge">
<title>Node4&#45;&gt;Node5</title>
<g id="a_edge4_Node000004_Node000005"><a xlink:title=" ">
<path fill="none" stroke="#63b8ff" d="M544.3,-384.75C556.47,-366.98 582,-324.98 582,-285.5 582,-285.5 582,-285.5 582,-118.5 582,-86.9 588.68,-73.91 614,-55 645.23,-31.68 753.73,-19.18 815.7,-13.79"/>
<polygon fill="#63b8ff" stroke="#63b8ff" points="816.29,-17.25 825.97,-12.93 815.71,-10.28 816.29,-17.25"/>
</a>
</g>
</g>
<!-- Node4&#45;&gt;Node6 -->
<g id="edge5_Node000004_Node000006" class="edge">
<title>Node4&#45;&gt;Node6</title>
<g id="a_edge5_Node000004_Node000006"><a xlink:title=" ">
<path fill="none" stroke="#63b8ff" d="M530.4,-384.75C523.84,-377.18 514.18,-366.05 506.19,-356.84"/>
<polygon fill="#63b8ff" stroke="#63b8ff" points="508.65,-354.35 499.45,-349.09 503.37,-358.94 508.65,-354.35"/>
</a>
</g>
</g>
<!-- Node34 -->
<g id="Node000034" class="node">
<title>Node34</title>
<g id="a_Node000034"><a xlink:href="validation__mode_8h.html" target="_top" xlink:title=" ">
<polygon fill="white" stroke="#666666" points="283.5,-239 176.5,-239 176.5,-220 283.5,-220 283.5,-239"/>
<text text-anchor="middle" x="230" y="-227" font-family="Helvetica,sans-Serif" font-size="10.00">validation_mode.h</text>
</a>
</g>
</g>
<!-- Node4&#45;&gt;Node34 -->
<g id="edge30_Node000004_Node000034" class="edge">
<title>Node4&#45;&gt;Node34</title>
<g id="a_edge30_Node000004_Node000034"><a xlink:title=" ">
<path fill="none" stroke="#63b8ff" d="M514.39,-394.44C470.74,-395.05 376.06,-390.96 312,-349 274.11,-324.18 248.8,-275.19 237.23,-248.64"/>
<polygon fill="#63b8ff" stroke="#63b8ff" points="240.31,-246.94 233.23,-239.06 233.85,-249.64 240.31,-246.94"/>
</a>
</g>
</g>
<!-- Node35 -->
<g id="Node000035" class="node">
<title>Node35</title>
<g id="a_Node000035"><a xlink:href="validate__types_8h.html" target="_top" xlink:title=" ">
<polygon fill="white" stroke="#666666" points="554,-294 456,-294 456,-275 554,-275 554,-294"/>
<text text-anchor="middle" x="505" y="-282" font-family="Helvetica,sans-Serif" font-size="10.00">validate_types.h</text>
</a>
</g>
</g>
<!-- Node4&#45;&gt;Node35 -->
<g id="edge29_Node000004_Node000035" class="edge">
<title>Node4&#45;&gt;Node35</title>
<g id="a_edge29_Node000004_Node000035"><a xlink:title=" ">
<path fill="none" stroke="#63b8ff" d="M536.6,-384.74C534.51,-372.36 530.14,-349.14 524,-330 521.11,-321 517.1,-311.32 513.5,-303.29"/>
<polygon fill="#63b8ff" stroke="#63b8ff" points="516.66,-301.78 509.28,-294.18 510.31,-304.73 516.66,-301.78"/>
</a>
</g>
</g>
<!-- Node36 -->
<g id="Node000036" class="node">
<title>Node36</title>
<g id="a_Node000036"><a xlink:href="validate__expressions_8h.html" target="_top" xlink:title=" ">
<polygon fill="white" stroke="#666666" points="450.5,-349 321.5,-349 321.5,-330 450.5,-330 450.5,-349"/>
<text text-anchor="middle" x="386" y="-337" font-family="Helvetica,sans-Serif" font-size="10.00">validate_expressions.h</text>
</a>
</g>
</g>
<!-- Node4&#45;&gt;Node36 -->
<g id="edge28_Node000004_Node000036" class="edge">
<title>Node4&#45;&gt;Node36</title>
<g id="a_edge28_Node000004_Node000036"><a xlink:title=" ">
<path fill="none" stroke="#63b8ff" d="M514.25,-385.22C489,-376.42 448.85,-362.42 420.2,-352.43"/>
<polygon fill="#63b8ff" stroke="#63b8ff" points="421.19,-349.06 410.59,-349.07 418.88,-355.67 421.19,-349.06"/>
</a>
</g>
</g>
<!-- Node37 -->
<g id="Node000037" class="node">
<title>Node37</title>
<g id="a_Node000037"><a xlink:title=" ">
<polygon fill="#e0e0e0" stroke="#999999" points="789.5,-349 724.5,-349 724.5,-330 789.5,-330 789.5,-349"/>
<text text-anchor="middle" x="757" y="-337" font-family="Helvetica,sans-Serif" font-size="10.00">functional</text>
</a>
</g>
</g>
<!-- Node4&#45;&gt;Node37 -->
<g id="edge31_Node000004_Node000037" class="edge">
<title>Node4&#45;&gt;Node37</title>
<g id="a_edge31_Node000004_Node000037"><a xlink:title=" ">
<path fill="none" stroke="#63b8ff" d="M561.85,-387.73C598.44,-378.87 668.95,-361.81 714.44,-350.8"/>
<polygon fill="#63b8ff" stroke="#63b8ff" points="715.41,-354.17 724.31,-348.41 713.76,-347.36 715.41,-354.17"/>
</a>
</g>
</g>
<!-- Node7 -->
<g id="Node000007" class="node">
<title>Node7</title>
<g id="a_Node000007"><a xlink:href="source__location_8h.html" target="_top" xlink:title=" ">
<polygon fill="white" stroke="#666666" points="469,-184 367,-184 367,-165 469,-165 469,-184"/>
<text text-anchor="middle" x="418" y="-172" font-family="Helvetica,sans-Serif" font-size="10.00">source_location.h</text>
</a>
</g>
</g>
<!-- Node6&#45;&gt;Node7 -->
<g id="edge6_Node000006_Node000007" class="edge">
<title>Node6&#45;&gt;Node7</title>
<g id="a_edge6_Node000006_Node000007"><a xlink:title=" ">
<path fill="none" stroke="#63b8ff" d="M480.23,-329.95C469.93,-321.83 455.34,-308.72 447,-294 428.79,-261.87 421.93,-218.52 419.41,-194.16"/>
<polygon fill="#63b8ff" stroke="#63b8ff" points="422.89,-193.77 418.51,-184.12 415.92,-194.4 422.89,-193.77"/>
</a>
</g>
</g>
<!-- Node32 -->
<g id="Node000032" class="node">
<title>Node32</title>
<g id="a_Node000032"><a xlink:href="validate_8h.html" target="_top" xlink:title=" ">
<polygon fill="white" stroke="#666666" points="384.5,-294 319.5,-294 319.5,-275 384.5,-275 384.5,-294"/>
<text text-anchor="middle" x="352" y="-282" font-family="Helvetica,sans-Serif" font-size="10.00">validate.h</text>
</a>
</g>
</g>
<!-- Node6&#45;&gt;Node32 -->
<g id="edge19_Node000006_Node000032" class="edge">
<title>Node6&#45;&gt;Node32</title>
<g id="a_edge19_Node000006_Node000032"><a xlink:title=" ">
<path fill="none" stroke="#63b8ff" d="M469.51,-329.98C446.48,-321.27 410.46,-307.63 384.37,-297.75"/>
<polygon fill="#63b8ff" stroke="#63b8ff" points="385.49,-294.44 374.9,-294.17 383.02,-300.98 385.49,-294.44"/>
</a>
</g>
</g>
<!-- Node6&#45;&gt;Node34 -->
<g id="edge27_Node000006_Node000034" class="edge">
<title>Node6&#45;&gt;Node34</title>
<g id="a_edge27_Node000006_Node000034"><a xlink:title=" ">
<path fill="none" stroke="#63b8ff" d="M468.22,-332.33C465.12,-331.54 461.98,-330.74 459,-330 392.9,-313.5 371.23,-323.88 310,-294 285.26,-281.93 261.1,-261.14 245.92,-246.65"/>
<polygon fill="#63b8ff" stroke="#63b8ff" points="248.06,-243.85 238.47,-239.35 243.16,-248.85 248.06,-243.85"/>
</a>
</g>
</g>
<!-- Node6&#45;&gt;Node35 -->
<g id="edge26_Node000006_Node000035" class="edge">
<title>Node6&#45;&gt;Node35</title>
<g id="a_edge26_Node000006_Node000035"><a xlink:title=" ">
<path fill="none" stroke="#63b8ff" d="M494.15,-329.75C495.87,-322.72 498.35,-312.62 500.5,-303.84"/>
<polygon fill="#63b8ff" stroke="#63b8ff" points="503.91,-304.63 502.89,-294.09 497.11,-302.97 503.91,-304.63"/>
</a>
</g>
</g>
<!-- Node8 -->
<g id="Node000008" class="node">
<title>Node8</title>
<g id="a_Node000008"><a xlink:href="deprecate_8h.html" target="_top" xlink:title=" ">
<polygon fill="white" stroke="#666666" points="442,-129 368,-129 368,-110 442,-110 442,-129"/>
<text text-anchor="middle" x="405" y="-117" font-family="Helvetica,sans-Serif" font-size="10.00">deprecate.h</text>
</a>
</g>
</g>
<!-- Node7&#45;&gt;Node8 -->
<g id="edge7_Node000007_Node000008" class="edge">
<title>Node7&#45;&gt;Node8</title>
<g id="a_edge7_Node000007_Node000008"><a xlink:title=" ">
<path fill="none" stroke="#63b8ff" d="M415.85,-164.75C414.13,-157.72 411.65,-147.62 409.5,-138.84"/>
<polygon fill="#63b8ff" stroke="#63b8ff" points="412.89,-137.97 407.11,-129.09 406.09,-139.63 412.89,-137.97"/>
</a>
</g>
</g>
<!-- Node9 -->
<g id="Node000009" class="node">
<title>Node9</title>
<g id="a_Node000009"><a xlink:href="irep_8h.html" target="_top" xlink:title=" ">
<polygon fill="white" stroke="#666666" points="928,-129 884,-129 884,-110 928,-110 928,-129"/>
<text text-anchor="middle" x="906" y="-117" font-family="Helvetica,sans-Serif" font-size="10.00">irep.h</text>
</a>
</g>
</g>
<!-- Node7&#45;&gt;Node9 -->
<g id="edge8_Node000007_Node000009" class="edge">
<title>Node7&#45;&gt;Node9</title>
<g id="a_edge8_Node000007_Node000009"><a xlink:title=" ">
<path fill="none" stroke="#63b8ff" d="M469.3,-167.93C569.99,-156.99 790.88,-133 873.75,-124"/>
<polygon fill="#63b8ff" stroke="#63b8ff" points="874.26,-127.47 883.83,-122.91 873.51,-120.51 874.26,-127.47"/>
</a>
</g>
</g>
<!-- Node10 -->
<g id="Node000010" class="node">
<title>Node10</title>
<g id="a_Node000010"><a xlink:title=" ">
<polygon fill="#e0e0e0" stroke="#999999" points="362,-19 318,-19 318,0 362,0 362,-19"/>
<text text-anchor="middle" x="340" y="-7" font-family="Helvetica,sans-Serif" font-size="10.00">string</text>
</a>
</g>
</g>
<!-- Node7&#45;&gt;Node10 -->
<g id="edge18_Node000007_Node000010" class="edge">
<title>Node7&#45;&gt;Node10</title>
<g id="a_edge18_Node000007_Node000010"><a xlink:title=" ">
<path fill="none" stroke="#63b8ff" d="M400.31,-164.96C386.74,-157.43 368.73,-145.16 359,-129 340.26,-97.87 338.24,-54.16 338.85,-29.46"/>
<polygon fill="#63b8ff" stroke="#63b8ff" points="342.35,-29.42 339.28,-19.28 335.36,-29.12 342.35,-29.42"/>
</a>
</g>
</g>
<!-- Node31 -->
<g id="Node000031" class="node">
<title>Node31</title>
<g id="a_Node000031"><a xlink:title=" ">
<polygon fill="#e0e0e0" stroke="#999999" points="516,-129 460,-129 460,-110 516,-110 516,-129"/>
<text text-anchor="middle" x="488" y="-117" font-family="Helvetica,sans-Serif" font-size="10.00">optional</text>
</a>
</g>
</g>
<!-- Node7&#45;&gt;Node31 -->
<g id="edge17_Node000007_Node000031" class="edge">
<title>Node7&#45;&gt;Node31</title>
<g id="a_edge17_Node000007_Node000031"><a xlink:title=" ">
<path fill="none" stroke="#63b8ff" d="M429.25,-164.98C439.8,-157 455.8,-144.88 468.44,-135.31"/>
<polygon fill="#63b8ff" stroke="#63b8ff" points="470.69,-138 476.55,-129.17 466.46,-132.42 470.69,-138"/>
</a>
</g>
</g>
<!-- Node9&#45;&gt;Node10 -->
<g id="edge9_Node000009_Node000010" class="edge">
<title>Node9&#45;&gt;Node10</title>
<g id="a_edge9_Node000009_Node000010"><a xlink:title=" ">
<path fill="none" stroke="#63b8ff" d="M883.9,-110.23C846.69,-96.62 768.94,-69.59 701,-55 581.35,-29.31 435.98,-17.01 372.4,-12.55"/>
<polygon fill="#63b8ff" stroke="#63b8ff" points="372.42,-9.05 362.2,-11.86 371.94,-16.03 372.42,-9.05"/>
</a>
</g>
</g>
<!-- Node11 -->
<g id="Node000011" class="node">
<title>Node11</title>
<g id="a_Node000011"><a xlink:title=" ">
<polygon fill="#e0e0e0" stroke="#999999" points="893.5,-74 846.5,-74 846.5,-55 893.5,-55 893.5,-74"/>
<text text-anchor="middle" x="870" y="-62" font-family="Helvetica,sans-Serif" font-size="10.00">vector</text>
</a>
</g>
</g>
<!-- Node9&#45;&gt;Node11 -->
<g id="edge10_Node000009_Node000011" class="edge">
<title>Node9&#45;&gt;Node11</title>
<g id="a_edge10_Node000009_Node000011"><a xlink:title=" ">
<path fill="none" stroke="#63b8ff" d="M900.06,-109.75C895.02,-102.34 887.66,-91.5 881.49,-82.41"/>
<polygon fill="#63b8ff" stroke="#63b8ff" points="884.35,-80.39 875.83,-74.09 878.56,-84.33 884.35,-80.39"/>
</a>
</g>
</g>
<!-- Node12 -->
<g id="Node000012" class="node">
<title>Node12</title>
<g id="a_Node000012"><a xlink:href="src_2util_2invariant_8h.html" target="_top" xlink:title=" ">
<polygon fill="#fff0f0" stroke="red" points="692.5,-74 623.5,-74 623.5,-55 692.5,-55 692.5,-74"/>
<text text-anchor="middle" x="658" y="-62" font-family="Helvetica,sans-Serif" font-size="10.00">invariant.h</text>
</a>
</g>
</g>
<!-- Node9&#45;&gt;Node12 -->
<g id="edge11_Node000009_Node000012" class="edge">
<title>Node9&#45;&gt;Node12</title>
<g id="a_edge11_Node000009_Node000012"><a xlink:title=" ">
<path fill="none" stroke="#63b8ff" d="M883.94,-113.2C879.33,-112.12 874.51,-111.01 870,-110 812.23,-97.12 745.37,-83.26 702.42,-74.49"/>
<polygon fill="#63b8ff" stroke="#63b8ff" points="703.07,-71.05 692.57,-72.48 701.67,-77.91 703.07,-71.05"/>
</a>
</g>
</g>
<!-- Node16 -->
<g id="Node000016" class="node">
<title>Node16</title>
<g id="a_Node000016"><a xlink:href="irep__ids_8h.html" target="_top" xlink:title="util">
<polygon fill="#fff0f0" stroke="red" points="1121,-74 1057,-74 1057,-55 1121,-55 1121,-74"/>
<text text-anchor="middle" x="1089" y="-62" font-family="Helvetica,sans-Serif" font-size="10.00">irep_ids.h</text>
</a>
</g>
</g>
<!-- Node9&#45;&gt;Node16 -->
<g id="edge14_Node000009_Node000016" class="edge">
<title>Node9&#45;&gt;Node16</title>
<g id="a_edge14_Node000009_Node000016"><a xlink:title=" ">
<path fill="none" stroke="#63b8ff" d="M928.07,-112.11C958.14,-103.4 1012.46,-87.67 1049.61,-76.91"/>
<polygon fill="#63b8ff" stroke="#63b8ff" points="1050.96,-80.16 1059.59,-74.02 1049.01,-73.44 1050.96,-80.16"/>
</a>
</g>
</g>
<!-- Node27 -->
<g id="Node000027" class="node">
<title>Node27</title>
<g id="a_Node000027"><a xlink:href="forward__list__as__map_8h.html" target="_top" xlink:title=" ">
<polygon fill="#fff0f0" stroke="red" points="1038.5,-74 911.5,-74 911.5,-55 1038.5,-55 1038.5,-74"/>
<text text-anchor="middle" x="975" y="-62" font-family="Helvetica,sans-Serif" font-size="10.00">forward_list_as_map.h</text>
</a>
</g>
</g>
<!-- Node9&#45;&gt;Node27 -->
<g id="edge15_Node000009_Node000027" class="edge">
<title>Node9&#45;&gt;Node27</title>
<g id="a_edge15_Node000009_Node000027"><a xlink:title=" ">
<path fill="none" stroke="#63b8ff" d="M917.09,-109.98C927.49,-102 943.26,-89.88 955.72,-80.31"/>
<polygon fill="#63b8ff" stroke="#63b8ff" points="957.91,-83.04 963.71,-74.17 953.65,-77.49 957.91,-83.04"/>
</a>
</g>
</g>
<!-- Node12&#45;&gt;Node10 -->
<g id="edge12_Node000012_Node000010" class="edge">
<title>Node12&#45;&gt;Node10</title>
<g id="a_edge12_Node000012_Node000010"><a xlink:title=" ">
<path fill="none" stroke="#63b8ff" d="M623.36,-57.73C561.41,-47.4 432.47,-25.91 372.27,-15.88"/>
<polygon fill="#63b8ff" stroke="#63b8ff" points="372.63,-12.39 362.2,-14.2 371.48,-19.3 372.63,-12.39"/>
</a>
</g>
</g>
<!-- Node15 -->
<g id="Node000015" class="node">
<title>Node15</title>
<g id="a_Node000015"><a xlink:title=" ">
<polygon fill="#e0e0e0" stroke="#999999" points="692.5,-19 623.5,-19 623.5,0 692.5,0 692.5,-19"/>
<text text-anchor="middle" x="658" y="-7" font-family="Helvetica,sans-Serif" font-size="10.00">type_traits</text>
</a>
</g>
</g>
<!-- Node12&#45;&gt;Node15 -->
<g id="edge13_Node000012_Node000015" class="edge">
<title>Node12&#45;&gt;Node15</title>
<g id="a_edge13_Node000012_Node000015"><a xlink:title=" ">
<path fill="none" stroke="#63b8ff" d="M658,-54.75C658,-47.8 658,-37.85 658,-29.13"/>
<polygon fill="#63b8ff" stroke="#63b8ff" points="661.5,-29.09 658,-19.09 654.5,-29.09 661.5,-29.09"/>
</a>
</g>
</g>
<!-- Node27&#45;&gt;Node5 -->
<g id="edge16_Node000027_Node000005" class="edge">
<title>Node27&#45;&gt;Node5</title>
<g id="a_edge16_Node000027_Node000005"><a xlink:title=" ">
<path fill="none" stroke="#63b8ff" d="M956.52,-54.98C938.02,-46.46 909.32,-33.23 888.02,-23.41"/>
<polygon fill="#63b8ff" stroke="#63b8ff" points="889.36,-20.18 878.81,-19.17 886.43,-26.53 889.36,-20.18"/>
</a>
</g>
</g>
<!-- Node32&#45;&gt;Node15 -->
<g id="edge20_Node000032_Node000015" class="edge">
<title>Node32&#45;&gt;Node15</title>
<g id="a_edge20_Node000032_Node000015"><a xlink:title=" ">
<path fill="none" stroke="#63b8ff" d="M384.57,-280.03C439.35,-272.2 544,-247.78 544,-175.5 544,-175.5 544,-175.5 544,-118.5 544,-88.33 547.73,-77.35 568,-55 581.43,-40.18 600.91,-29.71 618.31,-22.66"/>
<polygon fill="#63b8ff" stroke="#63b8ff" points="619.6,-25.91 627.71,-19.09 617.12,-19.37 619.6,-25.91"/>
</a>
</g>
</g>
<!-- Node33 -->
<g id="Node000033" class="node">
<title>Node33</title>
<g id="a_Node000033"><a xlink:href="exception__utils_8h.html" target="_top" xlink:title=" ">
<polygon fill="white" stroke="#666666" points="402,-239 302,-239 302,-220 402,-220 402,-239"/>
<text text-anchor="middle" x="352" y="-227" font-family="Helvetica,sans-Serif" font-size="10.00">exception_utils.h</text>
</a>
</g>
</g>
<!-- Node32&#45;&gt;Node33 -->
<g id="edge21_Node000032_Node000033" class="edge">
<title>Node32&#45;&gt;Node33</title>
<g id="a_edge21_Node000032_Node000033"><a xlink:title=" ">
<path fill="none" stroke="#63b8ff" d="M352,-274.75C352,-267.8 352,-257.85 352,-249.13"/>
<polygon fill="#63b8ff" stroke="#63b8ff" points="355.5,-249.09 352,-239.09 348.5,-249.09 355.5,-249.09"/>
</a>
</g>
</g>
<!-- Node32&#45;&gt;Node34 -->
<g id="edge25_Node000032_Node000034" class="edge">
<title>Node32&#45;&gt;Node34</title>
<g id="a_edge25_Node000032_Node000034"><a xlink:title=" ">
<path fill="none" stroke="#63b8ff" d="M332.4,-274.98C312.68,-266.42 282.05,-253.11 259.42,-243.28"/>
<polygon fill="#63b8ff" stroke="#63b8ff" points="260.52,-239.94 249.96,-239.17 257.74,-246.37 260.52,-239.94"/>
</a>
</g>
</g>
<!-- Node33&#45;&gt;Node7 -->
<g id="edge24_Node000033_Node000007" class="edge">
<title>Node33&#45;&gt;Node7</title>
<g id="a_edge24_Node000033_Node000007"><a xlink:title=" ">
<path fill="none" stroke="#63b8ff" d="M362.6,-219.98C372.46,-212.07 387.35,-200.11 399.22,-190.58"/>
<polygon fill="#63b8ff" stroke="#63b8ff" points="401.6,-193.16 407.2,-184.17 397.21,-187.7 401.6,-193.16"/>
</a>
</g>
</g>
<!-- Node33&#45;&gt;Node10 -->
<g id="edge22_Node000033_Node000010" class="edge">
<title>Node33&#45;&gt;Node10</title>
<g id="a_edge22_Node000033_Node000010"><a xlink:title=" ">
<path fill="none" stroke="#63b8ff" d="M348.45,-219.82C345.03,-210.98 340.08,-196.79 338,-184 328.94,-128.39 334.19,-61.43 337.67,-29.39"/>
<polygon fill="#63b8ff" stroke="#63b8ff" points="341.17,-29.58 338.84,-19.24 334.22,-28.78 341.17,-29.58"/>
</a>
</g>
</g>
<!-- Node33&#45;&gt;Node12 -->
<g id="edge23_Node000033_Node000012" class="edge">
<title>Node33&#45;&gt;Node12</title>
<g id="a_edge23_Node000033_Node000012"><a xlink:title=" ">
<path fill="none" stroke="#63b8ff" d="M349.33,-219.98C343.15,-198.41 330.48,-141.17 359,-110 392.33,-73.57 538.18,-66.65 613.15,-65.54"/>
<polygon fill="#63b8ff" stroke="#63b8ff" points="613.28,-69.04 623.24,-65.42 613.2,-62.04 613.28,-69.04"/>
</a>
</g>
</g>
<!-- Node38&#45;&gt;Node10 -->
<g id="edge34_Node000038_Node000010" class="edge">
<title>Node38&#45;&gt;Node10</title>
<g id="a_edge34_Node000038_Node000010"><a xlink:title=" ">
<path fill="none" stroke="#63b8ff" d="M201.89,-439.99C191.71,-431.72 176.76,-418.33 167,-404 105.08,-313.1 72,-285.48 72,-175.5 72,-175.5 72,-175.5 72,-118.5 72,-68.28 235.94,-30.55 307.38,-16.49"/>
<polygon fill="#63b8ff" stroke="#63b8ff" points="308.46,-19.85 317.61,-14.52 307.13,-12.98 308.46,-19.85"/>
</a>
</g>
</g>
<!-- Node18 -->
<g id="Node000018" class="node">
<title>Node18</title>
<g id="a_Node000018"><a xlink:title=" ">
<polygon fill="#e0e0e0" stroke="#999999" points="336,-404 288,-404 288,-385 336,-385 336,-404"/>
<text text-anchor="middle" x="312" y="-392" font-family="Helvetica,sans-Serif" font-size="10.00">iosfwd</text>
</a>
</g>
</g>
<!-- Node38&#45;&gt;Node18 -->
<g id="edge33_Node000038_Node000018" class="edge">
<title>Node38&#45;&gt;Node18</title>
<g id="a_edge33_Node000038_Node000018"><a xlink:title=" ">
<path fill="none" stroke="#63b8ff" d="M228.91,-439.98C244.55,-431.61 268.66,-418.7 286.88,-408.95"/>
<polygon fill="#63b8ff" stroke="#63b8ff" points="288.64,-411.98 295.8,-404.17 285.34,-405.8 288.64,-411.98"/>
</a>
</g>
</g>
<!-- Node39 -->
<g id="Node000039" class="node">
<title>Node39</title>
<g id="a_Node000039"><a xlink:title=" ">
<polygon fill="#e0e0e0" stroke="#999999" points="270,-404 176,-404 176,-385 270,-385 270,-404"/>
<text text-anchor="middle" x="223" y="-392" font-family="Helvetica,sans-Serif" font-size="10.00">big&#45;int/bigint.hh</text>
</a>
</g>
</g>
<!-- Node38&#45;&gt;Node39 -->
<g id="edge35_Node000038_Node000039" class="edge">
<title>Node38&#45;&gt;Node39</title>
<g id="a_edge35_Node000038_Node000039"><a xlink:title=" ">
<path fill="none" stroke="#63b8ff" d="M214.65,-439.75C215.96,-432.8 217.84,-422.85 219.48,-414.13"/>
<polygon fill="#63b8ff" stroke="#63b8ff" points="222.96,-414.56 221.38,-404.09 216.09,-413.27 222.96,-414.56"/>
</a>
</g>
</g>
<!-- Node40&#45;&gt;Node12 -->
<g id="edge38_Node000040_Node000012" class="edge">
<title>Node40&#45;&gt;Node12</title>
<g id="a_edge38_Node000040_Node000012"><a xlink:title=" ">
<path fill="none" stroke="#63b8ff" d="M102.99,-604.87C93.1,-586.97 72,-544.24 72,-505.5 72,-505.5 72,-505.5 72,-338.5 72,-100.04 475.64,-69.35 612.92,-65.81"/>
<polygon fill="#63b8ff" stroke="#63b8ff" points="613.18,-69.31 623.1,-65.59 613.02,-62.31 613.18,-69.31"/>
</a>
</g>
</g>
<!-- Node40&#45;&gt;Node38 -->
<g id="edge39_Node000040_Node000038" class="edge">
<title>Node40&#45;&gt;Node38</title>
<g id="a_edge39_Node000040_Node000038"><a xlink:title=" ">
<path fill="none" stroke="#63b8ff" d="M113.65,-604.74C130.31,-578.87 179.52,-502.48 201.8,-467.88"/>
<polygon fill="#63b8ff" stroke="#63b8ff" points="204.85,-469.61 207.33,-459.31 198.97,-465.82 204.85,-469.61"/>
</a>
</g>
</g>
<!-- Node40&#45;&gt;Node41 -->
<g id="edge40_Node000040_Node000041" class="edge">
<title>Node40&#45;&gt;Node41</title>
<g id="a_edge40_Node000040_Node000041"><a xlink:title=" ">
<path fill="none" stroke="#63b8ff" d="M146.59,-611.37C227.95,-606.59 423.18,-593.56 597.15,-568.96"/>
<polygon fill="#63b8ff" stroke="#63b8ff" points="597.85,-572.4 607.26,-567.52 596.86,-565.47 597.85,-572.4"/>
</a>
</g>
</g>
<!-- Node45 -->
<g id="Node000045" class="node">
<title>Node45</title>
<g id="a_Node000045"><a xlink:title=" ">
<polygon fill="#e0e0e0" stroke="#999999" points="44,-569 0,-569 0,-550 44,-550 44,-569"/>
<text text-anchor="middle" x="22" y="-557" font-family="Helvetica,sans-Serif" font-size="10.00">limits</text>
</a>
</g>
</g>
<!-- Node40&#45;&gt;Node45 -->
<g id="edge55_Node000040_Node000045" class="edge">
<title>Node40&#45;&gt;Node45</title>
<g id="a_edge55_Node000040_Node000045"><a xlink:title=" ">
<path fill="none" stroke="#63b8ff" d="M94.18,-604.98C80.85,-596.77 60.42,-584.18 44.69,-574.49"/>
<polygon fill="#63b8ff" stroke="#63b8ff" points="46.42,-571.44 36.07,-569.17 42.75,-577.4 46.42,-571.44"/>
</a>
</g>
</g>
<!-- Node41&#45;&gt;Node12 -->
<g id="edge47_Node000041_Node000012" class="edge">
<title>Node41&#45;&gt;Node12</title>
<g id="a_edge47_Node000041_Node000012"><a xlink:title=" ">
<path fill="none" stroke="#63b8ff" d="M641.96,-549.56C645.56,-515.35 658,-389.5 658,-285.5 658,-285.5 658,-285.5 658,-173.5 658,-142.19 658,-105.77 658,-84.23"/>
<polygon fill="#63b8ff" stroke="#63b8ff" points="661.5,-84.18 658,-74.18 654.5,-84.18 661.5,-84.18"/>
</a>
</g>
</g>
<!-- Node42 -->
<g id="Node000042" class="node">
<title>Node42</title>
<g id="a_Node000042"><a xlink:href="expr__cast_8h.html" target="_top" xlink:title="Templated functions to cast to specific exprt&#45;derived classes.">
<polygon fill="white" stroke="#666666" points="744.5,-459 671.5,-459 671.5,-440 744.5,-440 744.5,-459"/>
<text text-anchor="middle" x="708" y="-447" font-family="Helvetica,sans-Serif" font-size="10.00">expr_cast.h</text>
</a>
</g>
</g>
<!-- Node41&#45;&gt;Node42 -->
<g id="edge41_Node000041_Node000042" class="edge">
<title>Node41&#45;&gt;Node42</title>
<g id="a_edge41_Node000041_Node000042"><a xlink:title=" ">
<path fill="none" stroke="#63b8ff" d="M646.48,-549.66C657.58,-531.77 682.87,-491 697.33,-467.69"/>
<polygon fill="#63b8ff" stroke="#63b8ff" points="700.33,-469.5 702.63,-459.16 694.38,-465.81 700.33,-469.5"/>
</a>
</g>
</g>
<!-- Node44 -->
<g id="Node000044" class="node">
<title>Node44</title>
<g id="a_Node000044"><a xlink:href="std__types_8h.html" target="_top" xlink:title="Pre&#45;defined types.">
<polygon fill="white" stroke="#666666" points="581.5,-514 508.5,-514 508.5,-495 581.5,-495 581.5,-514"/>
<text text-anchor="middle" x="545" y="-502" font-family="Helvetica,sans-Serif" font-size="10.00">std_types.h</text>
</a>
</g>
</g>
<!-- Node41&#45;&gt;Node44 -->
<g id="edge48_Node000041_Node000044" class="edge">
<title>Node41&#45;&gt;Node44</title>
<g id="a_edge48_Node000041_Node000044"><a xlink:title=" ">
<path fill="none" stroke="#63b8ff" d="M625.58,-549.98C610.55,-541.69 587.46,-528.94 569.84,-519.22"/>
<polygon fill="#63b8ff" stroke="#63b8ff" points="571.15,-515.94 560.7,-514.17 567.77,-522.07 571.15,-515.94"/>
</a>
</g>
</g>
<!-- Node42&#45;&gt;Node4 -->
<g id="edge46_Node000042_Node000004" class="edge">
<title>Node42&#45;&gt;Node4</title>
<g id="a_edge46_Node000042_Node000004"><a xlink:title=" ">
<path fill="none" stroke="#63b8ff" d="M680.69,-439.98C650.96,-430.72 603.41,-415.89 571.46,-405.93"/>
<polygon fill="#63b8ff" stroke="#63b8ff" points="572.27,-402.52 561.68,-402.88 570.19,-409.2 572.27,-402.52"/>
</a>
</g>
</g>
<!-- Node42&#45;&gt;Node12 -->
<g id="edge45_Node000042_Node000012" class="edge">
<title>Node42&#45;&gt;Node12</title>
<g id="a_edge45_Node000042_Node000012"><a xlink:title=" ">
<path fill="none" stroke="#63b8ff" d="M702.03,-439.77C696.47,-431.12 688.54,-417.28 685,-404 668.15,-340.81 683.35,-174.4 672,-110 670.45,-101.23 667.65,-91.78 664.96,-83.85"/>
<polygon fill="#63b8ff" stroke="#63b8ff" points="668.16,-82.42 661.48,-74.2 661.58,-84.79 668.16,-82.42"/>
</a>
</g>
</g>
<!-- Node42&#45;&gt;Node15 -->
<g id="edge43_Node000042_Node000015" class="edge">
<title>Node42&#45;&gt;Node15</title>
<g id="a_edge43_Node000042_Node000015"><a xlink:title=" ">
<path fill="none" stroke="#63b8ff" d="M727.92,-439.98C759.62,-424.92 818,-390.41 818,-340.5 818,-340.5 818,-340.5 818,-118.5 818,-62.49 749.82,-33.59 702.47,-20.26"/>
<polygon fill="#63b8ff" stroke="#63b8ff" points="703.28,-16.86 692.72,-17.65 701.47,-23.62 703.28,-16.86"/>
</a>
</g>
</g>
<!-- Node42&#45;&gt;Node37 -->
<g id="edge44_Node000042_Node000037" class="edge">
<title>Node42&#45;&gt;Node37</title>
<g id="a_edge44_Node000042_Node000037"><a xlink:title=" ">
<path fill="none" stroke="#63b8ff" d="M724.58,-439.87C737.17,-432.3 753.54,-420.01 761,-404 767.56,-389.92 765.71,-372.15 762.7,-358.99"/>
<polygon fill="#63b8ff" stroke="#63b8ff" points="766.05,-357.95 760.07,-349.2 759.29,-359.77 766.05,-357.95"/>
</a>
</g>
</g>
<!-- Node43 -->
<g id="Node000043" class="node">
<title>Node43</title>
<g id="a_Node000043"><a xlink:title=" ">
<polygon fill="#e0e0e0" stroke="#999999" points="751.5,-404 694.5,-404 694.5,-385 751.5,-385 751.5,-404"/>
<text text-anchor="middle" x="723" y="-392" font-family="Helvetica,sans-Serif" font-size="10.00">typeinfo</text>
</a>
</g>
</g>
<!-- Node42&#45;&gt;Node43 -->
<g id="edge42_Node000042_Node000043" class="edge">
<title>Node42&#45;&gt;Node43</title>
<g id="a_edge42_Node000042_Node000043"><a xlink:title=" ">
<path fill="none" stroke="#63b8ff" d="M710.48,-439.75C712.46,-432.72 715.32,-422.62 717.81,-413.84"/>
<polygon fill="#63b8ff" stroke="#63b8ff" points="721.21,-414.66 720.57,-404.09 714.48,-412.76 721.21,-414.66"/>
</a>
</g>
</g>
<!-- Node44&#45;&gt;Node4 -->
<g id="edge49_Node000044_Node000004" class="edge">
<title>Node44&#45;&gt;Node4</title>
<g id="a_edge49_Node000044_Node000004"><a xlink:title=" ">
<path fill="none" stroke="#63b8ff" d="M544.43,-494.66C543.29,-477.17 540.74,-437.8 539.22,-414.27"/>
<polygon fill="#63b8ff" stroke="#63b8ff" points="542.7,-413.91 538.56,-404.16 535.72,-414.36 542.7,-413.91"/>
</a>
</g>
</g>
<!-- Node44&#45;&gt;Node12 -->
<g id="edge51_Node000044_Node000012" class="edge">
<title>Node44&#45;&gt;Node12</title>
<g id="a_edge51_Node000044_Node000012"><a xlink:title=" ">
<path fill="none" stroke="#63b8ff" d="M550.39,-494.74C567.59,-465.94 620,-371.15 620,-285.5 620,-285.5 620,-285.5 620,-173.5 620,-140.02 636.45,-103.84 647.7,-83.01"/>
<polygon fill="#63b8ff" stroke="#63b8ff" points="650.87,-84.53 652.72,-74.1 644.76,-81.1 650.87,-84.53"/>
</a>
</g>
</g>
<!-- Node44&#45;&gt;Node32 -->
<g id="edge53_Node000044_Node000032" class="edge">
<title>Node44&#45;&gt;Node32</title>
<g id="a_edge53_Node000044_Node000032"><a xlink:title=" ">
<path fill="none" stroke="#63b8ff" d="M508.33,-494.97C482.56,-487.9 448.01,-476.21 421,-459 417.37,-456.69 313.64,-352.98 312,-349 304.7,-331.27 319.01,-312.95 332.49,-300.57"/>
<polygon fill="#63b8ff" stroke="#63b8ff" points="334.83,-303.17 340.17,-294.02 330.29,-297.85 334.83,-303.17"/>
</a>
</g>
</g>
<!-- Node44&#45;&gt;Node38 -->
<g id="edge52_Node000044_Node000038" class="edge">
<title>Node44&#45;&gt;Node38</title>
<g id="a_edge52_Node000044_Node000038"><a xlink:title=" ">
<path fill="none" stroke="#63b8ff" d="M508.1,-498.25C455.07,-490.61 353.97,-475.67 257.49,-459.03"/>
<polygon fill="#63b8ff" stroke="#63b8ff" points="258.02,-455.56 247.56,-457.3 256.82,-462.46 258.02,-455.56"/>
</a>
</g>
</g>
<!-- Node44&#45;&gt;Node42 -->
<g id="edge50_Node000044_Node000042" class="edge">
<title>Node44&#45;&gt;Node42</title>
<g id="a_edge50_Node000044_Node000042"><a xlink:title=" ">
<path fill="none" stroke="#63b8ff" d="M571.19,-494.98C598.44,-486.13 641.3,-472.19 671.78,-462.28"/>
<polygon fill="#63b8ff" stroke="#63b8ff" points="673.18,-465.5 681.61,-459.08 671.01,-458.85 673.18,-465.5"/>
</a>
</g>
</g>
<!-- Node23 -->
<g id="Node000023" class="node">
<title>Node23</title>
<g id="a_Node000023"><a xlink:title=" ">
<polygon fill="#e0e0e0" stroke="#999999" points="523.5,-459 430.5,-459 430.5,-440 523.5,-440 523.5,-459"/>
<text text-anchor="middle" x="477" y="-447" font-family="Helvetica,sans-Serif" font-size="10.00">unordered_map</text>
</a>
</g>
</g>
<!-- Node44&#45;&gt;Node23 -->
<g id="edge54_Node000044_Node000023" class="edge">
<title>Node44&#45;&gt;Node23</title>
<g id="a_edge54_Node000044_Node000023"><a xlink:title=" ">
<path fill="none" stroke="#63b8ff" d="M534.07,-494.98C523.92,-487.07 508.58,-475.11 496.35,-465.58"/>
<polygon fill="#63b8ff" stroke="#63b8ff" points="498.16,-462.56 488.12,-459.17 493.86,-468.08 498.16,-462.56"/>
</a>
</g>
</g>
<!-- Node46&#45;&gt;Node8 -->
<g id="edge57_Node000046_Node000008" class="edge">
<title>Node46&#45;&gt;Node8</title>
<g id="a_edge57_Node000046_Node000008"><a xlink:title=" ">
<path fill="none" stroke="#63b8ff" d="M523.42,-659.9C459.52,-641.35 312.46,-592.81 212,-514 187.59,-494.85 179.64,-488.15 169,-459 149.47,-405.5 120.57,-289.74 167,-220 209.41,-156.3 301.23,-133.31 357.61,-125.06"/>
<polygon fill="#63b8ff" stroke="#63b8ff" points="358.27,-128.5 367.71,-123.69 357.33,-121.57 358.27,-128.5"/>
</a>
</g>
</g>
<!-- Node47 -->
<g id="Node000047" class="node">
<title>Node47</title>
<g id="a_Node000047"><a xlink:href="pointer__expr_8h.html" target="_top" xlink:title="API to expression classes for Pointers.">
<polygon fill="white" stroke="#666666" points="598,-624 512,-624 512,-605 598,-605 598,-624"/>
<text text-anchor="middle" x="555" y="-612" font-family="Helvetica,sans-Serif" font-size="10.00">pointer_expr.h</text>
</a>
</g>
</g>
<!-- Node46&#45;&gt;Node47 -->
<g id="edge58_Node000046_Node000047" class="edge">
<title>Node46&#45;&gt;Node47</title>
<g id="a_edge58_Node000046_Node000047"><a xlink:title=" ">
<path fill="none" stroke="#63b8ff" d="M555,-659.75C555,-652.8 555,-642.85 555,-634.13"/>
<polygon fill="#63b8ff" stroke="#63b8ff" points="558.5,-634.09 555,-624.09 551.5,-634.09 558.5,-634.09"/>
</a>
</g>
</g>
<!-- Node47&#45;&gt;Node41 -->
<g id="edge61_Node000047_Node000041" class="edge">
<title>Node47&#45;&gt;Node41</title>
<g id="a_edge61_Node000047_Node000041"><a xlink:title=" ">
<path fill="none" stroke="#63b8ff" d="M568.82,-604.98C582.15,-596.77 602.58,-584.18 618.31,-574.49"/>
<polygon fill="#63b8ff" stroke="#63b8ff" points="620.25,-577.4 626.93,-569.17 616.58,-571.44 620.25,-577.4"/>
</a>
</g>
</g>
<!-- Node48 -->
<g id="Node000048" class="node">
<title>Node48</title>
<g id="a_Node000048"><a xlink:href="bitvector__types_8h.html" target="_top" xlink:title="Pre&#45;defined bitvector types.">
<polygon fill="white" stroke="#666666" points="589.5,-569 488.5,-569 488.5,-550 589.5,-550 589.5,-569"/>
<text text-anchor="middle" x="539" y="-557" font-family="Helvetica,sans-Serif" font-size="10.00">bitvector_types.h</text>
</a>
</g>
</g>
<!-- Node47&#45;&gt;Node48 -->
<g id="edge59_Node000047_Node000048" class="edge">
<title>Node47&#45;&gt;Node48</title>
<g id="a_edge59_Node000047_Node000048"><a xlink:title=" ">
<path fill="none" stroke="#63b8ff" d="M552.36,-604.75C550.24,-597.72 547.19,-587.62 544.54,-578.84"/>
<polygon fill="#63b8ff" stroke="#63b8ff" points="547.83,-577.65 541.59,-569.09 541.13,-579.67 547.83,-577.65"/>
</a>
</g>
</g>
<!-- Node48&#45;&gt;Node44 -->
<g id="edge60_Node000048_Node000044" class="edge">
<title>Node48&#45;&gt;Node44</title>
<g id="a_edge60_Node000048_Node000044"><a xlink:title=" ">
<path fill="none" stroke="#63b8ff" d="M539.99,-549.75C540.78,-542.8 541.9,-532.85 542.89,-524.13"/>
<polygon fill="#63b8ff" stroke="#63b8ff" points="546.38,-524.42 544.03,-514.09 539.42,-523.63 546.38,-524.42"/>
</a>
</g>
</g>
<!-- Node49&#45;&gt;Node8 -->
<g id="edge63_Node000049_Node000008" class="edge">
<title>Node49&#45;&gt;Node8</title>
<g id="a_edge63_Node000049_Node000008"><a xlink:title=" ">
<path fill="none" stroke="#63b8ff" d="M938.6,-384.88C858.84,-345.36 527.94,-181.41 431.49,-133.63"/>
<polygon fill="#63b8ff" stroke="#63b8ff" points="432.92,-130.43 422.4,-129.12 429.81,-136.7 432.92,-130.43"/>
</a>
</g>
</g>
<!-- Node49&#45;&gt;Node9 -->
<g id="edge64_Node000049_Node000009" class="edge">
<title>Node49&#45;&gt;Node9</title>
<g id="a_edge64_Node000049_Node000009"><a xlink:title=" ">
<path fill="none" stroke="#63b8ff" d="M959.24,-384.96C965.79,-366.9 980,-323.34 980,-285.5 980,-285.5 980,-285.5 980,-228.5 980,-198.33 973.1,-189.86 956,-165 948.16,-153.6 936.79,-143.17 926.87,-135.28"/>
<polygon fill="#63b8ff" stroke="#63b8ff" points="928.74,-132.3 918.66,-129.04 924.5,-137.88 928.74,-132.3"/>
</a>
</g>
</g>
<!-- Node49&#45;&gt;Node37 -->
<g id="edge65_Node000049_Node000037" class="edge">
<title>Node49&#45;&gt;Node37</title>
<g id="a_edge65_Node000049_Node000037"><a xlink:title=" ">
<path fill="none" stroke="#63b8ff" d="M924.03,-384.98C890.18,-375.97 836.6,-361.7 799.29,-351.76"/>
<polygon fill="#63b8ff" stroke="#63b8ff" points="799.79,-348.27 789.22,-349.08 797.99,-355.04 799.79,-348.27"/>
</a>
</g>
</g>
<!-- Node50&#45;&gt;Node41 -->
<g id="edge71_Node000050_Node000041" class="edge">
<title>Node50&#45;&gt;Node41</title>
<g id="a_edge71_Node000050_Node000041"><a xlink:title=" ">
<path fill="none" stroke="#63b8ff" d="M714.86,-604.98C701.21,-596.77 680.31,-584.18 664.22,-574.49"/>
<polygon fill="#63b8ff" stroke="#63b8ff" points="665.77,-571.33 655.4,-569.17 662.16,-577.33 665.77,-571.33"/>
</a>
</g>
</g>
<!-- Node51 -->
<g id="Node000051" class="node">
<title>Node51</title>
<g id="a_Node000051"><a xlink:href="mathematical__types_8h.html" target="_top" xlink:title="Mathematical types.">
<polygon fill="white" stroke="#666666" points="885,-514 759,-514 759,-495 885,-495 885,-514"/>
<text text-anchor="middle" x="822" y="-502" font-family="Helvetica,sans-Serif" font-size="10.00">mathematical_types.h</text>
</a>
</g>
</g>
<!-- Node50&#45;&gt;Node51 -->
<g id="edge67_Node000050_Node000051" class="edge">
<title>Node50&#45;&gt;Node51</title>
<g id="a_edge67_Node000050_Node000051"><a xlink:title=" ">
<path fill="none" stroke="#63b8ff" d="M736.61,-604.66C752.22,-586.54 788.06,-544.91 807.99,-521.77"/>
<polygon fill="#63b8ff" stroke="#63b8ff" points="810.67,-524.02 814.54,-514.16 805.37,-519.45 810.67,-524.02"/>
</a>
</g>
</g>
<!-- Node51&#45;&gt;Node6 -->
<g id="edge70_Node000051_Node000006" class="edge">
<title>Node51&#45;&gt;Node6</title>
<g id="a_edge70_Node000051_Node000006"><a xlink:title=" ">
<path fill="none" stroke="#63b8ff" d="M820.34,-494.92C815.55,-472.7 799.52,-413.07 761,-385 724.02,-358.06 589.5,-346.43 525.83,-342.35"/>
<polygon fill="#63b8ff" stroke="#63b8ff" points="525.73,-338.84 515.53,-341.72 525.3,-345.82 525.73,-338.84"/>
</a>
</g>
</g>
<!-- Node51&#45;&gt;Node12 -->
<g id="edge69_Node000051_Node000012" class="edge">
<title>Node51&#45;&gt;Node12</title>
<g id="a_edge69_Node000051_Node000012"><a xlink:title=" ">
<path fill="none" stroke="#63b8ff" d="M832.94,-495C853.08,-478.29 894,-438.99 894,-395.5 894,-395.5 894,-395.5 894,-338.5 894,-210.94 744.71,-113.6 683.61,-79.09"/>
<polygon fill="#63b8ff" stroke="#63b8ff" points="685.04,-75.89 674.6,-74.1 681.65,-82.01 685.04,-75.89"/>
</a>
</g>
</g>
<!-- Node51&#45;&gt;Node42 -->
<g id="edge68_Node000051_Node000042" class="edge">
<title>Node51&#45;&gt;Node42</title>
<g id="a_edge68_Node000051_Node000042"><a xlink:title=" ">
<path fill="none" stroke="#63b8ff" d="M803.68,-494.98C785.34,-486.46 756.89,-473.23 735.77,-463.41"/>
<polygon fill="#63b8ff" stroke="#63b8ff" points="737.19,-460.21 726.65,-459.17 734.24,-466.56 737.19,-460.21"/>
</a>
</g>
</g>
<!-- Node52&#45;&gt;Node9 -->
<g id="edge74_Node000052_Node000009" class="edge">
<title>Node52&#45;&gt;Node9</title>
<g id="a_edge74_Node000052_Node000009"><a xlink:title=" ">
<path fill="none" stroke="#63b8ff" d="M906,-164.75C906,-157.8 906,-147.85 906,-139.13"/>
<polygon fill="#63b8ff" stroke="#63b8ff" points="909.5,-139.09 906,-129.09 902.5,-139.09 909.5,-139.09"/>
</a>
</g>
</g>
<!-- Node52&#45;&gt;Node12 -->
<g id="edge73_Node000052_Node000012" class="edge">
<title>Node52&#45;&gt;Node12</title>
<g id="a_edge73_Node000052_Node000012"><a xlink:title=" ">
<path fill="none" stroke="#63b8ff" d="M893,-164.99C872.57,-151.88 831.42,-126.53 794,-110 763.24,-96.41 726.98,-84.75 699.64,-76.78"/>
<polygon fill="#63b8ff" stroke="#63b8ff" points="700.57,-73.4 690,-74.01 698.64,-80.13 700.57,-73.4"/>
</a>
</g>
</g>
</g>
</svg>
