<?xml version="1.0" encoding="UTF-8" standalone="no"?>
<!DOCTYPE svg PUBLIC "-//W3C//DTD SVG 1.1//EN"
 "http://www.w3.org/Graphics/SVG/1.1/DTD/svg11.dtd">
<!-- Generated by graphviz version 2.43.0 (0)
 -->
<!-- Title: /home/runner/work/cbmc/cbmc/src/statement&#45;list/statement_list_parser.h Pages: 1 -->
<svg width="1249pt" height="720pt"
 viewBox="0.00 0.00 1249.00 720.00" xmlns="http://www.w3.org/2000/svg" xmlns:xlink="http://www.w3.org/1999/xlink">
<g id="graph0" class="graph" transform="scale(1 1) rotate(0) translate(4 716)">
<title>/home/runner/work/cbmc/cbmc/src/statement&#45;list/statement_list_parser.h</title>
<!-- Node1 -->
<g id="Node000001" class="node">
<title>Node1</title>
<g id="a_Node000001"><a xlink:title="Statement List Language Parser.">
<polygon fill="#999999" stroke="#666666" points="557,-712 419,-712 419,-671 557,-671 557,-712"/>
<text text-anchor="start" x="427" y="-700" font-family="Helvetica,sans-Serif" font-size="10.00">/home/runner/work/cbmc</text>
<text text-anchor="start" x="427" y="-689" font-family="Helvetica,sans-Serif" font-size="10.00">/cbmc/src/statement&#45;list</text>
<text text-anchor="middle" x="488" y="-678" font-family="Helvetica,sans-Serif" font-size="10.00">/statement_list_parser.h</text>
</a>
</g>
</g>
<!-- Node2 -->
<g id="Node000002" class="node">
<title>Node2</title>
<g id="a_Node000002"><a xlink:href="parser_8h.html" target="_top" xlink:title="Parser utilities.">
<polygon fill="white" stroke="#666666" points="309,-459 235,-459 235,-440 309,-440 309,-459"/>
<text text-anchor="middle" x="272" y="-447" font-family="Helvetica,sans-Serif" font-size="10.00">util/parser.h</text>
</a>
</g>
</g>
<!-- Node1&#45;&gt;Node2 -->
<g id="edge1_Node000001_Node000002" class="edge">
<title>Node1&#45;&gt;Node2</title>
<g id="a_edge1_Node000001_Node000002"><a xlink:title=" ">
<path fill="none" stroke="#63b8ff" d="M470.32,-670.86C428.76,-624.68 325.44,-509.88 286.85,-467"/>
<polygon fill="#63b8ff" stroke="#63b8ff" points="289.32,-464.52 280.03,-459.43 284.12,-469.2 289.32,-464.52"/>
</a>
</g>
</g>
<!-- Node40 -->
<g id="Node000040" class="node">
<title>Node40</title>
<g id="a_Node000040"><a xlink:href="statement__list__parse__tree_8h.html" target="_top" xlink:title="Statement List Language Parse Tree.">
<polygon fill="white" stroke="#666666" points="803.5,-635 684.5,-635 684.5,-605 803.5,-605 803.5,-635"/>
<text text-anchor="start" x="692.5" y="-623" font-family="Helvetica,sans-Serif" font-size="10.00">statement_list_parse</text>
<text text-anchor="middle" x="744" y="-612" font-family="Helvetica,sans-Serif" font-size="10.00">_tree.h</text>
</a>
</g>
</g>
<!-- Node1&#45;&gt;Node40 -->
<g id="edge44_Node000001_Node000040" class="edge">
<title>Node1&#45;&gt;Node40</title>
<g id="a_edge44_Node000001_Node000040"><a xlink:title=" ">
<path fill="none" stroke="#63b8ff" d="M557.28,-671.69C596.29,-661.1 644.59,-647.99 682.3,-637.75"/>
<polygon fill="#63b8ff" stroke="#63b8ff" points="683.4,-641.08 692.14,-635.08 681.57,-634.32 683.4,-641.08"/>
</a>
</g>
</g>
<!-- Node3 -->
<g id="Node000003" class="node">
<title>Node3</title>
<g id="a_Node000003"><a xlink:href="expr_8h.html" target="_top" xlink:title=" ">
<polygon fill="white" stroke="#666666" points="952.5,-404 905.5,-404 905.5,-385 952.5,-385 952.5,-404"/>
<text text-anchor="middle" x="929" y="-392" font-family="Helvetica,sans-Serif" font-size="10.00">expr.h</text>
</a>
</g>
</g>
<!-- Node2&#45;&gt;Node3 -->
<g id="edge2_Node000002_Node000003" class="edge">
<title>Node2&#45;&gt;Node3</title>
<g id="a_edge2_Node000002_Node000003"><a xlink:title=" ">
<path fill="none" stroke="#63b8ff" d="M309.21,-445.5C425.96,-436.08 783.97,-407.2 895.48,-398.2"/>
<polygon fill="#63b8ff" stroke="#63b8ff" points="895.8,-401.69 905.48,-397.4 895.23,-394.71 895.8,-401.69"/>
</a>
</g>
</g>
<!-- Node9 -->
<g id="Node000009" class="node">
<title>Node9</title>
<g id="a_Node000009"><a xlink:title=" ">
<polygon fill="#e0e0e0" stroke="#999999" points="637,-19 593,-19 593,0 637,0 637,-19"/>
<text text-anchor="middle" x="615" y="-7" font-family="Helvetica,sans-Serif" font-size="10.00">string</text>
</a>
</g>
</g>
<!-- Node2&#45;&gt;Node9 -->
<g id="edge42_Node000002_Node000009" class="edge">
<title>Node2&#45;&gt;Node9</title>
<g id="a_edge42_Node000002_Node000009"><a xlink:title=" ">
<path fill="none" stroke="#63b8ff" d="M250.82,-439.95C217.86,-425.06 158,-391.07 158,-340.5 158,-340.5 158,-340.5 158,-173.5 158,-87.84 231.22,-88.64 310,-55 403.16,-15.22 525.32,-9.94 582.65,-9.89"/>
<polygon fill="#63b8ff" stroke="#63b8ff" points="582.88,-13.39 592.9,-9.93 582.92,-6.39 582.88,-13.39"/>
</a>
</g>
</g>
<!-- Node10 -->
<g id="Node000010" class="node">
<title>Node10</title>
<g id="a_Node000010"><a xlink:title=" ">
<polygon fill="#e0e0e0" stroke="#999999" points="545.5,-74 498.5,-74 498.5,-55 545.5,-55 545.5,-74"/>
<text text-anchor="middle" x="522" y="-62" font-family="Helvetica,sans-Serif" font-size="10.00">vector</text>
</a>
</g>
</g>
<!-- Node2&#45;&gt;Node10 -->
<g id="edge43_Node000002_Node000010" class="edge">
<title>Node2&#45;&gt;Node10</title>
<g id="a_edge43_Node000002_Node000010"><a xlink:title=" ">
<path fill="none" stroke="#63b8ff" d="M268.85,-439.59C264.92,-427.03 259.47,-403.6 266,-385 314.87,-245.85 452.7,-122.37 503.18,-80.58"/>
<polygon fill="#63b8ff" stroke="#63b8ff" points="505.5,-83.2 511.02,-74.16 501.07,-77.78 505.5,-83.2"/>
</a>
</g>
</g>
<!-- Node37 -->
<g id="Node000037" class="node">
<title>Node37</title>
<g id="a_Node000037"><a xlink:href="src_2util_2message_8h.html" target="_top" xlink:title=" ">
<polygon fill="white" stroke="#666666" points="345,-404 275,-404 275,-385 345,-385 345,-404"/>
<text text-anchor="middle" x="310" y="-392" font-family="Helvetica,sans-Serif" font-size="10.00">message.h</text>
</a>
</g>
</g>
<!-- Node2&#45;&gt;Node37 -->
<g id="edge32_Node000002_Node000037" class="edge">
<title>Node2&#45;&gt;Node37</title>
<g id="a_edge32_Node000002_Node000037"><a xlink:title=" ">
<path fill="none" stroke="#63b8ff" d="M278.27,-439.75C283.59,-432.34 291.36,-421.5 297.88,-412.41"/>
<polygon fill="#63b8ff" stroke="#63b8ff" points="300.86,-414.26 303.84,-404.09 295.17,-410.18 300.86,-414.26"/>
</a>
</g>
</g>
<!-- Node17 -->
<g id="Node000017" class="node">
<title>Node17</title>
<g id="a_Node000017"><a xlink:title=" ">
<polygon fill="#e0e0e0" stroke="#999999" points="424,-349 376,-349 376,-330 424,-330 424,-349"/>
<text text-anchor="middle" x="400" y="-337" font-family="Helvetica,sans-Serif" font-size="10.00">iosfwd</text>
</a>
</g>
</g>
<!-- Node2&#45;&gt;Node17 -->
<g id="edge40_Node000002_Node000017" class="edge">
<title>Node2&#45;&gt;Node17</title>
<g id="a_edge40_Node000002_Node000017"><a xlink:title=" ">
<path fill="none" stroke="#63b8ff" d="M293.85,-439.87C311.39,-432.22 335.99,-419.82 354,-404 368.98,-390.85 381.88,-371.96 390.17,-358.21"/>
<polygon fill="#63b8ff" stroke="#63b8ff" points="393.37,-359.66 395.36,-349.25 387.32,-356.15 393.37,-359.66"/>
</a>
</g>
</g>
<!-- Node38 -->
<g id="Node000038" class="node">
<title>Node38</title>
<g id="a_Node000038"><a xlink:title=" ">
<polygon fill="#e0e0e0" stroke="#999999" points="68,-404 0,-404 0,-385 68,-385 68,-404"/>
<text text-anchor="middle" x="34" y="-392" font-family="Helvetica,sans-Serif" font-size="10.00">filesystem</text>
</a>
</g>
</g>
<!-- Node2&#45;&gt;Node38 -->
<g id="edge39_Node000002_Node000038" class="edge">
<title>Node2&#45;&gt;Node38</title>
<g id="a_edge39_Node000002_Node000038"><a xlink:title=" ">
<path fill="none" stroke="#63b8ff" d="M234.81,-440.22C192.39,-430.77 123.09,-415.34 78.02,-405.3"/>
<polygon fill="#63b8ff" stroke="#63b8ff" points="78.75,-401.88 68.23,-403.12 77.23,-408.71 78.75,-401.88"/>
</a>
</g>
</g>
<!-- Node39 -->
<g id="Node000039" class="node">
<title>Node39</title>
<g id="a_Node000039"><a xlink:title=" ">
<polygon fill="#e0e0e0" stroke="#999999" points="130,-404 86,-404 86,-385 130,-385 130,-404"/>
<text text-anchor="middle" x="108" y="-392" font-family="Helvetica,sans-Serif" font-size="10.00">limits</text>
</a>
</g>
</g>
<!-- Node2&#45;&gt;Node39 -->
<g id="edge41_Node000002_Node000039" class="edge">
<title>Node2&#45;&gt;Node39</title>
<g id="a_edge41_Node000002_Node000039"><a xlink:title=" ">
<path fill="none" stroke="#63b8ff" d="M245.65,-439.98C216.85,-430.68 170.72,-415.77 139.9,-405.81"/>
<polygon fill="#63b8ff" stroke="#63b8ff" points="140.67,-402.38 130.08,-402.63 138.52,-409.04 140.67,-402.38"/>
</a>
</g>
</g>
<!-- Node4 -->
<g id="Node000004" class="node">
<title>Node4</title>
<g id="a_Node000004"><a xlink:href="as__const_8h.html" target="_top" xlink:title=" ">
<polygon fill="white" stroke="#666666" points="1237,-19 1169,-19 1169,0 1237,0 1237,-19"/>
<text text-anchor="middle" x="1203" y="-7" font-family="Helvetica,sans-Serif" font-size="10.00">as_const.h</text>
</a>
</g>
</g>
<!-- Node3&#45;&gt;Node4 -->
<g id="edge3_Node000003_Node000004" class="edge">
<title>Node3&#45;&gt;Node4</title>
<g id="a_edge3_Node000003_Node000004"><a xlink:title=" ">
<path fill="none" stroke="#63b8ff" d="M952.93,-393.36C1012.93,-391.63 1165,-378.1 1165,-285.5 1165,-285.5 1165,-285.5 1165,-228.5 1165,-153.65 1187.01,-66.45 1197.53,-29.06"/>
<polygon fill="#63b8ff" stroke="#63b8ff" points="1200.99,-29.71 1200.39,-19.13 1194.26,-27.77 1200.99,-29.71"/>
</a>
</g>
</g>
<!-- Node5 -->
<g id="Node000005" class="node">
<title>Node5</title>
<g id="a_Node000005"><a xlink:href="type_8h.html" target="_top" xlink:title="Defines typet, type_with_subtypet and type_with_subtypest.">
<polygon fill="white" stroke="#666666" points="1060.5,-349 1013.5,-349 1013.5,-330 1060.5,-330 1060.5,-349"/>
<text text-anchor="middle" x="1037" y="-337" font-family="Helvetica,sans-Serif" font-size="10.00">type.h</text>
</a>
</g>
</g>
<!-- Node3&#45;&gt;Node5 -->
<g id="edge4_Node000003_Node000005" class="edge">
<title>Node3&#45;&gt;Node5</title>
<g id="a_edge4_Node000003_Node000005"><a xlink:title=" ">
<path fill="none" stroke="#63b8ff" d="M946.35,-384.98C963.57,-376.54 990.2,-363.47 1010.15,-353.68"/>
<polygon fill="#63b8ff" stroke="#63b8ff" points="1011.9,-356.72 1019.33,-349.17 1008.81,-350.43 1011.9,-356.72"/>
</a>
</g>
</g>
<!-- Node33 -->
<g id="Node000033" class="node">
<title>Node33</title>
<g id="a_Node000033"><a xlink:href="validation__mode_8h.html" target="_top" xlink:title=" ">
<polygon fill="white" stroke="#666666" points="942.5,-239 835.5,-239 835.5,-220 942.5,-220 942.5,-239"/>
<text text-anchor="middle" x="889" y="-227" font-family="Helvetica,sans-Serif" font-size="10.00">validation_mode.h</text>
</a>
</g>
</g>
<!-- Node3&#45;&gt;Node33 -->
<g id="edge30_Node000003_Node000033" class="edge">
<title>Node3&#45;&gt;Node33</title>
<g id="a_edge30_Node000003_Node000033"><a xlink:title=" ">
<path fill="none" stroke="#63b8ff" d="M931.33,-385C934.34,-372.12 938.09,-347.35 928,-330 912.18,-302.79 882.61,-321.34 867,-294 858.54,-279.18 866.93,-260.57 875.67,-247.34"/>
<polygon fill="#63b8ff" stroke="#63b8ff" points="878.57,-249.3 881.58,-239.14 872.89,-245.21 878.57,-249.3"/>
</a>
</g>
</g>
<!-- Node34 -->
<g id="Node000034" class="node">
<title>Node34</title>
<g id="a_Node000034"><a xlink:href="validate__types_8h.html" target="_top" xlink:title=" ">
<polygon fill="white" stroke="#666666" points="974,-294 876,-294 876,-275 974,-275 974,-294"/>
<text text-anchor="middle" x="925" y="-282" font-family="Helvetica,sans-Serif" font-size="10.00">validate_types.h</text>
</a>
</g>
</g>
<!-- Node3&#45;&gt;Node34 -->
<g id="edge29_Node000003_Node000034" class="edge">
<title>Node3&#45;&gt;Node34</title>
<g id="a_edge29_Node000003_Node000034"><a xlink:title=" ">
<path fill="none" stroke="#63b8ff" d="M938.55,-384.77C950.4,-372.82 968.25,-350.48 961,-330 957.25,-319.41 949.79,-309.49 942.63,-301.71"/>
<polygon fill="#63b8ff" stroke="#63b8ff" points="944.69,-298.82 935.16,-294.19 939.72,-303.76 944.69,-298.82"/>
</a>
</g>
</g>
<!-- Node35 -->
<g id="Node000035" class="node">
<title>Node35</title>
<g id="a_Node000035"><a xlink:href="validate__expressions_8h.html" target="_top" xlink:title=" ">
<polygon fill="white" stroke="#666666" points="918.5,-349 789.5,-349 789.5,-330 918.5,-330 918.5,-349"/>
<text text-anchor="middle" x="854" y="-337" font-family="Helvetica,sans-Serif" font-size="10.00">validate_expressions.h</text>
</a>
</g>
</g>
<!-- Node3&#45;&gt;Node35 -->
<g id="edge28_Node000003_Node000035" class="edge">
<title>Node3&#45;&gt;Node35</title>
<g id="a_edge28_Node000003_Node000035"><a xlink:title=" ">
<path fill="none" stroke="#63b8ff" d="M916.95,-384.98C905.54,-376.92 888.17,-364.65 874.57,-355.03"/>
<polygon fill="#63b8ff" stroke="#63b8ff" points="876.46,-352.08 866.27,-349.17 872.42,-357.8 876.46,-352.08"/>
</a>
</g>
</g>
<!-- Node36 -->
<g id="Node000036" class="node">
<title>Node36</title>
<g id="a_Node000036"><a xlink:title=" ">
<polygon fill="#e0e0e0" stroke="#999999" points="771.5,-349 706.5,-349 706.5,-330 771.5,-330 771.5,-349"/>
<text text-anchor="middle" x="739" y="-337" font-family="Helvetica,sans-Serif" font-size="10.00">functional</text>
</a>
</g>
</g>
<!-- Node3&#45;&gt;Node36 -->
<g id="edge31_Node000003_Node000036" class="edge">
<title>Node3&#45;&gt;Node36</title>
<g id="a_edge31_Node000003_Node000036"><a xlink:title=" ">
<path fill="none" stroke="#63b8ff" d="M905.32,-386.89C873.82,-378.11 817.65,-362.44 779.39,-351.77"/>
<polygon fill="#63b8ff" stroke="#63b8ff" points="780.16,-348.35 769.59,-349.03 778.28,-355.09 780.16,-348.35"/>
</a>
</g>
</g>
<!-- Node6 -->
<g id="Node000006" class="node">
<title>Node6</title>
<g id="a_Node000006"><a xlink:href="source__location_8h.html" target="_top" xlink:title=" ">
<polygon fill="white" stroke="#666666" points="854,-184 752,-184 752,-165 854,-165 854,-184"/>
<text text-anchor="middle" x="803" y="-172" font-family="Helvetica,sans-Serif" font-size="10.00">source_location.h</text>
</a>
</g>
</g>
<!-- Node5&#45;&gt;Node6 -->
<g id="edge5_Node000005_Node000006" class="edge">
<title>Node5&#45;&gt;Node6</title>
<g id="a_edge5_Node000005_Node000006"><a xlink:title=" ">
<path fill="none" stroke="#63b8ff" d="M1032.25,-329.99C1024.08,-316.17 1006,-288.99 983,-275 922.21,-238.02 880.58,-285.82 827,-239 814.11,-227.74 808.13,-208.83 805.35,-194.56"/>
<polygon fill="#63b8ff" stroke="#63b8ff" points="808.76,-193.69 803.75,-184.36 801.85,-194.78 808.76,-193.69"/>
</a>
</g>
</g>
<!-- Node31 -->
<g id="Node000031" class="node">
<title>Node31</title>
<g id="a_Node000031"><a xlink:href="validate_8h.html" target="_top" xlink:title=" ">
<polygon fill="white" stroke="#666666" points="1133.5,-294 1068.5,-294 1068.5,-275 1133.5,-275 1133.5,-294"/>
<text text-anchor="middle" x="1101" y="-282" font-family="Helvetica,sans-Serif" font-size="10.00">validate.h</text>
</a>
</g>
</g>
<!-- Node5&#45;&gt;Node31 -->
<g id="edge19_Node000005_Node000031" class="edge">
<title>Node5&#45;&gt;Node31</title>
<g id="a_edge19_Node000005_Node000031"><a xlink:title=" ">
<path fill="none" stroke="#63b8ff" d="M1047.28,-329.98C1056.84,-322.07 1071.28,-310.11 1082.78,-300.58"/>
<polygon fill="#63b8ff" stroke="#63b8ff" points="1085.06,-303.24 1090.53,-294.17 1080.6,-297.85 1085.06,-303.24"/>
</a>
</g>
</g>
<!-- Node5&#45;&gt;Node33 -->
<g id="edge27_Node000005_Node000033" class="edge">
<title>Node5&#45;&gt;Node33</title>
<g id="a_edge27_Node000005_Node000033"><a xlink:title=" ">
<path fill="none" stroke="#63b8ff" d="M1036.5,-329.87C1035.27,-316.38 1030.97,-290.24 1016,-275 999.1,-257.8 975.18,-247.23 952.65,-240.75"/>
<polygon fill="#63b8ff" stroke="#63b8ff" points="953.33,-237.31 942.76,-238.13 951.53,-244.08 953.33,-237.31"/>
</a>
</g>
</g>
<!-- Node5&#45;&gt;Node34 -->
<g id="edge26_Node000005_Node000034" class="edge">
<title>Node5&#45;&gt;Node34</title>
<g id="a_edge26_Node000005_Node000034"><a xlink:title=" ">
<path fill="none" stroke="#63b8ff" d="M1019.01,-329.98C1001.07,-321.5 973.28,-308.35 952.57,-298.54"/>
<polygon fill="#63b8ff" stroke="#63b8ff" points="953.86,-295.28 943.32,-294.17 950.86,-301.61 953.86,-295.28"/>
</a>
</g>
</g>
<!-- Node7 -->
<g id="Node000007" class="node">
<title>Node7</title>
<g id="a_Node000007"><a xlink:href="deprecate_8h.html" target="_top" xlink:title=" ">
<polygon fill="white" stroke="#666666" points="854,-129 780,-129 780,-110 854,-110 854,-129"/>
<text text-anchor="middle" x="817" y="-117" font-family="Helvetica,sans-Serif" font-size="10.00">deprecate.h</text>
</a>
</g>
</g>
<!-- Node6&#45;&gt;Node7 -->
<g id="edge6_Node000006_Node000007" class="edge">
<title>Node6&#45;&gt;Node7</title>
<g id="a_edge6_Node000006_Node000007"><a xlink:title=" ">
<path fill="none" stroke="#63b8ff" d="M805.31,-164.75C807.17,-157.72 809.84,-147.62 812.15,-138.84"/>
<polygon fill="#63b8ff" stroke="#63b8ff" points="815.56,-139.65 814.73,-129.09 808.79,-137.86 815.56,-139.65"/>
</a>
</g>
</g>
<!-- Node8 -->
<g id="Node000008" class="node">
<title>Node8</title>
<g id="a_Node000008"><a xlink:href="irep_8h.html" target="_top" xlink:title=" ">
<polygon fill="white" stroke="#666666" points="992,-129 948,-129 948,-110 992,-110 992,-129"/>
<text text-anchor="middle" x="970" y="-117" font-family="Helvetica,sans-Serif" font-size="10.00">irep.h</text>
</a>
</g>
</g>
<!-- Node6&#45;&gt;Node8 -->
<g id="edge7_Node000006_Node000008" class="edge">
<title>Node6&#45;&gt;Node8</title>
<g id="a_edge7_Node000006_Node000008"><a xlink:title=" ">
<path fill="none" stroke="#63b8ff" d="M829.83,-164.98C859.37,-155.61 906.81,-140.55 938.19,-130.59"/>
<polygon fill="#63b8ff" stroke="#63b8ff" points="939.3,-133.91 947.78,-127.55 937.19,-127.24 939.3,-133.91"/>
</a>
</g>
</g>
<!-- Node6&#45;&gt;Node9 -->
<g id="edge18_Node000006_Node000009" class="edge">
<title>Node6&#45;&gt;Node9</title>
<g id="a_edge18_Node000006_Node000009"><a xlink:title=" ">
<path fill="none" stroke="#63b8ff" d="M766.34,-164.97C744.12,-158.26 716.4,-146.97 697,-129 669.87,-103.88 680.69,-84.94 659,-55 651.46,-44.6 641.5,-34.32 632.97,-26.26"/>
<polygon fill="#63b8ff" stroke="#63b8ff" points="635.08,-23.45 625.34,-19.28 630.36,-28.62 635.08,-23.45"/>
</a>
</g>
</g>
<!-- Node30 -->
<g id="Node000030" class="node">
<title>Node30</title>
<g id="a_Node000030"><a xlink:title=" ">
<polygon fill="#e0e0e0" stroke="#999999" points="762,-129 706,-129 706,-110 762,-110 762,-129"/>
<text text-anchor="middle" x="734" y="-117" font-family="Helvetica,sans-Serif" font-size="10.00">optional</text>
</a>
</g>
</g>
<!-- Node6&#45;&gt;Node30 -->
<g id="edge17_Node000006_Node000030" class="edge">
<title>Node6&#45;&gt;Node30</title>
<g id="a_edge17_Node000006_Node000030"><a xlink:title=" ">
<path fill="none" stroke="#63b8ff" d="M791.91,-164.98C781.51,-157 765.74,-144.88 753.28,-135.31"/>
<polygon fill="#63b8ff" stroke="#63b8ff" points="755.35,-132.49 745.29,-129.17 751.09,-138.04 755.35,-132.49"/>
</a>
</g>
</g>
<!-- Node8&#45;&gt;Node9 -->
<g id="edge8_Node000008_Node000009" class="edge">
<title>Node8&#45;&gt;Node9</title>
<g id="a_edge8_Node000008_Node000009"><a xlink:title=" ">
<path fill="none" stroke="#63b8ff" d="M947.79,-111.74C887.03,-93.26 717.84,-41.79 646.92,-20.21"/>
<polygon fill="#63b8ff" stroke="#63b8ff" points="647.78,-16.82 637.2,-17.25 645.75,-23.51 647.78,-16.82"/>
</a>
</g>
</g>
<!-- Node8&#45;&gt;Node10 -->
<g id="edge9_Node000008_Node000010" class="edge">
<title>Node8&#45;&gt;Node10</title>
<g id="a_edge9_Node000008_Node000010"><a xlink:title=" ">
<path fill="none" stroke="#63b8ff" d="M947.94,-116.48C887.61,-110.86 714.86,-94.11 572,-74 566.74,-73.26 561.18,-72.4 555.76,-71.51"/>
<polygon fill="#63b8ff" stroke="#63b8ff" points="556.05,-68.01 545.61,-69.8 554.89,-74.91 556.05,-68.01"/>
</a>
</g>
</g>
<!-- Node11 -->
<g id="Node000011" class="node">
<title>Node11</title>
<g id="a_Node000011"><a xlink:href="src_2util_2invariant_8h.html" target="_top" xlink:title=" ">
<polygon fill="#fff0f0" stroke="red" points="649.5,-74 580.5,-74 580.5,-55 649.5,-55 649.5,-74"/>
<text text-anchor="middle" x="615" y="-62" font-family="Helvetica,sans-Serif" font-size="10.00">invariant.h</text>
</a>
</g>
</g>
<!-- Node8&#45;&gt;Node11 -->
<g id="edge10_Node000008_Node000011" class="edge">
<title>Node8&#45;&gt;Node11</title>
<g id="a_edge10_Node000008_Node000011"><a xlink:title=" ">
<path fill="none" stroke="#63b8ff" d="M947.98,-112.96C943.38,-111.9 938.54,-110.85 934,-110 836.84,-91.79 721.76,-77.51 659.83,-70.42"/>
<polygon fill="#63b8ff" stroke="#63b8ff" points="659.96,-66.91 649.63,-69.26 659.17,-73.86 659.96,-66.91"/>
</a>
</g>
</g>
<!-- Node15 -->
<g id="Node000015" class="node">
<title>Node15</title>
<g id="a_Node000015"><a xlink:href="irep__ids_8h.html" target="_top" xlink:title="util">
<polygon fill="#fff0f0" stroke="red" points="915,-74 851,-74 851,-55 915,-55 915,-74"/>
<text text-anchor="middle" x="883" y="-62" font-family="Helvetica,sans-Serif" font-size="10.00">irep_ids.h</text>
</a>
</g>
</g>
<!-- Node8&#45;&gt;Node15 -->
<g id="edge14_Node000008_Node000015" class="edge">
<title>Node8&#45;&gt;Node15</title>
<g id="a_edge14_Node000008_Node000015"><a xlink:title=" ">
<path fill="none" stroke="#63b8ff" d="M956.02,-109.98C942.53,-101.77 921.87,-89.18 905.96,-79.49"/>
<polygon fill="#63b8ff" stroke="#63b8ff" points="907.59,-76.38 897.23,-74.17 903.95,-82.36 907.59,-76.38"/>
</a>
</g>
</g>
<!-- Node26 -->
<g id="Node000026" class="node">
<title>Node26</title>
<g id="a_Node000026"><a xlink:href="forward__list__as__map_8h.html" target="_top" xlink:title=" ">
<polygon fill="#fff0f0" stroke="red" points="1098.5,-74 971.5,-74 971.5,-55 1098.5,-55 1098.5,-74"/>
<text text-anchor="middle" x="1035" y="-62" font-family="Helvetica,sans-Serif" font-size="10.00">forward_list_as_map.h</text>
</a>
</g>
</g>
<!-- Node8&#45;&gt;Node26 -->
<g id="edge15_Node000008_Node000026" class="edge">
<title>Node8&#45;&gt;Node26</title>
<g id="a_edge15_Node000008_Node000026"><a xlink:title=" ">
<path fill="none" stroke="#63b8ff" d="M980.44,-109.98C990.15,-102.07 1004.82,-90.11 1016.5,-80.58"/>
<polygon fill="#63b8ff" stroke="#63b8ff" points="1018.83,-83.2 1024.37,-74.17 1014.4,-77.78 1018.83,-83.2"/>
</a>
</g>
</g>
<!-- Node11&#45;&gt;Node9 -->
<g id="edge12_Node000011_Node000009" class="edge">
<title>Node11&#45;&gt;Node9</title>
<g id="a_edge12_Node000011_Node000009"><a xlink:title=" ">
<path fill="none" stroke="#63b8ff" d="M615,-54.75C615,-47.8 615,-37.85 615,-29.13"/>
<polygon fill="#63b8ff" stroke="#63b8ff" points="618.5,-29.09 615,-19.09 611.5,-29.09 618.5,-29.09"/>
</a>
</g>
</g>
<!-- Node13 -->
<g id="Node000013" class="node">
<title>Node13</title>
<g id="a_Node000013"><a xlink:title=" ">
<polygon fill="#e0e0e0" stroke="#999999" points="400,-19 344,-19 344,0 400,0 400,-19"/>
<text text-anchor="middle" x="372" y="-7" font-family="Helvetica,sans-Serif" font-size="10.00">sstream</text>
</a>
</g>
</g>
<!-- Node11&#45;&gt;Node13 -->
<g id="edge11_Node000011_Node000013" class="edge">
<title>Node11&#45;&gt;Node13</title>
<g id="a_edge11_Node000011_Node000013"><a xlink:title=" ">
<path fill="none" stroke="#63b8ff" d="M580.44,-55.96C535.37,-46.13 456.77,-28.99 410.05,-18.8"/>
<polygon fill="#63b8ff" stroke="#63b8ff" points="410.54,-15.32 400.02,-16.61 409.04,-22.16 410.54,-15.32"/>
</a>
</g>
</g>
<!-- Node14 -->
<g id="Node000014" class="node">
<title>Node14</title>
<g id="a_Node000014"><a xlink:title=" ">
<polygon fill="#e0e0e0" stroke="#999999" points="1150.5,-19 1081.5,-19 1081.5,0 1150.5,0 1150.5,-19"/>
<text text-anchor="middle" x="1116" y="-7" font-family="Helvetica,sans-Serif" font-size="10.00">type_traits</text>
</a>
</g>
</g>
<!-- Node11&#45;&gt;Node14 -->
<g id="edge13_Node000011_Node000014" class="edge">
<title>Node11&#45;&gt;Node14</title>
<g id="a_edge13_Node000011_Node000014"><a xlink:title=" ">
<path fill="none" stroke="#63b8ff" d="M649.83,-59.82C738.47,-50.44 972.54,-25.68 1071.17,-15.24"/>
<polygon fill="#63b8ff" stroke="#63b8ff" points="1071.82,-18.69 1081.4,-14.16 1071.09,-11.73 1071.82,-18.69"/>
</a>
</g>
</g>
<!-- Node26&#45;&gt;Node4 -->
<g id="edge16_Node000026_Node000004" class="edge">
<title>Node26&#45;&gt;Node4</title>
<g id="a_edge16_Node000026_Node000004"><a xlink:title=" ">
<path fill="none" stroke="#63b8ff" d="M1061.99,-54.98C1090.2,-46.09 1134.64,-32.07 1166.08,-22.15"/>
<polygon fill="#63b8ff" stroke="#63b8ff" points="1167.31,-25.43 1175.8,-19.08 1165.21,-18.75 1167.31,-25.43"/>
</a>
</g>
</g>
<!-- Node31&#45;&gt;Node14 -->
<g id="edge20_Node000031_Node000014" class="edge">
<title>Node31&#45;&gt;Node14</title>
<g id="a_edge20_Node000031_Node000014"><a xlink:title=" ">
<path fill="none" stroke="#63b8ff" d="M1104.51,-274.99C1111.6,-256.97 1127,-213.49 1127,-175.5 1127,-175.5 1127,-175.5 1127,-118.5 1127,-87.03 1122.32,-50.66 1119.06,-29.18"/>
<polygon fill="#63b8ff" stroke="#63b8ff" points="1122.5,-28.48 1117.48,-19.15 1115.58,-29.57 1122.5,-28.48"/>
</a>
</g>
</g>
<!-- Node32 -->
<g id="Node000032" class="node">
<title>Node32</title>
<g id="a_Node000032"><a xlink:href="exception__utils_8h.html" target="_top" xlink:title=" ">
<polygon fill="white" stroke="#666666" points="1061,-239 961,-239 961,-220 1061,-220 1061,-239"/>
<text text-anchor="middle" x="1011" y="-227" font-family="Helvetica,sans-Serif" font-size="10.00">exception_utils.h</text>
</a>
</g>
</g>
<!-- Node31&#45;&gt;Node32 -->
<g id="edge21_Node000031_Node000032" class="edge">
<title>Node31&#45;&gt;Node32</title>
<g id="a_edge21_Node000031_Node000032"><a xlink:title=" ">
<path fill="none" stroke="#63b8ff" d="M1086.54,-274.98C1072.58,-266.77 1051.21,-254.18 1034.75,-244.49"/>
<polygon fill="#63b8ff" stroke="#63b8ff" points="1036.12,-241.23 1025.72,-239.17 1032.56,-247.26 1036.12,-241.23"/>
</a>
</g>
</g>
<!-- Node31&#45;&gt;Node33 -->
<g id="edge25_Node000031_Node000033" class="edge">
<title>Node31&#45;&gt;Node33</title>
<g id="a_edge25_Node000031_Node000033"><a xlink:title=" ">
<path fill="none" stroke="#63b8ff" d="M1068.34,-275.33C1032.04,-266.26 973.24,-251.56 932.93,-241.48"/>
<polygon fill="#63b8ff" stroke="#63b8ff" points="933.65,-238.06 923.1,-239.03 931.96,-244.85 933.65,-238.06"/>
</a>
</g>
</g>
<!-- Node32&#45;&gt;Node6 -->
<g id="edge24_Node000032_Node000006" class="edge">
<title>Node32&#45;&gt;Node6</title>
<g id="a_edge24_Node000032_Node000006"><a xlink:title=" ">
<path fill="none" stroke="#63b8ff" d="M977.58,-219.98C942.06,-210.93 885.73,-196.58 846.7,-186.64"/>
<polygon fill="#63b8ff" stroke="#63b8ff" points="847.24,-183.16 836.68,-184.08 845.51,-189.94 847.24,-183.16"/>
</a>
</g>
</g>
<!-- Node32&#45;&gt;Node9 -->
<g id="edge22_Node000032_Node000009" class="edge">
<title>Node32&#45;&gt;Node9</title>
<g id="a_edge22_Node000032_Node000009"><a xlink:title=" ">
<path fill="none" stroke="#63b8ff" d="M1012.61,-219.74C1015.93,-199.07 1021.63,-146.25 1001,-110 990.6,-91.72 943.52,-62.83 924,-55 828.78,-16.79 705.42,-10.76 647.61,-10.21"/>
<polygon fill="#63b8ff" stroke="#63b8ff" points="647.29,-6.71 637.27,-10.16 647.25,-13.7 647.29,-6.71"/>
</a>
</g>
</g>
<!-- Node32&#45;&gt;Node11 -->
<g id="edge23_Node000032_Node000011" class="edge">
<title>Node32&#45;&gt;Node11</title>
<g id="a_edge23_Node000032_Node000011"><a xlink:title=" ">
<path fill="none" stroke="#63b8ff" d="M1003.33,-219.91C982.95,-197.69 924.74,-138.04 863,-110 796.49,-79.79 711.22,-70.06 659.97,-66.94"/>
<polygon fill="#63b8ff" stroke="#63b8ff" points="660.06,-63.44 649.88,-66.39 659.67,-70.43 660.06,-63.44"/>
</a>
</g>
</g>
<!-- Node37&#45;&gt;Node6 -->
<g id="edge34_Node000037_Node000006" class="edge">
<title>Node37&#45;&gt;Node6</title>
<g id="a_edge34_Node000037_Node000006"><a xlink:title=" ">
<path fill="none" stroke="#63b8ff" d="M315.61,-384.85C324.81,-371.33 344.35,-345.16 367,-330 489.12,-248.24 659.45,-204.42 746.66,-186.08"/>
<polygon fill="#63b8ff" stroke="#63b8ff" points="747.53,-189.47 756.62,-184.02 746.11,-182.62 747.53,-189.47"/>
</a>
</g>
</g>
<!-- Node37&#45;&gt;Node9 -->
<g id="edge38_Node000037_Node000009" class="edge">
<title>Node37&#45;&gt;Node9</title>
<g id="a_edge38_Node000037_Node000009"><a xlink:title=" ">
<path fill="none" stroke="#63b8ff" d="M304.72,-384.9C294.27,-367.07 272,-324.46 272,-285.5 272,-285.5 272,-285.5 272,-118.5 272,-53.77 497.09,-23.04 582.58,-13.7"/>
<polygon fill="#63b8ff" stroke="#63b8ff" points="583.19,-17.16 592.76,-12.62 582.45,-10.2 583.19,-17.16"/>
</a>
</g>
</g>
<!-- Node37&#45;&gt;Node11 -->
<g id="edge33_Node000037_Node000011" class="edge">
<title>Node37&#45;&gt;Node11</title>
<g id="a_edge33_Node000037_Node000011"><a xlink:title=" ">
<path fill="none" stroke="#63b8ff" d="M313.24,-384.83C318.2,-372.16 328.4,-348.14 341,-330 417.92,-219.22 447.34,-197.47 550,-110 563.15,-98.79 579.15,-87.81 591.99,-79.56"/>
<polygon fill="#63b8ff" stroke="#63b8ff" points="594.1,-82.37 600.69,-74.07 590.36,-76.45 594.1,-82.37"/>
</a>
</g>
</g>
<!-- Node37&#45;&gt;Node13 -->
<g id="edge37_Node000037_Node000013" class="edge">
<title>Node37&#45;&gt;Node13</title>
<g id="a_edge37_Node000037_Node000013"><a xlink:title=" ">
<path fill="none" stroke="#63b8ff" d="M288.82,-384.95C255.86,-370.06 196,-336.07 196,-285.5 196,-285.5 196,-285.5 196,-118.5 196,-54.31 282.11,-27.08 333.86,-16.51"/>
<polygon fill="#63b8ff" stroke="#63b8ff" points="334.56,-19.94 343.72,-14.61 333.24,-13.06 334.56,-19.94"/>
</a>
</g>
</g>
<!-- Node37&#45;&gt;Node36 -->
<g id="edge35_Node000037_Node000036" class="edge">
<title>Node37&#45;&gt;Node36</title>
<g id="a_edge35_Node000037_Node000036"><a xlink:title=" ">
<path fill="none" stroke="#63b8ff" d="M345.11,-389.16C423.29,-379.5 611.52,-356.25 696.32,-345.77"/>
<polygon fill="#63b8ff" stroke="#63b8ff" points="696.88,-349.23 706.37,-344.53 696.02,-342.28 696.88,-349.23"/>
</a>
</g>
</g>
<!-- Node37&#45;&gt;Node17 -->
<g id="edge36_Node000037_Node000017" class="edge">
<title>Node37&#45;&gt;Node17</title>
<g id="a_edge36_Node000037_Node000017"><a xlink:title=" ">
<path fill="none" stroke="#63b8ff" d="M324.46,-384.98C338.42,-376.77 359.79,-364.18 376.25,-354.49"/>
<polygon fill="#63b8ff" stroke="#63b8ff" points="378.44,-357.26 385.28,-349.17 374.88,-351.23 378.44,-357.26"/>
</a>
</g>
</g>
<!-- Node41 -->
<g id="Node000041" class="node">
<title>Node41</title>
<g id="a_Node000041"><a xlink:href="std__code__base_8h.html" target="_top" xlink:title=" ">
<polygon fill="white" stroke="#666666" points="933,-569 817,-569 817,-550 933,-550 933,-569"/>
<text text-anchor="middle" x="875" y="-557" font-family="Helvetica,sans-Serif" font-size="10.00">util/std_code_base.h</text>
</a>
</g>
</g>
<!-- Node40&#45;&gt;Node41 -->
<g id="edge45_Node000040_Node000041" class="edge">
<title>Node40&#45;&gt;Node41</title>
<g id="a_edge45_Node000040_Node000041"><a xlink:title=" ">
<path fill="none" stroke="#63b8ff" d="M775.38,-604.99C796.94,-595.36 825.35,-582.67 846.31,-573.31"/>
<polygon fill="#63b8ff" stroke="#63b8ff" points="847.95,-576.41 855.65,-569.14 845.1,-570.02 847.95,-576.41"/>
</a>
</g>
</g>
<!-- Node47 -->
<g id="Node000047" class="node">
<title>Node47</title>
<g id="a_Node000047"><a xlink:href="std__expr_8h.html" target="_top" xlink:title="API to expression classes.">
<polygon fill="white" stroke="#666666" points="749,-569 663,-569 663,-550 749,-550 749,-569"/>
<text text-anchor="middle" x="706" y="-557" font-family="Helvetica,sans-Serif" font-size="10.00">util/std_expr.h</text>
</a>
</g>
</g>
<!-- Node40&#45;&gt;Node47 -->
<g id="edge64_Node000040_Node000047" class="edge">
<title>Node40&#45;&gt;Node47</title>
<g id="a_edge64_Node000040_Node000047"><a xlink:title=" ">
<path fill="none" stroke="#63b8ff" d="M734.8,-604.84C729.51,-596.69 722.82,-586.4 717.22,-577.78"/>
<polygon fill="#63b8ff" stroke="#63b8ff" points="720.08,-575.75 711.69,-569.27 714.21,-579.56 720.08,-575.75"/>
</a>
</g>
</g>
<!-- Node21 -->
<g id="Node000021" class="node">
<title>Node21</title>
<g id="a_Node000021"><a xlink:title=" ">
<polygon fill="#e0e0e0" stroke="#999999" points="799,-569 767,-569 767,-550 799,-550 799,-569"/>
<text text-anchor="middle" x="783" y="-557" font-family="Helvetica,sans-Serif" font-size="10.00">list</text>
</a>
</g>
</g>
<!-- Node40&#45;&gt;Node21 -->
<g id="edge68_Node000040_Node000021" class="edge">
<title>Node40&#45;&gt;Node21</title>
<g id="a_edge68_Node000040_Node000021"><a xlink:title=" ">
<path fill="none" stroke="#63b8ff" d="M753.44,-604.84C758.87,-596.69 765.73,-586.4 771.48,-577.78"/>
<polygon fill="#63b8ff" stroke="#63b8ff" points="774.52,-579.53 777.16,-569.27 768.7,-575.65 774.52,-579.53"/>
</a>
</g>
</g>
<!-- Node41&#45;&gt;Node11 -->
<g id="edge52_Node000041_Node000011" class="edge">
<title>Node41&#45;&gt;Node11</title>
<g id="a_edge52_Node000041_Node000011"><a xlink:title=" ">
<path fill="none" stroke="#63b8ff" d="M933.4,-553.43C1036.73,-542.82 1241,-513.85 1241,-450.5 1241,-450.5 1241,-450.5 1241,-338.5 1241,-292.24 936.33,-126.18 893,-110 814.49,-80.68 716.45,-70.68 660.25,-67.26"/>
<polygon fill="#63b8ff" stroke="#63b8ff" points="660.1,-63.75 649.92,-66.68 659.71,-70.74 660.1,-63.75"/>
</a>
</g>
</g>
<!-- Node41&#45;&gt;Node31 -->
<g id="edge63_Node000041_Node000031" class="edge">
<title>Node41&#45;&gt;Node31</title>
<g id="a_edge63_Node000041_Node000031"><a xlink:title=" ">
<path fill="none" stroke="#63b8ff" d="M933.13,-558.01C1007.55,-553.96 1127,-534.39 1127,-450.5 1127,-450.5 1127,-450.5 1127,-393.5 1127,-361.15 1115.83,-324.82 1108.14,-303.62"/>
<polygon fill="#63b8ff" stroke="#63b8ff" points="1111.32,-302.13 1104.51,-294.01 1104.77,-304.6 1111.32,-302.13"/>
</a>
</g>
</g>
<!-- Node42 -->
<g id="Node000042" class="node">
<title>Node42</title>
<g id="a_Node000042"><a xlink:href="expr__cast_8h.html" target="_top" xlink:title="Templated functions to cast to specific exprt&#45;derived classes.">
<polygon fill="white" stroke="#666666" points="789.5,-459 716.5,-459 716.5,-440 789.5,-440 789.5,-459"/>
<text text-anchor="middle" x="753" y="-447" font-family="Helvetica,sans-Serif" font-size="10.00">expr_cast.h</text>
</a>
</g>
</g>
<!-- Node41&#45;&gt;Node42 -->
<g id="edge46_Node000041_Node000042" class="edge">
<title>Node41&#45;&gt;Node42</title>
<g id="a_edge46_Node000041_Node000042"><a xlink:title=" ">
<path fill="none" stroke="#63b8ff" d="M872.2,-549.64C867.6,-536.29 857.28,-510.9 841,-495 826.33,-480.67 806.11,-470 788.76,-462.71"/>
<polygon fill="#63b8ff" stroke="#63b8ff" points="790.05,-459.46 779.46,-459.01 787.46,-465.96 790.05,-459.46"/>
</a>
</g>
</g>
<!-- Node44 -->
<g id="Node000044" class="node">
<title>Node44</title>
<g id="a_Node000044"><a xlink:href="std__types_8h.html" target="_top" xlink:title="Pre&#45;defined types.">
<polygon fill="white" stroke="#666666" points="831.5,-514 758.5,-514 758.5,-495 831.5,-495 831.5,-514"/>
<text text-anchor="middle" x="795" y="-502" font-family="Helvetica,sans-Serif" font-size="10.00">std_types.h</text>
</a>
</g>
</g>
<!-- Node41&#45;&gt;Node44 -->
<g id="edge53_Node000041_Node000044" class="edge">
<title>Node41&#45;&gt;Node44</title>
<g id="a_edge53_Node000041_Node000044"><a xlink:title=" ">
<path fill="none" stroke="#63b8ff" d="M862.15,-549.98C849.86,-541.84 831.09,-529.41 816.52,-519.76"/>
<polygon fill="#63b8ff" stroke="#63b8ff" points="818.36,-516.78 808.09,-514.17 814.49,-522.61 818.36,-516.78"/>
</a>
</g>
</g>
<!-- Node42&#45;&gt;Node3 -->
<g id="edge51_Node000042_Node000003" class="edge">
<title>Node42&#45;&gt;Node3</title>
<g id="a_edge51_Node000042_Node000003"><a xlink:title=" ">
<path fill="none" stroke="#63b8ff" d="M781.28,-439.98C812.45,-430.6 862.56,-415.51 895.63,-405.55"/>
<polygon fill="#63b8ff" stroke="#63b8ff" points="896.74,-408.87 905.31,-402.63 894.72,-402.17 896.74,-408.87"/>
</a>
</g>
</g>
<!-- Node42&#45;&gt;Node11 -->
<g id="edge50_Node000042_Node000011" class="edge">
<title>Node42&#45;&gt;Node11</title>
<g id="a_edge50_Node000042_Node000011"><a xlink:title=" ">
<path fill="none" stroke="#63b8ff" d="M737.6,-439.93C725.06,-432.16 707.87,-419.56 698,-404 630.04,-296.91 617.72,-138.24 615.49,-84.26"/>
<polygon fill="#63b8ff" stroke="#63b8ff" points="618.99,-84.01 615.15,-74.13 611.99,-84.25 618.99,-84.01"/>
</a>
</g>
</g>
<!-- Node42&#45;&gt;Node14 -->
<g id="edge48_Node000042_Node000014" class="edge">
<title>Node42&#45;&gt;Node14</title>
<g id="a_edge48_Node000042_Node000014"><a xlink:title=" ">
<path fill="none" stroke="#63b8ff" d="M789.83,-441.63C897.3,-421.32 1203,-361.69 1203,-340.5 1203,-340.5 1203,-340.5 1203,-228.5 1203,-148.45 1151.77,-62.89 1127.93,-27.41"/>
<polygon fill="#63b8ff" stroke="#63b8ff" points="1130.8,-25.4 1122.26,-19.14 1125.03,-29.36 1130.8,-25.4"/>
</a>
</g>
</g>
<!-- Node42&#45;&gt;Node36 -->
<g id="edge49_Node000042_Node000036" class="edge">
<title>Node42&#45;&gt;Node36</title>
<g id="a_edge49_Node000042_Node000036"><a xlink:title=" ">
<path fill="none" stroke="#63b8ff" d="M759.27,-439.83C767.35,-427.58 779.59,-404.49 773,-385 769.44,-374.47 762.28,-364.48 755.45,-356.63"/>
<polygon fill="#63b8ff" stroke="#63b8ff" points="757.99,-354.23 748.61,-349.31 752.87,-359.01 757.99,-354.23"/>
</a>
</g>
</g>
<!-- Node43 -->
<g id="Node000043" class="node">
<title>Node43</title>
<g id="a_Node000043"><a xlink:title=" ">
<polygon fill="#e0e0e0" stroke="#999999" points="763.5,-404 706.5,-404 706.5,-385 763.5,-385 763.5,-404"/>
<text text-anchor="middle" x="735" y="-392" font-family="Helvetica,sans-Serif" font-size="10.00">typeinfo</text>
</a>
</g>
</g>
<!-- Node42&#45;&gt;Node43 -->
<g id="edge47_Node000042_Node000043" class="edge">
<title>Node42&#45;&gt;Node43</title>
<g id="a_edge47_Node000042_Node000043"><a xlink:title=" ">
<path fill="none" stroke="#63b8ff" d="M750.03,-439.75C747.64,-432.72 744.21,-422.62 741.23,-413.84"/>
<polygon fill="#63b8ff" stroke="#63b8ff" points="744.45,-412.43 737.92,-404.09 737.82,-414.68 744.45,-412.43"/>
</a>
</g>
</g>
<!-- Node44&#45;&gt;Node3 -->
<g id="edge54_Node000044_Node000003" class="edge">
<title>Node44&#45;&gt;Node3</title>
<g id="a_edge54_Node000044_Node000003"><a xlink:title=" ">
<path fill="none" stroke="#63b8ff" d="M831.64,-497.99C856.94,-492.33 889.58,-481.09 910,-459 921.23,-446.85 925.84,-428.33 927.72,-414.41"/>
<polygon fill="#63b8ff" stroke="#63b8ff" points="931.24,-414.35 928.75,-404.05 924.28,-413.66 931.24,-414.35"/>
</a>
</g>
</g>
<!-- Node44&#45;&gt;Node11 -->
<g id="edge56_Node000044_Node000011" class="edge">
<title>Node44&#45;&gt;Node11</title>
<g id="a_edge56_Node000044_Node000011"><a xlink:title=" ">
<path fill="none" stroke="#63b8ff" d="M767.78,-494.87C749,-487.76 724.53,-476.05 708,-459 674.61,-424.55 602,-337.83 602,-230.5 602,-230.5 602,-230.5 602,-173.5 602,-141.96 607.53,-105.62 611.38,-84.15"/>
<polygon fill="#63b8ff" stroke="#63b8ff" points="614.85,-84.61 613.25,-74.14 607.97,-83.33 614.85,-84.61"/>
</a>
</g>
</g>
<!-- Node44&#45;&gt;Node31 -->
<g id="edge61_Node000044_Node000031" class="edge">
<title>Node44&#45;&gt;Node31</title>
<g id="a_edge61_Node000044_Node000031"><a xlink:title=" ">
<path fill="none" stroke="#63b8ff" d="M831.63,-494.97C859.37,-487.66 897.88,-475.66 929,-459 999.07,-421.48 1019.95,-410.74 1070,-349 1081.09,-335.31 1089.5,-317 1094.74,-303.56"/>
<polygon fill="#63b8ff" stroke="#63b8ff" points="1098.08,-304.6 1098.25,-294 1091.51,-302.18 1098.08,-304.6"/>
</a>
</g>
</g>
<!-- Node44&#45;&gt;Node42 -->
<g id="edge55_Node000044_Node000042" class="edge">
<title>Node44&#45;&gt;Node42</title>
<g id="a_edge55_Node000044_Node000042"><a xlink:title=" ">
<path fill="none" stroke="#63b8ff" d="M788.06,-494.75C782.13,-487.26 773.43,-476.28 766.18,-467.13"/>
<polygon fill="#63b8ff" stroke="#63b8ff" points="768.76,-464.75 759.81,-459.09 763.27,-469.1 768.76,-464.75"/>
</a>
</g>
</g>
<!-- Node45 -->
<g id="Node000045" class="node">
<title>Node45</title>
<g id="a_Node000045"><a xlink:href="mp__arith_8h.html" target="_top" xlink:title=" ">
<polygon fill="white" stroke="#666666" points="529.5,-404 460.5,-404 460.5,-385 529.5,-385 529.5,-404"/>
<text text-anchor="middle" x="495" y="-392" font-family="Helvetica,sans-Serif" font-size="10.00">mp_arith.h</text>
</a>
</g>
</g>
<!-- Node44&#45;&gt;Node45 -->
<g id="edge57_Node000044_Node000045" class="edge">
<title>Node44&#45;&gt;Node45</title>
<g id="a_edge57_Node000044_Node000045"><a xlink:title=" ">
<path fill="none" stroke="#63b8ff" d="M758.44,-496.03C723.78,-488.44 670.53,-475.48 626,-459 587.54,-444.77 545.2,-423.06 519.36,-409.08"/>
<polygon fill="#63b8ff" stroke="#63b8ff" points="520.75,-405.86 510.3,-404.13 517.4,-412 520.75,-405.86"/>
</a>
</g>
</g>
<!-- Node22 -->
<g id="Node000022" class="node">
<title>Node22</title>
<g id="a_Node000022"><a xlink:title=" ">
<polygon fill="#e0e0e0" stroke="#999999" points="900.5,-459 807.5,-459 807.5,-440 900.5,-440 900.5,-459"/>
<text text-anchor="middle" x="854" y="-447" font-family="Helvetica,sans-Serif" font-size="10.00">unordered_map</text>
</a>
</g>
</g>
<!-- Node44&#45;&gt;Node22 -->
<g id="edge62_Node000044_Node000022" class="edge">
<title>Node44&#45;&gt;Node22</title>
<g id="a_edge62_Node000044_Node000022"><a xlink:title=" ">
<path fill="none" stroke="#63b8ff" d="M804.48,-494.98C813.2,-487.15 826.34,-475.34 836.9,-465.86"/>
<polygon fill="#63b8ff" stroke="#63b8ff" points="839.25,-468.46 844.35,-459.17 834.57,-463.25 839.25,-468.46"/>
</a>
</g>
</g>
<!-- Node45&#45;&gt;Node9 -->
<g id="edge59_Node000045_Node000009" class="edge">
<title>Node45&#45;&gt;Node9</title>
<g id="a_edge59_Node000045_Node000009"><a xlink:title=" ">
<path fill="none" stroke="#63b8ff" d="M488.84,-384.73C476.95,-366.92 452,-324.85 452,-285.5 452,-285.5 452,-285.5 452,-118.5 452,-56.35 535.35,-27.86 582.85,-16.67"/>
<polygon fill="#63b8ff" stroke="#63b8ff" points="583.68,-20.07 592.68,-14.48 582.16,-13.24 583.68,-20.07"/>
</a>
</g>
</g>
<!-- Node45&#45;&gt;Node17 -->
<g id="edge58_Node000045_Node000017" class="edge">
<title>Node45&#45;&gt;Node17</title>
<g id="a_edge58_Node000045_Node000017"><a xlink:title=" ">
<path fill="none" stroke="#63b8ff" d="M479.74,-384.98C464.87,-376.69 442.02,-363.94 424.58,-354.22"/>
<polygon fill="#63b8ff" stroke="#63b8ff" points="425.98,-350.99 415.54,-349.17 422.57,-357.1 425.98,-350.99"/>
</a>
</g>
</g>
<!-- Node46 -->
<g id="Node000046" class="node">
<title>Node46</title>
<g id="a_Node000046"><a xlink:title=" ">
<polygon fill="#e0e0e0" stroke="#999999" points="574,-349 480,-349 480,-330 574,-330 574,-349"/>
<text text-anchor="middle" x="527" y="-337" font-family="Helvetica,sans-Serif" font-size="10.00">big&#45;int/bigint.hh</text>
</a>
</g>
</g>
<!-- Node45&#45;&gt;Node46 -->
<g id="edge60_Node000045_Node000046" class="edge">
<title>Node45&#45;&gt;Node46</title>
<g id="a_edge60_Node000045_Node000046"><a xlink:title=" ">
<path fill="none" stroke="#63b8ff" d="M500.28,-384.75C504.71,-377.42 511.16,-366.73 516.62,-357.7"/>
<polygon fill="#63b8ff" stroke="#63b8ff" points="519.64,-359.46 521.81,-349.09 513.65,-355.84 519.64,-359.46"/>
</a>
</g>
</g>
<!-- Node47&#45;&gt;Node11 -->
<g id="edge66_Node000047_Node000011" class="edge">
<title>Node47&#45;&gt;Node11</title>
<g id="a_edge66_Node000047_Node000011"><a xlink:title=" ">
<path fill="none" stroke="#63b8ff" d="M687.41,-549.8C657.49,-534.37 602,-499.18 602,-450.5 602,-450.5 602,-450.5 602,-393.5 602,-319.11 564,-304.89 564,-230.5 564,-230.5 564,-230.5 564,-173.5 564,-138.28 586.45,-102.25 601.56,-81.99"/>
<polygon fill="#63b8ff" stroke="#63b8ff" points="604.33,-84.13 607.69,-74.09 598.8,-79.84 604.33,-84.13"/>
</a>
</g>
</g>
<!-- Node47&#45;&gt;Node42 -->
<g id="edge65_Node000047_Node000042" class="edge">
<title>Node47&#45;&gt;Node42</title>
<g id="a_edge65_Node000047_Node000042"><a xlink:title=" ">
<path fill="none" stroke="#63b8ff" d="M709.85,-549.66C717.53,-532.01 734.9,-492.09 745.11,-468.64"/>
<polygon fill="#63b8ff" stroke="#63b8ff" points="748.45,-469.72 749.23,-459.16 742.03,-466.93 748.45,-469.72"/>
</a>
</g>
</g>
<!-- Node47&#45;&gt;Node44 -->
<g id="edge67_Node000047_Node000044" class="edge">
<title>Node47&#45;&gt;Node44</title>
<g id="a_edge67_Node000047_Node000044"><a xlink:title=" ">
<path fill="none" stroke="#63b8ff" d="M720.3,-549.98C734.1,-541.77 755.24,-529.18 771.51,-519.49"/>
<polygon fill="#63b8ff" stroke="#63b8ff" points="773.64,-522.29 780.44,-514.17 770.06,-516.28 773.64,-522.29"/>
</a>
</g>
</g>
</g>
</svg>
