<?xml version="1.0" encoding="UTF-8" standalone="no"?>
<!DOCTYPE svg PUBLIC "-//W3C//DTD SVG 1.1//EN"
 "http://www.w3.org/Graphics/SVG/1.1/DTD/svg11.dtd">
<!-- Generated by graphviz version 2.43.0 (0)
 -->
<!-- Title: /home/runner/work/cbmc/cbmc/src/util/std_types.cpp Pages: 1 -->
<svg width="1044pt" height="753pt"
 viewBox="0.00 0.00 1044.30 753.00" xmlns="http://www.w3.org/2000/svg" xmlns:xlink="http://www.w3.org/1999/xlink">
<g id="graph0" class="graph" transform="scale(1 1) rotate(0) translate(4 749)">
<title>/home/runner/work/cbmc/cbmc/src/util/std_types.cpp</title>
<!-- Node1 -->
<g id="Node000001" class="node">
<title>Node1</title>
<g id="a_Node000001"><a xlink:title="Pre&#45;defined types.">
<polygon fill="#999999" stroke="#666666" points="516.3,-745 364.3,-745 364.3,-715 516.3,-715 516.3,-745"/>
<text text-anchor="start" x="372.3" y="-733" font-family="Helvetica,sans-Serif" font-size="10.00">/home/runner/work/cbmc</text>
<text text-anchor="middle" x="440.3" y="-722" font-family="Helvetica,sans-Serif" font-size="10.00">/cbmc/src/util/std_types.cpp</text>
</a>
</g>
</g>
<!-- Node2 -->
<g id="Node000002" class="node">
<title>Node2</title>
<g id="a_Node000002"><a xlink:href="std__types_8h.html" target="_top" xlink:title="Pre&#45;defined types.">
<polygon fill="white" stroke="#666666" points="375.8,-514 302.8,-514 302.8,-495 375.8,-495 375.8,-514"/>
<text text-anchor="middle" x="339.3" y="-502" font-family="Helvetica,sans-Serif" font-size="10.00">std_types.h</text>
</a>
</g>
</g>
<!-- Node1&#45;&gt;Node2 -->
<g id="edge1_Node000001_Node000002" class="edge">
<title>Node1&#45;&gt;Node2</title>
<g id="a_edge1_Node000001_Node000002"><a xlink:title=" ">
<path fill="none" stroke="#63b8ff" d="M427.58,-714.72C419.27,-705.02 408.5,-691.71 400.3,-679 370.57,-632.9 359.18,-621.8 344.3,-569 340.21,-554.49 339.06,-537.44 338.88,-524.66"/>
<polygon fill="#63b8ff" stroke="#63b8ff" points="342.38,-524.33 338.92,-514.32 335.38,-524.3 342.38,-524.33"/>
</a>
</g>
</g>
<!-- Node41 -->
<g id="Node000041" class="node">
<title>Node41</title>
<g id="a_Node000041"><a xlink:href="arith__tools_8h.html" target="_top" xlink:title=" ">
<polygon fill="white" stroke="#666666" points="296.8,-624 219.8,-624 219.8,-605 296.8,-605 296.8,-624"/>
<text text-anchor="middle" x="258.3" y="-612" font-family="Helvetica,sans-Serif" font-size="10.00">arith_tools.h</text>
</a>
</g>
</g>
<!-- Node1&#45;&gt;Node41 -->
<g id="edge44_Node000001_Node000041" class="edge">
<title>Node1&#45;&gt;Node41</title>
<g id="a_edge44_Node000001_Node000041"><a xlink:title=" ">
<path fill="none" stroke="#63b8ff" d="M386.75,-714.97C362.3,-706.93 333.84,-695.18 311.3,-679 293.86,-666.48 278.72,-646.93 269.13,-632.83"/>
<polygon fill="#63b8ff" stroke="#63b8ff" points="271.82,-630.55 263.43,-624.09 265.96,-634.37 271.82,-630.55"/>
</a>
</g>
</g>
<!-- Node42 -->
<g id="Node000042" class="node">
<title>Node42</title>
<g id="a_Node000042"><a xlink:href="std__expr_8h.html" target="_top" xlink:title="API to expression classes.">
<polygon fill="white" stroke="#666666" points="539.8,-569 472.8,-569 472.8,-550 539.8,-550 539.8,-569"/>
<text text-anchor="middle" x="506.3" y="-557" font-family="Helvetica,sans-Serif" font-size="10.00">std_expr.h</text>
</a>
</g>
</g>
<!-- Node1&#45;&gt;Node42 -->
<g id="edge61_Node000001_Node000042" class="edge">
<title>Node1&#45;&gt;Node42</title>
<g id="a_edge61_Node000001_Node000042"><a xlink:title=" ">
<path fill="none" stroke="#63b8ff" d="M454.93,-715C463.87,-705.63 474.79,-692.56 481.3,-679 497.01,-646.26 502.9,-603.75 505.07,-579.56"/>
<polygon fill="#63b8ff" stroke="#63b8ff" points="508.59,-579.52 505.87,-569.28 501.61,-578.98 508.59,-579.52"/>
</a>
</g>
</g>
<!-- Node44 -->
<g id="Node000044" class="node">
<title>Node44</title>
<g id="a_Node000044"><a xlink:href="c__types_8h.html" target="_top" xlink:title=" ">
<polygon fill="white" stroke="#666666" points="471.8,-679 408.8,-679 408.8,-660 471.8,-660 471.8,-679"/>
<text text-anchor="middle" x="440.3" y="-667" font-family="Helvetica,sans-Serif" font-size="10.00">c_types.h</text>
</a>
</g>
</g>
<!-- Node1&#45;&gt;Node44 -->
<g id="edge52_Node000001_Node000044" class="edge">
<title>Node1&#45;&gt;Node44</title>
<g id="a_edge52_Node000001_Node000044"><a xlink:title=" ">
<path fill="none" stroke="#63b8ff" d="M440.3,-714.84C440.3,-707.21 440.3,-697.7 440.3,-689.45"/>
<polygon fill="#63b8ff" stroke="#63b8ff" points="443.8,-689.27 440.3,-679.27 436.8,-689.27 443.8,-689.27"/>
</a>
</g>
</g>
<!-- Node47 -->
<g id="Node000047" class="node">
<title>Node47</title>
<g id="a_Node000047"><a xlink:href="namespace_8h.html" target="_top" xlink:title=" ">
<polygon fill="white" stroke="#666666" points="979.3,-184 897.3,-184 897.3,-165 979.3,-165 979.3,-184"/>
<text text-anchor="middle" x="938.3" y="-172" font-family="Helvetica,sans-Serif" font-size="10.00">namespace.h</text>
</a>
</g>
</g>
<!-- Node1&#45;&gt;Node47 -->
<g id="edge58_Node000001_Node000047" class="edge">
<title>Node1&#45;&gt;Node47</title>
<g id="a_edge58_Node000001_Node000047"><a xlink:title=" ">
<path fill="none" stroke="#63b8ff" d="M516.33,-727.26C655.55,-721.99 937.3,-700.8 937.3,-615.5 937.3,-615.5 937.3,-615.5 937.3,-283.5 937.3,-252.19 937.73,-215.77 938.02,-194.23"/>
<polygon fill="#63b8ff" stroke="#63b8ff" points="941.52,-194.23 938.17,-184.18 934.52,-194.13 941.52,-194.23"/>
</a>
</g>
</g>
<!-- Node3 -->
<g id="Node000003" class="node">
<title>Node3</title>
<g id="a_Node000003"><a xlink:href="expr_8h.html" target="_top" xlink:title=" ">
<polygon fill="white" stroke="#666666" points="615.8,-404 568.8,-404 568.8,-385 615.8,-385 615.8,-404"/>
<text text-anchor="middle" x="592.3" y="-392" font-family="Helvetica,sans-Serif" font-size="10.00">expr.h</text>
</a>
</g>
</g>
<!-- Node2&#45;&gt;Node3 -->
<g id="edge2_Node000002_Node000003" class="edge">
<title>Node2&#45;&gt;Node3</title>
<g id="a_edge2_Node000002_Node000003"><a xlink:title=" ">
<path fill="none" stroke="#63b8ff" d="M363.26,-494.97C387.05,-486.37 424.48,-472.46 456.3,-459 494.78,-442.73 538.4,-421.93 565.63,-408.66"/>
<polygon fill="#63b8ff" stroke="#63b8ff" points="567.44,-411.67 574.88,-404.14 564.36,-405.39 567.44,-411.67"/>
</a>
</g>
</g>
<!-- Node11 -->
<g id="Node000011" class="node">
<title>Node11</title>
<g id="a_Node000011"><a xlink:href="src_2util_2invariant_8h.html" target="_top" xlink:title=" ">
<polygon fill="#fff0f0" stroke="red" points="431.8,-74 362.8,-74 362.8,-55 431.8,-55 431.8,-74"/>
<text text-anchor="middle" x="397.3" y="-62" font-family="Helvetica,sans-Serif" font-size="10.00">invariant.h</text>
</a>
</g>
</g>
<!-- Node2&#45;&gt;Node11 -->
<g id="edge37_Node000002_Node000011" class="edge">
<title>Node2&#45;&gt;Node11</title>
<g id="a_edge37_Node000002_Node000011"><a xlink:title=" ">
<path fill="none" stroke="#63b8ff" d="M316.52,-494.89C301.27,-487.79 282.39,-476.08 273.3,-459 267.6,-448.28 223.78,-245.54 316.3,-110 326.34,-95.29 342.9,-84.98 358.43,-78.01"/>
<polygon fill="#63b8ff" stroke="#63b8ff" points="360,-81.14 367.91,-74.09 357.33,-74.67 360,-81.14"/>
</a>
</g>
</g>
<!-- Node31 -->
<g id="Node000031" class="node">
<title>Node31</title>
<g id="a_Node000031"><a xlink:href="validate_8h.html" target="_top" xlink:title=" ">
<polygon fill="white" stroke="#666666" points="478.8,-294 413.8,-294 413.8,-275 478.8,-275 478.8,-294"/>
<text text-anchor="middle" x="446.3" y="-282" font-family="Helvetica,sans-Serif" font-size="10.00">validate.h</text>
</a>
</g>
</g>
<!-- Node2&#45;&gt;Node31 -->
<g id="edge42_Node000002_Node000031" class="edge">
<title>Node2&#45;&gt;Node31</title>
<g id="a_edge42_Node000002_Node000031"><a xlink:title=" ">
<path fill="none" stroke="#63b8ff" d="M350.81,-494.79C360.94,-486.58 375.42,-473.4 384.3,-459 415.96,-407.69 404.58,-386.25 426.3,-330 429.73,-321.11 434.01,-311.44 437.73,-303.39"/>
<polygon fill="#63b8ff" stroke="#63b8ff" points="440.94,-304.79 442.03,-294.25 434.61,-301.81 440.94,-304.79"/>
</a>
</g>
</g>
<!-- Node37 -->
<g id="Node000037" class="node">
<title>Node37</title>
<g id="a_Node000037"><a xlink:href="expr__cast_8h.html" target="_top" xlink:title="Templated functions to cast to specific exprt&#45;derived classes.">
<polygon fill="white" stroke="#666666" points="628.8,-459 555.8,-459 555.8,-440 628.8,-440 628.8,-459"/>
<text text-anchor="middle" x="592.3" y="-447" font-family="Helvetica,sans-Serif" font-size="10.00">expr_cast.h</text>
</a>
</g>
</g>
<!-- Node2&#45;&gt;Node37 -->
<g id="edge31_Node000002_Node000037" class="edge">
<title>Node2&#45;&gt;Node37</title>
<g id="a_edge31_Node000002_Node000037"><a xlink:title=" ">
<path fill="none" stroke="#63b8ff" d="M375.82,-495.85C420.66,-486.46 496.78,-470.51 545.77,-460.25"/>
<polygon fill="#63b8ff" stroke="#63b8ff" points="546.72,-463.62 555.79,-458.15 545.29,-456.77 546.72,-463.62"/>
</a>
</g>
</g>
<!-- Node39 -->
<g id="Node000039" class="node">
<title>Node39</title>
<g id="a_Node000039"><a xlink:href="mp__arith_8h.html" target="_top" xlink:title=" ">
<polygon fill="white" stroke="#666666" points="175.8,-459 106.8,-459 106.8,-440 175.8,-440 175.8,-459"/>
<text text-anchor="middle" x="141.3" y="-447" font-family="Helvetica,sans-Serif" font-size="10.00">mp_arith.h</text>
</a>
</g>
</g>
<!-- Node2&#45;&gt;Node39 -->
<g id="edge38_Node000002_Node000039" class="edge">
<title>Node2&#45;&gt;Node39</title>
<g id="a_edge38_Node000002_Node000039"><a xlink:title=" ">
<path fill="none" stroke="#63b8ff" d="M307.49,-494.98C273.82,-485.97 220.51,-471.7 183.38,-461.76"/>
<polygon fill="#63b8ff" stroke="#63b8ff" points="183.93,-458.29 173.36,-459.08 182.12,-465.05 183.93,-458.29"/>
</a>
</g>
</g>
<!-- Node22 -->
<g id="Node000022" class="node">
<title>Node22</title>
<g id="a_Node000022"><a xlink:title=" ">
<polygon fill="#e0e0e0" stroke="#999999" points="375.8,-459 282.8,-459 282.8,-440 375.8,-440 375.8,-459"/>
<text text-anchor="middle" x="329.3" y="-447" font-family="Helvetica,sans-Serif" font-size="10.00">unordered_map</text>
</a>
</g>
</g>
<!-- Node2&#45;&gt;Node22 -->
<g id="edge43_Node000002_Node000022" class="edge">
<title>Node2&#45;&gt;Node22</title>
<g id="a_edge43_Node000002_Node000022"><a xlink:title=" ">
<path fill="none" stroke="#63b8ff" d="M337.65,-494.75C336.34,-487.8 334.46,-477.85 332.82,-469.13"/>
<polygon fill="#63b8ff" stroke="#63b8ff" points="336.22,-468.27 330.92,-459.09 329.34,-469.56 336.22,-468.27"/>
</a>
</g>
</g>
<!-- Node4 -->
<g id="Node000004" class="node">
<title>Node4</title>
<g id="a_Node000004"><a xlink:href="as__const_8h.html" target="_top" xlink:title=" ">
<polygon fill="white" stroke="#666666" points="1036.3,-19 968.3,-19 968.3,0 1036.3,0 1036.3,-19"/>
<text text-anchor="middle" x="1002.3" y="-7" font-family="Helvetica,sans-Serif" font-size="10.00">as_const.h</text>
</a>
</g>
</g>
<!-- Node3&#45;&gt;Node4 -->
<g id="edge3_Node000003_Node000004" class="edge">
<title>Node3&#45;&gt;Node4</title>
<g id="a_edge3_Node000003_Node000004"><a xlink:title=" ">
<path fill="none" stroke="#63b8ff" d="M612.94,-384.92C686.24,-354.1 932.56,-247.49 988.3,-184 1027.99,-138.79 1045.5,-112.94 1029.3,-55 1026.54,-45.12 1020.91,-35.25 1015.51,-27.32"/>
<polygon fill="#63b8ff" stroke="#63b8ff" points="1018.18,-25.04 1009.45,-19.03 1012.52,-29.17 1018.18,-25.04"/>
</a>
</g>
</g>
<!-- Node5 -->
<g id="Node000005" class="node">
<title>Node5</title>
<g id="a_Node000005"><a xlink:href="type_8h.html" target="_top" xlink:title="Defines typet, type_with_subtypet and type_with_subtypest.">
<polygon fill="white" stroke="#666666" points="481.8,-349 434.8,-349 434.8,-330 481.8,-330 481.8,-349"/>
<text text-anchor="middle" x="458.3" y="-337" font-family="Helvetica,sans-Serif" font-size="10.00">type.h</text>
</a>
</g>
</g>
<!-- Node3&#45;&gt;Node5 -->
<g id="edge4_Node000003_Node000005" class="edge">
<title>Node3&#45;&gt;Node5</title>
<g id="a_edge4_Node000003_Node000005"><a xlink:title=" ">
<path fill="none" stroke="#63b8ff" d="M570.77,-384.98C548.83,-376.3 514.56,-362.75 489.61,-352.88"/>
<polygon fill="#63b8ff" stroke="#63b8ff" points="490.81,-349.59 480.22,-349.17 488.23,-356.1 490.81,-349.59"/>
</a>
</g>
</g>
<!-- Node33 -->
<g id="Node000033" class="node">
<title>Node33</title>
<g id="a_Node000033"><a xlink:href="validation__mode_8h.html" target="_top" xlink:title=" ">
<polygon fill="white" stroke="#666666" points="659.8,-239 552.8,-239 552.8,-220 659.8,-220 659.8,-239"/>
<text text-anchor="middle" x="606.3" y="-227" font-family="Helvetica,sans-Serif" font-size="10.00">validation_mode.h</text>
</a>
</g>
</g>
<!-- Node3&#45;&gt;Node33 -->
<g id="edge29_Node000003_Node000033" class="edge">
<title>Node3&#45;&gt;Node33</title>
<g id="a_edge29_Node000003_Node000033"><a xlink:title=" ">
<path fill="none" stroke="#63b8ff" d="M607.98,-384.99C621.39,-377.09 640.49,-364.26 653.3,-349 670.81,-328.15 674.14,-320.53 680.3,-294 682.21,-285.77 684.46,-282.35 680.3,-275 672.13,-260.55 657.18,-250.27 642.85,-243.26"/>
<polygon fill="#63b8ff" stroke="#63b8ff" points="644.15,-240.01 633.59,-239.12 641.29,-246.4 644.15,-240.01"/>
</a>
</g>
</g>
<!-- Node34 -->
<g id="Node000034" class="node">
<title>Node34</title>
<g id="a_Node000034"><a xlink:href="validate__types_8h.html" target="_top" xlink:title=" ">
<polygon fill="white" stroke="#666666" points="671.3,-294 573.3,-294 573.3,-275 671.3,-275 671.3,-294"/>
<text text-anchor="middle" x="622.3" y="-282" font-family="Helvetica,sans-Serif" font-size="10.00">validate_types.h</text>
</a>
</g>
</g>
<!-- Node3&#45;&gt;Node34 -->
<g id="edge28_Node000003_Node000034" class="edge">
<title>Node3&#45;&gt;Node34</title>
<g id="a_edge28_Node000003_Node000034"><a xlink:title=" ">
<path fill="none" stroke="#63b8ff" d="M606.08,-384.82C617.12,-376.99 631.8,-364.35 638.3,-349 644.6,-334.15 639,-316.26 632.76,-303.26"/>
<polygon fill="#63b8ff" stroke="#63b8ff" points="635.84,-301.59 628.05,-294.4 629.66,-304.88 635.84,-301.59"/>
</a>
</g>
</g>
<!-- Node35 -->
<g id="Node000035" class="node">
<title>Node35</title>
<g id="a_Node000035"><a xlink:href="validate__expressions_8h.html" target="_top" xlink:title=" ">
<polygon fill="white" stroke="#666666" points="628.8,-349 499.8,-349 499.8,-330 628.8,-330 628.8,-349"/>
<text text-anchor="middle" x="564.3" y="-337" font-family="Helvetica,sans-Serif" font-size="10.00">validate_expressions.h</text>
</a>
</g>
</g>
<!-- Node3&#45;&gt;Node35 -->
<g id="edge27_Node000003_Node000035" class="edge">
<title>Node3&#45;&gt;Node35</title>
<g id="a_edge27_Node000003_Node000035"><a xlink:title=" ">
<path fill="none" stroke="#63b8ff" d="M587.68,-384.75C583.85,-377.49 578.28,-366.95 573.54,-357.98"/>
<polygon fill="#63b8ff" stroke="#63b8ff" points="576.61,-356.3 568.84,-349.09 570.42,-359.57 576.61,-356.3"/>
</a>
</g>
</g>
<!-- Node36 -->
<g id="Node000036" class="node">
<title>Node36</title>
<g id="a_Node000036"><a xlink:title=" ">
<polygon fill="#e0e0e0" stroke="#999999" points="826.8,-349 761.8,-349 761.8,-330 826.8,-330 826.8,-349"/>
<text text-anchor="middle" x="794.3" y="-337" font-family="Helvetica,sans-Serif" font-size="10.00">functional</text>
</a>
</g>
</g>
<!-- Node3&#45;&gt;Node36 -->
<g id="edge30_Node000003_Node000036" class="edge">
<title>Node3&#45;&gt;Node36</title>
<g id="a_edge30_Node000003_Node000036"><a xlink:title=" ">
<path fill="none" stroke="#63b8ff" d="M615.87,-387.32C649.23,-378.56 710.76,-362.42 752.11,-351.57"/>
<polygon fill="#63b8ff" stroke="#63b8ff" points="753.12,-354.92 761.9,-349 751.34,-348.15 753.12,-354.92"/>
</a>
</g>
</g>
<!-- Node6 -->
<g id="Node000006" class="node">
<title>Node6</title>
<g id="a_Node000006"><a xlink:href="source__location_8h.html" target="_top" xlink:title=" ">
<polygon fill="white" stroke="#666666" points="704.3,-184 602.3,-184 602.3,-165 704.3,-165 704.3,-184"/>
<text text-anchor="middle" x="653.3" y="-172" font-family="Helvetica,sans-Serif" font-size="10.00">source_location.h</text>
</a>
</g>
</g>
<!-- Node5&#45;&gt;Node6 -->
<g id="edge5_Node000005_Node000006" class="edge">
<title>Node5&#45;&gt;Node6</title>
<g id="a_edge5_Node000005_Node000006"><a xlink:title=" ">
<path fill="none" stroke="#63b8ff" d="M472.28,-329.9C498.86,-313.59 554.87,-279.38 564.3,-275 609.04,-254.21 640.63,-279.14 669.3,-239 678.98,-225.45 672.35,-206.62 664.9,-192.99"/>
<polygon fill="#63b8ff" stroke="#63b8ff" points="667.72,-190.88 659.55,-184.13 661.72,-194.5 667.72,-190.88"/>
</a>
</g>
</g>
<!-- Node5&#45;&gt;Node31 -->
<g id="edge18_Node000005_Node000031" class="edge">
<title>Node5&#45;&gt;Node31</title>
<g id="a_edge18_Node000005_Node000031"><a xlink:title=" ">
<path fill="none" stroke="#63b8ff" d="M456.32,-329.75C454.73,-322.72 452.44,-312.62 450.46,-303.84"/>
<polygon fill="#63b8ff" stroke="#63b8ff" points="453.87,-303.07 448.25,-294.09 447.04,-304.62 453.87,-303.07"/>
</a>
</g>
</g>
<!-- Node5&#45;&gt;Node33 -->
<g id="edge26_Node000005_Node000033" class="edge">
<title>Node5&#45;&gt;Node33</title>
<g id="a_edge26_Node000005_Node000033"><a xlink:title=" ">
<path fill="none" stroke="#63b8ff" d="M467.3,-329.72C480.66,-316.91 506.79,-292.71 531.3,-275 547.11,-263.58 565.99,-252.39 580.86,-244.08"/>
<polygon fill="#63b8ff" stroke="#63b8ff" points="582.9,-246.96 589.97,-239.07 579.52,-240.82 582.9,-246.96"/>
</a>
</g>
</g>
<!-- Node5&#45;&gt;Node34 -->
<g id="edge25_Node000005_Node000034" class="edge">
<title>Node5&#45;&gt;Node34</title>
<g id="a_edge25_Node000005_Node000034"><a xlink:title=" ">
<path fill="none" stroke="#63b8ff" d="M482.15,-330.79C509.48,-321.96 554.58,-307.38 586.22,-297.16"/>
<polygon fill="#63b8ff" stroke="#63b8ff" points="587.54,-300.41 595.98,-294.01 585.39,-293.75 587.54,-300.41"/>
</a>
</g>
</g>
<!-- Node7 -->
<g id="Node000007" class="node">
<title>Node7</title>
<g id="a_Node000007"><a xlink:href="deprecate_8h.html" target="_top" xlink:title=" ">
<polygon fill="white" stroke="#666666" points="738.3,-129 664.3,-129 664.3,-110 738.3,-110 738.3,-129"/>
<text text-anchor="middle" x="701.3" y="-117" font-family="Helvetica,sans-Serif" font-size="10.00">deprecate.h</text>
</a>
</g>
</g>
<!-- Node6&#45;&gt;Node7 -->
<g id="edge6_Node000006_Node000007" class="edge">
<title>Node6&#45;&gt;Node7</title>
<g id="a_edge6_Node000006_Node000007"><a xlink:title=" ">
<path fill="none" stroke="#63b8ff" d="M661.23,-164.75C668.15,-157.11 678.37,-145.82 686.75,-136.56"/>
<polygon fill="#63b8ff" stroke="#63b8ff" points="689.4,-138.85 693.52,-129.09 684.22,-134.15 689.4,-138.85"/>
</a>
</g>
</g>
<!-- Node8 -->
<g id="Node000008" class="node">
<title>Node8</title>
<g id="a_Node000008"><a xlink:href="irep_8h.html" target="_top" xlink:title=" ">
<polygon fill="white" stroke="#666666" points="876.3,-129 832.3,-129 832.3,-110 876.3,-110 876.3,-129"/>
<text text-anchor="middle" x="854.3" y="-117" font-family="Helvetica,sans-Serif" font-size="10.00">irep.h</text>
</a>
</g>
</g>
<!-- Node6&#45;&gt;Node8 -->
<g id="edge7_Node000006_Node000008" class="edge">
<title>Node6&#45;&gt;Node8</title>
<g id="a_edge7_Node000006_Node000008"><a xlink:title=" ">
<path fill="none" stroke="#63b8ff" d="M685.6,-164.98C723.13,-155.09 784.69,-138.86 822.16,-128.98"/>
<polygon fill="#63b8ff" stroke="#63b8ff" points="823.27,-132.3 832.04,-126.37 821.48,-125.53 823.27,-132.3"/>
</a>
</g>
</g>
<!-- Node9 -->
<g id="Node000009" class="node">
<title>Node9</title>
<g id="a_Node000009"><a xlink:title=" ">
<polygon fill="#e0e0e0" stroke="#999999" points="419.3,-19 375.3,-19 375.3,0 419.3,0 419.3,-19"/>
<text text-anchor="middle" x="397.3" y="-7" font-family="Helvetica,sans-Serif" font-size="10.00">string</text>
</a>
</g>
</g>
<!-- Node6&#45;&gt;Node9 -->
<g id="edge17_Node000006_Node000009" class="edge">
<title>Node6&#45;&gt;Node9</title>
<g id="a_edge17_Node000006_Node000009"><a xlink:title=" ">
<path fill="none" stroke="#63b8ff" d="M639.18,-164.88C624.63,-155.97 601.31,-141.62 581.3,-129 522.56,-91.93 453.88,-47.38 419.41,-24.93"/>
<polygon fill="#63b8ff" stroke="#63b8ff" points="420.93,-21.74 410.64,-19.21 417.1,-27.6 420.93,-21.74"/>
</a>
</g>
</g>
<!-- Node30 -->
<g id="Node000030" class="node">
<title>Node30</title>
<g id="a_Node000030"><a xlink:title=" ">
<polygon fill="#e0e0e0" stroke="#999999" points="646.3,-129 590.3,-129 590.3,-110 646.3,-110 646.3,-129"/>
<text text-anchor="middle" x="618.3" y="-117" font-family="Helvetica,sans-Serif" font-size="10.00">optional</text>
</a>
</g>
</g>
<!-- Node6&#45;&gt;Node30 -->
<g id="edge16_Node000006_Node000030" class="edge">
<title>Node6&#45;&gt;Node30</title>
<g id="a_edge16_Node000006_Node000030"><a xlink:title=" ">
<path fill="none" stroke="#63b8ff" d="M647.52,-164.75C642.68,-157.42 635.62,-146.73 629.66,-137.7"/>
<polygon fill="#63b8ff" stroke="#63b8ff" points="632.4,-135.5 623.97,-129.09 626.56,-139.36 632.4,-135.5"/>
</a>
</g>
</g>
<!-- Node8&#45;&gt;Node9 -->
<g id="edge8_Node000008_Node000009" class="edge">
<title>Node8&#45;&gt;Node9</title>
<g id="a_edge8_Node000008_Node000009"><a xlink:title=" ">
<path fill="none" stroke="#63b8ff" d="M832.26,-113.29C757.99,-95.74 516.65,-38.7 429.26,-18.05"/>
<polygon fill="#63b8ff" stroke="#63b8ff" points="429.93,-14.61 419.39,-15.72 428.32,-21.43 429.93,-14.61"/>
</a>
</g>
</g>
<!-- Node10 -->
<g id="Node000010" class="node">
<title>Node10</title>
<g id="a_Node000010"><a xlink:title=" ">
<polygon fill="#e0e0e0" stroke="#999999" points="874.8,-74 827.8,-74 827.8,-55 874.8,-55 874.8,-74"/>
<text text-anchor="middle" x="851.3" y="-62" font-family="Helvetica,sans-Serif" font-size="10.00">vector</text>
</a>
</g>
</g>
<!-- Node8&#45;&gt;Node10 -->
<g id="edge9_Node000008_Node000010" class="edge">
<title>Node8&#45;&gt;Node10</title>
<g id="a_edge9_Node000008_Node000010"><a xlink:title=" ">
<path fill="none" stroke="#63b8ff" d="M853.81,-109.75C853.41,-102.8 852.85,-92.85 852.36,-84.13"/>
<polygon fill="#63b8ff" stroke="#63b8ff" points="855.85,-83.88 851.79,-74.09 848.86,-84.27 855.85,-83.88"/>
</a>
</g>
</g>
<!-- Node8&#45;&gt;Node11 -->
<g id="edge10_Node000008_Node000011" class="edge">
<title>Node8&#45;&gt;Node11</title>
<g id="a_edge10_Node000008_Node000011"><a xlink:title=" ">
<path fill="none" stroke="#63b8ff" d="M831.92,-112.75C827.43,-111.73 822.73,-110.75 818.3,-110 682.32,-86.86 519.46,-73.73 442.2,-68.37"/>
<polygon fill="#63b8ff" stroke="#63b8ff" points="442.1,-64.86 431.88,-67.67 441.62,-71.84 442.1,-64.86"/>
</a>
</g>
</g>
<!-- Node15 -->
<g id="Node000015" class="node">
<title>Node15</title>
<g id="a_Node000015"><a xlink:href="irep__ids_8h.html" target="_top" xlink:title="util">
<polygon fill="#fff0f0" stroke="red" points="809.3,-74 745.3,-74 745.3,-55 809.3,-55 809.3,-74"/>
<text text-anchor="middle" x="777.3" y="-62" font-family="Helvetica,sans-Serif" font-size="10.00">irep_ids.h</text>
</a>
</g>
</g>
<!-- Node8&#45;&gt;Node15 -->
<g id="edge13_Node000008_Node000015" class="edge">
<title>Node8&#45;&gt;Node15</title>
<g id="a_edge13_Node000008_Node000015"><a xlink:title=" ">
<path fill="none" stroke="#63b8ff" d="M841.93,-109.98C830.21,-101.92 812.38,-89.65 798.42,-80.03"/>
<polygon fill="#63b8ff" stroke="#63b8ff" points="800.12,-76.96 789.9,-74.17 796.15,-82.72 800.12,-76.96"/>
</a>
</g>
</g>
<!-- Node26 -->
<g id="Node000026" class="node">
<title>Node26</title>
<g id="a_Node000026"><a xlink:href="forward__list__as__map_8h.html" target="_top" xlink:title=" ">
<polygon fill="#fff0f0" stroke="red" points="1019.8,-74 892.8,-74 892.8,-55 1019.8,-55 1019.8,-74"/>
<text text-anchor="middle" x="956.3" y="-62" font-family="Helvetica,sans-Serif" font-size="10.00">forward_list_as_map.h</text>
</a>
</g>
</g>
<!-- Node8&#45;&gt;Node26 -->
<g id="edge14_Node000008_Node000026" class="edge">
<title>Node8&#45;&gt;Node26</title>
<g id="a_edge14_Node000008_Node000026"><a xlink:title=" ">
<path fill="none" stroke="#63b8ff" d="M870.69,-109.98C886.88,-101.57 911.87,-88.59 930.68,-78.81"/>
<polygon fill="#63b8ff" stroke="#63b8ff" points="932.36,-81.89 939.62,-74.17 929.13,-75.68 932.36,-81.89"/>
</a>
</g>
</g>
<!-- Node11&#45;&gt;Node9 -->
<g id="edge11_Node000011_Node000009" class="edge">
<title>Node11&#45;&gt;Node9</title>
<g id="a_edge11_Node000011_Node000009"><a xlink:title=" ">
<path fill="none" stroke="#63b8ff" d="M397.3,-54.75C397.3,-47.8 397.3,-37.85 397.3,-29.13"/>
<polygon fill="#63b8ff" stroke="#63b8ff" points="400.8,-29.09 397.3,-19.09 393.8,-29.09 400.8,-29.09"/>
</a>
</g>
</g>
<!-- Node14 -->
<g id="Node000014" class="node">
<title>Node14</title>
<g id="a_Node000014"><a xlink:title=" ">
<polygon fill="#e0e0e0" stroke="#999999" points="558.8,-19 489.8,-19 489.8,0 558.8,0 558.8,-19"/>
<text text-anchor="middle" x="524.3" y="-7" font-family="Helvetica,sans-Serif" font-size="10.00">type_traits</text>
</a>
</g>
</g>
<!-- Node11&#45;&gt;Node14 -->
<g id="edge12_Node000011_Node000014" class="edge">
<title>Node11&#45;&gt;Node14</title>
<g id="a_edge12_Node000011_Node000014"><a xlink:title=" ">
<path fill="none" stroke="#63b8ff" d="M417.71,-54.98C438.32,-46.38 470.41,-32.99 494,-23.15"/>
<polygon fill="#63b8ff" stroke="#63b8ff" points="495.64,-26.25 503.53,-19.17 492.95,-19.79 495.64,-26.25"/>
</a>
</g>
</g>
<!-- Node26&#45;&gt;Node4 -->
<g id="edge15_Node000026_Node000004" class="edge">
<title>Node26&#45;&gt;Node4</title>
<g id="a_edge15_Node000026_Node000004"><a xlink:title=" ">
<path fill="none" stroke="#63b8ff" d="M963.9,-54.75C970.46,-47.18 980.13,-36.05 988.12,-26.84"/>
<polygon fill="#63b8ff" stroke="#63b8ff" points="990.94,-28.94 994.85,-19.09 985.65,-24.35 990.94,-28.94"/>
</a>
</g>
</g>
<!-- Node31&#45;&gt;Node14 -->
<g id="edge19_Node000031_Node000014" class="edge">
<title>Node31&#45;&gt;Node14</title>
<g id="a_edge19_Node000031_Node000014"><a xlink:title=" ">
<path fill="none" stroke="#63b8ff" d="M462.89,-274.9C476.19,-267.19 494.39,-254.69 505.3,-239 522.12,-214.82 524.3,-204.96 524.3,-175.5 524.3,-175.5 524.3,-175.5 524.3,-118.5 524.3,-87.19 524.3,-50.77 524.3,-29.23"/>
<polygon fill="#63b8ff" stroke="#63b8ff" points="527.8,-29.18 524.3,-19.18 520.8,-29.18 527.8,-29.18"/>
</a>
</g>
</g>
<!-- Node32 -->
<g id="Node000032" class="node">
<title>Node32</title>
<g id="a_Node000032"><a xlink:href="exception__utils_8h.html" target="_top" xlink:title=" ">
<polygon fill="white" stroke="#666666" points="496.3,-239 396.3,-239 396.3,-220 496.3,-220 496.3,-239"/>
<text text-anchor="middle" x="446.3" y="-227" font-family="Helvetica,sans-Serif" font-size="10.00">exception_utils.h</text>
</a>
</g>
</g>
<!-- Node31&#45;&gt;Node32 -->
<g id="edge20_Node000031_Node000032" class="edge">
<title>Node31&#45;&gt;Node32</title>
<g id="a_edge20_Node000031_Node000032"><a xlink:title=" ">
<path fill="none" stroke="#63b8ff" d="M446.3,-274.75C446.3,-267.8 446.3,-257.85 446.3,-249.13"/>
<polygon fill="#63b8ff" stroke="#63b8ff" points="449.8,-249.09 446.3,-239.09 442.8,-249.09 449.8,-249.09"/>
</a>
</g>
</g>
<!-- Node31&#45;&gt;Node33 -->
<g id="edge24_Node000031_Node000033" class="edge">
<title>Node31&#45;&gt;Node33</title>
<g id="a_edge24_Node000031_Node000033"><a xlink:title=" ">
<path fill="none" stroke="#63b8ff" d="M472.01,-274.98C498.75,-266.13 540.83,-252.19 570.75,-242.28"/>
<polygon fill="#63b8ff" stroke="#63b8ff" points="572,-245.55 580.39,-239.08 569.8,-238.9 572,-245.55"/>
</a>
</g>
</g>
<!-- Node32&#45;&gt;Node6 -->
<g id="edge23_Node000032_Node000006" class="edge">
<title>Node32&#45;&gt;Node6</title>
<g id="a_edge23_Node000032_Node000006"><a xlink:title=" ">
<path fill="none" stroke="#63b8ff" d="M479.56,-219.98C514.91,-210.93 570.97,-196.58 609.81,-186.64"/>
<polygon fill="#63b8ff" stroke="#63b8ff" points="610.96,-189.95 619.78,-184.08 609.23,-183.17 610.96,-189.95"/>
</a>
</g>
</g>
<!-- Node32&#45;&gt;Node9 -->
<g id="edge21_Node000032_Node000009" class="edge">
<title>Node32&#45;&gt;Node9</title>
<g id="a_edge21_Node000032_Node000009"><a xlink:title=" ">
<path fill="none" stroke="#63b8ff" d="M438.74,-219.91C419.78,-197.71 370.48,-135.84 353.3,-74 351.04,-65.86 350.09,-62.81 353.3,-55 358.11,-43.31 367.64,-33.05 376.6,-25.34"/>
<polygon fill="#63b8ff" stroke="#63b8ff" points="378.9,-27.98 384.52,-19 374.53,-22.51 378.9,-27.98"/>
</a>
</g>
</g>
<!-- Node32&#45;&gt;Node11 -->
<g id="edge22_Node000032_Node000011" class="edge">
<title>Node32&#45;&gt;Node11</title>
<g id="a_edge22_Node000032_Node000011"><a xlink:title=" ">
<path fill="none" stroke="#63b8ff" d="M443.67,-219.74C435.99,-194.2 413.51,-119.43 402.93,-84.23"/>
<polygon fill="#63b8ff" stroke="#63b8ff" points="406.18,-82.88 399.95,-74.31 399.48,-84.89 406.18,-82.88"/>
</a>
</g>
</g>
<!-- Node37&#45;&gt;Node3 -->
<g id="edge36_Node000037_Node000003" class="edge">
<title>Node37&#45;&gt;Node3</title>
<g id="a_edge36_Node000037_Node000003"><a xlink:title=" ">
<path fill="none" stroke="#63b8ff" d="M592.3,-439.75C592.3,-432.8 592.3,-422.85 592.3,-414.13"/>
<polygon fill="#63b8ff" stroke="#63b8ff" points="595.8,-414.09 592.3,-404.09 588.8,-414.09 595.8,-414.09"/>
</a>
</g>
</g>
<!-- Node37&#45;&gt;Node11 -->
<g id="edge35_Node000037_Node000011" class="edge">
<title>Node37&#45;&gt;Node11</title>
<g id="a_edge35_Node000037_Node000011"><a xlink:title=" ">
<path fill="none" stroke="#63b8ff" d="M568.26,-440C532.55,-426.21 465.48,-395.73 426.3,-349 360.54,-270.57 382.13,-133.75 392.83,-84.14"/>
<polygon fill="#63b8ff" stroke="#63b8ff" points="396.29,-84.73 395.09,-74.2 389.46,-83.18 396.29,-84.73"/>
</a>
</g>
</g>
<!-- Node37&#45;&gt;Node14 -->
<g id="edge33_Node000037_Node000014" class="edge">
<title>Node37&#45;&gt;Node14</title>
<g id="a_edge33_Node000037_Node000014"><a xlink:title=" ">
<path fill="none" stroke="#63b8ff" d="M628.93,-444.89C683.57,-437.4 785.43,-414.91 836.3,-349 871.93,-302.83 868.04,-277.8 860.3,-220 856.94,-194.89 860.89,-184.97 845.3,-165 775.02,-74.97 639.1,-34.43 568.81,-18.83"/>
<polygon fill="#63b8ff" stroke="#63b8ff" points="569.44,-15.39 558.93,-16.71 567.97,-22.23 569.44,-15.39"/>
</a>
</g>
</g>
<!-- Node37&#45;&gt;Node36 -->
<g id="edge34_Node000037_Node000036" class="edge">
<title>Node37&#45;&gt;Node36</title>
<g id="a_edge34_Node000037_Node000036"><a xlink:title=" ">
<path fill="none" stroke="#63b8ff" d="M616.97,-439.97C639.29,-431.87 672.78,-418.77 700.3,-404 727.44,-389.44 756.51,-368.97 775.01,-355.24"/>
<polygon fill="#63b8ff" stroke="#63b8ff" points="777.3,-357.9 783.2,-349.1 773.1,-352.3 777.3,-357.9"/>
</a>
</g>
</g>
<!-- Node38 -->
<g id="Node000038" class="node">
<title>Node38</title>
<g id="a_Node000038"><a xlink:title=" ">
<polygon fill="#e0e0e0" stroke="#999999" points="690.8,-404 633.8,-404 633.8,-385 690.8,-385 690.8,-404"/>
<text text-anchor="middle" x="662.3" y="-392" font-family="Helvetica,sans-Serif" font-size="10.00">typeinfo</text>
</a>
</g>
</g>
<!-- Node37&#45;&gt;Node38 -->
<g id="edge32_Node000037_Node000038" class="edge">
<title>Node37&#45;&gt;Node38</title>
<g id="a_edge32_Node000037_Node000038"><a xlink:title=" ">
<path fill="none" stroke="#63b8ff" d="M603.55,-439.98C614.1,-432 630.1,-419.88 642.74,-410.31"/>
<polygon fill="#63b8ff" stroke="#63b8ff" points="644.99,-413 650.85,-404.17 640.76,-407.42 644.99,-413"/>
</a>
</g>
</g>
<!-- Node39&#45;&gt;Node9 -->
<g id="edge40_Node000039_Node000009" class="edge">
<title>Node39&#45;&gt;Node9</title>
<g id="a_edge40_Node000039_Node000009"><a xlink:title=" ">
<path fill="none" stroke="#63b8ff" d="M106.7,-444.39C79.39,-439.36 42.19,-428.28 19.3,-404 -0.9,-382.56 0.3,-369.96 0.3,-340.5 0.3,-340.5 0.3,-340.5 0.3,-118.5 0.3,-43.1 270.29,-18.61 364.97,-12.34"/>
<polygon fill="#63b8ff" stroke="#63b8ff" points="365.35,-15.83 375.11,-11.7 364.9,-8.84 365.35,-15.83"/>
</a>
</g>
</g>
<!-- Node17 -->
<g id="Node000017" class="node">
<title>Node17</title>
<g id="a_Node000017"><a xlink:title=" ">
<polygon fill="#e0e0e0" stroke="#999999" points="76.3,-404 28.3,-404 28.3,-385 76.3,-385 76.3,-404"/>
<text text-anchor="middle" x="52.3" y="-392" font-family="Helvetica,sans-Serif" font-size="10.00">iosfwd</text>
</a>
</g>
</g>
<!-- Node39&#45;&gt;Node17 -->
<g id="edge39_Node000039_Node000017" class="edge">
<title>Node39&#45;&gt;Node17</title>
<g id="a_edge39_Node000039_Node000017"><a xlink:title=" ">
<path fill="none" stroke="#63b8ff" d="M127,-439.98C113.2,-431.77 92.06,-419.18 75.79,-409.49"/>
<polygon fill="#63b8ff" stroke="#63b8ff" points="77.24,-406.28 66.86,-404.17 73.66,-412.29 77.24,-406.28"/>
</a>
</g>
</g>
<!-- Node40 -->
<g id="Node000040" class="node">
<title>Node40</title>
<g id="a_Node000040"><a xlink:title=" ">
<polygon fill="#e0e0e0" stroke="#999999" points="188.3,-404 94.3,-404 94.3,-385 188.3,-385 188.3,-404"/>
<text text-anchor="middle" x="141.3" y="-392" font-family="Helvetica,sans-Serif" font-size="10.00">big&#45;int/bigint.hh</text>
</a>
</g>
</g>
<!-- Node39&#45;&gt;Node40 -->
<g id="edge41_Node000039_Node000040" class="edge">
<title>Node39&#45;&gt;Node40</title>
<g id="a_edge41_Node000039_Node000040"><a xlink:title=" ">
<path fill="none" stroke="#63b8ff" d="M141.3,-439.75C141.3,-432.8 141.3,-422.85 141.3,-414.13"/>
<polygon fill="#63b8ff" stroke="#63b8ff" points="144.8,-414.09 141.3,-404.09 137.8,-414.09 144.8,-414.09"/>
</a>
</g>
</g>
<!-- Node41&#45;&gt;Node11 -->
<g id="edge45_Node000041_Node000011" class="edge">
<title>Node41&#45;&gt;Node11</title>
<g id="a_edge45_Node000041_Node000011"><a xlink:title=" ">
<path fill="none" stroke="#63b8ff" d="M252.46,-604.98C240.92,-587.29 216.3,-544.93 216.3,-505.5 216.3,-505.5 216.3,-505.5 216.3,-173.5 216.3,-110.25 298.83,-83.17 352.43,-72.26"/>
<polygon fill="#63b8ff" stroke="#63b8ff" points="353.24,-75.67 362.4,-70.35 351.92,-68.79 353.24,-75.67"/>
</a>
</g>
</g>
<!-- Node41&#45;&gt;Node39 -->
<g id="edge46_Node000041_Node000039" class="edge">
<title>Node41&#45;&gt;Node39</title>
<g id="a_edge46_Node000041_Node000039"><a xlink:title=" ">
<path fill="none" stroke="#63b8ff" d="M244.49,-604.98C232.24,-596.88 214.44,-583.78 202.3,-569 176.47,-537.53 157.33,-493.34 147.89,-468.78"/>
<polygon fill="#63b8ff" stroke="#63b8ff" points="151.11,-467.42 144.34,-459.27 144.55,-469.86 151.11,-467.42"/>
</a>
</g>
</g>
<!-- Node41&#45;&gt;Node42 -->
<g id="edge47_Node000041_Node000042" class="edge">
<title>Node41&#45;&gt;Node42</title>
<g id="a_edge47_Node000041_Node000042"><a xlink:title=" ">
<path fill="none" stroke="#63b8ff" d="M297.05,-605.22C341.98,-595.62 415.85,-579.83 462.73,-569.81"/>
<polygon fill="#63b8ff" stroke="#63b8ff" points="463.55,-573.22 472.6,-567.7 462.09,-566.37 463.55,-573.22"/>
</a>
</g>
</g>
<!-- Node43 -->
<g id="Node000043" class="node">
<title>Node43</title>
<g id="a_Node000043"><a xlink:title=" ">
<polygon fill="#e0e0e0" stroke="#999999" points="288.3,-569 244.3,-569 244.3,-550 288.3,-550 288.3,-569"/>
<text text-anchor="middle" x="266.3" y="-557" font-family="Helvetica,sans-Serif" font-size="10.00">limits</text>
</a>
</g>
</g>
<!-- Node41&#45;&gt;Node43 -->
<g id="edge51_Node000041_Node000043" class="edge">
<title>Node41&#45;&gt;Node43</title>
<g id="a_edge51_Node000041_Node000043"><a xlink:title=" ">
<path fill="none" stroke="#63b8ff" d="M259.62,-604.75C260.67,-597.8 262.17,-587.85 263.49,-579.13"/>
<polygon fill="#63b8ff" stroke="#63b8ff" points="266.97,-579.5 265.01,-569.09 260.05,-578.45 266.97,-579.5"/>
</a>
</g>
</g>
<!-- Node42&#45;&gt;Node2 -->
<g id="edge50_Node000042_Node000002" class="edge">
<title>Node42&#45;&gt;Node2</title>
<g id="a_edge50_Node000042_Node000002"><a xlink:title=" ">
<path fill="none" stroke="#63b8ff" d="M479.47,-549.98C451.43,-541.09 407.26,-527.07 376,-517.15"/>
<polygon fill="#63b8ff" stroke="#63b8ff" points="376.93,-513.77 366.34,-514.08 374.82,-520.44 376.93,-513.77"/>
</a>
</g>
</g>
<!-- Node42&#45;&gt;Node11 -->
<g id="edge49_Node000042_Node000011" class="edge">
<title>Node42&#45;&gt;Node11</title>
<g id="a_edge49_Node000042_Node000011"><a xlink:title=" ">
<path fill="none" stroke="#63b8ff" d="M496.84,-549.95C460.28,-516.55 330.3,-394.01 330.3,-340.5 330.3,-340.5 330.3,-340.5 330.3,-173.5 330.3,-135.91 359.98,-100.51 379.83,-81.04"/>
<polygon fill="#63b8ff" stroke="#63b8ff" points="382.25,-83.57 387.13,-74.17 377.45,-78.48 382.25,-83.57"/>
</a>
</g>
</g>
<!-- Node42&#45;&gt;Node37 -->
<g id="edge48_Node000042_Node000037" class="edge">
<title>Node42&#45;&gt;Node37</title>
<g id="a_edge48_Node000042_Node000037"><a xlink:title=" ">
<path fill="none" stroke="#63b8ff" d="M513.34,-549.66C527.71,-531.61 560.63,-490.28 579.1,-467.08"/>
<polygon fill="#63b8ff" stroke="#63b8ff" points="581.92,-469.16 585.41,-459.16 576.44,-464.8 581.92,-469.16"/>
</a>
</g>
</g>
<!-- Node44&#45;&gt;Node7 -->
<g id="edge53_Node000044_Node000007" class="edge">
<title>Node44&#45;&gt;Node7</title>
<g id="a_edge53_Node000044_Node000007"><a xlink:title=" ">
<path fill="none" stroke="#63b8ff" d="M471.83,-667.08C568.68,-661.85 855.3,-639.69 855.3,-560.5 855.3,-560.5 855.3,-560.5 855.3,-393.5 855.3,-283.03 758.45,-176.08 718.36,-136.55"/>
<polygon fill="#63b8ff" stroke="#63b8ff" points="720.55,-133.8 710.94,-129.36 715.69,-138.83 720.55,-133.8"/>
</a>
</g>
</g>
<!-- Node45 -->
<g id="Node000045" class="node">
<title>Node45</title>
<g id="a_Node000045"><a xlink:href="pointer__expr_8h.html" target="_top" xlink:title="API to expression classes for Pointers.">
<polygon fill="white" stroke="#666666" points="478.3,-624 392.3,-624 392.3,-605 478.3,-605 478.3,-624"/>
<text text-anchor="middle" x="435.3" y="-612" font-family="Helvetica,sans-Serif" font-size="10.00">pointer_expr.h</text>
</a>
</g>
</g>
<!-- Node44&#45;&gt;Node45 -->
<g id="edge54_Node000044_Node000045" class="edge">
<title>Node44&#45;&gt;Node45</title>
<g id="a_edge54_Node000044_Node000045"><a xlink:title=" ">
<path fill="none" stroke="#63b8ff" d="M439.48,-659.75C438.82,-652.8 437.88,-642.85 437.06,-634.13"/>
<polygon fill="#63b8ff" stroke="#63b8ff" points="440.54,-633.72 436.11,-624.09 433.57,-634.37 440.54,-633.72"/>
</a>
</g>
</g>
<!-- Node45&#45;&gt;Node42 -->
<g id="edge57_Node000045_Node000042" class="edge">
<title>Node45&#45;&gt;Node42</title>
<g id="a_edge57_Node000045_Node000042"><a xlink:title=" ">
<path fill="none" stroke="#63b8ff" d="M446.71,-604.98C457.41,-597 473.64,-584.88 486.46,-575.31"/>
<polygon fill="#63b8ff" stroke="#63b8ff" points="488.77,-577.96 494.69,-569.17 484.58,-572.35 488.77,-577.96"/>
</a>
</g>
</g>
<!-- Node46 -->
<g id="Node000046" class="node">
<title>Node46</title>
<g id="a_Node000046"><a xlink:href="bitvector__types_8h.html" target="_top" xlink:title="Pre&#45;defined bitvector types.">
<polygon fill="white" stroke="#666666" points="454.8,-569 353.8,-569 353.8,-550 454.8,-550 454.8,-569"/>
<text text-anchor="middle" x="404.3" y="-557" font-family="Helvetica,sans-Serif" font-size="10.00">bitvector_types.h</text>
</a>
</g>
</g>
<!-- Node45&#45;&gt;Node46 -->
<g id="edge55_Node000045_Node000046" class="edge">
<title>Node45&#45;&gt;Node46</title>
<g id="a_edge55_Node000045_Node000046"><a xlink:title=" ">
<path fill="none" stroke="#63b8ff" d="M430.18,-604.75C425.94,-597.49 419.77,-586.95 414.53,-577.98"/>
<polygon fill="#63b8ff" stroke="#63b8ff" points="417.4,-575.95 409.33,-569.09 411.35,-579.49 417.4,-575.95"/>
</a>
</g>
</g>
<!-- Node46&#45;&gt;Node2 -->
<g id="edge56_Node000046_Node000002" class="edge">
<title>Node46&#45;&gt;Node2</title>
<g id="a_edge56_Node000046_Node000002"><a xlink:title=" ">
<path fill="none" stroke="#63b8ff" d="M393.86,-549.98C384.16,-542.07 369.49,-530.11 357.8,-520.58"/>
<polygon fill="#63b8ff" stroke="#63b8ff" points="359.9,-517.78 349.94,-514.17 355.47,-523.2 359.9,-517.78"/>
</a>
</g>
</g>
<!-- Node47&#45;&gt;Node8 -->
<g id="edge60_Node000047_Node000008" class="edge">
<title>Node47&#45;&gt;Node8</title>
<g id="a_edge60_Node000047_Node000008"><a xlink:title=" ">
<path fill="none" stroke="#63b8ff" d="M924.81,-164.98C911.9,-156.84 892.2,-144.41 876.9,-134.76"/>
<polygon fill="#63b8ff" stroke="#63b8ff" points="878.37,-131.55 868.04,-129.17 874.63,-137.47 878.37,-131.55"/>
</a>
</g>
</g>
<!-- Node47&#45;&gt;Node11 -->
<g id="edge59_Node000047_Node000011" class="edge">
<title>Node47&#45;&gt;Node11</title>
<g id="a_edge59_Node000047_Node000011"><a xlink:title=" ">
<path fill="none" stroke="#63b8ff" d="M917.2,-164.98C882.4,-151.26 810.51,-124.38 747.3,-110 639.3,-85.43 509.25,-73.37 442.18,-68.4"/>
<polygon fill="#63b8ff" stroke="#63b8ff" points="442.19,-64.89 431.97,-67.66 441.69,-71.88 442.19,-64.89"/>
</a>
</g>
</g>
</g>
</svg>
