<?xml version="1.0" encoding="UTF-8" standalone="no"?>
<!DOCTYPE svg PUBLIC "-//W3C//DTD SVG 1.1//EN"
 "http://www.w3.org/Graphics/SVG/1.1/DTD/svg11.dtd">
<!-- Generated by graphviz version 2.43.0 (0)
 -->
<!-- Title: /home/runner/work/cbmc/cbmc/src/util/std_expr.cpp Pages: 1 -->
<svg width="1074pt" height="698pt"
 viewBox="0.00 0.00 1074.00 698.00" xmlns="http://www.w3.org/2000/svg" xmlns:xlink="http://www.w3.org/1999/xlink">
<g id="graph0" class="graph" transform="scale(1 1) rotate(0) translate(4 694)">
<title>/home/runner/work/cbmc/cbmc/src/util/std_expr.cpp</title>
<!-- Node1 -->
<g id="Node000001" class="node">
<title>Node1</title>
<g id="a_Node000001"><a xlink:title=" ">
<polygon fill="#999999" stroke="#666666" points="344,-690 198,-690 198,-660 344,-660 344,-690"/>
<text text-anchor="start" x="206" y="-678" font-family="Helvetica,sans-Serif" font-size="10.00">/home/runner/work/cbmc</text>
<text text-anchor="middle" x="271" y="-667" font-family="Helvetica,sans-Serif" font-size="10.00">/cbmc/src/util/std_expr.cpp</text>
</a>
</g>
</g>
<!-- Node2 -->
<g id="Node000002" class="node">
<title>Node2</title>
<g id="a_Node000002"><a xlink:href="std__expr_8h.html" target="_top" xlink:title="API to expression classes.">
<polygon fill="white" stroke="#666666" points="569.5,-569 502.5,-569 502.5,-550 569.5,-550 569.5,-569"/>
<text text-anchor="middle" x="536" y="-557" font-family="Helvetica,sans-Serif" font-size="10.00">std_expr.h</text>
</a>
</g>
</g>
<!-- Node1&#45;&gt;Node2 -->
<g id="edge1_Node000001_Node000002" class="edge">
<title>Node1&#45;&gt;Node2</title>
<g id="a_edge1_Node000001_Node000002"><a xlink:title=" ">
<path fill="none" stroke="#63b8ff" d="M344.16,-669.17C388.11,-663.44 443.55,-650.98 486,-624 503.9,-612.63 518.09,-592.55 526.71,-578.01"/>
<polygon fill="#63b8ff" stroke="#63b8ff" points="529.92,-579.44 531.77,-569.01 523.82,-576.01 529.92,-579.44"/>
</a>
</g>
</g>
<!-- Node42 -->
<g id="Node000042" class="node">
<title>Node42</title>
<g id="a_Node000042"><a xlink:href="config_8h.html" target="_top" xlink:title=" ">
<polygon fill="white" stroke="#666666" points="114.5,-184 59.5,-184 59.5,-165 114.5,-165 114.5,-184"/>
<text text-anchor="middle" x="87" y="-172" font-family="Helvetica,sans-Serif" font-size="10.00">config.h</text>
</a>
</g>
</g>
<!-- Node1&#45;&gt;Node42 -->
<g id="edge45_Node000001_Node000042" class="edge">
<title>Node1&#45;&gt;Node42</title>
<g id="a_edge45_Node000001_Node000042"><a xlink:title=" ">
<path fill="none" stroke="#63b8ff" d="M197.87,-665.83C135.21,-654.28 55,-626.58 55,-560.5 55,-560.5 55,-560.5 55,-283.5 55,-250.71 68.73,-214.54 78.2,-193.49"/>
<polygon fill="#63b8ff" stroke="#63b8ff" points="81.48,-194.74 82.55,-184.2 75.14,-191.77 81.48,-194.74"/>
</a>
</g>
</g>
<!-- Node45 -->
<g id="Node000045" class="node">
<title>Node45</title>
<g id="a_Node000045"><a xlink:href="namespace_8h.html" target="_top" xlink:title=" ">
<polygon fill="white" stroke="#666666" points="494,-184 412,-184 412,-165 494,-165 494,-184"/>
<text text-anchor="middle" x="453" y="-172" font-family="Helvetica,sans-Serif" font-size="10.00">namespace.h</text>
</a>
</g>
</g>
<!-- Node1&#45;&gt;Node45 -->
<g id="edge53_Node000001_Node000045" class="edge">
<title>Node1&#45;&gt;Node45</title>
<g id="a_edge53_Node000001_Node000045"><a xlink:title=" ">
<path fill="none" stroke="#63b8ff" d="M270.39,-659.8C268.69,-618.82 264,-496.83 264,-395.5 264,-395.5 264,-395.5 264,-283.5 264,-248.46 363.19,-207.51 417.86,-187.6"/>
<polygon fill="#63b8ff" stroke="#63b8ff" points="419.28,-190.81 427.51,-184.13 416.92,-184.22 419.28,-190.81"/>
</a>
</g>
</g>
<!-- Node46 -->
<g id="Node000046" class="node">
<title>Node46</title>
<g id="a_Node000046"><a xlink:href="pointer__expr_8h.html" target="_top" xlink:title="API to expression classes for Pointers.">
<polygon fill="white" stroke="#666666" points="477,-624 391,-624 391,-605 477,-605 477,-624"/>
<text text-anchor="middle" x="434" y="-612" font-family="Helvetica,sans-Serif" font-size="10.00">pointer_expr.h</text>
</a>
</g>
</g>
<!-- Node1&#45;&gt;Node46 -->
<g id="edge56_Node000001_Node000046" class="edge">
<title>Node1&#45;&gt;Node46</title>
<g id="a_edge56_Node000001_Node000046"><a xlink:title=" ">
<path fill="none" stroke="#63b8ff" d="M310.04,-659.99C337.6,-650.1 374.15,-636.98 400.41,-627.56"/>
<polygon fill="#63b8ff" stroke="#63b8ff" points="401.7,-630.81 409.93,-624.14 399.33,-624.22 401.7,-630.81"/>
</a>
</g>
</g>
<!-- Node48 -->
<g id="Node000048" class="node">
<title>Node48</title>
<g id="a_Node000048"><a xlink:href="range_8h.html" target="_top" xlink:title="Ranges: pair of begin and end iterators, which can be initialized from containers,...">
<polygon fill="white" stroke="#666666" points="995.5,-404 942.5,-404 942.5,-385 995.5,-385 995.5,-404"/>
<text text-anchor="middle" x="969" y="-392" font-family="Helvetica,sans-Serif" font-size="10.00">range.h</text>
</a>
</g>
</g>
<!-- Node1&#45;&gt;Node48 -->
<g id="edge60_Node000001_Node000048" class="edge">
<title>Node1&#45;&gt;Node48</title>
<g id="a_edge60_Node000001_Node000048"><a xlink:title=" ">
<path fill="none" stroke="#63b8ff" d="M344.08,-669.55C521.41,-657.78 960,-622.4 960,-560.5 960,-560.5 960,-560.5 960,-503.5 960,-472.08 963.83,-435.7 966.49,-414.2"/>
<polygon fill="#63b8ff" stroke="#63b8ff" points="969.98,-414.52 967.79,-404.16 963.04,-413.63 969.98,-414.52"/>
</a>
</g>
</g>
<!-- Node50 -->
<g id="Node000050" class="node">
<title>Node50</title>
<g id="a_Node000050"><a xlink:href="substitute__symbols_8h.html" target="_top" xlink:title="Symbol Substitution.">
<polygon fill="white" stroke="#666666" points="242.5,-624 121.5,-624 121.5,-605 242.5,-605 242.5,-624"/>
<text text-anchor="middle" x="182" y="-612" font-family="Helvetica,sans-Serif" font-size="10.00">substitute_symbols.h</text>
</a>
</g>
</g>
<!-- Node1&#45;&gt;Node50 -->
<g id="edge65_Node000001_Node000050" class="edge">
<title>Node1&#45;&gt;Node50</title>
<g id="a_edge65_Node000001_Node000050"><a xlink:title=" ">
<path fill="none" stroke="#63b8ff" d="M249.46,-659.84C235.53,-650.68 217.47,-638.82 203.55,-629.66"/>
<polygon fill="#63b8ff" stroke="#63b8ff" points="205.35,-626.66 195.08,-624.09 201.51,-632.51 205.35,-626.66"/>
</a>
</g>
</g>
<!-- Node51 -->
<g id="Node000051" class="node">
<title>Node51</title>
<g id="a_Node000051"><a xlink:title=" ">
<polygon fill="#e0e0e0" stroke="#999999" points="122,-569 84,-569 84,-550 122,-550 122,-569"/>
<text text-anchor="middle" x="103" y="-557" font-family="Helvetica,sans-Serif" font-size="10.00">map</text>
</a>
</g>
</g>
<!-- Node1&#45;&gt;Node51 -->
<g id="edge69_Node000001_Node000051" class="edge">
<title>Node1&#45;&gt;Node51</title>
<g id="a_edge69_Node000001_Node000051"><a xlink:title=" ">
<path fill="none" stroke="#63b8ff" d="M197.8,-668.05C166.91,-661.71 133.25,-649.05 112,-624 101.65,-611.79 100.08,-593.27 100.7,-579.38"/>
<polygon fill="#63b8ff" stroke="#63b8ff" points="104.22,-579.3 101.59,-569.04 97.25,-578.7 104.22,-579.3"/>
</a>
</g>
</g>
<!-- Node3 -->
<g id="Node000003" class="node">
<title>Node3</title>
<g id="a_Node000003"><a xlink:href="expr__cast_8h.html" target="_top" xlink:title="Templated functions to cast to specific exprt&#45;derived classes.">
<polygon fill="white" stroke="#666666" points="787.5,-459 714.5,-459 714.5,-440 787.5,-440 787.5,-459"/>
<text text-anchor="middle" x="751" y="-447" font-family="Helvetica,sans-Serif" font-size="10.00">expr_cast.h</text>
</a>
</g>
</g>
<!-- Node2&#45;&gt;Node3 -->
<g id="edge2_Node000002_Node000003" class="edge">
<title>Node2&#45;&gt;Node3</title>
<g id="a_edge2_Node000002_Node000003"><a xlink:title=" ">
<path fill="none" stroke="#63b8ff" d="M553.23,-549.84C590.83,-530.96 680.42,-485.96 724.95,-463.59"/>
<polygon fill="#63b8ff" stroke="#63b8ff" points="726.62,-466.66 733.99,-459.05 723.48,-460.41 726.62,-466.66"/>
</a>
</g>
</g>
<!-- Node7 -->
<g id="Node000007" class="node">
<title>Node7</title>
<g id="a_Node000007"><a xlink:href="src_2util_2invariant_8h.html" target="_top" xlink:title=" ">
<polygon fill="white" stroke="#666666" points="750.5,-74 681.5,-74 681.5,-55 750.5,-55 750.5,-74"/>
<text text-anchor="middle" x="716" y="-62" font-family="Helvetica,sans-Serif" font-size="10.00">invariant.h</text>
</a>
</g>
</g>
<!-- Node2&#45;&gt;Node7 -->
<g id="edge34_Node000002_Node000007" class="edge">
<title>Node2&#45;&gt;Node7</title>
<g id="a_edge34_Node000002_Node000007"><a xlink:title=" ">
<path fill="none" stroke="#63b8ff" d="M569.54,-556.13C662.06,-548.67 914,-521.82 914,-450.5 914,-450.5 914,-450.5 914,-228.5 914,-163.16 878.64,-150.03 827,-110 807.36,-94.78 781.83,-84.06 760.2,-76.97"/>
<polygon fill="#63b8ff" stroke="#63b8ff" points="761.16,-73.6 750.58,-73.96 759.08,-80.28 761.16,-73.6"/>
</a>
</g>
</g>
<!-- Node39 -->
<g id="Node000039" class="node">
<title>Node39</title>
<g id="a_Node000039"><a xlink:href="std__types_8h.html" target="_top" xlink:title="Pre&#45;defined types.">
<polygon fill="white" stroke="#666666" points="530.5,-514 457.5,-514 457.5,-495 530.5,-495 530.5,-514"/>
<text text-anchor="middle" x="494" y="-502" font-family="Helvetica,sans-Serif" font-size="10.00">std_types.h</text>
</a>
</g>
</g>
<!-- Node2&#45;&gt;Node39 -->
<g id="edge35_Node000002_Node000039" class="edge">
<title>Node2&#45;&gt;Node39</title>
<g id="a_edge35_Node000002_Node000039"><a xlink:title=" ">
<path fill="none" stroke="#63b8ff" d="M529.06,-549.75C523.13,-542.26 514.43,-531.28 507.18,-522.13"/>
<polygon fill="#63b8ff" stroke="#63b8ff" points="509.76,-519.75 500.81,-514.09 504.27,-524.1 509.76,-519.75"/>
</a>
</g>
</g>
<!-- Node4 -->
<g id="Node000004" class="node">
<title>Node4</title>
<g id="a_Node000004"><a xlink:title=" ">
<polygon fill="#e0e0e0" stroke="#999999" points="771.5,-404 714.5,-404 714.5,-385 771.5,-385 771.5,-404"/>
<text text-anchor="middle" x="743" y="-392" font-family="Helvetica,sans-Serif" font-size="10.00">typeinfo</text>
</a>
</g>
</g>
<!-- Node3&#45;&gt;Node4 -->
<g id="edge3_Node000003_Node000004" class="edge">
<title>Node3&#45;&gt;Node4</title>
<g id="a_edge3_Node000003_Node000004"><a xlink:title=" ">
<path fill="none" stroke="#63b8ff" d="M749.68,-439.75C748.63,-432.8 747.13,-422.85 745.81,-414.13"/>
<polygon fill="#63b8ff" stroke="#63b8ff" points="749.25,-413.45 744.3,-404.09 742.33,-414.5 749.25,-413.45"/>
</a>
</g>
</g>
<!-- Node5 -->
<g id="Node000005" class="node">
<title>Node5</title>
<g id="a_Node000005"><a xlink:title=" ">
<polygon fill="#e0e0e0" stroke="#999999" points="917.5,-19 848.5,-19 848.5,0 917.5,0 917.5,-19"/>
<text text-anchor="middle" x="883" y="-7" font-family="Helvetica,sans-Serif" font-size="10.00">type_traits</text>
</a>
</g>
</g>
<!-- Node3&#45;&gt;Node5 -->
<g id="edge4_Node000003_Node000005" class="edge">
<title>Node3&#45;&gt;Node5</title>
<g id="a_edge4_Node000003_Node000005"><a xlink:title=" ">
<path fill="none" stroke="#63b8ff" d="M775.7,-439.97C812.12,-425.62 876,-392.98 876,-340.5 876,-340.5 876,-340.5 876,-228.5 876,-154.72 880.06,-66.96 881.99,-29.25"/>
<polygon fill="#63b8ff" stroke="#63b8ff" points="885.49,-29.39 882.52,-19.22 878.5,-29.02 885.49,-29.39"/>
</a>
</g>
</g>
<!-- Node6 -->
<g id="Node000006" class="node">
<title>Node6</title>
<g id="a_Node000006"><a xlink:title=" ">
<polygon fill="#e0e0e0" stroke="#999999" points="809.5,-349 744.5,-349 744.5,-330 809.5,-330 809.5,-349"/>
<text text-anchor="middle" x="777" y="-337" font-family="Helvetica,sans-Serif" font-size="10.00">functional</text>
</a>
</g>
</g>
<!-- Node3&#45;&gt;Node6 -->
<g id="edge5_Node000003_Node000006" class="edge">
<title>Node3&#45;&gt;Node6</title>
<g id="a_edge5_Node000003_Node000006"><a xlink:title=" ">
<path fill="none" stroke="#63b8ff" d="M758.94,-439.75C766.03,-431.3 775.9,-417.79 780,-404 784.33,-389.43 783.13,-372.17 781.1,-359.32"/>
<polygon fill="#63b8ff" stroke="#63b8ff" points="784.52,-358.53 779.22,-349.35 777.64,-359.82 784.52,-358.53"/>
</a>
</g>
</g>
<!-- Node3&#45;&gt;Node7 -->
<g id="edge6_Node000003_Node000007" class="edge">
<title>Node3&#45;&gt;Node7</title>
<g id="a_edge6_Node000003_Node000007"><a xlink:title=" ">
<path fill="none" stroke="#63b8ff" d="M765.37,-439.79C790.08,-423.58 838,-386.25 838,-340.5 838,-340.5 838,-340.5 838,-173.5 838,-125.85 785.18,-94.15 749.05,-78.04"/>
<polygon fill="#63b8ff" stroke="#63b8ff" points="750.38,-74.8 739.81,-74.09 747.63,-81.24 750.38,-74.8"/>
</a>
</g>
</g>
<!-- Node11 -->
<g id="Node000011" class="node">
<title>Node11</title>
<g id="a_Node000011"><a xlink:href="expr_8h.html" target="_top" xlink:title=" ">
<polygon fill="white" stroke="#666666" points="584.5,-404 537.5,-404 537.5,-385 584.5,-385 584.5,-404"/>
<text text-anchor="middle" x="561" y="-392" font-family="Helvetica,sans-Serif" font-size="10.00">expr.h</text>
</a>
</g>
</g>
<!-- Node3&#45;&gt;Node11 -->
<g id="edge11_Node000003_Node000011" class="edge">
<title>Node3&#45;&gt;Node11</title>
<g id="a_edge11_Node000003_Node000011"><a xlink:title=" ">
<path fill="none" stroke="#63b8ff" d="M720.47,-439.98C686.01,-430.37 630.1,-414.78 594.47,-404.84"/>
<polygon fill="#63b8ff" stroke="#63b8ff" points="595.12,-401.38 584.55,-402.07 593.24,-408.13 595.12,-401.38"/>
</a>
</g>
</g>
<!-- Node7&#45;&gt;Node5 -->
<g id="edge10_Node000007_Node000005" class="edge">
<title>Node7&#45;&gt;Node5</title>
<g id="a_edge10_Node000007_Node000005"><a xlink:title=" ">
<path fill="none" stroke="#63b8ff" d="M742.83,-54.98C770.87,-46.09 815.05,-32.07 846.3,-22.15"/>
<polygon fill="#63b8ff" stroke="#63b8ff" points="847.49,-25.44 855.96,-19.08 845.37,-18.77 847.49,-25.44"/>
</a>
</g>
</g>
<!-- Node8 -->
<g id="Node000008" class="node">
<title>Node8</title>
<g id="a_Node000008"><a xlink:title=" ">
<polygon fill="#e0e0e0" stroke="#999999" points="770.5,-19 721.5,-19 721.5,0 770.5,0 770.5,-19"/>
<text text-anchor="middle" x="746" y="-7" font-family="Helvetica,sans-Serif" font-size="10.00">cstdlib</text>
</a>
</g>
</g>
<!-- Node7&#45;&gt;Node8 -->
<g id="edge7_Node000007_Node000008" class="edge">
<title>Node7&#45;&gt;Node8</title>
<g id="a_edge7_Node000007_Node000008"><a xlink:title=" ">
<path fill="none" stroke="#63b8ff" d="M720.95,-54.75C725.06,-47.49 731.03,-36.95 736.1,-27.98"/>
<polygon fill="#63b8ff" stroke="#63b8ff" points="739.26,-29.52 741.14,-19.09 733.17,-26.07 739.26,-29.52"/>
</a>
</g>
</g>
<!-- Node9 -->
<g id="Node000009" class="node">
<title>Node9</title>
<g id="a_Node000009"><a xlink:title=" ">
<polygon fill="#e0e0e0" stroke="#999999" points="703,-19 647,-19 647,0 703,0 703,-19"/>
<text text-anchor="middle" x="675" y="-7" font-family="Helvetica,sans-Serif" font-size="10.00">sstream</text>
</a>
</g>
</g>
<!-- Node7&#45;&gt;Node9 -->
<g id="edge8_Node000007_Node000009" class="edge">
<title>Node7&#45;&gt;Node9</title>
<g id="a_edge8_Node000007_Node000009"><a xlink:title=" ">
<path fill="none" stroke="#63b8ff" d="M709.23,-54.75C703.44,-47.26 694.94,-36.28 687.86,-27.13"/>
<polygon fill="#63b8ff" stroke="#63b8ff" points="690.53,-24.86 681.64,-19.09 684.99,-29.14 690.53,-24.86"/>
</a>
</g>
</g>
<!-- Node10 -->
<g id="Node000010" class="node">
<title>Node10</title>
<g id="a_Node000010"><a xlink:title=" ">
<polygon fill="#e0e0e0" stroke="#999999" points="368,-19 324,-19 324,0 368,0 368,-19"/>
<text text-anchor="middle" x="346" y="-7" font-family="Helvetica,sans-Serif" font-size="10.00">string</text>
</a>
</g>
</g>
<!-- Node7&#45;&gt;Node10 -->
<g id="edge9_Node000007_Node000010" class="edge">
<title>Node7&#45;&gt;Node10</title>
<g id="a_edge9_Node000007_Node000010"><a xlink:title=" ">
<path fill="none" stroke="#63b8ff" d="M681.19,-58.51C609.81,-48.29 447.77,-25.08 378.44,-15.15"/>
<polygon fill="#63b8ff" stroke="#63b8ff" points="378.54,-11.63 368.14,-13.67 377.54,-18.55 378.54,-11.63"/>
</a>
</g>
</g>
<!-- Node11&#45;&gt;Node6 -->
<g id="edge33_Node000011_Node000006" class="edge">
<title>Node11&#45;&gt;Node6</title>
<g id="a_edge33_Node000011_Node000006"><a xlink:title=" ">
<path fill="none" stroke="#63b8ff" d="M584.53,-387.73C620.51,-378.9 689.76,-361.91 734.64,-350.89"/>
<polygon fill="#63b8ff" stroke="#63b8ff" points="735.51,-354.29 744.38,-348.5 733.84,-347.49 735.51,-354.29"/>
</a>
</g>
</g>
<!-- Node12 -->
<g id="Node000012" class="node">
<title>Node12</title>
<g id="a_Node000012"><a xlink:href="as__const_8h.html" target="_top" xlink:title=" ">
<polygon fill="white" stroke="#666666" points="502,-349 434,-349 434,-330 502,-330 502,-349"/>
<text text-anchor="middle" x="468" y="-337" font-family="Helvetica,sans-Serif" font-size="10.00">as_const.h</text>
</a>
</g>
</g>
<!-- Node11&#45;&gt;Node12 -->
<g id="edge12_Node000011_Node000012" class="edge">
<title>Node11&#45;&gt;Node12</title>
<g id="a_edge12_Node000011_Node000012"><a xlink:title=" ">
<path fill="none" stroke="#63b8ff" d="M546.06,-384.98C531.5,-376.69 509.13,-363.94 492.07,-354.22"/>
<polygon fill="#63b8ff" stroke="#63b8ff" points="493.64,-351.08 483.21,-349.17 490.17,-357.16 493.64,-351.08"/>
</a>
</g>
</g>
<!-- Node13 -->
<g id="Node000013" class="node">
<title>Node13</title>
<g id="a_Node000013"><a xlink:href="type_8h.html" target="_top" xlink:title="Defines typet, type_with_subtypet and type_with_subtypest.">
<polygon fill="white" stroke="#666666" points="377.5,-349 330.5,-349 330.5,-330 377.5,-330 377.5,-349"/>
<text text-anchor="middle" x="354" y="-337" font-family="Helvetica,sans-Serif" font-size="10.00">type.h</text>
</a>
</g>
</g>
<!-- Node11&#45;&gt;Node13 -->
<g id="edge13_Node000011_Node000013" class="edge">
<title>Node11&#45;&gt;Node13</title>
<g id="a_edge13_Node000011_Node000013"><a xlink:title=" ">
<path fill="none" stroke="#63b8ff" d="M537.25,-387.42C500.46,-378 429.56,-359.85 387.55,-349.09"/>
<polygon fill="#63b8ff" stroke="#63b8ff" points="388.34,-345.68 377.79,-346.59 386.61,-352.46 388.34,-345.68"/>
</a>
</g>
</g>
<!-- Node36 -->
<g id="Node000036" class="node">
<title>Node36</title>
<g id="a_Node000036"><a xlink:href="validation__mode_8h.html" target="_top" xlink:title=" ">
<polygon fill="white" stroke="#666666" points="687.5,-239 580.5,-239 580.5,-220 687.5,-220 687.5,-239"/>
<text text-anchor="middle" x="634" y="-227" font-family="Helvetica,sans-Serif" font-size="10.00">validation_mode.h</text>
</a>
</g>
</g>
<!-- Node11&#45;&gt;Node36 -->
<g id="edge32_Node000011_Node000036" class="edge">
<title>Node11&#45;&gt;Node36</title>
<g id="a_edge32_Node000011_Node000036"><a xlink:title=" ">
<path fill="none" stroke="#63b8ff" d="M584.51,-390.04C607.68,-385.24 641.89,-374.11 658,-349 678.22,-317.48 658.6,-272.33 644.85,-247.87"/>
<polygon fill="#63b8ff" stroke="#63b8ff" points="647.72,-245.85 639.62,-239.02 641.69,-249.41 647.72,-245.85"/>
</a>
</g>
</g>
<!-- Node37 -->
<g id="Node000037" class="node">
<title>Node37</title>
<g id="a_Node000037"><a xlink:href="validate__types_8h.html" target="_top" xlink:title=" ">
<polygon fill="white" stroke="#666666" points="390,-294 292,-294 292,-275 390,-275 390,-294"/>
<text text-anchor="middle" x="341" y="-282" font-family="Helvetica,sans-Serif" font-size="10.00">validate_types.h</text>
</a>
</g>
</g>
<!-- Node11&#45;&gt;Node37 -->
<g id="edge31_Node000011_Node000037" class="edge">
<title>Node11&#45;&gt;Node37</title>
<g id="a_edge31_Node000011_Node000037"><a xlink:title=" ">
<path fill="none" stroke="#63b8ff" d="M537.12,-392.79C481.97,-390.59 348.37,-381.91 321,-349 309.97,-335.73 318.6,-316.34 327.72,-302.48"/>
<polygon fill="#63b8ff" stroke="#63b8ff" points="330.61,-304.47 333.58,-294.3 324.92,-300.39 330.61,-304.47"/>
</a>
</g>
</g>
<!-- Node38 -->
<g id="Node000038" class="node">
<title>Node38</title>
<g id="a_Node000038"><a xlink:href="validate__expressions_8h.html" target="_top" xlink:title=" ">
<polygon fill="white" stroke="#666666" points="649.5,-349 520.5,-349 520.5,-330 649.5,-330 649.5,-349"/>
<text text-anchor="middle" x="585" y="-337" font-family="Helvetica,sans-Serif" font-size="10.00">validate_expressions.h</text>
</a>
</g>
</g>
<!-- Node11&#45;&gt;Node38 -->
<g id="edge30_Node000011_Node000038" class="edge">
<title>Node11&#45;&gt;Node38</title>
<g id="a_edge30_Node000011_Node000038"><a xlink:title=" ">
<path fill="none" stroke="#63b8ff" d="M564.96,-384.75C568.21,-377.57 572.92,-367.18 576.95,-358.27"/>
<polygon fill="#63b8ff" stroke="#63b8ff" points="580.17,-359.64 581.11,-349.09 573.8,-356.75 580.17,-359.64"/>
</a>
</g>
</g>
<!-- Node14 -->
<g id="Node000014" class="node">
<title>Node14</title>
<g id="a_Node000014"><a xlink:href="source__location_8h.html" target="_top" xlink:title=" ">
<polygon fill="white" stroke="#666666" points="394,-184 292,-184 292,-165 394,-165 394,-184"/>
<text text-anchor="middle" x="343" y="-172" font-family="Helvetica,sans-Serif" font-size="10.00">source_location.h</text>
</a>
</g>
</g>
<!-- Node13&#45;&gt;Node14 -->
<g id="edge14_Node000013_Node000014" class="edge">
<title>Node13&#45;&gt;Node14</title>
<g id="a_edge14_Node000013_Node000014"><a xlink:title=" ">
<path fill="none" stroke="#63b8ff" d="M367.49,-329.75C378.29,-321.87 392.65,-309.21 399,-294 402.25,-286.21 401.14,-283.17 399,-275 390.71,-243.36 369.84,-211.17 356.05,-192.29"/>
<polygon fill="#63b8ff" stroke="#63b8ff" points="358.74,-190.04 349.94,-184.14 353.15,-194.24 358.74,-190.04"/>
</a>
</g>
</g>
<!-- Node34 -->
<g id="Node000034" class="node">
<title>Node34</title>
<g id="a_Node000034"><a xlink:href="validate_8h.html" target="_top" xlink:title=" ">
<polygon fill="white" stroke="#666666" points="549.5,-294 484.5,-294 484.5,-275 549.5,-275 549.5,-294"/>
<text text-anchor="middle" x="517" y="-282" font-family="Helvetica,sans-Serif" font-size="10.00">validate.h</text>
</a>
</g>
</g>
<!-- Node13&#45;&gt;Node34 -->
<g id="edge21_Node000013_Node000034" class="edge">
<title>Node13&#45;&gt;Node34</title>
<g id="a_edge21_Node000013_Node000034"><a xlink:title=" ">
<path fill="none" stroke="#63b8ff" d="M377.7,-330.79C404.87,-321.96 449.69,-307.38 481.14,-297.16"/>
<polygon fill="#63b8ff" stroke="#63b8ff" points="482.41,-300.43 490.84,-294.01 480.25,-293.77 482.41,-300.43"/>
</a>
</g>
</g>
<!-- Node13&#45;&gt;Node36 -->
<g id="edge29_Node000013_Node000036" class="edge">
<title>Node13&#45;&gt;Node36</title>
<g id="a_edge29_Node000013_Node000036"><a xlink:title=" ">
<path fill="none" stroke="#63b8ff" d="M368.06,-329.86C390.16,-316.59 434.65,-291.03 475,-275 510.82,-260.77 552.87,-249.22 584.73,-241.45"/>
<polygon fill="#63b8ff" stroke="#63b8ff" points="585.78,-244.79 594.69,-239.06 584.15,-237.99 585.78,-244.79"/>
</a>
</g>
</g>
<!-- Node13&#45;&gt;Node37 -->
<g id="edge28_Node000013_Node000037" class="edge">
<title>Node13&#45;&gt;Node37</title>
<g id="a_edge28_Node000013_Node000037"><a xlink:title=" ">
<path fill="none" stroke="#63b8ff" d="M351.85,-329.75C350.13,-322.72 347.65,-312.62 345.5,-303.84"/>
<polygon fill="#63b8ff" stroke="#63b8ff" points="348.89,-302.97 343.11,-294.09 342.09,-304.63 348.89,-302.97"/>
</a>
</g>
</g>
<!-- Node14&#45;&gt;Node10 -->
<g id="edge20_Node000014_Node000010" class="edge">
<title>Node14&#45;&gt;Node10</title>
<g id="a_edge20_Node000014_Node000010"><a xlink:title=" ">
<path fill="none" stroke="#63b8ff" d="M343.16,-164.74C343.63,-139.31 345,-65.08 345.65,-29.69"/>
<polygon fill="#63b8ff" stroke="#63b8ff" points="349.15,-29.37 345.84,-19.31 342.15,-29.24 349.15,-29.37"/>
</a>
</g>
</g>
<!-- Node15 -->
<g id="Node000015" class="node">
<title>Node15</title>
<g id="a_Node000015"><a xlink:href="deprecate_8h.html" target="_top" xlink:title=" ">
<polygon fill="white" stroke="#666666" points="448,-129 374,-129 374,-110 448,-110 448,-129"/>
<text text-anchor="middle" x="411" y="-117" font-family="Helvetica,sans-Serif" font-size="10.00">deprecate.h</text>
</a>
</g>
</g>
<!-- Node14&#45;&gt;Node15 -->
<g id="edge15_Node000014_Node000015" class="edge">
<title>Node14&#45;&gt;Node15</title>
<g id="a_edge15_Node000014_Node000015"><a xlink:title=" ">
<path fill="none" stroke="#63b8ff" d="M353.93,-164.98C364.08,-157.07 379.42,-145.11 391.65,-135.58"/>
<polygon fill="#63b8ff" stroke="#63b8ff" points="394.14,-138.08 399.88,-129.17 389.84,-132.56 394.14,-138.08"/>
</a>
</g>
</g>
<!-- Node16 -->
<g id="Node000016" class="node">
<title>Node16</title>
<g id="a_Node000016"><a xlink:href="irep_8h.html" target="_top" xlink:title=" ">
<polygon fill="#fff0f0" stroke="red" points="318,-129 274,-129 274,-110 318,-110 318,-129"/>
<text text-anchor="middle" x="296" y="-117" font-family="Helvetica,sans-Serif" font-size="10.00">irep.h</text>
</a>
</g>
</g>
<!-- Node14&#45;&gt;Node16 -->
<g id="edge16_Node000014_Node000016" class="edge">
<title>Node14&#45;&gt;Node16</title>
<g id="a_edge16_Node000014_Node000016"><a xlink:title=" ">
<path fill="none" stroke="#63b8ff" d="M335.24,-164.75C328.53,-157.18 318.66,-146.05 310.49,-136.84"/>
<polygon fill="#63b8ff" stroke="#63b8ff" points="312.87,-134.25 303.62,-129.09 307.63,-138.89 312.87,-134.25"/>
</a>
</g>
</g>
<!-- Node33 -->
<g id="Node000033" class="node">
<title>Node33</title>
<g id="a_Node000033"><a xlink:title=" ">
<polygon fill="#e0e0e0" stroke="#999999" points="198,-129 142,-129 142,-110 198,-110 198,-129"/>
<text text-anchor="middle" x="170" y="-117" font-family="Helvetica,sans-Serif" font-size="10.00">optional</text>
</a>
</g>
</g>
<!-- Node14&#45;&gt;Node33 -->
<g id="edge19_Node000014_Node000033" class="edge">
<title>Node14&#45;&gt;Node33</title>
<g id="a_edge19_Node000014_Node000033"><a xlink:title=" ">
<path fill="none" stroke="#63b8ff" d="M315.2,-164.98C286.03,-156.05 240,-141.94 207.6,-132.02"/>
<polygon fill="#63b8ff" stroke="#63b8ff" points="208.6,-128.66 198.01,-129.08 206.55,-135.36 208.6,-128.66"/>
</a>
</g>
</g>
<!-- Node16&#45;&gt;Node7 -->
<g id="edge18_Node000016_Node000007" class="edge">
<title>Node16&#45;&gt;Node7</title>
<g id="a_edge18_Node000016_Node000007"><a xlink:title=" ">
<path fill="none" stroke="#63b8ff" d="M318.28,-115.69C384.68,-107.31 582.07,-82.4 671.31,-71.14"/>
<polygon fill="#63b8ff" stroke="#63b8ff" points="671.91,-74.59 681.39,-69.87 671.03,-67.65 671.91,-74.59"/>
</a>
</g>
</g>
<!-- Node16&#45;&gt;Node10 -->
<g id="edge17_Node000016_Node000010" class="edge">
<title>Node16&#45;&gt;Node10</title>
<g id="a_edge17_Node000016_Node000010"><a xlink:title=" ">
<path fill="none" stroke="#63b8ff" d="M300.09,-109.66C308.3,-91.93 326.91,-51.73 337.75,-28.32"/>
<polygon fill="#63b8ff" stroke="#63b8ff" points="340.97,-29.7 341.99,-19.16 334.61,-26.76 340.97,-29.7"/>
</a>
</g>
</g>
<!-- Node34&#45;&gt;Node5 -->
<g id="edge22_Node000034_Node000005" class="edge">
<title>Node34&#45;&gt;Node5</title>
<g id="a_edge22_Node000034_Node000005"><a xlink:title=" ">
<path fill="none" stroke="#63b8ff" d="M549.54,-277.71C621.74,-263.93 789,-226.5 789,-175.5 789,-175.5 789,-175.5 789,-118.5 789,-76.29 830.36,-42.56 858.21,-24.63"/>
<polygon fill="#63b8ff" stroke="#63b8ff" points="860.38,-27.4 867.05,-19.17 856.71,-21.44 860.38,-27.4"/>
</a>
</g>
</g>
<!-- Node35 -->
<g id="Node000035" class="node">
<title>Node35</title>
<g id="a_Node000035"><a xlink:href="exception__utils_8h.html" target="_top" xlink:title=" ">
<polygon fill="white" stroke="#666666" points="562,-239 462,-239 462,-220 562,-220 562,-239"/>
<text text-anchor="middle" x="512" y="-227" font-family="Helvetica,sans-Serif" font-size="10.00">exception_utils.h</text>
</a>
</g>
</g>
<!-- Node34&#45;&gt;Node35 -->
<g id="edge23_Node000034_Node000035" class="edge">
<title>Node34&#45;&gt;Node35</title>
<g id="a_edge23_Node000034_Node000035"><a xlink:title=" ">
<path fill="none" stroke="#63b8ff" d="M516.17,-274.75C515.52,-267.8 514.58,-257.85 513.76,-249.13"/>
<polygon fill="#63b8ff" stroke="#63b8ff" points="517.23,-248.72 512.81,-239.09 510.27,-249.37 517.23,-248.72"/>
</a>
</g>
</g>
<!-- Node34&#45;&gt;Node36 -->
<g id="edge27_Node000034_Node000036" class="edge">
<title>Node34&#45;&gt;Node36</title>
<g id="a_edge27_Node000034_Node000036"><a xlink:title=" ">
<path fill="none" stroke="#63b8ff" d="M535.8,-274.98C554.62,-266.46 583.82,-253.23 605.5,-243.41"/>
<polygon fill="#63b8ff" stroke="#63b8ff" points="607.2,-246.48 614.86,-239.17 604.31,-240.11 607.2,-246.48"/>
</a>
</g>
</g>
<!-- Node35&#45;&gt;Node7 -->
<g id="edge25_Node000035_Node000007" class="edge">
<title>Node35&#45;&gt;Node7</title>
<g id="a_edge25_Node000035_Node000007"><a xlink:title=" ">
<path fill="none" stroke="#63b8ff" d="M522.68,-219.97C555.44,-193.79 654.81,-114.39 696.87,-80.79"/>
<polygon fill="#63b8ff" stroke="#63b8ff" points="699.3,-83.32 704.93,-74.34 694.93,-77.85 699.3,-83.32"/>
</a>
</g>
</g>
<!-- Node35&#45;&gt;Node10 -->
<g id="edge24_Node000035_Node000010" class="edge">
<title>Node35&#45;&gt;Node10</title>
<g id="a_edge24_Node000035_Node000010"><a xlink:title=" ">
<path fill="none" stroke="#63b8ff" d="M512.25,-219.87C512.29,-207.27 511.15,-183.31 503,-165 474.19,-100.26 404.83,-48.3 368.72,-24.53"/>
<polygon fill="#63b8ff" stroke="#63b8ff" points="370.6,-21.58 360.3,-19.11 366.81,-27.46 370.6,-21.58"/>
</a>
</g>
</g>
<!-- Node35&#45;&gt;Node14 -->
<g id="edge26_Node000035_Node000014" class="edge">
<title>Node35&#45;&gt;Node14</title>
<g id="a_edge26_Node000035_Node000014"><a xlink:title=" ">
<path fill="none" stroke="#63b8ff" d="M484.85,-219.98C456.47,-211.09 411.77,-197.07 380.14,-187.15"/>
<polygon fill="#63b8ff" stroke="#63b8ff" points="380.95,-183.73 370.37,-184.08 378.86,-190.41 380.95,-183.73"/>
</a>
</g>
</g>
<!-- Node39&#45;&gt;Node3 -->
<g id="edge37_Node000039_Node000003" class="edge">
<title>Node39&#45;&gt;Node3</title>
<g id="a_edge37_Node000039_Node000003"><a xlink:title=" ">
<path fill="none" stroke="#63b8ff" d="M530.55,-495.96C576.19,-486.55 654.31,-470.44 704.26,-460.14"/>
<polygon fill="#63b8ff" stroke="#63b8ff" points="705.07,-463.54 714.16,-458.1 703.66,-456.69 705.07,-463.54"/>
</a>
</g>
</g>
<!-- Node39&#45;&gt;Node7 -->
<g id="edge38_Node000039_Node000007" class="edge">
<title>Node39&#45;&gt;Node7</title>
<g id="a_edge38_Node000039_Node000007"><a xlink:title=" ">
<path fill="none" stroke="#63b8ff" d="M515.29,-494.89C570.85,-470.84 716,-397.32 716,-285.5 716,-285.5 716,-285.5 716,-173.5 716,-142.19 716,-105.77 716,-84.23"/>
<polygon fill="#63b8ff" stroke="#63b8ff" points="719.5,-84.18 716,-74.18 712.5,-84.18 719.5,-84.18"/>
</a>
</g>
</g>
<!-- Node39&#45;&gt;Node11 -->
<g id="edge36_Node000039_Node000011" class="edge">
<title>Node39&#45;&gt;Node11</title>
<g id="a_edge36_Node000039_Node000011"><a xlink:title=" ">
<path fill="none" stroke="#63b8ff" d="M499.48,-494.66C510.58,-476.77 535.87,-436 550.33,-412.69"/>
<polygon fill="#63b8ff" stroke="#63b8ff" points="553.33,-414.5 555.63,-404.16 547.38,-410.81 553.33,-414.5"/>
</a>
</g>
</g>
<!-- Node39&#45;&gt;Node34 -->
<g id="edge43_Node000039_Node000034" class="edge">
<title>Node39&#45;&gt;Node34</title>
<g id="a_edge43_Node000039_Node000034"><a xlink:title=" ">
<path fill="none" stroke="#63b8ff" d="M484.98,-494.67C459.1,-468.24 388.66,-387.95 425,-330 436,-312.46 456.08,-301.67 474.68,-295.11"/>
<polygon fill="#63b8ff" stroke="#63b8ff" points="475.76,-298.44 484.22,-292.06 473.62,-291.78 475.76,-298.44"/>
</a>
</g>
</g>
<!-- Node40 -->
<g id="Node000040" class="node">
<title>Node40</title>
<g id="a_Node000040"><a xlink:href="mp__arith_8h.html" target="_top" xlink:title=" ">
<polygon fill="white" stroke="#666666" points="260.5,-74 191.5,-74 191.5,-55 260.5,-55 260.5,-74"/>
<text text-anchor="middle" x="226" y="-62" font-family="Helvetica,sans-Serif" font-size="10.00">mp_arith.h</text>
</a>
</g>
</g>
<!-- Node39&#45;&gt;Node40 -->
<g id="edge39_Node000039_Node000040" class="edge">
<title>Node39&#45;&gt;Node40</title>
<g id="a_edge39_Node000039_Node000040"><a xlink:title=" ">
<path fill="none" stroke="#63b8ff" d="M457.19,-500.82C420.2,-496.64 362.81,-486 321,-459 264.29,-422.38 226,-408 226,-340.5 226,-340.5 226,-340.5 226,-173.5 226,-142.19 226,-105.77 226,-84.23"/>
<polygon fill="#63b8ff" stroke="#63b8ff" points="229.5,-84.18 226,-74.18 222.5,-84.18 229.5,-84.18"/>
</a>
</g>
</g>
<!-- Node25 -->
<g id="Node000025" class="node">
<title>Node25</title>
<g id="a_Node000025"><a xlink:title=" ">
<polygon fill="#e0e0e0" stroke="#999999" points="423.5,-459 330.5,-459 330.5,-440 423.5,-440 423.5,-459"/>
<text text-anchor="middle" x="377" y="-447" font-family="Helvetica,sans-Serif" font-size="10.00">unordered_map</text>
</a>
</g>
</g>
<!-- Node39&#45;&gt;Node25 -->
<g id="edge44_Node000039_Node000025" class="edge">
<title>Node39&#45;&gt;Node25</title>
<g id="a_edge44_Node000039_Node000025"><a xlink:title=" ">
<path fill="none" stroke="#63b8ff" d="M475.2,-494.98C456.38,-486.46 427.18,-473.23 405.5,-463.41"/>
<polygon fill="#63b8ff" stroke="#63b8ff" points="406.69,-460.11 396.14,-459.17 403.8,-466.48 406.69,-460.11"/>
</a>
</g>
</g>
<!-- Node40&#45;&gt;Node10 -->
<g id="edge41_Node000040_Node000010" class="edge">
<title>Node40&#45;&gt;Node10</title>
<g id="a_edge41_Node000040_Node000010"><a xlink:title=" ">
<path fill="none" stroke="#63b8ff" d="M245.28,-54.98C264.67,-46.42 294.81,-33.11 317.07,-23.28"/>
<polygon fill="#63b8ff" stroke="#63b8ff" points="318.64,-26.41 326.37,-19.17 315.81,-20.01 318.64,-26.41"/>
</a>
</g>
</g>
<!-- Node20 -->
<g id="Node000020" class="node">
<title>Node20</title>
<g id="a_Node000020"><a xlink:title=" ">
<polygon fill="#e0e0e0" stroke="#999999" points="171,-19 123,-19 123,0 171,0 171,-19"/>
<text text-anchor="middle" x="147" y="-7" font-family="Helvetica,sans-Serif" font-size="10.00">iosfwd</text>
</a>
</g>
</g>
<!-- Node40&#45;&gt;Node20 -->
<g id="edge40_Node000040_Node000020" class="edge">
<title>Node40&#45;&gt;Node20</title>
<g id="a_edge40_Node000040_Node000020"><a xlink:title=" ">
<path fill="none" stroke="#63b8ff" d="M213.31,-54.98C201.17,-46.84 182.64,-34.41 168.25,-24.76"/>
<polygon fill="#63b8ff" stroke="#63b8ff" points="170.18,-21.84 159.92,-19.17 166.28,-27.65 170.18,-21.84"/>
</a>
</g>
</g>
<!-- Node41 -->
<g id="Node000041" class="node">
<title>Node41</title>
<g id="a_Node000041"><a xlink:title=" ">
<polygon fill="#e0e0e0" stroke="#999999" points="283,-19 189,-19 189,0 283,0 283,-19"/>
<text text-anchor="middle" x="236" y="-7" font-family="Helvetica,sans-Serif" font-size="10.00">big&#45;int/bigint.hh</text>
</a>
</g>
</g>
<!-- Node40&#45;&gt;Node41 -->
<g id="edge42_Node000040_Node000041" class="edge">
<title>Node40&#45;&gt;Node41</title>
<g id="a_edge42_Node000040_Node000041"><a xlink:title=" ">
<path fill="none" stroke="#63b8ff" d="M227.65,-54.75C228.96,-47.8 230.84,-37.85 232.48,-29.13"/>
<polygon fill="#63b8ff" stroke="#63b8ff" points="235.96,-29.56 234.38,-19.09 229.09,-28.27 235.96,-29.56"/>
</a>
</g>
</g>
<!-- Node42&#45;&gt;Node16 -->
<g id="edge50_Node000042_Node000016" class="edge">
<title>Node42&#45;&gt;Node16</title>
<g id="a_edge50_Node000042_Node000016"><a xlink:title=" ">
<path fill="none" stroke="#63b8ff" d="M114.75,-166.46C153.45,-156.65 223.43,-138.9 264.18,-128.57"/>
<polygon fill="#63b8ff" stroke="#63b8ff" points="265.05,-131.96 273.88,-126.11 263.33,-125.18 265.05,-131.96"/>
</a>
</g>
</g>
<!-- Node42&#45;&gt;Node33 -->
<g id="edge52_Node000042_Node000033" class="edge">
<title>Node42&#45;&gt;Node33</title>
<g id="a_edge52_Node000042_Node000033"><a xlink:title=" ">
<path fill="none" stroke="#63b8ff" d="M100.34,-164.98C113.09,-156.84 132.55,-144.41 147.67,-134.76"/>
<polygon fill="#63b8ff" stroke="#63b8ff" points="149.88,-137.5 156.42,-129.17 146.11,-131.6 149.88,-137.5"/>
</a>
</g>
</g>
<!-- Node43 -->
<g id="Node000043" class="node">
<title>Node43</title>
<g id="a_Node000043"><a xlink:href="ieee__float_8h.html" target="_top" xlink:title=" ">
<polygon fill="white" stroke="#666666" points="124,-129 50,-129 50,-110 124,-110 124,-129"/>
<text text-anchor="middle" x="87" y="-117" font-family="Helvetica,sans-Serif" font-size="10.00">ieee_float.h</text>
</a>
</g>
</g>
<!-- Node42&#45;&gt;Node43 -->
<g id="edge46_Node000042_Node000043" class="edge">
<title>Node42&#45;&gt;Node43</title>
<g id="a_edge46_Node000042_Node000043"><a xlink:title=" ">
<path fill="none" stroke="#63b8ff" d="M87,-164.75C87,-157.8 87,-147.85 87,-139.13"/>
<polygon fill="#63b8ff" stroke="#63b8ff" points="90.5,-139.09 87,-129.09 83.5,-139.09 90.5,-139.09"/>
</a>
</g>
</g>
<!-- Node24 -->
<g id="Node000024" class="node">
<title>Node24</title>
<g id="a_Node000024"><a xlink:title=" ">
<polygon fill="#e0e0e0" stroke="#999999" points="32,-129 0,-129 0,-110 32,-110 32,-129"/>
<text text-anchor="middle" x="16" y="-117" font-family="Helvetica,sans-Serif" font-size="10.00">list</text>
</a>
</g>
</g>
<!-- Node42&#45;&gt;Node24 -->
<g id="edge51_Node000042_Node000024" class="edge">
<title>Node42&#45;&gt;Node24</title>
<g id="a_edge51_Node000042_Node000024"><a xlink:title=" ">
<path fill="none" stroke="#63b8ff" d="M75.59,-164.98C64.89,-157 48.66,-144.88 35.84,-135.31"/>
<polygon fill="#63b8ff" stroke="#63b8ff" points="37.72,-132.35 27.61,-129.17 33.53,-137.96 37.72,-132.35"/>
</a>
</g>
</g>
<!-- Node43&#45;&gt;Node40 -->
<g id="edge48_Node000043_Node000040" class="edge">
<title>Node43&#45;&gt;Node40</title>
<g id="a_edge48_Node000043_Node000040"><a xlink:title=" ">
<path fill="none" stroke="#63b8ff" d="M109.33,-109.98C132.2,-101.27 167.96,-87.63 193.86,-77.75"/>
<polygon fill="#63b8ff" stroke="#63b8ff" points="195.16,-81 203.26,-74.17 192.67,-74.46 195.16,-81"/>
</a>
</g>
</g>
<!-- Node43&#45;&gt;Node20 -->
<g id="edge47_Node000043_Node000020" class="edge">
<title>Node43&#45;&gt;Node20</title>
<g id="a_edge47_Node000043_Node000020"><a xlink:title=" ">
<path fill="none" stroke="#63b8ff" d="M97.17,-109.95C106.44,-101.65 119.89,-88.24 128,-74 135.93,-60.08 140.85,-42.52 143.69,-29.4"/>
<polygon fill="#63b8ff" stroke="#63b8ff" points="147.2,-29.69 145.68,-19.21 140.33,-28.35 147.2,-29.69"/>
</a>
</g>
</g>
<!-- Node44 -->
<g id="Node000044" class="node">
<title>Node44</title>
<g id="a_Node000044"><a xlink:href="format__spec_8h.html" target="_top" xlink:title=" ">
<polygon fill="white" stroke="#666666" points="119,-74 33,-74 33,-55 119,-55 119,-74"/>
<text text-anchor="middle" x="76" y="-62" font-family="Helvetica,sans-Serif" font-size="10.00">format_spec.h</text>
</a>
</g>
</g>
<!-- Node43&#45;&gt;Node44 -->
<g id="edge49_Node000043_Node000044" class="edge">
<title>Node43&#45;&gt;Node44</title>
<g id="a_edge49_Node000043_Node000044"><a xlink:title=" ">
<path fill="none" stroke="#63b8ff" d="M85.18,-109.75C83.74,-102.8 81.68,-92.85 79.87,-84.13"/>
<polygon fill="#63b8ff" stroke="#63b8ff" points="83.24,-83.17 77.78,-74.09 76.39,-84.59 83.24,-83.17"/>
</a>
</g>
</g>
<!-- Node45&#45;&gt;Node7 -->
<g id="edge54_Node000045_Node000007" class="edge">
<title>Node45&#45;&gt;Node7</title>
<g id="a_edge54_Node000045_Node000007"><a xlink:title=" ">
<path fill="none" stroke="#63b8ff" d="M473.12,-164.98C502.19,-152.71 557.62,-129.39 605,-110 631.95,-98.97 662.68,-86.67 684.97,-77.8"/>
<polygon fill="#63b8ff" stroke="#63b8ff" points="686.27,-81.05 694.27,-74.11 683.68,-74.55 686.27,-81.05"/>
</a>
</g>
</g>
<!-- Node45&#45;&gt;Node16 -->
<g id="edge55_Node000045_Node000016" class="edge">
<title>Node45&#45;&gt;Node16</title>
<g id="a_edge55_Node000045_Node000016"><a xlink:title=" ">
<path fill="none" stroke="#63b8ff" d="M427.78,-164.98C400.64,-155.82 357.41,-141.23 327.93,-131.28"/>
<polygon fill="#63b8ff" stroke="#63b8ff" points="328.71,-127.85 318.12,-127.97 326.47,-134.48 328.71,-127.85"/>
</a>
</g>
</g>
<!-- Node46&#45;&gt;Node2 -->
<g id="edge59_Node000046_Node000002" class="edge">
<title>Node46&#45;&gt;Node2</title>
<g id="a_edge59_Node000046_Node000002"><a xlink:title=" ">
<path fill="none" stroke="#63b8ff" d="M450.39,-604.98C466.57,-596.57 491.57,-583.59 510.38,-573.81"/>
<polygon fill="#63b8ff" stroke="#63b8ff" points="512.05,-576.89 519.31,-569.17 508.83,-570.68 512.05,-576.89"/>
</a>
</g>
</g>
<!-- Node47 -->
<g id="Node000047" class="node">
<title>Node47</title>
<g id="a_Node000047"><a xlink:href="bitvector__types_8h.html" target="_top" xlink:title="Pre&#45;defined bitvector types.">
<polygon fill="white" stroke="#666666" points="484.5,-569 383.5,-569 383.5,-550 484.5,-550 484.5,-569"/>
<text text-anchor="middle" x="434" y="-557" font-family="Helvetica,sans-Serif" font-size="10.00">bitvector_types.h</text>
</a>
</g>
</g>
<!-- Node46&#45;&gt;Node47 -->
<g id="edge57_Node000046_Node000047" class="edge">
<title>Node46&#45;&gt;Node47</title>
<g id="a_edge57_Node000046_Node000047"><a xlink:title=" ">
<path fill="none" stroke="#63b8ff" d="M434,-604.75C434,-597.8 434,-587.85 434,-579.13"/>
<polygon fill="#63b8ff" stroke="#63b8ff" points="437.5,-579.09 434,-569.09 430.5,-579.09 437.5,-579.09"/>
</a>
</g>
</g>
<!-- Node47&#45;&gt;Node39 -->
<g id="edge58_Node000047_Node000039" class="edge">
<title>Node47&#45;&gt;Node39</title>
<g id="a_edge58_Node000047_Node000039"><a xlink:title=" ">
<path fill="none" stroke="#63b8ff" d="M443.64,-549.98C452.51,-542.15 465.87,-530.34 476.61,-520.86"/>
<polygon fill="#63b8ff" stroke="#63b8ff" points="479.01,-523.41 484.18,-514.17 474.37,-518.17 479.01,-523.41"/>
</a>
</g>
</g>
<!-- Node48&#45;&gt;Node5 -->
<g id="edge64_Node000048_Node000005" class="edge">
<title>Node48&#45;&gt;Node5</title>
<g id="a_edge64_Node000048_Node000005"><a xlink:title=" ">
<path fill="none" stroke="#63b8ff" d="M994.17,-384.89C1011.37,-377.79 1033.42,-366.09 1047,-349 1065.33,-325.94 1066,-314.96 1066,-285.5 1066,-285.5 1066,-285.5 1066,-118.5 1066,-54.56 982.11,-27.69 927.93,-17.01"/>
<polygon fill="#63b8ff" stroke="#63b8ff" points="928.32,-13.52 917.85,-15.14 927.05,-20.41 928.32,-13.52"/>
</a>
</g>
</g>
<!-- Node48&#45;&gt;Node6 -->
<g id="edge62_Node000048_Node000006" class="edge">
<title>Node48&#45;&gt;Node6</title>
<g id="a_edge62_Node000048_Node000006"><a xlink:title=" ">
<path fill="none" stroke="#63b8ff" d="M942.3,-386.13C910.09,-377.24 855.59,-362.19 818.03,-351.83"/>
<polygon fill="#63b8ff" stroke="#63b8ff" points="818.49,-348.32 807.91,-349.03 816.62,-355.07 818.49,-348.32"/>
</a>
</g>
</g>
<!-- Node48&#45;&gt;Node7 -->
<g id="edge61_Node000048_Node000007" class="edge">
<title>Node48&#45;&gt;Node7</title>
<g id="a_edge61_Node000048_Node000007"><a xlink:title=" ">
<path fill="none" stroke="#63b8ff" d="M966.71,-384.89C962.07,-366.69 952,-322.89 952,-285.5 952,-285.5 952,-285.5 952,-173.5 952,-90.25 829.07,-70.91 760.65,-66.59"/>
<polygon fill="#63b8ff" stroke="#63b8ff" points="760.75,-63.09 750.57,-66.04 760.36,-70.08 760.75,-63.09"/>
</a>
</g>
</g>
<!-- Node49 -->
<g id="Node000049" class="node">
<title>Node49</title>
<g id="a_Node000049"><a xlink:title=" ">
<polygon fill="#e0e0e0" stroke="#999999" points="1038,-349 980,-349 980,-330 1038,-330 1038,-349"/>
<text text-anchor="middle" x="1009" y="-337" font-family="Helvetica,sans-Serif" font-size="10.00">memory</text>
</a>
</g>
</g>
<!-- Node48&#45;&gt;Node49 -->
<g id="edge63_Node000048_Node000049" class="edge">
<title>Node48&#45;&gt;Node49</title>
<g id="a_edge63_Node000048_Node000049"><a xlink:title=" ">
<path fill="none" stroke="#63b8ff" d="M975.61,-384.75C981.26,-377.26 989.54,-366.28 996.45,-357.13"/>
<polygon fill="#63b8ff" stroke="#63b8ff" points="999.29,-359.18 1002.52,-349.09 993.7,-354.96 999.29,-359.18"/>
</a>
</g>
</g>
<!-- Node50&#45;&gt;Node16 -->
<g id="edge66_Node000050_Node000016" class="edge">
<title>Node50&#45;&gt;Node16</title>
<g id="a_edge66_Node000050_Node000016"><a xlink:title=" ">
<path fill="none" stroke="#63b8ff" d="M182.81,-604.83C184.45,-586.51 188,-542.49 188,-505.5 188,-505.5 188,-505.5 188,-283.5 188,-219.89 245.86,-162.07 276.88,-135.64"/>
<polygon fill="#63b8ff" stroke="#63b8ff" points="279.38,-138.12 284.85,-129.04 274.92,-132.73 279.38,-138.12"/>
</a>
</g>
</g>
<!-- Node50&#45;&gt;Node33 -->
<g id="edge68_Node000050_Node000033" class="edge">
<title>Node50&#45;&gt;Node33</title>
<g id="a_edge68_Node000050_Node000033"><a xlink:title=" ">
<path fill="none" stroke="#63b8ff" d="M177.55,-604.8C168.76,-586.77 150,-543.83 150,-505.5 150,-505.5 150,-505.5 150,-228.5 150,-196.51 158.59,-160.07 164.51,-138.75"/>
<polygon fill="#63b8ff" stroke="#63b8ff" points="167.89,-139.66 167.3,-129.08 161.16,-137.71 167.89,-139.66"/>
</a>
</g>
</g>
<!-- Node50&#45;&gt;Node51 -->
<g id="edge67_Node000050_Node000051" class="edge">
<title>Node50&#45;&gt;Node51</title>
<g id="a_edge67_Node000050_Node000051"><a xlink:title=" ">
<path fill="none" stroke="#63b8ff" d="M169.31,-604.98C157.17,-596.84 138.64,-584.41 124.25,-574.76"/>
<polygon fill="#63b8ff" stroke="#63b8ff" points="126.18,-571.84 115.92,-569.17 122.28,-577.65 126.18,-571.84"/>
</a>
</g>
</g>
</g>
</svg>
