<?xml version="1.0" encoding="UTF-8" standalone="no"?>
<!DOCTYPE svg PUBLIC "-//W3C//DTD SVG 1.1//EN"
 "http://www.w3.org/Graphics/SVG/1.1/DTD/svg11.dtd">
<!-- Generated by graphviz version 2.43.0 (0)
 -->
<!-- Title: /home/runner/work/cbmc/cbmc/src/solvers/strings/string_concatenation_builtin_function.h Pages: 1 -->
<svg width="1019pt" height="577pt"
 viewBox="0.00 0.00 1018.50 577.00" xmlns="http://www.w3.org/2000/svg" xmlns:xlink="http://www.w3.org/1999/xlink">
<g id="graph0" class="graph" transform="scale(1 1) rotate(0) translate(4 573)">
<title>/home/runner/work/cbmc/cbmc/src/solvers/strings/string_concatenation_builtin_function.h</title>
<!-- Node1 -->
<g id="Node000001" class="node">
<title>Node1</title>
<g id="a_Node000001"><a xlink:title="Builtin functions for string concatenations.">
<polygon fill="#999999" stroke="#666666" points="362.5,-569 204.5,-569 204.5,-517 362.5,-517 362.5,-569"/>
<text text-anchor="start" x="212.5" y="-557" font-family="Helvetica,sans-Serif" font-size="10.00">/home/runner/work/cbmc</text>
<text text-anchor="start" x="212.5" y="-546" font-family="Helvetica,sans-Serif" font-size="10.00">/cbmc/src/solvers/strings</text>
<text text-anchor="start" x="212.5" y="-535" font-family="Helvetica,sans-Serif" font-size="10.00">/string_concatenation_builtin</text>
<text text-anchor="middle" x="283.5" y="-524" font-family="Helvetica,sans-Serif" font-size="10.00">_function.h</text>
</a>
</g>
</g>
<!-- Node2 -->
<g id="Node000002" class="node">
<title>Node2</title>
<g id="a_Node000002"><a xlink:href="string__insertion__builtin__function_8h.html" target="_top" xlink:title=" ">
<polygon fill="white" stroke="#666666" points="347.5,-481 219.5,-481 219.5,-451 347.5,-451 347.5,-481"/>
<text text-anchor="start" x="227.5" y="-469" font-family="Helvetica,sans-Serif" font-size="10.00">string_insertion_builtin</text>
<text text-anchor="middle" x="283.5" y="-458" font-family="Helvetica,sans-Serif" font-size="10.00">_function.h</text>
</a>
</g>
</g>
<!-- Node1&#45;&gt;Node2 -->
<g id="edge1_Node000001_Node000002" class="edge">
<title>Node1&#45;&gt;Node2</title>
<g id="a_edge1_Node000001_Node000002"><a xlink:title=" ">
<path fill="none" stroke="#63b8ff" d="M283.5,-516.61C283.5,-508.54 283.5,-499.64 283.5,-491.63"/>
<polygon fill="#63b8ff" stroke="#63b8ff" points="287,-491.43 283.5,-481.43 280,-491.43 287,-491.43"/>
</a>
</g>
</g>
<!-- Node3 -->
<g id="Node000003" class="node">
<title>Node3</title>
<g id="a_Node000003"><a xlink:href="string__builtin__function_8h.html" target="_top" xlink:title=" ">
<polygon fill="white" stroke="#666666" points="350.5,-415 216.5,-415 216.5,-396 350.5,-396 350.5,-415"/>
<text text-anchor="middle" x="283.5" y="-403" font-family="Helvetica,sans-Serif" font-size="10.00">string_builtin_function.h</text>
</a>
</g>
</g>
<!-- Node2&#45;&gt;Node3 -->
<g id="edge2_Node000002_Node000003" class="edge">
<title>Node2&#45;&gt;Node3</title>
<g id="a_edge2_Node000002_Node000003"><a xlink:title=" ">
<path fill="none" stroke="#63b8ff" d="M283.5,-450.84C283.5,-443.21 283.5,-433.7 283.5,-425.45"/>
<polygon fill="#63b8ff" stroke="#63b8ff" points="287,-425.27 283.5,-415.27 280,-425.27 287,-425.27"/>
</a>
</g>
</g>
<!-- Node4 -->
<g id="Node000004" class="node">
<title>Node4</title>
<g id="a_Node000004"><a xlink:href="string__constraint__generator_8h.html" target="_top" xlink:title="Generates string constraints to link results from string functions with their arguments.">
<polygon fill="white" stroke="#666666" points="485,-360 326,-360 326,-341 485,-341 485,-360"/>
<text text-anchor="middle" x="405.5" y="-348" font-family="Helvetica,sans-Serif" font-size="10.00">string_constraint_generator.h</text>
</a>
</g>
</g>
<!-- Node3&#45;&gt;Node4 -->
<g id="edge3_Node000003_Node000004" class="edge">
<title>Node3&#45;&gt;Node4</title>
<g id="a_edge3_Node000003_Node000004"><a xlink:title=" ">
<path fill="none" stroke="#63b8ff" d="M303.1,-395.98C322.82,-387.42 353.45,-374.11 376.08,-364.28"/>
<polygon fill="#63b8ff" stroke="#63b8ff" points="377.76,-367.37 385.54,-360.17 374.98,-360.94 377.76,-367.37"/>
</a>
</g>
</g>
<!-- Node13 -->
<g id="Node000013" class="node">
<title>Node13</title>
<g id="a_Node000013"><a xlink:title=" ">
<polygon fill="#e0e0e0" stroke="#999999" points="953,-129 906,-129 906,-110 953,-110 953,-129"/>
<text text-anchor="middle" x="929.5" y="-117" font-family="Helvetica,sans-Serif" font-size="10.00">vector</text>
</a>
</g>
</g>
<!-- Node3&#45;&gt;Node13 -->
<g id="edge45_Node000003_Node000013" class="edge">
<title>Node3&#45;&gt;Node13</title>
<g id="a_edge45_Node000003_Node000013"><a xlink:title=" ">
<path fill="none" stroke="#63b8ff" d="M350.59,-401.03C530.57,-390.84 1010.5,-357.43 1010.5,-291 1010.5,-291 1010.5,-291 1010.5,-228.5 1010.5,-188.63 974.73,-154.06 950.74,-135.35"/>
<polygon fill="#63b8ff" stroke="#63b8ff" points="952.62,-132.39 942.51,-129.19 948.42,-137.99 952.62,-132.39"/>
</a>
</g>
</g>
<!-- Node33 -->
<g id="Node000033" class="node">
<title>Node33</title>
<g id="a_Node000033"><a xlink:href="string__expr_8h.html" target="_top" xlink:title="String expressions for the string solver.">
<polygon fill="white" stroke="#666666" points="420.5,-239 322.5,-239 322.5,-220 420.5,-220 420.5,-239"/>
<text text-anchor="middle" x="371.5" y="-227" font-family="Helvetica,sans-Serif" font-size="10.00">util/string_expr.h</text>
</a>
</g>
</g>
<!-- Node3&#45;&gt;Node33 -->
<g id="edge44_Node000003_Node000033" class="edge">
<title>Node3&#45;&gt;Node33</title>
<g id="a_edge44_Node000003_Node000033"><a xlink:title=" ">
<path fill="none" stroke="#63b8ff" d="M283.75,-395.89C284.76,-373.96 289.85,-314.95 315.5,-275 323.44,-262.63 336.01,-252.19 347.23,-244.53"/>
<polygon fill="#63b8ff" stroke="#63b8ff" points="349.3,-247.36 355.82,-239.01 345.52,-241.47 349.3,-247.36"/>
</a>
</g>
</g>
<!-- Node60 -->
<g id="Node000060" class="node">
<title>Node60</title>
<g id="a_Node000060"><a xlink:href="mathematical__expr_8h.html" target="_top" xlink:title="API to expression classes for &#39;mathematical&#39; expressions.">
<polygon fill="white" stroke="#666666" points="139,-184 0,-184 0,-165 139,-165 139,-184"/>
<text text-anchor="middle" x="69.5" y="-172" font-family="Helvetica,sans-Serif" font-size="10.00">util/mathematical_expr.h</text>
</a>
</g>
</g>
<!-- Node3&#45;&gt;Node60 -->
<g id="edge38_Node000003_Node000060" class="edge">
<title>Node3&#45;&gt;Node60</title>
<g id="a_edge38_Node000003_Node000060"><a xlink:title=" ">
<path fill="none" stroke="#63b8ff" d="M275.37,-395.8C243.46,-361.65 126.45,-236.44 84.55,-191.6"/>
<polygon fill="#63b8ff" stroke="#63b8ff" points="87.02,-189.12 77.64,-184.21 81.91,-193.9 87.02,-189.12"/>
</a>
</g>
</g>
<!-- Node5 -->
<g id="Node000005" class="node">
<title>Node5</title>
<g id="a_Node000005"><a xlink:title=" ">
<polygon fill="#e0e0e0" stroke="#999999" points="385.5,-129 341.5,-129 341.5,-110 385.5,-110 385.5,-129"/>
<text text-anchor="middle" x="363.5" y="-117" font-family="Helvetica,sans-Serif" font-size="10.00">limits</text>
</a>
</g>
</g>
<!-- Node4&#45;&gt;Node5 -->
<g id="edge4_Node000004_Node000005" class="edge">
<title>Node4&#45;&gt;Node5</title>
<g id="a_edge4_Node000004_Node000005"><a xlink:title=" ">
<path fill="none" stroke="#63b8ff" d="M370.01,-340.93C345.8,-333.92 313.84,-322.32 289.5,-305 232.19,-264.23 211.63,-250.07 187.5,-184 184.6,-176.07 182.3,-171.65 187.5,-165 226.49,-115.15 264.52,-142.87 331.13,-129.05"/>
<polygon fill="#63b8ff" stroke="#63b8ff" points="332.23,-132.38 341.17,-126.69 330.63,-125.57 332.23,-132.38"/>
</a>
</g>
</g>
<!-- Node6 -->
<g id="Node000006" class="node">
<title>Node6</title>
<g id="a_Node000006"><a xlink:href="string__constraint_8h.html" target="_top" xlink:title="Defines string constraints.">
<polygon fill="white" stroke="#666666" points="798,-305 679,-305 679,-275 798,-275 798,-305"/>
<text text-anchor="start" x="687" y="-293" font-family="Helvetica,sans-Serif" font-size="10.00">solvers/strings/string</text>
<text text-anchor="middle" x="738.5" y="-282" font-family="Helvetica,sans-Serif" font-size="10.00">_constraint.h</text>
</a>
</g>
</g>
<!-- Node4&#45;&gt;Node6 -->
<g id="edge5_Node000004_Node000006" class="edge">
<title>Node4&#45;&gt;Node6</title>
<g id="a_edge5_Node000004_Node000006"><a xlink:title=" ">
<path fill="none" stroke="#63b8ff" d="M459.19,-340.99C510.41,-332.74 589.98,-319.62 668.6,-305.13"/>
<polygon fill="#63b8ff" stroke="#63b8ff" points="669.49,-308.53 678.68,-303.26 668.21,-301.64 669.49,-308.53"/>
</a>
</g>
</g>
<!-- Node4&#45;&gt;Node33 -->
<g id="edge34_Node000004_Node000033" class="edge">
<title>Node4&#45;&gt;Node33</title>
<g id="a_edge34_Node000004_Node000033"><a xlink:title=" ">
<path fill="none" stroke="#63b8ff" d="M374.08,-340.97C356.16,-334.32 335.2,-323.09 324.5,-305 317.71,-293.52 319.23,-287.25 324.5,-275 329.65,-263.03 339.79,-252.76 349.33,-245.12"/>
<polygon fill="#63b8ff" stroke="#63b8ff" points="351.49,-247.88 357.43,-239.11 347.31,-242.26 351.49,-247.88"/>
</a>
</g>
</g>
<!-- Node53 -->
<g id="Node000053" class="node">
<title>Node53</title>
<g id="a_Node000053"><a xlink:href="refined__string__type_8h.html" target="_top" xlink:title="Type for string expressions used by the string solver.">
<polygon fill="#fff0f0" stroke="red" points="315,-184 196,-184 196,-165 315,-165 315,-184"/>
<text text-anchor="middle" x="255.5" y="-172" font-family="Helvetica,sans-Serif" font-size="10.00">refined_string_type.h</text>
</a>
</g>
</g>
<!-- Node4&#45;&gt;Node53 -->
<g id="edge32_Node000004_Node000053" class="edge">
<title>Node4&#45;&gt;Node53</title>
<g id="a_edge32_Node000004_Node000053"><a xlink:title=" ">
<path fill="none" stroke="#63b8ff" d="M376.89,-340.98C357.49,-333.98 332.41,-322.35 315.5,-305 284.18,-272.88 267.15,-221.42 259.86,-194.04"/>
<polygon fill="#63b8ff" stroke="#63b8ff" points="263.22,-193.05 257.39,-184.21 256.44,-194.76 263.22,-193.05"/>
</a>
</g>
</g>
<!-- Node56 -->
<g id="Node000056" class="node">
<title>Node56</title>
<g id="a_Node000056"><a xlink:href="replace__expr_8h.html" target="_top" xlink:title=" ">
<polygon fill="#fff0f0" stroke="red" points="951.5,-184 863.5,-184 863.5,-165 951.5,-165 951.5,-184"/>
<text text-anchor="middle" x="907.5" y="-172" font-family="Helvetica,sans-Serif" font-size="10.00">replace_expr.h</text>
</a>
</g>
</g>
<!-- Node4&#45;&gt;Node56 -->
<g id="edge33_Node000004_Node000056" class="edge">
<title>Node4&#45;&gt;Node56</title>
<g id="a_edge33_Node000004_Node000056"><a xlink:title=" ">
<path fill="none" stroke="#63b8ff" d="M485.06,-348.02C567.17,-344.8 698.3,-334.92 807.5,-305 876.18,-286.18 914.89,-298.83 953.5,-239 964.63,-221.76 946.7,-202.81 930.08,-190.14"/>
<polygon fill="#63b8ff" stroke="#63b8ff" points="931.84,-187.09 921.67,-184.13 927.77,-192.79 931.84,-187.09"/>
</a>
</g>
</g>
<!-- Node57 -->
<g id="Node000057" class="node">
<title>Node57</title>
<g id="a_Node000057"><a xlink:title=" ">
<polygon fill="#e0e0e0" stroke="#999999" points="568,-299.5 467,-299.5 467,-280.5 568,-280.5 568,-299.5"/>
<text text-anchor="middle" x="517.5" y="-287.5" font-family="Helvetica,sans-Serif" font-size="10.00">util/constexpr.def</text>
</a>
</g>
</g>
<!-- Node4&#45;&gt;Node57 -->
<g id="edge27_Node000004_Node000057" class="edge">
<title>Node4&#45;&gt;Node57</title>
<g id="a_edge27_Node000004_Node000057"><a xlink:title=" ">
<path fill="none" stroke="#63b8ff" d="M422.03,-340.87C440.47,-331.23 470.54,-315.53 492.01,-304.31"/>
<polygon fill="#63b8ff" stroke="#63b8ff" points="493.66,-307.4 500.91,-299.67 490.42,-301.19 493.66,-307.4"/>
</a>
</g>
</g>
<!-- Node43 -->
<g id="Node000043" class="node">
<title>Node43</title>
<g id="a_Node000043"><a xlink:href="deprecate_8h.html" target="_top" xlink:title=" ">
<polygon fill="white" stroke="#666666" points="660.5,-299.5 586.5,-299.5 586.5,-280.5 660.5,-280.5 660.5,-299.5"/>
<text text-anchor="middle" x="623.5" y="-287.5" font-family="Helvetica,sans-Serif" font-size="10.00">deprecate.h</text>
</a>
</g>
</g>
<!-- Node4&#45;&gt;Node43 -->
<g id="edge28_Node000004_Node000043" class="edge">
<title>Node4&#45;&gt;Node43</title>
<g id="a_edge28_Node000004_Node000043"><a xlink:title=" ">
<path fill="none" stroke="#63b8ff" d="M440.21,-340.98C475.03,-332.32 530.14,-318.33 577.5,-305 580.29,-304.22 583.16,-303.39 586.05,-302.54"/>
<polygon fill="#63b8ff" stroke="#63b8ff" points="587.24,-305.84 595.83,-299.63 585.24,-299.13 587.24,-305.84"/>
</a>
</g>
</g>
<!-- Node58 -->
<g id="Node000058" class="node">
<title>Node58</title>
<g id="a_Node000058"><a xlink:href="namespace_8h.html" target="_top" xlink:title=" ">
<polygon fill="white" stroke="#666666" points="668,-239 567,-239 567,-220 668,-220 668,-239"/>
<text text-anchor="middle" x="617.5" y="-227" font-family="Helvetica,sans-Serif" font-size="10.00">util/namespace.h</text>
</a>
</g>
</g>
<!-- Node4&#45;&gt;Node58 -->
<g id="edge29_Node000004_Node000058" class="edge">
<title>Node4&#45;&gt;Node58</title>
<g id="a_edge29_Node000004_Node000058"><a xlink:title=" ">
<path fill="none" stroke="#63b8ff" d="M409.22,-340.9C416.4,-325.32 433.7,-292.43 458.5,-275 475.76,-262.87 525.73,-249.98 565.1,-241.21"/>
<polygon fill="#63b8ff" stroke="#63b8ff" points="566.09,-244.58 575.11,-239.02 564.59,-237.74 566.09,-244.58"/>
</a>
</g>
</g>
<!-- Node59 -->
<g id="Node000059" class="node">
<title>Node59</title>
<g id="a_Node000059"><a xlink:href="array__pool_8h.html" target="_top" xlink:title="Associates arrays and length to pointers, so that the string refinement can transform builtin functio...">
<polygon fill="white" stroke="#666666" points="410,-299.5 333,-299.5 333,-280.5 410,-280.5 410,-299.5"/>
<text text-anchor="middle" x="371.5" y="-287.5" font-family="Helvetica,sans-Serif" font-size="10.00">array_pool.h</text>
</a>
</g>
</g>
<!-- Node4&#45;&gt;Node59 -->
<g id="edge35_Node000004_Node000059" class="edge">
<title>Node4&#45;&gt;Node59</title>
<g id="a_edge35_Node000004_Node000059"><a xlink:title=" ">
<path fill="none" stroke="#63b8ff" d="M400.48,-340.87C395.56,-332.4 387.91,-319.24 381.71,-308.57"/>
<polygon fill="#63b8ff" stroke="#63b8ff" points="384.59,-306.55 376.54,-299.67 378.54,-310.07 384.59,-306.55"/>
</a>
</g>
</g>
<!-- Node7 -->
<g id="Node000007" class="node">
<title>Node7</title>
<g id="a_Node000007"><a xlink:href="format__expr_8h.html" target="_top" xlink:title=" ">
<polygon fill="white" stroke="#666666" points="790.5,-239 686.5,-239 686.5,-220 790.5,-220 790.5,-239"/>
<text text-anchor="middle" x="738.5" y="-227" font-family="Helvetica,sans-Serif" font-size="10.00">util/format_expr.h</text>
</a>
</g>
</g>
<!-- Node6&#45;&gt;Node7 -->
<g id="edge6_Node000006_Node000007" class="edge">
<title>Node6&#45;&gt;Node7</title>
<g id="a_edge6_Node000006_Node000007"><a xlink:title=" ">
<path fill="none" stroke="#63b8ff" d="M738.5,-274.84C738.5,-267.21 738.5,-257.7 738.5,-249.45"/>
<polygon fill="#63b8ff" stroke="#63b8ff" points="742,-249.27 738.5,-239.27 735,-249.27 742,-249.27"/>
</a>
</g>
</g>
<!-- Node6&#45;&gt;Node33 -->
<g id="edge12_Node000006_Node000033" class="edge">
<title>Node6&#45;&gt;Node33</title>
<g id="a_edge12_Node000006_Node000033"><a xlink:title=" ">
<path fill="none" stroke="#63b8ff" d="M678.7,-276.67C675.59,-276.09 672.51,-275.53 669.5,-275 586.95,-260.47 491,-246.7 430.75,-238.42"/>
<polygon fill="#63b8ff" stroke="#63b8ff" points="431.05,-234.93 420.67,-237.04 430.1,-241.87 431.05,-234.93"/>
</a>
</g>
</g>
<!-- Node55 -->
<g id="Node000055" class="node">
<title>Node55</title>
<g id="a_Node000055"><a xlink:href="union__find__replace_8h.html" target="_top" xlink:title=" ">
<polygon fill="white" stroke="#666666" points="944.5,-239 808.5,-239 808.5,-220 944.5,-220 944.5,-239"/>
<text text-anchor="middle" x="876.5" y="-227" font-family="Helvetica,sans-Serif" font-size="10.00">util/union_find_replace.h</text>
</a>
</g>
</g>
<!-- Node6&#45;&gt;Node55 -->
<g id="edge25_Node000006_Node000055" class="edge">
<title>Node6&#45;&gt;Node55</title>
<g id="a_edge25_Node000006_Node000055"><a xlink:title=" ">
<path fill="none" stroke="#63b8ff" d="M771.55,-274.99C794.48,-265.27 824.74,-252.44 846.88,-243.06"/>
<polygon fill="#63b8ff" stroke="#63b8ff" points="848.28,-246.26 856.12,-239.14 845.55,-239.82 848.28,-246.26"/>
</a>
</g>
</g>
<!-- Node8 -->
<g id="Node000008" class="node">
<title>Node8</title>
<g id="a_Node000008"><a xlink:href="format_8h.html" target="_top" xlink:title=" ">
<polygon fill="#fff0f0" stroke="red" points="768,-184 709,-184 709,-165 768,-165 768,-184"/>
<text text-anchor="middle" x="738.5" y="-172" font-family="Helvetica,sans-Serif" font-size="10.00">format.h</text>
</a>
</g>
</g>
<!-- Node7&#45;&gt;Node8 -->
<g id="edge7_Node000007_Node000008" class="edge">
<title>Node7&#45;&gt;Node8</title>
<g id="a_edge7_Node000007_Node000008"><a xlink:title=" ">
<path fill="none" stroke="#63b8ff" d="M738.5,-219.75C738.5,-212.8 738.5,-202.85 738.5,-194.13"/>
<polygon fill="#63b8ff" stroke="#63b8ff" points="742,-194.09 738.5,-184.09 735,-194.09 742,-194.09"/>
</a>
</g>
</g>
<!-- Node12 -->
<g id="Node000012" class="node">
<title>Node12</title>
<g id="a_Node000012"><a xlink:href="irep_8h.html" target="_top" xlink:title=" ">
<polygon fill="#fff0f0" stroke="red" points="690.5,-184 646.5,-184 646.5,-165 690.5,-165 690.5,-184"/>
<text text-anchor="middle" x="668.5" y="-172" font-family="Helvetica,sans-Serif" font-size="10.00">irep.h</text>
</a>
</g>
</g>
<!-- Node7&#45;&gt;Node12 -->
<g id="edge8_Node000007_Node000012" class="edge">
<title>Node7&#45;&gt;Node12</title>
<g id="a_edge8_Node000007_Node000012"><a xlink:title=" ">
<path fill="none" stroke="#63b8ff" d="M727.25,-219.98C716.7,-212 700.7,-199.88 688.06,-190.31"/>
<polygon fill="#63b8ff" stroke="#63b8ff" points="690.04,-187.42 679.95,-184.17 685.81,-193 690.04,-187.42"/>
</a>
</g>
</g>
<!-- Node32 -->
<g id="Node000032" class="node">
<title>Node32</title>
<g id="a_Node000032"><a xlink:title=" ">
<polygon fill="#e0e0e0" stroke="#999999" points="732,-19 667,-19 667,0 732,0 732,-19"/>
<text text-anchor="middle" x="699.5" y="-7" font-family="Helvetica,sans-Serif" font-size="10.00">functional</text>
</a>
</g>
</g>
<!-- Node7&#45;&gt;Node32 -->
<g id="edge11_Node000007_Node000032" class="edge">
<title>Node7&#45;&gt;Node32</title>
<g id="a_edge11_Node000007_Node000032"><a xlink:title=" ">
<path fill="none" stroke="#63b8ff" d="M749.49,-219.99C758.95,-211.9 771.93,-198.81 777.5,-184 780.47,-176.1 779.46,-173.21 777.5,-165 764.74,-111.4 730.24,-55.31 711.69,-27.8"/>
<polygon fill="#63b8ff" stroke="#63b8ff" points="714.4,-25.58 705.85,-19.32 708.63,-29.54 714.4,-25.58"/>
</a>
</g>
</g>
<!-- Node12&#45;&gt;Node13 -->
<g id="edge9_Node000012_Node000013" class="edge">
<title>Node12&#45;&gt;Node13</title>
<g id="a_edge9_Node000012_Node000013"><a xlink:title=" ">
<path fill="none" stroke="#63b8ff" d="M690.83,-167.36C694.07,-166.53 697.36,-165.72 700.5,-165 769.57,-149.14 851.2,-134.17 895.96,-126.28"/>
<polygon fill="#63b8ff" stroke="#63b8ff" points="896.74,-129.7 905.98,-124.53 895.53,-122.81 896.74,-129.7"/>
</a>
</g>
</g>
<!-- Node14 -->
<g id="Node000014" class="node">
<title>Node14</title>
<g id="a_Node000014"><a xlink:href="src_2util_2invariant_8h.html" target="_top" xlink:title=" ">
<polygon fill="#fff0f0" stroke="red" points="545,-19 476,-19 476,0 545,0 545,-19"/>
<text text-anchor="middle" x="510.5" y="-7" font-family="Helvetica,sans-Serif" font-size="10.00">invariant.h</text>
</a>
</g>
</g>
<!-- Node12&#45;&gt;Node14 -->
<g id="edge10_Node000012_Node000014" class="edge">
<title>Node12&#45;&gt;Node14</title>
<g id="a_edge10_Node000012_Node000014"><a xlink:title=" ">
<path fill="none" stroke="#63b8ff" d="M668.38,-164.76C667.61,-143.19 662.65,-86.85 632.5,-55 612.25,-33.61 580.89,-22.46 555.04,-16.67"/>
<polygon fill="#63b8ff" stroke="#63b8ff" points="555.57,-13.21 545.07,-14.64 554.17,-20.07 555.57,-13.21"/>
</a>
</g>
</g>
<!-- Node34 -->
<g id="Node000034" class="node">
<title>Node34</title>
<g id="a_Node000034"><a xlink:href="arith__tools_8h.html" target="_top" xlink:title=" ">
<polygon fill="#fff0f0" stroke="red" points="410,-184 333,-184 333,-165 410,-165 410,-184"/>
<text text-anchor="middle" x="371.5" y="-172" font-family="Helvetica,sans-Serif" font-size="10.00">arith_tools.h</text>
</a>
</g>
</g>
<!-- Node33&#45;&gt;Node34 -->
<g id="edge13_Node000033_Node000034" class="edge">
<title>Node33&#45;&gt;Node34</title>
<g id="a_edge13_Node000033_Node000034"><a xlink:title=" ">
<path fill="none" stroke="#63b8ff" d="M371.5,-219.75C371.5,-212.8 371.5,-202.85 371.5,-194.13"/>
<polygon fill="#63b8ff" stroke="#63b8ff" points="375,-194.09 371.5,-184.09 368,-194.09 375,-194.09"/>
</a>
</g>
</g>
<!-- Node37 -->
<g id="Node000037" class="node">
<title>Node37</title>
<g id="a_Node000037"><a xlink:href="std__expr_8h.html" target="_top" xlink:title="API to expression classes.">
<polygon fill="#fff0f0" stroke="red" points="512,-129 445,-129 445,-110 512,-110 512,-129"/>
<text text-anchor="middle" x="478.5" y="-117" font-family="Helvetica,sans-Serif" font-size="10.00">std_expr.h</text>
</a>
</g>
</g>
<!-- Node33&#45;&gt;Node37 -->
<g id="edge24_Node000033_Node000037" class="edge">
<title>Node33&#45;&gt;Node37</title>
<g id="a_edge24_Node000033_Node000037"><a xlink:title=" ">
<path fill="none" stroke="#63b8ff" d="M420.56,-220.64C460.07,-213.19 511.01,-200.67 523.5,-184 535.85,-167.52 517.54,-148.15 500.7,-135.18"/>
<polygon fill="#63b8ff" stroke="#63b8ff" points="502.35,-132.05 492.2,-129.03 498.25,-137.72 502.35,-132.05"/>
</a>
</g>
</g>
<!-- Node51 -->
<g id="Node000051" class="node">
<title>Node51</title>
<g id="a_Node000051"><a xlink:href="pointer__expr_8h.html" target="_top" xlink:title="API to expression classes for Pointers.">
<polygon fill="#fff0f0" stroke="red" points="514.5,-184 428.5,-184 428.5,-165 514.5,-165 514.5,-184"/>
<text text-anchor="middle" x="471.5" y="-172" font-family="Helvetica,sans-Serif" font-size="10.00">pointer_expr.h</text>
</a>
</g>
</g>
<!-- Node33&#45;&gt;Node51 -->
<g id="edge21_Node000033_Node000051" class="edge">
<title>Node33&#45;&gt;Node51</title>
<g id="a_edge21_Node000033_Node000051"><a xlink:title=" ">
<path fill="none" stroke="#63b8ff" d="M387.57,-219.98C403.36,-211.61 427.72,-198.7 446.13,-188.95"/>
<polygon fill="#63b8ff" stroke="#63b8ff" points="447.94,-191.95 455.14,-184.17 444.67,-185.76 447.94,-191.95"/>
</a>
</g>
</g>
<!-- Node33&#45;&gt;Node53 -->
<g id="edge23_Node000033_Node000053" class="edge">
<title>Node33&#45;&gt;Node53</title>
<g id="a_edge23_Node000033_Node000053"><a xlink:title=" ">
<path fill="none" stroke="#63b8ff" d="M352.86,-219.98C334.2,-211.46 305.25,-198.23 283.76,-188.41"/>
<polygon fill="#63b8ff" stroke="#63b8ff" points="285.03,-185.14 274.48,-184.17 282.12,-191.51 285.03,-185.14"/>
</a>
</g>
</g>
<!-- Node34&#45;&gt;Node5 -->
<g id="edge20_Node000034_Node000005" class="edge">
<title>Node34&#45;&gt;Node5</title>
<g id="a_edge20_Node000034_Node000005"><a xlink:title=" ">
<path fill="none" stroke="#63b8ff" d="M370.18,-164.75C369.13,-157.8 367.63,-147.85 366.31,-139.13"/>
<polygon fill="#63b8ff" stroke="#63b8ff" points="369.75,-138.45 364.8,-129.09 362.83,-139.5 369.75,-138.45"/>
</a>
</g>
</g>
<!-- Node34&#45;&gt;Node14 -->
<g id="edge14_Node000034_Node000014" class="edge">
<title>Node34&#45;&gt;Node14</title>
<g id="a_edge14_Node000034_Node000014"><a xlink:title=" ">
<path fill="none" stroke="#63b8ff" d="M376.07,-164.69C390.22,-137.41 432.43,-56.12 433.5,-55 446.42,-41.53 464.31,-30.85 479.6,-23.34"/>
<polygon fill="#63b8ff" stroke="#63b8ff" points="481.14,-26.48 488.71,-19.08 478.17,-20.14 481.14,-26.48"/>
</a>
</g>
</g>
<!-- Node34&#45;&gt;Node37 -->
<g id="edge15_Node000034_Node000037" class="edge">
<title>Node34&#45;&gt;Node37</title>
<g id="a_edge15_Node000034_Node000037"><a xlink:title=" ">
<path fill="none" stroke="#63b8ff" d="M388.69,-164.98C405.75,-156.54 432.13,-143.47 451.9,-133.68"/>
<polygon fill="#63b8ff" stroke="#63b8ff" points="453.59,-136.75 461,-129.17 450.48,-130.47 453.59,-136.75"/>
</a>
</g>
</g>
<!-- Node37&#45;&gt;Node14 -->
<g id="edge19_Node000037_Node000014" class="edge">
<title>Node37&#45;&gt;Node14</title>
<g id="a_edge19_Node000037_Node000014"><a xlink:title=" ">
<path fill="none" stroke="#63b8ff" d="M492.28,-109.82C503.32,-101.99 517.99,-89.35 524.5,-74 530.76,-59.24 525.76,-41.31 520.07,-28.27"/>
<polygon fill="#63b8ff" stroke="#63b8ff" points="523.09,-26.48 515.57,-19.02 516.8,-29.54 523.09,-26.48"/>
</a>
</g>
</g>
<!-- Node38 -->
<g id="Node000038" class="node">
<title>Node38</title>
<g id="a_Node000038"><a xlink:href="expr__cast_8h.html" target="_top" xlink:title="Templated functions to cast to specific exprt&#45;derived classes.">
<polygon fill="#fff0f0" stroke="red" points="515,-74 442,-74 442,-55 515,-55 515,-74"/>
<text text-anchor="middle" x="478.5" y="-62" font-family="Helvetica,sans-Serif" font-size="10.00">expr_cast.h</text>
</a>
</g>
</g>
<!-- Node37&#45;&gt;Node38 -->
<g id="edge16_Node000037_Node000038" class="edge">
<title>Node37&#45;&gt;Node38</title>
<g id="a_edge16_Node000037_Node000038"><a xlink:title=" ">
<path fill="none" stroke="#63b8ff" d="M478.5,-109.75C478.5,-102.8 478.5,-92.85 478.5,-84.13"/>
<polygon fill="#63b8ff" stroke="#63b8ff" points="482,-84.09 478.5,-74.09 475,-84.09 482,-84.09"/>
</a>
</g>
</g>
<!-- Node38&#45;&gt;Node14 -->
<g id="edge18_Node000038_Node000014" class="edge">
<title>Node38&#45;&gt;Node14</title>
<g id="a_edge18_Node000038_Node000014"><a xlink:title=" ">
<path fill="none" stroke="#63b8ff" d="M483.78,-54.75C488.21,-47.42 494.66,-36.73 500.12,-27.7"/>
<polygon fill="#63b8ff" stroke="#63b8ff" points="503.14,-29.46 505.31,-19.09 497.15,-25.84 503.14,-29.46"/>
</a>
</g>
</g>
<!-- Node38&#45;&gt;Node32 -->
<g id="edge17_Node000038_Node000032" class="edge">
<title>Node38&#45;&gt;Node32</title>
<g id="a_edge17_Node000038_Node000032"><a xlink:title=" ">
<path fill="none" stroke="#63b8ff" d="M514.01,-54.98C553.01,-45.63 615.61,-30.62 657.14,-20.66"/>
<polygon fill="#63b8ff" stroke="#63b8ff" points="658.05,-24.04 666.96,-18.3 656.42,-17.23 658.05,-24.04"/>
</a>
</g>
</g>
<!-- Node51&#45;&gt;Node37 -->
<g id="edge22_Node000051_Node000037" class="edge">
<title>Node51&#45;&gt;Node37</title>
<g id="a_edge22_Node000051_Node000037"><a xlink:title=" ">
<path fill="none" stroke="#63b8ff" d="M472.66,-164.75C473.57,-157.8 474.89,-147.85 476.04,-139.13"/>
<polygon fill="#63b8ff" stroke="#63b8ff" points="479.53,-139.46 477.37,-129.09 472.59,-138.54 479.53,-139.46"/>
</a>
</g>
</g>
<!-- Node55&#45;&gt;Node56 -->
<g id="edge26_Node000055_Node000056" class="edge">
<title>Node55&#45;&gt;Node56</title>
<g id="a_edge26_Node000055_Node000056"><a xlink:title=" ">
<path fill="none" stroke="#63b8ff" d="M881.62,-219.75C885.86,-212.49 892.03,-201.95 897.28,-192.98"/>
<polygon fill="#63b8ff" stroke="#63b8ff" points="900.45,-194.49 902.48,-184.09 894.41,-190.95 900.45,-194.49"/>
</a>
</g>
</g>
<!-- Node58&#45;&gt;Node12 -->
<g id="edge31_Node000058_Node000012" class="edge">
<title>Node58&#45;&gt;Node12</title>
<g id="a_edge31_Node000058_Node000012"><a xlink:title=" ">
<path fill="none" stroke="#63b8ff" d="M625.92,-219.75C633.27,-212.11 644.13,-200.82 653.04,-191.56"/>
<polygon fill="#63b8ff" stroke="#63b8ff" points="655.82,-193.72 660.24,-184.09 650.78,-188.87 655.82,-193.72"/>
</a>
</g>
</g>
<!-- Node58&#45;&gt;Node14 -->
<g id="edge30_Node000058_Node000014" class="edge">
<title>Node58&#45;&gt;Node14</title>
<g id="a_edge30_Node000058_Node000014"><a xlink:title=" ">
<path fill="none" stroke="#63b8ff" d="M614.21,-219.97C604.23,-194.36 572.91,-116.15 539.5,-55 534.36,-45.59 527.91,-35.55 522.4,-27.39"/>
<polygon fill="#63b8ff" stroke="#63b8ff" points="525.25,-25.37 516.69,-19.12 519.48,-29.34 525.25,-25.37"/>
</a>
</g>
</g>
<!-- Node59&#45;&gt;Node33 -->
<g id="edge37_Node000059_Node000033" class="edge">
<title>Node59&#45;&gt;Node33</title>
<g id="a_edge37_Node000059_Node000033"><a xlink:title=" ">
<path fill="none" stroke="#63b8ff" d="M371.5,-280.37C371.5,-272.25 371.5,-259.81 371.5,-249.39"/>
<polygon fill="#63b8ff" stroke="#63b8ff" points="375,-249.17 371.5,-239.17 368,-249.17 375,-249.17"/>
</a>
</g>
</g>
<!-- Node59&#45;&gt;Node37 -->
<g id="edge36_Node000059_Node000037" class="edge">
<title>Node59&#45;&gt;Node37</title>
<g id="a_edge36_Node000059_Node000037"><a xlink:title=" ">
<path fill="none" stroke="#63b8ff" d="M400.85,-280.5C440.58,-267.23 509.9,-237.4 539.5,-184 550.6,-163.97 527.82,-145.63 507,-133.87"/>
<polygon fill="#63b8ff" stroke="#63b8ff" points="508.48,-130.69 498.01,-129.1 505.2,-136.88 508.48,-130.69"/>
</a>
</g>
</g>
<!-- Node60&#45;&gt;Node37 -->
<g id="edge43_Node000060_Node000037" class="edge">
<title>Node60&#45;&gt;Node37</title>
<g id="a_edge43_Node000060_Node000037"><a xlink:title=" ">
<path fill="none" stroke="#63b8ff" d="M135.21,-164.98C219.37,-154.08 362.89,-135.48 434.77,-126.17"/>
<polygon fill="#63b8ff" stroke="#63b8ff" points="435.37,-129.62 444.84,-124.86 434.47,-122.68 435.37,-129.62"/>
</a>
</g>
</g>
<!-- Node61 -->
<g id="Node000061" class="node">
<title>Node61</title>
<g id="a_Node000061"><a xlink:href="mathematical__types_8h.html" target="_top" xlink:title="Mathematical types.">
<polygon fill="white" stroke="#666666" points="323.5,-129 197.5,-129 197.5,-110 323.5,-110 323.5,-129"/>
<text text-anchor="middle" x="260.5" y="-117" font-family="Helvetica,sans-Serif" font-size="10.00">mathematical_types.h</text>
</a>
</g>
</g>
<!-- Node60&#45;&gt;Node61 -->
<g id="edge39_Node000060_Node000061" class="edge">
<title>Node60&#45;&gt;Node61</title>
<g id="a_edge39_Node000060_Node000061"><a xlink:title=" ">
<path fill="none" stroke="#63b8ff" d="M100.19,-164.98C132.67,-155.97 184.1,-141.7 219.91,-131.76"/>
<polygon fill="#63b8ff" stroke="#63b8ff" points="220.87,-135.13 229.57,-129.08 219,-128.38 220.87,-135.13"/>
</a>
</g>
</g>
<!-- Node61&#45;&gt;Node14 -->
<g id="edge41_Node000061_Node000014" class="edge">
<title>Node61&#45;&gt;Node14</title>
<g id="a_edge41_Node000061_Node000014"><a xlink:title=" ">
<path fill="none" stroke="#63b8ff" d="M260.59,-109.62C261.24,-95.77 264.63,-69.16 280.5,-55 307.27,-31.12 406.36,-19.02 465.39,-13.8"/>
<polygon fill="#63b8ff" stroke="#63b8ff" points="465.9,-17.27 475.57,-12.94 465.3,-10.3 465.9,-17.27"/>
</a>
</g>
</g>
<!-- Node61&#45;&gt;Node38 -->
<g id="edge40_Node000061_Node000038" class="edge">
<title>Node61&#45;&gt;Node38</title>
<g id="a_edge40_Node000061_Node000038"><a xlink:title=" ">
<path fill="none" stroke="#63b8ff" d="M295.53,-109.98C333,-100.87 392.55,-86.4 433.48,-76.45"/>
<polygon fill="#63b8ff" stroke="#63b8ff" points="434.31,-79.85 443.2,-74.08 432.66,-73.04 434.31,-79.85"/>
</a>
</g>
</g>
<!-- Node41 -->
<g id="Node000041" class="node">
<title>Node41</title>
<g id="a_Node000041"><a xlink:href="type_8h.html" target="_top" xlink:title="Defines typet, type_with_subtypet and type_with_subtypest.">
<polygon fill="#fff0f0" stroke="red" points="336,-74 289,-74 289,-55 336,-55 336,-74"/>
<text text-anchor="middle" x="312.5" y="-62" font-family="Helvetica,sans-Serif" font-size="10.00">type.h</text>
</a>
</g>
</g>
<!-- Node61&#45;&gt;Node41 -->
<g id="edge42_Node000061_Node000041" class="edge">
<title>Node61&#45;&gt;Node41</title>
<g id="a_edge42_Node000061_Node000041"><a xlink:title=" ">
<path fill="none" stroke="#63b8ff" d="M269.09,-109.75C276.66,-102.03 287.88,-90.6 297.01,-81.28"/>
<polygon fill="#63b8ff" stroke="#63b8ff" points="299.57,-83.68 304.07,-74.09 294.57,-78.78 299.57,-83.68"/>
</a>
</g>
</g>
</g>
</svg>
