<?xml version="1.0" encoding="UTF-8" standalone="no"?>
<!DOCTYPE svg PUBLIC "-//W3C//DTD SVG 1.1//EN"
 "http://www.w3.org/Graphics/SVG/1.1/DTD/svg11.dtd">
<!-- Generated by graphviz version 2.43.0 (0)
 -->
<!-- Title: /home/runner/work/cbmc/cbmc/src/solvers/strings/string_concatenation_builtin_function.cpp Pages: 1 -->
<svg width="812pt" height="588pt"
 viewBox="0.00 0.00 812.00 588.00" xmlns="http://www.w3.org/2000/svg" xmlns:xlink="http://www.w3.org/1999/xlink">
<g id="graph0" class="graph" transform="scale(1 1) rotate(0) translate(4 584)">
<title>/home/runner/work/cbmc/cbmc/src/solvers/strings/string_concatenation_builtin_function.cpp</title>
<!-- Node1 -->
<g id="Node000001" class="node">
<title>Node1</title>
<g id="a_Node000001"><a xlink:title="Builtin functions for string concatenations.">
<polygon fill="#999999" stroke="#666666" points="323.5,-580 165.5,-580 165.5,-528 323.5,-528 323.5,-580"/>
<text text-anchor="start" x="173.5" y="-568" font-family="Helvetica,sans-Serif" font-size="10.00">/home/runner/work/cbmc</text>
<text text-anchor="start" x="173.5" y="-557" font-family="Helvetica,sans-Serif" font-size="10.00">/cbmc/src/solvers/strings</text>
<text text-anchor="start" x="173.5" y="-546" font-family="Helvetica,sans-Serif" font-size="10.00">/string_concatenation_builtin</text>
<text text-anchor="middle" x="244.5" y="-535" font-family="Helvetica,sans-Serif" font-size="10.00">_function.cpp</text>
</a>
</g>
</g>
<!-- Node2 -->
<g id="Node000002" class="node">
<title>Node2</title>
<g id="a_Node000002"><a xlink:href="string__concatenation__builtin__function_8h.html" target="_top" xlink:title="Builtin functions for string concatenations.">
<polygon fill="white" stroke="#666666" points="249,-492 130,-492 130,-462 249,-462 249,-492"/>
<text text-anchor="start" x="138" y="-480" font-family="Helvetica,sans-Serif" font-size="10.00">string_concatenation</text>
<text text-anchor="middle" x="189.5" y="-469" font-family="Helvetica,sans-Serif" font-size="10.00">_builtin_function.h</text>
</a>
</g>
</g>
<!-- Node1&#45;&gt;Node2 -->
<g id="edge1_Node000001_Node000002" class="edge">
<title>Node1&#45;&gt;Node2</title>
<g id="a_edge1_Node000001_Node000002"><a xlink:title=" ">
<path fill="none" stroke="#63b8ff" d="M225.88,-527.61C219.5,-518.9 212.4,-509.22 206.18,-500.74"/>
<polygon fill="#63b8ff" stroke="#63b8ff" points="208.82,-498.42 200.08,-492.43 203.17,-502.56 208.82,-498.42"/>
</a>
</g>
</g>
<!-- Node29 -->
<g id="Node000029" class="node">
<title>Node29</title>
<g id="a_Node000029"><a xlink:title=" ">
<polygon fill="#e0e0e0" stroke="#999999" points="331.5,-486.5 267.5,-486.5 267.5,-467.5 331.5,-467.5 331.5,-486.5"/>
<text text-anchor="middle" x="299.5" y="-474.5" font-family="Helvetica,sans-Serif" font-size="10.00">algorithm</text>
</a>
</g>
</g>
<!-- Node1&#45;&gt;Node29 -->
<g id="edge38_Node000001_Node000029" class="edge">
<title>Node1&#45;&gt;Node29</title>
<g id="a_edge38_Node000001_Node000029"><a xlink:title=" ">
<path fill="none" stroke="#63b8ff" d="M263.12,-527.61C270.96,-516.92 279.88,-504.75 286.93,-495.15"/>
<polygon fill="#63b8ff" stroke="#63b8ff" points="289.92,-496.99 293.01,-486.85 284.27,-492.85 289.92,-496.99"/>
</a>
</g>
</g>
<!-- Node3 -->
<g id="Node000003" class="node">
<title>Node3</title>
<g id="a_Node000003"><a xlink:href="string__insertion__builtin__function_8h.html" target="_top" xlink:title=" ">
<polygon fill="white" stroke="#666666" points="253.5,-426 125.5,-426 125.5,-396 253.5,-396 253.5,-426"/>
<text text-anchor="start" x="133.5" y="-414" font-family="Helvetica,sans-Serif" font-size="10.00">string_insertion_builtin</text>
<text text-anchor="middle" x="189.5" y="-403" font-family="Helvetica,sans-Serif" font-size="10.00">_function.h</text>
</a>
</g>
</g>
<!-- Node2&#45;&gt;Node3 -->
<g id="edge2_Node000002_Node000003" class="edge">
<title>Node2&#45;&gt;Node3</title>
<g id="a_edge2_Node000002_Node000003"><a xlink:title=" ">
<path fill="none" stroke="#63b8ff" d="M189.5,-461.8C189.5,-454.34 189.5,-444.99 189.5,-436.41"/>
<polygon fill="#63b8ff" stroke="#63b8ff" points="193,-436.16 189.5,-426.16 186,-436.16 193,-436.16"/>
</a>
</g>
</g>
<!-- Node4 -->
<g id="Node000004" class="node">
<title>Node4</title>
<g id="a_Node000004"><a xlink:href="string__builtin__function_8h.html" target="_top" xlink:title=" ">
<polygon fill="white" stroke="#666666" points="256.5,-360 122.5,-360 122.5,-341 256.5,-341 256.5,-360"/>
<text text-anchor="middle" x="189.5" y="-348" font-family="Helvetica,sans-Serif" font-size="10.00">string_builtin_function.h</text>
</a>
</g>
</g>
<!-- Node3&#45;&gt;Node4 -->
<g id="edge3_Node000003_Node000004" class="edge">
<title>Node3&#45;&gt;Node4</title>
<g id="a_edge3_Node000003_Node000004"><a xlink:title=" ">
<path fill="none" stroke="#63b8ff" d="M189.5,-395.84C189.5,-388.21 189.5,-378.7 189.5,-370.45"/>
<polygon fill="#63b8ff" stroke="#63b8ff" points="193,-370.27 189.5,-360.27 186,-370.27 193,-370.27"/>
</a>
</g>
</g>
<!-- Node5 -->
<g id="Node000005" class="node">
<title>Node5</title>
<g id="a_Node000005"><a xlink:href="string__constraint__generator_8h.html" target="_top" xlink:title="Generates string constraints to link results from string functions with their arguments.">
<polygon fill="white" stroke="#666666" points="420,-305 261,-305 261,-286 420,-286 420,-305"/>
<text text-anchor="middle" x="340.5" y="-293" font-family="Helvetica,sans-Serif" font-size="10.00">string_constraint_generator.h</text>
</a>
</g>
</g>
<!-- Node4&#45;&gt;Node5 -->
<g id="edge4_Node000004_Node000005" class="edge">
<title>Node4&#45;&gt;Node5</title>
<g id="a_edge4_Node000004_Node000005"><a xlink:title=" ">
<path fill="none" stroke="#63b8ff" d="M213.76,-340.98C238.82,-332.19 278.13,-318.39 306.33,-308.49"/>
<polygon fill="#63b8ff" stroke="#63b8ff" points="307.52,-311.78 315.8,-305.17 305.2,-305.18 307.52,-311.78"/>
</a>
</g>
</g>
<!-- Node14 -->
<g id="Node000014" class="node">
<title>Node14</title>
<g id="a_Node000014"><a xlink:title=" ">
<polygon fill="#e0e0e0" stroke="#999999" points="804,-74 757,-74 757,-55 804,-55 804,-74"/>
<text text-anchor="middle" x="780.5" y="-62" font-family="Helvetica,sans-Serif" font-size="10.00">vector</text>
</a>
</g>
</g>
<!-- Node4&#45;&gt;Node14 -->
<g id="edge37_Node000004_Node000014" class="edge">
<title>Node4&#45;&gt;Node14</title>
<g id="a_edge37_Node000004_Node000014"><a xlink:title=" ">
<path fill="none" stroke="#63b8ff" d="M256.74,-343.86C414.17,-329.74 793.5,-290.12 793.5,-236 793.5,-236 793.5,-236 793.5,-173.5 793.5,-141.96 787.97,-105.62 784.12,-84.15"/>
<polygon fill="#63b8ff" stroke="#63b8ff" points="787.53,-83.33 782.25,-74.14 780.65,-84.61 787.53,-83.33"/>
</a>
</g>
</g>
<!-- Node34 -->
<g id="Node000034" class="node">
<title>Node34</title>
<g id="a_Node000034"><a xlink:href="string__expr_8h.html" target="_top" xlink:title="String expressions for the string solver.">
<polygon fill="#fff0f0" stroke="red" points="293.5,-184 195.5,-184 195.5,-165 293.5,-165 293.5,-184"/>
<text text-anchor="middle" x="244.5" y="-172" font-family="Helvetica,sans-Serif" font-size="10.00">util/string_expr.h</text>
</a>
</g>
</g>
<!-- Node4&#45;&gt;Node34 -->
<g id="edge36_Node000004_Node000034" class="edge">
<title>Node4&#45;&gt;Node34</title>
<g id="a_edge36_Node000004_Node000034"><a xlink:title=" ">
<path fill="none" stroke="#63b8ff" d="M171.33,-340.87C130.89,-320.52 39.83,-267.65 76.5,-220 89.92,-202.57 142.55,-190.56 185.38,-183.45"/>
<polygon fill="#63b8ff" stroke="#63b8ff" points="186.14,-186.87 195.46,-181.83 185.03,-179.96 186.14,-186.87"/>
</a>
</g>
</g>
<!-- Node61 -->
<g id="Node000061" class="node">
<title>Node61</title>
<g id="a_Node000061"><a xlink:href="mathematical__expr_8h.html" target="_top" xlink:title="API to expression classes for &#39;mathematical&#39; expressions.">
<polygon fill="white" stroke="#666666" points="139,-184 0,-184 0,-165 139,-165 139,-184"/>
<text text-anchor="middle" x="69.5" y="-172" font-family="Helvetica,sans-Serif" font-size="10.00">util/mathematical_expr.h</text>
</a>
</g>
</g>
<!-- Node4&#45;&gt;Node61 -->
<g id="edge30_Node000004_Node000061" class="edge">
<title>Node4&#45;&gt;Node61</title>
<g id="a_edge30_Node000004_Node000061"><a xlink:title=" ">
<path fill="none" stroke="#63b8ff" d="M152.99,-340.93C131.55,-334.26 105.26,-323.03 87.5,-305 58.52,-275.58 61.64,-222.57 65.87,-194.36"/>
<polygon fill="#63b8ff" stroke="#63b8ff" points="69.37,-194.68 67.6,-184.24 62.47,-193.5 69.37,-194.68"/>
</a>
</g>
</g>
<!-- Node6 -->
<g id="Node000006" class="node">
<title>Node6</title>
<g id="a_Node000006"><a xlink:title=" ">
<polygon fill="#e0e0e0" stroke="#999999" points="431.5,-244.5 387.5,-244.5 387.5,-225.5 431.5,-225.5 431.5,-244.5"/>
<text text-anchor="middle" x="409.5" y="-232.5" font-family="Helvetica,sans-Serif" font-size="10.00">limits</text>
</a>
</g>
</g>
<!-- Node5&#45;&gt;Node6 -->
<g id="edge5_Node000005_Node000006" class="edge">
<title>Node5&#45;&gt;Node6</title>
<g id="a_edge5_Node000005_Node000006"><a xlink:title=" ">
<path fill="none" stroke="#63b8ff" d="M350.68,-285.87C361.38,-276.8 378.44,-262.34 391.43,-251.32"/>
<polygon fill="#63b8ff" stroke="#63b8ff" points="393.91,-253.8 399.28,-244.67 389.39,-248.46 393.91,-253.8"/>
</a>
</g>
</g>
<!-- Node7 -->
<g id="Node000007" class="node">
<title>Node7</title>
<g id="a_Node000007"><a xlink:href="string__constraint_8h.html" target="_top" xlink:title="Defines string constraints.">
<polygon fill="white" stroke="#666666" points="569,-250 450,-250 450,-220 569,-220 569,-250"/>
<text text-anchor="start" x="458" y="-238" font-family="Helvetica,sans-Serif" font-size="10.00">solvers/strings/string</text>
<text text-anchor="middle" x="509.5" y="-227" font-family="Helvetica,sans-Serif" font-size="10.00">_constraint.h</text>
</a>
</g>
</g>
<!-- Node5&#45;&gt;Node7 -->
<g id="edge6_Node000005_Node000007" class="edge">
<title>Node5&#45;&gt;Node7</title>
<g id="a_edge6_Node000005_Node000007"><a xlink:title=" ">
<path fill="none" stroke="#63b8ff" d="M365.07,-285.99C389.61,-277.5 428.03,-264.2 459.08,-253.45"/>
<polygon fill="#63b8ff" stroke="#63b8ff" points="460.56,-256.64 468.87,-250.06 458.28,-250.03 460.56,-256.64"/>
</a>
</g>
</g>
<!-- Node5&#45;&gt;Node34 -->
<g id="edge26_Node000005_Node000034" class="edge">
<title>Node5&#45;&gt;Node34</title>
<g id="a_edge26_Node000005_Node000034"><a xlink:title=" ">
<path fill="none" stroke="#63b8ff" d="M333.6,-285.94C317.83,-266.4 278.93,-218.18 258.13,-192.4"/>
<polygon fill="#63b8ff" stroke="#63b8ff" points="260.6,-189.89 251.6,-184.3 255.16,-194.28 260.6,-189.89"/>
</a>
</g>
</g>
<!-- Node54 -->
<g id="Node000054" class="node">
<title>Node54</title>
<g id="a_Node000054"><a xlink:href="refined__string__type_8h.html" target="_top" xlink:title="Type for string expressions used by the string solver.">
<polygon fill="#fff0f0" stroke="red" points="368,-129 249,-129 249,-110 368,-110 368,-129"/>
<text text-anchor="middle" x="308.5" y="-117" font-family="Helvetica,sans-Serif" font-size="10.00">refined_string_type.h</text>
</a>
</g>
</g>
<!-- Node5&#45;&gt;Node54 -->
<g id="edge24_Node000005_Node000054" class="edge">
<title>Node5&#45;&gt;Node54</title>
<g id="a_edge24_Node000005_Node000054"><a xlink:title=" ">
<path fill="none" stroke="#63b8ff" d="M338.87,-285.63C333.88,-258.52 318.77,-176.32 311.93,-139.13"/>
<polygon fill="#63b8ff" stroke="#63b8ff" points="315.34,-138.35 310.09,-129.14 308.46,-139.61 315.34,-138.35"/>
</a>
</g>
</g>
<!-- Node57 -->
<g id="Node000057" class="node">
<title>Node57</title>
<g id="a_Node000057"><a xlink:href="replace__expr_8h.html" target="_top" xlink:title=" ">
<polygon fill="#fff0f0" stroke="red" points="487.5,-129 399.5,-129 399.5,-110 487.5,-110 487.5,-129"/>
<text text-anchor="middle" x="443.5" y="-117" font-family="Helvetica,sans-Serif" font-size="10.00">replace_expr.h</text>
</a>
</g>
</g>
<!-- Node5&#45;&gt;Node57 -->
<g id="edge25_Node000005_Node000057" class="edge">
<title>Node5&#45;&gt;Node57</title>
<g id="a_edge25_Node000005_Node000057"><a xlink:title=" ">
<path fill="none" stroke="#63b8ff" d="M341.06,-285.76C342.89,-263.53 350.28,-203.87 378.5,-165 387.94,-152 402.4,-141.56 415.29,-134.07"/>
<polygon fill="#63b8ff" stroke="#63b8ff" points="417.21,-137.01 424.31,-129.14 413.85,-130.86 417.21,-137.01"/>
</a>
</g>
</g>
<!-- Node58 -->
<g id="Node000058" class="node">
<title>Node58</title>
<g id="a_Node000058"><a xlink:title=" ">
<polygon fill="#e0e0e0" stroke="#999999" points="727,-244.5 626,-244.5 626,-225.5 727,-225.5 727,-244.5"/>
<text text-anchor="middle" x="676.5" y="-232.5" font-family="Helvetica,sans-Serif" font-size="10.00">util/constexpr.def</text>
</a>
</g>
</g>
<!-- Node5&#45;&gt;Node58 -->
<g id="edge19_Node000005_Node000058" class="edge">
<title>Node5&#45;&gt;Node58</title>
<g id="a_edge19_Node000005_Node000058"><a xlink:title=" ">
<path fill="none" stroke="#63b8ff" d="M397.48,-285.98C452.42,-277.57 537.84,-263.97 611.5,-250 616.96,-248.96 622.66,-247.82 628.32,-246.65"/>
<polygon fill="#63b8ff" stroke="#63b8ff" points="629.35,-250.02 638.41,-244.53 627.91,-243.17 629.35,-250.02"/>
</a>
</g>
</g>
<!-- Node44 -->
<g id="Node000044" class="node">
<title>Node44</title>
<g id="a_Node000044"><a xlink:href="deprecate_8h.html" target="_top" xlink:title=" ">
<polygon fill="white" stroke="#666666" points="255.5,-244.5 181.5,-244.5 181.5,-225.5 255.5,-225.5 255.5,-244.5"/>
<text text-anchor="middle" x="218.5" y="-232.5" font-family="Helvetica,sans-Serif" font-size="10.00">deprecate.h</text>
</a>
</g>
</g>
<!-- Node5&#45;&gt;Node44 -->
<g id="edge20_Node000005_Node000044" class="edge">
<title>Node5&#45;&gt;Node44</title>
<g id="a_edge20_Node000005_Node000044"><a xlink:title=" ">
<path fill="none" stroke="#63b8ff" d="M322.76,-285.99C302.43,-276.25 268.89,-260.16 245.36,-248.88"/>
<polygon fill="#63b8ff" stroke="#63b8ff" points="246.79,-245.68 236.26,-244.52 243.76,-252 246.79,-245.68"/>
</a>
</g>
</g>
<!-- Node59 -->
<g id="Node000059" class="node">
<title>Node59</title>
<g id="a_Node000059"><a xlink:href="namespace_8h.html" target="_top" xlink:title=" ">
<polygon fill="white" stroke="#666666" points="765,-184 664,-184 664,-165 765,-165 765,-184"/>
<text text-anchor="middle" x="714.5" y="-172" font-family="Helvetica,sans-Serif" font-size="10.00">util/namespace.h</text>
</a>
</g>
</g>
<!-- Node5&#45;&gt;Node59 -->
<g id="edge21_Node000005_Node000059" class="edge">
<title>Node5&#45;&gt;Node59</title>
<g id="a_edge21_Node000005_Node000059"><a xlink:title=" ">
<path fill="none" stroke="#63b8ff" d="M420.18,-289.01C467.78,-283.47 528.51,-272.34 578.5,-250 598.47,-241.08 598.78,-231.3 617.5,-220 638.4,-207.39 663.48,-195.97 682.9,-187.86"/>
<polygon fill="#63b8ff" stroke="#63b8ff" points="684.28,-191.08 692.21,-184.04 681.63,-184.6 684.28,-191.08"/>
</a>
</g>
</g>
<!-- Node60 -->
<g id="Node000060" class="node">
<title>Node60</title>
<g id="a_Node000060"><a xlink:href="array__pool_8h.html" target="_top" xlink:title="Associates arrays and length to pointers, so that the string refinement can transform builtin functio...">
<polygon fill="white" stroke="#666666" points="163,-244.5 86,-244.5 86,-225.5 163,-225.5 163,-244.5"/>
<text text-anchor="middle" x="124.5" y="-232.5" font-family="Helvetica,sans-Serif" font-size="10.00">array_pool.h</text>
</a>
</g>
</g>
<!-- Node5&#45;&gt;Node60 -->
<g id="edge27_Node000005_Node000060" class="edge">
<title>Node5&#45;&gt;Node60</title>
<g id="a_edge27_Node000005_Node000060"><a xlink:title=" ">
<path fill="none" stroke="#63b8ff" d="M307.28,-285.96C273.34,-277.18 219.15,-262.98 172.5,-250 169.5,-249.17 166.4,-248.29 163.29,-247.4"/>
<polygon fill="#63b8ff" stroke="#63b8ff" points="163.98,-243.96 153.4,-244.56 162.04,-250.69 163.98,-243.96"/>
</a>
</g>
</g>
<!-- Node8 -->
<g id="Node000008" class="node">
<title>Node8</title>
<g id="a_Node000008"><a xlink:href="format__expr_8h.html" target="_top" xlink:title=" ">
<polygon fill="#fff0f0" stroke="red" points="645.5,-184 541.5,-184 541.5,-165 645.5,-165 645.5,-184"/>
<text text-anchor="middle" x="593.5" y="-172" font-family="Helvetica,sans-Serif" font-size="10.00">util/format_expr.h</text>
</a>
</g>
</g>
<!-- Node7&#45;&gt;Node8 -->
<g id="edge7_Node000007_Node000008" class="edge">
<title>Node7&#45;&gt;Node8</title>
<g id="a_edge7_Node000007_Node000008"><a xlink:title=" ">
<path fill="none" stroke="#63b8ff" d="M529.83,-219.84C542.77,-210.83 559.49,-199.18 572.55,-190.09"/>
<polygon fill="#63b8ff" stroke="#63b8ff" points="574.71,-192.85 580.91,-184.27 570.71,-187.11 574.71,-192.85"/>
</a>
</g>
</g>
<!-- Node7&#45;&gt;Node34 -->
<g id="edge11_Node000007_Node000034" class="edge">
<title>Node7&#45;&gt;Node34</title>
<g id="a_edge11_Node000007_Node000034"><a xlink:title=" ">
<path fill="none" stroke="#63b8ff" d="M449.7,-220.8C402.4,-210.36 337.19,-195.96 293.08,-186.22"/>
<polygon fill="#63b8ff" stroke="#63b8ff" points="293.69,-182.77 283.17,-184.04 292.18,-189.61 293.69,-182.77"/>
</a>
</g>
</g>
<!-- Node56 -->
<g id="Node000056" class="node">
<title>Node56</title>
<g id="a_Node000056"><a xlink:href="union__find__replace_8h.html" target="_top" xlink:title=" ">
<polygon fill="white" stroke="#666666" points="523.5,-184 387.5,-184 387.5,-165 523.5,-165 523.5,-184"/>
<text text-anchor="middle" x="455.5" y="-172" font-family="Helvetica,sans-Serif" font-size="10.00">util/union_find_replace.h</text>
</a>
</g>
</g>
<!-- Node7&#45;&gt;Node56 -->
<g id="edge17_Node000007_Node000056" class="edge">
<title>Node7&#45;&gt;Node56</title>
<g id="a_edge17_Node000007_Node000056"><a xlink:title=" ">
<path fill="none" stroke="#63b8ff" d="M496.43,-219.84C488.59,-211.35 478.59,-200.52 470.44,-191.69"/>
<polygon fill="#63b8ff" stroke="#63b8ff" points="472.95,-189.24 463.59,-184.27 467.8,-193.99 472.95,-189.24"/>
</a>
</g>
</g>
<!-- Node13 -->
<g id="Node000013" class="node">
<title>Node13</title>
<g id="a_Node000013"><a xlink:href="irep_8h.html" target="_top" xlink:title=" ">
<polygon fill="#fff0f0" stroke="red" points="627.5,-129 583.5,-129 583.5,-110 627.5,-110 627.5,-129"/>
<text text-anchor="middle" x="605.5" y="-117" font-family="Helvetica,sans-Serif" font-size="10.00">irep.h</text>
</a>
</g>
</g>
<!-- Node8&#45;&gt;Node13 -->
<g id="edge8_Node000008_Node000013" class="edge">
<title>Node8&#45;&gt;Node13</title>
<g id="a_edge8_Node000008_Node000013"><a xlink:title=" ">
<path fill="none" stroke="#63b8ff" d="M595.48,-164.75C597.07,-157.72 599.36,-147.62 601.35,-138.84"/>
<polygon fill="#63b8ff" stroke="#63b8ff" points="604.76,-139.62 603.56,-129.09 597.93,-138.07 604.76,-139.62"/>
</a>
</g>
</g>
<!-- Node13&#45;&gt;Node14 -->
<g id="edge9_Node000013_Node000014" class="edge">
<title>Node13&#45;&gt;Node14</title>
<g id="a_edge9_Node000013_Node000014"><a xlink:title=" ">
<path fill="none" stroke="#63b8ff" d="M627.66,-111.79C657.8,-102.66 711.96,-86.26 747.05,-75.63"/>
<polygon fill="#63b8ff" stroke="#63b8ff" points="748.29,-78.91 756.84,-72.67 746.26,-72.21 748.29,-78.91"/>
</a>
</g>
</g>
<!-- Node15 -->
<g id="Node000015" class="node">
<title>Node15</title>
<g id="a_Node000015"><a xlink:href="src_2util_2invariant_8h.html" target="_top" xlink:title=" ">
<polygon fill="#fff0f0" stroke="red" points="291,-19 222,-19 222,0 291,0 291,-19"/>
<text text-anchor="middle" x="256.5" y="-7" font-family="Helvetica,sans-Serif" font-size="10.00">invariant.h</text>
</a>
</g>
</g>
<!-- Node13&#45;&gt;Node15 -->
<g id="edge10_Node000013_Node000015" class="edge">
<title>Node13&#45;&gt;Node15</title>
<g id="a_edge10_Node000013_Node000015"><a xlink:title=" ">
<path fill="none" stroke="#63b8ff" d="M583.4,-111.66C525.16,-93.64 366.93,-44.67 294.1,-22.14"/>
<polygon fill="#63b8ff" stroke="#63b8ff" points="295,-18.75 284.41,-19.14 292.93,-25.44 295,-18.75"/>
</a>
</g>
</g>
<!-- Node34&#45;&gt;Node54 -->
<g id="edge12_Node000034_Node000054" class="edge">
<title>Node34&#45;&gt;Node54</title>
<g id="a_edge12_Node000034_Node000054"><a xlink:title=" ">
<path fill="none" stroke="#63b8ff" d="M254.78,-164.98C264.34,-157.07 278.78,-145.11 290.28,-135.58"/>
<polygon fill="#63b8ff" stroke="#63b8ff" points="292.56,-138.24 298.03,-129.17 288.1,-132.85 292.56,-138.24"/>
</a>
</g>
</g>
<!-- Node38 -->
<g id="Node000038" class="node">
<title>Node38</title>
<g id="a_Node000038"><a xlink:href="std__expr_8h.html" target="_top" xlink:title="API to expression classes.">
<polygon fill="#fff0f0" stroke="red" points="225,-129 158,-129 158,-110 225,-110 225,-129"/>
<text text-anchor="middle" x="191.5" y="-117" font-family="Helvetica,sans-Serif" font-size="10.00">std_expr.h</text>
</a>
</g>
</g>
<!-- Node34&#45;&gt;Node38 -->
<g id="edge13_Node000034_Node000038" class="edge">
<title>Node34&#45;&gt;Node38</title>
<g id="a_edge13_Node000034_Node000038"><a xlink:title=" ">
<path fill="none" stroke="#63b8ff" d="M235.75,-164.75C228.03,-157.03 216.6,-145.6 207.28,-136.28"/>
<polygon fill="#63b8ff" stroke="#63b8ff" points="209.64,-133.69 200.09,-129.09 204.69,-138.64 209.64,-133.69"/>
</a>
</g>
</g>
<!-- Node38&#45;&gt;Node15 -->
<g id="edge16_Node000038_Node000015" class="edge">
<title>Node38&#45;&gt;Node15</title>
<g id="a_edge16_Node000038_Node000015"><a xlink:title=" ">
<path fill="none" stroke="#63b8ff" d="M203.04,-109.81C213.19,-101.61 227.68,-88.44 236.5,-74 244.97,-60.13 250.17,-42.33 253.14,-29.11"/>
<polygon fill="#63b8ff" stroke="#63b8ff" points="256.57,-29.77 255.12,-19.27 249.71,-28.38 256.57,-29.77"/>
</a>
</g>
</g>
<!-- Node39 -->
<g id="Node000039" class="node">
<title>Node39</title>
<g id="a_Node000039"><a xlink:href="expr__cast_8h.html" target="_top" xlink:title="Templated functions to cast to specific exprt&#45;derived classes.">
<polygon fill="#fff0f0" stroke="red" points="228,-74 155,-74 155,-55 228,-55 228,-74"/>
<text text-anchor="middle" x="191.5" y="-62" font-family="Helvetica,sans-Serif" font-size="10.00">expr_cast.h</text>
</a>
</g>
</g>
<!-- Node38&#45;&gt;Node39 -->
<g id="edge14_Node000038_Node000039" class="edge">
<title>Node38&#45;&gt;Node39</title>
<g id="a_edge14_Node000038_Node000039"><a xlink:title=" ">
<path fill="none" stroke="#63b8ff" d="M191.5,-109.75C191.5,-102.8 191.5,-92.85 191.5,-84.13"/>
<polygon fill="#63b8ff" stroke="#63b8ff" points="195,-84.09 191.5,-74.09 188,-84.09 195,-84.09"/>
</a>
</g>
</g>
<!-- Node39&#45;&gt;Node15 -->
<g id="edge15_Node000039_Node000015" class="edge">
<title>Node39&#45;&gt;Node15</title>
<g id="a_edge15_Node000039_Node000015"><a xlink:title=" ">
<path fill="none" stroke="#63b8ff" d="M201.94,-54.98C211.65,-47.07 226.32,-35.11 238,-25.58"/>
<polygon fill="#63b8ff" stroke="#63b8ff" points="240.33,-28.2 245.87,-19.17 235.9,-22.78 240.33,-28.2"/>
</a>
</g>
</g>
<!-- Node56&#45;&gt;Node57 -->
<g id="edge18_Node000056_Node000057" class="edge">
<title>Node56&#45;&gt;Node57</title>
<g id="a_edge18_Node000056_Node000057"><a xlink:title=" ">
<path fill="none" stroke="#63b8ff" d="M453.52,-164.75C451.93,-157.72 449.64,-147.62 447.65,-138.84"/>
<polygon fill="#63b8ff" stroke="#63b8ff" points="451.07,-138.07 445.44,-129.09 444.24,-139.62 451.07,-138.07"/>
</a>
</g>
</g>
<!-- Node59&#45;&gt;Node13 -->
<g id="edge23_Node000059_Node000013" class="edge">
<title>Node59&#45;&gt;Node13</title>
<g id="a_edge23_Node000059_Node000013"><a xlink:title=" ">
<path fill="none" stroke="#63b8ff" d="M696.99,-164.98C679.53,-156.5 652.49,-143.35 632.33,-133.54"/>
<polygon fill="#63b8ff" stroke="#63b8ff" points="633.86,-130.4 623.33,-129.17 630.79,-136.69 633.86,-130.4"/>
</a>
</g>
</g>
<!-- Node59&#45;&gt;Node15 -->
<g id="edge22_Node000059_Node000015" class="edge">
<title>Node59&#45;&gt;Node15</title>
<g id="a_edge22_Node000059_Node000015"><a xlink:title=" ">
<path fill="none" stroke="#63b8ff" d="M706.22,-164.79C692.82,-151.17 664.98,-124.87 636.5,-110 524.28,-51.42 375.02,-25.48 301.43,-15.64"/>
<polygon fill="#63b8ff" stroke="#63b8ff" points="301.5,-12.12 291.13,-14.31 300.6,-19.06 301.5,-12.12"/>
</a>
</g>
</g>
<!-- Node60&#45;&gt;Node34 -->
<g id="edge29_Node000060_Node000034" class="edge">
<title>Node60&#45;&gt;Node34</title>
<g id="a_edge29_Node000060_Node000034"><a xlink:title=" ">
<path fill="none" stroke="#63b8ff" d="M141.95,-225.49C161.86,-215.79 194.64,-199.81 217.77,-188.53"/>
<polygon fill="#63b8ff" stroke="#63b8ff" points="219.57,-191.54 227.03,-184.02 216.51,-185.25 219.57,-191.54"/>
</a>
</g>
</g>
<!-- Node60&#45;&gt;Node38 -->
<g id="edge28_Node000060_Node000038" class="edge">
<title>Node60&#45;&gt;Node38</title>
<g id="a_edge28_Node000060_Node000038"><a xlink:title=" ">
<path fill="none" stroke="#63b8ff" d="M129.54,-225.47C140.5,-206.9 166.7,-162.51 181.28,-137.82"/>
<polygon fill="#63b8ff" stroke="#63b8ff" points="184.34,-139.52 186.41,-129.13 178.31,-135.96 184.34,-139.52"/>
</a>
</g>
</g>
<!-- Node61&#45;&gt;Node38 -->
<g id="edge35_Node000061_Node000038" class="edge">
<title>Node61&#45;&gt;Node38</title>
<g id="a_edge35_Node000061_Node000038"><a xlink:title=" ">
<path fill="none" stroke="#63b8ff" d="M89.1,-164.98C108.82,-156.42 139.45,-143.11 162.08,-133.28"/>
<polygon fill="#63b8ff" stroke="#63b8ff" points="163.76,-136.37 171.54,-129.17 160.98,-129.94 163.76,-136.37"/>
</a>
</g>
</g>
<!-- Node62 -->
<g id="Node000062" class="node">
<title>Node62</title>
<g id="a_Node000062"><a xlink:href="mathematical__types_8h.html" target="_top" xlink:title="Mathematical types.">
<polygon fill="white" stroke="#666666" points="138.5,-129 12.5,-129 12.5,-110 138.5,-110 138.5,-129"/>
<text text-anchor="middle" x="75.5" y="-117" font-family="Helvetica,sans-Serif" font-size="10.00">mathematical_types.h</text>
</a>
</g>
</g>
<!-- Node61&#45;&gt;Node62 -->
<g id="edge31_Node000061_Node000062" class="edge">
<title>Node61&#45;&gt;Node62</title>
<g id="a_edge31_Node000061_Node000062"><a xlink:title=" ">
<path fill="none" stroke="#63b8ff" d="M70.49,-164.75C71.28,-157.8 72.4,-147.85 73.39,-139.13"/>
<polygon fill="#63b8ff" stroke="#63b8ff" points="76.88,-139.42 74.53,-129.09 69.92,-138.63 76.88,-139.42"/>
</a>
</g>
</g>
<!-- Node62&#45;&gt;Node15 -->
<g id="edge33_Node000062_Node000015" class="edge">
<title>Node62&#45;&gt;Node15</title>
<g id="a_edge33_Node000062_Node000015"><a xlink:title=" ">
<path fill="none" stroke="#63b8ff" d="M83.32,-109.62C95.48,-96.25 120.18,-70.84 145.5,-55 167.94,-40.96 195.55,-29.87 217.63,-22.27"/>
<polygon fill="#63b8ff" stroke="#63b8ff" points="218.96,-25.52 227.34,-19.03 216.74,-18.88 218.96,-25.52"/>
</a>
</g>
</g>
<!-- Node62&#45;&gt;Node39 -->
<g id="edge32_Node000062_Node000039" class="edge">
<title>Node62&#45;&gt;Node39</title>
<g id="a_edge32_Node000062_Node000039"><a xlink:title=" ">
<path fill="none" stroke="#63b8ff" d="M94.14,-109.98C112.8,-101.46 141.75,-88.23 163.24,-78.41"/>
<polygon fill="#63b8ff" stroke="#63b8ff" points="164.88,-81.51 172.52,-74.17 161.97,-75.14 164.88,-81.51"/>
</a>
</g>
</g>
<!-- Node42 -->
<g id="Node000042" class="node">
<title>Node42</title>
<g id="a_Node000042"><a xlink:href="type_8h.html" target="_top" xlink:title="Defines typet, type_with_subtypet and type_with_subtypest.">
<polygon fill="#fff0f0" stroke="red" points="98,-74 51,-74 51,-55 98,-55 98,-74"/>
<text text-anchor="middle" x="74.5" y="-62" font-family="Helvetica,sans-Serif" font-size="10.00">type.h</text>
</a>
</g>
</g>
<!-- Node62&#45;&gt;Node42 -->
<g id="edge34_Node000062_Node000042" class="edge">
<title>Node62&#45;&gt;Node42</title>
<g id="a_edge34_Node000062_Node000042"><a xlink:title=" ">
<path fill="none" stroke="#63b8ff" d="M75.33,-109.75C75.2,-102.8 75.02,-92.85 74.85,-84.13"/>
<polygon fill="#63b8ff" stroke="#63b8ff" points="78.35,-84.02 74.66,-74.09 71.35,-84.15 78.35,-84.02"/>
</a>
</g>
</g>
</g>
</svg>
