<?xml version="1.0" encoding="UTF-8" standalone="no"?>
<!DOCTYPE svg PUBLIC "-//W3C//DTD SVG 1.1//EN"
 "http://www.w3.org/Graphics/SVG/1.1/DTD/svg11.dtd">
<!-- Generated by graphviz version 2.43.0 (0)
 -->
<!-- Title: /home/runner/work/cbmc/cbmc/src/solvers/strings/string_builtin_function.cpp Pages: 1 -->
<svg width="1091pt" height="610pt"
 viewBox="0.00 0.00 1091.00 610.00" xmlns="http://www.w3.org/2000/svg" xmlns:xlink="http://www.w3.org/1999/xlink">
<g id="graph0" class="graph" transform="scale(1 1) rotate(0) translate(4 606)">
<title>/home/runner/work/cbmc/cbmc/src/solvers/strings/string_builtin_function.cpp</title>
<!-- Node1 -->
<g id="Node000001" class="node">
<title>Node1</title>
<g id="a_Node000001"><a xlink:title=" ">
<polygon fill="#999999" stroke="#666666" points="976,-602 827,-602 827,-561 976,-561 976,-602"/>
<text text-anchor="start" x="835" y="-590" font-family="Helvetica,sans-Serif" font-size="10.00">/home/runner/work/cbmc</text>
<text text-anchor="start" x="835" y="-579" font-family="Helvetica,sans-Serif" font-size="10.00">/cbmc/src/solvers/strings</text>
<text text-anchor="middle" x="901.5" y="-568" font-family="Helvetica,sans-Serif" font-size="10.00">/string_builtin_function.cpp</text>
</a>
</g>
</g>
<!-- Node2 -->
<g id="Node000002" class="node">
<title>Node2</title>
<g id="a_Node000002"><a xlink:href="string__builtin__function_8h.html" target="_top" xlink:title=" ">
<polygon fill="white" stroke="#666666" points="384.5,-525 250.5,-525 250.5,-506 384.5,-506 384.5,-525"/>
<text text-anchor="middle" x="317.5" y="-513" font-family="Helvetica,sans-Serif" font-size="10.00">string_builtin_function.h</text>
</a>
</g>
</g>
<!-- Node1&#45;&gt;Node2 -->
<g id="edge1_Node000001_Node000002" class="edge">
<title>Node1&#45;&gt;Node2</title>
<g id="a_edge1_Node000001_Node000002"><a xlink:title=" ">
<path fill="none" stroke="#63b8ff" d="M826.94,-572.33C715.76,-560.14 507.53,-537.33 394.78,-524.97"/>
<polygon fill="#63b8ff" stroke="#63b8ff" points="395.16,-521.49 384.84,-523.88 394.4,-528.45 395.16,-521.49"/>
</a>
</g>
</g>
<!-- Node3 -->
<g id="Node000003" class="node">
<title>Node3</title>
<g id="a_Node000003"><a xlink:href="string__constraint__generator_8h.html" target="_top" xlink:title="Generates string constraints to link results from string functions with their arguments.">
<polygon fill="white" stroke="#666666" points="686,-470 527,-470 527,-451 686,-451 686,-470"/>
<text text-anchor="middle" x="606.5" y="-458" font-family="Helvetica,sans-Serif" font-size="10.00">string_constraint_generator.h</text>
</a>
</g>
</g>
<!-- Node1&#45;&gt;Node3 -->
<g id="edge74_Node000001_Node000003" class="edge">
<title>Node1&#45;&gt;Node3</title>
<g id="a_edge74_Node000001_Node000003"><a xlink:title=" ">
<path fill="none" stroke="#63b8ff" d="M853.12,-560.98C791.97,-536.32 688.54,-494.59 637.24,-473.9"/>
<polygon fill="#63b8ff" stroke="#63b8ff" points="638.29,-470.55 627.71,-470.05 635.67,-477.04 638.29,-470.55"/>
</a>
</g>
</g>
<!-- Node27 -->
<g id="Node000027" class="node">
<title>Node27</title>
<g id="a_Node000027"><a xlink:title=" ">
<polygon fill="#e0e0e0" stroke="#999999" points="987.5,-19 923.5,-19 923.5,0 987.5,0 987.5,-19"/>
<text text-anchor="middle" x="955.5" y="-7" font-family="Helvetica,sans-Serif" font-size="10.00">algorithm</text>
</a>
</g>
</g>
<!-- Node1&#45;&gt;Node27 -->
<g id="edge72_Node000001_Node000027" class="edge">
<title>Node1&#45;&gt;Node27</title>
<g id="a_edge72_Node000001_Node000027"><a xlink:title=" ">
<path fill="none" stroke="#63b8ff" d="M933.42,-560.87C962.68,-540.14 1001.5,-504.54 1001.5,-461.5 1001.5,-461.5 1001.5,-461.5 1001.5,-118.5 1001.5,-84.04 981.43,-47.98 967.8,-27.47"/>
<polygon fill="#63b8ff" stroke="#63b8ff" points="970.65,-25.44 962.09,-19.2 964.9,-29.42 970.65,-25.44"/>
</a>
</g>
</g>
<!-- Node61 -->
<g id="Node000061" class="node">
<title>Node61</title>
<g id="a_Node000061"><a xlink:title=" ">
<polygon fill="#e0e0e0" stroke="#999999" points="1083,-525 1030,-525 1030,-506 1083,-506 1083,-525"/>
<text text-anchor="middle" x="1056.5" y="-513" font-family="Helvetica,sans-Serif" font-size="10.00">iterator</text>
</a>
</g>
</g>
<!-- Node1&#45;&gt;Node61 -->
<g id="edge73_Node000001_Node000061" class="edge">
<title>Node1&#45;&gt;Node61</title>
<g id="a_edge73_Node000001_Node000061"><a xlink:title=" ">
<path fill="none" stroke="#63b8ff" d="M948.85,-560.95C974.02,-550.56 1004.21,-538.09 1026.21,-529.01"/>
<polygon fill="#63b8ff" stroke="#63b8ff" points="1027.78,-532.14 1035.69,-525.09 1025.11,-525.67 1027.78,-532.14"/>
</a>
</g>
</g>
<!-- Node2&#45;&gt;Node3 -->
<g id="edge2_Node000002_Node000003" class="edge">
<title>Node2&#45;&gt;Node3</title>
<g id="a_edge2_Node000002_Node000003"><a xlink:title=" ">
<path fill="none" stroke="#63b8ff" d="M363.93,-505.98C414.45,-496.72 495.24,-481.9 549.55,-471.94"/>
<polygon fill="#63b8ff" stroke="#63b8ff" points="550.5,-475.33 559.7,-470.08 549.24,-468.44 550.5,-475.33"/>
</a>
</g>
</g>
<!-- Node12 -->
<g id="Node000012" class="node">
<title>Node12</title>
<g id="a_Node000012"><a xlink:title=" ">
<polygon fill="#e0e0e0" stroke="#999999" points="589,-74 542,-74 542,-55 589,-55 589,-74"/>
<text text-anchor="middle" x="565.5" y="-62" font-family="Helvetica,sans-Serif" font-size="10.00">vector</text>
</a>
</g>
</g>
<!-- Node2&#45;&gt;Node12 -->
<g id="edge71_Node000002_Node000012" class="edge">
<title>Node2&#45;&gt;Node12</title>
<g id="a_edge71_Node000002_Node000012"><a xlink:title=" ">
<path fill="none" stroke="#63b8ff" d="M285.69,-505.97C241.66,-492.01 167.5,-459.78 167.5,-401 167.5,-401 167.5,-401 167.5,-338.5 167.5,-285.65 148.9,-264.45 177.5,-220 231.55,-136 280.35,-146.08 373.5,-110 388.16,-104.32 480.78,-83.85 531.83,-72.76"/>
<polygon fill="#63b8ff" stroke="#63b8ff" points="532.71,-76.15 541.75,-70.61 531.23,-69.31 532.71,-76.15"/>
</a>
</g>
</g>
<!-- Node32 -->
<g id="Node000032" class="node">
<title>Node32</title>
<g id="a_Node000032"><a xlink:href="string__expr_8h.html" target="_top" xlink:title="String expressions for the string solver.">
<polygon fill="white" stroke="#666666" points="447.5,-349 349.5,-349 349.5,-330 447.5,-330 447.5,-349"/>
<text text-anchor="middle" x="398.5" y="-337" font-family="Helvetica,sans-Serif" font-size="10.00">util/string_expr.h</text>
</a>
</g>
</g>
<!-- Node2&#45;&gt;Node32 -->
<g id="edge70_Node000002_Node000032" class="edge">
<title>Node2&#45;&gt;Node32</title>
<g id="a_edge70_Node000002_Node000032"><a xlink:title=" ">
<path fill="none" stroke="#63b8ff" d="M316.58,-505.87C314.66,-483.89 312.27,-424.79 336.5,-385 344.54,-371.8 358.13,-361.38 370.54,-353.96"/>
<polygon fill="#63b8ff" stroke="#63b8ff" points="372.25,-357.02 379.28,-349.09 368.84,-350.91 372.25,-357.02"/>
</a>
</g>
</g>
<!-- Node59 -->
<g id="Node000059" class="node">
<title>Node59</title>
<g id="a_Node000059"><a xlink:href="mathematical__expr_8h.html" target="_top" xlink:title="API to expression classes for &#39;mathematical&#39; expressions.">
<polygon fill="white" stroke="#666666" points="139,-294 0,-294 0,-275 139,-275 139,-294"/>
<text text-anchor="middle" x="69.5" y="-282" font-family="Helvetica,sans-Serif" font-size="10.00">util/mathematical_expr.h</text>
</a>
</g>
</g>
<!-- Node2&#45;&gt;Node59 -->
<g id="edge64_Node000002_Node000059" class="edge">
<title>Node2&#45;&gt;Node59</title>
<g id="a_edge64_Node000002_Node000059"><a xlink:title=" ">
<path fill="none" stroke="#63b8ff" d="M250.26,-509.51C217.89,-504.04 180.37,-492.83 153.5,-470 101,-425.39 79.67,-341.13 72.54,-303.94"/>
<polygon fill="#63b8ff" stroke="#63b8ff" points="75.97,-303.23 70.77,-294 69.08,-304.46 75.97,-303.23"/>
</a>
</g>
</g>
<!-- Node4 -->
<g id="Node000004" class="node">
<title>Node4</title>
<g id="a_Node000004"><a xlink:title=" ">
<polygon fill="#e0e0e0" stroke="#999999" points="511.5,-239 467.5,-239 467.5,-220 511.5,-220 511.5,-239"/>
<text text-anchor="middle" x="489.5" y="-227" font-family="Helvetica,sans-Serif" font-size="10.00">limits</text>
</a>
</g>
</g>
<!-- Node3&#45;&gt;Node4 -->
<g id="edge3_Node000003_Node000004" class="edge">
<title>Node3&#45;&gt;Node4</title>
<g id="a_edge3_Node000003_Node000004"><a xlink:title=" ">
<path fill="none" stroke="#63b8ff" d="M584.69,-450.89C569.01,-443.61 548.58,-431.68 536.5,-415 499.21,-363.54 491.42,-285.31 489.86,-249.54"/>
<polygon fill="#63b8ff" stroke="#63b8ff" points="493.34,-249.03 489.53,-239.14 486.34,-249.25 493.34,-249.03"/>
</a>
</g>
</g>
<!-- Node5 -->
<g id="Node000005" class="node">
<title>Node5</title>
<g id="a_Node000005"><a xlink:href="string__constraint_8h.html" target="_top" xlink:title="Defines string constraints.">
<polygon fill="white" stroke="#666666" points="887,-415 768,-415 768,-385 887,-385 887,-415"/>
<text text-anchor="start" x="776" y="-403" font-family="Helvetica,sans-Serif" font-size="10.00">solvers/strings/string</text>
<text text-anchor="middle" x="827.5" y="-392" font-family="Helvetica,sans-Serif" font-size="10.00">_constraint.h</text>
</a>
</g>
</g>
<!-- Node3&#45;&gt;Node5 -->
<g id="edge4_Node000003_Node000005" class="edge">
<title>Node3&#45;&gt;Node5</title>
<g id="a_edge4_Node000003_Node000005"><a xlink:title=" ">
<path fill="none" stroke="#63b8ff" d="M638.64,-450.99C671.48,-442.3 723.36,-428.57 764.44,-417.69"/>
<polygon fill="#63b8ff" stroke="#63b8ff" points="765.6,-421.01 774.37,-415.06 763.81,-414.24 765.6,-421.01"/>
</a>
</g>
</g>
<!-- Node3&#45;&gt;Node32 -->
<g id="edge60_Node000003_Node000032" class="edge">
<title>Node3&#45;&gt;Node32</title>
<g id="a_edge60_Node000003_Node000032"><a xlink:title=" ">
<path fill="none" stroke="#63b8ff" d="M566.99,-450.94C539.91,-443.94 503.89,-432.34 475.5,-415 449.81,-399.32 425.84,-373.7 411.67,-356.97"/>
<polygon fill="#63b8ff" stroke="#63b8ff" points="414.27,-354.61 405.2,-349.13 408.87,-359.07 414.27,-354.61"/>
</a>
</g>
</g>
<!-- Node52 -->
<g id="Node000052" class="node">
<title>Node52</title>
<g id="a_Node000052"><a xlink:href="refined__string__type_8h.html" target="_top" xlink:title="Type for string expressions used by the string solver.">
<polygon fill="white" stroke="#666666" points="637,-294 518,-294 518,-275 637,-275 637,-294"/>
<text text-anchor="middle" x="577.5" y="-282" font-family="Helvetica,sans-Serif" font-size="10.00">refined_string_type.h</text>
</a>
</g>
</g>
<!-- Node3&#45;&gt;Node52 -->
<g id="edge58_Node000003_Node000052" class="edge">
<title>Node3&#45;&gt;Node52</title>
<g id="a_edge58_Node000003_Node000052"><a xlink:title=" ">
<path fill="none" stroke="#63b8ff" d="M586.92,-450.98C572.83,-443.68 554.9,-431.68 546.5,-415 527.7,-377.65 550.95,-328.42 566.2,-302.76"/>
<polygon fill="#63b8ff" stroke="#63b8ff" points="569.25,-304.49 571.56,-294.14 563.31,-300.79 569.25,-304.49"/>
</a>
</g>
</g>
<!-- Node55 -->
<g id="Node000055" class="node">
<title>Node55</title>
<g id="a_Node000055"><a xlink:href="replace__expr_8h.html" target="_top" xlink:title=" ">
<polygon fill="white" stroke="#666666" points="769.5,-239 681.5,-239 681.5,-220 769.5,-220 769.5,-239"/>
<text text-anchor="middle" x="725.5" y="-227" font-family="Helvetica,sans-Serif" font-size="10.00">replace_expr.h</text>
</a>
</g>
</g>
<!-- Node3&#45;&gt;Node55 -->
<g id="edge59_Node000003_Node000055" class="edge">
<title>Node3&#45;&gt;Node55</title>
<g id="a_edge59_Node000003_Node000055"><a xlink:title=" ">
<path fill="none" stroke="#63b8ff" d="M686.3,-457.77C761.95,-454.33 868.15,-444.27 896.5,-415 922.9,-387.75 923.74,-362.71 904.5,-330 876.07,-281.67 814.73,-255.12 771.82,-241.86"/>
<polygon fill="#63b8ff" stroke="#63b8ff" points="772.74,-238.49 762.15,-239 770.75,-245.2 772.74,-238.49"/>
</a>
</g>
</g>
<!-- Node56 -->
<g id="Node000056" class="node">
<title>Node56</title>
<g id="a_Node000056"><a xlink:title=" ">
<polygon fill="#e0e0e0" stroke="#999999" points="657,-409.5 556,-409.5 556,-390.5 657,-390.5 657,-409.5"/>
<text text-anchor="middle" x="606.5" y="-397.5" font-family="Helvetica,sans-Serif" font-size="10.00">util/constexpr.def</text>
</a>
</g>
</g>
<!-- Node3&#45;&gt;Node56 -->
<g id="edge53_Node000003_Node000056" class="edge">
<title>Node3&#45;&gt;Node56</title>
<g id="a_edge53_Node000003_Node000056"><a xlink:title=" ">
<path fill="none" stroke="#63b8ff" d="M606.5,-450.87C606.5,-442.75 606.5,-430.31 606.5,-419.89"/>
<polygon fill="#63b8ff" stroke="#63b8ff" points="610,-419.67 606.5,-409.67 603,-419.67 610,-419.67"/>
</a>
</g>
</g>
<!-- Node42 -->
<g id="Node000042" class="node">
<title>Node42</title>
<g id="a_Node000042"><a xlink:href="deprecate_8h.html" target="_top" xlink:title=" ">
<polygon fill="white" stroke="#666666" points="749.5,-409.5 675.5,-409.5 675.5,-390.5 749.5,-390.5 749.5,-409.5"/>
<text text-anchor="middle" x="712.5" y="-397.5" font-family="Helvetica,sans-Serif" font-size="10.00">deprecate.h</text>
</a>
</g>
</g>
<!-- Node3&#45;&gt;Node42 -->
<g id="edge54_Node000003_Node000042" class="edge">
<title>Node3&#45;&gt;Node42</title>
<g id="a_edge54_Node000003_Node000042"><a xlink:title=" ">
<path fill="none" stroke="#63b8ff" d="M622.14,-450.87C639.44,-441.32 667.55,-425.81 687.83,-414.62"/>
<polygon fill="#63b8ff" stroke="#63b8ff" points="689.73,-417.56 696.8,-409.67 686.35,-411.43 689.73,-417.56"/>
</a>
</g>
</g>
<!-- Node57 -->
<g id="Node000057" class="node">
<title>Node57</title>
<g id="a_Node000057"><a xlink:href="namespace_8h.html" target="_top" xlink:title=" ">
<polygon fill="white" stroke="#666666" points="725,-184 624,-184 624,-165 725,-165 725,-184"/>
<text text-anchor="middle" x="674.5" y="-172" font-family="Helvetica,sans-Serif" font-size="10.00">util/namespace.h</text>
</a>
</g>
</g>
<!-- Node3&#45;&gt;Node57 -->
<g id="edge55_Node000003_Node000057" class="edge">
<title>Node3&#45;&gt;Node57</title>
<g id="a_edge55_Node000003_Node000057"><a xlink:title=" ">
<path fill="none" stroke="#63b8ff" d="M686.15,-456.12C766.13,-451.34 882.62,-440.19 919.5,-415 950.89,-393.56 961.5,-378.51 961.5,-340.5 961.5,-340.5 961.5,-340.5 961.5,-283.5 961.5,-235.54 819.33,-201.59 735.12,-185.69"/>
<polygon fill="#63b8ff" stroke="#63b8ff" points="735.62,-182.22 725.15,-183.84 734.34,-189.1 735.62,-182.22"/>
</a>
</g>
</g>
<!-- Node58 -->
<g id="Node000058" class="node">
<title>Node58</title>
<g id="a_Node000058"><a xlink:href="array__pool_8h.html" target="_top" xlink:title="Associates arrays and length to pointers, so that the string refinement can transform builtin functio...">
<polygon fill="white" stroke="#666666" points="423,-409.5 346,-409.5 346,-390.5 423,-390.5 423,-409.5"/>
<text text-anchor="middle" x="384.5" y="-397.5" font-family="Helvetica,sans-Serif" font-size="10.00">array_pool.h</text>
</a>
</g>
</g>
<!-- Node3&#45;&gt;Node58 -->
<g id="edge61_Node000003_Node000058" class="edge">
<title>Node3&#45;&gt;Node58</title>
<g id="a_edge61_Node000003_Node000058"><a xlink:title=" ">
<path fill="none" stroke="#63b8ff" d="M574.1,-450.98C540.08,-442.02 485.03,-427.53 437.5,-415 433.93,-414.06 430.23,-413.08 426.51,-412.1"/>
<polygon fill="#63b8ff" stroke="#63b8ff" points="427.29,-408.69 416.73,-409.52 425.51,-415.46 427.29,-408.69"/>
</a>
</g>
</g>
<!-- Node6 -->
<g id="Node000006" class="node">
<title>Node6</title>
<g id="a_Node000006"><a xlink:href="format__expr_8h.html" target="_top" xlink:title=" ">
<polygon fill="white" stroke="#666666" points="847.5,-184 743.5,-184 743.5,-165 847.5,-165 847.5,-184"/>
<text text-anchor="middle" x="795.5" y="-172" font-family="Helvetica,sans-Serif" font-size="10.00">util/format_expr.h</text>
</a>
</g>
</g>
<!-- Node5&#45;&gt;Node6 -->
<g id="edge5_Node000005_Node000006" class="edge">
<title>Node5&#45;&gt;Node6</title>
<g id="a_edge5_Node000005_Node000006"><a xlink:title=" ">
<path fill="none" stroke="#63b8ff" d="M791.12,-384.86C775.67,-376.83 759.25,-365.11 750.5,-349 737.44,-324.95 752.88,-328.08 778.5,-239 782.84,-223.9 787.43,-206.68 790.74,-193.98"/>
<polygon fill="#63b8ff" stroke="#63b8ff" points="794.17,-194.71 793.29,-184.16 787.39,-192.96 794.17,-194.71"/>
</a>
</g>
</g>
<!-- Node5&#45;&gt;Node32 -->
<g id="edge20_Node000005_Node000032" class="edge">
<title>Node5&#45;&gt;Node32</title>
<g id="a_edge20_Node000005_Node000032"><a xlink:title=" ">
<path fill="none" stroke="#63b8ff" d="M767.71,-386.58C764.6,-386.02 761.52,-385.49 758.5,-385 653.05,-367.81 529.26,-353.86 457.75,-346.41"/>
<polygon fill="#63b8ff" stroke="#63b8ff" points="457.89,-342.9 447.58,-345.35 457.17,-349.86 457.89,-342.9"/>
</a>
</g>
</g>
<!-- Node54 -->
<g id="Node000054" class="node">
<title>Node54</title>
<g id="a_Node000054"><a xlink:href="union__find__replace_8h.html" target="_top" xlink:title=" ">
<polygon fill="white" stroke="#666666" points="895.5,-349 759.5,-349 759.5,-330 895.5,-330 895.5,-349"/>
<text text-anchor="middle" x="827.5" y="-337" font-family="Helvetica,sans-Serif" font-size="10.00">util/union_find_replace.h</text>
</a>
</g>
</g>
<!-- Node5&#45;&gt;Node54 -->
<g id="edge49_Node000005_Node000054" class="edge">
<title>Node5&#45;&gt;Node54</title>
<g id="a_edge49_Node000005_Node000054"><a xlink:title=" ">
<path fill="none" stroke="#63b8ff" d="M827.5,-384.84C827.5,-377.21 827.5,-367.7 827.5,-359.45"/>
<polygon fill="#63b8ff" stroke="#63b8ff" points="831,-359.27 827.5,-349.27 824,-359.27 831,-359.27"/>
</a>
</g>
</g>
<!-- Node7 -->
<g id="Node000007" class="node">
<title>Node7</title>
<g id="a_Node000007"><a xlink:href="format_8h.html" target="_top" xlink:title=" ">
<polygon fill="white" stroke="#666666" points="755,-129 696,-129 696,-110 755,-110 755,-129"/>
<text text-anchor="middle" x="725.5" y="-117" font-family="Helvetica,sans-Serif" font-size="10.00">format.h</text>
</a>
</g>
</g>
<!-- Node6&#45;&gt;Node7 -->
<g id="edge6_Node000006_Node000007" class="edge">
<title>Node6&#45;&gt;Node7</title>
<g id="a_edge6_Node000006_Node000007"><a xlink:title=" ">
<path fill="none" stroke="#63b8ff" d="M784.25,-164.98C773.7,-157 757.7,-144.88 745.06,-135.31"/>
<polygon fill="#63b8ff" stroke="#63b8ff" points="747.04,-132.42 736.95,-129.17 742.81,-138 747.04,-132.42"/>
</a>
</g>
</g>
<!-- Node11 -->
<g id="Node000011" class="node">
<title>Node11</title>
<g id="a_Node000011"><a xlink:href="irep_8h.html" target="_top" xlink:title=" ">
<polygon fill="white" stroke="#666666" points="817.5,-129 773.5,-129 773.5,-110 817.5,-110 817.5,-129"/>
<text text-anchor="middle" x="795.5" y="-117" font-family="Helvetica,sans-Serif" font-size="10.00">irep.h</text>
</a>
</g>
</g>
<!-- Node6&#45;&gt;Node11 -->
<g id="edge10_Node000006_Node000011" class="edge">
<title>Node6&#45;&gt;Node11</title>
<g id="a_edge10_Node000006_Node000011"><a xlink:title=" ">
<path fill="none" stroke="#63b8ff" d="M795.5,-164.75C795.5,-157.8 795.5,-147.85 795.5,-139.13"/>
<polygon fill="#63b8ff" stroke="#63b8ff" points="799,-139.09 795.5,-129.09 792,-139.09 799,-139.09"/>
</a>
</g>
</g>
<!-- Node31 -->
<g id="Node000031" class="node">
<title>Node31</title>
<g id="a_Node000031"><a xlink:title=" ">
<polygon fill="#e0e0e0" stroke="#999999" points="188,-19 123,-19 123,0 188,0 188,-19"/>
<text text-anchor="middle" x="155.5" y="-7" font-family="Helvetica,sans-Serif" font-size="10.00">functional</text>
</a>
</g>
</g>
<!-- Node6&#45;&gt;Node31 -->
<g id="edge19_Node000006_Node000031" class="edge">
<title>Node6&#45;&gt;Node31</title>
<g id="a_edge19_Node000006_Node000031"><a xlink:title=" ">
<path fill="none" stroke="#63b8ff" d="M767.98,-164.89C745.25,-157.18 712.61,-144.67 686.5,-129 642.39,-102.52 644.94,-74.89 597.5,-55 526.12,-25.07 294.94,-14.72 198.44,-11.64"/>
<polygon fill="#63b8ff" stroke="#63b8ff" points="198.27,-8.14 188.17,-11.33 198.05,-15.13 198.27,-8.14"/>
</a>
</g>
</g>
<!-- Node8 -->
<g id="Node000008" class="node">
<title>Node8</title>
<g id="a_Node000008"><a xlink:title=" ">
<polygon fill="#e0e0e0" stroke="#999999" points="515.5,-74 467.5,-74 467.5,-55 515.5,-55 515.5,-74"/>
<text text-anchor="middle" x="491.5" y="-62" font-family="Helvetica,sans-Serif" font-size="10.00">iosfwd</text>
</a>
</g>
</g>
<!-- Node7&#45;&gt;Node8 -->
<g id="edge7_Node000007_Node000008" class="edge">
<title>Node7&#45;&gt;Node8</title>
<g id="a_edge7_Node000007_Node000008"><a xlink:title=" ">
<path fill="none" stroke="#63b8ff" d="M695.86,-111.79C652.3,-101.92 571.2,-83.55 525.35,-73.17"/>
<polygon fill="#63b8ff" stroke="#63b8ff" points="526.11,-69.75 515.59,-70.96 524.57,-76.58 526.11,-69.75"/>
</a>
</g>
</g>
<!-- Node9 -->
<g id="Node000009" class="node">
<title>Node9</title>
<g id="a_Node000009"><a xlink:title=" ">
<polygon fill="#e0e0e0" stroke="#999999" points="451.5,-19 395.5,-19 395.5,0 451.5,0 451.5,-19"/>
<text text-anchor="middle" x="423.5" y="-7" font-family="Helvetica,sans-Serif" font-size="10.00">sstream</text>
</a>
</g>
</g>
<!-- Node7&#45;&gt;Node9 -->
<g id="edge8_Node000007_Node000009" class="edge">
<title>Node7&#45;&gt;Node9</title>
<g id="a_edge8_Node000007_Node000009"><a xlink:title=" ">
<path fill="none" stroke="#63b8ff" d="M715.8,-109.59C700.14,-95.71 667.76,-69.05 635.5,-55 578,-29.96 505.46,-18.66 461.87,-13.83"/>
<polygon fill="#63b8ff" stroke="#63b8ff" points="462.01,-10.32 451.7,-12.76 461.28,-17.28 462.01,-10.32"/>
</a>
</g>
</g>
<!-- Node10 -->
<g id="Node000010" class="node">
<title>Node10</title>
<g id="a_Node000010"><a xlink:title=" ">
<polygon fill="#e0e0e0" stroke="#999999" points="650.5,-19 606.5,-19 606.5,0 650.5,0 650.5,-19"/>
<text text-anchor="middle" x="628.5" y="-7" font-family="Helvetica,sans-Serif" font-size="10.00">string</text>
</a>
</g>
</g>
<!-- Node7&#45;&gt;Node10 -->
<g id="edge9_Node000007_Node000010" class="edge">
<title>Node7&#45;&gt;Node10</title>
<g id="a_edge9_Node000007_Node000010"><a xlink:title=" ">
<path fill="none" stroke="#63b8ff" d="M718.72,-109.63C709.05,-97.13 690.58,-73.75 673.5,-55 664.44,-45.05 653.75,-34.43 645.06,-26.06"/>
<polygon fill="#63b8ff" stroke="#63b8ff" points="647.4,-23.46 637.75,-19.1 642.57,-28.53 647.4,-23.46"/>
</a>
</g>
</g>
<!-- Node11&#45;&gt;Node10 -->
<g id="edge11_Node000011_Node000010" class="edge">
<title>Node11&#45;&gt;Node10</title>
<g id="a_edge11_Node000011_Node000010"><a xlink:title=" ">
<path fill="none" stroke="#63b8ff" d="M782.12,-109.84C753.41,-91.28 685.69,-47.49 650.54,-24.75"/>
<polygon fill="#63b8ff" stroke="#63b8ff" points="652.25,-21.69 641.95,-19.2 648.44,-27.57 652.25,-21.69"/>
</a>
</g>
</g>
<!-- Node11&#45;&gt;Node12 -->
<g id="edge12_Node000011_Node000012" class="edge">
<title>Node11&#45;&gt;Node12</title>
<g id="a_edge12_Node000011_Node000012"><a xlink:title=" ">
<path fill="none" stroke="#63b8ff" d="M773.49,-112.54C770.15,-111.66 766.74,-110.79 763.5,-110 705.86,-95.87 638.35,-81.07 598.91,-72.6"/>
<polygon fill="#63b8ff" stroke="#63b8ff" points="599.55,-69.15 589.04,-70.48 598.08,-76 599.55,-69.15"/>
</a>
</g>
</g>
<!-- Node13 -->
<g id="Node000013" class="node">
<title>Node13</title>
<g id="a_Node000013"><a xlink:href="src_2util_2invariant_8h.html" target="_top" xlink:title=" ">
<polygon fill="#fff0f0" stroke="red" points="389,-74 320,-74 320,-55 389,-55 389,-74"/>
<text text-anchor="middle" x="354.5" y="-62" font-family="Helvetica,sans-Serif" font-size="10.00">invariant.h</text>
</a>
</g>
</g>
<!-- Node11&#45;&gt;Node13 -->
<g id="edge13_Node000011_Node000013" class="edge">
<title>Node11&#45;&gt;Node13</title>
<g id="a_edge13_Node000011_Node000013"><a xlink:title=" ">
<path fill="none" stroke="#63b8ff" d="M773.22,-112.12C769.98,-111.33 766.66,-110.59 763.5,-110 694.45,-97.15 490.1,-77.78 399.09,-69.49"/>
<polygon fill="#63b8ff" stroke="#63b8ff" points="399.37,-66 389.09,-68.58 398.73,-72.97 399.37,-66"/>
</a>
</g>
</g>
<!-- Node16 -->
<g id="Node000016" class="node">
<title>Node16</title>
<g id="a_Node000016"><a xlink:href="irep__ids_8h.html" target="_top" xlink:title="util">
<polygon fill="#fff0f0" stroke="red" points="827.5,-74 763.5,-74 763.5,-55 827.5,-55 827.5,-74"/>
<text text-anchor="middle" x="795.5" y="-62" font-family="Helvetica,sans-Serif" font-size="10.00">irep_ids.h</text>
</a>
</g>
</g>
<!-- Node11&#45;&gt;Node16 -->
<g id="edge16_Node000011_Node000016" class="edge">
<title>Node11&#45;&gt;Node16</title>
<g id="a_edge16_Node000011_Node000016"><a xlink:title=" ">
<path fill="none" stroke="#63b8ff" d="M795.5,-109.75C795.5,-102.8 795.5,-92.85 795.5,-84.13"/>
<polygon fill="#63b8ff" stroke="#63b8ff" points="799,-84.09 795.5,-74.09 792,-84.09 799,-84.09"/>
</a>
</g>
</g>
<!-- Node26 -->
<g id="Node000026" class="node">
<title>Node26</title>
<g id="a_Node000026"><a xlink:href="forward__list__as__map_8h.html" target="_top" xlink:title=" ">
<polygon fill="#fff0f0" stroke="red" points="973,-74 846,-74 846,-55 973,-55 973,-74"/>
<text text-anchor="middle" x="909.5" y="-62" font-family="Helvetica,sans-Serif" font-size="10.00">forward_list_as_map.h</text>
</a>
</g>
</g>
<!-- Node11&#45;&gt;Node26 -->
<g id="edge17_Node000011_Node000026" class="edge">
<title>Node11&#45;&gt;Node26</title>
<g id="a_edge17_Node000011_Node000026"><a xlink:title=" ">
<path fill="none" stroke="#63b8ff" d="M813.82,-109.98C832.16,-101.46 860.61,-88.23 881.73,-78.41"/>
<polygon fill="#63b8ff" stroke="#63b8ff" points="883.26,-81.56 890.85,-74.17 880.31,-75.21 883.26,-81.56"/>
</a>
</g>
</g>
<!-- Node13&#45;&gt;Node9 -->
<g id="edge14_Node000013_Node000009" class="edge">
<title>Node13&#45;&gt;Node9</title>
<g id="a_edge14_Node000013_Node000009"><a xlink:title=" ">
<path fill="none" stroke="#63b8ff" d="M365.59,-54.98C375.99,-47 391.76,-34.88 404.22,-25.31"/>
<polygon fill="#63b8ff" stroke="#63b8ff" points="406.41,-28.04 412.21,-19.17 402.15,-22.49 406.41,-28.04"/>
</a>
</g>
</g>
<!-- Node13&#45;&gt;Node10 -->
<g id="edge15_Node000013_Node000010" class="edge">
<title>Node13&#45;&gt;Node10</title>
<g id="a_edge15_Node000013_Node000010"><a xlink:title=" ">
<path fill="none" stroke="#63b8ff" d="M389.2,-56.79C442.69,-46.44 544.5,-26.75 596.38,-16.71"/>
<polygon fill="#63b8ff" stroke="#63b8ff" points="597.21,-20.12 606.36,-14.78 595.88,-13.25 597.21,-20.12"/>
</a>
</g>
</g>
<!-- Node26&#45;&gt;Node27 -->
<g id="edge18_Node000026_Node000027" class="edge">
<title>Node26&#45;&gt;Node27</title>
<g id="a_edge18_Node000026_Node000027"><a xlink:title=" ">
<path fill="none" stroke="#63b8ff" d="M917.1,-54.75C923.66,-47.18 933.32,-36.05 941.31,-26.84"/>
<polygon fill="#63b8ff" stroke="#63b8ff" points="944.13,-28.94 948.05,-19.09 938.85,-24.35 944.13,-28.94"/>
</a>
</g>
</g>
<!-- Node33 -->
<g id="Node000033" class="node">
<title>Node33</title>
<g id="a_Node000033"><a xlink:href="arith__tools_8h.html" target="_top" xlink:title=" ">
<polygon fill="white" stroke="#666666" points="461,-294 384,-294 384,-275 461,-275 461,-294"/>
<text text-anchor="middle" x="422.5" y="-282" font-family="Helvetica,sans-Serif" font-size="10.00">arith_tools.h</text>
</a>
</g>
</g>
<!-- Node32&#45;&gt;Node33 -->
<g id="edge21_Node000032_Node000033" class="edge">
<title>Node32&#45;&gt;Node33</title>
<g id="a_edge21_Node000032_Node000033"><a xlink:title=" ">
<path fill="none" stroke="#63b8ff" d="M402.46,-329.75C405.71,-322.57 410.42,-312.18 414.45,-303.27"/>
<polygon fill="#63b8ff" stroke="#63b8ff" points="417.67,-304.64 418.61,-294.09 411.3,-301.75 417.67,-304.64"/>
</a>
</g>
</g>
<!-- Node36 -->
<g id="Node000036" class="node">
<title>Node36</title>
<g id="a_Node000036"><a xlink:href="std__expr_8h.html" target="_top" xlink:title="API to expression classes.">
<polygon fill="white" stroke="#666666" points="254,-239 187,-239 187,-220 254,-220 254,-239"/>
<text text-anchor="middle" x="220.5" y="-227" font-family="Helvetica,sans-Serif" font-size="10.00">std_expr.h</text>
</a>
</g>
</g>
<!-- Node32&#45;&gt;Node36 -->
<g id="edge48_Node000032_Node000036" class="edge">
<title>Node32&#45;&gt;Node36</title>
<g id="a_edge48_Node000032_Node000036"><a xlink:title=" ">
<path fill="none" stroke="#63b8ff" d="M355.3,-329.98C329.03,-323.29 295.79,-312.02 270.5,-294 253.42,-281.83 239.23,-262.21 230.39,-248"/>
<polygon fill="#63b8ff" stroke="#63b8ff" points="233.27,-246 225.15,-239.19 227.25,-249.57 233.27,-246"/>
</a>
</g>
</g>
<!-- Node50 -->
<g id="Node000050" class="node">
<title>Node50</title>
<g id="a_Node000050"><a xlink:href="pointer__expr_8h.html" target="_top" xlink:title="API to expression classes for Pointers.">
<polygon fill="white" stroke="#666666" points="365.5,-294 279.5,-294 279.5,-275 365.5,-275 365.5,-294"/>
<text text-anchor="middle" x="322.5" y="-282" font-family="Helvetica,sans-Serif" font-size="10.00">pointer_expr.h</text>
</a>
</g>
</g>
<!-- Node32&#45;&gt;Node50 -->
<g id="edge41_Node000032_Node000050" class="edge">
<title>Node32&#45;&gt;Node50</title>
<g id="a_edge41_Node000032_Node000050"><a xlink:title=" ">
<path fill="none" stroke="#63b8ff" d="M386.29,-329.98C374.72,-321.92 357.12,-309.65 343.34,-300.03"/>
<polygon fill="#63b8ff" stroke="#63b8ff" points="345.14,-297.02 334.93,-294.17 341.13,-302.76 345.14,-297.02"/>
</a>
</g>
</g>
<!-- Node32&#45;&gt;Node52 -->
<g id="edge45_Node000032_Node000052" class="edge">
<title>Node32&#45;&gt;Node52</title>
<g id="a_edge45_Node000032_Node000052"><a xlink:title=" ">
<path fill="none" stroke="#63b8ff" d="M427.26,-329.98C457.44,-321.05 505.07,-306.94 538.6,-297.02"/>
<polygon fill="#63b8ff" stroke="#63b8ff" points="539.92,-300.28 548.52,-294.08 537.93,-293.57 539.92,-300.28"/>
</a>
</g>
</g>
<!-- Node33&#45;&gt;Node4 -->
<g id="edge40_Node000033_Node000004" class="edge">
<title>Node33&#45;&gt;Node4</title>
<g id="a_edge40_Node000033_Node000004"><a xlink:title=" ">
<path fill="none" stroke="#63b8ff" d="M433.26,-274.98C443.27,-267.07 458.39,-255.11 470.43,-245.58"/>
<polygon fill="#63b8ff" stroke="#63b8ff" points="472.87,-248.12 478.54,-239.17 468.53,-242.63 472.87,-248.12"/>
</a>
</g>
</g>
<!-- Node33&#45;&gt;Node13 -->
<g id="edge22_Node000033_Node000013" class="edge">
<title>Node33&#45;&gt;Node13</title>
<g id="a_edge22_Node000033_Node000013"><a xlink:title=" ">
<path fill="none" stroke="#63b8ff" d="M419.69,-274.8C412.1,-251.33 390.65,-184.67 373.5,-129 368.83,-113.86 363.69,-96.64 359.94,-83.95"/>
<polygon fill="#63b8ff" stroke="#63b8ff" points="363.23,-82.74 357.04,-74.14 356.51,-84.72 363.23,-82.74"/>
</a>
</g>
</g>
<!-- Node34 -->
<g id="Node000034" class="node">
<title>Node34</title>
<g id="a_Node000034"><a xlink:href="mp__arith_8h.html" target="_top" xlink:title=" ">
<polygon fill="#fff0f0" stroke="red" points="452,-129 383,-129 383,-110 452,-110 452,-129"/>
<text text-anchor="middle" x="417.5" y="-117" font-family="Helvetica,sans-Serif" font-size="10.00">mp_arith.h</text>
</a>
</g>
</g>
<!-- Node33&#45;&gt;Node34 -->
<g id="edge23_Node000033_Node000034" class="edge">
<title>Node33&#45;&gt;Node34</title>
<g id="a_edge23_Node000033_Node000034"><a xlink:title=" ">
<path fill="none" stroke="#63b8ff" d="M422.23,-274.74C421.45,-249.31 419.17,-175.08 418.09,-139.69"/>
<polygon fill="#63b8ff" stroke="#63b8ff" points="421.58,-139.19 417.77,-129.31 414.58,-139.41 421.58,-139.19"/>
</a>
</g>
</g>
<!-- Node33&#45;&gt;Node36 -->
<g id="edge26_Node000033_Node000036" class="edge">
<title>Node33&#45;&gt;Node36</title>
<g id="a_edge26_Node000033_Node000036"><a xlink:title=" ">
<path fill="none" stroke="#63b8ff" d="M390.05,-274.98C355.54,-265.93 300.84,-251.58 262.94,-241.64"/>
<polygon fill="#63b8ff" stroke="#63b8ff" points="263.77,-238.23 253.21,-239.08 261.99,-245.01 263.77,-238.23"/>
</a>
</g>
</g>
<!-- Node34&#45;&gt;Node8 -->
<g id="edge24_Node000034_Node000008" class="edge">
<title>Node34&#45;&gt;Node8</title>
<g id="a_edge24_Node000034_Node000008"><a xlink:title=" ">
<path fill="none" stroke="#63b8ff" d="M429.39,-109.98C440.65,-101.92 457.79,-89.65 471.21,-80.03"/>
<polygon fill="#63b8ff" stroke="#63b8ff" points="473.3,-82.84 479.39,-74.17 469.23,-77.15 473.3,-82.84"/>
</a>
</g>
</g>
<!-- Node34&#45;&gt;Node10 -->
<g id="edge25_Node000034_Node000010" class="edge">
<title>Node34&#45;&gt;Node10</title>
<g id="a_edge25_Node000034_Node000010"><a xlink:title=" ">
<path fill="none" stroke="#63b8ff" d="M420.76,-109.62C426.32,-95.77 438.94,-69.16 458.5,-55 499.77,-25.12 559.55,-15.28 596.12,-12.06"/>
<polygon fill="#63b8ff" stroke="#63b8ff" points="596.53,-15.54 606.23,-11.29 595.99,-8.56 596.53,-15.54"/>
</a>
</g>
</g>
<!-- Node36&#45;&gt;Node13 -->
<g id="edge33_Node000036_Node000013" class="edge">
<title>Node36&#45;&gt;Node13</title>
<g id="a_edge33_Node000036_Node000013"><a xlink:title=" ">
<path fill="none" stroke="#63b8ff" d="M227.7,-219.74C249.06,-193.76 312.31,-116.83 340.57,-82.44"/>
<polygon fill="#63b8ff" stroke="#63b8ff" points="343.61,-84.25 347.26,-74.31 338.21,-79.81 343.61,-84.25"/>
</a>
</g>
</g>
<!-- Node37 -->
<g id="Node000037" class="node">
<title>Node37</title>
<g id="a_Node000037"><a xlink:href="expr__cast_8h.html" target="_top" xlink:title="Templated functions to cast to specific exprt&#45;derived classes.">
<polygon fill="#fff0f0" stroke="red" points="131,-129 58,-129 58,-110 131,-110 131,-129"/>
<text text-anchor="middle" x="94.5" y="-117" font-family="Helvetica,sans-Serif" font-size="10.00">expr_cast.h</text>
</a>
</g>
</g>
<!-- Node36&#45;&gt;Node37 -->
<g id="edge27_Node000036_Node000037" class="edge">
<title>Node36&#45;&gt;Node37</title>
<g id="a_edge27_Node000036_Node000037"><a xlink:title=" ">
<path fill="none" stroke="#63b8ff" d="M212.11,-219.96C199.7,-207.46 175.52,-183.64 153.5,-165 141.17,-154.56 126.7,-143.63 115.17,-135.21"/>
<polygon fill="#63b8ff" stroke="#63b8ff" points="117.17,-132.34 107.02,-129.31 113.07,-138.01 117.17,-132.34"/>
</a>
</g>
</g>
<!-- Node49 -->
<g id="Node000049" class="node">
<title>Node49</title>
<g id="a_Node000049"><a xlink:href="std__types_8h.html" target="_top" xlink:title="Pre&#45;defined types.">
<polygon fill="#fff0f0" stroke="red" points="373,-184 300,-184 300,-165 373,-165 373,-184"/>
<text text-anchor="middle" x="336.5" y="-172" font-family="Helvetica,sans-Serif" font-size="10.00">std_types.h</text>
</a>
</g>
</g>
<!-- Node36&#45;&gt;Node49 -->
<g id="edge34_Node000036_Node000049" class="edge">
<title>Node36&#45;&gt;Node49</title>
<g id="a_edge34_Node000036_Node000049"><a xlink:title=" ">
<path fill="none" stroke="#63b8ff" d="M239.14,-219.98C257.8,-211.46 286.75,-198.23 308.24,-188.41"/>
<polygon fill="#63b8ff" stroke="#63b8ff" points="309.88,-191.51 317.52,-184.17 306.97,-185.14 309.88,-191.51"/>
</a>
</g>
</g>
<!-- Node37&#45;&gt;Node13 -->
<g id="edge29_Node000037_Node000013" class="edge">
<title>Node37&#45;&gt;Node13</title>
<g id="a_edge29_Node000037_Node000013"><a xlink:title=" ">
<path fill="none" stroke="#63b8ff" d="M131.2,-111.02C178.08,-101.46 259.18,-84.93 309.67,-74.64"/>
<polygon fill="#63b8ff" stroke="#63b8ff" points="310.55,-78.03 319.65,-72.6 309.15,-71.17 310.55,-78.03"/>
</a>
</g>
</g>
<!-- Node37&#45;&gt;Node31 -->
<g id="edge28_Node000037_Node000031" class="edge">
<title>Node37&#45;&gt;Node31</title>
<g id="a_edge28_Node000037_Node000031"><a xlink:title=" ">
<path fill="none" stroke="#63b8ff" d="M97.56,-109.99C102.18,-97.53 111.6,-73.75 122.5,-55 128.11,-45.35 135.41,-35.31 141.72,-27.21"/>
<polygon fill="#63b8ff" stroke="#63b8ff" points="144.54,-29.29 148.05,-19.3 139.07,-24.92 144.54,-29.29"/>
</a>
</g>
</g>
<!-- Node39 -->
<g id="Node000039" class="node">
<title>Node39</title>
<g id="a_Node000039"><a xlink:href="expr_8h.html" target="_top" xlink:title=" ">
<polygon fill="#fff0f0" stroke="red" points="179,-74 132,-74 132,-55 179,-55 179,-74"/>
<text text-anchor="middle" x="155.5" y="-62" font-family="Helvetica,sans-Serif" font-size="10.00">expr.h</text>
</a>
</g>
</g>
<!-- Node37&#45;&gt;Node39 -->
<g id="edge30_Node000037_Node000039" class="edge">
<title>Node37&#45;&gt;Node39</title>
<g id="a_edge30_Node000037_Node000039"><a xlink:title=" ">
<path fill="none" stroke="#63b8ff" d="M104.3,-109.98C113.32,-102.15 126.91,-90.34 137.82,-80.86"/>
<polygon fill="#63b8ff" stroke="#63b8ff" points="140.27,-83.37 145.52,-74.17 135.68,-78.09 140.27,-83.37"/>
</a>
</g>
</g>
<!-- Node39&#45;&gt;Node31 -->
<g id="edge32_Node000039_Node000031" class="edge">
<title>Node39&#45;&gt;Node31</title>
<g id="a_edge32_Node000039_Node000031"><a xlink:title=" ">
<path fill="none" stroke="#63b8ff" d="M155.5,-54.75C155.5,-47.8 155.5,-37.85 155.5,-29.13"/>
<polygon fill="#63b8ff" stroke="#63b8ff" points="159,-29.09 155.5,-19.09 152,-29.09 159,-29.09"/>
</a>
</g>
</g>
<!-- Node40 -->
<g id="Node000040" class="node">
<title>Node40</title>
<g id="a_Node000040"><a xlink:href="type_8h.html" target="_top" xlink:title="Defines typet, type_with_subtypet and type_with_subtypest.">
<polygon fill="#fff0f0" stroke="red" points="74,-19 27,-19 27,0 74,0 74,-19"/>
<text text-anchor="middle" x="50.5" y="-7" font-family="Helvetica,sans-Serif" font-size="10.00">type.h</text>
</a>
</g>
</g>
<!-- Node39&#45;&gt;Node40 -->
<g id="edge31_Node000039_Node000040" class="edge">
<title>Node39&#45;&gt;Node40</title>
<g id="a_edge31_Node000039_Node000040"><a xlink:title=" ">
<path fill="none" stroke="#63b8ff" d="M138.63,-54.98C121.89,-46.54 96,-33.47 76.61,-23.68"/>
<polygon fill="#63b8ff" stroke="#63b8ff" points="78.18,-20.55 67.68,-19.17 75.03,-26.8 78.18,-20.55"/>
</a>
</g>
</g>
<!-- Node49&#45;&gt;Node13 -->
<g id="edge37_Node000049_Node000013" class="edge">
<title>Node49&#45;&gt;Node13</title>
<g id="a_edge37_Node000049_Node000013"><a xlink:title=" ">
<path fill="none" stroke="#63b8ff" d="M336.39,-164.79C336.38,-152.48 336.91,-129.33 340.5,-110 342.13,-101.24 344.94,-91.79 347.62,-83.87"/>
<polygon fill="#63b8ff" stroke="#63b8ff" points="351.01,-84.8 351.07,-74.21 344.41,-82.45 351.01,-84.8"/>
</a>
</g>
</g>
<!-- Node49&#45;&gt;Node34 -->
<g id="edge38_Node000049_Node000034" class="edge">
<title>Node49&#45;&gt;Node34</title>
<g id="a_edge38_Node000049_Node000034"><a xlink:title=" ">
<path fill="none" stroke="#63b8ff" d="M349.51,-164.98C361.96,-156.84 380.96,-144.41 395.71,-134.76"/>
<polygon fill="#63b8ff" stroke="#63b8ff" points="397.8,-137.57 404.25,-129.17 393.96,-131.72 397.8,-137.57"/>
</a>
</g>
</g>
<!-- Node49&#45;&gt;Node37 -->
<g id="edge36_Node000049_Node000037" class="edge">
<title>Node49&#45;&gt;Node37</title>
<g id="a_edge36_Node000049_Node000037"><a xlink:title=" ">
<path fill="none" stroke="#63b8ff" d="M299.75,-165.45C257.25,-156.14 187.22,-140.81 140.98,-130.68"/>
<polygon fill="#63b8ff" stroke="#63b8ff" points="141.72,-127.26 131.2,-128.54 140.22,-134.1 141.72,-127.26"/>
</a>
</g>
</g>
<!-- Node49&#45;&gt;Node39 -->
<g id="edge35_Node000049_Node000039" class="edge">
<title>Node49&#45;&gt;Node39</title>
<g id="a_edge35_Node000049_Node000039"><a xlink:title=" ">
<path fill="none" stroke="#63b8ff" d="M321.99,-164.84C290.67,-146.16 216.5,-101.9 178.62,-79.3"/>
<polygon fill="#63b8ff" stroke="#63b8ff" points="180.2,-76.17 169.82,-74.05 176.62,-82.18 180.2,-76.17"/>
</a>
</g>
</g>
<!-- Node22 -->
<g id="Node000022" class="node">
<title>Node22</title>
<g id="a_Node000022"><a xlink:title=" ">
<polygon fill="#e0e0e0" stroke="#999999" points="563,-129 470,-129 470,-110 563,-110 563,-129"/>
<text text-anchor="middle" x="516.5" y="-117" font-family="Helvetica,sans-Serif" font-size="10.00">unordered_map</text>
</a>
</g>
</g>
<!-- Node49&#45;&gt;Node22 -->
<g id="edge39_Node000049_Node000022" class="edge">
<title>Node49&#45;&gt;Node22</title>
<g id="a_edge39_Node000049_Node000022"><a xlink:title=" ">
<path fill="none" stroke="#63b8ff" d="M365.42,-164.98C395.77,-156.05 443.67,-141.94 477.38,-132.02"/>
<polygon fill="#63b8ff" stroke="#63b8ff" points="478.75,-135.26 487.35,-129.08 476.77,-128.55 478.75,-135.26"/>
</a>
</g>
</g>
<!-- Node50&#45;&gt;Node36 -->
<g id="edge44_Node000050_Node000036" class="edge">
<title>Node50&#45;&gt;Node36</title>
<g id="a_edge44_Node000050_Node000036"><a xlink:title=" ">
<path fill="none" stroke="#63b8ff" d="M306.11,-274.98C289.93,-266.57 264.93,-253.59 246.12,-243.81"/>
<polygon fill="#63b8ff" stroke="#63b8ff" points="247.67,-240.68 237.19,-239.17 244.45,-246.89 247.67,-240.68"/>
</a>
</g>
</g>
<!-- Node51 -->
<g id="Node000051" class="node">
<title>Node51</title>
<g id="a_Node000051"><a xlink:href="bitvector__types_8h.html" target="_top" xlink:title="Pre&#45;defined bitvector types.">
<polygon fill="white" stroke="#666666" points="373,-239 272,-239 272,-220 373,-220 373,-239"/>
<text text-anchor="middle" x="322.5" y="-227" font-family="Helvetica,sans-Serif" font-size="10.00">bitvector_types.h</text>
</a>
</g>
</g>
<!-- Node50&#45;&gt;Node51 -->
<g id="edge42_Node000050_Node000051" class="edge">
<title>Node50&#45;&gt;Node51</title>
<g id="a_edge42_Node000050_Node000051"><a xlink:title=" ">
<path fill="none" stroke="#63b8ff" d="M322.5,-274.75C322.5,-267.8 322.5,-257.85 322.5,-249.13"/>
<polygon fill="#63b8ff" stroke="#63b8ff" points="326,-249.09 322.5,-239.09 319,-249.09 326,-249.09"/>
</a>
</g>
</g>
<!-- Node51&#45;&gt;Node49 -->
<g id="edge43_Node000051_Node000049" class="edge">
<title>Node51&#45;&gt;Node49</title>
<g id="a_edge43_Node000051_Node000049"><a xlink:title=" ">
<path fill="none" stroke="#63b8ff" d="M324.81,-219.75C326.67,-212.72 329.34,-202.62 331.65,-193.84"/>
<polygon fill="#63b8ff" stroke="#63b8ff" points="335.06,-194.65 334.23,-184.09 328.29,-192.86 335.06,-194.65"/>
</a>
</g>
</g>
<!-- Node52&#45;&gt;Node49 -->
<g id="edge47_Node000052_Node000049" class="edge">
<title>Node52&#45;&gt;Node49</title>
<g id="a_edge47_Node000052_Node000049"><a xlink:title=" ">
<path fill="none" stroke="#63b8ff" d="M594.68,-274.93C616.83,-262.78 650.58,-239.82 633.5,-220 601.77,-183.17 458.68,-176.38 383.29,-175.41"/>
<polygon fill="#63b8ff" stroke="#63b8ff" points="383.16,-171.91 373.13,-175.31 383.09,-178.91 383.16,-171.91"/>
</a>
</g>
</g>
<!-- Node53 -->
<g id="Node000053" class="node">
<title>Node53</title>
<g id="a_Node000053"><a xlink:href="cprover__prefix_8h.html" target="_top" xlink:title=" ">
<polygon fill="white" stroke="#666666" points="625,-239 530,-239 530,-220 625,-220 625,-239"/>
<text text-anchor="middle" x="577.5" y="-227" font-family="Helvetica,sans-Serif" font-size="10.00">cprover_prefix.h</text>
</a>
</g>
</g>
<!-- Node52&#45;&gt;Node53 -->
<g id="edge46_Node000052_Node000053" class="edge">
<title>Node52&#45;&gt;Node53</title>
<g id="a_edge46_Node000052_Node000053"><a xlink:title=" ">
<path fill="none" stroke="#63b8ff" d="M577.5,-274.75C577.5,-267.8 577.5,-257.85 577.5,-249.13"/>
<polygon fill="#63b8ff" stroke="#63b8ff" points="581,-249.09 577.5,-239.09 574,-249.09 581,-249.09"/>
</a>
</g>
</g>
<!-- Node54&#45;&gt;Node55 -->
<g id="edge50_Node000054_Node000055" class="edge">
<title>Node54&#45;&gt;Node55</title>
<g id="a_edge50_Node000054_Node000055"><a xlink:title=" ">
<path fill="none" stroke="#63b8ff" d="M819.15,-329.66C801.96,-311.46 762.38,-269.55 740.58,-246.47"/>
<polygon fill="#63b8ff" stroke="#63b8ff" points="743.09,-244.03 733.68,-239.16 738,-248.83 743.09,-244.03"/>
</a>
</g>
</g>
<!-- Node55&#45;&gt;Node39 -->
<g id="edge51_Node000055_Node000039" class="edge">
<title>Node55&#45;&gt;Node39</title>
<g id="a_edge51_Node000055_Node000039"><a xlink:title=" ">
<path fill="none" stroke="#63b8ff" d="M687.46,-219.98C664.31,-213.28 635.31,-201.99 614.5,-184 585.72,-159.12 603.41,-130.7 571.5,-110 539.67,-89.35 282.67,-72.76 189.27,-67.36"/>
<polygon fill="#63b8ff" stroke="#63b8ff" points="189.4,-63.87 179.22,-66.79 189.01,-70.86 189.4,-63.87"/>
</a>
</g>
</g>
<!-- Node55&#45;&gt;Node22 -->
<g id="edge52_Node000055_Node000022" class="edge">
<title>Node55&#45;&gt;Node22</title>
<g id="a_edge52_Node000055_Node000022"><a xlink:title=" ">
<path fill="none" stroke="#63b8ff" d="M681.29,-221.37C650.51,-214.98 609.43,-203.52 577.5,-184 557.63,-171.85 539.8,-151.67 528.62,-137.32"/>
<polygon fill="#63b8ff" stroke="#63b8ff" points="531.37,-135.15 522.57,-129.26 525.78,-139.36 531.37,-135.15"/>
</a>
</g>
</g>
<!-- Node57&#45;&gt;Node11 -->
<g id="edge57_Node000057_Node000011" class="edge">
<title>Node57&#45;&gt;Node11</title>
<g id="a_edge57_Node000057_Node000011"><a xlink:title=" ">
<path fill="none" stroke="#63b8ff" d="M693.94,-164.98C713.49,-156.42 743.88,-143.11 766.32,-133.28"/>
<polygon fill="#63b8ff" stroke="#63b8ff" points="767.95,-136.39 775.71,-129.17 765.14,-129.98 767.95,-136.39"/>
</a>
</g>
</g>
<!-- Node57&#45;&gt;Node13 -->
<g id="edge56_Node000057_Node000013" class="edge">
<title>Node57&#45;&gt;Node13</title>
<g id="a_edge56_Node000057_Node000013"><a xlink:title=" ">
<path fill="none" stroke="#63b8ff" d="M667.93,-164.87C656.77,-150.87 632.64,-123.43 605.5,-110 570.07,-92.46 461.84,-77.73 399.68,-70.43"/>
<polygon fill="#63b8ff" stroke="#63b8ff" points="399.71,-66.91 389.38,-69.24 398.91,-73.86 399.71,-66.91"/>
</a>
</g>
</g>
<!-- Node58&#45;&gt;Node32 -->
<g id="edge63_Node000058_Node000032" class="edge">
<title>Node58&#45;&gt;Node32</title>
<g id="a_edge63_Node000058_Node000032"><a xlink:title=" ">
<path fill="none" stroke="#63b8ff" d="M386.57,-390.37C388.53,-382.16 391.55,-369.54 394.06,-359.05"/>
<polygon fill="#63b8ff" stroke="#63b8ff" points="397.5,-359.71 396.43,-349.17 390.69,-358.08 397.5,-359.71"/>
</a>
</g>
</g>
<!-- Node58&#45;&gt;Node36 -->
<g id="edge62_Node000058_Node000036" class="edge">
<title>Node58&#45;&gt;Node36</title>
<g id="a_edge62_Node000058_Node000036"><a xlink:title=" ">
<path fill="none" stroke="#63b8ff" d="M368.39,-390.39C340.34,-374.66 282.2,-338.76 247.5,-294 237.06,-280.54 229.89,-262.44 225.58,-249.01"/>
<polygon fill="#63b8ff" stroke="#63b8ff" points="228.82,-247.62 222.62,-239.03 222.1,-249.61 228.82,-247.62"/>
</a>
</g>
</g>
<!-- Node59&#45;&gt;Node36 -->
<g id="edge69_Node000059_Node000036" class="edge">
<title>Node59&#45;&gt;Node36</title>
<g id="a_edge69_Node000059_Node000036"><a xlink:title=" ">
<path fill="none" stroke="#63b8ff" d="M93.76,-274.98C118.82,-266.19 158.13,-252.39 186.33,-242.49"/>
<polygon fill="#63b8ff" stroke="#63b8ff" points="187.52,-245.78 195.8,-239.17 185.2,-239.18 187.52,-245.78"/>
</a>
</g>
</g>
<!-- Node60 -->
<g id="Node000060" class="node">
<title>Node60</title>
<g id="a_Node000060"><a xlink:href="mathematical__types_8h.html" target="_top" xlink:title="Mathematical types.">
<polygon fill="white" stroke="#666666" points="144.5,-184 18.5,-184 18.5,-165 144.5,-165 144.5,-184"/>
<text text-anchor="middle" x="81.5" y="-172" font-family="Helvetica,sans-Serif" font-size="10.00">mathematical_types.h</text>
</a>
</g>
</g>
<!-- Node59&#45;&gt;Node60 -->
<g id="edge65_Node000059_Node000060" class="edge">
<title>Node59&#45;&gt;Node60</title>
<g id="a_edge65_Node000059_Node000060"><a xlink:title=" ">
<path fill="none" stroke="#63b8ff" d="M70.48,-274.66C72.43,-257.17 76.8,-217.8 79.41,-194.27"/>
<polygon fill="#63b8ff" stroke="#63b8ff" points="82.91,-194.48 80.54,-184.16 75.95,-193.71 82.91,-194.48"/>
</a>
</g>
</g>
<!-- Node60&#45;&gt;Node13 -->
<g id="edge67_Node000060_Node000013" class="edge">
<title>Node60&#45;&gt;Node13</title>
<g id="a_edge67_Node000060_Node000013"><a xlink:title=" ">
<path fill="none" stroke="#63b8ff" d="M98.93,-164.89C125.17,-152.09 176.54,-127.66 221.5,-110 253.05,-97.61 289.62,-85.53 316.41,-77.09"/>
<polygon fill="#63b8ff" stroke="#63b8ff" points="317.67,-80.37 326.18,-74.05 315.59,-73.69 317.67,-80.37"/>
</a>
</g>
</g>
<!-- Node60&#45;&gt;Node37 -->
<g id="edge66_Node000060_Node000037" class="edge">
<title>Node60&#45;&gt;Node37</title>
<g id="a_edge66_Node000060_Node000037"><a xlink:title=" ">
<path fill="none" stroke="#63b8ff" d="M83.65,-164.75C85.37,-157.72 87.85,-147.62 90,-138.84"/>
<polygon fill="#63b8ff" stroke="#63b8ff" points="93.41,-139.63 92.39,-129.09 86.61,-137.97 93.41,-139.63"/>
</a>
</g>
</g>
<!-- Node60&#45;&gt;Node40 -->
<g id="edge68_Node000060_Node000040" class="edge">
<title>Node60&#45;&gt;Node40</title>
<g id="a_edge68_Node000060_Node000040"><a xlink:title=" ">
<path fill="none" stroke="#63b8ff" d="M72.48,-164.96C64.43,-156.66 53.21,-143.25 48.5,-129 37.35,-95.25 42.16,-53.1 46.46,-29.24"/>
<polygon fill="#63b8ff" stroke="#63b8ff" points="49.96,-29.61 48.47,-19.12 43.09,-28.25 49.96,-29.61"/>
</a>
</g>
</g>
</g>
</svg>
