<?xml version="1.0" encoding="UTF-8" standalone="no"?>
<!DOCTYPE svg PUBLIC "-//W3C//DTD SVG 1.1//EN"
 "http://www.w3.org/Graphics/SVG/1.1/DTD/svg11.dtd">
<!-- Generated by graphviz version 2.43.0 (0)
 -->
<!-- Title: /home/runner/work/cbmc/cbmc/src/solvers/strings/string_format_builtin_function.h Pages: 1 -->
<svg width="978pt" height="610pt"
 viewBox="0.00 0.00 977.50 610.00" xmlns="http://www.w3.org/2000/svg" xmlns:xlink="http://www.w3.org/1999/xlink">
<g id="graph0" class="graph" transform="scale(1 1) rotate(0) translate(4 606)">
<title>/home/runner/work/cbmc/cbmc/src/solvers/strings/string_format_builtin_function.h</title>
<!-- Node1 -->
<g id="Node000001" class="node">
<title>Node1</title>
<g id="a_Node000001"><a xlink:title="Built&#45;in function for String.format.">
<polygon fill="#999999" stroke="#666666" points="962.5,-602 786.5,-602 786.5,-561 962.5,-561 962.5,-602"/>
<text text-anchor="start" x="794.5" y="-590" font-family="Helvetica,sans-Serif" font-size="10.00">/home/runner/work/cbmc</text>
<text text-anchor="start" x="794.5" y="-579" font-family="Helvetica,sans-Serif" font-size="10.00">/cbmc/src/solvers/strings</text>
<text text-anchor="middle" x="874.5" y="-568" font-family="Helvetica,sans-Serif" font-size="10.00">/string_format_builtin_function.h</text>
</a>
</g>
</g>
<!-- Node2 -->
<g id="Node000002" class="node">
<title>Node2</title>
<g id="a_Node000002"><a xlink:href="string__builtin__function_8h.html" target="_top" xlink:title=" ">
<polygon fill="white" stroke="#666666" points="941.5,-525 807.5,-525 807.5,-506 941.5,-506 941.5,-525"/>
<text text-anchor="middle" x="874.5" y="-513" font-family="Helvetica,sans-Serif" font-size="10.00">string_builtin_function.h</text>
</a>
</g>
</g>
<!-- Node1&#45;&gt;Node2 -->
<g id="edge1_Node000001_Node000002" class="edge">
<title>Node1&#45;&gt;Node2</title>
<g id="a_edge1_Node000001_Node000002"><a xlink:title=" ">
<path fill="none" stroke="#63b8ff" d="M874.5,-560.95C874.5,-552.85 874.5,-543.5 874.5,-535.47"/>
<polygon fill="#63b8ff" stroke="#63b8ff" points="878,-535.26 874.5,-525.26 871,-535.26 878,-535.26"/>
</a>
</g>
</g>
<!-- Node3 -->
<g id="Node000003" class="node">
<title>Node3</title>
<g id="a_Node000003"><a xlink:href="string__constraint__generator_8h.html" target="_top" xlink:title="Generates string constraints to link results from string functions with their arguments.">
<polygon fill="white" stroke="#666666" points="603,-470 444,-470 444,-451 603,-451 603,-470"/>
<text text-anchor="middle" x="523.5" y="-458" font-family="Helvetica,sans-Serif" font-size="10.00">string_constraint_generator.h</text>
</a>
</g>
</g>
<!-- Node2&#45;&gt;Node3 -->
<g id="edge2_Node000002_Node000003" class="edge">
<title>Node2&#45;&gt;Node3</title>
<g id="a_edge2_Node000002_Node000003"><a xlink:title=" ">
<path fill="none" stroke="#63b8ff" d="M818.11,-505.98C756.02,-496.61 656.29,-481.55 590.33,-471.59"/>
<polygon fill="#63b8ff" stroke="#63b8ff" points="590.46,-468.07 580.04,-470.04 589.41,-474.99 590.46,-468.07"/>
</a>
</g>
</g>
<!-- Node12 -->
<g id="Node000012" class="node">
<title>Node12</title>
<g id="a_Node000012"><a xlink:title=" ">
<polygon fill="#e0e0e0" stroke="#999999" points="642,-74 595,-74 595,-55 642,-55 642,-74"/>
<text text-anchor="middle" x="618.5" y="-62" font-family="Helvetica,sans-Serif" font-size="10.00">vector</text>
</a>
</g>
</g>
<!-- Node2&#45;&gt;Node12 -->
<g id="edge70_Node000002_Node000012" class="edge">
<title>Node2&#45;&gt;Node12</title>
<g id="a_edge70_Node000002_Node000012"><a xlink:title=" ">
<path fill="none" stroke="#63b8ff" d="M889.76,-505.76C916.62,-489.1 969.5,-450.08 969.5,-401 969.5,-401 969.5,-401 969.5,-173.5 969.5,-28.59 802.59,-106.34 652.16,-73.97"/>
<polygon fill="#63b8ff" stroke="#63b8ff" points="652.81,-70.52 642.28,-71.67 651.23,-77.34 652.81,-70.52"/>
</a>
</g>
</g>
<!-- Node32 -->
<g id="Node000032" class="node">
<title>Node32</title>
<g id="a_Node000032"><a xlink:href="string__expr_8h.html" target="_top" xlink:title="String expressions for the string solver.">
<polygon fill="white" stroke="#666666" points="560.5,-349 462.5,-349 462.5,-330 560.5,-330 560.5,-349"/>
<text text-anchor="middle" x="511.5" y="-337" font-family="Helvetica,sans-Serif" font-size="10.00">util/string_expr.h</text>
</a>
</g>
</g>
<!-- Node2&#45;&gt;Node32 -->
<g id="edge69_Node000002_Node000032" class="edge">
<title>Node2&#45;&gt;Node32</title>
<g id="a_edge69_Node000002_Node000032"><a xlink:title=" ">
<path fill="none" stroke="#63b8ff" d="M869.7,-505.77C856.11,-481.95 814.79,-415.57 760.5,-385 728.83,-367.16 634.01,-353.79 570.94,-346.56"/>
<polygon fill="#63b8ff" stroke="#63b8ff" points="571.05,-343.05 560.72,-345.41 570.27,-350.01 571.05,-343.05"/>
</a>
</g>
</g>
<!-- Node59 -->
<g id="Node000059" class="node">
<title>Node59</title>
<g id="a_Node000059"><a xlink:href="mathematical__expr_8h.html" target="_top" xlink:title="API to expression classes for &#39;mathematical&#39; expressions.">
<polygon fill="white" stroke="#666666" points="865,-294 726,-294 726,-275 865,-275 865,-294"/>
<text text-anchor="middle" x="795.5" y="-282" font-family="Helvetica,sans-Serif" font-size="10.00">util/mathematical_expr.h</text>
</a>
</g>
</g>
<!-- Node2&#45;&gt;Node59 -->
<g id="edge63_Node000002_Node000059" class="edge">
<title>Node2&#45;&gt;Node59</title>
<g id="a_edge63_Node000002_Node000059"><a xlink:title=" ">
<path fill="none" stroke="#63b8ff" d="M871.7,-505.86C867.71,-493.62 860.16,-470.57 853.5,-451 835.23,-397.35 812.86,-334.22 802.02,-303.76"/>
<polygon fill="#63b8ff" stroke="#63b8ff" points="805.23,-302.34 798.57,-294.1 798.63,-304.69 805.23,-302.34"/>
</a>
</g>
</g>
<!-- Node4 -->
<g id="Node000004" class="node">
<title>Node4</title>
<g id="a_Node000004"><a xlink:title=" ">
<polygon fill="#e0e0e0" stroke="#999999" points="280.5,-239 236.5,-239 236.5,-220 280.5,-220 280.5,-239"/>
<text text-anchor="middle" x="258.5" y="-227" font-family="Helvetica,sans-Serif" font-size="10.00">limits</text>
</a>
</g>
</g>
<!-- Node3&#45;&gt;Node4 -->
<g id="edge3_Node000003_Node000004" class="edge">
<title>Node3&#45;&gt;Node4</title>
<g id="a_edge3_Node000003_Node000004"><a xlink:title=" ">
<path fill="none" stroke="#63b8ff" d="M443.91,-455.26C380.82,-450.13 299.7,-438.96 277.5,-415 234.86,-368.97 246.12,-286.13 253.93,-249.18"/>
<polygon fill="#63b8ff" stroke="#63b8ff" points="257.38,-249.8 256.19,-239.27 250.56,-248.25 257.38,-249.8"/>
</a>
</g>
</g>
<!-- Node5 -->
<g id="Node000005" class="node">
<title>Node5</title>
<g id="a_Node000005"><a xlink:href="string__constraint_8h.html" target="_top" xlink:title="Defines string constraints.">
<polygon fill="white" stroke="#666666" points="751,-415 632,-415 632,-385 751,-385 751,-415"/>
<text text-anchor="start" x="640" y="-403" font-family="Helvetica,sans-Serif" font-size="10.00">solvers/strings/string</text>
<text text-anchor="middle" x="691.5" y="-392" font-family="Helvetica,sans-Serif" font-size="10.00">_constraint.h</text>
</a>
</g>
</g>
<!-- Node3&#45;&gt;Node5 -->
<g id="edge4_Node000003_Node000005" class="edge">
<title>Node3&#45;&gt;Node5</title>
<g id="a_edge4_Node000003_Node000005"><a xlink:title=" ">
<path fill="none" stroke="#63b8ff" d="M547.93,-450.99C572.32,-442.5 610.51,-429.2 641.37,-418.45"/>
<polygon fill="#63b8ff" stroke="#63b8ff" points="642.82,-421.66 651.11,-415.06 640.52,-415.05 642.82,-421.66"/>
</a>
</g>
</g>
<!-- Node3&#45;&gt;Node32 -->
<g id="edge59_Node000003_Node000032" class="edge">
<title>Node3&#45;&gt;Node32</title>
<g id="a_edge59_Node000003_Node000032"><a xlink:title=" ">
<path fill="none" stroke="#63b8ff" d="M467.79,-451C446.51,-444.74 424.31,-433.87 411.5,-415 404.01,-403.97 404.24,-396.18 411.5,-385 421.76,-369.2 439.07,-358.97 456.44,-352.35"/>
<polygon fill="#63b8ff" stroke="#63b8ff" points="457.73,-355.61 466.04,-349.04 455.45,-348.99 457.73,-355.61"/>
</a>
</g>
</g>
<!-- Node52 -->
<g id="Node000052" class="node">
<title>Node52</title>
<g id="a_Node000052"><a xlink:href="refined__string__type_8h.html" target="_top" xlink:title="Type for string expressions used by the string solver.">
<polygon fill="white" stroke="#666666" points="708,-294 589,-294 589,-275 708,-275 708,-294"/>
<text text-anchor="middle" x="648.5" y="-282" font-family="Helvetica,sans-Serif" font-size="10.00">refined_string_type.h</text>
</a>
</g>
</g>
<!-- Node3&#45;&gt;Node52 -->
<g id="edge57_Node000003_Node000052" class="edge">
<title>Node3&#45;&gt;Node52</title>
<g id="a_edge57_Node000003_Node000052"><a xlink:title=" ">
<path fill="none" stroke="#63b8ff" d="M603.28,-455.2C664.08,-450.06 740.65,-438.92 760.5,-415 784.62,-385.93 781.72,-361.26 760.5,-330 749.69,-314.08 732.2,-303.85 714.21,-297.29"/>
<polygon fill="#63b8ff" stroke="#63b8ff" points="714.8,-293.8 704.21,-294 712.62,-300.45 714.8,-293.8"/>
</a>
</g>
</g>
<!-- Node55 -->
<g id="Node000055" class="node">
<title>Node55</title>
<g id="a_Node000055"><a xlink:href="replace__expr_8h.html" target="_top" xlink:title=" ">
<polygon fill="white" stroke="#666666" points="924.5,-239 836.5,-239 836.5,-220 924.5,-220 924.5,-239"/>
<text text-anchor="middle" x="880.5" y="-227" font-family="Helvetica,sans-Serif" font-size="10.00">replace_expr.h</text>
</a>
</g>
</g>
<!-- Node3&#45;&gt;Node55 -->
<g id="edge58_Node000003_Node000055" class="edge">
<title>Node3&#45;&gt;Node55</title>
<g id="a_edge58_Node000003_Node000055"><a xlink:title=" ">
<path fill="none" stroke="#63b8ff" d="M603.19,-458.95C656.54,-455.52 726.74,-444.89 781.5,-415 845.56,-380.04 866.03,-362.01 892.5,-294 898.22,-279.31 894.05,-261.63 889.12,-248.66"/>
<polygon fill="#63b8ff" stroke="#63b8ff" points="892.32,-247.24 885.18,-239.41 885.88,-249.98 892.32,-247.24"/>
</a>
</g>
</g>
<!-- Node56 -->
<g id="Node000056" class="node">
<title>Node56</title>
<g id="a_Node000056"><a xlink:title=" ">
<polygon fill="#e0e0e0" stroke="#999999" points="521,-409.5 420,-409.5 420,-390.5 521,-390.5 521,-409.5"/>
<text text-anchor="middle" x="470.5" y="-397.5" font-family="Helvetica,sans-Serif" font-size="10.00">util/constexpr.def</text>
</a>
</g>
</g>
<!-- Node3&#45;&gt;Node56 -->
<g id="edge52_Node000003_Node000056" class="edge">
<title>Node3&#45;&gt;Node56</title>
<g id="a_edge52_Node000003_Node000056"><a xlink:title=" ">
<path fill="none" stroke="#63b8ff" d="M515.68,-450.87C507.69,-442.05 495.11,-428.16 485.24,-417.27"/>
<polygon fill="#63b8ff" stroke="#63b8ff" points="487.66,-414.73 478.35,-409.67 482.47,-419.43 487.66,-414.73"/>
</a>
</g>
</g>
<!-- Node42 -->
<g id="Node000042" class="node">
<title>Node42</title>
<g id="a_Node000042"><a xlink:href="deprecate_8h.html" target="_top" xlink:title=" ">
<polygon fill="white" stroke="#666666" points="613.5,-409.5 539.5,-409.5 539.5,-390.5 613.5,-390.5 613.5,-409.5"/>
<text text-anchor="middle" x="576.5" y="-397.5" font-family="Helvetica,sans-Serif" font-size="10.00">deprecate.h</text>
</a>
</g>
</g>
<!-- Node3&#45;&gt;Node42 -->
<g id="edge53_Node000003_Node000042" class="edge">
<title>Node3&#45;&gt;Node42</title>
<g id="a_edge53_Node000003_Node000042"><a xlink:title=" ">
<path fill="none" stroke="#63b8ff" d="M531.32,-450.87C539.31,-442.05 551.89,-428.16 561.76,-417.27"/>
<polygon fill="#63b8ff" stroke="#63b8ff" points="564.53,-419.43 568.65,-409.67 559.34,-414.73 564.53,-419.43"/>
</a>
</g>
</g>
<!-- Node57 -->
<g id="Node000057" class="node">
<title>Node57</title>
<g id="a_Node000057"><a xlink:href="namespace_8h.html" target="_top" xlink:title=" ">
<polygon fill="white" stroke="#666666" points="391,-184 290,-184 290,-165 391,-165 391,-184"/>
<text text-anchor="middle" x="340.5" y="-172" font-family="Helvetica,sans-Serif" font-size="10.00">util/namespace.h</text>
</a>
</g>
</g>
<!-- Node3&#45;&gt;Node57 -->
<g id="edge54_Node000003_Node000057" class="edge">
<title>Node3&#45;&gt;Node57</title>
<g id="a_edge54_Node000003_Node000057"><a xlink:title=" ">
<path fill="none" stroke="#63b8ff" d="M443.83,-453.61C375.97,-447.28 284.77,-435.3 254.5,-415 222.18,-393.32 208.5,-379.41 208.5,-340.5 208.5,-340.5 208.5,-340.5 208.5,-283.5 208.5,-254.04 207.57,-241.69 227.5,-220 242.21,-203.99 263.41,-193.66 283.48,-187.03"/>
<polygon fill="#63b8ff" stroke="#63b8ff" points="284.66,-190.32 293.21,-184.06 282.62,-183.63 284.66,-190.32"/>
</a>
</g>
</g>
<!-- Node58 -->
<g id="Node000058" class="node">
<title>Node58</title>
<g id="a_Node000058"><a xlink:href="array__pool_8h.html" target="_top" xlink:title="Associates arrays and length to pointers, so that the string refinement can transform builtin functio...">
<polygon fill="white" stroke="#666666" points="363,-409.5 286,-409.5 286,-390.5 363,-390.5 363,-409.5"/>
<text text-anchor="middle" x="324.5" y="-397.5" font-family="Helvetica,sans-Serif" font-size="10.00">array_pool.h</text>
</a>
</g>
</g>
<!-- Node3&#45;&gt;Node58 -->
<g id="edge60_Node000003_Node000058" class="edge">
<title>Node3&#45;&gt;Node58</title>
<g id="a_edge60_Node000003_Node000058"><a xlink:title=" ">
<path fill="none" stroke="#63b8ff" d="M494.56,-450.99C459.93,-440.81 401.8,-423.72 363.29,-412.4"/>
<polygon fill="#63b8ff" stroke="#63b8ff" points="364.05,-408.98 353.47,-409.52 362.08,-415.7 364.05,-408.98"/>
</a>
</g>
</g>
<!-- Node6 -->
<g id="Node000006" class="node">
<title>Node6</title>
<g id="a_Node000006"><a xlink:href="format__expr_8h.html" target="_top" xlink:title=" ">
<polygon fill="white" stroke="#666666" points="271.5,-184 167.5,-184 167.5,-165 271.5,-165 271.5,-184"/>
<text text-anchor="middle" x="219.5" y="-172" font-family="Helvetica,sans-Serif" font-size="10.00">util/format_expr.h</text>
</a>
</g>
</g>
<!-- Node5&#45;&gt;Node6 -->
<g id="edge5_Node000005_Node000006" class="edge">
<title>Node5&#45;&gt;Node6</title>
<g id="a_edge5_Node000005_Node000006"><a xlink:title=" ">
<path fill="none" stroke="#63b8ff" d="M631.89,-386.7C564.25,-372.72 462.12,-351.48 453.5,-349 385.67,-329.47 366.89,-327.03 304.5,-294 267.33,-274.32 249.05,-275.12 227.5,-239 219.57,-225.72 217.9,-208.1 218.03,-194.79"/>
<polygon fill="#63b8ff" stroke="#63b8ff" points="221.54,-194.57 218.49,-184.43 214.55,-194.26 221.54,-194.57"/>
</a>
</g>
</g>
<!-- Node5&#45;&gt;Node32 -->
<g id="edge19_Node000005_Node000032" class="edge">
<title>Node5&#45;&gt;Node32</title>
<g id="a_edge19_Node000005_Node000032"><a xlink:title=" ">
<path fill="none" stroke="#63b8ff" d="M648.39,-384.99C617.59,-374.98 576.63,-361.67 547.57,-352.22"/>
<polygon fill="#63b8ff" stroke="#63b8ff" points="548.41,-348.82 537.82,-349.05 546.25,-355.47 548.41,-348.82"/>
</a>
</g>
</g>
<!-- Node54 -->
<g id="Node000054" class="node">
<title>Node54</title>
<g id="a_Node000054"><a xlink:href="union__find__replace_8h.html" target="_top" xlink:title=" ">
<polygon fill="white" stroke="#666666" points="751.5,-349 615.5,-349 615.5,-330 751.5,-330 751.5,-349"/>
<text text-anchor="middle" x="683.5" y="-337" font-family="Helvetica,sans-Serif" font-size="10.00">util/union_find_replace.h</text>
</a>
</g>
</g>
<!-- Node5&#45;&gt;Node54 -->
<g id="edge48_Node000005_Node000054" class="edge">
<title>Node5&#45;&gt;Node54</title>
<g id="a_edge48_Node000005_Node000054"><a xlink:title=" ">
<path fill="none" stroke="#63b8ff" d="M689.56,-384.84C688.52,-377.21 687.22,-367.7 686.09,-359.45"/>
<polygon fill="#63b8ff" stroke="#63b8ff" points="689.52,-358.7 684.7,-349.27 682.59,-359.65 689.52,-358.7"/>
</a>
</g>
</g>
<!-- Node7 -->
<g id="Node000007" class="node">
<title>Node7</title>
<g id="a_Node000007"><a xlink:href="format_8h.html" target="_top" xlink:title=" ">
<polygon fill="white" stroke="#666666" points="146,-129 87,-129 87,-110 146,-110 146,-129"/>
<text text-anchor="middle" x="116.5" y="-117" font-family="Helvetica,sans-Serif" font-size="10.00">format.h</text>
</a>
</g>
</g>
<!-- Node6&#45;&gt;Node7 -->
<g id="edge6_Node000006_Node000007" class="edge">
<title>Node6&#45;&gt;Node7</title>
<g id="a_edge6_Node000006_Node000007"><a xlink:title=" ">
<path fill="none" stroke="#63b8ff" d="M202.95,-164.98C186.61,-156.57 161.37,-143.59 142.37,-133.81"/>
<polygon fill="#63b8ff" stroke="#63b8ff" points="143.84,-130.63 133.35,-129.17 140.64,-136.86 143.84,-130.63"/>
</a>
</g>
</g>
<!-- Node11 -->
<g id="Node000011" class="node">
<title>Node11</title>
<g id="a_Node000011"><a xlink:href="irep_8h.html" target="_top" xlink:title=" ">
<polygon fill="white" stroke="#666666" points="359.5,-129 315.5,-129 315.5,-110 359.5,-110 359.5,-129"/>
<text text-anchor="middle" x="337.5" y="-117" font-family="Helvetica,sans-Serif" font-size="10.00">irep.h</text>
</a>
</g>
</g>
<!-- Node6&#45;&gt;Node11 -->
<g id="edge10_Node000006_Node000011" class="edge">
<title>Node6&#45;&gt;Node11</title>
<g id="a_edge10_Node000006_Node000011"><a xlink:title=" ">
<path fill="none" stroke="#63b8ff" d="M238.46,-164.98C257.53,-156.42 287.16,-143.11 309.05,-133.28"/>
<polygon fill="#63b8ff" stroke="#63b8ff" points="310.51,-136.46 318.2,-129.17 307.64,-130.07 310.51,-136.46"/>
</a>
</g>
</g>
<!-- Node31 -->
<g id="Node000031" class="node">
<title>Node31</title>
<g id="a_Node000031"><a xlink:title=" ">
<polygon fill="#e0e0e0" stroke="#999999" points="599,-19 534,-19 534,0 599,0 599,-19"/>
<text text-anchor="middle" x="566.5" y="-7" font-family="Helvetica,sans-Serif" font-size="10.00">functional</text>
</a>
</g>
</g>
<!-- Node6&#45;&gt;Node31 -->
<g id="edge18_Node000006_Node000031" class="edge">
<title>Node6&#45;&gt;Node31</title>
<g id="a_edge18_Node000006_Node000031"><a xlink:title=" ">
<path fill="none" stroke="#63b8ff" d="M213.3,-164.79C198.81,-143.28 166.03,-87.08 194.5,-55 205.35,-42.78 428.41,-22.32 523.82,-14.09"/>
<polygon fill="#63b8ff" stroke="#63b8ff" points="524.33,-17.56 533.99,-13.22 523.73,-10.59 524.33,-17.56"/>
</a>
</g>
</g>
<!-- Node8 -->
<g id="Node000008" class="node">
<title>Node8</title>
<g id="a_Node000008"><a xlink:title=" ">
<polygon fill="#e0e0e0" stroke="#999999" points="70.5,-74 22.5,-74 22.5,-55 70.5,-55 70.5,-74"/>
<text text-anchor="middle" x="46.5" y="-62" font-family="Helvetica,sans-Serif" font-size="10.00">iosfwd</text>
</a>
</g>
</g>
<!-- Node7&#45;&gt;Node8 -->
<g id="edge7_Node000007_Node000008" class="edge">
<title>Node7&#45;&gt;Node8</title>
<g id="a_edge7_Node000007_Node000008"><a xlink:title=" ">
<path fill="none" stroke="#63b8ff" d="M105.25,-109.98C94.7,-102 78.7,-89.88 66.06,-80.31"/>
<polygon fill="#63b8ff" stroke="#63b8ff" points="68.04,-77.42 57.95,-74.17 63.81,-83 68.04,-77.42"/>
</a>
</g>
</g>
<!-- Node9 -->
<g id="Node000009" class="node">
<title>Node9</title>
<g id="a_Node000009"><a xlink:title=" ">
<polygon fill="#e0e0e0" stroke="#999999" points="435.5,-19 379.5,-19 379.5,0 435.5,0 435.5,-19"/>
<text text-anchor="middle" x="407.5" y="-7" font-family="Helvetica,sans-Serif" font-size="10.00">sstream</text>
</a>
</g>
</g>
<!-- Node7&#45;&gt;Node9 -->
<g id="edge8_Node000007_Node000009" class="edge">
<title>Node7&#45;&gt;Node9</title>
<g id="a_edge8_Node000007_Node000009"><a xlink:title=" ">
<path fill="none" stroke="#63b8ff" d="M119.86,-109.88C125.8,-95.9 139.52,-68.49 160.5,-55 194.38,-33.21 308.17,-19.68 368.76,-13.85"/>
<polygon fill="#63b8ff" stroke="#63b8ff" points="369.45,-17.3 379.07,-12.88 368.79,-10.33 369.45,-17.3"/>
</a>
</g>
</g>
<!-- Node10 -->
<g id="Node000010" class="node">
<title>Node10</title>
<g id="a_Node000010"><a xlink:title=" ">
<polygon fill="#e0e0e0" stroke="#999999" points="201.5,-19 157.5,-19 157.5,0 201.5,0 201.5,-19"/>
<text text-anchor="middle" x="179.5" y="-7" font-family="Helvetica,sans-Serif" font-size="10.00">string</text>
</a>
</g>
</g>
<!-- Node7&#45;&gt;Node10 -->
<g id="edge9_Node000007_Node000010" class="edge">
<title>Node7&#45;&gt;Node10</title>
<g id="a_edge9_Node000007_Node000010"><a xlink:title=" ">
<path fill="none" stroke="#63b8ff" d="M115.24,-109.66C113.85,-96.77 112.93,-72.48 122.5,-55 129.5,-42.23 141.85,-31.89 153.28,-24.41"/>
<polygon fill="#63b8ff" stroke="#63b8ff" points="155.4,-27.22 162.12,-19.03 151.76,-21.24 155.4,-27.22"/>
</a>
</g>
</g>
<!-- Node11&#45;&gt;Node10 -->
<g id="edge11_Node000011_Node000010" class="edge">
<title>Node11&#45;&gt;Node10</title>
<g id="a_edge11_Node000011_Node000010"><a xlink:title=" ">
<path fill="none" stroke="#63b8ff" d="M359.58,-112.14C391.07,-101.99 442.85,-80.64 421.5,-55 395.18,-23.4 271.59,-14.16 211.91,-11.52"/>
<polygon fill="#63b8ff" stroke="#63b8ff" points="211.68,-8.01 201.55,-11.1 211.4,-15.01 211.68,-8.01"/>
</a>
</g>
</g>
<!-- Node11&#45;&gt;Node12 -->
<g id="edge12_Node000011_Node000012" class="edge">
<title>Node11&#45;&gt;Node12</title>
<g id="a_edge12_Node000011_Node000012"><a xlink:title=" ">
<path fill="none" stroke="#63b8ff" d="M359.55,-114.34C408.51,-105.11 526.57,-82.84 584.83,-71.85"/>
<polygon fill="#63b8ff" stroke="#63b8ff" points="585.8,-75.23 594.98,-69.94 584.5,-68.35 585.8,-75.23"/>
</a>
</g>
</g>
<!-- Node13 -->
<g id="Node000013" class="node">
<title>Node13</title>
<g id="a_Node000013"><a xlink:href="src_2util_2invariant_8h.html" target="_top" xlink:title=" ">
<polygon fill="#fff0f0" stroke="red" points="538,-74 469,-74 469,-55 538,-55 538,-74"/>
<text text-anchor="middle" x="503.5" y="-62" font-family="Helvetica,sans-Serif" font-size="10.00">invariant.h</text>
</a>
</g>
</g>
<!-- Node11&#45;&gt;Node13 -->
<g id="edge13_Node000011_Node000013" class="edge">
<title>Node11&#45;&gt;Node13</title>
<g id="a_edge13_Node000011_Node000013"><a xlink:title=" ">
<path fill="none" stroke="#63b8ff" d="M359.54,-111.46C386.96,-102.71 434.15,-87.64 466.99,-77.16"/>
<polygon fill="#63b8ff" stroke="#63b8ff" points="468.23,-80.44 476.69,-74.06 466.1,-73.77 468.23,-80.44"/>
</a>
</g>
</g>
<!-- Node16 -->
<g id="Node000016" class="node">
<title>Node16</title>
<g id="a_Node000016"><a xlink:href="irep__ids_8h.html" target="_top" xlink:title="util">
<polygon fill="#fff0f0" stroke="red" points="412.5,-74 348.5,-74 348.5,-55 412.5,-55 412.5,-74"/>
<text text-anchor="middle" x="380.5" y="-62" font-family="Helvetica,sans-Serif" font-size="10.00">irep_ids.h</text>
</a>
</g>
</g>
<!-- Node11&#45;&gt;Node16 -->
<g id="edge16_Node000011_Node000016" class="edge">
<title>Node11&#45;&gt;Node16</title>
<g id="a_edge16_Node000011_Node000016"><a xlink:title=" ">
<path fill="none" stroke="#63b8ff" d="M344.6,-109.75C350.67,-102.26 359.59,-91.28 367.01,-82.13"/>
<polygon fill="#63b8ff" stroke="#63b8ff" points="369.95,-84.06 373.53,-74.09 364.51,-79.65 369.95,-84.06"/>
</a>
</g>
</g>
<!-- Node26 -->
<g id="Node000026" class="node">
<title>Node26</title>
<g id="a_Node000026"><a xlink:href="forward__list__as__map_8h.html" target="_top" xlink:title=" ">
<polygon fill="#fff0f0" stroke="red" points="330,-74 203,-74 203,-55 330,-55 330,-74"/>
<text text-anchor="middle" x="266.5" y="-62" font-family="Helvetica,sans-Serif" font-size="10.00">forward_list_as_map.h</text>
</a>
</g>
</g>
<!-- Node11&#45;&gt;Node26 -->
<g id="edge17_Node000011_Node000026" class="edge">
<title>Node11&#45;&gt;Node26</title>
<g id="a_edge17_Node000011_Node000026"><a xlink:title=" ">
<path fill="none" stroke="#63b8ff" d="M326.09,-109.98C315.39,-102 299.16,-89.88 286.34,-80.31"/>
<polygon fill="#63b8ff" stroke="#63b8ff" points="288.22,-77.35 278.11,-74.17 284.03,-82.96 288.22,-77.35"/>
</a>
</g>
</g>
<!-- Node13&#45;&gt;Node9 -->
<g id="edge14_Node000013_Node000009" class="edge">
<title>Node13&#45;&gt;Node9</title>
<g id="a_edge14_Node000013_Node000009"><a xlink:title=" ">
<path fill="none" stroke="#63b8ff" d="M488.08,-54.98C473.05,-46.69 449.96,-33.94 432.34,-24.22"/>
<polygon fill="#63b8ff" stroke="#63b8ff" points="433.65,-20.94 423.2,-19.17 430.27,-27.07 433.65,-20.94"/>
</a>
</g>
</g>
<!-- Node13&#45;&gt;Node10 -->
<g id="edge15_Node000013_Node000010" class="edge">
<title>Node13&#45;&gt;Node10</title>
<g id="a_edge15_Node000013_Node000010"><a xlink:title=" ">
<path fill="none" stroke="#63b8ff" d="M468.97,-57.46C464.12,-56.63 459.18,-55.79 454.5,-55 366.77,-40.29 263.16,-23.75 211.76,-15.6"/>
<polygon fill="#63b8ff" stroke="#63b8ff" points="212.04,-12.1 201.61,-13.99 210.94,-19.01 212.04,-12.1"/>
</a>
</g>
</g>
<!-- Node33 -->
<g id="Node000033" class="node">
<title>Node33</title>
<g id="a_Node000033"><a xlink:href="arith__tools_8h.html" target="_top" xlink:title=" ">
<polygon fill="white" stroke="#666666" points="390,-294 313,-294 313,-275 390,-275 390,-294"/>
<text text-anchor="middle" x="351.5" y="-282" font-family="Helvetica,sans-Serif" font-size="10.00">arith_tools.h</text>
</a>
</g>
</g>
<!-- Node32&#45;&gt;Node33 -->
<g id="edge20_Node000032_Node000033" class="edge">
<title>Node32&#45;&gt;Node33</title>
<g id="a_edge20_Node000032_Node000033"><a xlink:title=" ">
<path fill="none" stroke="#63b8ff" d="M485.79,-329.98C459.05,-321.13 416.97,-307.19 387.05,-297.28"/>
<polygon fill="#63b8ff" stroke="#63b8ff" points="388,-293.9 377.41,-294.08 385.8,-300.55 388,-293.9"/>
</a>
</g>
</g>
<!-- Node36 -->
<g id="Node000036" class="node">
<title>Node36</title>
<g id="a_Node000036"><a xlink:href="std__expr_8h.html" target="_top" xlink:title="API to expression classes.">
<polygon fill="white" stroke="#666666" points="497,-239 430,-239 430,-220 497,-220 497,-239"/>
<text text-anchor="middle" x="463.5" y="-227" font-family="Helvetica,sans-Serif" font-size="10.00">std_expr.h</text>
</a>
</g>
</g>
<!-- Node32&#45;&gt;Node36 -->
<g id="edge47_Node000032_Node000036" class="edge">
<title>Node32&#45;&gt;Node36</title>
<g id="a_edge47_Node000032_Node000036"><a xlink:title=" ">
<path fill="none" stroke="#63b8ff" d="M502.29,-329.87C493.96,-321.52 482.01,-308.07 475.5,-294 468.94,-279.83 465.97,-262.29 464.62,-249.24"/>
<polygon fill="#63b8ff" stroke="#63b8ff" points="468.09,-248.81 463.8,-239.12 461.12,-249.37 468.09,-248.81"/>
</a>
</g>
</g>
<!-- Node50 -->
<g id="Node000050" class="node">
<title>Node50</title>
<g id="a_Node000050"><a xlink:href="pointer__expr_8h.html" target="_top" xlink:title="API to expression classes for Pointers.">
<polygon fill="white" stroke="#666666" points="570.5,-294 484.5,-294 484.5,-275 570.5,-275 570.5,-294"/>
<text text-anchor="middle" x="527.5" y="-282" font-family="Helvetica,sans-Serif" font-size="10.00">pointer_expr.h</text>
</a>
</g>
</g>
<!-- Node32&#45;&gt;Node50 -->
<g id="edge40_Node000032_Node000050" class="edge">
<title>Node32&#45;&gt;Node50</title>
<g id="a_edge40_Node000032_Node000050"><a xlink:title=" ">
<path fill="none" stroke="#63b8ff" d="M514.14,-329.75C516.26,-322.72 519.31,-312.62 521.96,-303.84"/>
<polygon fill="#63b8ff" stroke="#63b8ff" points="525.37,-304.67 524.91,-294.09 518.67,-302.65 525.37,-304.67"/>
</a>
</g>
</g>
<!-- Node32&#45;&gt;Node52 -->
<g id="edge44_Node000032_Node000052" class="edge">
<title>Node32&#45;&gt;Node52</title>
<g id="a_edge44_Node000032_Node000052"><a xlink:title=" ">
<path fill="none" stroke="#63b8ff" d="M533.51,-329.98C555.95,-321.3 590.98,-307.75 616.49,-297.88"/>
<polygon fill="#63b8ff" stroke="#63b8ff" points="618.02,-301.04 626.09,-294.17 615.5,-294.51 618.02,-301.04"/>
</a>
</g>
</g>
<!-- Node33&#45;&gt;Node4 -->
<g id="edge39_Node000033_Node000004" class="edge">
<title>Node33&#45;&gt;Node4</title>
<g id="a_edge39_Node000033_Node000004"><a xlink:title=" ">
<path fill="none" stroke="#63b8ff" d="M336.56,-274.98C322,-266.69 299.63,-253.94 282.57,-244.22"/>
<polygon fill="#63b8ff" stroke="#63b8ff" points="284.14,-241.08 273.71,-239.17 280.67,-247.16 284.14,-241.08"/>
</a>
</g>
</g>
<!-- Node33&#45;&gt;Node13 -->
<g id="edge21_Node000033_Node000013" class="edge">
<title>Node33&#45;&gt;Node13</title>
<g id="a_edge21_Node000033_Node000013"><a xlink:title=" ">
<path fill="none" stroke="#63b8ff" d="M357.46,-274.95C380.11,-242.47 461.11,-126.29 491.7,-82.43"/>
<polygon fill="#63b8ff" stroke="#63b8ff" points="494.57,-84.43 497.42,-74.22 488.83,-80.42 494.57,-84.43"/>
</a>
</g>
</g>
<!-- Node34 -->
<g id="Node000034" class="node">
<title>Node34</title>
<g id="a_Node000034"><a xlink:href="mp__arith_8h.html" target="_top" xlink:title=" ">
<polygon fill="#fff0f0" stroke="red" points="69,-129 0,-129 0,-110 69,-110 69,-129"/>
<text text-anchor="middle" x="34.5" y="-117" font-family="Helvetica,sans-Serif" font-size="10.00">mp_arith.h</text>
</a>
</g>
</g>
<!-- Node33&#45;&gt;Node34 -->
<g id="edge22_Node000033_Node000034" class="edge">
<title>Node33&#45;&gt;Node34</title>
<g id="a_edge22_Node000033_Node000034"><a xlink:title=" ">
<path fill="none" stroke="#63b8ff" d="M345.34,-274.67C335.27,-260.9 313.92,-234.4 289.5,-220 237.49,-189.33 214.78,-205.88 158.5,-184 122.08,-169.84 82.24,-148.27 57.81,-134.27"/>
<polygon fill="#63b8ff" stroke="#63b8ff" points="59.34,-131.12 48.93,-129.13 55.84,-137.17 59.34,-131.12"/>
</a>
</g>
</g>
<!-- Node33&#45;&gt;Node36 -->
<g id="edge25_Node000033_Node000036" class="edge">
<title>Node33&#45;&gt;Node36</title>
<g id="a_edge25_Node000033_Node000036"><a xlink:title=" ">
<path fill="none" stroke="#63b8ff" d="M369.49,-274.98C387.43,-266.5 415.22,-253.35 435.93,-243.54"/>
<polygon fill="#63b8ff" stroke="#63b8ff" points="437.64,-246.61 445.18,-239.17 434.64,-240.28 437.64,-246.61"/>
</a>
</g>
</g>
<!-- Node34&#45;&gt;Node8 -->
<g id="edge23_Node000034_Node000008" class="edge">
<title>Node34&#45;&gt;Node8</title>
<g id="a_edge23_Node000034_Node000008"><a xlink:title=" ">
<path fill="none" stroke="#63b8ff" d="M36.48,-109.75C38.07,-102.72 40.36,-92.62 42.35,-83.84"/>
<polygon fill="#63b8ff" stroke="#63b8ff" points="45.76,-84.62 44.56,-74.09 38.93,-83.07 45.76,-84.62"/>
</a>
</g>
</g>
<!-- Node34&#45;&gt;Node10 -->
<g id="edge24_Node000034_Node000010" class="edge">
<title>Node34&#45;&gt;Node10</title>
<g id="a_edge24_Node000034_Node000010"><a xlink:title=" ">
<path fill="none" stroke="#63b8ff" d="M27.03,-109.85C16.68,-96.79 0.64,-71.77 13.5,-55 29.69,-33.9 103.85,-20.6 147.38,-14.48"/>
<polygon fill="#63b8ff" stroke="#63b8ff" points="148.03,-17.92 157.47,-13.11 147.09,-10.98 148.03,-17.92"/>
</a>
</g>
</g>
<!-- Node36&#45;&gt;Node13 -->
<g id="edge32_Node000036_Node000013" class="edge">
<title>Node36&#45;&gt;Node13</title>
<g id="a_edge32_Node000036_Node000013"><a xlink:title=" ">
<path fill="none" stroke="#63b8ff" d="M465.65,-219.74C471.92,-194.2 490.27,-119.43 498.9,-84.23"/>
<polygon fill="#63b8ff" stroke="#63b8ff" points="502.35,-84.85 501.34,-74.31 495.56,-83.18 502.35,-84.85"/>
</a>
</g>
</g>
<!-- Node37 -->
<g id="Node000037" class="node">
<title>Node37</title>
<g id="a_Node000037"><a xlink:href="expr__cast_8h.html" target="_top" xlink:title="Templated functions to cast to specific exprt&#45;derived classes.">
<polygon fill="#fff0f0" stroke="red" points="603,-129 530,-129 530,-110 603,-110 603,-129"/>
<text text-anchor="middle" x="566.5" y="-117" font-family="Helvetica,sans-Serif" font-size="10.00">expr_cast.h</text>
</a>
</g>
</g>
<!-- Node36&#45;&gt;Node37 -->
<g id="edge26_Node000036_Node000037" class="edge">
<title>Node36&#45;&gt;Node37</title>
<g id="a_edge26_Node000036_Node000037"><a xlink:title=" ">
<path fill="none" stroke="#63b8ff" d="M471.24,-219.74C482.24,-207.38 503.08,-184.16 521.5,-165 530.83,-155.3 541.53,-144.69 550.16,-136.27"/>
<polygon fill="#63b8ff" stroke="#63b8ff" points="552.67,-138.71 557.4,-129.23 547.79,-133.69 552.67,-138.71"/>
</a>
</g>
</g>
<!-- Node49 -->
<g id="Node000049" class="node">
<title>Node49</title>
<g id="a_Node000049"><a xlink:href="std__types_8h.html" target="_top" xlink:title="Pre&#45;defined types.">
<polygon fill="#fff0f0" stroke="red" points="603,-184 530,-184 530,-165 603,-165 603,-184"/>
<text text-anchor="middle" x="566.5" y="-172" font-family="Helvetica,sans-Serif" font-size="10.00">std_types.h</text>
</a>
</g>
</g>
<!-- Node36&#45;&gt;Node49 -->
<g id="edge33_Node000036_Node000049" class="edge">
<title>Node36&#45;&gt;Node49</title>
<g id="a_edge33_Node000036_Node000049"><a xlink:title=" ">
<path fill="none" stroke="#63b8ff" d="M480.05,-219.98C496.39,-211.57 521.63,-198.59 540.63,-188.81"/>
<polygon fill="#63b8ff" stroke="#63b8ff" points="542.36,-191.86 549.65,-184.17 539.16,-185.63 542.36,-191.86"/>
</a>
</g>
</g>
<!-- Node37&#45;&gt;Node13 -->
<g id="edge28_Node000037_Node000013" class="edge">
<title>Node37&#45;&gt;Node13</title>
<g id="a_edge28_Node000037_Node000013"><a xlink:title=" ">
<path fill="none" stroke="#63b8ff" d="M556.38,-109.98C547.06,-102.15 533.03,-90.34 521.76,-80.86"/>
<polygon fill="#63b8ff" stroke="#63b8ff" points="523.71,-77.93 513.81,-74.17 519.21,-83.29 523.71,-77.93"/>
</a>
</g>
</g>
<!-- Node37&#45;&gt;Node31 -->
<g id="edge27_Node000037_Node000031" class="edge">
<title>Node37&#45;&gt;Node31</title>
<g id="a_edge27_Node000037_Node000031"><a xlink:title=" ">
<path fill="none" stroke="#63b8ff" d="M566.5,-109.66C566.5,-92.17 566.5,-52.8 566.5,-29.27"/>
<polygon fill="#63b8ff" stroke="#63b8ff" points="570,-29.16 566.5,-19.16 563,-29.16 570,-29.16"/>
</a>
</g>
</g>
<!-- Node39 -->
<g id="Node000039" class="node">
<title>Node39</title>
<g id="a_Node000039"><a xlink:href="expr_8h.html" target="_top" xlink:title=" ">
<polygon fill="#fff0f0" stroke="red" points="707,-74 660,-74 660,-55 707,-55 707,-74"/>
<text text-anchor="middle" x="683.5" y="-62" font-family="Helvetica,sans-Serif" font-size="10.00">expr.h</text>
</a>
</g>
</g>
<!-- Node37&#45;&gt;Node39 -->
<g id="edge29_Node000037_Node000039" class="edge">
<title>Node37&#45;&gt;Node39</title>
<g id="a_edge29_Node000037_Node000039"><a xlink:title=" ">
<path fill="none" stroke="#63b8ff" d="M585.3,-109.98C604.12,-101.46 633.32,-88.23 655,-78.41"/>
<polygon fill="#63b8ff" stroke="#63b8ff" points="656.7,-81.48 664.36,-74.17 653.81,-75.11 656.7,-81.48"/>
</a>
</g>
</g>
<!-- Node39&#45;&gt;Node31 -->
<g id="edge31_Node000039_Node000031" class="edge">
<title>Node39&#45;&gt;Node31</title>
<g id="a_edge31_Node000039_Node000031"><a xlink:title=" ">
<path fill="none" stroke="#63b8ff" d="M664.7,-54.98C645.88,-46.46 616.68,-33.23 595,-23.41"/>
<polygon fill="#63b8ff" stroke="#63b8ff" points="596.19,-20.11 585.64,-19.17 593.3,-26.48 596.19,-20.11"/>
</a>
</g>
</g>
<!-- Node40 -->
<g id="Node000040" class="node">
<title>Node40</title>
<g id="a_Node000040"><a xlink:href="type_8h.html" target="_top" xlink:title="Defines typet, type_with_subtypet and type_with_subtypest.">
<polygon fill="#fff0f0" stroke="red" points="775,-19 728,-19 728,0 775,0 775,-19"/>
<text text-anchor="middle" x="751.5" y="-7" font-family="Helvetica,sans-Serif" font-size="10.00">type.h</text>
</a>
</g>
</g>
<!-- Node39&#45;&gt;Node40 -->
<g id="edge30_Node000039_Node000040" class="edge">
<title>Node39&#45;&gt;Node40</title>
<g id="a_edge30_Node000039_Node000040"><a xlink:title=" ">
<path fill="none" stroke="#63b8ff" d="M694.43,-54.98C704.58,-47.07 719.92,-35.11 732.15,-25.58"/>
<polygon fill="#63b8ff" stroke="#63b8ff" points="734.64,-28.08 740.38,-19.17 730.34,-22.56 734.64,-28.08"/>
</a>
</g>
</g>
<!-- Node49&#45;&gt;Node13 -->
<g id="edge36_Node000049_Node000013" class="edge">
<title>Node49&#45;&gt;Node13</title>
<g id="a_edge36_Node000049_Node000013"><a xlink:title=" ">
<path fill="none" stroke="#63b8ff" d="M554.86,-164.87C544.64,-156.71 530.11,-143.57 521.5,-129 513.39,-115.27 508.77,-97.69 506.25,-84.51"/>
<polygon fill="#63b8ff" stroke="#63b8ff" points="509.64,-83.56 504.54,-74.27 502.74,-84.71 509.64,-83.56"/>
</a>
</g>
</g>
<!-- Node49&#45;&gt;Node34 -->
<g id="edge37_Node000049_Node000034" class="edge">
<title>Node49&#45;&gt;Node34</title>
<g id="a_edge37_Node000049_Node000034"><a xlink:title=" ">
<path fill="none" stroke="#63b8ff" d="M529.85,-171.48C449.82,-166.78 253.3,-153.71 79.29,-129.12"/>
<polygon fill="#63b8ff" stroke="#63b8ff" points="79.58,-125.63 69.18,-127.68 78.58,-132.56 79.58,-125.63"/>
</a>
</g>
</g>
<!-- Node49&#45;&gt;Node37 -->
<g id="edge35_Node000049_Node000037" class="edge">
<title>Node49&#45;&gt;Node37</title>
<g id="a_edge35_Node000049_Node000037"><a xlink:title=" ">
<path fill="none" stroke="#63b8ff" d="M566.5,-164.75C566.5,-157.8 566.5,-147.85 566.5,-139.13"/>
<polygon fill="#63b8ff" stroke="#63b8ff" points="570,-139.09 566.5,-129.09 563,-139.09 570,-139.09"/>
</a>
</g>
</g>
<!-- Node49&#45;&gt;Node39 -->
<g id="edge34_Node000049_Node000039" class="edge">
<title>Node49&#45;&gt;Node39</title>
<g id="a_edge34_Node000049_Node000039"><a xlink:title=" ">
<path fill="none" stroke="#63b8ff" d="M576.07,-164.66C595.88,-146.38 641.6,-104.18 666.53,-81.17"/>
<polygon fill="#63b8ff" stroke="#63b8ff" points="669.15,-83.51 674.12,-74.16 664.4,-78.37 669.15,-83.51"/>
</a>
</g>
</g>
<!-- Node22 -->
<g id="Node000022" class="node">
<title>Node22</title>
<g id="a_Node000022"><a xlink:title=" ">
<polygon fill="#e0e0e0" stroke="#999999" points="791,-129 698,-129 698,-110 791,-110 791,-129"/>
<text text-anchor="middle" x="744.5" y="-117" font-family="Helvetica,sans-Serif" font-size="10.00">unordered_map</text>
</a>
</g>
</g>
<!-- Node49&#45;&gt;Node22 -->
<g id="edge38_Node000049_Node000022" class="edge">
<title>Node49&#45;&gt;Node22</title>
<g id="a_edge38_Node000049_Node000022"><a xlink:title=" ">
<path fill="none" stroke="#63b8ff" d="M595.1,-164.98C625.11,-156.05 672.48,-141.94 705.82,-132.02"/>
<polygon fill="#63b8ff" stroke="#63b8ff" points="707.09,-135.29 715.68,-129.08 705.09,-128.58 707.09,-135.29"/>
</a>
</g>
</g>
<!-- Node50&#45;&gt;Node36 -->
<g id="edge43_Node000050_Node000036" class="edge">
<title>Node50&#45;&gt;Node36</title>
<g id="a_edge43_Node000050_Node000036"><a xlink:title=" ">
<path fill="none" stroke="#63b8ff" d="M517.22,-274.98C507.66,-267.07 493.22,-255.11 481.72,-245.58"/>
<polygon fill="#63b8ff" stroke="#63b8ff" points="483.9,-242.85 473.97,-239.17 479.44,-248.24 483.9,-242.85"/>
</a>
</g>
</g>
<!-- Node51 -->
<g id="Node000051" class="node">
<title>Node51</title>
<g id="a_Node000051"><a xlink:href="bitvector__types_8h.html" target="_top" xlink:title="Pre&#45;defined bitvector types.">
<polygon fill="white" stroke="#666666" points="616,-239 515,-239 515,-220 616,-220 616,-239"/>
<text text-anchor="middle" x="565.5" y="-227" font-family="Helvetica,sans-Serif" font-size="10.00">bitvector_types.h</text>
</a>
</g>
</g>
<!-- Node50&#45;&gt;Node51 -->
<g id="edge41_Node000050_Node000051" class="edge">
<title>Node50&#45;&gt;Node51</title>
<g id="a_edge41_Node000050_Node000051"><a xlink:title=" ">
<path fill="none" stroke="#63b8ff" d="M533.77,-274.75C539.09,-267.34 546.86,-256.5 553.38,-247.41"/>
<polygon fill="#63b8ff" stroke="#63b8ff" points="556.36,-249.26 559.34,-239.09 550.67,-245.18 556.36,-249.26"/>
</a>
</g>
</g>
<!-- Node51&#45;&gt;Node49 -->
<g id="edge42_Node000051_Node000049" class="edge">
<title>Node51&#45;&gt;Node49</title>
<g id="a_edge42_Node000051_Node000049"><a xlink:title=" ">
<path fill="none" stroke="#63b8ff" d="M565.67,-219.75C565.8,-212.8 565.98,-202.85 566.15,-194.13"/>
<polygon fill="#63b8ff" stroke="#63b8ff" points="569.65,-194.15 566.34,-184.09 562.65,-194.02 569.65,-194.15"/>
</a>
</g>
</g>
<!-- Node52&#45;&gt;Node49 -->
<g id="edge46_Node000052_Node000049" class="edge">
<title>Node52&#45;&gt;Node49</title>
<g id="a_edge46_Node000052_Node000049"><a xlink:title=" ">
<path fill="none" stroke="#63b8ff" d="M680.66,-274.97C713.79,-264.58 758.05,-245.25 738.5,-220 730.7,-209.92 661.3,-194.31 613.08,-184.51"/>
<polygon fill="#63b8ff" stroke="#63b8ff" points="613.64,-181.06 603.14,-182.51 612.26,-187.92 613.64,-181.06"/>
</a>
</g>
</g>
<!-- Node53 -->
<g id="Node000053" class="node">
<title>Node53</title>
<g id="a_Node000053"><a xlink:href="cprover__prefix_8h.html" target="_top" xlink:title=" ">
<polygon fill="white" stroke="#666666" points="729,-239 634,-239 634,-220 729,-220 729,-239"/>
<text text-anchor="middle" x="681.5" y="-227" font-family="Helvetica,sans-Serif" font-size="10.00">cprover_prefix.h</text>
</a>
</g>
</g>
<!-- Node52&#45;&gt;Node53 -->
<g id="edge45_Node000052_Node000053" class="edge">
<title>Node52&#45;&gt;Node53</title>
<g id="a_edge45_Node000052_Node000053"><a xlink:title=" ">
<path fill="none" stroke="#63b8ff" d="M653.95,-274.75C658.51,-267.42 665.17,-256.73 670.79,-247.7"/>
<polygon fill="#63b8ff" stroke="#63b8ff" points="673.84,-249.43 676.15,-239.09 667.9,-245.73 673.84,-249.43"/>
</a>
</g>
</g>
<!-- Node54&#45;&gt;Node55 -->
<g id="edge49_Node000054_Node000055" class="edge">
<title>Node54&#45;&gt;Node55</title>
<g id="a_edge49_Node000054_Node000055"><a xlink:title=" ">
<path fill="none" stroke="#63b8ff" d="M751.93,-331C799.95,-324.23 858.37,-312.46 874.5,-294 885.08,-281.89 885.59,-263.09 884.05,-249.09"/>
<polygon fill="#63b8ff" stroke="#63b8ff" points="887.49,-248.46 882.52,-239.1 880.57,-249.52 887.49,-248.46"/>
</a>
</g>
</g>
<!-- Node55&#45;&gt;Node39 -->
<g id="edge50_Node000055_Node000039" class="edge">
<title>Node55&#45;&gt;Node39</title>
<g id="a_edge50_Node000055_Node000039"><a xlink:title=" ">
<path fill="none" stroke="#63b8ff" d="M876.85,-219.71C867.42,-198.03 840.18,-141.45 800.5,-110 775.95,-90.54 741.95,-78.89 716.93,-72.42"/>
<polygon fill="#63b8ff" stroke="#63b8ff" points="717.69,-69 707.15,-70.03 716.04,-75.8 717.69,-69"/>
</a>
</g>
</g>
<!-- Node55&#45;&gt;Node22 -->
<g id="edge51_Node000055_Node000022" class="edge">
<title>Node55&#45;&gt;Node22</title>
<g id="a_edge51_Node000055_Node000022"><a xlink:title=" ">
<path fill="none" stroke="#63b8ff" d="M869.37,-219.66C846.14,-201.22 792.28,-158.45 763.48,-135.57"/>
<polygon fill="#63b8ff" stroke="#63b8ff" points="765.41,-132.64 755.4,-129.16 761.06,-138.12 765.41,-132.64"/>
</a>
</g>
</g>
<!-- Node57&#45;&gt;Node11 -->
<g id="edge56_Node000057_Node000011" class="edge">
<title>Node57&#45;&gt;Node11</title>
<g id="a_edge56_Node000057_Node000011"><a xlink:title=" ">
<path fill="none" stroke="#63b8ff" d="M340,-164.75C339.61,-157.8 339.05,-147.85 338.55,-139.13"/>
<polygon fill="#63b8ff" stroke="#63b8ff" points="342.05,-138.88 337.99,-129.09 335.06,-139.27 342.05,-138.88"/>
</a>
</g>
</g>
<!-- Node57&#45;&gt;Node13 -->
<g id="edge55_Node000057_Node000013" class="edge">
<title>Node57&#45;&gt;Node13</title>
<g id="a_edge55_Node000057_Node000013"><a xlink:title=" ">
<path fill="none" stroke="#63b8ff" d="M348.6,-164.85C361.16,-151.78 386.49,-126.75 411.5,-110 430.49,-97.28 453.67,-86.09 472.01,-78.11"/>
<polygon fill="#63b8ff" stroke="#63b8ff" points="473.55,-81.27 481.38,-74.14 470.81,-74.82 473.55,-81.27"/>
</a>
</g>
</g>
<!-- Node58&#45;&gt;Node32 -->
<g id="edge62_Node000058_Node000032" class="edge">
<title>Node58&#45;&gt;Node32</title>
<g id="a_edge62_Node000058_Node000032"><a xlink:title=" ">
<path fill="none" stroke="#63b8ff" d="M351.69,-390.49C384.1,-380.36 438.4,-363.37 474.58,-352.05"/>
<polygon fill="#63b8ff" stroke="#63b8ff" points="475.78,-355.34 484.28,-349.02 473.69,-348.66 475.78,-355.34"/>
</a>
</g>
</g>
<!-- Node58&#45;&gt;Node36 -->
<g id="edge61_Node000058_Node000036" class="edge">
<title>Node58&#45;&gt;Node36</title>
<g id="a_edge61_Node000058_Node000036"><a xlink:title=" ">
<path fill="none" stroke="#63b8ff" d="M331.58,-390.41C353.51,-363.83 420.56,-282.55 449.72,-247.21"/>
<polygon fill="#63b8ff" stroke="#63b8ff" points="452.6,-249.21 456.26,-239.27 447.2,-244.76 452.6,-249.21"/>
</a>
</g>
</g>
<!-- Node59&#45;&gt;Node36 -->
<g id="edge68_Node000059_Node000036" class="edge">
<title>Node59&#45;&gt;Node36</title>
<g id="a_edge68_Node000059_Node000036"><a xlink:title=" ">
<path fill="none" stroke="#63b8ff" d="M735.32,-274.99C679.01,-266.86 592.29,-253.9 507.35,-239.08"/>
<polygon fill="#63b8ff" stroke="#63b8ff" points="507.73,-235.6 497.28,-237.32 506.52,-242.49 507.73,-235.6"/>
</a>
</g>
</g>
<!-- Node60 -->
<g id="Node000060" class="node">
<title>Node60</title>
<g id="a_Node000060"><a xlink:href="mathematical__types_8h.html" target="_top" xlink:title="Mathematical types.">
<polygon fill="white" stroke="#666666" points="760.5,-184 634.5,-184 634.5,-165 760.5,-165 760.5,-184"/>
<text text-anchor="middle" x="697.5" y="-172" font-family="Helvetica,sans-Serif" font-size="10.00">mathematical_types.h</text>
</a>
</g>
</g>
<!-- Node59&#45;&gt;Node60 -->
<g id="edge64_Node000059_Node000060" class="edge">
<title>Node59&#45;&gt;Node60</title>
<g id="a_edge64_Node000059_Node000060"><a xlink:title=" ">
<path fill="none" stroke="#63b8ff" d="M791.02,-274.64C784.23,-261.74 770.44,-237.43 754.5,-220 744.21,-208.74 730.84,-198.14 719.64,-190.12"/>
<polygon fill="#63b8ff" stroke="#63b8ff" points="721.43,-187.1 711.22,-184.27 717.44,-192.85 721.43,-187.1"/>
</a>
</g>
</g>
<!-- Node60&#45;&gt;Node13 -->
<g id="edge66_Node000060_Node000013" class="edge">
<title>Node60&#45;&gt;Node13</title>
<g id="a_edge66_Node000060_Node000013"><a xlink:title=" ">
<path fill="none" stroke="#63b8ff" d="M687.61,-164.79C672.33,-151.63 641.68,-126.5 612.5,-110 589.2,-96.83 561.22,-85.49 539.44,-77.55"/>
<polygon fill="#63b8ff" stroke="#63b8ff" points="540.5,-74.21 529.91,-74.15 538.15,-80.81 540.5,-74.21"/>
</a>
</g>
</g>
<!-- Node60&#45;&gt;Node37 -->
<g id="edge65_Node000060_Node000037" class="edge">
<title>Node60&#45;&gt;Node37</title>
<g id="a_edge65_Node000060_Node000037"><a xlink:title=" ">
<path fill="none" stroke="#63b8ff" d="M676.45,-164.98C655.09,-156.34 621.8,-142.87 597.44,-133.02"/>
<polygon fill="#63b8ff" stroke="#63b8ff" points="598.51,-129.68 587.93,-129.17 595.89,-136.17 598.51,-129.68"/>
</a>
</g>
</g>
<!-- Node60&#45;&gt;Node40 -->
<g id="edge67_Node000060_Node000040" class="edge">
<title>Node60&#45;&gt;Node40</title>
<g id="a_edge67_Node000060_Node000040"><a xlink:title=" ">
<path fill="none" stroke="#63b8ff" d="M745.35,-164.99C765.97,-158.7 788.14,-147.8 800.5,-129 822.6,-95.38 789.09,-50.19 767.46,-26.5"/>
<polygon fill="#63b8ff" stroke="#63b8ff" points="769.84,-23.92 760.42,-19.08 764.76,-28.74 769.84,-23.92"/>
</a>
</g>
</g>
</g>
</svg>
