<?xml version="1.0" encoding="UTF-8" standalone="no"?>
<!DOCTYPE svg PUBLIC "-//W3C//DTD SVG 1.1//EN"
 "http://www.w3.org/Graphics/SVG/1.1/DTD/svg11.dtd">
<!-- Generated by graphviz version 2.43.0 (0)
 -->
<!-- Title: /home/runner/work/cbmc/cbmc/src/goto&#45;programs/string_abstraction.h Pages: 1 -->
<svg width="1244pt" height="819pt"
 viewBox="0.00 0.00 1244.00 819.00" xmlns="http://www.w3.org/2000/svg" xmlns:xlink="http://www.w3.org/1999/xlink">
<g id="graph0" class="graph" transform="scale(1 1) rotate(0) translate(4 815)">
<title>/home/runner/work/cbmc/cbmc/src/goto&#45;programs/string_abstraction.h</title>
<!-- Node1 -->
<g id="Node000001" class="node">
<title>Node1</title>
<g id="a_Node000001"><a xlink:title="String Abstraction.">
<polygon fill="#999999" stroke="#666666" points="999,-811 861,-811 861,-770 999,-770 999,-811"/>
<text text-anchor="start" x="869" y="-799" font-family="Helvetica,sans-Serif" font-size="10.00">/home/runner/work/cbmc</text>
<text text-anchor="start" x="869" y="-788" font-family="Helvetica,sans-Serif" font-size="10.00">/cbmc/src/goto&#45;programs</text>
<text text-anchor="middle" x="930" y="-777" font-family="Helvetica,sans-Serif" font-size="10.00">/string_abstraction.h</text>
</a>
</g>
</g>
<!-- Node2 -->
<g id="Node000002" class="node">
<title>Node2</title>
<g id="a_Node000002"><a xlink:href="bitvector__types_8h.html" target="_top" xlink:title="Pre&#45;defined bitvector types.">
<polygon fill="white" stroke="#666666" points="371,-679 251,-679 251,-660 371,-660 371,-679"/>
<text text-anchor="middle" x="311" y="-667" font-family="Helvetica,sans-Serif" font-size="10.00">util/bitvector_types.h</text>
</a>
</g>
</g>
<!-- Node1&#45;&gt;Node2 -->
<g id="edge1_Node000001_Node000002" class="edge">
<title>Node1&#45;&gt;Node2</title>
<g id="a_edge1_Node000001_Node000002"><a xlink:title=" ">
<path fill="none" stroke="#63b8ff" d="M860.83,-785.4C741.65,-777.76 502.73,-759.75 423,-734 388.19,-722.76 352.12,-699.95 330.63,-684.95"/>
<polygon fill="#63b8ff" stroke="#63b8ff" points="332.53,-682 322.35,-679.05 328.47,-687.7 332.53,-682"/>
</a>
</g>
</g>
<!-- Node42 -->
<g id="Node000042" class="node">
<title>Node42</title>
<g id="a_Node000042"><a xlink:href="config_8h.html" target="_top" xlink:title=" ">
<polygon fill="white" stroke="#666666" points="1055,-569 981,-569 981,-550 1055,-550 1055,-569"/>
<text text-anchor="middle" x="1018" y="-557" font-family="Helvetica,sans-Serif" font-size="10.00">util/config.h</text>
</a>
</g>
</g>
<!-- Node1&#45;&gt;Node42 -->
<g id="edge41_Node000001_Node000042" class="edge">
<title>Node1&#45;&gt;Node42</title>
<g id="a_edge41_Node000001_Node000042"><a xlink:title=" ">
<path fill="none" stroke="#63b8ff" d="M937.5,-769.98C954.28,-726.3 994.66,-621.23 1010.98,-578.77"/>
<polygon fill="#63b8ff" stroke="#63b8ff" points="1014.26,-579.98 1014.58,-569.39 1007.72,-577.47 1014.26,-579.98"/>
</a>
</g>
</g>
<!-- Node45 -->
<g id="Node000045" class="node">
<title>Node45</title>
<g id="a_Node000045"><a xlink:href="namespace_8h.html" target="_top" xlink:title=" ">
<polygon fill="white" stroke="#666666" points="1169.5,-184 1068.5,-184 1068.5,-165 1169.5,-165 1169.5,-184"/>
<text text-anchor="middle" x="1119" y="-172" font-family="Helvetica,sans-Serif" font-size="10.00">util/namespace.h</text>
</a>
</g>
</g>
<!-- Node1&#45;&gt;Node45 -->
<g id="edge49_Node000001_Node000045" class="edge">
<title>Node1&#45;&gt;Node45</title>
<g id="a_edge49_Node000001_Node000045"><a xlink:title=" ">
<path fill="none" stroke="#63b8ff" d="M999,-782.81C1066.75,-771.99 1160,-743.78 1160,-670.5 1160,-670.5 1160,-670.5 1160,-283.5 1160,-249.57 1142.09,-213.31 1129.94,-192.62"/>
<polygon fill="#63b8ff" stroke="#63b8ff" points="1132.9,-190.75 1124.7,-184.04 1126.92,-194.4 1132.9,-190.75"/>
</a>
</g>
</g>
<!-- Node46 -->
<g id="Node000046" class="node">
<title>Node46</title>
<g id="a_Node000046"><a xlink:href="std__expr_8h.html" target="_top" xlink:title="API to expression classes.">
<polygon fill="white" stroke="#666666" points="514,-569 428,-569 428,-550 514,-550 514,-569"/>
<text text-anchor="middle" x="471" y="-557" font-family="Helvetica,sans-Serif" font-size="10.00">util/std_expr.h</text>
</a>
</g>
</g>
<!-- Node1&#45;&gt;Node46 -->
<g id="edge52_Node000001_Node000046" class="edge">
<title>Node1&#45;&gt;Node46</title>
<g id="a_edge52_Node000001_Node000046"><a xlink:title=" ">
<path fill="none" stroke="#63b8ff" d="M860.77,-775.98C815.33,-766.27 754.9,-751.79 703,-734 589.7,-695.18 522.14,-724.5 457,-624 448,-610.13 453.88,-591.34 460.56,-577.81"/>
<polygon fill="#63b8ff" stroke="#63b8ff" points="463.63,-579.48 465.36,-569.03 457.49,-576.12 463.63,-579.48"/>
</a>
</g>
</g>
<!-- Node47 -->
<g id="Node000047" class="node">
<title>Node47</title>
<g id="a_Node000047"><a xlink:href="goto__function_8h.html" target="_top" xlink:title="Goto Function.">
<polygon fill="white" stroke="#666666" points="804,-734 712,-734 712,-715 804,-715 804,-734"/>
<text text-anchor="middle" x="758" y="-722" font-family="Helvetica,sans-Serif" font-size="10.00">goto_function.h</text>
</a>
</g>
</g>
<!-- Node1&#45;&gt;Node47 -->
<g id="edge56_Node000001_Node000047" class="edge">
<title>Node1&#45;&gt;Node47</title>
<g id="a_edge56_Node000001_Node000047"><a xlink:title=" ">
<path fill="none" stroke="#63b8ff" d="M877.46,-769.95C849.15,-759.42 815.11,-746.75 790.62,-737.64"/>
<polygon fill="#63b8ff" stroke="#63b8ff" points="791.68,-734.3 781.09,-734.09 789.24,-740.86 791.68,-734.3"/>
</a>
</g>
</g>
<!-- Node53 -->
<g id="Node000053" class="node">
<title>Node53</title>
<g id="a_Node000053"><a xlink:title=" ">
<polygon fill="#e0e0e0" stroke="#999999" points="1226,-734 1188,-734 1188,-715 1226,-715 1226,-734"/>
<text text-anchor="middle" x="1207" y="-722" font-family="Helvetica,sans-Serif" font-size="10.00">map</text>
</a>
</g>
</g>
<!-- Node1&#45;&gt;Node53 -->
<g id="edge73_Node000001_Node000053" class="edge">
<title>Node1&#45;&gt;Node53</title>
<g id="a_edge73_Node000001_Node000053"><a xlink:title=" ">
<path fill="none" stroke="#63b8ff" d="M999.01,-774.35C1047.94,-763.48 1115.1,-748.28 1174,-734 1175.26,-733.69 1176.54,-733.38 1177.84,-733.06"/>
<polygon fill="#63b8ff" stroke="#63b8ff" points="1178.99,-736.38 1187.82,-730.54 1177.27,-729.59 1178.99,-736.38"/>
</a>
</g>
</g>
<!-- Node3 -->
<g id="Node000003" class="node">
<title>Node3</title>
<g id="a_Node000003"><a xlink:href="std__types_8h.html" target="_top" xlink:title="Pre&#45;defined types.">
<polygon fill="white" stroke="#666666" points="434.5,-514 361.5,-514 361.5,-495 434.5,-495 434.5,-514"/>
<text text-anchor="middle" x="398" y="-502" font-family="Helvetica,sans-Serif" font-size="10.00">std_types.h</text>
</a>
</g>
</g>
<!-- Node2&#45;&gt;Node3 -->
<g id="edge2_Node000002_Node000003" class="edge">
<title>Node2&#45;&gt;Node3</title>
<g id="a_edge2_Node000002_Node000003"><a xlink:title=" ">
<path fill="none" stroke="#63b8ff" d="M315.67,-659.74C329.42,-633.98 369.9,-558.13 388.48,-523.33"/>
<polygon fill="#63b8ff" stroke="#63b8ff" points="391.67,-524.78 393.3,-514.31 385.5,-521.48 391.67,-524.78"/>
</a>
</g>
</g>
<!-- Node4 -->
<g id="Node000004" class="node">
<title>Node4</title>
<g id="a_Node000004"><a xlink:href="expr_8h.html" target="_top" xlink:title=" ">
<polygon fill="white" stroke="#666666" points="217.5,-404 170.5,-404 170.5,-385 217.5,-385 217.5,-404"/>
<text text-anchor="middle" x="194" y="-392" font-family="Helvetica,sans-Serif" font-size="10.00">expr.h</text>
</a>
</g>
</g>
<!-- Node3&#45;&gt;Node4 -->
<g id="edge3_Node000003_Node000004" class="edge">
<title>Node3&#45;&gt;Node4</title>
<g id="a_edge3_Node000003_Node000004"><a xlink:title=" ">
<path fill="none" stroke="#63b8ff" d="M361.36,-502.07C324.43,-498.89 267.52,-489.04 229,-459 214.44,-447.65 205.08,-428.47 199.73,-414.15"/>
<polygon fill="#63b8ff" stroke="#63b8ff" points="202.94,-412.71 196.41,-404.36 196.31,-414.96 202.94,-412.71"/>
</a>
</g>
</g>
<!-- Node12 -->
<g id="Node000012" class="node">
<title>Node12</title>
<g id="a_Node000012"><a xlink:href="src_2util_2invariant_8h.html" target="_top" xlink:title=" ">
<polygon fill="#fff0f0" stroke="red" points="754.5,-74 685.5,-74 685.5,-55 754.5,-55 754.5,-74"/>
<text text-anchor="middle" x="720" y="-62" font-family="Helvetica,sans-Serif" font-size="10.00">invariant.h</text>
</a>
</g>
</g>
<!-- Node3&#45;&gt;Node12 -->
<g id="edge34_Node000003_Node000012" class="edge">
<title>Node3&#45;&gt;Node12</title>
<g id="a_edge34_Node000003_Node000012"><a xlink:title=" ">
<path fill="none" stroke="#63b8ff" d="M401.64,-494.73C406.87,-482.34 416.98,-459.11 427,-440 464.1,-369.21 519,-365.42 519,-285.5 519,-285.5 519,-285.5 519,-173.5 519,-103.06 615.98,-78.37 675.21,-69.86"/>
<polygon fill="#63b8ff" stroke="#63b8ff" points="675.99,-73.28 685.44,-68.49 675.07,-66.34 675.99,-73.28"/>
</a>
</g>
</g>
<!-- Node32 -->
<g id="Node000032" class="node">
<title>Node32</title>
<g id="a_Node000032"><a xlink:href="validate_8h.html" target="_top" xlink:title=" ">
<polygon fill="white" stroke="#666666" points="403.5,-294 338.5,-294 338.5,-275 403.5,-275 403.5,-294"/>
<text text-anchor="middle" x="371" y="-282" font-family="Helvetica,sans-Serif" font-size="10.00">validate.h</text>
</a>
</g>
</g>
<!-- Node3&#45;&gt;Node32 -->
<g id="edge39_Node000003_Node000032" class="edge">
<title>Node3&#45;&gt;Node32</title>
<g id="a_edge39_Node000003_Node000032"><a xlink:title=" ">
<path fill="none" stroke="#63b8ff" d="M394.33,-494.82C390.77,-485.98 385.55,-471.79 383,-459 371.94,-403.62 370.63,-336.55 370.73,-304.44"/>
<polygon fill="#63b8ff" stroke="#63b8ff" points="374.23,-304.3 370.82,-294.27 367.23,-304.24 374.23,-304.3"/>
</a>
</g>
</g>
<!-- Node38 -->
<g id="Node000038" class="node">
<title>Node38</title>
<g id="a_Node000038"><a xlink:href="expr__cast_8h.html" target="_top" xlink:title="Templated functions to cast to specific exprt&#45;derived classes.">
<polygon fill="white" stroke="#666666" points="508.5,-459 435.5,-459 435.5,-440 508.5,-440 508.5,-459"/>
<text text-anchor="middle" x="472" y="-447" font-family="Helvetica,sans-Serif" font-size="10.00">expr_cast.h</text>
</a>
</g>
</g>
<!-- Node3&#45;&gt;Node38 -->
<g id="edge28_Node000003_Node000038" class="edge">
<title>Node3&#45;&gt;Node38</title>
<g id="a_edge28_Node000003_Node000038"><a xlink:title=" ">
<path fill="none" stroke="#63b8ff" d="M409.89,-494.98C421.15,-486.92 438.28,-474.65 451.71,-465.03"/>
<polygon fill="#63b8ff" stroke="#63b8ff" points="453.8,-467.84 459.89,-459.17 449.72,-462.15 453.8,-467.84"/>
</a>
</g>
</g>
<!-- Node40 -->
<g id="Node000040" class="node">
<title>Node40</title>
<g id="a_Node000040"><a xlink:href="mp__arith_8h.html" target="_top" xlink:title=" ">
<polygon fill="white" stroke="#666666" points="912.5,-459 843.5,-459 843.5,-440 912.5,-440 912.5,-459"/>
<text text-anchor="middle" x="878" y="-447" font-family="Helvetica,sans-Serif" font-size="10.00">mp_arith.h</text>
</a>
</g>
</g>
<!-- Node3&#45;&gt;Node40 -->
<g id="edge35_Node000003_Node000040" class="edge">
<title>Node3&#45;&gt;Node40</title>
<g id="a_edge35_Node000003_Node000040"><a xlink:title=" ">
<path fill="none" stroke="#63b8ff" d="M434.86,-499.43C521.72,-489.84 738.97,-465.85 833.21,-455.44"/>
<polygon fill="#63b8ff" stroke="#63b8ff" points="833.72,-458.91 843.28,-454.33 832.96,-451.95 833.72,-458.91"/>
</a>
</g>
</g>
<!-- Node23 -->
<g id="Node000023" class="node">
<title>Node23</title>
<g id="a_Node000023"><a xlink:title=" ">
<polygon fill="#e0e0e0" stroke="#999999" points="330.5,-459 237.5,-459 237.5,-440 330.5,-440 330.5,-459"/>
<text text-anchor="middle" x="284" y="-447" font-family="Helvetica,sans-Serif" font-size="10.00">unordered_map</text>
</a>
</g>
</g>
<!-- Node3&#45;&gt;Node23 -->
<g id="edge40_Node000003_Node000023" class="edge">
<title>Node3&#45;&gt;Node23</title>
<g id="a_edge40_Node000003_Node000023"><a xlink:title=" ">
<path fill="none" stroke="#63b8ff" d="M379.68,-494.98C361.34,-486.46 332.89,-473.23 311.77,-463.41"/>
<polygon fill="#63b8ff" stroke="#63b8ff" points="313.19,-460.21 302.65,-459.17 310.24,-466.56 313.19,-460.21"/>
</a>
</g>
</g>
<!-- Node5 -->
<g id="Node000005" class="node">
<title>Node5</title>
<g id="a_Node000005"><a xlink:href="as__const_8h.html" target="_top" xlink:title=" ">
<polygon fill="white" stroke="#666666" points="331,-349 263,-349 263,-330 331,-330 331,-349"/>
<text text-anchor="middle" x="297" y="-337" font-family="Helvetica,sans-Serif" font-size="10.00">as_const.h</text>
</a>
</g>
</g>
<!-- Node4&#45;&gt;Node5 -->
<g id="edge4_Node000004_Node000005" class="edge">
<title>Node4&#45;&gt;Node5</title>
<g id="a_edge4_Node000004_Node000005"><a xlink:title=" ">
<path fill="none" stroke="#63b8ff" d="M210.54,-384.98C226.89,-376.57 252.13,-363.59 271.13,-353.81"/>
<polygon fill="#63b8ff" stroke="#63b8ff" points="272.86,-356.86 280.15,-349.17 269.65,-350.63 272.86,-356.86"/>
</a>
</g>
</g>
<!-- Node6 -->
<g id="Node000006" class="node">
<title>Node6</title>
<g id="a_Node000006"><a xlink:href="type_8h.html" target="_top" xlink:title="Defines typet, type_with_subtypet and type_with_subtypest.">
<polygon fill="white" stroke="#666666" points="97.5,-349 50.5,-349 50.5,-330 97.5,-330 97.5,-349"/>
<text text-anchor="middle" x="74" y="-337" font-family="Helvetica,sans-Serif" font-size="10.00">type.h</text>
</a>
</g>
</g>
<!-- Node4&#45;&gt;Node6 -->
<g id="edge5_Node000004_Node000006" class="edge">
<title>Node4&#45;&gt;Node6</title>
<g id="a_edge5_Node000004_Node000006"><a xlink:title=" ">
<path fill="none" stroke="#63b8ff" d="M174.72,-384.98C155.32,-376.42 125.19,-363.11 102.93,-353.28"/>
<polygon fill="#63b8ff" stroke="#63b8ff" points="104.19,-350.01 93.63,-349.17 101.36,-356.41 104.19,-350.01"/>
</a>
</g>
</g>
<!-- Node34 -->
<g id="Node000034" class="node">
<title>Node34</title>
<g id="a_Node000034"><a xlink:href="validation__mode_8h.html" target="_top" xlink:title=" ">
<polygon fill="white" stroke="#666666" points="191.5,-239 84.5,-239 84.5,-220 191.5,-220 191.5,-239"/>
<text text-anchor="middle" x="138" y="-227" font-family="Helvetica,sans-Serif" font-size="10.00">validation_mode.h</text>
</a>
</g>
</g>
<!-- Node4&#45;&gt;Node34 -->
<g id="edge26_Node000004_Node000034" class="edge">
<title>Node4&#45;&gt;Node34</title>
<g id="a_edge26_Node000004_Node000034"><a xlink:title=" ">
<path fill="none" stroke="#63b8ff" d="M170.38,-392.62C136.52,-390.21 73.78,-381.35 33,-349 11.18,-331.7 9.88,-320.98 3,-294 0.91,-285.82 -1.95,-281.84 3,-275 19.41,-252.3 47.81,-240.99 74.33,-235.42"/>
<polygon fill="#63b8ff" stroke="#63b8ff" points="75.19,-238.82 84.38,-233.55 73.91,-231.94 75.19,-238.82"/>
</a>
</g>
</g>
<!-- Node35 -->
<g id="Node000035" class="node">
<title>Node35</title>
<g id="a_Node000035"><a xlink:href="validate__types_8h.html" target="_top" xlink:title=" ">
<polygon fill="white" stroke="#666666" points="110,-294 12,-294 12,-275 110,-275 110,-294"/>
<text text-anchor="middle" x="61" y="-282" font-family="Helvetica,sans-Serif" font-size="10.00">validate_types.h</text>
</a>
</g>
</g>
<!-- Node4&#45;&gt;Node35 -->
<g id="edge25_Node000004_Node000035" class="edge">
<title>Node4&#45;&gt;Node35</title>
<g id="a_edge25_Node000004_Node000035"><a xlink:title=" ">
<path fill="none" stroke="#63b8ff" d="M170.34,-390.1C131.4,-383.97 56.56,-369.74 41,-349 30.74,-335.33 39,-316.27 47.82,-302.6"/>
<polygon fill="#63b8ff" stroke="#63b8ff" points="50.88,-304.32 53.78,-294.13 45.16,-300.29 50.88,-304.32"/>
</a>
</g>
</g>
<!-- Node36 -->
<g id="Node000036" class="node">
<title>Node36</title>
<g id="a_Node000036"><a xlink:href="validate__expressions_8h.html" target="_top" xlink:title=" ">
<polygon fill="white" stroke="#666666" points="244.5,-349 115.5,-349 115.5,-330 244.5,-330 244.5,-349"/>
<text text-anchor="middle" x="180" y="-337" font-family="Helvetica,sans-Serif" font-size="10.00">validate_expressions.h</text>
</a>
</g>
</g>
<!-- Node4&#45;&gt;Node36 -->
<g id="edge24_Node000004_Node000036" class="edge">
<title>Node4&#45;&gt;Node36</title>
<g id="a_edge24_Node000004_Node000036"><a xlink:title=" ">
<path fill="none" stroke="#63b8ff" d="M191.68,-384.75C189.83,-377.72 187.16,-367.62 184.84,-358.84"/>
<polygon fill="#63b8ff" stroke="#63b8ff" points="188.2,-357.86 182.26,-349.09 181.43,-359.65 188.2,-357.86"/>
</a>
</g>
</g>
<!-- Node37 -->
<g id="Node000037" class="node">
<title>Node37</title>
<g id="a_Node000037"><a xlink:title=" ">
<polygon fill="#e0e0e0" stroke="#999999" points="452.5,-349 387.5,-349 387.5,-330 452.5,-330 452.5,-349"/>
<text text-anchor="middle" x="420" y="-337" font-family="Helvetica,sans-Serif" font-size="10.00">functional</text>
</a>
</g>
</g>
<!-- Node4&#45;&gt;Node37 -->
<g id="edge27_Node000004_Node000037" class="edge">
<title>Node4&#45;&gt;Node37</title>
<g id="a_edge27_Node000004_Node000037"><a xlink:title=" ">
<path fill="none" stroke="#63b8ff" d="M217.75,-387.93C255.55,-379.06 329.93,-361.62 377.18,-350.54"/>
<polygon fill="#63b8ff" stroke="#63b8ff" points="378.19,-353.9 387.12,-348.21 376.59,-347.08 378.19,-353.9"/>
</a>
</g>
</g>
<!-- Node7 -->
<g id="Node000007" class="node">
<title>Node7</title>
<g id="a_Node000007"><a xlink:href="source__location_8h.html" target="_top" xlink:title=" ">
<polygon fill="white" stroke="#666666" points="974,-184 872,-184 872,-165 974,-165 974,-184"/>
<text text-anchor="middle" x="923" y="-172" font-family="Helvetica,sans-Serif" font-size="10.00">source_location.h</text>
</a>
</g>
</g>
<!-- Node6&#45;&gt;Node7 -->
<g id="edge6_Node000006_Node000007" class="edge">
<title>Node6&#45;&gt;Node7</title>
<g id="a_edge6_Node000006_Node000007"><a xlink:title=" ">
<path fill="none" stroke="#63b8ff" d="M97.68,-331.81C100.47,-331.14 103.29,-330.52 106,-330 240.95,-304.3 276.56,-310.1 413,-294 618.79,-269.71 696.78,-343.03 876,-239 893.92,-228.59 907.06,-208.35 914.82,-193.5"/>
<polygon fill="#63b8ff" stroke="#63b8ff" points="918.08,-194.8 919.32,-184.27 911.79,-191.73 918.08,-194.8"/>
</a>
</g>
</g>
<!-- Node6&#45;&gt;Node32 -->
<g id="edge15_Node000006_Node000032" class="edge">
<title>Node6&#45;&gt;Node32</title>
<g id="a_edge15_Node000006_Node000032"><a xlink:title=" ">
<path fill="none" stroke="#63b8ff" d="M97.7,-331.94C100.49,-331.25 103.3,-330.58 106,-330 183.8,-313.17 275.61,-299.01 328.19,-291.43"/>
<polygon fill="#63b8ff" stroke="#63b8ff" points="328.77,-294.89 338.17,-290.01 327.78,-287.96 328.77,-294.89"/>
</a>
</g>
</g>
<!-- Node6&#45;&gt;Node34 -->
<g id="edge23_Node000006_Node000034" class="edge">
<title>Node6&#45;&gt;Node34</title>
<g id="a_edge23_Node000006_Node000034"><a xlink:title=" ">
<path fill="none" stroke="#63b8ff" d="M85.59,-329.84C95.77,-321.66 110.28,-308.51 119,-294 127.33,-280.13 132.24,-262.33 134.97,-249.11"/>
<polygon fill="#63b8ff" stroke="#63b8ff" points="138.42,-249.74 136.79,-239.27 131.53,-248.47 138.42,-249.74"/>
</a>
</g>
</g>
<!-- Node6&#45;&gt;Node35 -->
<g id="edge22_Node000006_Node000035" class="edge">
<title>Node6&#45;&gt;Node35</title>
<g id="a_edge22_Node000006_Node000035"><a xlink:title=" ">
<path fill="none" stroke="#63b8ff" d="M71.85,-329.75C70.13,-322.72 67.65,-312.62 65.5,-303.84"/>
<polygon fill="#63b8ff" stroke="#63b8ff" points="68.88,-302.97 63.1,-294.09 62.09,-304.63 68.88,-302.97"/>
</a>
</g>
</g>
<!-- Node8 -->
<g id="Node000008" class="node">
<title>Node8</title>
<g id="a_Node000008"><a xlink:href="deprecate_8h.html" target="_top" xlink:title=" ">
<polygon fill="white" stroke="#666666" points="917,-129 843,-129 843,-110 917,-110 917,-129"/>
<text text-anchor="middle" x="880" y="-117" font-family="Helvetica,sans-Serif" font-size="10.00">deprecate.h</text>
</a>
</g>
</g>
<!-- Node7&#45;&gt;Node8 -->
<g id="edge7_Node000007_Node000008" class="edge">
<title>Node7&#45;&gt;Node8</title>
<g id="a_edge7_Node000007_Node000008"><a xlink:title=" ">
<path fill="none" stroke="#63b8ff" d="M915.9,-164.75C909.82,-157.26 900.91,-146.28 893.49,-137.13"/>
<polygon fill="#63b8ff" stroke="#63b8ff" points="895.98,-134.65 886.96,-129.09 890.55,-139.06 895.98,-134.65"/>
</a>
</g>
</g>
<!-- Node9 -->
<g id="Node000009" class="node">
<title>Node9</title>
<g id="a_Node000009"><a xlink:href="irep_8h.html" target="_top" xlink:title=" ">
<polygon fill="#fff0f0" stroke="red" points="1091,-129 1047,-129 1047,-110 1091,-110 1091,-129"/>
<text text-anchor="middle" x="1069" y="-117" font-family="Helvetica,sans-Serif" font-size="10.00">irep.h</text>
</a>
</g>
</g>
<!-- Node7&#45;&gt;Node9 -->
<g id="edge8_Node000007_Node000009" class="edge">
<title>Node7&#45;&gt;Node9</title>
<g id="a_edge8_Node000007_Node000009"><a xlink:title=" ">
<path fill="none" stroke="#63b8ff" d="M946.45,-164.98C971.01,-156.07 1009.72,-142.02 1037.05,-132.1"/>
<polygon fill="#63b8ff" stroke="#63b8ff" points="1038.35,-135.35 1046.56,-128.65 1035.96,-128.77 1038.35,-135.35"/>
</a>
</g>
</g>
<!-- Node10 -->
<g id="Node000010" class="node">
<title>Node10</title>
<g id="a_Node000010"><a xlink:title=" ">
<polygon fill="#e0e0e0" stroke="#999999" points="1007,-19 963,-19 963,0 1007,0 1007,-19"/>
<text text-anchor="middle" x="985" y="-7" font-family="Helvetica,sans-Serif" font-size="10.00">string</text>
</a>
</g>
</g>
<!-- Node7&#45;&gt;Node10 -->
<g id="edge14_Node000007_Node000010" class="edge">
<title>Node7&#45;&gt;Node10</title>
<g id="a_edge14_Node000007_Node000010"><a xlink:title=" ">
<path fill="none" stroke="#63b8ff" d="M926.33,-164.74C936.09,-139.09 964.73,-63.78 978.04,-28.78"/>
<polygon fill="#63b8ff" stroke="#63b8ff" points="981.36,-29.9 981.65,-19.31 974.82,-27.41 981.36,-29.9"/>
</a>
</g>
</g>
<!-- Node31 -->
<g id="Node000031" class="node">
<title>Node31</title>
<g id="a_Node000031"><a xlink:title=" ">
<polygon fill="#e0e0e0" stroke="#999999" points="1029,-129 973,-129 973,-110 1029,-110 1029,-129"/>
<text text-anchor="middle" x="1001" y="-117" font-family="Helvetica,sans-Serif" font-size="10.00">optional</text>
</a>
</g>
</g>
<!-- Node7&#45;&gt;Node31 -->
<g id="edge13_Node000007_Node000031" class="edge">
<title>Node7&#45;&gt;Node31</title>
<g id="a_edge13_Node000007_Node000031"><a xlink:title=" ">
<path fill="none" stroke="#63b8ff" d="M935.53,-164.98C947.4,-156.92 965.46,-144.65 979.61,-135.03"/>
<polygon fill="#63b8ff" stroke="#63b8ff" points="981.93,-137.69 988.24,-129.17 978,-131.9 981.93,-137.69"/>
</a>
</g>
</g>
<!-- Node9&#45;&gt;Node10 -->
<g id="edge9_Node000009_Node000010" class="edge">
<title>Node9&#45;&gt;Node10</title>
<g id="a_edge9_Node000009_Node000010"><a xlink:title=" ">
<path fill="none" stroke="#63b8ff" d="M1062.12,-109.66C1048.09,-91.61 1015.93,-50.28 997.89,-27.08"/>
<polygon fill="#63b8ff" stroke="#63b8ff" points="1000.63,-24.9 991.73,-19.16 995.11,-29.2 1000.63,-24.9"/>
</a>
</g>
</g>
<!-- Node9&#45;&gt;Node12 -->
<g id="edge10_Node000009_Node000012" class="edge">
<title>Node9&#45;&gt;Node12</title>
<g id="a_edge10_Node000009_Node000012"><a xlink:title=" ">
<path fill="none" stroke="#63b8ff" d="M1046.73,-112.03C1043.8,-111.28 1040.84,-110.59 1038,-110 941.48,-90.1 826.63,-76.46 764.78,-69.93"/>
<polygon fill="#63b8ff" stroke="#63b8ff" points="764.91,-66.42 754.6,-68.87 764.18,-73.39 764.91,-66.42"/>
</a>
</g>
</g>
<!-- Node12&#45;&gt;Node10 -->
<g id="edge11_Node000012_Node000010" class="edge">
<title>Node12&#45;&gt;Node10</title>
<g id="a_edge11_Node000012_Node000010"><a xlink:title=" ">
<path fill="none" stroke="#63b8ff" d="M754.64,-56.57C806.25,-46.25 902.6,-26.98 952.77,-16.95"/>
<polygon fill="#63b8ff" stroke="#63b8ff" points="953.62,-20.35 962.74,-14.95 952.25,-13.48 953.62,-20.35"/>
</a>
</g>
</g>
<!-- Node15 -->
<g id="Node000015" class="node">
<title>Node15</title>
<g id="a_Node000015"><a xlink:title=" ">
<polygon fill="#e0e0e0" stroke="#999999" points="515.5,-19 446.5,-19 446.5,0 515.5,0 515.5,-19"/>
<text text-anchor="middle" x="481" y="-7" font-family="Helvetica,sans-Serif" font-size="10.00">type_traits</text>
</a>
</g>
</g>
<!-- Node12&#45;&gt;Node15 -->
<g id="edge12_Node000012_Node000015" class="edge">
<title>Node12&#45;&gt;Node15</title>
<g id="a_edge12_Node000012_Node000015"><a xlink:title=" ">
<path fill="none" stroke="#63b8ff" d="M685.24,-55.79C643.12,-46.45 572.04,-30.69 525.83,-20.44"/>
<polygon fill="#63b8ff" stroke="#63b8ff" points="526.31,-16.96 515.79,-18.22 524.8,-23.8 526.31,-16.96"/>
</a>
</g>
</g>
<!-- Node32&#45;&gt;Node15 -->
<g id="edge16_Node000032_Node000015" class="edge">
<title>Node32&#45;&gt;Node15</title>
<g id="a_edge16_Node000032_Node000015"><a xlink:title=" ">
<path fill="none" stroke="#63b8ff" d="M376,-274.87C385.89,-256.97 407,-214.24 407,-175.5 407,-175.5 407,-175.5 407,-118.5 407,-79.8 439.72,-44.81 461.65,-25.71"/>
<polygon fill="#63b8ff" stroke="#63b8ff" points="464.01,-28.3 469.43,-19.19 459.52,-22.93 464.01,-28.3"/>
</a>
</g>
</g>
<!-- Node33 -->
<g id="Node000033" class="node">
<title>Node33</title>
<g id="a_Node000033"><a xlink:href="exception__utils_8h.html" target="_top" xlink:title=" ">
<polygon fill="white" stroke="#666666" points="867,-239 767,-239 767,-220 867,-220 867,-239"/>
<text text-anchor="middle" x="817" y="-227" font-family="Helvetica,sans-Serif" font-size="10.00">exception_utils.h</text>
</a>
</g>
</g>
<!-- Node32&#45;&gt;Node33 -->
<g id="edge17_Node000032_Node000033" class="edge">
<title>Node32&#45;&gt;Node33</title>
<g id="a_edge17_Node000032_Node000033"><a xlink:title=" ">
<path fill="none" stroke="#63b8ff" d="M403.79,-278.51C412.01,-277.31 420.82,-276.07 429,-275 544.58,-259.91 679.9,-245.02 756.32,-236.86"/>
<polygon fill="#63b8ff" stroke="#63b8ff" points="757.14,-240.3 766.71,-235.76 756.39,-233.34 757.14,-240.3"/>
</a>
</g>
</g>
<!-- Node32&#45;&gt;Node34 -->
<g id="edge21_Node000032_Node000034" class="edge">
<title>Node32&#45;&gt;Node34</title>
<g id="a_edge21_Node000032_Node000034"><a xlink:title=" ">
<path fill="none" stroke="#63b8ff" d="M338.11,-276.02C298.34,-266.97 231.1,-251.68 185.65,-241.34"/>
<polygon fill="#63b8ff" stroke="#63b8ff" points="186.26,-237.89 175.74,-239.08 184.71,-244.72 186.26,-237.89"/>
</a>
</g>
</g>
<!-- Node33&#45;&gt;Node7 -->
<g id="edge20_Node000033_Node000007" class="edge">
<title>Node33&#45;&gt;Node7</title>
<g id="a_edge20_Node000033_Node000007"><a xlink:title=" ">
<path fill="none" stroke="#63b8ff" d="M834.03,-219.98C850.93,-211.54 877.06,-198.47 896.64,-188.68"/>
<polygon fill="#63b8ff" stroke="#63b8ff" points="898.28,-191.77 905.66,-184.17 895.15,-185.51 898.28,-191.77"/>
</a>
</g>
</g>
<!-- Node33&#45;&gt;Node10 -->
<g id="edge18_Node000033_Node000010" class="edge">
<title>Node33&#45;&gt;Node10</title>
<g id="a_edge18_Node000033_Node000010"><a xlink:title=" ">
<path fill="none" stroke="#63b8ff" d="M815.97,-219.95C813.95,-199.26 811.4,-145.63 834,-110 862.2,-65.53 918.27,-36.62 953.58,-21.97"/>
<polygon fill="#63b8ff" stroke="#63b8ff" points="954.97,-25.19 962.95,-18.22 952.36,-18.69 954.97,-25.19"/>
</a>
</g>
</g>
<!-- Node33&#45;&gt;Node12 -->
<g id="edge19_Node000033_Node000012" class="edge">
<title>Node33&#45;&gt;Node12</title>
<g id="a_edge19_Node000033_Node000012"><a xlink:title=" ">
<path fill="none" stroke="#63b8ff" d="M812.9,-219.93C803.29,-200.09 778.22,-149.65 753,-110 746.93,-100.46 739.48,-90.31 733.19,-82.11"/>
<polygon fill="#63b8ff" stroke="#63b8ff" points="735.86,-79.84 726.95,-74.1 730.34,-84.14 735.86,-79.84"/>
</a>
</g>
</g>
<!-- Node38&#45;&gt;Node4 -->
<g id="edge33_Node000038_Node000004" class="edge">
<title>Node38&#45;&gt;Node4</title>
<g id="a_edge33_Node000038_Node000004"><a xlink:title=" ">
<path fill="none" stroke="#63b8ff" d="M435.37,-441.52C381.16,-431.18 280.34,-411.96 227.8,-401.94"/>
<polygon fill="#63b8ff" stroke="#63b8ff" points="228.14,-398.45 217.66,-400.01 226.83,-405.32 228.14,-398.45"/>
</a>
</g>
</g>
<!-- Node38&#45;&gt;Node12 -->
<g id="edge32_Node000038_Node000012" class="edge">
<title>Node38&#45;&gt;Node12</title>
<g id="a_edge32_Node000038_Node000012"><a xlink:title=" ">
<path fill="none" stroke="#63b8ff" d="M507.51,-439.89C527.85,-433.25 552.36,-422.05 568,-404 587.28,-381.73 587,-369.96 587,-340.5 587,-340.5 587,-340.5 587,-173.5 587,-123.87 643.5,-93.05 682.85,-77.61"/>
<polygon fill="#63b8ff" stroke="#63b8ff" points="684.3,-80.8 692.44,-74.02 681.85,-74.25 684.3,-80.8"/>
</a>
</g>
</g>
<!-- Node38&#45;&gt;Node15 -->
<g id="edge30_Node000038_Node000015" class="edge">
<title>Node38&#45;&gt;Node15</title>
<g id="a_edge30_Node000038_Node000015"><a xlink:title=" ">
<path fill="none" stroke="#63b8ff" d="M472.83,-439.67C475.05,-415.21 481,-344.45 481,-285.5 481,-285.5 481,-285.5 481,-118.5 481,-87.19 481,-50.77 481,-29.23"/>
<polygon fill="#63b8ff" stroke="#63b8ff" points="484.5,-29.18 481,-19.18 477.5,-29.18 484.5,-29.18"/>
</a>
</g>
</g>
<!-- Node38&#45;&gt;Node37 -->
<g id="edge31_Node000038_Node000037" class="edge">
<title>Node38&#45;&gt;Node37</title>
<g id="a_edge31_Node000038_Node000037"><a xlink:title=" ">
<path fill="none" stroke="#63b8ff" d="M467.74,-439.66C459.2,-421.93 439.85,-381.73 428.58,-358.32"/>
<polygon fill="#63b8ff" stroke="#63b8ff" points="431.66,-356.65 424.16,-349.16 425.35,-359.69 431.66,-356.65"/>
</a>
</g>
</g>
<!-- Node39 -->
<g id="Node000039" class="node">
<title>Node39</title>
<g id="a_Node000039"><a xlink:title=" ">
<polygon fill="#e0e0e0" stroke="#999999" points="558.5,-404 501.5,-404 501.5,-385 558.5,-385 558.5,-404"/>
<text text-anchor="middle" x="530" y="-392" font-family="Helvetica,sans-Serif" font-size="10.00">typeinfo</text>
</a>
</g>
</g>
<!-- Node38&#45;&gt;Node39 -->
<g id="edge29_Node000038_Node000039" class="edge">
<title>Node38&#45;&gt;Node39</title>
<g id="a_edge29_Node000038_Node000039"><a xlink:title=" ">
<path fill="none" stroke="#63b8ff" d="M481.31,-439.98C489.8,-432.23 502.56,-420.58 512.88,-411.14"/>
<polygon fill="#63b8ff" stroke="#63b8ff" points="515.49,-413.5 520.51,-404.17 510.76,-408.33 515.49,-413.5"/>
</a>
</g>
</g>
<!-- Node40&#45;&gt;Node10 -->
<g id="edge37_Node000040_Node000010" class="edge">
<title>Node40&#45;&gt;Node10</title>
<g id="a_edge37_Node000040_Node000010"><a xlink:title=" ">
<path fill="none" stroke="#63b8ff" d="M898.01,-439.94C968.07,-409.36 1198,-303.44 1198,-230.5 1198,-230.5 1198,-230.5 1198,-118.5 1198,-38.51 1077.04,-17.75 1017.42,-12.37"/>
<polygon fill="#63b8ff" stroke="#63b8ff" points="1017.64,-8.88 1007.39,-11.56 1017.07,-15.85 1017.64,-8.88"/>
</a>
</g>
</g>
<!-- Node18 -->
<g id="Node000018" class="node">
<title>Node18</title>
<g id="a_Node000018"><a xlink:title=" ">
<polygon fill="#e0e0e0" stroke="#999999" points="822,-404 774,-404 774,-385 822,-385 822,-404"/>
<text text-anchor="middle" x="798" y="-392" font-family="Helvetica,sans-Serif" font-size="10.00">iosfwd</text>
</a>
</g>
</g>
<!-- Node40&#45;&gt;Node18 -->
<g id="edge36_Node000040_Node000018" class="edge">
<title>Node40&#45;&gt;Node18</title>
<g id="a_edge36_Node000040_Node000018"><a xlink:title=" ">
<path fill="none" stroke="#63b8ff" d="M865.14,-439.98C852.85,-431.84 834.09,-419.41 819.52,-409.76"/>
<polygon fill="#63b8ff" stroke="#63b8ff" points="821.35,-406.78 811.08,-404.17 817.49,-412.61 821.35,-406.78"/>
</a>
</g>
</g>
<!-- Node41 -->
<g id="Node000041" class="node">
<title>Node41</title>
<g id="a_Node000041"><a xlink:title=" ">
<polygon fill="#e0e0e0" stroke="#999999" points="934,-404 840,-404 840,-385 934,-385 934,-404"/>
<text text-anchor="middle" x="887" y="-392" font-family="Helvetica,sans-Serif" font-size="10.00">big&#45;int/bigint.hh</text>
</a>
</g>
</g>
<!-- Node40&#45;&gt;Node41 -->
<g id="edge38_Node000040_Node000041" class="edge">
<title>Node40&#45;&gt;Node41</title>
<g id="a_edge38_Node000040_Node000041"><a xlink:title=" ">
<path fill="none" stroke="#63b8ff" d="M879.48,-439.75C880.66,-432.8 882.35,-422.85 883.83,-414.13"/>
<polygon fill="#63b8ff" stroke="#63b8ff" points="887.31,-414.53 885.54,-404.09 880.41,-413.36 887.31,-414.53"/>
</a>
</g>
</g>
<!-- Node42&#45;&gt;Node9 -->
<g id="edge46_Node000042_Node000009" class="edge">
<title>Node42&#45;&gt;Node9</title>
<g id="a_edge46_Node000042_Node000009"><a xlink:title=" ">
<path fill="none" stroke="#63b8ff" d="M1026.28,-549.73C1033.77,-541.28 1044.44,-527.76 1050,-514 1059.25,-491.1 1055.99,-483.62 1058,-459 1059.98,-434.63 1058.72,-428.45 1059,-404 1059.14,-390.72 1058.65,-178.21 1060,-165 1060.87,-156.47 1062.62,-147.16 1064.35,-139.27"/>
<polygon fill="#63b8ff" stroke="#63b8ff" points="1067.82,-139.82 1066.69,-129.29 1061,-138.23 1067.82,-139.82"/>
</a>
</g>
</g>
<!-- Node42&#45;&gt;Node31 -->
<g id="edge48_Node000042_Node000031" class="edge">
<title>Node42&#45;&gt;Node31</title>
<g id="a_edge48_Node000042_Node000031"><a xlink:title=" ">
<path fill="none" stroke="#63b8ff" d="M1021.75,-549.73C1029.17,-531.56 1045,-488.38 1045,-450.5 1045,-450.5 1045,-450.5 1045,-283.5 1045,-254.94 1019.51,-175.43 1007.33,-139.07"/>
<polygon fill="#63b8ff" stroke="#63b8ff" points="1010.54,-137.63 1004.02,-129.28 1003.91,-139.87 1010.54,-137.63"/>
</a>
</g>
</g>
<!-- Node43 -->
<g id="Node000043" class="node">
<title>Node43</title>
<g id="a_Node000043"><a xlink:href="ieee__float_8h.html" target="_top" xlink:title=" ">
<polygon fill="white" stroke="#666666" points="970,-514 896,-514 896,-495 970,-495 970,-514"/>
<text text-anchor="middle" x="933" y="-502" font-family="Helvetica,sans-Serif" font-size="10.00">ieee_float.h</text>
</a>
</g>
</g>
<!-- Node42&#45;&gt;Node43 -->
<g id="edge42_Node000042_Node000043" class="edge">
<title>Node42&#45;&gt;Node43</title>
<g id="a_edge42_Node000042_Node000043"><a xlink:title=" ">
<path fill="none" stroke="#63b8ff" d="M1004.34,-549.98C991.16,-541.77 970.97,-529.18 955.43,-519.49"/>
<polygon fill="#63b8ff" stroke="#63b8ff" points="957.24,-516.49 946.9,-514.17 953.54,-522.43 957.24,-516.49"/>
</a>
</g>
</g>
<!-- Node22 -->
<g id="Node000022" class="node">
<title>Node22</title>
<g id="a_Node000022"><a xlink:title=" ">
<polygon fill="#e0e0e0" stroke="#999999" points="857,-514 825,-514 825,-495 857,-495 857,-514"/>
<text text-anchor="middle" x="841" y="-502" font-family="Helvetica,sans-Serif" font-size="10.00">list</text>
</a>
</g>
</g>
<!-- Node42&#45;&gt;Node22 -->
<g id="edge47_Node000042_Node000022" class="edge">
<title>Node42&#45;&gt;Node22</title>
<g id="a_edge47_Node000042_Node000022"><a xlink:title=" ">
<path fill="none" stroke="#63b8ff" d="M989.56,-549.98C955.7,-539.85 899.63,-523.06 866.91,-513.26"/>
<polygon fill="#63b8ff" stroke="#63b8ff" points="867.76,-509.86 857.17,-510.34 865.75,-516.57 867.76,-509.86"/>
</a>
</g>
</g>
<!-- Node43&#45;&gt;Node40 -->
<g id="edge44_Node000043_Node000040" class="edge">
<title>Node43&#45;&gt;Node40</title>
<g id="a_edge44_Node000043_Node000040"><a xlink:title=" ">
<path fill="none" stroke="#63b8ff" d="M923.91,-494.75C915.9,-487.03 904.04,-475.6 894.38,-466.28"/>
<polygon fill="#63b8ff" stroke="#63b8ff" points="896.54,-463.51 886.91,-459.09 891.68,-468.55 896.54,-463.51"/>
</a>
</g>
</g>
<!-- Node43&#45;&gt;Node18 -->
<g id="edge43_Node000043_Node000018" class="edge">
<title>Node43&#45;&gt;Node18</title>
<g id="a_edge43_Node000043_Node000018"><a xlink:title=" ">
<path fill="none" stroke="#63b8ff" d="M901.92,-494.87C881.11,-487.87 854.13,-476.29 835,-459 821.11,-446.46 811,-427.45 804.88,-413.5"/>
<polygon fill="#63b8ff" stroke="#63b8ff" points="808.03,-411.94 801,-404.01 801.55,-414.59 808.03,-411.94"/>
</a>
</g>
</g>
<!-- Node44 -->
<g id="Node000044" class="node">
<title>Node44</title>
<g id="a_Node000044"><a xlink:href="format__spec_8h.html" target="_top" xlink:title=" ">
<polygon fill="white" stroke="#666666" points="1017,-459 931,-459 931,-440 1017,-440 1017,-459"/>
<text text-anchor="middle" x="974" y="-447" font-family="Helvetica,sans-Serif" font-size="10.00">format_spec.h</text>
</a>
</g>
</g>
<!-- Node43&#45;&gt;Node44 -->
<g id="edge45_Node000043_Node000044" class="edge">
<title>Node43&#45;&gt;Node44</title>
<g id="a_edge45_Node000043_Node000044"><a xlink:title=" ">
<path fill="none" stroke="#63b8ff" d="M939.77,-494.75C945.56,-487.26 954.05,-476.28 961.13,-467.13"/>
<polygon fill="#63b8ff" stroke="#63b8ff" points="964,-469.14 967.35,-459.09 958.46,-464.86 964,-469.14"/>
</a>
</g>
</g>
<!-- Node45&#45;&gt;Node9 -->
<g id="edge51_Node000045_Node000009" class="edge">
<title>Node45&#45;&gt;Node9</title>
<g id="a_edge51_Node000045_Node000009"><a xlink:title=" ">
<path fill="none" stroke="#63b8ff" d="M1110.74,-164.75C1103.53,-157.11 1092.89,-145.82 1084.15,-136.56"/>
<polygon fill="#63b8ff" stroke="#63b8ff" points="1086.51,-133.96 1077.1,-129.09 1081.42,-138.76 1086.51,-133.96"/>
</a>
</g>
</g>
<!-- Node45&#45;&gt;Node12 -->
<g id="edge50_Node000045_Node000012" class="edge">
<title>Node45&#45;&gt;Node12</title>
<g id="a_edge50_Node000045_Node000012"><a xlink:title=" ">
<path fill="none" stroke="#63b8ff" d="M1119.19,-164.94C1118.99,-151.05 1116.39,-123.76 1100,-110 1050.14,-68.15 853.9,-64.3 764.63,-64.79"/>
<polygon fill="#63b8ff" stroke="#63b8ff" points="764.52,-61.29 754.55,-64.87 764.57,-68.29 764.52,-61.29"/>
</a>
</g>
</g>
<!-- Node46&#45;&gt;Node3 -->
<g id="edge55_Node000046_Node000003" class="edge">
<title>Node46&#45;&gt;Node3</title>
<g id="a_edge55_Node000046_Node000003"><a xlink:title=" ">
<path fill="none" stroke="#63b8ff" d="M459.27,-549.98C448.26,-542 431.58,-529.88 418.39,-520.31"/>
<polygon fill="#63b8ff" stroke="#63b8ff" points="420.09,-517.21 409.94,-514.17 415.97,-522.88 420.09,-517.21"/>
</a>
</g>
</g>
<!-- Node46&#45;&gt;Node12 -->
<g id="edge54_Node000046_Node000012" class="edge">
<title>Node46&#45;&gt;Node12</title>
<g id="a_edge54_Node000046_Node000012"><a xlink:title=" ">
<path fill="none" stroke="#63b8ff" d="M497.69,-549.96C550.45,-531.22 663,-481.2 663,-395.5 663,-395.5 663,-395.5 663,-173.5 663,-137.51 688.06,-101.76 704.95,-81.76"/>
<polygon fill="#63b8ff" stroke="#63b8ff" points="707.62,-84.02 711.59,-74.2 702.36,-79.4 707.62,-84.02"/>
</a>
</g>
</g>
<!-- Node46&#45;&gt;Node38 -->
<g id="edge53_Node000046_Node000038" class="edge">
<title>Node46&#45;&gt;Node38</title>
<g id="a_edge53_Node000046_Node000038"><a xlink:title=" ">
<path fill="none" stroke="#63b8ff" d="M471.08,-549.66C471.24,-532.17 471.6,-492.8 471.82,-469.27"/>
<polygon fill="#63b8ff" stroke="#63b8ff" points="475.32,-469.19 471.92,-459.16 468.32,-469.13 475.32,-469.19"/>
</a>
</g>
</g>
<!-- Node47&#45;&gt;Node3 -->
<g id="edge57_Node000047_Node000003" class="edge">
<title>Node47&#45;&gt;Node3</title>
<g id="a_edge57_Node000047_Node000003"><a xlink:title=" ">
<path fill="none" stroke="#63b8ff" d="M711.97,-717.6C649.01,-707.6 534.98,-682.39 457,-624 423.84,-599.17 408.12,-550.56 401.73,-523.96"/>
<polygon fill="#63b8ff" stroke="#63b8ff" points="405.11,-523.06 399.53,-514.05 398.28,-524.57 405.11,-523.06"/>
</a>
</g>
</g>
<!-- Node48 -->
<g id="Node000048" class="node">
<title>Node48</title>
<g id="a_Node000048"><a xlink:href="goto__program_8h.html" target="_top" xlink:title="Concrete Goto Program.">
<polygon fill="white" stroke="#666666" points="805,-679 711,-679 711,-660 805,-660 805,-679"/>
<text text-anchor="middle" x="758" y="-667" font-family="Helvetica,sans-Serif" font-size="10.00">goto_program.h</text>
</a>
</g>
</g>
<!-- Node47&#45;&gt;Node48 -->
<g id="edge58_Node000047_Node000048" class="edge">
<title>Node47&#45;&gt;Node48</title>
<g id="a_edge58_Node000047_Node000048"><a xlink:title=" ">
<path fill="none" stroke="#63b8ff" d="M758,-714.75C758,-707.8 758,-697.85 758,-689.13"/>
<polygon fill="#63b8ff" stroke="#63b8ff" points="761.5,-689.09 758,-679.09 754.5,-689.09 761.5,-689.09"/>
</a>
</g>
</g>
<!-- Node48&#45;&gt;Node7 -->
<g id="edge60_Node000048_Node000007" class="edge">
<title>Node48&#45;&gt;Node7</title>
<g id="a_edge60_Node000048_Node000007"><a xlink:title=" ">
<path fill="none" stroke="#63b8ff" d="M805.23,-668.98C875.15,-666.8 1004.33,-651.15 1064,-569 1068.96,-562.17 1065.11,-558.37 1064,-550 1051.22,-454.35 1007,-437 1007,-340.5 1007,-340.5 1007,-340.5 1007,-283.5 1007,-242.92 969.58,-208.4 944.69,-189.93"/>
<polygon fill="#63b8ff" stroke="#63b8ff" points="946.67,-187.03 936.49,-184.08 942.6,-192.73 946.67,-187.03"/>
</a>
</g>
</g>
<!-- Node48&#45;&gt;Node10 -->
<g id="edge72_Node000048_Node000010" class="edge">
<title>Node48&#45;&gt;Node10</title>
<g id="a_edge72_Node000048_Node000010"><a xlink:title=" ">
<path fill="none" stroke="#63b8ff" d="M805.1,-664.35C871.67,-657.88 989.38,-644 1027,-624 1201.84,-531.03 1236,-428.53 1236,-230.5 1236,-230.5 1236,-230.5 1236,-118.5 1236,-24.39 1085.26,-11.28 1017.41,-10.15"/>
<polygon fill="#63b8ff" stroke="#63b8ff" points="1017.3,-6.65 1007.27,-10.06 1017.24,-13.65 1017.3,-6.65"/>
</a>
</g>
</g>
<!-- Node48&#45;&gt;Node12 -->
<g id="edge59_Node000048_Node000012" class="edge">
<title>Node48&#45;&gt;Node12</title>
<g id="a_edge59_Node000048_Node000012"><a xlink:title=" ">
<path fill="none" stroke="#63b8ff" d="M755.43,-659.91C750.25,-641.74 739,-598 739,-560.5 739,-560.5 739,-560.5 739,-173.5 739,-141.56 730.84,-105.1 725.21,-83.77"/>
<polygon fill="#63b8ff" stroke="#63b8ff" points="728.58,-82.81 722.56,-74.09 721.83,-84.66 728.58,-82.81"/>
</a>
</g>
</g>
<!-- Node48&#45;&gt;Node18 -->
<g id="edge68_Node000048_Node000018" class="edge">
<title>Node48&#45;&gt;Node18</title>
<g id="a_edge68_Node000048_Node000018"><a xlink:title=" ">
<path fill="none" stroke="#63b8ff" d="M760.56,-659.91C765.74,-641.74 777,-598 777,-560.5 777,-560.5 777,-560.5 777,-503.5 777,-471.46 786.01,-435.03 792.23,-413.73"/>
<polygon fill="#63b8ff" stroke="#63b8ff" points="795.61,-414.65 795.16,-404.07 788.91,-412.62 795.61,-414.65"/>
</a>
</g>
</g>
<!-- Node48&#45;&gt;Node22 -->
<g id="edge70_Node000048_Node000022" class="edge">
<title>Node48&#45;&gt;Node22</title>
<g id="a_edge70_Node000048_Node000022"><a xlink:title=" ">
<path fill="none" stroke="#63b8ff" d="M765.49,-659.73C772.66,-651.06 783.46,-637.2 791,-624 810.29,-590.2 826.49,-547.49 834.86,-523.67"/>
<polygon fill="#63b8ff" stroke="#63b8ff" points="838.19,-524.76 838.15,-514.16 831.58,-522.47 838.19,-524.76"/>
</a>
</g>
</g>
<!-- Node49 -->
<g id="Node000049" class="node">
<title>Node49</title>
<g id="a_Node000049"><a xlink:href="goto__instruction__code_8h.html" target="_top" xlink:title=" ">
<polygon fill="white" stroke="#666666" points="598.5,-624 465.5,-624 465.5,-605 598.5,-605 598.5,-624"/>
<text text-anchor="middle" x="532" y="-612" font-family="Helvetica,sans-Serif" font-size="10.00">goto_instruction_code.h</text>
</a>
</g>
</g>
<!-- Node48&#45;&gt;Node49 -->
<g id="edge61_Node000048_Node000049" class="edge">
<title>Node48&#45;&gt;Node49</title>
<g id="a_edge61_Node000048_Node000049"><a xlink:title=" ">
<path fill="none" stroke="#63b8ff" d="M721.69,-659.98C682.76,-650.86 620.84,-636.33 578.4,-626.38"/>
<polygon fill="#63b8ff" stroke="#63b8ff" points="579.13,-622.96 568.59,-624.08 577.53,-629.77 579.13,-622.96"/>
</a>
</g>
</g>
<!-- Node51 -->
<g id="Node000051" class="node">
<title>Node51</title>
<g id="a_Node000051"><a xlink:title=" ">
<polygon fill="#e0e0e0" stroke="#999999" points="661,-624 617,-624 617,-605 661,-605 661,-624"/>
<text text-anchor="middle" x="639" y="-612" font-family="Helvetica,sans-Serif" font-size="10.00">limits</text>
</a>
</g>
</g>
<!-- Node48&#45;&gt;Node51 -->
<g id="edge69_Node000048_Node000051" class="edge">
<title>Node48&#45;&gt;Node51</title>
<g id="a_edge69_Node000048_Node000051"><a xlink:title=" ">
<path fill="none" stroke="#63b8ff" d="M738.88,-659.98C719.65,-651.42 689.76,-638.11 667.69,-628.28"/>
<polygon fill="#63b8ff" stroke="#63b8ff" points="669.02,-625.04 658.46,-624.17 666.17,-631.44 669.02,-625.04"/>
</a>
</g>
</g>
<!-- Node52 -->
<g id="Node000052" class="node">
<title>Node52</title>
<g id="a_Node000052"><a xlink:title=" ">
<polygon fill="#e0e0e0" stroke="#999999" points="711,-624 679,-624 679,-605 711,-605 711,-624"/>
<text text-anchor="middle" x="695" y="-612" font-family="Helvetica,sans-Serif" font-size="10.00">set</text>
</a>
</g>
</g>
<!-- Node48&#45;&gt;Node52 -->
<g id="edge71_Node000048_Node000052" class="edge">
<title>Node48&#45;&gt;Node52</title>
<g id="a_edge71_Node000048_Node000052"><a xlink:title=" ">
<path fill="none" stroke="#63b8ff" d="M747.87,-659.98C738.56,-652.15 724.53,-640.34 713.26,-630.86"/>
<polygon fill="#63b8ff" stroke="#63b8ff" points="715.21,-627.93 705.3,-624.17 710.7,-633.29 715.21,-627.93"/>
</a>
</g>
</g>
<!-- Node49&#45;&gt;Node46 -->
<g id="edge67_Node000049_Node000046" class="edge">
<title>Node49&#45;&gt;Node46</title>
<g id="a_edge67_Node000049_Node000046"><a xlink:title=" ">
<path fill="none" stroke="#63b8ff" d="M522.2,-604.98C513.18,-597.15 499.59,-585.34 488.68,-575.86"/>
<polygon fill="#63b8ff" stroke="#63b8ff" points="490.82,-573.09 480.98,-569.17 486.23,-578.37 490.82,-573.09"/>
</a>
</g>
</g>
<!-- Node50 -->
<g id="Node000050" class="node">
<title>Node50</title>
<g id="a_Node000050"><a xlink:href="std__code__base_8h.html" target="_top" xlink:title=" ">
<polygon fill="white" stroke="#666666" points="648,-569 532,-569 532,-550 648,-550 648,-569"/>
<text text-anchor="middle" x="590" y="-557" font-family="Helvetica,sans-Serif" font-size="10.00">util/std_code_base.h</text>
</a>
</g>
</g>
<!-- Node49&#45;&gt;Node50 -->
<g id="edge62_Node000049_Node000050" class="edge">
<title>Node49&#45;&gt;Node50</title>
<g id="a_edge62_Node000049_Node000050"><a xlink:title=" ">
<path fill="none" stroke="#63b8ff" d="M541.31,-604.98C549.8,-597.23 562.56,-585.58 572.88,-576.14"/>
<polygon fill="#63b8ff" stroke="#63b8ff" points="575.49,-578.5 580.51,-569.17 570.76,-573.33 575.49,-578.5"/>
</a>
</g>
</g>
<!-- Node50&#45;&gt;Node3 -->
<g id="edge65_Node000050_Node000003" class="edge">
<title>Node50&#45;&gt;Node3</title>
<g id="a_edge65_Node000050_Node000003"><a xlink:title=" ">
<path fill="none" stroke="#63b8ff" d="M559.15,-549.98C526.49,-540.97 474.8,-526.7 438.8,-516.76"/>
<polygon fill="#63b8ff" stroke="#63b8ff" points="439.66,-513.37 429.09,-514.08 437.79,-520.12 439.66,-513.37"/>
</a>
</g>
</g>
<!-- Node50&#45;&gt;Node12 -->
<g id="edge64_Node000050_Node000012" class="edge">
<title>Node50&#45;&gt;Node12</title>
<g id="a_edge64_Node000050_Node000012"><a xlink:title=" ">
<path fill="none" stroke="#63b8ff" d="M610.36,-549.91C642.4,-534.86 701,-500.51 701,-450.5 701,-450.5 701,-450.5 701,-173.5 701,-141.56 709.16,-105.1 714.78,-83.77"/>
<polygon fill="#63b8ff" stroke="#63b8ff" points="718.16,-84.66 717.43,-74.09 711.41,-82.81 718.16,-84.66"/>
</a>
</g>
</g>
<!-- Node50&#45;&gt;Node32 -->
<g id="edge66_Node000050_Node000032" class="edge">
<title>Node50&#45;&gt;Node32</title>
<g id="a_edge66_Node000050_Node000032"><a xlink:title=" ">
<path fill="none" stroke="#63b8ff" d="M594.86,-549.85C604.48,-531.92 625,-489.13 625,-450.5 625,-450.5 625,-450.5 625,-393.5 625,-302.84 486.26,-287.2 413.86,-285.2"/>
<polygon fill="#63b8ff" stroke="#63b8ff" points="413.75,-281.7 403.68,-285 413.61,-288.7 413.75,-281.7"/>
</a>
</g>
</g>
<!-- Node50&#45;&gt;Node38 -->
<g id="edge63_Node000050_Node000038" class="edge">
<title>Node50&#45;&gt;Node38</title>
<g id="a_edge63_Node000050_Node000038"><a xlink:title=" ">
<path fill="none" stroke="#63b8ff" d="M580.34,-549.66C560.36,-531.38 514.26,-489.18 489.11,-466.17"/>
<polygon fill="#63b8ff" stroke="#63b8ff" points="491.2,-463.33 481.46,-459.16 486.47,-468.49 491.2,-463.33"/>
</a>
</g>
</g>
</g>
</svg>
