<?xml version="1.0" encoding="UTF-8" standalone="no"?>
<!DOCTYPE svg PUBLIC "-//W3C//DTD SVG 1.1//EN"
 "http://www.w3.org/Graphics/SVG/1.1/DTD/svg11.dtd">
<!-- Generated by graphviz version 2.43.0 (0)
 -->
<!-- Title: mz_zip_reader_extract_iter_state Pages: 1 -->
<svg width="452pt" height="269pt"
 viewBox="0.00 0.00 452.00 269.00" xmlns="http://www.w3.org/2000/svg" xmlns:xlink="http://www.w3.org/1999/xlink">
<g id="graph0" class="graph" transform="scale(1 1) rotate(0) translate(4 265)">
<title>mz_zip_reader_extract_iter_state</title>
<!-- Node1 -->
<g id="Node000001" class="node">
<title>Node1</title>
<g id="a_Node000001"><a xlink:title=" ">
<polygon fill="#999999" stroke="#666666" points="290.5,-30 162.5,-30 162.5,0 290.5,0 290.5,-30"/>
<text text-anchor="start" x="170.5" y="-18" font-family="Helvetica,sans-Serif" font-size="10.00">mz_zip_reader_extract</text>
<text text-anchor="middle" x="226.5" y="-7" font-family="Helvetica,sans-Serif" font-size="10.00">_iter_state</text>
</a>
</g>
</g>
<!-- Node2 -->
<g id="Node000002" class="node">
<title>Node2</title>
<g id="a_Node000002"><a xlink:href="structmz__zip__archive.html" target="_top" xlink:title=" ">
<polygon fill="white" stroke="#666666" points="133.5,-96 41.5,-96 41.5,-77 133.5,-77 133.5,-96"/>
<text text-anchor="middle" x="87.5" y="-84" font-family="Helvetica,sans-Serif" font-size="10.00">mz_zip_archive</text>
</a>
</g>
</g>
<!-- Node2&#45;&gt;Node1 -->
<g id="edge1_Node000001_Node000002" class="edge">
<title>Node2&#45;&gt;Node1</title>
<g id="a_edge1_Node000001_Node000002"><a xlink:title=" ">
<path fill="none" stroke="#9a32cd" stroke-dasharray="5,2" d="M113.51,-72.5C137.7,-60.4 173.66,-42.42 198.49,-30.01"/>
<polygon fill="#9a32cd" stroke="#9a32cd" points="111.92,-69.38 104.54,-76.98 115.05,-75.64 111.92,-69.38"/>
</a>
</g>
<text text-anchor="middle" x="174" y="-51" font-family="Helvetica,sans-Serif" font-size="10.00" fill="grey"> pZip</text>
</g>
<!-- Node3 -->
<g id="Node000003" class="node">
<title>Node3</title>
<g id="a_Node000003"><a xlink:href="structmz__zip__internal__state__tag.html" target="_top" xlink:title=" ">
<polygon fill="white" stroke="#666666" points="145,-162 0,-162 0,-143 145,-143 145,-162"/>
<text text-anchor="middle" x="72.5" y="-150" font-family="Helvetica,sans-Serif" font-size="10.00">mz_zip_internal_state_tag</text>
</a>
</g>
</g>
<!-- Node3&#45;&gt;Node2 -->
<g id="edge2_Node000002_Node000003" class="edge">
<title>Node3&#45;&gt;Node2</title>
<g id="a_edge2_Node000002_Node000003"><a xlink:title=" ">
<path fill="none" stroke="#9a32cd" stroke-dasharray="5,2" d="M76.85,-132.95C79.66,-120.93 83.21,-105.82 85.41,-96.41"/>
<polygon fill="#9a32cd" stroke="#9a32cd" points="73.4,-132.33 74.52,-142.87 80.21,-133.93 73.4,-132.33"/>
</a>
</g>
<text text-anchor="middle" x="106.5" y="-117" font-family="Helvetica,sans-Serif" font-size="10.00" fill="grey"> m_pState</text>
</g>
<!-- Node4 -->
<g id="Node000004" class="node">
<title>Node4</title>
<g id="a_Node000004"><a xlink:href="structmz__zip__array.html" target="_top" xlink:title=" ">
<polygon fill="white" stroke="#666666" points="113.5,-261 31.5,-261 31.5,-242 113.5,-242 113.5,-261"/>
<text text-anchor="middle" x="72.5" y="-249" font-family="Helvetica,sans-Serif" font-size="10.00">mz_zip_array</text>
</a>
</g>
</g>
<!-- Node4&#45;&gt;Node3 -->
<g id="edge3_Node000003_Node000004" class="edge">
<title>Node4&#45;&gt;Node3</title>
<g id="a_edge3_Node000003_Node000004"><a xlink:title=" ">
<path fill="none" stroke="#9a32cd" stroke-dasharray="5,2" d="M72.5,-231.68C72.5,-210.74 72.5,-177.81 72.5,-162.23"/>
<polygon fill="#9a32cd" stroke="#9a32cd" points="69,-231.89 72.5,-241.89 76,-231.89 69,-231.89"/>
</a>
</g>
<text text-anchor="middle" x="125.5" y="-216" font-family="Helvetica,sans-Serif" font-size="10.00" fill="grey"> m_central_dir</text>
<text text-anchor="middle" x="125.5" y="-205" font-family="Helvetica,sans-Serif" font-size="10.00" fill="grey">m_central_dir_offsets</text>
<text text-anchor="start" x="72.5" y="-194" font-family="Helvetica,sans-Serif" font-size="10.00" fill="grey">m_sorted_central_dir</text>
<text text-anchor="middle" x="125.5" y="-183" font-family="Helvetica,sans-Serif" font-size="10.00" fill="grey">_offsets</text>
</g>
<!-- Node5 -->
<g id="Node000005" class="node">
<title>Node5</title>
<g id="a_Node000005"><a xlink:href="structmz__zip__archive__file__stat.html" target="_top" xlink:title=" ">
<polygon fill="white" stroke="#666666" points="295,-96 158,-96 158,-77 295,-77 295,-96"/>
<text text-anchor="middle" x="226.5" y="-84" font-family="Helvetica,sans-Serif" font-size="10.00">mz_zip_archive_file_stat</text>
</a>
</g>
</g>
<!-- Node5&#45;&gt;Node1 -->
<g id="edge4_Node000001_Node000005" class="edge">
<title>Node5&#45;&gt;Node1</title>
<g id="a_edge4_Node000001_Node000005"><a xlink:title=" ">
<path fill="none" stroke="#9a32cd" stroke-dasharray="5,2" d="M226.5,-66.71C226.5,-55.19 226.5,-40.68 226.5,-30.14"/>
<polygon fill="#9a32cd" stroke="#9a32cd" points="223,-66.98 226.5,-76.98 230,-66.98 223,-66.98"/>
</a>
</g>
<text text-anchor="middle" x="248" y="-51" font-family="Helvetica,sans-Serif" font-size="10.00" fill="grey"> file_stat</text>
</g>
<!-- Node6 -->
<g id="Node000006" class="node">
<title>Node6</title>
<g id="a_Node000006"><a xlink:href="structmz__dummy__time__t__tag.html" target="_top" xlink:title=" ">
<polygon fill="white" stroke="#666666" points="295.5,-162 163.5,-162 163.5,-143 295.5,-143 295.5,-162"/>
<text text-anchor="middle" x="229.5" y="-150" font-family="Helvetica,sans-Serif" font-size="10.00">mz_dummy_time_t_tag</text>
</a>
</g>
</g>
<!-- Node6&#45;&gt;Node5 -->
<g id="edge5_Node000005_Node000006" class="edge">
<title>Node6&#45;&gt;Node5</title>
<g id="a_edge5_Node000005_Node000006"><a xlink:title=" ">
<path fill="none" stroke="#9a32cd" stroke-dasharray="5,2" d="M228.61,-132.58C228.05,-120.63 227.35,-105.72 226.92,-96.41"/>
<polygon fill="#9a32cd" stroke="#9a32cd" points="225.13,-133.04 229.1,-142.87 232.12,-132.72 225.13,-133.04"/>
</a>
</g>
<text text-anchor="middle" x="257.5" y="-117" font-family="Helvetica,sans-Serif" font-size="10.00" fill="grey"> m_padding</text>
</g>
<!-- Node7 -->
<g id="Node000007" class="node">
<title>Node7</title>
<g id="a_Node000007"><a xlink:href="structtinfl__decompressor__tag.html" target="_top" xlink:title=" ">
<polygon fill="white" stroke="#666666" points="444,-96 313,-96 313,-77 444,-77 444,-96"/>
<text text-anchor="middle" x="378.5" y="-84" font-family="Helvetica,sans-Serif" font-size="10.00">tinfl_decompressor_tag</text>
</a>
</g>
</g>
<!-- Node7&#45;&gt;Node1 -->
<g id="edge6_Node000001_Node000007" class="edge">
<title>Node7&#45;&gt;Node1</title>
<g id="a_edge6_Node000001_Node000007"><a xlink:title=" ">
<path fill="none" stroke="#9a32cd" stroke-dasharray="5,2" d="M350.76,-72.82C324.3,-60.72 284.52,-42.53 257.13,-30.01"/>
<polygon fill="#9a32cd" stroke="#9a32cd" points="349.31,-76 359.86,-76.98 352.22,-69.64 349.31,-76"/>
</a>
</g>
<text text-anchor="middle" x="334.5" y="-51" font-family="Helvetica,sans-Serif" font-size="10.00" fill="grey"> inflator</text>
</g>
</g>
</svg>
