<?xml version="1.0" encoding="UTF-8" standalone="no"?>
<!DOCTYPE svg PUBLIC "-//W3C//DTD SVG 1.1//EN"
 "http://www.w3.org/Graphics/SVG/1.1/DTD/svg11.dtd">
<!-- Generated by graphviz version 2.43.0 (0)
 -->
<!-- Title: /home/runner/work/cbmc/cbmc/src/ansi&#45;c/type2name.cpp Pages: 1 -->
<svg width="1265pt" height="654pt"
 viewBox="0.00 0.00 1265.00 654.00" xmlns="http://www.w3.org/2000/svg" xmlns:xlink="http://www.w3.org/1999/xlink">
<g id="graph0" class="graph" transform="scale(1 1) rotate(0) translate(4 650)">
<title>/home/runner/work/cbmc/cbmc/src/ansi&#45;c/type2name.cpp</title>
<!-- Node1 -->
<g id="Node000001" class="node">
<title>Node1</title>
<g id="a_Node000001"><a xlink:title="Type Naming for C.">
<polygon fill="#999999" stroke="#666666" points="793,-646 619,-646 619,-616 793,-616 793,-646"/>
<text text-anchor="start" x="627" y="-634" font-family="Helvetica,sans-Serif" font-size="10.00">/home/runner/work/cbmc</text>
<text text-anchor="middle" x="706" y="-623" font-family="Helvetica,sans-Serif" font-size="10.00">/cbmc/src/ansi&#45;c/type2name.cpp</text>
</a>
</g>
</g>
<!-- Node2 -->
<g id="Node000002" class="node">
<title>Node2</title>
<g id="a_Node000002"><a xlink:href="type2name_8h.html" target="_top" xlink:title="Type Naming for C.">
<polygon fill="white" stroke="#666666" points="1256.5,-74 1175.5,-74 1175.5,-55 1256.5,-55 1256.5,-74"/>
<text text-anchor="middle" x="1216" y="-62" font-family="Helvetica,sans-Serif" font-size="10.00">type2name.h</text>
</a>
</g>
</g>
<!-- Node1&#45;&gt;Node2 -->
<g id="edge1_Node000001_Node000002" class="edge">
<title>Node1&#45;&gt;Node2</title>
<g id="a_edge1_Node000001_Node000002"><a xlink:title=" ">
<path fill="none" stroke="#63b8ff" d="M793.02,-627.05C931.12,-619.98 1185,-596.14 1185,-516.5 1185,-516.5 1185,-516.5 1185,-173.5 1185,-140.79 1198.3,-104.6 1207.48,-83.52"/>
<polygon fill="#63b8ff" stroke="#63b8ff" points="1210.75,-84.77 1211.69,-74.22 1204.37,-81.88 1210.75,-84.77"/>
</a>
</g>
</g>
<!-- Node4 -->
<g id="Node000004" class="node">
<title>Node4</title>
<g id="a_Node000004"><a xlink:href="arith__tools_8h.html" target="_top" xlink:title=" ">
<polygon fill="white" stroke="#666666" points="754,-525 658,-525 658,-506 754,-506 754,-525"/>
<text text-anchor="middle" x="706" y="-513" font-family="Helvetica,sans-Serif" font-size="10.00">util/arith_tools.h</text>
</a>
</g>
</g>
<!-- Node1&#45;&gt;Node4 -->
<g id="edge3_Node000001_Node000004" class="edge">
<title>Node1&#45;&gt;Node4</title>
<g id="a_edge3_Node000001_Node000004"><a xlink:title=" ">
<path fill="none" stroke="#63b8ff" d="M706,-615.63C706,-595.21 706,-557.81 706,-535.24"/>
<polygon fill="#63b8ff" stroke="#63b8ff" points="709.5,-535.23 706,-525.23 702.5,-535.23 709.5,-535.23"/>
</a>
</g>
</g>
<!-- Node5 -->
<g id="Node000005" class="node">
<title>Node5</title>
<g id="a_Node000005"><a xlink:href="src_2util_2invariant_8h.html" target="_top" xlink:title=" ">
<polygon fill="white" stroke="#666666" points="724.5,-74 655.5,-74 655.5,-55 724.5,-55 724.5,-74"/>
<text text-anchor="middle" x="690" y="-62" font-family="Helvetica,sans-Serif" font-size="10.00">invariant.h</text>
</a>
</g>
</g>
<!-- Node1&#45;&gt;Node5 -->
<g id="edge53_Node000001_Node000005" class="edge">
<title>Node1&#45;&gt;Node5</title>
<g id="a_edge53_Node000001_Node000005"><a xlink:title=" ">
<path fill="none" stroke="#63b8ff" d="M618.72,-624.95C429.83,-612.85 0,-578.49 0,-516.5 0,-516.5 0,-516.5 0,-283.5 0,-195.37 20.68,-155.76 96,-110 142.58,-81.7 515.18,-69.84 645.33,-66.53"/>
<polygon fill="#63b8ff" stroke="#63b8ff" points="645.45,-70.02 655.36,-66.28 645.27,-63.03 645.45,-70.02"/>
</a>
</g>
</g>
<!-- Node12 -->
<g id="Node000012" class="node">
<title>Node12</title>
<g id="a_Node000012"><a xlink:href="std__expr_8h.html" target="_top" xlink:title="API to expression classes.">
<polygon fill="white" stroke="#666666" points="306.5,-470 239.5,-470 239.5,-451 306.5,-451 306.5,-470"/>
<text text-anchor="middle" x="273" y="-458" font-family="Helvetica,sans-Serif" font-size="10.00">std_expr.h</text>
</a>
</g>
</g>
<!-- Node1&#45;&gt;Node12 -->
<g id="edge61_Node000001_Node000012" class="edge">
<title>Node1&#45;&gt;Node12</title>
<g id="a_edge61_Node000001_Node000012"><a xlink:title=" ">
<path fill="none" stroke="#63b8ff" d="M618.73,-625.52C556.93,-619.98 473.09,-607.62 404,-580 363.59,-563.85 354.83,-554.67 323,-525 307.99,-511.01 293.81,-492.28 284.41,-478.79"/>
<polygon fill="#63b8ff" stroke="#63b8ff" points="287.23,-476.72 278.72,-470.41 281.44,-480.65 287.23,-476.72"/>
</a>
</g>
</g>
<!-- Node45 -->
<g id="Node000045" class="node">
<title>Node45</title>
<g id="a_Node000045"><a xlink:href="c__types_8h.html" target="_top" xlink:title=" ">
<polygon fill="white" stroke="#666666" points="495,-580 413,-580 413,-561 495,-561 495,-580"/>
<text text-anchor="middle" x="454" y="-568" font-family="Helvetica,sans-Serif" font-size="10.00">util/c_types.h</text>
</a>
</g>
</g>
<!-- Node1&#45;&gt;Node45 -->
<g id="edge47_Node000001_Node000045" class="edge">
<title>Node1&#45;&gt;Node45</title>
<g id="a_edge47_Node000001_Node000045"><a xlink:title=" ">
<path fill="none" stroke="#63b8ff" d="M645.64,-615.99C601.21,-605.67 541.67,-591.85 500.81,-582.37"/>
<polygon fill="#63b8ff" stroke="#63b8ff" points="501.38,-578.91 490.85,-580.05 499.8,-585.72 501.38,-578.91"/>
</a>
</g>
</g>
<!-- Node48 -->
<g id="Node000048" class="node">
<title>Node48</title>
<g id="a_Node000048"><a xlink:href="namespace_8h.html" target="_top" xlink:title=" ">
<polygon fill="white" stroke="#666666" points="1118.5,-184 1017.5,-184 1017.5,-165 1118.5,-165 1118.5,-184"/>
<text text-anchor="middle" x="1068" y="-172" font-family="Helvetica,sans-Serif" font-size="10.00">util/namespace.h</text>
</a>
</g>
</g>
<!-- Node1&#45;&gt;Node48 -->
<g id="edge54_Node000001_Node000048" class="edge">
<title>Node1&#45;&gt;Node48</title>
<g id="a_edge54_Node000001_Node000048"><a xlink:title=" ">
<path fill="none" stroke="#63b8ff" d="M793.37,-618.48C894.41,-602.66 1047,-569.93 1047,-516.5 1047,-516.5 1047,-516.5 1047,-283.5 1047,-251.46 1056.02,-215.03 1062.23,-193.73"/>
<polygon fill="#63b8ff" stroke="#63b8ff" points="1065.61,-194.65 1065.17,-184.07 1058.91,-192.62 1065.61,-194.65"/>
</a>
</g>
</g>
<!-- Node49 -->
<g id="Node000049" class="node">
<title>Node49</title>
<g id="a_Node000049"><a xlink:href="pointer__offset__size_8h.html" target="_top" xlink:title="Pointer Logic.">
<polygon fill="white" stroke="#666666" points="924.5,-415 821.5,-415 821.5,-385 924.5,-385 924.5,-415"/>
<text text-anchor="start" x="829.5" y="-403" font-family="Helvetica,sans-Serif" font-size="10.00">util/pointer_offset</text>
<text text-anchor="middle" x="873" y="-392" font-family="Helvetica,sans-Serif" font-size="10.00">_size.h</text>
</a>
</g>
</g>
<!-- Node1&#45;&gt;Node49 -->
<g id="edge57_Node000001_Node000049" class="edge">
<title>Node1&#45;&gt;Node49</title>
<g id="a_edge57_Node000001_Node000049"><a xlink:title=" ">
<path fill="none" stroke="#63b8ff" d="M716.45,-615.68C744.69,-576.95 822.72,-469.95 856.76,-423.27"/>
<polygon fill="#63b8ff" stroke="#63b8ff" points="859.71,-425.17 862.77,-415.03 854.05,-421.04 859.71,-425.17"/>
</a>
</g>
</g>
<!-- Node50 -->
<g id="Node000050" class="node">
<title>Node50</title>
<g id="a_Node000050"><a xlink:href="symbol_8h.html" target="_top" xlink:title="Symbol table entry.">
<polygon fill="white" stroke="#666666" points="652,-349 572,-349 572,-330 652,-330 652,-349"/>
<text text-anchor="middle" x="612" y="-337" font-family="Helvetica,sans-Serif" font-size="10.00">util/symbol.h</text>
</a>
</g>
</g>
<!-- Node1&#45;&gt;Node50 -->
<g id="edge62_Node000001_Node000050" class="edge">
<title>Node1&#45;&gt;Node50</title>
<g id="a_edge62_Node000001_Node000050"><a xlink:title=" ">
<path fill="none" stroke="#63b8ff" d="M683.51,-615.72C656.56,-596.67 615,-560.19 615,-516.5 615,-516.5 615,-516.5 615,-459.5 615,-424.14 613.66,-382.89 612.77,-359.42"/>
<polygon fill="#63b8ff" stroke="#63b8ff" points="616.26,-359.01 612.37,-349.16 609.26,-359.29 616.26,-359.01"/>
</a>
</g>
</g>
<!-- Node51 -->
<g id="Node000051" class="node">
<title>Node51</title>
<g id="a_Node000051"><a xlink:title=" ">
<polygon fill="#e0e0e0" stroke="#999999" points="1257,-580 1213,-580 1213,-561 1257,-561 1257,-580"/>
<text text-anchor="middle" x="1235" y="-568" font-family="Helvetica,sans-Serif" font-size="10.00">regex</text>
</a>
</g>
</g>
<!-- Node1&#45;&gt;Node51 -->
<g id="edge66_Node000001_Node000051" class="edge">
<title>Node1&#45;&gt;Node51</title>
<g id="a_edge66_Node000001_Node000051"><a xlink:title=" ">
<path fill="none" stroke="#63b8ff" d="M793.29,-624.61C892.18,-617.7 1057.95,-603.7 1199,-580 1200.25,-579.79 1201.51,-579.56 1202.79,-579.32"/>
<polygon fill="#63b8ff" stroke="#63b8ff" points="1203.55,-582.74 1212.62,-577.26 1202.12,-575.89 1203.55,-582.74"/>
</a>
</g>
</g>
<!-- Node3 -->
<g id="Node000003" class="node">
<title>Node3</title>
<g id="a_Node000003"><a xlink:title=" ">
<polygon fill="#e0e0e0" stroke="#999999" points="1007,-19 963,-19 963,0 1007,0 1007,-19"/>
<text text-anchor="middle" x="985" y="-7" font-family="Helvetica,sans-Serif" font-size="10.00">string</text>
</a>
</g>
</g>
<!-- Node2&#45;&gt;Node3 -->
<g id="edge2_Node000002_Node000003" class="edge">
<title>Node2&#45;&gt;Node3</title>
<g id="a_edge2_Node000002_Node000003"><a xlink:title=" ">
<path fill="none" stroke="#63b8ff" d="M1178.89,-54.98C1134,-44.69 1059.2,-27.52 1016.82,-17.8"/>
<polygon fill="#63b8ff" stroke="#63b8ff" points="1017.57,-14.38 1007.04,-15.56 1016,-21.2 1017.57,-14.38"/>
</a>
</g>
</g>
<!-- Node4&#45;&gt;Node5 -->
<g id="edge4_Node000004_Node000005" class="edge">
<title>Node4&#45;&gt;Node5</title>
<g id="a_edge4_Node000004_Node000005"><a xlink:title=" ">
<path fill="none" stroke="#63b8ff" d="M719.21,-505.97C743.55,-489.09 793,-448.92 793,-401 793,-401 793,-401 793,-173.5 793,-129.36 747.38,-96.13 716.86,-78.85"/>
<polygon fill="#63b8ff" stroke="#63b8ff" points="718.4,-75.7 707.94,-74 715.06,-81.85 718.4,-75.7"/>
</a>
</g>
</g>
<!-- Node9 -->
<g id="Node000009" class="node">
<title>Node9</title>
<g id="a_Node000009"><a xlink:href="mp__arith_8h.html" target="_top" xlink:title=" ">
<polygon fill="white" stroke="#666666" points="752.5,-349 683.5,-349 683.5,-330 752.5,-330 752.5,-349"/>
<text text-anchor="middle" x="718" y="-337" font-family="Helvetica,sans-Serif" font-size="10.00">mp_arith.h</text>
</a>
</g>
</g>
<!-- Node4&#45;&gt;Node9 -->
<g id="edge9_Node000004_Node000009" class="edge">
<title>Node4&#45;&gt;Node9</title>
<g id="a_edge9_Node000004_Node000009"><a xlink:title=" ">
<path fill="none" stroke="#63b8ff" d="M706.61,-505.63C708.48,-478.52 714.15,-396.32 716.72,-359.13"/>
<polygon fill="#63b8ff" stroke="#63b8ff" points="720.21,-359.36 717.4,-349.14 713.22,-358.88 720.21,-359.36"/>
</a>
</g>
</g>
<!-- Node4&#45;&gt;Node12 -->
<g id="edge13_Node000004_Node000012" class="edge">
<title>Node4&#45;&gt;Node12</title>
<g id="a_edge13_Node000004_Node000012"><a xlink:title=" ">
<path fill="none" stroke="#63b8ff" d="M657.8,-510.28C585.84,-503.69 445.89,-489.8 316.82,-470"/>
<polygon fill="#63b8ff" stroke="#63b8ff" points="317.17,-466.52 306.75,-468.44 316.1,-473.43 317.17,-466.52"/>
</a>
</g>
</g>
<!-- Node44 -->
<g id="Node000044" class="node">
<title>Node44</title>
<g id="a_Node000044"><a xlink:title=" ">
<polygon fill="#e0e0e0" stroke="#999999" points="690,-470 646,-470 646,-451 690,-451 690,-470"/>
<text text-anchor="middle" x="668" y="-458" font-family="Helvetica,sans-Serif" font-size="10.00">limits</text>
</a>
</g>
</g>
<!-- Node4&#45;&gt;Node44 -->
<g id="edge46_Node000004_Node000044" class="edge">
<title>Node4&#45;&gt;Node44</title>
<g id="a_edge46_Node000004_Node000044"><a xlink:title=" ">
<path fill="none" stroke="#63b8ff" d="M699.73,-505.75C694.41,-498.34 686.64,-487.5 680.12,-478.41"/>
<polygon fill="#63b8ff" stroke="#63b8ff" points="682.83,-476.18 674.16,-470.09 677.14,-480.26 682.83,-476.18"/>
</a>
</g>
</g>
<!-- Node5&#45;&gt;Node3 -->
<g id="edge7_Node000005_Node000003" class="edge">
<title>Node5&#45;&gt;Node3</title>
<g id="a_edge7_Node000005_Node000003"><a xlink:title=" ">
<path fill="none" stroke="#63b8ff" d="M724.71,-57.26C782.37,-46.9 897.08,-26.3 952.94,-16.26"/>
<polygon fill="#63b8ff" stroke="#63b8ff" points="953.75,-19.67 962.98,-14.46 952.52,-12.78 953.75,-19.67"/>
</a>
</g>
</g>
<!-- Node6 -->
<g id="Node000006" class="node">
<title>Node6</title>
<g id="a_Node000006"><a xlink:title=" ">
<polygon fill="#e0e0e0" stroke="#999999" points="750.5,-19 701.5,-19 701.5,0 750.5,0 750.5,-19"/>
<text text-anchor="middle" x="726" y="-7" font-family="Helvetica,sans-Serif" font-size="10.00">cstdlib</text>
</a>
</g>
</g>
<!-- Node5&#45;&gt;Node6 -->
<g id="edge5_Node000005_Node000006" class="edge">
<title>Node5&#45;&gt;Node6</title>
<g id="a_edge5_Node000005_Node000006"><a xlink:title=" ">
<path fill="none" stroke="#63b8ff" d="M695.94,-54.75C700.98,-47.34 708.34,-36.5 714.51,-27.41"/>
<polygon fill="#63b8ff" stroke="#63b8ff" points="717.44,-29.33 720.17,-19.09 711.65,-25.39 717.44,-29.33"/>
</a>
</g>
</g>
<!-- Node7 -->
<g id="Node000007" class="node">
<title>Node7</title>
<g id="a_Node000007"><a xlink:title=" ">
<polygon fill="#e0e0e0" stroke="#999999" points="683,-19 627,-19 627,0 683,0 683,-19"/>
<text text-anchor="middle" x="655" y="-7" font-family="Helvetica,sans-Serif" font-size="10.00">sstream</text>
</a>
</g>
</g>
<!-- Node5&#45;&gt;Node7 -->
<g id="edge6_Node000005_Node000007" class="edge">
<title>Node5&#45;&gt;Node7</title>
<g id="a_edge6_Node000005_Node000007"><a xlink:title=" ">
<path fill="none" stroke="#63b8ff" d="M684.22,-54.75C679.38,-47.42 672.32,-36.73 666.36,-27.7"/>
<polygon fill="#63b8ff" stroke="#63b8ff" points="669.1,-25.5 660.67,-19.09 663.26,-29.36 669.1,-25.5"/>
</a>
</g>
</g>
<!-- Node8 -->
<g id="Node000008" class="node">
<title>Node8</title>
<g id="a_Node000008"><a xlink:title=" ">
<polygon fill="#e0e0e0" stroke="#999999" points="148.5,-19 79.5,-19 79.5,0 148.5,0 148.5,-19"/>
<text text-anchor="middle" x="114" y="-7" font-family="Helvetica,sans-Serif" font-size="10.00">type_traits</text>
</a>
</g>
</g>
<!-- Node5&#45;&gt;Node8 -->
<g id="edge8_Node000005_Node000008" class="edge">
<title>Node5&#45;&gt;Node8</title>
<g id="a_edge8_Node000005_Node000008"><a xlink:title=" ">
<path fill="none" stroke="#63b8ff" d="M655.27,-60.3C555.83,-51.15 270.11,-24.86 158.98,-14.64"/>
<polygon fill="#63b8ff" stroke="#63b8ff" points="159.06,-11.13 148.78,-13.7 158.42,-18.1 159.06,-11.13"/>
</a>
</g>
</g>
<!-- Node9&#45;&gt;Node3 -->
<g id="edge11_Node000009_Node000003" class="edge">
<title>Node9&#45;&gt;Node3</title>
<g id="a_edge11_Node000009_Node000003"><a xlink:title=" ">
<path fill="none" stroke="#63b8ff" d="M752.75,-337.67C834.83,-333.62 1040.36,-310.68 1128,-184 1171.69,-120.84 1063.75,-52.28 1011.45,-23.93"/>
<polygon fill="#63b8ff" stroke="#63b8ff" points="1012.86,-20.71 1002.38,-19.11 1009.57,-26.89 1012.86,-20.71"/>
</a>
</g>
</g>
<!-- Node10 -->
<g id="Node000010" class="node">
<title>Node10</title>
<g id="a_Node000010"><a xlink:title=" ">
<polygon fill="#e0e0e0" stroke="#999999" points="653,-294 605,-294 605,-275 653,-275 653,-294"/>
<text text-anchor="middle" x="629" y="-282" font-family="Helvetica,sans-Serif" font-size="10.00">iosfwd</text>
</a>
</g>
</g>
<!-- Node9&#45;&gt;Node10 -->
<g id="edge10_Node000009_Node000010" class="edge">
<title>Node9&#45;&gt;Node10</title>
<g id="a_edge10_Node000009_Node000010"><a xlink:title=" ">
<path fill="none" stroke="#63b8ff" d="M703.7,-329.98C689.9,-321.77 668.76,-309.18 652.49,-299.49"/>
<polygon fill="#63b8ff" stroke="#63b8ff" points="653.94,-296.28 643.56,-294.17 650.36,-302.29 653.94,-296.28"/>
</a>
</g>
</g>
<!-- Node11 -->
<g id="Node000011" class="node">
<title>Node11</title>
<g id="a_Node000011"><a xlink:title=" ">
<polygon fill="#e0e0e0" stroke="#999999" points="765,-294 671,-294 671,-275 765,-275 765,-294"/>
<text text-anchor="middle" x="718" y="-282" font-family="Helvetica,sans-Serif" font-size="10.00">big&#45;int/bigint.hh</text>
</a>
</g>
</g>
<!-- Node9&#45;&gt;Node11 -->
<g id="edge12_Node000009_Node000011" class="edge">
<title>Node9&#45;&gt;Node11</title>
<g id="a_edge12_Node000009_Node000011"><a xlink:title=" ">
<path fill="none" stroke="#63b8ff" d="M718,-329.75C718,-322.8 718,-312.85 718,-304.13"/>
<polygon fill="#63b8ff" stroke="#63b8ff" points="721.5,-304.09 718,-294.09 714.5,-304.09 721.5,-304.09"/>
</a>
</g>
</g>
<!-- Node12&#45;&gt;Node5 -->
<g id="edge38_Node000012_Node000005" class="edge">
<title>Node12&#45;&gt;Node5</title>
<g id="a_edge38_Node000012_Node000005"><a xlink:title=" ">
<path fill="none" stroke="#63b8ff" d="M268.66,-450.71C258.32,-429.79 231.45,-375.41 209,-330 189,-289.55 174.27,-282.94 164,-239 148.75,-173.76 183.87,-143.32 242,-110 309.95,-71.05 546.06,-65.81 645.41,-65.37"/>
<polygon fill="#63b8ff" stroke="#63b8ff" points="645.44,-68.87 655.43,-65.34 645.42,-61.87 645.44,-68.87"/>
</a>
</g>
</g>
<!-- Node13 -->
<g id="Node000013" class="node">
<title>Node13</title>
<g id="a_Node000013"><a xlink:href="expr__cast_8h.html" target="_top" xlink:title="Templated functions to cast to specific exprt&#45;derived classes.">
<polygon fill="white" stroke="#666666" points="199.5,-349 126.5,-349 126.5,-330 199.5,-330 199.5,-349"/>
<text text-anchor="middle" x="163" y="-337" font-family="Helvetica,sans-Serif" font-size="10.00">expr_cast.h</text>
</a>
</g>
</g>
<!-- Node12&#45;&gt;Node13 -->
<g id="edge14_Node000012_Node000013" class="edge">
<title>Node12&#45;&gt;Node13</title>
<g id="a_edge14_Node000012_Node000013"><a xlink:title=" ">
<path fill="none" stroke="#63b8ff" d="M258.86,-450.74C246.23,-442.49 227.65,-429.29 214,-415 197.32,-397.54 182.25,-374.12 172.89,-358.23"/>
<polygon fill="#63b8ff" stroke="#63b8ff" points="175.85,-356.36 167.84,-349.44 169.78,-359.85 175.85,-356.36"/>
</a>
</g>
</g>
<!-- Node43 -->
<g id="Node000043" class="node">
<title>Node43</title>
<g id="a_Node000043"><a xlink:href="std__types_8h.html" target="_top" xlink:title="Pre&#45;defined types.">
<polygon fill="white" stroke="#666666" points="394.5,-409.5 321.5,-409.5 321.5,-390.5 394.5,-390.5 394.5,-409.5"/>
<text text-anchor="middle" x="358" y="-397.5" font-family="Helvetica,sans-Serif" font-size="10.00">std_types.h</text>
</a>
</g>
</g>
<!-- Node12&#45;&gt;Node43 -->
<g id="edge39_Node000012_Node000043" class="edge">
<title>Node12&#45;&gt;Node43</title>
<g id="a_edge39_Node000012_Node000043"><a xlink:title=" ">
<path fill="none" stroke="#63b8ff" d="M285.54,-450.87C299.1,-441.54 320.94,-426.51 337.1,-415.38"/>
<polygon fill="#63b8ff" stroke="#63b8ff" points="339.15,-418.22 345.41,-409.67 335.18,-412.45 339.15,-418.22"/>
</a>
</g>
</g>
<!-- Node13&#45;&gt;Node5 -->
<g id="edge18_Node000013_Node000005" class="edge">
<title>Node13&#45;&gt;Node5</title>
<g id="a_edge18_Node000013_Node000005"><a xlink:title=" ">
<path fill="none" stroke="#63b8ff" d="M143.31,-329.94C128.32,-322.48 108.25,-310.29 96,-294 78.22,-270.35 76,-260.09 76,-230.5 76,-230.5 76,-230.5 76,-173.5 76,-134.06 102.29,-126.76 138,-110 227.57,-67.95 529.93,-64.75 645.02,-65.11"/>
<polygon fill="#63b8ff" stroke="#63b8ff" points="645.22,-68.61 655.24,-65.16 645.25,-61.61 645.22,-68.61"/>
</a>
</g>
</g>
<!-- Node13&#45;&gt;Node8 -->
<g id="edge16_Node000013_Node000008" class="edge">
<title>Node13&#45;&gt;Node8</title>
<g id="a_edge16_Node000013_Node000008"><a xlink:title=" ">
<path fill="none" stroke="#63b8ff" d="M132.27,-329.94C113.9,-323.2 91.73,-311.88 79,-294 50.32,-253.69 65.79,-233.32 62,-184 57.48,-125.13 87.57,-59.28 103.92,-28.36"/>
<polygon fill="#63b8ff" stroke="#63b8ff" points="107.16,-29.73 108.88,-19.27 101.02,-26.38 107.16,-29.73"/>
</a>
</g>
</g>
<!-- Node14 -->
<g id="Node000014" class="node">
<title>Node14</title>
<g id="a_Node000014"><a xlink:title=" ">
<polygon fill="#e0e0e0" stroke="#999999" points="161.5,-294 104.5,-294 104.5,-275 161.5,-275 161.5,-294"/>
<text text-anchor="middle" x="133" y="-282" font-family="Helvetica,sans-Serif" font-size="10.00">typeinfo</text>
</a>
</g>
</g>
<!-- Node13&#45;&gt;Node14 -->
<g id="edge15_Node000013_Node000014" class="edge">
<title>Node13&#45;&gt;Node14</title>
<g id="a_edge15_Node000013_Node000014"><a xlink:title=" ">
<path fill="none" stroke="#63b8ff" d="M158.05,-329.75C153.94,-322.49 147.97,-311.95 142.9,-302.98"/>
<polygon fill="#63b8ff" stroke="#63b8ff" points="145.83,-301.07 137.86,-294.09 139.74,-304.52 145.83,-301.07"/>
</a>
</g>
</g>
<!-- Node15 -->
<g id="Node000015" class="node">
<title>Node15</title>
<g id="a_Node000015"><a xlink:title=" ">
<polygon fill="#e0e0e0" stroke="#999999" points="237.5,-239 172.5,-239 172.5,-220 237.5,-220 237.5,-239"/>
<text text-anchor="middle" x="205" y="-227" font-family="Helvetica,sans-Serif" font-size="10.00">functional</text>
</a>
</g>
</g>
<!-- Node13&#45;&gt;Node15 -->
<g id="edge17_Node000013_Node000015" class="edge">
<title>Node13&#45;&gt;Node15</title>
<g id="a_edge17_Node000013_Node000015"><a xlink:title=" ">
<path fill="none" stroke="#63b8ff" d="M166.44,-329.66C173.3,-312.01 188.83,-272.09 197.95,-248.64"/>
<polygon fill="#63b8ff" stroke="#63b8ff" points="201.27,-249.75 201.63,-239.16 194.75,-247.21 201.27,-249.75"/>
</a>
</g>
</g>
<!-- Node16 -->
<g id="Node000016" class="node">
<title>Node16</title>
<g id="a_Node000016"><a xlink:href="expr_8h.html" target="_top" xlink:title=" ">
<polygon fill="white" stroke="#666666" points="439.5,-294 392.5,-294 392.5,-275 439.5,-275 439.5,-294"/>
<text text-anchor="middle" x="416" y="-282" font-family="Helvetica,sans-Serif" font-size="10.00">expr.h</text>
</a>
</g>
</g>
<!-- Node13&#45;&gt;Node16 -->
<g id="edge19_Node000013_Node000016" class="edge">
<title>Node13&#45;&gt;Node16</title>
<g id="a_edge19_Node000013_Node000016"><a xlink:title=" ">
<path fill="none" stroke="#63b8ff" d="M199.52,-330.85C248.5,-320.59 334.79,-302.51 382.29,-292.56"/>
<polygon fill="#63b8ff" stroke="#63b8ff" points="383.3,-295.93 392.37,-290.45 381.87,-289.07 383.3,-295.93"/>
</a>
</g>
</g>
<!-- Node16&#45;&gt;Node15 -->
<g id="edge37_Node000016_Node000015" class="edge">
<title>Node16&#45;&gt;Node15</title>
<g id="a_edge37_Node000016_Node000015"><a xlink:title=" ">
<path fill="none" stroke="#63b8ff" d="M392.21,-277.52C357.11,-268.71 290.93,-252.08 247.4,-241.15"/>
<polygon fill="#63b8ff" stroke="#63b8ff" points="248.22,-237.75 237.67,-238.71 246.52,-244.54 248.22,-237.75"/>
</a>
</g>
</g>
<!-- Node17 -->
<g id="Node000017" class="node">
<title>Node17</title>
<g id="a_Node000017"><a xlink:href="as__const_8h.html" target="_top" xlink:title=" ">
<polygon fill="white" stroke="#666666" points="651,-239 583,-239 583,-220 651,-220 651,-239"/>
<text text-anchor="middle" x="617" y="-227" font-family="Helvetica,sans-Serif" font-size="10.00">as_const.h</text>
</a>
</g>
</g>
<!-- Node16&#45;&gt;Node17 -->
<g id="edge20_Node000016_Node000017" class="edge">
<title>Node16&#45;&gt;Node17</title>
<g id="a_edge20_Node000016_Node000017"><a xlink:title=" ">
<path fill="none" stroke="#63b8ff" d="M439.85,-277.21C473.09,-268.45 533.87,-252.42 574.85,-241.61"/>
<polygon fill="#63b8ff" stroke="#63b8ff" points="575.78,-244.99 584.56,-239.05 573.99,-238.22 575.78,-244.99"/>
</a>
</g>
</g>
<!-- Node18 -->
<g id="Node000018" class="node">
<title>Node18</title>
<g id="a_Node000018"><a xlink:href="type_8h.html" target="_top" xlink:title="Defines typet, type_with_subtypet and type_with_subtypest.">
<polygon fill="white" stroke="#666666" points="417.5,-239 370.5,-239 370.5,-220 417.5,-220 417.5,-239"/>
<text text-anchor="middle" x="394" y="-227" font-family="Helvetica,sans-Serif" font-size="10.00">type.h</text>
</a>
</g>
</g>
<!-- Node16&#45;&gt;Node18 -->
<g id="edge21_Node000016_Node000018" class="edge">
<title>Node16&#45;&gt;Node18</title>
<g id="a_edge21_Node000016_Node000018"><a xlink:title=" ">
<path fill="none" stroke="#63b8ff" d="M412.37,-274.75C409.42,-267.65 405.17,-257.4 401.49,-248.56"/>
<polygon fill="#63b8ff" stroke="#63b8ff" points="404.63,-246.98 397.57,-239.09 398.17,-249.67 404.63,-246.98"/>
</a>
</g>
</g>
<!-- Node40 -->
<g id="Node000040" class="node">
<title>Node40</title>
<g id="a_Node000040"><a xlink:href="validation__mode_8h.html" target="_top" xlink:title=" ">
<polygon fill="white" stroke="#666666" points="357.5,-129 250.5,-129 250.5,-110 357.5,-110 357.5,-129"/>
<text text-anchor="middle" x="304" y="-117" font-family="Helvetica,sans-Serif" font-size="10.00">validation_mode.h</text>
</a>
</g>
</g>
<!-- Node16&#45;&gt;Node40 -->
<g id="edge36_Node000016_Node000040" class="edge">
<title>Node16&#45;&gt;Node40</title>
<g id="a_edge36_Node000016_Node000040"><a xlink:title=" ">
<path fill="none" stroke="#63b8ff" d="M402.63,-274.93C390.78,-266.8 373.59,-253.68 362,-239 337.02,-207.37 318.98,-163.24 310.14,-138.73"/>
<polygon fill="#63b8ff" stroke="#63b8ff" points="313.43,-137.53 306.83,-129.25 306.82,-139.84 313.43,-137.53"/>
</a>
</g>
</g>
<!-- Node41 -->
<g id="Node000041" class="node">
<title>Node41</title>
<g id="a_Node000041"><a xlink:href="validate__types_8h.html" target="_top" xlink:title=" ">
<polygon fill="white" stroke="#666666" points="575,-184 477,-184 477,-165 575,-165 575,-184"/>
<text text-anchor="middle" x="526" y="-172" font-family="Helvetica,sans-Serif" font-size="10.00">validate_types.h</text>
</a>
</g>
</g>
<!-- Node16&#45;&gt;Node41 -->
<g id="edge35_Node000016_Node000041" class="edge">
<title>Node16&#45;&gt;Node41</title>
<g id="a_edge35_Node000016_Node000041"><a xlink:title=" ">
<path fill="none" stroke="#63b8ff" d="M439.51,-280.92C497.9,-274.29 645.86,-255.95 660,-239 685.35,-208.61 631.94,-191.82 585.22,-183.26"/>
<polygon fill="#63b8ff" stroke="#63b8ff" points="585.52,-179.76 575.07,-181.5 584.33,-186.66 585.52,-179.76"/>
</a>
</g>
</g>
<!-- Node42 -->
<g id="Node000042" class="node">
<title>Node42</title>
<g id="a_Node000042"><a xlink:href="validate__expressions_8h.html" target="_top" xlink:title=" ">
<polygon fill="white" stroke="#666666" points="564.5,-239 435.5,-239 435.5,-220 564.5,-220 564.5,-239"/>
<text text-anchor="middle" x="500" y="-227" font-family="Helvetica,sans-Serif" font-size="10.00">validate_expressions.h</text>
</a>
</g>
</g>
<!-- Node16&#45;&gt;Node42 -->
<g id="edge34_Node000016_Node000042" class="edge">
<title>Node16&#45;&gt;Node42</title>
<g id="a_edge34_Node000016_Node000042"><a xlink:title=" ">
<path fill="none" stroke="#63b8ff" d="M429.5,-274.98C442.4,-266.84 462.1,-254.41 477.4,-244.76"/>
<polygon fill="#63b8ff" stroke="#63b8ff" points="479.67,-247.47 486.26,-239.17 475.93,-241.55 479.67,-247.47"/>
</a>
</g>
</g>
<!-- Node19 -->
<g id="Node000019" class="node">
<title>Node19</title>
<g id="a_Node000019"><a xlink:href="source__location_8h.html" target="_top" xlink:title=" ">
<polygon fill="white" stroke="#666666" points="961,-184 859,-184 859,-165 961,-165 961,-184"/>
<text text-anchor="middle" x="910" y="-172" font-family="Helvetica,sans-Serif" font-size="10.00">source_location.h</text>
</a>
</g>
</g>
<!-- Node18&#45;&gt;Node19 -->
<g id="edge22_Node000018_Node000019" class="edge">
<title>Node18&#45;&gt;Node19</title>
<g id="a_edge22_Node000018_Node000019"><a xlink:title=" ">
<path fill="none" stroke="#63b8ff" d="M417.69,-221.91C420.81,-221.19 423.97,-220.53 427,-220 577.19,-193.91 756.49,-182.47 848.63,-178"/>
<polygon fill="#63b8ff" stroke="#63b8ff" points="849.06,-181.49 858.88,-177.52 848.73,-174.49 849.06,-181.49"/>
</a>
</g>
</g>
<!-- Node38 -->
<g id="Node000038" class="node">
<title>Node38</title>
<g id="a_Node000038"><a xlink:href="validate_8h.html" target="_top" xlink:title=" ">
<polygon fill="#fff0f0" stroke="red" points="275.5,-184 210.5,-184 210.5,-165 275.5,-165 275.5,-184"/>
<text text-anchor="middle" x="243" y="-172" font-family="Helvetica,sans-Serif" font-size="10.00">validate.h</text>
</a>
</g>
</g>
<!-- Node18&#45;&gt;Node38 -->
<g id="edge29_Node000018_Node000038" class="edge">
<title>Node18&#45;&gt;Node38</title>
<g id="a_edge29_Node000018_Node000038"><a xlink:title=" ">
<path fill="none" stroke="#63b8ff" d="M370.41,-220.22C345.33,-211.42 305.44,-197.42 276.98,-187.43"/>
<polygon fill="#63b8ff" stroke="#63b8ff" points="278.02,-184.08 267.43,-184.07 275.71,-190.69 278.02,-184.08"/>
</a>
</g>
</g>
<!-- Node18&#45;&gt;Node40 -->
<g id="edge33_Node000018_Node000040" class="edge">
<title>Node18&#45;&gt;Node40</title>
<g id="a_edge33_Node000018_Node000040"><a xlink:title=" ">
<path fill="none" stroke="#63b8ff" d="M386.63,-219.66C371.6,-201.61 337.15,-160.28 317.81,-137.08"/>
<polygon fill="#63b8ff" stroke="#63b8ff" points="320.31,-134.6 311.22,-129.16 314.93,-139.08 320.31,-134.6"/>
</a>
</g>
</g>
<!-- Node18&#45;&gt;Node41 -->
<g id="edge32_Node000018_Node000041" class="edge">
<title>Node18&#45;&gt;Node41</title>
<g id="a_edge32_Node000018_Node000041"><a xlink:title=" ">
<path fill="none" stroke="#63b8ff" d="M415.21,-219.98C436.73,-211.34 470.28,-197.87 494.83,-188.02"/>
<polygon fill="#63b8ff" stroke="#63b8ff" points="496.43,-191.14 504.41,-184.17 493.82,-184.65 496.43,-191.14"/>
</a>
</g>
</g>
<!-- Node19&#45;&gt;Node3 -->
<g id="edge28_Node000019_Node000003" class="edge">
<title>Node19&#45;&gt;Node3</title>
<g id="a_edge28_Node000019_Node000003"><a xlink:title=" ">
<path fill="none" stroke="#63b8ff" d="M914.03,-164.74C925.83,-139.09 960.48,-63.78 976.59,-28.78"/>
<polygon fill="#63b8ff" stroke="#63b8ff" points="979.95,-29.85 980.95,-19.31 973.59,-26.93 979.95,-29.85"/>
</a>
</g>
</g>
<!-- Node20 -->
<g id="Node000020" class="node">
<title>Node20</title>
<g id="a_Node000020"><a xlink:href="deprecate_8h.html" target="_top" xlink:title=" ">
<polygon fill="white" stroke="#666666" points="727,-129 653,-129 653,-110 727,-110 727,-129"/>
<text text-anchor="middle" x="690" y="-117" font-family="Helvetica,sans-Serif" font-size="10.00">deprecate.h</text>
</a>
</g>
</g>
<!-- Node19&#45;&gt;Node20 -->
<g id="edge23_Node000019_Node000020" class="edge">
<title>Node19&#45;&gt;Node20</title>
<g id="a_edge23_Node000019_Node000020"><a xlink:title=" ">
<path fill="none" stroke="#63b8ff" d="M874.65,-164.98C836.84,-155.87 776.74,-141.4 735.43,-131.45"/>
<polygon fill="#63b8ff" stroke="#63b8ff" points="736.17,-128.02 725.62,-129.08 734.53,-134.83 736.17,-128.02"/>
</a>
</g>
</g>
<!-- Node21 -->
<g id="Node000021" class="node">
<title>Node21</title>
<g id="a_Node000021"><a xlink:href="irep_8h.html" target="_top" xlink:title=" ">
<polygon fill="#fff0f0" stroke="red" points="1007,-129 963,-129 963,-110 1007,-110 1007,-129"/>
<text text-anchor="middle" x="985" y="-117" font-family="Helvetica,sans-Serif" font-size="10.00">irep.h</text>
</a>
</g>
</g>
<!-- Node19&#45;&gt;Node21 -->
<g id="edge24_Node000019_Node000021" class="edge">
<title>Node19&#45;&gt;Node21</title>
<g id="a_edge24_Node000019_Node000021"><a xlink:title=" ">
<path fill="none" stroke="#63b8ff" d="M922.05,-164.98C933.46,-156.92 950.83,-144.65 964.43,-135.03"/>
<polygon fill="#63b8ff" stroke="#63b8ff" points="966.58,-137.8 972.73,-129.17 962.54,-132.08 966.58,-137.8"/>
</a>
</g>
</g>
<!-- Node37 -->
<g id="Node000037" class="node">
<title>Node37</title>
<g id="a_Node000037"><a xlink:title=" ">
<polygon fill="#e0e0e0" stroke="#999999" points="882,-129 826,-129 826,-110 882,-110 882,-129"/>
<text text-anchor="middle" x="854" y="-117" font-family="Helvetica,sans-Serif" font-size="10.00">optional</text>
</a>
</g>
</g>
<!-- Node19&#45;&gt;Node37 -->
<g id="edge27_Node000019_Node000037" class="edge">
<title>Node19&#45;&gt;Node37</title>
<g id="a_edge27_Node000019_Node000037"><a xlink:title=" ">
<path fill="none" stroke="#63b8ff" d="M901,-164.98C892.81,-157.23 880.49,-145.58 870.53,-136.14"/>
<polygon fill="#63b8ff" stroke="#63b8ff" points="872.83,-133.5 863.16,-129.17 868.02,-138.59 872.83,-133.5"/>
</a>
</g>
</g>
<!-- Node21&#45;&gt;Node3 -->
<g id="edge25_Node000021_Node000003" class="edge">
<title>Node21&#45;&gt;Node3</title>
<g id="a_edge25_Node000021_Node000003"><a xlink:title=" ">
<path fill="none" stroke="#63b8ff" d="M985,-109.66C985,-92.17 985,-52.8 985,-29.27"/>
<polygon fill="#63b8ff" stroke="#63b8ff" points="988.5,-29.16 985,-19.16 981.5,-29.16 988.5,-29.16"/>
</a>
</g>
</g>
<!-- Node21&#45;&gt;Node5 -->
<g id="edge26_Node000021_Node000005" class="edge">
<title>Node21&#45;&gt;Node5</title>
<g id="a_edge26_Node000021_Node000005"><a xlink:title=" ">
<path fill="none" stroke="#63b8ff" d="M962.83,-114.52C914.59,-105.85 799.33,-85.14 735.13,-73.61"/>
<polygon fill="#63b8ff" stroke="#63b8ff" points="735.36,-70.09 724.9,-71.77 734.12,-76.98 735.36,-70.09"/>
</a>
</g>
</g>
<!-- Node38&#45;&gt;Node8 -->
<g id="edge30_Node000038_Node000008" class="edge">
<title>Node38&#45;&gt;Node8</title>
<g id="a_edge30_Node000038_Node000008"><a xlink:title=" ">
<path fill="none" stroke="#63b8ff" d="M236.06,-164.74C215.5,-138.76 154.62,-61.83 127.41,-27.44"/>
<polygon fill="#63b8ff" stroke="#63b8ff" points="129.92,-24.98 120.97,-19.31 124.43,-29.32 129.92,-24.98"/>
</a>
</g>
</g>
<!-- Node38&#45;&gt;Node40 -->
<g id="edge31_Node000038_Node000040" class="edge">
<title>Node38&#45;&gt;Node40</title>
<g id="a_edge31_Node000038_Node000040"><a xlink:title=" ">
<path fill="none" stroke="#63b8ff" d="M252.8,-164.98C261.82,-157.15 275.41,-145.34 286.32,-135.86"/>
<polygon fill="#63b8ff" stroke="#63b8ff" points="288.77,-138.37 294.02,-129.17 284.18,-133.09 288.77,-138.37"/>
</a>
</g>
</g>
<!-- Node43&#45;&gt;Node5 -->
<g id="edge42_Node000043_Node000005" class="edge">
<title>Node43&#45;&gt;Node5</title>
<g id="a_edge42_Node000043_Node000005"><a xlink:title=" ">
<path fill="none" stroke="#63b8ff" d="M372.35,-390.39C407.86,-369.29 502.94,-313.84 586,-275 625.4,-256.58 652.55,-274.97 677,-239 710.27,-190.06 620.9,-164.49 644,-110 648.98,-98.25 658.75,-88.09 668.01,-80.45"/>
<polygon fill="#63b8ff" stroke="#63b8ff" points="670.4,-83.03 676.22,-74.18 666.15,-77.47 670.4,-83.03"/>
</a>
</g>
</g>
<!-- Node43&#45;&gt;Node9 -->
<g id="edge43_Node000043_Node000009" class="edge">
<title>Node43&#45;&gt;Node9</title>
<g id="a_edge43_Node000043_Node000009"><a xlink:title=" ">
<path fill="none" stroke="#63b8ff" d="M394.83,-393.01C461.36,-382.2 601.32,-359.46 673.24,-347.77"/>
<polygon fill="#63b8ff" stroke="#63b8ff" points="674.03,-351.19 683.34,-346.13 672.91,-344.28 674.03,-351.19"/>
</a>
</g>
</g>
<!-- Node43&#45;&gt;Node13 -->
<g id="edge41_Node000043_Node000013" class="edge">
<title>Node43&#45;&gt;Node13</title>
<g id="a_edge41_Node000043_Node000013"><a xlink:title=" ">
<path fill="none" stroke="#63b8ff" d="M329.65,-390.49C295.71,-380.31 238.74,-363.22 201.01,-351.9"/>
<polygon fill="#63b8ff" stroke="#63b8ff" points="201.97,-348.54 191.39,-349.02 199.96,-355.24 201.97,-348.54"/>
</a>
</g>
</g>
<!-- Node43&#45;&gt;Node16 -->
<g id="edge40_Node000043_Node000016" class="edge">
<title>Node43&#45;&gt;Node16</title>
<g id="a_edge40_Node000043_Node000016"><a xlink:title=" ">
<path fill="none" stroke="#63b8ff" d="M366.28,-390.48C375.04,-381.05 388.72,-365.04 397,-349 404.35,-334.76 409.32,-317.23 412.33,-304.2"/>
<polygon fill="#63b8ff" stroke="#63b8ff" points="415.82,-304.61 414.48,-294.1 408.98,-303.15 415.82,-304.61"/>
</a>
</g>
</g>
<!-- Node43&#45;&gt;Node38 -->
<g id="edge44_Node000043_Node000038" class="edge">
<title>Node43&#45;&gt;Node38</title>
<g id="a_edge44_Node000043_Node000038"><a xlink:title=" ">
<path fill="none" stroke="#63b8ff" d="M338.51,-390.38C322.05,-382.1 299.13,-368.05 286,-349 268.57,-323.71 252.39,-233.81 245.94,-194.33"/>
<polygon fill="#63b8ff" stroke="#63b8ff" points="249.4,-193.74 244.36,-184.42 242.48,-194.85 249.4,-193.74"/>
</a>
</g>
</g>
<!-- Node29 -->
<g id="Node000029" class="node">
<title>Node29</title>
<g id="a_Node000029"><a xlink:title=" ">
<polygon fill="#e0e0e0" stroke="#999999" points="387.5,-349 294.5,-349 294.5,-330 387.5,-330 387.5,-349"/>
<text text-anchor="middle" x="341" y="-337" font-family="Helvetica,sans-Serif" font-size="10.00">unordered_map</text>
</a>
</g>
</g>
<!-- Node43&#45;&gt;Node29 -->
<g id="edge45_Node000043_Node000029" class="edge">
<title>Node43&#45;&gt;Node29</title>
<g id="a_edge45_Node000043_Node000029"><a xlink:title=" ">
<path fill="none" stroke="#63b8ff" d="M355.49,-390.37C353.11,-382.16 349.44,-369.54 346.39,-359.05"/>
<polygon fill="#63b8ff" stroke="#63b8ff" points="349.67,-357.79 343.52,-349.17 342.95,-359.75 349.67,-357.79"/>
</a>
</g>
</g>
<!-- Node45&#45;&gt;Node20 -->
<g id="edge48_Node000045_Node000020" class="edge">
<title>Node45&#45;&gt;Node20</title>
<g id="a_edge48_Node000045_Node000020"><a xlink:title=" ">
<path fill="none" stroke="#63b8ff" d="M454,-560.82C454,-542.48 454,-498.44 454,-461.5 454,-461.5 454,-461.5 454,-399 454,-309.55 315.55,-296.44 362,-220 391.48,-171.49 559.21,-140.02 642.74,-127.14"/>
<polygon fill="#63b8ff" stroke="#63b8ff" points="643.37,-130.58 652.73,-125.62 642.32,-123.66 643.37,-130.58"/>
</a>
</g>
</g>
<!-- Node46 -->
<g id="Node000046" class="node">
<title>Node46</title>
<g id="a_Node000046"><a xlink:href="pointer__expr_8h.html" target="_top" xlink:title="API to expression classes for Pointers.">
<polygon fill="white" stroke="#666666" points="418,-525 332,-525 332,-506 418,-506 418,-525"/>
<text text-anchor="middle" x="375" y="-513" font-family="Helvetica,sans-Serif" font-size="10.00">pointer_expr.h</text>
</a>
</g>
</g>
<!-- Node45&#45;&gt;Node46 -->
<g id="edge49_Node000045_Node000046" class="edge">
<title>Node45&#45;&gt;Node46</title>
<g id="a_edge49_Node000045_Node000046"><a xlink:title=" ">
<path fill="none" stroke="#63b8ff" d="M441.31,-560.98C429.17,-552.84 410.64,-540.41 396.25,-530.76"/>
<polygon fill="#63b8ff" stroke="#63b8ff" points="398.18,-527.84 387.92,-525.17 394.28,-533.65 398.18,-527.84"/>
</a>
</g>
</g>
<!-- Node46&#45;&gt;Node12 -->
<g id="edge52_Node000046_Node000012" class="edge">
<title>Node46&#45;&gt;Node12</title>
<g id="a_edge52_Node000046_Node000012"><a xlink:title=" ">
<path fill="none" stroke="#63b8ff" d="M358.61,-505.98C342.43,-497.57 317.43,-484.59 298.62,-474.81"/>
<polygon fill="#63b8ff" stroke="#63b8ff" points="300.17,-471.68 289.69,-470.17 296.95,-477.89 300.17,-471.68"/>
</a>
</g>
</g>
<!-- Node47 -->
<g id="Node000047" class="node">
<title>Node47</title>
<g id="a_Node000047"><a xlink:href="bitvector__types_8h.html" target="_top" xlink:title="Pre&#45;defined bitvector types.">
<polygon fill="white" stroke="#666666" points="425.5,-470 324.5,-470 324.5,-451 425.5,-451 425.5,-470"/>
<text text-anchor="middle" x="375" y="-458" font-family="Helvetica,sans-Serif" font-size="10.00">bitvector_types.h</text>
</a>
</g>
</g>
<!-- Node46&#45;&gt;Node47 -->
<g id="edge50_Node000046_Node000047" class="edge">
<title>Node46&#45;&gt;Node47</title>
<g id="a_edge50_Node000046_Node000047"><a xlink:title=" ">
<path fill="none" stroke="#63b8ff" d="M375,-505.75C375,-498.8 375,-488.85 375,-480.13"/>
<polygon fill="#63b8ff" stroke="#63b8ff" points="378.5,-480.09 375,-470.09 371.5,-480.09 378.5,-480.09"/>
</a>
</g>
</g>
<!-- Node47&#45;&gt;Node43 -->
<g id="edge51_Node000047_Node000043" class="edge">
<title>Node47&#45;&gt;Node43</title>
<g id="a_edge51_Node000047_Node000043"><a xlink:title=" ">
<path fill="none" stroke="#63b8ff" d="M372.49,-450.87C370.11,-442.66 366.44,-430.04 363.39,-419.55"/>
<polygon fill="#63b8ff" stroke="#63b8ff" points="366.67,-418.29 360.52,-409.67 359.95,-420.25 366.67,-418.29"/>
</a>
</g>
</g>
<!-- Node48&#45;&gt;Node5 -->
<g id="edge55_Node000048_Node000005" class="edge">
<title>Node48&#45;&gt;Node5</title>
<g id="a_edge55_Node000048_Node000005"><a xlink:title=" ">
<path fill="none" stroke="#63b8ff" d="M1063.65,-164.76C1056.1,-150.6 1039.13,-122.94 1016,-110 968.81,-83.59 813.09,-71.9 735.2,-67.61"/>
<polygon fill="#63b8ff" stroke="#63b8ff" points="734.91,-64.09 724.74,-67.05 734.54,-71.08 734.91,-64.09"/>
</a>
</g>
</g>
<!-- Node48&#45;&gt;Node21 -->
<g id="edge56_Node000048_Node000021" class="edge">
<title>Node48&#45;&gt;Node21</title>
<g id="a_edge56_Node000048_Node000021"><a xlink:title=" ">
<path fill="none" stroke="#63b8ff" d="M1054.66,-164.98C1041.91,-156.84 1022.45,-144.41 1007.33,-134.76"/>
<polygon fill="#63b8ff" stroke="#63b8ff" points="1008.89,-131.6 998.58,-129.17 1005.12,-137.5 1008.89,-131.6"/>
</a>
</g>
</g>
<!-- Node49&#45;&gt;Node9 -->
<g id="edge59_Node000049_Node000009" class="edge">
<title>Node49&#45;&gt;Node9</title>
<g id="a_edge59_Node000049_Node000009"><a xlink:title=" ">
<path fill="none" stroke="#63b8ff" d="M835.87,-384.99C809.78,-375.14 775.22,-362.1 750.27,-352.68"/>
<polygon fill="#63b8ff" stroke="#63b8ff" points="751.48,-349.4 740.89,-349.14 749.01,-355.94 751.48,-349.4"/>
</a>
</g>
</g>
<!-- Node49&#45;&gt;Node21 -->
<g id="edge58_Node000049_Node000021" class="edge">
<title>Node49&#45;&gt;Node21</title>
<g id="a_edge58_Node000049_Node000021"><a xlink:title=" ">
<path fill="none" stroke="#63b8ff" d="M904.39,-384.92C938.75,-367.13 989,-332.98 989,-285.5 989,-285.5 989,-285.5 989,-228.5 989,-197.17 987.3,-160.76 986.11,-139.23"/>
<polygon fill="#63b8ff" stroke="#63b8ff" points="989.6,-138.96 985.54,-129.18 982.62,-139.36 989.6,-138.96"/>
</a>
</g>
</g>
<!-- Node49&#45;&gt;Node37 -->
<g id="edge60_Node000049_Node000037" class="edge">
<title>Node49&#45;&gt;Node37</title>
<g id="a_edge60_Node000049_Node000037"><a xlink:title=" ">
<path fill="none" stroke="#63b8ff" d="M864.09,-384.93C851.76,-364.07 831,-323.32 831,-285.5 831,-285.5 831,-285.5 831,-228.5 831,-196.34 840.88,-159.95 847.69,-138.69"/>
<polygon fill="#63b8ff" stroke="#63b8ff" points="851.06,-139.64 850.9,-129.05 844.42,-137.43 851.06,-139.64"/>
</a>
</g>
</g>
<!-- Node50&#45;&gt;Node5 -->
<g id="edge65_Node000050_Node000005" class="edge">
<title>Node50&#45;&gt;Node5</title>
<g id="a_edge65_Node000050_Node000005"><a xlink:title=" ">
<path fill="none" stroke="#63b8ff" d="M605.6,-329.76C596.8,-316.58 583.39,-291.41 596,-275 633.83,-225.76 692.06,-287.37 731,-239 766.98,-194.31 758.4,-162.83 736,-110 731.02,-98.25 721.25,-88.09 711.99,-80.45"/>
<polygon fill="#63b8ff" stroke="#63b8ff" points="713.85,-77.47 703.78,-74.18 709.6,-83.03 713.85,-77.47"/>
</a>
</g>
</g>
<!-- Node50&#45;&gt;Node10 -->
<g id="edge63_Node000050_Node000010" class="edge">
<title>Node50&#45;&gt;Node10</title>
<g id="a_edge63_Node000050_Node000010"><a xlink:title=" ">
<path fill="none" stroke="#63b8ff" d="M614.81,-329.75C617.06,-322.72 620.3,-312.62 623.12,-303.84"/>
<polygon fill="#63b8ff" stroke="#63b8ff" points="626.52,-304.68 626.25,-294.09 619.86,-302.54 626.52,-304.68"/>
</a>
</g>
</g>
<!-- Node50&#45;&gt;Node16 -->
<g id="edge64_Node000050_Node000016" class="edge">
<title>Node50&#45;&gt;Node16</title>
<g id="a_edge64_Node000050_Node000016"><a xlink:title=" ">
<path fill="none" stroke="#63b8ff" d="M580.51,-329.98C544.6,-320.28 486.15,-304.47 449.45,-294.54"/>
<polygon fill="#63b8ff" stroke="#63b8ff" points="450.27,-291.14 439.71,-291.91 448.45,-297.9 450.27,-291.14"/>
</a>
</g>
</g>
</g>
</svg>
