<?xml version="1.0" encoding="UTF-8" standalone="no"?>
<!DOCTYPE svg PUBLIC "-//W3C//DTD SVG 1.1//EN"
 "http://www.w3.org/Graphics/SVG/1.1/DTD/svg11.dtd">
<!-- Generated by graphviz version 2.43.0 (0)
 -->
<!-- Title: /home/runner/work/cbmc/cbmc/src/analyses/variable&#45;sensitivity/widened_range.cpp Pages: 1 -->
<svg width="878pt" height="544pt"
 viewBox="0.00 0.00 878.27 544.00" xmlns="http://www.w3.org/2000/svg" xmlns:xlink="http://www.w3.org/1999/xlink">
<g id="graph0" class="graph" transform="scale(1 1) rotate(0) translate(4 540)">
<title>/home/runner/work/cbmc/cbmc/src/analyses/variable&#45;sensitivity/widened_range.cpp</title>
<!-- Node1 -->
<g id="Node000001" class="node">
<title>Node1</title>
<g id="a_Node000001"><a xlink:title=" ">
<polygon fill="#999999" stroke="#666666" points="414,-536 245,-536 245,-495 414,-495 414,-536"/>
<text text-anchor="start" x="253" y="-524" font-family="Helvetica,sans-Serif" font-size="10.00">/home/runner/work/cbmc</text>
<text text-anchor="start" x="253" y="-513" font-family="Helvetica,sans-Serif" font-size="10.00">/cbmc/src/analyses/variable</text>
<text text-anchor="middle" x="329.5" y="-502" font-family="Helvetica,sans-Serif" font-size="10.00">&#45;sensitivity/widened_range.cpp</text>
</a>
</g>
</g>
<!-- Node2 -->
<g id="Node000002" class="node">
<title>Node2</title>
<g id="a_Node000002"><a xlink:href="widened__range_8h.html" target="_top" xlink:title=" ">
<polygon fill="white" stroke="#666666" points="318.5,-459 218.5,-459 218.5,-440 318.5,-440 318.5,-459"/>
<text text-anchor="middle" x="268.5" y="-447" font-family="Helvetica,sans-Serif" font-size="10.00">widened_range.h</text>
</a>
</g>
</g>
<!-- Node1&#45;&gt;Node2 -->
<g id="edge1_Node000001_Node000002" class="edge">
<title>Node1&#45;&gt;Node2</title>
<g id="a_edge1_Node000001_Node000002"><a xlink:title=" ">
<path fill="none" stroke="#63b8ff" d="M310.87,-494.95C302.26,-485.92 292.17,-475.33 283.99,-466.75"/>
<polygon fill="#63b8ff" stroke="#63b8ff" points="286.28,-464.08 276.85,-459.26 281.22,-468.91 286.28,-464.08"/>
</a>
</g>
</g>
<!-- Node52 -->
<g id="Node000052" class="node">
<title>Node52</title>
<g id="a_Node000052"><a xlink:href="simplify__expr_8h.html" target="_top" xlink:title=" ">
<polygon fill="white" stroke="#666666" points="446.5,-459 336.5,-459 336.5,-440 446.5,-440 446.5,-459"/>
<text text-anchor="middle" x="391.5" y="-447" font-family="Helvetica,sans-Serif" font-size="10.00">util/simplify_expr.h</text>
</a>
</g>
</g>
<!-- Node1&#45;&gt;Node52 -->
<g id="edge58_Node000001_Node000052" class="edge">
<title>Node1&#45;&gt;Node52</title>
<g id="a_edge58_Node000001_Node000052"><a xlink:title=" ">
<path fill="none" stroke="#63b8ff" d="M348.44,-494.95C357.27,-485.83 367.65,-475.11 376.01,-466.49"/>
<polygon fill="#63b8ff" stroke="#63b8ff" points="378.57,-468.88 383.01,-459.26 373.54,-464.01 378.57,-468.88"/>
</a>
</g>
</g>
<!-- Node3 -->
<g id="Node000003" class="node">
<title>Node3</title>
<g id="a_Node000003"><a xlink:href="arith__tools_8h.html" target="_top" xlink:title=" ">
<polygon fill="white" stroke="#666666" points="256.5,-404 160.5,-404 160.5,-385 256.5,-385 256.5,-404"/>
<text text-anchor="middle" x="208.5" y="-392" font-family="Helvetica,sans-Serif" font-size="10.00">util/arith_tools.h</text>
</a>
</g>
</g>
<!-- Node2&#45;&gt;Node3 -->
<g id="edge2_Node000002_Node000003" class="edge">
<title>Node2&#45;&gt;Node3</title>
<g id="a_edge2_Node000002_Node000003"><a xlink:title=" ">
<path fill="none" stroke="#63b8ff" d="M258.86,-439.98C249.99,-432.15 236.63,-420.34 225.89,-410.86"/>
<polygon fill="#63b8ff" stroke="#63b8ff" points="228.13,-408.17 218.32,-404.17 223.49,-413.41 228.13,-408.17"/>
</a>
</g>
</g>
<!-- Node45 -->
<g id="Node000045" class="node">
<title>Node45</title>
<g id="a_Node000045"><a xlink:href="interval_8h.html" target="_top" xlink:title=" ">
<polygon fill="white" stroke="#666666" points="750.5,-404 668.5,-404 668.5,-385 750.5,-385 750.5,-404"/>
<text text-anchor="middle" x="709.5" y="-392" font-family="Helvetica,sans-Serif" font-size="10.00">util/interval.h</text>
</a>
</g>
</g>
<!-- Node2&#45;&gt;Node45 -->
<g id="edge39_Node000002_Node000045" class="edge">
<title>Node2&#45;&gt;Node45</title>
<g id="a_edge39_Node000002_Node000045"><a xlink:title=" ">
<path fill="none" stroke="#63b8ff" d="M318.7,-441.17C321.68,-440.77 324.63,-440.37 327.5,-440 445.66,-424.61 584.73,-409.05 658.13,-401.04"/>
<polygon fill="#63b8ff" stroke="#63b8ff" points="658.91,-404.47 668.47,-399.91 658.15,-397.51 658.91,-404.47"/>
</a>
</g>
</g>
<!-- Node47 -->
<g id="Node000047" class="node">
<title>Node47</title>
<g id="a_Node000047"><a xlink:href="namespace_8h.html" target="_top" xlink:title=" ">
<polygon fill="white" stroke="#666666" points="127,-294 26,-294 26,-275 127,-275 127,-294"/>
<text text-anchor="middle" x="76.5" y="-282" font-family="Helvetica,sans-Serif" font-size="10.00">util/namespace.h</text>
</a>
</g>
</g>
<!-- Node2&#45;&gt;Node47 -->
<g id="edge44_Node000002_Node000047" class="edge">
<title>Node2&#45;&gt;Node47</title>
<g id="a_edge44_Node000002_Node000047"><a xlink:title=" ">
<path fill="none" stroke="#63b8ff" d="M231.32,-439.97C188.33,-427.89 119.63,-401.19 89.5,-349 81.67,-335.43 78.51,-317.84 77.26,-304.62"/>
<polygon fill="#63b8ff" stroke="#63b8ff" points="80.73,-304.08 76.58,-294.33 73.75,-304.54 80.73,-304.08"/>
</a>
</g>
</g>
<!-- Node48 -->
<g id="Node000048" class="node">
<title>Node48</title>
<g id="a_Node000048"><a xlink:href="symbol__table_8h.html" target="_top" xlink:title="Author: Diffblue Ltd.">
<polygon fill="white" stroke="#666666" points="555.5,-404 445.5,-404 445.5,-385 555.5,-385 555.5,-404"/>
<text text-anchor="middle" x="500.5" y="-392" font-family="Helvetica,sans-Serif" font-size="10.00">util/symbol_table.h</text>
</a>
</g>
</g>
<!-- Node2&#45;&gt;Node48 -->
<g id="edge49_Node000002_Node000048" class="edge">
<title>Node2&#45;&gt;Node48</title>
<g id="a_edge49_Node000002_Node000048"><a xlink:title=" ">
<path fill="none" stroke="#63b8ff" d="M305.77,-439.98C345.82,-430.84 409.57,-416.27 453.14,-406.32"/>
<polygon fill="#63b8ff" stroke="#63b8ff" points="453.96,-409.72 462.93,-404.08 452.4,-402.9 453.96,-409.72"/>
</a>
</g>
</g>
<!-- Node4 -->
<g id="Node000004" class="node">
<title>Node4</title>
<g id="a_Node000004"><a xlink:href="src_2util_2invariant_8h.html" target="_top" xlink:title=" ">
<polygon fill="white" stroke="#666666" points="173,-184 104,-184 104,-165 173,-165 173,-184"/>
<text text-anchor="middle" x="138.5" y="-172" font-family="Helvetica,sans-Serif" font-size="10.00">invariant.h</text>
</a>
</g>
</g>
<!-- Node3&#45;&gt;Node4 -->
<g id="edge3_Node000003_Node000004" class="edge">
<title>Node3&#45;&gt;Node4</title>
<g id="a_edge3_Node000003_Node000004"><a xlink:title=" ">
<path fill="none" stroke="#63b8ff" d="M205.76,-384.95C195.43,-352.81 158.8,-238.72 144.39,-193.83"/>
<polygon fill="#63b8ff" stroke="#63b8ff" points="147.69,-192.67 141.3,-184.22 141.03,-194.81 147.69,-192.67"/>
</a>
</g>
</g>
<!-- Node9 -->
<g id="Node000009" class="node">
<title>Node9</title>
<g id="a_Node000009"><a xlink:href="mp__arith_8h.html" target="_top" xlink:title=" ">
<polygon fill="white" stroke="#666666" points="344,-239 275,-239 275,-220 344,-220 344,-239"/>
<text text-anchor="middle" x="309.5" y="-227" font-family="Helvetica,sans-Serif" font-size="10.00">mp_arith.h</text>
</a>
</g>
</g>
<!-- Node3&#45;&gt;Node9 -->
<g id="edge8_Node000003_Node000009" class="edge">
<title>Node3&#45;&gt;Node9</title>
<g id="a_edge8_Node000003_Node000009"><a xlink:title=" ">
<path fill="none" stroke="#63b8ff" d="M213.93,-384.74C229.96,-358.87 277.29,-282.48 298.73,-247.88"/>
<polygon fill="#63b8ff" stroke="#63b8ff" points="301.75,-249.65 304.04,-239.31 295.8,-245.96 301.75,-249.65"/>
</a>
</g>
</g>
<!-- Node12 -->
<g id="Node000012" class="node">
<title>Node12</title>
<g id="a_Node000012"><a xlink:href="std__expr_8h.html" target="_top" xlink:title="API to expression classes.">
<polygon fill="white" stroke="#666666" points="400,-349 333,-349 333,-330 400,-330 400,-349"/>
<text text-anchor="middle" x="366.5" y="-337" font-family="Helvetica,sans-Serif" font-size="10.00">std_expr.h</text>
</a>
</g>
</g>
<!-- Node3&#45;&gt;Node12 -->
<g id="edge12_Node000003_Node000012" class="edge">
<title>Node3&#45;&gt;Node12</title>
<g id="a_edge12_Node000003_Node000012"><a xlink:title=" ">
<path fill="none" stroke="#63b8ff" d="M233.89,-384.98C260.3,-376.13 301.85,-362.19 331.39,-352.28"/>
<polygon fill="#63b8ff" stroke="#63b8ff" points="332.55,-355.58 340.92,-349.08 330.32,-348.94 332.55,-355.58"/>
</a>
</g>
</g>
<!-- Node44 -->
<g id="Node000044" class="node">
<title>Node44</title>
<g id="a_Node000044"><a xlink:title=" ">
<polygon fill="#e0e0e0" stroke="#999999" points="142.5,-349 98.5,-349 98.5,-330 142.5,-330 142.5,-349"/>
<text text-anchor="middle" x="120.5" y="-337" font-family="Helvetica,sans-Serif" font-size="10.00">limits</text>
</a>
</g>
</g>
<!-- Node3&#45;&gt;Node44 -->
<g id="edge38_Node000003_Node000044" class="edge">
<title>Node3&#45;&gt;Node44</title>
<g id="a_edge38_Node000003_Node000044"><a xlink:title=" ">
<path fill="none" stroke="#63b8ff" d="M194.36,-384.98C180.71,-376.77 159.81,-364.18 143.72,-354.49"/>
<polygon fill="#63b8ff" stroke="#63b8ff" points="145.27,-351.33 134.9,-349.17 141.66,-357.33 145.27,-351.33"/>
</a>
</g>
</g>
<!-- Node5 -->
<g id="Node000005" class="node">
<title>Node5</title>
<g id="a_Node000005"><a xlink:title=" ">
<polygon fill="#e0e0e0" stroke="#999999" points="49,-129 0,-129 0,-110 49,-110 49,-129"/>
<text text-anchor="middle" x="24.5" y="-117" font-family="Helvetica,sans-Serif" font-size="10.00">cstdlib</text>
</a>
</g>
</g>
<!-- Node4&#45;&gt;Node5 -->
<g id="edge4_Node000004_Node000005" class="edge">
<title>Node4&#45;&gt;Node5</title>
<g id="a_edge4_Node000004_Node000005"><a xlink:title=" ">
<path fill="none" stroke="#63b8ff" d="M120.18,-164.98C101.84,-156.46 73.39,-143.23 52.27,-133.41"/>
<polygon fill="#63b8ff" stroke="#63b8ff" points="53.69,-130.21 43.15,-129.17 50.74,-136.56 53.69,-130.21"/>
</a>
</g>
</g>
<!-- Node6 -->
<g id="Node000006" class="node">
<title>Node6</title>
<g id="a_Node000006"><a xlink:title=" ">
<polygon fill="#e0e0e0" stroke="#999999" points="123.5,-129 67.5,-129 67.5,-110 123.5,-110 123.5,-129"/>
<text text-anchor="middle" x="95.5" y="-117" font-family="Helvetica,sans-Serif" font-size="10.00">sstream</text>
</a>
</g>
</g>
<!-- Node4&#45;&gt;Node6 -->
<g id="edge5_Node000004_Node000006" class="edge">
<title>Node4&#45;&gt;Node6</title>
<g id="a_edge5_Node000004_Node000006"><a xlink:title=" ">
<path fill="none" stroke="#63b8ff" d="M131.4,-164.75C125.33,-157.26 116.41,-146.28 108.99,-137.13"/>
<polygon fill="#63b8ff" stroke="#63b8ff" points="111.49,-134.65 102.47,-129.09 106.05,-139.06 111.49,-134.65"/>
</a>
</g>
</g>
<!-- Node7 -->
<g id="Node000007" class="node">
<title>Node7</title>
<g id="a_Node000007"><a xlink:title=" ">
<polygon fill="#e0e0e0" stroke="#999999" points="223.5,-129 179.5,-129 179.5,-110 223.5,-110 223.5,-129"/>
<text text-anchor="middle" x="201.5" y="-117" font-family="Helvetica,sans-Serif" font-size="10.00">string</text>
</a>
</g>
</g>
<!-- Node4&#45;&gt;Node7 -->
<g id="edge6_Node000004_Node000007" class="edge">
<title>Node4&#45;&gt;Node7</title>
<g id="a_edge6_Node000004_Node000007"><a xlink:title=" ">
<path fill="none" stroke="#63b8ff" d="M148.62,-164.98C157.94,-157.15 171.97,-145.34 183.24,-135.86"/>
<polygon fill="#63b8ff" stroke="#63b8ff" points="185.79,-138.29 191.19,-129.17 181.29,-132.93 185.79,-138.29"/>
</a>
</g>
</g>
<!-- Node8 -->
<g id="Node000008" class="node">
<title>Node8</title>
<g id="a_Node000008"><a xlink:title=" ">
<polygon fill="#e0e0e0" stroke="#999999" points="386,-19 317,-19 317,0 386,0 386,-19"/>
<text text-anchor="middle" x="351.5" y="-7" font-family="Helvetica,sans-Serif" font-size="10.00">type_traits</text>
</a>
</g>
</g>
<!-- Node4&#45;&gt;Node8 -->
<g id="edge7_Node000004_Node000008" class="edge">
<title>Node4&#45;&gt;Node8</title>
<g id="a_edge7_Node000004_Node000008"><a xlink:title=" ">
<path fill="none" stroke="#63b8ff" d="M141.07,-164.7C145.31,-151.44 154.9,-126.17 170.5,-110 212.04,-66.94 276.33,-37.74 316.06,-22.63"/>
<polygon fill="#63b8ff" stroke="#63b8ff" points="317.44,-25.85 325.6,-19.09 315.01,-19.28 317.44,-25.85"/>
</a>
</g>
</g>
<!-- Node9&#45;&gt;Node7 -->
<g id="edge10_Node000009_Node000007" class="edge">
<title>Node9&#45;&gt;Node7</title>
<g id="a_edge10_Node000009_Node000007"><a xlink:title=" ">
<path fill="none" stroke="#63b8ff" d="M278.27,-219.89C259.08,-213.08 235.39,-201.72 220.5,-184 209.97,-171.47 205.28,-153.27 203.18,-139.57"/>
<polygon fill="#63b8ff" stroke="#63b8ff" points="206.62,-138.85 201.97,-129.33 199.67,-139.67 206.62,-138.85"/>
</a>
</g>
</g>
<!-- Node10 -->
<g id="Node000010" class="node">
<title>Node10</title>
<g id="a_Node000010"><a xlink:title=" ">
<polygon fill="#e0e0e0" stroke="#999999" points="697.5,-184 649.5,-184 649.5,-165 697.5,-165 697.5,-184"/>
<text text-anchor="middle" x="673.5" y="-172" font-family="Helvetica,sans-Serif" font-size="10.00">iosfwd</text>
</a>
</g>
</g>
<!-- Node9&#45;&gt;Node10 -->
<g id="edge9_Node000009_Node000010" class="edge">
<title>Node9&#45;&gt;Node10</title>
<g id="a_edge9_Node000009_Node000010"><a xlink:title=" ">
<path fill="none" stroke="#63b8ff" d="M344.05,-221.61C347.24,-221.04 350.43,-220.49 353.5,-220 478.7,-199.97 511.67,-206.22 636.5,-184 637.41,-183.84 638.33,-183.67 639.26,-183.49"/>
<polygon fill="#63b8ff" stroke="#63b8ff" points="640.2,-186.87 649.29,-181.42 638.79,-180.02 640.2,-186.87"/>
</a>
</g>
</g>
<!-- Node11 -->
<g id="Node000011" class="node">
<title>Node11</title>
<g id="a_Node000011"><a xlink:title=" ">
<polygon fill="#e0e0e0" stroke="#999999" points="323.5,-184 229.5,-184 229.5,-165 323.5,-165 323.5,-184"/>
<text text-anchor="middle" x="276.5" y="-172" font-family="Helvetica,sans-Serif" font-size="10.00">big&#45;int/bigint.hh</text>
</a>
</g>
</g>
<!-- Node9&#45;&gt;Node11 -->
<g id="edge11_Node000009_Node000011" class="edge">
<title>Node9&#45;&gt;Node11</title>
<g id="a_edge11_Node000009_Node000011"><a xlink:title=" ">
<path fill="none" stroke="#63b8ff" d="M304.05,-219.75C299.49,-212.42 292.83,-201.73 287.21,-192.7"/>
<polygon fill="#63b8ff" stroke="#63b8ff" points="290.1,-190.73 281.85,-184.09 284.16,-194.43 290.1,-190.73"/>
</a>
</g>
</g>
<!-- Node12&#45;&gt;Node4 -->
<g id="edge30_Node000012_Node000004" class="edge">
<title>Node12&#45;&gt;Node4</title>
<g id="a_edge30_Node000012_Node000004"><a xlink:title=" ">
<path fill="none" stroke="#63b8ff" d="M353.66,-329.9C328.34,-312.87 270.27,-273.54 222.5,-239 199.92,-222.67 174.45,-203.28 157.53,-190.25"/>
<polygon fill="#63b8ff" stroke="#63b8ff" points="159.58,-187.42 149.53,-184.08 155.31,-192.96 159.58,-187.42"/>
</a>
</g>
</g>
<!-- Node13 -->
<g id="Node000013" class="node">
<title>Node13</title>
<g id="a_Node000013"><a xlink:href="expr__cast_8h.html" target="_top" xlink:title="Templated functions to cast to specific exprt&#45;derived classes.">
<polygon fill="white" stroke="#666666" points="435,-239 362,-239 362,-220 435,-220 435,-239"/>
<text text-anchor="middle" x="398.5" y="-227" font-family="Helvetica,sans-Serif" font-size="10.00">expr_cast.h</text>
</a>
</g>
</g>
<!-- Node12&#45;&gt;Node13 -->
<g id="edge13_Node000012_Node000013" class="edge">
<title>Node12&#45;&gt;Node13</title>
<g id="a_edge13_Node000012_Node000013"><a xlink:title=" ">
<path fill="none" stroke="#63b8ff" d="M369.12,-329.66C374.32,-312.09 386.07,-272.45 393.03,-248.95"/>
<polygon fill="#63b8ff" stroke="#63b8ff" points="396.45,-249.74 395.93,-239.16 389.74,-247.75 396.45,-249.74"/>
</a>
</g>
</g>
<!-- Node43 -->
<g id="Node000043" class="node">
<title>Node43</title>
<g id="a_Node000043"><a xlink:href="std__types_8h.html" target="_top" xlink:title="Pre&#45;defined types.">
<polygon fill="white" stroke="#666666" points="468,-294 395,-294 395,-275 468,-275 468,-294"/>
<text text-anchor="middle" x="431.5" y="-282" font-family="Helvetica,sans-Serif" font-size="10.00">std_types.h</text>
</a>
</g>
</g>
<!-- Node12&#45;&gt;Node43 -->
<g id="edge31_Node000012_Node000043" class="edge">
<title>Node12&#45;&gt;Node43</title>
<g id="a_edge31_Node000012_Node000043"><a xlink:title=" ">
<path fill="none" stroke="#63b8ff" d="M376.94,-329.98C386.65,-322.07 401.32,-310.11 413,-300.58"/>
<polygon fill="#63b8ff" stroke="#63b8ff" points="415.33,-303.2 420.87,-294.17 410.9,-297.78 415.33,-303.2"/>
</a>
</g>
</g>
<!-- Node13&#45;&gt;Node4 -->
<g id="edge17_Node000013_Node000004" class="edge">
<title>Node13&#45;&gt;Node4</title>
<g id="a_edge17_Node000013_Node000004"><a xlink:title=" ">
<path fill="none" stroke="#63b8ff" d="M361.8,-221.02C314.92,-211.46 233.82,-194.93 183.33,-184.64"/>
<polygon fill="#63b8ff" stroke="#63b8ff" points="183.85,-181.17 173.35,-182.6 182.45,-188.03 183.85,-181.17"/>
</a>
</g>
</g>
<!-- Node13&#45;&gt;Node8 -->
<g id="edge15_Node000013_Node000008" class="edge">
<title>Node13&#45;&gt;Node8</title>
<g id="a_edge15_Node000013_Node000008"><a xlink:title=" ">
<path fill="none" stroke="#63b8ff" d="M391.69,-219.87C385.33,-211.29 376.13,-197.51 371.5,-184 353.03,-130.1 350.9,-61.84 351.07,-29.35"/>
<polygon fill="#63b8ff" stroke="#63b8ff" points="354.58,-29.14 351.21,-19.09 347.58,-29.04 354.58,-29.14"/>
</a>
</g>
</g>
<!-- Node14 -->
<g id="Node000014" class="node">
<title>Node14</title>
<g id="a_Node000014"><a xlink:title=" ">
<polygon fill="#e0e0e0" stroke="#999999" points="437,-184 380,-184 380,-165 437,-165 437,-184"/>
<text text-anchor="middle" x="408.5" y="-172" font-family="Helvetica,sans-Serif" font-size="10.00">typeinfo</text>
</a>
</g>
</g>
<!-- Node13&#45;&gt;Node14 -->
<g id="edge14_Node000013_Node000014" class="edge">
<title>Node13&#45;&gt;Node14</title>
<g id="a_edge14_Node000013_Node000014"><a xlink:title=" ">
<path fill="none" stroke="#63b8ff" d="M400.15,-219.75C401.46,-212.8 403.34,-202.85 404.98,-194.13"/>
<polygon fill="#63b8ff" stroke="#63b8ff" points="408.46,-194.56 406.88,-184.09 401.59,-193.27 408.46,-194.56"/>
</a>
</g>
</g>
<!-- Node15 -->
<g id="Node000015" class="node">
<title>Node15</title>
<g id="a_Node000015"><a xlink:title=" ">
<polygon fill="#e0e0e0" stroke="#999999" points="475,-129 410,-129 410,-110 475,-110 475,-129"/>
<text text-anchor="middle" x="442.5" y="-117" font-family="Helvetica,sans-Serif" font-size="10.00">functional</text>
</a>
</g>
</g>
<!-- Node13&#45;&gt;Node15 -->
<g id="edge16_Node000013_Node000015" class="edge">
<title>Node13&#45;&gt;Node15</title>
<g id="a_edge16_Node000013_Node000015"><a xlink:title=" ">
<path fill="none" stroke="#63b8ff" d="M412.87,-219.96C424.37,-212.21 439.68,-199.62 446.5,-184 452.71,-169.76 450.89,-152.01 447.99,-138.89"/>
<polygon fill="#63b8ff" stroke="#63b8ff" points="451.36,-137.94 445.45,-129.15 444.59,-139.71 451.36,-137.94"/>
</a>
</g>
</g>
<!-- Node16 -->
<g id="Node000016" class="node">
<title>Node16</title>
<g id="a_Node000016"><a xlink:href="expr_8h.html" target="_top" xlink:title=" ">
<polygon fill="white" stroke="#666666" points="627,-184 580,-184 580,-165 627,-165 627,-184"/>
<text text-anchor="middle" x="603.5" y="-172" font-family="Helvetica,sans-Serif" font-size="10.00">expr.h</text>
</a>
</g>
</g>
<!-- Node13&#45;&gt;Node16 -->
<g id="edge18_Node000013_Node000016" class="edge">
<title>Node13&#45;&gt;Node16</title>
<g id="a_edge18_Node000013_Node000016"><a xlink:title=" ">
<path fill="none" stroke="#63b8ff" d="M431.44,-219.98C469.4,-210.17 531.48,-194.12 569.78,-184.22"/>
<polygon fill="#63b8ff" stroke="#63b8ff" points="571.1,-187.49 579.91,-181.6 569.35,-180.71 571.1,-187.49"/>
</a>
</g>
</g>
<!-- Node16&#45;&gt;Node15 -->
<g id="edge29_Node000016_Node000015" class="edge">
<title>Node16&#45;&gt;Node15</title>
<g id="a_edge29_Node000016_Node000015"><a xlink:title=" ">
<path fill="none" stroke="#63b8ff" d="M579.74,-165.68C552.91,-156.85 508.95,-142.38 478.03,-132.2"/>
<polygon fill="#63b8ff" stroke="#63b8ff" points="479.08,-128.86 468.49,-129.06 476.89,-135.51 479.08,-128.86"/>
</a>
</g>
</g>
<!-- Node17 -->
<g id="Node000017" class="node">
<title>Node17</title>
<g id="a_Node000017"><a xlink:href="as__const_8h.html" target="_top" xlink:title=" ">
<polygon fill="white" stroke="#666666" points="637.5,-129 569.5,-129 569.5,-110 637.5,-110 637.5,-129"/>
<text text-anchor="middle" x="603.5" y="-117" font-family="Helvetica,sans-Serif" font-size="10.00">as_const.h</text>
</a>
</g>
</g>
<!-- Node16&#45;&gt;Node17 -->
<g id="edge19_Node000016_Node000017" class="edge">
<title>Node16&#45;&gt;Node17</title>
<g id="a_edge19_Node000016_Node000017"><a xlink:title=" ">
<path fill="none" stroke="#63b8ff" d="M603.5,-164.75C603.5,-157.8 603.5,-147.85 603.5,-139.13"/>
<polygon fill="#63b8ff" stroke="#63b8ff" points="607,-139.09 603.5,-129.09 600,-139.09 607,-139.09"/>
</a>
</g>
</g>
<!-- Node18 -->
<g id="Node000018" class="node">
<title>Node18</title>
<g id="a_Node000018"><a xlink:href="type_8h.html" target="_top" xlink:title="Defines typet, type_with_subtypet and type_with_subtypest.">
<polygon fill="#fff0f0" stroke="red" points="703,-129 656,-129 656,-110 703,-110 703,-129"/>
<text text-anchor="middle" x="679.5" y="-117" font-family="Helvetica,sans-Serif" font-size="10.00">type.h</text>
</a>
</g>
</g>
<!-- Node16&#45;&gt;Node18 -->
<g id="edge20_Node000016_Node000018" class="edge">
<title>Node16&#45;&gt;Node18</title>
<g id="a_edge20_Node000016_Node000018"><a xlink:title=" ">
<path fill="none" stroke="#63b8ff" d="M615.71,-164.98C627.28,-156.92 644.88,-144.65 658.66,-135.03"/>
<polygon fill="#63b8ff" stroke="#63b8ff" points="660.87,-137.76 667.07,-129.17 656.86,-132.02 660.87,-137.76"/>
</a>
</g>
</g>
<!-- Node40 -->
<g id="Node000040" class="node">
<title>Node40</title>
<g id="a_Node000040"><a xlink:href="validation__mode_8h.html" target="_top" xlink:title=" ">
<polygon fill="white" stroke="#666666" points="734,-19 627,-19 627,0 734,0 734,-19"/>
<text text-anchor="middle" x="680.5" y="-7" font-family="Helvetica,sans-Serif" font-size="10.00">validation_mode.h</text>
</a>
</g>
</g>
<!-- Node16&#45;&gt;Node40 -->
<g id="edge28_Node000016_Node000040" class="edge">
<title>Node16&#45;&gt;Node40</title>
<g id="a_edge28_Node000016_Node000040"><a xlink:title=" ">
<path fill="none" stroke="#63b8ff" d="M627.34,-167.79C631.71,-166.81 636.23,-165.84 640.5,-165 688.89,-155.47 827.58,-166.6 859.5,-129 903.32,-77.39 794.8,-39.35 728.09,-21.61"/>
<polygon fill="#63b8ff" stroke="#63b8ff" points="728.73,-18.16 718.17,-19.04 726.97,-24.94 728.73,-18.16"/>
</a>
</g>
</g>
<!-- Node41 -->
<g id="Node000041" class="node">
<title>Node41</title>
<g id="a_Node000041"><a xlink:href="validate__types_8h.html" target="_top" xlink:title=" ">
<polygon fill="white" stroke="#666666" points="652.5,-74 554.5,-74 554.5,-55 652.5,-55 652.5,-74"/>
<text text-anchor="middle" x="603.5" y="-62" font-family="Helvetica,sans-Serif" font-size="10.00">validate_types.h</text>
</a>
</g>
</g>
<!-- Node16&#45;&gt;Node41 -->
<g id="edge27_Node000016_Node000041" class="edge">
<title>Node16&#45;&gt;Node41</title>
<g id="a_edge27_Node000016_Node000041"><a xlink:title=" ">
<path fill="none" stroke="#63b8ff" d="M591.01,-164.93C580.63,-156.99 566.62,-144.14 560.5,-129 553.2,-110.94 568.29,-92.79 582.55,-80.54"/>
<polygon fill="#63b8ff" stroke="#63b8ff" points="585.05,-83.03 590.69,-74.06 580.69,-77.56 585.05,-83.03"/>
</a>
</g>
</g>
<!-- Node42 -->
<g id="Node000042" class="node">
<title>Node42</title>
<g id="a_Node000042"><a xlink:href="validate__expressions_8h.html" target="_top" xlink:title=" ">
<polygon fill="white" stroke="#666666" points="850,-129 721,-129 721,-110 850,-110 850,-129"/>
<text text-anchor="middle" x="785.5" y="-117" font-family="Helvetica,sans-Serif" font-size="10.00">validate_expressions.h</text>
</a>
</g>
</g>
<!-- Node16&#45;&gt;Node42 -->
<g id="edge26_Node000016_Node000042" class="edge">
<title>Node16&#45;&gt;Node42</title>
<g id="a_edge26_Node000016_Node000042"><a xlink:title=" ">
<path fill="none" stroke="#63b8ff" d="M627.29,-166.57C657.59,-157.75 710.34,-142.39 746.54,-131.84"/>
<polygon fill="#63b8ff" stroke="#63b8ff" points="747.66,-135.16 756.28,-129.01 745.7,-128.44 747.66,-135.16"/>
</a>
</g>
</g>
<!-- Node38 -->
<g id="Node000038" class="node">
<title>Node38</title>
<g id="a_Node000038"><a xlink:href="validate_8h.html" target="_top" xlink:title=" ">
<polygon fill="#fff0f0" stroke="red" points="536,-74 471,-74 471,-55 536,-55 536,-74"/>
<text text-anchor="middle" x="503.5" y="-62" font-family="Helvetica,sans-Serif" font-size="10.00">validate.h</text>
</a>
</g>
</g>
<!-- Node18&#45;&gt;Node38 -->
<g id="edge21_Node000018_Node000038" class="edge">
<title>Node18&#45;&gt;Node38</title>
<g id="a_edge21_Node000018_Node000038"><a xlink:title=" ">
<path fill="none" stroke="#63b8ff" d="M655.76,-111.35C626.47,-102.53 576.29,-87.42 541.59,-76.97"/>
<polygon fill="#63b8ff" stroke="#63b8ff" points="542.38,-73.55 531.8,-74.02 540.36,-80.26 542.38,-73.55"/>
</a>
</g>
</g>
<!-- Node18&#45;&gt;Node40 -->
<g id="edge25_Node000018_Node000040" class="edge">
<title>Node18&#45;&gt;Node40</title>
<g id="a_edge25_Node000018_Node000040"><a xlink:title=" ">
<path fill="none" stroke="#63b8ff" d="M679.58,-109.66C679.74,-92.17 680.11,-52.8 680.33,-29.27"/>
<polygon fill="#63b8ff" stroke="#63b8ff" points="683.83,-29.19 680.42,-19.16 676.83,-29.13 683.83,-29.19"/>
</a>
</g>
</g>
<!-- Node18&#45;&gt;Node41 -->
<g id="edge24_Node000018_Node000041" class="edge">
<title>Node18&#45;&gt;Node41</title>
<g id="a_edge24_Node000018_Node000041"><a xlink:title=" ">
<path fill="none" stroke="#63b8ff" d="M667.29,-109.98C655.72,-101.92 638.12,-89.65 624.34,-80.03"/>
<polygon fill="#63b8ff" stroke="#63b8ff" points="626.14,-77.02 615.93,-74.17 622.13,-82.76 626.14,-77.02"/>
</a>
</g>
</g>
<!-- Node38&#45;&gt;Node8 -->
<g id="edge22_Node000038_Node000008" class="edge">
<title>Node38&#45;&gt;Node8</title>
<g id="a_edge22_Node000038_Node000008"><a xlink:title=" ">
<path fill="none" stroke="#63b8ff" d="M479.08,-54.98C453.78,-46.16 414.05,-32.31 385.64,-22.41"/>
<polygon fill="#63b8ff" stroke="#63b8ff" points="386.71,-19.07 376.11,-19.08 384.4,-25.68 386.71,-19.07"/>
</a>
</g>
</g>
<!-- Node38&#45;&gt;Node40 -->
<g id="edge23_Node000038_Node000040" class="edge">
<title>Node38&#45;&gt;Node40</title>
<g id="a_edge23_Node000038_Node000040"><a xlink:title=" ">
<path fill="none" stroke="#63b8ff" d="M531.94,-54.98C561.78,-46.05 608.88,-31.94 642.03,-22.02"/>
<polygon fill="#63b8ff" stroke="#63b8ff" points="643.26,-25.3 651.84,-19.08 641.26,-18.6 643.26,-25.3"/>
</a>
</g>
</g>
<!-- Node43&#45;&gt;Node4 -->
<g id="edge34_Node000043_Node000004" class="edge">
<title>Node43&#45;&gt;Node4</title>
<g id="a_edge34_Node000043_Node000004"><a xlink:title=" ">
<path fill="none" stroke="#63b8ff" d="M394.8,-275.79C360.92,-268.16 309.51,-255.29 266.5,-239 246.42,-231.4 194.98,-205.05 163.76,-188.77"/>
<polygon fill="#63b8ff" stroke="#63b8ff" points="165.26,-185.61 154.78,-184.08 162.02,-191.81 165.26,-185.61"/>
</a>
</g>
</g>
<!-- Node43&#45;&gt;Node9 -->
<g id="edge35_Node000043_Node000009" class="edge">
<title>Node43&#45;&gt;Node9</title>
<g id="a_edge35_Node000043_Node000009"><a xlink:title=" ">
<path fill="none" stroke="#63b8ff" d="M411.9,-274.98C392.18,-266.42 361.55,-253.11 338.92,-243.28"/>
<polygon fill="#63b8ff" stroke="#63b8ff" points="340.02,-239.94 329.46,-239.17 337.24,-246.37 340.02,-239.94"/>
</a>
</g>
</g>
<!-- Node43&#45;&gt;Node13 -->
<g id="edge33_Node000043_Node000013" class="edge">
<title>Node43&#45;&gt;Node13</title>
<g id="a_edge33_Node000043_Node000013"><a xlink:title=" ">
<path fill="none" stroke="#63b8ff" d="M426.05,-274.75C421.49,-267.42 414.83,-256.73 409.21,-247.7"/>
<polygon fill="#63b8ff" stroke="#63b8ff" points="412.1,-245.73 403.85,-239.09 406.16,-249.43 412.1,-245.73"/>
</a>
</g>
</g>
<!-- Node43&#45;&gt;Node16 -->
<g id="edge32_Node000043_Node000016" class="edge">
<title>Node43&#45;&gt;Node16</title>
<g id="a_edge32_Node000043_Node000016"><a xlink:title=" ">
<path fill="none" stroke="#63b8ff" d="M442.86,-274.84C459.64,-262.18 492.26,-238.16 521.5,-220 539.67,-208.71 560.92,-197.23 577.23,-188.75"/>
<polygon fill="#63b8ff" stroke="#63b8ff" points="578.92,-191.82 586.21,-184.13 575.71,-185.6 578.92,-191.82"/>
</a>
</g>
</g>
<!-- Node43&#45;&gt;Node38 -->
<g id="edge36_Node000043_Node000038" class="edge">
<title>Node43&#45;&gt;Node38</title>
<g id="a_edge36_Node000043_Node000038"><a xlink:title=" ">
<path fill="none" stroke="#63b8ff" d="M434.61,-274.83C442.98,-251.41 466.56,-184.89 484.5,-129 489.34,-113.92 494.47,-96.69 498.18,-83.99"/>
<polygon fill="#63b8ff" stroke="#63b8ff" points="501.6,-84.74 501.03,-74.16 494.88,-82.79 501.6,-84.74"/>
</a>
</g>
</g>
<!-- Node29 -->
<g id="Node000029" class="node">
<title>Node29</title>
<g id="a_Node000029"><a xlink:title=" ">
<polygon fill="#e0e0e0" stroke="#999999" points="623,-239 530,-239 530,-220 623,-220 623,-239"/>
<text text-anchor="middle" x="576.5" y="-227" font-family="Helvetica,sans-Serif" font-size="10.00">unordered_map</text>
</a>
</g>
</g>
<!-- Node43&#45;&gt;Node29 -->
<g id="edge37_Node000043_Node000029" class="edge">
<title>Node43&#45;&gt;Node29</title>
<g id="a_edge37_Node000043_Node000029"><a xlink:title=" ">
<path fill="none" stroke="#63b8ff" d="M454.8,-274.98C478.75,-266.23 516.28,-252.51 543.33,-242.62"/>
<polygon fill="#63b8ff" stroke="#63b8ff" points="544.59,-245.89 552.78,-239.17 542.19,-239.32 544.59,-245.89"/>
</a>
</g>
</g>
<!-- Node45&#45;&gt;Node10 -->
<g id="edge43_Node000045_Node000010" class="edge">
<title>Node45&#45;&gt;Node10</title>
<g id="a_edge43_Node000045_Node000010"><a xlink:title=" ">
<path fill="none" stroke="#63b8ff" d="M748.73,-384.89C769.6,-378.37 794.06,-367.3 809.5,-349 847.21,-304.29 870.96,-266.51 835.5,-220 820.06,-199.75 750.32,-186.42 707.54,-179.99"/>
<polygon fill="#63b8ff" stroke="#63b8ff" points="707.95,-176.52 697.55,-178.54 706.94,-183.44 707.95,-176.52"/>
</a>
</g>
</g>
<!-- Node45&#45;&gt;Node12 -->
<g id="edge40_Node000045_Node000012" class="edge">
<title>Node45&#45;&gt;Node12</title>
<g id="a_edge40_Node000045_Node000012"><a xlink:title=" ">
<path fill="none" stroke="#63b8ff" d="M668.47,-387.16C603.48,-377.12 477.42,-357.64 410.58,-347.31"/>
<polygon fill="#63b8ff" stroke="#63b8ff" points="410.8,-343.8 400.38,-345.74 409.73,-350.72 410.8,-343.8"/>
</a>
</g>
</g>
<!-- Node46 -->
<g id="Node000046" class="node">
<title>Node46</title>
<g id="a_Node000046"><a xlink:href="threeval_8h.html" target="_top" xlink:title=" ">
<polygon fill="white" stroke="#666666" points="800,-349 715,-349 715,-330 800,-330 800,-349"/>
<text text-anchor="middle" x="757.5" y="-337" font-family="Helvetica,sans-Serif" font-size="10.00">util/threeval.h</text>
</a>
</g>
</g>
<!-- Node45&#45;&gt;Node46 -->
<g id="edge41_Node000045_Node000046" class="edge">
<title>Node45&#45;&gt;Node46</title>
<g id="a_edge41_Node000045_Node000046"><a xlink:title=" ">
<path fill="none" stroke="#63b8ff" d="M717.43,-384.75C724.35,-377.11 734.57,-365.82 742.95,-356.56"/>
<polygon fill="#63b8ff" stroke="#63b8ff" points="745.6,-358.85 749.72,-349.09 740.41,-354.15 745.6,-358.85"/>
</a>
</g>
</g>
<!-- Node46&#45;&gt;Node10 -->
<g id="edge42_Node000046_Node000010" class="edge">
<title>Node46&#45;&gt;Node10</title>
<g id="a_edge42_Node000046_Node000010"><a xlink:title=" ">
<path fill="none" stroke="#63b8ff" d="M768.21,-329.92C792.24,-309.64 846.28,-257.59 818.5,-220 793.18,-185.74 741.96,-177.01 707.69,-175.23"/>
<polygon fill="#63b8ff" stroke="#63b8ff" points="707.76,-171.73 697.64,-174.87 707.51,-178.72 707.76,-171.73"/>
</a>
</g>
</g>
<!-- Node47&#45;&gt;Node4 -->
<g id="edge45_Node000047_Node000004" class="edge">
<title>Node47&#45;&gt;Node4</title>
<g id="a_edge45_Node000047_Node000004"><a xlink:title=" ">
<path fill="none" stroke="#63b8ff" d="M83.09,-274.9C89.67,-266.12 99.87,-251.99 107.5,-239 116.23,-224.14 124.71,-206.48 130.59,-193.55"/>
<polygon fill="#63b8ff" stroke="#63b8ff" points="133.82,-194.91 134.7,-184.35 127.43,-192.05 133.82,-194.91"/>
</a>
</g>
</g>
<!-- Node21 -->
<g id="Node000021" class="node">
<title>Node21</title>
<g id="a_Node000021"><a xlink:href="irep_8h.html" target="_top" xlink:title=" ">
<polygon fill="#fff0f0" stroke="red" points="98.5,-239 54.5,-239 54.5,-220 98.5,-220 98.5,-239"/>
<text text-anchor="middle" x="76.5" y="-227" font-family="Helvetica,sans-Serif" font-size="10.00">irep.h</text>
</a>
</g>
</g>
<!-- Node47&#45;&gt;Node21 -->
<g id="edge46_Node000047_Node000021" class="edge">
<title>Node47&#45;&gt;Node21</title>
<g id="a_edge46_Node000047_Node000021"><a xlink:title=" ">
<path fill="none" stroke="#63b8ff" d="M76.5,-274.75C76.5,-267.8 76.5,-257.85 76.5,-249.13"/>
<polygon fill="#63b8ff" stroke="#63b8ff" points="80,-249.09 76.5,-239.09 73,-249.09 80,-249.09"/>
</a>
</g>
</g>
<!-- Node21&#45;&gt;Node4 -->
<g id="edge48_Node000021_Node000004" class="edge">
<title>Node21&#45;&gt;Node4</title>
<g id="a_edge48_Node000021_Node000004"><a xlink:title=" ">
<path fill="none" stroke="#63b8ff" d="M86.46,-219.98C95.63,-212.15 109.44,-200.34 120.53,-190.86"/>
<polygon fill="#63b8ff" stroke="#63b8ff" points="123.03,-193.33 128.36,-184.17 118.48,-188.01 123.03,-193.33"/>
</a>
</g>
</g>
<!-- Node21&#45;&gt;Node7 -->
<g id="edge47_Node000021_Node000007" class="edge">
<title>Node21&#45;&gt;Node7</title>
<g id="a_edge47_Node000021_Node000007"><a xlink:title=" ">
<path fill="none" stroke="#63b8ff" d="M76.65,-220C77.32,-206.67 80.5,-180.76 94.5,-165 113.82,-143.25 145.46,-131.88 169.33,-126.09"/>
<polygon fill="#63b8ff" stroke="#63b8ff" points="170.34,-129.45 179.35,-123.88 168.83,-122.62 170.34,-129.45"/>
</a>
</g>
</g>
<!-- Node49 -->
<g id="Node000049" class="node">
<title>Node49</title>
<g id="a_Node000049"><a xlink:href="symbol__table__base_8h.html" target="_top" xlink:title="Author: Diffblue Ltd.">
<polygon fill="white" stroke="#666666" points="732.5,-294 612.5,-294 612.5,-275 732.5,-275 732.5,-294"/>
<text text-anchor="middle" x="672.5" y="-282" font-family="Helvetica,sans-Serif" font-size="10.00">symbol_table_base.h</text>
</a>
</g>
</g>
<!-- Node48&#45;&gt;Node49 -->
<g id="edge50_Node000048_Node000049" class="edge">
<title>Node48&#45;&gt;Node49</title>
<g id="a_edge50_Node000048_Node000049"><a xlink:title=" ">
<path fill="none" stroke="#63b8ff" d="M514.28,-384.84C543.85,-366.28 613.59,-322.49 649.8,-299.75"/>
<polygon fill="#63b8ff" stroke="#63b8ff" points="652.04,-302.48 658.65,-294.2 648.32,-296.55 652.04,-302.48"/>
</a>
</g>
</g>
<!-- Node49&#45;&gt;Node29 -->
<g id="edge57_Node000049_Node000029" class="edge">
<title>Node49&#45;&gt;Node29</title>
<g id="a_edge57_Node000049_Node000029"><a xlink:title=" ">
<path fill="none" stroke="#63b8ff" d="M657.08,-274.98C642.05,-266.69 618.96,-253.94 601.34,-244.22"/>
<polygon fill="#63b8ff" stroke="#63b8ff" points="602.65,-240.94 592.2,-239.17 599.27,-247.07 602.65,-240.94"/>
</a>
</g>
</g>
<!-- Node50 -->
<g id="Node000050" class="node">
<title>Node50</title>
<g id="a_Node000050"><a xlink:href="symbol_8h.html" target="_top" xlink:title="Symbol table entry.">
<polygon fill="white" stroke="#666666" points="703.5,-239 641.5,-239 641.5,-220 703.5,-220 703.5,-239"/>
<text text-anchor="middle" x="672.5" y="-227" font-family="Helvetica,sans-Serif" font-size="10.00">symbol.h</text>
</a>
</g>
</g>
<!-- Node49&#45;&gt;Node50 -->
<g id="edge51_Node000049_Node000050" class="edge">
<title>Node49&#45;&gt;Node50</title>
<g id="a_edge51_Node000049_Node000050"><a xlink:title=" ">
<path fill="none" stroke="#63b8ff" d="M672.5,-274.75C672.5,-267.8 672.5,-257.85 672.5,-249.13"/>
<polygon fill="#63b8ff" stroke="#63b8ff" points="676,-249.09 672.5,-239.09 669,-249.09 676,-249.09"/>
</a>
</g>
</g>
<!-- Node28 -->
<g id="Node000028" class="node">
<title>Node28</title>
<g id="a_Node000028"><a xlink:title=" ">
<polygon fill="#e0e0e0" stroke="#999999" points="753.5,-239 721.5,-239 721.5,-220 753.5,-220 753.5,-239"/>
<text text-anchor="middle" x="737.5" y="-227" font-family="Helvetica,sans-Serif" font-size="10.00">list</text>
</a>
</g>
</g>
<!-- Node49&#45;&gt;Node28 -->
<g id="edge55_Node000049_Node000028" class="edge">
<title>Node49&#45;&gt;Node28</title>
<g id="a_edge55_Node000049_Node000028"><a xlink:title=" ">
<path fill="none" stroke="#63b8ff" d="M682.94,-274.98C692.65,-267.07 707.32,-255.11 719,-245.58"/>
<polygon fill="#63b8ff" stroke="#63b8ff" points="721.33,-248.2 726.87,-239.17 716.9,-242.78 721.33,-248.2"/>
</a>
</g>
</g>
<!-- Node51 -->
<g id="Node000051" class="node">
<title>Node51</title>
<g id="a_Node000051"><a xlink:title=" ">
<polygon fill="#e0e0e0" stroke="#999999" points="809.5,-239 771.5,-239 771.5,-220 809.5,-220 809.5,-239"/>
<text text-anchor="middle" x="790.5" y="-227" font-family="Helvetica,sans-Serif" font-size="10.00">map</text>
</a>
</g>
</g>
<!-- Node49&#45;&gt;Node51 -->
<g id="edge56_Node000049_Node000051" class="edge">
<title>Node49&#45;&gt;Node51</title>
<g id="a_edge56_Node000049_Node000051"><a xlink:title=" ">
<path fill="none" stroke="#63b8ff" d="M691.46,-274.98C710.53,-266.42 740.16,-253.11 762.05,-243.28"/>
<polygon fill="#63b8ff" stroke="#63b8ff" points="763.51,-246.46 771.2,-239.17 760.64,-240.07 763.51,-246.46"/>
</a>
</g>
</g>
<!-- Node50&#45;&gt;Node4 -->
<g id="edge54_Node000050_Node000004" class="edge">
<title>Node50&#45;&gt;Node4</title>
<g id="a_edge54_Node000050_Node000004"><a xlink:title=" ">
<path fill="none" stroke="#63b8ff" d="M641.12,-221.45C638.22,-220.92 635.31,-220.42 632.5,-220 450.71,-192.85 403.48,-201.48 220.5,-184 208.49,-182.85 195.5,-181.54 183.47,-180.29"/>
<polygon fill="#63b8ff" stroke="#63b8ff" points="183.51,-176.78 173.2,-179.22 182.78,-183.74 183.51,-176.78"/>
</a>
</g>
</g>
<!-- Node50&#45;&gt;Node10 -->
<g id="edge52_Node000050_Node000010" class="edge">
<title>Node50&#45;&gt;Node10</title>
<g id="a_edge52_Node000050_Node000010"><a xlink:title=" ">
<path fill="none" stroke="#63b8ff" d="M672.67,-219.75C672.8,-212.8 672.98,-202.85 673.15,-194.13"/>
<polygon fill="#63b8ff" stroke="#63b8ff" points="676.65,-194.15 673.34,-184.09 669.65,-194.02 676.65,-194.15"/>
</a>
</g>
</g>
<!-- Node50&#45;&gt;Node16 -->
<g id="edge53_Node000050_Node000016" class="edge">
<title>Node50&#45;&gt;Node16</title>
<g id="a_edge53_Node000050_Node000016"><a xlink:title=" ">
<path fill="none" stroke="#63b8ff" d="M661.41,-219.98C651.01,-212 635.24,-199.88 622.78,-190.31"/>
<polygon fill="#63b8ff" stroke="#63b8ff" points="624.85,-187.49 614.79,-184.17 620.59,-193.04 624.85,-187.49"/>
</a>
</g>
</g>
</g>
</svg>
