<?xml version="1.0" encoding="UTF-8" standalone="no"?>
<!DOCTYPE svg PUBLIC "-//W3C//DTD SVG 1.1//EN"
 "http://www.w3.org/Graphics/SVG/1.1/DTD/svg11.dtd">
<!-- Generated by graphviz version 2.43.0 (0)
 -->
<!-- Title: /home/runner/work/cbmc/cbmc/src/analyses/variable&#45;sensitivity/widened_range.h Pages: 1 -->
<svg width="1001pt" height="599pt"
 viewBox="0.00 0.00 1001.44 599.00" xmlns="http://www.w3.org/2000/svg" xmlns:xlink="http://www.w3.org/1999/xlink">
<g id="graph0" class="graph" transform="scale(1 1) rotate(0) translate(4 595)">
<title>/home/runner/work/cbmc/cbmc/src/analyses/variable&#45;sensitivity/widened_range.h</title>
<!-- Node1 -->
<g id="Node000001" class="node">
<title>Node1</title>
<g id="a_Node000001"><a xlink:title=" ">
<polygon fill="#999999" stroke="#666666" points="256.44,-591 98.44,-591 98.44,-550 256.44,-550 256.44,-591"/>
<text text-anchor="start" x="106.44" y="-579" font-family="Helvetica,sans-Serif" font-size="10.00">/home/runner/work/cbmc</text>
<text text-anchor="start" x="106.44" y="-568" font-family="Helvetica,sans-Serif" font-size="10.00">/cbmc/src/analyses/variable</text>
<text text-anchor="middle" x="177.44" y="-557" font-family="Helvetica,sans-Serif" font-size="10.00">&#45;sensitivity/widened_range.h</text>
</a>
</g>
</g>
<!-- Node2 -->
<g id="Node000002" class="node">
<title>Node2</title>
<g id="a_Node000002"><a xlink:href="arith__tools_8h.html" target="_top" xlink:title=" ">
<polygon fill="white" stroke="#666666" points="165.44,-514 69.44,-514 69.44,-495 165.44,-495 165.44,-514"/>
<text text-anchor="middle" x="117.44" y="-502" font-family="Helvetica,sans-Serif" font-size="10.00">util/arith_tools.h</text>
</a>
</g>
</g>
<!-- Node1&#45;&gt;Node2 -->
<g id="edge1_Node000001_Node000002" class="edge">
<title>Node1&#45;&gt;Node2</title>
<g id="a_edge1_Node000001_Node000002"><a xlink:title=" ">
<path fill="none" stroke="#63b8ff" d="M159.11,-549.95C150.65,-540.92 140.72,-530.33 132.68,-521.75"/>
<polygon fill="#63b8ff" stroke="#63b8ff" points="135.05,-519.16 125.65,-514.26 129.94,-523.95 135.05,-519.16"/>
</a>
</g>
</g>
<!-- Node44 -->
<g id="Node000044" class="node">
<title>Node44</title>
<g id="a_Node000044"><a xlink:href="interval_8h.html" target="_top" xlink:title=" ">
<polygon fill="white" stroke="#666666" points="506.44,-514 424.44,-514 424.44,-495 506.44,-495 506.44,-514"/>
<text text-anchor="middle" x="465.44" y="-502" font-family="Helvetica,sans-Serif" font-size="10.00">util/interval.h</text>
</a>
</g>
</g>
<!-- Node1&#45;&gt;Node44 -->
<g id="edge43_Node000001_Node000044" class="edge">
<title>Node1&#45;&gt;Node44</title>
<g id="a_edge43_Node000001_Node000044"><a xlink:title=" ">
<path fill="none" stroke="#63b8ff" d="M256.52,-551.93C307.96,-540.49 373.39,-525.96 417.19,-516.22"/>
<polygon fill="#63b8ff" stroke="#63b8ff" points="418.02,-519.62 427.02,-514.04 416.5,-512.79 418.02,-519.62"/>
</a>
</g>
</g>
<!-- Node46 -->
<g id="Node000046" class="node">
<title>Node46</title>
<g id="a_Node000046"><a xlink:href="namespace_8h.html" target="_top" xlink:title=" ">
<polygon fill="white" stroke="#666666" points="238.94,-184 137.94,-184 137.94,-165 238.94,-165 238.94,-184"/>
<text text-anchor="middle" x="188.44" y="-172" font-family="Helvetica,sans-Serif" font-size="10.00">util/namespace.h</text>
</a>
</g>
</g>
<!-- Node1&#45;&gt;Node46 -->
<g id="edge48_Node000001_Node000046" class="edge">
<title>Node1&#45;&gt;Node46</title>
<g id="a_edge48_Node000001_Node000046"><a xlink:title=" ">
<path fill="none" stroke="#63b8ff" d="M105.84,-549.97C59.38,-532.46 7.44,-501.48 7.44,-450.5 7.44,-450.5 7.44,-450.5 7.44,-283.5 7.44,-226.26 75.01,-198.65 127.58,-185.83"/>
<polygon fill="#63b8ff" stroke="#63b8ff" points="128.58,-189.19 137.54,-183.53 127.01,-182.37 128.58,-189.19"/>
</a>
</g>
</g>
<!-- Node47 -->
<g id="Node000047" class="node">
<title>Node47</title>
<g id="a_Node000047"><a xlink:href="symbol__table_8h.html" target="_top" xlink:title="Author: Diffblue Ltd.">
<polygon fill="white" stroke="#666666" points="293.44,-514 183.44,-514 183.44,-495 293.44,-495 293.44,-514"/>
<text text-anchor="middle" x="238.44" y="-502" font-family="Helvetica,sans-Serif" font-size="10.00">util/symbol_table.h</text>
</a>
</g>
</g>
<!-- Node1&#45;&gt;Node47 -->
<g id="edge51_Node000001_Node000047" class="edge">
<title>Node1&#45;&gt;Node47</title>
<g id="a_edge51_Node000001_Node000047"><a xlink:title=" ">
<path fill="none" stroke="#63b8ff" d="M196.07,-549.95C204.68,-540.92 214.77,-530.33 222.95,-521.75"/>
<polygon fill="#63b8ff" stroke="#63b8ff" points="225.72,-523.91 230.09,-514.26 220.66,-519.08 225.72,-523.91"/>
</a>
</g>
</g>
<!-- Node3 -->
<g id="Node000003" class="node">
<title>Node3</title>
<g id="a_Node000003"><a xlink:href="src_2util_2invariant_8h.html" target="_top" xlink:title=" ">
<polygon fill="white" stroke="#666666" points="339.94,-74 270.94,-74 270.94,-55 339.94,-55 339.94,-74"/>
<text text-anchor="middle" x="305.44" y="-62" font-family="Helvetica,sans-Serif" font-size="10.00">invariant.h</text>
</a>
</g>
</g>
<!-- Node2&#45;&gt;Node3 -->
<g id="edge2_Node000002_Node000003" class="edge">
<title>Node2&#45;&gt;Node3</title>
<g id="a_edge2_Node000002_Node000003"><a xlink:title=" ">
<path fill="none" stroke="#63b8ff" d="M115.15,-494.8C108.73,-468.7 92.49,-389.27 115.44,-330 147.13,-248.15 199.34,-256.76 248.44,-184 270.7,-151.01 289.07,-108.01 298.53,-83.92"/>
<polygon fill="#63b8ff" stroke="#63b8ff" points="301.91,-84.88 302.23,-74.29 295.38,-82.37 301.91,-84.88"/>
</a>
</g>
</g>
<!-- Node8 -->
<g id="Node000008" class="node">
<title>Node8</title>
<g id="a_Node000008"><a xlink:href="mp__arith_8h.html" target="_top" xlink:title=" ">
<polygon fill="white" stroke="#666666" points="299.94,-349 230.94,-349 230.94,-330 299.94,-330 299.94,-349"/>
<text text-anchor="middle" x="265.44" y="-337" font-family="Helvetica,sans-Serif" font-size="10.00">mp_arith.h</text>
</a>
</g>
</g>
<!-- Node2&#45;&gt;Node8 -->
<g id="edge7_Node000002_Node000008" class="edge">
<title>Node2&#45;&gt;Node8</title>
<g id="a_edge7_Node000002_Node000008"><a xlink:title=" ">
<path fill="none" stroke="#63b8ff" d="M119.03,-494.87C123.39,-473.55 137.37,-417.74 169.44,-385 184.15,-369.98 204.89,-359.5 223.33,-352.5"/>
<polygon fill="#63b8ff" stroke="#63b8ff" points="224.76,-355.71 233,-349.05 222.41,-349.11 224.76,-355.71"/>
</a>
</g>
</g>
<!-- Node11 -->
<g id="Node000011" class="node">
<title>Node11</title>
<g id="a_Node000011"><a xlink:href="std__expr_8h.html" target="_top" xlink:title="API to expression classes.">
<polygon fill="white" stroke="#666666" points="579.94,-459 512.94,-459 512.94,-440 579.94,-440 579.94,-459"/>
<text text-anchor="middle" x="546.44" y="-447" font-family="Helvetica,sans-Serif" font-size="10.00">std_expr.h</text>
</a>
</g>
</g>
<!-- Node2&#45;&gt;Node11 -->
<g id="edge11_Node000002_Node000011" class="edge">
<title>Node2&#45;&gt;Node11</title>
<g id="a_edge11_Node000002_Node000011"><a xlink:title=" ">
<path fill="none" stroke="#63b8ff" d="M165.63,-496.21C168.61,-495.79 171.56,-495.39 174.44,-495 292.93,-479.08 433.05,-463.08 502.65,-455.32"/>
<polygon fill="#63b8ff" stroke="#63b8ff" points="503.25,-458.78 512.8,-454.19 502.47,-451.82 503.25,-458.78"/>
</a>
</g>
</g>
<!-- Node43 -->
<g id="Node000043" class="node">
<title>Node43</title>
<g id="a_Node000043"><a xlink:title=" ">
<polygon fill="#e0e0e0" stroke="#999999" points="79.44,-459 35.44,-459 35.44,-440 79.44,-440 79.44,-459"/>
<text text-anchor="middle" x="57.44" y="-447" font-family="Helvetica,sans-Serif" font-size="10.00">limits</text>
</a>
</g>
</g>
<!-- Node2&#45;&gt;Node43 -->
<g id="edge42_Node000002_Node000043" class="edge">
<title>Node2&#45;&gt;Node43</title>
<g id="a_edge42_Node000002_Node000043"><a xlink:title=" ">
<path fill="none" stroke="#63b8ff" d="M107.8,-494.98C98.93,-487.15 85.57,-475.34 74.83,-465.86"/>
<polygon fill="#63b8ff" stroke="#63b8ff" points="77.07,-463.17 67.26,-459.17 72.43,-468.41 77.07,-463.17"/>
</a>
</g>
</g>
<!-- Node4 -->
<g id="Node000004" class="node">
<title>Node4</title>
<g id="a_Node000004"><a xlink:title=" ">
<polygon fill="#e0e0e0" stroke="#999999" points="365.94,-19 316.94,-19 316.94,0 365.94,0 365.94,-19"/>
<text text-anchor="middle" x="341.44" y="-7" font-family="Helvetica,sans-Serif" font-size="10.00">cstdlib</text>
</a>
</g>
</g>
<!-- Node3&#45;&gt;Node4 -->
<g id="edge3_Node000003_Node000004" class="edge">
<title>Node3&#45;&gt;Node4</title>
<g id="a_edge3_Node000003_Node000004"><a xlink:title=" ">
<path fill="none" stroke="#63b8ff" d="M311.38,-54.75C316.42,-47.34 323.78,-36.5 329.95,-27.41"/>
<polygon fill="#63b8ff" stroke="#63b8ff" points="332.88,-29.33 335.61,-19.09 327.09,-25.39 332.88,-29.33"/>
</a>
</g>
</g>
<!-- Node5 -->
<g id="Node000005" class="node">
<title>Node5</title>
<g id="a_Node000005"><a xlink:title=" ">
<polygon fill="#e0e0e0" stroke="#999999" points="298.44,-19 242.44,-19 242.44,0 298.44,0 298.44,-19"/>
<text text-anchor="middle" x="270.44" y="-7" font-family="Helvetica,sans-Serif" font-size="10.00">sstream</text>
</a>
</g>
</g>
<!-- Node3&#45;&gt;Node5 -->
<g id="edge4_Node000003_Node000005" class="edge">
<title>Node3&#45;&gt;Node5</title>
<g id="a_edge4_Node000003_Node000005"><a xlink:title=" ">
<path fill="none" stroke="#63b8ff" d="M299.66,-54.75C294.82,-47.42 287.76,-36.73 281.8,-27.7"/>
<polygon fill="#63b8ff" stroke="#63b8ff" points="284.54,-25.5 276.11,-19.09 278.7,-29.36 284.54,-25.5"/>
</a>
</g>
</g>
<!-- Node6 -->
<g id="Node000006" class="node">
<title>Node6</title>
<g id="a_Node000006"><a xlink:title=" ">
<polygon fill="#e0e0e0" stroke="#999999" points="114.44,-19 70.44,-19 70.44,0 114.44,0 114.44,-19"/>
<text text-anchor="middle" x="92.44" y="-7" font-family="Helvetica,sans-Serif" font-size="10.00">string</text>
</a>
</g>
</g>
<!-- Node3&#45;&gt;Node6 -->
<g id="edge5_Node000003_Node000006" class="edge">
<title>Node3&#45;&gt;Node6</title>
<g id="a_edge5_Node000003_Node000006"><a xlink:title=" ">
<path fill="none" stroke="#63b8ff" d="M271.22,-54.98C230.74,-44.91 163.87,-28.27 124.4,-18.45"/>
<polygon fill="#63b8ff" stroke="#63b8ff" points="125.07,-15.01 114.52,-15.99 123.38,-21.8 125.07,-15.01"/>
</a>
</g>
</g>
<!-- Node7 -->
<g id="Node000007" class="node">
<title>Node7</title>
<g id="a_Node000007"><a xlink:title=" ">
<polygon fill="#e0e0e0" stroke="#999999" points="785.94,-19 716.94,-19 716.94,0 785.94,0 785.94,-19"/>
<text text-anchor="middle" x="751.44" y="-7" font-family="Helvetica,sans-Serif" font-size="10.00">type_traits</text>
</a>
</g>
</g>
<!-- Node3&#45;&gt;Node7 -->
<g id="edge6_Node000003_Node000007" class="edge">
<title>Node3&#45;&gt;Node7</title>
<g id="a_edge6_Node000003_Node000007"><a xlink:title=" ">
<path fill="none" stroke="#63b8ff" d="M340.07,-59.39C420.09,-49.88 617.82,-26.38 706.79,-15.81"/>
<polygon fill="#63b8ff" stroke="#63b8ff" points="707.32,-19.27 716.84,-14.61 706.49,-12.32 707.32,-19.27"/>
</a>
</g>
</g>
<!-- Node8&#45;&gt;Node6 -->
<g id="edge9_Node000008_Node000006" class="edge">
<title>Node8&#45;&gt;Node6</title>
<g id="a_edge9_Node000008_Node000006"><a xlink:title=" ">
<path fill="none" stroke="#63b8ff" d="M230.94,-329.97C172.26,-313.36 54.87,-270.46 8.44,-184 -22.21,-126.92 41.53,-56.95 74.43,-26.23"/>
<polygon fill="#63b8ff" stroke="#63b8ff" points="77.01,-28.61 82.06,-19.3 72.3,-23.43 77.01,-28.61"/>
</a>
</g>
</g>
<!-- Node9 -->
<g id="Node000009" class="node">
<title>Node9</title>
<g id="a_Node000009"><a xlink:title=" ">
<polygon fill="#e0e0e0" stroke="#999999" points="440.44,-294 392.44,-294 392.44,-275 440.44,-275 440.44,-294"/>
<text text-anchor="middle" x="416.44" y="-282" font-family="Helvetica,sans-Serif" font-size="10.00">iosfwd</text>
</a>
</g>
</g>
<!-- Node8&#45;&gt;Node9 -->
<g id="edge8_Node000008_Node000009" class="edge">
<title>Node8&#45;&gt;Node9</title>
<g id="a_edge8_Node000008_Node000009"><a xlink:title=" ">
<path fill="none" stroke="#63b8ff" d="M289.7,-329.98C314.91,-321.14 354.54,-307.23 382.77,-297.32"/>
<polygon fill="#63b8ff" stroke="#63b8ff" points="383.96,-300.61 392.24,-293.99 381.64,-294 383.96,-300.61"/>
</a>
</g>
</g>
<!-- Node10 -->
<g id="Node000010" class="node">
<title>Node10</title>
<g id="a_Node000010"><a xlink:title=" ">
<polygon fill="#e0e0e0" stroke="#999999" points="277.44,-294 183.44,-294 183.44,-275 277.44,-275 277.44,-294"/>
<text text-anchor="middle" x="230.44" y="-282" font-family="Helvetica,sans-Serif" font-size="10.00">big&#45;int/bigint.hh</text>
</a>
</g>
</g>
<!-- Node8&#45;&gt;Node10 -->
<g id="edge10_Node000008_Node000010" class="edge">
<title>Node8&#45;&gt;Node10</title>
<g id="a_edge10_Node000008_Node000010"><a xlink:title=" ">
<path fill="none" stroke="#63b8ff" d="M259.66,-329.75C254.82,-322.42 247.76,-311.73 241.8,-302.7"/>
<polygon fill="#63b8ff" stroke="#63b8ff" points="244.54,-300.5 236.11,-294.09 238.7,-304.36 244.54,-300.5"/>
</a>
</g>
</g>
<!-- Node11&#45;&gt;Node3 -->
<g id="edge34_Node000011_Node000003" class="edge">
<title>Node11&#45;&gt;Node3</title>
<g id="a_edge34_Node000011_Node000003"><a xlink:title=" ">
<path fill="none" stroke="#63b8ff" d="M512.73,-440.13C468.76,-427.55 392.21,-399.65 347.44,-349 310.43,-307.13 305.44,-286.38 305.44,-230.5 305.44,-230.5 305.44,-230.5 305.44,-173.5 305.44,-142.19 305.44,-105.77 305.44,-84.23"/>
<polygon fill="#63b8ff" stroke="#63b8ff" points="308.94,-84.18 305.44,-74.18 301.94,-84.18 308.94,-84.18"/>
</a>
</g>
</g>
<!-- Node12 -->
<g id="Node000012" class="node">
<title>Node12</title>
<g id="a_Node000012"><a xlink:href="expr__cast_8h.html" target="_top" xlink:title="Templated functions to cast to specific exprt&#45;derived classes.">
<polygon fill="white" stroke="#666666" points="904.94,-349 831.94,-349 831.94,-330 904.94,-330 904.94,-349"/>
<text text-anchor="middle" x="868.44" y="-337" font-family="Helvetica,sans-Serif" font-size="10.00">expr_cast.h</text>
</a>
</g>
</g>
<!-- Node11&#45;&gt;Node12 -->
<g id="edge12_Node000011_Node000012" class="edge">
<title>Node11&#45;&gt;Node12</title>
<g id="a_edge12_Node000011_Node000012"><a xlink:title=" ">
<path fill="none" stroke="#63b8ff" d="M575.94,-439.98C605.53,-431.33 652.33,-417.34 692.44,-404 742.94,-387.21 800.88,-365.9 836.06,-352.74"/>
<polygon fill="#63b8ff" stroke="#63b8ff" points="837.65,-355.88 845.78,-349.09 835.19,-349.32 837.65,-355.88"/>
</a>
</g>
</g>
<!-- Node42 -->
<g id="Node000042" class="node">
<title>Node42</title>
<g id="a_Node000042"><a xlink:href="std__types_8h.html" target="_top" xlink:title="Pre&#45;defined types.">
<polygon fill="white" stroke="#666666" points="682.94,-404 609.94,-404 609.94,-385 682.94,-385 682.94,-404"/>
<text text-anchor="middle" x="646.44" y="-392" font-family="Helvetica,sans-Serif" font-size="10.00">std_types.h</text>
</a>
</g>
</g>
<!-- Node11&#45;&gt;Node42 -->
<g id="edge35_Node000011_Node000042" class="edge">
<title>Node11&#45;&gt;Node42</title>
<g id="a_edge35_Node000011_Node000042"><a xlink:title=" ">
<path fill="none" stroke="#63b8ff" d="M562.51,-439.98C578.3,-431.61 602.66,-418.7 621.07,-408.95"/>
<polygon fill="#63b8ff" stroke="#63b8ff" points="622.88,-411.95 630.08,-404.17 619.61,-405.76 622.88,-411.95"/>
</a>
</g>
</g>
<!-- Node12&#45;&gt;Node3 -->
<g id="edge16_Node000012_Node000003" class="edge">
<title>Node12&#45;&gt;Node3</title>
<g id="a_edge16_Node000012_Node000003"><a xlink:title=" ">
<path fill="none" stroke="#63b8ff" d="M888.81,-329.9C904.02,-322.5 924.21,-310.4 936.44,-294 954.06,-270.39 955.44,-259.96 955.44,-230.5 955.44,-230.5 955.44,-230.5 955.44,-173.5 955.44,-134.06 929.19,-126.67 893.44,-110 797.19,-65.1 470.7,-63.75 350.41,-64.85"/>
<polygon fill="#63b8ff" stroke="#63b8ff" points="350.06,-61.35 340.1,-64.96 350.13,-68.35 350.06,-61.35"/>
</a>
</g>
</g>
<!-- Node12&#45;&gt;Node7 -->
<g id="edge14_Node000012_Node000007" class="edge">
<title>Node12&#45;&gt;Node7</title>
<g id="a_edge14_Node000012_Node000007"><a xlink:title=" ">
<path fill="none" stroke="#63b8ff" d="M893.14,-329.97C929.56,-315.62 993.44,-282.98 993.44,-230.5 993.44,-230.5 993.44,-230.5 993.44,-118.5 993.44,-33.17 866.41,-14.79 796.42,-11.14"/>
<polygon fill="#63b8ff" stroke="#63b8ff" points="796.26,-7.63 786.11,-10.69 795.95,-14.63 796.26,-7.63"/>
</a>
</g>
</g>
<!-- Node13 -->
<g id="Node000013" class="node">
<title>Node13</title>
<g id="a_Node000013"><a xlink:title=" ">
<polygon fill="#e0e0e0" stroke="#999999" points="926.94,-294 869.94,-294 869.94,-275 926.94,-275 926.94,-294"/>
<text text-anchor="middle" x="898.44" y="-282" font-family="Helvetica,sans-Serif" font-size="10.00">typeinfo</text>
</a>
</g>
</g>
<!-- Node12&#45;&gt;Node13 -->
<g id="edge13_Node000012_Node000013" class="edge">
<title>Node12&#45;&gt;Node13</title>
<g id="a_edge13_Node000012_Node000013"><a xlink:title=" ">
<path fill="none" stroke="#63b8ff" d="M873.39,-329.75C877.5,-322.49 883.47,-311.95 888.54,-302.98"/>
<polygon fill="#63b8ff" stroke="#63b8ff" points="891.7,-304.52 893.58,-294.09 885.61,-301.07 891.7,-304.52"/>
</a>
</g>
</g>
<!-- Node14 -->
<g id="Node000014" class="node">
<title>Node14</title>
<g id="a_Node000014"><a xlink:title=" ">
<polygon fill="#e0e0e0" stroke="#999999" points="812.94,-239 747.94,-239 747.94,-220 812.94,-220 812.94,-239"/>
<text text-anchor="middle" x="780.44" y="-227" font-family="Helvetica,sans-Serif" font-size="10.00">functional</text>
</a>
</g>
</g>
<!-- Node12&#45;&gt;Node14 -->
<g id="edge15_Node000012_Node000014" class="edge">
<title>Node12&#45;&gt;Node14</title>
<g id="a_edge15_Node000012_Node000014"><a xlink:title=" ">
<path fill="none" stroke="#63b8ff" d="M861.24,-329.66C846.53,-311.61 812.85,-270.28 793.95,-247.08"/>
<polygon fill="#63b8ff" stroke="#63b8ff" points="796.52,-244.7 787.49,-239.16 791.1,-249.12 796.52,-244.7"/>
</a>
</g>
</g>
<!-- Node15 -->
<g id="Node000015" class="node">
<title>Node15</title>
<g id="a_Node000015"><a xlink:href="expr_8h.html" target="_top" xlink:title=" ">
<polygon fill="white" stroke="#666666" points="669.94,-294 622.94,-294 622.94,-275 669.94,-275 669.94,-294"/>
<text text-anchor="middle" x="646.44" y="-282" font-family="Helvetica,sans-Serif" font-size="10.00">expr.h</text>
</a>
</g>
</g>
<!-- Node12&#45;&gt;Node15 -->
<g id="edge17_Node000012_Node000015" class="edge">
<title>Node12&#45;&gt;Node15</title>
<g id="a_edge17_Node000012_Node000015"><a xlink:title=" ">
<path fill="none" stroke="#63b8ff" d="M832.77,-329.98C790.63,-319.92 721.05,-303.31 679.89,-293.49"/>
<polygon fill="#63b8ff" stroke="#63b8ff" points="680.61,-290.06 670.07,-291.14 678.99,-296.87 680.61,-290.06"/>
</a>
</g>
</g>
<!-- Node15&#45;&gt;Node14 -->
<g id="edge33_Node000015_Node000014" class="edge">
<title>Node15&#45;&gt;Node14</title>
<g id="a_edge33_Node000015_Node000014"><a xlink:title=" ">
<path fill="none" stroke="#63b8ff" d="M667.97,-274.98C689.91,-266.3 724.18,-252.75 749.13,-242.88"/>
<polygon fill="#63b8ff" stroke="#63b8ff" points="750.51,-246.1 758.52,-239.17 747.93,-239.59 750.51,-246.1"/>
</a>
</g>
</g>
<!-- Node16 -->
<g id="Node000016" class="node">
<title>Node16</title>
<g id="a_Node000016"><a xlink:href="as__const_8h.html" target="_top" xlink:title=" ">
<polygon fill="white" stroke="#666666" points="691.44,-239 623.44,-239 623.44,-220 691.44,-220 691.44,-239"/>
<text text-anchor="middle" x="657.44" y="-227" font-family="Helvetica,sans-Serif" font-size="10.00">as_const.h</text>
</a>
</g>
</g>
<!-- Node15&#45;&gt;Node16 -->
<g id="edge18_Node000015_Node000016" class="edge">
<title>Node15&#45;&gt;Node16</title>
<g id="a_edge18_Node000015_Node000016"><a xlink:title=" ">
<path fill="none" stroke="#63b8ff" d="M648.26,-274.75C649.7,-267.8 651.76,-257.85 653.57,-249.13"/>
<polygon fill="#63b8ff" stroke="#63b8ff" points="657.05,-249.59 655.66,-239.09 650.2,-248.17 657.05,-249.59"/>
</a>
</g>
</g>
<!-- Node17 -->
<g id="Node000017" class="node">
<title>Node17</title>
<g id="a_Node000017"><a xlink:href="type_8h.html" target="_top" xlink:title="Defines typet, type_with_subtypet and type_with_subtypest.">
<polygon fill="white" stroke="#666666" points="604.94,-239 557.94,-239 557.94,-220 604.94,-220 604.94,-239"/>
<text text-anchor="middle" x="581.44" y="-227" font-family="Helvetica,sans-Serif" font-size="10.00">type.h</text>
</a>
</g>
</g>
<!-- Node15&#45;&gt;Node17 -->
<g id="edge19_Node000015_Node000017" class="edge">
<title>Node15&#45;&gt;Node17</title>
<g id="a_edge19_Node000015_Node000017"><a xlink:title=" ">
<path fill="none" stroke="#63b8ff" d="M636,-274.98C626.29,-267.07 611.62,-255.11 599.94,-245.58"/>
<polygon fill="#63b8ff" stroke="#63b8ff" points="602.04,-242.78 592.07,-239.17 597.61,-248.2 602.04,-242.78"/>
</a>
</g>
</g>
<!-- Node39 -->
<g id="Node000039" class="node">
<title>Node39</title>
<g id="a_Node000039"><a xlink:href="validation__mode_8h.html" target="_top" xlink:title=" ">
<polygon fill="white" stroke="#666666" points="627.94,-129 520.94,-129 520.94,-110 627.94,-110 627.94,-129"/>
<text text-anchor="middle" x="574.44" y="-117" font-family="Helvetica,sans-Serif" font-size="10.00">validation_mode.h</text>
</a>
</g>
</g>
<!-- Node15&#45;&gt;Node39 -->
<g id="edge32_Node000015_Node000039" class="edge">
<title>Node15&#45;&gt;Node39</title>
<g id="a_edge32_Node000015_Node000039"><a xlink:title=" ">
<path fill="none" stroke="#63b8ff" d="M622.93,-280.04C599.76,-275.24 565.55,-264.11 549.44,-239 529.19,-207.42 549.31,-162.3 563.36,-137.85"/>
<polygon fill="#63b8ff" stroke="#63b8ff" points="566.53,-139.38 568.71,-129.01 560.54,-135.76 566.53,-139.38"/>
</a>
</g>
</g>
<!-- Node40 -->
<g id="Node000040" class="node">
<title>Node40</title>
<g id="a_Node000040"><a xlink:href="validate__types_8h.html" target="_top" xlink:title=" ">
<polygon fill="white" stroke="#666666" points="700.44,-184 602.44,-184 602.44,-165 700.44,-165 700.44,-184"/>
<text text-anchor="middle" x="651.44" y="-172" font-family="Helvetica,sans-Serif" font-size="10.00">validate_types.h</text>
</a>
</g>
</g>
<!-- Node15&#45;&gt;Node40 -->
<g id="edge31_Node000015_Node000040" class="edge">
<title>Node15&#45;&gt;Node40</title>
<g id="a_edge31_Node000015_Node000040"><a xlink:title=" ">
<path fill="none" stroke="#63b8ff" d="M663.33,-274.95C676.15,-267.43 692.82,-255.15 700.44,-239 709.24,-220.34 691.44,-202.01 674.88,-189.87"/>
<polygon fill="#63b8ff" stroke="#63b8ff" points="676.71,-186.89 666.48,-184.13 672.76,-192.66 676.71,-186.89"/>
</a>
</g>
</g>
<!-- Node41 -->
<g id="Node000041" class="node">
<title>Node41</title>
<g id="a_Node000041"><a xlink:href="validate__expressions_8h.html" target="_top" xlink:title=" ">
<polygon fill="white" stroke="#666666" points="500.94,-239 371.94,-239 371.94,-220 500.94,-220 500.94,-239"/>
<text text-anchor="middle" x="436.44" y="-227" font-family="Helvetica,sans-Serif" font-size="10.00">validate_expressions.h</text>
</a>
</g>
</g>
<!-- Node15&#45;&gt;Node41 -->
<g id="edge30_Node000015_Node000041" class="edge">
<title>Node15&#45;&gt;Node41</title>
<g id="a_edge30_Node000015_Node000041"><a xlink:title=" ">
<path fill="none" stroke="#63b8ff" d="M622.76,-277.52C588.23,-268.81 523.46,-252.46 480.13,-241.53"/>
<polygon fill="#63b8ff" stroke="#63b8ff" points="480.97,-238.13 470.42,-239.08 479.26,-244.92 480.97,-238.13"/>
</a>
</g>
</g>
<!-- Node18 -->
<g id="Node000018" class="node">
<title>Node18</title>
<g id="a_Node000018"><a xlink:href="source__location_8h.html" target="_top" xlink:title=" ">
<polygon fill="#fff0f0" stroke="red" points="119.44,-184 17.44,-184 17.44,-165 119.44,-165 119.44,-184"/>
<text text-anchor="middle" x="68.44" y="-172" font-family="Helvetica,sans-Serif" font-size="10.00">source_location.h</text>
</a>
</g>
</g>
<!-- Node17&#45;&gt;Node18 -->
<g id="edge20_Node000017_Node000018" class="edge">
<title>Node17&#45;&gt;Node18</title>
<g id="a_edge20_Node000017_Node000018"><a xlink:title=" ">
<path fill="none" stroke="#63b8ff" d="M557.79,-225.52C543.99,-223.82 526.24,-221.69 510.44,-220 344.11,-202.21 299.48,-203.89 129.52,-184.08"/>
<polygon fill="#63b8ff" stroke="#63b8ff" points="129.82,-180.59 119.48,-182.9 129.01,-187.54 129.82,-180.59"/>
</a>
</g>
</g>
<!-- Node37 -->
<g id="Node000037" class="node">
<title>Node37</title>
<g id="a_Node000037"><a xlink:href="validate_8h.html" target="_top" xlink:title=" ">
<polygon fill="#fff0f0" stroke="red" points="783.94,-184 718.94,-184 718.94,-165 783.94,-165 783.94,-184"/>
<text text-anchor="middle" x="751.44" y="-172" font-family="Helvetica,sans-Serif" font-size="10.00">validate.h</text>
</a>
</g>
</g>
<!-- Node17&#45;&gt;Node37 -->
<g id="edge25_Node000017_Node000037" class="edge">
<title>Node17&#45;&gt;Node37</title>
<g id="a_edge25_Node000017_Node000037"><a xlink:title=" ">
<path fill="none" stroke="#63b8ff" d="M605.08,-221.13C633.35,-212.31 681.03,-197.45 714.26,-187.09"/>
<polygon fill="#63b8ff" stroke="#63b8ff" points="715.56,-190.35 724.07,-184.03 713.48,-183.67 715.56,-190.35"/>
</a>
</g>
</g>
<!-- Node17&#45;&gt;Node39 -->
<g id="edge29_Node000017_Node000039" class="edge">
<title>Node17&#45;&gt;Node39</title>
<g id="a_edge29_Node000017_Node000039"><a xlink:title=" ">
<path fill="none" stroke="#63b8ff" d="M580.87,-219.66C579.73,-202.17 577.18,-162.8 575.66,-139.27"/>
<polygon fill="#63b8ff" stroke="#63b8ff" points="579.14,-138.91 575,-129.16 572.16,-139.36 579.14,-138.91"/>
</a>
</g>
</g>
<!-- Node17&#45;&gt;Node40 -->
<g id="edge28_Node000017_Node000040" class="edge">
<title>Node17&#45;&gt;Node40</title>
<g id="a_edge28_Node000017_Node000040"><a xlink:title=" ">
<path fill="none" stroke="#63b8ff" d="M592.69,-219.98C603.24,-212 619.24,-199.88 631.88,-190.31"/>
<polygon fill="#63b8ff" stroke="#63b8ff" points="634.13,-193 639.99,-184.17 629.9,-187.42 634.13,-193"/>
</a>
</g>
</g>
<!-- Node18&#45;&gt;Node6 -->
<g id="edge24_Node000018_Node000006" class="edge">
<title>Node18&#45;&gt;Node6</title>
<g id="a_edge24_Node000018_Node000006"><a xlink:title=" ">
<path fill="none" stroke="#63b8ff" d="M69.73,-164.74C73.49,-139.2 84.5,-64.43 89.68,-29.23"/>
<polygon fill="#63b8ff" stroke="#63b8ff" points="93.15,-29.71 91.14,-19.31 86.22,-28.69 93.15,-29.71"/>
</a>
</g>
</g>
<!-- Node20 -->
<g id="Node000020" class="node">
<title>Node20</title>
<g id="a_Node000020"><a xlink:href="irep_8h.html" target="_top" xlink:title=" ">
<polygon fill="#fff0f0" stroke="red" points="174.44,-129 130.44,-129 130.44,-110 174.44,-110 174.44,-129"/>
<text text-anchor="middle" x="152.44" y="-117" font-family="Helvetica,sans-Serif" font-size="10.00">irep.h</text>
</a>
</g>
</g>
<!-- Node18&#45;&gt;Node20 -->
<g id="edge21_Node000018_Node000020" class="edge">
<title>Node18&#45;&gt;Node20</title>
<g id="a_edge21_Node000018_Node000020"><a xlink:title=" ">
<path fill="none" stroke="#63b8ff" d="M81.94,-164.98C94.84,-156.84 114.54,-144.41 129.84,-134.76"/>
<polygon fill="#63b8ff" stroke="#63b8ff" points="132.11,-137.47 138.7,-129.17 128.37,-131.55 132.11,-137.47"/>
</a>
</g>
</g>
<!-- Node20&#45;&gt;Node3 -->
<g id="edge23_Node000020_Node000003" class="edge">
<title>Node20&#45;&gt;Node3</title>
<g id="a_edge23_Node000020_Node000003"><a xlink:title=" ">
<path fill="none" stroke="#63b8ff" d="M174.69,-110.79C200.08,-102 241.9,-87.51 271.4,-77.29"/>
<polygon fill="#63b8ff" stroke="#63b8ff" points="272.58,-80.59 280.88,-74.01 270.29,-73.97 272.58,-80.59"/>
</a>
</g>
</g>
<!-- Node20&#45;&gt;Node6 -->
<g id="edge22_Node000020_Node000006" class="edge">
<title>Node20&#45;&gt;Node6</title>
<g id="a_edge22_Node000020_Node000006"><a xlink:title=" ">
<path fill="none" stroke="#63b8ff" d="M147.53,-109.66C137.64,-91.85 115.14,-51.37 102.17,-28.01"/>
<polygon fill="#63b8ff" stroke="#63b8ff" points="105.17,-26.2 97.25,-19.16 99.05,-29.6 105.17,-26.2"/>
</a>
</g>
</g>
<!-- Node37&#45;&gt;Node7 -->
<g id="edge26_Node000037_Node000007" class="edge">
<title>Node37&#45;&gt;Node7</title>
<g id="a_edge26_Node000037_Node000007"><a xlink:title=" ">
<path fill="none" stroke="#63b8ff" d="M751.44,-164.74C751.44,-139.31 751.44,-65.08 751.44,-29.69"/>
<polygon fill="#63b8ff" stroke="#63b8ff" points="754.94,-29.31 751.44,-19.31 747.94,-29.31 754.94,-29.31"/>
</a>
</g>
</g>
<!-- Node37&#45;&gt;Node39 -->
<g id="edge27_Node000037_Node000039" class="edge">
<title>Node37&#45;&gt;Node39</title>
<g id="a_edge27_Node000037_Node000039"><a xlink:title=" ">
<path fill="none" stroke="#63b8ff" d="M723,-164.98C693.16,-156.05 646.06,-141.94 612.91,-132.02"/>
<polygon fill="#63b8ff" stroke="#63b8ff" points="613.68,-128.6 603.1,-129.08 611.68,-135.3 613.68,-128.6"/>
</a>
</g>
</g>
<!-- Node42&#45;&gt;Node3 -->
<g id="edge38_Node000042_Node000003" class="edge">
<title>Node42&#45;&gt;Node3</title>
<g id="a_edge38_Node000042_Node000003"><a xlink:title=" ">
<path fill="none" stroke="#63b8ff" d="M663.77,-384.89C701.23,-365.18 789.07,-312.71 822.44,-239 837.01,-206.82 820.18,-188.09 793.44,-165 726.86,-107.51 457.83,-78.55 350.23,-69.09"/>
<polygon fill="#63b8ff" stroke="#63b8ff" points="350.3,-65.58 340.03,-68.21 349.7,-72.55 350.3,-65.58"/>
</a>
</g>
</g>
<!-- Node42&#45;&gt;Node8 -->
<g id="edge39_Node000042_Node000008" class="edge">
<title>Node42&#45;&gt;Node8</title>
<g id="a_edge39_Node000042_Node000008"><a xlink:title=" ">
<path fill="none" stroke="#63b8ff" d="M609.91,-388.42C539.82,-378.67 386.69,-357.37 310.44,-346.76"/>
<polygon fill="#63b8ff" stroke="#63b8ff" points="310.59,-343.25 300.2,-345.34 309.63,-350.18 310.59,-343.25"/>
</a>
</g>
</g>
<!-- Node42&#45;&gt;Node12 -->
<g id="edge37_Node000042_Node000012" class="edge">
<title>Node42&#45;&gt;Node12</title>
<g id="a_edge37_Node000042_Node000012"><a xlink:title=" ">
<path fill="none" stroke="#63b8ff" d="M682.11,-384.98C720.27,-375.87 780.91,-361.4 822.59,-351.45"/>
<polygon fill="#63b8ff" stroke="#63b8ff" points="823.58,-354.81 832.49,-349.08 821.95,-348 823.58,-354.81"/>
</a>
</g>
</g>
<!-- Node42&#45;&gt;Node15 -->
<g id="edge36_Node000042_Node000015" class="edge">
<title>Node42&#45;&gt;Node15</title>
<g id="a_edge36_Node000042_Node000015"><a xlink:title=" ">
<path fill="none" stroke="#63b8ff" d="M646.44,-384.66C646.44,-367.17 646.44,-327.8 646.44,-304.27"/>
<polygon fill="#63b8ff" stroke="#63b8ff" points="649.94,-304.16 646.44,-294.16 642.94,-304.16 649.94,-304.16"/>
</a>
</g>
</g>
<!-- Node42&#45;&gt;Node37 -->
<g id="edge40_Node000042_Node000037" class="edge">
<title>Node42&#45;&gt;Node37</title>
<g id="a_edge40_Node000042_Node000037"><a xlink:title=" ">
<path fill="none" stroke="#63b8ff" d="M663.77,-384.89C701.23,-365.18 789.07,-312.71 822.44,-239 832.45,-216.89 807.64,-199.26 784.65,-188.24"/>
<polygon fill="#63b8ff" stroke="#63b8ff" points="785.9,-184.96 775.35,-184.07 783.04,-191.35 785.9,-184.96"/>
</a>
</g>
</g>
<!-- Node28 -->
<g id="Node000028" class="node">
<title>Node28</title>
<g id="a_Node000028"><a xlink:title=" ">
<polygon fill="#e0e0e0" stroke="#999999" points="617.94,-349 524.94,-349 524.94,-330 617.94,-330 617.94,-349"/>
<text text-anchor="middle" x="571.44" y="-337" font-family="Helvetica,sans-Serif" font-size="10.00">unordered_map</text>
</a>
</g>
</g>
<!-- Node42&#45;&gt;Node28 -->
<g id="edge41_Node000042_Node000028" class="edge">
<title>Node42&#45;&gt;Node28</title>
<g id="a_edge41_Node000042_Node000028"><a xlink:title=" ">
<path fill="none" stroke="#63b8ff" d="M634.39,-384.98C622.98,-376.92 605.61,-364.65 592,-355.03"/>
<polygon fill="#63b8ff" stroke="#63b8ff" points="593.9,-352.08 583.71,-349.17 589.86,-357.8 593.9,-352.08"/>
</a>
</g>
</g>
<!-- Node44&#45;&gt;Node9 -->
<g id="edge47_Node000044_Node000009" class="edge">
<title>Node44&#45;&gt;Node9</title>
<g id="a_edge47_Node000044_Node000009"><a xlink:title=" ">
<path fill="none" stroke="#63b8ff" d="M463.62,-494.82C458.29,-469.41 442.14,-393.06 427.44,-330 425.43,-321.37 423.08,-311.82 421.08,-303.8"/>
<polygon fill="#63b8ff" stroke="#63b8ff" points="424.45,-302.86 418.62,-294.01 417.66,-304.57 424.45,-302.86"/>
</a>
</g>
</g>
<!-- Node44&#45;&gt;Node11 -->
<g id="edge44_Node000044_Node000011" class="edge">
<title>Node44&#45;&gt;Node11</title>
<g id="a_edge44_Node000044_Node000011"><a xlink:title=" ">
<path fill="none" stroke="#63b8ff" d="M478.45,-494.98C490.9,-486.84 509.9,-474.41 524.65,-464.76"/>
<polygon fill="#63b8ff" stroke="#63b8ff" points="526.74,-467.57 533.19,-459.17 522.9,-461.72 526.74,-467.57"/>
</a>
</g>
</g>
<!-- Node45 -->
<g id="Node000045" class="node">
<title>Node45</title>
<g id="a_Node000045"><a xlink:href="threeval_8h.html" target="_top" xlink:title=" ">
<polygon fill="white" stroke="#666666" points="559.94,-404 474.94,-404 474.94,-385 559.94,-385 559.94,-404"/>
<text text-anchor="middle" x="517.44" y="-392" font-family="Helvetica,sans-Serif" font-size="10.00">util/threeval.h</text>
</a>
</g>
</g>
<!-- Node44&#45;&gt;Node45 -->
<g id="edge45_Node000044_Node000045" class="edge">
<title>Node44&#45;&gt;Node45</title>
<g id="a_edge45_Node000044_Node000045"><a xlink:title=" ">
<path fill="none" stroke="#63b8ff" d="M469.7,-494.66C478.23,-476.93 497.59,-436.73 508.86,-413.32"/>
<polygon fill="#63b8ff" stroke="#63b8ff" points="512.09,-414.69 513.27,-404.16 505.78,-411.65 512.09,-414.69"/>
</a>
</g>
</g>
<!-- Node45&#45;&gt;Node9 -->
<g id="edge46_Node000045_Node000009" class="edge">
<title>Node45&#45;&gt;Node9</title>
<g id="a_edge46_Node000045_Node000009"><a xlink:title=" ">
<path fill="none" stroke="#63b8ff" d="M509.83,-384.75C499.02,-372.4 478.52,-349.19 460.44,-330 451.41,-320.41 441.06,-309.92 432.67,-301.54"/>
<polygon fill="#63b8ff" stroke="#63b8ff" points="434.89,-298.81 425.33,-294.24 429.96,-303.78 434.89,-298.81"/>
</a>
</g>
</g>
<!-- Node46&#45;&gt;Node3 -->
<g id="edge49_Node000046_Node000003" class="edge">
<title>Node46&#45;&gt;Node3</title>
<g id="a_edge49_Node000046_Node000003"><a xlink:title=" ">
<path fill="none" stroke="#63b8ff" d="M197.09,-164.69C209.39,-152.25 232.72,-128.95 253.44,-110 264.4,-99.98 277.05,-89.13 287.14,-80.66"/>
<polygon fill="#63b8ff" stroke="#63b8ff" points="289.47,-83.26 294.91,-74.17 284.99,-77.89 289.47,-83.26"/>
</a>
</g>
</g>
<!-- Node46&#45;&gt;Node20 -->
<g id="edge50_Node000046_Node000020" class="edge">
<title>Node46&#45;&gt;Node20</title>
<g id="a_edge50_Node000046_Node000020"><a xlink:title=" ">
<path fill="none" stroke="#63b8ff" d="M182.5,-164.75C177.46,-157.34 170.1,-146.5 163.93,-137.41"/>
<polygon fill="#63b8ff" stroke="#63b8ff" points="166.79,-135.39 158.27,-129.09 161,-139.33 166.79,-135.39"/>
</a>
</g>
</g>
<!-- Node48 -->
<g id="Node000048" class="node">
<title>Node48</title>
<g id="a_Node000048"><a xlink:href="symbol__table__base_8h.html" target="_top" xlink:title="Author: Diffblue Ltd.">
<polygon fill="white" stroke="#666666" points="298.44,-404 178.44,-404 178.44,-385 298.44,-385 298.44,-404"/>
<text text-anchor="middle" x="238.44" y="-392" font-family="Helvetica,sans-Serif" font-size="10.00">symbol_table_base.h</text>
</a>
</g>
</g>
<!-- Node47&#45;&gt;Node48 -->
<g id="edge52_Node000047_Node000048" class="edge">
<title>Node47&#45;&gt;Node48</title>
<g id="a_edge52_Node000047_Node000048"><a xlink:title=" ">
<path fill="none" stroke="#63b8ff" d="M238.44,-494.66C238.44,-477.17 238.44,-437.8 238.44,-414.27"/>
<polygon fill="#63b8ff" stroke="#63b8ff" points="241.94,-414.16 238.44,-404.16 234.94,-414.16 241.94,-414.16"/>
</a>
</g>
</g>
<!-- Node48&#45;&gt;Node28 -->
<g id="edge59_Node000048_Node000028" class="edge">
<title>Node48&#45;&gt;Node28</title>
<g id="a_edge59_Node000048_Node000028"><a xlink:title=" ">
<path fill="none" stroke="#63b8ff" d="M291.94,-384.98C352.98,-375.27 452.39,-359.45 514.74,-349.52"/>
<polygon fill="#63b8ff" stroke="#63b8ff" points="515.47,-352.95 524.79,-347.92 514.37,-346.04 515.47,-352.95"/>
</a>
</g>
</g>
<!-- Node49 -->
<g id="Node000049" class="node">
<title>Node49</title>
<g id="a_Node000049"><a xlink:href="symbol_8h.html" target="_top" xlink:title="Symbol table entry.">
<polygon fill="white" stroke="#666666" points="418.44,-349 356.44,-349 356.44,-330 418.44,-330 418.44,-349"/>
<text text-anchor="middle" x="387.44" y="-337" font-family="Helvetica,sans-Serif" font-size="10.00">symbol.h</text>
</a>
</g>
</g>
<!-- Node48&#45;&gt;Node49 -->
<g id="edge53_Node000048_Node000049" class="edge">
<title>Node48&#45;&gt;Node49</title>
<g id="a_edge53_Node000048_Node000049"><a xlink:title=" ">
<path fill="none" stroke="#63b8ff" d="M262.38,-384.98C287,-376.23 325.56,-362.51 353.36,-352.62"/>
<polygon fill="#63b8ff" stroke="#63b8ff" points="354.82,-355.82 363.06,-349.17 352.47,-349.22 354.82,-355.82"/>
</a>
</g>
</g>
<!-- Node27 -->
<g id="Node000027" class="node">
<title>Node27</title>
<g id="a_Node000027"><a xlink:title=" ">
<polygon fill="#e0e0e0" stroke="#999999" points="156.44,-349 124.44,-349 124.44,-330 156.44,-330 156.44,-349"/>
<text text-anchor="middle" x="140.44" y="-337" font-family="Helvetica,sans-Serif" font-size="10.00">list</text>
</a>
</g>
</g>
<!-- Node48&#45;&gt;Node27 -->
<g id="edge57_Node000048_Node000027" class="edge">
<title>Node48&#45;&gt;Node27</title>
<g id="a_edge57_Node000048_Node000027"><a xlink:title=" ">
<path fill="none" stroke="#63b8ff" d="M222.69,-384.98C207.21,-376.61 183.35,-363.7 165.3,-353.95"/>
<polygon fill="#63b8ff" stroke="#63b8ff" points="166.93,-350.85 156.47,-349.17 163.6,-357.01 166.93,-350.85"/>
</a>
</g>
</g>
<!-- Node50 -->
<g id="Node000050" class="node">
<title>Node50</title>
<g id="a_Node000050"><a xlink:title=" ">
<polygon fill="#e0e0e0" stroke="#999999" points="212.44,-349 174.44,-349 174.44,-330 212.44,-330 212.44,-349"/>
<text text-anchor="middle" x="193.44" y="-337" font-family="Helvetica,sans-Serif" font-size="10.00">map</text>
</a>
</g>
</g>
<!-- Node48&#45;&gt;Node50 -->
<g id="edge58_Node000048_Node000050" class="edge">
<title>Node48&#45;&gt;Node50</title>
<g id="a_edge58_Node000048_Node000050"><a xlink:title=" ">
<path fill="none" stroke="#63b8ff" d="M231.01,-384.75C224.59,-377.18 215.13,-366.05 207.32,-356.84"/>
<polygon fill="#63b8ff" stroke="#63b8ff" points="209.87,-354.45 200.73,-349.09 204.54,-358.98 209.87,-354.45"/>
</a>
</g>
</g>
<!-- Node49&#45;&gt;Node3 -->
<g id="edge56_Node000049_Node000003" class="edge">
<title>Node49&#45;&gt;Node3</title>
<g id="a_edge56_Node000049_Node000003"><a xlink:title=" ">
<path fill="none" stroke="#63b8ff" d="M381.14,-329.75C368.97,-311.98 343.44,-269.98 343.44,-230.5 343.44,-230.5 343.44,-230.5 343.44,-173.5 343.44,-140.02 326.99,-103.84 315.74,-83.01"/>
<polygon fill="#63b8ff" stroke="#63b8ff" points="318.68,-81.1 310.72,-74.1 312.57,-84.53 318.68,-81.1"/>
</a>
</g>
</g>
<!-- Node49&#45;&gt;Node9 -->
<g id="edge54_Node000049_Node000009" class="edge">
<title>Node49&#45;&gt;Node9</title>
<g id="a_edge54_Node000049_Node000009"><a xlink:title=" ">
<path fill="none" stroke="#63b8ff" d="M392.23,-329.75C396.2,-322.49 401.96,-311.95 406.87,-302.98"/>
<polygon fill="#63b8ff" stroke="#63b8ff" points="410.01,-304.54 411.74,-294.09 403.87,-301.18 410.01,-304.54"/>
</a>
</g>
</g>
<!-- Node49&#45;&gt;Node15 -->
<g id="edge55_Node000049_Node000015" class="edge">
<title>Node49&#45;&gt;Node15</title>
<g id="a_edge55_Node000049_Node000015"><a xlink:title=" ">
<path fill="none" stroke="#63b8ff" d="M418.68,-332.11C467.67,-322.08 562.16,-302.75 612.67,-292.41"/>
<polygon fill="#63b8ff" stroke="#63b8ff" points="613.65,-295.78 622.75,-290.35 612.25,-288.92 613.65,-295.78"/>
</a>
</g>
</g>
</g>
</svg>
