<?xml version="1.0" encoding="UTF-8" standalone="no"?>
<!DOCTYPE svg PUBLIC "-//W3C//DTD SVG 1.1//EN"
 "http://www.w3.org/Graphics/SVG/1.1/DTD/svg11.dtd">
<!-- Generated by graphviz version 2.43.0 (0)
 -->
<!-- Title: /home/runner/work/cbmc/cbmc/src/xmllang/xml_parser.cpp Pages: 1 -->
<svg width="864pt" height="599pt"
 viewBox="0.00 0.00 864.00 599.00" xmlns="http://www.w3.org/2000/svg" xmlns:xlink="http://www.w3.org/1999/xlink">
<g id="graph0" class="graph" transform="scale(1 1) rotate(0) translate(4 595)">
<title>/home/runner/work/cbmc/cbmc/src/xmllang/xml_parser.cpp</title>
<!-- Node1 -->
<g id="Node000001" class="node">
<title>Node1</title>
<g id="a_Node000001"><a xlink:title=" ">
<polygon fill="#999999" stroke="#666666" points="774,-591 636,-591 636,-550 774,-550 774,-591"/>
<text text-anchor="start" x="644" y="-579" font-family="Helvetica,sans-Serif" font-size="10.00">/home/runner/work/cbmc</text>
<text text-anchor="start" x="644" y="-568" font-family="Helvetica,sans-Serif" font-size="10.00">/cbmc/src/xmllang/xml</text>
<text text-anchor="middle" x="705" y="-557" font-family="Helvetica,sans-Serif" font-size="10.00">_parser.cpp</text>
</a>
</g>
</g>
<!-- Node2 -->
<g id="Node000002" class="node">
<title>Node2</title>
<g id="a_Node000002"><a xlink:href="xml__parser_8h.html" target="_top" xlink:title=" ">
<polygon fill="white" stroke="#666666" points="702,-514 622,-514 622,-495 702,-495 702,-514"/>
<text text-anchor="middle" x="662" y="-502" font-family="Helvetica,sans-Serif" font-size="10.00">xml_parser.h</text>
</a>
</g>
</g>
<!-- Node1&#45;&gt;Node2 -->
<g id="edge1_Node000001_Node000002" class="edge">
<title>Node1&#45;&gt;Node2</title>
<g id="a_edge1_Node000001_Node000002"><a xlink:title=" ">
<path fill="none" stroke="#63b8ff" d="M691.86,-549.95C686.05,-541.3 679.27,-531.2 673.64,-522.82"/>
<polygon fill="#63b8ff" stroke="#63b8ff" points="676.37,-520.61 667.89,-514.26 670.56,-524.51 676.37,-520.61"/>
</a>
</g>
</g>
<!-- Node44 -->
<g id="Node000044" class="node">
<title>Node44</title>
<g id="a_Node000044"><a xlink:title=" ">
<polygon fill="#e0e0e0" stroke="#999999" points="775.5,-514 720.5,-514 720.5,-495 775.5,-495 775.5,-514"/>
<text text-anchor="middle" x="748" y="-502" font-family="Helvetica,sans-Serif" font-size="10.00">fstream</text>
</a>
</g>
</g>
<!-- Node1&#45;&gt;Node44 -->
<g id="edge48_Node000001_Node000044" class="edge">
<title>Node1&#45;&gt;Node44</title>
<g id="a_edge48_Node000001_Node000044"><a xlink:title=" ">
<path fill="none" stroke="#63b8ff" d="M718.14,-549.95C723.95,-541.3 730.73,-531.2 736.36,-522.82"/>
<polygon fill="#63b8ff" stroke="#63b8ff" points="739.44,-524.51 742.11,-514.26 733.63,-520.61 739.44,-524.51"/>
</a>
</g>
</g>
<!-- Node3 -->
<g id="Node000003" class="node">
<title>Node3</title>
<g id="a_Node000003"><a xlink:href="parser_8h.html" target="_top" xlink:title="Parser utilities.">
<polygon fill="white" stroke="#666666" points="646,-459 572,-459 572,-440 646,-440 646,-459"/>
<text text-anchor="middle" x="609" y="-447" font-family="Helvetica,sans-Serif" font-size="10.00">util/parser.h</text>
</a>
</g>
</g>
<!-- Node2&#45;&gt;Node3 -->
<g id="edge2_Node000002_Node000003" class="edge">
<title>Node2&#45;&gt;Node3</title>
<g id="a_edge2_Node000002_Node000003"><a xlink:title=" ">
<path fill="none" stroke="#63b8ff" d="M653.25,-494.75C645.53,-487.03 634.1,-475.6 624.78,-466.28"/>
<polygon fill="#63b8ff" stroke="#63b8ff" points="627.14,-463.69 617.59,-459.09 622.19,-468.64 627.14,-463.69"/>
</a>
</g>
</g>
<!-- Node41 -->
<g id="Node000041" class="node">
<title>Node41</title>
<g id="a_Node000041"><a xlink:href="xml__parse__tree_8h.html" target="_top" xlink:title=" ">
<polygon fill="white" stroke="#666666" points="802.5,-459 701.5,-459 701.5,-440 802.5,-440 802.5,-459"/>
<text text-anchor="middle" x="752" y="-447" font-family="Helvetica,sans-Serif" font-size="10.00">xml_parse_tree.h</text>
</a>
</g>
</g>
<!-- Node2&#45;&gt;Node41 -->
<g id="edge42_Node000002_Node000041" class="edge">
<title>Node2&#45;&gt;Node41</title>
<g id="a_edge42_Node000002_Node000041"><a xlink:title=" ">
<path fill="none" stroke="#63b8ff" d="M676.46,-494.98C690.42,-486.77 711.79,-474.18 728.25,-464.49"/>
<polygon fill="#63b8ff" stroke="#63b8ff" points="730.44,-467.26 737.28,-459.17 726.88,-461.23 730.44,-467.26"/>
</a>
</g>
</g>
<!-- Node4 -->
<g id="Node000004" class="node">
<title>Node4</title>
<g id="a_Node000004"><a xlink:href="expr_8h.html" target="_top" xlink:title=" ">
<polygon fill="white" stroke="#666666" points="444.5,-404 397.5,-404 397.5,-385 444.5,-385 444.5,-404"/>
<text text-anchor="middle" x="421" y="-392" font-family="Helvetica,sans-Serif" font-size="10.00">expr.h</text>
</a>
</g>
</g>
<!-- Node3&#45;&gt;Node4 -->
<g id="edge3_Node000003_Node000004" class="edge">
<title>Node3&#45;&gt;Node4</title>
<g id="a_edge3_Node000003_Node000004"><a xlink:title=" ">
<path fill="none" stroke="#63b8ff" d="M578.79,-439.98C544.79,-430.4 489.68,-414.86 454.41,-404.92"/>
<polygon fill="#63b8ff" stroke="#63b8ff" points="455.16,-401.49 444.58,-402.15 453.26,-408.23 455.16,-401.49"/>
</a>
</g>
</g>
<!-- Node10 -->
<g id="Node000010" class="node">
<title>Node10</title>
<g id="a_Node000010"><a xlink:title=" ">
<polygon fill="#e0e0e0" stroke="#999999" points="478,-19 434,-19 434,0 478,0 478,-19"/>
<text text-anchor="middle" x="456" y="-7" font-family="Helvetica,sans-Serif" font-size="10.00">string</text>
</a>
</g>
</g>
<!-- Node3&#45;&gt;Node10 -->
<g id="edge40_Node000003_Node000010" class="edge">
<title>Node3&#45;&gt;Node10</title>
<g id="a_edge40_Node000003_Node000010"><a xlink:title=" ">
<path fill="none" stroke="#63b8ff" d="M612.37,-439.98C619.2,-421.93 634,-378.41 634,-340.5 634,-340.5 634,-340.5 634,-283.5 634,-176.33 629.29,-134.11 557,-55 538.92,-35.22 510.45,-23.77 488.34,-17.45"/>
<polygon fill="#63b8ff" stroke="#63b8ff" points="488.94,-13.99 478.38,-14.82 487.16,-20.76 488.94,-13.99"/>
</a>
</g>
</g>
<!-- Node11 -->
<g id="Node000011" class="node">
<title>Node11</title>
<g id="a_Node000011"><a xlink:title=" ">
<polygon fill="#e0e0e0" stroke="#999999" points="531.5,-74 484.5,-74 484.5,-55 531.5,-55 531.5,-74"/>
<text text-anchor="middle" x="508" y="-62" font-family="Helvetica,sans-Serif" font-size="10.00">vector</text>
</a>
</g>
</g>
<!-- Node3&#45;&gt;Node11 -->
<g id="edge41_Node000003_Node000011" class="edge">
<title>Node3&#45;&gt;Node11</title>
<g id="a_edge41_Node000003_Node000011"><a xlink:title=" ">
<path fill="none" stroke="#63b8ff" d="M606.44,-439.91C601.25,-421.74 590,-378 590,-340.5 590,-340.5 590,-340.5 590,-283.5 590,-204.4 542.12,-118.9 519.54,-82.97"/>
<polygon fill="#63b8ff" stroke="#63b8ff" points="522.25,-80.71 513.9,-74.19 516.36,-84.5 522.25,-80.71"/>
</a>
</g>
</g>
<!-- Node38 -->
<g id="Node000038" class="node">
<title>Node38</title>
<g id="a_Node000038"><a xlink:href="src_2util_2message_8h.html" target="_top" xlink:title=" ">
<polygon fill="white" stroke="#666666" points="562,-239 492,-239 492,-220 562,-220 562,-239"/>
<text text-anchor="middle" x="527" y="-227" font-family="Helvetica,sans-Serif" font-size="10.00">message.h</text>
</a>
</g>
</g>
<!-- Node3&#45;&gt;Node38 -->
<g id="edge30_Node000003_Node000038" class="edge">
<title>Node3&#45;&gt;Node38</title>
<g id="a_edge30_Node000003_Node000038"><a xlink:title=" ">
<path fill="none" stroke="#63b8ff" d="M601.14,-439.93C593.7,-431.39 582.7,-417.64 576,-404 549.95,-350.98 535.68,-281.83 529.97,-249.15"/>
<polygon fill="#63b8ff" stroke="#63b8ff" points="533.41,-248.49 528.31,-239.2 526.51,-249.64 533.41,-248.49"/>
</a>
</g>
</g>
<!-- Node18 -->
<g id="Node000018" class="node">
<title>Node18</title>
<g id="a_Node000018"><a xlink:title=" ">
<polygon fill="#e0e0e0" stroke="#999999" points="712,-184 664,-184 664,-165 712,-165 712,-184"/>
<text text-anchor="middle" x="688" y="-172" font-family="Helvetica,sans-Serif" font-size="10.00">iosfwd</text>
</a>
</g>
</g>
<!-- Node3&#45;&gt;Node18 -->
<g id="edge38_Node000003_Node000018" class="edge">
<title>Node3&#45;&gt;Node18</title>
<g id="a_edge38_Node000003_Node000018"><a xlink:title=" ">
<path fill="none" stroke="#63b8ff" d="M618.3,-439.97C635.82,-422.92 672,-382.61 672,-340.5 672,-340.5 672,-340.5 672,-283.5 672,-251.85 678.81,-215.54 683.54,-194.11"/>
<polygon fill="#63b8ff" stroke="#63b8ff" points="687.01,-194.65 685.84,-184.12 680.19,-193.08 687.01,-194.65"/>
</a>
</g>
</g>
<!-- Node39 -->
<g id="Node000039" class="node">
<title>Node39</title>
<g id="a_Node000039"><a xlink:title=" ">
<polygon fill="#e0e0e0" stroke="#999999" points="768,-404 700,-404 700,-385 768,-385 768,-404"/>
<text text-anchor="middle" x="734" y="-392" font-family="Helvetica,sans-Serif" font-size="10.00">filesystem</text>
</a>
</g>
</g>
<!-- Node3&#45;&gt;Node39 -->
<g id="edge37_Node000003_Node000039" class="edge">
<title>Node3&#45;&gt;Node39</title>
<g id="a_edge37_Node000003_Node000039"><a xlink:title=" ">
<path fill="none" stroke="#63b8ff" d="M629.08,-439.98C649.37,-431.38 680.96,-417.99 704.17,-408.15"/>
<polygon fill="#63b8ff" stroke="#63b8ff" points="705.71,-411.3 713.55,-404.17 702.98,-404.85 705.71,-411.3"/>
</a>
</g>
</g>
<!-- Node40 -->
<g id="Node000040" class="node">
<title>Node40</title>
<g id="a_Node000040"><a xlink:title=" ">
<polygon fill="#e0e0e0" stroke="#999999" points="379,-404 335,-404 335,-385 379,-385 379,-404"/>
<text text-anchor="middle" x="357" y="-392" font-family="Helvetica,sans-Serif" font-size="10.00">limits</text>
</a>
</g>
</g>
<!-- Node3&#45;&gt;Node40 -->
<g id="edge39_Node000003_Node000040" class="edge">
<title>Node3&#45;&gt;Node40</title>
<g id="a_edge39_Node000003_Node000040"><a xlink:title=" ">
<path fill="none" stroke="#63b8ff" d="M571.87,-441.7C529.99,-433.86 459.62,-420.24 389.26,-403.93"/>
<polygon fill="#63b8ff" stroke="#63b8ff" points="389.87,-400.48 379.34,-401.62 388.28,-407.3 389.87,-400.48"/>
</a>
</g>
</g>
<!-- Node5 -->
<g id="Node000005" class="node">
<title>Node5</title>
<g id="a_Node000005"><a xlink:href="as__const_8h.html" target="_top" xlink:title=" ">
<polygon fill="white" stroke="#666666" points="486,-349 418,-349 418,-330 486,-330 486,-349"/>
<text text-anchor="middle" x="452" y="-337" font-family="Helvetica,sans-Serif" font-size="10.00">as_const.h</text>
</a>
</g>
</g>
<!-- Node4&#45;&gt;Node5 -->
<g id="edge4_Node000004_Node000005" class="edge">
<title>Node4&#45;&gt;Node5</title>
<g id="a_edge4_Node000004_Node000005"><a xlink:title=" ">
<path fill="none" stroke="#63b8ff" d="M426.12,-384.75C430.36,-377.49 436.53,-366.95 441.78,-357.98"/>
<polygon fill="#63b8ff" stroke="#63b8ff" points="444.95,-359.49 446.98,-349.09 438.91,-355.95 444.95,-359.49"/>
</a>
</g>
</g>
<!-- Node6 -->
<g id="Node000006" class="node">
<title>Node6</title>
<g id="a_Node000006"><a xlink:href="type_8h.html" target="_top" xlink:title="Defines typet, type_with_subtypet and type_with_subtypest.">
<polygon fill="white" stroke="#666666" points="214.5,-349 167.5,-349 167.5,-330 214.5,-330 214.5,-349"/>
<text text-anchor="middle" x="191" y="-337" font-family="Helvetica,sans-Serif" font-size="10.00">type.h</text>
</a>
</g>
</g>
<!-- Node4&#45;&gt;Node6 -->
<g id="edge5_Node000004_Node000006" class="edge">
<title>Node4&#45;&gt;Node6</title>
<g id="a_edge5_Node000004_Node000006"><a xlink:title=" ">
<path fill="none" stroke="#63b8ff" d="M397.23,-387.27C394.13,-386.49 390.99,-385.71 388,-385 318.39,-368.4 298.22,-366.45 224.53,-349.05"/>
<polygon fill="#63b8ff" stroke="#63b8ff" points="225.31,-345.64 214.77,-346.73 223.69,-352.45 225.31,-345.64"/>
</a>
</g>
</g>
<!-- Node34 -->
<g id="Node000034" class="node">
<title>Node34</title>
<g id="a_Node000034"><a xlink:href="validation__mode_8h.html" target="_top" xlink:title=" ">
<polygon fill="white" stroke="#666666" points="253.5,-239 146.5,-239 146.5,-220 253.5,-220 253.5,-239"/>
<text text-anchor="middle" x="200" y="-227" font-family="Helvetica,sans-Serif" font-size="10.00">validation_mode.h</text>
</a>
</g>
</g>
<!-- Node4&#45;&gt;Node34 -->
<g id="edge28_Node000004_Node000034" class="edge">
<title>Node4&#45;&gt;Node34</title>
<g id="a_edge28_Node000004_Node000034"><a xlink:title=" ">
<path fill="none" stroke="#63b8ff" d="M397.27,-387.1C394.16,-386.34 391.01,-385.62 388,-385 337.34,-374.54 191.63,-388.31 158,-349 132.23,-318.88 164.15,-271.87 184.89,-247.08"/>
<polygon fill="#63b8ff" stroke="#63b8ff" points="187.73,-249.15 191.64,-239.31 182.44,-244.56 187.73,-249.15"/>
</a>
</g>
</g>
<!-- Node35 -->
<g id="Node000035" class="node">
<title>Node35</title>
<g id="a_Node000035"><a xlink:href="validate__types_8h.html" target="_top" xlink:title=" ">
<polygon fill="white" stroke="#666666" points="422,-294 324,-294 324,-275 422,-275 422,-294"/>
<text text-anchor="middle" x="373" y="-282" font-family="Helvetica,sans-Serif" font-size="10.00">validate_types.h</text>
</a>
</g>
</g>
<!-- Node4&#45;&gt;Node35 -->
<g id="edge27_Node000004_Node000035" class="edge">
<title>Node4&#45;&gt;Node35</title>
<g id="a_edge27_Node000004_Node000035"><a xlink:title=" ">
<path fill="none" stroke="#63b8ff" d="M417.07,-384.66C409.19,-366.93 391.32,-326.73 380.92,-303.32"/>
<polygon fill="#63b8ff" stroke="#63b8ff" points="384.11,-301.87 376.85,-294.16 377.71,-304.72 384.11,-301.87"/>
</a>
</g>
</g>
<!-- Node36 -->
<g id="Node000036" class="node">
<title>Node36</title>
<g id="a_Node000036"><a xlink:href="validate__expressions_8h.html" target="_top" xlink:title=" ">
<polygon fill="white" stroke="#666666" points="361.5,-349 232.5,-349 232.5,-330 361.5,-330 361.5,-349"/>
<text text-anchor="middle" x="297" y="-337" font-family="Helvetica,sans-Serif" font-size="10.00">validate_expressions.h</text>
</a>
</g>
</g>
<!-- Node4&#45;&gt;Node36 -->
<g id="edge26_Node000004_Node000036" class="edge">
<title>Node4&#45;&gt;Node36</title>
<g id="a_edge26_Node000004_Node000036"><a xlink:title=" ">
<path fill="none" stroke="#63b8ff" d="M401.08,-384.98C380.95,-376.38 349.62,-362.99 326.59,-353.15"/>
<polygon fill="#63b8ff" stroke="#63b8ff" points="327.86,-349.88 317.29,-349.17 325.1,-356.32 327.86,-349.88"/>
</a>
</g>
</g>
<!-- Node37 -->
<g id="Node000037" class="node">
<title>Node37</title>
<g id="a_Node000037"><a xlink:title=" ">
<polygon fill="#e0e0e0" stroke="#999999" points="413.5,-184 348.5,-184 348.5,-165 413.5,-165 413.5,-184"/>
<text text-anchor="middle" x="381" y="-172" font-family="Helvetica,sans-Serif" font-size="10.00">functional</text>
</a>
</g>
</g>
<!-- Node4&#45;&gt;Node37 -->
<g id="edge29_Node000004_Node000037" class="edge">
<title>Node4&#45;&gt;Node37</title>
<g id="a_edge29_Node000004_Node000037"><a xlink:title=" ">
<path fill="none" stroke="#63b8ff" d="M444.64,-386.33C461.98,-379.68 484.3,-367.92 495,-349 499.16,-341.65 497.64,-338.02 495,-330 475.74,-271.46 424.84,-216.9 398.05,-191.09"/>
<polygon fill="#63b8ff" stroke="#63b8ff" points="400.25,-188.35 390.57,-184.04 395.44,-193.45 400.25,-188.35"/>
</a>
</g>
</g>
<!-- Node7 -->
<g id="Node000007" class="node">
<title>Node7</title>
<g id="a_Node000007"><a xlink:href="source__location_8h.html" target="_top" xlink:title=" ">
<polygon fill="white" stroke="#666666" points="330,-184 228,-184 228,-165 330,-165 330,-184"/>
<text text-anchor="middle" x="279" y="-172" font-family="Helvetica,sans-Serif" font-size="10.00">source_location.h</text>
</a>
</g>
</g>
<!-- Node6&#45;&gt;Node7 -->
<g id="edge6_Node000006_Node000007" class="edge">
<title>Node6&#45;&gt;Node7</title>
<g id="a_edge6_Node000006_Node000007"><a xlink:title=" ">
<path fill="none" stroke="#63b8ff" d="M198.84,-329.86C213.37,-313.39 244.62,-275.85 262,-239 268.78,-224.63 273.21,-207.11 275.85,-194.12"/>
<polygon fill="#63b8ff" stroke="#63b8ff" points="279.33,-194.52 277.71,-184.05 272.45,-193.25 279.33,-194.52"/>
</a>
</g>
</g>
<!-- Node32 -->
<g id="Node000032" class="node">
<title>Node32</title>
<g id="a_Node000032"><a xlink:href="validate_8h.html" target="_top" xlink:title=" ">
<polygon fill="white" stroke="#666666" points="110.5,-294 45.5,-294 45.5,-275 110.5,-275 110.5,-294"/>
<text text-anchor="middle" x="78" y="-282" font-family="Helvetica,sans-Serif" font-size="10.00">validate.h</text>
</a>
</g>
</g>
<!-- Node6&#45;&gt;Node32 -->
<g id="edge17_Node000006_Node000032" class="edge">
<title>Node6&#45;&gt;Node32</title>
<g id="a_edge17_Node000006_Node000032"><a xlink:title=" ">
<path fill="none" stroke="#63b8ff" d="M172.84,-329.98C154.75,-321.5 126.72,-308.35 105.81,-298.54"/>
<polygon fill="#63b8ff" stroke="#63b8ff" points="107.03,-295.25 96.49,-294.17 104.05,-301.59 107.03,-295.25"/>
</a>
</g>
</g>
<!-- Node6&#45;&gt;Node34 -->
<g id="edge25_Node000006_Node000034" class="edge">
<title>Node6&#45;&gt;Node34</title>
<g id="a_edge25_Node000006_Node000034"><a xlink:title=" ">
<path fill="none" stroke="#63b8ff" d="M191.74,-329.66C193.19,-312.17 196.47,-272.8 198.44,-249.27"/>
<polygon fill="#63b8ff" stroke="#63b8ff" points="201.94,-249.41 199.28,-239.16 194.96,-248.83 201.94,-249.41"/>
</a>
</g>
</g>
<!-- Node6&#45;&gt;Node35 -->
<g id="edge24_Node000006_Node000035" class="edge">
<title>Node6&#45;&gt;Node35</title>
<g id="a_edge24_Node000006_Node000035"><a xlink:title=" ">
<path fill="none" stroke="#63b8ff" d="M214.79,-331.57C245.09,-322.75 297.84,-307.39 334.04,-296.84"/>
<polygon fill="#63b8ff" stroke="#63b8ff" points="335.16,-300.16 343.78,-294.01 333.2,-293.44 335.16,-300.16"/>
</a>
</g>
</g>
<!-- Node8 -->
<g id="Node000008" class="node">
<title>Node8</title>
<g id="a_Node000008"><a xlink:href="deprecate_8h.html" target="_top" xlink:title=" ">
<polygon fill="white" stroke="#666666" points="394,-129 320,-129 320,-110 394,-110 394,-129"/>
<text text-anchor="middle" x="357" y="-117" font-family="Helvetica,sans-Serif" font-size="10.00">deprecate.h</text>
</a>
</g>
</g>
<!-- Node7&#45;&gt;Node8 -->
<g id="edge7_Node000007_Node000008" class="edge">
<title>Node7&#45;&gt;Node8</title>
<g id="a_edge7_Node000007_Node000008"><a xlink:title=" ">
<path fill="none" stroke="#63b8ff" d="M291.53,-164.98C303.4,-156.92 321.46,-144.65 335.61,-135.03"/>
<polygon fill="#63b8ff" stroke="#63b8ff" points="337.94,-137.69 344.24,-129.17 334,-131.9 337.94,-137.69"/>
</a>
</g>
</g>
<!-- Node9 -->
<g id="Node000009" class="node">
<title>Node9</title>
<g id="a_Node000009"><a xlink:href="irep_8h.html" target="_top" xlink:title=" ">
<polygon fill="#fff0f0" stroke="red" points="494,-129 450,-129 450,-110 494,-110 494,-129"/>
<text text-anchor="middle" x="472" y="-117" font-family="Helvetica,sans-Serif" font-size="10.00">irep.h</text>
</a>
</g>
</g>
<!-- Node7&#45;&gt;Node9 -->
<g id="edge8_Node000007_Node000009" class="edge">
<title>Node7&#45;&gt;Node9</title>
<g id="a_edge8_Node000007_Node000009"><a xlink:title=" ">
<path fill="none" stroke="#63b8ff" d="M310.01,-164.98C345.6,-155.21 403.7,-139.26 439.79,-129.35"/>
<polygon fill="#63b8ff" stroke="#63b8ff" points="441.08,-132.62 449.79,-126.6 439.22,-125.87 441.08,-132.62"/>
</a>
</g>
</g>
<!-- Node7&#45;&gt;Node10 -->
<g id="edge16_Node000007_Node000010" class="edge">
<title>Node7&#45;&gt;Node10</title>
<g id="a_edge16_Node000007_Node000010"><a xlink:title=" ">
<path fill="none" stroke="#63b8ff" d="M266.2,-164.96C249.7,-152.85 224.52,-129.95 237,-110 277.83,-44.72 373.45,-21.86 423.76,-14.18"/>
<polygon fill="#63b8ff" stroke="#63b8ff" points="424.36,-17.63 433.77,-12.76 423.38,-10.7 424.36,-17.63"/>
</a>
</g>
</g>
<!-- Node31 -->
<g id="Node000031" class="node">
<title>Node31</title>
<g id="a_Node000031"><a xlink:title=" ">
<polygon fill="#e0e0e0" stroke="#999999" points="302,-129 246,-129 246,-110 302,-110 302,-129"/>
<text text-anchor="middle" x="274" y="-117" font-family="Helvetica,sans-Serif" font-size="10.00">optional</text>
</a>
</g>
</g>
<!-- Node7&#45;&gt;Node31 -->
<g id="edge15_Node000007_Node000031" class="edge">
<title>Node7&#45;&gt;Node31</title>
<g id="a_edge15_Node000007_Node000031"><a xlink:title=" ">
<path fill="none" stroke="#63b8ff" d="M278.17,-164.75C277.52,-157.8 276.58,-147.85 275.76,-139.13"/>
<polygon fill="#63b8ff" stroke="#63b8ff" points="279.23,-138.72 274.81,-129.09 272.27,-139.37 279.23,-138.72"/>
</a>
</g>
</g>
<!-- Node9&#45;&gt;Node10 -->
<g id="edge9_Node000009_Node000010" class="edge">
<title>Node9&#45;&gt;Node10</title>
<g id="a_edge9_Node000009_Node000010"><a xlink:title=" ">
<path fill="none" stroke="#63b8ff" d="M470.69,-109.66C468.1,-92.17 462.27,-52.8 458.78,-29.27"/>
<polygon fill="#63b8ff" stroke="#63b8ff" points="462.21,-28.54 457.28,-19.16 455.29,-29.56 462.21,-28.54"/>
</a>
</g>
</g>
<!-- Node9&#45;&gt;Node11 -->
<g id="edge10_Node000009_Node000011" class="edge">
<title>Node9&#45;&gt;Node11</title>
<g id="a_edge10_Node000009_Node000011"><a xlink:title=" ">
<path fill="none" stroke="#63b8ff" d="M477.94,-109.75C482.98,-102.34 490.34,-91.5 496.51,-82.41"/>
<polygon fill="#63b8ff" stroke="#63b8ff" points="499.44,-84.33 502.17,-74.09 493.65,-80.39 499.44,-84.33"/>
</a>
</g>
</g>
<!-- Node12 -->
<g id="Node000012" class="node">
<title>Node12</title>
<g id="a_Node000012"><a xlink:href="src_2util_2invariant_8h.html" target="_top" xlink:title=" ">
<polygon fill="#fff0f0" stroke="red" points="427.5,-74 358.5,-74 358.5,-55 427.5,-55 427.5,-74"/>
<text text-anchor="middle" x="393" y="-62" font-family="Helvetica,sans-Serif" font-size="10.00">invariant.h</text>
</a>
</g>
</g>
<!-- Node9&#45;&gt;Node12 -->
<g id="edge11_Node000009_Node000012" class="edge">
<title>Node9&#45;&gt;Node12</title>
<g id="a_edge11_Node000009_Node000012"><a xlink:title=" ">
<path fill="none" stroke="#63b8ff" d="M459.31,-109.98C447.17,-101.84 428.64,-89.41 414.25,-79.76"/>
<polygon fill="#63b8ff" stroke="#63b8ff" points="416.18,-76.84 405.92,-74.17 412.28,-82.65 416.18,-76.84"/>
</a>
</g>
</g>
<!-- Node12&#45;&gt;Node10 -->
<g id="edge13_Node000012_Node000010" class="edge">
<title>Node12&#45;&gt;Node10</title>
<g id="a_edge13_Node000012_Node000010"><a xlink:title=" ">
<path fill="none" stroke="#63b8ff" d="M403.12,-54.98C412.44,-47.15 426.47,-35.34 437.74,-25.86"/>
<polygon fill="#63b8ff" stroke="#63b8ff" points="440.29,-28.29 445.69,-19.17 435.79,-22.93 440.29,-28.29"/>
</a>
</g>
</g>
<!-- Node14 -->
<g id="Node000014" class="node">
<title>Node14</title>
<g id="a_Node000014"><a xlink:title=" ">
<polygon fill="#e0e0e0" stroke="#999999" points="608,-19 552,-19 552,0 608,0 608,-19"/>
<text text-anchor="middle" x="580" y="-7" font-family="Helvetica,sans-Serif" font-size="10.00">sstream</text>
</a>
</g>
</g>
<!-- Node12&#45;&gt;Node14 -->
<g id="edge12_Node000012_Node000014" class="edge">
<title>Node12&#45;&gt;Node14</title>
<g id="a_edge12_Node000012_Node000014"><a xlink:title=" ">
<path fill="none" stroke="#63b8ff" d="M423.04,-54.98C455.37,-45.82 506.85,-31.23 541.98,-21.28"/>
<polygon fill="#63b8ff" stroke="#63b8ff" points="543.2,-24.57 551.87,-18.47 541.29,-17.83 543.2,-24.57"/>
</a>
</g>
</g>
<!-- Node15 -->
<g id="Node000015" class="node">
<title>Node15</title>
<g id="a_Node000015"><a xlink:title=" ">
<polygon fill="#e0e0e0" stroke="#999999" points="229.5,-19 160.5,-19 160.5,0 229.5,0 229.5,-19"/>
<text text-anchor="middle" x="195" y="-7" font-family="Helvetica,sans-Serif" font-size="10.00">type_traits</text>
</a>
</g>
</g>
<!-- Node12&#45;&gt;Node15 -->
<g id="edge14_Node000012_Node000015" class="edge">
<title>Node12&#45;&gt;Node15</title>
<g id="a_edge14_Node000012_Node000015"><a xlink:title=" ">
<path fill="none" stroke="#63b8ff" d="M361.19,-54.98C327.51,-45.97 274.2,-31.7 237.08,-21.76"/>
<polygon fill="#63b8ff" stroke="#63b8ff" points="237.63,-18.29 227.06,-19.08 235.82,-25.05 237.63,-18.29"/>
</a>
</g>
</g>
<!-- Node32&#45;&gt;Node15 -->
<g id="edge18_Node000032_Node000015" class="edge">
<title>Node32&#45;&gt;Node15</title>
<g id="a_edge18_Node000032_Node000015"><a xlink:title=" ">
<path fill="none" stroke="#63b8ff" d="M61.41,-274.9C48.11,-267.19 29.91,-254.69 19,-239 2.18,-214.82 0,-204.96 0,-175.5 0,-175.5 0,-175.5 0,-118.5 0,-50.23 92.6,-24.77 150.17,-15.53"/>
<polygon fill="#63b8ff" stroke="#63b8ff" points="150.77,-18.98 160.14,-14.04 149.73,-12.06 150.77,-18.98"/>
</a>
</g>
</g>
<!-- Node33 -->
<g id="Node000033" class="node">
<title>Node33</title>
<g id="a_Node000033"><a xlink:href="exception__utils_8h.html" target="_top" xlink:title=" ">
<polygon fill="white" stroke="#666666" points="128,-239 28,-239 28,-220 128,-220 128,-239"/>
<text text-anchor="middle" x="78" y="-227" font-family="Helvetica,sans-Serif" font-size="10.00">exception_utils.h</text>
</a>
</g>
</g>
<!-- Node32&#45;&gt;Node33 -->
<g id="edge19_Node000032_Node000033" class="edge">
<title>Node32&#45;&gt;Node33</title>
<g id="a_edge19_Node000032_Node000033"><a xlink:title=" ">
<path fill="none" stroke="#63b8ff" d="M78,-274.75C78,-267.8 78,-257.85 78,-249.13"/>
<polygon fill="#63b8ff" stroke="#63b8ff" points="81.5,-249.09 78,-239.09 74.5,-249.09 81.5,-249.09"/>
</a>
</g>
</g>
<!-- Node32&#45;&gt;Node34 -->
<g id="edge23_Node000032_Node000034" class="edge">
<title>Node32&#45;&gt;Node34</title>
<g id="a_edge23_Node000032_Node000034"><a xlink:title=" ">
<path fill="none" stroke="#63b8ff" d="M97.6,-274.98C117.32,-266.42 147.95,-253.11 170.58,-243.28"/>
<polygon fill="#63b8ff" stroke="#63b8ff" points="172.26,-246.37 180.04,-239.17 169.48,-239.94 172.26,-246.37"/>
</a>
</g>
</g>
<!-- Node33&#45;&gt;Node7 -->
<g id="edge22_Node000033_Node000007" class="edge">
<title>Node33&#45;&gt;Node7</title>
<g id="a_edge22_Node000033_Node000007"><a xlink:title=" ">
<path fill="none" stroke="#63b8ff" d="M110.29,-219.98C144.62,-210.93 199.06,-196.58 236.77,-186.64"/>
<polygon fill="#63b8ff" stroke="#63b8ff" points="237.68,-190.02 246.45,-184.08 235.89,-183.25 237.68,-190.02"/>
</a>
</g>
</g>
<!-- Node33&#45;&gt;Node10 -->
<g id="edge20_Node000033_Node000010" class="edge">
<title>Node33&#45;&gt;Node10</title>
<g id="a_edge20_Node000033_Node000010"><a xlink:title=" ">
<path fill="none" stroke="#63b8ff" d="M83.25,-219.69C91.14,-206.85 106.95,-182.6 124,-165 179.53,-107.65 193.93,-89.33 266,-55 318,-30.23 384.73,-18.73 423.69,-13.8"/>
<polygon fill="#63b8ff" stroke="#63b8ff" points="424.4,-17.25 433.91,-12.58 423.57,-10.29 424.4,-17.25"/>
</a>
</g>
</g>
<!-- Node33&#45;&gt;Node12 -->
<g id="edge21_Node000033_Node000012" class="edge">
<title>Node33&#45;&gt;Node12</title>
<g id="a_edge21_Node000033_Node000012"><a xlink:title=" ">
<path fill="none" stroke="#63b8ff" d="M86.88,-219.99C109.83,-198.45 173.73,-141.28 237,-110 272.54,-92.43 316.16,-80.73 348.23,-73.75"/>
<polygon fill="#63b8ff" stroke="#63b8ff" points="349.15,-77.14 358.21,-71.65 347.71,-70.29 349.15,-77.14"/>
</a>
</g>
</g>
<!-- Node38&#45;&gt;Node7 -->
<g id="edge32_Node000038_Node000007" class="edge">
<title>Node38&#45;&gt;Node7</title>
<g id="a_edge32_Node000038_Node000007"><a xlink:title=" ">
<path fill="none" stroke="#63b8ff" d="M491.99,-221.02C449.49,-211.93 377.49,-196.55 329.12,-186.21"/>
<polygon fill="#63b8ff" stroke="#63b8ff" points="329.68,-182.75 319.17,-184.08 328.22,-189.6 329.68,-182.75"/>
</a>
</g>
</g>
<!-- Node38&#45;&gt;Node10 -->
<g id="edge36_Node000038_Node000010" class="edge">
<title>Node38&#45;&gt;Node10</title>
<g id="a_edge36_Node000038_Node000010"><a xlink:title=" ">
<path fill="none" stroke="#63b8ff" d="M529.06,-219.6C536.11,-188.21 557.98,-83.05 541,-55 529.52,-36.04 507.01,-24.76 488.03,-18.31"/>
<polygon fill="#63b8ff" stroke="#63b8ff" points="488.82,-14.89 478.23,-15.28 486.75,-21.58 488.82,-14.89"/>
</a>
</g>
</g>
<!-- Node38&#45;&gt;Node12 -->
<g id="edge31_Node000038_Node000012" class="edge">
<title>Node38&#45;&gt;Node12</title>
<g id="a_edge31_Node000038_Node000012"><a xlink:title=" ">
<path fill="none" stroke="#63b8ff" d="M519.21,-219.88C503.88,-202.82 468.85,-163.44 441,-129 428.55,-113.61 415.01,-95.56 405.49,-82.65"/>
<polygon fill="#63b8ff" stroke="#63b8ff" points="408.08,-80.26 399.34,-74.27 402.43,-84.4 408.08,-80.26"/>
</a>
</g>
</g>
<!-- Node38&#45;&gt;Node14 -->
<g id="edge35_Node000038_Node000014" class="edge">
<title>Node38&#45;&gt;Node14</title>
<g id="a_edge35_Node000038_Node000014"><a xlink:title=" ">
<path fill="none" stroke="#63b8ff" d="M532.51,-219.89C542.87,-203.15 565.02,-164.76 574,-129 582.62,-94.66 582.37,-53.02 581.27,-29.35"/>
<polygon fill="#63b8ff" stroke="#63b8ff" points="584.76,-29.08 580.7,-19.29 577.78,-29.48 584.76,-29.08"/>
</a>
</g>
</g>
<!-- Node38&#45;&gt;Node37 -->
<g id="edge33_Node000038_Node000037" class="edge">
<title>Node38&#45;&gt;Node37</title>
<g id="a_edge33_Node000038_Node000037"><a xlink:title=" ">
<path fill="none" stroke="#63b8ff" d="M503.54,-219.98C479.42,-211.23 441.63,-197.51 414.4,-187.62"/>
<polygon fill="#63b8ff" stroke="#63b8ff" points="415.48,-184.29 404.88,-184.17 413.09,-190.87 415.48,-184.29"/>
</a>
</g>
</g>
<!-- Node38&#45;&gt;Node18 -->
<g id="edge34_Node000038_Node000018" class="edge">
<title>Node38&#45;&gt;Node18</title>
<g id="a_edge34_Node000038_Node000018"><a xlink:title=" ">
<path fill="none" stroke="#63b8ff" d="M552.87,-219.98C580.34,-210.94 623.88,-196.61 654.09,-186.66"/>
<polygon fill="#63b8ff" stroke="#63b8ff" points="655.37,-189.93 663.78,-183.47 653.18,-183.28 655.37,-189.93"/>
</a>
</g>
</g>
<!-- Node42 -->
<g id="Node000042" class="node">
<title>Node42</title>
<g id="a_Node000042"><a xlink:href="xml_8h.html" target="_top" xlink:title=" ">
<polygon fill="white" stroke="#666666" points="815.5,-239 752.5,-239 752.5,-220 815.5,-220 815.5,-239"/>
<text text-anchor="middle" x="784" y="-227" font-family="Helvetica,sans-Serif" font-size="10.00">util/xml.h</text>
</a>
</g>
</g>
<!-- Node41&#45;&gt;Node42 -->
<g id="edge43_Node000041_Node000042" class="edge">
<title>Node41&#45;&gt;Node42</title>
<g id="a_edge43_Node000041_Node000042"><a xlink:title=" ">
<path fill="none" stroke="#63b8ff" d="M758.51,-439.85C764.55,-431.26 773.18,-417.47 777,-404 792.44,-349.49 788.99,-281.52 786.05,-249.22"/>
<polygon fill="#63b8ff" stroke="#63b8ff" points="789.51,-248.63 785.03,-239.03 782.55,-249.32 789.51,-248.63"/>
</a>
</g>
</g>
<!-- Node42&#45;&gt;Node10 -->
<g id="edge46_Node000042_Node000010" class="edge">
<title>Node42&#45;&gt;Node10</title>
<g id="a_edge46_Node000042_Node000010"><a xlink:title=" ">
<path fill="none" stroke="#63b8ff" d="M777.94,-219.75C757.83,-191.39 690.14,-101.18 612,-55 572.84,-31.85 520.99,-20.2 488.06,-14.75"/>
<polygon fill="#63b8ff" stroke="#63b8ff" points="488.49,-11.28 478.07,-13.19 487.41,-18.19 488.49,-11.28"/>
</a>
</g>
</g>
<!-- Node42&#45;&gt;Node18 -->
<g id="edge47_Node000042_Node000018" class="edge">
<title>Node42&#45;&gt;Node18</title>
<g id="a_edge47_Node000042_Node000018"><a xlink:title=" ">
<path fill="none" stroke="#63b8ff" d="M768.58,-219.98C753.55,-211.69 730.46,-198.94 712.84,-189.22"/>
<polygon fill="#63b8ff" stroke="#63b8ff" points="714.15,-185.94 703.7,-184.17 710.77,-192.07 714.15,-185.94"/>
</a>
</g>
</g>
<!-- Node22 -->
<g id="Node000022" class="node">
<title>Node22</title>
<g id="a_Node000022"><a xlink:title=" ">
<polygon fill="#e0e0e0" stroke="#999999" points="800,-184 768,-184 768,-165 800,-165 800,-184"/>
<text text-anchor="middle" x="784" y="-172" font-family="Helvetica,sans-Serif" font-size="10.00">list</text>
</a>
</g>
</g>
<!-- Node42&#45;&gt;Node22 -->
<g id="edge44_Node000042_Node000022" class="edge">
<title>Node42&#45;&gt;Node22</title>
<g id="a_edge44_Node000042_Node000022"><a xlink:title=" ">
<path fill="none" stroke="#63b8ff" d="M784,-219.75C784,-212.8 784,-202.85 784,-194.13"/>
<polygon fill="#63b8ff" stroke="#63b8ff" points="787.5,-194.09 784,-184.09 780.5,-194.09 787.5,-194.09"/>
</a>
</g>
</g>
<!-- Node43 -->
<g id="Node000043" class="node">
<title>Node43</title>
<g id="a_Node000043"><a xlink:title=" ">
<polygon fill="#e0e0e0" stroke="#999999" points="856,-184 818,-184 818,-165 856,-165 856,-184"/>
<text text-anchor="middle" x="837" y="-172" font-family="Helvetica,sans-Serif" font-size="10.00">map</text>
</a>
</g>
</g>
<!-- Node42&#45;&gt;Node43 -->
<g id="edge45_Node000042_Node000043" class="edge">
<title>Node42&#45;&gt;Node43</title>
<g id="a_edge45_Node000042_Node000043"><a xlink:title=" ">
<path fill="none" stroke="#63b8ff" d="M792.75,-219.75C800.47,-212.03 811.9,-200.6 821.22,-191.28"/>
<polygon fill="#63b8ff" stroke="#63b8ff" points="823.81,-193.64 828.41,-184.09 818.86,-188.69 823.81,-193.64"/>
</a>
</g>
</g>
</g>
</svg>
