<?xml version="1.0" encoding="UTF-8" standalone="no"?>
<!DOCTYPE svg PUBLIC "-//W3C//DTD SVG 1.1//EN"
 "http://www.w3.org/Graphics/SVG/1.1/DTD/svg11.dtd">
<!-- Generated by graphviz version 2.43.0 (0)
 -->
<!-- Title: /home/runner/work/cbmc/cbmc/src/goto&#45;programs/xml_expr.cpp Pages: 1 -->
<svg width="1259pt" height="654pt"
 viewBox="0.00 0.00 1258.76 654.00" xmlns="http://www.w3.org/2000/svg" xmlns:xlink="http://www.w3.org/1999/xlink">
<g id="graph0" class="graph" transform="scale(1 1) rotate(0) translate(4 650)">
<title>/home/runner/work/cbmc/cbmc/src/goto&#45;programs/xml_expr.cpp</title>
<!-- Node1 -->
<g id="Node000001" class="node">
<title>Node1</title>
<g id="a_Node000001"><a xlink:title="Expressions in XML.">
<polygon fill="#999999" stroke="#666666" points="890,-646 752,-646 752,-605 890,-605 890,-646"/>
<text text-anchor="start" x="760" y="-634" font-family="Helvetica,sans-Serif" font-size="10.00">/home/runner/work/cbmc</text>
<text text-anchor="start" x="760" y="-623" font-family="Helvetica,sans-Serif" font-size="10.00">/cbmc/src/goto&#45;programs</text>
<text text-anchor="middle" x="821" y="-612" font-family="Helvetica,sans-Serif" font-size="10.00">/xml_expr.cpp</text>
</a>
</g>
</g>
<!-- Node2 -->
<g id="Node000002" class="node">
<title>Node2</title>
<g id="a_Node000002"><a xlink:href="xml__expr_8h.html" target="_top" xlink:title=" ">
<polygon fill="white" stroke="#666666" points="943.5,-569 872.5,-569 872.5,-550 943.5,-550 943.5,-569"/>
<text text-anchor="middle" x="908" y="-557" font-family="Helvetica,sans-Serif" font-size="10.00">xml_expr.h</text>
</a>
</g>
</g>
<!-- Node1&#45;&gt;Node2 -->
<g id="edge1_Node000001_Node000002" class="edge">
<title>Node1&#45;&gt;Node2</title>
<g id="a_edge1_Node000001_Node000002"><a xlink:title=" ">
<path fill="none" stroke="#63b8ff" d="M847.58,-604.95C860.48,-595.46 875.73,-584.24 887.69,-575.44"/>
<polygon fill="#63b8ff" stroke="#63b8ff" points="890.11,-578.01 896.09,-569.26 885.96,-572.37 890.11,-578.01"/>
</a>
</g>
</g>
<!-- Node3 -->
<g id="Node000003" class="node">
<title>Node3</title>
<g id="a_Node000003"><a xlink:href="xml_8h.html" target="_top" xlink:title=" ">
<polygon fill="white" stroke="#666666" points="1005.5,-459 942.5,-459 942.5,-440 1005.5,-440 1005.5,-459"/>
<text text-anchor="middle" x="974" y="-447" font-family="Helvetica,sans-Serif" font-size="10.00">util/xml.h</text>
</a>
</g>
</g>
<!-- Node1&#45;&gt;Node3 -->
<g id="edge74_Node000001_Node000003" class="edge">
<title>Node1&#45;&gt;Node3</title>
<g id="a_edge74_Node000001_Node000003"><a xlink:title=" ">
<path fill="none" stroke="#63b8ff" d="M890.07,-609.36C912.92,-601.06 936.45,-588.35 952,-569 975.18,-540.14 976.83,-494.58 975.64,-469.18"/>
<polygon fill="#63b8ff" stroke="#63b8ff" points="979.12,-468.8 974.95,-459.06 972.14,-469.28 979.12,-468.8"/>
</a>
</g>
</g>
<!-- Node8 -->
<g id="Node000008" class="node">
<title>Node8</title>
<g id="a_Node000008"><a xlink:href="arith__tools_8h.html" target="_top" xlink:title=" ">
<polygon fill="white" stroke="#666666" points="558,-514 462,-514 462,-495 558,-495 558,-514"/>
<text text-anchor="middle" x="510" y="-502" font-family="Helvetica,sans-Serif" font-size="10.00">util/arith_tools.h</text>
</a>
</g>
</g>
<!-- Node1&#45;&gt;Node8 -->
<g id="edge7_Node000001_Node000008" class="edge">
<title>Node1&#45;&gt;Node8</title>
<g id="a_edge7_Node000001_Node000008"><a xlink:title=" ">
<path fill="none" stroke="#63b8ff" d="M763.32,-604.91C733.53,-594.58 696.67,-581.5 664,-569 620.13,-552.21 569.94,-531.17 539.1,-518.02"/>
<polygon fill="#63b8ff" stroke="#63b8ff" points="540.38,-514.76 529.8,-514.05 537.62,-521.2 540.38,-514.76"/>
</a>
</g>
</g>
<!-- Node9 -->
<g id="Node000009" class="node">
<title>Node9</title>
<g id="a_Node000009"><a xlink:href="src_2util_2invariant_8h.html" target="_top" xlink:title=" ">
<polygon fill="white" stroke="#666666" points="154.5,-74 85.5,-74 85.5,-55 154.5,-55 154.5,-74"/>
<text text-anchor="middle" x="120" y="-62" font-family="Helvetica,sans-Serif" font-size="10.00">invariant.h</text>
</a>
</g>
</g>
<!-- Node1&#45;&gt;Node9 -->
<g id="edge69_Node000001_Node000009" class="edge">
<title>Node1&#45;&gt;Node9</title>
<g id="a_edge69_Node000001_Node000009"><a xlink:title=" ">
<path fill="none" stroke="#63b8ff" d="M751.71,-621.71C553.78,-612.83 0,-581.2 0,-505.5 0,-505.5 0,-505.5 0,-173.5 0,-126.36 51.8,-94.54 87.33,-78.26"/>
<polygon fill="#63b8ff" stroke="#63b8ff" points="89.11,-81.31 96.86,-74.09 86.3,-74.89 89.11,-81.31"/>
</a>
</g>
</g>
<!-- Node47 -->
<g id="Node000047" class="node">
<title>Node47</title>
<g id="a_Node000047"><a xlink:href="c__types_8h.html" target="_top" xlink:title=" ">
<polygon fill="white" stroke="#666666" points="771,-569 689,-569 689,-550 771,-550 771,-569"/>
<text text-anchor="middle" x="730" y="-557" font-family="Helvetica,sans-Serif" font-size="10.00">util/c_types.h</text>
</a>
</g>
</g>
<!-- Node1&#45;&gt;Node47 -->
<g id="edge51_Node000001_Node000047" class="edge">
<title>Node1&#45;&gt;Node47</title>
<g id="a_edge51_Node000001_Node000047"><a xlink:title=" ">
<path fill="none" stroke="#63b8ff" d="M793.2,-604.95C779.58,-595.37 763.44,-584.02 750.88,-575.19"/>
<polygon fill="#63b8ff" stroke="#63b8ff" points="752.65,-572.15 742.46,-569.26 748.62,-577.88 752.65,-572.15"/>
</a>
</g>
</g>
<!-- Node48 -->
<g id="Node000048" class="node">
<title>Node48</title>
<g id="a_Node000048"><a xlink:href="pointer__expr_8h.html" target="_top" xlink:title="API to expression classes for Pointers.">
<polygon fill="white" stroke="#666666" points="698,-514 612,-514 612,-495 698,-495 698,-514"/>
<text text-anchor="middle" x="655" y="-502" font-family="Helvetica,sans-Serif" font-size="10.00">pointer_expr.h</text>
</a>
</g>
</g>
<!-- Node1&#45;&gt;Node48 -->
<g id="edge73_Node000001_Node000048" class="edge">
<title>Node1&#45;&gt;Node48</title>
<g id="a_edge73_Node000001_Node000048"><a xlink:title=" ">
<path fill="none" stroke="#63b8ff" d="M751.73,-609.62C726.5,-601.26 699.44,-588.44 680,-569 667.84,-556.84 661.43,-538.05 658.16,-524.06"/>
<polygon fill="#63b8ff" stroke="#63b8ff" points="661.56,-523.2 656.16,-514.09 654.7,-524.58 661.56,-523.2"/>
</a>
</g>
</g>
<!-- Node50 -->
<g id="Node000050" class="node">
<title>Node50</title>
<g id="a_Node000050"><a xlink:href="config_8h.html" target="_top" xlink:title=" ">
<polygon fill="white" stroke="#666666" points="915,-459 841,-459 841,-440 915,-440 915,-459"/>
<text text-anchor="middle" x="878" y="-447" font-family="Helvetica,sans-Serif" font-size="10.00">util/config.h</text>
</a>
</g>
</g>
<!-- Node1&#45;&gt;Node50 -->
<g id="edge57_Node000001_Node000050" class="edge">
<title>Node1&#45;&gt;Node50</title>
<g id="a_edge57_Node000001_Node000050"><a xlink:title=" ">
<path fill="none" stroke="#63b8ff" d="M827.43,-604.88C838.52,-571.02 861.1,-502.09 871.94,-469.01"/>
<polygon fill="#63b8ff" stroke="#63b8ff" points="875.34,-469.87 875.13,-459.27 868.69,-467.69 875.34,-469.87"/>
</a>
</g>
</g>
<!-- Node51 -->
<g id="Node000051" class="node">
<title>Node51</title>
<g id="a_Node000051"><a xlink:href="ieee__float_8h.html" target="_top" xlink:title=" ">
<polygon fill="white" stroke="#666666" points="1222,-404 1148,-404 1148,-385 1222,-385 1222,-404"/>
<text text-anchor="middle" x="1185" y="-392" font-family="Helvetica,sans-Serif" font-size="10.00">ieee_float.h</text>
</a>
</g>
</g>
<!-- Node1&#45;&gt;Node51 -->
<g id="edge68_Node000001_Node000051" class="edge">
<title>Node1&#45;&gt;Node51</title>
<g id="a_edge68_Node000001_Node000051"><a xlink:title=" ">
<path fill="none" stroke="#63b8ff" d="M890.35,-610.15C924.01,-601.35 964.15,-588.04 997,-569 1072.48,-525.24 1142.82,-446.47 1171.47,-412.2"/>
<polygon fill="#63b8ff" stroke="#63b8ff" points="1174.46,-414.07 1178.12,-404.13 1169.06,-409.62 1174.46,-414.07"/>
</a>
</g>
</g>
<!-- Node53 -->
<g id="Node000053" class="node">
<title>Node53</title>
<g id="a_Node000053"><a xlink:href="fixedbv_8h.html" target="_top" xlink:title=" ">
<polygon fill="white" stroke="#666666" points="1129.5,-404 1050.5,-404 1050.5,-385 1129.5,-385 1129.5,-404"/>
<text text-anchor="middle" x="1090" y="-392" font-family="Helvetica,sans-Serif" font-size="10.00">util/fixedbv.h</text>
</a>
</g>
</g>
<!-- Node1&#45;&gt;Node53 -->
<g id="edge65_Node000001_Node000053" class="edge">
<title>Node1&#45;&gt;Node53</title>
<g id="a_edge65_Node000001_Node000053"><a xlink:title=" ">
<path fill="none" stroke="#63b8ff" d="M890.21,-608.91C917.63,-600.34 948.22,-587.56 972,-569 1027.69,-525.52 1066.72,-448.35 1082.38,-413.48"/>
<polygon fill="#63b8ff" stroke="#63b8ff" points="1085.68,-414.67 1086.48,-404.1 1079.26,-411.86 1085.68,-414.67"/>
</a>
</g>
</g>
<!-- Node54 -->
<g id="Node000054" class="node">
<title>Node54</title>
<g id="a_Node000054"><a xlink:href="namespace_8h.html" target="_top" xlink:title=" ">
<polygon fill="white" stroke="#666666" points="729.5,-184 628.5,-184 628.5,-165 729.5,-165 729.5,-184"/>
<text text-anchor="middle" x="679" y="-172" font-family="Helvetica,sans-Serif" font-size="10.00">util/namespace.h</text>
</a>
</g>
</g>
<!-- Node1&#45;&gt;Node54 -->
<g id="edge70_Node000001_Node000054" class="edge">
<title>Node1&#45;&gt;Node54</title>
<g id="a_edge70_Node000001_Node000054"><a xlink:title=" ">
<path fill="none" stroke="#63b8ff" d="M815.91,-604.86C810.28,-581.39 802,-540.86 802,-505.5 802,-505.5 802,-505.5 802,-283.5 802,-235.63 748.75,-204 712.32,-187.96"/>
<polygon fill="#63b8ff" stroke="#63b8ff" points="713.58,-184.69 703.01,-184.03 710.86,-191.14 713.58,-184.69"/>
</a>
</g>
</g>
<!-- Node2&#45;&gt;Node3 -->
<g id="edge2_Node000002_Node000003" class="edge">
<title>Node2&#45;&gt;Node3</title>
<g id="a_edge2_Node000002_Node000003"><a xlink:title=" ">
<path fill="none" stroke="#63b8ff" d="M913.4,-549.66C924.33,-531.77 949.25,-491 963.49,-467.69"/>
<polygon fill="#63b8ff" stroke="#63b8ff" points="966.48,-469.52 968.71,-459.16 960.51,-465.87 966.48,-469.52"/>
</a>
</g>
</g>
<!-- Node4 -->
<g id="Node000004" class="node">
<title>Node4</title>
<g id="a_Node000004"><a xlink:title=" ">
<polygon fill="#e0e0e0" stroke="#999999" points="938,-404 906,-404 906,-385 938,-385 938,-404"/>
<text text-anchor="middle" x="922" y="-392" font-family="Helvetica,sans-Serif" font-size="10.00">list</text>
</a>
</g>
</g>
<!-- Node3&#45;&gt;Node4 -->
<g id="edge3_Node000003_Node000004" class="edge">
<title>Node3&#45;&gt;Node4</title>
<g id="a_edge3_Node000003_Node000004"><a xlink:title=" ">
<path fill="none" stroke="#63b8ff" d="M965.41,-439.75C957.84,-432.03 946.62,-420.6 937.49,-411.28"/>
<polygon fill="#63b8ff" stroke="#63b8ff" points="939.93,-408.78 930.43,-404.09 934.93,-413.68 939.93,-408.78"/>
</a>
</g>
</g>
<!-- Node5 -->
<g id="Node000005" class="node">
<title>Node5</title>
<g id="a_Node000005"><a xlink:title=" ">
<polygon fill="#e0e0e0" stroke="#999999" points="994,-404 956,-404 956,-385 994,-385 994,-404"/>
<text text-anchor="middle" x="975" y="-392" font-family="Helvetica,sans-Serif" font-size="10.00">map</text>
</a>
</g>
</g>
<!-- Node3&#45;&gt;Node5 -->
<g id="edge4_Node000003_Node000005" class="edge">
<title>Node3&#45;&gt;Node5</title>
<g id="a_edge4_Node000003_Node000005"><a xlink:title=" ">
<path fill="none" stroke="#63b8ff" d="M974.17,-439.75C974.3,-432.8 974.48,-422.85 974.65,-414.13"/>
<polygon fill="#63b8ff" stroke="#63b8ff" points="978.15,-414.15 974.84,-404.09 971.15,-414.02 978.15,-414.15"/>
</a>
</g>
</g>
<!-- Node6 -->
<g id="Node000006" class="node">
<title>Node6</title>
<g id="a_Node000006"><a xlink:title=" ">
<polygon fill="#e0e0e0" stroke="#999999" points="836,-19 792,-19 792,0 836,0 836,-19"/>
<text text-anchor="middle" x="814" y="-7" font-family="Helvetica,sans-Serif" font-size="10.00">string</text>
</a>
</g>
</g>
<!-- Node3&#45;&gt;Node6 -->
<g id="edge5_Node000003_Node000006" class="edge">
<title>Node3&#45;&gt;Node6</title>
<g id="a_edge5_Node000003_Node000006"><a xlink:title=" ">
<path fill="none" stroke="#63b8ff" d="M1005.67,-447.09C1066.82,-443.73 1198.06,-433.23 1231,-404 1253.03,-384.45 1250,-369.96 1250,-340.5 1250,-340.5 1250,-340.5 1250,-118.5 1250,-35.36 947.51,-15.79 846.44,-11.57"/>
<polygon fill="#63b8ff" stroke="#63b8ff" points="846.35,-8.07 836.22,-11.17 846.08,-15.06 846.35,-8.07"/>
</a>
</g>
</g>
<!-- Node7 -->
<g id="Node000007" class="node">
<title>Node7</title>
<g id="a_Node000007"><a xlink:title=" ">
<polygon fill="#e0e0e0" stroke="#999999" points="1142,-294 1094,-294 1094,-275 1142,-275 1142,-294"/>
<text text-anchor="middle" x="1118" y="-282" font-family="Helvetica,sans-Serif" font-size="10.00">iosfwd</text>
</a>
</g>
</g>
<!-- Node3&#45;&gt;Node7 -->
<g id="edge6_Node000003_Node000007" class="edge">
<title>Node3&#45;&gt;Node7</title>
<g id="a_edge6_Node000003_Node000007"><a xlink:title=" ">
<path fill="none" stroke="#63b8ff" d="M979.62,-439.99C997.06,-413.62 1049.36,-334.71 1054,-330 1065.7,-318.14 1080.95,-307.39 1093.63,-299.43"/>
<polygon fill="#63b8ff" stroke="#63b8ff" points="1095.59,-302.34 1102.32,-294.16 1091.95,-296.36 1095.59,-302.34"/>
</a>
</g>
</g>
<!-- Node8&#45;&gt;Node9 -->
<g id="edge8_Node000008_Node000009" class="edge">
<title>Node8&#45;&gt;Node9</title>
<g id="a_edge8_Node000008_Node000009"><a xlink:title=" ">
<path fill="none" stroke="#63b8ff" d="M461.71,-502.62C341.41,-499.13 38,-481.77 38,-395.5 38,-395.5 38,-395.5 38,-173.5 38,-133.45 74.21,-98.94 98.5,-80.29"/>
<polygon fill="#63b8ff" stroke="#63b8ff" points="100.85,-82.91 106.83,-74.16 96.7,-77.27 100.85,-82.91"/>
</a>
</g>
</g>
<!-- Node13 -->
<g id="Node000013" class="node">
<title>Node13</title>
<g id="a_Node000013"><a xlink:href="mp__arith_8h.html" target="_top" xlink:title=" ">
<polygon fill="white" stroke="#666666" points="996.5,-349 927.5,-349 927.5,-330 996.5,-330 996.5,-349"/>
<text text-anchor="middle" x="962" y="-337" font-family="Helvetica,sans-Serif" font-size="10.00">mp_arith.h</text>
</a>
</g>
</g>
<!-- Node8&#45;&gt;Node13 -->
<g id="edge13_Node000008_Node000013" class="edge">
<title>Node8&#45;&gt;Node13</title>
<g id="a_edge13_Node000008_Node000013"><a xlink:title=" ">
<path fill="none" stroke="#63b8ff" d="M518.64,-494.74C532.61,-481.07 561.59,-454.7 591,-440 701.16,-384.95 845.44,-357.54 917.3,-346.55"/>
<polygon fill="#63b8ff" stroke="#63b8ff" points="917.99,-349.98 927.36,-345.04 916.95,-343.06 917.99,-349.98"/>
</a>
</g>
</g>
<!-- Node15 -->
<g id="Node000015" class="node">
<title>Node15</title>
<g id="a_Node000015"><a xlink:href="std__expr_8h.html" target="_top" xlink:title="API to expression classes.">
<polygon fill="white" stroke="#666666" points="543.5,-459 476.5,-459 476.5,-440 543.5,-440 543.5,-459"/>
<text text-anchor="middle" x="510" y="-447" font-family="Helvetica,sans-Serif" font-size="10.00">std_expr.h</text>
</a>
</g>
</g>
<!-- Node8&#45;&gt;Node15 -->
<g id="edge17_Node000008_Node000015" class="edge">
<title>Node8&#45;&gt;Node15</title>
<g id="a_edge17_Node000008_Node000015"><a xlink:title=" ">
<path fill="none" stroke="#63b8ff" d="M510,-494.75C510,-487.8 510,-477.85 510,-469.13"/>
<polygon fill="#63b8ff" stroke="#63b8ff" points="513.5,-469.09 510,-459.09 506.5,-469.09 513.5,-469.09"/>
</a>
</g>
</g>
<!-- Node46 -->
<g id="Node000046" class="node">
<title>Node46</title>
<g id="a_Node000046"><a xlink:title=" ">
<polygon fill="#e0e0e0" stroke="#999999" points="458,-459 414,-459 414,-440 458,-440 458,-459"/>
<text text-anchor="middle" x="436" y="-447" font-family="Helvetica,sans-Serif" font-size="10.00">limits</text>
</a>
</g>
</g>
<!-- Node8&#45;&gt;Node46 -->
<g id="edge50_Node000008_Node000046" class="edge">
<title>Node8&#45;&gt;Node46</title>
<g id="a_edge50_Node000008_Node000046"><a xlink:title=" ">
<path fill="none" stroke="#63b8ff" d="M498.11,-494.98C486.85,-486.92 469.71,-474.65 456.29,-465.03"/>
<polygon fill="#63b8ff" stroke="#63b8ff" points="458.27,-462.15 448.11,-459.17 454.2,-467.84 458.27,-462.15"/>
</a>
</g>
</g>
<!-- Node9&#45;&gt;Node6 -->
<g id="edge11_Node000009_Node000006" class="edge">
<title>Node9&#45;&gt;Node6</title>
<g id="a_edge11_Node000009_Node000006"><a xlink:title=" ">
<path fill="none" stroke="#63b8ff" d="M154.89,-60.84C274.44,-51.71 666.48,-21.77 781.81,-12.96"/>
<polygon fill="#63b8ff" stroke="#63b8ff" points="782.08,-16.45 791.79,-12.2 781.55,-9.47 782.08,-16.45"/>
</a>
</g>
</g>
<!-- Node10 -->
<g id="Node000010" class="node">
<title>Node10</title>
<g id="a_Node000010"><a xlink:title=" ">
<polygon fill="#e0e0e0" stroke="#999999" points="144.5,-19 95.5,-19 95.5,0 144.5,0 144.5,-19"/>
<text text-anchor="middle" x="120" y="-7" font-family="Helvetica,sans-Serif" font-size="10.00">cstdlib</text>
</a>
</g>
</g>
<!-- Node9&#45;&gt;Node10 -->
<g id="edge9_Node000009_Node000010" class="edge">
<title>Node9&#45;&gt;Node10</title>
<g id="a_edge9_Node000009_Node000010"><a xlink:title=" ">
<path fill="none" stroke="#63b8ff" d="M120,-54.75C120,-47.8 120,-37.85 120,-29.13"/>
<polygon fill="#63b8ff" stroke="#63b8ff" points="123.5,-29.09 120,-19.09 116.5,-29.09 123.5,-29.09"/>
</a>
</g>
</g>
<!-- Node11 -->
<g id="Node000011" class="node">
<title>Node11</title>
<g id="a_Node000011"><a xlink:title=" ">
<polygon fill="#e0e0e0" stroke="#999999" points="77,-19 21,-19 21,0 77,0 77,-19"/>
<text text-anchor="middle" x="49" y="-7" font-family="Helvetica,sans-Serif" font-size="10.00">sstream</text>
</a>
</g>
</g>
<!-- Node9&#45;&gt;Node11 -->
<g id="edge10_Node000009_Node000011" class="edge">
<title>Node9&#45;&gt;Node11</title>
<g id="a_edge10_Node000009_Node000011"><a xlink:title=" ">
<path fill="none" stroke="#63b8ff" d="M108.59,-54.98C97.89,-47 81.66,-34.88 68.84,-25.31"/>
<polygon fill="#63b8ff" stroke="#63b8ff" points="70.72,-22.35 60.61,-19.17 66.53,-27.96 70.72,-22.35"/>
</a>
</g>
</g>
<!-- Node12 -->
<g id="Node000012" class="node">
<title>Node12</title>
<g id="a_Node000012"><a xlink:title=" ">
<polygon fill="#e0e0e0" stroke="#999999" points="231.5,-19 162.5,-19 162.5,0 231.5,0 231.5,-19"/>
<text text-anchor="middle" x="197" y="-7" font-family="Helvetica,sans-Serif" font-size="10.00">type_traits</text>
</a>
</g>
</g>
<!-- Node9&#45;&gt;Node12 -->
<g id="edge12_Node000009_Node000012" class="edge">
<title>Node9&#45;&gt;Node12</title>
<g id="a_edge12_Node000009_Node000012"><a xlink:title=" ">
<path fill="none" stroke="#63b8ff" d="M132.37,-54.98C144.09,-46.92 161.92,-34.65 175.89,-25.03"/>
<polygon fill="#63b8ff" stroke="#63b8ff" points="178.15,-27.72 184.4,-19.17 174.18,-21.96 178.15,-27.72"/>
</a>
</g>
</g>
<!-- Node13&#45;&gt;Node6 -->
<g id="edge15_Node000013_Node000006" class="edge">
<title>Node13&#45;&gt;Node6</title>
<g id="a_edge15_Node000013_Node000006"><a xlink:title=" ">
<path fill="none" stroke="#63b8ff" d="M991.02,-329.85C1009.5,-322.94 1032.59,-311.48 1047,-294 1065.74,-271.27 1066,-259.96 1066,-230.5 1066,-230.5 1066,-230.5 1066,-118.5 1066,-24.07 914.66,-11.14 846.55,-10.1"/>
<polygon fill="#63b8ff" stroke="#63b8ff" points="846.39,-6.6 836.36,-10.02 846.34,-13.6 846.39,-6.6"/>
</a>
</g>
</g>
<!-- Node13&#45;&gt;Node7 -->
<g id="edge14_Node000013_Node000007" class="edge">
<title>Node13&#45;&gt;Node7</title>
<g id="a_edge14_Node000013_Node000007"><a xlink:title=" ">
<path fill="none" stroke="#63b8ff" d="M987.06,-329.98C1013.34,-321.06 1054.78,-306.98 1083.99,-297.05"/>
<polygon fill="#63b8ff" stroke="#63b8ff" points="1085.43,-300.26 1093.77,-293.73 1083.17,-293.64 1085.43,-300.26"/>
</a>
</g>
</g>
<!-- Node14 -->
<g id="Node000014" class="node">
<title>Node14</title>
<g id="a_Node000014"><a xlink:title=" ">
<polygon fill="#e0e0e0" stroke="#999999" points="1038,-294 944,-294 944,-275 1038,-275 1038,-294"/>
<text text-anchor="middle" x="991" y="-282" font-family="Helvetica,sans-Serif" font-size="10.00">big&#45;int/bigint.hh</text>
</a>
</g>
</g>
<!-- Node13&#45;&gt;Node14 -->
<g id="edge16_Node000013_Node000014" class="edge">
<title>Node13&#45;&gt;Node14</title>
<g id="a_edge16_Node000013_Node000014"><a xlink:title=" ">
<path fill="none" stroke="#63b8ff" d="M966.79,-329.75C970.76,-322.49 976.53,-311.95 981.43,-302.98"/>
<polygon fill="#63b8ff" stroke="#63b8ff" points="984.57,-304.54 986.3,-294.09 978.43,-301.18 984.57,-304.54"/>
</a>
</g>
</g>
<!-- Node15&#45;&gt;Node9 -->
<g id="edge42_Node000015_Node000009" class="edge">
<title>Node15&#45;&gt;Node9</title>
<g id="a_edge42_Node000015_Node000009"><a xlink:title=" ">
<path fill="none" stroke="#63b8ff" d="M476.31,-441.02C374.34,-418.26 76,-350.8 76,-340.5 76,-340.5 76,-340.5 76,-173.5 76,-139.42 95.03,-103.46 108.06,-82.83"/>
<polygon fill="#63b8ff" stroke="#63b8ff" points="111.13,-84.53 113.7,-74.25 105.28,-80.68 111.13,-84.53"/>
</a>
</g>
</g>
<!-- Node16 -->
<g id="Node000016" class="node">
<title>Node16</title>
<g id="a_Node000016"><a xlink:href="expr__cast_8h.html" target="_top" xlink:title="Templated functions to cast to specific exprt&#45;derived classes.">
<polygon fill="white" stroke="#666666" points="340.5,-349 267.5,-349 267.5,-330 340.5,-330 340.5,-349"/>
<text text-anchor="middle" x="304" y="-337" font-family="Helvetica,sans-Serif" font-size="10.00">expr_cast.h</text>
</a>
</g>
</g>
<!-- Node15&#45;&gt;Node16 -->
<g id="edge18_Node000015_Node000016" class="edge">
<title>Node15&#45;&gt;Node16</title>
<g id="a_edge18_Node000015_Node000016"><a xlink:title=" ">
<path fill="none" stroke="#63b8ff" d="M493.49,-439.84C457.54,-421 371.99,-376.14 329.23,-353.73"/>
<polygon fill="#63b8ff" stroke="#63b8ff" points="330.78,-350.59 320.3,-349.05 327.53,-356.79 330.78,-350.59"/>
</a>
</g>
</g>
<!-- Node45 -->
<g id="Node000045" class="node">
<title>Node45</title>
<g id="a_Node000045"><a xlink:href="std__types_8h.html" target="_top" xlink:title="Pre&#45;defined types.">
<polygon fill="white" stroke="#666666" points="581.5,-404 508.5,-404 508.5,-385 581.5,-385 581.5,-404"/>
<text text-anchor="middle" x="545" y="-392" font-family="Helvetica,sans-Serif" font-size="10.00">std_types.h</text>
</a>
</g>
</g>
<!-- Node15&#45;&gt;Node45 -->
<g id="edge43_Node000015_Node000045" class="edge">
<title>Node15&#45;&gt;Node45</title>
<g id="a_edge43_Node000015_Node000045"><a xlink:title=" ">
<path fill="none" stroke="#63b8ff" d="M515.78,-439.75C520.62,-432.42 527.68,-421.73 533.64,-412.7"/>
<polygon fill="#63b8ff" stroke="#63b8ff" points="536.74,-414.36 539.33,-404.09 530.9,-410.5 536.74,-414.36"/>
</a>
</g>
</g>
<!-- Node16&#45;&gt;Node9 -->
<g id="edge22_Node000016_Node000009" class="edge">
<title>Node16&#45;&gt;Node9</title>
<g id="a_edge22_Node000016_Node000009"><a xlink:title=" ">
<path fill="none" stroke="#63b8ff" d="M267.24,-335.38C237.43,-330.93 196.32,-320.15 171,-294 150.51,-272.84 152,-259.96 152,-230.5 152,-230.5 152,-230.5 152,-173.5 152,-140.71 138.27,-104.54 128.8,-83.49"/>
<polygon fill="#63b8ff" stroke="#63b8ff" points="131.86,-81.77 124.45,-74.2 125.52,-84.74 131.86,-81.77"/>
</a>
</g>
</g>
<!-- Node16&#45;&gt;Node12 -->
<g id="edge20_Node000016_Node000012" class="edge">
<title>Node16&#45;&gt;Node12</title>
<g id="a_edge20_Node000016_Node000012"><a xlink:title=" ">
<path fill="none" stroke="#63b8ff" d="M296.28,-329.72C285.31,-317.33 264.49,-294.09 246,-275 230.03,-258.52 220.89,-258.62 209,-239 193.73,-213.81 190,-204.96 190,-175.5 190,-175.5 190,-175.5 190,-118.5 190,-87.12 192.98,-50.73 195.05,-29.21"/>
<polygon fill="#63b8ff" stroke="#63b8ff" points="198.54,-29.47 196.06,-19.17 191.58,-28.77 198.54,-29.47"/>
</a>
</g>
</g>
<!-- Node17 -->
<g id="Node000017" class="node">
<title>Node17</title>
<g id="a_Node000017"><a xlink:title=" ">
<polygon fill="#e0e0e0" stroke="#999999" points="237.5,-294 180.5,-294 180.5,-275 237.5,-275 237.5,-294"/>
<text text-anchor="middle" x="209" y="-282" font-family="Helvetica,sans-Serif" font-size="10.00">typeinfo</text>
</a>
</g>
</g>
<!-- Node16&#45;&gt;Node17 -->
<g id="edge19_Node000016_Node000017" class="edge">
<title>Node16&#45;&gt;Node17</title>
<g id="a_edge19_Node000016_Node000017"><a xlink:title=" ">
<path fill="none" stroke="#63b8ff" d="M288.74,-329.98C273.87,-321.69 251.02,-308.94 233.58,-299.22"/>
<polygon fill="#63b8ff" stroke="#63b8ff" points="234.98,-295.99 224.54,-294.17 231.57,-302.1 234.98,-295.99"/>
</a>
</g>
</g>
<!-- Node18 -->
<g id="Node000018" class="node">
<title>Node18</title>
<g id="a_Node000018"><a xlink:title=" ">
<polygon fill="#e0e0e0" stroke="#999999" points="283.5,-239 218.5,-239 218.5,-220 283.5,-220 283.5,-239"/>
<text text-anchor="middle" x="251" y="-227" font-family="Helvetica,sans-Serif" font-size="10.00">functional</text>
</a>
</g>
</g>
<!-- Node16&#45;&gt;Node18 -->
<g id="edge21_Node000016_Node000018" class="edge">
<title>Node16&#45;&gt;Node18</title>
<g id="a_edge21_Node000016_Node000018"><a xlink:title=" ">
<path fill="none" stroke="#63b8ff" d="M301.32,-329.62C297.39,-317.1 289.49,-293.71 280,-275 275.15,-265.44 268.73,-255.39 263.16,-247.26"/>
<polygon fill="#63b8ff" stroke="#63b8ff" points="265.98,-245.19 257.36,-239.03 260.26,-249.22 265.98,-245.19"/>
</a>
</g>
</g>
<!-- Node19 -->
<g id="Node000019" class="node">
<title>Node19</title>
<g id="a_Node000019"><a xlink:href="expr_8h.html" target="_top" xlink:title=" ">
<polygon fill="white" stroke="#666666" points="486.5,-294 439.5,-294 439.5,-275 486.5,-275 486.5,-294"/>
<text text-anchor="middle" x="463" y="-282" font-family="Helvetica,sans-Serif" font-size="10.00">expr.h</text>
</a>
</g>
</g>
<!-- Node16&#45;&gt;Node19 -->
<g id="edge23_Node000016_Node000019" class="edge">
<title>Node16&#45;&gt;Node19</title>
<g id="a_edge23_Node000016_Node000019"><a xlink:title=" ">
<path fill="none" stroke="#63b8ff" d="M329.55,-329.98C356.76,-320.91 399.93,-306.52 429.77,-296.58"/>
<polygon fill="#63b8ff" stroke="#63b8ff" points="430.95,-299.87 439.33,-293.39 428.74,-293.23 430.95,-299.87"/>
</a>
</g>
</g>
<!-- Node19&#45;&gt;Node18 -->
<g id="edge41_Node000019_Node000018" class="edge">
<title>Node19&#45;&gt;Node18</title>
<g id="a_edge41_Node000019_Node000018"><a xlink:title=" ">
<path fill="none" stroke="#63b8ff" d="M439.09,-277.52C403.83,-268.71 337.34,-252.08 293.6,-241.15"/>
<polygon fill="#63b8ff" stroke="#63b8ff" points="294.37,-237.74 283.82,-238.71 292.68,-244.53 294.37,-237.74"/>
</a>
</g>
</g>
<!-- Node20 -->
<g id="Node000020" class="node">
<title>Node20</title>
<g id="a_Node000020"><a xlink:href="as__const_8h.html" target="_top" xlink:title=" ">
<polygon fill="white" stroke="#666666" points="556,-239 488,-239 488,-220 556,-220 556,-239"/>
<text text-anchor="middle" x="522" y="-227" font-family="Helvetica,sans-Serif" font-size="10.00">as_const.h</text>
</a>
</g>
</g>
<!-- Node19&#45;&gt;Node20 -->
<g id="edge24_Node000019_Node000020" class="edge">
<title>Node19&#45;&gt;Node20</title>
<g id="a_edge24_Node000019_Node000020"><a xlink:title=" ">
<path fill="none" stroke="#63b8ff" d="M472.48,-274.98C481.2,-267.15 494.34,-255.34 504.9,-245.86"/>
<polygon fill="#63b8ff" stroke="#63b8ff" points="507.25,-248.46 512.35,-239.17 502.57,-243.25 507.25,-248.46"/>
</a>
</g>
</g>
<!-- Node21 -->
<g id="Node000021" class="node">
<title>Node21</title>
<g id="a_Node000021"><a xlink:href="type_8h.html" target="_top" xlink:title="Defines typet, type_with_subtypet and type_with_subtypest.">
<polygon fill="white" stroke="#666666" points="659.5,-239 612.5,-239 612.5,-220 659.5,-220 659.5,-239"/>
<text text-anchor="middle" x="636" y="-227" font-family="Helvetica,sans-Serif" font-size="10.00">type.h</text>
</a>
</g>
</g>
<!-- Node19&#45;&gt;Node21 -->
<g id="edge25_Node000019_Node000021" class="edge">
<title>Node19&#45;&gt;Node21</title>
<g id="a_edge25_Node000019_Node000021"><a xlink:title=" ">
<path fill="none" stroke="#63b8ff" d="M486.69,-276.24C516.63,-267.07 568.35,-251.22 602.37,-240.8"/>
<polygon fill="#63b8ff" stroke="#63b8ff" points="603.78,-244.03 612.32,-237.76 601.73,-237.34 603.78,-244.03"/>
</a>
</g>
</g>
<!-- Node42 -->
<g id="Node000042" class="node">
<title>Node42</title>
<g id="a_Node000042"><a xlink:href="validation__mode_8h.html" target="_top" xlink:title=" ">
<polygon fill="white" stroke="#666666" points="510.5,-129 403.5,-129 403.5,-110 510.5,-110 510.5,-129"/>
<text text-anchor="middle" x="457" y="-117" font-family="Helvetica,sans-Serif" font-size="10.00">validation_mode.h</text>
</a>
</g>
</g>
<!-- Node19&#45;&gt;Node42 -->
<g id="edge40_Node000019_Node000042" class="edge">
<title>Node19&#45;&gt;Node42</title>
<g id="a_edge40_Node000019_Node000042"><a xlink:title=" ">
<path fill="none" stroke="#63b8ff" d="M439.4,-283.29C408.61,-281.59 355.76,-273.47 331,-239 319.35,-222.79 326.3,-184.56 343,-165 356.75,-148.89 377.08,-138.58 396.78,-132"/>
<polygon fill="#63b8ff" stroke="#63b8ff" points="397.83,-135.33 406.37,-129.05 395.78,-128.64 397.83,-135.33"/>
</a>
</g>
</g>
<!-- Node43 -->
<g id="Node000043" class="node">
<title>Node43</title>
<g id="a_Node000043"><a xlink:href="validate__types_8h.html" target="_top" xlink:title=" ">
<polygon fill="white" stroke="#666666" points="450,-184 352,-184 352,-165 450,-165 450,-184"/>
<text text-anchor="middle" x="401" y="-172" font-family="Helvetica,sans-Serif" font-size="10.00">validate_types.h</text>
</a>
</g>
</g>
<!-- Node19&#45;&gt;Node43 -->
<g id="edge39_Node000019_Node000043" class="edge">
<title>Node19&#45;&gt;Node43</title>
<g id="a_edge39_Node000019_Node000043"><a xlink:title=" ">
<path fill="none" stroke="#63b8ff" d="M486.7,-278.83C523.7,-270.48 588.63,-250.9 565,-220 552.09,-203.11 501.74,-191.14 460.19,-183.89"/>
<polygon fill="#63b8ff" stroke="#63b8ff" points="460.57,-180.41 450.12,-182.2 459.4,-187.31 460.57,-180.41"/>
</a>
</g>
</g>
<!-- Node44 -->
<g id="Node000044" class="node">
<title>Node44</title>
<g id="a_Node000044"><a xlink:href="validate__expressions_8h.html" target="_top" xlink:title=" ">
<polygon fill="white" stroke="#666666" points="469.5,-239 340.5,-239 340.5,-220 469.5,-220 469.5,-239"/>
<text text-anchor="middle" x="405" y="-227" font-family="Helvetica,sans-Serif" font-size="10.00">validate_expressions.h</text>
</a>
</g>
</g>
<!-- Node19&#45;&gt;Node44 -->
<g id="edge38_Node000019_Node000044" class="edge">
<title>Node19&#45;&gt;Node44</title>
<g id="a_edge38_Node000019_Node000044"><a xlink:title=" ">
<path fill="none" stroke="#63b8ff" d="M453.68,-274.98C445.19,-267.23 432.44,-255.58 422.12,-246.14"/>
<polygon fill="#63b8ff" stroke="#63b8ff" points="424.23,-243.33 414.49,-239.17 419.51,-248.5 424.23,-243.33"/>
</a>
</g>
</g>
<!-- Node22 -->
<g id="Node000022" class="node">
<title>Node22</title>
<g id="a_Node000022"><a xlink:href="source__location_8h.html" target="_top" xlink:title=" ">
<polygon fill="white" stroke="#666666" points="850,-184 748,-184 748,-165 850,-165 850,-184"/>
<text text-anchor="middle" x="799" y="-172" font-family="Helvetica,sans-Serif" font-size="10.00">source_location.h</text>
</a>
</g>
</g>
<!-- Node21&#45;&gt;Node22 -->
<g id="edge26_Node000021_Node000022" class="edge">
<title>Node21&#45;&gt;Node22</title>
<g id="a_edge26_Node000021_Node000022"><a xlink:title=" ">
<path fill="none" stroke="#63b8ff" d="M659.7,-220.79C686.87,-211.96 731.69,-197.38 763.14,-187.16"/>
<polygon fill="#63b8ff" stroke="#63b8ff" points="764.41,-190.43 772.84,-184.01 762.25,-183.77 764.41,-190.43"/>
</a>
</g>
</g>
<!-- Node40 -->
<g id="Node000040" class="node">
<title>Node40</title>
<g id="a_Node000040"><a xlink:href="validate_8h.html" target="_top" xlink:title=" ">
<polygon fill="#fff0f0" stroke="red" points="571.5,-184 506.5,-184 506.5,-165 571.5,-165 571.5,-184"/>
<text text-anchor="middle" x="539" y="-172" font-family="Helvetica,sans-Serif" font-size="10.00">validate.h</text>
</a>
</g>
</g>
<!-- Node21&#45;&gt;Node40 -->
<g id="edge33_Node000021_Node000040" class="edge">
<title>Node21&#45;&gt;Node40</title>
<g id="a_edge33_Node000021_Node000040"><a xlink:title=" ">
<path fill="none" stroke="#63b8ff" d="M620.42,-219.98C605.23,-211.69 581.9,-198.94 564.1,-189.22"/>
<polygon fill="#63b8ff" stroke="#63b8ff" points="565.32,-185.89 554.87,-184.17 561.97,-192.04 565.32,-185.89"/>
</a>
</g>
</g>
<!-- Node21&#45;&gt;Node42 -->
<g id="edge37_Node000021_Node000042" class="edge">
<title>Node21&#45;&gt;Node42</title>
<g id="a_edge37_Node000021_Node000042"><a xlink:title=" ">
<path fill="none" stroke="#63b8ff" d="M612.44,-223.04C577.79,-214.66 515.23,-198.12 497,-184 481.75,-172.18 470.76,-152.79 464.2,-138.54"/>
<polygon fill="#63b8ff" stroke="#63b8ff" points="467.38,-137.07 460.22,-129.26 460.95,-139.83 467.38,-137.07"/>
</a>
</g>
</g>
<!-- Node21&#45;&gt;Node43 -->
<g id="edge36_Node000021_Node000043" class="edge">
<title>Node21&#45;&gt;Node43</title>
<g id="a_edge36_Node000021_Node000043"><a xlink:title=" ">
<path fill="none" stroke="#63b8ff" d="M612.17,-223.13C573.97,-214.51 498.26,-197.43 448.64,-186.24"/>
<polygon fill="#63b8ff" stroke="#63b8ff" points="449.3,-182.81 438.78,-184.02 447.76,-189.63 449.3,-182.81"/>
</a>
</g>
</g>
<!-- Node22&#45;&gt;Node6 -->
<g id="edge32_Node000022_Node000006" class="edge">
<title>Node22&#45;&gt;Node6</title>
<g id="a_edge32_Node000022_Node000006"><a xlink:title=" ">
<path fill="none" stroke="#63b8ff" d="M799.81,-164.74C802.15,-139.31 808.98,-65.08 812.23,-29.69"/>
<polygon fill="#63b8ff" stroke="#63b8ff" points="815.76,-29.59 813.19,-19.31 808.79,-28.94 815.76,-29.59"/>
</a>
</g>
</g>
<!-- Node23 -->
<g id="Node000023" class="node">
<title>Node23</title>
<g id="a_Node000023"><a xlink:href="deprecate_8h.html" target="_top" xlink:title=" ">
<polygon fill="white" stroke="#666666" points="717,-129 643,-129 643,-110 717,-110 717,-129"/>
<text text-anchor="middle" x="680" y="-117" font-family="Helvetica,sans-Serif" font-size="10.00">deprecate.h</text>
</a>
</g>
</g>
<!-- Node22&#45;&gt;Node23 -->
<g id="edge27_Node000022_Node000023" class="edge">
<title>Node22&#45;&gt;Node23</title>
<g id="a_edge27_Node000022_Node000023"><a xlink:title=" ">
<path fill="none" stroke="#63b8ff" d="M779.88,-164.98C760.65,-156.42 730.77,-143.11 708.69,-133.28"/>
<polygon fill="#63b8ff" stroke="#63b8ff" points="710.03,-130.04 699.47,-129.17 707.18,-136.44 710.03,-130.04"/>
</a>
</g>
</g>
<!-- Node24 -->
<g id="Node000024" class="node">
<title>Node24</title>
<g id="a_Node000024"><a xlink:href="irep_8h.html" target="_top" xlink:title=" ">
<polygon fill="#fff0f0" stroke="red" points="786,-129 742,-129 742,-110 786,-110 786,-129"/>
<text text-anchor="middle" x="764" y="-117" font-family="Helvetica,sans-Serif" font-size="10.00">irep.h</text>
</a>
</g>
</g>
<!-- Node22&#45;&gt;Node24 -->
<g id="edge28_Node000022_Node000024" class="edge">
<title>Node22&#45;&gt;Node24</title>
<g id="a_edge28_Node000022_Node000024"><a xlink:title=" ">
<path fill="none" stroke="#63b8ff" d="M793.22,-164.75C788.38,-157.42 781.32,-146.73 775.36,-137.7"/>
<polygon fill="#63b8ff" stroke="#63b8ff" points="778.1,-135.5 769.67,-129.09 772.26,-139.36 778.1,-135.5"/>
</a>
</g>
</g>
<!-- Node39 -->
<g id="Node000039" class="node">
<title>Node39</title>
<g id="a_Node000039"><a xlink:title=" ">
<polygon fill="#e0e0e0" stroke="#999999" points="914,-129 858,-129 858,-110 914,-110 914,-129"/>
<text text-anchor="middle" x="886" y="-117" font-family="Helvetica,sans-Serif" font-size="10.00">optional</text>
</a>
</g>
</g>
<!-- Node22&#45;&gt;Node39 -->
<g id="edge31_Node000022_Node000039" class="edge">
<title>Node22&#45;&gt;Node39</title>
<g id="a_edge31_Node000022_Node000039"><a xlink:title=" ">
<path fill="none" stroke="#63b8ff" d="M812.98,-164.98C826.47,-156.77 847.13,-144.18 863.04,-134.49"/>
<polygon fill="#63b8ff" stroke="#63b8ff" points="865.05,-137.36 871.77,-129.17 861.41,-131.38 865.05,-137.36"/>
</a>
</g>
</g>
<!-- Node24&#45;&gt;Node6 -->
<g id="edge29_Node000024_Node000006" class="edge">
<title>Node24&#45;&gt;Node6</title>
<g id="a_edge29_Node000024_Node000006"><a xlink:title=" ">
<path fill="none" stroke="#63b8ff" d="M768.09,-109.66C776.3,-91.93 794.91,-51.73 805.75,-28.32"/>
<polygon fill="#63b8ff" stroke="#63b8ff" points="808.97,-29.7 809.99,-19.16 802.61,-26.76 808.97,-29.7"/>
</a>
</g>
</g>
<!-- Node24&#45;&gt;Node9 -->
<g id="edge30_Node000024_Node000009" class="edge">
<title>Node24&#45;&gt;Node9</title>
<g id="a_edge30_Node000024_Node000009"><a xlink:title=" ">
<path fill="none" stroke="#63b8ff" d="M742,-113C736.78,-111.86 731.22,-110.77 726,-110 517.61,-79.21 265.61,-69.38 164.82,-66.54"/>
<polygon fill="#63b8ff" stroke="#63b8ff" points="164.79,-63.04 154.7,-66.27 164.6,-70.04 164.79,-63.04"/>
</a>
</g>
</g>
<!-- Node40&#45;&gt;Node12 -->
<g id="edge34_Node000040_Node000012" class="edge">
<title>Node40&#45;&gt;Node12</title>
<g id="a_edge34_Node000040_Node000012"><a xlink:title=" ">
<path fill="none" stroke="#63b8ff" d="M538.72,-164.82C537.81,-151.24 534.08,-125 519,-110 442.94,-34.35 310.67,-16.02 241.71,-11.71"/>
<polygon fill="#63b8ff" stroke="#63b8ff" points="241.79,-8.21 231.61,-11.16 241.4,-15.2 241.79,-8.21"/>
</a>
</g>
</g>
<!-- Node40&#45;&gt;Node42 -->
<g id="edge35_Node000040_Node000042" class="edge">
<title>Node40&#45;&gt;Node42</title>
<g id="a_edge35_Node000040_Node000042"><a xlink:title=" ">
<path fill="none" stroke="#63b8ff" d="M525.83,-164.98C513.23,-156.84 494,-144.41 479.06,-134.76"/>
<polygon fill="#63b8ff" stroke="#63b8ff" points="480.71,-131.66 470.41,-129.17 476.91,-137.54 480.71,-131.66"/>
</a>
</g>
</g>
<!-- Node45&#45;&gt;Node9 -->
<g id="edge46_Node000045_Node000009" class="edge">
<title>Node45&#45;&gt;Node9</title>
<g id="a_edge46_Node000045_Node000009"><a xlink:title=" ">
<path fill="none" stroke="#63b8ff" d="M508.25,-392.14C404.03,-387.28 114,-366.5 114,-285.5 114,-285.5 114,-285.5 114,-173.5 114,-142.14 116.55,-105.74 118.33,-84.22"/>
<polygon fill="#63b8ff" stroke="#63b8ff" points="121.82,-84.43 119.19,-74.17 114.85,-83.83 121.82,-84.43"/>
</a>
</g>
</g>
<!-- Node45&#45;&gt;Node13 -->
<g id="edge47_Node000045_Node000013" class="edge">
<title>Node45&#45;&gt;Node13</title>
<g id="a_edge47_Node000045_Node000013"><a xlink:title=" ">
<path fill="none" stroke="#63b8ff" d="M581.64,-388.84C658.07,-379.13 834.26,-356.74 917.24,-346.19"/>
<polygon fill="#63b8ff" stroke="#63b8ff" points="917.88,-349.64 927.36,-344.9 917,-342.69 917.88,-349.64"/>
</a>
</g>
</g>
<!-- Node45&#45;&gt;Node16 -->
<g id="edge45_Node000045_Node000016" class="edge">
<title>Node45&#45;&gt;Node16</title>
<g id="a_edge45_Node000045_Node000016"><a xlink:title=" ">
<path fill="none" stroke="#63b8ff" d="M508.4,-385.45C466.16,-376.16 396.63,-360.87 350.58,-350.74"/>
<polygon fill="#63b8ff" stroke="#63b8ff" points="351.07,-347.27 340.55,-348.54 349.57,-354.1 351.07,-347.27"/>
</a>
</g>
</g>
<!-- Node45&#45;&gt;Node19 -->
<g id="edge44_Node000045_Node000019" class="edge">
<title>Node45&#45;&gt;Node19</title>
<g id="a_edge44_Node000045_Node000019"><a xlink:title=" ">
<path fill="none" stroke="#63b8ff" d="M538.29,-384.66C524.65,-366.69 493.48,-325.64 475.82,-302.38"/>
<polygon fill="#63b8ff" stroke="#63b8ff" points="478.41,-300.01 469.57,-294.16 472.83,-304.24 478.41,-300.01"/>
</a>
</g>
</g>
<!-- Node45&#45;&gt;Node40 -->
<g id="edge48_Node000045_Node000040" class="edge">
<title>Node45&#45;&gt;Node40</title>
<g id="a_edge48_Node000045_Node000040"><a xlink:title=" ">
<path fill="none" stroke="#63b8ff" d="M551.77,-384.85C561.36,-372.61 579.46,-349.55 595,-330 631.51,-284.07 702.06,-267.78 668,-220 657.69,-205.53 615.18,-192.74 581.74,-184.63"/>
<polygon fill="#63b8ff" stroke="#63b8ff" points="582.24,-181.15 571.7,-182.27 580.63,-187.97 582.24,-181.15"/>
</a>
</g>
</g>
<!-- Node31 -->
<g id="Node000031" class="node">
<title>Node31</title>
<g id="a_Node000031"><a xlink:title=" ">
<polygon fill="#e0e0e0" stroke="#999999" points="697.5,-349 604.5,-349 604.5,-330 697.5,-330 697.5,-349"/>
<text text-anchor="middle" x="651" y="-337" font-family="Helvetica,sans-Serif" font-size="10.00">unordered_map</text>
</a>
</g>
</g>
<!-- Node45&#45;&gt;Node31 -->
<g id="edge49_Node000045_Node000031" class="edge">
<title>Node45&#45;&gt;Node31</title>
<g id="a_edge49_Node000045_Node000031"><a xlink:title=" ">
<path fill="none" stroke="#63b8ff" d="M562.03,-384.98C578.93,-376.54 605.06,-363.47 624.64,-353.68"/>
<polygon fill="#63b8ff" stroke="#63b8ff" points="626.28,-356.77 633.66,-349.17 623.15,-350.51 626.28,-356.77"/>
</a>
</g>
</g>
<!-- Node47&#45;&gt;Node23 -->
<g id="edge52_Node000047_Node000023" class="edge">
<title>Node47&#45;&gt;Node23</title>
<g id="a_edge52_Node000047_Node000023"><a xlink:title=" ">
<path fill="none" stroke="#63b8ff" d="M729.73,-549.78C728.82,-520.33 726,-421.89 726,-340.5 726,-340.5 726,-340.5 726,-283.5 726,-250.38 711.16,-242.66 687,-220 662.06,-196.6 636.64,-213.3 619,-184 607.12,-164.26 630.36,-145.76 651.5,-133.88"/>
<polygon fill="#63b8ff" stroke="#63b8ff" points="653.42,-136.82 660.62,-129.05 650.14,-130.63 653.42,-136.82"/>
</a>
</g>
</g>
<!-- Node47&#45;&gt;Node48 -->
<g id="edge53_Node000047_Node000048" class="edge">
<title>Node47&#45;&gt;Node48</title>
<g id="a_edge53_Node000047_Node000048"><a xlink:title=" ">
<path fill="none" stroke="#63b8ff" d="M717.95,-549.98C706.54,-541.92 689.17,-529.65 675.57,-520.03"/>
<polygon fill="#63b8ff" stroke="#63b8ff" points="677.46,-517.08 667.27,-514.17 673.42,-522.8 677.46,-517.08"/>
</a>
</g>
</g>
<!-- Node48&#45;&gt;Node15 -->
<g id="edge56_Node000048_Node000015" class="edge">
<title>Node48&#45;&gt;Node15</title>
<g id="a_edge56_Node000048_Node000015"><a xlink:title=" ">
<path fill="none" stroke="#63b8ff" d="M631.7,-494.98C607.75,-486.23 570.22,-472.51 543.17,-462.62"/>
<polygon fill="#63b8ff" stroke="#63b8ff" points="544.31,-459.32 533.72,-459.17 541.91,-465.89 544.31,-459.32"/>
</a>
</g>
</g>
<!-- Node49 -->
<g id="Node000049" class="node">
<title>Node49</title>
<g id="a_Node000049"><a xlink:href="bitvector__types_8h.html" target="_top" xlink:title="Pre&#45;defined bitvector types.">
<polygon fill="white" stroke="#666666" points="701.5,-459 600.5,-459 600.5,-440 701.5,-440 701.5,-459"/>
<text text-anchor="middle" x="651" y="-447" font-family="Helvetica,sans-Serif" font-size="10.00">bitvector_types.h</text>
</a>
</g>
</g>
<!-- Node48&#45;&gt;Node49 -->
<g id="edge54_Node000048_Node000049" class="edge">
<title>Node48&#45;&gt;Node49</title>
<g id="a_edge54_Node000048_Node000049"><a xlink:title=" ">
<path fill="none" stroke="#63b8ff" d="M654.34,-494.75C653.82,-487.8 653.06,-477.85 652.41,-469.13"/>
<polygon fill="#63b8ff" stroke="#63b8ff" points="655.89,-468.8 651.65,-459.09 648.91,-469.32 655.89,-468.8"/>
</a>
</g>
</g>
<!-- Node49&#45;&gt;Node45 -->
<g id="edge55_Node000049_Node000045" class="edge">
<title>Node49&#45;&gt;Node45</title>
<g id="a_edge55_Node000049_Node000045"><a xlink:title=" ">
<path fill="none" stroke="#63b8ff" d="M633.97,-439.98C617.07,-431.54 590.94,-418.47 571.36,-408.68"/>
<polygon fill="#63b8ff" stroke="#63b8ff" points="572.85,-405.51 562.34,-404.17 569.72,-411.77 572.85,-405.51"/>
</a>
</g>
</g>
<!-- Node50&#45;&gt;Node4 -->
<g id="edge63_Node000050_Node000004" class="edge">
<title>Node50&#45;&gt;Node4</title>
<g id="a_edge63_Node000050_Node000004"><a xlink:title=" ">
<path fill="none" stroke="#63b8ff" d="M885.27,-439.75C891.54,-432.18 900.79,-421.05 908.43,-411.84"/>
<polygon fill="#63b8ff" stroke="#63b8ff" points="911.17,-414.02 914.87,-404.09 905.79,-409.55 911.17,-414.02"/>
</a>
</g>
</g>
<!-- Node50&#45;&gt;Node24 -->
<g id="edge62_Node000050_Node000024" class="edge">
<title>Node50&#45;&gt;Node24</title>
<g id="a_edge62_Node000050_Node000024"><a xlink:title=" ">
<path fill="none" stroke="#63b8ff" d="M878,-439.82C878,-421.48 878,-377.44 878,-340.5 878,-340.5 878,-340.5 878,-228.5 878,-199.04 878.24,-187.31 859,-165 842.64,-146.04 816.45,-134.61 795.71,-128.09"/>
<polygon fill="#63b8ff" stroke="#63b8ff" points="796.61,-124.71 786.03,-125.27 794.65,-131.43 796.61,-124.71"/>
</a>
</g>
</g>
<!-- Node50&#45;&gt;Node39 -->
<g id="edge64_Node000050_Node000039" class="edge">
<title>Node50&#45;&gt;Node39</title>
<g id="a_edge64_Node000050_Node000039"><a xlink:title=" ">
<path fill="none" stroke="#63b8ff" d="M878.63,-439.83C880.98,-406.67 889.34,-284.67 892,-184 892.22,-175.56 892.57,-173.43 892,-165 891.43,-156.54 890.26,-147.24 889.11,-139.34"/>
<polygon fill="#63b8ff" stroke="#63b8ff" points="892.55,-138.67 887.55,-129.33 885.63,-139.75 892.55,-138.67"/>
</a>
</g>
</g>
<!-- Node50&#45;&gt;Node51 -->
<g id="edge58_Node000050_Node000051" class="edge">
<title>Node50&#45;&gt;Node51</title>
<g id="a_edge58_Node000050_Node000051"><a xlink:title=" ">
<path fill="none" stroke="#63b8ff" d="M915.2,-442.32C963.97,-434.19 1052.47,-419.31 1137.98,-404.16"/>
<polygon fill="#63b8ff" stroke="#63b8ff" points="1138.62,-407.6 1147.85,-402.41 1137.39,-400.71 1138.62,-407.6"/>
</a>
</g>
</g>
<!-- Node51&#45;&gt;Node7 -->
<g id="edge59_Node000051_Node000007" class="edge">
<title>Node51&#45;&gt;Node7</title>
<g id="a_edge59_Node000051_Node000007"><a xlink:title=" ">
<path fill="none" stroke="#63b8ff" d="M1182.34,-384.84C1178.23,-372.19 1169.58,-348.19 1158,-330 1151.47,-319.75 1142.55,-309.57 1134.8,-301.54"/>
<polygon fill="#63b8ff" stroke="#63b8ff" points="1137.1,-298.9 1127.56,-294.31 1132.16,-303.85 1137.1,-298.9"/>
</a>
</g>
</g>
<!-- Node51&#45;&gt;Node13 -->
<g id="edge60_Node000051_Node000013" class="edge">
<title>Node51&#45;&gt;Node13</title>
<g id="a_edge60_Node000051_Node000013"><a xlink:title=" ">
<path fill="none" stroke="#63b8ff" d="M1149.17,-384.98C1110.39,-375.77 1048.47,-361.05 1006.57,-351.09"/>
<polygon fill="#63b8ff" stroke="#63b8ff" points="1007.18,-347.64 996.64,-348.73 1005.56,-354.45 1007.18,-347.64"/>
</a>
</g>
</g>
<!-- Node52 -->
<g id="Node000052" class="node">
<title>Node52</title>
<g id="a_Node000052"><a xlink:href="format__spec_8h.html" target="_top" xlink:title=" ">
<polygon fill="white" stroke="#666666" points="1149,-349 1063,-349 1063,-330 1149,-330 1149,-349"/>
<text text-anchor="middle" x="1106" y="-337" font-family="Helvetica,sans-Serif" font-size="10.00">format_spec.h</text>
</a>
</g>
</g>
<!-- Node51&#45;&gt;Node52 -->
<g id="edge61_Node000051_Node000052" class="edge">
<title>Node51&#45;&gt;Node52</title>
<g id="a_edge61_Node000051_Node000052"><a xlink:title=" ">
<path fill="none" stroke="#63b8ff" d="M1172.31,-384.98C1160.17,-376.84 1141.64,-364.41 1127.25,-354.76"/>
<polygon fill="#63b8ff" stroke="#63b8ff" points="1129.18,-351.84 1118.92,-349.17 1125.28,-357.65 1129.18,-351.84"/>
</a>
</g>
</g>
<!-- Node53&#45;&gt;Node13 -->
<g id="edge66_Node000053_Node000013" class="edge">
<title>Node53&#45;&gt;Node13</title>
<g id="a_edge66_Node000053_Node000013"><a xlink:title=" ">
<path fill="none" stroke="#63b8ff" d="M1069.43,-384.98C1048.57,-376.34 1016.03,-362.87 992.23,-353.02"/>
<polygon fill="#63b8ff" stroke="#63b8ff" points="993.52,-349.76 982.94,-349.17 990.84,-356.23 993.52,-349.76"/>
</a>
</g>
</g>
<!-- Node53&#45;&gt;Node52 -->
<g id="edge67_Node000053_Node000052" class="edge">
<title>Node53&#45;&gt;Node52</title>
<g id="a_edge67_Node000053_Node000052"><a xlink:title=" ">
<path fill="none" stroke="#63b8ff" d="M1092.64,-384.75C1094.76,-377.72 1097.81,-367.62 1100.46,-358.84"/>
<polygon fill="#63b8ff" stroke="#63b8ff" points="1103.87,-359.67 1103.41,-349.09 1097.17,-357.65 1103.87,-359.67"/>
</a>
</g>
</g>
<!-- Node54&#45;&gt;Node9 -->
<g id="edge71_Node000054_Node000009" class="edge">
<title>Node54&#45;&gt;Node9</title>
<g id="a_edge71_Node000054_Node000009"><a xlink:title=" ">
<path fill="none" stroke="#63b8ff" d="M661.75,-164.87C632.96,-150.88 572.93,-123.45 519,-110 393.31,-78.65 239.81,-69.36 165.14,-66.63"/>
<polygon fill="#63b8ff" stroke="#63b8ff" points="164.82,-63.12 154.7,-66.27 164.58,-70.11 164.82,-63.12"/>
</a>
</g>
</g>
<!-- Node54&#45;&gt;Node24 -->
<g id="edge72_Node000054_Node000024" class="edge">
<title>Node54&#45;&gt;Node24</title>
<g id="a_edge72_Node000054_Node000024"><a xlink:title=" ">
<path fill="none" stroke="#63b8ff" d="M692.66,-164.98C705.84,-156.77 726.03,-144.18 741.57,-134.49"/>
<polygon fill="#63b8ff" stroke="#63b8ff" points="743.46,-137.43 750.09,-129.17 739.76,-131.49 743.46,-137.43"/>
</a>
</g>
</g>
</g>
</svg>
