<?xml version="1.0" encoding="UTF-8" standalone="no"?>
<!DOCTYPE svg PUBLIC "-//W3C//DTD SVG 1.1//EN"
 "http://www.w3.org/Graphics/SVG/1.1/DTD/svg11.dtd">
<!-- Generated by graphviz version 2.43.0 (0)
 -->
<!-- Title: /home/runner/work/cbmc/cbmc/src/xmllang/xml_interface.cpp Pages: 1 -->
<svg width="1313pt" height="709pt"
 viewBox="0.00 0.00 1313.47 709.00" xmlns="http://www.w3.org/2000/svg" xmlns:xlink="http://www.w3.org/1999/xlink">
<g id="graph0" class="graph" transform="scale(1 1) rotate(0) translate(4 705)">
<title>/home/runner/work/cbmc/cbmc/src/xmllang/xml_interface.cpp</title>
<!-- Node1 -->
<g id="Node000001" class="node">
<title>Node1</title>
<g id="a_Node000001"><a xlink:title="XML Interface.">
<polygon fill="#999999" stroke="#666666" points="345.5,-701 207.5,-701 207.5,-660 345.5,-660 345.5,-701"/>
<text text-anchor="start" x="215.5" y="-689" font-family="Helvetica,sans-Serif" font-size="10.00">/home/runner/work/cbmc</text>
<text text-anchor="start" x="215.5" y="-678" font-family="Helvetica,sans-Serif" font-size="10.00">/cbmc/src/xmllang/xml</text>
<text text-anchor="middle" x="276.5" y="-667" font-family="Helvetica,sans-Serif" font-size="10.00">_interface.cpp</text>
</a>
</g>
</g>
<!-- Node2 -->
<g id="Node000002" class="node">
<title>Node2</title>
<g id="a_Node000002"><a xlink:href="xml__interface_8h.html" target="_top" xlink:title="XML Interface.">
<polygon fill="white" stroke="#666666" points="93,-624 0,-624 0,-605 93,-605 93,-624"/>
<text text-anchor="middle" x="46.5" y="-612" font-family="Helvetica,sans-Serif" font-size="10.00">xml_interface.h</text>
</a>
</g>
</g>
<!-- Node1&#45;&gt;Node2 -->
<g id="edge1_Node000001_Node000002" class="edge">
<title>Node1&#45;&gt;Node2</title>
<g id="a_edge1_Node000001_Node000002"><a xlink:title=" ">
<path fill="none" stroke="#63b8ff" d="M207.49,-660.3C168.16,-649.35 120.23,-636.02 86.95,-626.76"/>
<polygon fill="#63b8ff" stroke="#63b8ff" points="87.69,-623.33 77.12,-624.02 85.81,-630.07 87.69,-623.33"/>
</a>
</g>
</g>
<!-- Node3 -->
<g id="Node000003" class="node">
<title>Node3</title>
<g id="a_Node000003"><a xlink:title=" ">
<polygon fill="#e0e0e0" stroke="#999999" points="171.5,-624 111.5,-624 111.5,-605 171.5,-605 171.5,-624"/>
<text text-anchor="middle" x="141.5" y="-612" font-family="Helvetica,sans-Serif" font-size="10.00">iostream</text>
</a>
</g>
</g>
<!-- Node1&#45;&gt;Node3 -->
<g id="edge2_Node000001_Node000003" class="edge">
<title>Node1&#45;&gt;Node3</title>
<g id="a_edge2_Node000001_Node000003"><a xlink:title=" ">
<path fill="none" stroke="#63b8ff" d="M235.26,-659.95C213.64,-649.7 187.75,-637.43 168.66,-628.38"/>
<polygon fill="#63b8ff" stroke="#63b8ff" points="170.16,-625.21 159.62,-624.09 167.16,-631.54 170.16,-625.21"/>
</a>
</g>
</g>
<!-- Node4 -->
<g id="Node000004" class="node">
<title>Node4</title>
<g id="a_Node000004"><a xlink:href="cmdline_8h.html" target="_top" xlink:title=" ">
<polygon fill="white" stroke="#666666" points="244,-294 161,-294 161,-275 244,-275 244,-294"/>
<text text-anchor="middle" x="202.5" y="-282" font-family="Helvetica,sans-Serif" font-size="10.00">util/cmdline.h</text>
</a>
</g>
</g>
<!-- Node1&#45;&gt;Node4 -->
<g id="edge3_Node000001_Node000004" class="edge">
<title>Node1&#45;&gt;Node4</title>
<g id="a_edge3_Node000001_Node000004"><a xlink:title=" ">
<path fill="none" stroke="#63b8ff" d="M253.4,-659.68C230.72,-637.89 199.5,-600.61 199.5,-560.5 199.5,-560.5 199.5,-560.5 199.5,-393.5 199.5,-362.18 200.78,-325.77 201.66,-304.23"/>
<polygon fill="#63b8ff" stroke="#63b8ff" points="205.16,-304.32 202.1,-294.18 198.17,-304.02 205.16,-304.32"/>
</a>
</g>
</g>
<!-- Node10 -->
<g id="Node000010" class="node">
<title>Node10</title>
<g id="a_Node000010"><a xlink:href="exception__utils_8h.html" target="_top" xlink:title=" ">
<polygon fill="white" stroke="#666666" points="853,-349 734,-349 734,-330 853,-330 853,-349"/>
<text text-anchor="middle" x="793.5" y="-337" font-family="Helvetica,sans-Serif" font-size="10.00">util/exception_utils.h</text>
</a>
</g>
</g>
<!-- Node1&#45;&gt;Node10 -->
<g id="edge9_Node000001_Node000010" class="edge">
<title>Node1&#45;&gt;Node10</title>
<g id="a_edge9_Node000001_Node000010"><a xlink:title=" ">
<path fill="none" stroke="#63b8ff" d="M305.22,-659.84C319.34,-649.71 336.33,-636.82 350.5,-624 457.59,-527.17 444.63,-455.71 570.5,-385 617.38,-358.66 677.5,-347.75 723.5,-343.31"/>
<polygon fill="#63b8ff" stroke="#63b8ff" points="724.03,-346.78 733.68,-342.41 723.41,-339.81 724.03,-346.78"/>
</a>
</g>
</g>
<!-- Node33 -->
<g id="Node000033" class="node">
<title>Node33</title>
<g id="a_Node000033"><a xlink:href="src_2util_2message_8h.html" target="_top" xlink:title=" ">
<polygon fill="white" stroke="#666666" points="441,-349 352,-349 352,-330 441,-330 441,-349"/>
<text text-anchor="middle" x="396.5" y="-337" font-family="Helvetica,sans-Serif" font-size="10.00">util/message.h</text>
</a>
</g>
</g>
<!-- Node1&#45;&gt;Node33 -->
<g id="edge40_Node000001_Node000033" class="edge">
<title>Node1&#45;&gt;Node33</title>
<g id="a_edge40_Node000001_Node000033"><a xlink:title=" ">
<path fill="none" stroke="#63b8ff" d="M299.9,-659.74C322.88,-638 354.5,-600.76 354.5,-560.5 354.5,-560.5 354.5,-560.5 354.5,-448.5 354.5,-414.46 372.85,-378.24 385.29,-357.59"/>
<polygon fill="#63b8ff" stroke="#63b8ff" points="388.31,-359.35 390.66,-349.02 382.38,-355.63 388.31,-359.35"/>
</a>
</g>
</g>
<!-- Node35 -->
<g id="Node000035" class="node">
<title>Node35</title>
<g id="a_Node000035"><a xlink:href="xml__parser_8h.html" target="_top" xlink:title=" ">
<polygon fill="white" stroke="#666666" points="661.5,-624 539.5,-624 539.5,-605 661.5,-605 661.5,-624"/>
<text text-anchor="middle" x="600.5" y="-612" font-family="Helvetica,sans-Serif" font-size="10.00">xmllang/xml_parser.h</text>
</a>
</g>
</g>
<!-- Node1&#45;&gt;Node35 -->
<g id="edge47_Node000001_Node000035" class="edge">
<title>Node1&#45;&gt;Node35</title>
<g id="a_edge47_Node000001_Node000035"><a xlink:title=" ">
<path fill="none" stroke="#63b8ff" d="M345.61,-665.85C405.97,-653.93 492.32,-636.87 547.4,-625.99"/>
<polygon fill="#63b8ff" stroke="#63b8ff" points="548.17,-629.4 557.3,-624.03 546.81,-622.54 548.17,-629.4"/>
</a>
</g>
</g>
<!-- Node5 -->
<g id="Node000005" class="node">
<title>Node5</title>
<g id="a_Node000005"><a xlink:title=" ">
<polygon fill="#e0e0e0" stroke="#999999" points="285.5,-239 241.5,-239 241.5,-220 285.5,-220 285.5,-239"/>
<text text-anchor="middle" x="263.5" y="-227" font-family="Helvetica,sans-Serif" font-size="10.00">limits</text>
</a>
</g>
</g>
<!-- Node4&#45;&gt;Node5 -->
<g id="edge4_Node000004_Node000005" class="edge">
<title>Node4&#45;&gt;Node5</title>
<g id="a_edge4_Node000004_Node000005"><a xlink:title=" ">
<path fill="none" stroke="#63b8ff" d="M212.3,-274.98C221.32,-267.15 234.91,-255.34 245.82,-245.86"/>
<polygon fill="#63b8ff" stroke="#63b8ff" points="248.27,-248.37 253.52,-239.17 243.68,-243.09 248.27,-248.37"/>
</a>
</g>
</g>
<!-- Node6 -->
<g id="Node000006" class="node">
<title>Node6</title>
<g id="a_Node000006"><a xlink:title=" ">
<polygon fill="#e0e0e0" stroke="#999999" points="271.5,-19 239.5,-19 239.5,0 271.5,0 271.5,-19"/>
<text text-anchor="middle" x="255.5" y="-7" font-family="Helvetica,sans-Serif" font-size="10.00">list</text>
</a>
</g>
</g>
<!-- Node4&#45;&gt;Node6 -->
<g id="edge5_Node000004_Node000006" class="edge">
<title>Node4&#45;&gt;Node6</title>
<g id="a_edge5_Node000004_Node000006"><a xlink:title=" ">
<path fill="none" stroke="#63b8ff" d="M198.75,-274.73C191.33,-256.56 175.5,-213.38 175.5,-175.5 175.5,-175.5 175.5,-175.5 175.5,-118.5 175.5,-89.04 177.49,-79.05 194.5,-55 203.82,-41.82 218.28,-31.03 230.79,-23.37"/>
<polygon fill="#63b8ff" stroke="#63b8ff" points="232.54,-26.4 239.45,-18.36 229.04,-20.34 232.54,-26.4"/>
</a>
</g>
</g>
<!-- Node7 -->
<g id="Node000007" class="node">
<title>Node7</title>
<g id="a_Node000007"><a xlink:title=" ">
<polygon fill="#e0e0e0" stroke="#999999" points="441.5,-239 385.5,-239 385.5,-220 441.5,-220 441.5,-239"/>
<text text-anchor="middle" x="413.5" y="-227" font-family="Helvetica,sans-Serif" font-size="10.00">optional</text>
</a>
</g>
</g>
<!-- Node4&#45;&gt;Node7 -->
<g id="edge6_Node000004_Node000007" class="edge">
<title>Node4&#45;&gt;Node7</title>
<g id="a_edge6_Node000004_Node000007"><a xlink:title=" ">
<path fill="none" stroke="#63b8ff" d="M236.4,-274.98C274.44,-265.43 336.01,-249.97 375.61,-240.02"/>
<polygon fill="#63b8ff" stroke="#63b8ff" points="376.58,-243.38 385.42,-237.55 374.87,-236.59 376.58,-243.38"/>
</a>
</g>
</g>
<!-- Node8 -->
<g id="Node000008" class="node">
<title>Node8</title>
<g id="a_Node000008"><a xlink:title=" ">
<polygon fill="#e0e0e0" stroke="#999999" points="633.5,-19 589.5,-19 589.5,0 633.5,0 633.5,-19"/>
<text text-anchor="middle" x="611.5" y="-7" font-family="Helvetica,sans-Serif" font-size="10.00">string</text>
</a>
</g>
</g>
<!-- Node4&#45;&gt;Node8 -->
<g id="edge7_Node000004_Node000008" class="edge">
<title>Node4&#45;&gt;Node8</title>
<g id="a_edge7_Node000004_Node000008"><a xlink:title=" ">
<path fill="none" stroke="#63b8ff" d="M205.22,-274.95C216.72,-240.41 264.89,-110.29 354.5,-55 391.67,-32.07 518.77,-18.43 579.15,-13.1"/>
<polygon fill="#63b8ff" stroke="#63b8ff" points="579.6,-16.57 589.27,-12.23 579,-9.6 579.6,-16.57"/>
</a>
</g>
</g>
<!-- Node9 -->
<g id="Node000009" class="node">
<title>Node9</title>
<g id="a_Node000009"><a xlink:title=" ">
<polygon fill="#e0e0e0" stroke="#999999" points="104,-19 57,-19 57,0 104,0 104,-19"/>
<text text-anchor="middle" x="80.5" y="-7" font-family="Helvetica,sans-Serif" font-size="10.00">vector</text>
</a>
</g>
</g>
<!-- Node4&#45;&gt;Node9 -->
<g id="edge8_Node000004_Node000009" class="edge">
<title>Node4&#45;&gt;Node9</title>
<g id="a_edge8_Node000004_Node000009"><a xlink:title=" ">
<path fill="none" stroke="#63b8ff" d="M197.23,-274.79C191.95,-265.93 183.75,-251.73 177.5,-239 139.98,-162.63 102.64,-68.14 87.52,-28.91"/>
<polygon fill="#63b8ff" stroke="#63b8ff" points="90.71,-27.46 83.86,-19.37 84.17,-29.96 90.71,-27.46"/>
</a>
</g>
</g>
<!-- Node10&#45;&gt;Node8 -->
<g id="edge10_Node000010_Node000008" class="edge">
<title>Node10&#45;&gt;Node8</title>
<g id="a_edge10_Node000010_Node000008"><a xlink:title=" ">
<path fill="none" stroke="#63b8ff" d="M823.61,-329.89C865.41,-316.59 941.21,-287.38 988.5,-239 1031.83,-194.67 1055.52,-170.38 1041.5,-110 1035.34,-83.47 1036.88,-70.51 1014.5,-55 946.96,-8.2 727.51,-32.73 646.5,-19 645.58,-18.84 644.65,-18.68 643.72,-18.5"/>
<polygon fill="#63b8ff" stroke="#63b8ff" points="644.13,-15.01 633.62,-16.37 642.68,-21.86 644.13,-15.01"/>
</a>
</g>
</g>
<!-- Node11 -->
<g id="Node000011" class="node">
<title>Node11</title>
<g id="a_Node000011"><a xlink:href="src_2util_2invariant_8h.html" target="_top" xlink:title=" ">
<polygon fill="white" stroke="#666666" points="433,-74 364,-74 364,-55 433,-55 433,-74"/>
<text text-anchor="middle" x="398.5" y="-62" font-family="Helvetica,sans-Serif" font-size="10.00">invariant.h</text>
</a>
</g>
</g>
<!-- Node10&#45;&gt;Node11 -->
<g id="edge11_Node000010_Node000011" class="edge">
<title>Node10&#45;&gt;Node11</title>
<g id="a_edge11_Node000010_Node000011"><a xlink:title=" ">
<path fill="none" stroke="#63b8ff" d="M780.65,-329.91C759.6,-316.21 716.02,-289.51 675.5,-275 597.46,-247.05 566.16,-277.02 492.5,-239 437.6,-210.66 425.67,-188.05 407.5,-129 403.04,-114.5 400.77,-97.44 399.64,-84.66"/>
<polygon fill="#63b8ff" stroke="#63b8ff" points="403.1,-84.03 398.87,-74.32 396.12,-84.55 403.1,-84.03"/>
</a>
</g>
</g>
<!-- Node15 -->
<g id="Node000015" class="node">
<title>Node15</title>
<g id="a_Node000015"><a xlink:href="source__location_8h.html" target="_top" xlink:title=" ">
<polygon fill="white" stroke="#666666" points="666.5,-294 564.5,-294 564.5,-275 666.5,-275 666.5,-294"/>
<text text-anchor="middle" x="615.5" y="-282" font-family="Helvetica,sans-Serif" font-size="10.00">source_location.h</text>
</a>
</g>
</g>
<!-- Node10&#45;&gt;Node15 -->
<g id="edge16_Node000010_Node000015" class="edge">
<title>Node10&#45;&gt;Node15</title>
<g id="a_edge16_Node000010_Node000015"><a xlink:title=" ">
<path fill="none" stroke="#63b8ff" d="M764.9,-329.98C734.89,-321.05 687.52,-306.94 654.18,-297.02"/>
<polygon fill="#63b8ff" stroke="#63b8ff" points="654.91,-293.58 644.32,-294.08 652.91,-300.29 654.91,-293.58"/>
</a>
</g>
</g>
<!-- Node11&#45;&gt;Node8 -->
<g id="edge14_Node000011_Node000008" class="edge">
<title>Node11&#45;&gt;Node8</title>
<g id="a_edge14_Node000011_Node000008"><a xlink:title=" ">
<path fill="none" stroke="#63b8ff" d="M432.72,-54.98C473.2,-44.91 540.07,-28.27 579.54,-18.45"/>
<polygon fill="#63b8ff" stroke="#63b8ff" points="580.56,-21.8 589.42,-15.99 578.87,-15.01 580.56,-21.8"/>
</a>
</g>
</g>
<!-- Node12 -->
<g id="Node000012" class="node">
<title>Node12</title>
<g id="a_Node000012"><a xlink:title=" ">
<polygon fill="#e0e0e0" stroke="#999999" points="423,-19 374,-19 374,0 423,0 423,-19"/>
<text text-anchor="middle" x="398.5" y="-7" font-family="Helvetica,sans-Serif" font-size="10.00">cstdlib</text>
</a>
</g>
</g>
<!-- Node11&#45;&gt;Node12 -->
<g id="edge12_Node000011_Node000012" class="edge">
<title>Node11&#45;&gt;Node12</title>
<g id="a_edge12_Node000011_Node000012"><a xlink:title=" ">
<path fill="none" stroke="#63b8ff" d="M398.5,-54.75C398.5,-47.8 398.5,-37.85 398.5,-29.13"/>
<polygon fill="#63b8ff" stroke="#63b8ff" points="402,-29.09 398.5,-19.09 395,-29.09 402,-29.09"/>
</a>
</g>
</g>
<!-- Node13 -->
<g id="Node000013" class="node">
<title>Node13</title>
<g id="a_Node000013"><a xlink:title=" ">
<polygon fill="#e0e0e0" stroke="#999999" points="190.5,-19 134.5,-19 134.5,0 190.5,0 190.5,-19"/>
<text text-anchor="middle" x="162.5" y="-7" font-family="Helvetica,sans-Serif" font-size="10.00">sstream</text>
</a>
</g>
</g>
<!-- Node11&#45;&gt;Node13 -->
<g id="edge13_Node000011_Node000013" class="edge">
<title>Node11&#45;&gt;Node13</title>
<g id="a_edge13_Node000011_Node000013"><a xlink:title=" ">
<path fill="none" stroke="#63b8ff" d="M363.93,-55.74C320.34,-45.95 245.65,-29.17 200.5,-19.03"/>
<polygon fill="#63b8ff" stroke="#63b8ff" points="201.03,-15.57 190.51,-16.79 199.5,-22.4 201.03,-15.57"/>
</a>
</g>
</g>
<!-- Node14 -->
<g id="Node000014" class="node">
<title>Node14</title>
<g id="a_Node000014"><a xlink:title=" ">
<polygon fill="#e0e0e0" stroke="#999999" points="724,-19 655,-19 655,0 724,0 724,-19"/>
<text text-anchor="middle" x="689.5" y="-7" font-family="Helvetica,sans-Serif" font-size="10.00">type_traits</text>
</a>
</g>
</g>
<!-- Node11&#45;&gt;Node14 -->
<g id="edge15_Node000011_Node000014" class="edge">
<title>Node11&#45;&gt;Node14</title>
<g id="a_edge15_Node000011_Node000014"><a xlink:title=" ">
<path fill="none" stroke="#63b8ff" d="M433.02,-57.21C485.72,-47.62 586.21,-29.31 644.54,-18.69"/>
<polygon fill="#63b8ff" stroke="#63b8ff" points="645.36,-22.1 654.57,-16.86 644.1,-15.21 645.36,-22.1"/>
</a>
</g>
</g>
<!-- Node15&#45;&gt;Node7 -->
<g id="edge38_Node000015_Node000007" class="edge">
<title>Node15&#45;&gt;Node7</title>
<g id="a_edge38_Node000015_Node000007"><a xlink:title=" ">
<path fill="none" stroke="#63b8ff" d="M583.05,-274.98C547.26,-265.6 489.75,-250.51 451.79,-240.55"/>
<polygon fill="#63b8ff" stroke="#63b8ff" points="452.2,-237.04 441.64,-237.88 450.42,-243.81 452.2,-237.04"/>
</a>
</g>
</g>
<!-- Node15&#45;&gt;Node8 -->
<g id="edge39_Node000015_Node000008" class="edge">
<title>Node15&#45;&gt;Node8</title>
<g id="a_edge39_Node000015_Node000008"><a xlink:title=" ">
<path fill="none" stroke="#63b8ff" d="M643.41,-274.91C695.5,-258.66 810.79,-221.67 905.5,-184 964.07,-160.7 1044.51,-170.41 1026.5,-110 1018.15,-82 1015.44,-70.21 990.5,-55 924.88,-14.97 722.24,-32.1 646.5,-19 645.58,-18.84 644.66,-18.67 643.72,-18.5"/>
<polygon fill="#63b8ff" stroke="#63b8ff" points="644.13,-15.01 633.62,-16.35 642.68,-21.85 644.13,-15.01"/>
</a>
</g>
</g>
<!-- Node16 -->
<g id="Node000016" class="node">
<title>Node16</title>
<g id="a_Node000016"><a xlink:href="deprecate_8h.html" target="_top" xlink:title=" ">
<polygon fill="white" stroke="#666666" points="979.5,-239 905.5,-239 905.5,-220 979.5,-220 979.5,-239"/>
<text text-anchor="middle" x="942.5" y="-227" font-family="Helvetica,sans-Serif" font-size="10.00">deprecate.h</text>
</a>
</g>
</g>
<!-- Node15&#45;&gt;Node16 -->
<g id="edge17_Node000015_Node000016" class="edge">
<title>Node15&#45;&gt;Node16</title>
<g id="a_edge17_Node000015_Node000016"><a xlink:title=" ">
<path fill="none" stroke="#63b8ff" d="M666.64,-275.34C722.05,-266.47 813.07,-251.86 891.5,-239 892.77,-238.79 894.06,-238.58 895.36,-238.37"/>
<polygon fill="#63b8ff" stroke="#63b8ff" points="896.16,-241.78 905.46,-236.7 895.02,-234.87 896.16,-241.78"/>
</a>
</g>
</g>
<!-- Node17 -->
<g id="Node000017" class="node">
<title>Node17</title>
<g id="a_Node000017"><a xlink:href="irep_8h.html" target="_top" xlink:title=" ">
<polygon fill="white" stroke="#666666" points="545.5,-239 501.5,-239 501.5,-220 545.5,-220 545.5,-239"/>
<text text-anchor="middle" x="523.5" y="-227" font-family="Helvetica,sans-Serif" font-size="10.00">irep.h</text>
</a>
</g>
</g>
<!-- Node15&#45;&gt;Node17 -->
<g id="edge18_Node000015_Node000017" class="edge">
<title>Node15&#45;&gt;Node17</title>
<g id="a_edge18_Node000015_Node000017"><a xlink:title=" ">
<path fill="none" stroke="#63b8ff" d="M600.72,-274.98C586.32,-266.69 564.19,-253.94 547.31,-244.22"/>
<polygon fill="#63b8ff" stroke="#63b8ff" points="548.96,-241.13 538.55,-239.17 545.47,-247.19 548.96,-241.13"/>
</a>
</g>
</g>
<!-- Node17&#45;&gt;Node8 -->
<g id="edge19_Node000017_Node000008" class="edge">
<title>Node17&#45;&gt;Node8</title>
<g id="a_edge19_Node000017_Node000008"><a xlink:title=" ">
<path fill="none" stroke="#63b8ff" d="M512.7,-219.91C503.37,-211.78 490.47,-198.65 484.5,-184 472.08,-153.52 471.9,-141.48 481.5,-110 490.1,-81.82 496.21,-74.26 518.5,-55 536.38,-39.56 560.54,-28.21 579.76,-20.84"/>
<polygon fill="#63b8ff" stroke="#63b8ff" points="581.11,-24.07 589.3,-17.35 578.7,-17.5 581.11,-24.07"/>
</a>
</g>
</g>
<!-- Node17&#45;&gt;Node9 -->
<g id="edge20_Node000017_Node000009" class="edge">
<title>Node17&#45;&gt;Node9</title>
<g id="a_edge20_Node000017_Node000009"><a xlink:title=" ">
<path fill="none" stroke="#63b8ff" d="M503.99,-219.91C452.72,-197.2 310.18,-133.29 194.5,-74 162.6,-57.65 126.59,-37.26 103.74,-24.06"/>
<polygon fill="#63b8ff" stroke="#63b8ff" points="105.49,-21.03 95.08,-19.05 101.98,-27.09 105.49,-21.03"/>
</a>
</g>
</g>
<!-- Node17&#45;&gt;Node11 -->
<g id="edge21_Node000017_Node000011" class="edge">
<title>Node17&#45;&gt;Node11</title>
<g id="a_edge21_Node000017_Node000011"><a xlink:title=" ">
<path fill="none" stroke="#63b8ff" d="M502.87,-219.86C487.06,-212.35 465.63,-200.15 451.5,-184 425.26,-154.01 409.98,-108.91 403.04,-83.88"/>
<polygon fill="#63b8ff" stroke="#63b8ff" points="406.43,-82.99 400.5,-74.21 399.65,-84.77 406.43,-82.99"/>
</a>
</g>
</g>
<!-- Node18 -->
<g id="Node000018" class="node">
<title>Node18</title>
<g id="a_Node000018"><a xlink:href="irep__ids_8h.html" target="_top" xlink:title="util">
<polygon fill="white" stroke="#666666" points="557.5,-184 493.5,-184 493.5,-165 557.5,-165 557.5,-184"/>
<text text-anchor="middle" x="525.5" y="-172" font-family="Helvetica,sans-Serif" font-size="10.00">irep_ids.h</text>
</a>
</g>
</g>
<!-- Node17&#45;&gt;Node18 -->
<g id="edge22_Node000017_Node000018" class="edge">
<title>Node17&#45;&gt;Node18</title>
<g id="a_edge22_Node000017_Node000018"><a xlink:title=" ">
<path fill="none" stroke="#63b8ff" d="M523.83,-219.75C524.09,-212.8 524.47,-202.85 524.8,-194.13"/>
<polygon fill="#63b8ff" stroke="#63b8ff" points="528.3,-194.21 525.18,-184.09 521.3,-193.95 528.3,-194.21"/>
</a>
</g>
</g>
<!-- Node28 -->
<g id="Node000028" class="node">
<title>Node28</title>
<g id="a_Node000028"><a xlink:href="forward__list__as__map_8h.html" target="_top" xlink:title=" ">
<polygon fill="white" stroke="#666666" points="833,-184 706,-184 706,-165 833,-165 833,-184"/>
<text text-anchor="middle" x="769.5" y="-172" font-family="Helvetica,sans-Serif" font-size="10.00">forward_list_as_map.h</text>
</a>
</g>
</g>
<!-- Node17&#45;&gt;Node28 -->
<g id="edge31_Node000017_Node000028" class="edge">
<title>Node17&#45;&gt;Node28</title>
<g id="a_edge31_Node000017_Node000028"><a xlink:title=" ">
<path fill="none" stroke="#63b8ff" d="M545.76,-223.7C584.88,-215.28 666.8,-197.63 719.91,-186.18"/>
<polygon fill="#63b8ff" stroke="#63b8ff" points="720.77,-189.58 729.81,-184.05 719.29,-182.74 720.77,-189.58"/>
</a>
</g>
</g>
<!-- Node19 -->
<g id="Node000019" class="node">
<title>Node19</title>
<g id="a_Node000019"><a xlink:href="dstring_8h.html" target="_top" xlink:title="Container for C&#45;Strings.">
<polygon fill="white" stroke="#666666" points="549,-129 490,-129 490,-110 549,-110 549,-129"/>
<text text-anchor="middle" x="519.5" y="-117" font-family="Helvetica,sans-Serif" font-size="10.00">dstring.h</text>
</a>
</g>
</g>
<!-- Node18&#45;&gt;Node19 -->
<g id="edge23_Node000018_Node000019" class="edge">
<title>Node18&#45;&gt;Node19</title>
<g id="a_edge23_Node000018_Node000019"><a xlink:title=" ">
<path fill="none" stroke="#63b8ff" d="M524.51,-164.75C523.72,-157.8 522.6,-147.85 521.61,-139.13"/>
<polygon fill="#63b8ff" stroke="#63b8ff" points="525.08,-138.63 520.47,-129.09 518.12,-139.42 525.08,-138.63"/>
</a>
</g>
</g>
<!-- Node27 -->
<g id="Node000027" class="node">
<title>Node27</title>
<g id="a_Node000027"><a xlink:title=" ">
<polygon fill="#e0e0e0" stroke="#999999" points="641.5,-129 567.5,-129 567.5,-110 641.5,-110 641.5,-129"/>
<text text-anchor="middle" x="604.5" y="-117" font-family="Helvetica,sans-Serif" font-size="10.00">irep_ids.def</text>
</a>
</g>
</g>
<!-- Node18&#45;&gt;Node27 -->
<g id="edge30_Node000018_Node000027" class="edge">
<title>Node18&#45;&gt;Node27</title>
<g id="a_edge30_Node000018_Node000027"><a xlink:title=" ">
<path fill="none" stroke="#63b8ff" d="M538.19,-164.98C550.33,-156.84 568.86,-144.41 583.25,-134.76"/>
<polygon fill="#63b8ff" stroke="#63b8ff" points="585.22,-137.65 591.58,-129.17 581.32,-131.84 585.22,-137.65"/>
</a>
</g>
</g>
<!-- Node19&#45;&gt;Node8 -->
<g id="edge25_Node000019_Node000008" class="edge">
<title>Node19&#45;&gt;Node8</title>
<g id="a_edge25_Node000019_Node000008"><a xlink:title=" ">
<path fill="none" stroke="#63b8ff" d="M542.04,-109.97C558.28,-102.72 579.54,-90.81 592.5,-74 602.49,-61.04 607.25,-42.89 609.5,-29.31"/>
<polygon fill="#63b8ff" stroke="#63b8ff" points="613,-29.57 610.86,-19.19 606.06,-28.64 613,-29.57"/>
</a>
</g>
</g>
<!-- Node20 -->
<g id="Node000020" class="node">
<title>Node20</title>
<g id="a_Node000020"><a xlink:title=" ">
<polygon fill="#e0e0e0" stroke="#999999" points="981.5,-74 933.5,-74 933.5,-55 981.5,-55 981.5,-74"/>
<text text-anchor="middle" x="957.5" y="-62" font-family="Helvetica,sans-Serif" font-size="10.00">iosfwd</text>
</a>
</g>
</g>
<!-- Node19&#45;&gt;Node20 -->
<g id="edge24_Node000019_Node000020" class="edge">
<title>Node19&#45;&gt;Node20</title>
<g id="a_edge24_Node000019_Node000020"><a xlink:title=" ">
<path fill="none" stroke="#63b8ff" d="M549.25,-111.68C552.36,-111.07 555.49,-110.49 558.5,-110 692.34,-88.01 853.24,-73.74 922.74,-68.16"/>
<polygon fill="#63b8ff" stroke="#63b8ff" points="923.4,-71.62 933.09,-67.34 922.84,-64.64 923.4,-71.62"/>
</a>
</g>
</g>
<!-- Node21 -->
<g id="Node000021" class="node">
<title>Node21</title>
<g id="a_Node000021"><a xlink:href="magic_8h.html" target="_top" xlink:title="Magic numbers used throughout the codebase.">
<polygon fill="#fff0f0" stroke="red" points="583.5,-74 527.5,-74 527.5,-55 583.5,-55 583.5,-74"/>
<text text-anchor="middle" x="555.5" y="-62" font-family="Helvetica,sans-Serif" font-size="10.00">magic.h</text>
</a>
</g>
</g>
<!-- Node19&#45;&gt;Node21 -->
<g id="edge26_Node000019_Node000021" class="edge">
<title>Node19&#45;&gt;Node21</title>
<g id="a_edge26_Node000019_Node000021"><a xlink:title=" ">
<path fill="none" stroke="#63b8ff" d="M525.44,-109.75C530.48,-102.34 537.84,-91.5 544.01,-82.41"/>
<polygon fill="#63b8ff" stroke="#63b8ff" points="546.94,-84.33 549.67,-74.09 541.15,-80.39 546.94,-84.33"/>
</a>
</g>
</g>
<!-- Node23 -->
<g id="Node000023" class="node">
<title>Node23</title>
<g id="a_Node000023"><a xlink:href="string__container_8h.html" target="_top" xlink:title="Container for C&#45;Strings.">
<polygon fill="#fff0f0" stroke="red" points="307.5,-74 203.5,-74 203.5,-55 307.5,-55 307.5,-74"/>
<text text-anchor="middle" x="255.5" y="-62" font-family="Helvetica,sans-Serif" font-size="10.00">string_container.h</text>
</a>
</g>
</g>
<!-- Node19&#45;&gt;Node23 -->
<g id="edge27_Node000019_Node000023" class="edge">
<title>Node19&#45;&gt;Node23</title>
<g id="a_edge27_Node000019_Node000023"><a xlink:title=" ">
<path fill="none" stroke="#63b8ff" d="M489.98,-112.57C445.9,-103.73 362.23,-86.93 307.68,-75.98"/>
<polygon fill="#63b8ff" stroke="#63b8ff" points="308.34,-72.54 297.85,-74 306.97,-79.4 308.34,-72.54"/>
</a>
</g>
</g>
<!-- Node23&#45;&gt;Node6 -->
<g id="edge28_Node000023_Node000006" class="edge">
<title>Node23&#45;&gt;Node6</title>
<g id="a_edge28_Node000023_Node000006"><a xlink:title=" ">
<path fill="none" stroke="#63b8ff" d="M255.5,-54.75C255.5,-47.8 255.5,-37.85 255.5,-29.13"/>
<polygon fill="#63b8ff" stroke="#63b8ff" points="259,-29.09 255.5,-19.09 252,-29.09 259,-29.09"/>
</a>
</g>
</g>
<!-- Node23&#45;&gt;Node9 -->
<g id="edge29_Node000023_Node000009" class="edge">
<title>Node23&#45;&gt;Node9</title>
<g id="a_edge29_Node000023_Node000009"><a xlink:title=" ">
<path fill="none" stroke="#63b8ff" d="M227.38,-54.98C196.39,-45.6 146.57,-30.51 113.68,-20.55"/>
<polygon fill="#63b8ff" stroke="#63b8ff" points="114.64,-17.18 104.06,-17.63 112.61,-23.88 114.64,-17.18"/>
</a>
</g>
</g>
<!-- Node29 -->
<g id="Node000029" class="node">
<title>Node29</title>
<g id="a_Node000029"><a xlink:title=" ">
<polygon fill="#e0e0e0" stroke="#999999" points="801.5,-129 737.5,-129 737.5,-110 801.5,-110 801.5,-129"/>
<text text-anchor="middle" x="769.5" y="-117" font-family="Helvetica,sans-Serif" font-size="10.00">algorithm</text>
</a>
</g>
</g>
<!-- Node28&#45;&gt;Node29 -->
<g id="edge32_Node000028_Node000029" class="edge">
<title>Node28&#45;&gt;Node29</title>
<g id="a_edge32_Node000028_Node000029"><a xlink:title=" ">
<path fill="none" stroke="#63b8ff" d="M769.5,-164.75C769.5,-157.8 769.5,-147.85 769.5,-139.13"/>
<polygon fill="#63b8ff" stroke="#63b8ff" points="773,-139.09 769.5,-129.09 766,-139.09 773,-139.09"/>
</a>
</g>
</g>
<!-- Node30 -->
<g id="Node000030" class="node">
<title>Node30</title>
<g id="a_Node000030"><a xlink:title=" ">
<polygon fill="#e0e0e0" stroke="#999999" points="893.5,-129 819.5,-129 819.5,-110 893.5,-110 893.5,-129"/>
<text text-anchor="middle" x="856.5" y="-117" font-family="Helvetica,sans-Serif" font-size="10.00">forward_list</text>
</a>
</g>
</g>
<!-- Node28&#45;&gt;Node30 -->
<g id="edge33_Node000028_Node000030" class="edge">
<title>Node28&#45;&gt;Node30</title>
<g id="a_edge33_Node000028_Node000030"><a xlink:title=" ">
<path fill="none" stroke="#63b8ff" d="M783.48,-164.98C796.97,-156.77 817.63,-144.18 833.54,-134.49"/>
<polygon fill="#63b8ff" stroke="#63b8ff" points="835.55,-137.36 842.27,-129.17 831.91,-131.38 835.55,-137.36"/>
</a>
</g>
</g>
<!-- Node31 -->
<g id="Node000031" class="node">
<title>Node31</title>
<g id="a_Node000031"><a xlink:href="as__const_8h.html" target="_top" xlink:title=" ">
<polygon fill="white" stroke="#666666" points="1017.5,-129 949.5,-129 949.5,-110 1017.5,-110 1017.5,-129"/>
<text text-anchor="middle" x="983.5" y="-117" font-family="Helvetica,sans-Serif" font-size="10.00">as_const.h</text>
</a>
</g>
</g>
<!-- Node28&#45;&gt;Node31 -->
<g id="edge34_Node000028_Node000031" class="edge">
<title>Node28&#45;&gt;Node31</title>
<g id="a_edge34_Node000028_Node000031"><a xlink:title=" ">
<path fill="none" stroke="#63b8ff" d="M803.88,-164.98C840.7,-155.87 899.23,-141.37 939.41,-131.42"/>
<polygon fill="#63b8ff" stroke="#63b8ff" points="940.34,-134.8 949.2,-128.99 938.65,-128 940.34,-134.8"/>
</a>
</g>
</g>
<!-- Node32 -->
<g id="Node000032" class="node">
<title>Node32</title>
<g id="a_Node000032"><a xlink:href="narrow_8h.html" target="_top" xlink:title=" ">
<polygon fill="white" stroke="#666666" points="719,-129 660,-129 660,-110 719,-110 719,-129"/>
<text text-anchor="middle" x="689.5" y="-117" font-family="Helvetica,sans-Serif" font-size="10.00">narrow.h</text>
</a>
</g>
</g>
<!-- Node28&#45;&gt;Node32 -->
<g id="edge35_Node000028_Node000032" class="edge">
<title>Node28&#45;&gt;Node32</title>
<g id="a_edge35_Node000028_Node000032"><a xlink:title=" ">
<path fill="none" stroke="#63b8ff" d="M756.65,-164.98C744.36,-156.84 725.59,-144.41 711.02,-134.76"/>
<polygon fill="#63b8ff" stroke="#63b8ff" points="712.86,-131.78 702.59,-129.17 708.99,-137.61 712.86,-131.78"/>
</a>
</g>
</g>
<!-- Node32&#45;&gt;Node11 -->
<g id="edge37_Node000032_Node000011" class="edge">
<title>Node32&#45;&gt;Node11</title>
<g id="a_edge37_Node000032_Node000011"><a xlink:title=" ">
<path fill="none" stroke="#63b8ff" d="M659.71,-111.88C656.61,-111.23 653.49,-110.59 650.5,-110 578.12,-95.73 493.61,-81.25 443.16,-72.83"/>
<polygon fill="#63b8ff" stroke="#63b8ff" points="443.67,-69.37 433.23,-71.18 442.52,-76.28 443.67,-69.37"/>
</a>
</g>
</g>
<!-- Node32&#45;&gt;Node14 -->
<g id="edge36_Node000032_Node000014" class="edge">
<title>Node32&#45;&gt;Node14</title>
<g id="a_edge36_Node000032_Node000014"><a xlink:title=" ">
<path fill="none" stroke="#63b8ff" d="M689.5,-109.66C689.5,-92.17 689.5,-52.8 689.5,-29.27"/>
<polygon fill="#63b8ff" stroke="#63b8ff" points="693,-29.16 689.5,-19.16 686,-29.16 693,-29.16"/>
</a>
</g>
</g>
<!-- Node33&#45;&gt;Node8 -->
<g id="edge46_Node000033_Node000008" class="edge">
<title>Node33&#45;&gt;Node8</title>
<g id="a_edge46_Node000033_Node000008"><a xlink:title=" ">
<path fill="none" stroke="#63b8ff" d="M392.35,-329.97C383.33,-310.21 363.69,-259.93 376.5,-220 404.04,-134.15 423.1,-110.04 494.5,-55 519.76,-35.53 554.52,-23.75 579.58,-17.25"/>
<polygon fill="#63b8ff" stroke="#63b8ff" points="580.45,-20.64 589.33,-14.86 578.79,-13.84 580.45,-20.64"/>
</a>
</g>
</g>
<!-- Node33&#45;&gt;Node11 -->
<g id="edge41_Node000033_Node000011" class="edge">
<title>Node33&#45;&gt;Node11</title>
<g id="a_edge41_Node000033_Node000011"><a xlink:title=" ">
<path fill="none" stroke="#63b8ff" d="M377.64,-329.99C363.8,-322.63 346,-310.55 337.5,-294 300.13,-221.24 295.35,-182.35 333.5,-110 340.74,-96.27 354.33,-85.97 367.22,-78.76"/>
<polygon fill="#63b8ff" stroke="#63b8ff" points="369.09,-81.73 376.38,-74.05 365.89,-75.51 369.09,-81.73"/>
</a>
</g>
</g>
<!-- Node33&#45;&gt;Node13 -->
<g id="edge45_Node000033_Node000013" class="edge">
<title>Node33&#45;&gt;Node13</title>
<g id="a_edge45_Node000033_Node000013"><a xlink:title=" ">
<path fill="none" stroke="#63b8ff" d="M351.93,-337C288.35,-333.82 176.54,-323.99 151.5,-294 85.92,-215.44 134.03,-77.68 154.49,-28.54"/>
<polygon fill="#63b8ff" stroke="#63b8ff" points="157.76,-29.78 158.49,-19.21 151.33,-27.02 157.76,-29.78"/>
</a>
</g>
</g>
<!-- Node33&#45;&gt;Node15 -->
<g id="edge42_Node000033_Node000015" class="edge">
<title>Node33&#45;&gt;Node15</title>
<g id="a_edge42_Node000033_Node000015"><a xlink:title=" ">
<path fill="none" stroke="#63b8ff" d="M431.69,-329.98C469.33,-320.87 529.16,-306.4 570.27,-296.45"/>
<polygon fill="#63b8ff" stroke="#63b8ff" points="571.14,-299.84 580.04,-294.08 569.5,-293.03 571.14,-299.84"/>
</a>
</g>
</g>
<!-- Node33&#45;&gt;Node20 -->
<g id="edge44_Node000033_Node000020" class="edge">
<title>Node33&#45;&gt;Node20</title>
<g id="a_edge44_Node000033_Node000020"><a xlink:title=" ">
<path fill="none" stroke="#63b8ff" d="M404.46,-329.65C417.36,-315.84 444.27,-289.29 472.5,-275 623.59,-198.52 693.21,-263.93 842.5,-184 888.87,-159.17 927.84,-109.07 946.2,-82.67"/>
<polygon fill="#63b8ff" stroke="#63b8ff" points="949.29,-84.35 952.01,-74.11 943.5,-80.42 949.29,-84.35"/>
</a>
</g>
</g>
<!-- Node34 -->
<g id="Node000034" class="node">
<title>Node34</title>
<g id="a_Node000034"><a xlink:title=" ">
<polygon fill="#e0e0e0" stroke="#999999" points="546,-294 481,-294 481,-275 546,-275 546,-294"/>
<text text-anchor="middle" x="513.5" y="-282" font-family="Helvetica,sans-Serif" font-size="10.00">functional</text>
</a>
</g>
</g>
<!-- Node33&#45;&gt;Node34 -->
<g id="edge43_Node000033_Node000034" class="edge">
<title>Node33&#45;&gt;Node34</title>
<g id="a_edge43_Node000033_Node000034"><a xlink:title=" ">
<path fill="none" stroke="#63b8ff" d="M415.3,-329.98C434.12,-321.46 463.32,-308.23 485,-298.41"/>
<polygon fill="#63b8ff" stroke="#63b8ff" points="486.7,-301.48 494.36,-294.17 483.81,-295.11 486.7,-301.48"/>
</a>
</g>
</g>
<!-- Node36 -->
<g id="Node000036" class="node">
<title>Node36</title>
<g id="a_Node000036"><a xlink:href="parser_8h.html" target="_top" xlink:title="Parser utilities.">
<polygon fill="white" stroke="#666666" points="637.5,-569 563.5,-569 563.5,-550 637.5,-550 637.5,-569"/>
<text text-anchor="middle" x="600.5" y="-557" font-family="Helvetica,sans-Serif" font-size="10.00">util/parser.h</text>
</a>
</g>
</g>
<!-- Node35&#45;&gt;Node36 -->
<g id="edge48_Node000035_Node000036" class="edge">
<title>Node35&#45;&gt;Node36</title>
<g id="a_edge48_Node000035_Node000036"><a xlink:title=" ">
<path fill="none" stroke="#63b8ff" d="M600.5,-604.75C600.5,-597.8 600.5,-587.85 600.5,-579.13"/>
<polygon fill="#63b8ff" stroke="#63b8ff" points="604,-579.09 600.5,-569.09 597,-579.09 604,-579.09"/>
</a>
</g>
</g>
<!-- Node44 -->
<g id="Node000044" class="node">
<title>Node44</title>
<g id="a_Node000044"><a xlink:href="xml__parse__tree_8h.html" target="_top" xlink:title=" ">
<polygon fill="white" stroke="#666666" points="1043,-569 942,-569 942,-550 1043,-550 1043,-569"/>
<text text-anchor="middle" x="992.5" y="-557" font-family="Helvetica,sans-Serif" font-size="10.00">xml_parse_tree.h</text>
</a>
</g>
</g>
<!-- Node35&#45;&gt;Node44 -->
<g id="edge69_Node000035_Node000044" class="edge">
<title>Node35&#45;&gt;Node44</title>
<g id="a_edge69_Node000035_Node000044"><a xlink:title=" ">
<path fill="none" stroke="#63b8ff" d="M661.75,-605.22C735.48,-595.25 858.51,-578.62 931.93,-568.69"/>
<polygon fill="#63b8ff" stroke="#63b8ff" points="932.51,-572.14 941.96,-567.33 931.58,-565.21 932.51,-572.14"/>
</a>
</g>
</g>
<!-- Node36&#45;&gt;Node5 -->
<g id="edge66_Node000036_Node000005" class="edge">
<title>Node36&#45;&gt;Node5</title>
<g id="a_edge66_Node000036_Node000005"><a xlink:title=" ">
<path fill="none" stroke="#63b8ff" d="M563.22,-554.13C477.85,-543.08 275.5,-510.55 275.5,-450.5 275.5,-450.5 275.5,-450.5 275.5,-338.5 275.5,-307 270.39,-270.64 266.84,-249.16"/>
<polygon fill="#63b8ff" stroke="#63b8ff" points="270.26,-248.4 265.12,-239.14 263.37,-249.59 270.26,-248.4"/>
</a>
</g>
</g>
<!-- Node36&#45;&gt;Node8 -->
<g id="edge67_Node000036_Node000008" class="edge">
<title>Node36&#45;&gt;Node8</title>
<g id="a_edge67_Node000036_Node000008"><a xlink:title=" ">
<path fill="none" stroke="#63b8ff" d="M637.61,-559.24C762.46,-560.74 1159.5,-557.13 1159.5,-450.5 1159.5,-450.5 1159.5,-450.5 1159.5,-118.5 1159.5,-56.98 1095.55,-72.26 1036.5,-55 869.42,-6.17 818.2,-47.62 646.5,-19 645.58,-18.85 644.65,-18.68 643.72,-18.51"/>
<polygon fill="#63b8ff" stroke="#63b8ff" points="644.12,-15.02 633.62,-16.39 642.68,-21.87 644.12,-15.02"/>
</a>
</g>
</g>
<!-- Node36&#45;&gt;Node9 -->
<g id="edge68_Node000036_Node000009" class="edge">
<title>Node36&#45;&gt;Node9</title>
<g id="a_edge68_Node000036_Node000009"><a xlink:title=" ">
<path fill="none" stroke="#63b8ff" d="M563.34,-555.77C496.88,-550.36 360.78,-536.83 319.5,-514 186.79,-440.61 152.1,-386.65 117.5,-239 99.48,-162.08 87.31,-68.54 82.64,-29.28"/>
<polygon fill="#63b8ff" stroke="#63b8ff" points="86.11,-28.83 81.48,-19.3 79.16,-29.64 86.11,-28.83"/>
</a>
</g>
</g>
<!-- Node36&#45;&gt;Node20 -->
<g id="edge65_Node000036_Node000020" class="edge">
<title>Node36&#45;&gt;Node20</title>
<g id="a_edge65_Node000036_Node000020"><a xlink:title=" ">
<path fill="none" stroke="#63b8ff" d="M637.6,-558.11C750.7,-555.94 1083.5,-541.8 1083.5,-450.5 1083.5,-450.5 1083.5,-450.5 1083.5,-173.5 1083.5,-124.84 1028.65,-93.37 991.33,-77.6"/>
<polygon fill="#63b8ff" stroke="#63b8ff" points="992.38,-74.25 981.79,-73.74 989.75,-80.74 992.38,-74.25"/>
</a>
</g>
</g>
<!-- Node36&#45;&gt;Node33 -->
<g id="edge63_Node000036_Node000033" class="edge">
<title>Node36&#45;&gt;Node33</title>
<g id="a_edge63_Node000036_Node000033"><a xlink:title=" ">
<path fill="none" stroke="#63b8ff" d="M591.88,-549.69C583.16,-540.74 569.32,-526.48 557.5,-514 503.26,-456.73 439.84,-387.8 411.51,-356.89"/>
<polygon fill="#63b8ff" stroke="#63b8ff" points="413.82,-354.23 404.48,-349.22 408.66,-358.96 413.82,-354.23"/>
</a>
</g>
</g>
<!-- Node37 -->
<g id="Node000037" class="node">
<title>Node37</title>
<g id="a_Node000037"><a xlink:href="expr_8h.html" target="_top" xlink:title=" ">
<polygon fill="white" stroke="#666666" points="745,-514 698,-514 698,-495 745,-495 745,-514"/>
<text text-anchor="middle" x="721.5" y="-502" font-family="Helvetica,sans-Serif" font-size="10.00">expr.h</text>
</a>
</g>
</g>
<!-- Node36&#45;&gt;Node37 -->
<g id="edge49_Node000036_Node000037" class="edge">
<title>Node36&#45;&gt;Node37</title>
<g id="a_edge49_Node000036_Node000037"><a xlink:title=" ">
<path fill="none" stroke="#63b8ff" d="M619.94,-549.98C639.49,-541.42 669.88,-528.11 692.32,-518.28"/>
<polygon fill="#63b8ff" stroke="#63b8ff" points="693.95,-521.39 701.71,-514.17 691.14,-514.98 693.95,-521.39"/>
</a>
</g>
</g>
<!-- Node43 -->
<g id="Node000043" class="node">
<title>Node43</title>
<g id="a_Node000043"><a xlink:title=" ">
<polygon fill="#e0e0e0" stroke="#999999" points="634.5,-514 566.5,-514 566.5,-495 634.5,-495 634.5,-514"/>
<text text-anchor="middle" x="600.5" y="-502" font-family="Helvetica,sans-Serif" font-size="10.00">filesystem</text>
</a>
</g>
</g>
<!-- Node36&#45;&gt;Node43 -->
<g id="edge64_Node000036_Node000043" class="edge">
<title>Node36&#45;&gt;Node43</title>
<g id="a_edge64_Node000036_Node000043"><a xlink:title=" ">
<path fill="none" stroke="#63b8ff" d="M600.5,-549.75C600.5,-542.8 600.5,-532.85 600.5,-524.13"/>
<polygon fill="#63b8ff" stroke="#63b8ff" points="604,-524.09 600.5,-514.09 597,-524.09 604,-524.09"/>
</a>
</g>
</g>
<!-- Node37&#45;&gt;Node31 -->
<g id="edge50_Node000037_Node000031" class="edge">
<title>Node37&#45;&gt;Node31</title>
<g id="a_edge50_Node000037_Node000031"><a xlink:title=" ">
<path fill="none" stroke="#63b8ff" d="M745.06,-500.82C819.62,-491.71 1045.5,-458.87 1045.5,-395.5 1045.5,-395.5 1045.5,-395.5 1045.5,-228.5 1045.5,-191.64 1018,-155.97 999.63,-136.26"/>
<polygon fill="#63b8ff" stroke="#63b8ff" points="1002.12,-133.8 992.65,-129.06 997.09,-138.67 1002.12,-133.8"/>
</a>
</g>
</g>
<!-- Node37&#45;&gt;Node34 -->
<g id="edge62_Node000037_Node000034" class="edge">
<title>Node37&#45;&gt;Node34</title>
<g id="a_edge62_Node000037_Node000034"><a xlink:title=" ">
<path fill="none" stroke="#63b8ff" d="M700.16,-494.99C667.51,-480.91 605.3,-449.71 570.5,-404 546.28,-372.18 528.51,-328.42 519.71,-303.96"/>
<polygon fill="#63b8ff" stroke="#63b8ff" points="522.91,-302.49 516.31,-294.2 516.3,-304.79 522.91,-302.49"/>
</a>
</g>
</g>
<!-- Node38 -->
<g id="Node000038" class="node">
<title>Node38</title>
<g id="a_Node000038"><a xlink:href="type_8h.html" target="_top" xlink:title="Defines typet, type_with_subtypet and type_with_subtypest.">
<polygon fill="white" stroke="#666666" points="851,-459 804,-459 804,-440 851,-440 851,-459"/>
<text text-anchor="middle" x="827.5" y="-447" font-family="Helvetica,sans-Serif" font-size="10.00">type.h</text>
</a>
</g>
</g>
<!-- Node37&#45;&gt;Node38 -->
<g id="edge51_Node000037_Node000038" class="edge">
<title>Node37&#45;&gt;Node38</title>
<g id="a_edge51_Node000037_Node000038"><a xlink:title=" ">
<path fill="none" stroke="#63b8ff" d="M738.53,-494.98C755.43,-486.54 781.56,-473.47 801.14,-463.68"/>
<polygon fill="#63b8ff" stroke="#63b8ff" points="802.78,-466.77 810.16,-459.17 799.65,-460.51 802.78,-466.77"/>
</a>
</g>
</g>
<!-- Node40 -->
<g id="Node000040" class="node">
<title>Node40</title>
<g id="a_Node000040"><a xlink:href="validation__mode_8h.html" target="_top" xlink:title=" ">
<polygon fill="white" stroke="#666666" points="1017,-349 910,-349 910,-330 1017,-330 1017,-349"/>
<text text-anchor="middle" x="963.5" y="-337" font-family="Helvetica,sans-Serif" font-size="10.00">validation_mode.h</text>
</a>
</g>
</g>
<!-- Node37&#45;&gt;Node40 -->
<g id="edge61_Node000037_Node000040" class="edge">
<title>Node37&#45;&gt;Node40</title>
<g id="a_edge61_Node000037_Node000040"><a xlink:title=" ">
<path fill="none" stroke="#63b8ff" d="M745.03,-499.9C774.07,-494.61 824.07,-482.68 860.5,-459 902.04,-431.99 936.52,-383.59 953.02,-357.8"/>
<polygon fill="#63b8ff" stroke="#63b8ff" points="956.12,-359.45 958.44,-349.11 950.18,-355.74 956.12,-359.45"/>
</a>
</g>
</g>
<!-- Node41 -->
<g id="Node000041" class="node">
<title>Node41</title>
<g id="a_Node000041"><a xlink:href="validate__types_8h.html" target="_top" xlink:title=" ">
<polygon fill="white" stroke="#666666" points="677.5,-404 579.5,-404 579.5,-385 677.5,-385 677.5,-404"/>
<text text-anchor="middle" x="628.5" y="-392" font-family="Helvetica,sans-Serif" font-size="10.00">validate_types.h</text>
</a>
</g>
</g>
<!-- Node37&#45;&gt;Node41 -->
<g id="edge60_Node000037_Node000041" class="edge">
<title>Node37&#45;&gt;Node41</title>
<g id="a_edge60_Node000037_Node000041"><a xlink:title=" ">
<path fill="none" stroke="#63b8ff" d="M699.03,-494.91C682.83,-487.64 661.58,-475.71 648.5,-459 638.37,-446.06 633.32,-427.9 630.84,-414.32"/>
<polygon fill="#63b8ff" stroke="#63b8ff" points="634.26,-413.56 629.3,-404.2 627.34,-414.61 634.26,-413.56"/>
</a>
</g>
</g>
<!-- Node42 -->
<g id="Node000042" class="node">
<title>Node42</title>
<g id="a_Node000042"><a xlink:href="validate__expressions_8h.html" target="_top" xlink:title=" ">
<polygon fill="white" stroke="#666666" points="786,-459 657,-459 657,-440 786,-440 786,-459"/>
<text text-anchor="middle" x="721.5" y="-447" font-family="Helvetica,sans-Serif" font-size="10.00">validate_expressions.h</text>
</a>
</g>
</g>
<!-- Node37&#45;&gt;Node42 -->
<g id="edge59_Node000037_Node000042" class="edge">
<title>Node37&#45;&gt;Node42</title>
<g id="a_edge59_Node000037_Node000042"><a xlink:title=" ">
<path fill="none" stroke="#63b8ff" d="M721.5,-494.75C721.5,-487.8 721.5,-477.85 721.5,-469.13"/>
<polygon fill="#63b8ff" stroke="#63b8ff" points="725,-469.09 721.5,-459.09 718,-469.09 725,-469.09"/>
</a>
</g>
</g>
<!-- Node38&#45;&gt;Node15 -->
<g id="edge52_Node000038_Node000015" class="edge">
<title>Node38&#45;&gt;Node15</title>
<g id="a_edge52_Node000038_Node000015"><a xlink:title=" ">
<path fill="none" stroke="#63b8ff" d="M816.4,-439.97C782.21,-413.68 678.17,-333.69 634.8,-300.34"/>
<polygon fill="#63b8ff" stroke="#63b8ff" points="636.81,-297.47 626.75,-294.15 632.54,-303.02 636.81,-297.47"/>
</a>
</g>
</g>
<!-- Node39 -->
<g id="Node000039" class="node">
<title>Node39</title>
<g id="a_Node000039"><a xlink:href="validate_8h.html" target="_top" xlink:title=" ">
<polygon fill="white" stroke="#666666" points="865,-404 800,-404 800,-385 865,-385 865,-404"/>
<text text-anchor="middle" x="832.5" y="-392" font-family="Helvetica,sans-Serif" font-size="10.00">validate.h</text>
</a>
</g>
</g>
<!-- Node38&#45;&gt;Node39 -->
<g id="edge53_Node000038_Node000039" class="edge">
<title>Node38&#45;&gt;Node39</title>
<g id="a_edge53_Node000038_Node000039"><a xlink:title=" ">
<path fill="none" stroke="#63b8ff" d="M828.33,-439.75C828.98,-432.8 829.92,-422.85 830.74,-414.13"/>
<polygon fill="#63b8ff" stroke="#63b8ff" points="834.23,-414.37 831.69,-404.09 827.27,-413.72 834.23,-414.37"/>
</a>
</g>
</g>
<!-- Node38&#45;&gt;Node40 -->
<g id="edge58_Node000038_Node000040" class="edge">
<title>Node38&#45;&gt;Node40</title>
<g id="a_edge58_Node000038_Node000040"><a xlink:title=" ">
<path fill="none" stroke="#63b8ff" d="M838.63,-439.66C861.86,-421.22 915.72,-378.45 944.52,-355.57"/>
<polygon fill="#63b8ff" stroke="#63b8ff" points="946.94,-358.12 952.6,-349.16 942.59,-352.64 946.94,-358.12"/>
</a>
</g>
</g>
<!-- Node38&#45;&gt;Node41 -->
<g id="edge57_Node000038_Node000041" class="edge">
<title>Node38&#45;&gt;Node41</title>
<g id="a_edge57_Node000038_Node000041"><a xlink:title=" ">
<path fill="none" stroke="#63b8ff" d="M803.89,-442.21C771.05,-433.47 711.06,-417.49 670.49,-406.68"/>
<polygon fill="#63b8ff" stroke="#63b8ff" points="671.19,-403.25 660.62,-404.05 669.38,-410.01 671.19,-403.25"/>
</a>
</g>
</g>
<!-- Node39&#45;&gt;Node10 -->
<g id="edge55_Node000039_Node000010" class="edge">
<title>Node39&#45;&gt;Node10</title>
<g id="a_edge55_Node000039_Node000010"><a xlink:title=" ">
<path fill="none" stroke="#63b8ff" d="M826.06,-384.75C820.61,-377.34 812.64,-366.5 805.94,-357.41"/>
<polygon fill="#63b8ff" stroke="#63b8ff" points="808.57,-355.07 799.82,-349.09 802.93,-359.22 808.57,-355.07"/>
</a>
</g>
</g>
<!-- Node39&#45;&gt;Node14 -->
<g id="edge54_Node000039_Node000014" class="edge">
<title>Node39&#45;&gt;Node14</title>
<g id="a_edge54_Node000039_Node000014"><a xlink:title=" ">
<path fill="none" stroke="#63b8ff" d="M840.86,-384.58C853.3,-371.6 877.77,-347.2 901.5,-330 1067.69,-209.55 1412,-205.55 1272.5,-55 1236.14,-15.76 864.39,-10.97 734.22,-10.5"/>
<polygon fill="#63b8ff" stroke="#63b8ff" points="734.2,-7 724.19,-10.47 734.18,-14 734.2,-7"/>
</a>
</g>
</g>
<!-- Node39&#45;&gt;Node40 -->
<g id="edge56_Node000039_Node000040" class="edge">
<title>Node39&#45;&gt;Node40</title>
<g id="a_edge56_Node000039_Node000040"><a xlink:title=" ">
<path fill="none" stroke="#63b8ff" d="M853.55,-384.98C874.91,-376.34 908.2,-362.87 932.56,-353.02"/>
<polygon fill="#63b8ff" stroke="#63b8ff" points="934.11,-356.17 942.07,-349.17 931.49,-349.68 934.11,-356.17"/>
</a>
</g>
</g>
<!-- Node45 -->
<g id="Node000045" class="node">
<title>Node45</title>
<g id="a_Node000045"><a xlink:href="xml_8h.html" target="_top" xlink:title=" ">
<polygon fill="white" stroke="#666666" points="1251,-129 1188,-129 1188,-110 1251,-110 1251,-129"/>
<text text-anchor="middle" x="1219.5" y="-117" font-family="Helvetica,sans-Serif" font-size="10.00">util/xml.h</text>
</a>
</g>
</g>
<!-- Node44&#45;&gt;Node45 -->
<g id="edge70_Node000044_Node000045" class="edge">
<title>Node44&#45;&gt;Node45</title>
<g id="a_edge70_Node000044_Node000045"><a xlink:title=" ">
<path fill="none" stroke="#63b8ff" d="M1043.14,-557.62C1114.36,-553.4 1235.5,-533.95 1235.5,-450.5 1235.5,-450.5 1235.5,-450.5 1235.5,-228.5 1235.5,-196.85 1228.69,-160.54 1223.96,-139.11"/>
<polygon fill="#63b8ff" stroke="#63b8ff" points="1227.31,-138.08 1221.66,-129.12 1220.49,-139.65 1227.31,-138.08"/>
</a>
</g>
</g>
<!-- Node45&#45;&gt;Node6 -->
<g id="edge71_Node000045_Node000006" class="edge">
<title>Node45&#45;&gt;Node6</title>
<g id="a_edge71_Node000045_Node000006"><a xlink:title=" ">
<path fill="none" stroke="#63b8ff" d="M1195.15,-109.89C1153.72,-95.67 1066.62,-67.59 990.5,-55 715.56,-9.51 642.54,-37.83 364.5,-19 336.31,-17.09 304.05,-14.53 281.99,-12.72"/>
<polygon fill="#63b8ff" stroke="#63b8ff" points="282,-9.21 271.74,-11.87 281.42,-16.18 282,-9.21"/>
</a>
</g>
</g>
<!-- Node45&#45;&gt;Node8 -->
<g id="edge73_Node000045_Node000008" class="edge">
<title>Node45&#45;&gt;Node8</title>
<g id="a_edge73_Node000045_Node000008"><a xlink:title=" ">
<path fill="none" stroke="#63b8ff" d="M1216.03,-109.61C1209.89,-95.23 1195.65,-67.27 1173.5,-55 1070.83,1.9 762.51,-36.92 646.5,-19 645.58,-18.86 644.65,-18.7 643.71,-18.54"/>
<polygon fill="#63b8ff" stroke="#63b8ff" points="644.1,-15.05 633.6,-16.47 642.7,-21.9 644.1,-15.05"/>
</a>
</g>
</g>
<!-- Node45&#45;&gt;Node20 -->
<g id="edge74_Node000045_Node000020" class="edge">
<title>Node45&#45;&gt;Node20</title>
<g id="a_edge74_Node000045_Node000020"><a xlink:title=" ">
<path fill="none" stroke="#63b8ff" d="M1187.9,-112.11C1138.37,-102.09 1042.84,-82.76 991.74,-72.43"/>
<polygon fill="#63b8ff" stroke="#63b8ff" points="992.33,-68.98 981.84,-70.42 990.94,-75.84 992.33,-68.98"/>
</a>
</g>
</g>
<!-- Node46 -->
<g id="Node000046" class="node">
<title>Node46</title>
<g id="a_Node000046"><a xlink:title=" ">
<polygon fill="#e0e0e0" stroke="#999999" points="1263.5,-74 1225.5,-74 1225.5,-55 1263.5,-55 1263.5,-74"/>
<text text-anchor="middle" x="1244.5" y="-62" font-family="Helvetica,sans-Serif" font-size="10.00">map</text>
</a>
</g>
</g>
<!-- Node45&#45;&gt;Node46 -->
<g id="edge72_Node000045_Node000046" class="edge">
<title>Node45&#45;&gt;Node46</title>
<g id="a_edge72_Node000045_Node000046"><a xlink:title=" ">
<path fill="none" stroke="#63b8ff" d="M1223.63,-109.75C1227.01,-102.57 1231.92,-92.18 1236.12,-83.27"/>
<polygon fill="#63b8ff" stroke="#63b8ff" points="1239.35,-84.63 1240.45,-74.09 1233.02,-81.64 1239.35,-84.63"/>
</a>
</g>
</g>
</g>
</svg>
